<svg id="Logos_Patrocinadores" data-name="Logos Patrocinadores" xmlns="http://www.w3.org/2000/svg" viewBox="0 0 1500 600"><defs><style>.cls-1{fill:#7a97ab;}</style></defs><path class="cls-1" d="M745.88,409.7c-18.76-.53-41.76-.77-64.72-2-22.39-1.16-44.74-3.09-67.07-5.06-26.61-2.34-53-6.14-79.31-10.91-36.4-6.61-72.32-15.07-106.92-28.44-16.22-6.27-31.91-13.63-46.19-23.69A82.14,82.14,0,0,1,363.59,323c-5.82-7.54-9.45-15.83-8.73-25.62a35.67,35.67,0,0,1,6.24-17.28c5.68-8.62,13.37-15.2,21.77-21,13.43-9.28,28.08-16.2,43.2-22.17,25.42-10,51.7-17.16,78.33-23.07q38.29-8.49,77.22-13.31c18.1-2.27,36.27-4,54.44-5.7q38.57-3.63,77.29-4.15c22.43-.31,44.87-.5,67.29-.23,16.79.2,33.59.82,50.34,2,22.59,1.56,45.15,3.57,67.68,5.82a840.79,840.79,0,0,1,87.43,13.58c31.58,6.56,62.72,14.69,92.6,27,15.56,6.43,30.57,13.89,44,24.28A74.53,74.53,0,0,1,1138,278.73c9.53,13.45,9.65,27.93.33,41.57-5.36,7.84-12.4,14-20.09,19.38-14.27,10.08-30,17.39-46.2,23.68-29.92,11.59-60.91,19.39-92.31,25.67q-38.46,7.68-77.45,12c-18.58,2-37.23,3.66-55.87,5-16.07,1.19-32.18,2-48.28,2.57S766.13,409.3,745.88,409.7ZM547.7,261.14l-.52.28c0,.43,0,.86.06,1.28.82,6,2.06,12,2.39,18,.61,11.42-.42,22.73-4.61,33.52-6.5,16.7-19.11,25.37-36.43,26.72a80.46,80.46,0,0,1-23.14-1.8l-12.61-2.67a151.41,151.41,0,0,0,18.3,21.4,52.63,52.63,0,0,0,14.28,10.05,14.5,14.5,0,0,0,13-.06c6.39-3,11.81-7.41,16.92-12.17a128.23,128.23,0,0,0,22.82-29.13c7.17-12.21,9.27-25.16,4.4-38.88A91.89,91.89,0,0,0,553.31,269C551.58,266.27,549.58,263.75,547.7,261.14Zm164.6-14.7c-4.54.67-9.18.95-13.6,2.1-8.52,2.24-15,7.43-18.29,15.69a32.62,32.62,0,0,0-2.11,19.18c2,10,7.49,17.15,16.92,21.21a41.68,41.68,0,0,0,11.08,2.76A44.92,44.92,0,0,0,731,304.05a25.69,25.69,0,0,0,13.4-13.68,32,32,0,0,0,2-19.47c-1.82-9.12-6.42-16.21-15.05-20.38C725.38,247.59,719,246.66,712.3,246.44Zm200.76,31.11q0,12.51,0,25c0,3.85.09,3.92,4,3.93h44.64c.68,0,1.35,0,2,0a1.88,1.88,0,0,0,2-2.14c0-.67,0-1.35,0-2,0-6.41.48-5.93-5.75-5.93H929.64c-5.08,0-5.08,0-5.08-5.25,0-1.69,0-3.38,0-5.07,0-4.56,0-4.57,4.41-4.57h24.69c6.26,0,6.44-.2,6.06-6.48,0-.34,0-.68-.06-1-.21-1.69-1.07-2.68-2.88-2.64-.9,0-1.8,0-2.71,0-8.79,0-17.58,0-26.37,0-2.84,0-3.07-.29-3.13-3.12-.05-2.26,0-4.51,0-6.77,0-3.44.19-3.61,3.66-3.62,10.26,0,20.52,0,30.77,0,6.6,0,6.18.83,6.15-6.19,0-3-.29-3.25-3.33-3.26q-22.66,0-45.32,0c-3.21,0-3.41.22-3.42,3.51C913,260.42,913.06,269,913.06,277.55Zm129.16,8.09c-3,0-5.69,0-8.35-.12a3.17,3.17,0,0,0-3.6,2.29,12.52,12.52,0,0,1-5.49,6.22c-8.25,5.16-16.83,4.92-25.53,1.4A15.13,15.13,0,0,1,995,292.7c-6.13-5.47-7-12.55-5.79-20.13,1.15-7,5.07-11.9,11.81-14.4a29.14,29.14,0,0,1,14.63-1.43c5.82.86,10.74,3.24,14,8.42a2.6,2.6,0,0,0,1.52,1.22,45.73,45.73,0,0,0,10.19,0,23.88,23.88,0,0,0-.8-3c-3-7.17-8.08-12.28-15.54-14.47-10.66-3.11-21.42-3.08-31.79,1.15-6.61,2.69-11.2,7.74-14,14.41-2.15,5.17-2.28,10.58-1.87,16,.89,11.7,7.52,21.19,18.6,25a45.34,45.34,0,0,0,24.29,1.48c6.3-1.26,12.06-3.69,16.43-8.69A21.76,21.76,0,0,0,1042.22,285.64ZM663.86,266.49a27.58,27.58,0,0,0-.76-3.08,24,24,0,0,0-16.42-14.84,47.27,47.27,0,0,0-26.67,0c-9.4,2.74-16.34,8.51-19,18.36a36.14,36.14,0,0,0,.63,21.3,26.4,26.4,0,0,0,11.19,14.35,34.82,34.82,0,0,0,14.6,4.87c9.05,1.15,17.79,0,25.85-4.41a22.87,22.87,0,0,0,11.08-13.92c.85-2.82.36-3.48-2.51-3.59-1.46-.05-2.93.1-4.39,0a4.45,4.45,0,0,0-5,3c-1.32,3-3.79,4.89-6.57,6.56-4.62,2.76-9.64,2.83-14.74,2.66-8.23-.28-14.47-3.74-18-11.41a22.06,22.06,0,0,1-1.72-10.55c.49-10.08,6.65-16.43,15-18.42a34,34,0,0,1,9.7-.8c6.55.39,12.28,2.7,16.11,8.48.4.61,1.13,1.38,1.73,1.4C657.12,266.56,660.33,266.49,663.86,266.49Zm162.79,39.89c-.63-1.67-.87-2.52-1.25-3.31q-6.4-13.21-12.85-26.41c-4.14-8.5-8.32-17-12.38-25.51-.94-2-2.16-3-4.42-2.85a64.49,64.49,0,0,1-7.09,0c-2.11-.1-3.26.86-4.16,2.69q-12.94,26.38-26,52.71a27.83,27.83,0,0,0-1,2.77c3.28,0,6.15,0,9,0a3.34,3.34,0,0,0,3.45-2.16c1.29-2.87,2.71-5.69,3.92-8.59a4.12,4.12,0,0,1,4.4-2.82q13.68.17,27.36,0a4.33,4.33,0,0,1,4.65,3c1.13,2.81,2.41,5.58,3.76,8.29.41.83,1.21,2,1.9,2C819.34,306.49,822.68,306.38,826.65,306.38ZM465.78,320.46c.47-7.72.74-15.56,1.48-23.36a79.7,79.7,0,0,1,6-24.15c4-9.31,10.67-15.86,20.17-19.25a51.06,51.06,0,0,1,13.06-3.22c8.85-.64,17.76-.52,26.65-.73.82,0,1.64-.1,3.22-.2a28.24,28.24,0,0,0-3.75-3.34c-4.74-2.78-9.49-5.58-14.4-8.06-5.88-3-11.94-2.85-18-.2a77.47,77.47,0,0,0-40,38.91,32.59,32.59,0,0,0-3,17.46c.95,9.2,4.32,17.68,8.23,26A.45.45,0,0,0,465.78,320.46Zm400.27-72.13c-8.67,0-17.35,0-26,0-6.54,0-6.14-.84-6.1,6.23,0,3,.28,3.2,3.36,3.22,5.86,0,11.72,0,17.58,0s5.43-.31,5.43,5.58q0,19.44,0,38.88c0,4.23,0,4.23,4.38,4.25,1.35,0,2.71,0,4.06,0,2,.05,2.87-1,3-2.88.07-1,.06-2,.06-3V262.72c0-4.91,0-4.91,5.08-4.92h15.21c5.75,0,5.44.39,5.42-5.58,0-3.8-.09-3.88-4.06-3.89Q879.73,248.32,866.05,248.33Zm-15.46,109c5.95,0,11.68.07,17.41,0a30.4,30.4,0,0,0,6-.74c8.92-2,13.49-8.28,13.34-18.07-.14-8.83-5.11-15.21-14-16.34-7.42-.95-15-.69-22.77-1ZM749.66,321.17v36.15c5.9,0,11.61.07,17.32,0a29.74,29.74,0,0,0,6-.72c8.94-2,13.65-8.3,13.5-18-.14-9-5.21-15.38-14.24-16.5C764.93,321.19,757.45,321.45,749.66,321.17Zm204.63.25v35.7h4.1V341.54c4.06,0,7.75.1,11.42-.05a4.66,4.66,0,0,1,4.44,2.35c2.49,3.62,5.14,7.12,7.72,10.67,2.4,3.29,2.5,3.33,6.93,2.27l-11-15.09a50.46,50.46,0,0,0,5.18-1.57c3.47-1.5,5.61-4.05,5.79-8,.22-5.09-2.3-8.64-7.37-9.83a36.74,36.74,0,0,0-7.69-.84C967.4,321.35,961,321.42,954.29,321.42ZM600.88,349.9c.61.77.92,1.23,1.31,1.64a19.79,19.79,0,0,0,11,6.1,35.16,35.16,0,0,0,15.41-.44,13.6,13.6,0,0,0,7.17-4.22c3.77-4.44,2.67-11.14-2.67-13.35-3.57-1.48-7.58-1.93-11.43-2.65-3.64-.67-7.36-.93-11-1.7a4.7,4.7,0,0,1-4.07-4.38c-.16-2.17,1.14-4.1,3.61-5.19a14.39,14.39,0,0,1,3.22-1c7.58-1.38,14.58-.46,20.31,5.65l2.85-2.47a14.44,14.44,0,0,0-6.84-5.25,28.9,28.9,0,0,0-17.57-1.38,19.68,19.68,0,0,0-5.92,2.29c-3.21,1.92-4.29,5.05-4,8.71s2.64,5.31,5.61,6.5a14.69,14.69,0,0,0,3.24.89c3.45.51,6.93.81,10.37,1.38a43.66,43.66,0,0,1,8.85,2c3.82,1.49,4.32,5.9,1,8.39a13.49,13.49,0,0,1-5.5,2.39c-8.26,1.54-16,.73-21.9-6.49Zm69.32-29.42A26,26,0,0,0,659,323c-6.82,3.46-10,9.15-10,16.69,0,7.35,3.25,12.72,9.75,16.09,5.22,2.71,10.82,3,16.47,2,9.6-1.69,15.73-8.73,15.83-17.86.1-9.61-5.56-16.58-15.23-18.67C674,320.85,672.09,320.73,670.2,320.48ZM1042.64,357l-18.05-35.22c-4-1.1-6,.15-7.57,3.5-4.58,9.54-9.59,18.86-14.43,28.28-.55,1.08-1.06,2.18-1.73,3.58h4.67c1.19-2.33,2.42-4.48,3.4-6.75a3.6,3.6,0,0,1,3.87-2.46c4.62.13,9.29.46,13.85-.07,5.25-.62,8.06,1.28,9.75,6.18C1037.63,357.63,1038,357.5,1042.64,357Zm-109-35.39c-.06,1.28-.15,2.39-.16,3.49,0,6.09.07,12.18,0,18.26-.09,5.77-2.9,9.28-8.55,10.56a29.56,29.56,0,0,1-7,.58c-8.3-.19-12.39-4.35-12.49-12.62-.07-5.52,0-11,0-16.57V321.6h-4.11c0,8.24-.34,16.34.12,24.38.33,5.89,4.24,9.56,9.83,11.18a29.36,29.36,0,0,0,15.7.2c6.78-1.74,10.6-5.94,10.93-12.88.34-7.42,0-14.87,0-22.3,0-.19-.24-.37-.38-.55ZM796.64,357c4.21.7,4.21.7,5.92-2.69.71-1.4,1.53-2.77,2.1-4.23.65-1.63,1.75-2.09,3.41-2.07,4.51.08,9.07.47,13.51-.08,5.61-.7,8.75,1.28,10.54,6.59,1.17,3.45,1.66,3.35,5.8,2.33-.27-.63-.49-1.25-.79-1.84-5.34-10.42-10.74-20.81-16-31.28-.92-1.82-2.06-2.26-3.95-2.33s-3,.8-3.83,2.49c-5.2,10.24-10.49,20.43-15.74,30.64C797.24,355.26,797,356.1,796.64,357ZM709,353.46c-.36-11.07.18-21.49-.32-32.06l-3.78.19v35.49H737v-3.62Z"/><path class="cls-1" d="M712.5,298.05a78.91,78.91,0,0,1-9-1.17c-9-2.24-13.5-8.87-14.34-17.87a23.16,23.16,0,0,1,.26-6.05c1.38-8,6.24-13,14-15.27a32.55,32.55,0,0,1,18.63.12c7,2,13.18,8.07,13.78,17.68a22.74,22.74,0,0,1-3.18,13.61c-3.55,5.77-9.31,7.83-15.68,8.59a37.8,37.8,0,0,1-4.39,0Z"/><path class="cls-1" d="M792.73,258.35l11.41,24.31c-3.09,1.06-20.18,1.13-23.71.13,3.63-8.32,7.58-16.4,11.39-24.55Z"/><path class="cls-1" d="M855,353.17V325.83a4.31,4.31,0,0,1,1.23-.4c4.73,0,9.46-.16,14.18.06,6.13.28,10.53,3.56,11.92,8.75a18.65,18.65,0,0,1-.18,10.34,11.34,11.34,0,0,1-10.31,8.48C866.35,353.55,860.82,353.17,855,353.17Z"/><path class="cls-1" d="M754.1,353.12V325.85a4.08,4.08,0,0,1,1.23-.42c4.72,0,9.45-.16,14.17.06,6.15.29,10.48,3.5,11.88,8.77a17.78,17.78,0,0,1-.61,11.58,11,11,0,0,1-9.5,7.16C765.71,353.48,760.08,353.12,754.1,353.12Z"/><path class="cls-1" d="M958.37,337.48c0-3.62,0-6.87,0-10.13,0-.53.11-1.07.17-1.64,7,0,13.84-.16,20.65.08a5.37,5.37,0,0,1,5.48,4.63,5.43,5.43,0,0,1-3.75,6.37,9.84,9.84,0,0,1-2.95.66C971.59,337.5,965.2,337.48,958.37,337.48Z"/><path class="cls-1" d="M686.54,339.48c-.11,7.73-4.48,12.93-12,14.51a22.53,22.53,0,0,1-10-.23c-6.59-1.62-10.72-6.9-11.07-14a14.29,14.29,0,0,1,9.42-14.21,20.27,20.27,0,0,1,13.27-.4C682.83,327.14,686.64,332.39,686.54,339.48Z"/><path class="cls-1" d="M1031.3,344h-19l9.49-19.07C1025,331.5,1028,337.49,1031.3,344Z"/><path class="cls-1" d="M807.79,344c3.23-6.48,6.17-12.39,9.5-19.06,3.29,6.61,6.29,12.61,9.51,19.06Z"/></svg>