<svg id="Logos_Patrocinadores" data-name="Logos Patrocinadores" xmlns="http://www.w3.org/2000/svg" viewBox="0 0 1500 600"><defs><style>.cls-1{fill:#7a97ab;}</style></defs><path class="cls-1" d="M966.15,473.51H533.85a43,43,0,0,1-42.93-42.92V169.41a43,43,0,0,1,42.93-42.92h432.3a43,43,0,0,1,42.93,42.92V430.59A43,43,0,0,1,966.15,473.51Zm-432.3-343a39,39,0,0,0-38.93,38.92V430.59a39,39,0,0,0,38.93,38.92h432.3a39,39,0,0,0,38.93-38.92V169.41a39,39,0,0,0-38.93-38.92Z"/><path class="cls-1" d="M573.88,421a7.75,7.75,0,0,1-1,2.27,7.88,7.88,0,0,1-1.68,1.82,8,8,0,0,1-2.11,1.2,6.52,6.52,0,0,1-2.31.44H541.61a31.65,31.65,0,0,1-7-.79,25.12,25.12,0,0,1-6.43-2.43,20.88,20.88,0,0,1-5.33-4.18,18.74,18.74,0,0,1-3.69-6,23.66,23.66,0,0,1-1.47-8,36,36,0,0,1,1.32-10L527.16,364h11.17l-8.17,31.35a21.44,21.44,0,0,0-.81,8.13,13.34,13.34,0,0,0,1.88,5.55,11.06,11.06,0,0,0,3.51,3.5,17.62,17.62,0,0,0,4.08,1.88,18.45,18.45,0,0,0,3.62.77q1.62.15,2.13.15h19.62L577.56,364h11.16Z"/><path class="cls-1" d="M639.86,422.58a4.36,4.36,0,0,1-.37,1.8,4.62,4.62,0,0,1-1,1.44,4.42,4.42,0,0,1-1.43.95,4.62,4.62,0,0,1-1.77.35,4.76,4.76,0,0,1-1.68-.32,3.84,3.84,0,0,1-1.51-1l-32.92-34.38v35h-9V380.57a4.31,4.31,0,0,1,.78-2.51,4.85,4.85,0,0,1,2-1.68,4.55,4.55,0,0,1,2.63-.26,4.23,4.23,0,0,1,2.32,1.26l32.93,34.35v-35h9v45.85Z"/><path class="cls-1" d="M663.44,426.42h-9V376.73h9Z"/><path class="cls-1" d="M719.13,400.43H678.5V390.29h40.63Z"/><path class="cls-1" d="M816.16,364.3l-10.4,58.22a5.81,5.81,0,0,1-1.56,3,5.55,5.55,0,0,1-3,1.61,5.78,5.78,0,0,1-3.35-.39,5.5,5.5,0,0,1-2.5-2.17l-20.62-33.88-20.66,33.88a5.05,5.05,0,0,1-2,1.95,5.67,5.67,0,0,1-2.75.69,5.55,5.55,0,0,1-5.5-4.68L733.37,364.3h11.44l7.45,41L770,377a5.23,5.23,0,0,1,2-1.95,5.7,5.7,0,0,1,2.75-.69,5.59,5.59,0,0,1,2.73.69,6,6,0,0,1,2.08,1.95l17.68,28.34,7.45-41Z"/><path class="cls-1" d="M873.91,426.42H841.4a14.8,14.8,0,0,1-4.09-.65,12,12,0,0,1-7.26-6.09,12.6,12.6,0,0,1-1.26-5.91v-32.5a4.37,4.37,0,0,1,.35-1.77,4.49,4.49,0,0,1,1-1.46,4.25,4.25,0,0,1,1.44-1,4.62,4.62,0,0,1,1.8-.34h40.58v9H837.8v28a3.66,3.66,0,0,0,.94,2.71,3.7,3.7,0,0,0,2.73.93h32.44v9Zm-4-20.31H841.4V397h28.46v9.08Z"/><path class="cls-1" d="M933.56,426.42h-41.1a4.7,4.7,0,0,1-1.81-.34,4.46,4.46,0,0,1-2.39-2.39,4.7,4.7,0,0,1-.34-1.81V376.73h9v40.68h36.63v9Z"/><path class="cls-1" d="M992.88,405.63A21.64,21.64,0,0,1,991.3,414a19.5,19.5,0,0,1-10.94,10.88,21.64,21.64,0,0,1-8.28,1.56H947.75a4.65,4.65,0,0,1-1.8-.34,4.43,4.43,0,0,1-1.44-1,4.35,4.35,0,0,1-1-1.44,4.62,4.62,0,0,1-.35-1.8V381.26a4.53,4.53,0,0,1,.35-1.76,4.66,4.66,0,0,1,1-1.46,4.46,4.46,0,0,1,1.44-1,4.66,4.66,0,0,1,1.8-.35h24.33a21.64,21.64,0,0,1,8.28,1.56,19.53,19.53,0,0,1,10.94,10.9,21.77,21.77,0,0,1,1.58,8.34Zm-9-8.11a13.33,13.33,0,0,0-.85-4.82,10.48,10.48,0,0,0-6.14-6.11,12.94,12.94,0,0,0-4.8-.85H952.22v31.67h19.86a12.94,12.94,0,0,0,4.8-.85,10.72,10.72,0,0,0,3.73-2.39,10.59,10.59,0,0,0,2.41-3.71,13.23,13.23,0,0,0,.85-4.83Z"/><path class="cls-1" d="M543.1,431.56l-3.2,17.9a1.78,1.78,0,0,1-.48.92,1.72,1.72,0,0,1-1.94.37,1.63,1.63,0,0,1-.76-.66l-6.34-10.42L524,450.09a1.63,1.63,0,0,1-.62.6,1.74,1.74,0,0,1-.84.21,1.69,1.69,0,0,1-1.69-1.44l-3.23-17.9h3.52l2.29,12.61,5.46-8.71a1.56,1.56,0,0,1,.62-.6,1.78,1.78,0,0,1,.85-.21,1.74,1.74,0,0,1,.84.21,1.83,1.83,0,0,1,.64.6l5.43,8.71,2.29-12.61Z"/><path class="cls-1" d="M559.55,450.66h-10a4.7,4.7,0,0,1-1.27-.2,3.67,3.67,0,0,1-2.24-1.88,3.93,3.93,0,0,1-.39-1.83V436.7a1.29,1.29,0,0,1,.11-.55,1.51,1.51,0,0,1,.29-.45,1.27,1.27,0,0,1,.45-.3,1.42,1.42,0,0,1,.55-.11h12.55v2.79H548.38v8.67a1,1,0,0,0,1.14,1.12h10v2.79Zm-1.25-6.28h-8.8v-2.81h8.8v2.81Z"/><path class="cls-1" d="M576.35,450.66H563.64a1.51,1.51,0,0,1-.56-.11,1.35,1.35,0,0,1-.44-.29,1.51,1.51,0,0,1-.29-.45,1.26,1.26,0,0,1-.11-.55v-14H565v12.58h11.33Z"/><path class="cls-1" d="M593.73,444.23a6.55,6.55,0,0,1-.49,2.58,5.94,5.94,0,0,1-1.34,2,6.08,6.08,0,0,1-2,1.34,6.71,6.71,0,0,1-2.56.48h-7.52a1.47,1.47,0,0,1-.56-.11,1.35,1.35,0,0,1-.44-.29,1.37,1.37,0,0,1-.3-.45,1.42,1.42,0,0,1-.1-.55V436.7a1.45,1.45,0,0,1,.1-.55,1.37,1.37,0,0,1,.3-.45,1.23,1.23,0,0,1,.44-.3,1.47,1.47,0,0,1,.56-.1h7.52a6.71,6.71,0,0,1,2.56.48,6,6,0,0,1,3.38,3.37,6.61,6.61,0,0,1,.49,2.57Zm-2.79-2.51a4,4,0,0,0-.26-1.49,3.21,3.21,0,0,0-.74-1.15,3.45,3.45,0,0,0-1.15-.74,4.2,4.2,0,0,0-1.49-.26h-6.14v9.79h6.14a4,4,0,0,0,1.49-.26,3.3,3.3,0,0,0,1.15-.74,3.26,3.26,0,0,0,.74-1.14,4,4,0,0,0,.26-1.5Z"/><path class="cls-1" d="M599.27,450.66h-2.79V435.29h2.79Z"/><path class="cls-1" d="M617.88,449.47a1.47,1.47,0,0,1-.11.56,1.55,1.55,0,0,1-.3.44,1.27,1.27,0,0,1-.45.3,1.4,1.4,0,0,1-.54.1,1.58,1.58,0,0,1-.52-.09,1.33,1.33,0,0,1-.47-.31l-10.18-10.63v10.82h-2.78V436.48a1.32,1.32,0,0,1,.24-.77,1.39,1.39,0,0,1,.61-.52,1.36,1.36,0,0,1,.82-.08,1.28,1.28,0,0,1,.72.39l10.18,10.62V435.29h2.78v14.18Z"/><path class="cls-1" d="M636.28,449.26a1.42,1.42,0,0,1-.11.55,1.27,1.27,0,0,1-.74.74,1.42,1.42,0,0,1-.55.11h-10a4.2,4.2,0,0,1-1.71-.38,3.7,3.7,0,0,1-.83-.49,3.57,3.57,0,0,1-.71-.74,3.78,3.78,0,0,1-.48-1,4,4,0,0,1-.19-1.29V439.2a4.35,4.35,0,0,1,.1-.83,4,4,0,0,1,.28-.87,4.54,4.54,0,0,1,.5-.84,3.87,3.87,0,0,1,.75-.7,3.71,3.71,0,0,1,1-.48,4,4,0,0,1,1.29-.19h11.32v2.79H624.83a1.14,1.14,0,0,0-.84.29,1.18,1.18,0,0,0-.29.86v7.52a1,1,0,0,0,1.13,1.12h8.66v-3.49h-7.41v-2.81h8.8a1.42,1.42,0,0,1,.55.11,1.44,1.44,0,0,1,.45.31,1.6,1.6,0,0,1,.29.44,1.42,1.42,0,0,1,.11.55v6.28Z"/><path class="cls-1" d="M665.07,445a6.15,6.15,0,0,1-.26,1.84,5.26,5.26,0,0,1-.69,1.45,4.21,4.21,0,0,1-1,1.06,5.41,5.41,0,0,1-1.18.72,5.93,5.93,0,0,1-1.25.42,6.45,6.45,0,0,1-1.19.13H646.14V447.2H659.5a2,2,0,0,0,1.55-.59,2.2,2.2,0,0,0,.56-1.57,2.5,2.5,0,0,0-.15-.88,2,2,0,0,0-.42-.69,1.78,1.78,0,0,0-.67-.46,2.41,2.41,0,0,0-.87-.16h-8a6.23,6.23,0,0,1-1.82-.3,5.51,5.51,0,0,1-1.8-1,5.31,5.31,0,0,1-1.39-1.75,6.59,6.59,0,0,1,0-5.27,5.34,5.34,0,0,1,3.19-2.71,6.23,6.23,0,0,1,1.82-.3h11.78V435H651.54a2,2,0,0,0-1.54.6,2.24,2.24,0,0,0-.56,1.58,2.18,2.18,0,0,0,.56,1.58,2,2,0,0,0,1.54.58h8a5.65,5.65,0,0,1,1.18.16A5.45,5.45,0,0,1,662,440a5.67,5.67,0,0,1,1.18.74,5.08,5.08,0,0,1,1,1.07,5.34,5.34,0,0,1,.69,1.44A6.11,6.11,0,0,1,665.07,445Z"/><path class="cls-1" d="M683.68,444.44a6.82,6.82,0,0,1-.48,2.59,6.06,6.06,0,0,1-3.37,3.37,6.94,6.94,0,0,1-2.56.47H673.5a6.9,6.9,0,0,1-2.56-.47,6,6,0,0,1-3.38-3.37,6.64,6.64,0,0,1-.49-2.59v-2.93a6.62,6.62,0,0,1,.49-2.58,5.94,5.94,0,0,1,1.34-2,6.18,6.18,0,0,1,2-1.34,6.71,6.71,0,0,1,2.56-.48h3.77a6.74,6.74,0,0,1,2.56.48,6.14,6.14,0,0,1,2,1.34,5.94,5.94,0,0,1,1.34,2,6.81,6.81,0,0,1,.48,2.58Zm-2.79-2.93a4,4,0,0,0-.26-1.5,3.27,3.27,0,0,0-1.88-1.88,3.94,3.94,0,0,0-1.48-.26H673.5a3.9,3.9,0,0,0-1.48.26,3.34,3.34,0,0,0-1.16.74,3.26,3.26,0,0,0-.74,1.14,4,4,0,0,0-.26,1.5v2.93a4,4,0,0,0,.26,1.5,3.35,3.35,0,0,0,.74,1.15,3.66,3.66,0,0,0,1.16.74,4.1,4.1,0,0,0,1.48.26h3.75a4.1,4.1,0,0,0,1.48-.26,3.66,3.66,0,0,0,1.16-.74,3.21,3.21,0,0,0,.74-1.15,4,4,0,0,0,.26-1.5v-2.93Z"/><path class="cls-1" d="M700.54,450.66h-12.7a1.47,1.47,0,0,1-.56-.11,1.27,1.27,0,0,1-.74-.74,1.42,1.42,0,0,1-.11-.55v-14h2.79v12.58h11.32v2.79Z"/><path class="cls-1" d="M716.83,449.26a1.26,1.26,0,0,1-.11.55,1.37,1.37,0,0,1-.3.45,1.29,1.29,0,0,1-.45.29,1.41,1.41,0,0,1-.54.11h-6.28a8.61,8.61,0,0,1-1.8-.19,7.78,7.78,0,0,1-1.76-.6,7.48,7.48,0,0,1-1.6-1,6.87,6.87,0,0,1-1.32-1.47,7.24,7.24,0,0,1-.88-1.95,8.55,8.55,0,0,1-.32-2.45v-7.69h2.78V443a5.31,5.31,0,0,0,.33,2,4.34,4.34,0,0,0,.83,1.36,4.22,4.22,0,0,0,1.1.86,6.26,6.26,0,0,0,1.15.46,5.89,5.89,0,0,0,1,.19l.54,0h4.9V435.29h2.78v14Z"/><path class="cls-1" d="M734,438.08h-6.14v12.58H725V438.08h-6.15v-2.79H734Z"/><path class="cls-1" d="M738.81,450.66H736V435.29h2.79Z"/><path class="cls-1" d="M758.19,444.44a6.82,6.82,0,0,1-.48,2.59,6.06,6.06,0,0,1-3.37,3.37,6.86,6.86,0,0,1-2.56.47H748a6.94,6.94,0,0,1-2.56-.47,6.18,6.18,0,0,1-2-1.34,6.3,6.3,0,0,1-1.34-2,6.83,6.83,0,0,1-.49-2.59v-2.93a6.81,6.81,0,0,1,.49-2.58,6.09,6.09,0,0,1,1.34-2,6.29,6.29,0,0,1,2-1.34,6.74,6.74,0,0,1,2.56-.48h3.77a6.71,6.71,0,0,1,2.56.48,6.14,6.14,0,0,1,2,1.34,5.94,5.94,0,0,1,1.34,2,6.81,6.81,0,0,1,.48,2.58Zm-2.78-2.93a4,4,0,0,0-.27-1.5,3.26,3.26,0,0,0-.74-1.14,3.17,3.17,0,0,0-1.14-.74,3.94,3.94,0,0,0-1.48-.26H748a3.9,3.9,0,0,0-1.48.26,3.21,3.21,0,0,0-1.15.74,3.43,3.43,0,0,0-.75,1.14,4.22,4.22,0,0,0-.26,1.5v2.93a4.22,4.22,0,0,0,.26,1.5,3.37,3.37,0,0,0,.75,1.15,3.5,3.5,0,0,0,1.15.74,4.1,4.1,0,0,0,1.48.26h3.75a4.16,4.16,0,0,0,1.49-.26,3.61,3.61,0,0,0,1.15-.74,3.21,3.21,0,0,0,.74-1.15,4,4,0,0,0,.27-1.5v-2.93Z"/><path class="cls-1" d="M776.3,449.47a1.47,1.47,0,0,1-.11.56,1.55,1.55,0,0,1-.3.44,1.37,1.37,0,0,1-.45.3,1.4,1.4,0,0,1-.54.1,1.58,1.58,0,0,1-.52-.09,1.33,1.33,0,0,1-.47-.31l-10.18-10.63v10.82H761V436.48a1.32,1.32,0,0,1,.24-.77,1.39,1.39,0,0,1,.61-.52,1.36,1.36,0,0,1,.82-.08,1.29,1.29,0,0,1,.71.39l10.18,10.62V435.29h2.79v14.18Z"/><path class="cls-1" d="M794.3,446.14a4.85,4.85,0,0,1-.21,1.48,4.3,4.3,0,0,1-.55,1.16,3.67,3.67,0,0,1-.8.86,4.81,4.81,0,0,1-1,.58,4.69,4.69,0,0,1-1,.33,4.79,4.79,0,0,1-1,.11H779.07v-2.79h10.75a1.61,1.61,0,0,0,1.25-.47,1.73,1.73,0,0,0,.44-1.26,2,2,0,0,0-.11-.71,1.68,1.68,0,0,0-.34-.56,1.55,1.55,0,0,0-.54-.36,1.75,1.75,0,0,0-.7-.13h-6.41a4.93,4.93,0,0,1-1.45-.24,4.3,4.3,0,0,1-2.57-2.18,4.58,4.58,0,0,1-.44-2.12,4.53,4.53,0,0,1,.44-2.12,4.36,4.36,0,0,1,1.12-1.4,4.29,4.29,0,0,1,1.45-.79,5,5,0,0,1,1.45-.24h9.49v2.79h-9.49a1.59,1.59,0,0,0-1.23.48,1.8,1.8,0,0,0-.45,1.28,1.76,1.76,0,0,0,.45,1.27,1.61,1.61,0,0,0,1.23.46h6.43a5.25,5.25,0,0,1,2,.47,5,5,0,0,1,1,.6,4.12,4.12,0,0,1,.8.86,4.44,4.44,0,0,1,.55,1.16A5.14,5.14,0,0,1,794.3,446.14Z"/><path class="cls-1" d="M818.72,450.66h-2.79v-3.77h-9.79v3.77h-2.79V443a8.22,8.22,0,0,1,.58-3.1,7.27,7.27,0,0,1,1.61-2.43,7.42,7.42,0,0,1,2.43-1.59,8.1,8.1,0,0,1,3.07-.57h6.28a1.41,1.41,0,0,1,.54.11,1.38,1.38,0,0,1,.75.75,1.42,1.42,0,0,1,.11.55v14Zm-12.58-6.56h9.8v-6H811c-.09,0-.27,0-.54,0a5.06,5.06,0,0,0-1,.19,5.79,5.79,0,0,0-1.14.46,3.83,3.83,0,0,0-1.1.85,4.39,4.39,0,0,0-.83,1.37,5.31,5.31,0,0,0-.33,2Z"/><path class="cls-1" d="M837.31,449.47a1.47,1.47,0,0,1-.11.56,1.55,1.55,0,0,1-.3.44,1.27,1.27,0,0,1-.45.3,1.4,1.4,0,0,1-.54.1,1.58,1.58,0,0,1-.52-.09,1.33,1.33,0,0,1-.47-.31l-10.18-10.63v10.82H822V436.48a1.32,1.32,0,0,1,.24-.77,1.39,1.39,0,0,1,.61-.52,1.36,1.36,0,0,1,.82-.08,1.28,1.28,0,0,1,.72.39l10.17,10.62V435.29h2.79v14.18Z"/><path class="cls-1" d="M855.88,444.23a6.55,6.55,0,0,1-.49,2.58,5.94,5.94,0,0,1-1.34,2,6.08,6.08,0,0,1-2,1.34,6.71,6.71,0,0,1-2.56.48h-7.52a1.47,1.47,0,0,1-.56-.11,1.35,1.35,0,0,1-.44-.29,1.54,1.54,0,0,1-.3-.45,1.42,1.42,0,0,1-.1-.55V436.7a1.45,1.45,0,0,1,.1-.55,1.54,1.54,0,0,1,.3-.45,1.23,1.23,0,0,1,.44-.3,1.47,1.47,0,0,1,.56-.1h7.52a6.71,6.71,0,0,1,2.56.48,6,6,0,0,1,3.38,3.37,6.61,6.61,0,0,1,.49,2.57v2.51Zm-2.79-2.51a4,4,0,0,0-.26-1.49,3.21,3.21,0,0,0-.74-1.15,3.45,3.45,0,0,0-1.15-.74,4.2,4.2,0,0,0-1.49-.26h-6.14v9.79h6.14a4,4,0,0,0,1.49-.26,3.3,3.3,0,0,0,1.15-.74,3.26,3.26,0,0,0,.74-1.14,4,4,0,0,0,.26-1.5v-2.51Z"/><path class="cls-1" d="M884.5,445a6.15,6.15,0,0,1-.26,1.84,5.26,5.26,0,0,1-.69,1.45,4.21,4.21,0,0,1-1,1.06,5.41,5.41,0,0,1-1.18.72,5.75,5.75,0,0,1-1.25.42,6.45,6.45,0,0,1-1.19.13H865.57V447.2h13.36a2,2,0,0,0,1.55-.59A2.2,2.2,0,0,0,881,445a2.5,2.5,0,0,0-.15-.88,2,2,0,0,0-.42-.69,1.78,1.78,0,0,0-.67-.46,2.41,2.41,0,0,0-.87-.16h-8a6.23,6.23,0,0,1-1.82-.3,5.51,5.51,0,0,1-1.8-1,5.31,5.31,0,0,1-1.39-1.75,6.59,6.59,0,0,1,0-5.27,5.34,5.34,0,0,1,3.19-2.71,6.23,6.23,0,0,1,1.82-.3h11.78V435H871a2,2,0,0,0-1.54.6,2.24,2.24,0,0,0-.56,1.58,2.18,2.18,0,0,0,.56,1.58,2,2,0,0,0,1.54.58h8a5.65,5.65,0,0,1,1.18.16,5.45,5.45,0,0,1,1.25.43,5.67,5.67,0,0,1,1.18.74,5.08,5.08,0,0,1,1,1.07,5.34,5.34,0,0,1,.69,1.44A6.45,6.45,0,0,1,884.5,445Z"/><path class="cls-1" d="M900.87,450.66h-10a4.57,4.57,0,0,1-1.26-.2,3.83,3.83,0,0,1-1.28-.67,3.71,3.71,0,0,1-1.36-3V436.7a1.29,1.29,0,0,1,.11-.55,1.51,1.51,0,0,1,.29-.45,1.27,1.27,0,0,1,.45-.3,1.42,1.42,0,0,1,.55-.11h12.55v2.79H889.7v8.67a1,1,0,0,0,1.14,1.12h10v2.79Zm-1.25-6.28h-8.8v-2.81h8.8Z"/><path class="cls-1" d="M918.91,440.46a5.6,5.6,0,0,1-.23,1.7,5,5,0,0,1-.64,1.33,4.82,4.82,0,0,1-.93,1,5.92,5.92,0,0,1-1.09.67,5.82,5.82,0,0,1-1.16.38,6.3,6.3,0,0,1-1.1.11l5.82,5h-4.31l-5.81-5h-2v-2.78h6.3a3.21,3.21,0,0,0,1-.22,2.41,2.41,0,0,0,.75-.48,2.14,2.14,0,0,0,.49-.72,2.66,2.66,0,0,0,.17-1V438.7a.84.84,0,0,0-.06-.36.45.45,0,0,0-.15-.18.49.49,0,0,0-.19-.07h-9.38v12.58h-2.79v-14a1.29,1.29,0,0,1,.11-.55,1.51,1.51,0,0,1,.29-.45,1.27,1.27,0,0,1,.45-.3,1.42,1.42,0,0,1,.55-.11h10.58a3.4,3.4,0,0,1,1.57.34,3.3,3.3,0,0,1,1,.85,3.24,3.24,0,0,1,.58,1.1,4.1,4.1,0,0,1,.17,1.1v1.78Z"/><path class="cls-1" d="M937,435.29l-7.27,14.82a1.35,1.35,0,0,1-.51.55,1.42,1.42,0,0,1-.75.21,1.35,1.35,0,0,1-.73-.21,1.31,1.31,0,0,1-.52-.55L920,435.29h3.12l5.4,11.07,5.42-11.07Z"/><path class="cls-1" d="M941.38,450.66H938.6V435.29h2.78Z"/><path class="cls-1" d="M958.4,450.66h-10a4.2,4.2,0,0,1-1.71-.38,3.7,3.7,0,0,1-.83-.49,3.29,3.29,0,0,1-.7-.74,3.51,3.51,0,0,1-.49-1,4.28,4.28,0,0,1-.18-1.29V439.2a4.28,4.28,0,0,1,.09-.83,4,4,0,0,1,.28-.87,4.1,4.1,0,0,1,.51-.84,3.54,3.54,0,0,1,.74-.7,3.71,3.71,0,0,1,1-.48,4,4,0,0,1,1.29-.19h10v2.79h-10a1.16,1.16,0,0,0-.84.29,1.18,1.18,0,0,0-.29.86v7.52a1.13,1.13,0,0,0,.3.83,1.09,1.09,0,0,0,.83.29h10v2.79Z"/><path class="cls-1" d="M974.92,450.66h-10a4.57,4.57,0,0,1-1.26-.2,3.72,3.72,0,0,1-2.25-1.88,3.93,3.93,0,0,1-.39-1.83V436.7a1.46,1.46,0,0,1,.11-.55,1.51,1.51,0,0,1,.29-.45,1.37,1.37,0,0,1,.45-.3,1.42,1.42,0,0,1,.55-.11h12.55v2.79H963.76v8.67a1,1,0,0,0,1.13,1.12h10v2.79Zm-1.25-6.28h-8.8v-2.81h8.8Z"/><path class="cls-1" d="M992.32,446.14a4.85,4.85,0,0,1-.21,1.48,4.3,4.3,0,0,1-.55,1.16,3.47,3.47,0,0,1-.8.86,4.81,4.81,0,0,1-1,.58,4.51,4.51,0,0,1-1,.33,4.79,4.79,0,0,1-1,.11H977.1v-2.79h10.74a1.6,1.6,0,0,0,1.25-.47,1.74,1.74,0,0,0,.45-1.26,2,2,0,0,0-.12-.71,1.68,1.68,0,0,0-.34-.56,1.46,1.46,0,0,0-.54-.36,1.75,1.75,0,0,0-.7-.13h-6.4a5,5,0,0,1-1.46-.24,4.3,4.3,0,0,1-2.57-2.18,4.71,4.71,0,0,1-.44-2.12,4.65,4.65,0,0,1,.44-2.12,4.36,4.36,0,0,1,1.12-1.4,4.29,4.29,0,0,1,1.45-.79,5,5,0,0,1,1.46-.24h9.48v2.79h-9.48a1.6,1.6,0,0,0-1.24.48,1.8,1.8,0,0,0-.45,1.28,1.76,1.76,0,0,0,.45,1.27,1.64,1.64,0,0,0,1.24.46h6.42a5.25,5.25,0,0,1,2,.47,5,5,0,0,1,.95.6,4.12,4.12,0,0,1,.8.86,4.44,4.44,0,0,1,.55,1.16A5.14,5.14,0,0,1,992.32,446.14Z"/><path class="cls-1" d="M597.84,252,561.2,290l39.86-20.86A56.71,56.71,0,0,1,597.84,252Z"/><path class="cls-1" d="M601.53,270.33l-57.26,36.18,62.64-26.29A46.69,46.69,0,0,1,601.53,270.33Z"/><path class="cls-1" d="M948.47,128.45H540.84a34.33,34.33,0,0,0-34.34,34.34V303.05a34.33,34.33,0,0,0,34.34,34.34H948.46a34.33,34.33,0,0,0,34.34-34.34V162.79A34.33,34.33,0,0,0,948.47,128.45ZM840.2,182a12.35,12.35,0,0,1,4.83-4.68,13.65,13.65,0,0,1,6.61-1.66,13.37,13.37,0,0,1,6.55,1.66,14,14,0,0,1,5,4.68l4.26,6.83H835.91Zm-11.79,18.8h46.5l9.28,14.89H852.14l-.5-.84-.51.84h-32ZM797.57,250l6.69-10.66h32.45L802,296.12a12.25,12.25,0,0,1-4.83,4.67,13.65,13.65,0,0,1-6.6,1.67,13.3,13.3,0,0,1-13.21-11.23l-9.35-51.94h27.59Zm-6.23-34.3H763.79l-2.68-14.89h27.53Zm-49.85-64.11h10.76v0h27.45l6.77,37.29H759l-.16-.89-.24.89H731.78Zm-12.83,49.22h26.79l-3.88,14.89H724.78ZM620.54,151.5h26.79l-9.72,37.29H610.82ZM519.75,322.27l5.84-179.39,3.5,135.81,14.79-59.93L534,290l46.7-90.09-35.61,82.5,29.77-45.14L543.49,298l54.36-52.16c.1-2.11.29-4.27.59-6.5h6.19l24.64-23.64H603.83l3.88-14.89h26.78l-3.43,13.16,47.08-45.17-68,70.54h15.49a36.76,36.76,0,0,0,.19,7,32.26,32.26,0,0,0,4.52,13.33,26.64,26.64,0,0,0,7.39,7.72l13.21-5.54-12.29,6.14.11.07a42.7,42.7,0,0,0,9.8,4.52,44.83,44.83,0,0,0,8.69,1.84c2.57.24,4.28.36,5.1.36l47.08,0,9.23-35.42h26.79l-12.76,49a17.91,17.91,0,0,1-2.45,5.46,19.11,19.11,0,0,1-9.1,7.23,15.36,15.36,0,0,1-5.53,1.05l-60.37,0a75.15,75.15,0,0,1-16.81-1.89A59.55,59.55,0,0,1,623,294.25a50.34,50.34,0,0,1-12.79-10c-.44-.47-.87-1-1.29-1.46l-47.49,23.75,62.46-7.78-75.1,15.95L928.55,319Zm406.22-31a14.06,14.06,0,0,1-3.74,7.17,13.25,13.25,0,0,1-7.07,3.85,13.89,13.89,0,0,1-8.06-.94,13,13,0,0,1-6-5.19l-34.59-56.83h32.41L905.59,250l1.94-10.66h27.72Zm13.5-75.58H911.83l2.7-14.89h27.6Zm4.79-26.86H916.7l6.78-37.29h27.45Z"/></svg>