<svg id="Logos_Patrocinadores" data-name="Logos Patrocinadores" xmlns="http://www.w3.org/2000/svg" viewBox="0 0 1500 600"><defs><style>.cls-1{fill:#7a97ab;}</style></defs><path class="cls-1" d="M347.6,316.51c-.43-70.26,58.17-129.12,130.52-127.41,67.48,1.58,124.3,56.94,124.33,127.45,0,71.63-59.38,129.29-130.89,127.4-68.66-1.81-124.32-58.61-124-127.44m250.6.06c.11-67.07-54.06-122.15-121.09-123.26-68.76-1.13-124.26,54.08-125.35,121.1C350.64,383.16,406,439,473.48,439.75c69.06.8,124.84-55.37,124.72-123.18"/><path class="cls-1" d="M646.88,396.81c-.07-8.09.2-17.07-.58-26-.11-1.3-.11-2.3,1.74-2.15,7.49.6,15-.11,22.47,0,18.81.19,25.36,11.43,24.48,27.82-1,18.11-15.1,25.93-29.91,25.4-5.52-.2-11-.62-16.53-.09-1.81.17-2.45-.24-2.27-2.15.69-7.28.58-14.59.6-22.77m6.4-1.22c.11,6.88,0,13.78.49,20.66.09,1.27.28,2,1.74,2.13,4.8.4,9.63.84,14.41-.05,7.87-1.45,13.54-5.66,16-13.53a36.51,36.51,0,0,0,.43-19.83c-1.48-6-5.16-10.09-11.21-11.81-6.59-1.88-13.26-1.21-19.93-.59-1.45.13-1.31,1-1.39,2.05-.56,7-.39,14-.5,21"/><path class="cls-1" d="M714.12,289.17c11.2-.12,18.9,1.86,24.78,8.23,8,8.67,8.61,19.05,5.37,29.62-3.08,10-10.85,15-20.93,16.8a36.31,36.31,0,0,1-14.39-.33c-14.9-3.34-23.15-16.29-20.45-32,2.48-14.38,12.61-22.35,25.62-22.35m24.12,27.07a50.28,50.28,0,0,0-.85-7.91c-2.07-9.53-9.17-15.75-18.5-16.16-11-.49-18.63,4.35-21.56,14.05a35.39,35.39,0,0,0,.1,21.24c2.76,8.74,9.84,13.77,19.12,13.84,9.91.09,16.88-4.61,20-13.45,1.23-3.47,1.58-7.08,1.69-11.61"/><path class="cls-1" d="M940.47,264.44c-1.92,0-3.77-.33-5.44.08-2.86.7-4.17-.67-5.61-2.8a197,197,0,0,0-16.32-21c-.93-1-1.89-1.86-3.28-1.42-1.66.53-.83,2-.82,3.06,0,6.8.15,13.6.43,20.4.07,1.66-.18,2.2-1.83,1.76-.46-.12-1,0-1.47-.12-1.4-.32-3.29,1.08-4.07-.24-.63-1.06,0-2.86,0-4.34q.75-23.07-.11-46.14c0-1.09-.49-2.24,1.37-2,6,.7,12-.22,18,0a26,26,0,0,1,4.39.56c4.66,1,8.34,3.31,9.44,8.22,1.15,5.16-.08,9.76-4.25,13.34-3.07,2.63-6.71,4-11,4.83,7,8.73,13.74,17.25,20.55,25.82m-31.22-38.9h-.31c0,3,0,5.91,0,8.87,0,.84,0,1.53,1.14,1.64,5.32.52,10.53.34,14.88-3.22,3.24-2.66,4.21-6.3,3.47-10.4s-3.37-6.26-7.21-7.3c-3.11-.84-6.27-.37-9.41-.44-1.87,0-2.67.63-2.58,2.58.12,2.75,0,5.51,0,8.27"/><path class="cls-1" d="M1008.4,330.12a4.44,4.44,0,0,0,.63-3.28c-.1-11.53-.25-23.06-.37-34.6,0-.94-.65-2.59,1.32-1.79,1.2.49,3.83-1.85,3.57,1.84-.77,11-1.29,22-1.13,33.09.08,5.62.17,11.23.2,16.85,0,.69.77,1.65-.33,2-.94.34-1.32-.6-1.83-1.16-7.65-8.5-15.26-17-23-25.48a199.74,199.74,0,0,0-15-15c0,4.39,0,8.79,0,13.18.13,8.27,0,16.55.51,24.82.06.84,1.15,3.14-1.39,2.36-1.34-.42-4.3,2.05-3.91-2.29,1.48-16.31,1.55-32.68,1.33-49,0-.78-.7-1.91.41-2.36s1.67.72,2.31,1.41l35.07,37.63c.46.51.9,1.05,1.52,1.78"/><path class="cls-1" d="M716.1,223.6c-.57,9.36-.32,18.1-.24,26.82,0,4.24.19,8.47.4,12.7,0,1.13,0,1.49-1.33,1.45-4.08-.15-4-.06-3.71-4.44.94-15.66,1.55-31.32,1-47,0-.79-.79-1.9.28-2.39s1.72.66,2.36,1.34q17.76,19,35.49,38.09c.44.47.93.89,1.8,1.72,0-8.42,0-16.28,0-24.13,0-4.73-.23-9.46-.48-14.18-.08-1.56.23-1.67,1.85-1.82,3.36-.32,3.31,1,3.09,3.71-1.34,15.95-.86,31.94-.84,47.92,0,.82.63,2-.46,2.35s-1.43-.84-2-1.47c-11.86-13.74-24.31-26.93-37.26-40.66"/><path class="cls-1" d="M975.61,381.35c0,6.49-.07,13,0,19.45.09,6.21.32,12.41.58,18.61.07,1.68-.19,1.95-2.1,2.18-3.51.42-3.44-1.11-3.2-3.64,1.54-15.84,1.19-31.72,1.22-47.6,0-.91-.67-2.15.4-2.65s1.64.76,2.28,1.45q17,18.3,34.07,36.59c.86.93,1.63,2,2.35,2.84,1.45-.74,1-1.64.95-2.32-.12-11.83-.3-23.66-.47-35.49,0-1-.54-2.66,1.32-1.9,1.19.5,3.94-2,3.6,2-1.37,16.33-1.12,32.7-.87,49.07,0,.91.58,2.27-.45,2.69-1.27.52-1.73-1-2.38-1.76-11.21-13-23-25.44-34.73-38L976.42,381l-.81.36"/><path class="cls-1" d="M646.28,229.61c0-5.32.11-10.64-.06-16-.05-1.83.54-2.38,2.09-1.85,1.75.59,4.16-1.06,5.12.56.75,1.26,0,3.43-.12,5.21-.38,10-1.19,20.08,0,30.12,1,8.89,6,13.73,14.47,14.3,9.82.65,15.49-3.25,17.79-12.22a39.44,39.44,0,0,0,1-10c0-8.78-.08-17.56-.22-26.34,0-1.39.08-1.87,1.66-1.73,3.83.35,3.68.25,3.47,4.36-.46,9.45-.72,18.91-1.13,28.36-.63,14.44-9.43,22.18-24,21.27a32.27,32.27,0,0,1-7-1c-8.51-2.43-12.92-9-13-19.48,0-5.22,0-10.44,0-15.66"/><path class="cls-1" d="M653.31,331.29c0,3.44-.06,6.89,0,10.33,0,1.34-.35,1.8-1.66,1.51-.57-.13-1.18-.11-1.75-.22-1.39-.25-3.22,1.18-4.07-.31-.59-1,0-2.68,0-4.06.57-15.39.73-30.77-.2-46.14-.1-1.74.18-2.47,2.19-2.2a60.89,60.89,0,0,0,13.29-.14,30,30,0,0,1,8.52.62c5.58,1.13,9,4.51,9.75,9.38,1.13,6.93-1.21,12.65-6.55,15.88-5.58,3.37-11.77,3.73-18,3.37-1.75-.1-2.23.18-2.17,1.91.11,3.36,0,6.71,0,10.07h.59m-.6-26.92v7.1c0,4.75,0,4.75,4.72,4.95a17.42,17.42,0,0,0,1.77,0c6.92-.45,11.48-3.26,12.65-8.64,2.11-9.78-1.33-14.47-10.52-14.65-2.26,0-4.53.07-6.79,0-1.41-.07-1.9.36-1.86,1.82.1,3.15,0,6.3,0,9.45"/><path class="cls-1" d="M957.21,373.46c-6.27-1.17-12.3-.83-18.3-1.16-1.78-.1-2.64.22-2.57,2.33.17,5,.13,10.07,0,15.1,0,1.77.6,2.12,2.18,2.06,4.93-.19,9.89.37,14.78-.38,2.65-.4,1.8,1.25,2,2.55.35,2-.73,1.81-2,1.67-5-.58-10.06-.13-15.08-.34-1.65-.07-1.93.55-1.92,2,.08,6.21.1,12.43,0,18.65,0,1.69.65,1.88,2.06,1.88,5.82,0,11.63-.28,17.43-.7.65,0,2.19-.89,1.68.8-.39,1.24,1.69,3.72-1.53,3.73-8.29,0-16.58,0-24.87.05-1.5,0-1.78-.57-1.77-1.91q0-24.72,0-49.45c0-1.87.94-1.73,2.18-1.73,7.6,0,15.2.08,22.8,0,2.11,0,3.42.22,2.79,2.77a8.41,8.41,0,0,0,.11,2.08"/><path class="cls-1" d="M858.75,244.17a306.4,306.4,0,0,0-.08-30.76c-.08-1.55.3-1.84,1.69-1.77,8.08.39,16.16.36,24.25,0,2.95-.13,1,2.09,1.38,3.15.54,1.43-.5,1.58-1.64,1.46-5.39-.58-10.8-.86-16.22-1-1.66,0-2.22.45-2.22,2.11q0,7.83-.24,15.67c0,1.57.49,2.08,2,2,4.91-.26,9.84-.38,14.76-.63,1.19-.06,2.34-.22,1.79,1.5-.35,1.12,1.42,3.35-1.77,3.11-4.9-.37-9.83-.4-14.75-.65-1.53-.08-2.09.39-2.07,2,.08,6,0,12,0,18.06,0,1.65.31,2.65,2.46,2.55,5.31-.24,10.65.1,16-.63,1.15-.16,2.76-.75,2.34,1.61-.23,1.34.84,3.06-2.1,2.82a162.2,162.2,0,0,0-23.64,0c-1.64.1-2.11,0-2.05-1.95.21-6.21.08-12.42.08-18.63"/><path class="cls-1" d="M781.72,368.64c2.54.16,4.7.52,6.85.06,1.87-.4,1.77,1.18,2.1,2.14,4.68,13.78,10.23,27.23,15.71,40.7.22.53.51,1,.79,1.58,1.06-.19,1-1.15,1.28-1.76,5.59-13,10.62-26.23,15.21-39.61.78-2.28,1.45-3.65,4.13-2.85.69.2,1.55-.14,2.8-.29-1.28,2.89-2.45,5.5-3.6,8.12-6.2,14.12-12.06,28.38-17.71,42.73-.34.85-.22,2.6-1.75,2.07-1.72-.6-4,1.42-5.25-2-6.24-17.06-13.4-33.76-20.56-50.93"/><path class="cls-1" d="M704.14,394.92c0-8.18.06-16.36,0-24.55,0-1.48.27-1.82,1.7-1.74a227.59,227.59,0,0,0,23.94,0c3.16-.18,1.38,2.08,1.68,3.21.48,1.82-.92,1.49-2,1.39-5.3-.53-10.61-.83-15.94-.94-1.65,0-2.18.42-2.17,2.11,0,5.13-.1,10.25-.27,15.38,0,1.81.6,2.41,2.4,2.3,4.72-.27,9.45-.37,14.17-.59,1.18-.05,2.59-.5,2,1.52-.31,1.13,1.31,3.31-1.82,3.05-4.81-.4-9.64-.41-14.46-.65-1.53-.08-2.37.18-2.33,2,.16,6.11.25,12.23.17,18.34,0,2,.72,2.22,2.39,2.18,5.42-.13,10.86.13,16.25-.65,1.29-.19,2.41-.33,2,1.66-.27,1.32.85,3.06-2.1,2.81a158,158,0,0,0-23.63,0c-1.78.12-2.09-.24-2-2a226.37,226.37,0,0,0,0-24.85"/><path class="cls-1" d="M845.76,211.72c-4.28,10-8.55,19.79-12.66,29.66-3,7.15-5.74,14.41-8.66,21.6-.27.65-.3,2.29-1.51,1.58-1.61-.93-3.91,1.64-5-1.37-6.35-16.93-13.34-33.6-20.34-50.27a7.16,7.16,0,0,1-.28-1.22c2.28.06,4.44.49,6.58,0,1.85-.42,1.8,1.16,2.13,2.14,4.89,14.33,10.64,28.32,16.43,42.41,1.32-.72,1.46-2.1,1.92-3.19q8-19,14.71-38.52c.66-1.93,1.16-3.44,3.71-2.67a9.33,9.33,0,0,0,3-.16"/><path class="cls-1" d="M898.56,295.19c-6.36-1.06-12.48-.87-18.58-1.11-1.89-.08-2.31.56-2.27,2.33q.16,7.54,0,15.1c0,1.73.54,2.14,2.16,2.08,4.93-.16,9.88.27,14.78-.38,1.84-.25,2,.27,2,2s-.18,2.33-2.15,2.23c-4.92-.26-9.86-.15-14.78-.32-1.55,0-2,.41-2,2q.13,9.33,0,18.65c0,1.57.45,2,2,2,6.31-.06,12.6-.32,18.88-1,.11.14.32.29.31.42-.25,4.17-.25,4.17-4.59,4.17-7.1,0-14.21-.06-21.31,0-1.78,0-2.32-.37-2.31-2.24q.14-24.27,0-48.55c0-1.65.42-2.15,2.11-2.13,7.5.1,15,.14,22.5,0,2.37,0,3.69.29,3.11,3a6.6,6.6,0,0,0,.16,1.77"/><path class="cls-1" d="M963.6,265.83a20.18,20.18,0,0,1-11-3c-1.29-.85-2.12-1.64-1.28-3.24s-.12-4.41,1.37-4.79,2.05,2.39,3.27,3.61a12.71,12.71,0,0,0,13.81,3.17c4-1.63,6.43-5.33,6.52-10a8.79,8.79,0,0,0-5-8.43c-3.39-1.77-7-3.15-10.43-4.8-7.25-3.48-10.05-9.06-8.43-16.61a12.07,12.07,0,0,1,5.71-8.27,20.29,20.29,0,0,1,20.29-.6c1.5.74,2.12,1.67,1.13,3.17s-.22,4.13-2,4.47c-1.15.22-1.54-2.39-2.52-3.6a9.65,9.65,0,0,0-13.52-1.12,9.51,9.51,0,0,0-1,13.48,13.86,13.86,0,0,0,4.84,3.3c2.89,1.25,5.84,2.37,8.66,3.74,8.46,4.11,11,12.62,6.17,20.79-3.73,6.33-9.69,8.59-16.61,8.73"/><path class="cls-1" d="M1109.73,264.39c-2.82,0-5.93.88-7.76-.26-1.67-1-1.92-4.3-2.85-6.56q-7.15-17.31-14.33-34.6c-.21-.51-.2-1.21-1.14-1.43-5.35,12.58-11,25.06-15.59,38-1.72,4.91-1.66,4.93-7,4.83-.28-1.05.47-1.8.84-2.63q11-24.63,22.12-49.23c.37-.82.45-2.05,1.85-1.95,1.18.09,1.25,1.16,1.57,1.9q11,25.29,21.93,50.61a9.28,9.28,0,0,1,.33,1.3"/><path class="cls-1" d="M1071.89,377.67c-3.37-3.14-6.67-5.62-10.8-6.58-12.43-2.89-23.27,5-25,18.13a39.92,39.92,0,0,0,.5,14.37c3.11,13.63,16.86,20.2,29.4,14,2.26-1.12,4.35-2.58,6.72-4,.2,3.26-.5,5.41-3.79,6.77-11.64,4.81-26.07,2.75-33.79-5.62-8.11-8.78-8.88-19.34-5.38-30.13,3.29-10.08,11.2-15,21.42-16.59a41.93,41.93,0,0,1,20.08,2.06c1.74.59,2.69,1.27,1.67,3.32a20.76,20.76,0,0,0-1,4.31"/><path class="cls-1" d="M1095.63,335c.28,4.45-.2,5.3-3.83,6.82-11.56,4.87-25.8,2.67-33.56-5.64-8.28-8.86-9-19.51-5.38-30.39,3.53-10.46,11.94-15.3,22.5-16.49a41.71,41.71,0,0,1,18.38,2c2.35.8,3.15,1.77,2.11,4.11a18.38,18.38,0,0,0-.78,3.11c-.94.45-1.26-.39-1.71-.8-6.26-5.8-13.48-7.1-21.39-4.33s-11.51,9.18-12.78,17c-1.07,6.62-.77,13.2,2.07,19.41,4.89,10.7,17.82,14.63,28.62,8.75,2-1.07,3.81-2.38,5.75-3.6"/><path class="cls-1" d="M953.23,299.05c-.83-.68-1.34-1.09-1.84-1.52-12.77-10.86-30-5.15-33.6,11.21a33.6,33.6,0,0,0,1.5,20.61c4.47,10.59,16.69,15,27.53,10a42.29,42.29,0,0,0,7-4.43c.35,4.64-.07,5.6-4,7-11.62,4.15-23,3.91-32.4-4.76-9.29-8.54-10.17-19.72-6.4-31.11,3.6-10.87,12.26-15.67,23.2-16.72a41.11,41.11,0,0,1,18,2.18c2.08.75,2.91,1.5,1.87,3.68a21.83,21.83,0,0,0-1,3.89"/><path class="cls-1" d="M1126.49,299.38c-5.82,14.13-12.22,27.43-16.57,41.55-.35,1.14-.7,1.89-2.2,1.56a20.33,20.33,0,0,0-4.1-.06c1.8-4,3.59-8,5.36-12q8.91-20.08,17.82-40.16c.33-.74.35-1.84,1.57-1.9s1.19.84,1.49,1.53c7.42,17.43,14.5,35,22.49,52.66-2.61-.17-4.92-.49-7.19,0-1.58.31-1.41-1.1-1.69-1.88-4.84-13.52-10.77-26.6-16.2-39.87a16.1,16.1,0,0,0-.78-1.42"/><path class="cls-1" d="M879,421.21a25.42,25.42,0,0,1-3.27-.35c-1.7-.41-3.76,1.17-5-.2s-1.22-3.27-1.89-4.9c-5.11-12.55-10.25-25.08-15.59-38.11-5.7,13.53-11.71,26.35-16.08,39.81-.8,2.47-1.36,4.42-4.56,3.45a5.8,5.8,0,0,0-2.06.18c-.22-1.37.65-2.29,1.1-3.3q10.8-24.37,21.7-48.72c.37-.83.35-2.09,1.7-2.07,1.16,0,1.22,1.12,1.55,1.89,7.41,17.33,14.42,34.84,22.38,52.32"/><path class="cls-1" d="M1152.4,421.1c-1.47-.1-2.73-.5-3.8-.21-3.58,1-4.58-.83-5.76-3.89-5-13-10.4-25.88-15.89-39.38-1.52,3.56-2.82,6.59-4.12,9.62-4.58,10.64-9.27,21.25-12.69,32.35-.42,1.34-.87,1.7-2.26,1.39a16.15,16.15,0,0,0-3.56-.06c-.55-.91.29-1.61.61-2.32q10.9-24.64,21.93-49.25c.4-.89.37-2.39,1.85-2.33s1.39,1.5,1.77,2.41c7.22,16.89,14,33.94,21.66,50.65a6.42,6.42,0,0,1,.26,1"/><path class="cls-1" d="M1112.76,216.36a8.35,8.35,0,0,0-.12-3.82c4.84,0,9.64,0,14.44,0,7.69-.07,15.39-.06,23.08-.34,3.56-.13,1.58,2.32,1.9,3.56.56,2.12-1.26,1.18-2,1.16-3.84-.11-7.7-.23-11.52-.59-2.1-.2-2.65.41-2.69,2.51-.28,14.6-.32,29.2.41,43.79.11,2.18-.24,3.16-2.56,2.42-1.66-.53-3.92,1.17-4.88-.34-.73-1.14.13-3.24.14-4.91.06-13.72,0-27.44.16-41.16,0-2-.59-2.4-2.48-2.33-4.61.16-9.23.05-13.83.05"/><path class="cls-1" d="M1019.57,217a9.11,9.11,0,0,0,.09-4.42c4.95,0,9.86,0,14.76,0,7.59-.06,15.18-.05,22.77-.33,3.62-.13,1.51,2.37,1.83,3.59.55,2.07-1.27,1.15-2,1.13-3.84-.11-7.69-.24-11.5-.59-2-.19-2.65.29-2.69,2.45-.27,14.69-.32,29.37.41,44,.11,2.15-.32,2.88-2.45,2.26a4.8,4.8,0,0,0-1.47-.08c-3.79,0-3.66.05-3.49-3.9.6-14.38.29-28.77.27-43.16,0-1.65-.78-1.68-2-1.62-4.71.23-9.42.42-14.49.64"/><path class="cls-1" d="M820,294.89a4.65,4.65,0,0,0,0-1.05c-.86-3.66,1.17-3.89,4.05-3.73a329.29,329.29,0,0,0,33.4,0c4-.19,1.55,2.55,1.88,3.76.58,2.11-1.31.93-2.08.9-4-.14-8.06-.34-12.08-.64-1.61-.12-2.11.57-2.12,2,0,2.95-.09,5.91-.09,8.87,0,11.92-.29,23.85.6,35.76.17,2.27-.59,2.77-2.57,2.3a4.38,4.38,0,0,0-.87-.14c-4.25-.17-4.21-.16-4-4.31.65-14,.37-28,.27-42,0-2.08-.53-2.67-2.68-2.47-4.49.42-9,.51-13.68.74"/><path class="cls-1" d="M786.36,338.56c-.18,1.74.17,4-.6,4.48-1.11.69-3,.14-4.61.06-6.89-.33-13.79-.18-20.67.14-1.9.09-2.56-.3-2.45-2.31a469.05,469.05,0,0,0,0-48.46c-.08-1.61.06-2.76,2.12-2.1,1.75.56,4.22-1.05,5.17.54.8,1.36.1,3.63,0,5.49-.62,13.7-.11,27.4-.11,41.1,0,1.77.64,2.05,2.21,2.06a154.84,154.84,0,0,0,18.91-1"/><path class="cls-1" d="M895.92,393.18c0,7.5.06,15,0,22.5,0,1.83.48,2.33,2.31,2.29,5.51-.14,11.05.08,16.54-.69,1.34-.19,2.55-.39,2.18,1.76-.24,1.4.74,3-2.14,2.75a163.31,163.31,0,0,0-24.23,0c-1.73.11-2-.43-1.95-1.91a446.93,446.93,0,0,0,0-49.38c-.08-1.4.29-2.07,1.79-1.74a11.35,11.35,0,0,1,1.17.16c1.54.53,3.63-1.21,4.55.4.67,1.17.11,3.08,0,4.66a181.21,181.21,0,0,0-.18,19.22"/><path class="cls-1" d="M1085.05,395c0-8.17.07-16.35-.06-24.52,0-1.51.24-2.1,1.66-1.68,1.93.56,4.59-1,5.59.36s.12,3.75.06,5.71c-.47,15.07-.46,30.14.21,45.2.06,1.29-.06,1.93-1.54,1.53-.56-.16-1.18-.06-1.76-.18-1.4-.3-3.3,1.07-4.09-.21-.64-1.05,0-2.86,0-4.34,0-7.29,0-14.58,0-21.87h-.11"/><path class="cls-1" d="M999,238.33c0-8.08,0-16.17,0-24.25,0-1.84.25-2.7,2.38-2.32,1.59.28,4-.56,4.75.26,1.22,1.39.36,3.75.26,5.68-.7,14.79-.54,29.57.17,44.35.11,2.18-.31,3.18-2.61,2.4-1.61-.55-3.81,1.21-4.74-.48-.7-1.25,0-3.26,0-4.93,0-6.91,0-13.81,0-20.71Z"/><path class="cls-1" d="M806.9,317.09c-.31,7.88.22,16,.53,24,.06,1.71-.32,2.46-2,2s-4.33,1-5.3-.33c-.86-1.19,0-3.56,0-5.4.27-15,.51-30-.24-44.95-.09-1.82.13-2.61,2.1-2a5.52,5.52,0,0,0,1.47.09c4,.05,4.06.05,3.89,4.27-.32,7.38-.65,14.77-.43,22.37"/><path class="cls-1" d="M1030,316.52c.21-8.18.32-16.37-.27-24.54-.11-1.45.06-2.07,1.63-1.66a5.55,5.55,0,0,0,1.47.12c1.43,0,3.77-.51,4.1.09.67,1.21.33,3,.25,4.58-.75,15.18-.61,30.35.1,45.52.09,2-.22,3.16-2.4,2.39-1.74-.63-4.09,1.35-5.07-.57-.69-1.35.17-3.45.18-5.22,0-6.9,0-13.8,0-20.71"/><path class="cls-1" d="M784.13,264.84a17.3,17.3,0,0,0-7.11-.11c0-4.79-.06-9.6,0-14.41.15-11.92.27-23.84-.49-35.75-.13-2,0-3.61,2.65-2.67,1.63.57,3.84-1.37,4.8.51.66,1.3,0,3.27,0,4.94-.56,14.88-.69,29.75.18,44.61,0,.88,0,1.77,0,2.88"/><path class="cls-1" d="M1127.83,415.29a6.17,6.17,0,1,1-6.16-6.25,6.26,6.26,0,0,1,6.16,6.25"/><path class="cls-1" d="M842,415.09a6,6,0,0,1,6.26-6,6.12,6.12,0,0,1,5.9,6.14,6.2,6.2,0,0,1-6.14,6.21,6,6,0,0,1-6-6.3"/><path class="cls-1" d="M1085.9,258.68a5.9,5.9,0,0,1-6.49,5.71c-3.47-.22-5.77-2.94-5.58-6.6a6.05,6.05,0,0,1,12.07.89"/><path class="cls-1" d="M1121.51,342.7a6.08,6.08,0,1,1,0-12.16,6.06,6.06,0,0,1,6.08,5.92,6,6,0,0,1-6,6.24"/><path class="cls-1" d="M889.78,286.22a2,2,0,0,1-1.07,0,80.65,80.65,0,0,1-14.68-9A2.21,2.21,0,0,1,874,274a2.51,2.51,0,0,1,3.38-.82,3.58,3.58,0,0,1,1,.63c3.84,4.15,7.67,8.32,11.46,12.44"/><path class="cls-1" d="M948.87,364.28a4,4,0,0,1-3.36-.54q-5.71-3.62-11.48-7.17c-1.77-1.09-2.65-2.62-1.31-4.38s3.19-1.36,4.61.09c3.84,3.9,7.61,7.89,11.54,12"/><path class="cls-1" d="M566.81,316.53a91.8,91.8,0,1,1-91.51-91.79c50.31.06,91.52,41.37,91.51,91.79M528.59,246.3l-.72-.43a12.42,12.42,0,0,0-1.07-1c-24.75-17.17-51.51-21.27-80.19-12.06a69.47,69.47,0,0,0-24.19,13v-.07c-3,.51-4.35,3.2-6.32,5-17.38,15.67-27.44,35.21-29.22,58.52-2.16,28.21,7.33,52.27,27.78,71.88,34,32.62,90.3,31.57,123.08-2.26,27.42-28.29,33.51-68.64,15.48-103.43A79.77,79.77,0,0,0,529.5,247.2l-.91-.9"/><path class="cls-1" d="M553.73,253.69c-4.23,1.88-4.52,1.8-7.71-1.84-1.4-1.6-2.86-3.16-4.77-5.27,2.65.5,4-.6,5.32-1.93,2.3-2.28,4.72-4.45,7.14-6.61,1.64-1.47,3.28-2.89,1.48-5.83,2.87,1,3.58,3.42,5.37,4.62.3.26.39,1.08.92.65.37-.32-.11-.78-.5-1,.39-1.51.78-3,1.18-4.59,2.36,1.69,1.7,3.51.19,5-1,.93-.68,1.26,0,2,2.69,3,2.65,3.09-1.23,5.69-.4-1.36,1.33-2.07.86-3.48-1-2.92-3.21-3.6-5.52-1.49-3,2.7-3.12,3.88-.73,5,1.13.52,2.06-.72,3.25-.09l-5.32,4.92c-.44-.69.29-1.13.55-1.68.72-1.54-.41-2.42-1.28-3.29-1.13-1.15-1.67.24-2.34.77a29.2,29.2,0,0,0-2.19,2c-2.41,2.28-2.25,3.37.69,5a7.53,7.53,0,0,0,7.53-.9,13.69,13.69,0,0,1,8.26-3.53c4.82-.32,7,2.15,8.61,6.64s-2.12,4.39-4,6.9c0-2.25,1.17-3.27,1.6-4.57.65-2,.92-3.9-.57-5.57s-3.41-1.73-5.45-1.18a13.06,13.06,0,0,0-8,6.13c-2.49,4.09-.84,7.58,3.89,8.48l2.13.44c-2.39,1.44-5.37,1-7.69-1-2.8-2.45-3.22-5.63-1.32-10,.15-.29.63-.54.1-.89a4.85,4.85,0,0,0-.47.56"/><path class="cls-1" d="M495.52,413.05c-1.9,1.69-1.9,3.6-1.67,5.74.54,5.07.89,10.16,1.37,15.84-3.39-2.31-5.63-5-8.19-7.37s-5.11-4.83-8.33-7.88c.44,4.58.76,8.33,1.18,12.06.22,1.94,2.11,2.23,3.43,3.43l-7.24.78c3.92-5.65,1-11.37.82-17,0-1.88-1.8-2.33-3.32-3,3.63-1.74,5.44-1.56,7.8,1a151.17,151.17,0,0,0,10.75,11.05c1-4.05.31-7.57-.08-11.08-.2-1.78-2.42-1.31-3.82-2.76l7.3-.8"/><path class="cls-1" d="M378,356.68c2.19-.83,3.7-2.58,5.62-3.92a26.9,26.9,0,0,1,2.62,6.22c-1.65.27-3.2.59-4.76.75-2.24.24-2,1.28-1,2.66s2.15,2.81,3.28,4.28a12.72,12.72,0,0,1-1.32.74c-1.53.63-3.29,2-4.57,1.63s-.53-2.74-.94-4.2c-.91-3.31-1.06-3.43-3.9-1.27-1.16.88-2.23,1.88-3.29,2.79-.2-.1-.34-.12-.37-.19-.84-1.78-2.55-3.71-2.27-5.29.38-2.16,3.34-.64,4.93-1.64a12.16,12.16,0,0,1,2.23-.83,13.24,13.24,0,0,0-3.31-4.59c-1.11-1.09-.79-1.5.47-2,1.64-.61,3.21-1.39,4.93-2.15.43,2.5.41,4.89,1.63,7"/><path class="cls-1" d="M571.82,356.64c1-2.21,1-4.53,1.64-6.92l6.34,2.85-3.33,3.88c-1.17,1.37-1.21,2.36.86,2.71,1.35.22,2.7.53,4.06.68s1.73.59,1.05,1.89c-.77,1.47-1.38,3-2.17,4.77-1.54-1.22-3-2.3-4.36-3.48-1.87-1.62-2.65-.72-3,1.23-.31,1.63-.57,3.28-.89,4.91,0,.06-.36.15-.49.09-1.8-.77-3.59-1.56-5.61-2.44,1.29-1.76,2.45-3.39,3.64-5,.84-1.13.45-1.75-.81-2-1.74-.31-3.48-.56-5.5-.89.88-2,1.76-4,2.66-6.09,2.18,1,3.46,3.1,5.92,3.78"/><path class="cls-1" d="M472.17,429.51c-.16,4.24-1.44,5.63-4.69,5.49-3.53-.16-7.05-.5-11.26-.81,3.43-1.63,2.74-4.46,3-6.91.25-2.25.29-4.53.44-6.79.26-4.29.26-4.29-2.75-6.76h5.6c-.27-1.41-1.68-1.62-2.13-3,1.44,0,3.09-.83,3.69,1.11.78,2.52,2.66,2.37,4.6,2.41,3.76.08,4.24,1,2.66,5-.94-1-.62-2.83-2.27-3.2s-3.9-1.42-5,0a6.82,6.82,0,0,0-.67,6c.55,1.57,2.55,1.33,4.09.57.79-.4.8-1.6,2-1.78v7.12c-1.46-.29-1-1.49-1.54-2.13-1-1.32-2.49-1-3.8-1.08-1.56-.06-1,1.4-1.24,2.21a2.35,2.35,0,0,0-.05.88c.12,1.75-1.32,3.81.72,5.17,1.63,1.08,5.51-.07,7.29-1.93.32-.34.61-.7,1.33-1.53"/><path class="cls-1" d="M408,244.89c-.13,3.68-1.29,4.56-4.8,3.56-2-.56-3.92-1.26-5.9-1.83a1.82,1.82,0,0,0-2.31.81c-.57,1,.36,1.4,1,1.81,2,1.39,3.22,4.56,7,3.51l-4.59,5.45c-.91-5-11.68-13.78-16.34-13,2.56-2.83,4.53-5.54,7-7.62,2.78-2.33,7.89-.15,8.16,3.51.17,2.25,1.21,2.76,2.91,3.16A19.43,19.43,0,0,1,403,245c1.74.7,3.43,1.05,5.11-.09ZM395.6,243.2c-.42-1.66-1.72-2.55-3.12-3.28a3.44,3.44,0,0,0-3.89.1c-1,.77-1.41,1.63-.25,2.63s2,1.86,3.12,2.69c.63.47,1.08,1.7,2.13,1a4.66,4.66,0,0,0,2-3.18"/><path class="cls-1" d="M573.05,265.14c-2.33,1-4.67,2-7,3.14s-5,1.74-4.12,5.64l-.82-.29L558.4,268c6,.91,17.16-4.62,18.29-9.2,1.57,2.22,3,3.88,1.14,6.71-2.61,4-4.71,8.37-7.48,13.41,3.93-1.86,7.12-3.36,10.29-4.89,1.53-.74.6-2.49,1.51-4.11l3,6.09c-3-1.61-5-.16-7.14.84a110.67,110.67,0,0,1-13.17,5.45q4.35-8.25,8.69-16.49l.27-.68-.73.06"/><path class="cls-1" d="M358.77,302c0-3.27.68-5.25,3.83-6.32a98.29,98.29,0,0,0,12.73-5.7c-4.57-.22-8.82-4.83-14-.28.52-2.32.93-4.16,1.51-6.73,1,3,3.15,3.29,5.23,3.75a127,127,0,0,1,14.64,4L365,298.48c0,.2,0,.4,0,.59,3.77.84,7.52,1.75,11.31,2.48,1.62.32,2.45-1.28,4.08-2.5l-1.68,7.35c-1.94-4.63-6-4.12-9.37-4.86s-6.82-3.19-10.55.45"/><path class="cls-1" d="M551.42,407c-2.18,1.69-4.36,3.39-6.75,5.23.27-3-1.66-5.61-3.83-5.61-1.21,0-5.44,3.86-5.37,4.91.18,2.77,1.64,3.77,5.69,3.5l-6.1,4.74c-.27-8.16-3.92-15.3-5.12-23.54,5.78,3.23,11.15,6.2,16.5,9.23,1.48.83,2.89,1.73,4.75.83Zm-18.3-4.75c-.19,1.66.76,3.05,1,4.57.29,2.06,1,1.54,2.24.66,3-2.22,3-2.19-.25-3.91a7.17,7.17,0,0,0-3-1.32"/><path class="cls-1" d="M434,429.39l-8.17-4.14c3-1.18,4.43-3.74,3.47-5.88-.52-1.14-5.69-3.28-6.65-2.75-2.6,1.45-2.91,3-.85,6.57L415,419.74c7.1-3.83,12.13-10,19-14.68-.26,4-.47,7.43-.71,10.88-.21,3-.32,6.1-.76,9.1-.23,1.51.65,2.51,1.42,4.35M430.23,410c-1.56,1.34-2.53,2.32-3.64,3.08-1.85,1.25-1.54,2,.33,2.83,3,1.4,2.94,1.5,3.12-1.84.06-1.14.11-2.29.19-4.07"/><path class="cls-1" d="M517.11,422.59c.53,3.84-1.69,6.1-4.72,7.53-3.39,1.61-6.88,1.7-10-.83-3.7-3-5.09-9.1-3.23-13.76,1.69-4.21,5.23-6,10.85-5.59.1,0,.22,0,.29.06,1.14.83,1.86-1.68,2.54-.61,1,1.65,1.55,3.65,2.46,5.94-1.83-.36-2.34-1.55-3.22-2.2-2.7-2-5.69-2.46-8-1.06s-3.25,4.33-2.68,7.58a12,12,0,0,0,1.55,4.1c3.71,6.26,9.61,6.26,13.37,0,.24-.4.49-.79.74-1.18"/><path class="cls-1" d="M499.79,216.82a14.34,14.34,0,0,1,5.11-10,7.65,7.65,0,0,1,8.3-1.08,7.12,7.12,0,0,1,4.51,6.68,14.48,14.48,0,0,1-4,10.77,8.06,8.06,0,0,1-9.42,2.05c-3-1.29-4.68-4.11-4.55-8.43m14.86-3c.1-4.41-1.28-6.93-3.77-7.36-3.14-.54-4.62,1.63-5.86,4a16.93,16.93,0,0,0-2.06,9.11c.13,2.17.88,4.05,3.24,4.77s4.05-.49,5.31-2.23a17.08,17.08,0,0,0,3.14-8.28"/><path class="cls-1" d="M391.5,268.58a5.49,5.49,0,0,0-2.75-3.54c-3.4-2.17-6.9-4.2-10.1-6.63-1.82-1.38-3.22-.22-5.37.23,2.38-3.74,4.1-7.34,6.67-10.16,1.4-1.53,3,.92,4.62,1.91-1.52.64-2.6-.76-3.9.07-2.56,1.65-2.7,3.91-.17,5.56,3.47,2.26,4.22,2.25,5,0,.46-1.32-.75-2.11-.88-3.54a27.41,27.41,0,0,1,6.53,3.84c-1.17.67-1.83-.14-2.58-.09-1.41.09-1.93,1.25-2.45,2.29-.62,1.23.67,1.4,1.27,1.9a7.76,7.76,0,0,0,1.73,1.12c1.32.59,2.52,2.75,4,1.29a4.93,4.93,0,0,0,1.19-5.95c-.21-.41-.38-.85-.64-1.42,3,1,4.13,3.27,2.8,5.53-1.54,2.6-3.31,5.05-5,7.56"/><path class="cls-1" d="M411.26,411c3.74-2.09,6.86-3.75,9.91-5.54,2-1.19,3.72-2.63.78-5.72,3.28.81,4.41,3,6.71,4-6.89,2.42-12.38,6.43-18.42,9.36-.9.44-1.79,1.79-2.82.89-.76-.66,0-1.87.24-2.78q2-7.11,4-14.18c.54-1.86,1.4-3.68.51-5.9l6.23,4.9c-2.47,0-3,1.68-3.57,3.34-1.15,3.63-2.26,7.28-3.6,11.62"/><path class="cls-1" d="M570.89,311c-.24-2.21-.45-4.11-.68-6.18,7.17,3.1,14.79,3.84,22.66,6.47-5.84,2.74-11.11,5.19-16.35,7.7-1.55.74-3.44,1.11-4,3.77-1.27-2.81-.8-5.22-1.23-7.63,2.41,1.3,5.89.92,6.79-.61.57-1-.19-5.24-1-5.76-2-1.26-4.27-.55-6.19,2.24m9-1.72c0,5,0,5,3.81,3.05.83-.42,1.85-.61,2.43-1.55l-6.24-1.5"/><path class="cls-1" d="M493,222.07l-7.9-1.29c3.71-2.74,3.26-6.65,3.74-10.08s3.1-6.91-1.35-10.62c4,.75,7.12,1.06,10.07,2,3.18,1,4.18,4.38,2.73,7.88a5.12,5.12,0,0,1-7.06,2.84.91.91,0,0,1-.52-1c4.22-.39,6.28-3.57,4.6-7.13a2.85,2.85,0,0,0-2.74-1.89c-1.44,0-1.32,1.31-1.49,2.19-.69,3.47-1.27,7-1.9,10.46-.4,2.19-1,4.41,1.82,6.62"/><path class="cls-1" d="M439.46,204.38c5.22,5.86,9.06,12.49,14.51,17.87l-6.11,2c.58-2.65-.67-6.13-2.25-6.59-1-.29-5.08,1.55-5.39,2.4-.79,2.16.45,4.18,3.68,5.48l-6,2c1.81-7.64.42-15.32,1.58-23.17m1,6.57c-.12,1.56-.21,3-.36,4.44s.34,1.85,1.84,1.5c2.49-.57,2.92-1.52,1-3.34-.82-.78-1.19-2-2.49-2.6"/><path class="cls-1" d="M430.4,213.42c-.89-.56-1.73-1.47-2.67-1.6a4.19,4.19,0,0,0-3.12,1.43c-1.05,1,.13,1.79.51,2.56,1.57,3.17,3.33,6.25,4.83,9.45,1,2.19,2.33,3.6,5.12,3.28a21.72,21.72,0,0,1-7.82,4c2-2,1.14-3.78.12-5.64-1.74-3.19-3.37-6.44-5.11-9.63-.45-.83-.52-2.41-2.11-1.76-1.42.58-3.06,1.09-2.72,3.27.11.7.56,1.49-.17,2.43-1.12-1.12-1.2-2.66-1.88-3.87-.57-1-.11-1.6.83-2.08,3.59-1.82,7.07-3.9,10.76-5.48,3.17-1.34,2.45,2.25,3.43,3.65"/><path class="cls-1" d="M441.67,409.86l9,2.14c-3.28.74-3.55,2.73-4,4.65-.85,3.63-1.62,7.29-2.67,10.86-.58,2,.16,2.63,1.88,3.1,2.93.79,5.32-.17,7.59-2.41-.47,3.86-2.37,5.32-5.5,4.58-3.42-.82-6.83-1.71-10.94-2.74,3.56-1.17,3.62-3.88,4.19-6.33.54-2.29,1.16-4.56,1.73-6.85s1.9-5-2-6.45l.7-.55"/><path class="cls-1" d="M539,226.13c.79-2.24,2.23-2.92,3.08-4.09.65-.88,1.27-.54,2,0,3.17,2.49,6.54,4.78,9.49,7.51,2.49,2.3-.87,3.2-1.38,5-1.09-.91-.24-1.47-.11-2,.47-2-1.08-2.6-2.21-3.43-1.43-1-1.88.49-2.47,1.21-1.94,2.36-3.76,4.82-5.66,7.21-1.66,2.1-4,4-2.2,7.4-2.05-1.57-4.11-3.12-6.14-4.72a.87.87,0,0,1-.23-.76.59.59,0,0,1,.93-.34c1.86,1.07,2.72-.37,3.62-1.49,2.41-3,4.8-6,7.09-9.08.58-.78,2.2-1.6.65-2.9-1.19-1-2.36-2.26-4.1-.87a25,25,0,0,1-2.32,1.37"/><path class="cls-1" d="M576.18,303.79c-3.18.39-5.18-1.16-6.46-3.75a7.32,7.32,0,0,1,1.22-8.47c3.75-3.83,11.84-4.63,16.2-1.59,2.09,1.46,2.88,3.53,3.15,6,.17,1.63-2,3.19-.06,4.78-.28.23-.53.58-.85.67a20.53,20.53,0,0,1-5.54.81c1.07-.93,2.2-1.8,3.18-2.82,1.45-1.48,2.34-3.28,1.55-5.36-.72-1.92-2.44-2.73-4.38-3.08a13,13,0,0,0-9.3,2c-4.61,2.8-4.62,7.07-.07,9.95l1.36.85"/><path class="cls-1" d="M465.51,220l-8.16,1.76c3.08-3,1-6,.51-9-.44-2.42-.86-4.86-1.53-7.22-.28-1,.28-3-1.93-2.58-1.68.3-3.4.65-3.23,3,0,.55.13,1.22-.63,1.51-.13-.09-.36-.16-.38-.27-.93-5.22-.93-5.21,4.33-6.18,2.12-.39,4.25-.83,6.36-1.31,3.83-.86,4.46-.31,4.42,4.35-1.19-2-2.51-3.23-4.87-2.45-1.21.4-1.57.93-1.31,2.12,1,4.23,1.92,8.46,2.75,12.71.4,2.05,2,2.39,3.67,3.54"/><path class="cls-1" d="M389,275.63c-8.24.24-15.64-2.13-23.35-.94l2.93-6.59c.55,2.56,2.17,3,3.89,3.2,3.58.39,7.16.73,10.89.81-2.89-3-5.48-6.09-8.84-8.45-1.57-1.09-2.51.2-3.87.95-.14-2.31,1.62-3.64,1.78-5.84,5,6.24,11.13,10.79,16.57,16.86"/><path class="cls-1" d="M379.87,313.51c-7.79,2.8-15.58,3-22.61,6.37.22-2.07.46-4.22.76-7,1.46,2.35,3.17,2.1,4.89,1.73,3.55-.77,7.09-1.57,11.28-2.5a99.62,99.62,0,0,0-11.77-5.42c-1.85-.65-2.55.85-3.58,2.37-.72-2.32.36-4.16,0-6.26,6.63,4.21,13.83,6.72,21,10.74"/><path class="cls-1" d="M408.07,245c.81-1.44-.87-1.4-1.28-2.11-.5-.86-1.94-1-2-2.61,1.53.7,2.88,1.36,4.26,1.94a3.35,3.35,0,0,0,4-.91,2.78,2.78,0,0,0,.33-3.54c-.88-1.51-2.05-2.36-3.86-2-1.55.27-3.09.66-4.65.84a6.15,6.15,0,0,1-6.87-5.07A4.4,4.4,0,0,1,401,226c3.62-1.42,4.2-1.2,6.65,2.69-1.25.37-2-.62-2.84-1-1.68-.72-3.27-.82-4.65.53-1,1-.82,2.14-.16,3.24,1,1.71,2.55,1.53,4.17,1.13,3.43-.84,6.8-1.54,9.39,1.94,1.57,2.12,2.47,4.37,1.24,6.83s-3.57,3.17-6.18,3.06c-.41,0-.45.21-.6.43Z"/><path class="cls-1" d="M528,212.3c-1.89.68-2.66,2.07-3.4,3.63-1.57,3.28-3.33,6.47-4.91,9.74-.52,1.07-1.86,2.31-.63,3.44a4.87,4.87,0,0,0,4.65,1.23,21.87,21.87,0,0,0,2.94-1.3c-1.1,3.45-3.07,4.37-6.1,2.87-2.46-1.22-4.86-2.52-7.79-4a5.44,5.44,0,0,0,4.06-3.4c1.49-3.1,3.08-6.15,4.73-9.16,1-1.9,1.94-3.69-.34-5.53l.54-.5Z"/><path class="cls-1" d="M531.52,421.41l-7.18,3.77c1.17-2.31-.17-3.94-1-5.6-1.4-2.71-3-5.33-4.3-8.07-1.11-2.29-2.07-4.54-5.5-4l7.4-4c-1.06,2.22,0,3.86.9,5.57,1.62,2.92,3.23,5.86,4.69,8.86,1,2.08,2.13,3.73,5,3.47"/><path class="cls-1" d="M385.41,281.19c-.72,2.23-1.45,4.46-2.39,7.32-.88-2.73-2.75-3.26-4.6-3.85-3.09-1-6.18-2-9.25-3-2-.67-4-1.56-5.38,1.47l-.49-.75c.68-2.25,1.37-4.51,2.27-7.47a5.08,5.08,0,0,0,4,3.71c3.38,1,6.76,2.09,10.09,3.26,2,.71,3.91,1.42,5.78-.69"/><path class="cls-1" d="M587.62,284.74c-4.42-1.95-18.33,3.3-19.46,7.32l-2.48-7.47c3.42,2,6-.24,8.8-.88,2.19-.5,4.26-1.51,6.45-2.07s3.82-1.48,4.22-4.12c.77,2.24,1.54,4.49,2.47,7.22"/><path class="cls-1" d="M535.5,216.35l5.82,3.92c-4.81,2.17-12.15,14.06-10.5,17.95l-6.56-4.36c3.12-.48,4.09-2.74,5.39-4.69,1.52-2.29,3-4.57,4.63-6.82,1.25-1.77,2.65-3.46.48-5.74Z"/><path class="cls-1" d="M423.69,235l-5.62,4c-.44-5.26-8.82-16.14-13.13-16.08l6.91-5c-1.34,2.85,0,4.27,1.12,5.81,2,2.88,4.13,5.74,6.07,8.69,1.09,1.66,2.22,2.93,4.65,2.6"/><path class="cls-1" d="M515.28,274.91a16.79,16.79,0,0,1-.72-1.81c-.41-1.61-.08-3,1.55-3.69,1-.42,2.52-.94,3.2.23.84,1.44,1.35,3.53-.43,4.52-2,1.12-1.22,2.6-1.34,4.08-.06.78.1,1.07.85,1.06,1.28,0,1,1,1,1.68-.22,18.64.38,37.28-.43,55.92-.78,18.23-8.77,33-21.11,45.86-6.33,6.61-14.31,11.11-21.22,17a1.51,1.51,0,0,1-2.1.12c-11.5-7.84-22.84-15.89-31.52-27-7.23-9.24-10.52-20-11.28-31.5-1.3-20-.3-40-.68-60.05,0-1.67,1.83-2.28,1.45-4.13-.18-.9.06-1.6-.94-2.15a2.63,2.63,0,0,1-1.68-2.25c0-1.28-.26-2.84,1-3.47a3.31,3.31,0,0,1,3.31.69,2.59,2.59,0,0,1,.88,3.44c-1.93,2.88.24,1.93,1.46,1.63a161.21,161.21,0,0,1,39.81-4.68c11.89.1,23.53,2,35.11,4.4a7.43,7.43,0,0,0,3.78.13m-40,8.35c-12.54,0-25.08,0-37.62,0-1.88,0-2.76.21-2.74,2.48.17,16.68.09,33.36.28,50,.17,15.21,4.37,28.93,15.37,40a154.48,154.48,0,0,0,23.38,19,2,2,0,0,0,2.82-.13c3.21-2.45,6.57-4.71,9.75-7.2,17.66-13.84,28.7-31.21,28.82-54.34.08-15.69.07-31.39.27-47.08,0-2.49-.85-2.83-3-2.82-12.44.09-24.88.05-37.31.05M512,279.17c-24.64-6.24-49.41-6.74-74.17,0Z"/><path class="cls-1" d="M513.75,262.34c1.48,1.78,3.8,1.57,5.7,2.35,1.25.52,2.54.87,2.09,2.6-.52,2-2.08,1.59-3.35,1.14-19.67-6.92-40-7.44-60.42-5.76-8.47.7-16.67,2.9-24.78,5.38-.56.17-1.11.39-1.68.53-1.17.28-2.24.2-2.56-1.21a1.79,1.79,0,0,1,1.41-2.46,29,29,0,0,0,4.25-1.51c-2.7,0-5.17-.48-6.51-3.13-.33-.65-1.09-1.44.11-1.9,1-.38,1.64-1.95,3-.85,2.89,2.26,5,1.55,5.37-2.09.15-1.47,1.1-2,1.79-2.84l-.07.08a3.3,3.3,0,0,1,3.63,1.88,3,3,0,0,0,3.52,1.55c1.46-.43,1.75-1.74,1.94-3a7.85,7.85,0,0,0,.23-2.34c-.3-1.84.68-2.19,2.2-2.65,2-.61,2.06.83,2.58,1.9.26.53.49,1.08.75,1.6.92,1.84,2.35,3.1,4.45,2.75s2.93-2.15,2.94-4c0-2,1-2.07,2.49-2.33,2-.35,1.61,1.11,1.92,2.12.5,1.64,1.11,3.4,3.09,3.51s3.38-1.33,4.17-3.19a9.16,9.16,0,0,0,.65-3.76c0-1.37-.06-2.41,1.94-2.44s2.27.69,2.34,2.36a13.72,13.72,0,0,0,.91,4c.65,1.78,1.92,3.13,3.93,3s2.52-1.94,3.12-3.5c.35-.92-.48-2.71,1.69-2.23,1.36.31,2.89.12,2.62,2.52a3.51,3.51,0,0,0,3,3.85c2.52.44,3.72-1.35,4.59-3.35.64-1.45.7-3.39,3.28-2.62,1.24.37,1.91.73,1.84,2.12a10.35,10.35,0,0,0,.29,2.93c.74,3,3.3,3.73,5.59,1.62,2.84-2.62,4.38-2.25,5.43,1.3a3.21,3.21,0,0,0,5.12,1.78c.56-.37.87-1.06,1.68-.55s2.17.42,2.39,1.4-.72,1.78-1.47,2.42c-2.2,1.87-4.71,1.53-7.25,1-5.49-2.37-5.49-2.37-9.36-2-.1,0-.18.15-.47.4,3.48.14,6.44,2.08,9.83,1.62m-47.6-4.3c-1.75-1.32-3.2-3.36-5.55-.67a4.17,4.17,0,0,1-5.38.83c-3.61-2.66-5.73-.89-8,2.16A137,137,0,0,1,466.15,258m13.54-.1c-1.92-.86-3.15-3.16-4.68-3.34s-2.78,2.37-4.69,2.93a3.54,3.54,0,0,0,.05.61,84.47,84.47,0,0,1,9.32-.2m12.63.82,10.42,1.47c-4.27-3-4.27-3-8.84-1.8-.27.07-.53.11-1.58.33m-45.85,1.72c-3.77-.21-7.6-3-9.58,2.27l9.58-2.27m43.71-1.91c-2.27-3-4.46-3.07-7.11-.35l7.11.35"/><path class="cls-1" d="M412.8,314.6c-.18,9.29,2.1,18.11,5.17,26.8.67,1.88,1.7,1.68,2.87,1.15,2.51-1.15,3.25-.05,3.87,2.28a44.56,44.56,0,0,0,7,14.86c1,1.36,1.36,2.49-.29,3.63s-1.32,2.14-.12,3.54a21.22,21.22,0,0,1,4.66,7.8c.21.7.87,1.33-.15,2-2,1.38-3.9,3-6,4.29-3.28,2-6.45,1.21-9.33-1-4.81-3.68-7.91-8.73-10.83-13.89-1.06-1.85.5-2.77,1.83-3.63,2.15-1.4,2.29-3.85.33-5.38-1.07-.85-1.62.28-2.27.66-4,2.29-4.08,2.39-6.33-1.68-15.78-28.58-14.73-56.77,2.05-84.59,1.27-2.09,2.6-2.27,4.54-1,4.44,2.92,8.9,5.81,13.42,8.6,1.29.8,1.83,1.54,1.22,3-.37.9-.41,1.93-.72,2.86-.71,2.14-.57,3.83,2,4.48,1.76.45,1.77,1.5,1.3,3.08-1.27,4.24-2.43,8.52-3.41,12.83-.36,1.59-.92,1.64-2.13,1s-2.32-1.06-3.5-1.57c-4.39-1.89-4.39-1.88-5.06,3a12.15,12.15,0,0,0-.14,1.48c0,1.77,0,3.54,0,5.32m10.65-18.21c-2.1,2.48-4.27,4.76-8,3.33-.55-.21-1.15.45-.93.77,1.26,1.9,3.59,2,5.43,2.92.53.28,1.26,1.24,2,.16a.56.56,0,0,0,.12-.26c.29-2.36,1.81-4.48,1.33-7,.25.21.43.14.52-.16,0-.07-.05-.16-.08-.24-.13.16-.26.31-.38.47m-29.32,19,.18,4.13a75.93,75.93,0,0,0,10.89,36c.9,1.5,1.58,1.54,2.93.67q4.58-3,9.33-5.68c1.29-.74,1.58-1.38.94-2.78-1.1-2.41-2.06-4.9-2.93-7.4-7-20.27-7.71-39.93,5.74-58.16,1-1.37.26-1.79-.76-2.43-3.5-2.19-7.06-4.32-10.42-6.72-1.9-1.37-2.73-1-3.92.89a79.9,79.9,0,0,0-12,41.43M425.92,380c2.68-.07,4.38-2,6.41-3.33,1.52-1,1.8-2,.84-3.57-3-5.08-7.32-9.27-10.07-14.54-.49-.94-1.05-.54-1.67-.13q-4.44,2.91-8.91,5.78c-.75.48-1.18.89-.57,1.86,2.76,4.43,5.47,8.91,9.67,12.19a6.68,6.68,0,0,0,4.3,1.74m-3.09-33.14c-.27,3.27-2.61,4.52-5,5.77a21.17,21.17,0,0,1-2.53,1.49c-2.88,1-1.25,2.61-.59,4.08,1,2.25,2.2.71,3.17,0,3-2,5.79-4.7,9.24-.8l.44-.34a102.44,102.44,0,0,1-4.77-10.24m-1.56-60.29c-2.6,2.74-4,6-5.37,9.34-.19.48-1.17,1.55.35,1.71.91.1,2.24,1.2,2.67-.55.86-3.48,1.58-7,2.35-10.5"/><path class="cls-1" d="M535.83,303.11c-2.71,1.16-5.16,2.14-7.55,3.28-1.27.6-1.87.44-2.22-1-1.12-4.49-2.25-9-3.56-13.41-.49-1.68.44-2.22,1.54-2.58,2.22-.73,2.67-1.86,2-4.19-1.39-5-1.22-5.09,3.35-8,3.57-2.28,7.16-4.52,10.69-6.86,1.72-1.14,3-1,4.14.8C554.88,287.48,559,305.37,557,324.65a77.32,77.32,0,0,1-11.33,32.92c-1.31,2.14-2.35,2.52-4.2,1a16.6,16.6,0,0,0-1.75-1.1c-.25-.16-.54-.5-.74-.45-2.6.56-2.35,3.44-3.92,4.88-.84.77-.55,1.48.47,1.94,2.57,1.17,2.37,2.83,1.1,5-5.28,8.94-12.62,11.93-21.64,8.7-3.33-1.2-3.82-3.36-1.31-6,1.51-1.55,3-3.09,4.63-4.57,1.28-1.2,1.34-2.29-.1-3.35-1.7-1.26-1.26-2.48-.19-4a46.27,46.27,0,0,0,7.22-15.72c.48-1.87,1.23-2.27,2.85-1.47,2.42,1.19,3.3,0,4-2.23,3.7-10.83,6.09-21.81,4.43-33.35a14.2,14.2,0,0,0-.18-1.46c-.14-.67-.34-1.33-.59-2.29M529,286.84c-.06-.31,0-.89-.44-.72-.28.1-.21.68.19.95.65,3.18,1.4,6.34,1.9,9.54.33,2,1.59,1.22,2.64,1.11,1.73-.18.78-1.17.5-1.87-1.3-3.16-2.49-6.39-4.79-9m-7.08,71.85c2.39-1.71,4.5-.92,6.53.72.37.31.87.48,1.23.8,2.19,2,3.74,1.43,4.81-1.17a5.83,5.83,0,0,1,.77-1.26c1.35-1.78.72-2.74-1.08-3.84-2.94-1.8-7-2.63-7.27-7.28a112.59,112.59,0,0,1-5.35,11.68c-.08.23-.27.61-.21.65.3.21.48,0,.57-.3m33.69-43.12a80.32,80.32,0,0,0-12.06-41.82c-1-1.68-1.82-2.12-3.59-.88-3.38,2.38-6.87,4.62-10.44,6.69-1.79,1-1.61,1.78-.53,3.27A51.15,51.15,0,0,1,539,311c.63,12.58-2.46,24.42-7.38,35.83-1,2.27-.61,3.16,1.46,4.2a60.44,60.44,0,0,1,7.82,4.73c1.89,1.35,2.78,1.11,4-.91a78,78,0,0,0,10.67-39.31m-33.51,61.28c4.73,0,11.64-5.18,13.16-9.68.39-1.16-.33-1.37-1-1.76-2.41-1.49-4.88-2.91-7.25-4.46-1.1-.72-1.62-.52-2.25.58a57.18,57.18,0,0,1-6.17,8.23c-1.41,1.7-4.89,3.18-4,4.85,1.08,2.15,4.67,1.71,7.23,2.22a2.64,2.64,0,0,0,.29,0m5.86-72.63c2.05-.87,3.94-1.64,5.8-2.48.63-.29,1.8-.26,1.5-1.37s-1.33-.67-2-.49c-2.8.76-4.63-.41-6-2.73-.25-.43-.46-1.06-1.4-1,.71,2.67,1.4,5.29,2.13,8.06m-.42-10.33c.14-1.24.36-2.56-.83-3.38-.16-.11-.92.22-1,.46-.39,1.49,1.1,1.94,1.81,2.92"/><path class="cls-1" d="M499.9,246.88c2.35-.14,3.82-.86,4-2.9a2.6,2.6,0,0,0-1.86-2.72,2.67,2.67,0,0,0-3.18.87c-1.25,1.51-.73,2.92.69,4.25-1.73.59-3.06-.23-4.42-.44-1.77-.28-2.48-1.4-2-3.23s.29-4.18,3.08-3.69c1.79.32,2.34,0,2.68-1.81.37-2,2-2.05,3.74-1.57s3.58.62,3.08,3c-.35,1.65-.25,2.36,1.68,2.76,2.82.59,1.58,2.85,1.34,4.59s-1.33,2.57-3.12,2.19-3.45-.79-5.7-1.31"/><path class="cls-1" d="M475.24,243.07c2.23-1.56,3.34-3.18,1.41-5.22a2.46,2.46,0,0,0-3.9.11c-1.73,2-.64,3.54,1.59,5.11h-3.91c-3.29,0-5.48-3.32-3.26-5.61,1.79-1.85,3.87-3.2,5.47-5.53,1.43-2.09,5.36-.13,5.55,2.58.1,1.39.66,1.59,1.81,1.56,3.37-.08,2.58,2.44,2.69,4.4.12,2.14-1.09,2.7-3,2.61-1.35-.07-2.71,0-4.48,0"/><path class="cls-1" d="M450.24,246.5c1.44-1.7,2.07-3.49,0-4.95a2.54,2.54,0,0,0-3.86.81c-1.26,2.09-.17,3.51,2,4.59a10.37,10.37,0,0,1-4.76,1.28c-2.4.31-2.41-1.83-2.82-3.39s-.33-3.17,1.63-3.46c1.8-.26,2-1.1,1.7-2.61-.56-2.65,1.51-2.75,3.21-3.18s3.21-.38,3.57,1.81c.25,1.52.79,2.07,2.52,1.64,2.56-.66,2.76,1.5,3.16,3.22s.27,3.29-1.82,3.65c-1.42.25-2.8,1-4.47.59"/><path class="cls-1" d="M527.3,246.46l.78.38,1.07.72c-.7,3.52-2.95,6.23-4.83,9.12a1.7,1.7,0,0,1-2.41.34,34.32,34.32,0,0,1-4.71-3c-1.82-1.5-.44-3,.37-4.42s1.9-2.46,3.56-1.35c1.37.91,2.19.82,2.93-.72a2.22,2.22,0,0,1,3.24-1m-5.09,9.9a22.47,22.47,0,0,0,1.82-2.87c.28-.66,1.62-1.36.45-2.13-.87-.58-1.86,0-2.61.68a2.72,2.72,0,0,0-.59,3,6.43,6.43,0,0,0,.93,1.34"/><path class="cls-1" d="M428.2,256.09c-1.29,1.6-2.2,1.69-3.3,0-1.51-2.3-2.78-4.75-4.19-7.11a1.09,1.09,0,0,1,.37-1.72c.55-.38,1.62-.39,1.34-1.53,0,0,0,.06,0,.05,1.4.66,3.21.61,3.85,2.54.41,1.25,1.25.47,1.86.08,2.49-1.59,3.37.22,4.51,1.94,1.31,2,.8,3.35-1.1,4.3-1.11.56-1.86,2-3.42,1.52,1.16-3.77.16-5.15-3.58-4.61,1.33,1.52,1.27,3.94,3.66,4.52"/><path class="cls-1" d="M475.22,269.13c-3.35,0-5.56-1.24-5.57-3.17s2.1-3.19,5.58-3c2.21.1,4.83-.05,5.2,3.08.22,1.87-2,3.1-5.21,3.11"/><path class="cls-1" d="M499.26,271a8.77,8.77,0,0,1-4.79-1.23,2.64,2.64,0,0,1-1.38-2.72,2.5,2.5,0,0,1,2.14-2.15,9,9,0,0,1,4.67.07c1.91.53,4.17,1.16,3.83,3.65-.33,2.33-2.54,2.39-4.47,2.38"/><path class="cls-1" d="M450.07,271c-1.75-.13-3.82,0-4.16-2.31s1.63-3.12,3.44-3.66a10,10,0,0,1,4.39-.26c1.34.21,2.52.73,2.78,2.21s-.74,2.39-1.89,3a8.28,8.28,0,0,1-4.56,1"/><path class="cls-1" d="M438.21,252.6a9.4,9.4,0,0,1-1.94-.4c-1.78-.77-2.63-2.08-1.62-3.95a2.55,2.55,0,0,1,3.94-1.07c1.72,1.09,1.79,2.63.65,4.27-.32.45-1.11.47-1.1,1.22Z"/><path class="cls-1" d="M464.88,244.18c-.43,1.87-1.47,2.79-3.36,2.54a2.48,2.48,0,0,1-2.35-2.83,2.63,2.63,0,0,1,3.16-2.65c1.76.18,2.47,1.36,2.55,2.94"/><path class="cls-1" d="M490.32,244.08c-.3,1.77-1.19,2.95-2.88,2.94a2.84,2.84,0,1,1,.05-5.68c1.75,0,2.49,1.29,2.83,2.74"/><path class="cls-1" d="M515.37,248.92c0,1.93-.89,3-2.63,3.07a2.78,2.78,0,0,1-.28-5.56,2.55,2.55,0,0,1,2.91,2.49"/><path class="cls-1" d="M483.29,266.21c2.4-2.23,4.52-2.12,6.52.36-2.21,2.35-4.34,2.25-6.52-.36"/><path class="cls-1" d="M466.35,266.16c-3.14,2.92-3.14,2.92-6.45.39,2-2.52,4.13-2.64,6.45-.39"/><path class="cls-1" d="M437.42,270.76c1.58-2.51,3.51-3.35,6-1.25-2.41,3.3-2.41,3.3-6,1.25"/><path class="cls-1" d="M506.47,269.48c2.46-2,4.37-1.31,5.9,1.2-3.26,2.19-3.47,2.15-5.9-1.2"/><path class="cls-1" d="M521.89,358.69c-.09.3-.27.51-.57.3-.06,0,.13-.42.21-.65l.36.35"/><path class="cls-1" d="M471.26,391.33c-4.13-3.24-8.18-6.45-12.27-9.62-.79-.61-.59-1.4-.59-2.15q0-46.59,0-93.19c0-1.56.41-2,2-2a70,70,0,0,0,8.57,0c2.39-.19,2.88.67,2.88,2.93-.09,25.54-.06,51.08-.06,76.62q0,12.13,0,24.26a5,5,0,0,1-.45,3.14"/><path class="cls-1" d="M479.62,390.67v-3.52q0-49.89-.06-99.76c0-2.51.63-3.25,3.07-3a31.38,31.38,0,0,0,6.5,0c2.75-.3,3.64.44,3.61,3.43-.17,16.57-.08,33.15-.08,49.72,0,13.23-.06,26.45.06,39.67a5.58,5.58,0,0,1-2.54,5.13c-3.41,2.49-6.65,5.22-10.56,8.33"/><path class="cls-1" d="M451.29,374.39a65.28,65.28,0,0,1-11.06-16.58,10.36,10.36,0,0,1-.82-4.32q0-33.3,0-66.6c0-1.79.24-2.69,2.34-2.5a40,40,0,0,0,7.09,0c2.43-.23,2.39,1.07,2.38,2.82q0,31.38.08,62.75c0,7.87,0,15.73,0,24.43"/><path class="cls-1" d="M501,371v-3.62c0-26.66,0-53.31-.07-80,0-2.47.57-3.3,3.05-3s5.74-.75,7.14.49c1.65,1.47.52,4.83.52,7.36.05,18,0,35.93.08,53.9a23,23,0,0,1-2.14,10A82.55,82.55,0,0,1,501,371"/><path class="cls-1" d="M407,320.37v3.13c-3.24-.73-6.38-1.06-9.54.13v-2.81c1.38.32,3,1.22,3.91-.15.53-.78.7-2.65-.19-3.31a2.46,2.46,0,0,0-3.7.94v-3.22c3.22.22,6.4.87,9.56-.53v3c-1.56-.23-3.35-1.41-4.47.22-.51.74-.73,2.69.28,3.25a3.11,3.11,0,0,0,4.15-.61"/><path class="cls-1" d="M401.14,340.52c-1.62-5.4-1.63-5.77.17-6.68-.49,1.24-1.23,2.71,0,3.38a1.82,1.82,0,0,0,2.83-1.37c.09-.55.51-.29.86-.05a2.39,2.39,0,0,0,3.52-.66c.65-1.37-.89-2.29-2.12-3.05,2.36-.23,2.36-.23,3.92,5.3-3.24.35-6.53.57-9.19,3.13"/><path class="cls-1" d="M404,305.15c-2-.35-4-1.34-5.8.76-.26-2.09-.3-3.08,2.36-2.12,2.23.8,4.83.58,7.86.87l-11,8.09c0-4.88,4.76-4.6,6.59-7.6"/><path class="cls-1" d="M411.89,340.46c.74,1.55,1.28,2.68,1.86,3.87-3.08-.46-5.13,1.67-7.59,2.63-.5.2-.51.69-.31,1.25.4,1.12,1.37.89,2.23,1.05-2.05,1.45-2.05,1.46-3-.47-.71-1.41-1.38-2.83-2.12-4.22-.45-.85-.38-1.48.81-2-.14,4,1.9,2.92,3.9,1.71,1.55-.94,3.84-1,4.25-3.82"/><path class="cls-1" d="M417.68,280.75c-.81,1.26-.56,2.75-3.19,1.64s-2.22,2-2.36,4l-5.62-6.89,11.17,1.28"/><path class="cls-1" d="M410.34,289.31a3.62,3.62,0,0,1-.78,6,5.25,5.25,0,0,1-6.42-1.28c-1.57-1.57-2.2-3.42-.49-5.39l.33.39a2.86,2.86,0,0,0,1.16,4,4.91,4.91,0,0,0,5,.54c2-1,1.43-2.71,1.3-4.31Z"/><path class="cls-1" d="M409.17,298.62c-.21.88-.44,1.82-.7,2.88-3-1.21-6.06-2.2-9.42-1.75a4.86,4.86,0,0,1,.53-2.59c3.1.86,6.08,2.16,9.59,1.46"/><path class="cls-1" d="M399,330.29c1.5-1,5-.06,3.52-3.68a3.85,3.85,0,0,0,.64.38c1,.31,1,1.14.91,1.89A2.33,2.33,0,0,1,402.3,331a3,3,0,0,1-3.28-.67"/><path class="cls-1" d="M402.59,311.29a12.89,12.89,0,0,1,2.47-.17c1,.11,1.39-.94,2.27-1a5.08,5.08,0,0,1-.5,2.92c-1.1-1.51-2.67-1.25-4.24-1.75"/><path class="cls-1" d="M402.65,288.63c.7-1.76,1.73-2.62,3.67-1.29L403,289l-.33-.39"/><path class="cls-1" d="M410.42,289.27l-.34-.28.34-.05c0,.12-.05.25-.08.37Z"/><path class="cls-1" d="M419.39,372.16c-2.27-.94-2.46-1.44-1.44-3.09.36-.58,1.23-1.35.51-2a2,2,0,0,0-1.91-.08c-1.54,1.42-2,.29-2.69-1.1,2,.21,4.14,1.11,5.47-.41a9.39,9.39,0,0,0,1.85-5.2c4,1.78,0,3.57.08,5.86,3.88-2.35,5.25.73,7,3.07l-.45.46c-1-1-2.25-2.48-3-2.77-3.33-1.29-5.3.84-5.55,5.39Z"/><path class="cls-1" d="M428.26,369.17l2.15,2.56c-3,1.6-6,2.89-7.44,6.26a6.53,6.53,0,0,1-2-2.76l.36-.42c1.46.55,2.3-.53,2.69-1.48.56-1.35-1.36-.86-1.78-1.69a3.57,3.57,0,0,1,2.26-1.62c0,1-.46,2.5,1,2.26,1-.16,2.79-.7,2.29-2.65l.45-.46"/><path class="cls-1" d="M420.47,374.59c-.76-.63-1.67-1.2-1.08-2.43l-.13.09c2.05-.57.85,1.54,1.65,2l-.44.34"/><path class="cls-1" d="M421,375.23c-.19-.21-.37-.42-.55-.64l.44-.34c.15.18.31.38.47.56l-.36.42"/><path class="cls-1" d="M552.42,320.23c-.24,6.08-.24,6.08-2.59,5.81,1.16-.88,2.23-1.91,1.2-3.13a2.34,2.34,0,0,0-2.77-.3c-1.25.8.13,1.65.35,2.52-1,.39-1.88,0-2.86-.21.36-.88,1.93-1.61.66-2.57a3,3,0,0,0-3.09-.25c-1,.63-.67,1.93-.07,2.66,1.33,1.59,1.43,2.57-.79,3.34a1.37,1.37,0,0,0-.56,2.23,1.53,1.53,0,0,0,2.53.14c.69-.71,1.27-1.53,2-2.16a2.9,2.9,0,0,1,3.8,0,2.27,2.27,0,0,1,.74,3.12c-.63,1.39-1.34,2.35-3,1.4.09-.81.85-.67,1.32-.94.72-.41,1.29-1,1.06-1.9a1.48,1.48,0,0,0-.74-.85c-.92-.41-1.42.24-2,.87-.68.83-1.24,1.85-2.35,2.19-2,.61-3.7,0-4.38-1.89s.24-3.42,2.5-3.81c-2.95-2-.82-4.7-1.22-7-.73-4.19,4.08-2.46,5.19-5.14-1.65-.16-3.07-1-4.59.37-.48-1-.15-2,0-3.06,3.47.68,6.85,1.91,10.4.44-.12,1.13-.21,2.3-.37,3.47-.46,3.26-2,4-4.84,2.24-1.91-1.15-3.2.42-4.67,1.08a.74.74,0,0,0,.43,1.3c2.85.4,5.71,1.22,8.71.1M550,314.4c-1.09-.26-2-.16-2,1.08a1.51,1.51,0,0,0,1.78,1.52c1-.06,2.1-.38,2.1-1.57,0-1.35-1.33-.72-1.92-1"/><path class="cls-1" d="M545.58,285.16c1.35,3.06.47,4.83-2.49,4.52-2.34-.25-2.45,1.8-3.57,2.78-.36.32-.19,1.34-1.09.87a1.17,1.17,0,0,1-.42-1.78c.66-1,1.47-1.83,2.2-2.76.36-.46.81-1,.25-1.54s-.88.1-1.3.25c-1.06.38-2.09.83-2.32,2.26a5.62,5.62,0,0,1-1.47-3,18.73,18.73,0,0,0,9-4.29c.73.47.92,1.65,1.28,2.72-1,.26-2-.19-2.9.6-.47.44-1.76.29-1.1,1.55s1.44,1.09,2.47.61c1.22-.58.82-1.95,1.46-2.8"/><path class="cls-1" d="M545.69,300.72c-2.24.31-4.32.17-5.52-2.16a3.92,3.92,0,0,1,1-5.24,6,6,0,0,1,7.89.08c-2.82-.37-5.46-.15-7.62,2a2.28,2.28,0,0,0,1.5,4c3.81.4,6.35-2.13,6.06-6.12,2.3,3.82,1.31,6-3.29,7.4Z"/><path class="cls-1" d="M545.48,347.75a4.2,4.2,0,0,1-4.24,4.32c-3.2.07-6.13-2.36-6.13-5.06a4,4,0,0,1,4.16-4.32c3.17-.06,6.18,2.4,6.21,5.06m-7-3.37a2.27,2.27,0,0,0-2.51,2.4c0,1.76,2.67,3.52,5.39,3.59,1.74.05,3.19-.45,3.38-2.42.16-1.67-3-3.57-6.26-3.57"/><path class="cls-1" d="M537.32,281.14c-2.21-.47-3.22.9-4,2.66a6.76,6.76,0,0,1-1.5-2.73c3.07-1.36,6.14-2.63,8.42-5.45,1,.61,1.38,2.22,2.1,3.47a2.51,2.51,0,0,1-1.47,3.83c-1.8.68-3.3.46-3.6-1.88.31.16.62.33,1,.47,1.35.59,2.28-.1,3-1.11.33-.47.48-1.28,0-1.64-1.17-.86-1.9.44-2.81.81a1.43,1.43,0,0,0-1,1.57"/><path class="cls-1" d="M537.23,340.72c.18-.5.47-1.31.78-2.2,3.13,1.37,6.08,3.28,9.84,3-.31.83-.66,1.77-1,2.73a31.43,31.43,0,0,0-9.61-3.57"/><path class="cls-1" d="M542.76,308.56c-1.75-3.42-1.26-5,2.08-6.75.46-.24,1.25-.19.85-1.09h0c-.17,1.37.85.64,1.32.68,2.78.26,2.84.27,4.88,2.54-3.36-1.27-6.24-1.42-8.66.88-1,1-.37,2.17,0,3.27l-.48.46"/><path class="cls-1" d="M548.38,338.38c.09-.82.68-1.8-.52-2.29a1.75,1.75,0,0,0-2.06.76c-1.8,2.13-3.78,2.52-6.55.4a4.89,4.89,0,0,0,5-1.79,2.7,2.7,0,0,1,4-.43,2.33,2.33,0,0,1,.6,3.77l-.43-.42"/><path class="cls-1" d="M543.24,308.1c2,.18,2,.18,3.82-.88.08,1,.15,2,.24,3.26-1.53-1.12-3.78.55-4.54-1.92l.48-.46"/><path class="cls-1" d="M549.23,309.07c2.11-1.09,2.58-2.86,2.14-5.38,1.8,3.34,1,5.18-2.14,5.38"/><path class="cls-1" d="M548.8,338.8c-.72,2.22-2,1.18-3.58.62l3.16-1,.42.42"/></svg>