<svg id="Logos_Patrocinadores" data-name="Logos Patrocinadores" xmlns="http://www.w3.org/2000/svg" viewBox="0 0 1500 600"><defs><style>.cls-1{fill:#7a97ab;}</style></defs><path class="cls-1" d="M899,263.77H868.33V384.62c18.61-35.41,31.52-74.57,31.52-110.77a78.81,78.81,0,0,0-5-26.29,99.76,99.76,0,0,1,4.24,16.15"/><path class="cls-1" d="M607.33,284.3c2.25,34,15,70.08,32.49,102.87V263.77H607.7a89.83,89.83,0,0,1,4.24-16.15,83.93,83.93,0,0,0-4.73,19.86v16.76Zm146.08,8.14A45.81,45.81,0,0,1,771,295.9V263.83H738.62v31a47,47,0,0,1,14.79-2.3m0,94.73a47.35,47.35,0,0,1-14.79-2.43V498a37,37,0,0,0,14.79,3.64c5.15,0,11.15-1.82,17.58-5V383.71a46,46,0,0,1-17.58,3.46"/><path class="cls-1" d="M725.62,490.64l1,.65Z"/><path class="cls-1" d="M639.84,387.19c3.51,6.58,7.22,13,11.07,19.3Q645.09,397,639.84,387.19Z"/><path class="cls-1" d="M722.76,488.68c.55.39,1.1.76,1.64,1.13C723.86,489.44,723.31,489.07,722.76,488.68Z"/><path class="cls-1" d="M840,186a26.27,26.27,0,0,0-4.73.6,35.26,35.26,0,0,0-20.72-7.16c-22.67,0-34.55,21.86-34.55,29.75,0,4.07,1.39,3.28,1.39,5.71a3.91,3.91,0,0,1-3,3c-1.7,0-7-5.1-8.18-7.53-7.58,0-14.67,8.38-16.79,15.06-2.06-6.56-9.15-15.06-16.73-15.06-1.15,2.36-6.36,7.47-8.18,7.47a3.9,3.9,0,0,1-3-3c0-2.37,1.45-1.58,1.45-5.65,0-7.89-11.94-29.75-34.67-29.75a35.17,35.17,0,0,0-20.61,7.16,27.05,27.05,0,0,0-4.72-.6c-16.39,0-42.25,28.57-53.85,58.93a115.79,115.79,0,0,1,6.2-13.45H887.7C874.63,206.63,853.84,186,840,186Z"/><path class="cls-1" d="M651.14,406.86q3.89,6.28,7.93,12.31Q655,413.1,651.14,406.86Z"/><path class="cls-1" d="M868.39,263.83V384.68c18.58-35.47,31.46-74.6,31.46-110.77a76.13,76.13,0,0,0-3.69-22.25A88.64,88.64,0,0,1,899,263.77H803.54V472.55c-11.52,10.87-22.61,19.18-32.49,24V383.64a47.39,47.39,0,0,0,0-87.68V263.77H738.62v31a47.37,47.37,0,0,0-32.43,44.94v.12a47.36,47.36,0,0,0,32.43,44.94V497.88c5.4,2.36,10.39,3.63,14.79,3.63v.12c20.34,0,53.16-26.86,82.58-65.82h0l.06-.09V263.83ZM718.13,313.26v0a44,44,0,0,1,34.67-17.67c-8.54,5.06-14.19,15.37-14.19,20.45a4.78,4.78,0,0,0,.12,1.33c-1.64.91-5.15,2.68-7.88,2.68-6.41,0-11.31-4.84-12.72-6.79-.18.24-.37.47-.54.71C717.77,313.75,717.94,313.51,718.13,313.26Zm-8.85,26.6a44,44,0,0,1,8.15-25.63,6.93,6.93,0,0,0-.51.86c2.24,2.79,7.58,7,13.94,7,3,0,6.55-1.64,8.61-2.73,1.82,2.79,5.82,2.85,8.06,2.85,4.85,0,7.88-.73,9.7-2.31a18.77,18.77,0,0,1,7.39,14.58c0,5-.18,8.62-1.51,9.41-1.58.85-12.37,2.25-19.4,2.25-18.61,0-32.73-6.93-34.37-8v2.37c4.49,2.43,18,7.65,34.43,7.65,6.24,0,17.22-1.21,20-2.43a27.74,27.74,0,0,1,2.25,9.9c0,5.1-2,11.9-11.52,14.88-2.24-1.22-7.88-3.65-12.12-3.65a14.67,14.67,0,0,0-8.25,2.68c-2.06-1.83-8.06-6.56-12.48-6.56a22.59,22.59,0,0,0-5,.79c.42.6.85,1.21,1.21,1.82a22,22,0,0,1,3.82-.61c3.64,0,9.09,4.25,11.21,6.07a1.62,1.62,0,0,0-.12.61c0,1.52,1.7,5.47,4.12,8.69,1.22.48,2.55.91,3.82,1.33l.18-.24c-3.21-2.43-5.88-8.14-6.06-9.72.61-.79,4-2.85,7.64-2.85s9,2.06,11,3.28c.18,2.43,4.55,7.53,9.09,10.32a24.13,24.13,0,0,0,3-.6c21-10.61,20.88-30.71,20.88-38.51l-.06.13v-.92c0-18.21-6.18-29.57-13.33-33.21a4.68,4.68,0,0,1,1.21-1.34,12.66,12.66,0,0,1,7-2.43c-.79-.63-1.6-1.24-2.42-1.82a13.6,13.6,0,0,0-5.88,2.67,7,7,0,0,0-1.82,2.19,11.27,11.27,0,0,0-3.46-.49c-5.75,0-9.21,6.08-10.91,8.93-.24.43-.48.79-.6,1-1,1.46-3.94,2.19-8.67,2.19-5.09,0-6.79-1-6.79-4.13,0-5.16,6.9-16.81,16.66-20.34a44.2,44.2,0,1,1-48.12,44.08Zm49.1-21.49.18-.37c1.46-2.55,4.55-7.89,9.09-7.89,8.12,0,16.73,11.35,16.73,32.42v.91c0,7.59.12,27.61-21.3,37.39-4-2.55-7.25-6.66-7.55-8.06,10.3-3.46,12.55-11,12.55-16.88a27.88,27.88,0,0,0-2.73-11.29c1.21-1.82,1.21-5.22,1.21-10A20.79,20.79,0,0,0,758.38,318.37Z"/><path class="cls-1" d="M868.38,384.7a372.32,372.32,0,0,1-32.36,51v0A372.65,372.65,0,0,0,868.38,384.7Z"/><path class="cls-1" d="M888.52,233l0,0Z"/><path class="cls-1" d="M765.65,381.88h0l-.33.18Z"/><path class="cls-1" d="M639.82,387.17V263.77h-32a65.27,65.27,0,0,0-.82,10C607,310.87,620.53,351,639.82,387.17Z"/><path class="cls-1" d="M722.71,488.64a173,173,0,0,1-17.24-14.15V263.77H672.25v173.8q-6.78-8.88-13-18.15C679.5,449.55,702.61,474.44,722.71,488.64Z"/><path class="cls-1" d="M861.39,150c24.37,27.86,46.88,68,46.88,117.19,0,119.33-110.86,241.69-154.86,241.69s-154.8-122.36-154.8-241.69a163.05,163.05,0,0,1,11.18-59.1,163.06,163.06,0,0,0-11.24,59.23C598.55,386.68,709.41,509,753.41,509S908.33,386.68,908.33,267.36C908.33,218.1,885.78,177.91,861.39,150Z"/><path class="cls-1" d="M770.93,100.67c0,5.16-3.64,10.68-3.64,13.36l.12.11c0-2.67,3.64-8.19,3.64-13.35a3.27,3.27,0,0,0-.55-1.87A3.51,3.51,0,0,1,770.93,100.67Z"/><path class="cls-1" d="M860.93,149.52c-.6-.68-1.19-1.35-1.79-2C859.74,148.17,860.33,148.84,860.93,149.52Z"/><path class="cls-1" d="M894.43,246.54c-.21-.58-.43-1.16-.66-1.75C894,245.38,894.22,246,894.43,246.54Z"/><path class="cls-1" d="M806.44,114.27c0,1.52,27.76,26.05,31.64,61,2.06-27.23-28.2-61.39-31.11-61.63A.55.55,0,0,0,806.44,114.27Z"/><path class="cls-1" d="M612.68,245.79c-.06.14-.11.29-.16.43C612.57,246.08,612.62,245.93,612.68,245.79Z"/><path class="cls-1" d="M866.39,145.72c-23.88-27.32-51.88-45.66-63-45.66-4.54,0-7.69,3.22-10.73,6.32-3.39,3.64-7,7.28-12.6,7.28a9,9,0,0,1-5.15-1.58c1.21-3,2.72-7,2.72-11.29,0-5-3.51-10.2-11.39-10.2h-.06a14.41,14.41,0,0,0-9.52,3.64,21.59,21.59,0,0,0-6.42,0,14.13,14.13,0,0,0-9.46-3.64c-7.88,0-11.39,5.16-11.39,10.2,0,4.25,1.57,8.32,2.78,11.23a8.72,8.72,0,0,1-5.15,1.7c-5.57,0-9.21-3.64-12.73-7.28-3-3-6.06-6.32-10.72-6.32-11.16,0-39.1,18.34-63,45.67-22.12,25.32-48.49,67-48.49,121.63-.06,121,112.07,248.24,161.41,248.24S915,388.38,915,267.3C915,212.64,888.51,171.05,866.39,145.72Zm-113,366.78.06-.18c-23.64,0-63.28-31.82-96.62-77.42-39.09-53.62-61.52-114.77-61.52-167.6,0-98.07,89.59-164,108.2-164,3.21,0,5.57,2.43,8.36,5.34,3.82,3.95,8.12,8.38,15.15,8.38a13.25,13.25,0,0,0,9.09-3.94c-.3-.76-.63-1.51-1-2.25-1.09-2.86-2.42-6.38-2.42-10,0-3.34,2.06-6.86,8.06-6.86a11.68,11.68,0,0,1,8.49,3.82,17.86,17.86,0,0,1,4.24-.48,18.28,18.28,0,0,1,4.24.48A11.46,11.46,0,0,1,766.2,94c5.94,0,8.06,3.64,8.06,6.86,0,3.64-1.39,7.16-2.55,10-.24.73-.6,1.58-.84,2.31a12.74,12.74,0,0,0,9.09,3.94c7,0,11.27-4.37,15.15-8.32,2.67-2.85,5.09-5.28,8.3-5.28,18.55,0,108.14,66,108.14,164,0,52.83-22.43,114-61.59,167.6C816.63,480.62,777,512.5,753.35,512.5Z"/><path class="cls-1" d="M759.2,101.17l0,0a3.31,3.31,0,0,1,.18-.3C759.33,101,759.25,101.08,759.2,101.17Z"/><path class="cls-1" d="M896.06,251.35c-.34-1.1-.7-2.19-1.08-3.29C895.36,249.16,895.72,250.25,896.06,251.35Z"/><path class="cls-1" d="M737.43,107.55c.55,1.51,1.15,2.92,1.58,4.14C738.59,110.48,738,109.06,737.43,107.55Z"/><path class="cls-1" d="M670.13,175.3c3.88-34.92,31.76-59.45,31.76-61a.6.6,0,0,0-.61-.61C698.62,113.66,668.07,148,670.13,175.3Z"/><path class="cls-1" d="M624.18,236.81l8.49,23.08h5.46l8.66-23.08H641s-5.09,16.82-5.45,16.82c-.18,0-5.09-16.82-5.09-16.82Zm30.19,14,2.91-7.71,2.79,7.77h-5.7Zm9,9.23h5.88l-9.09-23.2h-5.76l-9.09,23.08h5.63l1.94-5h8.61l1.82,5.1ZM792,250.9l3-7.89,2.73,7.77H792Zm9.09,9.11h5.88l-9.21-23.2h-5.64l-9.21,23.08h5.69l1.94-5h8.67L801,260Zm-128.8-23.2v23.08h18.18V255H677.89V236.81Zm22.91,0v23.08h18.18v-4.68H700.43v-5.28h11.16v-4H700.43v-4.43h12.85v-4.68Zm164.14,0v23.08h5.45v-10h11v-4H864.69v-4.43h12.73v-4.68Zm-139.65,0v23.08h4.85v-15l9.94,15.18h5.7v-23.2h-5.46v15.79l-9.39-15.91ZM762,245.13H768c0-4.86-5.64-8.32-11-8.32-7.64,0-11.52,6.8-11.52,12.27,0,6.68,4.24,10.93,11.09,10.93,8.12,0,11.4-4.56,11.4-8.5h-6.07a4.63,4.63,0,0,1-4.84,4.86c-4,0-6.19-3.65-6.19-7.29s2.19-8,6.37-8c3.51,0,4.85,1.82,4.85,4.07m74.19,0h6.06c0-4.86-5.64-8.32-11-8.32-7.64,0-11.52,6.8-11.52,12.27,0,6.68,4.24,10.93,11.09,10.93,8.18,0,11.52-4.56,11.52-8.5H836.2c0,1.39-.72,4.86-4.72,4.86s-6.25-3.65-6.25-7.29,2.13-8,6.31-8c3.63,0,4.85,1.82,4.85,4.07M773.47,260h5.58v-23.2h-5.58Zm73.95,0h5.94v-5.47h-5.94Zm29.7,0h5.76v-5.47H877Z"/></svg>