<svg id="Logos_Patrocinadores" data-name="Logos Patrocinadores" xmlns="http://www.w3.org/2000/svg" viewBox="0 0 1500 600"><defs><style>.cls-1{fill:#7a97ab;}</style></defs><path class="cls-1" d="M726.81,445.18a4,4,0,0,1-.68-2.48q0-20.42,0-40.83a8.85,8.85,0,0,1,.05-1.15,1.28,1.28,0,0,1,1.28-1.26c1.7,0,3.41-.07,5.11,0,.95,0,1.3.49,1.42,1.48,0,.49,0,1,.08,1.54.22-.05.41,0,.49-.11a8.34,8.34,0,0,1,6.13-2.82,80,80,0,0,1,10.84.13c5.87.55,8.61,3.62,9.14,9.78.38,4.47.09,9,.06,13.49a10.09,10.09,0,0,1-.34,2.11c-1,4.83-4.1,7.61-9,7.88-3.61.19-7.25.11-10.87,0-2.25-.06-3.65-.81-6.34-3,0,.64-.12,1.15-.12,1.66,0,3.62,0,7.24,0,10.86a3.43,3.43,0,0,1-1,2.69Zm26.11-29h0V411c0-.16,0-.33,0-.49-.15-2.32-1-3.34-3.28-3.54s-4.27-.2-6.41-.21a49.46,49.46,0,0,0-5.58.18c-2.54.27-3.5,1.29-3.56,3.87-.09,3.72-.09,7.46,0,11.18.07,2.52,1.32,3.73,3.83,3.79,3.73.08,7.47.08,11.2,0,2.71-.06,3.7-1.15,3.79-3.91C753,419.94,752.92,418.08,752.92,416.21Z"/><path class="cls-1" d="M1255.78,425.08a11.7,11.7,0,0,0-.33,1.26,6.39,6.39,0,0,1-4.46,5.6,16.41,16.41,0,0,1-5,1c-6.26.14-12.53.1-18.79.09-1.66,0-2-.39-2-2.06,0-1.05,0-2.09,0-3.13.06-1.64.46-2.05,2.08-2.07,2,0,4.07,0,6.1,0,3.35,0,6.7,0,10.05,0a10.59,10.59,0,0,0,2.45-.29,2.43,2.43,0,0,0,2-2.5,2.26,2.26,0,0,0-1.89-2.53c-2.1-.43-4.23-.67-6.35-.95-2.5-.34-5-.63-7.51-1a12.86,12.86,0,0,1-1.6-.39,7.5,7.5,0,0,1-5.76-6.47,14.63,14.63,0,0,1,0-5.4,7.15,7.15,0,0,1,5-5.79,22.13,22.13,0,0,1,5.8-1c5.38-.14,10.77-.06,16.16,0,2.07,0,2.35.3,2.37,2.41,0,1,0,2,0,3,0,1.55-.31,1.82-1.82,1.89-.5,0-1,0-1.49,0-4.23,0-8.46,0-12.69,0a25.06,25.06,0,0,0-3.12.24c-1.81.25-2.62,1.14-2.64,2.78s.66,2.41,2.5,2.71c2.17.35,4.36.52,6.54.81,2.34.31,4.68.61,7,1a13.19,13.19,0,0,1,3.09,1.08,6.68,6.68,0,0,1,4,5.66c.06.48.22,1,.33,1.43Z"/><path class="cls-1" d="M331.4,445.18c-.38-.31-.77-.6-1.13-.93a2.89,2.89,0,1,1,4.05-4.1,2.87,2.87,0,0,1-.37,4.22c-.39.3-.82.54-1.23.81Z"/><path class="cls-1" d="M322.87,444.85a11,11,0,0,1-1.19-.64,164.54,164.54,0,0,1-25.58-23.69c-9.45-11-14.89-23.85-17.84-37.89a72.78,72.78,0,0,1-1.58-15.37,67,67,0,0,1,12.24-38.64A89.34,89.34,0,0,1,305.65,311Q360.37,265.45,415,219.82a152.21,152.21,0,0,0,12.65-12.5A107.94,107.94,0,0,0,443,187a61.89,61.89,0,0,0,7.85-21c.44-2.75.57-5.56.82-8.34.05-.59,0-1.19,0-2a4.51,4.51,0,0,1,1.05.39c11.08,8.47,21.43,17.69,29.76,29,6.09,8.27,9.85,17.59,12.54,27.4a76.06,76.06,0,0,1,2.55,26.42,66,66,0,0,1-10.8,31.11,82.75,82.75,0,0,1-16.93,18.55q-31.82,26.29-63.6,52.64-24,19.94-47.69,40.09a127,127,0,0,0-24,26.57,69.38,69.38,0,0,0-10.48,24,53,53,0,0,0-1.2,10.94Z"/><path class="cls-1" d="M1076.66,314.34c.44.68.77,1.23,1.14,1.75q10.77,15.3,21.53,30.58a13.35,13.35,0,0,1,1.5,2.54,3,3,0,0,1-2.34,4.36,10.09,10.09,0,0,1-2.13.14c-6.65,0-13.3-.06-19.95,0a7.36,7.36,0,0,1-6.82-3.75c-6.66-10.41-13.41-20.76-20-31.18a3.42,3.42,0,0,0-3.32-1.76c-14.67.06-29.35,0-44,0h-2.14c-.07.81-.17,1.49-.17,2.18,0,9.5,0,19,0,28.49a12.91,12.91,0,0,1-.27,2.78,3.83,3.83,0,0,1-3.43,3.09,9.12,9.12,0,0,1-1.48.08c-5.82,0-11.65,0-17.47,0-.33,0-.66,0-1,0a4.07,4.07,0,0,1-4.15-3.88,23.6,23.6,0,0,1-.16-2.79q0-63.34,0-126.68a22.36,22.36,0,0,1,.18-3,3.92,3.92,0,0,1,3.3-3.62,11.85,11.85,0,0,1,2.45-.26c24.62,0,49.24-.06,73.86.06a80.08,80.08,0,0,1,26.56,4.22c10.36,3.68,18,10.34,22.43,20.49a51.06,51.06,0,0,1,3.77,13.43,101.58,101.58,0,0,1,0,28.56,55.06,55.06,0,0,1-3.35,12.54c-3.81,9.65-10.68,16.19-20.28,20C1079.51,313.29,1078.18,313.77,1076.66,314.34Zm-76.46-23.73h2.18q22.17,0,44.34,0a83,83,0,0,0,12-.71A32.81,32.81,0,0,0,1068.8,287a11.83,11.83,0,0,0,5.8-5.85,33.39,33.39,0,0,0,2-6.24c1-4.6.79-9.29.58-13.95a30.57,30.57,0,0,0-1.88-9.66,13.56,13.56,0,0,0-7.91-8.12c-.92-.36-1.85-.7-2.8-1a45.92,45.92,0,0,0-13.16-1.89c-16.59-.1-33.18-.07-49.78-.08-.52,0-1,.08-1.53.12C999.77,242.15,999.81,289,1000.2,290.61Z"/><path class="cls-1" d="M666.6,240.36H584.37c-.77,0-1.55,0-2.31-.06a3.94,3.94,0,0,1-3.81-3.28,9.42,9.42,0,0,1-.22-2.12c0-5.27,0-10.55,0-15.82a10.49,10.49,0,0,1,.08-1.48,4.16,4.16,0,0,1,3.8-3.93,11.62,11.62,0,0,1,2.13-.16q58.13,0,116.25,0a12.9,12.9,0,0,1,2.77.29,3.77,3.77,0,0,1,3,3.12,12.69,12.69,0,0,1,.25,2.61c0,5.28,0,10.55,0,15.82a10.17,10.17,0,0,1-3.25,7.79q-22,21.45-43.94,43l-31.45,30.78-9.07,8.87c-.34.34-.65.7-1.26,1.36h2.25q40.56,0,81.13,0a12.87,12.87,0,0,1,2.77.25,3.67,3.67,0,0,1,2.92,3,10.37,10.37,0,0,1,.27,2.28c0,5.16,0,10.33,0,15.49a11.38,11.38,0,0,1-.06,1.31c-.35,2.75-1.82,4.1-4.58,4.2-.61,0-1.21,0-1.82,0q-58,0-115.91,0a22.5,22.5,0,0,1-2.47-.07,3.84,3.84,0,0,1-3.59-3.12,10.78,10.78,0,0,1-.27-2.6c0-5.22,0-10.44,0-15.65a10,10,0,0,1,3.19-7.65q11.7-11.37,23.32-22.82,16.25-15.93,32.46-31.87,14.24-14,28.49-27.91a11.9,11.9,0,0,1,1.46-1.07Z"/><path class="cls-1" d="M797.79,265.1q0-22.4,0-44.8a19.09,19.09,0,0,1,.19-3.12,3.84,3.84,0,0,1,3.3-3.42,13.49,13.49,0,0,1,2.29-.25c5.44,0,10.88,0,16.32,0h.66c3.43.14,5,1.68,5.18,5.09,0,.65,0,1.32,0,2q0,43,0,86a45.08,45.08,0,0,0,.72,8.68c1.27,6.49,4.61,9.95,11.11,11.18a36.89,36.89,0,0,0,6.71.69q23.07.08,46.16,0a30,30,0,0,0,8.61-1.22,11.65,11.65,0,0,0,8.32-8.35,42.5,42.5,0,0,0,1.33-9.77c0-.93,0-1.86,0-2.8V219.82a22,22,0,0,1,.06-2.3,4,4,0,0,1,3.36-3.75,12.48,12.48,0,0,1,2.44-.26q8.08,0,16.16,0c4.54,0,6,1.48,6,6q0,31,0,61.94c0,8,0,16,0,24A70.41,70.41,0,0,1,935,322a43.63,43.63,0,0,1-8.11,17.13c-5.43,6.82-12.62,10.77-21,12.83a61.4,61.4,0,0,1-14.85,1.74q-23.74,0-47.48,0a60.71,60.71,0,0,1-17.87-2.54c-11-3.38-18.76-10.44-23.38-20.95a49.81,49.81,0,0,1-4-15.9c-.32-3.77-.49-7.56-.51-11.34C797.75,290.36,797.79,277.73,797.79,265.1Z"/><path class="cls-1" d="M734.71,283.55q0-32,0-63.91a13.48,13.48,0,0,1,.26-2.77,3.76,3.76,0,0,1,3.07-3.08,11.84,11.84,0,0,1,2.44-.27c5.39,0,10.77,0,16.16,0l.82,0c3.3.19,4.86,1.79,5,5.12,0,.49,0,1,0,1.48q0,63.58,0,127.17a15.29,15.29,0,0,1-.14,2.62,4.1,4.1,0,0,1-4.25,3.78c-.39,0-.77,0-1.16,0q-8.32,0-16.65,0a12.85,12.85,0,0,1-1.64-.06,3.86,3.86,0,0,1-3.65-3.24,14.48,14.48,0,0,1-.25-2.94Q734.71,315.51,734.71,283.55Z"/><path class="cls-1" d="M968.51,433c-2.64,0-5.28,0-7.91,0a18.86,18.86,0,0,1-3.59-.45,10.25,10.25,0,0,1-8.21-8.06,24.68,24.68,0,0,1-.59-3.74c-.11-1.29.41-1.84,1.69-1.89,1.54-.05,3.08,0,4.61,0,1.29,0,1.63.33,2,1.56.06.21.09.43.13.65.58,2.71,1.89,3.95,4.64,4,4.83.08,9.66,0,14.5,0a4.71,4.71,0,0,0,4-7.11,3.68,3.68,0,0,0-1.78-1.34,13.84,13.84,0,0,0-3.37-.7c-3.34-.3-6.68-.5-10-.77-2.18-.18-4.37-.41-6.55-.66a12.72,12.72,0,0,1-1.93-.4c-4.77-1.27-7.1-3.89-7.56-8.78a20.5,20.5,0,0,1,.17-5.07c.83-5.2,3.58-8,8.7-9a23.35,23.35,0,0,1,4.08-.43c4.51-.05,9-.1,13.51,0a21.47,21.47,0,0,1,5.33.9,9.37,9.37,0,0,1,6.65,6.52,24.61,24.61,0,0,1,.94,4.82c.14,1.39-.32,1.84-1.66,1.89-1.65,0-3.3,0-4.94,0a1.45,1.45,0,0,1-1.63-1.29c-.05-.27-.12-.53-.18-.8-.58-2.77-1.89-4-4.73-4.12-4.45-.11-8.9,0-13.35,0a5.66,5.66,0,0,0-.81.12c-3.2.55-4.51,2.44-3.88,5.64a3.21,3.21,0,0,0,2.48,2.77,23.62,23.62,0,0,0,3.24.57c3.39.29,6.79.46,10.18.77,2.56.24,5.12.57,7.66,1a11.71,11.71,0,0,1,2.81.92A8.06,8.06,0,0,1,988,416a16.5,16.5,0,0,1-.42,10.66,8.88,8.88,0,0,1-5.06,5.13,14.84,14.84,0,0,1-5.6,1.23c-2.8,0-5.6,0-8.4,0Z"/><path class="cls-1" d="M674.25,402.93c3.71-4.08,8.22-3.67,12.68-3.36a10.35,10.35,0,0,1,5.68,2c.64.5,1.21,1.09,1.88,1.69a3.91,3.91,0,0,0,.67-.45,11,11,0,0,1,7.86-3.32,36.08,36.08,0,0,1,6.73.28,8.45,8.45,0,0,1,7.56,6.61,23.22,23.22,0,0,1,.85,5.35c.1,6.36.06,12.73,0,19.1,0,1.92-.31,2.2-2.2,2.23-1.15,0-2.31,0-3.46,0-2,0-2.21-.26-2.22-2.17,0-2.86,0-5.72,0-8.57,0-3.4,0-6.81,0-10.21a19.21,19.21,0,0,0-.26-2.62A2.83,2.83,0,0,0,707.4,407a27,27,0,0,0-8.37,0,3,3,0,0,0-2.64,2.57,18.15,18.15,0,0,0-.26,2.94c0,5.77,0,11.53,0,17.3,0,.49,0,1,0,1.48-.08,1.34-.38,1.7-1.66,1.74-1.49.05-3,.05-4.45,0-1.31,0-1.62-.39-1.71-1.7,0-.49,0-1,0-1.48,0-5.93,0-11.86,0-17.79a14.69,14.69,0,0,0-.39-3.09,2.49,2.49,0,0,0-2.2-2,26.46,26.46,0,0,0-8.7,0,2.91,2.91,0,0,0-2.55,2.65,29.92,29.92,0,0,0-.3,3.77c0,5.55,0,11.1,0,16.64,0,.5,0,1,0,1.48-.09,1.13-.38,1.45-1.54,1.49-1.54.05-3.08.05-4.62,0-1.17,0-1.52-.42-1.66-1.61a14.63,14.63,0,0,1,0-1.48V402.42c0-2.78.23-3,3-3,1,0,2,0,3,0,1.52.05,1.81.34,1.91,1.84C674.12,401.68,674.17,402.1,674.25,402.93Z"/><path class="cls-1" d="M596.22,433c-3,0-6.05.1-9.07,0a11.62,11.62,0,0,1-8.72-4,12.93,12.93,0,0,1-2.92-7.05,42.61,42.61,0,0,1-.3-5.42q0-6.84.24-13.66a13.37,13.37,0,0,1,1.86-6.26,10.09,10.09,0,0,1,6.32-4.95,21.92,21.92,0,0,1,5-.75c5.06-.1,10.12-.05,15.17,0a21.62,21.62,0,0,1,2.78.27c6.8,1,9.66,5.82,10.34,11.29a18.17,18.17,0,0,1,.07,3.13c0,1.07-.35,1.42-1.39,1.45-1.81.06-3.63.06-5.44,0-1,0-1.28-.34-1.38-1.44s-.08-2.09-.24-3.11A3.82,3.82,0,0,0,605.1,399a16,16,0,0,0-2.29-.23c-4.39,0-8.79,0-13.19,0a11.68,11.68,0,0,0-2,.15c-2.58.47-3.83,1.55-3.89,4.15q-.24,8.89,0,17.79c.08,2.87,1.7,4.22,4.64,4.26q7.83.12,15.66,0c2.87-.05,4.3-1.48,4.63-4.35.11-.92,0-1.86.11-2.79.08-1.25.47-1.67,1.74-1.7,1.65-.05,3.3-.06,4.94,0,1.15,0,1.49.39,1.53,1.51a20.72,20.72,0,0,1-.56,6.37A11.56,11.56,0,0,1,605.28,433C602.27,433.11,599.24,433,596.22,433Z"/><path class="cls-1" d="M912.43,419.47c-3.57,0-7.14,0-10.71,0-1.6,0-1.81.25-1.72,1.83l0,.32c.34,3.21,1.3,4.12,4.53,4.14,5,0,10,0,15,0,.49,0,1,0,1.48,0,1.17.09,1.59.46,1.64,1.61.06,1.37.06,2.75,0,4.12,0,1.12-.37,1.41-1.51,1.51a7.48,7.48,0,0,1-.82,0c-5.5,0-11,0-16.48,0a16.25,16.25,0,0,1-5.66-.9,7.86,7.86,0,0,1-4.37-3.78,15,15,0,0,1-1.68-7c-.07-4.05.09-8.11.2-12.16a11.66,11.66,0,0,1,.41-2.26,8.76,8.76,0,0,1,8.13-7.23,71.07,71.07,0,0,1,7.72-.31,67.47,67.47,0,0,1,8,.31c4.66.57,7.3,3.1,8.24,7.7a32.84,32.84,0,0,1,.46,5.07c.08,1.58,0,3.18,0,4.77,0,1.88-.32,2.17-2.25,2.18-3.57,0-7.14,0-10.71,0Zm5-6.19c0-1.16.08-2.19,0-3.21-.2-2-1.06-3-3.13-3.13-3.39-.17-6.79-.14-10.19-.14a4.42,4.42,0,0,0-1.91.39c-.6.3-1.37.77-1.54,1.33a20.58,20.58,0,0,0-.62,3.86c-.07.64.35,1,1,1.06.32,0,.65,0,1,0h13.5C916.08,413.48,916.67,413.36,917.42,413.28Z"/><path class="cls-1" d="M785.33,433c-2.42,0-4.84.07-7.25,0a15.21,15.21,0,0,1-3.7-.7A8.2,8.2,0,0,1,769,427a23.8,23.8,0,0,1-1.13-8.11c-.06-3.06,0-6.14.26-9.2a16.47,16.47,0,0,1,1-4.3,7.94,7.94,0,0,1,6-5.3,22.63,22.63,0,0,1,4.56-.61c3.78-.09,7.57-.12,11.36,0a23,23,0,0,1,5.32.89,7.26,7.26,0,0,1,5,4.66,18.42,18.42,0,0,1,1.24,5.41c.18,3.88.1,7.78,0,11.68a15,15,0,0,1-.58,3.56c-1.24,4.66-4.13,7.05-9,7.31-2.57.13-5.15,0-7.73,0Zm-9.43-16.89h0c0,2-.07,4.06,0,6.09.1,2.35,1.15,3.45,3.49,3.5,3.9.09,7.8.1,11.69,0,2.37-.06,3.5-1.1,3.58-3.44.12-4,.12-8,0-12-.07-2.29-1-3.26-3.26-3.34q-6.07-.23-12.16,0c-2.41.1-3.27,1.19-3.35,3.61C775.85,412.39,775.9,414.26,775.9,416.12Z"/><path class="cls-1" d="M1158.81,433.05h-5c-.71,0-1.42,0-2.14,0-5.89-.26-9.23-3.28-10-9.12a36,36,0,0,1-.31-4.75c0-3.45.08-6.91.32-10.35a12.24,12.24,0,0,1,1.08-3.94,7.74,7.74,0,0,1,5.56-4.72,23.63,23.63,0,0,1,4.88-.69c3.73-.1,7.46-.09,11.2,0a23.37,23.37,0,0,1,4.55.61,8,8,0,0,1,6.22,5.75,25.62,25.62,0,0,1,1,6c.16,3,.09,5.93,0,8.89a23.37,23.37,0,0,1-.5,4.24c-1.12,5.24-4.17,7.84-9.52,8.08-2.47.11-4.94,0-7.41,0Zm0-7.3v0c2,0,4,.07,5.92,0,2.17-.1,3.07-.94,3.47-3a10.88,10.88,0,0,0,.21-2c0-3,0-5.93,0-8.89-.06-4-1.06-5-5.12-5.13-3-.06-5.93-.07-8.89,0-4,.1-5,1.13-5.08,5.16,0,2.36,0,4.72,0,7.08a25.63,25.63,0,0,0,.13,3.28c.36,2.56,1.34,3.42,3.92,3.5C1155.14,425.8,1157,425.75,1158.77,425.75Z"/><path class="cls-1" d="M1012.93,433c-2.36,0-4.72.05-7.08,0a14.77,14.77,0,0,1-3.24-.5,8,8,0,0,1-6-5.57,20.59,20.59,0,0,1-1-5.13c-.15-3.67-.12-7.35,0-11a19.45,19.45,0,0,1,.77-4.52,8.53,8.53,0,0,1,7.18-6.41,23.59,23.59,0,0,1,3.93-.4c3.62-.06,7.24-.09,10.86,0a23.17,23.17,0,0,1,5,.69,7.75,7.75,0,0,1,5.79,5.34,18.83,18.83,0,0,1,1,5c.15,3.83.08,7.68,0,11.52a15.36,15.36,0,0,1-.38,3.09c-1,4.91-4.13,7.64-9.16,7.92-2.58.14-5.16,0-7.74,0Zm9.41-16.81h0c0-1.92,0-3.84,0-5.75-.08-2.33-1-3.43-3.26-3.52q-6.07-.23-12.16,0c-2.41.09-3.33,1.17-3.39,3.58-.08,3.78-.09,7.57,0,11.35.06,2.72,1.17,3.82,3.85,3.88,3.73.08,7.47.08,11.2,0,2.65-.06,3.67-1.14,3.77-3.76C1022.4,420,1022.34,418.12,1022.34,416.2Z"/><path class="cls-1" d="M641.24,433c-2.36,0-4.73.06-7.08,0a16,16,0,0,1-3.56-.6,7.77,7.77,0,0,1-5.58-5.13,17.74,17.74,0,0,1-1.06-4.95c-.15-4.05-.14-8.12,0-12.17a17.37,17.37,0,0,1,1-4.64,7.85,7.85,0,0,1,5.77-5.37,19.86,19.86,0,0,1,4.53-.69c4-.09,8-.11,12,0a21.87,21.87,0,0,1,5,.89,7.62,7.62,0,0,1,5,4.63,14.66,14.66,0,0,1,1.24,5.59q.08,5.69,0,11.35a16.39,16.39,0,0,1-.48,3.41c-1.18,4.88-4.19,7.4-9.22,7.65-2.52.12-5,0-7.57,0Zm-9.45-16.9h0c0,1.92,0,3.84,0,5.76.09,2.72,1.11,3.79,3.85,3.85,3.73.08,7.47.08,11.2,0,2.59-.06,3.7-1.16,3.76-3.78.1-3.84.09-7.68,0-11.52-.06-2.33-1-3.4-3.3-3.49-4-.16-8.11-.16-12.15,0-2.41.09-3.28,1.19-3.36,3.61C631.74,412.39,631.79,414.25,631.79,416.12Z"/><path class="cls-1" d="M821.71,433.05c-3.13,0-6.27,0-9.4,0-2,0-2.31-.32-2.35-2.28,0-1,0-2.09,0-3.13.07-1.41.51-1.84,2-1.86,2.8,0,5.6,0,8.4,0,2.64,0,5.28,0,7.91,0a10,10,0,0,0,2.44-.3,2.43,2.43,0,0,0,1.93-2.52,2.31,2.31,0,0,0-1.92-2.52,26,26,0,0,0-3.4-.6c-3.11-.38-6.22-.71-9.32-1.07a15.14,15.14,0,0,1-1.78-.35c-4.33-1-6.41-3.32-6.83-7.74a16.83,16.83,0,0,1,.2-4.25,7.06,7.06,0,0,1,5.2-6,22.73,22.73,0,0,1,5.66-.95c5.38-.12,10.76-.05,16.15,0,2,0,2.32.32,2.35,2.27,0,1.09,0,2.19,0,3.29,0,1.33-.35,1.63-1.68,1.71-.71,0-1.42,0-2.14,0-4.06,0-8.13,0-12.19,0a25.06,25.06,0,0,0-3.12.24c-1.8.26-2.61,1.16-2.62,2.79s.66,2.4,2.51,2.7c2.16.35,4.35.53,6.53.81s4.46.62,6.68.95a12.12,12.12,0,0,1,1.44.36,7.74,7.74,0,0,1,6.07,6.79,14.34,14.34,0,0,1-.26,5.87,6.44,6.44,0,0,1-4.24,4.69,20.19,20.19,0,0,1-5.13,1.06c-3,.16-6,0-9.06,0Z"/><path class="cls-1" d="M1192,402.92c2.31-2.78,5.1-3.47,8.09-3.49a72.24,72.24,0,0,1,8.71.33c4.59.53,7.08,2.88,8.14,7.39a20.57,20.57,0,0,1,.6,4.55c.07,6.37,0,12.74,0,19.1,0,2-.24,2.23-2.31,2.25-1.21,0-2.42,0-3.62,0-1.58,0-1.89-.36-1.94-2,0-.93,0-1.86,0-2.8,0-5.37,0-10.75,0-16.13a16.46,16.46,0,0,0-.23-2.62,2.89,2.89,0,0,0-2.78-2.58c-.87-.08-1.75-.21-2.62-.22-2.2,0-4.4,0-6.6,0a11.49,11.49,0,0,0-1.31.06c-3.22.35-4.24,1.4-4.27,4.67,0,5.54,0,11.08,0,16.63,0,1.15,0,2.3,0,3.45s-.38,1.47-1.52,1.51q-2.38.09-4.77,0c-1.12,0-1.43-.4-1.54-1.52,0-.43,0-.88,0-1.31q0-14,0-28c0-.16,0-.33,0-.49,0-2,.33-2.27,2.33-2.29,1.21,0,2.41,0,3.62,0,1.49,0,1.81.39,1.93,1.86C1191.83,401.7,1191.88,402.11,1192,402.92Z"/><path class="cls-1" d="M1079.27,429.76c-2.43,2.81-5.33,3.35-8.46,3.3-2,0-4,0-5.93,0a14.39,14.39,0,0,1-2-.14c-4.9-.73-7.54-3.22-8.49-8.09a23.39,23.39,0,0,1-.44-4.25c0-6.2,0-12.41,0-18.61a11,11,0,0,1,0-1.15,1.3,1.3,0,0,1,1.24-1.32c1.76-.05,3.51-.05,5.27,0a1.28,1.28,0,0,1,1.29,1.26,12.78,12.78,0,0,1,.06,1.64c0,6.1,0,12.19,0,18.29a17.4,17.4,0,0,0,.31,2.77,2.47,2.47,0,0,0,2.07,2.08,9.08,9.08,0,0,0,1.79.25c3,0,6,0,9.06,0a8.1,8.1,0,0,0,1-.06c2.12-.3,3.12-1.32,3.26-3.47.09-1.31.06-2.63.07-4V402.63a12.84,12.84,0,0,1,0-1.64c.12-1,.54-1.5,1.58-1.54,1.59-.07,3.19-.07,4.78,0,1,0,1.34.43,1.45,1.43,0,.44,0,.88,0,1.32q0,14.08,0,28.16c0,2.58-.11,2.69-2.69,2.69-1,0-2.09,0-3.13,0-1.6,0-1.86-.3-2-1.93Z"/><path class="cls-1" d="M1097.51,415.09c0-2.25,0-4.5,0-6.75,0-1.62-.08-1.66-1.65-1.76-2.07-.13-2.31-.38-2.33-2.5,0-.82,0-1.64,0-2.47,0-1.8.34-2.12,2.09-2.21.38,0,.77,0,1.15,0a2.83,2.83,0,0,0,2.77-2.38,21.33,21.33,0,0,0,.3-2.77c.05-.66,0-1.32.09-2a1.38,1.38,0,0,1,1.54-1.39c4-.15,4,0,3.91,3.48,0,1.16,0,2.31,0,3.46,0,1.46.15,1.61,1.61,1.62,2.92,0,5.83,0,8.74,0,.44,0,.88,0,1.32,0,1.64,0,2.06.43,2.12,2,0,1,0,2.09,0,3.13-.06,1.49-.51,2-2,2-2.69,0-5.38,0-8.08,0-.76,0-1.53,0-2.3,0-1.18.06-1.35.2-1.38,1.36-.05,1.54,0,3.08,0,4.61,0,2.75,0,5.49,0,8.24a11.84,11.84,0,0,0,.11,2c.32,1.84,1.14,2.76,3,3,2.29.23,4.6.27,6.9.3,3.78,0,3.78,0,3.78,3.87,0,.55,0,1.1,0,1.64-.11,1-.47,1.48-1.44,1.47a111.55,111.55,0,0,1-12-.38c-4.86-.61-7.33-3.42-7.87-8.33-.33-3-.33-6.12-.48-9.19Z"/><path class="cls-1" d="M873.25,414.88c0,2,0,4.07,0,6.1a12.73,12.73,0,0,0,.23,2.12,3,3,0,0,0,2.63,2.59,20.25,20.25,0,0,0,3.11.33c2,.05,3.95,0,5.93,0,1.46,0,1.84.42,1.89,1.89,0,1.21,0,2.42,0,3.62-.06,1-.43,1.46-1.43,1.45a103.47,103.47,0,0,1-11.83-.37c-5.13-.65-7.6-3.53-8.07-8.69-.24-2.67-.25-5.37-.3-8.06s0-5.16,0-7.74c0-1.39-.13-1.47-1.51-1.57-.33,0-.66,0-1-.05-1-.16-1.4-.53-1.44-1.5a40.25,40.25,0,0,1,0-4.11c.05-1,.47-1.36,1.44-1.48.43-.06.87,0,1.31-.06,2.15-.1,3.19-1.06,3.44-3.22.14-1.2.2-2.4.29-3.61.12-1.42.39-1.68,1.83-1.73.5,0,1,0,1.49,0,1.65.06,2,.39,2,2.11,0,1.31,0,2.63,0,3.95,0,.38,0,.77,0,1.15.07,1.19.18,1.33,1.35,1.37s2.31,0,3.47,0c2.3,0,4.61,0,6.92,0,1.65,0,2,.39,2,2.07,0,1.1,0,2.2,0,3.29,0,1.25-.46,1.69-1.7,1.76s-2.3,0-3.46,0c-2.36,0-4.72,0-7.09,0-1.36,0-1.51.18-1.53,1.54,0,2.25,0,4.5,0,6.75Z"/><path class="cls-1" d="M1037.88,410.43V391.18c0-.38,0-.77,0-1.15.07-2.07.47-2.46,2.57-2.48,1.1,0,2.2,0,3.29,0,1.62.05,2,.41,2.17,2a14.64,14.64,0,0,1,0,1.48v38.66c0,3.19-.15,3.32-3.34,3.32-.94,0-1.87,0-2.8,0-1.45-.06-1.81-.43-1.92-1.89,0-.49,0-1,0-1.48Z"/><path class="cls-1" d="M1125.85,416.36v-14a12.14,12.14,0,0,1,0-1.48c.11-1,.48-1.41,1.45-1.45,1.65-.06,3.3-.06,4.94,0,1,0,1.32.48,1.43,1.48a11.41,11.41,0,0,1,0,1.31v28c0,.39,0,.77,0,1.15-.09,1.29-.41,1.63-1.73,1.67s-2.74,0-4.11,0c-1.73,0-2-.3-2-2C1125.84,426.13,1125.86,421.24,1125.85,416.36Z"/><path class="cls-1" d="M847.46,416.35v-14a12.19,12.19,0,0,1,0-1.48c.12-1,.49-1.38,1.48-1.42,1.59-.07,3.19-.07,4.78,0,1,.05,1.44.53,1.57,1.57a12.19,12.19,0,0,1,0,1.48v27.67c0,2.71-.18,2.88-2.91,2.88-1.1,0-2.2,0-3.3,0-1.32-.06-1.65-.37-1.68-1.7-.05-2,0-4.06,0-6.1Z"/><path class="cls-1" d="M1133.72,391.73c0,.82,0,1.65,0,2.46-.08,1.09-.45,1.52-1.51,1.56-1.64.07-3.29,0-4.93,0a1.27,1.27,0,0,1-1.37-1.33c0-1.81,0-3.62,0-5.42a1.31,1.31,0,0,1,1.33-1.4c1.69-.06,3.4-.08,5.09,0,.94,0,1.33.52,1.4,1.51S1133.72,390.86,1133.72,391.73Z"/><path class="cls-1" d="M847.49,391.66c0-.87,0-1.75,0-2.62s.47-1.4,1.45-1.45c1.58-.07,3.17-.07,4.75,0a1.43,1.43,0,0,1,1.6,1.52c.08,1.69.08,3.39,0,5.08,0,1.14-.51,1.54-1.68,1.58-1.53.05-3.07.05-4.6,0-1.18,0-1.48-.39-1.55-1.64,0-.82,0-1.64,0-2.46Z"/><path class="cls-1" d="M362.39,393.06a3,3,0,0,1-2.92,2.93,2.89,2.89,0,0,1-2.87-2.79,2.93,2.93,0,0,1,2.82-3A3,3,0,0,1,362.39,393.06Z"/><path class="cls-1" d="M340.64,422.41a3,3,0,0,1-2.87,3,2.89,2.89,0,0,1-2.9-2.91,2.84,2.84,0,0,1,2.74-2.89A3,3,0,0,1,340.64,422.41Z"/><path class="cls-1" d="M383.88,373.51a2.85,2.85,0,0,1-2.95,2.85,2.81,2.81,0,0,1-2.8-3,2.76,2.76,0,0,1,2.84-2.75A2.83,2.83,0,0,1,383.88,373.51Z"/><path class="cls-1" d="M408.28,216.75a2.82,2.82,0,0,1-3,2.77,2.86,2.86,0,0,1,.15-5.71A2.84,2.84,0,0,1,408.28,216.75Z"/><path class="cls-1" d="M427.06,197.09a2.94,2.94,0,0,1-2.94,2.89,2.88,2.88,0,0,1-2.81-3,2.88,2.88,0,0,1,5.75.11Z"/><path class="cls-1" d="M353.26,402.94a2.75,2.75,0,0,1-2.83,2.79,2.82,2.82,0,0,1-2.91-2.91,2.91,2.91,0,0,1,2.87-2.82A2.83,2.83,0,0,1,353.26,402.94Z"/><path class="cls-1" d="M334,429.38a2.9,2.9,0,0,1-.1,5.8,2.91,2.91,0,0,1-2.83-3A3,3,0,0,1,334,429.38Z"/><path class="cls-1" d="M415.19,204A2.93,2.93,0,0,1,418,207a2.8,2.8,0,0,1-3,2.66,2.85,2.85,0,0,1-2.82-2.85A3,3,0,0,1,415.19,204Z"/><path class="cls-1" d="M431.3,184.43a2.85,2.85,0,0,1,2.87,2.79,2.91,2.91,0,0,1-2.91,2.95,3,3,0,0,1-2.89-2.83A2.86,2.86,0,0,1,431.3,184.43Z"/><path class="cls-1" d="M343.38,415.57a2.87,2.87,0,1,1,2.84-3A3,3,0,0,1,343.38,415.57Z"/><path class="cls-1" d="M372.06,383.26a2.88,2.88,0,0,1-2.92,2.93,3,3,0,0,1-2.83-2.88,2.88,2.88,0,1,1,5.75-.05Z"/><path class="cls-1" d="M393.64,223.63a2.76,2.76,0,0,1,2.82,2.81,2.83,2.83,0,0,1-2.9,2.93,2.92,2.92,0,0,1-2.85-2.84A2.83,2.83,0,0,1,393.64,223.63Z"/><path class="cls-1" d="M436.89,180.32a2.86,2.86,0,0,1-2.95-2.71,2.93,2.93,0,0,1,2.85-3,2.86,2.86,0,0,1,.1,5.72Z"/><path class="cls-1" d="M440.71,164.77a3,3,0,0,1,2.84,3,2.9,2.9,0,0,1-2.95,2.74,2.84,2.84,0,0,1-2.8-3A2.88,2.88,0,0,1,440.71,164.77Z"/><path class="cls-1" d="M442.46,155.08a2.7,2.7,0,0,1,2.81,2.78,2.91,2.91,0,0,1-2.93,2.93,3,3,0,0,1-2.82-3A2.74,2.74,0,0,1,442.46,155.08Z"/><path class="cls-1" d="M419.33,184.51a2.76,2.76,0,1,1,0,5.52,2.74,2.74,0,0,1-2.78-2.65A2.8,2.8,0,0,1,419.33,184.51Z"/><path class="cls-1" d="M355.3,409.91a2.78,2.78,0,1,1-2.82,2.63A2.82,2.82,0,0,1,355.3,409.91Z"/><path class="cls-1" d="M393.74,213.9a2.78,2.78,0,1,1-2.72,2.75A2.74,2.74,0,0,1,393.74,213.9Z"/><path class="cls-1" d="M346,442.22a2.73,2.73,0,1,1-2.67-2.91A2.74,2.74,0,0,1,346,442.22Z"/><path class="cls-1" d="M392.29,370.7a2.76,2.76,0,0,1,2.8,2.67,2.82,2.82,0,0,1-2.76,2.88,2.78,2.78,0,0,1,0-5.55Z"/><path class="cls-1" d="M365.1,402.81a2.73,2.73,0,1,1-2.77-2.7A2.76,2.76,0,0,1,365.1,402.81Z"/><path class="cls-1" d="M427.78,177.51a2.73,2.73,0,1,1-2.66-2.8A2.73,2.73,0,0,1,427.78,177.51Z"/><path class="cls-1" d="M348.23,432.36a2.77,2.77,0,1,1-2.66-2.78A2.7,2.7,0,0,1,348.23,432.36Z"/><path class="cls-1" d="M382.28,223.73a2.76,2.76,0,0,1,0,5.52,2.79,2.79,0,0,1-2.78-2.85A2.75,2.75,0,0,1,382.28,223.73Z"/><path class="cls-1" d="M431.88,167.66a2.77,2.77,0,0,1-2.7,2.75,2.73,2.73,0,0,1-2.82-2.62,2.76,2.76,0,0,1,5.52-.13Z"/><path class="cls-1" d="M383.57,383.29a2.67,2.67,0,0,1-2.71,2.7,2.58,2.58,0,0,1-2.75-2.63,2.69,2.69,0,0,1,2.77-2.81A2.72,2.72,0,0,1,383.57,383.29Z"/><path class="cls-1" d="M412.3,194.35a2.72,2.72,0,1,1-2.81,2.6A2.68,2.68,0,0,1,412.3,194.35Z"/><path class="cls-1" d="M400.56,206.79a2.73,2.73,0,1,1,2.61,2.83A2.72,2.72,0,0,1,400.56,206.79Z"/><path class="cls-1" d="M349.52,419.76a2.72,2.72,0,1,1-2.72,2.7A2.66,2.66,0,0,1,349.52,419.76Z"/><path class="cls-1" d="M431.28,155.15a2.68,2.68,0,0,1,2.75,2.66,2.72,2.72,0,1,1-2.75-2.66Z"/><path class="cls-1" d="M371.22,390.38a2.72,2.72,0,1,1-2.65,2.75A2.66,2.66,0,0,1,371.22,390.38Z"/><path class="cls-1" d="M385.75,393a2.76,2.76,0,0,1-2.56,2.69,2.64,2.64,0,1,1-.09-5.27A2.69,2.69,0,0,1,385.75,393Z"/><path class="cls-1" d="M400.34,199.71a2.64,2.64,0,0,1-.22-5.27,2.64,2.64,0,1,1,.22,5.27Z"/><path class="cls-1" d="M392.47,380.65a2.67,2.67,0,0,1,2.61,2.62,2.64,2.64,0,0,1-2.74,2.64,2.68,2.68,0,0,1-2.54-2.68A2.75,2.75,0,0,1,392.47,380.65Z"/><path class="cls-1" d="M406.32,373.53a2.63,2.63,0,0,1-5.25-.14,2.66,2.66,0,0,1,2.7-2.55A2.62,2.62,0,0,1,406.32,373.53Z"/><path class="cls-1" d="M394.1,206.83a2.66,2.66,0,0,1-2.57,2.69,2.74,2.74,0,0,1-2.69-2.59,2.63,2.63,0,0,1,5.26-.1Z"/><path class="cls-1" d="M364,422.48a2.69,2.69,0,0,1-2.6,2.63,2.62,2.62,0,0,1-2.66-2.7,2.66,2.66,0,0,1,2.65-2.57A2.75,2.75,0,0,1,364,422.48Z"/><path class="cls-1" d="M422.81,157.8a2.64,2.64,0,0,1-2.51,2.7,2.68,2.68,0,0,1-2.75-2.64,2.75,2.75,0,0,1,2.62-2.63A2.67,2.67,0,0,1,422.81,157.8Z"/><path class="cls-1" d="M374.24,405.49a2.67,2.67,0,0,1-2.58-2.68,2.63,2.63,0,0,1,2.72-2.51,2.6,2.6,0,1,1-.14,5.19Z"/><path class="cls-1" d="M370.93,223.89a2.64,2.64,0,0,1,2.59,2.66,2.59,2.59,0,0,1-2.68,2.54,2.56,2.56,0,0,1-2.57-2.63A2.59,2.59,0,0,1,370.93,223.89Z"/><path class="cls-1" d="M357.07,434.93a2.64,2.64,0,0,1-.15-5.27,2.64,2.64,0,0,1,.15,5.27Z"/><path class="cls-1" d="M369.76,412.76a2.59,2.59,0,1,1-5.17-.16,2.59,2.59,0,1,1,5.17.16Z"/><path class="cls-1" d="M417.51,165.06a2.63,2.63,0,0,1,.16,5.25,2.63,2.63,0,0,1-.16-5.25Z"/><path class="cls-1" d="M382.22,214.1a2.58,2.58,0,1,1-2.71,2.5A2.58,2.58,0,0,1,382.22,214.1Z"/><path class="cls-1" d="M407.41,184.65a2.61,2.61,0,0,1,0,5.22,2.53,2.53,0,0,1-2.58-2.61A2.56,2.56,0,0,1,407.41,184.65Z"/><path class="cls-1" d="M354.4,439.5a2.57,2.57,0,0,1,2.62,2.59,2.54,2.54,0,0,1-2.63,2.56,2.49,2.49,0,0,1-2.61-2.57A2.57,2.57,0,0,1,354.4,439.5Z"/><path class="cls-1" d="M415.87,177.42a2.63,2.63,0,1,1-2.67-2.52A2.56,2.56,0,0,1,415.87,177.42Z"/><path class="cls-1" d="M417.54,373.53A2.54,2.54,0,0,1,415,376a2.58,2.58,0,0,1-2.43-2.58,2.49,2.49,0,0,1,2.59-2.39A2.4,2.4,0,0,1,417.54,373.53Z"/><path class="cls-1" d="M398,187.32a2.59,2.59,0,0,1-2.55,2.47,2.53,2.53,0,0,1-2.45-2.55,2.42,2.42,0,0,1,2.52-2.43A2.52,2.52,0,0,1,398,187.32Z"/><path class="cls-1" d="M373.15,425A2.47,2.47,0,0,1,373,420a2.44,2.44,0,0,1,2.6,2.39A2.49,2.49,0,0,1,373.15,425Z"/><path class="cls-1" d="M382.17,206.84a2.48,2.48,0,0,1-2.52,2.49,2.41,2.41,0,0,1-2.46-2.35,2.49,2.49,0,1,1,5-.14Z"/><path class="cls-1" d="M373,216.73a2.5,2.5,0,0,1-2.54,2.44,2.5,2.5,0,1,1,.1-5A2.52,2.52,0,0,1,373,216.73Z"/><path class="cls-1" d="M411.58,157.82a2.5,2.5,0,0,1-2.48,2.55,2.54,2.54,0,0,1-2.52-2.51,2.5,2.5,0,0,1,2.41-2.43A2.42,2.42,0,0,1,411.58,157.82Z"/><path class="cls-1" d="M390.8,197.05a2.48,2.48,0,0,1-2.48,2.52,2.55,2.55,0,0,1-2.51-2.53,2.49,2.49,0,0,1,2.43-2.4A2.39,2.39,0,0,1,390.8,197.05Z"/><path class="cls-1" d="M359.55,229a2.54,2.54,0,0,1-2.5-2.54,2.48,2.48,0,0,1,2.39-2.45,2.54,2.54,0,0,1,2.6,2.43A2.58,2.58,0,0,1,359.55,229Z"/><path class="cls-1" d="M397.4,393.09a2.41,2.41,0,0,1-2.54,2.44,2.47,2.47,0,1,1,0-4.93A2.47,2.47,0,0,1,397.4,393.09Z"/><path class="cls-1" d="M368.49,434.73A2.5,2.5,0,0,1,366,432.2a2.61,2.61,0,0,1,2.47-2.42,2.52,2.52,0,0,1,2.54,2.49A2.42,2.42,0,0,1,368.49,434.73Z"/><path class="cls-1" d="M401.6,383.1a2.42,2.42,0,0,1,2.71-2.25,2.51,2.51,0,0,1,2.28,2.56,2.56,2.56,0,0,1-2.66,2.38A2.52,2.52,0,0,1,401.6,383.1Z"/><path class="cls-1" d="M383.77,402.85a2.54,2.54,0,0,1,2.57-2.47,2.6,2.6,0,0,1,2.44,2.45,2.54,2.54,0,0,1-2.51,2.53A2.49,2.49,0,0,1,383.77,402.85Z"/><path class="cls-1" d="M381.59,412.69a2.53,2.53,0,0,1-2.53,2.51,2.58,2.58,0,0,1-2.46-2.59,2.53,2.53,0,0,1,2.46-2.4A2.48,2.48,0,0,1,381.59,412.69Z"/><path class="cls-1" d="M401.2,180a2.49,2.49,0,0,1,.41-5,2.49,2.49,0,1,1-.41,5Z"/><path class="cls-1" d="M365.5,444.57a2.5,2.5,0,0,1,0-5,2.5,2.5,0,1,1,0,5Z"/><path class="cls-1" d="M408.56,167.72a2.49,2.49,0,0,1-2.6,2.4,2.41,2.41,0,0,1-2.39-2.58,2.52,2.52,0,0,1,2.5-2.37A2.56,2.56,0,0,1,408.56,167.72Z"/><path class="cls-1" d="M370.24,206.89a2.45,2.45,0,0,1-2.31,2.36,2.41,2.41,0,0,1-2.44-2.37,2.33,2.33,0,0,1,2.29-2.32A2.38,2.38,0,0,1,370.24,206.89Z"/><path class="cls-1" d="M361.19,216.73a2.32,2.32,0,0,1-2.29,2.32,2.45,2.45,0,0,1-2.41-2.43,2.41,2.41,0,0,1,2.51-2.3A2.3,2.3,0,0,1,361.19,216.73Z"/><path class="cls-1" d="M374.24,442.12a2.36,2.36,0,0,1,2.42-2.38,2.32,2.32,0,0,1,2.29,2.32,2.36,2.36,0,1,1-4.71.06Z"/><path class="cls-1" d="M398,155.51a2.43,2.43,0,0,1,2.32,2.5,2.36,2.36,0,1,1-2.32-2.5Z"/><path class="cls-1" d="M409.08,393.08a2.35,2.35,0,0,1-2.25,2.37,2.42,2.42,0,0,1-2.48-2.34,2.37,2.37,0,0,1,2.44-2.35A2.31,2.31,0,0,1,409.08,393.08Z"/><path class="cls-1" d="M382.45,432.22a2.44,2.44,0,0,1-2.23,2.43,2.37,2.37,0,0,1-2.5-2.28,2.3,2.3,0,0,1,2.19-2.41A2.39,2.39,0,0,1,382.45,432.22Z"/><path class="cls-1" d="M394.52,165.35a2.29,2.29,0,0,1,2.35,2.25,2.37,2.37,0,0,1-2.35,2.45,2.44,2.44,0,0,1-2.38-2.28A2.38,2.38,0,0,1,394.52,165.35Z"/><path class="cls-1" d="M348.25,228.87a2.31,2.31,0,0,1-2.42-2.18,2.39,2.39,0,0,1,2.26-2.54,2.47,2.47,0,0,1,2.45,2.38A2.37,2.37,0,0,1,348.25,228.87Z"/><path class="cls-1" d="M398.29,405.26a2.38,2.38,0,0,1-2.43-2.37,2.28,2.28,0,0,1,2.28-2.3,2.32,2.32,0,0,1,2.45,2.32A2.42,2.42,0,0,1,398.29,405.26Z"/><path class="cls-1" d="M392,177.53a2.4,2.4,0,0,1-2.32,2.31,2.32,2.32,0,0,1-2.36-2.41,2.28,2.28,0,0,1,2.28-2.3A2.37,2.37,0,0,1,392,177.53Z"/><path class="cls-1" d="M378.68,197.14a2.27,2.27,0,0,1-2.31,2.28,2.35,2.35,0,1,1,0-4.7A2.28,2.28,0,0,1,378.68,197.14Z"/><path class="cls-1" d="M385,420.12a2.32,2.32,0,0,1,2.26,2.5,2.23,2.23,0,0,1-2.37,2.19,2.38,2.38,0,0,1-2.32-2.3A2.44,2.44,0,0,1,385,420.12Z"/><path class="cls-1" d="M393.41,412.63a2.29,2.29,0,0,1-2.23,2.36,2.26,2.26,0,0,1-2.47-2.27,2.38,2.38,0,0,1,2.21-2.4A2.41,2.41,0,0,1,393.41,412.63Z"/><path class="cls-1" d="M415.76,385.61a2.23,2.23,0,0,1-2.36-2.2,2.29,2.29,0,0,1,2.26-2.49,2.43,2.43,0,0,1,2.42,2.39A2.39,2.39,0,0,1,415.76,385.61Z"/><path class="cls-1" d="M424.06,373.25a2.45,2.45,0,0,1,2.62-2.18,2.41,2.41,0,0,1,2.08,2.53,2.27,2.27,0,0,1-2.59,2.13A2.31,2.31,0,0,1,424.06,373.25Z"/><path class="cls-1" d="M383.52,184.9a2.4,2.4,0,0,1,2.36,2.44,2.26,2.26,0,0,1-2.33,2.25,2.32,2.32,0,0,1-2.38-2.22A2.43,2.43,0,0,1,383.52,184.9Z"/><path class="cls-1" d="M410.24,400.67a2.24,2.24,0,0,1,2.15,2.26,2.24,2.24,0,0,1-4.48-.18A2.25,2.25,0,0,1,410.24,400.67Z"/><path class="cls-1" d="M362.21,196.94a2.26,2.26,0,0,1,2.31-2.11,2.25,2.25,0,1,1-.27,4.49A2.28,2.28,0,0,1,362.21,196.94Z"/><path class="cls-1" d="M399,422.49a2.33,2.33,0,0,1-2.2,2.24,2.25,2.25,0,0,1-2.25-2.33,2.2,2.2,0,0,1,2.26-2.14A2.25,2.25,0,0,1,399,422.49Z"/><path class="cls-1" d="M349.51,216.71a2.25,2.25,0,0,1-4.49-.15,2.25,2.25,0,0,1,4.49.15Z"/><path class="cls-1" d="M393.8,432.35a2.21,2.21,0,0,1-2.23,2.17,2.24,2.24,0,1,1,.13-4.47A2.22,2.22,0,0,1,393.8,432.35Z"/><path class="cls-1" d="M427.36,381.08a2.2,2.2,0,0,1,2.2,2.2,2.27,2.27,0,0,1-2.18,2.25,2.33,2.33,0,0,1-2.29-2.31A2.26,2.26,0,0,1,427.36,381.08Z"/><path class="cls-1" d="M418.57,390.84a2.34,2.34,0,0,1,2.21,2.23,2.26,2.26,0,0,1-2.33,2.24,2.15,2.15,0,0,1-2.08-2.29A2.2,2.2,0,0,1,418.57,390.84Z"/><path class="cls-1" d="M389.12,157.9a2.33,2.33,0,0,1-2.22,2.22,2.19,2.19,0,0,1-2.19-2.35,2.16,2.16,0,0,1,2.24-2.13A2.3,2.3,0,0,1,389.12,157.9Z"/><path class="cls-1" d="M437.78,371.2a2.2,2.2,0,0,1,2.2,2.18,2.22,2.22,0,0,1-2.11,2.28,2.24,2.24,0,0,1-2.3-2.27A2.22,2.22,0,0,1,437.78,371.2Z"/><path class="cls-1" d="M371.58,189.51a2.34,2.34,0,0,1-2.22-2.22,2.25,2.25,0,0,1,4.49.05A2.32,2.32,0,0,1,371.58,189.51Z"/><path class="cls-1" d="M377.78,179.67a2.2,2.2,0,1,1,.2-4.4,2.2,2.2,0,0,1-.2,4.4Z"/><path class="cls-1" d="M385.21,167.62a2.22,2.22,0,0,1-2.13,2.26,2.18,2.18,0,0,1-2.29-2.08,2.25,2.25,0,0,1,2.19-2.38A2.29,2.29,0,0,1,385.21,167.62Z"/><path class="cls-1" d="M403,414.9a2.29,2.29,0,0,1-2.23-2.19,2.25,2.25,0,0,1,4.5,0A2.3,2.3,0,0,1,403,414.9Z"/><path class="cls-1" d="M336.84,228.75a2.2,2.2,0,0,1-.15-4.39,2.2,2.2,0,1,1,.15,4.39Z"/><path class="cls-1" d="M389.89,442.08a2.12,2.12,0,0,1-2.15,2.19,2.19,2.19,0,0,1-2.26-2.11,2.23,2.23,0,0,1,2.26-2.29A2.15,2.15,0,0,1,389.89,442.08Z"/><path class="cls-1" d="M358.22,206.9A2.08,2.08,0,0,1,356,209a2.16,2.16,0,0,1-2.22-2.14,2.28,2.28,0,0,1,2.31-2.26A2.19,2.19,0,0,1,358.22,206.9Z"/><path class="cls-1" d="M412.82,412.67a2.13,2.13,0,0,1,2.11-2.09,2.11,2.11,0,1,1,0,4.22A2.13,2.13,0,0,1,412.82,412.67Z"/><path class="cls-1" d="M424.17,402.88a2.07,2.07,0,0,1-2.06,2.11,2.11,2.11,0,0,1,0-4.22A2.08,2.08,0,0,1,424.17,402.88Z"/><path class="cls-1" d="M366,179.57a2.08,2.08,0,0,1-2-2.17,2.07,2.07,0,1,1,4.13.14A2.07,2.07,0,0,1,366,179.57Z"/><path class="cls-1" d="M327.51,226.63a2.07,2.07,0,1,1-2-2.18A2.11,2.11,0,0,1,327.51,226.63Z"/><path class="cls-1" d="M361.77,187.33a2.13,2.13,0,0,1-2.16,2,2.09,2.09,0,0,1-2-2.15,2.1,2.1,0,0,1,4.19.12Z"/><path class="cls-1" d="M398.64,444.19a2.1,2.1,0,1,1,2.29-1.92A2.22,2.22,0,0,1,398.64,444.19Z"/><path class="cls-1" d="M377.87,157.9a2.11,2.11,0,0,1-4.22-.06,2.11,2.11,0,0,1,2.15-2A2.06,2.06,0,0,1,377.87,157.9Z"/><path class="cls-1" d="M371.46,169.75a2.11,2.11,0,0,1-2.11-2.07,2.09,2.09,0,0,1,2.1-2.07,2.07,2.07,0,1,1,0,4.14Z"/><path class="cls-1" d="M337.72,216.66a2.1,2.1,0,0,1-2.06,2.12,2.11,2.11,0,0,1,0-4.22A2.15,2.15,0,0,1,337.72,216.66Z"/><path class="cls-1" d="M344.24,209a2,2,0,0,1-2.07-2.07,2,2,0,0,1,2.05-2.08,2.08,2.08,0,0,1,0,4.15Z"/><path class="cls-1" d="M403.06,434.36a2.11,2.11,0,0,1-2-2.14,2.11,2.11,0,0,1,4.22.15A2.1,2.1,0,0,1,403.06,434.36Z"/><path class="cls-1" d="M441,383.35a1.94,1.94,0,0,1-2.11,2,2,2,0,0,1-2-2.11,2.06,2.06,0,0,1,2.13-2A2,2,0,0,1,441,383.35Z"/><path class="cls-1" d="M352.4,195a2,2,0,0,1,2.15,2,2.07,2.07,0,1,1-2.15-2Z"/><path class="cls-1" d="M449.15,371.33a2,2,0,0,1,2.05,2.07,2,2,0,0,1-2.06,2,2,2,0,0,1-2.06-2.05A2,2,0,0,1,449.15,371.33Z"/><path class="cls-1" d="M430.3,395.15a2.06,2.06,0,1,1,.09-4.11,2.06,2.06,0,1,1-.09,4.11Z"/><path class="cls-1" d="M410.61,422.42a2.06,2.06,0,0,1-4.12.12,2.06,2.06,0,0,1,4.12-.12Z"/><path class="cls-1" d="M332.45,204.93a2,2,0,0,1,1.93,2,2,2,0,0,1-2.09,1.89,2,2,0,0,1-1.85-2A2,2,0,0,1,332.45,204.93Z"/><path class="cls-1" d="M362.7,157.88a2,2,0,0,1,2-2,2.05,2.05,0,0,1,1.94,1.88,2,2,0,0,1-1.93,2.05A2,2,0,0,1,362.7,157.88Z"/><path class="cls-1" d="M440.2,393.08a2,2,0,0,1,2-1.95,2,2,0,0,1,0,3.93A2,2,0,0,1,440.2,393.08Z"/><path class="cls-1" d="M342.47,197a1.94,1.94,0,1,1-2-1.91A1.93,1.93,0,0,1,342.47,197Z"/><path class="cls-1" d="M436,403a1.91,1.91,0,0,1-2.06,1.87,2,2,0,0,1-1.86-1.93,2,2,0,0,1,2-1.94A1.9,1.9,0,0,1,436,403Z"/><path class="cls-1" d="M418.4,422.45a2,2,0,0,1,2-1.94,2.09,2.09,0,0,1,1.9,2.1,2,2,0,0,1-2,1.84A2,2,0,0,1,418.4,422.45Z"/><path class="cls-1" d="M428.77,412.75a1.93,1.93,0,0,1-3.86-.05,1.93,1.93,0,1,1,3.86.05Z"/><path class="cls-1" d="M450.59,385.24a1.93,1.93,0,0,1-2-2,2,2,0,0,1,2-2,2,2,0,0,1,1.86,1.92A1.92,1.92,0,0,1,450.59,385.24Z"/><path class="cls-1" d="M349.65,187.35a1.92,1.92,0,0,1-3.84-.08,1.92,1.92,0,1,1,3.84.08Z"/><path class="cls-1" d="M409.88,444a1.91,1.91,0,1,1,2-1.89A1.89,1.89,0,0,1,409.88,444Z"/><path class="cls-1" d="M325.91,216.69a1.81,1.81,0,0,1-1.85,1.89,1.91,1.91,0,1,1,1.85-1.89Z"/><path class="cls-1" d="M354.27,179.37a1.93,1.93,0,0,1-2-1.91,2,2,0,0,1,2-1.9,1.88,1.88,0,0,1,1.89,1.84A1.85,1.85,0,0,1,354.27,179.37Z"/><path class="cls-1" d="M416.59,432.26a2,2,0,0,1-1.94,2,2,2,0,0,1-1.9-1.86,1.92,1.92,0,1,1,3.84-.15Z"/><path class="cls-1" d="M314.13,224.66a1.91,1.91,0,1,1-.11,3.81,1.8,1.8,0,0,1-1.86-1.87A1.83,1.83,0,0,1,314.13,224.66Z"/><path class="cls-1" d="M361.84,167.85a1.93,1.93,0,1,1-1.78-2.12A1.93,1.93,0,0,1,361.84,167.85Z"/><path class="cls-1" d="M458.59,373.32a1.92,1.92,0,1,1,1.89,2A1.94,1.94,0,0,1,458.59,373.32Z"/><path class="cls-1" d="M348.32,169.46a1.78,1.78,0,0,1-1.76-1.78,1.83,1.83,0,0,1,3.66,0A1.78,1.78,0,0,1,348.32,169.46Z"/><path class="cls-1" d="M446,401a1.9,1.9,0,0,1,1.89,1.86,1.83,1.83,0,0,1-3.66.12A1.89,1.89,0,0,1,446,401Z"/><path class="cls-1" d="M432.08,420.71a1.78,1.78,0,0,1,1.9,1.8,1.83,1.83,0,0,1-3.66,0A1.77,1.77,0,0,1,432.08,420.71Z"/><path class="cls-1" d="M426.2,434.07a1.79,1.79,0,0,1-1.83-1.88,1.83,1.83,0,0,1,3.66.17A1.78,1.78,0,0,1,426.2,434.07Z"/><path class="cls-1" d="M328.58,195.3a1.78,1.78,0,0,1,1.83,1.71,1.83,1.83,0,1,1-3.66,0A1.76,1.76,0,0,1,328.58,195.3Z"/><path class="cls-1" d="M462.23,381.51a1.73,1.73,0,0,1,1.79,1.73,1.86,1.86,0,0,1-1.84,1.89,1.9,1.9,0,0,1-1.81-1.94A1.8,1.8,0,0,1,462.23,381.51Z"/><path class="cls-1" d="M314.23,216.63a1.89,1.89,0,0,1-1.88,1.87,1.81,1.81,0,0,1-1.78-1.78,1.86,1.86,0,0,1,1.69-1.87A1.89,1.89,0,0,1,314.23,216.63Z"/><path class="cls-1" d="M454,394.86a1.81,1.81,0,0,1-1.91-1.79,1.87,1.87,0,0,1,1.77-1.8,1.81,1.81,0,0,1,1.89,1.82A1.73,1.73,0,0,1,454,394.86Z"/><path class="cls-1" d="M342.5,179.29a1.83,1.83,0,0,1-1.88-1.67,1.86,1.86,0,0,1,1.75-2,1.89,1.89,0,0,1,1.89,1.68A1.85,1.85,0,0,1,342.5,179.29Z"/><path class="cls-1" d="M440.6,412.64a1.87,1.87,0,0,1-1.86,1.89,1.94,1.94,0,0,1-1.81-1.78,1.88,1.88,0,0,1,1.88-1.87A1.82,1.82,0,0,1,440.6,412.64Z"/><path class="cls-1" d="M301,226.6a1.78,1.78,0,0,1,1.68-1.85,1.86,1.86,0,0,1,1.9,1.83,1.8,1.8,0,0,1-1.87,1.82A1.71,1.71,0,0,1,301,226.6Z"/><path class="cls-1" d="M337.65,187.37a1.94,1.94,0,0,1-2,1.74,1.87,1.87,0,0,1-1.65-1.92,1.79,1.79,0,0,1,2-1.7A1.85,1.85,0,0,1,337.65,187.37Z"/><path class="cls-1" d="M320.6,208.66a1.74,1.74,0,0,1-1.8-1.71,1.83,1.83,0,0,1,1.82-1.9,1.89,1.89,0,0,1,1.83,1.74A1.84,1.84,0,0,1,320.6,208.66Z"/><path class="cls-1" d="M422.83,442.07a1.77,1.77,0,0,1-1.71,1.82,1.83,1.83,0,0,1-1.92-1.8,1.89,1.89,0,0,1,1.9-1.84A1.83,1.83,0,0,1,422.83,442.07Z"/><path class="cls-1" d="M353.62,159.68a1.76,1.76,0,0,1-1.85-1.66,1.73,1.73,0,0,1,1.73-1.92,1.79,1.79,0,1,1,.12,3.58Z"/><path class="cls-1" d="M471.91,371.6a1.68,1.68,0,0,1,1.73,1.78,1.75,1.75,0,0,1-1.74,1.8,1.81,1.81,0,0,1-1.84-1.89A1.75,1.75,0,0,1,471.91,371.6Z"/><path class="cls-1" d="M433.84,442.09a1.73,1.73,0,0,1-1.66,1.69,1.76,1.76,0,0,1-1.75-1.77,1.69,1.69,0,0,1,1.75-1.59A1.66,1.66,0,0,1,433.84,442.09Z"/><path class="cls-1" d="M329,177.52a1.6,1.6,0,0,1,1.58-1.72,1.73,1.73,0,0,1,1.78,1.72,1.78,1.78,0,0,1-1.71,1.65A1.64,1.64,0,0,1,329,177.52Z"/><path class="cls-1" d="M473.82,381.6a1.73,1.73,0,0,1,1.71,1.62,1.67,1.67,0,0,1-1.75,1.73,1.64,1.64,0,0,1-1.62-1.69A1.68,1.68,0,0,1,473.82,381.6Z"/><path class="cls-1" d="M291.36,225a1.65,1.65,0,0,1,1.7,1.61,1.78,1.78,0,0,1-1.79,1.73,1.71,1.71,0,0,1-1.6-1.73A1.62,1.62,0,0,1,291.36,225Z"/><path class="cls-1" d="M483.31,375a1.68,1.68,0,1,1-.08-3.35,1.68,1.68,0,0,1,.08,3.35Z"/><path class="cls-1" d="M457.92,401.23a1.68,1.68,0,0,1,1.74,1.58,1.75,1.75,0,0,1-1.73,1.78,1.66,1.66,0,0,1-1.63-1.68A1.61,1.61,0,0,1,457.92,401.23Z"/><path class="cls-1" d="M318.29,197.13a1.62,1.62,0,0,1-1.68,1.61,1.7,1.7,0,0,1-1.68-1.64,1.73,1.73,0,0,1,1.79-1.71A1.65,1.65,0,0,1,318.29,197.13Z"/><path class="cls-1" d="M323.69,188.91a1.65,1.65,0,0,1-1.52-1.77,1.77,1.77,0,0,1,1.77-1.57,1.69,1.69,0,0,1,1.58,1.89A1.62,1.62,0,0,1,323.69,188.91Z"/><path class="cls-1" d="M310.47,206.9a1.72,1.72,0,0,1-1.65,1.69,1.81,1.81,0,0,1-1.74-1.8,1.69,1.69,0,0,1,1.76-1.57A1.66,1.66,0,0,1,310.47,206.9Z"/><path class="cls-1" d="M467.49,393.16a1.74,1.74,0,0,1-1.72,1.62,1.7,1.7,0,0,1-1.65-1.83,1.69,1.69,0,0,1,3.37.21Z"/><path class="cls-1" d="M344.15,157.93a1.7,1.7,0,0,1-1.71,1.61,1.66,1.66,0,0,1-1.66-1.65,1.69,1.69,0,0,1,1.77-1.71A1.76,1.76,0,0,1,344.15,157.93Z"/><path class="cls-1" d="M336.81,166a1.73,1.73,0,0,1,1.75,1.58,1.77,1.77,0,0,1-1.74,1.78,1.72,1.72,0,0,1-1.65-1.69A1.66,1.66,0,0,1,336.81,166Z"/><path class="cls-1" d="M439.41,432.28a1.71,1.71,0,0,1-1.62,1.71,1.76,1.76,0,0,1-1.76-1.76,1.72,1.72,0,0,1,1.72-1.61A1.67,1.67,0,0,1,439.41,432.28Z"/><path class="cls-1" d="M450.73,414.31a1.59,1.59,0,0,1-1.68-1.64,1.65,1.65,0,0,1,1.67-1.67,1.76,1.76,0,0,1,1.71,1.68A1.64,1.64,0,0,1,450.73,414.31Z"/><path class="cls-1" d="M445.6,422.56a1.59,1.59,0,0,1-1.7,1.58,1.7,1.7,0,0,1-1.66-1.66,1.78,1.78,0,0,1,1.82-1.69A1.67,1.67,0,0,1,445.6,422.56Z"/><path class="cls-1" d="M300.71,218.37a1.76,1.76,0,0,1-1.66-1.69,1.69,1.69,0,0,1,1.81-1.67,1.67,1.67,0,0,1,1.57,1.75A1.73,1.73,0,0,1,300.71,218.37Z"/><path class="cls-1" d="M306.26,197a1.58,1.58,0,0,1-3.16.09,1.58,1.58,0,0,1,3.16-.09Z"/><path class="cls-1" d="M318.85,179a1.54,1.54,0,0,1-1.59-1.5,1.57,1.57,0,0,1,3.14-.05A1.53,1.53,0,0,1,318.85,179Z"/><path class="cls-1" d="M332.89,157.85a1.59,1.59,0,0,1-1.53,1.6,1.58,1.58,0,0,1-.05-3.15A1.58,1.58,0,0,1,332.89,157.85Z"/><path class="cls-1" d="M487,383.21a1.64,1.64,0,0,1-1.48,1.65,1.61,1.61,0,0,1-1.64-1.49,1.51,1.51,0,0,1,1.47-1.62A1.58,1.58,0,0,1,487,383.21Z"/><path class="cls-1" d="M449.28,433.85a1.52,1.52,0,0,1-1.54-1.55,1.55,1.55,0,0,1,1.51-1.59,1.57,1.57,0,0,1,0,3.14Z"/><path class="cls-1" d="M496.14,373.42a1.59,1.59,0,0,1-1.63,1.49,1.64,1.64,0,0,1-1.49-1.65,1.7,1.7,0,0,1,1.65-1.5A1.61,1.61,0,0,1,496.14,373.42Z"/><path class="cls-1" d="M455.73,420.94a1.59,1.59,0,0,1,1.6,1.53,1.67,1.67,0,0,1-1.56,1.59,1.65,1.65,0,0,1-1.59-1.55A1.59,1.59,0,0,1,455.73,420.94Z"/><path class="cls-1" d="M443.22,443.6a1.49,1.49,0,0,1-1.54-1.54,1.57,1.57,0,0,1,3.14.05A1.54,1.54,0,0,1,443.22,443.6Z"/><path class="cls-1" d="M312,185.76a1.54,1.54,0,0,1,1.55,1.55,1.57,1.57,0,0,1-3.14,0A1.55,1.55,0,0,1,312,185.76Z"/><path class="cls-1" d="M479.16,393.08a1.58,1.58,0,0,1-1.54,1.56,1.51,1.51,0,0,1-1.53-1.55,1.54,1.54,0,0,1,1.51-1.57A1.61,1.61,0,0,1,479.16,393.08Z"/><path class="cls-1" d="M469.85,401.34a1.59,1.59,0,0,1,1.62,1.48,1.56,1.56,0,0,1-3.12.12A1.56,1.56,0,0,1,469.85,401.34Z"/><path class="cls-1" d="M461.09,412.66a1.57,1.57,0,0,1,3.13.07,1.57,1.57,0,0,1-3.13-.07Z"/><path class="cls-1" d="M281.56,226.68a1.52,1.52,0,0,1-1.63,1.45,1.5,1.5,0,0,1-1.49-1.58,1.56,1.56,0,0,1,3.12.13Z"/><path class="cls-1" d="M326.86,167.65a1.51,1.51,0,0,1-1.51,1.57,1.56,1.56,0,1,1,1.51-1.57Z"/><path class="cls-1" d="M297,208.4a1.53,1.53,0,0,1-1.61-1.51,1.57,1.57,0,0,1,1.57-1.58,1.54,1.54,0,0,1,1.5,1.46A1.46,1.46,0,0,1,297,208.4Z"/><path class="cls-1" d="M289.12,218.2a1.53,1.53,0,1,1,0-3.06,1.54,1.54,0,0,1,1.56,1.53A1.5,1.5,0,0,1,289.12,218.2Z"/><path class="cls-1" d="M286.59,206.81a1.46,1.46,0,0,1-1.41,1.48,1.41,1.41,0,0,1-.11-2.82A1.41,1.41,0,0,1,286.59,206.81Z"/><path class="cls-1" d="M481.8,401.46a1.45,1.45,0,0,1,1.47,1.42,1.42,1.42,0,1,1-1.47-1.42Z"/><path class="cls-1" d="M268.55,228.05a1.41,1.41,0,1,1,.24-2.81,1.42,1.42,0,0,1,1.27,1.44A1.46,1.46,0,0,1,268.55,228.05Z"/><path class="cls-1" d="M301.42,187.32a1.42,1.42,0,1,1-2.83-.18,1.42,1.42,0,0,1,2.83.18Z"/><path class="cls-1" d="M278.93,216.7a1.44,1.44,0,0,1-2.87,0,1.44,1.44,0,1,1,2.87,0Z"/><path class="cls-1" d="M313.71,166.28a1.41,1.41,0,1,1,.07,2.81,1.46,1.46,0,0,1-1.42-1.3A1.41,1.41,0,0,1,313.71,166.28Z"/><path class="cls-1" d="M474.59,411.26a1.45,1.45,0,0,1,1.4,1.48,1.43,1.43,0,0,1-1.34,1.38,1.43,1.43,0,1,1-.06-2.86Z"/><path class="cls-1" d="M308.4,177.39A1.4,1.4,0,0,1,307,178.9a1.43,1.43,0,0,1-1.39-1.35A1.44,1.44,0,0,1,307,176,1.42,1.42,0,0,1,308.4,177.39Z"/><path class="cls-1" d="M454.34,440.66a1.43,1.43,0,1,1-1.39,1.48A1.42,1.42,0,0,1,454.34,440.66Z"/><path class="cls-1" d="M462.22,432.34a1.43,1.43,0,0,1-2.85-.09,1.39,1.39,0,0,1,1.56-1.32A1.35,1.35,0,0,1,462.22,432.34Z"/><path class="cls-1" d="M498.51,383.21a1.36,1.36,0,0,1-1.28,1.43,1.41,1.41,0,0,1-1.58-1.3,1.45,1.45,0,0,1,1.29-1.45A1.42,1.42,0,0,1,498.51,383.21Z"/><path class="cls-1" d="M507.36,373.37a1.37,1.37,0,0,1-1.37,1.35,1.39,1.39,0,1,1,.09-2.77A1.35,1.35,0,0,1,507.36,373.37Z"/><path class="cls-1" d="M294.14,197.07a1.39,1.39,0,0,1-1.5,1.38,1.36,1.36,0,0,1-1.32-1.38,1.38,1.38,0,0,1,1.33-1.39A1.41,1.41,0,0,1,294.14,197.07Z"/><path class="cls-1" d="M321.6,157.79a1.32,1.32,0,0,1-1.22,1.45,1.36,1.36,0,0,1-1.55-1.29,1.4,1.4,0,0,1,1.4-1.47A1.32,1.32,0,0,1,321.6,157.79Z"/><path class="cls-1" d="M489.35,391.72a1.29,1.29,0,0,1,1.43,1.23,1.33,1.33,0,0,1-1.31,1.53,1.41,1.41,0,0,1-1.46-1.41A1.34,1.34,0,0,1,489.35,391.72Z"/><path class="cls-1" d="M467.49,421.09A1.4,1.4,0,0,1,469,422.5a1.35,1.35,0,0,1-1.33,1.36,1.32,1.32,0,0,1-1.44-1.4A1.3,1.3,0,0,1,467.49,421.09Z"/><path class="cls-1" d="M257.26,225.37a1.26,1.26,0,0,1,1.29,1.22,1.31,1.31,0,0,1-1.18,1.35,1.34,1.34,0,0,1-1.39-1.32A1.31,1.31,0,0,1,257.26,225.37Z"/><path class="cls-1" d="M501.28,394.39a1.38,1.38,0,0,1-1.34-1.17,1.3,1.3,0,1,1,2.59-.1A1.36,1.36,0,0,1,501.28,394.39Z"/><path class="cls-1" d="M508.66,384.57a1.25,1.25,0,0,1-1.21-1.29,1.27,1.27,0,1,1,2.53.1A1.29,1.29,0,0,1,508.66,384.57Z"/><path class="cls-1" d="M302.26,169a1.3,1.3,0,0,1-1.26-1.27,1.25,1.25,0,0,1,1.19-1.31,1.28,1.28,0,0,1,1.34,1.33A1.3,1.3,0,0,1,302.26,169Z"/><path class="cls-1" d="M473.59,432.24a1.3,1.3,0,0,1-1.17,1.34,1.33,1.33,0,0,1-1.36-1.16,1.27,1.27,0,1,1,2.53-.18Z"/><path class="cls-1" d="M274.65,206.83a1.33,1.33,0,0,1-1.2,1.32,1.35,1.35,0,0,1-1.39-1.14,1.3,1.3,0,1,1,2.59-.18Z"/><path class="cls-1" d="M289.34,187.23a1.25,1.25,0,0,1-1.19,1.3,1.21,1.21,0,0,1-1.33-1.14,1.28,1.28,0,0,1,1.26-1.41A1.3,1.3,0,0,1,289.34,187.23Z"/><path class="cls-1" d="M480.63,422.45a1.27,1.27,0,0,1-2.53.16,1.27,1.27,0,1,1,2.53-.16Z"/><path class="cls-1" d="M518.6,373.38a1.35,1.35,0,0,1-1.31,1.23,1.29,1.29,0,1,1,.14-2.58A1.32,1.32,0,0,1,518.6,373.38Z"/><path class="cls-1" d="M486.48,413.93a1.24,1.24,0,0,1-1.24-1.24,1.27,1.27,0,1,1,2.54.06A1.23,1.23,0,0,1,486.48,413.93Z"/><path class="cls-1" d="M296.49,177.47a1.21,1.21,0,0,1-1.21,1.26,1.26,1.26,0,0,1-1.33-1.32,1.24,1.24,0,0,1,1.3-1.18A1.22,1.22,0,0,1,296.49,177.47Z"/><path class="cls-1" d="M310.37,157.93a1.24,1.24,0,1,1-2.48,0,1.24,1.24,0,0,1,1.33-1.31A1.28,1.28,0,0,1,310.37,157.93Z"/><path class="cls-1" d="M267.13,216.67a1.2,1.2,0,0,1-1.22,1.24,1.24,1.24,0,1,1,0-2.48A1.22,1.22,0,0,1,267.13,216.67Z"/><path class="cls-1" d="M282,197.11a1.27,1.27,0,0,1-1.24,1.25,1.29,1.29,0,0,1-1.24-1.41,1.27,1.27,0,0,1,1.32-1.16A1.25,1.25,0,0,1,282,197.11Z"/><path class="cls-1" d="M493.78,404.16a1.21,1.21,0,0,1-1.21-1.25,1.2,1.2,0,0,1,1.18-1.27,1.22,1.22,0,0,1,1.3,1.31A1.25,1.25,0,0,1,493.78,404.16Z"/><path class="cls-1" d="M466.7,442.11a1.24,1.24,0,1,1-2.48,0,1.2,1.2,0,0,1,1.25-1.24A1.21,1.21,0,0,1,466.7,442.11Z"/><path class="cls-1" d="M475.45,442.11a1.15,1.15,0,0,1,1.09-1.18,1.22,1.22,0,0,1,1.18,1.12,1.2,1.2,0,0,1-1.12,1.18A1.12,1.12,0,0,1,475.45,442.11Z"/><path class="cls-1" d="M290.65,166.52a1.2,1.2,0,0,1,1.2,1.1,1.09,1.09,0,0,1-1.09,1.16,1.13,1.13,0,0,1-1.2-1.06A1.21,1.21,0,0,1,290.65,166.52Z"/><path class="cls-1" d="M499.59,412.59a1.14,1.14,0,1,1-2.28.18,1.14,1.14,0,0,1,2.28-.18Z"/><path class="cls-1" d="M283.47,176.33a1.2,1.2,0,0,1,1.1,1.2,1.15,1.15,0,0,1-2.29-.1A1.2,1.2,0,0,1,283.47,176.33Z"/><path class="cls-1" d="M483.87,433.4a1.11,1.11,0,0,1-1.13-1.13,1.18,1.18,0,0,1,1.14-1.14,1.2,1.2,0,0,1,1.14,1.15A1.14,1.14,0,0,1,483.87,433.4Z"/><path class="cls-1" d="M276.1,186.15a1.15,1.15,0,0,1,1.19,1.08,1.23,1.23,0,0,1-1.11,1.2,1.21,1.21,0,0,1-1.19-1.11A1.13,1.13,0,0,1,276.1,186.15Z"/><path class="cls-1" d="M270,197.11a1.18,1.18,0,0,1-1.21,1.09,1.13,1.13,0,1,1,.09-2.25A1.15,1.15,0,0,1,270,197.11Z"/><path class="cls-1" d="M492.31,422.56a1.2,1.2,0,0,1-1.2,1.08,1.17,1.17,0,0,1-1.09-1.19,1.12,1.12,0,0,1,1.2-1.07A1.14,1.14,0,0,1,492.31,422.56Z"/><path class="cls-1" d="M529.82,373.32a1.11,1.11,0,0,1-1.17,1.08,1.08,1.08,0,0,1-1.09-1.14,1.12,1.12,0,0,1,1.16-1.1A1.16,1.16,0,0,1,529.82,373.32Z"/><path class="cls-1" d="M254.33,217.82a1.15,1.15,0,0,1-.14-2.29,1.15,1.15,0,0,1,1.18,1.08A1.12,1.12,0,0,1,254.33,217.82Z"/><path class="cls-1" d="M262.69,206.93a1.16,1.16,0,0,1-1.22,1,1.07,1.07,0,0,1-1-1.19,1.15,1.15,0,0,1,1.2-1.07A1.17,1.17,0,0,1,262.69,206.93Z"/><path class="cls-1" d="M506.88,402.92a1.13,1.13,0,0,1-1.17,1.1,1.2,1.2,0,0,1-1.11-1.18,1.21,1.21,0,0,1,1.19-1.11A1.18,1.18,0,0,1,506.88,402.92Z"/><path class="cls-1" d="M298,156.78a1.09,1.09,0,0,1,1.18,1.05,1.11,1.11,0,0,1-1.06,1.18,1.16,1.16,0,0,1-1.2-1.06A1.13,1.13,0,0,1,298,156.78Z"/><path class="cls-1" d="M245.89,227.77a1.21,1.21,0,0,1-1.17-1.12,1.24,1.24,0,0,1,1.18-1.12,1.14,1.14,0,0,1,1.13,1.13A1.09,1.09,0,0,1,245.89,227.77Z"/><path class="cls-1" d="M514.15,393.17a1.08,1.08,0,0,1-1.25,1,1.05,1.05,0,0,1-1-1.11,1.14,1.14,0,0,1,1.17-1.12A1.13,1.13,0,0,1,514.15,393.17Z"/><path class="cls-1" d="M521.44,383.35a1.11,1.11,0,1,1-2.22-.18,1,1,0,0,1,1.12-1A1.07,1.07,0,0,1,521.44,383.35Z"/></svg>