<svg xmlns="http://www.w3.org/2000/svg" viewBox="0 0 41.37 18.54"><defs><style>.cls-1{fill:#8f8fa3;}</style></defs><g id="Capa_2" data-name="Capa 2"><g id="Textos"><path class="cls-1" d="M18.38,13.29,12.3,2.79c-.27.45-.51.85-.74,1.25-1.42,2.47-2.84,5-4.27,7.42-1.24,2.16-2.51,4.31-3.74,6.48a1,1,0,0,1-1,.6c-.82-.06-1.64,0-2.53,0l1.37-2.37,2-3.47q1.18-2,2.36-4.07c.78-1.34,1.55-2.69,2.33-4S9.77,1.62,10.64.15A.39.39,0,0,1,10.93,0h2.72A.4.4,0,0,1,14,.19q1.52,2.57,3,5.16,1.34,2.3,2.68,4.59a1,1,0,0,1,0,1.19c-.41.59-.73,1.24-1.09,1.87A3.19,3.19,0,0,1,18.38,13.29Z"/><path class="cls-1" d="M27.51,0h3a.36.36,0,0,1,.28.15c.72,1.2,1.43,2.42,2.13,3.63a.28.28,0,0,1,0,.25l-1.52,2.7-2.3-4-5.25,9.07h4.59c-.54.92-1,1.77-1.54,2.62a.34.34,0,0,1-.26.12H19.06Z"/><path class="cls-1" d="M4.57,18.52,12.29,5.19l5.44,9.39H14.55l-2.26-3.87c-.48.82-.93,1.58-1.37,2.35C10,14.62,9,16.17,8.22,17.78a1.26,1.26,0,0,1-1.42.75C6.09,18.48,5.38,18.52,4.57,18.52Z"/><path class="cls-1" d="M36.81,18.52c-1.06,0-2,0-3,0a.52.52,0,0,1-.37-.25c-.47-.8-.92-1.61-1.39-2.41-.78-1.36-1.57-2.71-2.36-4.07a4.43,4.43,0,0,1-.36-.63.83.83,0,0,0-1-.57c-.78.05-1.56,0-2.41,0L29.09,5.2Z"/><path class="cls-1" d="M33.67,5.19l7.7,13.29a1.67,1.67,0,0,1-.29,0c-.86,0-1.73,0-2.59,0a.56.56,0,0,1-.41-.23q-2.31-3.92-4.58-7.84l-1.26-2.2a.46.46,0,0,1,0-.57C32.72,6.88,33.16,6.07,33.67,5.19Z"/></g></g></svg>