<svg xmlns="http://www.w3.org/2000/svg" viewBox="0 0 60.64 17.82"><defs><style>.cls-1{fill:#8f8fa3;}</style></defs><g id="Capa_2" data-name="Capa 2"><g id="Textos"><path class="cls-1" d="M28.28,17.57V12H27.07a.66.66,0,0,0,0,.14c0,.46,0,.92,0,1.38s0,1.17-.08,1.74a2.54,2.54,0,0,1-2.15,2.39,4.92,4.92,0,0,1-2.44-.09,2.38,2.38,0,0,1-1.72-2A8.2,8.2,0,0,1,20.53,14V7.82c0-.16,0-.16.16-.16h.82c.1,0,.13,0,.12-.12s0-.36,0-.55a2.07,2.07,0,0,0,0-.22h0s0,.06,0,.09v.69s0,.06-.05.09,0-.06,0-.09V6.68a.17.17,0,0,1,0-.07h.17V1c0-.15,0-.15.16-.15h1c.1,0,.12,0,.12.14V6.49a.27.27,0,0,0,.08.22s0,.1.09.16l-.15,0c0,.14,0,.17.12.18s0,.31,0,.47a.07.07,0,0,1,0,0c-.1,0-.1.1-.1.19v4.06c0,.14,0,.14-.14.14h-1c-.08,0-.1,0-.1.11,0,.72,0,1.44,0,2.16a4.48,4.48,0,0,0,.18,1.45,1.78,1.78,0,0,0,.9,1.11A2.37,2.37,0,0,0,24,17a1.81,1.81,0,0,0,.76-.18,1.83,1.83,0,0,0,1-1.31A7.36,7.36,0,0,0,25.87,14c0-2,0-4.09,0-6.14,0-.15,0-.15.14-.15h.83c.14,0,.15,0,.09-.15a.77.77,0,0,1,0-.75.32.32,0,0,0,0-.16C27,5,27,3.46,27,1.9c0-.1,0-.13-.13-.12H24.5c-.1,0-.12,0-.12-.12s0-.44,0-.66,0-.12.1-.12q3.15,0,6.28,0c.09,0,.11,0,.11.11s0,.44,0,.66,0,.13-.13.13H28.41c-.14,0-.14,0-.14.14V7a.54.54,0,0,0,.06.3.23.23,0,0,1,0,.27c-.06.11,0,.13.08.13h2a6.13,6.13,0,0,1,1.91.27A2.24,2.24,0,0,1,34,9.82a3.59,3.59,0,0,1-.07,1.46,2.24,2.24,0,0,1-1.63,1.61,5.7,5.7,0,0,1-1.48.22H29.65c-.21,0-.18,0-.18.18,0,1.37,0,2.75,0,4.12,0,.15,0,.15-.15.15Zm1.18-7.19c0,.58,0,1.17,0,1.75,0,.19,0,.17.17.17h.79a7.12,7.12,0,0,0,.94-.1A1.53,1.53,0,0,0,32.66,11a2.4,2.4,0,0,0,.05-1,1.56,1.56,0,0,0-.86-1.25,2.54,2.54,0,0,0-1.08-.27c-.39,0-.78,0-1.18,0-.1,0-.13,0-.13.13C29.47,9.18,29.46,9.78,29.46,10.38Z"/><path class="cls-1" d="M35.26,8.73v8.84h-.85c-.06,0-.09,0-.08-.09V7.78c0-.09,0-.13.12-.12h.14a.66.66,0,0,1-.23-.75.35.35,0,0,1,.46-.29.39.39,0,0,1,.2.18.75.75,0,0,1,0,.64,1,1,0,0,1-.16.22h1.05c.06,0,.09,0,.12.09.76,2.31,1.53,4.63,2.3,6.94.16.46.31.92.46,1.38a.2.2,0,0,0,.07.1l.05-.12,1.71-5.2c.33-1,.67-2.06,1-3.09,0-.07,0-.11.13-.1h.11a.65.65,0,0,1-.22-.74A.36.36,0,0,1,42,6.6a.35.35,0,0,1,.35.32c0,.1,0,.21,0,.31a.54.54,0,0,1-.22.43h1c.14,0,.14,0,.14.15v9.76H42.25V8.68h0a.36.36,0,0,1,0,.09l-1.8,5.5c-.36,1.07-.71,2.14-1.06,3.21a.12.12,0,0,1-.14.11h-.81c-.1,0-.13,0-.16-.12l-1.65-5c-.4-1.23-.81-2.45-1.22-3.67l0-.1Zm-.82-1.6c0,.09,0,.19.05.28a.21.21,0,0,0,.21.18.22.22,0,0,0,.23-.17.86.86,0,0,0,0-.59.21.21,0,0,0-.22-.16.2.2,0,0,0-.2.17A2.47,2.47,0,0,0,34.44,7.13Zm7.3,0a2.47,2.47,0,0,0,.06.29.21.21,0,0,0,.21.17.22.22,0,0,0,.22-.16.91.91,0,0,0,0-.61.22.22,0,0,0-.42,0C41.77,6.93,41.76,7,41.74,7.13Z"/><path class="cls-1" d="M52.78,7.79h2.46a.42.42,0,0,1,.24-.32c.1-.06.17,0,.19.15l.29-.2v.37h2.15l0-.17h-.67a1.24,1.24,0,0,1-.64-.2.7.7,0,0,1-.33-.58c0-.14,0-.17.16-.15l.37.08a.49.49,0,0,0-.17-.34c-.11-.1-.22-.17-.35-.27a1.16,1.16,0,0,1,.64,0l.6.24A.84.84,0,0,0,57.5,6h-.06a1.7,1.7,0,0,1-.24-.09A.38.38,0,0,0,57,5.79a.7.7,0,0,1-.74-.47c0-.14-.06-.29-.09-.44l.15,0-.12-.21h.17l.41,0a1.05,1.05,0,0,1,.59.23.71.71,0,0,1,.35.55s0,.05,0,.07l0,0s.07,0,.1,0a.19.19,0,0,1,.24.1.2.2,0,0,1-.1.26s-.07,0-.06.1,0,.22.12.28l.15-.42a1.2,1.2,0,0,1,.46.67h0l.43-.47a1.37,1.37,0,0,1,.09,1,1.8,1.8,0,0,1-.43.79.28.28,0,0,0,0,.16c0,.14,0,.27.08.41.05-.12.17-.21.12-.37a.23.23,0,0,1,.19-.3.24.24,0,0,1,.29.21.23.23,0,0,1-.24.26c-.07,0-.09,0-.11.09s-.08.22-.14.33a.67.67,0,0,0,0,.48c0,.08,0,.16,0,.25L59,9.13c.14-.17.29-.34.43-.52s.15-.22.23-.33l0,0s0,0,0,0c0,.21.11.41.15.62s0,.21,0,.33a1,1,0,0,1,.78-.09l-.33.58a1.48,1.48,0,0,1-.56.55l-.74.41a.25.25,0,0,0-.17.24.56.56,0,0,1,0,.17c.11-.07.21-.09.26-.21a.23.23,0,0,1,.32-.11.24.24,0,0,1,.12.32.24.24,0,0,1-.32.12.15.15,0,0,0-.17,0,.61.61,0,0,0-.34.45,4.7,4.7,0,0,1-.24.66c.26-.14.51-.31.78-.43a3.86,3.86,0,0,1,.87-.23,2.12,2.12,0,0,1-.37,1l.57,0a2.37,2.37,0,0,1-.53.91,1.18,1.18,0,0,1-.83.26,6.6,6.6,0,0,0-1.32.15.78.78,0,0,0-.48.41h.56s0,0,.07-.06a.25.25,0,0,1,.36,0,.23.23,0,0,1,0,.35.23.23,0,0,1-.36,0,.14.14,0,0,0-.15-.06H57.1a.36.36,0,0,0-.22.09c-.2.17-.42.32-.63.47a1.34,1.34,0,0,0-.14.11,2.9,2.9,0,0,1,2.15.34,1.63,1.63,0,0,1-1,.63,1.45,1.45,0,0,1-1-.22,1.4,1.4,0,0,0-.84-.22A1.24,1.24,0,0,0,55,16l-.83.38s0,0,0,0c.24.05.47.1.71.13s.47,0,.71,0a.64.64,0,0,1-.47.34.69.69,0,0,1,.21.54c-.22-.22-.44-.39-.77-.26l.75.62-.09,0h-.6a.25.25,0,0,1-.12,0l-.38-.32,0-.05-.23.17a.75.75,0,0,1-.94,0c-.18-.14-.35-.3-.52-.44l-.5.42a.77.77,0,0,1-1,0l-.1-.07c-.12-.09-.12-.09-.24,0a.74.74,0,0,0-.12.13.34.34,0,0,1-.37.16h-.42a.44.44,0,0,1,.08-.1l.54-.43.08-.06c-.23-.16-.46-.1-.82.22a.68.68,0,0,1,.21-.53.67.67,0,0,1-.47-.36,2.41,2.41,0,0,0,.38,0c.31,0,.62-.08.93-.14a.58.58,0,0,1,.6.16.13.13,0,0,0,.19,0l.32-.16-.58-.09a9.24,9.24,0,0,0-2.87.18l-1.18.22a.22.22,0,0,1-.11,0,4.73,4.73,0,0,1,2.32-.84v0l-.41-.1a14.88,14.88,0,0,0-2-.19l-.94,0a.28.28,0,0,1-.13,0A11.31,11.31,0,0,1,48.07,15a6.49,6.49,0,0,0-3.51-1.09,8.06,8.06,0,0,1,2.4-.23l-1.4-.76.1.72h0l-1-1.27a2.1,2.1,0,0,1,.3-.15s.07,0,.1,0l1.06.38a4.77,4.77,0,0,0,.51.13,4.89,4.89,0,0,1-1.14-1.26A3.72,3.72,0,0,1,45,9.86a2.49,2.49,0,0,0,.51.93l.77.71,0,0V11.2a.09.09,0,0,0,0,0,1.43,1.43,0,0,1-.57-.49A5.43,5.43,0,0,1,45,9.43l0-.06h0V9.7h0a1.53,1.53,0,0,1-.2-.87l.33,0a.13.13,0,0,1,.07.09,4.37,4.37,0,0,0,.77,1.18.29.29,0,0,0,.08.07,4.18,4.18,0,0,1-.55-1.35,7.08,7.08,0,0,1-.16-1.45l0,0a1,1,0,0,0,0,.1,6.89,6.89,0,0,0,.61,1.58l.11.19,0,0A5,5,0,0,1,45.67,6h0s0,.06,0,.1A7.15,7.15,0,0,0,46,7.66c0,.16.11.32.16.49a.25.25,0,0,0,.06-.31A3,3,0,0,1,46,6.74a4.67,4.67,0,0,1,.25-1.43l0-.06h0l.19,1.51h0a4,4,0,0,1,.68-2h0a.22.22,0,0,1,0,.08l-.18.91v0a2.88,2.88,0,0,1,1.83-1.41,8.44,8.44,0,0,0-1.35,1.45,2.13,2.13,0,0,1,1.12-.31l0,0-.1.06a2.73,2.73,0,0,0-1,.68c-.19.22-.35.46-.52.7l0,0,.11-.09.64-.5a.2.2,0,0,1,.11,0A12,12,0,0,0,46.81,8a4.93,4.93,0,0,1,.83-.68l0,0-.18.21-.19.23H49.4c.07-.21.19-.38.41-.31l0,.14.31-.21v.38h2c.08,0,.1,0,.12-.1.07-.49.16-1,.24-1.48a.06.06,0,0,0,0,0h0a.32.32,0,0,1,0,.09C52.63,6.77,52.7,7.28,52.78,7.79ZM56.47,15c-.12,0,0-.1-.08-.14-.24.22-.54.35-.77.6a2.29,2.29,0,0,0,.85-.47l.3-.19,0,0Zm-5.55-.55.33-.11a.2.2,0,0,0,.1-.08l.66-.89a.43.43,0,0,0,0-.07c-.17,0-.31,0-.42.15s-.44.61-.66.91l0,.09h0l-.44.61a.1.1,0,0,0,0,.09l.1.22.19-.25A.39.39,0,0,0,50.8,15,1.42,1.42,0,0,1,50.92,14.44ZM49,14.22v-.89a.25.25,0,0,1,0-.09c.12-.13.24-.25.35-.38a.39.39,0,0,0,.08-.2V8.46c-.14-.06-.22,0-.3.1l-.29.21V8.54c0-.07,0-.1-.1-.1H47a.16.16,0,0,0-.11.07L46.69,9a.56.56,0,0,0,0,.1l.23-.39s.06-.08.09-.08h.43c0,.19-.09.36-.11.54s0,.37,0,.55h0c-.08-.1-.08-.24-.14-.35a1.41,1.41,0,0,0-.26.75h.31a.83.83,0,0,0,.45.87v0l-.46,0v1h0l.09-.38s0,0,0-.06,0,.05,0,.07,0,.26,0,.39l.06.36h0a4.6,4.6,0,0,1,.35-1.55c.07.53.12,1.06.17,1.58A4.89,4.89,0,0,0,48.44,14a6.09,6.09,0,0,1,.16-1.65A7.13,7.13,0,0,0,49,14.22Zm8.18-5.77h-1.5v4.28a.2.2,0,0,0,0,.11,2.56,2.56,0,0,0,.23.27l.18-.33,0,.11c0,.27.11.55.15.83A1.5,1.5,0,0,1,56,14.86l-.15.22,0,.06a5,5,0,0,0,.53-.37.25.25,0,0,0,0-.09c0-.19,0-.38,0-.58a.09.09,0,0,0,0-.09.26.26,0,0,1,0-.38.26.26,0,0,1,.36,0,.24.24,0,0,1-.09.36s-.06.05-.06.07v.44h0l.39-.41s0-.05,0-.08a1.7,1.7,0,0,0-.24-.73,2.12,2.12,0,0,1-.14-1.93,1.18,1.18,0,0,1,.11-.19,1.09,1.09,0,0,1,.41.58l.46-.74a4.4,4.4,0,0,1,.42,1.44.77.77,0,0,0,.14-.34c0-.34,0-.69,0-1l-.08,0a.24.24,0,0,1-.14-.32.25.25,0,0,1,.33-.13.26.26,0,0,1,.11.34s0,.06,0,.09,0,.3.07.46a.15.15,0,0,0,.06-.1c0-.15.08-.3.11-.45a.49.49,0,0,0-.28-.6,2,2,0,0,1-1-1.32C57.24,8.85,57.21,8.65,57.16,8.45Zm-4.28,0v.09L53,9.6a.4.4,0,0,0,.09.22l2,2.41a.41.41,0,0,1,.05.09l0,0V8.44c-.26,0-.37.24-.58.31v-.3Zm-.77,0H50c-.14,0-.14,0-.14.14v3.56s0,.07,0,.13l.05,0,2-2.35a.18.18,0,0,0,0-.09L52,9C52,8.84,52.08,8.65,52.11,8.44Zm.43,4.78H55a.12.12,0,0,0,.09-.05.74.74,0,0,0,.16-.54.41.41,0,0,1,0-.11.25.25,0,0,0-.07-.2c-.69-.8-1.38-1.6-2.06-2.41l-.07-.06Zm-.07,0L51.91,9.9l0,0-2,2.38a.21.21,0,0,0-.05.15c0,.21,0,.41,0,.61s0,.14.15.14h2.5Zm5.19-2s0,0,0,.05l-.39.67a.25.25,0,0,0,0,.13,2.92,2.92,0,0,0,.11,1.31s0,.05,0,.07h0l0-.11A2.91,2.91,0,0,1,57.14,12a.83.83,0,0,0-.17-.54.67.67,0,0,0-.16-.18.31.31,0,0,0-.05.1,2,2,0,0,0,.09,1.88,1.58,1.58,0,0,1,.23.59c0,.06,0,.11,0,.19a1.31,1.31,0,0,0,.12-.15l.65-1a.76.76,0,0,0,.11-.55A4.47,4.47,0,0,0,57.66,11.19Zm.45-4.12s0,0,0,0A1.08,1.08,0,0,1,58,6.29a.18.18,0,0,0,0-.11,3,3,0,0,0-.25-.25.17.17,0,0,1,0-.17.88.88,0,0,0,0-.28A.91.91,0,0,0,57.49,5a1.1,1.1,0,0,0-1.23-.34l.07.11.3.48a1.27,1.27,0,0,0,.87.61h0a1.34,1.34,0,0,1,.35.6c-.39-.12-.73-.42-1.18-.3l.11.09a.64.64,0,0,1,.29.46.56.56,0,0,0,.39.46,6.61,6.61,0,0,0,.76.22l0,0L57.92,7a.19.19,0,0,0-.17-.08l-.21,0v0l.22,0c-.13-.17-.13-.17-.31-.17h-.2v0h.28v0l-.17-.07-.22-.08,0,0,.21.08-.06-.12,0,0,.48.48a.26.26,0,0,0,0-.15V6.56h0C57.91,6.75,57.87,7,58.11,7.07Zm0,8.62,0,0,0,0a3.26,3.26,0,0,0-1.33-.36,2.22,2.22,0,0,0-.88.16,2,2,0,0,1-.59.23,1,1,0,0,0-.44.19l-.53.31a.21.21,0,0,1-.11,0l-.69.11-.5.07a.16.16,0,0,0,.09,0c.23,0,.47,0,.7-.06A3.57,3.57,0,0,0,55,15.92a1,1,0,0,1,.51-.13,1.43,1.43,0,0,1,.81.22,1.42,1.42,0,0,0,1,.22A1.49,1.49,0,0,0,58.16,15.69Zm1.24-2.36v0h-.07l-.18-.11a.17.17,0,0,0-.1,0l-.31.12.31.18,0,0-.1-.05c-.29-.16-.37-.18-.61,0a1.41,1.41,0,0,0-.18.17l-.07,0,0,0,.23-.18,0,0-.4,0s0,0,0,0l-.35.5L57.7,14a5.56,5.56,0,0,1,1.22-.13,1.3,1.3,0,0,0,.7-.17,1.87,1.87,0,0,0,.6-.9l-.33,0a.4.4,0,0,0-.44.26l.48-.13v0l-.06,0-.45.11-.3.09Zm-.65-4.86h0c0-.21-.07-.42-.11-.63a.2.2,0,0,1,.05-.18,1.73,1.73,0,0,0,.48-1,1.32,1.32,0,0,0-.09-.65l-.48.47a1,1,0,0,0-.41-.69c0,.13-.09.25-.12.38a1,1,0,0,0,.07.74c.07.14.14.29.22.43a.52.52,0,0,1,.09.32.11.11,0,0,0,0,.06,1.2,1.2,0,0,1,.2.9.54.54,0,0,0,.13.39,1.09,1.09,0,0,0,0-.18.73.73,0,0,1,.1-.52L59,8l0,0Zm.82,4.3v0l-.38,0c-.17,0-.34,0-.51,0a.15.15,0,0,0-.11.06,3.61,3.61,0,0,0-.25.3s0,0-.06,0c.09-.22.31-.36.36-.61l-.34-.08c.06-.19.13-.37.19-.55a.38.38,0,0,0,0-.15h0s0,.08,0,.12c-.09.27-.17.53-.25.8,0,.06,0,.11-.11,0a7.7,7.7,0,0,1-1.38,1.91s-.06.07-.08.06-.08.06-.1.14l.52-.35-.08,0a2.27,2.27,0,0,1,.31-.31,1.4,1.4,0,0,0,.28-.32,3,3,0,0,0,.2-.29.21.21,0,0,1,.18-.1,3.77,3.77,0,0,0,1.27-.36A1.26,1.26,0,0,0,59.57,12.77ZM48.72,15c0-.09-.08-.2-.15-.25a5.59,5.59,0,0,0-.66-.41,5.66,5.66,0,0,0-2.43-.5,3.73,3.73,0,0,0-.47,0,2.2,2.2,0,0,0,.37.06,6.17,6.17,0,0,1,2.77,1s.05,0,.08,0Zm1.14.78-.36-.42-.06,0a2.29,2.29,0,0,0-1-.26,6.82,6.82,0,0,0-1.49.18c-.26,0-.51.12-.77.18v0A9.17,9.17,0,0,1,49.86,15.77Zm7.74-6.5v0h.25v0L57.49,9v0a.73.73,0,0,1,.32.15,2.81,2.81,0,0,1,.26.3c0-.14,0-.24-.06-.35s0,0,0,0a2.19,2.19,0,0,1-.64-.34l-.09-.05c0,.17.06.32.1.46a2,2,0,0,0,.93,1.23.67.67,0,0,1,.38.34c0-.11,0-.21,0-.31s0-.1-.08-.14a2.74,2.74,0,0,1-.36-.32.37.37,0,0,0-.17-.13c-.09,0-.18-.07-.27-.1v0l.33.11A.48.48,0,0,0,57.6,9.27Zm-8,8h.05a.67.67,0,0,1,.74-.1.15.15,0,0,0,.11,0l.39-.25.31-.19a.54.54,0,0,0-.6-.22c-.31.06-.63.1-.94.15a2.42,2.42,0,0,1-.27,0,.53.53,0,0,0,.5.24c-.06.07-.13.12-.17.18A1,1,0,0,0,49.62,17.24Zm9.31-7.09a1.23,1.23,0,0,0,.73-1.77l-.22.27L59,9.24a.18.18,0,0,0-.05.2c0,.16,0,.33,0,.5A1.48,1.48,0,0,1,58.93,10.15Zm-3.48,6.44a2.6,2.6,0,0,1-.28,0c-.31-.05-.62-.09-.93-.15a.51.51,0,0,0-.57.19l.76.47s.06,0,.09,0a.64.64,0,0,1,.61.09l.09.06c0-.2-.15-.3-.27-.42A.54.54,0,0,0,55.45,16.59Zm3.43-5.9.1,0,.53-.29a2.09,2.09,0,0,0,1-1.19,2.56,2.56,0,0,0-.39,0,.47.47,0,0,0-.4.3,1.12,1.12,0,0,1-.7.69l-.08,0s0,0,0,.07S58.89,10.54,58.88,10.69Zm-5.63,5.52h.25a.2.2,0,0,0,.2-.1l1-1.35s.05-.06.05-.08,0-.32,0-.48l-.06.07-.52.71c0,.07-.08.17-.13.24a1.3,1.3,0,0,1-.18.23s-.07.05-.09.08Zm-1.57-2.93h-.31a.24.24,0,0,0-.13.07c-.3.41-.61.82-.91,1.24a.15.15,0,0,0,0,.08l.1.37Zm7.13-.7a2.13,2.13,0,0,0,.75.11.24.24,0,0,0,.13-.07,2.39,2.39,0,0,0,.35-.76.49.49,0,0,1,0-.11,2.14,2.14,0,0,0-1,.62h.25C59.12,12.47,58.91,12.37,58.81,12.58ZM48.42,14.15c-.12-.33-.25-.64-.34-1a8.4,8.4,0,0,1-.19-1c0-.33-.06-.66-.08-1,0,0,0,0,0,0a8.22,8.22,0,0,0-.05,1.49,3.44,3.44,0,0,0,.3,1.13.27.27,0,0,0,.08.1A3.14,3.14,0,0,0,48.42,14.15Zm7,1.22,0,0a.82.82,0,0,0,.2-.17,4.8,4.8,0,0,0,.36-.52,1.46,1.46,0,0,0,.16-.39,2.47,2.47,0,0,0,0-.9c0-.15-.07-.3-.1-.47a1.07,1.07,0,0,0-.17.27c-.06.21-.09.43-.15.63a.28.28,0,0,0,.13.34l.05-.76h0v.74l.09-.28h0s0,.07,0,.09-.1.22-.14.33l-.15.46h0l.14-.13,0,0a.5.5,0,0,1-.1.14C55.69,14.94,55.62,15.19,55.47,15.37Zm-6.91-.7,0,0-.09-.35-.06-.06a2.74,2.74,0,0,0-1.35-.47c-.39,0-.79,0-1.19,0l-.07,0A5.1,5.1,0,0,1,48.56,14.67Zm1.71-.1.95-1.29h-.35a.15.15,0,0,0-.1.06l-1,1.37a.15.15,0,0,0,0,.09,3,3,0,0,0,.18.25.84.84,0,0,0,0-.12v-.14a1.05,1.05,0,0,1,.24-.54Zm3.2-1.28a2.42,2.42,0,0,1-.27,0,.15.15,0,0,0-.17.09l-.47.63-.49.68.16,0a.21.21,0,0,0,.26-.1c.22-.32.46-.63.69-.94Zm4.89-5.62,0,0s0-.1-.07-.11a2,2,0,0,0-.9-.23.75.75,0,0,1-.52-.18.1.1,0,0,1,0,0l0,0c.16.08.29.24.47.19-.07-.09-.16-.17-.22-.26a.52.52,0,0,0-.44-.24c-.11,0-.13,0-.11.12a.7.7,0,0,0,.42.57,2.29,2.29,0,0,0,.77.15C58,7.61,58.18,7.51,58.36,7.67Zm-4.27,9.67-.63-.41c-.1-.07-.16,0-.22.05l.14,0-.19.23a.24.24,0,0,1-.13.05,2,2,0,0,1-.34,0C53.18,17.76,53.59,17.82,54.09,17.34ZM46.43,12.2a2,2,0,0,0-.19-.26,4,4,0,0,1-.85-1l-.24-.45h0a.09.09,0,0,0,0,0,3.07,3.07,0,0,0,.67,1.32,5.64,5.64,0,0,0,1,.93l-.06-.35A.27.27,0,0,0,46.43,12.2Zm7.47,1.09a1.76,1.76,0,0,1-.23,0,.19.19,0,0,0-.2.1l-.91,1.24-.08.12c.21,0,.4-.06.52-.22l.84-1.14A.64.64,0,0,0,53.9,13.29Zm4.35-4.2v0l.19.1-.35-.56,0,.05a.17.17,0,0,1,0,.07,3.41,3.41,0,0,0,.11.85.67.67,0,0,0,.37.5.32.32,0,0,1,.19.37.31.31,0,0,0,0,.1l0,.36a.68.68,0,0,0,.15-.5,1.26,1.26,0,0,0-.62-1.07l0,0a1.81,1.81,0,0,1,.34.28C58.58,9.32,58.4,9.22,58.25,9.09ZM53,13.29a1.91,1.91,0,0,1-.24,0,.2.2,0,0,0-.21.11l-.76,1-.05.08.14.1c.07.05.12.05.18,0,.27-.39.55-.76.83-1.14Zm-.45,0h-.34a.15.15,0,0,0-.15.07c-.21.3-.43.59-.64.88l0,.07.32.15ZM52,17.36a.44.44,0,0,1-.15,0c-.05,0-.12,0-.14,0s-.23-.25-.33-.36h.25c-.16-.17-.16-.17-.32-.07a2.26,2.26,0,0,0-.26.16l-.31.23A.78.78,0,0,0,52,17.36Zm2.87-4.07h-.13a.41.41,0,0,0-.46.23c-.18.27-.39.53-.58.79l.27.21Zm-5.21,1.42,1.05-1.43h-.22a.2.2,0,0,0-.21.11l-.65.88c-.15.21-.15.21,0,.41Zm3.45-.27a1,1,0,0,1,.47-.13.13.13,0,0,0,.09-.06l.63-.85.07-.11h-.34a.19.19,0,0,0-.12.07l-.5.67ZM47.43,16.6a12,12,0,0,1,3.68-.34A5.76,5.76,0,0,0,47.43,16.6Zm.06-.1.13,0A6.25,6.25,0,0,1,50,16a5.55,5.55,0,0,1,1.56.27,2.33,2.33,0,0,0,.38.08v0l-.09,0-.74-.2a1.41,1.41,0,0,1-.56-.21h-.06a7.16,7.16,0,0,0-1.73.11A3.6,3.6,0,0,0,47.49,16.5Zm6.24-.33,0,0,.33-.08a.14.14,0,0,0,.1-.07c.21-.27.42-.55.62-.83a.13.13,0,0,0,0-.1c0-.1,0-.2-.08-.33Zm1.65-3.67,0,0s0,0,0-.05c0-1.3,0-2.6,0-3.9,0,0,0-.06,0-.09s0,.06,0,.08v3.81A.47.47,0,0,0,55.38,12.5ZM46.27,7.89c.13-.16.28-.3.11-.52a.25.25,0,0,1,0-.09,4.58,4.58,0,0,1-.16-1.47c0-.07,0-.13,0-.22A3.12,3.12,0,0,0,46.27,7.89ZM54.08,15l.05-.06.62-.84a.67.67,0,0,0,.06-.12c.06-.2.13-.4.19-.6,0,0,0,0,0-.06s-.07,0-.08,0c-.3.39-.59.79-.88,1.19,0,0,0,.05,0,.08S54.06,14.85,54.08,15ZM52.14,8.22H49.91c-.07,0-.09,0-.09.09s0,.08.11.08H52C52.13,8.38,52.13,8.38,52.14,8.22Zm-6.72,4.4,0,.05c.06.05.11.13.18.16l1.28.71.25.13L47,13.34a.23.23,0,0,0-.11-.11l-.77-.34C45.86,12.79,45.64,12.71,45.42,12.62Zm4.07,1.79.82-1.13H50a.18.18,0,0,0-.09.06c-.17.23-.34.45-.5.68a.08.08,0,0,0,0,.08C49.39,14.2,49.43,14.29,49.49,14.41Zm-2.56-3.13v.09c0,.35,0,.7.07,1.05a3.49,3.49,0,0,0,.41,1.24c.07.13.18.15.33.17l-.1-.14a3,3,0,0,1-.44-.92,6.13,6.13,0,0,1-.14-1.35C47.06,11.33,47,11.28,46.93,11.28Zm8.74-3.07c0,.17,0,.17.12.17h2c0-.17,0-.17-.15-.17h-2Zm-3.18,7.11v0l.34-.06a.29.29,0,0,0,.18-.12l.52-.72a.35.35,0,0,0,.06-.09h-.13a.89.89,0,0,0-.5.3A7.62,7.62,0,0,0,52.49,15.32Zm3.07-2.61h0V8.58a.27.27,0,0,0,0-.09.45.45,0,0,0-.07-.07.32.32,0,0,0,0,.07c0,1.36,0,2.73,0,4.09A.5.5,0,0,0,55.56,12.71Zm-3.12,4.23c0,.16.13.25.27.25a.49.49,0,0,0,.36-.17c-.19-.09-.4-.13-.46-.34h-.37c0,.22-.22.29-.4.36C52,17.27,52.24,17.24,52.44,16.94Zm-6.13-6.39c0-.14.06-.24,0-.33a1.31,1.31,0,0,1-.22-.25,4,4,0,0,1-.59-1.4c-.06-.2-.11-.4-.16-.6h0c0,.24.06.49.11.73a3.52,3.52,0,0,0,.71,1.63C46.16,10.41,46.23,10.47,46.31,10.55Zm9.36-2.4h2s.06-.05.11-.08l.21.15,0-.21H55.77C55.67,8,55.64,8.05,55.67,8.15Zm-5.83,0h2.21c.12,0,.13,0,.11-.15H49.93C49.82,8,49.81,8.06,49.84,8.16Zm1.83,6.36-.2-.11a.15.15,0,0,0-.21.07,5,5,0,0,1-.34.46.3.3,0,0,0,.12.44Zm1.69.86.06-.07c.16-.22.31-.43.48-.65a.1.1,0,0,0,0-.16.27.27,0,0,0-.08-.07c-.07,0-.12,0-.18,0l-.52.71a.56.56,0,0,0-.05.08C53.17,15.27,53.32,15.19,53.36,15.38Zm-3.69-3h0a.84.84,0,0,0,.05-.2V8.51l-.05-.07a.35.35,0,0,1,0,.08v3.91ZM55.12,8H52.83c0,.13,0,.14.1.14h1.9A.44.44,0,0,0,55.12,8ZM47.7,11.45h0l0,.1A3.94,3.94,0,0,0,47.55,13a2.49,2.49,0,0,0,.14.6.35.35,0,0,0,.3.28A4.62,4.62,0,0,1,47.7,11.45ZM47,8.38H48.7c.13,0,.2-.09.28-.18H47.15C47,8.21,47,8.27,47,8.38Zm1.7,4.68h0c0,.23,0,.46,0,.69A3.25,3.25,0,0,0,49,14.9a.51.51,0,0,0,.42.3A5.09,5.09,0,0,1,48.65,13.06Zm-3.51-.76a.76.76,0,0,0,.42.33c.4.14.8.32,1.19.49l.15.06c0-.08,0-.14-.06-.19s-.07-.14-.17-.17l-1-.32Zm7.71-4.08c0,.16,0,.16.15.16h1.52c.13,0,.21-.08.32-.17Zm-1.51,7.34.63-.84-.26-.16-.63.87Zm-5.21-6.3c0-.12.08-.23.1-.34s0-.12-.09-.13S46,8.73,46,8.58a.66.66,0,0,0,0-.14,3.48,3.48,0,0,1-.31-1.52.28.28,0,0,0,0-.09A3.83,3.83,0,0,0,46.13,9.26ZM49.28,8h-2c-.11,0-.16,0-.19.15H49A.38.38,0,0,0,49.28,8Zm.94,7.82A4.65,4.65,0,0,1,49.06,14a1.29,1.29,0,0,0,.1.62,3.87,3.87,0,0,0,.75,1.08A.27.27,0,0,0,50.22,15.83ZM58.1,8.37c-.05.1,0,.15.07.22a4.11,4.11,0,0,1,.5.92l0,0,0-.21h.05a1.56,1.56,0,0,0,0,.37,2.19,2.19,0,0,0,.11.4A1.73,1.73,0,0,0,58.1,8.37ZM46.29,10.88c.06-.18.05-.24-.08-.34a2.09,2.09,0,0,1-.28-.22,4,4,0,0,1-.87-1.24L45,9l0,0A4.33,4.33,0,0,0,46.29,10.88Zm3.18,1.78h.05a1.1,1.1,0,0,0,0-.16V8.58a.74.74,0,0,0,0-.14.7.7,0,0,0,0,.14c0,1.32,0,2.64,0,4Zm4.7,4.71c.1.11.2.2.28.3a.27.27,0,0,0,.26.1l.29,0h.11v0l-.64-.49h-.06Zm-6.82-3.63c-.1-.28-.22-.55-.3-.83s-.12-.57-.18-.86c-.12,0-.12,0-.11.14a4,4,0,0,0,.36,1.4A.23.23,0,0,0,47.35,13.74Zm-.68-6.39a.17.17,0,0,0,.09-.18,5,5,0,0,1,.17-1.8.14.14,0,0,0,0-.07.07.07,0,0,0,0,.06,3.57,3.57,0,0,0-.34,1.25A1.13,1.13,0,0,0,46.67,7.35ZM54,14.68l-.75,1,0,0c.23-.14.5-.21.67-.47A.69.69,0,0,0,54,14.68Zm4.32-6.85a1.07,1.07,0,0,1,.26.72.47.47,0,0,0,0,.16.93.93,0,0,0-.36-1.06c0,.2-.07.4-.1.59a.09.09,0,0,0,0,.06l.35.29a2.91,2.91,0,0,0,0-.32s-.05,0-.08-.06a.58.58,0,0,0-.14,0v0h.16C58.38,8,58.27,8,58.28,7.83ZM52.8,11.15,53,9.8l-.47.27.35.26-.32.25.26.23-.26.19ZM47,8.11a2.78,2.78,0,0,0-.6,1,.55.55,0,0,0,0,.38v0h-.07c-.05.11,0,.16.16.27a2.92,2.92,0,0,0,.1-.4,2.7,2.7,0,0,1,.27-.93Zm2.75,7.77v-.05a7.25,7.25,0,0,0-2.92-.36l1.27.11a5.49,5.49,0,0,1,1.21.22C49.48,15.84,49.63,15.85,49.77,15.88ZM53,9.71V9.63c0-.36-.1-.72-.16-1.09,0-.1-.06-.13-.16-.08a.46.46,0,0,0-.1.07l.26.18-.26.23.32.25-.35.27ZM52,9.8l.23,1.37L52.4,11l-.26-.19.26-.23-.33-.25.35-.26Zm-4.49-3-.64.72a.72.72,0,0,0-.12.25c0,.11-.07.22-.1.33s-.21,0-.28.24c0,.05,0,.11.08.19Zm9.47-1.07c-.13-.16-.25-.31-.36-.47s-.14-.23-.22-.33a.14.14,0,0,0-.11,0,.07.07,0,0,0,0,0,.78.78,0,0,0,.45.74A.92.92,0,0,0,56.93,5.75ZM54.41,17.14l-.77-.43a.11.11,0,0,0-.08,0l-.14.11.68.48h.07Zm-9-6.38,0,0a3.72,3.72,0,0,0,.94,1.15,1.27,1.27,0,0,0,0-.28.14.14,0,0,0-.05-.11L45.68,11A1.73,1.73,0,0,1,45.42,10.76ZM48.55,13a3.58,3.58,0,0,0,.18,1.92c0,.12.12.15.24.16A4.3,4.3,0,0,1,48.55,13Zm-2.27-1.87a.14.14,0,0,0,0-.19c-.09-.07-.18-.16-.27-.24A4.37,4.37,0,0,1,45,9.26L45,9.16h0a.42.42,0,0,0,0,.12c.16.33.32.67.51,1a5.75,5.75,0,0,0,.55.67A1.46,1.46,0,0,0,46.28,11.11Zm3.55,2.18c-.22,0-.42,0-.52.18a.78.78,0,0,1-.1.15.13.13,0,0,0,0,.08c0,.1.08.19.12.31Zm-2.54-1.44h0a2.52,2.52,0,0,0-.08.53,2.24,2.24,0,0,0,.27.9.35.35,0,0,0,0,.08.72.72,0,0,0,0-.21,3.11,3.11,0,0,0-.13-.8A2.61,2.61,0,0,1,47.29,11.85ZM46.12,10c0-.15,0-.29,0-.43a.15.15,0,0,0,0-.07,4.15,4.15,0,0,1-.55-1,.54.54,0,0,1-.05-.11A4,4,0,0,0,46.12,10ZM54.27,16l0,0a1.72,1.72,0,0,0,.73-.49s0-.06,0-.07-.11-.16-.17-.25ZM52.8,7.86c0,.11.05.09.11.09h2.31s0,0,0,0a0,0,0,0,0,0,0,.27.27,0,0,0-.09,0H52.8ZM48.55,4.59A2.39,2.39,0,0,0,47.27,6a.55.55,0,0,0,.17-.17,2.09,2.09,0,0,1,.43-.58Zm3.51,10.72.22,0a.19.19,0,0,0,.19-.09,3.21,3.21,0,0,1,.21-.3l.17-.22-.38.07a.07.07,0,0,0-.06,0ZM47,9.09,47,9.14a3,3,0,0,0-.33.86,2.68,2.68,0,0,0,0,.4s0,.11,0,.12-.09.06-.07.11.07.06.1.08c0-.22.07-.44.12-.65A3.73,3.73,0,0,1,47,9.45.38.38,0,0,0,47,9.09Zm1.3-4.47h0l0,0A3,3,0,0,0,47,5.92a1.44,1.44,0,0,0-.07.36h0a.89.89,0,0,0,.23-.36,2.13,2.13,0,0,1,.75-1Zm6.74,9.64.09-.23s.05-.07.06-.07.07,0,.08-.06a1,1,0,0,1,.31-.5s0-.07,0-.1-.18,0-.23,0A1.05,1.05,0,0,0,55.07,14.26Zm3-6.37,0,0H55.93s-.09,0-.13.06V8H58Zm-.91.55v0a3,3,0,0,0,.8.44c0-.15-.08-.29-.12-.43a.08.08,0,0,0-.06,0Zm-1.88,6c.28-.28.5-.74.37-1A1,1,0,0,0,55.32,14.48ZM52,9.69h0l.43-.24-.35-.27.33-.25-.28-.23Zm-5.7-3.95a3.44,3.44,0,0,0,.26,1.79c.07,0,.08-.09,0-.15a.51.51,0,0,1-.07-.17l-.06-.42C46.37,6.44,46.32,6.09,46.26,5.74Zm3.56,12v0h.45l0,0,.34-.36-.11-.08s-.1,0-.12,0ZM50,7.91V8h2.14c.06,0,.09,0,.07-.09H50.11S50,7.9,50,7.91Zm-2.76,0,0,0h2.08a.19.19,0,0,0,.1,0s0,0-.07,0h-2A.31.31,0,0,0,47.21,7.91Zm4.44,7.34.3,0a.06.06,0,0,0,.07,0l.33-.45-.28-.06s-.06,0-.07,0Zm1.24,1a.32.32,0,0,0,.41-.16,1,1,0,0,1,.15-.21l.17-.24,0,0a1.31,1.31,0,0,0-.68.5A.61.61,0,0,0,52.89,16.22ZM48.09,5.75v0l-.07,0a3,3,0,0,0-.94.72c-.14.13-.1.27-.08.43A3.11,3.11,0,0,1,48.09,5.75ZM51.45,16.8c-.08,0-.16-.1-.2-.08-.24.14-.47.3-.71.45v0l.16.11Zm1.44-1.44c-.45,0-.45,0-.69.36,0,0,0,0,0,.06s0,0,0,0l.4,0,.05,0Zm6.58-3.46a3.27,3.27,0,0,0-1.06.59l.19,0,.06-.12,0,.15ZM49.39,14.61v0l0,.11a6,6,0,0,0,.84,1.05s.1,0,.15,0v0Zm-3.93-1.29h0a.3.3,0,0,0,0-.1,2.64,2.64,0,0,0-.51-.81c-.07-.08-.13-.09-.2,0ZM47,8.75a1.68,1.68,0,0,0-.37,1.16l0-.1c.11-.25.21-.51.33-.76A.35.35,0,0,0,47,8.75Zm4.57,8.07c.22.21.2.2.43.1l.14-.11a.26.26,0,0,0,.06-.13c0-.06,0-.09-.08-.07Zm4-2.53h0l-.16.21a.39.39,0,0,0-.1.3,1.15,1.15,0,0,1-.14.63c0,.07,0,.1.06.11Zm-4.79,1.43.19-.26-.2-.33-.19.27s0,0,0,.06A2.77,2.77,0,0,0,50.79,15.72ZM46,8.38a.24.24,0,0,0,0-.27,2.32,2.32,0,0,1-.16-.44c0-.22-.09-.44-.14-.66A3,3,0,0,0,46,8.38Zm5.34,7.26-.25.34.27.08s0,0,.06,0l.19-.26Zm2.15,1a1.11,1.11,0,0,0-.68-.16s-.06.05-.1.07l.59.22s0,0,.05,0Zm-2.21-1a1.27,1.27,0,0,0-.23-.12s0,0-.06,0-.12.16-.19.25l.23.18a.34.34,0,0,0,.06-.06Zm-1.15-.28.15-.2a.13.13,0,0,0,0-.09l-.09-.31C50,14.93,50,15.15,50.16,15.34Zm2.48.45c0,.08.08.05.12,0a1.1,1.1,0,0,1,.45-.35s.06,0,.06,0a.1.1,0,0,0,0-.08.34.34,0,0,0-.31,0Zm3-1.25h0l-.26.88h0c.11-.16.21-.32.31-.48a.19.19,0,0,0,0-.07C55.67,14.76,55.64,14.65,55.62,14.54Zm-4.26,2.11c.1.14.12.15.25.09l.26-.11.22-.08a.19.19,0,0,0-.23-.09A5.1,5.1,0,0,0,51.36,16.65Zm.73-.87.26-.36c-.36-.06-.38-.06-.48.18ZM58,10.86a.18.18,0,0,0,.16.18.36.36,0,0,0,.21-.19.18.18,0,0,0-.19-.18A.19.19,0,0,0,58,10.86ZM52.1,9.71h.74a3.13,3.13,0,0,0-.34-.21h0Zm-5.74,1.92a2.66,2.66,0,0,0,0,.35.14.14,0,0,0,.27,0,.3.3,0,0,0,0-.21A1.14,1.14,0,0,0,46.36,11.63Zm6.94,5.2-.6-.2,0,0a.3.3,0,0,0,.07.11,1.14,1.14,0,0,0,.23.15C53.14,17,53.14,17,53.3,16.83Zm-1.19-7v0l.34.19h.05l.37-.2v0Zm-6.56,3.48a1.51,1.51,0,0,0-.54-1l-.08,0,0,0A3,3,0,0,1,45.55,13.27ZM59.07,8a.16.16,0,0,0,.21-.1.15.15,0,0,0,0-.2.18.18,0,0,0-.22,0,.18.18,0,0,0-.1.18l.17,0Zm-.78,4a1.13,1.13,0,0,0,0-.92A2,2,0,0,0,58.29,12Zm-1.66,2a.18.18,0,0,0,.12-.21.17.17,0,0,0-.16-.15.18.18,0,0,0-.19.11.15.15,0,0,0,0,.19l.17-.07ZM55,14.5a.41.41,0,0,0-.07.56A.4.4,0,0,0,55,14.5Zm.75-.38a.84.84,0,0,0,0,.66C55.87,14.47,55.92,14.23,55.72,14.12Zm-9.17-3v.44c0,.1,0,.15.15.16,0-.15,0-.3,0-.44S46.66,11.14,46.55,11.13Zm6.72,4.39a.73.73,0,0,0-.43.27c-.1.12-.1.13,0,.23Zm4.56-.85a.18.18,0,0,0,.19.06.17.17,0,0,0,.13-.19.16.16,0,0,0-.14-.17.17.17,0,0,0-.2.09l.16,0Zm1.36-3.53a.18.18,0,0,0,.26,0,.19.19,0,0,0,0-.25.18.18,0,0,0-.25,0s.06,0,.06,0S59.3,11.08,59.19,11.14Zm-4.11,4.28c.15-.22.14-.31,0-.48C54.89,15.16,54.89,15.26,55.08,15.42ZM46.19,9.58l0,0c0,.11,0,.23.07.35a.13.13,0,0,0,.17.08.22.22,0,0,0,0-.22Zm.3-.89.72-1A1.9,1.9,0,0,0,46.49,8.69Zm5.6,8.58a1.08,1.08,0,0,1-.24-.13.31.31,0,0,0-.32,0C51.72,17.36,51.84,17.39,52.09,17.27Zm-5-12.09a3.14,3.14,0,0,0-.26,1.34Zm4.6,10.64-.19.27.23.05c.08,0,.12,0,.16-.08s0-.09-.05-.12Zm-.8-.91.37-.51C51,14.38,50.85,14.58,50.88,14.91Zm4.37-.79a.62.62,0,0,0-.11.65c0-.08.1-.14.1-.21A3.23,3.23,0,0,0,55.25,14.12ZM55,13.85c-.21.12-.24.55-.2.72.09-.08.15-.17.06-.29s0-.06,0-.09h0l.08.13ZM46.14,8.32c-.12.14,0,.26,0,.37s.08,0,.12.05.11-.1,0-.18ZM47.21,11h0a3.11,3.11,0,0,1-.22-.4,1.4,1.4,0,0,1-.09-.29s0,0,0-.07a.18.18,0,0,0,0,.09,1.84,1.84,0,0,0,.15.43A1.13,1.13,0,0,0,47.21,11Zm5.42,4.9s-.05,0-.06,0a1.44,1.44,0,0,0-.18.25s0,.1,0,.1a.67.67,0,0,0,.2,0s0-.06,0-.1A2.42,2.42,0,0,0,52.63,15.88ZM46.3,8c.09.06.15.06.19,0s.1-.17.16-.25,0-.11,0-.15Zm4.07,7.63c.14-.17.14-.25,0-.41l-.16.22ZM47,10.22c0,.25.15.64.41.72a.89.89,0,0,1-.28-.72Zm2.8,2.27h0s-.06.07-.06.1c0,.2,0,.39,0,.58,0,0,0,0,.06.05l0-.05Zm-.83-4.12c.26.05.43,0,.46-.15A.43.43,0,0,0,48.94,8.37Zm.44,4.9-.31,0,.06.27h0l.16-.21Zm5.86-5a.39.39,0,0,0-.46.14C55,8.42,55.17,8.37,55.24,8.23Zm-2.53.94v0L52.51,9a.06.06,0,0,0-.06,0l-.22.17v0Zm-6.35,1.94c.09,0,.13,0,.13-.11s0-.14,0-.21,0-.13-.13-.15Zm.12.51v-.46c-.11,0-.13.05-.12.14a.86.86,0,0,1,0,.16C46.35,11.55,46.4,11.59,46.48,11.62Zm5.33,3.93.15-.21-.3,0s-.06,0-.09,0,0,.06.06.08Zm.9-5.25v0l-.21-.15a.06.06,0,0,0-.06,0l-.21.15v0Zm0,.07h-.49c.19.22.22.22.43.06C52.68,10.41,52.7,10.4,52.73,10.37Zm-3.61,2.85h.25s0,0,.05-.05V12.9h0Zm-2.68-3.11,0,.42h0s.09,0,.09-.07a3.18,3.18,0,0,0,.06-.43C46.54,10.09,46.54,10.16,46.44,10.11Zm4.31,5.65-.22-.28-.12.16.22.17C50.69,15.85,50.73,15.82,50.75,15.76Zm1.19.2.11-.14-.23-.18-.09.13Zm-.53-.37.26.14.1-.13-.26-.15Zm1.32-6.35h-.5l.21.15a.09.09,0,0,0,.07,0Zm-.2-2.8h0l-.08.49h.18Zm-.2,9.67.19-.26v0l-.31.07ZM47.41,6h0c.12-.08.24-.16.37-.23s.25-.12.37-.18a1.45,1.45,0,0,0-.69.31S47.43,6,47.41,6Zm-.72,5.07c0-.33,0-.31-.12-.35s0,.14,0,.2S46.59,11.08,46.69,11.09Zm3.13-3.3c.27,0,.31,0,.24-.25C50,7.62,49.84,7.64,49.82,7.79Zm8,.41.14.46s0,0,0-.05a1.09,1.09,0,0,0,0-.18C58,8.28,58,8.27,57.85,8.2Zm-5.37,2.4-.22.18h.43ZM46.75,12l0,0s.09-.07.09-.1-.06-.34-.1-.52h0Zm3.42,2.43a.53.53,0,0,0-.13.43C50.24,14.62,50.24,14.66,50.17,14.43Zm5-1.13a1.61,1.61,0,0,0-.24.55C55.09,13.7,55.09,13.49,55.13,13.3ZM47.46,6.74l0,0c-.14.12-.29.24-.42.37s0,.08,0,.12h0Zm10.45-1A.11.11,0,0,0,58,5.57a.19.19,0,0,0-.11-.12.11.11,0,0,0-.14.06ZM55.65,7.79c.26,0,.31,0,.24-.25C55.81,7.62,55.67,7.63,55.65,7.79ZM57,14.57h.67v0a.05.05,0,0,0,0,0h-.56S57.06,14.55,57,14.57ZM52.66,8.75H52.3C52.43,9,52.52,9,52.66,8.75Zm-.49,7.19h0c0,.06-.08.11-.08.16s.08.08.12.12a.08.08,0,0,0,.07,0s0-.06,0-.07Zm3.51-3h0v.24a.06.06,0,0,0,.05.05l.14-.05a.23.23,0,0,0,0-.07ZM52.4,8.52s-.07-.07-.11-.07-.11,0-.12,0a.68.68,0,0,0,0,.23Zm-6-.43v0s-.12,0-.14,0-.12.17,0,.26Zm9,4.77h0a3,3,0,0,0,0,.31l0,0,.06,0A.55.55,0,0,0,55.37,12.86Zm-1.62,3.59-.44,0C53.56,16.63,53.62,16.62,53.75,16.45ZM47.21,9.38h0l.1-.66s-.08,0-.09.07,0,.08,0,.12S47.21,9.22,47.21,9.38ZM47,10.85a.39.39,0,0,0,.1.39C47,11.09,47.15,10.94,47,10.85Zm-2.21-2,0,0,.06.47h0c0-.15,0-.29,0-.43S44.77,8.91,44.75,8.89Zm8.17,8.33c.17.06.25,0,.32-.16C53.13,17,53.1,17.06,52.92,17.22ZM59,11.05c-.24.12-.27.13-.24.26C59.05,11.19,59.09,11.15,59,11.05ZM52.49,13h0l0-.36h-.14Zm-3.07,1.49c0-.13-.08-.23-.13-.35C49.21,14.24,49.26,14.36,49.42,14.49ZM51,16l-.21-.17s0,0-.06,0a.29.29,0,0,0,0,.1C50.83,16,50.91,16.06,51,16Zm1.28-4.85h.35C52.45,11,52.5,11,52.32,11.16Zm4.24,2.91h0l0,.59h0A1.94,1.94,0,0,0,56.56,14.07Zm-7-1.35s-.07.06-.07.08v.38l0,0s0,0,0-.06Zm2.64-1.51.05.28.18-.15Zm2.52-2.76v.2L55,8.47v0Zm-5.83,0v.2l.25-.18v0Zm3.43.23h.35C52.48,8.53,52.45,8.53,52.31,8.68Zm.39,7.58c.15-.14.14-.22,0-.3ZM57.82,6c0-.19,0-.22-.12-.27C57.64,5.87,57.76,5.91,57.82,6Zm-10.53.06L47,6.42A.58.58,0,0,0,47.29,6.06Zm5,5.48,0,.29.14-.12Zm.4-3.23c-.16-.13-.21-.12-.31,0Zm-.34,2.54c.16.15.19.15.33,0Zm.44.63,0-.25-.19.11Zm2.6,1h0v.25l.13,0Zm.16.23c0,.12,0,.23.1.34C55.59,13,55.65,12.85,55.51,12.75Zm-.26,2c-.14.12-.14.13,0,.31ZM46.9,6.61a.35.35,0,0,0,0,.38Zm5.6,4.74-.14.13h.29Zm-5.65-.45.06,0-.09-.31,0,0Zm5.8-3.59-.11.15.16.17ZM46.27,9.38v-.3C46.17,9.24,46.17,9.33,46.27,9.38Zm6.29,2.33.13.13.05-.28Zm6.44,1c-.24-.1-.26-.09-.32,0Zm-6.36-1.16h-.29l.15.13Zm-.13.2-.13.1h.24Zm-.15-3.7c.09.15.14.15.24,0Zm2.56,7.7h0l.26-.15-.09-.06Zm-5.25-8c.12,0,.1-.09.09-.16l0,0a0,0,0,0,0,0,0A.76.76,0,0,0,49.67,7.72Zm2.94,4.21h-.24l.12.13ZM46.94,7.21l0,0-.22.24,0,0C46.79,7.37,46.91,7.33,46.94,7.21Zm8.34.93c.1,0,.14,0,.13-.06s0-.05,0-.07Zm-6.06,0h.19V8Zm6.3-.44h0l0-.16-.05,0s0,0,0,0A.66.66,0,0,0,55.52,7.71Zm-.47.44h.19V8Zm-2.53,8.49v-.05l-.25,0v.05Zm2.91-8.4-.06,0-.06.13.07,0Zm-5.64.06-.07-.08s0,0,0,.08,0,0,0,.08Zm-.3,6.23,0,0c0,.1.11.16.17.23h0Zm6-6.24.07.09s0-.05,0-.08,0-.06,0-.08Zm3.3,2.77h0l-.12,0,0,.11,0,0ZM52.48,7.48l-.11.12h.22Zm2.93.31V7.64h0l-.1.16ZM52.57,7.3H52.4l.08.13.06-.08S52.55,7.32,52.57,7.3Zm-.2,3.93c.14.11.16.11.25,0Zm3,2.07c-.13,0-.13,0-.16.21ZM52.4,12.23h.18l-.09-.15ZM49.2,14.1h0c0-.11-.05-.18-.07-.27h0ZM47.12,9.19h0l0-.27h0ZM52.75,8l-.15.13h.16Zm-5.91,2.92c-.06.14-.05.19,0,.24Zm.35-2.22h-.14l.1.15h0Zm5.43,3.45h0l0-.17h0l-.09.08Zm-.06-4.38h.16l0-.15Zm-5.64-.68-.1-.1V7.2Zm4.54,9v0l.28.07v0Z"/><path class="cls-1" d="M19,2.23c-.26-.1-.51-.21-.77-.3a5.33,5.33,0,0,0-2-.34,1.88,1.88,0,0,0-1.47.66,1.62,1.62,0,0,0,0,2,2.92,2.92,0,0,0,1,.81l1.76,1A8,8,0,0,1,19,7.08l.06,0v-.5c.35-.06.58,0,.65.22a.61.61,0,0,1-.25.79,5.46,5.46,0,0,1,.19.66,3.26,3.26,0,0,1-.4,2.44,3,3,0,0,1-1.55,1.15,5.7,5.7,0,0,1-1.47.28,9.43,9.43,0,0,1-2.8-.28c-.11,0-.15-.08-.14-.19V10.47l.11,0a7.65,7.65,0,0,0,1.85.64A3.27,3.27,0,0,0,17.17,11a1.72,1.72,0,0,0,1.12-1.46,2,2,0,0,0-.77-1.88.24.24,0,0,0-.16,0,.35.35,0,0,1-.44-.26c0-.15-.14-.19-.27-.25v.48c-.11,0-.11,0-.11-.06s0-.23,0-.34A.19.19,0,0,0,16.4,7l-.07,0-.22.19c.22.09.15.32.23.48-.09,0-.13,0-.13-.06s0-.11,0-.16c-.05-.2-.1-.24-.32-.21v.45h-.12V7.35c0-.21,0-.42,0-.63a.13.13,0,0,0-.09-.13,8.58,8.58,0,0,1-1.24-.73,2.92,2.92,0,0,1-1-1.2,3.16,3.16,0,0,1-.2-1,3.26,3.26,0,0,1,.16-1.2A2.44,2.44,0,0,1,14.65,1.1,4.27,4.27,0,0,1,16.22.71,10.89,10.89,0,0,1,18.89,1c.05,0,.1,0,.1.1,0,.38,0,.76,0,1.15A0,0,0,0,1,19,2.23Zm.21,4.45c0,.11,0,.22,0,.32a.66.66,0,0,0,.14.47c.06.07.11.08.17,0a.39.39,0,0,0,.12-.19.86.86,0,0,0,0-.32C19.58,6.72,19.46,6.64,19.18,6.68Zm-3.33.45A1.71,1.71,0,0,0,16.12,7c.06,0,.11-.12.05-.17s-.21-.11-.32-.18ZM17,7.35c0,.2.15.27.31.21Z"/><path class="cls-1" d="M4.58,6.68v.38h.29l.06,0-.06,0H4.58v.41h.3s0,0,.08,0,0,0-.07,0H4.47v-1H4.19c0,.19,0,.37,0,.56a1,1,0,0,1,0,.24c0,.14-.14.2-.32.2s-.28-.07-.3-.21a4.18,4.18,0,0,1,0-.5v-.1c0-.23,0-.23-.24-.19l.06.11,0,.1c-.09,0-.13,0-.15-.06a.15.15,0,0,0-.14-.14.22.22,0,0,0-.22.1.82.82,0,0,0,0,.73.27.27,0,0,0,.31.08l.11,0c0,.07,0,.09-.06.1-.3.11-.54,0-.57-.4a.64.64,0,0,1,.15-.56c-.14,0-.35,0-.39,0l-.23,0c-.09,0-.16,0-.18.12s0,.15.09.2l.25.14a.26.26,0,0,1,.15.25c0,.12-.06.22-.17.24a1.59,1.59,0,0,1-.38,0s0-.06-.06-.09l.29,0a.17.17,0,0,0,.19-.13.18.18,0,0,0-.08-.22l-.2-.12C1.91,7,1.87,6.87,2,6.65l-.59,0v.38h.29a.09.09,0,0,1,.05,0,.09.09,0,0,1-.05,0H1.42v.41h.3s.05,0,.07,0,0,0-.07,0H1.31a.66.66,0,0,0,0,.14V10.9c0,.13,0,.13.14.13H5.33c.1,0,.13,0,.13.12,0,.25,0,.49,0,.74,0,.07,0,.09-.1.09H.1C0,12,0,12,0,11.89V1C0,.92,0,.87.11.89h5c.14,0,.14,0,.14.13s0,.42,0,.63,0,.13-.12.13H1.49c-.22,0-.19,0-.19.18V5.6c0,.14,0,.14.14.14H5c.1,0,.13,0,.13.13s0,.46,0,.69c0,.06,0,.1-.08.1Zm-.51,0H3.69s-.06,0-.06,0c0,.25,0,.49,0,.74s.1.15.22.15a.18.18,0,0,0,.19-.16C4.08,7.18,4.07,6.92,4.07,6.65Z"/><path class="cls-1" d="M9.91,6.89v5c0,.14,0,.14-.13.14h-1c-.09,0-.12,0-.12-.12,0-1.36,0-2.72,0-4.07a.19.19,0,0,0-.1-.2.4.4,0,0,1-.19-.31.75.75,0,0,1,.05-.49.34.34,0,0,1,.14-.15.16.16,0,0,0,.1-.18V1.92c0-.14,0-.14-.15-.14H6.14c-.1,0-.12,0-.12-.13S6,1.22,6,1s0-.13.13-.13h6.26c.08,0,.1,0,.1.1,0,.23,0,.45,0,.68s0,.11-.12.11H10c-.11,0-.13,0-.13.14v5ZM8.61,6.7c-.14.06-.19.19-.17.47a.43.43,0,0,0,.17.39Z"/><path class="cls-1" d="M50.32,4.38l.15-.19c-.11,0-.18,0-.17-.12a0,0,0,0,0,0,0l-.33-.3c-.08,0-.16,0-.2-.06s0-.11,0-.17-.17-.22-.4-.12l.08-.22c-.08,0-.14-.09-.09-.2s-.14-.11-.09-.21a0,0,0,0,0,0,0,.13.13,0,0,1,0-.2.06.06,0,0,0,0,0c-.08-.09,0-.15,0-.21s-.05-.16.08-.24c0-.09,0-.17.08-.21s0,0,0,0,0-.08,0-.08.14-.1.21-.14l.14-.1a1.52,1.52,0,0,1,.32-.12h.06l.16,0h.07l.06,0,.31.05a.3.3,0,0,0,.13,0c0-.13.06-.18.19-.17s.06-.13.15-.12l.06,0,0,0c.13,0,.24-.08.37,0h0A.29.29,0,0,1,52,1a.76.76,0,0,0,.16.06l.07,0a.77.77,0,0,1,0-.25A.45.45,0,0,1,52.29.6c.11-.1.12-.1.1-.27h-.13V.15h.13l0-.14h.16V.14h.13V.32h-.12c0,.1,0,.2.08.27s.16.23.08.47l.09,0L53,1l.06,0h.38l.09,0,.14,0,.07,0c.11,0,.11,0,.15.12s.2,0,.18.19l.17,0h.2s0,0,0,0,.25-.05.35.06h0c.11-.06.19,0,.27.07l.13.08.06,0a.41.41,0,0,0,.11.07l.06,0s.07,0,.08,0A2.2,2.2,0,0,1,55.7,2s0,0,0,.07.15.11.09.22,0,0,0,0a.13.13,0,0,1,0,.2,0,0,0,0,0,0,0,.14.14,0,0,1-.07.2c.05.1,0,.18,0,.21l-.08.22h0l.1.2s-.08,0-.1,0-.14,0-.21,0-.13.12-.09.23-.05.12-.14.12a.18.18,0,0,0-.1,0c-.1.11-.18.25-.35.28l0,0-.11.15.15.17-.2.07c-.06,0-.09.06-.07.12a.13.13,0,0,1-.11.18,3.36,3.36,0,0,1-.61.14c-.54,0-1.08.06-1.61,0s-.83-.08-1.25-.13l-.16-.05a.16.16,0,0,1-.11-.17.13.13,0,0,0-.11-.17ZM50,3.53c.08.21.3.41.38.36l-.23-.2L50,3.54a.4.4,0,0,1,.11,0c.19,0,.26,0,.3-.25l-.24,0V3.15c-.14,0-.15.13-.15.25-.09-.13-.14-.28-.31-.28l0,0Zm2.37-.64,0,0c-.05-.15-.11-.3-.15-.46s0-.31-.07-.47a2,2,0,0,0-1.06.32l.15.14-.16.32,0,0,.11-.17,0,0,0,.39.24-.13,0,.19.22,0v0l-.17.12.09.13-.31,0a.85.85,0,0,0,.09.14.19.19,0,0,0,.25,0,.18.18,0,0,0,.12-.23.15.15,0,0,1,0-.13.15.15,0,0,1,.13,0,.18.18,0,0,1,0,.13c0,.1.05.13.09.18a.16.16,0,0,0,.2,0,.4.4,0,0,0,.19-.28l-.41,0L52,3.15,51.81,3c.15,0,.25-.09.2-.27Zm.31.38c0,.19.14.3.28.29s.22-.12.19-.2,0-.13,0-.16.12,0,.14,0a.27.27,0,0,1,0,.16s0,.07,0,.09.13.16.23.14a.42.42,0,0,0,.25-.24l-.34,0,.07-.1L53.36,3h.24l0-.2L53.8,3l0-.4,0,0,.12.14h0l-.15-.3.13-.11a1.79,1.79,0,0,0-1.08-.35s0,.05,0,.07a.84.84,0,0,1-.07.54,2.28,2.28,0,0,0-.1.36L53,2.72c0,.17.06.25.2.3-.2.13-.2.13-.17.29ZM50.89,3l-.18-.35.21.07h0s0-.09-.05-.1a.13.13,0,0,1-.1-.16l-.15-.23a1.82,1.82,0,0,0-.87.25l-.11.08c-.05,0-.06.08,0,.11s.05.08,0,.13,0,.15,0,.2l.3.16.27-.12,0,.18h.11c.11,0,.14,0,.11.15a.28.28,0,0,1-.31.22,1.2,1.2,0,0,0,.17.16s.1.05.12,0a.09.09,0,0,0,0-.15.15.15,0,0,1,0-.13.15.15,0,0,1,.13,0,.16.16,0,0,1,.08.1c0,.08,0,.12.08.13a.32.32,0,0,0,.17,0A.32.32,0,0,0,51,3.41l-.35,0,.08-.14-.26-.14.23-.07L50.63,3Zm4.47-.38a1.52,1.52,0,0,0-1.07-.4c0,.15-.16.21-.15.35l0,0,0,.08,0,0,.21-.08L54.1,3l.26-.08-.09.16.23.07-.26.15.08.13L54,3.38c0,.14,0,.27.17.31a.45.45,0,0,0,.23,0s0-.08,0-.12,0-.07,0-.08l.16,0c0-.21,0-.21.23-.22V3.11l.1.07.1.08.09-.1.1-.08c.13-.08.14-.1.09-.25a.59.59,0,0,1,0-.08Zm-1.44-.43a.64.64,0,0,0-.53-.9,1.76,1.76,0,0,0-.45.07c-.23.06-.22.07-.18.31a.13.13,0,0,1,0,.06c0,.08,0,.11.13.11a1.63,1.63,0,0,1,.88.27Zm-2.87,0a2.11,2.11,0,0,1,.83-.29c.1,0,.23,0,.28-.06s.06-.19.07-.3a.08.08,0,0,0,0-.09,1.07,1.07,0,0,0-.61-.13A.64.64,0,0,0,51.05,2.19Zm3.31,0a1.6,1.6,0,0,1,1,.39l0,0s0,0,0,0a.64.64,0,0,0-.24-.64,1,1,0,0,0-.82-.23s0,0-.08.06.1.15,0,.24Zm-4.77.37c.29-.22.34-.24,1-.37l0-.23c-.06-.06-.06-.14.06-.24-.06,0-.09-.06-.14-.06a.6.6,0,0,0-.19,0,.85.85,0,0,0-.8.59A.37.37,0,0,0,49.59,2.56Zm1.94,1.78h1.95l-.18-.23L53.39,4,53.46,4a7.8,7.8,0,0,0-1.93,0l0,0,.2.13Zm-.87.31v0a.7.7,0,0,0,.2.08,7.24,7.24,0,0,0,.92.12,14.42,14.42,0,0,0,1.47,0,8.09,8.09,0,0,0,1-.14s.07,0,.11,0l0,0a2.7,2.7,0,0,1-.39.08c-.34,0-.68.08-1,.09-.55,0-1.09,0-1.63-.05a.72.72,0,0,1-.33-.07A.56.56,0,0,0,50.66,4.65Zm3.65,0v0a7.61,7.61,0,0,0-3.55,0,.62.62,0,0,0,.19,0l.19,0a13.18,13.18,0,0,1,2.35,0,4.17,4.17,0,0,1,.49.08ZM50.83,2s0,.08,0,.12,0,.09.06.12H51a.41.41,0,0,0,0-.11.69.69,0,0,1,.71-.86,2.62,2.62,0,0,1,.54.12h.06V1.33l-.17-.1-.05,0a1.37,1.37,0,0,0-.29-.07.58.58,0,0,0-.26,0c-.08,0-.15.08-.24.11s-.24.22-.36.32,0,0,0,0a.84.84,0,0,0,0,.17Zm-.06,2.25c0,.11-.17.16-.13.27l.8-.16-.22-.21L51.4,4a2.87,2.87,0,0,0-.85.22Zm1.86-1.69a.47.47,0,0,0,.09-.12.66.66,0,0,0,0-.48s0,0-.08-.05h-.26c-.19,0-.21,0-.22.2a.58.58,0,0,0,.17.46c0-.06.08-.11,0-.18a.16.16,0,0,1,0-.15s.12,0,.14,0a.2.2,0,0,1,0,.15C52.55,2.45,52.57,2.5,52.63,2.56Zm.08-1.15A2.55,2.55,0,0,1,53,1.3a1.34,1.34,0,0,1,.35,0,.69.69,0,0,1,.65.66,2.35,2.35,0,0,1,0,.35l.11-.07,0-.22,0-.22-.06-.18L54,1.45l0-.05a2.83,2.83,0,0,0-.28-.2.63.63,0,0,0-.22-.07c-.1,0-.2,0-.3,0l-.24.07a1.4,1.4,0,0,0-.18.12Zm.83,3,.83.16c0-.11-.11-.16-.13-.25l.22-.08v0L53.67,4V4l.13.14ZM49.47,2.79c0-.06.07-.13.06-.19A.76.76,0,0,1,50,1.7a1.17,1.17,0,0,1,.58-.1.29.29,0,0,0,.1,0,.46.46,0,0,0-.36-.05.48.48,0,0,0-.24.06s-.07,0-.09,0a1.84,1.84,0,0,0-.22.17l-.06,0a1.54,1.54,0,0,0-.19.17.51.51,0,0,0-.09.13l-.06.22a.88.88,0,0,0,0,.17v0a1.16,1.16,0,0,1,0,.18h0Zm6.06-.71c-.09,0-.07-.18-.18-.23s-.06-.06-.12-.07,0,0-.06-.05l-.23-.15a.94.94,0,0,0-.15-.06h-.5v.05l.1,0a1.25,1.25,0,0,1,.69.14.74.74,0,0,1,.37.87s0,0,0,0,0,.16,0,.24l0,.12.13-.1a2.05,2.05,0,0,0,.08-.57ZM51.09,4.67a11.83,11.83,0,0,0,2.66,0v0Zm1.15-2.8h.13c0-.07,0-.13.06-.16a.11.11,0,0,1,.11,0,.42.42,0,0,1,.06.15h.13l-.13-.69h-.24a2.35,2.35,0,0,1,0,.27s0,.06,0,.08S52.28,1.74,52.24,1.87Zm-.86,2.7v0h2.35A12.31,12.31,0,0,0,51.38,4.57Zm3.48-1.25-.06,0h-.14a.32.32,0,0,0,0,.17.29.29,0,0,0,.34,0,.77.77,0,0,0,.24-.37l0,0-.2.22-.15-.11Zm-2-.49-.18.1c-.11,0-.11.14-.1.22s.11.06.17.07l.14,0,0-.12L53,3Zm-.81.41.21,0a.35.35,0,0,0,.12-.05A.29.29,0,0,0,52.34,3a1.34,1.34,0,0,0-.23-.13L52,3l.14.1Zm.25-.61.08.3h.17l.08-.3-.09,0-.08-.17-.07.17ZM54,2.72l-.07.09-.08-.06a.92.92,0,0,1,0,.16l0,.15c.11,0,.22-.11.24-.28l-.11,0Zm-.46.38.08.18.19,0,0-.24L53.66,3l0,.12ZM51,3.34l-.11-.21h0l-.17-.06,0,.09-.13,0c0,.08.18.05.15.19ZM51.33,3l-.16.1a.52.52,0,0,1,0,.11c0,.13,0,.13.14.12l.1,0c-.12-.09,0-.1,0-.17h-.14Zm-.18-.21-.09.07L51,2.76l0,.08-.13,0,.15.27C51.16,3.05,51.11,3.09,51.15,2.77Zm3,.58c-.07-.15.12-.09.13-.19l-.12,0,0-.09-.16.06L54,3.33Zm.46.19s0,.07,0,.1a1.16,1.16,0,0,0,0,.18l.12,0c.05,0,.08-.1.13-.16l-.13,0ZM53.54,4c-.2.16-.16.12,0,.32l.14-.17Zm-2.06.32.13-.18L51.46,4l-.14.15Zm1-4.26h0V.19l-.14,0v0l.15,0V.52h0l0-.25.13,0v0l-.13,0Zm-.23.79v0h.41v0l-.17,0,0-.21h0V.8ZM54,3.92a3,3,0,0,0-1-.14Zm-4.38-.87c0-.11.12-.23,0-.36A.32.32,0,0,0,49.58,3.05Zm1.49-.51c.07-.1.07-.1-.08-.28l-.1.1h0Zm4.08,1c.15-.07.2-.27.41-.25,0,0-.06-.06-.07-.05A.51.51,0,0,0,55.15,3.49ZM52.67,1l0-.09h-.48l.07.1C52.37,1,52.55,1,52.67,1ZM54,2.33s0,0-.14.1l0,.09,0,0ZM52.39.76V.59l-.17.17Zm2.1,3.48-.06.19.17-.06ZM52.58,1.1V1.05l-.14,0,0,0,0,0A.75.75,0,0,0,52.58,1.1Zm0-.35h.13v0L52.58.59Zm2.24,3.12,0,0,.2-.25,0,0Z"/><path class="cls-1" d="M53.76,5.62l-.16.25h.52l0-.16.48.27-.48.29,0-.18h-.88l.12-.28h-.3c-.17,0-.25,0-.32-.21l.81,0V5.42l-1,.15V5.35l1.26-.15-.05.2.39-.05V5.14l.55.16-.48.41,0-.17Zm0-.33h0l-1,.11c-.08,0-.07.06,0,.12l.95-.15v.22l.65-.11,0,.12.31-.26-.36-.1V5.4l-.53.07Zm.4.74,0,.14L54.5,6l-.31-.17v.11h-.7l.15-.21-.76,0v0a2.88,2.88,0,0,0,.59,0L53.33,6Z"/><path class="cls-1" d="M52.25,5.6c-.06.15-.14.24-.31.21h-.3l.11.27h-.87v.2L50.38,6l.48-.28,0,.17h.52l-.16-.25-.46-.08,0,.16-.48-.4.54-.16v.21l.39.05,0-.19,1.28.14,0,.22-1-.14v.21Zm-1.53-.13.66.11V5.35l.86.14s.08,0,.11,0l-.09-.06-.69-.08-.34,0,.05.19-.54-.07V5.22l-.35.11.32.26Zm.82.28H52a.34.34,0,0,0,.11,0v0l-.76,0,.15.21h-.7l0-.11L50.5,6l.31.2,0-.16h.83Z"/><path class="cls-1" d="M35.4,6.76v.75a1,1,0,0,1,0,.14.48.48,0,0,1,0-.14v-.9c.16,0,.16,0,.2.11s.17.51.27.79l0-.09c.07-.23.15-.46.22-.69s.05-.14.2-.13,0,.05,0,.07v.89c0,.06,0,.1-.1.07V6.74h0l0,.06c-.09.25-.17.51-.26.76,0,0,0,.06-.07.09s-.06-.05-.07-.09l-.24-.71,0-.09Z"/><path class="cls-1" d="M24.14,6.78v.85l0,0s-.06,0-.06-.06c0-.32,0-.65,0-1a.14.14,0,0,1,.19.08c.1.23.22.46.33.68a.24.24,0,0,0,.06.09V6.61l0,0s.06,0,.06.06c0,.33,0,.65,0,1-.1,0-.14,0-.18-.08s-.23-.46-.34-.7a.59.59,0,0,1,0-.08Z"/><path class="cls-1" d="M42.61,6.61c.11,0,.15,0,.19.09s.22.45.33.68a.13.13,0,0,0,.07.08V6.68c0-.07,0-.1.1-.07v.71a1.93,1.93,0,0,1,0,.24.15.15,0,0,1,0,.09.2.2,0,0,1-.11-.06l-.36-.74a.16.16,0,0,0-.07-.07v.8s0,0-.05.07,0,0,0-.06C42.61,7.26,42.61,6.94,42.61,6.61Z"/><path class="cls-1" d="M37.54,6.78v.85l0,0s-.06,0-.06-.06c0-.32,0-.65,0-1a.14.14,0,0,1,.19.08c.1.23.22.46.33.68a.18.18,0,0,0,.07.09V6.61l0,0s.06,0,.06.06c0,.33,0,.65,0,1-.1,0-.14,0-.18-.08s-.23-.46-.34-.7a.59.59,0,0,1,0-.08Z"/><path class="cls-1" d="M28.94,6.59a2.34,2.34,0,0,1,.39,0,.3.3,0,0,1,.25.22,1,1,0,0,1,0,.53.32.32,0,0,1-.29.24,1.36,1.36,0,0,1-.29,0,.09.09,0,0,1-.06-.07Zm.12.09v.86c.27,0,.39,0,.43-.3a1.13,1.13,0,0,0,0-.26C29.45,6.72,29.33,6.64,29.06,6.68Z"/><path class="cls-1" d="M26.09,6.59l.32,0c.18,0,.25.1.26.23s-.05.23-.22.29c.25.1.17.33.25.5-.08,0-.12,0-.13,0a1.06,1.06,0,0,0,0-.19c-.05-.19-.12-.23-.33-.2,0,.13,0,.26,0,.4s0,0-.06.06-.05,0-.05-.07Zm.12.51c.12,0,.25,0,.3-.1a.26.26,0,0,0,0-.24c-.06-.12-.18-.09-.3-.08Z"/><path class="cls-1" d="M51.7,6.14l.61-.29c0,.09.06.19,0,.25s-.14.06-.23.1l.22.13-.78.25.19.12v0h-.92l.3-.35a.09.09,0,0,1,.1,0,.21.21,0,0,0,.26,0l.31-.13Zm.2.13-.32.14c-.14.06-.27.14-.41,0l-.23.27h.63l-.15-.11.77-.24L52,6.19l.33-.13,0-.12-.46.22Z"/><path class="cls-1" d="M53.86,6.34l.33.39h-.93v0l.18-.12-.78-.25.23-.13-.25-.1,0-.25.61.29-.09.11a2.26,2.26,0,0,0,.43.17C53.7,6.44,53.77,6.37,53.86,6.34Zm0,.08c-.09,0-.16.08-.22.07s-.35-.14-.53-.22l.09-.11-.45-.22c-.05.09,0,.13,0,.16l.24.09-.22.13.77.24-.13.1v0h.61Z"/><path class="cls-1" d="M37.19,6.61c0,.26,0,.53,0,.79s-.14.27-.34.26-.31-.09-.31-.28,0-.51,0-.76c.09,0,.1,0,.1.06,0,.24,0,.47,0,.71a.19.19,0,0,0,.22.2.2.2,0,0,0,.21-.2c0-.23,0-.47,0-.7C37.09,6.62,37.11,6.58,37.19,6.61Z"/><path class="cls-1" d="M14,6.61c0,.26,0,.52,0,.78s-.13.27-.33.27-.32-.09-.32-.27,0-.52,0-.77c.1,0,.1,0,.1.07s0,.47,0,.7.08.2.21.2a.19.19,0,0,0,.22-.2c0-.23,0-.47,0-.7S13.92,6.58,14,6.61Z"/><path class="cls-1" d="M6.5,7.63c-.09,0-.12,0-.14-.06s0-.21-.1-.25-.17,0-.26,0a.13.13,0,0,0-.16.11.48.48,0,0,1,0,.17s0,0-.08.07l0,0c.11-.33.22-.66.34-1,0,0,.05-.05.07-.05a.11.11,0,0,1,.08.05Zm-.59-.41h.34l-.16-.49h0Z"/><path class="cls-1" d="M12,7.63c-.08,0-.11,0-.13-.07-.08-.26-.09-.25-.36-.26a.14.14,0,0,0-.16.12.49.49,0,0,1-.05.16s-.05,0-.08.07l0,0,.16-.47c.06-.17.11-.34.17-.5s0,0,.08-.06.07,0,.07.05c.11.3.21.61.31.91C12,7.58,12,7.61,12,7.63Zm-.58-.41h.34l-.16-.49h0Z"/><path class="cls-1" d="M39.51,7.63l.33-1a.12.12,0,0,1,.07-.05.09.09,0,0,1,.08.05l.33,1c-.08,0-.11,0-.13-.07-.09-.26-.09-.25-.36-.26-.09,0-.14,0-.16.12a1,1,0,0,1-.05.16.27.27,0,0,1-.08.07Zm.57-.4-.16-.5h0l-.16.5Z"/><path class="cls-1" d="M14.39,7.64h-.11v-1c.13,0,.26,0,.39,0s.19.13.19.29a.25.25,0,0,1-.21.25l-.26,0Zm0-1V7.1c.12,0,.24,0,.31-.08a.23.23,0,0,0,0-.26C14.64,6.65,14.52,6.67,14.39,6.68Z"/><path class="cls-1" d="M31.67,6.67v.39h.27l.08,0a.24.24,0,0,1-.09,0h-.25v.41H32l.08,0s-.06,0-.09,0h-.41v-1H32l0,0-.06,0Z"/><path class="cls-1" d="M29.85,6.6h.44s0,0,.05,0,0,0-.05,0H30v.39h.28l.07,0s-.05,0-.08,0H30v.41h.3s.05,0,.08,0-.05.05-.07.05h-.36a.08.08,0,0,1-.07-.07Z"/><path class="cls-1" d="M33,7.14v.41h.31s0,0,.07,0-.05,0-.07,0h-.42v-1h.44s0,0,.05,0l-.05,0H33v.39h.28l.06,0s0,0-.06,0Z"/><path class="cls-1" d="M25.49,7.14v.41h.29s.06,0,.09,0-.05,0-.08,0h-.41v-1h.44l0,0s0,0-.05,0h-.32v.39h.28l.07,0a.15.15,0,0,1-.07,0Z"/><path class="cls-1" d="M15.15,6.67v.39h.27l.08,0s-.05,0-.08,0h-.26v.41h.3s0,0,.07,0,0,0-.07,0H15v-1h.44l0,0a.07.07,0,0,1,0,0Z"/><path class="cls-1" d="M20.09,7.05c.12,0,.25,0,.35,0v0h-.34v.42h.3s.05,0,.08,0,0,0-.08,0H20v-1h.43s0,0,.05,0,0,0-.05,0h-.32Z"/><path class="cls-1" d="M7.67,7.64v-1h.44s0,0,.05,0l-.05,0H7.79v.39h.29l.06,0s0,0-.06,0H7.79v.41h.3s.05,0,.08,0l-.08,0Z"/><path class="cls-1" d="M23.33,6.6h.44s0,0,.05,0,0,0-.05,0h-.32v.39h.27l.07,0a.15.15,0,0,1-.07,0h-.27v.41h.3s.05,0,.08,0,0,0-.08,0h-.42Z"/><path class="cls-1" d="M12.54,7.55l.29,0A.18.18,0,0,0,13,7.46.19.19,0,0,0,13,7.25c-.08-.06-.17-.1-.25-.15a.29.29,0,0,1-.16-.21c0-.17.09-.28.29-.29l.24,0v.09h0a1,1,0,0,0-.24,0,.22.22,0,0,0-.14.11.17.17,0,0,0,.05.16,1.18,1.18,0,0,0,.22.14c.11.07.22.13.21.29a.21.21,0,0,1-.17.24,1.59,1.59,0,0,1-.38,0S12.56,7.58,12.54,7.55Z"/><path class="cls-1" d="M11.15,7.55a.27.27,0,0,1-.07.08.39.39,0,0,1-.55-.26.8.8,0,0,1,0-.59A.36.36,0,0,1,11,6.64a.25.25,0,0,1,.14.23c-.08,0-.11,0-.14-.07a.28.28,0,0,0-.14-.12.17.17,0,0,0-.21.08.77.77,0,0,0,0,.75.27.27,0,0,0,.31.06l.1,0Z"/><path class="cls-1" d="M41.12,6.87c-.07,0-.12,0-.13-.06a.17.17,0,0,0-.15-.14.21.21,0,0,0-.22.1.83.83,0,0,0,0,.72.28.28,0,0,0,.31.09.42.42,0,0,1,.13,0L41,7.63a.4.4,0,0,1-.56-.26.76.76,0,0,1,0-.59A.35.35,0,0,1,41,6.64.25.25,0,0,1,41.12,6.87Z"/><path class="cls-1" d="M34.22,6.87c-.08,0-.12,0-.13-.06a.17.17,0,0,0-.15-.14.2.2,0,0,0-.21.09.78.78,0,0,0,0,.74.27.27,0,0,0,.31.08l.1,0,0,0a.27.27,0,0,1-.07.08.39.39,0,0,1-.56-.3.75.75,0,0,1,0-.55.36.36,0,0,1,.48-.14A.25.25,0,0,1,34.22,6.87Z"/><path class="cls-1" d="M39.45,6.87c-.09,0-.14,0-.15-.06a.17.17,0,0,0-.15-.14.21.21,0,0,0-.21.09.81.81,0,0,0,0,.74.27.27,0,0,0,.31.08l.1,0,0,0a.27.27,0,0,1-.07.08.39.39,0,0,1-.56-.3.73.73,0,0,1,.06-.56.33.33,0,0,1,.54-.06A.6.6,0,0,1,39.45,6.87Z"/><path class="cls-1" d="M32.71,7.64h-.45v-1h.1v1h.3C32.72,7.55,32.74,7.57,32.71,7.64Z"/><path class="cls-1" d="M5.27,7.55h.35l0,0s0,.07-.06.07H5.16v-1h.11Z"/><path class="cls-1" d="M31.07,6.67h-.21l0,0,0,0h.51s0,0,.05.05v0h-.15c-.07,0-.09,0-.09.1v.79c0,.06,0,.1-.1.07Z"/><path class="cls-1" d="M7.18,7.63v-1H7l0,0,0,0h.51s0,0,0,0l0,0h0c-.19,0-.19,0-.19.21v.68C7.28,7.62,7.27,7.66,7.18,7.63Z"/><path class="cls-1" d="M38.52,7.63c-.07,0-.1,0-.1-.07V6.68c0-.07,0-.1.1-.07Z"/><path class="cls-1" d="M21.18,6.61v1s0,0-.05.06-.05,0-.05-.06q0-.46,0-.93s0,0,.07-.07Z"/><path class="cls-1" d="M10.25,6.61v1c-.07,0-.11,0-.11-.07,0-.29,0-.59,0-.88C10.14,6.61,10.17,6.58,10.25,6.61Z"/><path class="cls-1" d="M25.1,6.61v1c-.07,0-.1,0-.1-.07V6.68C25,6.61,25,6.58,25.1,6.61Z"/><path class="cls-1" d="M41.41,6.61v1c-.07,0-.1,0-.1-.07V6.68C41.31,6.61,41.34,6.58,41.41,6.61Z"/><path class="cls-1" d="M42,6.47c0-.07,0-.21.15-.18C42.08,6.36,42.09,6.46,42,6.47Z"/><path class="cls-1" d="M41.74,7.13c0-.1,0-.2.06-.3a.22.22,0,0,1,.42,0,.91.91,0,0,1,0,.61.22.22,0,0,1-.22.16.21.21,0,0,1-.21-.17A2.47,2.47,0,0,1,41.74,7.13Z"/><path class="cls-1" d="M40.08,7.23h-.35l.16-.5h0Z"/><path class="cls-1" d="M57.37,12.52l.19.5h0a1.64,1.64,0,0,0,0-.44,3.71,3.71,0,0,0-.14-.39l.17.19V11.6h0a7.33,7.33,0,0,1,0,1.24l.2-.15,0,0s0,0-.06.07a.52.52,0,0,0-.2.32,2.78,2.78,0,0,1-.16.4.12.12,0,0,1-.05.05h0a1.89,1.89,0,0,0,.11-.25.44.44,0,0,0,0-.2,4.34,4.34,0,0,0-.16-.47s0-.06,0-.09Z"/><path class="cls-1" d="M56.87,13a3.75,3.75,0,0,1-.07-1.2h0v.69h0l.11-.12h0a2,2,0,0,0-.1.35.92.92,0,0,0,.09.39l0-.15h0a.47.47,0,0,1,0,.17.18.18,0,0,0,0,.19c.05.08.09.17.13.25a.64.64,0,0,1,0,.07h0a.12.12,0,0,1-.05,0c0-.11-.11-.21-.16-.33a.78.78,0,0,0-.26-.31Z"/><path class="cls-1" d="M56.72,5h.22L56.7,4.8l0,0L57,5l0-.12,0,0,.26.41h0V5h0a2,2,0,0,0,.1.35,2.51,2.51,0,0,0,.2.29l0,0s0,0,0,0a1.53,1.53,0,0,1-.14-.21A.36.36,0,0,0,57,5.28H57s0,0,0,0l.2,0c-.11-.17-.28-.14-.43-.18Z"/><path class="cls-1" d="M57.23,15.91l-.06,0-.25-.22a.36.36,0,0,0-.37-.06c.11.11.21.23.31.34l0,0-.34-.3a.2.2,0,0,0-.15,0l-.34,0v0a2.3,2.3,0,0,0,.28-.06c.08,0,.14-.12.22-.15l0,0-.12.08a4.54,4.54,0,0,1,1.38.16v0h-.1a2.58,2.58,0,0,0-.76-.11l.32.28Z"/><path class="cls-1" d="M58.48,7.45a1.1,1.1,0,0,1,0-.18.32.32,0,0,0-.12-.3,1.25,1.25,0,0,1-.08-.12l0,0,.12.16,0,0a.32.32,0,0,0-.06-.27c-.08-.08-.15-.18-.23-.27l0,0,.22.23-.1-.43c.06,0,.06,0,.12.26,0,.09,0,.19.07.29l.1-.08a.41.41,0,0,1,0,.09.4.4,0,0,0-.07.3c0,.12,0,.23,0,.34a.07.07,0,0,1,0,0Z"/><path class="cls-1" d="M58.69,7.09l.1.11a.45.45,0,0,0,.06-.32,2.68,2.68,0,0,1-.07-.27l0,0,.06.22h0l.09-.3h0l0,.15,0,.16.12-.06,0,0c-.11.1-.24.2-.23.38L59,7.12l0,0-.36.43s0,0,0,0h0c.07-.13.2-.25,0-.41Z"/><path class="cls-1" d="M59.45,9.51l.18,0,0,0c-.31.07-.4.39-.64.53l0,0a.5.5,0,0,1,.07-.08.47.47,0,0,0,.19-.43V9.2a.19.19,0,0,1,0-.08h0v.52A.76.76,0,0,0,59.48,9c0-.07,0-.09.07-.05l.09-.15h0l-.14.39,0,0L59.68,9h0a.15.15,0,0,1,0,.07c-.06.11-.12.22-.19.33A.66.66,0,0,1,59.45,9.51Z"/><path class="cls-1" d="M60.22,9.3l0,.14.12-.06,0,0a6.18,6.18,0,0,1-.61.52l.2,0v0a1.26,1.26,0,0,0-.27,0,1.16,1.16,0,0,0-.24.14c-.07,0-.14.11-.21.15l0,0,.09-.07c.11-.09.22-.18.34-.26a.36.36,0,0,0,.21-.35h0l0,.12a.47.47,0,0,0,.3-.43Z"/><path class="cls-1" d="M52.53,4.25h-.2c-.09,0-.13,0-.14-.13s0-.16.11-.17h.45c.1,0,.11.08.11.17s0,.12-.13.13Zm0-.06h.2s.08-.06.08-.08,0-.1-.08-.1h-.39c-.06,0-.1,0-.08.09a.16.16,0,0,0,.09.09Z"/><path class="cls-1" d="M52,4.24c-.11,0-.15,0-.15-.13s0-.11.11-.12.14.07.12.13S52,4.21,52,4.24ZM52,4.11S52,4.06,52,4.06s0,0-.06.05,0,0,.06.06S52,4.14,52,4.11Z"/><path class="cls-1" d="M53.05,4.25a1.21,1.21,0,0,1-.1-.14A.12.12,0,0,1,53.08,4c.07,0,.13,0,.11.13a.51.51,0,0,1-.09.13Zm0,0s.06-.07.05-.09a.22.22,0,0,0-.07-.06s0,0,0,.07S53.05,4.16,53.08,4.2Z"/><path class="cls-1" d="M51.07,4.26a.11.11,0,0,1-.12.1.12.12,0,0,1,0-.24C51,4.12,51.07,4.17,51.07,4.26ZM51,4.33s.06-.07.06-.09,0,0-.06-.06-.05,0-.05.06S50.92,4.29,51,4.33Z"/><path class="cls-1" d="M52.38,2a.1.1,0,0,1,.11-.1.09.09,0,0,1,.1.12.17.17,0,0,1-.1.1C52.42,2.16,52.38,2.11,52.38,2Z"/><path class="cls-1" d="M54,4.37a.42.42,0,0,1-.09-.14A.1.1,0,0,1,54,4.11c.08,0,.14,0,.12.13s-.06.09-.09.13Zm0-.22s-.06.06-.06.08,0,0,.05.07.06,0,.06-.07S54.07,4.19,54,4.15Z"/><path class="cls-1" d="M52.54,1.4a.9.9,0,0,1,0,.16.15.15,0,0,1,0,.09s-.08,0-.09,0a.08.08,0,0,1,0-.1s0-.08,0-.12a.08.08,0,0,1,0-.08.1.1,0,0,1,.09,0,.18.18,0,0,1,0,.07Z"/></g></g></svg>