<svg id="Logos_Patrocinadores" data-name="Logos Patrocinadores" xmlns="http://www.w3.org/2000/svg" viewBox="0 0 1500 600"><defs><style>.cls-1{fill:#8f8fa3;}</style></defs><path class="cls-1" d="M590.86,85.38c21.32-18.59,47.67-22.62,73.83-27,38.77-6.53,77-3,115,6.21,15.19,3.71,29.52,9.23,42.6,20.81H930.88c3.88,0,7.78-.19,11.64.12,17.64,1.39,24.53,8.67,24.85,26.49.2,11.64,0,23.28,0,34.93V368.1c0,3.88.22,7.79-.09,11.64-1.1,13.38-7.8,19.87-21.17,20.65-3.32.19-6.65.07-10,.07h-459c-26.2,0-31-4.74-31-30.81q0-126.39,0-252.79c0-3.88-.47-7.86.24-11.62,1.76-9.32,6.3-16.64,16.58-18.26a109.62,109.62,0,0,1,16.45-1.52c31.6-.14,63.2-.07,94.8-.07ZM898.21,290.75l.83,1.12-1.11-.84c-1.61-2.18-2.89-4.75-4.89-6.49q-31.89-27.8-64-55.33c-4.95-4.25-10.11-8.26-15.48-12.64-34.33,16.62-70.17,21.37-107.1,21.41-37.44,0-73.62-5.2-107.44-22.51-22.18,18.88-43.72,37.07-65.08,55.46-7.47,6.43-14.49,13.38-21.71,20.09-.33.37-.65.74-1,1.1.21-.47.43-.95.64-1.43,6.78-2.26,13.79-4,20.28-6.88,20.21-9.08,40.18-18.7,60.33-27.92,12.36-5.66,24.87-11,39.65-17.49-16.32,38.3-31.57,74-46.81,109.8l2.76,1.69,89.35-94.95c7.39,20.53,8.83,41,13.13,60.78s7.8,39.63,11.65,59.46l2.67,0c9-39.72,17.93-79.44,27.39-121.34,11.88,12.94,22,23.85,32,34.86,9.67,10.66,18.7,22,29,32s17.32,23.35,32,33c-5.92-15-10.74-27.34-15.63-39.63-4.72-11.83-9.89-23.5-14.17-35.49s-11.77-23.21-12.59-37.76c3.51,1.26,5.61,1.83,7.57,2.74,27.68,12.74,55.26,25.67,83,38.19C881.43,285.38,889.94,287.79,898.21,290.75Zm-93.4-150.82c-66.33,21.24-130.86,21.12-196.17.12-.61,17.56-1.3,34,.28,49.44,10.49,8.74,21.56,12.38,32.89,15a279.26,279.26,0,0,0,131.67-.41c11.22-2.74,22.37-6.33,31.33-15.3Zm.85-34.36c-2.73-2.7-4.9-6.18-8-7.66A162.18,162.18,0,0,0,773,88.13c-34.15-9.74-69.17-9.06-103.9-5.61-16.26,1.62-32.15,7.72-48,12.64-5.36,1.67-11.89,3.94-12.42,12.56,9.32,9.84,22.28,13.27,35,16.51,28.7,7.32,58.06,8.85,87.42,6.33,19.23-1.65,38.46-4.58,56.65-12C794.53,115.87,801,113.09,805.66,105.57ZM925.45,227l.6-2.17-91.47-36.64-14.24,25.09ZM488,227c36.42-5.53,70-8.6,104.09-14.73l-13-24c-29,11.55-57.13,22.73-85.23,34C492.81,222.66,492.08,223.61,488,227Zm344.89-47.18s70.23-10.78,76.85-13.44c-5.07-2.55-76.86-8-76.86-8.39C832.83,165.71,832.83,172,832.84,179.85Zm-252.35.2c0-7.34,0-14.05,0-22q-28.06,2.74-56.06,6.1c-6.35.76-12.65,1.62-18.38,4.6C512.33,170.84,580.5,178.09,580.49,180.05Zm288.2-52.53c-.09-1.07-.18-2.13-.26-3.2-12.09.73-24.58-1.36-36.62,6.18.42,4.12.82,8,1.31,12.85Zm-287.21,3c-10.69-7-22.13-5.75-37.48-5.65,13.71,7.27,23.21,14.24,36.28,16.1C580.73,137.1,581.09,134,581.48,130.54Z"/><path class="cls-1" d="M336.3,502.21c3.26,1.78,9,4.1,14.77,4.06,6.46,0,10.23-3.92,10.23-8.73,0-4.44-2.32-7.31-8.32-10.83-7.15-4.23-12.12-10.2-12.12-17.52,0-12.88,10.85-22.32,26.49-22.32,6.64,0,12,1.5,14.83,3.22l-3.88,11.45a25.31,25.31,0,0,0-11.41-2.76c-6.17,0-10.25,3.4-10.25,8.23,0,3.95,2.84,6.59,7.88,9.54,7.27,4.44,12.92,10.36,12.92,18.27,0,15.05-11.84,23.28-27.7,23.28-7.42,0-14.31-2.23-17.5-4.61Z"/><path class="cls-1" d="M453.44,448.29l-8.86,46.8c-1.62,8.41-2.6,15.75-3.39,21.72H427.26l1.26-11.31-.28-.08c-6.18,8.61-14.12,12.81-22.11,12.81-9.59,0-16.17-5.75-16.17-18.14a64.07,64.07,0,0,1,1.37-12.3l7.5-39.5h15.74l-7.28,38.39a55.19,55.19,0,0,0-1.15,9.92c0,5,2.05,8.65,7.6,8.65,6.94,0,14.81-8.54,17.33-21.77l6.63-35.19Z"/><path class="cls-1" d="M452.22,544.43l13.53-71.3c1.57-8.37,3-18.06,3.89-24.84h14l-1.44,11h.28c5.4-7.83,13.33-12.47,21.42-12.47,13.76,0,19.26,11.46,19.26,23.94,0,23.4-15.08,47.42-37.51,47.42-5.31,0-9.72-1.22-12-2.63h-.32l-5.43,28.83Zm23.58-41.35a14.29,14.29,0,0,0,9.35,3.06c12.8,0,21.67-19.89,21.67-33.78,0-6-2.17-12.42-9.28-12.42-7.47,0-15.56,9.22-18.21,23.52Z"/><path class="cls-1" d="M579.65,513.11a50.72,50.72,0,0,1-22.44,5c-18,0-26.05-11.49-26.05-27.35,0-20.32,13.87-43.88,36.59-43.88,12.89,0,20.41,8,20.45,18.65,0,17.7-17.38,23.76-41.6,23.23-.22,2.29.14,7.11,1.59,10,2.36,4.52,6.83,6.92,12.83,6.92a36.67,36.67,0,0,0,17.15-4.21ZM565.7,459c-8.82,0-15.23,8.54-17.47,18,14.83.19,25.24-2.52,25.24-11C573.47,461.59,570.48,459,565.7,459Z"/><path class="cls-1" d="M592,516.81l8.24-43.48c1.74-9.31,2.69-19,3.41-25h13.68c-.38,4.36-.76,8.75-1.4,13.72h.43c4.69-9,11.75-15.14,20.13-15.14a23.48,23.48,0,0,1,3.23.21l-3.06,15.59a22.87,22.87,0,0,0-2.88-.17c-10.63,0-18,11.44-20.53,24.92l-5.52,29.39Z"/><path class="cls-1" d="M637.55,516.81,646.29,470c1.62-8.41,2.62-15.75,3.45-21.73h13.63l-1.32,11.39h.27c5.95-8.72,13.73-12.81,22.11-12.81,9.55,0,14.09,6.27,14.68,13.16,5.76-8.69,13.79-13.1,22.57-13.16,9.05,0,15.3,6.07,15.3,17.07a78,78,0,0,1-1.3,12.16L728,516.81H712.65L720,477.38a52.5,52.5,0,0,0,1-9.14c0-5.15-2.13-8.54-7.29-8.54-6.75,0-14.33,8.78-17,22.94l-6.44,34.17H675.1l7.51-39.75a47,47,0,0,0,1-8.67c0-4.69-1.48-8.69-7.12-8.69-6.63,0-14.8,9.62-17.28,23.23l-6.26,33.88Z"/><path class="cls-1" d="M786.54,516.81c.08-4,.54-8.93,1.06-14.45h-.36c-6.55,11.93-14.82,15.87-22.51,15.87-11.28,0-18.38-9-18.38-22.31,0-22.64,14.64-49.05,45.45-49.05A66,66,0,0,1,811,449.78l-7.32,36.63a162,162,0,0,0-2.83,30.4Zm6.85-57.14a22.65,22.65,0,0,0-5.84-.67c-14.57,0-24.95,19.13-25,33.71-.06,7.15,2.21,12.64,8.57,12.64,7.11,0,15.35-9.75,18.4-25.85Z"/><path class="cls-1" d="M817.69,529.54c3.63,2.17,10.34,3.73,16,3.73,10.5,0,17.62-5.69,20.68-20.09l1.77-8.25h-.32c-5.5,8.26-12.14,11.71-19.8,11.71-12.21,0-19.1-10.29-19.17-22.8-.15-22.33,15-47,42.3-47A54.77,54.77,0,0,1,881,451.35l-10.59,57.2c-2.52,13.36-6.29,23.56-13.31,29.63-6.58,5.73-15.45,7.67-24,7.67-7.73,0-15.33-1.68-19.29-4.15Zm46.16-68.86a18.77,18.77,0,0,0-7.76-1.49c-13.64,0-22.87,17.36-23,31.51,0,7,2.24,13.58,9.49,13.58,7.6,0,14.85-10.15,16.9-20.92Z"/><path class="cls-1" d="M885.55,516.81,894.38,470c1.66-8.41,2.66-15.75,3.53-21.73h13.88l-1.33,11.54h.28c6-8.65,14-13,22.77-13,9.64,0,16,6.15,16,17.56A69.64,69.64,0,0,1,948.25,476l-7.74,40.8H924.77l7.58-40.09a45.16,45.16,0,0,0,.85-8.18c0-5.11-1.91-8.76-7.49-8.76-6.73,0-15.36,8.65-18.17,23.7l-6.25,33.33Z"/><path class="cls-1" d="M1007.82,513.11a50.75,50.75,0,0,1-22.44,5c-18,0-26.06-11.49-26.06-27.35,0-20.32,13.87-43.88,36.6-43.88,12.89,0,20.4,8,20.44,18.65,0,17.7-17.38,23.76-41.6,23.23-.21,2.29.15,7.11,1.6,10,2.36,4.52,6.82,6.92,12.82,6.92a36.74,36.74,0,0,0,17.16-4.21Zm-14-54.15c-8.83,0-15.23,8.54-17.48,18,14.83.19,25.25-2.52,25.25-11C1001.64,461.59,998.64,459,993.87,459Z"/><path class="cls-1" d="M1054.4,429.65l-3.56,18.64h14.65l-2.32,11.94h-14.68l-5.73,29.93a50.34,50.34,0,0,0-1.1,8.91c0,3.73,1.71,5.95,5.81,5.95a28.34,28.34,0,0,0,5.22-.37l-1.53,12.25a34.76,34.76,0,0,1-10.17,1.28c-10.65,0-15.54-5.89-15.54-13.83a60.15,60.15,0,0,1,1.4-12.14l6.15-32h-8.88l2.25-11.94h8.94l2.8-14.74Z"/><path class="cls-1" d="M1113.52,513.11a50.72,50.72,0,0,1-22.44,5c-18,0-26-11.49-26-27.35,0-20.32,13.87-43.88,36.59-43.88,12.89,0,20.41,8,20.45,18.65,0,17.7-17.38,23.76-41.61,23.23-.21,2.29.15,7.11,1.6,10,2.36,4.52,6.82,6.92,12.83,6.92a36.7,36.7,0,0,0,17.15-4.21Zm-14-54.15c-8.82,0-15.23,8.54-17.47,18,14.82.19,25.24-2.52,25.24-11C1107.34,461.59,1104.35,459,1099.57,459Z"/></svg>