<svg id="Logos_Patrocinadores" data-name="Logos Patrocinadores" xmlns="http://www.w3.org/2000/svg" viewBox="0 0 1500 600"><defs><style>.cls-1{fill:#8f8fa3;}</style></defs><path class="cls-1" d="M454.29,369.82c2,5,3.76,9.57,5.74,14.07a247.83,247.83,0,0,0,23,40.82,216.79,216.79,0,0,0,57.61,57.4,225.11,225.11,0,0,0,46,23.39A198.49,198.49,0,0,0,621,514.74a190.75,190.75,0,0,0,37,3.59c9.26-.11,18.53-1,27.77-1.91a161.8,161.8,0,0,0,34.16-6.93A233.28,233.28,0,0,0,757.66,494a207.51,207.51,0,0,0,43-29.74,217.46,217.46,0,0,0,37.2-43.58,203.72,203.72,0,0,0,27-61.66c2.11-8.59,3.72-17.32,5.17-26.05a99.68,99.68,0,0,0,1.28-15.44c.1-9.63.19-19.29-.4-28.9a196.85,196.85,0,0,0-10.58-51.26A206.25,206.25,0,0,0,835.83,188a218.91,218.91,0,0,0-31.51-37.21,214.12,214.12,0,0,0-44.63-32.1c-16.49-9-34-15.16-52.14-19.63-19.64-4.83-39.55-5.86-59.69-5.15-21.51.76-42.15,5.55-62.26,12.76a203.28,203.28,0,0,0-56.7,31.56A218.16,218.16,0,0,0,482,188.73c-4.49,6.67-9,13.32-13.24,20.15a134,134,0,0,0-13.08,28.48c-.09.26-.24.5-.46.95,25.61-99,124.06-187.38,250.48-182.08C840.75,61.89,939.57,170.86,945,293.54c2.95,66.83-17.54,126-61.26,176.37-41.6,47.93-94.56,76.48-157.66,83.84C586.46,570,480.06,474.82,454.29,369.82Z"/><path class="cls-1" d="M710.88,318.09v3.74c0,9.51,0,19,0,28.52,0,1.78-.54,2.24-2.26,2.21-5.5-.09-11,0-16.68,0V254.74c.62-.06,1.22-.15,1.82-.15,5.32,0,10.63,0,15.94-.05a2.19,2.19,0,0,1,2.48,1.85c3.44,10.68,6.95,21.34,10.45,32,.27.83.62,1.62.93,2.43l.51-.09V254.58h16.57c2.88,0,2.88,0,2.88,2.79v41.32c0,17.13,0,34.26,0,51.38,0,1.88-.43,2.56-2.42,2.5-5.38-.13-10.77-.16-16.15,0-2.11.07-2.87-.73-3.44-2.61-3-9.87-6.15-19.7-9.25-29.54-.27-.84-.6-1.65-.9-2.47Z"/><path class="cls-1" d="M651.87,306.28c3.2,1.88,3.64,4.65,3.61,7.86-.12,11.88-.08,23.77,0,35.65,0,1.8-.43,2.46-2.33,2.41-5-.12-9.93-.13-14.89,0-1.92.05-2.31-.63-2.3-2.41.08-10.35,0-20.69,0-31,0-.56,0-1.12,0-1.68-.15-4.59-2.82-6.57-7.21-5.24-.45.14-.89,1.14-.9,1.75-.08,4,0,8,0,12,0,8.25-.05,16.5,0,24.74,0,1.7-.42,2.31-2.21,2.28-6.21-.11-12.43,0-18.84,0V254.75c.52-.05,1.11-.16,1.7-.16,11.33,0,22.66-.14,34,0,5.5.09,10.13,2.15,12.07,7.88a16.62,16.62,0,0,1,.84,5.1c.07,10.48,0,21,.07,31.46,0,2.4-.38,4.4-2.45,5.84A8.31,8.31,0,0,0,651.87,306.28Zm-24.34-23.79V294a1.12,1.12,0,0,0,0,.41c.29.7.43,1.81.93,2,4.08,1.61,7.5-.81,7.51-5.19,0-5.66,0-11.32,0-17,0-4.14-2-5.89-6.15-5.7-1.63.08-2.38.64-2.34,2.39C627.59,274.81,627.53,278.65,627.53,282.49Z"/><path class="cls-1" d="M750.56,303.15q0-18.45,0-36.91c0-6.29,5.08-11.63,11.13-11.61,6.21,0,12.41.24,18.62.34a57.08,57.08,0,0,0,8.17-.05c5.55-.69,12,6.69,11.91,11.74-.24,24.26,0,48.52-.16,72.78,0,5.57-2.81,9.82-7.88,12.34a7.49,7.49,0,0,1-3.2.72q-13.21.08-26.43,0c-6.33,0-12.15-5.88-12.16-12.25Q750.54,321.71,750.56,303.15Zm28.89.33c0-9.71,0-19.41,0-29.12a13.07,13.07,0,0,0-.68-4.08c-.9-2.57-4.48-3.38-6.07-1.22A9.33,9.33,0,0,0,771,274.2c-.12,19.28-.07,38.55-.07,57.83a4.42,4.42,0,0,0,.05,1.46c.58,1.55.27,3.64,2.42,4.27,3.15.92,6.08.39,6.07-4.52Q779.42,318.36,779.45,303.48Z"/><path class="cls-1" d="M509.86,303.13q0-18.47,0-36.91c0-5.88,3.12-9.93,8.88-11.27a18.66,18.66,0,0,1,4.09,0h27.27c5.32,0,8.84,3.57,8.84,8.93,0,7.62-.06,15.24,0,22.86,0,1.9-.63,2.38-2.42,2.35-5.31-.09-10.62-.11-15.93,0-2,.05-2.5-.64-2.45-2.55.12-4.89,0-9.78,0-14.68,0-2.26-1.09-3.41-3.4-3.68-2.46-.28-4,.75-4.48,3a13.9,13.9,0,0,0-.19,2.5q0,29.25,0,58.51a14.86,14.86,0,0,0,.06,1.89c.4,3.31,1.76,4.61,4.59,4.42s4.16-1.87,4.17-5c0-5.87.07-11.74,0-17.61,0-1.77.56-2.26,2.27-2.23,5.31.1,10.63.08,15.94,0,1.35,0,1.82.39,1.81,1.78-.05,8.88.07,17.76-.07,26.64-.06,3.66-1,7.27-4.7,8.95a17,17,0,0,1-6.65,1.39c-9.09.16-18.18,0-27.26.12a10.5,10.5,0,0,1-10.17-8.78,29.43,29.43,0,0,1-.25-3.76Q509.84,321.59,509.86,303.13Z"/><path class="cls-1" d="M506.75,352.52c-5.62,0-10.92.05-16.22-.08-.49,0-1.26-1.13-1.37-1.81-.94-5.85-1.77-11.71-2.66-17.81-3.11,0-6.1-.06-9.08.06-.39,0-1,.9-1.08,1.45-.91,5.29-1.78,10.59-2.56,15.9-.23,1.63-.73,2.4-2.6,2.35-5.09-.15-10.18-.05-15.55-.05.61-4.5,1.17-8.76,1.77-13q2-14.29,4-28.59,2.19-15.74,4.37-31.49c1.06-7.6,2.17-15.19,3.16-22.79.2-1.55.71-2.13,2.35-2.11q10.59.14,21.18,0c1.55,0,2.09.57,2.27,2q2.94,23.88,5.95,47.75c1.74,13.77,3.56,27.53,5.32,41.29C506.29,347.77,506.48,350,506.75,352.52Zm-24.61-58-.64,0c-1.33,7.89-2.65,15.78-4,23.76h7.43C484,310.21,483.07,302.35,482.14,294.48Z"/><path class="cls-1" d="M827.08,321.12c-.67,3.1-1.36,6.21-2,9.32-1.41,6.75-2.83,13.51-4.2,20.27-.21,1.05-.39,1.85-1.75,1.83-4.89-.05-9.79,0-14.68,0a5,5,0,0,1-1-.23c.62-3.74,1.22-7.43,1.85-11.12,2.15-12.65,4.52-25.26,6.35-38,.46-3.17-.69-6.61-1.28-9.89-2.24-12.56-4.56-25.1-6.83-37.66a4.37,4.37,0,0,1,.1-1.06h11.51c5.74,0,5.73,0,6.91,5.58q2.33,10.93,4.68,21.88a2.48,2.48,0,0,0,1,1.48c1.87-9.6,3.75-19.19,5.63-28.84H850c-.43,2.56-.82,5.06-1.27,7.56-2.29,12.83-4.83,25.63-6.75,38.52-.54,3.63.57,7.57,1.22,11.32,2.23,12.84,4.6,25.66,6.9,38.5a12.09,12.09,0,0,1,0,1.95h-9.24c-1.82,0-3.65-.09-5.46,0-1.43.1-1.95-.53-2.19-1.84q-2.51-13.68-5.09-27.35c-.14-.74-.36-1.47-.54-2.21Z"/><path class="cls-1" d="M566.51,254.68h33.56c0,4,0,8-.07,11.91,0,.38-1.06,1-1.64,1-2.79.11-5.59.05-8.39.05h-2.38c-.07.82-.16,1.43-.16,2,0,6.92,0,13.85,0,20.76,0,1.78.58,2.31,2.29,2.25,2.86-.11,5.73,0,8.59,0,1.31,0,1.9.34,1.86,1.76-.09,3.15-.08,6.3,0,9.44,0,1.29-.44,1.71-1.7,1.69-3-.07-6,0-9,0-1.37,0-2,.31-2,1.86q.09,15,0,30c0,1.46.48,2,1.93,1.93,2.93-.07,5.87,0,8.81,0,1.37,0,2,.29,2,1.85-.1,3.28,0,6.57,0,9.85,0,1-.2,1.57-1.38,1.57q-15.83-.06-31.66-.07a2,2,0,0,1-.55-.21Z"/><path class="cls-1" d="M662.54,352.93V254.78a15.1,15.1,0,0,1,1.66-.19c5.95,0,11.89,0,17.83,0,1.55,0,2.05.41,2,2q-.06,47.19,0,94.39c0,1.55-.44,2-2,2C675.63,352.88,669.21,352.93,662.54,352.93Z"/></svg>