<?xml version="1.0" encoding="utf-8"?>
<!-- Generator: Adobe Illustrator 25.4.1, SVG Export Plug-In . SVG Version: 6.00 Build 0)  -->
<svg version="1.1" id="Logos_Patrocinadores" xmlns="http://www.w3.org/2000/svg" xmlns:xlink="http://www.w3.org/1999/xlink"
	 x="0px" y="0px" viewBox="0 0 1500 600" style="enable-background:new 0 0 1500 600;" xml:space="preserve">
<style type="text/css">
	.st0{fill:#3C3C3B;}
	.st1{fill:#363C3B;}
	.st2{fill:#FFFFFF;}
	.st3{fill:#353C3B;}
	.st4{fill-rule:evenodd;clip-rule:evenodd;fill:#3C3C3B;}
	.st5{fill:#FCFCFC;}
	.st6{fill:#EE8398;}
	.st7{fill:none;}
	.st8{fill-rule:evenodd;clip-rule:evenodd;fill:#3C3C3B;stroke:#000000;stroke-width:0.2137;stroke-miterlimit:3.8637;}
	.st9{fill:none;stroke:#353C3B;stroke-width:4.252;stroke-miterlimit:10;}
	.st10{fill:#393E41;}
	.st11{fill:#FFFFFC;}
	.st12{fill:#FFFCFB;}
	.st13{clip-path:url(#XMLID_00000096057968034396900810000002121860511077218236_);fill:#3C3C3B;}
	.st14{fill:#8F8FA3;}
	.st15{fill:none;stroke:#000000;stroke-width:4;stroke-miterlimit:10;}
	.st16{font-family:'MyriadPro-Regular';}
	.st17{font-size:51.2334px;}
</style>
<g>
	<path class="st14" d="M121.98,252.84c12.4-56.61,48.72-106.68,102.25-134.93c25.71-13.57,52.66-20.6,82.04-19.66
		c86.98,2.79,164.25,49.64,191.83,135.09c4.37,13.52,8.33,27.05,7.47,41.58c-0.56,9.45-0.05,18.97-0.11,28.45
		c-0.28,46.4-19.33,84.89-49.87,118.8c-23.55,26.15-52.18,44.04-85.59,54.71c-13.59,4.34-27.19,8.23-41.77,7.37
		c-8.76-0.52-17.58-0.12-26.37-0.08c-48.28,0.2-87.93-19.57-123.09-51.21c-27.34-24.6-47.85-59.12-56.53-94.77
		c-1.41-5.79-2.81-11.6-3.52-17.52C115.96,297.67,117.18,274.76,121.98,252.84z M289.78,253.21c0-38.61,0.01-77.23-0.01-115.84
		c0-6.33,1.22-15.25-7.1-15.21c-6.16,0.03-6.08,8.43-6.03,14.46c0.18,24.04,0.05,48.08,0.08,72.13
		c0.02,12.84,0.84,12.71-13.53,12.56c-15.36-0.16-30.73,0.2-46.08-0.1c-75-1.5-89.6,123.79-29.73,154.89
		c28.76,14.94,62.84,6.05,80.8-20.85c1.57-2.35,4.09-4.06,6.18-6.07c1.65,6.66,2.22,12.12,2.15,19.02
		c-0.09,8.82,13.2,16.33,13.19,5.24c0-3.64,0.06-7.28,0.07-10.93C289.78,326.06,289.78,289.63,289.78,253.21z M413.26,385.15
		c13.36,1.11,33.71-8.95,46.45-12.45c8.76-2.4,4.17-12.02-3.4-11c-3.18,0.43-5.95,2.3-8.71,3.94c-21.43,12.67-48.52,11.4-69.01-2.6
		c-9.98-6.81-18.06-16.37-22.8-27.51c-2.44-5.73-11.26-36.08,1.21-35.18c33.05,2.39,67.22-3.09,100.16-5.63
		c14.29-1.1,14.14-12.24,12.43-23.92c-8.06-55.05-74.67-67.84-111.62-30.82c-28.13,28.18-23.4,79.2-5.68,111.25
		C364.88,373.99,388.43,383.09,413.26,385.15z"/>
	<path class="st14" d="M527.34,299.1c-0.03-23.65-0.06-47.3-0.09-70.95c0-3.1,0.13-6.54,2.32-8.73c2.73-2.73,7.58-2.07,10.56,0.39
		c2.98,2.46,4.56,6.18,6.04,9.76c-2.92-7.1,46.07-12.65,50.51-12.31c16.8,1.27,32.96,7.47,43.2,21.46
		c2.96,4.04,5.49,6.83,11.13-0.15c10.81-13.38,24.71-23.69,43.92-21.8c2.18,0.21,4.42,0.24,6.59-0.01
		c26.3-3.01,42.59,9.24,50.98,33.3c1.6,4.6,3.48,9.44,3.52,14.18c0.3,36.5,0.24,73.01,0.12,109.51c-0.03,9.16-2.76,11.3-12,9.38
		c-2.1-0.44-4.89-2.96-5.29-4.94c-0.84-4.22-0.35-8.71-0.35-13.09c-0.01-29.93-0.11-59.87,0.05-89.8
		c0.06-10.96-1.58-21.63-8.97-29.87c-17.58-19.6-34.18-18.5-56.65-4.06c-14.74,9.48-23.93,23.53-22.76,43.76
		c1.73,29.83,0.3,59.84,0.56,89.77c0.06,6.75-2.57,8.65-8.97,8.65c-6.43,0-9-1.96-8.95-8.68c0.25-32.12,0.19-64.25,0.05-96.37
		c-0.11-25.15-16.06-51.17-44.6-45.85c-16.62,3.1-30.01,16.48-36.8,31.97s-7.83,32.89-7.14,49.78c0.69,16.9,3.01,33.75,2.56,50.65
		c-0.13,5.05-0.64,10.44-3.76,14.42c-3.12,3.98-9.75,5.56-13.22,1.89c-2.33-2.46-2.47-6.21-2.48-9.6
		C527.4,347.55,527.37,323.32,527.34,299.1z"/>
	<path class="st14" d="M1236.43,356.37c-4.29,4.98-8.1,10.48-12.95,14.84c-19.15,17.22-49.24,25.22-75.38,3.26
		c-14.47-12.16-21.05-29.07-17.52-47.16c3.28-16.81,12.31-29.46,30.96-36.95c20.53-8.24,40.68-7.52,61.37-7.8
		c13.32-0.18,12.9,0.75,12.71-13.34c-0.05-3.64,0.12-7.3-0.04-10.93c-0.6-13.03-7.17-20.5-19.13-23.96
		c-20.95-6.08-40.04-1.17-57.96,9.36c-4.7,2.76-8.79,5.88-13.49,2.42c-4.44-3.26-2.34-16.21,3.67-18.76
		c10.27-4.37,21.03-8.5,31.97-10.14c11.45-1.72,23.37-0.72,35.07-0.31c21.95,0.77,33.41,13.21,37.86,35.03
		c8.06,39.59,1.91,79.4,4.04,119.04c0.36,6.74-2.67,11.52-9.45,12.12c-2.54,0.22-7.39-2.51-7.69-4.44
		c-0.99-6.34-0.37-12.93-0.37-19.42C1238.87,358.26,1237.65,357.32,1236.43,356.37z M1151.48,332.51c0.7,7.31-0.5,14.08,2.2,18.47
		c4.08,6.65,9.91,13.59,16.71,16.94c13.18,6.5,27.74,2.59,38.59-4.92c21.07-14.61,28.71-36.7,26.33-61.99
		c-0.18-1.86-3.29-4.84-5.16-4.93c-17.98-0.87-36.34-1.79-53.29,4.81c-8.32,3.23-15.84,10.04-21.91,16.84
		C1151.7,321.36,1152.32,328.41,1151.48,332.51z"/>
	<path class="st14" d="M871.61,214.4c6.54-0.03,13.48,0.94,20.78,3.08c33.09,9.68,55.2,47.35,47.52,80.96
		c-35.84,2.08-71.69,4.16-107.53,6.25c-3.02,0.18-6.33,0.48-8.47,2.62c-2.3,2.32-2.43,5.98-2.14,9.23
		c1.7,18.96,13.24,36.76,29.86,46.03c16.62,9.27,37.83,9.76,54.85,1.25c6.89-3.44,24.21-13.15,28.35,0.06
		c0.92,2.95-0.33,6.24-2.44,8.49s-4.96,3.64-7.8,4.87c-15.87,6.86-33.31,9.78-50.55,9.42c-11.24-0.23-22.63-2-32.76-6.89
		c-21.89-10.58-34.78-34.48-38.95-58.43C794.15,274.32,821.28,214.64,871.61,214.4z M862.62,287.86
		c10.18,0.25,20.36,0.13,30.53-0.35c6.58-0.31,13.2-0.78,19.56-2.49c2.3-0.62,4.65-1.46,6.27-3.2c8.83-9.48-4.86-28.87-10.84-36.31
		c-23.91-29.78-70.73-11.37-83.47,20.04C814.96,289.5,848.97,287.53,862.62,287.86z"/>
	<path class="st14" d="M1001.25,291.42c0.46-14.79,1.31-29.47,1.28-43.33c-0.02-12.15-13.18-8.32-21.49-9.44
		c-3.75-0.5-6.59-6.32-4.87-9.98c3.89-8.25,11.28-8,18.69-7.44c11.84,0.89,7.43-30.8,11.59-40.24c1.89-4.29,6.33-9.01,10.45-6.78
		c2.96,1.6,3.26,5.66,3.21,9.03c-0.25,16.61-7.05,38.16,13.71,37.98c13.16-0.11,26.34,0.26,39.49-0.14c6.9-0.21,8.55,2.76,8.58,9.02
		c0.04,6.47-2.13,8.96-8.78,8.8c-14.62-0.35-29.25,0.11-43.87-0.21c-6.17-0.14-9.3,1.12-9.22,8.23c0.35,31.02-2.63,63,2.03,93.76
		c1.52,10.05,4.68,20.97,13.31,26.34c6.95,4.33,15.93,3.94,23.78,1.59c7.85-2.35,15.05-6.45,22.74-9.27
		c1.18-0.43,2.46-0.84,3.68-0.54c1.12,0.28,2.03,1.13,2.71,2.07c3.32,4.59,1.95,11.4-1.87,15.57c-3.82,4.18-9.48,6.17-15.05,7.22
		c-17.17,3.24-38.79,5.78-53.64-5.85c-5.11-4.01-8.61-11.33-10.56-17.81C1000.79,338.76,1000.52,314.95,1001.25,291.42z"/>
	<path class="st14" d="M1301.54,231.16c0-33.54-0.08-67.09,0.05-100.63c0.04-9.8,2.09-11.14,11.53-10.18
		c4.62,0.47,6.24,2.56,6.13,6.87c-0.13,5.1-0.03,10.21-0.03,15.31c0.01,59.79,0.08,119.59-0.04,179.38
		c-0.03,13.95,3.21,26.32,12.5,37.39c9.58,11.41,24.54,15.03,37.22,7.23c3.36-2.07,5.95-7.95,10.58-3.28
		c3.69,3.73,1.85,15.33-2.95,17.41c-10.34,4.48-21.12,9.93-32.78,6.46c-15.59-4.64-28.38-13.38-34.82-29.14
		c-4-9.8-7.75-19.46-7.56-30.58c0.54-32.08,0.19-64.17,0.19-96.25C1301.55,231.16,1301.54,231.16,1301.54,231.16z"/>
	<path class="st14" d="M277.74,278.46c0.23,43.5-6.05,91.94-54.88,96.15c-17.97,1.55-36.56-6.43-47.58-20.72
		c-14.84-19.25-16.59-48.75-12.45-71.86c3.87-21.59,16.51-39.44,36.83-48.18c22.56-9.71,47.83-4.45,71.83-3.24
		c1.77,0.09,3.84,0.36,4.7,1.9c0.43,0.77,0.45,1.7,0.45,2.59C276.7,247.29,277.65,262.55,277.74,278.46z"/>
	<path class="st14" d="M390.86,292.09c-11.31-0.07-22.59-0.46-33.76-0.99c-1.66-0.08-3.51-0.24-4.64-1.46
		c-1-1.07-1.16-2.65-1.21-4.12c-1.4-40.56,48.95-74.27,84.36-51.02c12.28,8.06,42.1,50.28,13.77,54.22
		C430.16,291.39,410.48,292.21,390.86,292.09z"/>
</g>
<text transform="matrix(1.2952 0 0 1 730.0491 453.4148)" class="st14 st16 st17">creamos ideas en metal</text>
</svg>
