<svg xmlns="http://www.w3.org/2000/svg" viewBox="0 0 73.82 20.43"><defs><style>.cls-1{fill:#3c3c3b;}</style></defs><g id="Capa_2" data-name="Capa 2"><g id="Figuras"><path class="cls-1" d="M12.74,20.29c-.05-.29-.11-.56-.15-.83a16.67,16.67,0,0,1-.31-2.81,6.88,6.88,0,0,1,.27-2.21,4.88,4.88,0,0,1,1.55-2.32c.55-.48,1.15-.89,1.75-1.32a13.08,13.08,0,0,0,1.52-1.17,4.49,4.49,0,0,0,1.18-1.7,4.25,4.25,0,0,0,.14-.51,1.51,1.51,0,0,0,0-.3c0-.36-.26-.48-.57-.29a1.16,1.16,0,0,0-.29.25A2.75,2.75,0,0,1,16.08,8,16.08,16.08,0,0,1,14.24,8a6.28,6.28,0,0,0-1.43.17,2.81,2.81,0,0,0-1.54,1,3,3,0,0,1-.22.28,1.15,1.15,0,0,1-.14.17.37.37,0,0,1-.58,0c-.08-.09-.15-.19-.23-.29a6.91,6.91,0,0,0-.51-.57,2.92,2.92,0,0,0-1.48-.68A8.52,8.52,0,0,0,6.68,8,12.79,12.79,0,0,1,5.16,8a3.83,3.83,0,0,1-1-.29,2.47,2.47,0,0,1-.65-.46,2.34,2.34,0,0,0-.32-.31c-.14-.11-.3-.21-.48-.11a.45.45,0,0,0-.16.45A3,3,0,0,0,3,8.51,5.21,5.21,0,0,0,4,9.76c.48.43,1,.79,1.53,1.18s1.05.77,1.55,1.18a4.76,4.76,0,0,1,1.22,1.46,5.38,5.38,0,0,1,.55,1.73,10.27,10.27,0,0,1,0,2.77c-.1.73-.23,1.46-.35,2.18a.83.83,0,0,1,0,.15,1.34,1.34,0,0,1-.49,0,11.2,11.2,0,0,1-2.78-.8,8.28,8.28,0,0,1-2.37-1.5A8.15,8.15,0,0,1,.9,15.45a10.31,10.31,0,0,1-.82-3A12.29,12.29,0,0,1,0,10.37,11.78,11.78,0,0,1,1.08,6,10.69,10.69,0,0,1,3,3.14a9.94,9.94,0,0,1,2.66-2,9.64,9.64,0,0,1,3-1A11.11,11.11,0,0,1,9.84,0c.42,0,.85,0,1.27,0a11.49,11.49,0,0,1,2.1.34,11.83,11.83,0,0,1,3.17,1.4,11.34,11.34,0,0,1,2.33,1.93,11.53,11.53,0,0,1,1.4,1.85A11.69,11.69,0,0,1,21,7.42a11,11,0,0,1,.6,2.52,9.31,9.31,0,0,1,.05,1.58,8.38,8.38,0,0,1-2,5.22,9.48,9.48,0,0,1-2.46,2A13.14,13.14,0,0,1,13,20.25l-.12,0Z"/><path class="cls-1" d="M38.9,9.13v4.08c0,.2-.11.32-.3.32a.3.3,0,0,1-.35-.3.91.91,0,0,1,0-.17V7.44a1.09,1.09,0,0,1,0-.18A.31.31,0,0,1,38.5,7a.32.32,0,0,1,.35.14.82.82,0,0,1,.09.19l1.55,3.9.07.18a.26.26,0,0,0,0-.2V7.48a1.62,1.62,0,0,1,0-.22A.31.31,0,0,1,40.93,7a.32.32,0,0,1,.32.29,1,1,0,0,1,0,.17v5.62a1.15,1.15,0,0,1,0,.19.3.3,0,0,1-.25.28.31.31,0,0,1-.36-.17.76.76,0,0,1-.06-.16L39,9.3l-.08-.18Z"/><path class="cls-1" d="M56.79,10.32l.05.07a1.57,1.57,0,0,1,.49,1.15c0,.55,0,1.1,0,1.64a.33.33,0,0,1-.21.34.32.32,0,0,1-.43-.26,1,1,0,0,1,0-.17V11.66a1.72,1.72,0,0,0,0-.39.75.75,0,0,0-.64-.6,5.4,5.4,0,0,0-.91,0v.24c0,.73,0,1.46,0,2.19a1.21,1.21,0,0,1,0,.19.29.29,0,0,1-.29.28.31.31,0,0,1-.34-.25,1.09,1.09,0,0,1,0-.18V7.4a.57.57,0,0,1,0-.13A.29.29,0,0,1,54.73,7a11.63,11.63,0,0,1,1.32,0,1.28,1.28,0,0,1,1.19,1.08,3.24,3.24,0,0,1,0,1.42A1.47,1.47,0,0,1,56.79,10.32ZM55.07,10a6.13,6.13,0,0,0,1,0,.65.65,0,0,0,.53-.49,2.49,2.49,0,0,0,0-1.3.64.64,0,0,0-.58-.5,6.78,6.78,0,0,0-.78,0h-.13Z"/><path class="cls-1" d="M32.12,10.27c0,.61,0,1.21,0,1.82a1.61,1.61,0,0,1-.4,1,1.14,1.14,0,0,1-.76.4,2.66,2.66,0,0,1-.63,0,1.3,1.3,0,0,1-1.1-1.15,3.51,3.51,0,0,1-.07-.72c0-.92,0-1.85,0-2.77a2.82,2.82,0,0,1,.13-1A1.3,1.3,0,0,1,30.53,7,1.73,1.73,0,0,1,31,7,1.28,1.28,0,0,1,32,7.9a3.16,3.16,0,0,1,.14,1v1.4Zm-.7,0h0V8.82c0-.16,0-.33,0-.5a.72.72,0,0,0-.88-.68.65.65,0,0,0-.63.47,1.8,1.8,0,0,0-.1.65c0,1,0,2,0,3a2.59,2.59,0,0,0,.07.55.68.68,0,0,0,.79.57h.11a.62.62,0,0,0,.58-.47,2.11,2.11,0,0,0,.09-.49C31.43,11.36,31.42,10.81,31.42,10.25Z"/><path class="cls-1" d="M72.12,9.45l.11-.23c.3-.64.6-1.29.91-1.94a1.19,1.19,0,0,1,.08-.16.33.33,0,0,1,.58.3l-.06.14c-.39.85-.79,1.7-1.19,2.54a.36.36,0,0,0,0,.32c.4.84.8,1.69,1.19,2.54a1.22,1.22,0,0,1,.07.17.32.32,0,0,1-.19.38.34.34,0,0,1-.4-.11.84.84,0,0,1-.06-.14c-.32-.67-.63-1.35-1-2a1.5,1.5,0,0,0-.09-.18,1.85,1.85,0,0,0-.1.2c-.31.66-.62,1.31-.92,2a1.4,1.4,0,0,1-.09.17.32.32,0,0,1-.39.11.32.32,0,0,1-.18-.4.87.87,0,0,1,.07-.17c.4-.84.79-1.69,1.19-2.53a.34.34,0,0,0,0-.31c-.4-.84-.8-1.68-1.19-2.52a1.22,1.22,0,0,1-.07-.17A.32.32,0,0,1,70.61,7a.3.3,0,0,1,.41.1,1,1,0,0,1,.09.18L72,9.24Z"/><path class="cls-1" d="M48.21,10.25v3a.31.31,0,0,1-.34.32.29.29,0,0,1-.32-.32.76.76,0,0,1,0-.15V7.44a1,1,0,0,1,0-.17A.32.32,0,0,1,47.86,7a.33.33,0,0,1,.34.26,1.15,1.15,0,0,1,0,.19Z"/><path class="cls-1" d="M63.59,10.25v-3a.33.33,0,0,1,.65,0,1.09,1.09,0,0,1,0,.18v5.79a.31.31,0,0,1-.35.32c-.2,0-.3-.12-.31-.34V10.25Z"/></g></g></svg>