<?xml version="1.0" encoding="utf-8"?>
<!-- Generator: Adobe Illustrator 25.0.0, SVG Export Plug-In . SVG Version: 6.00 Build 0)  -->
<svg version="1.1" id="Logos_Patrocinadores" xmlns="http://www.w3.org/2000/svg" xmlns:xlink="http://www.w3.org/1999/xlink"
	 x="0px" y="0px" viewBox="0 0 1500 600" style="enable-background:new 0 0 1500 600;" xml:space="preserve">
<style type="text/css">
	.st0{fill:#8E8E3B;}
	.st1{fill:#363C3B;}
	.st2{fill:#3C3C3B;}
	.st3{fill:#FFFFFF;}
	.st4{fill:#353C3B;}
	.st5{fill-rule:evenodd;clip-rule:evenodd;fill:#3C3C3B;}
	.st6{fill:none;stroke:#000000;stroke-width:4;stroke-miterlimit:10;}
	.st7{fill:#1D1D1B;}
	.st8{fill-rule:evenodd;clip-rule:evenodd;fill:#1D1D1B;}
	.st9{opacity:0.142;fill-rule:evenodd;clip-rule:evenodd;enable-background:new    ;}
	.st10{fill-rule:evenodd;clip-rule:evenodd;}
	.st11{fill:#8F8FA3;}
</style>
<g>
	<path class="st11" d="M1170,521.3l1.9-1.84c5.48-0.55,10.79-0.53,14,5.13c-0.58,0.73-0.32,3.97-2.07,1.37
		c-3.15-4.64-7.41-4.9-12.13-4.55C1171.14,522.09,1170.59,522.06,1170,521.3z"/>
	<path class="st11" d="M425.92,488.75c4.49-14.41,11-28,16.57-41.94c0.71-2.56,3.2-4.2,5.83-3.82c1.46,0,2.92,0,4.38,0
		c15.14,0,14.9,0,19.92,13.83c9.94,27.22,20.06,54.35,30.36,81.38c2.25,5.83,2.16,7.64-5.02,8.11c-9.13,0.58-13.18-2.42-16.04-11.17
		c-6.74-21.2-14.85-42.03-22.69-62.85c-0.64-3.16-2.19-6.06-4.46-8.34l-18.43,44.13c-1.66,0-2.25-0.96-2.63-2.28
		c0-7.64,5.1-13.53,6.91-20.42c3.33-6.97,5.1-14.58,8.75-21.44c1.58-2.92,2.45-7.2,6.83-6.83c3.76,0.32,4.52,4.23,5.6,7.12
		c8.02,21.73,15.9,43.52,24.03,65.22c1.69,4.55,2.77,12.95,8.75,10.41c5.98-2.54,0.18-8.93-1.43-13.18
		c-8.75-23.33-17.5-46.67-26.25-70c-2.92-8.14-10.38-11.67-17.09-8.14c-4.55,2.3-4.99,7.58-7.41,11.43
		c-2.54,4.9-3.68,10.38-6.1,15.34c-3.09,4.49-2.92,10.79-8.08,14.18C427.39,489.58,426.55,489.31,425.92,488.75z"/>
	<path class="st11" d="M425.92,488.75h2.01c2.19,2.92,0.55,5.54-0.55,8.02c-4.26,9.65-7.58,19.69-11.87,29.31
		c-0.09,0.27-0.19,0.53-0.32,0.79c-1.75,3.06-2.04,8.08-6.8,7.7c-4.08-0.32-4.08-4.93-5.48-7.93c-0.38-0.76-0.61-1.58-0.99-2.36
		c-5.28-15.87-12.57-30.98-17.82-46.87c-1.46-4.96-3.88-9.54-5.37-14.58c-0.93-3.06-2.07-6.04-3.24-9.01
		c-1.49-4.26-5.68-6.98-10.18-6.59c-4.48-0.48-8.7,2.18-10.21,6.42c-8.6,19.72-16.51,39.7-24.85,59.5
		c-2.92,6.71-5.57,13.42-8.58,20.04c-0.93,2.07-3.47,5.1,0,6.77c2.9,1.1,6.15-0.26,7.41-3.09c1.93-2.92,2.07-6.71,3.79-9.71
		c3.38-5.83,3.62-13.62,9.83-18c1.52,0.41,2.28,1.2,1.46,2.92c-3.79,10-7.5,20.04-11.49,29.93c-1.4,3.53-17.5,5.83-19.66,3.15
		c-1.23-1.6,0-3.21,0.55-4.84c12.89-30.96,25.71-61.97,38.44-93.04c0.77-2.91,3.63-4.75,6.59-4.26c1.73,0.22,3.49,0.22,5.22,0
		c10.24-2.01,14.44,2.71,17.68,12.25c8.17,24,17.73,47.54,27.36,72.92L425.92,488.75z"/>
	<path class="st11" d="M1008.01,408.51c-0.53-0.18-0.86-0.7-0.82-1.25c-11.35-4.2-22.52-6.88-32.81,2.54
		c-1.85,2.04-5,2.21-7.04,0.36c-0.01-0.01-0.03-0.03-0.04-0.04c-3.47-4.26,1.11-6.53,3.35-9.25l5.83-1.11
		c10.84-1.33,21.8-1.33,32.64,0h-0.18c8.31,1.14,10.44,6.74,10.56,14.09c0,8.75-0.44,17.24-0.85,25.87c-0.17,4.08-2.57,5.83-5.4,4.4
		c-5.83-2.92-11.4-0.29-16.68,0.88c-10.06,2.25-19.4,0.2-28.85-2.39c-7.64-8.43-7.35-15.58,0.96-23.65l0,0
		c4.61-1.17,9.19-2.28,7.44,5.34c-2.92,10.56-1.2,13.21,9.42,13.36c4.87,0.52,9.79,0.28,14.58-0.73c2.52-0.92,4.88-2.25,6.97-3.94
		c3.38-3.59-1.08-6.97-0.26-10.5c0.73-1.43,2.33-2.19,2.92-3.76C1009.32,415.28,1011.77,411.43,1008.01,408.51z"/>
	<path class="st11" d="M629.48,543.09c-12.54,2.25-25.05,3.73-37.25-1.69c-7.32-7.2-6.13-16.42-5.83-25.29
		c0.29-6.97,5.57-10.47,10.88-13.71c1.6-1.4,3.84-1.81,5.83-1.08c7.45,1.06,15.01,1.06,22.46,0c2.02-0.65,4.22-0.21,5.83,1.17
		c1.17,3.33,5.28,2.74,7.12,5.34s3.38,4.81,1.23,6.94c-1.81,1.97-4.87,2.1-6.84,0.29c-0.29-0.27-0.55-0.57-0.77-0.91
		c-7.99-11.52-19.25-6.36-29.52-5.83c-3.02,0.05-5.58,2.22-6.13,5.19c-0.85,6.02-0.85,12.12,0,18.14c0.22,1.45,0.94,2.79,2.04,3.76
		c6.01,5.83,28.29,3.65,32.46-3.56c2.3-4,5.31-5.22,8.31-2.92c3,2.3,0.47,5.6-1.37,8.17S631.64,540.26,629.48,543.09z"/>
	<path class="st11" d="M771.14,507.68h-12.48c-8.93-0.35-12.69,2.6-13.04,10.7c-0.26,6.04,0,12.1,0,18.17c0,2.74,0,5.22-3.91,5.28
		c-3.91,0.06-5.54-1.22-5.6-4.9c-0.17-9.83-0.23-19.66,0-29.46c0-5.83,3.91-7.26,8.2-5.02c3.04,1.77,6.84,1.55,9.65-0.55
		c6.59-0.35,13.21,0,19.8-0.2c4.34-0.42,8.64,1.17,11.67,4.32c4.35,10.59,1.28,21.67,2.04,32.49c0.23,3.3-2.45,3.27-4.87,3.27
		c-3.15,0-3.79-1.81-3.76-4.49c0-6.62,0.35-13.3,0-19.92C778.46,512.9,778.44,507.3,771.14,507.68z"/>
	<path class="st11" d="M719.58,408.74c-8.75-2.54-16.95-3.27-23.71,4.35c-2.28,8.58-0.53,17.27-0.99,25.9
		c-0.23,4.08,0.5,8.93-5.66,8.75c-5.43-0.26-4.81-4.78-4.84-8.55c0-9.86-0.17-19.75,0-29.6c0.2-8.55,2.74-10.15,10.47-6.5
		c3.35,1.6,5.31-0.58,7.85-1.49h-0.15c7.02-1.27,14.21-1.27,21.23,0l0,0c3.69,0.96,6.55,3.9,7.41,7.61c0.5,2.51,2.25,6.04-2.04,7.12
		c-2.92,0.73-5.83,0.7-6.53-3.41C722.41,411.08,721.26,409.5,719.58,408.74z"/>
	<path class="st11" d="M818.22,404.16c9.33-7.32,20.42-4.23,30.92-5.19c5.5-0.06,10.99,0.64,16.3,2.07
		c3.47,0.89,6.11,3.73,6.74,7.26c0.47,1.46,0,3.21-1.81,3.18c-3.3,0-6.56,1.11-9.89-1.4c-9.54-7.2-20.42-3.79-30.71-2.54
		c-4.35,0.52-3.12,5.45-2.92,8.75c0.76,2.22,3.97,2.45,4.14,5.16c-0.11,0.94-0.72,1.75-1.6,2.1c-3.25,0.44-6.57,0.09-9.65-1.02l0,0
		C813.82,417.03,814.81,410.7,818.22,404.16z"/>
	<path class="st11" d="M591.8,386.05c-2.08,5.48-4.16,10.98-6.24,16.48c-3.09,9.19-6.94,18.05-10.5,27.07l0,0
		c-2.54,4.2-3.09,9.22-5.63,13.48c-4.23,7.12-12.1,6.97-16.68-0.47c-0.04-2.81,1.6-5.37,4.17-6.5c2.92,0,5.57,0.67,7.09-3.85
		c4.26-12.72,9.48-25.11,14.35-37.65l0,0c2.92-4.7,2.22-13.24,11.67-11.23c0.82,0.14,1.61,0.42,2.33,0.85
		c0.96,0.58,1.43,1.34,0.44,0.73C592.57,385.4,592.23,385.79,591.8,386.05z"/>
	<path class="st11" d="M1185.96,521.68c3.79,11.99,1.02,16.22-12.66,19.19c-9.76-1.06-19.61-1.06-29.37,0
		c-3.34,0-6.61-0.95-9.42-2.74c-4-8.95-3.91-9.1,5.83-10.88c1.7,2.88,4.25,5.17,7.29,6.56c6.68,1.87,13.74,1.87,20.42,0
		c2.39-2.01,7.73-1.05,6.91-6.24s-5.54-3.91-9.01-4.38c-4.55-0.61-9.3,0.88-13.74-1.17c4.52-4.58,10.68-1.31,15.75-3.24
		c1.13-0.57,2.34-0.95,3.59-1.14C1177.06,516.43,1181.67,518.73,1185.96,521.68z"/>
	<path class="st11" d="M695.86,507.68h-17.73c-2.16-1.49-3.82-0.23-5.22,1.2c-2.51,2.6-5.69,5.25-8.75,2.16
		c-3.76-3.91,1.66-5.83,3.24-8.58c1.46-1.49,3.65-2.01,5.63-1.34c9.81,1.14,19.71,1.14,29.52,0c1.99-0.6,4.14-0.1,5.66,1.31
		c9.07,11.4,3.88,24.53,3.38,36.69c-0.23,5.83-6.53,2.1-10.09,0c-0.7-0.51-1.27-1.19-1.63-1.98c-1.02-3.62,0.41-7.2,0.2-10.82
		c0.74-1.17,0.83-2.63,0.23-3.88c0.07-0.77,0.3-1.51,0.67-2.19C704.41,509.92,703.53,507.68,695.86,507.68z"/>
	<path class="st11" d="M824.26,445.26l-4.29-0.85c-0.5-1.49-1.95-2.13-2.92-3.27c-1.78-2.45-3.18-5.83-0.67-7.79
		c1.95-2.06,5.2-2.15,7.26-0.2c0.6,0.56,1.05,1.26,1.32,2.04l1.28,2.92c8.75,4.32,18.2,2.6,27.33,2.33c2.92,0,7.2-0.61,8.31-4.96
		c-0.58-2.77,1.14-6.01-1.66-8.34c-1.56-0.22-2.71-1.55-2.71-3.12c0-1.9-0.35-4.2,2.74-4.14c3.18,0.82,6.39,1.49,9.48,2.6
		c0.39,0.13,0.7,0.43,0.85,0.82c4.46,9.71,3.85,13.24-3.47,20.13l0,0C853.13,448.24,838.67,445.9,824.26,445.26z"/>
	<path class="st11" d="M865.29,525.47c-0.67,4.11-5.34,4.87-7.79,8.75c9.37,0.63,18.77,0.63,28.15,0c3.21,0,7.55-1.22,7.67,4.32
		c0.12,5.54-4.38,4.26-7.53,4.32c-13.07,0.12-26.12,0.12-39.17,0c-2.57,0-6.21,1.49-7.06-2.92c-0.93-3.19,0.59-6.58,3.59-8.02
		c5.25-2.92,8.75-8.75,15.43-8.93c0.58,1.27,0.27,2.77-0.76,3.7c-2.46,2.02-5.02,3.91-7.67,5.66c-1.66,1.11-3.65,2.6-2.92,4.84
		c0.73,2.25,3.18,2.04,5.25,1.78c9.51-1.17,19.08,0,27.59-0.5c-7.35-0.15-15.72,0-24.09,0c-2.42,0-5.66,1.55-6.71-2.01
		c-0.93-3.09,1.93-4.46,3.97-6.01c1.17-0.88,2.36-1.69,3.56-2.54C859.58,526.72,861.53,523.08,865.29,525.47z"/>
	<path class="st11" d="M930.31,437.41c1.63-1.84,1.49-4.26,2.16-6.39c1.55-4.81,5.83-2.74,8.75-2.57c4,0.23,2.71,3.65,2.48,6.07
		c-0.38,3.97-3.73,6.1-5.83,8.98c-9.58,2.93-19.72,3.52-29.58,1.72c-3.72,0.63-7.24-1.87-7.87-5.58c-0.02-0.14-0.04-0.28-0.06-0.43
		c-0.99-3.81-1.28-7.76-0.88-11.67c4.78-4.35,6.04,0.61,8.25,2.92C912.11,439.98,918.64,441.96,930.31,437.41z"/>
	<path class="st11" d="M629.48,543.09l-4.75-0.82c5.37-1.81,9.95-2.92,12.8-6.77c1.4-1.92,3.35-4.08,0.61-5.83
		c-2.07-1.34-3.88-0.47-5.54,2.07c-5.02,7.64-26.57,11.26-33.75,5.45c-7.61-6.13-4.9-14.99-3.88-22.75c0.88-6.5,6.5-8.75,12.57-8.11
		c9.01,0.79,19.69-3.97,25.81,7.41c1.1,1.53,3.23,1.89,4.76,0.79c0.24-0.17,0.45-0.37,0.64-0.59c1.46-1.52,0.47-3.24-0.67-4.67
		c-2.1-2.63-5.4-3.24-8.02-4.9c-2.63-1.66,0.9-1.17,1.31-1.93c3.56,0.35,6.78,2.29,8.75,5.28c1.6,2.51,4.35,6.71,1.66,8.28
		c-3.59,2.78-8.76,2.13-11.54-1.46c-0.04-0.06-0.09-0.11-0.13-0.17c-5.05-6.8-24-9.39-29.75-3.5c-5.75,5.89-2.71,13.85-2.19,20.77
		c0.41,5.4,6.13,5.83,10.35,5.6c8.43-0.35,18.35,3.09,22.75-8.95c1.14-3.06,6.65-2.01,9.6-0.88s1.17,4.78,0.41,6.94
		C639.5,539.41,634.83,542.86,629.48,543.09z"/>
	<path class="st11" d="M1054.21,444.97l-4.96-2.36c-2.48-5.08-5.57-9.98-4.2-16.01c6.53-3.82,7.79,1.49,9.77,5.57
		c0.6,2.99,2.87,5.36,5.83,6.1c7.55-0.38,16.68,3.06,18.9-9.19c0.47-2.57,5.16-1.34,7.88-1.08c2.71,0.26,2.33,2.92,2.13,4.75
		c-0.52,5.08-1.93,9.65-7.99,10.7C1072.56,445.7,1063.28,443.51,1054.21,444.97z"/>
	<path class="st11" d="M821.57,521.47c0,4.9-0.18,9.83,0,14.73c0.2,4.4-0.58,7.03-6.04,7c-5.45-0.03-6.33-2.25-6.21-6.83
		c0.23-9.25,0-18.49,0.17-27.77c0-4.32,0-8.55,6.77-8.37c6.77,0.17,5.66,4.23,5.83,8.23c0.17,4,0,8.75,0,12.98L821.57,521.47z"/>
	<path class="st11" d="M760.67,426.45c0,4.64,0,9.28,0,13.91c0,3.97,0.41,7.18-5.57,7.12c-5.98-0.06-6.74-2.33-6.59-7.29
		c0.54-17.66,0.9-35.32,1.08-53c0-4.61,0.96-6.77,6.21-6.74c5.25,0.03,5.19,3.12,5.16,6.74c0,9.74,0,19.48,0,29.17
		c5.1,0.85,6.21-5.1,10.41-4.49c0.2,4.87-2.92,7-6.91,8.75c-6.3,0.9-7.82-2.92-8.17-8.05c-0.38-7.99,0.55-16.07-1.25-24.06
		c-0.93,16.8-0.88,33.57,0,50.4c2.3-4.43,0.38-9.6,2.92-13.91c0.53-0.83,1.53-1.22,2.48-0.96c0.73,0.58,0.85,1.65,0.27,2.38
		C760.7,426.42,760.69,426.43,760.67,426.45z"/>
	<path class="st11" d="M1159.3,515.35c4.29-0.17,8.75-1.46,12.66,1.2c-0.65,1.3-1.73,2.33-3.06,2.92
		c-7.09,1.72-14.41-0.29-21.53,1.25c-6.27,0.85-11.67-0.23-14.88-6.5c0-11.67,0.7-11.99,12.4-14.44c11.7-2.45,22.49,0,33.75-0.29
		c2.22,0.07,4.22,1.35,5.22,3.33c0,6.36-2.57,8.08-8.11,4.67c-9.28-5.69-18.99-4.2-28.76-2.92c-3.44,0.5-6.12,2.28-5.83,6.33
		c0.29,4.05,3.27,5.02,6.83,4.81C1151.75,516.02,1155.55,515.9,1159.3,515.35z"/>
	<path class="st11" d="M434.99,506.07l1.49,1.84c-4.35,11.05-8.75,22.02-12.98,33.16c-0.92,3.49-4.36,5.68-7.9,5.05
		c-22.43-0.9-17.35,4.81-25.84-18.03c-3.12-8.4-5.98-16.89-8.98-25.32c0.63-0.66,1.56-0.94,2.45-0.76
		c6.33,5.63,7.15,13.91,10.33,21.06c0.55,2.24,1.3,4.43,2.25,6.53c2.13,6.24,4.4,11.23,12.95,11.35c8.55,0.12,11.67-4.4,13.88-11.26
		c0.5-1.66,1.28-3.21,1.78-4.87C427.59,518.44,427.56,510.19,434.99,506.07z"/>
	<path class="st11" d="M700.88,535.65v2.1c0.38,4.23-2.71,4-5.43,4.23c-0.81,0.16-1.64,0.07-2.39-0.26
		c0.76,0.82,2.25,0.15,2.92,1.37c-8.79,2.14-17.96,2.14-26.75,0c0.6-0.76,1.55-1.15,2.51-1.02c-5.02,1.37-9.28-1.81-11.67-7.18
		c-3.12-6.94,0.67-12.16,5.51-16.77c1.58-1.95,3.7-1.34,5.83-1.2c1.08,0.61,2.28,1.08,2.68,2.42c0.26,1.23,0.07,2.51-0.52,3.62
		c-5.13,8.46-3.3,12.57,6.33,14c3.72,0.67,7.54,0.32,11.08-0.99C694.2,535.18,697.5,533.29,700.88,535.65z"/>
	<path class="st11" d="M553.73,441.53c0.38,4.61,3.33,5.43,7.32,5.43c3.22,0.34,6.28-1.44,7.58-4.4c2.3-4.29,2.28-9.71,6.45-13.01
		c0,5.4-3.35,9.74-4.78,14.58c-1.63,5.57-6.04,4.26-9.98,4.49c-3.94,0.23-7.03-0.2-8.75-4.9c-6.01-16.28-12.54-32.32-19.25-49.35
		l-14.96,35.32c-0.74-0.53-1.28-1.29-1.55-2.16c1.11-12.19,7.67-22.6,11.4-33.95c5.08-6.36,5.28-6.33,10.53,0.7
		c3.53,11.67,8.75,22.6,12.66,34.04C551.66,432.75,554.05,436.8,553.73,441.53z"/>
	<path class="st11" d="M382.64,502.75h-2.01c-5.08-12.98-10.12-25.96-15.72-40.22c-7.29,17.5-14,33.51-20.71,49.58l-1.78-2.36
		c-1.21-2.36-1.07-5.19,0.38-7.41c6.21-13.33,11-27.21,16.71-40.83c1.05-2.45,2.25-5.08,5.34-4.87c4.2,0.29,4.99,4.23,6.62,7.15
		c2.51,7.03,4.43,14.29,7.41,21.15C380.57,490.85,386.02,496.01,382.64,502.75z"/>
	<path class="st11" d="M753.47,502.72c-3.18,1.02-5.37,8.34-9.95,1.08c-1.07-1.35-3.04-1.57-4.39-0.5c-0.84,0.67-1.28,1.73-1.16,2.8
		c-0.29,10.44,0,20.88,0,31.33c-0.19,1.7,1.02,3.23,2.72,3.42c0.13,0.02,0.27,0.02,0.4,0.02c2.63,0.15,3.7-1.34,3.7-3.7
		c0-6.68,0-13.36,0-20.04c0.23-8.11,5.83-11.67,13.91-9.28c-8.9,0.88-12.54,6.04-12.25,14.58c0.17,4.61,0,9.25,0,13.85
		s-0.38,7.06-5.83,7.03c-5.45-0.03-6.3-1.87-6.13-6.62c0.35-9.22,0-18.49,0.17-27.71c0.23-8.34,2.92-10.53,10.79-7.5
		c2.64,0.87,5.5,0.78,8.08-0.23c0.58,0.32,0.79,0.61,0.58,0.93C753.94,502.51,753.67,502.72,753.47,502.72z"/>
	<path class="st11" d="M874.25,509.75c-5.57-3.5-11.67-0.85-17.5-1.72c-4.7-0.7-9.77,1.72-14.15-1.63c1.4-1.95,1.78-4.61,5.4-4.55
		c13.97,0.26,27.91,0,41.88,0.17c1.48,0.1,2.78,1.01,3.38,2.36c0.56,1.3-0.05,2.81-1.35,3.37c-0.06,0.03-0.13,0.05-0.19,0.07
		c-5.63,0.79-8.34,6.65-13.71,7.9c-1.63-0.2-3.1-1.05-4.08-2.36c-0.25-0.84,0.05-1.75,0.76-2.27c0.68-0.47,1.39-0.9,2.13-1.28
		C875.94,509.75,875.07,510.33,874.25,509.75z"/>
	<path class="st11" d="M967.18,441.47c12.63,4.39,26.37,4.39,39,0c1.05-0.38,2.6-1.34,3.15-0.96c12.13,8.4,7.85-2.92,8.31-7.2
		c0.64-5.69-0.26-11.67,0.29-17.27c0.79-7.73-1.2-13.48-8.95-16.3c7.85-0.61,11.38,3.91,11.67,10.82
		c0.23,10.38-0.32,20.77-0.47,31.12c0,5.43-4.49,4.46-6.85,3.68c-5.83-1.98-11,0-16.48,0.82c-9.98,1.94-20.32,0.83-29.66-3.18
		c-0.5-0.38-0.64-0.7-0.44-1.05C966.94,441.59,967,441.47,967.18,441.47z"/>
	<path class="st11" d="M1010.37,420.88c-0.61,1.55-2.01,1.66-3.38,1.78c-1.59,1.69-3.71,2.79-6.01,3.12
		c-8.23-1.34-16.45,0.15-24.68,0c-0.9-0.29-1.68-0.86-2.22-1.63c3.53-7.18-2.92-4.14-5.4-5.25c10.85-5.34,22.08-3.47,33.28-1.72
		C1004.51,419.04,1007.89,418.92,1010.37,420.88z"/>
	<path class="st11" d="M702.75,401.45c-3.41,0-5.16,11.2-10.56,1.14c-1.55-2.92-6.24,0.2-6.36,3.85
		c-0.41,12.1-0.32,24.24-0.29,36.34c-0.06,1.96,1.48,3.61,3.44,3.67c0.19,0.01,0.37,0,0.55-0.03c2.15,0.21,4.06-1.36,4.27-3.51
		c0.03-0.29,0.02-0.58-0.01-0.87c0-6.36,0-12.69,0-19.05c0-3.38-0.7-7.03,2.01-9.89c0,9.77-0.26,19.57,0,29.37
		c0,4.81-2.19,5.83-6.33,5.83c-4.14,0-6.07-1.63-5.83-6.18c0.29-11.52,0.47-23.07,0-34.62c-0.32-8.37,5.83-9.28,9.89-6.65
		C697.58,403.49,699.83,400.37,702.75,401.45z"/>
	<path class="st11" d="M1026.24,500.5c0-4.05,0-8.11-0.35-12.1c-0.38-4.78,1.25-6.59,6.33-6.56s5.4,2.92,5.34,6.62
		c-0.23,15.02-0.35,30.01-0.53,45.03c0,8.75-0.99,9.33-10.82,6.5c-0.64-1.6-2.74-2.6-2.1-4.75c0.6-1.49,2.3-2.22,3.79-1.62
		c0.22,0.09,0.42,0.2,0.61,0.33c3.47,1.52,4.14-0.64,4.2-3.21c0.2-13.74,0.2-27.45-0.67-41.18c-2.01,4.03-0.73,8.46-1.84,12.51
		c-1.4,5.13-3.68,7.61-7.64,1.63C1022.56,501.26,1025.98,502.66,1026.24,500.5z"/>
	<path class="st11" d="M1026.24,500.5c0.17,1.9-0.99,2.3-2.57,2.3c-0.75,0.59-1.59,1.05-2.48,1.37c-7.85-0.26-15.72-1.98-23.54,0.38
		c-7.82,0.67-11.08,4.9-10.97,12.69c-0.1,6.36,0.59,12.71,2.04,18.9c0.04,0.9-0.47,1.74-1.28,2.13c-6.91-6.42-8.75-18.99-4.75-29.52
		c3.41-8.75,11-9.51,18.67-9.48C1009.58,499.31,1017.95,500.06,1026.24,500.5z"/>
	<path class="st11" d="M517.1,427.93l0.23,1.84c-1.52,3.72-2.84,7.53-3.94,11.4c-1.69,7.29-6.74,7.64-13.01,7.9
		c-6.8,0.29-7.35-4.38-8.9-8.52c-4.52-12.16-8.75-24.41-13.33-36.63c0.37-0.76,1.25-1.12,2.04-0.85c6.8,7.85,7.79,18.32,12.31,27.21
		c0.93,1.78,1.31,3.79,2.07,5.66c1.46,3.7,2.36,8.05,7.44,8.49c5.83,0.47,6.59-4.55,8.43-8.31
		C512.52,433.3,511.76,428.11,517.1,427.93z"/>
	<path class="st11" d="M930.31,437.41c-9.77,6.39-19.51,3.7-23.07-6.3c-3.29-8.04-3.57-17-0.79-25.23
		c3.24-3.97,7.82-2.92,12.05-3.15c6.07-0.26,12.13,0.35,18.14-0.44c1.14-0.43,1.9-1.52,1.9-2.74c3.47-1.93,3.94,0.26,4.11,2.92
		c0.17,2.65-1.55,4-4.32,4c-7.55,0-15.11,0-22.66,0c-2.6,0-5.6-0.38-5.66,3.53c-0.15,7.23-0.38,14.58,0,21.7
		c-0.08,3.66,2.82,6.68,6.48,6.76c0.33,0.01,0.66-0.01,0.99-0.05C921.78,438.74,926.11,438.4,930.31,437.41z"/>
	<path class="st11" d="M1159.3,515.35c-3.7,2.51-7.88,0.93-11.84,1.34c-3.41,0.32-6.45-0.38-7.12-4.55
		c-0.67-4.17,1.17-7.82,5.45-8.37c9.98-1.34,20.42-3.65,29.58,2.13c4.99,3.12,7.03,1.84,8.49-2.92c1.46,1.9,3.12,4.78,1.11,6.15
		c-3.07,1.9-6.94,1.9-10,0c-8.75-6.01-18.2-3.85-27.59-3.09c-3.09,0.23-5.16,1.57-4.96,4.75c0.2,3.18,2.54,4.17,5.54,4.17
		C1151.74,514.94,1155.42,515.2,1159.3,515.35z"/>
	<path class="st11" d="M771.14,507.68c5.83-0.76,8.11,1.05,8.49,7.61c0.38,6.56,0,13.27,0,19.89c0,2.45-0.61,5.6,3.35,5.83
		c3.97,0.23,3.62-2.92,3.5-5.54c-0.35-9.74,1.43-19.57-1.52-29.17c0.47-0.7,0.9-0.73,1.28,0c5.83,11.35,1.25,23.33,1.66,35
		c0,3.24-4.87,1.52-7.53,1.72c-3.33,0.29-3.3-1.87-3.21-4.55c0.29-6.94,0.26-13.91,0-20.88
		C777.39,513.1,776.95,508.67,771.14,507.68z"/>
	<path class="st11" d="M695.98,543.09l-6.59-0.93c4.43-1.9,9.39,0.38,11.67-4.4c10.18,5.02,10.38,4.9,10.41-6.48
		c0-5.16,0-10.33,0-15.49c0-4.43-0.23-8.31-4.64-11.17c-2.51-1.63,0.7-1.52,1.43-2.1c4.04,2.47,6.43,6.93,6.24,11.67
		c0.1,2.92,0.05,5.84-0.18,8.75c-0.35,6.33,1.11,13.77-1.75,18.73C709.37,547.2,701.52,540.11,695.98,543.09z"/>
	<path class="st11" d="M765.57,418.89l5.83-7l7.61-6.85c3.24,0,5.6-6.39,8.75-2.51c3.15,3.88-2.92,5.83-4.49,8.58
		c-0.88,1.4-2.92,1.93-3.5,3.65c-1.52,2.92-5.83,2.54-6.88,5.98C769.83,422.45,766.86,424.06,765.57,418.89z"/>
	<path class="st11" d="M1178.75,499.54c-2.42,2.11-5.86,2.58-8.75,1.2c-9.3-3.09-18.26,0.44-27.33,0.7
		c-8.37,0.23-9.89,6.45-9.13,13.5c1.06,1.03,1.09,2.73,0.06,3.79c-0.02,0.02-0.04,0.04-0.06,0.06c-5.28-11.67-2.51-17.33,9.36-19.69
		C1154.74,496.57,1166.99,496.72,1178.75,499.54z"/>
	<path class="st11" d="M1046.13,426.01c-1.69,6.07,2.3,11.08,3.12,16.71c-7-5.66-4.52-13.65-5.51-20.88
		c-0.85-5.98,5.45-14.99-6.33-17.09c-0.38,0-0.64-1.52-0.7-2.33c-0.06-0.82,0.01-1.65,0.2-2.45c8.31,0,5.16-10.06,10.53-11.84
		c2.3-0.79,6.21-2.16,8.46,1.43c-0.58,0.57-1.24,1.07-1.95,1.46c-7.03,3.53-8.75,7.76-6.56,15.14c0.5,1.91,0.78,3.86,0.82,5.83
		C1048,416.68,1049.25,421.61,1046.13,426.01z"/>
	<path class="st11" d="M765.57,418.89c1.9,2.68,4.73,1.72,7.26,1.84c0.25,0.26,0.25,0.67,0,0.93c1.98,3.5,6.88,4.75,7.44,9.39
		c-0.88,1.47-2.32,2.52-4,2.92c-1.26,0.19-2.55-0.13-3.59-0.88l0,0c-4.08-2.92-6.94-7.44-12.08-8.93c-0.53-0.06-1.07-0.06-1.6,0
		c-4.03-3.79-6.77-7.64-0.47-11.84C758.14,417.26,759.83,420.18,765.57,418.89z"/>
	<path class="st11" d="M938.53,399.56l2.19,2.28c-9.1,3.12-18.49,0.82-27.71,1.46c-5.05,0.29-6.27-4.2-9.22-7.79
		c-2.19,6.07-5.28,10.24-12.13,6.59c-0.57-0.64-0.51-1.62,0.13-2.18c0.01-0.01,0.03-0.02,0.04-0.03c3.27-0.67,7.47-0.26,6.62-5.69
		c-0.7-4.58,1.87-5.19,5.63-5.08c3.76,0.12,6.65,0,6.15,4.84c-0.5,4.84,2.54,5.54,6.5,5.48
		C924.01,399.32,931.27,399.5,938.53,399.56z"/>
	<path class="st11" d="M500.18,430.88c2.33,4.49,3.5,3.12,4.96-0.7c4.84-12.72,9.89-25.32,14.9-37.92c0.72-1.55,1.53-3.06,2.42-4.52
		c0.68,0.56,1.18,1.31,1.43,2.16c0.4,1.74,0.33,3.54-0.17,5.25c-4.84,12.86-10.21,25.55-14.9,38.47c-1.78,2.92-2.71,7.12-6.97,6.24
		c-3.12-0.64-3.76-3.91-3.35-7C498.71,431.97,499.34,431.24,500.18,430.88z"/>
	<path class="st11" d="M1060.68,438.26c-4.08,0.41-5.83-1.93-6.59-5.51c-2.7-8.76-3.16-18.05-1.34-27.04
		c1.9-4.7,6.12-4.52,10.15-4.73c7.44-0.35,14.93,0.67,22.34-0.76c0.84-0.47,1.64-1.02,2.39-1.63c2.62,4.55,1.37,6.88-3.94,6.88
		h-13.85c-13.45,0-13.45,0-13.62,13.74c0,3.18,0.2,6.33,0,9.48C1055.62,432.49,1057.39,436.28,1060.68,438.26z"/>
	<path class="st11" d="M775.81,433.16l4.03-2.16c1.36-0.7,2.99-0.58,4.23,0.32c0.41,0.13,0.74,0.44,0.88,0.85
		c3.21,3.68,7.09,6.68,10.56,10.09l1.4,1.14c-2.92,5.05-7.09,2.3-10.91,1.66c-0.4-0.11-0.74-0.39-0.93-0.76
		C782.26,440.33,776.89,438.49,775.81,433.16z"/>
	<path class="st11" d="M578.38,394.54c-2.92,14.58-10.3,27.85-14.99,41.94c-1.87,5.57-3.94,1.43-5.83-0.38
		c-1.39-1.08-1.74-3.03-0.82-4.52c0.45-0.65,1.35-0.8,1.99-0.35c0.04,0.03,0.07,0.05,0.11,0.08c2.13,4.99,2.92,2.42,4.2-0.58
		c3.59-9.42,7.18-18.81,10.97-28.15C575.23,399.76,575.23,396.32,578.38,394.54z"/>
	<path class="st11" d="M874.19,513.1c1.43-0.09,2.78,0.64,3.5,1.87c-0.26,4.4-5.63,4.38-6.94,7.9l-5.45,2.6l-6.85,3.38
		c-3.06,0-2.92-1.31-1.6-3.3l1.75-2.48l4.49-4.64C867.07,517.24,869.35,512.55,874.19,513.1z"/>
	<path class="st11" d="M558.9,431.32h-1.63c-3.47,0-3.5-3.24-4.87-5.19c-3.79-10.3-7.93-20.42-11.9-30.71
		c-0.82-3.21-2.45-6.3-1.69-9.8c0.28-0.79,0.92-1.4,1.72-1.63C547.46,399.43,553.59,415.23,558.9,431.32z"/>
	<path class="st11" d="M673.06,521.79v-3.18c7.35-2.65,15.2,0.55,22.58-1.81c5.69,0.58,6.13-2.92,5.43-7.09
		c3.47,4.11,3.47,4.49,0,12.22l0,0C692.14,525.94,681.93,525.89,673.06,521.79z"/>
	<path class="st11" d="M970.65,400.96c-0.17,0.54-0.38,1.07-0.64,1.57c-1.25,2.1-4.58,4.2-2.16,6.62c2.42,2.42,4.81,0.38,7.26-1.81
		c6.62-5.83,25.14-5.83,32.08,0c-11.14-1.78-22.4-6.13-32.55,3.56c-2.04,1.93-7.58,2.51-9.28-0.9
		C963.3,405.8,966.04,402.36,970.65,400.96z"/>
	<path class="st11" d="M597.34,502.4c0.67,0.58,2.92,0.96,1.87,1.63c-14.03,8.34-16.63,21-6.74,34.59c0.79,1.11,1.02,1.93-0.23,2.77
		c-11.17-6.88-6.97-17.7-6.62-27.21C585.88,507.44,590.78,503.68,597.34,502.4z"/>
	<path class="st11" d="M1024.55,535.77l1.66,4.23c-10.33,0.93-20.42,4.99-31.03,1.55c-2.78-0.55-5.41-1.67-7.73-3.3l0.53-0.55
		c1.27-1.25,3.07-1.78,4.81-1.43C1003.4,538.45,1013.96,536,1024.55,535.77z"/>
	<path class="st11" d="M815.71,492.42c-3.12,0.23-5.69,0-5.66-4.26c0.03-4.26,2.92-4.78,6.3-4.75c3.38,0.03,5.57,0,5.6,4.32
		C821.98,492.48,819.12,492.63,815.71,492.42z"/>
	<path class="st11" d="M665.56,518.12c0.82,0.44,2.92,1.23,2.07,1.49c-7.29,2.48-7.93,8.2-6.53,14.09c1.63,6.83,7.7,7.79,14.18,7.64
		c-2.01,2.22-4.26,1.05-6.04,1.75c-6.15-0.03-11.19-4.91-11.4-11.05C657.13,525.94,658.94,520.54,665.56,518.12z"/>
	<path class="st11" d="M893.21,504.38c-15.23-3.59-30.63-0.96-45.94-1.34c-1.55,0-3.15,2.19-4.73,3.35
		c-0.76-3.12-0.96-5.83,3.59-5.83c14.78,0.19,29.56,0.38,44.33,0.55C892.92,501.14,893.47,502.34,893.21,504.38z"/>
	<path class="st11" d="M779.72,414.75c0.61-5.05,6.77-6.42,8.05-11.2c-3.76-2.16-5.6,3.12-8.75,1.49c4.05-7,10.62-5.43,17.82-5.02
		C791.94,406.61,785.67,410.49,779.72,414.75z"/>
	<path class="st11" d="M869.84,422.6l-11.32-1.28c-9.15,3.2-19.14,3.07-28.2-0.35c-1.89-0.78-3.18-2.55-3.35-4.58
		c9.83,2.92,19.92,2.25,29.95,2.48C861.54,418.56,866.11,419.88,869.84,422.6z"/>
	<path class="st11" d="M478.16,403.93c-3.58-6.5-6.18-13.48-7.73-20.74c11.96-1.55,11.96-1.55,15.93,11.03
		c-0.45,0.68-1.29,0.98-2.07,0.76c-3.12-1.34-2.92-5.54-6.59-7.18c-2.3,5.45,4.9,9.98,1.43,15.2
		C478.75,403.29,478.48,403.61,478.16,403.93z"/>
	<path class="st11" d="M891.84,399.76l0.2,2.1c4.64,1.93,11.29,1.52,10.85,9.3c-0.17,4.99,1.37,10.24-2.19,14.76
		c0,4.38-0.2,8.75-0.29,13.18c-4.87-8.14-1.05-16.95-1.95-25.4c-0.38-3.73,0.67-7.26-5.4-7.58
		C888.54,406,889.18,402.68,891.84,399.76z"/>
	<path class="st11" d="M486.36,394.22c5.36,11.92,9.98,24.17,13.83,36.66l-0.96,0.73c-1.47-0.08-2.76-0.99-3.35-2.33
		c-4.32-11.23-11.17-21.67-10.65-34.39L486.36,394.22z"/>
	<path class="st11" d="M1133.16,518.79c0-1.28,0-2.57,0-3.85c4.26,3.12,8.46,6.33,14.29,5.05c7.42-1.2,15-1.07,22.37,0.38
		c-5.66,3.09-11.9,0.35-17.73,1.81C1145.74,521.82,1138.82,523.72,1133.16,518.79z"/>
	<path class="st11" d="M824.26,445.26c14.35-0.52,28.82,1.28,43.05-1.78c-5.28,4.99-11.96,3.68-18.2,3.73
		C840.79,447.27,832.31,448.85,824.26,445.26z"/>
	<path class="st11" d="M719.58,408.74c1.84-0.03,3.42,1.28,3.73,3.09c0.76,3.12,2.51,4.81,5.54,3.41c3.03-1.4,1.75-4.29,1.08-6.77
		c-0.93-3.38-4.32-4.52-6.21-7.03c8.75,0.5,8.75,7.58,9.74,13.56c0.38,2.16-1.84,2.92-3.56,2.57c-2.92-0.47-6.5,2.01-8.11-2.36
		C721.04,413.06,720.34,410.9,719.58,408.74z"/>
	<path class="st11" d="M667.48,502.6c5.51,3.24-0.88,2.04-1.31,2.92c-0.99,1.72-2.74,3.15-0.9,5.08c1.43,1.46,3.12,0.61,4.58-0.44
		c2.45-1.81,4.32-5.83,8.28-2.25c-2.23,0.32-4.24,1.54-5.54,3.38c-3.33,3.56-9.33,3.56-11.14,0.61
		C658.85,507.68,663.08,504.24,667.48,502.6z"/>
	<path class="st11" d="M1087.63,398.59c-0.17,0.47-0.3,0.96-0.38,1.46c-9.86,3.18-20.07,2.01-29.9,0.9c-6.36-0.7-5.83-6.5-2.92-11.4
		h1.6c-0.61,6.68,1.52,9.71,9.13,8.75C1072.66,397.92,1080.16,398.02,1087.63,398.59z"/>
	<path class="st11" d="M862,435.61c0.47,1.96-0.74,3.93-2.7,4.39c-0.12,0.03-0.24,0.05-0.37,0.07c-11,2.1-22.02,4.38-32.58-1.84
		c8.42,1.65,17.02,2.15,25.58,1.49C855.7,439.7,859.3,438.22,862,435.61z"/>
	<path class="st11" d="M786.37,506.34h-0.64h-0.64c-9.98-6.07-21.06-2.54-31.62-3.56c0-0.47,0-0.93,0-1.4
		c7.91-1.13,15.94-1.26,23.89-0.41C781.17,500.76,784.74,502.88,786.37,506.34z"/>
	<path class="st11" d="M870.75,522.87c0.44-4.29,4.73-5.19,6.94-7.9c5.19-1.34,7.23-8.75,13.97-7.15L870.75,522.87z"/>
	<path class="st11" d="M575,429.6c1.66-9.71,6.13-18.38,10.5-27.07C583.99,412.21,580.41,421.44,575,429.6z"/>
	<path class="st11" d="M967.18,441.47c-0.04,0.5-0.04,1.01,0,1.52c-8.46-8.31-7.76-18.61,1.66-24.06
		C962.92,426.01,961.23,433.51,967.18,441.47z"/>
	<path class="st11" d="M874.19,513.1c-3.88,1.43-6.45,5.51-11.11,5.34c3.17-3.57,6.95-6.53,11.17-8.75c2.3-0.96,2.04-5.05,5.83-4.4
		C881.25,510.21,875.88,510.36,874.19,513.1z"/>
	<path class="st11" d="M1140.25,527.31c-6.04,3.73-6.04,3.73-5.83,10.88c-3.79-2.04-5.83-5.83-4.32-9.28
		C1132.09,524.89,1136.72,527.19,1140.25,527.31z"/>
	<path class="st11" d="M1009.15,399.76h-32.64C987.21,396.99,998.44,396.99,1009.15,399.76z"/>
	<path class="st11" d="M701,521.94c0.52-1.34-4-1.63-0.85-3.38c4.67-2.62,3.44-5.63,0.9-8.75c-1.23-1.95-3.38-1.52-5.19-1.95
		c3.09-2.77,6.88-1.98,7.58,1.2C704.35,513.16,707.85,518.85,701,521.94z"/>
	<path class="st11" d="M1143.93,540.93c9.64-2.46,19.74-2.46,29.37,0H1143.93z"/>
	<path class="st11" d="M702.63,501.2c-9.67,2.55-19.84,2.55-29.52,0C682.93,500.23,692.82,500.23,702.63,501.2z"/>
	<path class="st11" d="M1054.21,444.97c8.98-2.92,18.26-0.79,27.39-1.52C1072.64,447.1,1063.43,446.05,1054.21,444.97z"/>
	<path class="st11" d="M908.35,445.23c9.89,0.24,19.78-0.33,29.58-1.72C928.67,447.96,918.05,448.57,908.35,445.23z"/>
	<path class="st11" d="M825.07,435.2c-2.48-1.69-5.54-3.56-7.73-0.85c-3.12,3.88,2.25,6.5,2.6,10.06c-2.24-0.69-4.04-2.37-4.9-4.55
		c-0.88-2.57-2.92-6.39,0.53-7.55C818.42,431.41,823.73,428.58,825.07,435.2z"/>
	<path class="st11" d="M1168.05,533.93c0.28,0.08,0.54,0.2,0.79,0.35c0.37,0.29,0.71,0.61,1.02,0.96c-7.99,1.11-16.1,1.11-24.09,0
		c0-0.2,0-0.53,0.23-0.61c0.5-0.27,1.02-0.52,1.55-0.73L1168.05,533.93z"/>
	<path class="st11" d="M591.8,386.05c-4.14-3.33-7.5-3.09-9.71,2.16c-0.96,2.28-1.14,5.05-3.73,6.36
		c2.33-11.99,5.51-14.99,13.59-12.45C595.7,383.31,594.77,384.83,591.8,386.05z"/>
	<path class="st11" d="M658.88,442.55c-1.11-2.54,3.73-5.28,0-7.41c-3.73-2.13-5.83,2.07-8.75,3.06c0.17-5.13,3.62-5.83,7.64-5.43
		c1.87,0.15,4.75-0.82,5.31,1.31C663.74,437.53,662.03,441,658.88,442.55z"/>
	<path class="st11" d="M867.22,443.51c5.54-5.83,5.83-12.78,3.47-20.13C876.7,431.84,875.42,438.7,867.22,443.51z"/>
	<path class="st11" d="M858.32,424.64l2.01,2.62c-8.14-1.93-16.45-0.67-24.65-1.52c-0.42-0.98,0.03-2.11,1.01-2.53
		c0.03-0.01,0.06-0.03,0.1-0.04C844.03,422.74,851.38,420.79,858.32,424.64z"/>
	<path class="st11" d="M695.63,516.81c-7.29,3.47-15.11,0.61-22.58,1.81l-1.75-1.69L695.63,516.81z"/>
	<path class="st11" d="M835.75,424.41c0,0.44,0,0.88,0,1.34c-5.57,0.47-11.05,0.5-15.84-3.12l10.59-0.18
		C833.01,420.96,834.58,422.04,835.75,424.41z"/>
	<path class="st11" d="M818.22,404.16c-1.95,6.42-2.71,12.72,1.75,18.52C812.97,417.55,812.42,411.72,818.22,404.16z"/>
	<path class="st11" d="M522.73,389.38c0.03-0.57-0.06-1.13-0.26-1.66c4.17-10,11.67-4.75,18.05-3.76c-0.36-0.04-0.71,0.13-0.9,0.44
		C534.16,387.01,528.15,387.01,522.73,389.38z"/>
	<path class="st11" d="M625.6,501.23c-7.29,2.45-15.17,2.45-22.46,0C610.6,500.39,618.14,500.39,625.6,501.23z"/>
	<path class="st11" d="M723.75,401.54h-21.23C709.3,398.68,716.96,398.68,723.75,401.54z"/>
	<path class="st11" d="M775.81,433.16c2.3,4.35,7.96,5.83,9.25,11.14c-4.88-2.83-9.11-6.64-12.43-11.2L775.81,433.16z"/>
	<path class="st11" d="M1010.37,420.88c-3.2,0.04-6.26-1.3-8.4-3.68c9.54,2.39,7.12-3.59,6.04-8.6
		C1013.2,411.86,1010.11,416.71,1010.37,420.88z"/>
	<path class="st11" d="M785.99,445.06c3.62-0.64,7.79,2.16,10.91-1.66c1.5-0.6,3.19,0.13,3.79,1.62c0.06,0.15,0.11,0.31,0.15,0.48
		c0.41,2.01-1.66,1.9-2.92,1.69C793.92,446.57,789.37,448.99,785.99,445.06z"/>
	<path class="st11" d="M760.59,424.2c6.33,0,9.1,4.55,12.08,8.93c-5.05-0.35-6.42-7.23-11.99-6.68L760.59,424.2z"/>
	<path class="st11" d="M784.06,431.32l-4.23-0.32c-1.69-3.62-6.59-4.81-7.06-9.33C777.04,424.25,780.85,427.51,784.06,431.32z"/>
	<path class="st11" d="M795.5,442.26c-4.66-1.93-8.42-5.53-10.56-10.09C789.05,434.91,793.75,436.95,795.5,442.26z"/>
	<g>
		<path class="st11" d="M613.73,428.31c0.7-4.9,5.08-3.97,8.34-4c10.73,0,21.5,0,32.08,0c8.58,0,9.57-1.23,7-9.74
			c-1.08-3.56-2.74-6.94-4.11-10.38c0.12,0.07,0.19,0.15,0.3,0.21c-0.06-0.07-0.1-0.15-0.16-0.21c-14.23-6.42-28.82-4.64-43.4-1.52
			c-4.64,1.24-8.11,5.11-8.84,9.86c-1.89,7.6-2.04,15.53-0.44,23.19c1.02,4.55,3.24,8.54,7.7,9.74c15.72,4.11,31.59,6.27,46.67-2.92
			c0.41-2.74,4.99-5.46,1.02-8.11c-3.05-1.77-6.96-0.74-8.75,2.3c-0.32,0.47-0.7,0.87-1.05,1.34c-0.13,0.06-0.27,0.11-0.4,0.17
			c0.16-0.06,0.33-0.08,0.49-0.14c-7.15,6.07-15.17,6.18-23.62,3.5c0.02,0,0.04,0,0.07,0c-0.05-0.01-0.1-0.01-0.15-0.02l-8.69-3.28
			c0,0,0,0,0,0.01C612.39,436.63,613.18,432.16,613.73,428.31z M618.37,410.29c0.84-0.8,1.85-1.4,2.95-1.78
			c10.12-0.61,20.59-4.2,29.66,3.59c3.09,4.67,3.12,7.84-3.7,7.82c-8.37,0-16.71,0-25.05,0c-2.45,0-5.83,1.31-7.12-1.46
			C613.61,415.22,616.27,412.62,618.37,410.29z"/>
		<path class="st11" d="M657.34,404.41c3.27,3.96,5.35,8.77,5.97,13.87c0.44,4.35-0.23,7.12-5.83,6.91
			c-11.31-0.44-22.64-0.17-33.92,0.82c-2.92,0.26-7.03-1.23-8.75,2.36c-1.76,3.56-0.49,7.88,2.92,9.92l0.06,0.02
			c-4.02-10.96-3.93-11.05,7.44-11.25c10.79-0.18,21.55-0.38,32.35-0.67c2.68-0.06,6.27,0.88,6.27-3.76
			C663.9,415.74,664.4,408.66,657.34,404.41z"/>
		<path class="st11" d="M649.7,438.26c-7.45,2.73-15.3,2.79-23.07,3.35C634.85,443.97,642.37,441.77,649.7,438.26z"/>
	</g>
	<path class="st11" d="M440.54,459.23c1.16-2,2.07-4.14,2.71-6.36c1.55-9.33,8.75-7.18,14.82-7.7c7.06-0.61,8.58,3.79,10.5,9.04
		c9.74,26.25,19.83,52.5,29.6,78.75c1.14,2.92,4.84,7.58,0,9.42c-4.84,1.84-9.83,1.63-12.31-5.48
		c-8.37-24.06-17.33-47.89-26.25-71.75c-0.93-2.51-0.85-6.65-4.05-7.09c-3.73-0.5-2.3,4.84-4.99,6.18
		C446.75,463.78,443.2,462.01,440.54,459.23z"/>
	<path class="st11" d="M434.99,506.07l-8.75,19.28c-3.94,2.62-7.88,5.63-11.87,0l13.83-36.66c2.27-4.7,4.52-9.42,6.8-14.12
		c7.06,0.5,9.25,4.29,7.35,10.82C439.78,492.34,437.33,499.23,434.99,506.07z"/>
	<path class="st11" d="M442.08,485.51c0.26-5.43-3.3-8.28-7.35-10.82c1.93-5.16,3.85-10.3,5.83-15.46c4.49-0.47,7.15,2.63,10.12,5.1
		C448.03,471.51,446.17,478.95,442.08,485.51z"/>
	<path class="st11" d="M369.84,464.48c-2.28-1.75-1.87-6.5-5.05-6.36c-4.2,0.2-2.92,4.93-4.17,7.64
		c-6.15,14.58-12.16,29.31-18.2,43.98c-3.41,8.75-6.74,17.82-10.35,26.63c-1.02,2.51-1.52,6.07-5.13,6.33
		c-3.12,0.23-7.12,0.82-9.19-0.76c-2.07-1.58,0-5.34,1.14-7.96c11.67-27.71,23.57-55.42,35-83.16c1.58-3.76,3.24-6.15,7.41-5.51
		c5.05,0.79,11.35-2.92,14.58,4.32c2.15,4.09,3.68,8.49,4.52,13.04C376.98,463.69,373.74,466.84,369.84,464.48z"/>
	<path class="st11" d="M382.64,502.75c-0.32-6.3-4.38-11.43-5.37-17.5c0-5.54,1.2-9.89,8.31-8.55c6.77,15.33,12.77,31,17.97,46.93
		c-3.24,6.5-5.57,6.5-11.99,0L382.64,502.75z"/>
	<path class="st11" d="M391.56,523.69c4,0.9,8.02,6.33,11.99,0c1.55,3.24,3.06,6.48,4.64,9.83c4.32-1.2,2.92-6.15,5.83-7.96
		c3.97,2.92,7.9-1.02,11.87,0c-0.7,2.22-1.23,4.46-2.07,6.59c-3,9.19-12.88,14.2-22.07,11.2c-0.43-0.14-0.85-0.3-1.26-0.47
		c-3.85-1.4-4.17-5.34-5.54-8.37C393.6,530.98,392.48,527.36,391.56,523.69z"/>
	<path class="st11" d="M385.59,476.67c-5.16,0.55-6.36,4.9-8.31,8.55c-3.97-6.39-5.37-13.68-7.44-20.74
		c3.73,0.61,6.33-5.6,10.62-1.81C382.23,467.31,385.03,471.6,385.59,476.67z"/>
	<g>
		<path class="st11" d="M525.59,502.4l4.78,1.02c-6.21,1.72-11.96,2.19-14.58,7.61c-3.56,7.15-1.81,14.58-1.49,22.05
			c0,1.55,1.78,3.09-0.32,4.49C506.51,520.6,511.32,506.16,525.59,502.4z"/>
		<path class="st11" d="M566.01,537.54c0.9-6.85-6.13-3.73-8.37-6.62C560.41,533.14,572.08,524.36,566.01,537.54z"/>
		<path class="st11" d="M524.56,526c0.62-0.34,1.33-0.65,2.22-0.9C525.91,525.11,525.13,525.33,524.56,526z"/>
		<path class="st11" d="M524.01,536.41c-2.9-2.59-4.03-6.63-2.92-10.35c1.23-3.91,4.9-1.93,7.53-2.36c1.45-0.16,2.91-0.25,4.37-0.26
			c0,0,0,0,0,0l-6.73-2.91h5.31c-0.22-0.13-0.44-0.24-0.69-0.34c-0.83-0.11-1.67-0.08-2.49-0.22c-3.47-0.61-7.12-1.6-4.05-6.62
			l3.53-3.41c7.67-4,15.66-2.92,23.6-1.37c3.61,0.46,6.19,3.7,5.83,7.32c-0.28,3.49-3.26,3.84-6.06,4.25
			c-0.38,0.11-0.75,0.24-1.08,0.39h5.27l-6.31,2.72c0.02,0.06,0.07,0.15,0.09,0.21c15.49,0.61,15.86,0.35,16.93-14.58
			c-0.05-0.26-0.09-0.48-0.14-0.75c-12.43-9.68-26.43-7.99-40.51-5.69c0.17,0.18,0.5,0.38,0.5,0.58c0.01,0.29-0.14,0.57-0.38,0.73
			c-11.08,3.79-12.83,6.01-12.83,16.92c-0.33,5.67,0.01,11.36,1.02,16.95c3.59,5.98,9.3,7.17,15.69,6.88
			c0.1-0.02,0.21-0.01,0.31-0.03h-0.2c6.09-2.57,12.96-2.57,19.05,0h-0.43c0.1,0.02,0.21,0.01,0.31,0.03
			c6.56,0.34,12.95-2.2,17.5-6.94c2.68-9.1-5.6-4.46-8.37-6.53l-7.29,6.39c-0.07,0.03-0.15,0.03-0.23,0.06
			C544.19,540.68,527.92,540.29,524.01,536.41z"/>
		<path class="st11" d="M552.27,524.57c-0.87,0-1.75,0-2.6,0c-0.25-0.44-0.35-0.77-0.48-1.12c-0.19-0.01-0.32-0.01-0.51-0.02
			c0,0-0.01,0-0.01-0.01l-0.02,0.01H533c0,0,0,0-0.01,0c-0.01,0.23,0.02,0.43-0.02,0.7c-2.53,0.2-4.58,0.52-6.19,0.98
			c1.29-0.01,2.74,0.39,3.85,0.39c9.04-0.15,18.08,0,27.12,0c12.05,0.03,13.42-1.9,10.27-13.56c-0.49-1.34-1.11-2.63-1.84-3.85
			c-0.02,0.3-0.04,0.5-0.06,0.78C569.92,528.37,567.13,524.34,552.27,524.57z"/>
		<path class="st11" d="M523.52,533.55c1.29,2.65,3.89,4.42,6.83,4.64c6.57,0.2,13.29,1.71,19.78-0.73c0.04-0.02,0.1-0.03,0.14-0.05
			c-6.71-0.06-13.45,0.23-20.01-0.41c-4.84-0.44-6.97-4.02-6.5-8.75c0.1-1.07,0.41-1.75,0.81-2.24
			C521.89,527.49,521.64,529.87,523.52,533.55z"/>
		<path class="st11" d="M529.78,544.46h18.42C542.11,543.35,535.87,543.35,529.78,544.46z"/>
		<path class="st11" d="M548.67,523.42l0.44-0.19c-0.51-1.56,0.07-2.29,1.04-2.72h-4.25c-3.71,0.28-7.41,0.28-11.12,0h-3.21
			c0.89,0.51,1.48,1.37,1.42,2.91l0.01,0C537.78,520.38,543.89,520.38,548.67,523.42z"/>
	</g>
	<path class="st11" d="M1008.1,434.76c1.46-5.57,0-9.6-6.04-10.94c1.37-1.55,3.21-1.17,4.93-1.2
		C1009.9,426.45,1013.84,430.18,1008.1,434.76z"/>
	<g>
		<path class="st11" d="M1082.12,539.41c4.49-0.38,9.95,0.2,14.76-0.58c10.21-1.63,12.36-3.23,14.14-13.5
			c-0.04,0.01-0.06-0.04-0.11-0.01c-0.65,0.37-0.25-0.15,0.13-0.13c0.25-1.43,0.49-3.01,0.74-4.8l0.68,10.3
			c2.45-7.48,2.45-15.55-0.04-23.02l-0.41,3.73c-11.81-16.92-28.35-9.71-43.6-8.9c-0.11-0.1-0.25-0.15-0.37-0.23l0.37,0.32
			c-5.4,0.26-7.44,3.21-8.93,8.4c-2.74,9.35-0.36,17.94,1.88,26.73c1.9,2.23,4.76,2.18,7.25,3.03c0.09-0.02,0.18-0.02,0.27-0.04
			C1073.01,537.78,1077.7,539.78,1082.12,539.41z M1070.3,532.39c-0.01,0-0.02-0.01-0.02-0.01c-2.71-7.87-2.71-16.43,0-24.3
			c0.04-0.02,0.09-0.04,0.13-0.06c-1.53-1.54-0.41-2.66,0.95-2.86c9.64-2.12,19.29-3.88,28.64,1.11v-0.06
			c0.02,0.03,0.03,0.06,0.06,0.09c0.02,0.01,0.04,0.02,0.06,0.03c0.22,0.18,0.23,0.38,0.31,0.57c5.48,7.53,4.4,22.71-2.18,27.03
			c0,0.01,0,0.02,0,0.03c-8.98,3.94-18.23,2.01-27.42,1.02C1069.79,534.98,1069.18,533.56,1070.3,532.39z"/>
		<path class="st11" d="M1059.85,505.75c0.63-0.81,1.26-1.62,2.01-2.29C1061.05,504.03,1060.38,504.8,1059.85,505.75z"/>
		<path class="st11" d="M1067.83,501.26c10.47-3.09,21.09-2.1,31.73-1.14c5.63,0.59,8.4,5.46,12.86,7.56
			c-1.53-4.14-5.12-7.16-9.45-7.99c-12.09-3.09-24.81-2.75-36.72,0.99c0.05,0.17,0.2,0.21,0.29,0.33l0.51,0.44
			C1067.32,501.39,1067.56,501.31,1067.83,501.26z"/>
		<path class="st11" d="M1112.43,530.86c-1.66-1.63-0.93-3.68-0.96-4.81c0-0.7-0.21-0.84-0.42-0.86c-0.01,0.04-0.01,0.09-0.02,0.13
			c0.2-0.04,0.3,0.11,0.32,0.67c0.58,7.29-3.15,11.05-9.95,12.95c-7.76,2.13-15.58,0.73-23.33,1.23c-3.07-0.28-6.16-0.08-9.18,0.54
			c-0.07,0.05-0.14,0.07-0.21,0.13c9.43,1.32,18.99,1.42,28.44,0.29c6.62-0.79,13.18-2.42,15.37-10.18l-0.02-0.26
			C1112.45,530.75,1112.44,530.81,1112.43,530.86z"/>
		<path class="st11" d="M1058.91,507.91c0.2-0.88,0.57-1.52,0.94-2.16c-6.29,8.14-6.42,23.02,1.54,32.03c0-0.02-0.01-0.03-0.01-0.05
			c-0.01-0.02-0.03-0.02-0.05-0.04C1055.2,528.18,1056.57,518.09,1058.91,507.91z"/>
		<path class="st11" d="M1066.54,501.01l-0.29-0.25c-1.65,0.6-3.1,1.55-4.4,2.69c1.42-1,3.18-1.57,5.09-1.98
			C1066.78,501.35,1066.66,501.19,1066.54,501.01z"/>
		<path class="st11" d="M1066.95,501.47c0.36,0.27,0.71,0.56,1.09,0.81l-0.98-0.84C1067.02,501.46,1066.98,501.47,1066.95,501.47z"
			/>
		<path class="st11" d="M1100,508.26v-0.87c-9.94-3.52-19.82-4.56-29.59,0.63c0.02,0.02,0.02,0.04,0.04,0.06
			C1080.09,505.14,1090.4,505.2,1100,508.26z"/>
		<path class="st11" d="M1098.25,533.33c0.12-0.02,0.23-0.05,0.35-0.08c6.33-8.19,5.16-16.77,1.64-25.35
			c-0.1,0.12-0.09,0.25-0.24,0.36c2.42,8.34,3.94,16.65-1.78,24.47v0.01c0.01,0,0.02,0,0.03-0.01
			C1098.25,532.93,1098.25,533.13,1098.25,533.33z"/>
		<path class="st11" d="M1100.06,507.42c0.07,0.16,0.12,0.32,0.19,0.49c0.27-0.33,0.33-0.66,0.18-1c-0.14-0.19-0.23-0.42-0.37-0.6
			c-0.02-0.01-0.04-0.02-0.06-0.03v1.11C1100.02,507.4,1100.04,507.41,1100.06,507.42z"/>
		<path class="st11" d="M1098.22,533.34v-0.6c-9.17,2.35-18.8,2.23-27.91-0.36c0,0,0,0.01-0.01,0.01
			C1079.48,537.3,1088.87,535.43,1098.22,533.34z"/>
		<path class="st11" d="M1098.22,533.34v0.62c0.01-0.01,0.02-0.02,0.03-0.03c0-0.2,0-0.4,0-0.6
			C1098.24,533.34,1098.23,533.34,1098.22,533.34z"/>
	</g>
	<path class="st11" d="M913.54,520.05c-2.74,3.62-5.05,7.09-3.59,11.84c1.24,3.94,4.66,6.8,8.75,7.32
		c10.42,2.54,21.36,1.86,31.38-1.96c0.26,0,0.58-0.41,0.76-0.35c14.58,5.05,7.15-6.8,9.1-11.67c2.77-6.8-0.58-13.97,1.52-20.77
		c0.08,0.21,0.11,0.42,0.19,0.62c-0.04-0.21-0.03-0.41-0.07-0.62c-0.43-1.67-1.82-2.92-3.53-3.18c-0.25,0.01-0.5-0.02-0.76-0.02
		c0.25,0.06,0.51,0.07,0.76,0.13c-2.22,2.22-4.9,1.49-7.38,0.85c-10.7-2.71-21.29-0.55-31.91,0.7c-2.36,0.32-4.34,1.91-5.16,4.14
		c-0.09,0.8,0.24,1.58,0.87,2.07c2.51,1.02,4.08-0.26,5.83-2.07c0.96-0.96,4.26-1.73,8.35-2.23c0.08-0.01,0.16-0.02,0.23-0.03
		c8.25-0.99,19.59-0.94,21.7,0.68c3.95,2.83,5.36,8.05,3.38,12.48c-1.52,3.44-2.71,0.5-3.06-1.57c0.01-0.07,0-0.11,0.01-0.18h-3.45
		c0,0.01-0.01,0.02-0.01,0.03h0.01l0.26,3.91c-0.21,0.06-0.41,0.11-0.62,0.17l0.62,0c-1.36,1.89-3.62,1.24-5.49,1.89
		c0,0.01,0,0.01-0.01,0.01c2.68,1.82,6.49,0.75,8.73,3.4c0.06,0.08,0.08,0.15,0.13,0.23c-0.02-0.11,0.01-0.18-0.01-0.29
		c6.71,2.54,2.68,6.04,0.26,8.28c-5.05,4.64-25.46,5.28-30.95,1.28c-2.82-1.69-4.26-4.98-3.59-8.2c0.4-1.47,0.14-6.24,4.49-3.53
		c1.91,0.25,3.83-0.22,5.44-1.27c-1.34-0.39-2.83-0.47-3.51-2.03l0.21,0c-0.07-0.03-0.14-0.05-0.21-0.09
		c4.67-2.92,9.89-1.17,14.85-1.69c2.91-0.32,6.29,1.13,8.53-2.09c0-0.04,0.01-0.06,0.01-0.1l-4.29-1.02
		c-0.35,0.06-0.7,0.04-1.05,0.09h1.05c-6.1,2.34-12.85,2.34-18.96,0h1.05c-0.35-0.05-0.7-0.03-1.05-0.09
		c-1.97-0.49-4.05-0.03-5.63,1.26C918.73,520.22,914.82,518.44,913.54,520.05z"/>
	<path class="st11" d="M961.65,505.09c1.98,9.83-0.42,19.68-0.07,29.51c0.15,3.18-1.37,6.91-4.7,5.57
		c-7.23-2.92-13.5,1.17-20.21,1.55c-4.88,0.19-9.76-0.09-14.58-0.85c-6.21-0.82-12.25-2.22-13.48-9.83c-1.23-7.61,3-11.7,9.13-14.61
		c-7.32,0.32-10.12,4.14-10.53,11.11c-0.41,6.97,1.98,11.7,9.07,13.74c4.81,0.93,9.69,1.47,14.58,1.6
		c8.98,1.11,17.76-4.05,26.86-0.5c1.95,0.76,5.34,0.15,5.34-2.77C962.58,528.01,965.73,516.42,961.65,505.09z"/>
	<path class="st11" d="M946.12,505.52c-5.6,0.24-11.58-1.4-17.23-0.68c-0.08,0.01-0.16,0.02-0.23,0.03
		c-3.39,0.47-6.66,1.8-9.66,4.94c-1.72,1.55-4.38,1.42-5.93-0.3c-0.28-0.31-0.51-0.66-0.69-1.04c-1.08-2.92,1.55-5.22,3.85-5.83
		c5.29-1.41,10.7-2.3,16.16-2.66c8.49-0.71,16.6,1.51,24.91,1.3c-13.38-3.04-27.26-3.11-40.66-0.13c-4.52,0.9-7.96,4.61-6.39,8.75
		c1.58,4.14,7.87,2.92,9.74,0.96c6.68-6.91,15.08-4,22.17-4.43c7.02-0.43,10.12,2.77,8.76,9.83h0.11
		C953.76,509.43,952.36,505.26,946.12,505.52z"/>
	<path class="st11" d="M941.5,520.31l2.71,0.02c0.7-0.32,1.41-0.62,1.88-1.17c0.56-0.91,1.01-1.88,1.36-2.89h-0.83
		c0,0.01-0.01,0.01-0.01,0.01C946.55,520.06,943.92,520.19,941.5,520.31z"/>
	<path class="st11" d="M941.27,515.26h-16.86C930.01,516.09,935.68,516.09,941.27,515.26z"/>
	<path class="st11" d="M927.66,521.72c-0.05,0.09-0.13,0.16-0.16,0.25c0.19-0.06,0.39-0.09,0.58-0.14
		C927.94,521.79,927.8,521.76,927.66,521.72z"/>
	<path class="st11" d="M940.79,521.89c0.47,0.13,0.95,0.21,1.42,0.37c0.01,0,0.02,0,0.03-0.01c0.09-0.28,0.2-0.54,0.36-0.74
		C941.99,521.65,941.39,521.77,940.79,521.89z"/>
	<path class="st11" d="M928.62,520.8c3.69,0.16,7.38,0.05,11.05-0.32c0.56-0.1,1.19-0.14,1.83-0.17l-18.07-0.15
		c1.41,0.69,2.81,1.18,4.22,1.56C927.86,521.34,928.11,520.98,928.62,520.8z"/>
	<path class="st11" d="M942.59,521.52c1.51-0.34,3.01-0.73,4.51-1.16l-2.89-0.02C943.58,520.62,943.01,520.98,942.59,521.52z"/>
	<path class="st11" d="M927.4,522.26c0.03-0.1,0.06-0.2,0.1-0.29c-0.2,0.06-0.4,0.08-0.6,0.15c-0.05,0.03-0.11,0.04-0.16,0.07
		c0.09,0.03,0.19,0.04,0.28,0.07H927.4z"/>
	<path class="st11" d="M928.08,521.83c0.69,0.17,1.39,0.33,2.08,0.43h8.47c0.72-0.1,1.44-0.24,2.16-0.37
		C936.63,520.7,932.25,520.67,928.08,521.83z"/>
	<path class="st11" d="M835.75,424.41l-5.31-1.95c0.03-0.51,0.03-1.01,0-1.52l28.18,0.38c0.76,1.14,1.63,2.3-0.2,3.33L835.75,424.41
		z"/>
	<path class="st11" d="M553.91,426.01l3.35,5.28l0.35,4.81l-3.88,5.45c-2.35-3.72-4.04-7.81-4.99-12.1
		C549.89,427.62,551.77,426.36,553.91,426.01z"/>
	<path class="st11" d="M1170,518.38h1.69l-1.81,1.87l-22.37-0.38C1154.86,516.57,1162.59,519.34,1170,518.38z"/>
	<path class="st11" d="M856.84,525.56c-0.24,1.33,0.41,2.67,1.6,3.3c-1.98,3.09-6.62,3.47-8.23,8.58h37.92v1.98
		c-6.85,0-13.74,0.15-20.59,0c-6.36-0.17-12.72,0.37-18.96,1.6c-2.07,0.41-4.87,0.73-5.66-2.42c-0.58-2.33,0.7-3.7,2.57-4.96
		C849.4,531.01,853.1,528.24,856.84,525.56z"/>
	<path class="st11" d="M900.7,426.01v-15.72c1.34-2.54,2.39-5.37,5.83-5.66l1.08,0.64c-0.17,8.59-0.33,17.2-0.47,25.81L900.7,426.01
		z"/>
	<path class="st11" d="M1054.24,405.13c0,9.22,0,18.43-0.15,27.62c-2.42-2.54-3.73-6.39-7.96-6.85c0-5.28,0.15-10.53,0.23-15.78
		C1047.97,406.85,1049.11,402.85,1054.24,405.13z"/>
	<path class="st11" d="M818.74,514.39c-1.78,3.35,2.01,10.12-3.27,10c-4.64,0-2.39-6.8-2.33-10.41c0.06-3.62-2.42-10.15,2.65-10.03
		C820.87,504.06,817.08,510.77,818.74,514.39z"/>
	<path class="st11" d="M758.51,412.21c-3.53,4.11-0.38,7.93,0.47,11.87c0,5.19-0.15,10.41-0.26,15.63c0,2.62,0.23,5.54-3.82,5.31
		c-3.35-0.17-3.41-2.57-3.38-4.96c0-17.5,0.08-34.91,0.23-52.24c0-2.71,0-5.48,3.97-5.16c3.47,0.29,3.09,2.92,2.92,5.19
		C758.75,395.97,758.75,404.11,758.51,412.21z"/>
	<path class="st11" d="M506.98,432.69l15.28-38.12c1.93-1.83,4.97-1.75,6.8,0.17c-3.56,11.23-9.6,21.55-11.96,33.19
		c-3.12,1.98-2.6,6.07-4.99,8.46C509.82,436.28,507.81,434.83,506.98,432.69z"/>
	<path class="st11" d="M553.91,426.01c-0.7,2.22-2.85,3.65-5.16,3.44c-4.43-11.46-10.21-22.46-12.69-34.65
		c1.58-1.61,4.13-1.71,5.83-0.23C546.77,404.69,550.79,415.21,553.91,426.01z"/>
	<path class="st11" d="M542.07,394.57l-5.83,0.23c-2.36-2.92-4.7-8.23-7.12,0l-6.8-0.17c0-1.72,0.32-3.47,0.47-5.19
		c3.85-7.64,10.85-4.75,16.89-4.99L542.07,394.57z"/>
	<path class="st11" d="M1024.55,535.77c-11.9,6.15-24.27,3.56-36.58,1.92c-5.48-8.52-3.82-18.05-2.92-27.13
		c0.55-5.83,5.6-8.46,11.67-7.88c0.52,0.48,1.09,0.9,1.69,1.25c1.17,0.9,2.42,1.72,2.3,3.47c-1.4,2.73-3.64,4.94-6.39,6.3
		c-1.72,4.61,0,9.3-0.41,13.97c-0.05,0.58,0.04,1.16,0.26,1.69c2.92,6.1,8.75,6.04,14.26,5.83c8.95,0,16.1-4.38,17.03-10.68
		c0.85-5.83,2.36-12.51-5.83-15.08c-1.62-0.02-3.12-0.85-4-2.22c-0.13-1.13,0.35-2.23,1.25-2.92c1.25-0.96,2.92-0.2,4.26-1.34h2.57
		c0,1.6,0.99,2.92,2.65,2.74c1.66-0.17,1.81-1.9,1.84-3.27c0-4.61,0-9.25,0-13.85c0-2.54,0.58-4.73,3.82-4.52
		c2.68,0.17,3.15,2.13,3.15,4.29c0,15.6,0,31.21-0.18,46.81c0,1.72,0,3.62-2.27,4.08c-2.28,0.47-4,0.26-4.61-2.48
		C1027.52,534.04,1026.21,534.1,1024.55,535.77z"/>
	<path class="st11" d="M1021.25,502.95c-0.76,1.4-2.1,1.52-3.44,1.63c-6.94,3.94-13.91,2.42-20.85,0c0-0.64,0-1.28,0-1.95
		C1004.88,500.16,1013.39,500.28,1021.25,502.95z"/>
	<path class="st11" d="M506.98,432.69c2.19,0.37,4.09,1.74,5.13,3.7c-1.49,3.59-0.85,8.75-5.34,10.09
		c-5.37,1.49-10.5,1.37-13.01-5.83c-4.4-12.69-9.71-25.08-14.58-37.63c-1.52-4.32-3.06-8.75-4.49-12.95
		c-0.7-2.04-2.33-4.55,1.28-5.45c2.3-0.87,4.88,0.24,5.83,2.51c1.23,2.57,2.33,5.19,3.5,7.79c3.84,12.51,8.47,24.76,13.85,36.69
		c0.21,2.67,1.23,5.21,2.92,7.29C505.61,438.38,505.26,434.76,506.98,432.69z"/>
	<path class="st11" d="M910.94,401.63l29.78,0.2c-0.64,4.43-4.14,3.24-6.83,3.3c-8.75,0-17.5,0-26.25,0.17l-0.29-0.2
		C906.6,401.95,909.66,402.68,910.94,401.63z"/>
	<path class="st11" d="M1054.24,405.13c-3.7,0-5.1,3.56-7.88,4.99c0-4.58-1.69-7.79-8.02-7.53c4.35-2.92,8.31-3.82,7.93-9.57
		c-0.38-5.75,5.02-2.92,8.02-3.47c-1.58,9.19,2.92,11.17,11.26,10.44c7.18-0.61,14.58,0,21.7,0c-0.61,5.16-4.7,3.06-7.47,3.38
		C1071.3,404.4,1062.55,401.36,1054.24,405.13z"/>
	<path class="st11" d="M910.94,401.63l-3.44,3.47l-6.68,5.22c0-3.06-0.73-5.57-4.73-5.28c-2.13,0.18-3.94-0.38-3.97-3.06
		c4.55-0.38,9.54,0,8.75-7.18c-0.29-2.36,1.17-3.68,3.67-3.56c1.61-0.1,2.99,1.13,3.09,2.74c0.01,0.2,0,0.39-0.02,0.59
		C907.5,397.48,907.5,400.34,910.94,401.63z"/>
	<path class="st11" d="M993.63,513.66c0,0.55,0,1.14,0,1.72c-1.14,18.52,6.27,24,24.09,17.82c9.45-3.27,10.56-17.85,1.93-25.43
		c3.35-2.92,4.7,0.55,6.01,2.28c5.44,7.6,3.69,18.16-3.91,23.6c-1.21,0.87-2.54,1.57-3.93,2.09c-3,1.04-6.13,1.66-9.3,1.84
		c-13.42,0.64-17.03-2.92-17-16.22c-0.42-2.86-0.34-5.77,0.23-8.6C992.93,509.75,992.96,513.25,993.63,513.66z"/>
	<path class="st11" d="M1015.71,506.57h-15.14l-3.76-1.9h20.85L1015.71,506.57z"/>
	<g>
		<path class="st11" d="M658.12,118.78c37.5,18.43,74.92,37.04,112.57,55.15c7.87,3.78,11.24,8.43,11.14,17.47
			c-0.44,42.19-0.2,84.38-0.2,126.57c0,3.09,0,6.19,0,9.78c-10.97,0.93-20.38,0.87-30.04-4.23c-27.71-14.62-55.86-28.44-84.02-42.19
			c-5.64-2.75-7.79-6.01-7.75-12.33c0.16-25.69-0.18-51.39-0.49-77.08c-0.06-5.34-0.8-10.67-1.23-16.01
			C658.12,156.88,658.12,137.83,658.12,118.78z M702.3,244.31c-4.71-18.39-8.45-34.36-13.05-50.08c-1.4-4.79-5.19-8.87-7.88-13.28
			c-0.96,0.49-1.92,0.98-2.88,1.47c0.55,2.69,0.96,5.42,1.67,8.07c4.66,17.43,9.66,34.78,13.97,52.29
			c1.77,7.19,5.11,11.95,12.67,13.57c4.97-12.39,9.91-24.69,14.84-36.98c6,16.35,9.65,32.33,14.32,48
			c1.48,4.98,5.69,9.15,8.65,13.69c1.04-0.38,2.08-0.75,3.11-1.13c6.67-15.88,13.35-31.75,20.15-47.92
			c-3.82-1.97-6.74-3.48-9.84-5.08c-5.15,13.93-9.96,26.94-15.39,41.63c-4.4-18-8.64-33.91-12.08-49.99
			c-1.62-7.6-5.04-12.38-13.23-13.84C712.59,217.23,707.92,229.52,702.3,244.31z"/>
		<path class="st11" d="M658.12,113.07c37.75-18.6,75.66-36.88,113.12-56.03c8.89-4.55,15.55-4.54,24.44,0.08
			c35.92,18.67,72.31,36.42,109.91,55.19c-2.9,1.94-4.67,3.42-6.67,4.43c-36.2,18.21-72.48,36.25-108.58,54.67
			c-5.46,2.78-9.73,2.51-15.04-0.1c-36.07-17.77-72.27-35.28-108.46-52.82c-2.81-1.36-5.81-2.34-8.72-3.5
			C658.12,114.34,658.12,113.7,658.12,113.07z"/>
		<path class="st11" d="M785.29,329.69c0-18,0-33.49,0-48.98c0-31.11-0.16-62.23,0.24-93.34c0.05-3.66,2.25-9.18,5.09-10.64
			c37.76-19.44,75.8-38.31,113.8-57.29c0.48-0.24,1.2-0.03,2.67-0.03c0.1,1.94,0.31,3.98,0.31,6.03
			c0.02,47.3-0.11,94.61,0.16,141.91c0.04,6.32-1.9,9.52-7.64,12.29c-31.1,15-61.85,30.73-93.02,45.58
			C800.97,328.06,793.69,328.05,785.29,329.69z M806.47,281.93c1.15,0.39,2.29,0.77,3.44,1.16c14.74-17.08,11.13-41.17,20.22-61.73
			c5.8,14.23,11.1,27.22,17.44,42.79c18.99-19.06,13.2-44.5,24.04-64.85c5.58,13.62,10.88,26.55,16.44,40.12
			c3.83-2.13,6.76-3.76,10.13-5.62c-7.47-16.84-14.73-33.19-23.28-52.45c-18.02,19.42-14.71,44.08-23.76,64.85
			c-5.64-13.53-11.07-26.56-17.03-40.84c-3.88,3.33-9.05,5.55-10.02,8.96C817.71,236.71,812.24,259.36,806.47,281.93z"/>
	</g>
</g>
</svg>
