<svg id="Logos_Patrocinadores" data-name="Logos Patrocinadores" xmlns="http://www.w3.org/2000/svg" viewBox="0 0 1500 600"><defs><style>.cls-1{fill:#7a97ab;}</style></defs><path class="cls-1" d="M283.28,394.76c3.36-7.44,6.8-14.85,10.05-22.34q36.32-83.62,72.56-167.26c.28-.64.58-1.27,1-2.27a23.65,23.65,0,0,1,1.2,2.08c3.39,7.72,6.84,15.41,10.07,23.2a6.41,6.41,0,0,1,.09,4.54q-34.61,80-69.35,159.85c-.89,2.05-1.93,2.77-4.15,2.75-7.17-.07-14.33.09-21.5.16Z"/><path class="cls-1" d="M479.25,395.46V252.78h21.93V371.21c46.41,6.23,80.73-16.56,87.95-61.11,4.91-30.35-9.06-59.68-34.31-74.71a62.69,62.69,0,0,0-32.52-9c-14.23,0-28.46,0-43,0V202.66h39.41c39.61,0,67.32,19.08,84.09,54,17.4,36.19,10.43,80.59-16.23,109.68-17.67,19.28-39.59,29.23-65.92,29.17-12.47,0-25,0-37.42,0Z"/><path class="cls-1" d="M662.84,250.23v37h4.29c13.76,0,27.53.09,41.29-.07,3,0,3.81,1,3.73,3.82-.17,6.52,0,13.05,0,20H663.17v60.76h4.32c29.53,0,59.06.06,88.59-.08,3.37,0,4.21,1,4.09,4.17-.21,5.51-.12,11,0,16.54,0,2.15-.49,3.14-2.94,3.13q-57-.09-114-.06a21.12,21.12,0,0,1-2.23-.24v-145Z"/><path class="cls-1" d="M450.39,395.25c-8.13,0-15.41.11-22.67-.13-1,0-2.33-1.67-2.84-2.84Q407.69,352.65,390.66,313c-3.38-7.84-6.87-15.65-10.05-23.57a8.09,8.09,0,0,1-.07-5.51c3.28-8.13,6.87-16.13,10.77-25.16Z"/><path class="cls-1" d="M713.23,226.11V202.9h46.55v23.21Z"/><path class="cls-1" d="M1130.34,353.57c0,6.52,0,12.93,0,19.35,0,1.84-.05,4,.86,5.44s3,3.28,4.64,3.39c1.46.09,3.62-1.64,4.44-3.13.93-1.72,1-4.06,1-6.13.11-6.2,0-12.4,0-18.87H1149c0,8.4.64,16.85-.18,25.15s-6.08,11.89-14,11.64c-6.7-.21-11.89-4.9-12.39-12.44-.54-8-.12-16.11-.12-24.4Z"/><path class="cls-1" d="M1156.46,353.41c5.23,0,10.29-.29,15.3.07,6.45.46,10.68,5.79,10.83,13,.15,7.38-3.92,12.61-10.62,13.47-2.42.31-4.88.34-7.63.53v9h-7.88Zm8,18.73c3.53,0,7.24,1.06,8.84-2.51a7.74,7.74,0,0,0-.51-6.47c-2-2.88-5.38-1.64-8.33-1.42Z"/><path class="cls-1" d="M1184.09,353.65c.23-.1.33-.18.44-.18,7.89-.64,7.88-.64,10.4,6.77a114.93,114.93,0,0,0,6.08,15.4q2.76-8,5.52-16.07c2.34-6.86,2.33-6.87,10.19-5.91l-3.63,10.6c-2.61,7.63-5.4,15.21-7.76,22.92-1.11,3.64-3.72,2.24-5.91,2.52-2,.26-3.4-.11-4.18-2.5-3.41-10.45-7.06-20.81-10.6-31.22C1184.38,355.22,1184.27,354.41,1184.09,353.65Z"/><path class="cls-1" d="M954.41,265.45c.47-.51.91-1,1.4-1.5,2.91-2.71,6.28-3.63,10.07-2.28s5.47,4.5,5.61,8.19c.25,6.2.07,12.41.07,18.93l-3.91.28c0-5.82.1-11.41,0-17-.11-4.66-3-7.45-6.84-6.13a8.47,8.47,0,0,0-4.66,4.94c-.91,3.17-.65,6.7-.78,10.08-.09,2.56,0,5.13,0,7.85h-4c0-5.8.13-11.41-.06-17-.08-2.66-1-5.55-4-5.82a8.76,8.76,0,0,0-6.16,2.09c-1.32,1.24-1.79,3.79-1.9,5.79-.25,4.9-.08,9.81-.08,14.93h-3.82V261l5,2.4C945.7,259.67,948.85,260,954.41,265.45Z"/><path class="cls-1" d="M903.49,361.39l4.62,2.87c5.83-3.7,9.35-3.38,14.12,1.9l1.95-1.74c5.61-4.92,13.25-2.61,15.12,4.59a9.56,9.56,0,0,1,.44,2.41c0,6,0,11.92,0,18.08h-3.87c0-3.28,0-6.42,0-9.56,0-2.46.06-4.94-.14-7.38-.3-3.72-2.22-5.89-5.14-6.13-3.22-.25-5.82,1.45-6.51,5.12a65.63,65.63,0,0,0-.62,10.13c-.08,2.56,0,5.12,0,7.84l-3.9.22c0-4.46.06-8.75,0-13a35.42,35.42,0,0,0-.57-5.91,4.92,4.92,0,0,0-4.79-4.37,5.41,5.41,0,0,0-5.89,3.55,19.81,19.81,0,0,0-1,6.14c-.14,4.43,0,8.86,0,13.43h-3.74Z"/><path class="cls-1" d="M911.44,321.16c0-5.05.08-10.09,0-15.13,0-2.28.79-3.18,3.08-3.06a55.28,55.28,0,0,0,7,0c11.81-.88,17.92,7.43,17.88,18.19,0,10.41-5.51,18.75-18.28,18.29-9.7-.35-9.71-.08-9.71-9.84C911.43,326.79,911.43,324,911.44,321.16Zm4-13.76v19.72c0,8.69,0,8.69,8.75,7.76,6.85-.73,10.94-5.74,11-13.48,0-8.07-3.9-13.3-10.8-14C921.62,307.18,918.8,307.4,915.45,307.4Z"/><path class="cls-1" d="M1151.83,315.41V300.86h3.74v37.93c-2.76,1.39-3.75.07-3.91-2.45-9.56,7.66-17.71.63-18.63-8a23.81,23.81,0,0,1,.55-8C1135.9,311,1145.82,308.94,1151.83,315.41ZM1151,329.9a13.5,13.5,0,0,0,.31-8l-.15-.5c-1.1-3.42-4-5.75-6.91-5.53-3.44.25-5.55,2.34-6.64,5.46a11.89,11.89,0,0,0,1,10.5c2.79,4.6,8.84,4.68,11.55,0A11.27,11.27,0,0,0,1151,329.9Z"/><path class="cls-1" d="M926.11,288.86h-3.33c-.2-.91-.4-1.85-.68-3.19-3.64,3.82-7.78,4.6-12.07,2.46-4.82-2.4-6.32-7-6.59-12-.21-4.07.57-7.94,3.25-11.2,3.92-4.76,9-5,15.7-.42V250.6h3.72Zm-3.73-13.55c.06-5.68-3-9.77-7.39-9.79s-7.75,4.37-7.55,10.05a11.17,11.17,0,0,0,.2,1.74c.93,4.86,4.07,7.9,7.8,7.58s6.59-3.86,6.94-8.53C922.4,276,922.38,275.66,922.38,275.31Z"/><path class="cls-1" d="M952.46,386.62v12.86l-3.78.18v-37c2.51-1.22,3.53.13,3.88,2.48,9.15-6.19,17.51-2.27,18.4,8.67a22.16,22.16,0,0,1-1.5,9.87c-2.72,6.63-9.47,8.21-15.37,4.11ZM952,376c.57,2,.85,4.12,1.79,5.91,2.11,4,6.41,4.94,9.81,2.43,4.79-3.54,4.8-13.34-.07-16.76a6.86,6.86,0,0,0-3.23-1.14C955.58,366,952.44,369.86,952,376Z"/><path class="cls-1" d="M895.76,385.07v4.44H875V353.57h20.14v4.26H879.07v11H893v4.6H879v11.66Z"/><path class="cls-1" d="M870.33,288.63c4.23-11.66,8.35-23.09,12.61-34.47a3.27,3.27,0,0,1,2.61-1.49,3.32,3.32,0,0,1,2.59,1.56c4.27,11.37,8.39,22.8,12.6,34.35-2.85,1-4.37.48-5.33-2.46-2-6.31-2.2-6.26-8.82-6.25h-1.76c-7,0-7.12,0-9.32,6.56C874.62,289.12,873.08,289.47,870.33,288.63Zm15.59-29.48-.88,0-5.7,16.26h12.35Z"/><path class="cls-1" d="M1099.57,394.39Q1105,375,1110.44,355.6c.45-1.58.86-3.16,1.31-4.74,1.55-5.5,2-5.74,8.27-4.34-1.55,5.6-3.07,11.2-4.64,16.78-2.52,9-5.08,18-7.6,27C1106.32,395.51,1105.51,396,1099.57,394.39Z"/><path class="cls-1" d="M1166.64,327.16c.12,3.66,1.69,6,4.51,7.34,3.63,1.72,6.83.6,9.49-2.18,2.64,2.88,2.54,3.78-.45,5.71a11.18,11.18,0,0,1-15.6-3.89c-3-5.24-3-10.77-.56-16.2,1.8-4.07,5-6.47,9.64-6.38s7.59,2.68,9.39,6.76c.18.43.31.88.45,1.33,2.17,6.61,1.55,7.51-5.19,7.51Zm0-3.69h13.46c0-4.42-2.49-7.45-6.09-7.72C1170.18,315.48,1167.46,318.19,1166.62,323.47Z"/><path class="cls-1" d="M1015,377.68H997.9a7.19,7.19,0,0,0,4,7c3.73,2.11,7,.78,9.94-1.85,2.93,2,2.16,3.67-.17,5.34-5.22,3.71-13.27,1.71-16.25-4.26a17.55,17.55,0,0,1-.22-15.59c1.83-4.06,5-6.5,9.6-6.44s7.77,2.62,9.3,6.78C1015,371.34,1015,373.84,1015,377.68Zm-17.15-3.84h13.36c-.08-4.51-2.53-7.43-6.18-7.65C1001.06,366,998.41,368.65,997.83,373.84Z"/><path class="cls-1" d="M993,332.22c2.47,3.15,2.36,3.92-.72,5.86A11.09,11.09,0,0,1,977,334.31a16.82,16.82,0,0,1,.26-18,9.8,9.8,0,0,1,17.1.34c1.58,2.92,1.35,6.85,1.35,10.41H978.89c.1,3.6,1.51,6,4.33,7.37C986.94,336.21,990.28,335.2,993,332.22Zm-.51-8.74c-.57-5.05-3.18-7.82-6.91-7.74s-6.27,3-6.58,7.74Z"/><path class="cls-1" d="M1110.78,289.86l-4.48-2.65c-1.39.5-3.28,1.6-5.27,1.83-5.53.64-9-2.17-9.27-7.08-.32-5.7,2.47-8.69,8.35-8.87,2.09-.06,4.19,0,7.56,0-1.27-2.7-1.79-5-3.19-6.49-1.92-2-5.18-1.4-10.5,1.19-2.22-2.36-1.59-3.92,1.21-5.27,8.53-4.15,15.49,0,15.58,9.49C1110.82,277.5,1110.78,283,1110.78,289.86Zm-4.38-13c-2.51,0-4.84-.13-7.15,0s-3.51,1.59-3.52,4a3.9,3.9,0,0,0,3.64,4.33C1104.2,286,1107.17,282.72,1106.4,276.88Z"/><path class="cls-1" d="M1063.5,325.54c0-9.16,5.6-14.93,13.36-13.82,5.92.86,10.26,7.47,9.68,14.77l0,.35c-.87,8.17-5.65,13.21-12.19,12.81C1068,339.27,1063.49,333.45,1063.5,325.54ZM1068,322a13.94,13.94,0,0,0-.11,6.61,13.56,13.56,0,0,0,.4,1.42c1.11,3.12,3.22,5.24,6.75,5.21a6.46,6.46,0,0,0,6.57-5.37,21,21,0,0,0,0-8.58,6.53,6.53,0,0,0-6.57-5.41c-3.3-.06-5.46,1.95-6.65,4.89A10.34,10.34,0,0,0,1068,322Z"/><path class="cls-1" d="M1057.66,373.86c-.46-8-4.06-9.28-13.06-5.28l-1.43-3c3.79-3.61,9.28-4.83,13.41-2.89s5,5.88,5,10c0,5.49,0,11,0,16.65-2.14.35-4.13,1.29-3.82-1.8-2,.8-3.73,1.86-5.6,2.2-5.32,1-9.29-2-9.73-7-.45-5.27,2.54-8.66,8-8.92C1052.77,373.76,1055.1,373.86,1057.66,373.86Zm-.26,3.75c-2.36,0-4.78-.11-7.18,0a3.69,3.69,0,0,0-3.78,3.79,4.19,4.19,0,0,0,3.41,4.6C1054.51,387.35,1058.37,383.23,1057.4,377.61Z"/><path class="cls-1" d="M1155.05,274.7a41.14,41.14,0,0,1,.7-4.55c1.52-5.57,5.66-9,10.74-9s9.52,3.19,10.77,8.87a25.28,25.28,0,0,1,.11,10c-1.2,6.1-5.77,9.36-11.56,9.11-5.07-.21-9.26-4.19-10.32-9.91C1155.21,277.72,1155.19,276.18,1155.05,274.7Zm19-.29a24.59,24.59,0,0,0-.69-3.45c-1-3.15-3.06-5.34-6.59-5.41-3.68-.06-5.85,2.12-6.94,5.42a14,14,0,0,0-.67,4.12c-.1,5.61,3.14,9.81,7.43,9.82S1174.08,280.73,1174.06,274.41Z"/><path class="cls-1" d="M893.47,312.25c-3.12,8.8-6.19,17.49-9.28,26.17a59.47,59.47,0,0,1-2.63,6.88c-2.54,5.07-7.41,5.89-12.14,2l1.4-3.29.33,1c2.09-.17,4.71.37,6.13-.68,2.28-1.69,3-4.48,1.8-7.56-3-8.1-5.83-16.27-8.74-24.48,3.09-1.21,4.34,0,5.2,2.72a130.83,130.83,0,0,0,6.88,17.56c.94-2.63,1.89-5.27,2.81-7.91,1.2-3.42,2.49-6.81,3.52-10.28C889.43,312.06,890.61,311.24,893.47,312.25Z"/><path class="cls-1" d="M1009.94,288.86c0-5.58.13-11,0-16.33-.18-5.81-4.79-8.76-9.28-6-2.8,1.69-3.59,4.51-3.62,7.57,0,4.8,0,9.6,0,14.7l-3.74.3V261.83c2-.47,3.88-1.11,3.78,2,2.23-.93,4.25-2.22,6.43-2.59,5.41-.92,9.72,2.45,10.21,8.57s.11,12.61.11,19.05Z"/><path class="cls-1" d="M1093.34,338.92V311.14l4.87,2.81a17,17,0,0,1,4-2c6.41-1.72,11.33,2,11.81,9.31.35,5.25.07,10.53.11,15.8,0,2.93-1.78,2.37-3.91,2,0-4.24,0-8.43,0-12.62,0-1.06,0-2.11-.07-3.16-.37-4.65-2.56-7.27-6.05-7.28-3.74,0-6.63,3-6.84,7.5-.19,4.32-.17,8.66,0,13C1097.27,339.36,1096,339.8,1093.34,338.92Z"/><path class="cls-1" d="M1032.47,285.81l1.25-2.79c3.29.7,6.18,1.61,9.12,1.84,2,.16,4.37-1,4-3.36-.2-1.37-2-2.75-3.46-3.6-1.24-.74-3-.68-4.41-1.09-4.15-1.19-5.8-3.26-5.84-7.23,0-4.18,1.88-7.14,6-7.94a19.2,19.2,0,0,1,7.58.24c3.73.8,3.85,1.43,2.1,5.05a38.23,38.23,0,0,0-6.32-1.52c-2.24-.16-4.66.3-5.22,3.08-.61,3,1.73,3.75,3.92,4.41,1.34.41,2.75.6,4.09,1,4.42,1.3,6.06,3.6,5.72,8-.29,3.94-2.85,6.58-6.94,7.18C1039.3,289.71,1035.7,288.75,1032.47,285.81Z"/><path class="cls-1" d="M1189.62,263.77a21.66,21.66,0,0,1,2.11-1.42c5.81-3.25,12.75-.31,13.39,6.26s.14,13.3.14,20.17h-3.14c-.08-.61-.21-1.17-.23-1.73-.19-5.5-.08-11-.7-16.48a6.38,6.38,0,0,0-3.67-4.48c-1.8-.52-4.44.22-6.09,1.34-1.31.89-2.15,3.1-2.37,4.83a99.77,99.77,0,0,0-.36,10.53c0,1.87,0,3.74,0,6l-4,.2V271.92c0-2.46-.15-4.94.08-7.39.09-1,1-2,1.48-3Z"/><path class="cls-1" d="M1020.1,383.8c4.12.78,7.06,1.75,10,1.71a2,2,0,0,0,1-.35,3.72,3.72,0,0,0,.14-6.09,4,4,0,0,0-.38-.24c-1.59-.86-3.61-.91-5.41-1.43a6.63,6.63,0,0,1-5.24-7c0-4,1.74-6.76,5.18-7.9,4.17-1.37,8.06-.6,12,1.77-.54,1.24-1,2.37-1.41,3.2-2.81-.44-5.34-1.28-7.76-1.05a2.55,2.55,0,0,0-.92.3,3.73,3.73,0,0,0-.66,6,4.08,4.08,0,0,0,.76.57c1.67,1,3.78,1.15,5.7,1.68a6.18,6.18,0,0,1,4.93,6c.23,3.48-.84,6.38-4.09,7.86a13,13,0,0,1-12.77-.9C1020.24,387.42,1020.4,385.16,1020.1,383.8Z"/><path class="cls-1" d="M1068.86,384c3.45.63,6.38,1.59,9.3,1.53a1.88,1.88,0,0,0,1-.35,3.74,3.74,0,0,0,.07-6.07,3.18,3.18,0,0,0-.43-.28c-1.47-.82-3.39-.82-5.07-1.32-3.87-1.15-5.47-3.28-5.51-7.12,0-4.06,1.86-6.8,5.59-7.93,4.06-1.22,7.83-.49,11.58,1.95l-1.36,3c-3-.39-5.65-1.14-8.2-.9-1.32.12-3.27.62-3.47,3.09s1.5,3.08,2.82,3.6c1.68.65,3.57,1,5.36,1.55,4.14,1.24,5.62,3.25,5.53,7.39-.08,3.79-2.36,7-6.15,7.4a24.59,24.59,0,0,1-9-.67C1067.14,387.85,1067.06,387,1068.86,384Z"/><path class="cls-1" d="M1019.26,331.64l2.52,2.05c-3.55,7.22-12.45,8-17.4,1.77-4.07-5.12-4.1-14.62,0-19.75,4.9-6.21,14-5.43,17.4,1.67l-2.19,2c-6.15-4.22-9.29-4.38-12.13-.72-3.18,4.11-2.67,11.58,1,14.87C1011.55,336.33,1014.92,335.78,1019.26,331.64Z"/><path class="cls-1" d="M1135.38,281.29l2.44,1.74c-1.21,6.88-11.13,7.48-15.27,4.07-6.59-5.43-6.88-18-.35-23.53,5.16-4.38,12.28-2.95,15.87,3.37l-2,1.69c-2.8-1.16-5.06-2.57-7.48-2.91-1.4-.2-3.39,1-4.54,2.11-3.67,3.62-3.41,11.62.23,15.1C1127.54,286,1131,285.51,1135.38,281.29Z"/><path class="cls-1" d="M1046.46,317.42l-2.51,2c-5.32-4.28-8.57-4.57-11.63-1.11-3.42,3.86-3.14,11.85.55,15.19,3.14,2.85,6.82,2.26,10.81-1.86l2.65,2c-3.15,7.24-12.35,8.23-17.28,2-4-5.09-4.21-14.17-.47-19.5C1033.22,309.5,1043.81,310.27,1046.46,317.42Z"/><path class="cls-1" d="M1068.27,284.49c1.56,3.18,1.09,4.14-2.21,4.59-4.8.65-8-1.85-8.12-6.86-.19-5.37,0-10.75,0-15.21l-3.78-3.54,3.62-3.49c0-.76.14-2.38.25-4.37l3.59-.27c.18,2,.35,3.84.54,5.92a16.07,16.07,0,0,1,3.86.28c.85.27,1.49,1.23,2.22,1.89-.72.66-1.33,1.65-2.18,1.92a17,17,0,0,1-4.08.29c0,5.62-.17,11,.08,16.33C1062.14,284.78,1064.05,285.39,1068.27,284.49Z"/><path class="cls-1" d="M1091.57,216.57V200.41l1,0V238l-.65.09-.63-4.45-1-.93a6,6,0,0,1-.61,1.91c-4.52,5.71-12.16,5.37-15.84-.87a16.48,16.48,0,0,1-.06-17.42C1077.73,209.49,1085.23,209.68,1091.57,216.57Zm-19.21,8.13a63,63,0,0,0,2.15,7.27,7.94,7.94,0,0,0,7.69,5.17,8,8,0,0,0,7.51-5c2.49-5.2,2.53-10.48-.7-15.39-3.38-5.11-10.23-5.26-13.55-.14C1073.88,219.09,1073.29,222.18,1072.36,224.7Z"/><path class="cls-1" d="M1051,238.1c-.14-1.57-.28-3.13-.45-5.11a9.43,9.43,0,0,0-1.24,1.16c-2.42,3.56-5.7,5.13-10,4.27s-6.39-3.74-7.6-7.49c-1.58-4.87-1.49-9.75,1.06-14.29,3.66-6.51,11.26-7.1,16-1.37l2,2.36V200.5h.75V238Zm-10.18-25.85c-2,1.39-4.45,2.45-6,4.24-3.14,3.54-3.07,8-2.24,12.37,1,5.15,4.8,8.42,9.07,8.3s7.67-3.54,8.67-8.76c.15-.81.33-1.62.41-2.43C1051.35,219.09,1046.92,213,1040.81,212.25Z"/><path class="cls-1" d="M1079.5,288.88h-3.69V260.65l4.42,3.1,7-3.26v4.71c-6.88,2.79-7.67,4-7.69,11.67C1079.49,280.73,1079.5,284.59,1079.5,288.88Z"/><path class="cls-1" d="M960.07,311.28l3.66,2.81,6.86-3.13v4.9c-6.23,1.94-7.48,3.61-7.57,10.45,0,3.39,0,6.78,0,10.17,0,2.83-.08,2.83-3.63,2.54V312.25Z"/><path class="cls-1" d="M981.82,389.52h-4V373.74c0-2.69-.18-5.4.08-8.06.12-1.2,1.11-2.32,1.71-3.48l2.75,2.46,7.27-3.44V366c-6.86,2.79-7.75,4.13-7.8,12C981.8,381.64,981.82,385.37,981.82,389.52Z"/><path class="cls-1" d="M1022.22,238.35c-.24-1.31-.45-2.37-.72-3.83-2.7,3.18-5.85,4.82-9.94,3.94a7.09,7.09,0,0,1-5.75-7.67c.19-4,2.58-6.64,6.5-7,1.51-.12,3,0,4.57,0h4.71c.25-3.8.5-7.37-2.62-9.6-4.28-3-8.14-.59-12,2.09,1.07-3.12,3.93-5,7.72-5,3.4,0,6.33,1.17,7.47,4.68a20.17,20.17,0,0,1,.82,5.85c.07,5.26,0,10.52-.1,15.78C1022.88,237.77,1022.6,237.93,1022.22,238.35Zm-.39-10c.45-2.33-.51-3.61-3.42-3.29-1.74.19-3.52-.05-5.27.08-3.86.27-5.9,2.43-5.86,6s2.47,6,6.27,6.09C1018.24,237.33,1021.69,233.76,1021.83,228.32Z"/><path class="cls-1" d="M899.94,216.33a9.11,9.11,0,0,1,9.38-4.94c3.54.46,6.29,2.29,6.47,5.86.35,6.92.1,13.87-.22,20.85l-.5-2.65c-2.61,1.05-5.22,2.75-8,3.08-4.73.56-7.86-2.71-7.9-7.34s2.64-7.28,7.49-7.39c2.57-.06,5.15,0,8,0,.39-3.64.7-7-2.28-9.56C909.78,212,906.3,212.56,899.94,216.33Zm9.74,8.63c-1.51.12-3,.1-4.54.37a5,5,0,0,0-4.44,5.09c-.24,3.36,1.44,5.9,4.45,6.65a7.87,7.87,0,0,0,9.06-4.38C916.61,227.82,915,225.06,909.68,225Z"/><path class="cls-1" d="M894.49,203.47H877.25v16.92H892.4l0,1.27H876.88v16.46l-.86,0V202.37h18.44Z"/><path class="cls-1" d="M1119.08,233.83c-1,4-6.41,6.2-11.06,4.13a12.15,12.15,0,0,1-4.77-3.93c-3.11-4.41-3.15-9.46-1.8-14.47,1.41-5.27,5.31-8.45,9.63-8.29s8.11,3.75,9.36,8.75c1.15,4.62.65,5.27-4.15,5.28H1103c-1.34,3.15.06,7.34,3.16,9.87C1109.78,238.14,1113,237.8,1119.08,233.83Zm.32-10.16c-.18-6.6-4-11-9-10.74-4.67.27-8.24,5-7.92,10.74Z"/><path class="cls-1" d="M1053.12,312h3.78c0,8.58,0,17,0,25.38,0,2.86-2.09,1.64-3.76,2Z"/><path class="cls-1" d="M980.5,261.72h3.6v27.1l-3.6.22Z"/><path class="cls-1" d="M1022.77,261.76c2-.32,3.78-.82,3.78,1.88,0,8.29,0,16.58,0,25.14l-3.77.27Z"/><path class="cls-1" d="M946.57,338.91V312h3.73v12.83c0,3.85-.11,7.71,0,11.56C950.43,339.21,949.25,339.87,946.57,338.91Z"/><path class="cls-1" d="M967.94,238.07c-.16-1.22-.31-2.44-.53-4.12-.87,1-1.49,1.68-2.17,2.34-4.25,4.14-11.81,2.94-13.77-2.57-2.5-7-.8-14.37-1.19-21.56l1.18-.09c.08,1.06.23,2.13.24,3.2,0,4.68-.08,9.37.09,14,.17,4.34,2.66,7.26,6.25,7.79a7.65,7.65,0,0,0,8.76-5.89,41.69,41.69,0,0,0,.84-8.68c.13-3.44,0-6.89.87-10.33v25.72Z"/><path class="cls-1" d="M1148.41,288.87h-4c0-4.4,0-8.67,0-12.94,0-4.09-.09-8.19.12-12.26,0-.75,1.28-1.43,2-2.14.63.65,1.79,1.3,1.8,2C1148.45,271.86,1148.41,280.24,1148.41,288.87Z"/><path class="cls-1" d="M942.36,216.62c-.57-.3-1-.39-1.26-.67-4.12-5.21-12.49-3.63-14.84,3.94a15.51,15.51,0,0,0,.83,12.27c2.92,5.57,8.83,6.62,13.54,2.5.45-.4,1-.71,1.8-1.31-1.49,4.45-6,6.33-10.69,4.9-5.11-1.56-8.2-7.77-7.56-15.19.57-6.57,4.25-11,9.71-11.68A7.56,7.56,0,0,1,942.36,216.62Z"/><path class="cls-1" d="M991.57,205.94c.53,1.87.52,4.4,1.75,5.41s3.68.43,5.6.55l0,.86-6.51.4c0,6.82-.27,13.58.12,20.29.2,3.39,2.62,4.38,5.9,3.27.59-.2,1.21-.35,2.17-.63-2.64,3.48-7,3.36-8.74,0a11.32,11.32,0,0,1-1-4.73c-.1-6,0-11.93,0-18.09l-3.77-.52-.08-.59,3.64-.81c.13-1.75.26-3.57.4-5.39Z"/><path class="cls-1" d="M980.54,200.34v37.75h-.6V200.34Z"/><path class="cls-1" d="M1174.34,251c-4,2-5.09,7.15-10.7,6.08C1166.69,254.17,1167.78,249.13,1174.34,251Z"/><path class="cls-1" d="M946.4,304.76a2.4,2.4,0,0,1,0-3.46c.75-.72,1.36-1.23,1.86-1.14,1,.19,2.6,2,2.49,2.92a3.15,3.15,0,0,1-.95,1.63,2.39,2.39,0,0,1-3.4.08Z"/><path class="cls-1" d="M1053,304.92a2.38,2.38,0,0,1-.24-3.37c.73-.82,1.32-1.43,1.85-1.38,1.06.1,2.82,1.83,2.74,2.71a3.51,3.51,0,0,1-1,1.86,2.36,2.36,0,0,1-3.29.21Z"/><path class="cls-1" d="M1072,307.44c3.13-3.17,4.37-7.77,10.39-5.75C1078.69,303.5,1077.59,308.19,1072,307.44Z"/><path class="cls-1" d="M984.11,254.38l0,0a2.35,2.35,0,0,1-3.21,0,3.1,3.1,0,0,1-1.07-1.67c-.11-.9,1.46-2.7,2.47-2.83.51-.07,1.09.36,1.8,1A2.34,2.34,0,0,1,984.11,254.38Z"/><path class="cls-1" d="M1022.67,254.41a2.35,2.35,0,0,1,0-3.48c.72-.67,1.3-1.14,1.78-1.06,1.07.2,2.69,1.93,2.58,2.81a3.23,3.23,0,0,1-1.12,1.72,2.34,2.34,0,0,1-3.2,0Z"/><path class="cls-1" d="M1148.25,254.35l0,0a2.31,2.31,0,0,1-3.21,0,3,3,0,0,1-1-1.66c-.09-.93,1.45-2.68,2.47-2.85.49-.08,1.09.42,1.81,1.12A2.34,2.34,0,0,1,1148.25,254.35Z"/></svg>