<svg id="Logos_Patrocinadores" data-name="Logos Patrocinadores" xmlns="http://www.w3.org/2000/svg" viewBox="0 0 1500 600"><defs><style>.cls-1{fill:#7a97ab;}</style></defs><path class="cls-1" d="M1074.38,209.54c-3,4.55-6.25,7.72-7.19,11.47-1.77,7.11-6.59,8-12.29,7.71a192.44,192.44,0,0,1-59.46-12.52C981,210.72,966.35,205,953.23,197c-9-5.47-16.42-14.31-22.86-22.91s-5.54-19,0-28.47c15-25.9,42.23-32.89,66.3-15C1012,142,1025.53,156.07,1039,169.8,1051.52,182.59,1062.89,196.53,1074.38,209.54ZM1033.51,207l1.44-1.88c-13.48-13.42-26.44-27.43-40.62-40.07-11.29-10.06-24.18-18.23-40-19.81-7.64-.77-11.64,3.89-8.49,10.84,2.11,4.63,5.09,9.81,9.17,12.42,10.06,6.43,20.9,11.7,31.58,17.12C1001.94,193.36,1020.94,192.86,1033.51,207Z"/><path class="cls-1" d="M1099.63,236.87c0-7.06-.15-13.29.12-19.5a6.27,6.27,0,0,1,2.5-4c21.65-16.4,43-33.29,65.22-48.81,15-10.45,32.44-14,50.76-10.58,13.53,2.51,22.51,10.51,26,23.84a132.05,132.05,0,0,1,4,23.24c.84,11.21-5.47,18.94-14.34,24.87-12.76,8.54-27.26,11.55-42.17,13.11-29.06,3.05-58.14,3.88-87.23.35-.8-.09-1.61-.21-3.67-.48,12.68-8.36,23.53-16.54,38.75-18,23.9-2.24,47.71-6.07,71.32-10.52,7.8-1.47,15.34-6.21,22.13-10.76,8.44-5.66,7.39-16.44-2.15-20.17-6.23-2.44-13.63-3.12-20.39-2.71-13.56.83-25.79,6.39-37.21,13.58q-33.88,21.34-67.71,42.82C1103.74,234.34,1101.89,235.46,1099.63,236.87Z"/><path class="cls-1" d="M349.76,305.62c4.59,1.45,7.54,2.17,10.34,3.29,24.21,9.71,28.35,38.79,7.93,55.06-10.83,8.63-23.63,11.18-36.87,11.68-13.57.52-27.17,0-40.75.21-4.62.08-6.08-1.5-6.06-6.05q.18-59.81,0-119.61c0-4.89,1.54-6.54,6.43-6.35,16.17.63,32.42.23,48.5,1.68,6.6.59,13.59,3.83,19.15,7.68,18.29,12.65,17.2,36.65-1.67,48.51C355,302.84,353.06,303.79,349.76,305.62ZM301,338.85h0c0,6.57.1,13.15,0,19.72-.09,4.32,1.43,6.5,6.11,6.34,6.78-.24,13.61.32,20.37-.19,9.83-.76,19.77-1.89,27.26-9.43,6.48-6.53,7.77-14.57,5.37-23.12-2.9-10.36-10.56-16.5-20.61-17.91-11.19-1.57-22.66-1.32-34-1.33-1.47,0-4.09,3.1-4.22,4.9C300.74,324.81,301,331.84,301,338.85Zm0-62.07q0,9.2,0,18.38c0,3.34,1.2,5.37,5,5.31,8.1-.12,16.22.34,24.29-.16,12.17-.76,21.4-8.51,22.67-18.24,1.59-12.08-4.46-22.56-17.33-25.61-9.8-2.33-20.32-1.84-30.53-2-1.33,0-3.72,3.34-3.91,5.29C300.67,265.37,301,271.09,301,276.78Z"/><path class="cls-1" d="M981.45,287.68c9.21-2.89,13.54,3.29,17.77,10.83,8.6-7.12,17.63-11.73,28.76-11.31a37.29,37.29,0,0,1,26.92,12.28c6.81-3.82,12.65-8.49,19.3-10.53,13.66-4.21,26.92-2,36.6,9.18a31.41,31.41,0,0,1,7.34,17.52c1,18.15.33,36.38.47,54.58,0,4.29-1.71,5.62-5.91,5.66-10.78.12-10.77.29-10.77-10.43,0-15.35,0-30.7,0-46,0-10-4-16.35-11.8-19.3-9.48-3.58-21.38-1.72-26.93,4.74a12.7,12.7,0,0,0-2.87,7.56c-.12,18.63-.18,37.27.37,55.89.2,7-3,7.73-8.67,7.65-5.38-.07-8.42-.52-8.19-7.34.54-16,.2-32,.16-48,0-14.49-7.61-22.27-21.62-22.3-13.64,0-23.92,9.39-24.08,22.52-.2,16.22-.3,32.45.07,48.67.14,5.7-2.3,6.82-7.05,6.32-4.37-.46-10,2-9.94-6.3.29-21.48.09-43,.09-64.45Z"/><path class="cls-1" d="M725.91,290.71c2.18-1.53,4.19-4,6.57-4.45,9.37-1.73,10.51-.53,10.51,9.08,0,24.11,0,48.22,0,72.33-.06,19.69-13.36,35-32.89,38.35-12.3,2.1-24.06,1.33-34.33-6.53-1.75-1.34-3.68-5-3-6.47,1.62-3.44,4.62-3.13,8.21-1.21,18.26,9.74,38.09,3.38,43.47-13.94,1.49-4.81,1.49-10.09,2.07-14.42-11.49,1.58-21.92,4.25-32.33,4.14-14.9-.17-28.26-5.6-35-20.16s-7.5-29.31,2-43.08c7.5-10.86,19.21-14.73,31.53-16.92a57.5,57.5,0,0,1,13.68-1.22c6.65.45,13.24,1.84,19.86,2.83C726.11,289.6,726,290.16,725.91,290.71Zm.44,33.3c0-6.58-.21-13.17.06-19.73.23-5.47-2.09-7.57-7.41-7.19-7.19.51-14.46.36-21.6,1.25-21.41,2.66-32.73,22.07-24.82,41.4,8.32,20.31,39.41,21.13,50.85,10.88,1.68-1.5,2.65-4.51,2.78-6.89C726.58,337.17,726.34,330.58,726.35,324Z"/><path class="cls-1" d="M777.63,292.49c7.39-2.08,13.92-4.57,20.68-5.68,15.3-2.52,29,1.46,40.81,11.71a23.51,23.51,0,0,1,8.39,18.53c0,17.53-.19,35.07.11,52.6.14,8.38-5.68,5.69-10,6.2-4.88.57-7.07-.87-7-6.43.35-16.65,0-33.31.16-50,.09-8.16-3.49-13.87-10.51-17.49-9.29-4.8-19.16-6.45-29.2-3.11-8.22,2.73-14.59,6.12-14.06,18.28.76,17.5-.07,35.06.32,52.59.15,6.62-3.54,6.32-7.93,6.12-4.18-.18-8.74,1.38-8.69-6q.4-59.83,0-119.66c-.06-7.91,4.83-5.9,9.13-6.27,4.94-.42,7.72.55,7.5,6.59-.44,11.6-.15,23.22-.11,34.84C777.29,287.64,777.5,290,777.63,292.49Z"/><path class="cls-1" d="M944.23,360.24c-12.75,15.64-28.33,17.12-45,14.11s-30.72-18.46-32.92-35.17c-4.63-35.21,19.62-57.1,55.43-52.72,13.79,1.69,26.65,5.63,36.25,16.36a14.48,14.48,0,0,1,3.62,8.57c.31,19.51.06,39,.23,58.54,0,4.66-1.74,6.43-6.22,5.9a15.82,15.82,0,0,0-4,0c-5.11.71-7.34-1.31-6.91-6.57C945,366.79,944.49,364.27,944.23,360.24Zm2.3-35.3-1.85-.58c.06-13.27-3.22-18.25-15.49-23.29a30.89,30.89,0,0,0-6.86-2.17c-9.87-1.54-19.73-1.81-28.55,3.85-11.65,7.47-13.47,19.1-12.75,31.68.73,12.76,10.6,24.42,23.88,28.11,12.89,3.57,27.09-.66,33.28-12C942.42,342.81,943.85,333.53,946.53,324.94Z"/><path class="cls-1" d="M1106.83,243.67c13.37,0,27.36,0,41.35.05a7.64,7.64,0,0,1,4.21,1.33c20.44,15.09,36.31,33.66,42.43,58.91a62.43,62.43,0,0,1-3.77,41.75c-13.2,28.48-18.85,58.38-19.46,90.12-2.61-8.39-5.84-16.64-7.73-25.19-8-36.15-2.17-69.92,18.32-101,5.59-8.48,4.62-13.93-3.59-20.32-22.32-17.36-45.12-34-71.3-45.27C1106.76,243.81,1106.36,243.25,1106.83,243.67Z"/><path class="cls-1" d="M554.54,286.58c10.16-3.1,14.05,4.4,17.6,9.8,10.22-3.39,19.61-7.55,29.45-9.53,16.82-3.38,40.32,8.66,39,31.68-1,16.82-.54,33.74,0,50.6.23,7.46-4,6.58-8.72,6.77-5.07.19-8.16-.3-8-6.84.46-15.32.16-30.67.14-46q0-29.06-28.67-24.73c-14.38,2.15-23.58,12.87-23.58,27.5s-.15,29.36.09,44c.07,4.62-1.47,6.51-6.06,6a18.08,18.08,0,0,0-4.59,0c-5.25.73-6.84-1.52-6.79-6.67.21-22.13.09-44.26.09-66.39Z"/><path class="cls-1" d="M478.11,309.14c0-19.26.27-38.54-.16-57.79-.14-6.37,2.08-8.29,7.89-7.49a16.23,16.23,0,0,0,3.94,0c4.22-.45,5.84,1.24,5.75,5.6-.24,10.94-.08,21.89-.08,32.84,0,28.68-.13,57.36.12,86,0,5.53-1.12,7.85-7.2,7.59-10.25-.44-10.26-.07-10.26-10.31Z"/><path class="cls-1" d="M439.94,309.19c0-19.48.2-39-.12-58.45-.1-5.63,1.84-7.57,7.16-6.88a15.21,15.21,0,0,0,3.93,0c4.78-.59,6.68,1.18,6.48,6.22-.35,8.74-.1,17.51-.1,26.27,0,30.65-.12,61.3.11,91.95,0,5.46-1,7.91-7.13,7.64-10.31-.44-10.33-.07-10.33-10.26Z"/><path class="cls-1" d="M354.9,121.49c8.46,0,16.77-.63,24.94.16,10.5,1,17.46,8.15,18.58,17.4,1.15,9.47-3.18,16.31-13.24,20.95-.77.36-1.52.74-2.61,1.26l17.27,32c-6.63,2.18-10.64.82-13.34-5.57-2.78-6.62-7.1-12.6-9.9-19.21-2.54-6-6.26-7.86-13-5.8v30.88H354.9Zm8.88,33.21c12.63,2.42,20.69.57,24.06-5.74a13.64,13.64,0,0,0-1.07-15.43c-3.91-5.26-13.95-6.93-23-4.05Z"/><path class="cls-1" d="M561.12,121.12c21.12.12,38.25,16.55,38,36.44-.24,20.06-17.36,36.37-38.22,36.41S522.32,177.11,522.44,157C522.55,137.27,540.08,121,561.12,121.12Zm29.77,36.49c.13-16-13.35-29.29-29.84-29.44-16.28-.16-30.36,13.31-30.35,29,0,15.89,13.69,29.72,29.62,29.93C576.78,187.35,590.75,173.85,590.89,157.61Z"/><path class="cls-1" d="M403,330.23c0-12.47.28-25-.13-37.42-.2-5.91,2.35-7.16,7.41-6.72,4.32.38,9.27-1.55,9.16,6.3q-.53,38.73,0,77.47c.09,7.44-4.6,5.74-8.73,5.95-4.47.24-8.08.38-7.84-6.19C403.3,356.51,403,343.36,403,330.23Z"/><path class="cls-1" d="M532.43,331.59c0,12.69-.32,25.4.14,38.07.24,6.6-3.45,6.38-7.88,6.15-4.15-.2-8.78,1.44-8.69-6q.51-38.73,0-77.46c-.09-6.58,3.43-6.4,7.88-6.24,4.24.16,8.92-1.27,8.68,6.09C532.12,305.32,532.43,318.46,532.43,331.59Z"/><path class="cls-1" d="M410.8,121.77h8.39c0,8.43,0,16.48,0,24.54,0,7.45-.11,14.9,0,22.35.16,10.8,7.26,17.63,17.88,17.4,10.29-.23,16.94-7.06,17-17.65.06-15.32,0-30.64,0-46.49h8.43a44.58,44.58,0,0,1,.47,4.72c0,14.47.12,28.94,0,43.4-.12,14-11.44,24-26.7,23.83-15-.17-25.8-10-25.9-23.88-.1-14.24,0-28.49,0-42.73C410.38,125.37,410.66,123.49,410.8,121.77Z"/><path class="cls-1" d="M342,129.48l-3.1,6.86c-7.13-5.5-14.81-9.37-23.59-6.16-5.6,2-11.52,4.59-15.85,8.5-8.7,7.87-10.28,21.3-5,31.46,6.74,13,19.75,18.18,39.14,15.17V162.15H342v31.4c-15.66.27-31.47,2.91-45.16-8a35.09,35.09,0,0,1-5.92-49.27C303.66,120,325.92,116.82,342,129.48Z"/><path class="cls-1" d="M481.77,164.35v29.11h-9.06V182c0-17.93.22-35.87-.13-53.79-.11-5.65,1.8-7.25,7.12-6.81,6.3.52,12.72-.07,19,.75,11.27,1.48,18.58,10.34,18.28,21.19-.33,11.41-8,19.82-19.51,20.9C492.52,164.73,487.52,164.35,481.77,164.35Zm0-36v29.58c9.19-.36,18.3,2.43,24-6.7,3.4-5.5,3.21-11.33-.49-16.68C499.39,126.12,490.66,128.76,481.77,128.35Z"/><path class="cls-1" d="M283.09,438.6c9.07,0,17.36-.39,25.58.12,6.47.41,12.86,2.19,14.76,9.71s.35,13.94-7.5,18.22c9.52,7.24,4.31,18.24,7.85,27l-1.25,1.53c-1.52-1.34-4-2.45-4.39-4.08-.94-3.76-.85-7.78-1.24-11.69-.74-7.28-3.1-9.74-10.27-10.14-4.8-.27-9.63-.12-14.44-.08a29.19,29.19,0,0,0-3.81.6v24.09l-2.07,1.09c-1.08-1.38-3.06-2.76-3.08-4.16C283,473.71,283.09,456.66,283.09,438.6Zm5.5,26.53c8.09-.54,15.71-.53,23.14-1.71,5.51-.88,7.55-5.53,7.25-10.87s-3.44-8.69-8.6-9c-7.1-.46-14.25-.11-21.79-.11Z"/><path class="cls-1" d="M408,459.07c1.51-1.81,2.73-3.25,3.95-4.7.72,1.77,2,3.53,2.06,5.31.18,10.95.4,21.92,0,32.86-.61,15.4-13.7,23.34-27.74,16.84-3.23-1.5-5.65-4.75-8.44-7.19l1.32-2.2c1.46.54,3.3.68,4.32,1.67,5.5,5.35,12,7,18.27,4.41,5.28-2.2,7.57-7,7.32-13.8-6.18.91-12.54,2.71-18.79,2.4-3.24-.16-7.11-3.46-9.28-6.38-6.17-8.32-4.85-24.22,1.87-30.58S399.18,452,408,459.07Zm2.13,15.64c-.76-12.86-9.07-20.2-19.29-16.63-6.12,2.14-9.9,9.61-9.14,18,.82,9.08,5.2,14.71,12.4,15.53,5.26.61,9.71-1.37,12.22-6C408.19,482.32,408.94,478.38,410.17,474.71Z"/><path class="cls-1" d="M1098.73,224.38c0,.81,0,1,0,1.24-.48,14.62-2.91,16.56-17.22,13.76a17,17,0,0,1-3.84-.76c-3.9-1.78-9-2.83-11.23-5.9-2.46-3.4,3.91-16.58,8.08-18.84a9.43,9.43,0,0,1,5.53-.83c3.86.57,7.61,2,11.48,2.47C1097.33,216.27,1099.43,219.46,1098.73,224.38Z"/><path class="cls-1" d="M592,494v-56c10.12.68,19.9.72,29.46,2.21,6,.94,8.61,6.18,9,12.27.42,6.78-1.59,12.49-8.31,14.8-4.64,1.6-9.78,1.89-14.74,2.44a82.59,82.59,0,0,1-9.18.06c-3.84,8,2.5,17.89-3.48,25.11Zm5.44-28c7-.44,13.3-.54,19.54-1.31,6-.74,8.4-4.88,8.42-10.68,0-6-3.11-9.8-8.83-10.37-6.21-.61-12.53-.14-19.13-.14Z"/><path class="cls-1" d="M1031,438.74a16.8,16.8,0,0,1,.56,3.11q.06,26.2,0,52.42l-1.83.89-3.63-5.38c-10.12,7.55-19.59,7.93-26.2.94-6.87-7.27-7-23.82-.23-31.75,6.14-7.2,15.65-7.32,26.73-.18,2.91-6.4-1.73-14.42,2.72-20.36Zm-31.45,34.65c0,7.37,1.17,13.05,7,16.52a13.07,13.07,0,0,0,16.71-2.72c5.12-6.08,5.3-18.2.36-24.68a13,13,0,0,0-16.49-3.65C1000.82,462.25,999.76,468.24,999.53,473.39Z"/><path class="cls-1" d="M987.05,494.68c-3.36,1.19-6.82.73-8.55-4.74-6.18,4.39-12.29,7.4-19.84,4.94-5.25-1.71-8.14-5.18-8.27-10.55-.12-5.15,2.61-9,7.51-10.38s9.91-1.68,14.73-3c2.24-.61,5.71-2.44,5.8-3.9a10.7,10.7,0,0,0-3-7.87c-4.57-4-14-1.74-17.39,3.33a41.8,41.8,0,0,1-3.68,4.22l-1.78-1c.68-2.1,1-4.44,2.1-6.25,3.32-5.32,12.48-7.57,20.32-5.33,6.69,1.92,8.45,6.88,8.31,13.17a156.91,156.91,0,0,0,.13,17.08C983.67,487.33,985.4,490.18,987.05,494.68ZM978.26,474c-5.54.85-11.16,1.4-16.61,2.67-4.17,1-7.59,4.16-6,8.45a11.67,11.67,0,0,0,7.61,6.38C973.74,493.4,980.23,485.55,978.26,474Z"/><path class="cls-1" d="M836.65,466.57c.26-9.76,6.2-13.91,16-13.27,9.2.59,13.07,4.52,13.19,13.55.08,5.91,0,11.81,0,17.72,0,3.59-1.28,8.14,5.84,7.08-4.83,5-7.3,4.39-9.73.29-6.87,1.19-13.09,3.17-19.28,3.08-5.72-.08-9.49-4.22-9.71-10.41-.21-5.86,3-9.54,8.41-11,4.41-1.17,9.11-1.31,13.43-2.69,2.47-.79,6.56-3.94,6.28-4.68-1.14-3.08-3.1-6.93-5.8-8.12-6.11-2.69-11.46-.07-15.48,5.77C839.12,465,837.74,465.69,836.65,466.57ZM861,474c-5.79.88-11.24,1.4-16.54,2.6-4.2.94-7,3.7-6.51,8.49.51,5,4.27,6.35,8.39,6.68C856.68,492.57,862.43,485.76,861,474Z"/><path class="cls-1" d="M427.75,466.73c0-9.67,5.83-13.91,15.67-13.44,9,.42,13.22,4.19,13.56,12.57.26,6.34-.24,12.71.24,19,.21,2.82,2,5.51,3.31,9-2.87,2.62-4.67,2.18-8.84-3.61-6,4.53-12.79,7.83-20,4.14-3.31-1.7-7-6.18-7.13-9.58s3-8.42,6.12-10.17c4.35-2.42,10-2.52,15.15-3.49,3.3-.62,7.53-1.12,6.47-5.43-.73-3-3.6-6.81-6.31-7.63-5.78-1.74-11.82-1.28-14.92,5.71C430.54,465,428.89,465.76,427.75,466.73ZM452.06,474c-5.56.83-10.76,1.39-15.86,2.45-4.45.92-7.8,3.61-7.21,8.57.65,5.38,5,7,9.63,6.72C447.74,491.09,454.83,486.37,452.06,474Z"/><path class="cls-1" d="M368,475.4h-29.7c-.59,8.24,2.28,13.37,8.11,15.49,6.22,2.26,11.46.34,16-5.5,1.07-1.38,2.89-2.17,5.51-4.06-2.91,11.39-10.73,16.13-20.67,14.06-10.73-2.24-16.28-12-14.29-25.08,1.68-11.11,10.28-18.17,20.5-16.82S369,462.66,368,475.4ZM338,471.14h26c-1.63-9.75-5.42-13.69-12.66-13.76S339.61,461.71,338,471.14Z"/><path class="cls-1" d="M672.84,481.42c-4.21,12.13-11.91,16.27-22.25,13.64-9.66-2.45-15.11-12.29-13.25-23.91,1.83-11.41,9.22-18.32,19.1-17.85,10.52.5,16.21,7.67,16.72,21.88H642.69c-.75,9.32,3.6,15,11.06,16.56C662.21,493.52,665.31,485.12,672.84,481.42Zm-5-9.55c.23-9-3.92-14-11.32-14.45-8-.45-13,4.5-14,14.45h25.3Z"/><path class="cls-1" d="M782.7,474.36c0,12.37-7.51,21.22-18.32,21.46-11.14.24-19.12-8.62-19.13-21.26,0-12.88,7.63-21.45,19-21.29C775.39,453.43,782.65,461.72,782.7,474.36Zm-4.33.58c-.53-13.34-8.7-20.64-19.27-16.84-6.09,2.19-9.82,9.95-9,18.75.78,8.32,4.83,13.6,11.62,14.68,6,.94,10.93-1.13,13.64-6.71C776.84,481.76,777.4,478.25,778.37,474.94Z"/><path class="cls-1" d="M521.65,474.73c-.15,12.49-7.77,21.14-18.6,21.09-11.17-.05-18.92-9-18.76-21.63s7.55-20.9,18.67-20.92C514.4,453.24,521.81,461.75,521.65,474.73Zm-33.84-1.05,1.3.74a51.39,51.39,0,0,0,.66,5.84c1.68,7.32,6.54,11.53,13.14,11.56s11.8-3.95,13-11.46a34.29,34.29,0,0,0-.71-14.72c-2.49-8.36-14.34-11.52-20.37-5.3C491.47,463.8,490.08,469.17,487.81,473.68Z"/><path class="cls-1" d="M1078.4,474.48c0,12.45-7.55,21.21-18.36,21.34-11.17.14-19.06-8.74-19-21.38s7.33-21,18.42-21.17C1070.91,453.08,1078.41,461.47,1078.4,474.48Zm-33.86-.79,1.3.73a49.39,49.39,0,0,0,.67,5.85c1.68,7.3,6.55,11.52,13.14,11.55s11.79-4,13-11.47a34.45,34.45,0,0,0-.71-14.72c-2.48-8.33-14.38-11.49-20.37-5.29C1048.2,463.81,1046.82,469.18,1044.54,473.69Z"/><path class="cls-1" d="M794.15,495.1c-.89-1.22-2.52-2.43-2.55-3.67-.2-11.18-.18-22.36,0-33.54,0-1.19,1.29-2.35,2-3.52l2.7,2.85c5.22-1.2,10.51-3.42,15.78-3.36,6.84.08,10.94,4.61,11.24,11.43.42,9.6.11,19.23.11,28.84l-2,.92c-.84-1.46-2.35-2.89-2.41-4.38-.26-7-.06-14-.14-21.05-.11-8.62-2.68-11.86-9.45-12.21-7.18-.36-12.76,4.2-13.17,11.72-.45,8.29-.1,16.62-.1,24.93Z"/><path class="cls-1" d="M735.67,466.08c-1.23-1-2.75-1.83-3.63-3.09-3.52-5-9.63-7.39-14.75-4.81A8.81,8.81,0,0,0,713,464c-.23,1.71,1.71,4.65,3.44,5.49,3.89,1.89,8.24,2.83,12.41,4.12,5.4,1.68,9.74,4.28,9.44,10.86s-4.78,9.28-10.59,10.64c-11.12,2.58-18.67-1.84-19.34-13.31a48.88,48.88,0,0,0,4.17,3.74c3,2.17,6,5.25,9.37,6,4.79,1,10.09-.12,11.41-6.11s-3.86-7.05-7.94-8.42c-3.92-1.32-8.19-1.79-11.93-3.48a9.84,9.84,0,0,1-2.88-16c4.85-4.93,11-4.95,17.2-3.44C733.21,455.42,736.3,459.07,735.67,466.08Z"/><path class="cls-1" d="M557.61,466.17c-1.27-1-2.87-1.77-3.76-3-3.58-5.11-9.27-7.45-14.63-5-2.06.95-4.44,3.51-4.62,5.52s1.91,5,3.8,5.88c4.07,2,8.67,2.86,13,4.28,5.2,1.71,9.13,4.77,8.72,10.78-.4,5.75-4.19,8.77-9.57,10.21-11.83,3.19-20.6-1.66-21.39-13.66,2.25,1.91,3.93,2.8,4.85,4.2,3.91,6,11.05,8.45,16.85,5,2-1.16,4-3.92,4.07-6s-2.08-4.88-4-5.75c-4.12-1.87-8.74-2.64-13.12-4-5.09-1.54-8.6-4.65-8.35-10.31s3.68-9.1,9.19-10.48C549.06,451.33,556.12,455.19,557.61,466.17Z"/><path class="cls-1" d="M1087.34,481.78a35.12,35.12,0,0,1,3.69,4.15c3.59,5.61,11.72,7.93,17.13,4.18a9.11,9.11,0,0,0,3.55-6.33c0-1.74-2.16-4.36-4-5.13-4.18-1.78-8.75-2.62-13.14-3.94-5.09-1.53-8.61-4.62-8.37-10.29s3.66-9.11,9.17-10.49c10.37-2.61,17.44,1.24,20.59,12.91-2.63-1.76-4.45-2.41-5.38-3.7-3.63-5.08-9.27-7.45-14.63-5-2.06,1-4.45,3.5-4.64,5.51s1.9,5,3.78,5.9c4.07,2,8.67,2.85,13,4.28,5.19,1.7,9.14,4.74,8.74,10.75-.38,5.75-4.17,8.78-9.55,10.24C1095.5,498,1086.75,493.2,1087.34,481.78Z"/><path class="cls-1" d="M909.53,494c6.75-13.59,18.54-22.78,27-35.89H911.63c2.58-4.12,17.32-5.21,32.09-3-6.86,13.47-18.56,22.64-27.45,36.38h27.38l-.14,2.47Z"/><path class="cls-1" d="M532.5,254c0,9.75-4.1,12.81-13.55,9.86a4.39,4.39,0,0,1-2.61-3,94.78,94.78,0,0,1,0-13.69c.09-1.13,2-2.27,3.24-3.1.62-.41,1.7-.09,2.57-.11C532.5,243.7,532.5,243.7,532.5,254Z"/><path class="cls-1" d="M419.39,254c0,9.78-4.06,12.81-13.59,9.87a4.38,4.38,0,0,1-2.62-3,93.5,93.5,0,0,1,0-13.7c.09-1.14,2-2.28,3.25-3.11.62-.41,1.7-.09,2.57-.11C419.39,243.69,419.39,243.69,419.39,254Z"/><path class="cls-1" d="M471.48,437.75c1.12,1.24,3.2,2.48,3.21,3.74.21,17.5.15,35,.15,52.5l-1.73,1.18c-1.12-1.25-3.2-2.48-3.22-3.74-.21-17.5-.14-35-.14-52.5Z"/><path class="cls-1" d="M879.06,493.62c0-17.08-.07-34.16.13-51.24,0-1.55,1.85-3.09,2.84-4.63l2.12,1c0,17.71.06,35.42-.15,53.12,0,1.14-2.17,2.25-3.33,3.37Z"/><path class="cls-1" d="M683.22,494.3V455l1.3-1.07,4,4.51a95.22,95.22,0,0,1,8.84-4.56c.84-.34,2.34.93,3.53,1.46-.68.92-1.23,2.51-2,2.66-10,1.86-11.15,9.3-11.31,17.4-.1,5,.15,10.1-.15,15.13-.1,1.58-1.48,3.08-2.28,4.62Z"/><path class="cls-1" d="M901.12,452.61c0,14.57,0,27-.09,39.44,0,.85-1.36,1.68-2.09,2.53-.8-.8-2.28-1.58-2.29-2.38-.14-11.83-.16-23.67.05-35.5C896.72,455.76,898.64,454.84,901.12,452.61Z"/></svg>