<svg id="Logos_Patrocinadores" data-name="Logos Patrocinadores" xmlns="http://www.w3.org/2000/svg" viewBox="0 0 1500 600"><defs><style>.cls-1{fill:#7a97ab;}</style></defs><path class="cls-1" d="M969.69,341.62c-10.81-6-19.12-9.63-24.69-10.79-12.06-2.52-24.92-4.25-33.09-5.21V289.3H963V302l57-15.28-57-15.28V284H911.91v-35.6c8.1-.95,21-2.69,33.09-5.21,5.57-1.17,13.88-4.82,24.69-10.8l6.86,10.71,39.78-43.61-56.26,17.88L966.85,228c-10.11,5.57-18,9-22.93,10.08-11.65,2.43-24,4.12-32,5.07V217.32H552.55v23.57c-11-1.62-25.2-4.84-38-11.23-24.91-12.45-31.39-29.32-31.45-29.48L478.18,202c.28.77,7.11,18.94,34,32.4,13.78,6.89,28.84,10.24,40.33,11.87V284h-71.9v5.26h71.9v38.51c-11.49,1.64-26.55,5-40.33,11.88-26.93,13.46-33.76,31.63-34,32.39l4.95,1.79c.06-.16,6.37-16.95,31.44-29.48,12.76-6.38,27-9.6,38-11.22v18h.1v43.08a12,12,0,1,0,9.28,0V351.13H902.44v43.08a12,12,0,1,0,9.28,0V351.13h.19V330.91c8,.95,20.39,2.64,32,5.07,5,1,12.82,4.5,22.93,10.08l-6.78,10.59,56.26,17.87-39.78-43.61ZM563,405.27a5.67,5.67,0,1,1-5.67-5.67A5.67,5.67,0,0,1,563,405.27ZM663.2,304a38.86,38.86,0,0,1-9.46,15.59,31.23,31.23,0,0,1-12.52,7q-5.9,1.88-15.77,1.87H591.91V240.26h32.57q11,0,16.8,1.68a29.63,29.63,0,0,1,13.31,8.13,38.62,38.62,0,0,1,8.43,14.3q2.88,8.46,2.89,20.86A58.2,58.2,0,0,1,663.2,304Zm73.3,24.5H718.68V240.26H736.5Zm122.32,0H791.68V240.26h65.45v14.93H809.51v19.57h44.31v14.87H809.51v24h49.31Zm53.93,76.75a5.67,5.67,0,1,1-5.67-5.67A5.67,5.67,0,0,1,912.75,405.27Z"/><path class="cls-1" d="M640.62,260.19a16.94,16.94,0,0,0-8.25-4.16q-3.74-.84-14.63-.84h-8v58.46H623a48.81,48.81,0,0,0,10.78-.84,16.39,16.39,0,0,0,7.19-3.68q2.87-2.58,4.67-8.51t1.8-16.17q0-10.23-1.8-15.71A20.15,20.15,0,0,0,640.62,260.19Z"/></svg>