<svg id="Logos_Patrocinadores" data-name="Logos Patrocinadores" xmlns="http://www.w3.org/2000/svg" viewBox="0 0 1500 600"><defs><style>.cls-1{fill:#7a97ab;}</style></defs><path class="cls-1" d="M839,438.32H797.85c-32,0-41.57-23.33-42.48-25.77l-77-145.09,1.86-1v-2.14h28c30.59,0,50,26.71,50.84,27.85l.13.22ZM683.74,268.59l75.54,142.26.06.17c.31.94,8,23.05,38.51,23.05h34l-76.32-139.5c-1.27-1.71-19.8-26-47.31-26Z"/><path class="cls-1" d="M920.57,438.27H879.41c-32,0-41.58-23.33-42.48-25.77l-77-145.09,1.86-1v-2.14h28c30.59,0,50,26.71,50.83,27.85l.14.22ZM765.29,268.54,840.84,410.8l0,.17c.32.94,8.06,23,38.52,23h34l-76.31-139.5c-1.28-1.72-19.81-26-47.31-26Z"/><path class="cls-1" d="M1001.58,438.32H960.42c-32,0-41.58-23.33-42.48-25.77L840.89,267.46l1.86-1v-2.14h28c30.59,0,50,26.71,50.84,27.85l.13.22ZM846.31,268.59l75.54,142.26,0,.17c.32.94,8.06,23.05,38.52,23.05h34l-76.32-139.5c-1.28-1.71-19.8-26-47.31-26Z"/><path class="cls-1" d="M642,438.32c-21.38,0-22.94-17.41-23-17.59V347.86l-1.16-6A34.37,34.37,0,0,0,602,319.08l-1.36-.83a23.58,23.58,0,0,0-11.06-3.41l-3.83-.2a30,30,0,0,0-7.32.46A40.4,40.4,0,0,0,557,327l-.82.87a30.42,30.42,0,0,0-8.24,18.81L547.7,350a41.17,41.17,0,0,0,2.58,17.41l.54,1.42a19,19,0,0,0,7.72,9.39l8.42,5.22a27,27,0,0,0,5.87,2.72l.25.1,8.63,4,.89.49,12.07,7.63a14.67,14.67,0,0,1,3.37,4.33c3.8,7.73,3,17.91-1.8,23.7a43.36,43.36,0,0,1-9.46,8.76c-9.51,6.09-26.46,2.06-47.74-11.36-31.95-20.15-38.66-52.82-38.66-76.68s8.09-56.27,46.6-75.29c33.86-16.72,65-2.93,75,2.48V233.73c0-.18,1.71-17.87,21.82-17.87,6.12,0,11,1.83,14.48,5.43,5.66,5.86,5.45,14.21,5.44,14.56V418.42c0,.34-.06,8.32-5.85,14.12C654.05,436.38,648.7,438.32,642,438.32Zm-18.71-17.85c.12,1.13,1.79,13.6,18.71,13.6,17.22,0,17.49-15,17.5-15.65V235.78c0-.13.14-7-4.27-11.55-2.66-2.73-6.49-4.12-11.4-4.12-15.79,0-17.45,12.66-17.58,13.89v48l-3.31-2.23c-.35-.24-35.37-23.24-74.06-4.14-36.55,18.06-44.23,48.84-44.23,71.48s6.37,54,36.68,73.08c19.52,12.31,35.25,16.46,43.18,11.38a39.31,39.31,0,0,0,8.48-7.91c3.7-4.42,4.25-13,1.25-19.09a10.19,10.19,0,0,0-2.27-2.93L579.73,394l-8.34-3.89a31,31,0,0,1-6.67-3.12l-8.42-5.22a23.36,23.36,0,0,1-9.46-11.49l-.53-1.43a45.33,45.33,0,0,1-2.85-19.19l.22-3.29a34.64,34.64,0,0,1,9.39-21.45l.83-.87a44.51,44.51,0,0,1,23.71-13.13,33.51,33.51,0,0,1,8.36-.53l3.83.19a28.06,28.06,0,0,1,13.06,4l1.36.83A38.65,38.65,0,0,1,622,341.05l1.24,6.61Z"/><path class="cls-1" d="M660.79,207.86h0l-36.18-.49a3.21,3.21,0,0,1-3.16-3.25l.5-36.18a3.19,3.19,0,0,1,3.19-3.16h0l36.18.5a3.16,3.16,0,0,1,2.26,1,3.2,3.2,0,0,1,.9,2.27L664,204.71a3.19,3.19,0,0,1-3.2,3.15Zm-35.14-3.68Zm35.14-.57h0Zm-35.12-.48,34.08.47.46-34.08-34.08-.47Zm34.56-34.67h0Z"/></svg>