<svg id="Logos_Patrocinadores" data-name="Logos Patrocinadores" xmlns="http://www.w3.org/2000/svg" viewBox="0 0 1500 600"><defs><style>.cls-1{fill:#7a97ab;}</style></defs><path class="cls-1" d="M413.24,449.19c-3.47-.62-6.93-1.35-10.42-1.82-6.71-.91-13.41-1.95-20.16-2.38a41.7,41.7,0,0,0-10.61,1.21,35.24,35.24,0,0,1-22.26-2.6c-2.24-1-4.45-2.11-7.3-3.47l5.59-2.51-12.31-6.28c6.94-3.75,14.06-3.64,21.38-1.39-6.79-5.85-14.12-10-23.53-7.66a4.28,4.28,0,0,0-2.33,1.59c-1.35,2-3.21,3.11-5.36,2.3a7.28,7.28,0,0,1-3.73-3.44c-1-2.07,0-4.11,1.91-5.5a2.51,2.51,0,0,0,.86-1c-10.51.64-19.62-3.94-29.07-7.48,1.41-1.73,3.54-1.69,5.69-1.72s4-.16,6-.24l-.05-.83a26.44,26.44,0,0,0-3.19-.22c-5.44.28-9.3-2.49-12.32-6.54-2.66-3.57-5-7.39-8-11.93l8.77,2.51-1.63-3.83a103.49,103.49,0,0,1,33.28,15.66l.59-.69c-2.23-2.91-4.21-6.07-6.75-8.68a43.72,43.72,0,0,0-15.6-10.56,5.65,5.65,0,0,0-3.72.06c-2.81,1.06-6,.08-7-2.47a5.17,5.17,0,0,1,2.79-6.65,5,5,0,0,1,6.72,3.49c.2.64.46,1.6.92,1.77,2.88,1.06,5.83,1.94,9.33,3-1.9-4-3.5-7.52-5.36-10.93-.3-.53-1.88-.69-2.78-.52-9.78,1.86-17.93-.9-24.47-8.38a11.3,11.3,0,0,1-1.5-2.29c-1.93-3.86-3.82-7.75-5.69-11.59a16.94,16.94,0,0,1,12.44,5.73c-5.29-10.18-9.89-20.34-8.54-31.88a31.56,31.56,0,0,0,3.19,3.77c3.76,3.35,7.64,6.54,11.48,9.8,2.54,2.15,5.07,4.31,7.33,6.24,1.12-7.69-4.21-11.89-10.18-15.65a3.29,3.29,0,0,0-1.84-.21c-3.77.3-5.91-1.1-6.21-4.13-.32-3.27,1.47-5.22,5.2-5.65a10.42,10.42,0,0,0,1.15-.32c-1.55-4.88-2.79-9.82-4.68-14.5a26.05,26.05,0,0,1-.7-19.14l6.59,10.3L288.26,274l.73-.1c2.92,5.94,9.52,9.62,9.54,17.34l.83-.32c1.3-4.92,2.71-9.83,3.87-14.79.64-2.74-2.8-9.52-5.34-10.63-.88-.38-2.1,0-3.17.06a4.92,4.92,0,0,1-2.8-9.07A4.85,4.85,0,0,1,298,257a3.44,3.44,0,0,1,1,1.29c.69,1.88.58,4,2.87,5.25,1.73.91,3.1,2.53,4.59,3.8,3.93-4.78,3.08-10.42-2.58-13.65-6.37-3.62-9.06-8.93-8.36-16.21.32-3.41,0-6.87,0-10.51,5,.77,8,4.14,10.53,9.35,1.26-8.2,4.4-14.59,10.58-19.54,4.82,8.55,5.76,17.37,4,26.86,2.36-3.52,5-6.9,7-10.59,1.64-3,.48-6.09-1-8.9-.27-.5-1.14-.8-1.79-1-3.08-.87-4.51-3.18-3.78-6.25a5,5,0,0,1,6-3.44,5.09,5.09,0,0,1,3.59,6c-.69,3.7-.34,4.71,2.75,7.91,3.27-2.73,3.88-6.07,2.86-10.09-2-8,2.89-18.38,10.94-22.5v14.61c3.73-.78,7.3-1.34,10.76-2.32,2.86-.8,5.59-2.09,8.67-3.28-3.29,5.24-2.22,12.5-8.36,16.53l.4.67,6.53-1.29c-3.31,7.23-11.34,12.45-20.4,13.08a27,27,0,0,1,.87,2.58,4.59,4.59,0,0,1-2,5.28,4.9,4.9,0,0,1-5.69-.07,9.09,9.09,0,0,0-11.77,1.23c-1.51,1.7-2.72,3.65-4.06,5.5l.48.71,7.91-4c.54,5.41-3.91,11.53-10.47,13.67-5.49,1.79-7.91,4.6-9,10.63l11.21-4.16c-.95,4.15-3.63,7.19-7.35,9.34.95,1.43,2.16,2.59,2.48,4s.15,3.43-.67,4.06c-3.48,2.67-2.9,6.66-4.28,10.53l5.89-1.1a29.26,29.26,0,0,1-6.49,12.94,55,55,0,0,1-8,7.45c-3.32,2.54-4.53,5.57-3.56,9.8,2.16-.86,3.81-1.71,3.66-4.55a4.56,4.56,0,0,1,5-4.66,4.94,4.94,0,0,1,4.73,5.06,4.7,4.7,0,0,1-4.86,4.85c-1.65,0-3.59-1.17-4.71.93a36.27,36.27,0,0,0-3.43,7.55c-.45,1.8.32,3.92.81,6,2-4.95,4.38-9.62,9.65-12.7l-.89,14.87.6.24c1.86-2.92,3.71-5.85,5.79-9.13,1.81,6.77,1.41,13.09.83,19.84l4.06-3.46v17.62a17,17,0,0,1,2.07-.49,4.74,4.74,0,0,1,5.57,3.7,5,5,0,0,1-3.17,6,4.14,4.14,0,0,0-2.27,2.21,96.29,96.29,0,0,0-2.1,12.12A8.85,8.85,0,0,0,323.2,392a22,22,0,0,0,4.95,5.61c-.71-1.61-1.41-3.23-2.14-4.84a11.27,11.27,0,0,1,0-9.83c2.07-4.36,4.29-8.64,6-12,1.61,3.51,3.48,7.71,5.47,11.85s1.94,8.64,1.23,13.18a17.46,17.46,0,0,1,3.51-1.36,4.49,4.49,0,0,1,5.23,2.63c1,2.22.8,4.52-1.23,6a4.32,4.32,0,0,0-1.84,4.22c.24,6.82,3.06,12,10.14,15.37-4.57-6.7-6.12-13.28-3.49-20.58l7.23,9,.64-.41-1.42-6.37c9.84,2.23,17.15,10.81,18.48,21.71.49,4.06,1.08,8.05,4.7,10.7,1.14.84,2.4,1.52,3.8,2.39v-8.26c0-1,0-2,0-3,.4-9.38,5.71-13.29,14.69-10.63,8.35,2.48,14.91,7.75,20.7,14a6.94,6.94,0,0,0,4.87,2.29c7.54.91,13.41-1.11,18.55-7.06,4.13-4.78,9.95-7.8,16.22-9.41,8.62-2.21,13.56,1.46,14,10.37.17,3.72,0,7.47,0,11.19a10.93,10.93,0,0,0,7.91-8.36c.27-1.72.54-3.44.73-5.17.88-8.11,5-14,12.2-17.77,2-1,3.89-2.22,6.28-3.59l-1.47,6.88.66.44c2.32-2.91,4.65-5.82,7.13-8.91a15.83,15.83,0,0,1,1,10.26,87.87,87.87,0,0,1-3.47,9.66c7.4-2.8,9.73-10.88,9-16.63a3.28,3.28,0,0,0-1.06-1.77c-2.53-2.32-3.12-5-1.5-7.2,1.75-2.4,4.41-2.68,7.55-.82a6,6,0,0,0,.92.36,21.64,21.64,0,0,1,3.25-17.13c1.65-2.59,2.2-5.9,3.12-8.49,1.94,3.9,4.16,8.18,6.23,12.54A11.43,11.43,0,0,1,531.8,393c-.56,1.22-1.11,2.45-1.82,4,4.09-2.3,6.85-7.58,6.22-11.54-.56-3.51-1.17-7-2-10.48a3.41,3.41,0,0,0-1.72-2.12c-3.35-1.42-4.73-3.89-3.59-6.86,1-2.53,3.74-3.51,7-2.46.25.08.52.12.86.19-.26-3-.62-6-.75-8.95s0-6,0-9.29l4.41,3.94.62-.33c-1-6.32-1.6-12.63.34-19.44l5.79,9.08.6-.28-1-14.75.84-.26c4.4,3.09,6.76,7.68,8.72,13.27,1.46-5.18,1.65-9.42-1.7-13.19-1.27-1.43-2.44-2.41-4.69-1.84a4.58,4.58,0,0,1-5.53-3.38,4.91,4.91,0,0,1,2.76-5.92,4.74,4.74,0,0,1,6.08,1.63,4.19,4.19,0,0,1,.82,2.53c-.46,2.78,1.4,3.61,3.32,4.58,1.39-4,.62-6.91-2.9-9.4a38,38,0,0,1-12-13.34c-1.17-2.24-2-4.65-3.26-7.56l6.23,1.23c-1.23-3.77-.74-7.57-4.1-10.33-2.17-1.78-1.2-5.15,1.87-8-3.6-2.44-6.66-5.31-7.5-9.62l11.58,4.37c-1.85-4.88-3.38-9.33-9.13-10.84a14.3,14.3,0,0,1-10.88-13.83l8.34,4.48c-2-6.64-6.72-9.88-12.93-9.41a3.23,3.23,0,0,0-1.67.71c-2.62,2.07-4.94,2.42-7,.94s-2.42-3.77-1.18-6.92c.09-.24.12-.52.27-1.19-10.89,2.11-14.81-6.87-21.33-13l7.32,1.57.62-.55c-6.08-4.07-5.19-11.31-8.2-16.25l19.06,5.5V194.57a22,22,0,0,1,9.16,9.64c2.2,4.3,3.59,8.74,1.83,13.7-1.33,3.74-.12,6.93,3.17,9.66,1.55-2.66,4.18-4.48,2.57-8.17-1-2.32.92-5.15,3.28-5.84a5.26,5.26,0,0,1,6.17,2.88c.92,2.49-.27,5.71-2.63,6.47-1.51.48-3.25.52-3.47,2.48-.28,2.56-1.19,5.54-.26,7.65,1.68,3.82,4.53,7.13,7.1,10.55a36.84,36.84,0,0,1,3.64-26.68,20,20,0,0,1,7.16,8.41c1.5,3.28,2.55,6.76,3.77,10.1,4.1-6.15,5.85-7.57,10.29-8.42,0,5,.24,10.1-.07,15.15-.31,4.9-3.13,8.49-7.3,11-6.52,3.9-7.52,8-3.49,14.59,2.1-1.84,4.28-3.62,6.26-5.58.54-.54.53-1.67.73-2.53a4.77,4.77,0,0,1,5.75-3.81,4.89,4.89,0,0,1,4,5.11,4.74,4.74,0,0,1-4.8,4.64c-1.71,0-3.47-1-4.86,1.19-1.93,3-4.68,5.74-3.86,9.63,1,4.89,2.53,9.68,3.84,14.6a88.18,88.18,0,0,1,4.42-9.09c1.74-2.74,4.06-5.11,6.6-8.22.39,6.26.76,12.14,1.12,17.92l6.53-10.32c2.39,6.49,1.88,12.36-.25,18.28-1.82,5-3.44,10.13-5,14.71,2.09,1.18,4.34,1.74,5.27,3.17a6.12,6.12,0,0,1,.18,5.27c-.67,1.25-2.87,1.78-4.48,2.42-1.42.58-3,.86-4.44,1.31a2.63,2.63,0,0,0-.68.46c-7.08,5.19-7.28,5.54-8,14.31l22.8-19.66c-.69,5-.84,10.69-2.42,16s-4.54,10-6.64,15.32A17.21,17.21,0,0,1,586,347.18c-1.93,3.95-3.63,8.16-5.93,12a21.14,21.14,0,0,1-15.29,10.21c-3.53.56-7.25-.09-10.89-.07-.83,0-2.11.27-2.41.83-1.82,3.36-3.42,6.85-5.31,10.75,3.5-1.11,6.51-2,9.48-3.07.39-.14.6-1,.77-1.56.94-3.24,3.81-4.81,6.82-3.69a5.24,5.24,0,0,1,2.67,6.7c-1.1,2.68-4.24,3.59-7.25,2.25a3.93,3.93,0,0,0-2.73-.21,43.72,43.72,0,0,0-22.65,20.06c5.31-3.11,10.44-6.6,16-9.22s11.39-4.31,17.63-6.59l-1.79,4.18,8.13-2.37.51.84c-3.8,4.85-7.41,9.86-11.46,14.49-3.06,3.5-7.65,3-11.89,3.39,3.68,2.05,8.47-.65,11.78,2.59-9.45,3.49-18.52,8.17-29.07,7.14l0,.68c.49.44,1,.85,1.47,1.32a5.11,5.11,0,0,1-.1,7.35,5.25,5.25,0,0,1-7.53-.91,6.09,6.09,0,0,0-3.2-2.12c-5.77-1.07-11.31-.44-16.33,2.94-2.26,1.53-4.55,3-6.76,4.77,7.42-2.16,14.59-2.27,21.58,1.45l-12.34,6.32,5.54,2.4c-6.42,3.39-12.34,6.5-19.17,6.71a53.67,53.67,0,0,1-12.28-.9c-8.68-1.8-17.14-.7-25.64.95a129.64,129.64,0,0,0-13.51,3c2.95,1,6.08,1.65,8.82,3,7,3.59,13.85,3.19,21.36,1.49,8.35-1.9,17.07-2.19,25.63-3.15a20.93,20.93,0,0,1,2.92.14l-2.24,5.93c3,2.83,5.68,5.33,8.27,7.95.47.47.44,1.44.64,2.18a11.58,11.58,0,0,1-2,.18c-7.19-.72-14.37-1.48-21.55-2.22l-.3,1,11,5.65c-.74.49-1.17,1-1.68,1.08-4.12.82-8.22,2-12.37,2.2-4.38.21-8.61-.7-12-4.18-3.05-3.1-3.2-2.65-7.06-.74a53.07,53.07,0,0,1-10.67,4.2c-7.16,1.77-13.29-.61-18-6.13-2.47-2.9-4.37-6.28-6.69-9.67-.37.61-.72,1.3-1.17,1.9-2.5,3.37-4.62,7.14-7.63,10-5.56,5.21-12.36,5.55-19.3,3a42.22,42.22,0,0,1-7.88-3.84c-2-1.24-3.47-1.23-5.09.34-7.92,7.67-16.89,5.62-25.94,2.79a7.77,7.77,0,0,1-1.34-.86l11.07-5.68-.06-.5c-2.57,0-5.15-.18-7.7,0-4.66.4-9.29,1.07-13.94,1.56a9.71,9.71,0,0,1-2.23-.3c.27-.73.35-1.66.85-2.16,2.53-2.55,5.18-5,8.15-7.82L354.31,451c4.56.33,8.56.36,12.47,1,8.68,1.35,17.31,3,26,4.49a3.41,3.41,0,0,0,1.62,0q9.4-3.36,18.8-6.8Zm6.66-15.29c-7-7.66-14.52-14.14-25.09-15.78a6.21,6.21,0,0,0-6.93,3.4c-2.27,4.58-2.32,9.44-1.49,14.27,12.54-3.35,21.67,3.81,31.67,9.28a9.14,9.14,0,0,0-.85-4.42,3.82,3.82,0,0,1,.47-4.78A25.18,25.18,0,0,1,419.9,433.9Zm51.69,2c.68-4.86.73-9.64-1.41-14.19a6.09,6.09,0,0,0-6.58-3.59c-10.54,1.37-18.06,7.73-25.24,15.47,4.41,1.66,5.91,4.88,5.81,9.1C452.89,438.07,460.94,432.68,471.59,435.87ZM390.37,458c-4.74-2.32-26.61-5.38-33.27-4.7a32.4,32.4,0,0,0,1.25,3.28c1,1.92,1,3.1-1.56,3.73a10.52,10.52,0,0,0-6.05,4.78l24.92-.77a2.91,2.91,0,0,0,1-.27C381.14,462.08,385.56,460.11,390.37,458Zm110.3-4.69c-6.76-.79-29.59,2.54-32.82,4.82,3.66,1.61,7.19,3.34,10.85,4.72a24,24,0,0,0,6.55,1.38c4.75.34,9.52.36,14.27.6,2.5.13,5,.47,7.5.71l.66-.93a38.11,38.11,0,0,0-3.39-2.6c-1.69-1-4.47-1.49-5-2.87C498.71,457.58,500.12,455.28,500.67,453.29Zm-67.64.63a77,77,0,0,0,6.85-6.6c1.94-2.36,3-5.28,1.83-8.43-1-2.8-3.62-3.64-6.19-3.81-3.92-.25-7.88-.13-11.82,0a7.94,7.94,0,0,0-3.09,1.05c-2.62,1.33-2.7,3-.38,4.77a67.31,67.31,0,0,1,6.8,5.51A89.09,89.09,0,0,1,433,453.92Zm-5.65,2.42c-3.62-1.21-3.62-1.21-5.47,1.64-5.09,7.8-11.61,9.52-19.81,5.28a3.33,3.33,0,0,0-2.46-.41c-2.5,1.24-4.87,2.74-7.42,4.22C406.85,478.05,421.12,474.53,427.38,456.34Zm7.08-.56-3.79.93c6.51,18.33,20.95,21.06,35,10.4-1.7-1.05-3.37-2-4.92-3.06a5.12,5.12,0,0,0-6.18-.29c-5.83,3.21-11.59,2.18-16-2.53A64.67,64.67,0,0,1,434.46,455.78Zm-48.23-16.24c9,2.08,17.41,5.19,26.49,5.13-5.93-4.23-12.18-7.65-19.63-8.17C390.55,436.32,388.14,436.67,386.23,439.54Zm59,4.81.37,1.29,26.12-5.92a6,6,0,0,0-6.14-3.24C457.9,436.84,451.45,440.36,445.22,444.35Zm-8.53,9.4c3.17,9.67,12.19,12.94,18.78,7.08Zm-14.79,0-19.27,7.1C408.79,466.73,418.14,463.36,421.9,453.75Zm8.73.43c-2.57-4.46-5.52-8.28-10.15-10.79C418.63,450.6,422.8,455,430.63,454.18Zm-47.36,17.9c-4.24-2.63-13.63-2.31-18.12.39C371.19,474.35,377,474.82,383.27,472.08Zm91.92-.2c5.79,3,11.62,2.47,17.48.3C486.88,470.66,481.1,468.91,475.19,471.88Zm41.32-59.52c6.33-4.62,7.46-9.48,4-12.74-1.1,1.41-2.25,2.83-3.34,4.29a2.83,2.83,0,0,0-.68,1.39C516.47,407.45,516.51,409.61,516.51,412.36Zm-179.12-13c-3.33,4.72-1.88,9.87,3.47,12.25C343.25,406.63,339.66,403.15,337.39,399.36Zm192.82,16.57c-10.5-1.73-9.88-2.12-12.57,1.76,2.57.53,5.13,1.09,7.71,1.56a2.17,2.17,0,0,0,1.42-.45C527.91,417.93,529,417,530.21,415.93ZM327.48,416c1.75,1.18,3.29,3.05,4.92,3.13,2.61.14,5.28-.91,8-1.46C338.21,414.23,337.93,414.19,327.48,416Zm21.32,24.65a46.73,46.73,0,0,0,23.63.88Zm160.27.68-.06-.69-23.41.92A56.24,56.24,0,0,0,509.07,441.32Zm68.18-109.64-.57-.37c-4.59,5-9.48,9.81-10.34,17.2Zm-295.92-.33-.63.38,11,16.85C290.82,341.18,285.85,336.41,281.33,331.35Zm-1.47,21.26-.44.58a49.43,49.43,0,0,0,17.13,13l.45-.59Zm298.63.62-.53-.54-17.17,13A40.76,40.76,0,0,0,578.49,353.23ZM312.73,243.7l.75.08q1-10.36,2.08-20.73A41.82,41.82,0,0,0,312.73,243.7Zm229.64-20.55,2.12,20.68.73-.08C545.75,236.74,545.33,229.83,542.37,223.15Zm20.31,78.76.75.2a49,49,0,0,0,4.33-20.93Q565.23,291.54,562.68,301.91ZM531.84,418.07l-1.18-.07c-.85,1.09-2.18,2.08-2.42,3.29a2.49,2.49,0,0,0,2.84,3.07,4.29,4.29,0,0,0,2.87-2.85C534.09,420.48,532.61,419.23,531.84,418.07ZM325.16,221.73h1.32c.76-1.13,2-2.18,2.18-3.4.29-1.75-1-2.9-2.83-2.91s-3.13,1.13-2.84,2.89C323.19,219.54,324.4,220.6,325.16,221.73Zm5.08,200.39v-1.21c-1.12-.8-2.17-2.08-3.4-2.31a2.44,2.44,0,0,0-2.89,2.81,4.36,4.36,0,0,0,2.86,2.91C327.84,424.46,329.09,422.92,330.24,422.12Zm230.52-41.46,1.34-.05c.72-1.15,1.88-2.25,2-3.48.22-1.76-1.1-2.86-2.94-2.79s-3.09,1.24-2.73,3C558.71,378.54,560,379.55,560.76,380.66ZM545.84,275.38h-1.33c-.76,1.14-2,2.2-2.16,3.43-.26,1.74,1,2.89,2.86,2.86s3.14-1.12,2.82-2.91C547.81,277.54,546.6,276.5,545.84,275.38Zm-229.69,3.9,0-1.33c-1.16-.7-2.26-1.83-3.49-2-1.81-.24-2.88,1.12-2.79,2.93s1.26,3.09,3,2.7C314.07,281.32,315.06,280.08,316.15,279.28Zm-25.91,2.07-.73.12a62,62,0,0,0,5.05,20.63l.69-.17Zm245.24-62.24,0-1.33c-1.11-.8-2.14-2.05-3.35-2.27-1.75-.32-2.92,1-3,2.79s1.09,3.12,2.86,2.87C533.26,221,534.34,219.83,535.48,219.11ZM287.92,320.76l0-1.32c-1.16-.73-2.27-1.93-3.5-2.08-1.77-.21-2.85,1.17-2.78,3s1.26,3.09,3,2.75C285.82,322.84,286.83,321.57,287.92,320.76Zm5.37,55.73-.05,1.3c1.1.79,2.11,2,3.33,2.28,1.76.36,2.91-.87,3-2.72s-1-3.16-2.79-2.94C295.54,374.56,294.44,375.76,293.29,376.49Zm27.2-25.31-.67-.28A36.81,36.81,0,0,0,314.5,370Zm212.36,20.21,1.32,0c.8-1.12,2.06-2.15,2.27-3.37.31-1.74-1-2.91-2.82-2.94s-3.14,1.07-2.86,2.86C531,369.18,532.12,370.25,532.85,371.39ZM317.21,382.58c1.1-3.61,2.23-7,3.12-10.45.18-.68-.52-1.59-.82-2.4C317.34,373.94,314.11,377.74,317.21,382.58Zm223.44-.2c2.37-3.22,1.52-8.62-2.36-12.67-.3.85-.92,1.67-.75,2.28C538.49,375.53,539.62,379,540.65,382.38Zm-216.91-11h1.31c.76-1.14,2-2.2,2.18-3.42.25-1.73-1-2.91-2.89-2.88s-3.12,1.2-2.84,2.93C321.69,369.24,323,370.29,323.74,371.41ZM340.16,239.9l1.28,0c.85-1.09,2.22-2.11,2.42-3.31a2.45,2.45,0,0,0-2.78-2.92,4.37,4.37,0,0,0-2.94,2.77C338,237.47,339.42,238.75,340.16,239.9ZM514.32,402.68c2.51-.53,3.6-1.49,3.59-3.32a2.67,2.67,0,0,0-2.91-2.91c-1.85,0-3.1,1.13-2.83,2.86C512.35,400.52,513.56,401.56,514.32,402.68ZM362.21,410.2l8.36,17.21C370.16,421.15,366.5,413.53,362.21,410.2Zm190.38-92.69c0-.44,0-.88,0-1.31-1.14-.75-2.41-2.22-3.4-2.06a4.38,4.38,0,0,0-2.8,2.91,2.37,2.37,0,0,0,2.87,2.76C550.46,319.59,551.48,318.31,552.59,317.51Zm24.21,3.41c0-.44,0-.88,0-1.31-1.12-.79-2.16-2.07-3.37-2.25-1.68-.25-2.92.93-3,2.82s1.2,3.1,2.89,2.88C574.59,322.9,575.67,321.67,576.8,320.92Zm-60.51-81,1.23,0c.83-1.11,2.38-2.29,2.29-3.32a4.36,4.36,0,0,0-2.76-3,2.41,2.41,0,0,0-2.92,2.75C514.27,237.68,515.53,238.78,516.29,239.94ZM564,257.31l-1.33,0c-.78,1.1-2,2.13-2.23,3.33-.32,1.76,1,2.89,2.79,2.93s3.15-1.06,2.91-2.8C566,259.53,564.79,258.45,564,257.31ZM537.41,351l5.94,18.62C543.19,362.85,541.7,356.49,537.41,351Zm-178-140-.43-.63c-6.32,2.31-11.26,6.6-16,11.17l.47.67Zm128,216.33,8.34-17.23C491.57,413.28,487.6,421.54,487.39,427.38Zm27.16-205.06.46-.66c-4.77-4.58-9.7-8.93-16.08-11.2l-.41.6ZM346.34,398.81c-1.09-.79-2.09-2-3.3-2.28-1.76-.36-2.93.89-3,2.71a2.61,2.61,0,0,0,2.79,3C344.67,402.25,345.72,401.32,346.34,398.81ZM293.83,264l1.31,0c.83-1.09,2.18-2.09,2.39-3.29.29-1.65-.89-2.93-2.78-3s-3.18,1-3,2.76C291.9,261.76,293.1,262.86,293.83,264Zm11.54,52.19,0,1.29c1.1.81,2.12,2.11,3.33,2.33a2.35,2.35,0,0,0,2.88-2.73,4.4,4.4,0,0,0-2.75-2.95C307.8,314,306.53,315.45,305.37,316.2Zm-23-26.88-.63.31c1.67,5.49,2.46,11.39,7.77,15.18Zm271.2,119.82-21.51,3.48C539.52,413.38,546.61,411.87,553.57,409.14Zm14.86-104.32.74.34c4.38-4.25,5.56-9.94,6.37-15.79ZM543,339.38l5,19.91C548.34,352.14,546.31,345.59,543,339.38Zm1.26-55.47c2.54,3.58,5.93,5.35,9.65,6.64C551.14,287.85,550.23,282.6,544.22,283.91ZM304,290.72c3.5-1.68,7.28-3,9.59-6.91C307.69,282.85,306.66,287.87,304,290.72ZM325.9,412.6l-21.67-3.46A46.23,46.23,0,0,0,325.9,412.6ZM560.36,233l-.68-.3a42.82,42.82,0,0,0-7.27,18.2Zm-254.84,17.9c0-5.06-4.89-16-8.09-18.24Zm3.18,107.91L310,359l4.93-19.59-1.13-.29Q311.26,349,308.7,358.77Zm5.81-64.46c-4.48,1.19-10.68,7.06-12.16,11.42Zm229.91-.05-.51.51,11.17,10.46.48-.5C552.62,300.43,549.27,296.56,544.42,294.26ZM560,390.51l-.47-.9-16.78,8.84.41.78ZM314.8,399.24l.42-.8-16.9-8.82-.45.88Zm203.42-182.3.68-.24a29.57,29.57,0,0,0-5.66-14.23Zm-177.1,14.44c-3.79-2.13-6.05-1.17-8,2.75C336.51,235.58,337.81,231.57,341.12,231.38Zm-1.37-14.55,5-14.42C341.82,205.44,339,213.45,339.75,216.83ZM525.05,234c-3.22-4.34-5-4.95-7.81-2.58C520.17,231.54,521.44,235.68,525.05,234Zm28.16,108c.6-4.44-1.45-10.87-4.18-13.65ZM331.67,394.91l.45.17V377.44l-.45,0ZM303.59,342l1.06.33,4.17-13.68-1.05-.32Q305.67,335.15,303.59,342ZM526.23,377.4h-.5v17.9h.5Zm-181.7-150a11.73,11.73,0,0,0,11.07-2.87Zm169,.79.19-.72-10.94-2.8-.18.68C506,227.22,509.5,228.61,513.5,228.19Zm-8,182-1-.52-6.19,11.12c.32.19.65.37,1,.55Zm-152.06-.56-1,.54,6.24,11.14,1-.54Q356.51,415.2,353.41,409.62Zm-10.59,20.86-.18.62L355,433.77l.16-.75Zm172.53.6-.13-.58L502.82,433l.15.73Zm-187.7-181.9-.62-.79-7.12,5.7.59.75ZM294,395.18l-.7.68,6.53,5.92.71-.78ZM557.42,401l.8.78,6.37-6-.58-.62Zm-26.58-152.6-.61.78,7.09,5.51.56-.72Z"/><path class="cls-1" d="M438.06,287.69c-1.09,1.37-1.79,2.21-2.45,3.09a2.71,2.71,0,0,0-.69,1.3c0,11.55,0,23.09,0,35.11,2.45,0,4.7.08,6.95-.06.5,0,1.4-.9,1.35-1.28-.3-2.09,1.32-4.53-1.17-6.3-.43-.3-.21-1.52-.28-2.23.34-.19.49-.35.66-.36,4.14-.34,4.32-.34,4.24-4.59-.05-2.92,1.92-2.56,4-2.79,0-2,0-4,0-6,.05-2.34.76-4.41,3.15-5.31a5,5,0,0,1,6,1.64,14.88,14.88,0,0,1,2.67,4.48c.49,1.5-.5,2.19-2.09,1.62-1.11-.39-2.23-.73-3.65-1.2v4.51c3.61,1.11,3.72,1.11,3.67,5,0,2.07.68,2.87,2.72,2.62a15.72,15.72,0,0,1,2.16.09c0,.92.3,2.33,0,2.51-3,1.58-1.09,4.24-1.47,6.34-.06.36,1,1.3,1.55,1.33,2.92.13,5.85.06,8.69.06.92-1.62,0-4,3-4.1,5.17-.14,5.38-.11,5.39,5.12v3.67c3.86-1.18,7.27-2.2,10.65-3.28a2.11,2.11,0,0,0,1.23-1c2.35-5.18,8-4.75,11.74-7.45l.63.47-.34,3.1L509,325.4a8.59,8.59,0,0,1-1.48,1.28c-2.73,1.31-5.48,2.56-8.24,3.8-.49.22-1.17.6-1.53.42-3.85-1.85-7.09.63-10.56,1.38-.36.08-.69.25-1.05.35-4.32,1.16-4.32,1.16-3.5,6.4l12.79-2.61c2.39-4.4,7.2-3.66,11-5.12a18.25,18.25,0,0,1,3.14-.54l-1,3.4,2.42,1.71-.31,1c-1.86.52-3.7,1.14-5.58,1.53-2.94.61-5.82,2.33-8.94.12-.72-.52-2.29.06-3.45.26-2.79.49-5.56,1.16-8.37,1.56-2.11.29-2,1.65-2,3.18-.06,1.78,1,1.86,2.3,1.85,3.21,0,6.43.05,9.64,0a4.29,4.29,0,0,0,2.56-.7c4.41-3.85,9.35-1,14-1.9l.23.79L509.31,346l2,3.08H498.57c-4.89-4.36-10.66-1.12-16.13-2.37v4.67c4.23.78,8.51,1.6,12.81,2.34.57.1,1.21-.33,1.83-.4a21.49,21.49,0,0,1,4.71-.34,32.5,32.5,0,0,1,5.86,1.42,16.24,16.24,0,0,1,2.75,1.41l-1.86,2.35,1.07,3.35c-2.75-.65-5-1.14-7.22-1.7-2.52-.62-5.36-.66-6.61-3.66-.16-.38-.89-.64-1.4-.74-3.86-.76-7.73-1.46-11.58-2.18-1.34,4.42-1,5.09,3.07,6.21,2,.57,4,1.46,6,1.89a25.18,25.18,0,0,0,4.77.16c.45,0,1-.27,1.35-.12,3.65,1.52,7.28,3.1,10.91,4.67l-.15.89-2.57,1.46.43,4c-4.44-3-9.9-2.69-12.37-7.68a1.9,1.9,0,0,0-.91-1c-3.54-1.16-7.09-2.25-11.09-3.51,0,2.58,0,4.58,0,6.57,0,1.51-.63,2.21-2.13,2.18a9,9,0,0,0-1.37,0c-2.72.31-4.86-.09-4.36-4-3.47,0-6.74-.06-10,.06-.48,0-1.21.78-1.34,1.31-3.47,14.35-12.63,22.92-26.77,26.5a6.61,6.61,0,0,0-.79.25,5,5,0,0,0-.65.46c0,3-.05,6.06,0,9.16.05,1.77-.68,2.51-2.44,2.46-2.39-.06-4.78,0-7.16,0-1.66,0-2.29-.74-2.27-2.35.06-3.1,0-6.21,0-9.49-1.17-.31-2.21-.57-3.24-.87-13-3.8-21.65-11.92-24.91-25.27-.39-1.58-.89-2.38-2.69-2.28-2.74.16-5.48.05-8.17.05-.78,3.63-3.47,5.14-6.88,3.83a2.83,2.83,0,0,1-1.24-2.1c-.17-1.9-.05-3.83-.05-6.54l-14.23,4.56c1,2.51-.06,3.1-2.19,3.12-1.63,0-3.26.47-4.9.63a6,6,0,0,1-1.67-.34,4.75,4.75,0,0,1,.69-1.62c1.41-1.44,2.88-2.83,4.42-4.13.4-.34,1.49-.57,1.67-.35,1.4,1.7,2.82.59,4.22.16,3.41-1,6.81-2.14,10.21-3.2,1.95-.61,2.22-1.67,1.31-5.84l-15.5,3c.56,2.89-1.2,2.94-3.2,2.71s-4.26-.48-6.38-.71l-.3-.91,7.52-4.56c.06,0,.21-.06.25,0,4,3.7,8-.42,12-.2a11.7,11.7,0,0,0,2.69-.51c3.64-.68,3.75-.85,3-5.11-5.11,0-10.3,0-15.49,0-.31,0-.87.23-.9.42-.49,2.87-2.3,1.59-3.75,1.17-1.95-.57-3.87-1.27-5.81-1.91l-.05-1.15c2.77-.87,5.54-1.74,8.33-2.57a.81.81,0,0,1,.67.38c.66,3.19,3.2,1.94,5,2,3.39.15,6.79,0,10.19,0,1.24,0,2.22-.17,2.15-1.74-.07-1.32.39-2.82-1.63-3.2-4.59-.87-9.15-1.89-13.76-2.63-.75-.12-1.69.85-3.09,1.63L350.09,335l.1-.81a15.06,15.06,0,0,1,2.58-.73c1.45-.15,2.94,0,4.4-.17,1.89-.2,3.11.22,2.6,2.57L375.21,339c1.44-4.35,1-5.17-3-6.31-2.9-.82-5.71-2-8.62-2.77a17.37,17.37,0,0,0-4.27-.06l-.26.86-6.73-6.15.42-1.16c2.87.41,5.76.73,8.59,1.34.41.09.52,1.59.88,2.83L375.84,332c0-2.41.09-4.22,0-6-.13-2.18.85-3,2.94-2.85a3.84,3.84,0,0,0,.83,0c2.69-.28,4.67.27,4,4,3.22,0,6.21,0,9.21,0a1.71,1.71,0,0,0,1.14-.6c.92-1.24-.08-5.52-1.21-6.76-.54-.59-.49-1.71-.76-2.77l4.74-.31c1.38-2.53-2-7.82,4.46-7.07v-4.8l-5.38,1.46c-1-4.12,2.7-8.67,6.64-8.4a4.62,4.62,0,0,1,4.42,4.71c.1,2.1.08,4.21.13,6.32,0,.16.15.32.3.63,6-.44,2.6,4.68,4.17,7.19l5.12.23c-.68,1.24-1.43,2.08-1.59,3a29.72,29.72,0,0,0-.46,6.31c0,.34,1.77.8,2.74.88,1.8.14,3.61,0,5.6,0,.06-1.29.13-2.18.13-3.08q0-15.27,0-30.53a6.89,6.89,0,0,0-4.77-6.15,4.77,4.77,0,0,1-2-1.26c-3-3.14-5.89-6.4-8.93-9.52-1.85-1.91-3.84-3.68-5.85-5.42-2.52-2.18-5-4.34-7.72-6.3a3.31,3.31,0,0,0-2.76.09c-3.57,1.67-7,3.58-10.59,5.27-1.4.67-1.74,1.42-1.48,3,1.15,7-1.18,12.73-7,16.74s-12.26,4.27-18.41.61-8.84-9.3-8.1-16.27a15.85,15.85,0,0,1,11.13-14.07c6.49-2.24,12.58-1,17.56,3.83,1.53,1.49,2.62,1.78,4.44.72,5.11-3,10.2-6,15.48-8.65,5.77-2.9,11.78-5.32,17.61-8.1,1.77-.85,3.24-2.3,4.95-3.3a28.81,28.81,0,0,1,3.83-1.59,14.66,14.66,0,0,0,2.06-2.59c.28-.54-.09-1.45-.24-2.18a22.91,22.91,0,0,1-.85-4.7c0-.38,1.9-1,2.94-1,3.21-.14,6.43-.15,9.64,0,1,.05,2.86.72,2.88,1.16,0,1.49-.1,3.41-1,4.39-1.11,1.2-1.33,1.6,0,2.63.77.61,1.24,1.61,2,2.07,1.51,1,3,2,4.53,3a20.84,20.84,0,0,0,2.34,1.42c6.13,2.81,12.36,5.4,18.39,8.42,5.53,2.76,10.87,5.92,16.22,9,1.78,1,2.92,1,4.46-.59a16.74,16.74,0,0,1,19.54-3.13A16.92,16.92,0,1,1,479,273.41c.27-1.5.07-2.35-1.39-3-3.56-1.69-7.05-3.53-10.56-5.32-1.49-.76-2.52-.69-3.75.79s-3.11,2.1-4.5,3.34c-5,4.55-10,9.2-15,13.81a3.37,3.37,0,0,0-1.07,1.24C442,286.82,440.22,287.92,438.06,287.69Zm-3.17,103.38a7.11,7.11,0,0,0,1.08.1c12-1.47,25-14.46,25.5-26.55.62-14.18.4-28.39.57-42.59,0-1.54-.61-2.1-2.13-2.08-4,.07-7.91.19-11.84,0-2.68-.16-3.22.91-3.18,3.31.16,11.64.14,23.28.27,34.91.09,7.11-2.5,12.63-9,16.06a2.4,2.4,0,0,0-1.24,1.55C434.85,380.85,434.89,386,434.89,391.07ZM480.45,276a15.24,15.24,0,1,0,16-14.91A15.19,15.19,0,0,0,480.45,276ZM362.16,261.05a15.21,15.21,0,1,0,15.31,15.07A15.17,15.17,0,0,0,362.16,261.05Zm34.36,104C397,376.87,410,390.37,423,391c0-5,.06-10-.07-15,0-.64-.91-1.48-1.6-1.86a16.59,16.59,0,0,1-7.32-7.54c-.3-.63-1.06-1.45-1.63-1.46C407.11,365,401.82,365.06,396.52,365.06Zm23.33-85.24c4-3.23,3.15-7.12,3.18-10.81q0-3.3,0-6.6c0-3.78.81-7.77-3.39-11a22.82,22.82,0,0,0-4,1.21c-4.06,1.92-8,4-12,6-2.76,1.4-3.05,2.25-1.56,4.89a7.85,7.85,0,0,0,1.6,1.86q6.93,6.48,13.92,12.89A14.43,14.43,0,0,0,419.85,279.82Zm18.16-.06a1.06,1.06,0,0,0,.69-.17c5.67-5.18,11.46-10.22,16.88-15.65,2.18-2.17,1.44-3.85-1.4-5.3-4-2-8-4.11-12-6a25.13,25.13,0,0,0-4.23-1.24c-.87,1.32-1.46,2.16-2,3a5.25,5.25,0,0,0-1,2.16c-.08,6.13-.06,12.25,0,18.38a3.58,3.58,0,0,0,.67,1.89C436.19,277.75,437,278.54,438,279.76Zm-13.25,11.13v3.65c0,9.16,0,18.33,0,27.49,0,6.09-.66,5,5.31,5.25,2.44.1,3.15-.7,3.12-3.1-.11-10.17,0-20.34-.05-30.52,0-.89-.1-1.78-.16-2.77ZM425,403.28h8V365.17h-8Zm8-126.51V254.65h-8v22.12ZM476.21,325v39.66c0,1.38-.25,2.72,2,2.77s2.2-1.23,2.2-2.81q0-18.7,0-37.42c0-.7-.12-1.41-.2-2.2Zm-98.65,0c0,13.45,0,26.55,0,39.66,0,1.38-.25,2.72,2,2.77s2.21-1.23,2.2-2.81q0-18.7,0-37.42c0-.7-.12-1.41-.19-2.2ZM435,242.59H422.89v9.93H435Zm-.13,46.15v-9.93H423v9.93Zm-22.49,31.4H395.8c0,1.92-.11,3.65.06,5.35.06.6.81,1.61,1.27,1.62,5.07.12,10.15.07,15.29.07Zm36.21-8.37c-.93,4.87-.76,5.09,3.57,5.1,1.37,0,2.75-.1,4.11,0,1.88.15,2.76-.51,2.51-2.46-.1-.86-.11-1.74-.17-2.66Zm-49.41,4.86h9.83v-4.79h-9.83Zm57.91-49.91-1.12-.46c-4.7,4.34-9.42,8.64-14.05,13.05-.41.4-.15,1.49-.2,2.25l.87.16c4.62-4.29,9.27-8.56,13.84-12.91C456.93,268.37,456.92,267.43,457.13,266.72ZM416.83,281l.07-.85c-4.69-4.34-9.37-8.69-14.11-13-.35-.31-1.17-.11-1.77-.15.12.6,0,1.44.37,1.78,4.38,4.15,8.81,8.26,13.31,12.27C415.09,281.36,416.11,281,416.83,281ZM416,250l-.11-.76c-.7-.06-1.53-.39-2.08-.13-4.19,2-8.36,4.09-12.47,6.26-.5.26-.65,1.19-1,1.81.62.09,1.37.44,1.83.22,4.19-2,8.34-4.13,12.48-6.26A7.82,7.82,0,0,0,416,250Zm27-1.48-.78.46c.33.71.47,1.78,1,2.08,4.11,2.21,8.29,4.31,12.49,6.35.49.23,1.25-.09,1.88-.15-.3-.62-.43-1.57-.92-1.82C452.14,253.05,447.55,250.8,443,248.51ZM415.45,365.18a13.09,13.09,0,0,0,7.41,7.58v-7.58ZM397,303.39l.38.56c1.12-.3,2.27-.9,3.34-.78a3.09,3.09,0,0,1,2.15,1.74c.39,1.06,0,2.36.2,3.53.06.46.67.84,1,1.27.43-.46,1.19-.89,1.22-1.36a32.59,32.59,0,0,0,0-5.76c-.27-2.37-2.51-3.78-4.32-2.67A28.05,28.05,0,0,0,397,303.39Zm55.56,5.94,1,.64c.46-.67,1.24-1.31,1.33-2,.58-5.06.53-5.06,5.34-4,.07,0,.21-.23.8-.91a22.9,22.9,0,0,0-3.2-2.41c-1-.5-2.4-1-3.18-.67a4.28,4.28,0,0,0-2,2.89A47.24,47.24,0,0,0,452.52,309.33Zm-17.45,63.38a13.74,13.74,0,0,0,7.16-7.49h-7.16ZM378.39,269.43c4.3-2.2,8.46-4.31,12.57-6.48.2-.1.29-.92.11-1.13s-1-.75-1.26-.61q-6,2.93-12,6.05c-.27.14-.37.9-.29,1.32S378.06,269.13,378.39,269.43Zm101.37.07.77-.43c-.23-.7-.27-1.77-.74-2-3.7-2-7.48-3.86-11.28-5.65-.41-.2-1.15.31-1.73.49.25.49.39,1.22.79,1.43C471.61,265.42,475.69,267.45,479.76,269.5Zm-45-32.86.61-.9c-.6-.42-1.19-1.19-1.81-1.22-3.09-.12-6.19-.13-9.28,0-.6,0-1.16.94-1.74,1.44l.53.67ZM498.11,346.3c2.85,2.47,6,1,8.93,1.35v-2.84C502.24,344,499.88,344.32,498.11,346.3Zm-32-87.17-6-2.88-1.66,3.43,5.93,2.9C465,261.36,465.47,260.41,466.12,259.13ZM506,359c.22-1.22.38-2.08.56-3.05a55.51,55.51,0,0,0-6-1.38c-.88-.12-1.85.52-2.79.81.62.69,1.11,1.72,1.87,2C501.68,358.05,503.77,358.42,506,359Zm-2.45-35.74c-2.09.95-4.19,1.79-6.15,2.89-.61.34-.82,1.4-1.22,2.14.81.19,1.76.76,2.41.52,2.12-.76,4.13-1.82,6.17-2.76Zm1.17,43.17c-4.76-3.15-6.68-3.67-8.9-2.12,1.79,2.92,5.11,3.13,7.67,4.66ZM399.58,259.58l-1.8-3.34-5.85,3,1.72,3.35ZM506,333.23c-2.27.57-4.41,1-6.45,1.68-.69.24-1.13,1.22-1.68,1.86.75.35,1.56,1.1,2.23,1,2.28-.37,4.52-1,6.72-1.58ZM428.62,241.4l.27-.58a12.23,12.23,0,0,0,2.71,0c.54-.12,1-.76,1.45-1.16-.48-.37-.92-1-1.46-1.07a7.42,7.42,0,0,0-2.7,0c-1.36.22-2.69.63-4,1Zm-7.77,8.21V245.7c-1.88-.26-3.65-.36-3.64,2C417.22,249.83,418.88,249.9,420.85,249.61Zm-.16,36.23v-4.2c-1.94.12-3.71.17-3.42,2.44C417.5,286,419,286.18,420.69,285.84Zm-20.77-24.38-4.81,2.45c1.15,1,1.85,1.92,2.78,2.3a2.17,2.17,0,0,0,1.94-.9C400.15,264.38,399.92,263.25,399.92,261.46Zm37.33,20.2v4.15l.69.63c.93-.79,2.47-1.45,2.68-2.4C441.11,281.82,439.23,281.76,437.25,281.66Zm25.21-17.39-.25-.91a21.08,21.08,0,0,0-3.69-.89,3.48,3.48,0,0,0-.67,2.32c.2.64,1.43,1.56,1.92,1.41A10.08,10.08,0,0,0,462.46,264.27ZM437.3,245.71v3.95c1.89.19,3.52.06,3.41-2.14S439,245.38,437.3,245.71Z"/><path class="cls-1" d="M378.36,193.26c.34-2.2,0-3.83-2-5-1.39-.81-1.06-2.23.26-3.11a9,9,0,0,1,1.87-.85l-14.73-13.39c2.13-2,4.48-1.81,6.61-1.3,2.3.56,2.7-.55,3.21-2.3a13.36,13.36,0,0,1,2-4.15c3.05-4.13,6.57-7.87,11.21-10.21a33.67,33.67,0,0,1,7.62-2.56c2.64-.62,5.45-1.36,8-1,3.05.4,5.81-.46,8.7-.65,3.46-.23,6.92-.43,10.36-.82.39,0,1-1.27.92-1.88-.46-4,.84-6.78,4.68-8.34a2.5,2.5,0,0,0,1.23-1.8c.17-1.63.49-3.5-.13-4.87-.45-1-2.31-1.37-4.38-2.47,3.34-.15,5.66-1,4.46-5.12l1.21.78c.3,1.23.26,2.79,1,3.58s2.23.52,3.47.74c-.21.53-.24.8-.35.84-1.16.37-3.2.49-3.35,1.1a17.87,17.87,0,0,0-.19,6c.06.59,1.14,1.22,1.88,1.59a6.61,6.61,0,0,1,4,6.32c0,3.34.69,3.79,3.91,4,4,.25,8,1,12,1.39a30.93,30.93,0,0,0,5.09-.09,26.54,26.54,0,0,1,13.52,3,23.86,23.86,0,0,1,8.76,7c2,2.76,4.27,5.2,5.22,8.62.26.95,1.29,1.83,3.06,1.4,2-.47,4.17.07,6.17.16.06.88.16,1.14.08,1.23-3.25,3.42-6.43,6.93-9.84,10.19-1.19,1.15-2.94,1.7-4.61,2.62a9.07,9.07,0,0,1,1.71.86c.71.6,1.61,1.25,1.83,2.05.13.44-1.08,1.15-1.49,1.86a16.67,16.67,0,0,0-1.78,4.3c-1.53.76-2.92,1.2-3.78,3.68-.74,2.14-3.69,4.21-6.08,5A118.41,118.41,0,0,1,451.14,206a167.57,167.57,0,0,1-39.28.55c-6.54-.63-13-2-19.48-3.29a13.75,13.75,0,0,1-9.42-6C381.77,195.25,381,193.34,378.36,193.26Zm4.06-2.49c-.47,3.82-.48,3.8,3.33,2.48,22-7.66,44.55-9.6,67.46-5.14,7,1.36,13.79,3.63,20.66,5.54,1.49.42,2.66.71,2.17-1.53-.12-.52-.19-1-.23-1.22l3.86-1.8-.25-.88a142.76,142.76,0,0,0-67.76-7.93,128.23,128.23,0,0,0-33,8.22l-.06,1Zm78.29-32.91a8.32,8.32,0,0,0-7.12-5.1c-9.7-.86-19.42-2-29.14-2.1-6.82-.07-13.67,1.23-20.48,2.17a7.94,7.94,0,0,0-6.78,5.14c8.9-3.59,18.27-3.55,27.67-4.4.15,1.29.29,2.43.42,3.57h7.29l.53-3.6C442.46,154.52,451.83,154.28,460.71,157.86Zm-34.4,6.06c-.69-.08-1.48-.13-2.27-.25-3.78-.57-3.68-.58-3.87,3.19-.09,1.69-.41,3.11,2,3.28,3.06.21,4.61-.68,5.18-2.82.19-.72,1.21-1.21,1.86-1.81.54.61,1.11,1.19,1.61,1.83s.87,1.88,1.46,2a11.66,11.66,0,0,0,5,.08c.48-.12.39-2.31.63-3.54.54-2.7-1-2.92-3-2.62-1.14.17-2.27.37-3.11.5-.22-1.79.12-3.9-.71-4.55a4.37,4.37,0,0,0-4.26.07C426,159.93,426.44,162,426.31,163.92Zm-30.92,1.25c-1.2,0-2.51,0-3.83,0-1.88,0-3.08.64-2.29,2.84.15.42.42.92.31,1.29-.54,1.84.24,2.61,2,2.61,2.74,0,4.39-1.24,4.61-3.12a3,3,0,0,1,1.35-2c.43-.22,1.63.29,2,.82a5.18,5.18,0,0,0,6.34,2.16c2.63-.82,1.19-2.57,1.05-4-.25-2.73-.83-3.09-3.44-2.31-1.13.34-2.28.6-3.05.8-.43-1.86-.48-4.19-1.12-4.36a6.16,6.16,0,0,0-4.54.79C394.28,161,395.09,163.25,395.39,165.17Zm67.15,0c.37-1.93,1.18-4.14.77-4.39-1.28-.79-3.34-1.51-4.47-1-.91.44-.92,2.75-1.36,4.37a1.65,1.65,0,0,1-.55.06,6.48,6.48,0,0,1-1.05-.27c-4.15-1.32-4-1.27-5.08,2.73-.53,1.93-.07,2.73,1.69,3.17,2.87.71,5.05-.08,5.78-1.82.31-.75,1.24-1.23,1.89-1.83.53.81,1.1,1.61,1.58,2.45s.62,2,1.27,2.34c3.62,1.94,4.8,1.13,5.7-2.86.6-2.71-.76-3-2.74-3Zm-29.46-11c.31,2.53.54,4.46.76,6.31,2.68.71,4.75.87,4.77-2.46,3.28.18,6.37.32,9.46.52.63,0,1.73.17,1.79.44.74,3.37,3.56,1.84,5.52,2.58l1.62-4C449.29,154.89,441.46,155,433.08,154.15Zm-8.23-.05c-8.4,1-16.29.62-23.91,3.53l1.65,3.78,4.54-.35c.59-1.11,1.4-2.29,2.35-2.41,3.24-.42,6.52-.47,9.93-.66-.09,3.66,2.21,2.89,4.64,2.59Zm4.35-15a5.52,5.52,0,0,0-5.23,5,5.21,5.21,0,1,0,5.23-5Zm31.12,14.11c1.22.73,2.45,1.15,2.43,1.5-.15,2.77,2.2,2.31,3.63,3s3.35,1.35,4.51,2.52c3,3.07,5.75,6.43,8.89,10l1.89-.73C479.21,161.1,468,152.31,460.32,153.2Zm-81.26,17.42c3.13-7.26,8.09-12.14,14.91-13.68l2.81-3.71c-6.09-1.2-18.8,8.1-20.42,16.36Zm19,1.58c5.23,3,10.34,3.6,15.73,1.28a4.5,4.5,0,0,1,2.9-.08,12.26,12.26,0,0,0,10.09-1,4.63,4.63,0,0,1,5.09,0,12.5,12.5,0,0,0,10.11,1,5.73,5.73,0,0,1,3.39.35c5.23,2,10.15,1.42,15.56-1.82a7.54,7.54,0,0,0-1.95.28c-3.6,2-7.42,1.89-11.21.9-2.73-.71-5.29-1.69-8.21-.69a6.24,6.24,0,0,1-4.07,0c-4.15-1.73-8.11-.48-12.27-.27-5.77.27-11.44,1.09-17.17,1.48C403.53,173.75,401,172.74,398,172.2Zm92.69-.17-.56-1.11-2.09.31c-2.12.29-4.08,2.83-6.45.51a8.32,8.32,0,0,0-1.35,1.28c-.76,1-1.45,2.07-2.15,3.12-.27.42-.73.91-.67,1.29a1.42,1.42,0,0,0,1.14.8c1.85-.06,3.85.17,4.94-2,.27-.55,1-.88,1.64-1.21C487,174,488.87,173,490.72,172Zm-123.47.05c1.89,1,3.79,1.92,5.65,3,.67.38,1.13,1.19,1.82,1.48a45.52,45.52,0,0,0,5.12,1.64c.07,0,.74-1.18.58-1.41-1.25-1.71-2.64-3.33-4.08-5.1C373.44,174.86,370.76,170,367.25,172.08Zm39.11,4.79c-2.22-.57-4-1.11-5.91-1.48a2.46,2.46,0,0,0-1.91.36c-2.75,2.84-6.2,3.63-10,3.89-.81.05-1.57.75-2.36,1.16l.35.61Zm46,0,19.54,4.48.32-.69a17.73,17.73,0,0,0-2.47-1.07c-2.2-.58-5.07-.35-6.51-1.69-3.3-3.05-6.61-2.35-10.19-1.44A6.64,6.64,0,0,0,452.4,176.91Zm-64.94.21c3.08,1.76,8.83-.26,9.77-3.25Zm83.37.06-9.7-3.44C462.65,176.94,467.59,178.71,470.83,177.18Zm-85.53-1.35c1.12-1.41,2.21-2.18,2.21-3s-1.14-1.73-1.94-1.91c-.51-.11-1.81,1-1.86,1.65C383.64,173.41,384.49,174.29,385.3,175.83Zm29.27-5.65c.94-1.28,2-2.1,2-2.85s-1.29-1.34-2-2c-.67.72-1.72,1.38-1.87,2.19C412.55,168.12,413.62,168.94,414.57,170.18Zm32.34-2.55c-1.33-.94-2.18-2-2.91-1.92s-1.35,1.27-2,2c.73.65,1.39,1.68,2.21,1.83C444.8,169.62,445.61,168.59,446.91,167.63Zm26,2.3c-1,1.36-2.08,2.34-1.89,2.75.39.89,1.45,1.48,2.23,2.2.57-.71,1.61-1.42,1.6-2.11S473.9,171.24,473,169.93ZM377.3,180.69a5.42,5.42,0,0,0,8.18-2.13Zm103.91.05-8.38-2.25C474.85,181.79,478.06,182.64,481.21,180.74Zm-48.39-5.47c-3.67-2.54-3.88-2.53-6.95,0Z"/><path class="cls-1" d="M969.11,328.19c0-10.2,0-19.81.08-29.41a2.75,2.75,0,0,1,1.84-1.92,28.39,28.39,0,0,1,6.58,0,2.71,2.71,0,0,1,1.77,1.94c.09,16.95.06,33.9,0,50.85a5.54,5.54,0,0,1-.27,1.07c-2.77,0-5.6.15-8.4-.1-.74-.06-1.67-1.21-2-2.06-3.89-9.37-7.68-18.78-11.5-28.18a2.14,2.14,0,0,0-.86-1.13v31.26H946.22c0-.84-.13-1.72-.13-2.6,0-16,0-32.07-.06-48.1,0-2.43.66-3.14,3.07-3.12,6.95.05,7-.05,9.57,6.27,3.07,7.44,6.11,14.89,9.18,22.33C968.18,326.12,968.55,326.92,969.11,328.19Z"/><path class="cls-1" d="M1093.44,238.1c0-9.19.06-18.52,0-27.84,0-2.2.55-3.2,2.93-3s4.9,0,7.49,0V261c-2.94,0-5.93.13-8.9-.09-.63-.05-1.38-1.26-1.72-2.08-3.73-9.05-7.39-18.13-11.08-27.19-.33-.8-.74-1.56-1.35-2.82v32h-10V207.33c3,0,6.13-.1,9.18.09.57,0,1.24,1.17,1.55,1.92,3.69,8.87,7.32,17.76,11,26.64C1092.79,236.79,1093.19,237.56,1093.44,238.1Z"/><path class="cls-1" d="M1116.79,409.14c0,8.68,0,17.35,0,26,0,5.47.86,5-4.92,5.06-5.39,0-5.39,0-5.39-5.37,0-15.21,0-30.42,0-45.63,0-2.18.66-2.81,2.79-2.83,7.27-.06,7.28-.13,10,6.47q4.53,11,9,22.09c.34.82.72,1.63,1.24,2.77,0-9.57.08-18.71-.06-27.86,0-2.55.56-3.54,3.32-3.49,7.1.12,7.1,0,7.1,7,0,14.57,0,29.14.05,43.7,0,2.38-.59,3.18-3.05,3.16-6.91,0-6.9.05-9.48-6.35q-5-12.44-10.11-24.87Z"/><path class="cls-1" d="M1051.93,318.53v32.19c-3,0-6,.06-8.94-.06-.46,0-1.07-.81-1.26-1.37a6.86,6.86,0,0,1-.09-2.18q0-23.24,0-46.49c0-3.85,0-3.85,3.74-3.87,6.33,0,6.34,0,8.75,5.85q4.59,11.17,9.16,22.35a6.93,6.93,0,0,0,1.69,2.59c-.13-1.73-.37-3.47-.38-5.21,0-7.61.07-15.22-.07-22.83,0-2.25.76-2.91,2.84-2.77a40.87,40.87,0,0,0,5,0c1.94-.11,2.83.53,2.82,2.63q-.08,24.48,0,49c0,2-.74,2.44-2.6,2.45-7.32,0-7.32.09-10-6.63q-4.53-11.19-9.06-22.4C1053.07,320.86,1052.62,320,1051.93,318.53Z"/><path class="cls-1" d="M678.53,408.5c0,9.71-.09,19,.06,28.34,0,2.59-.6,3.5-3.33,3.45-7.09-.12-7.09,0-7.09-7.08,0-14.48.06-29-.06-43.43,0-2.67.78-3.44,3.42-3.4,6.63.12,6.63,0,9.13,6.15q4.55,11.19,9.12,22.35a5.33,5.33,0,0,0,1.59,2.3c-.16-1.94-.43-3.88-.45-5.82,0-7.51,0-15-.06-22.54,0-1.81.59-2.43,2.36-2.39,10,.2,8.11-1.4,8.18,7.66.12,14.2,0,28.41.09,42.61,0,2.76-.79,3.65-3.59,3.59-6.37-.14-6.38,0-8.75-5.84q-4.67-11.43-9.29-22.88C679.49,410.66,679.08,409.76,678.53,408.5Z"/><path class="cls-1" d="M812.49,234.21c0,6.2-.72,12.45-3.83,18.16-3.21,5.92-8,9.35-15,9.38s-11.9-3.29-15.08-9.23c-3.91-7.27-4.52-15.23-3.64-23.22A45.19,45.19,0,0,1,778,216.89c2.81-6.69,8.07-10.57,15.6-10.55s12.51,4,15.62,10.6C811.83,222.35,812.46,228.15,812.49,234.21Zm-10.83-.3-.29,0c-.13-2.2-.17-4.4-.41-6.58a29.73,29.73,0,0,0-1-4.55c-1.26-4.52-3.53-6.84-6.52-6.77s-5.14,2.41-6.31,6.71a45.29,45.29,0,0,0-.79,18.25,25,25,0,0,0,2.73,8.52c2,3.67,6.39,3.69,8.82.27a11.91,11.91,0,0,0,2-4.45C800.69,241.51,801.11,237.7,801.66,233.91Z"/><path class="cls-1" d="M867.64,323.61c.19,6-.46,11.59-2.87,16.85-3.06,6.67-8,10.86-15.67,11s-13.06-3.84-15.85-10.62a43.2,43.2,0,0,1,.13-34.41c2.89-6.78,8.35-10.59,16-10.39,7.41.19,12.28,4.28,15.28,10.74A35.81,35.81,0,0,1,867.64,323.61Zm-27.12,0c.91,4.47,1.62,9,2.78,13.35.7,2.68,2.48,4.79,5.65,4.77s4.76-2.22,5.63-4.85a41.14,41.14,0,0,0,.06-26.4c-.87-2.64-2.52-4.73-5.65-4.87-2.51-.11-4.89,1.6-5.83,5C842,314.8,841.41,319.15,840.52,323.64Z"/><path class="cls-1" d="M882.93,326.88c0,.86-.15,1.72-.16,2.57,0,6.24-.07,12.47,0,18.7,0,2-.63,2.77-2.7,2.63-2.46-.17-5,0-7.87,0V348c0-16.12,0-32.25-.05-48.38,0-2.35.75-3,3-2.91,4.93.3,9.92.1,14.81.72,5.7.73,10,3.74,11.25,9.73,1.37,6.5.91,12.75-4.73,17.24-1.94,1.55-2,2.69-1.23,4.75,2.81,7,5.45,14.11,8.31,21.57-3.57,0-6.75.11-9.91-.09-.66,0-1.52-1.12-1.82-1.9-2.54-6.48-5-13-7.42-19.49-.31-.82-.67-1.62-1-2.43Zm0-7.09c3.56.7,6.09-.24,7.57-2.69,1.58-2.62,1.51-7.21-.14-9.41S886.07,305,883,306Z"/><path class="cls-1" d="M809.58,350.74c-3,0-5.59-.13-8.15,0-2,.14-3.06-.51-3.77-2.53-2.23-6.39-4.71-12.7-7.11-19a5.34,5.34,0,0,0-1.69-2.44v23.73H778.64c0-.83-.14-1.71-.15-2.59,0-16,0-32.09-.06-48.13,0-2.48.77-3.2,3.13-3.07,4.12.22,8.27,0,12.38.38,10.64.89,14.72,7.33,13.93,17.17a13.62,13.62,0,0,1-6.12,10.87c-1.34.88-1.23,1.75-.75,3q3.74,9.58,7.39,19.21C808.78,348.34,809.11,349.37,809.58,350.74Zm-20.81-45c0,4.26-.08,8.45.1,12.63,0,.61,1.3,1.64,2,1.67a5.77,5.77,0,0,0,6-3.49c1.33-3.08,1.58-6.28-.64-9.07C794.39,305.16,791.75,305.1,788.77,305.77Z"/><path class="cls-1" d="M1174.73,350.59h-10.88l-9.07-23.87-.56.12v23.88c-3.22,0-6.22.12-9.2-.11-.53,0-1.34-1.51-1.36-2.34-.11-6.69-.06-13.38-.06-20.08,0-9.44.06-18.88,0-28.33,0-2.41.76-3.29,3.17-3.14,4.93.32,10,0,14.8.82,8.19,1.43,12,6.75,11.66,15-.2,5.11-1.78,9.55-6.2,12.54-1.28.87-1.26,1.69-.75,3,2.54,6.47,5,13,7.47,19.48C1174.06,348.5,1174.34,349.44,1174.73,350.59ZM1154.27,320c3.37.47,6.1-.14,7.64-3a8.57,8.57,0,0,0-.14-9.14c-1.42-2.19-4.09-2.84-7.5-2Z"/><path class="cls-1" d="M708.54,413.35c0-8.07.05-16.13,0-24.19,0-2,.46-2.86,2.59-2.74,4.39.25,8.89-.19,13.16.63,8.46,1.61,13.22,7.45,15.26,15.52a44.21,44.21,0,0,1,.33,20.68c-2.46,11-8.76,16.34-19.92,16.93-3,.16-6.06,0-9.08.07-1.82.05-2.55-.67-2.29-2.44a2.43,2.43,0,0,0,0-.27ZM719.34,396v34.74c3.49,0,5.37-.88,7.29-3.42,5-6.62,5-21.3-.15-27.84A8,8,0,0,0,719.34,396Z"/><path class="cls-1" d="M876,440.18c-3.58,0-6.69.14-9.77-.1-.73-.06-1.64-1.29-2-2.18-2.41-6.12-4.68-12.3-7-18.46a7,7,0,0,0-1.81-2.87v4.75c0,5.5-.06,11,0,16.49,0,1.77-.5,2.47-2.32,2.43-10-.21-8.13,1.47-8.22-7.9-.12-14.1,0-28.21-.08-42.32,0-2.69.67-3.85,3.54-3.62,5.1.42,10.29.17,15.32,1,6.68,1.08,10.3,6,10.61,12.76.29,6-1.11,11.22-6.28,15-.54.39-.7,1.93-.41,2.71,2.33,6.45,4.81,12.84,7.25,19.25C875.17,437.91,875.46,438.76,876,440.18Zm-20.56-37.85c0,1.75.1,3.5,0,5.23-.14,1.93.8,2.38,2.48,2.26,3.85-.28,6.27-3.06,6.49-7.54.19-3.92-1.86-6.48-5.67-7.23-2.21-.44-3.61-.15-3.3,2.61A42.78,42.78,0,0,1,855.41,402.33Z"/><path class="cls-1" d="M1018.86,308.56l-9.91,3.85c-.43-1.17-.79-2.17-1.16-3.16-.73-1.91-1.89-3.34-4.09-3.6a5,5,0,0,0-5.37,2.58,25.44,25.44,0,0,0-2.45,6.63,46,46,0,0,0,.11,19.08c0,.18,0,.37.1.54,1.4,5.2,4.38,7.83,8.19,7.24,3.17-.49,5.77-4.79,5.52-9.41,0-.62-.85-1.35-1.48-1.72a3.28,3.28,0,0,0-1.9-.06c-2.64.38-3.48-.68-3.43-3.34.13-6.43,0-6.43,6.32-6.43h10.85c.28,9,.41,18-5.45,25.46s-18.05,7-24.38-.59c-3.76-4.55-5.46-10-6.06-15.66-.78-7.23-.49-14.45,2-21.42,3.54-9.77,11.71-14.47,21.11-12C1013.54,298.09,1016.8,302.46,1018.86,308.56Z"/><path class="cls-1" d="M746,408.67c0-6.6,0-13.2,0-19.8,0-1.76.53-2.38,2.33-2.46,8-.33,8-.38,8,7.53,0,9.71,0,19.43,0,29.15a20.53,20.53,0,0,0,.53,4.62,4.91,4.91,0,0,0,5.41,4c2.85-.21,4.6-1.71,4.71-4.74.23-5.95.2-11.91.23-17.87,0-6.6.06-13.2,0-19.8,0-2.08.62-2.9,2.82-2.94,7.75-.13,7.74-.21,7.74,7.47,0,10.72,0,21.45,0,32.18a25,25,0,0,1-.67,6c-1.41,5.52-5.49,8.2-10.79,8.73a36.3,36.3,0,0,1-10.91-.5c-5.78-1.21-9.16-6-9.32-12.06V408.67Z"/><path class="cls-1" d="M711.85,318c0,7.05.32,14.13-.09,21.15-.43,7.31-4,11.08-11.24,12a34.06,34.06,0,0,1-10.37-.42,11.4,11.4,0,0,1-9.74-11.63c-.18-13.38-.07-26.77-.13-40.15,0-1.48.51-2.07,2.05-2.2,8.33-.67,8.33-.7,8.33,7.43,0,10,0,20,0,30a17,17,0,0,0,.56,4.32,4.79,4.79,0,0,0,5.45,3.6,4.63,4.63,0,0,0,4.62-4.55,50.31,50.31,0,0,0,.25-5.49c0-10.64.09-21.27,0-31.9,0-2.67.86-3.45,3.47-3.42,7.12.08,7.12,0,7.12,7V318Z"/><path class="cls-1" d="M1203.71,260.9h-10.32l12.46-53.59c3.37,0,6.74-.1,10.1.1.57,0,1.35,1.3,1.55,2.12q5.6,22.89,11.06,45.81c.42,1.76.8,3.53,1.29,5.7-3.48,0-6.66.09-9.82-.08-.59,0-1.4-1-1.62-1.68-.76-2.32-.59-5.68-2.13-6.82-1.69-1.26-4.9-.37-7.42-.67s-3.58.88-3.91,3.24C1204.67,257,1204.14,258.93,1203.71,260.9Zm11.39-17.38c-1.3-7.29-2.55-14.28-3.8-21.27h-.6c-1.07,7-2.14,14-3.24,21.27Z"/><path class="cls-1" d="M875.05,260.92H864.87c.47-2.3.85-4.42,1.34-6.51q5.2-22.42,10.41-44.86c.35-1.53.88-2.4,2.69-2.31,2.92.15,5.85,0,9,0,4.3,17.87,8.56,35.59,12.89,53.56H890.12c-.45-1.94-1.07-4-1.37-6.15s-1.38-3.22-3.66-2.88a20.34,20.34,0,0,1-2.47,0c-6.72.13-5.18-1.05-6.79,5.7C875.57,258.59,875.34,259.66,875.05,260.92Zm7.57-38.72-.58,0q-1.6,10.61-3.21,21.26h7.61C885.13,236.16,883.88,229.18,882.62,222.2Z"/><path class="cls-1" d="M1230.35,350.73c-3.48,0-6.68.09-9.86-.09-.56,0-1.31-1.07-1.54-1.79-.74-2.33-.56-5.71-2.1-6.84-1.7-1.26-4.91-.37-7.45-.61-2.32-.23-3.55.49-3.81,3-.23,2.07-.84,4.11-1.3,6.25H1194c1.19-5.21,2.32-10.26,3.49-15.31,2.74-11.84,5.56-23.67,8.2-35.53.51-2.29,1.44-3.1,3.83-3.08,8,.08,8,0,9.81,7.63q5.28,21.85,10.51,43.73C1230,348.83,1230.14,349.62,1230.35,350.73ZM1208,333.11h7.65c-1.3-7.27-2.55-14.22-3.8-21.18l-.6,0C1210.2,318.94,1209.13,325.92,1208,333.11Z"/><path class="cls-1" d="M1229.85,440.18c-3.49,0-6.59.06-9.67-.05-.54,0-1.1-.74-1.54-1.23-.22-.24-.2-.69-.3-1-.61-2.17-.73-5.82-1.94-6.22-2.89-1-6.3-.47-9.5-.43-.45,0-1,.67-1.29,1.14s-.17.89-.27,1.33c-1.48,6.58-1.48,6.58-8.36,6.55h-3.42c1.31-5.68,2.54-11,3.77-16.26,2.68-11.57,5.43-23.13,8-34.73.46-2.11,1.28-2.84,3.45-2.84,8.3,0,8.32-.11,10.23,7.84q5.19,21.58,10.34,43.19C1229.52,438.13,1229.61,438.84,1229.85,440.18Zm-18.38-38.56-.59-.1c-1.09,7.05-2.19,14.11-3.32,21.33h7.68C1214,415.6,1212.71,408.61,1211.47,401.62Z"/><path class="cls-1" d="M897,439.72q3.36-14.55,6.73-29.1c1.67-7.22,3.4-14.42,5-21.65.39-1.78,1.08-2.55,3.08-2.58,8.52-.11,8.54-.19,10.56,8.1q5.31,21.87,10.55,43.74c.1.43.11.89.22,1.87-3.46,0-6.78.07-10.1-.09-.46,0-1-1.13-1.25-1.83-.71-2.25-.6-5.5-2.09-6.56-1.67-1.19-4.77-.23-7.21-.55-2.75-.36-3.64.88-4.11,3.35-1.12,5.83-1.21,5.82-7.21,5.81q-1.65,0-3.3-.12A3.54,3.54,0,0,1,897,439.72Zm17.81-38.09h-.64L911,422.82h7.64Z"/><path class="cls-1" d="M1048.41,440.2c-3.41,0-6.42.13-9.41-.1-.72-.05-1.72-1.23-1.94-2.06-1.79-6.91-1.76-6.74-8.88-7-3.07-.11-4.13.93-4.61,3.79-.92,5.44-1.07,5.41-6.7,5.41h-4.7l5.05-22c2.21-9.54,4.47-19.05,6.6-28.6.5-2.29,1.33-3.33,3.95-3.28,7.85.14,7.9,0,9.77,7.71q5.31,21.84,10.52,43.73C1048.2,438.41,1048.24,439,1048.41,440.2ZM1030,401.35l-.53,0c-1.1,7.11-2.2,14.22-3.33,21.57h7.66C1032.55,415.55,1031.29,408.45,1030,401.35Z"/><path class="cls-1" d="M1015.16,386.44c-1.93,7-3.69,13.46-5.46,19.88-2.91,10.48-5.87,20.94-8.71,31.43-.49,1.78-1.25,2.52-3.18,2.53-6.09,0-6.09.11-7.82-5.85q-6.48-22.24-12.94-44.48c-.28-.95-.46-1.93-.8-3.44,3.48,0,6.74-.11,10,.1.58,0,1.36,1.32,1.57,2.14,2.58,10.28,5.06,20.59,7.57,30.89.09.34.18.68.43,1.66,1.15-5.09,2.11-9.58,3.19-14,1.48-6.13,3.1-12.22,4.56-18.36.43-1.8,1.23-2.62,3.19-2.5C1009.36,386.56,1012,386.44,1015.16,386.44Z"/><path class="cls-1" d="M728.61,328.31v22c-.4.19-.55.34-.71.34-3.1-.06-6.2-.14-9.29-.21-.17-3-.47-6-.48-8.94,0-13.75,0-27.5-.08-41.25,0-2.8.83-3.75,3.61-3.56,3.75.24,7.52.05,11.28.25,12.89.69,15.35,10.29,14.27,18.5-1.05,8-6.54,12.6-14.63,12.85C731.4,328.34,730.23,328.31,728.61,328.31Zm.17-8.75c3.7.41,5.89-.43,7.18-2.61,1.52-2.57,1.37-7.17-.39-9.4s-4.12-2.38-6.79-1.84Z"/><path class="cls-1" d="M1008.52,251.3v9.6h-21V207.54h20.86V217H997.88v11.77h9v9.88h-4.47c-5.58,0-4.7-.48-4.78,4.9,0,1.65.12,3.31,0,4.95-.19,2.12.54,3,2.76,2.86C1003,251.18,1005.66,251.3,1008.52,251.3Z"/><path class="cls-1" d="M670.11,228.73v9.9c-2.37,0-4.71.06-7.05,0-1.64-.06-2.3.52-2.24,2.22.11,2.74.11,5.5,0,8.24-.06,1.66.52,2.31,2.2,2.26,2.83-.09,5.66,0,8.67,0V261c-6.66,0-13.24,0-19.82-.07-.51,0-1.14-.85-1.47-1.44-.24-.42-.08-1.07-.08-1.62,0-15.76,0-31.52-.06-47.28,0-2.62.71-3.51,3.4-3.41,5.13.2,10.27.12,15.41,0,1.86,0,2.58.52,2.64,2.47.23,7.31.29,7.31-7.06,7.31H661c-.06.92-.13,1.54-.13,2.15,0,3.1,0,6.2,0,9.55Z"/><path class="cls-1" d="M1138.1,341v9.56a8.89,8.89,0,0,1-1.21.18H1117c0-1.07-.14-2-.14-3,0-15.94.06-31.88-.07-47.82,0-2.64.86-3.27,3.29-3.2,5.23.14,10.46.08,15.69,0,1.71,0,2.39.5,2.43,2.35.15,7.4.21,7.4-7.24,7.43-3.73,0-3.73,0-3.74,3.76,0,2,.07,4,0,6.05-.06,1.61.46,2.37,2.2,2.25s3.3.07,5,0,2.41.43,2.49,2.26c.31,7.34.37,7.4-6.92,7.47-2,0-2.84.6-2.73,2.67.13,2.56.11,5.13,0,7.7-.07,1.81.7,2.42,2.45,2.37C1132.42,340.92,1135.15,341,1138.1,341Z"/><path class="cls-1" d="M929.94,306.52v11.93h9.16v9.81h-9v12.58H940.6v9.7H919.68c-.06-.92-.18-1.8-.18-2.69,0-16,0-31.9-.06-47.86,0-2.51.69-3.37,3.24-3.29,5,.17,9.92.13,14.87,0,2.17-.05,3.18.54,3.12,2.92-.2,8.16,1,6.72-6.82,6.88C932.59,306.54,931.32,306.52,929.94,306.52Z"/><path class="cls-1" d="M1089.25,396.21c0,3.77-.1,7.07.08,10.35a2.52,2.52,0,0,0,1.8,1.61c2.46.19,4.95.08,7.66.08V418c-2.29,0-4.64.08-7,0-1.86-.08-2.7.54-2.6,2.5.11,2.57.09,5.14,0,7.7-.06,1.65.56,2.34,2.22,2.29,2.2-.07,4.41,0,6.61,0,1.66,0,2.27.64,2.23,2.29-.23,9.1,1.43,7.28-7.21,7.47-3.86.08-7.72,0-11.58,0-1.77,0-2.62-.38-2.61-2.43q.12-24.48,0-49c0-1.78.53-2.45,2.33-2.43,5.51.07,11,.06,16.53,0,1.68,0,2.43.43,2.47,2.32.17,7.43.24,7.43-7.22,7.46Z"/><path class="cls-1" d="M762.22,306.52v11.92h9.25v9.88c-2.51,0-5,0-7.4,0-1.4,0-2,.52-2,1.93,0,2.93,0,5.87,0,8.8,0,1.63.81,2,2.24,2,2.2-.06,4.41.05,6.61,0,1.51-.05,2.25.53,2.15,2.06,0,.19,0,.37,0,.55.25,7.15.25,7.15-6.92,7.15-3.95,0-7.9-.08-11.84,0-1.85.06-2.63-.45-2.62-2.42q.09-24.48,0-49c0-1.82.57-2.68,2.52-2.66,5.42.08,10.84.07,16.26,0,1.76,0,2.36.61,2.41,2.4.21,7.36.27,7.36-7.06,7.38Z"/><path class="cls-1" d="M651.1,339.45a53.19,53.19,0,0,0,5.52,2c3.55.86,6.77-.49,8-3.17s.5-5.85-2.48-8.22c-2.08-1.65-4.37-3-6.44-4.7a17.45,17.45,0,0,1-5.32-21.2c4-9.49,14.45-9.71,20.93-6.11a2.69,2.69,0,0,1,1,2c.12,2.64,0,5.29,0,8-2.21-.89-4.24-1.86-6.36-2.52s-4.58-.2-5.59,1.77a9.72,9.72,0,0,0-.61,5.9c.28,1.43,1.68,2.78,2.87,3.86,1.9,1.72,4.08,3.12,6.06,4.74,6.37,5.2,8.3,11.89,5.71,19.68-2.94,8.84-14.34,13.06-22.18,8.16a2.77,2.77,0,0,1-1.17-1.9C651,345.08,651.1,342.43,651.1,339.45Z"/><path class="cls-1" d="M690.66,250.2a76.44,76.44,0,0,0,7.71,1.72,5.49,5.49,0,0,0,5.92-3.58,6.07,6.07,0,0,0-1.83-7.22c-2.24-1.88-4.7-3.51-7.07-5.23-7.41-5.38-8.32-14-5.49-21.19,3.69-9.38,13.92-10,20.84-6.37a2.12,2.12,0,0,1,1,1.43c.1,2.8.05,5.61.05,8.53-2.24-.89-4.12-1.81-6.09-2.39a5.16,5.16,0,0,0-6.1,2,5.67,5.67,0,0,0,0,6.5,18.14,18.14,0,0,0,3.52,3.81c1.73,1.49,3.64,2.79,5.46,4.18,7.63,5.8,7.62,15.48,4.14,22.07-3.71,7-14.24,9.78-20.91,5.56-.5-.32-1.16-.9-1.18-1.37C690.6,255.78,690.66,252.9,690.66,250.2Z"/><path class="cls-1" d="M806.64,397.63c-2.18-.92-4-1.8-5.84-2.42a5.3,5.3,0,0,0-6,1.6,5.36,5.36,0,0,0-.5,6.43,16.54,16.54,0,0,0,3.55,4.11c1.92,1.7,4,3.15,6.08,4.73,8,6.22,6.63,17.16,3.16,22.68-4.61,7.33-14.78,7.54-20.37,4.53a2.77,2.77,0,0,1-1.27-1.88c-.14-2.63-.06-5.28-.06-8.29,2,.71,3.49,1.39,5.1,1.84,3.89,1.08,7.17-.14,8.53-3s.4-6-2.78-8.39c-2.33-1.79-4.76-3.43-7.08-5.23-7.7-6-6.71-17.28-3.2-22.74,4.69-7.27,13.95-7,19.63-3.91a2.1,2.1,0,0,1,1,1.45C806.69,391.88,806.64,394.68,806.64,397.63Z"/><path class="cls-1" d="M1101.27,350.62H1091a90.34,90.34,0,0,1,0-9.32,50.26,50.26,0,0,0-6.79-31c-2.34-4.09-4-8.57-6.25-13.44,3.91,0,7.34-.07,10.75.08.51,0,1.15,1.06,1.42,1.75,1.71,4.34,3.33,8.71,5,13.07.22.57.48,1.13.92,2.13,1.86-5.2,3.66-9.94,5.25-14.75.58-1.77,1.43-2.51,3.32-2.42,2.91.13,5.83,0,9.19,0-.83,2-1.45,3.47-2.09,4.95-.74,1.68-1.5,3.34-2.24,5-2.72,6.1-6.46,12-7.85,18.38s-.36,13.13-.39,19.73C1101.26,346.64,1101.27,348.47,1101.27,350.62Z"/><path class="cls-1" d="M759.55,216.76c-11.91-.93-19,6.85-17.45,18.88a30.88,30.88,0,0,0,1.69,6.91c2.68,7,7.43,9.58,15.74,8.54,0,2.85.1,5.68-.08,8.49,0,.57-1.05,1.42-1.74,1.55a19.75,19.75,0,0,1-17-4.43c-13.1-10.74-13.2-34.27-.27-45.2a20.43,20.43,0,0,1,16.67-4.69c1.73.24,2.55,1,2.43,2.85C759.43,212,759.55,214.38,759.55,216.76Z"/><path class="cls-1" d="M1053.37,251.2c0,2.84.1,5.66-.09,8.46,0,.56-1.11,1.37-1.81,1.5a19.73,19.73,0,0,1-16.48-4.23c-13.56-10.6-13.54-35.22,0-45.87a20.33,20.33,0,0,1,16-4.26c1.75.24,2.56,1,2.46,2.83-.14,2.35,0,4.71,0,7.09-10.79-.74-16.35,4.1-17.28,14.71a23,23,0,0,0,2.26,12.53C1041.38,250,1045.35,251.93,1053.37,251.2Z"/><path class="cls-1" d="M1179.53,216.9c-10.3-1.53-16.71,3.89-17.42,14.86a27.34,27.34,0,0,0,1.6,10.46c2.56,7.4,7.5,10,15.81,8.85,0,2.85.12,5.66-.1,8.46,0,.62-1.2,1.53-2,1.65a20.28,20.28,0,0,1-18.92-6.51c-9.75-10.38-10.34-28.71-1.37-39.8,5.12-6.32,11.75-9.14,19.93-8.06,1.72.23,2.6.89,2.47,2.81C1179.41,212,1179.53,214.35,1179.53,216.9Z"/><path class="cls-1" d="M1173.71,430.48c0,2.84.15,5.66-.11,8.44-.06.63-1.46,1.53-2.33,1.63-8.24,1-14.93-2-20-8.44-8.74-11.13-8.11-29,1.49-39.35a20.25,20.25,0,0,1,18.62-6.64c1.87.26,2.57,1.12,2.41,2.89,0,.28,0,.55,0,.83-.07,1.82.5,4.17-.42,5.31-.79,1-3.3.53-5,.76a12.35,12.35,0,0,0-10.26,8.1,22.77,22.77,0,0,0,.74,19.4C1161.68,429.32,1166,431.33,1173.71,430.48Z"/><path class="cls-1" d="M962.32,217v44c-3.12,0-6.12.14-9.08-.12-.55-.05-1.37-1.68-1.38-2.58-.1-10-.06-20-.06-29.95V217.13h-8.29v-9.66h26.9V217Z"/><path class="cls-1" d="M831.75,396.52v6.81c0,11.36,0,22.72,0,34.08,0,2.16-.63,2.84-2.78,2.86-7.63.08-7.63.15-7.63-7.36V396.2c-2.29,0-4.27,0-6.26,0-2.93,0-2.45-2.24-2.13-3.7.45-2.05-2.07-5.73,2-5.93,7.69-.38,15.41-.1,23.12-.12,1.49,0,2.05.65,2.18,2.14.61,7.25.64,7.25-6.61,7.65C833.2,396.27,832.66,396.39,831.75,396.52Z"/><path class="cls-1" d="M851.34,260.91H829.91V207.47h10c0,1,.16,2.07.16,3.12,0,12.55.07,25.09,0,37.63,0,2.41.69,3.29,3.13,3.12,2.63-.18,5.29,0,8.15,0Z"/><path class="cls-1" d="M948,430.47c3.2,0,6,0,8.86,0,1.62,0,2.19.57,2.25,2.25.24,7.53.29,7.53-7.13,7.53-3.94,0-7.88-.07-11.82,0-2,.05-2.72-.75-2.72-2.74q.07-24.17,0-48.34c0-2,.68-2.71,2.71-2.76,7.85-.22,7.85-.28,7.85,7.6v36.46Z"/><path class="cls-1" d="M1063.19,430.47c3.09,0,5.83.07,8.56,0,1.86-.06,2.54.55,2.56,2.51.07,7.28.14,7.28-7.11,7.28-4,0-7.89-.07-11.83,0-2,.05-2.74-.71-2.74-2.72q.07-24.16,0-48.34c0-2,.63-2.73,2.68-2.78,7.88-.23,7.87-.29,7.87,7.58v36.48Z"/><path class="cls-1" d="M1024.85,350.54V344c0-14.85,0-29.7,0-44.55,0-2,.5-2.72,2.6-2.76,7.8-.15,7.8-.22,7.8,7.47v46.36Z"/><path class="cls-1" d="M1190.64,350.61h-10.2c-.06-.92-.15-1.8-.15-2.68,0-16.05,0-32.09-.07-48.13,0-2.47.75-3.11,3.12-3.1,7.3,0,7.3-.05,7.3,7.15v46.76Z"/><path class="cls-1" d="M1123.11,261.05V207.32c3.08,0,6.08-.14,9.05.13.53,0,1.31,1.73,1.32,2.67.1,8.07.06,16.13.06,24.2,0,7.88-.06,15.76,0,23.64,0,2.27-.46,3.39-3,3.14C1128.19,260.87,1125.8,261.05,1123.11,261.05Z"/><path class="cls-1" d="M892.89,413.61c0,8-.07,16,0,23.93,0,2-.55,2.7-2.62,2.73-8,.14-8,.21-8-7.68,0-14.21.07-28.43-.06-42.64,0-2.8.87-3.62,3.62-3.57,7,.13,7,0,7,6.88Z"/><path class="cls-1" d="M660.85,413.34c0,8.07-.06,16.14,0,24.2,0,2-.54,2.7-2.61,2.73-8,.14-8,.21-8-7.68,0-14.21.07-28.43,0-42.64,0-2.8.86-3.62,3.61-3.57,7,.13,7,0,7,6.88Z"/><path class="cls-1" d="M1189.45,413.62c0,8,0,15.93,0,23.9,0,2-.5,2.71-2.59,2.75-7.81.15-7.81.22-7.81-7.45,0-14.37.05-28.74,0-43.12,0-2.46.62-3.34,3.2-3.31,7.21.07,7.21,0,7.21,7.18Z"/><path class="cls-1" d="M825.44,323.92c0,8-.07,15.95,0,23.93,0,2.27-.65,3.18-3,2.92a20.84,20.84,0,0,0-4.67,0c-2.31.28-2.78-.8-2.77-2.83q.09-24.07,0-48.14c0-2.49.92-3.14,3.24-3.08,8.45.22,7-1.13,7.12,7.12C825.51,310.53,825.45,317.22,825.44,323.92Z"/><path class="cls-1" d="M990.46,192.53l7.09-3.2,6.74,10.07-4.68,2.85Z"/><path class="cls-1" d="M1082.14,371.81l7.06-3.19,6.74,10.05-4.71,2.88Z"/><path class="cls-1" d="M408.13,182.35l2,1.49c-.66.6-1.24,1.55-2,1.73-3.35.8-6.74,1.44-10.15,2-.73.12-1.57-.43-2.36-.67.46-.67.81-1.78,1.41-1.94C400.59,184,404.24,183.23,408.13,182.35Z"/><path class="cls-1" d="M450.25,182.37c3.78.86,7.16,1.54,10.48,2.47.7.19,1.14,1.3,1.7,2a7.18,7.18,0,0,1-2.54.61c-3.23-.48-6.45-1.07-9.62-1.83-.88-.21-1.6-1.13-2.39-1.72Z"/><path class="cls-1" d="M432.83,182.29c-3.78,3.11-3.78,3.11-7.22,0C429.1,179.49,429.1,179.49,432.83,182.29Z"/></svg>