<svg id="Logos_Patrocinadores" data-name="Logos Patrocinadores" xmlns="http://www.w3.org/2000/svg" viewBox="0 0 1500 600"><defs><style>.cls-1{fill:#7a97ab;}</style></defs><path class="cls-1" d="M305.07,497.12c-4.58-.81-9.14-1.78-13.75-2.41-8.85-1.2-17.71-2.57-26.61-3.13-4.62-.3-9.41.67-14,1.59a46.53,46.53,0,0,1-29.39-3.43c-2.95-1.36-5.87-2.79-9.63-4.58l7.38-3.31-16.25-8.3c9.16-4.94,18.56-4.8,28.22-1.84-9-7.71-18.64-13.17-31.06-10.11a5.68,5.68,0,0,0-3.07,2.11c-1.78,2.61-4.24,4.11-7.08,3a9.62,9.62,0,0,1-4.93-4.54c-1.26-2.73,0-5.42,2.52-7.26a3.24,3.24,0,0,0,1.14-1.37c-13.87.85-25.9-5.2-38.37-9.88,1.85-2.29,4.67-2.23,7.51-2.26,2.66,0,5.31-.21,8-.33L165.6,440a33.39,33.39,0,0,0-4.22-.3c-7.17.37-12.27-3.29-16.26-8.64-3.51-4.71-6.58-9.75-10.56-15.74l11.58,3.31-2.16-5a136.26,136.26,0,0,1,43.93,20.67l.78-.92c-2.94-3.84-5.56-8-8.9-11.45A57.82,57.82,0,0,0,159.19,408a7.45,7.45,0,0,0-4.91.07c-3.71,1.41-7.89.12-9.24-3.25s.4-7.61,3.68-8.78a6.66,6.66,0,0,1,8.87,4.6c.27.85.61,2.12,1.23,2.35,3.8,1.4,7.69,2.55,12.31,4-2.52-5.24-4.62-9.94-7.08-14.44-.39-.7-2.49-.91-3.67-.68-12.9,2.45-23.67-1.19-32.3-11.07a14.44,14.44,0,0,1-2-3c-2.55-5.1-5-10.24-7.52-15.3A22.29,22.29,0,0,1,135,370c-7-13.44-13-26.85-11.27-42.08a42,42,0,0,0,4.22,5c5,4.42,10.09,8.63,15.15,12.93l9.68,8.24c1.48-10.15-5.56-15.7-13.44-20.66a4.31,4.31,0,0,0-2.42-.27c-5,.39-7.82-1.46-8.21-5.46-.43-4.32,1.94-6.88,6.87-7.45a13.87,13.87,0,0,0,1.51-.43c-2-6.44-3.68-13-6.18-19.14-3.3-8.16-4-16.19-.92-25.27l8.7,13.6,1.41-23.16,1-.12c3.86,7.83,12.57,12.69,12.6,22.88l1.09-.41c1.72-6.51,3.58-13,5.11-19.53.85-3.62-3.7-12.57-7-14-1.16-.5-2.77,0-4.18.07a6.49,6.49,0,0,1-3.7-12,6.39,6.39,0,0,1,8.06.7,4.43,4.43,0,0,1,1.32,1.7c.91,2.49.76,5.33,3.78,6.93,2.29,1.21,4.09,3.34,6.06,5,5.19-6.31,4.07-13.76-3.41-18-8.4-4.79-11.95-11.8-11-21.41.43-4.5.08-9.07.08-13.87,6.58,1,10.61,5.47,13.9,12.34,1.66-10.83,5.8-19.26,14-25.79,6.36,11.28,7.6,22.92,5.23,35.45,3.12-4.64,6.55-9.11,9.25-14,2.17-3.92.64-8-1.37-11.74-.36-.67-1.5-1.06-2.36-1.3-4.07-1.15-5.95-4.2-5-8.25.77-3.29,4.45-5.38,8-4.54a6.73,6.73,0,0,1,4.74,7.9c-.91,4.87-.46,6.21,3.62,10.44,4.32-3.6,5.13-8,3.78-13.32-2.68-10.57,3.82-24.27,14.45-29.7V180.6c4.92-1,9.63-1.77,14.2-3.06,3.77-1.06,7.37-2.77,11.43-4.33-4.33,6.91-2.92,16.49-11,21.81l.52.89,8.63-1.69c-4.38,9.54-15,16.42-26.94,17.26a34.89,34.89,0,0,1,1.15,3.4,6.06,6.06,0,0,1-2.63,7,6.48,6.48,0,0,1-7.52-.1c-4.91-3.28-11.69-2.72-15.54,1.63-2,2.24-3.58,4.83-5.36,7.26l.64.94L196,226.3c.73,7.14-5.15,15.22-13.81,18-7.25,2.36-10.44,6.07-11.93,14l14.79-5.5c-1.25,5.48-4.79,9.5-9.7,12.34,1.25,1.89,2.85,3.42,3.27,5.23s.2,4.53-.89,5.37c-4.58,3.52-3.83,8.79-5.65,13.9l7.79-1.46a38.61,38.61,0,0,1-8.58,17.08,72.58,72.58,0,0,1-10.58,9.85c-4.39,3.35-6,7.35-4.71,12.93,2.85-1.14,5-2.25,4.83-6s3-6.29,6.6-6.14a6.51,6.51,0,0,1,6.24,6.67,6.21,6.21,0,0,1-6.42,6.41c-2.17,0-4.74-1.55-6.21,1.22-1.71,3.24-3.64,6.49-4.53,10-.6,2.38.42,5.17,1.07,7.91,2.69-6.54,5.78-12.7,12.73-16.76L169.1,351l.78.32c2.45-3.86,4.91-7.72,7.65-12.05,2.39,8.93,1.86,17.27,1.1,26.19l5.35-4.58v23.27a20.6,20.6,0,0,1,2.73-.65,6.26,6.26,0,0,1,7.36,4.89c.79,3.56-.88,6.41-4.18,7.88-1.23.55-2.75,1.75-3,2.91a124.61,124.61,0,0,0-2.76,16c-.19,2.06.95,4.48,2.09,6.37a29.05,29.05,0,0,0,6.54,7.4c-.94-2.13-1.87-4.26-2.82-6.39a14.87,14.87,0,0,1-.07-13c2.75-5.75,5.68-11.41,7.93-15.9,2.12,4.62,4.58,10.17,7.21,15.64s2.56,11.4,1.62,17.39a25.14,25.14,0,0,1,4.64-1.8c3-.51,5.58.58,6.9,3.48s1.05,6-1.62,7.85c-2.17,1.53-2.51,3.35-2.43,5.57.32,9,4,15.87,13.39,20.29-6-8.84-8.09-17.52-4.62-27.16,3.24,4,6.39,8,9.55,11.91l.84-.54-1.86-8.41c13,2.93,22.63,14.26,24.38,28.65.66,5.37,1.44,10.63,6.21,14.13,1.51,1.11,3.17,2,5,3.16V473c0-1.34,0-2.67,0-4,.53-12.38,7.55-17.54,19.4-14,11,3.28,19.69,10.23,27.33,18.51a9.15,9.15,0,0,0,6.42,3c10,1.2,17.7-1.46,24.49-9.32,5.46-6.31,13.14-10.29,21.41-12.41,11.38-2.92,17.91,1.92,18.46,13.68.22,4.92,0,9.86,0,14.77,4.88-1,9.63-5.94,10.45-11,.36-2.26.71-4.54,1-6.82,1.16-10.71,6.62-18.44,16.11-23.45,2.61-1.39,5.14-2.94,8.29-4.75-.75,3.52-1.35,6.3-1.94,9.08l.86.59L428.74,435a21,21,0,0,1,1.3,13.55c-1.09,4.46-3.09,8.71-4.59,12.75,9.77-3.69,12.84-14.36,11.93-21.95a4.27,4.27,0,0,0-1.38-2.33c-3.35-3.07-4.13-6.58-2-9.52,2.3-3.16,5.82-3.53,10-1.07a10.68,10.68,0,0,0,1.22.47c-1.82-8.31-.21-15.6,4.28-22.62,2.19-3.42,2.92-7.78,4.12-11.2,2.57,5.14,5.5,10.8,8.24,16.55,2.1,4.42,1.78,8.91-.24,13.32-.74,1.61-1.47,3.23-2.4,5.3,5.39-3,9-10,8.2-15.22-.74-4.63-1.55-9.26-2.57-13.84a4.5,4.5,0,0,0-2.27-2.79c-4.42-1.88-6.25-5.15-4.74-9.06,1.29-3.34,4.94-4.63,9.18-3.26.34.11.7.16,1.14.26-.35-4-.82-7.89-1-11.81s0-8,0-12.27l5.83,5.2.82-.44c-1.35-8.34-2.12-16.66.44-25.65l7.65,12,.79-.37-1.3-19.47,1.11-.34c5.81,4.07,8.92,10.13,11.51,17.51,1.93-6.83,2.18-12.43-2.23-17.41-1.68-1.89-3.24-3.18-6.2-2.42a6.06,6.06,0,0,1-7.3-4.47,6.46,6.46,0,0,1,3.65-7.81,6.24,6.24,0,0,1,8,2.15,5.49,5.49,0,0,1,1.08,3.34c-.6,3.67,1.85,4.76,4.38,6,1.84-5.3.82-9.11-3.82-12.4a50.2,50.2,0,0,1-15.9-17.61c-1.55-3-2.66-6.14-4.3-10l8.23,1.63c-1.63-5-1-10-5.42-13.64-2.86-2.35-1.59-6.79,2.47-10.54-4.75-3.22-8.79-7-9.9-12.71L482,258.64c-2.44-6.44-4.46-12.31-12.05-14.3a18.9,18.9,0,0,1-14.36-18.27l11,5.92c-2.69-8.76-8.88-13-17.07-12.43a4.4,4.4,0,0,0-2.22.94c-3.45,2.74-6.51,3.19-9.18,1.25s-3.2-5-1.57-9.14a15.25,15.25,0,0,0,.37-1.57c-14.37,2.79-19.55-9.07-28.16-17.11l9.66,2.07.82-.72c-8-5.38-6.85-14.92-10.83-21.46l25.16,7.26V161a29.13,29.13,0,0,1,12.1,12.72c2.9,5.68,4.73,11.54,2.41,18.08-1.76,4.94-.15,9.16,4.19,12.76,2.05-3.52,5.52-5.91,3.39-10.78-1.34-3.07,1.21-6.8,4.33-7.72s7.07.88,8.15,3.81c1.22,3.28-.35,7.54-3.48,8.53-2,.64-4.29.69-4.57,3.28-.37,3.38-1.58,7.31-.36,10.1,2.23,5,6,9.42,9.38,13.92-2.73-12.29-1.38-23.86,4.8-35.21a26.15,26.15,0,0,1,9.46,11.1c2,4.32,3.36,8.93,5,13.33,5.4-8.12,7.72-10,13.57-11.11,0,6.63.33,13.33-.09,20-.4,6.48-4.12,11.21-9.63,14.52-8.61,5.15-9.92,10.56-4.61,19.26,2.78-2.44,5.65-4.78,8.26-7.37.72-.72.71-2.2,1-3.35a6.3,6.3,0,0,1,7.6-5,6.44,6.44,0,0,1,5.32,6.75,6.24,6.24,0,0,1-6.33,6.12c-2.25,0-4.58-1.28-6.41,1.57-2.55,4-6.18,7.58-5.1,12.71,1.36,6.46,3.33,12.79,5.07,19.28,2-4.19,3.52-8.34,5.83-12s5.37-6.75,8.72-10.86c.51,8.27,1,16,1.47,23.67l8.62-13.63c3.16,8.57,2.49,16.32-.33,24.13-2.4,6.64-4.53,13.38-6.56,19.42,2.76,1.55,5.73,2.3,7,4.18a8,8,0,0,1,.24,7c-.88,1.66-3.79,2.35-5.91,3.2-1.88.75-3.91,1.13-5.87,1.72a3.44,3.44,0,0,0-.89.61c-9.36,6.85-9.61,7.32-10.57,18.9l30.11-26c-.92,6.57-1.12,14.12-3.2,21.11s-6,13.22-8.76,20.22c4.72-4.91,10.3-7.4,16.25-7.47-2.54,5.21-4.78,10.77-7.82,15.85a27.9,27.9,0,0,1-20.18,13.48c-4.67.74-9.58-.11-14.38-.09-1.1,0-2.79.36-3.19,1.1-2.4,4.43-4.5,9-7,14.18,4.61-1.47,8.59-2.66,12.5-4.05.53-.19.81-1.32,1-2.06,1.24-4.28,5-6.35,9-4.87,3.2,1.19,4.91,5.49,3.53,8.85-1.46,3.54-5.61,4.73-9.58,3a5.11,5.11,0,0,0-3.59-.28A57.69,57.69,0,0,0,463.5,434c7-4.11,13.79-8.72,21.1-12.18s15-5.68,23.28-8.69c-1,2.28-1.62,3.79-2.36,5.52l10.73-3.13.68,1.11c-5,6.4-9.79,13-15.14,19.12-4,4.62-10.1,3.91-15.69,4.47,4.86,2.71,11.18-.85,15.55,3.43-12.47,4.61-24.44,10.79-38.37,9.43l0,.9c.65.57,1.33,1.12,1.94,1.73a6.74,6.74,0,0,1-.14,9.71c-3,2.58-7.35,1.9-9.94-1.21a8,8,0,0,0-4.21-2.79c-7.62-1.42-14.94-.59-21.56,3.88-3,2-6,4-8.92,6.3,9.79-2.86,19.26-3,28.48,1.91l-16.29,8.34,7.32,3.17c-8.48,4.48-16.3,8.58-25.31,8.86a70.34,70.34,0,0,1-16.21-1.2c-11.46-2.37-22.63-.92-33.85,1.27a172.46,172.46,0,0,0-17.83,3.93c3.89,1.32,8,2.19,11.63,4,9.23,4.73,18.28,4.21,28.21,2,11-2.5,22.53-2.89,33.83-4.15a27.28,27.28,0,0,1,3.85.17c-1.21,3.23-2.25,6-3,7.85,3.92,3.72,7.5,7,10.92,10.48.62.63.59,1.9.85,2.88a14.24,14.24,0,0,1-2.67.23c-9.48-.94-19-1.94-28.45-2.93l-.4,1.39,14.56,7.45c-1,.64-1.54,1.29-2.21,1.43-5.43,1.08-10.85,2.65-16.33,2.91-5.78.27-11.36-.93-15.89-5.53-4-4.09-4.23-3.5-9.32-1a70.25,70.25,0,0,1-14.09,5.53c-9.45,2.35-17.54-.8-23.75-8.09-3.26-3.82-5.77-8.28-8.83-12.76-.49.81-.94,1.71-1.54,2.52-3.3,4.43-6.09,9.42-10.07,13.15-7.34,6.88-16.32,7.33-25.48,4a55.59,55.59,0,0,1-10.4-5.07c-2.61-1.64-4.58-1.62-6.72.45-10.45,10.12-22.3,7.41-34.25,3.68a11,11,0,0,1-1.77-1.14l14.62-7.5-.08-.65c-3.39,0-6.8-.24-10.16,0-6.15.53-12.27,1.41-18.41,2.05a12.57,12.57,0,0,1-2.94-.39c.36-1,.46-2.19,1.12-2.85,3.34-3.37,6.83-6.59,10.76-10.33l-3.07-8.2c6,.43,11.29.47,16.46,1.27,11.45,1.78,22.84,3.94,34.26,5.92a4.41,4.41,0,0,0,2.14-.05c8.28-3,16.55-6,24.82-9Zm8.79-20.19c-9.21-10.11-19.16-18.66-33.11-20.82-3.86-.6-7.33.79-9.16,4.48-3,6.05-3,12.46-2,18.84,16.56-4.42,28.61,5,41.81,12.25a12.12,12.12,0,0,0-1.13-5.83c-1.25-2.38-1.08-4.4.63-6.32A34.78,34.78,0,0,1,313.86,476.93Zm68.24,2.6c.91-6.41,1-12.72-1.86-18.73a8.06,8.06,0,0,0-8.69-4.74c-13.9,1.82-23.83,10.2-33.32,20.42,5.83,2.2,7.8,6.45,7.68,12C357.42,482.43,368,475.33,382.1,479.53Zm-107.22,29.2c-6.25-3.06-35.13-7.1-43.91-6.22a42.52,42.52,0,0,0,1.64,4.34c1.28,2.53,1.28,4.09-2.06,4.93-3.52.89-6,3.39-8,6.3l32.9-1a4,4,0,0,0,1.39-.36Zm145.61-6.2c-8.92-1-39.06,3.36-43.33,6.37,4.83,2.12,9.49,4.41,14.33,6.22a31.11,31.11,0,0,0,8.65,1.82c6.26.46,12.56.48,18.83.8,3.31.17,6.6.61,9.9.93l.87-1.22a47.44,47.44,0,0,0-4.47-3.44c-2.23-1.35-5.9-2-6.59-3.78C417.9,508.19,419.77,505.15,420.49,502.53Zm-89.29.84c3.17-3,6.46-5.57,9-8.71s4-7,2.42-11.14c-1.38-3.7-4.77-4.81-8.17-5-5.18-.34-10.41-.18-15.6,0a10.22,10.22,0,0,0-4.09,1.37c-3.45,1.76-3.56,3.91-.5,6.3s6.3,4.54,9,7.27C326.12,496.32,328.39,499.78,331.2,503.37Zm-7.45,3.18C319,505,319,505,316.52,508.72c-6.72,10.3-15.32,12.57-26.15,7-.95-.49-2.44-.94-3.25-.54-3.3,1.64-6.43,3.62-9.8,5.57C296.64,535.22,315.48,530.57,323.75,506.55Zm9.34-.73-5,1.23c8.6,24.2,27.67,27.79,46.22,13.72-2.24-1.38-4.45-2.59-6.5-4-2.69-1.91-5-2.11-8.16-.38-7.69,4.23-15.29,2.87-21.07-3.33A89.68,89.68,0,0,1,333.09,505.82Zm-63.67-21.44c11.9,2.75,23,6.85,35,6.77-7.83-5.58-16.08-10.09-25.91-10.79C275.12,480.13,272,480.59,269.42,484.38Zm77.88,6.35.48,1.7,34.48-7.81c-2.27-3.85-5.15-4.42-8.1-4.28C364,480.81,355.52,485.46,347.3,490.73ZM336,503.14c4.18,12.77,16.09,17.08,24.8,9.34Zm-19.52,0-25.44,9.37C299.2,520.27,311.54,515.82,316.51,503.14Zm11.53.57c-3.4-5.89-7.29-10.93-13.41-14.24C312.19,499,317.7,504.79,328,503.71Zm-62.53,23.62c-5.59-3.46-18-3-23.92.52C249.57,530.33,257.23,531,265.51,527.33Zm121.34-.26c7.64,4,15.35,3.26,23.08.4C402.29,525.46,394.66,523.16,386.85,527.07Zm54.55-78.56c8.36-6.11,9.85-12.52,5.35-16.83-1.46,1.87-3,3.74-4.42,5.66a3.79,3.79,0,0,0-.89,1.85C441.35,442,441.4,444.87,441.4,448.51ZM205,431.34c-4.4,6.22-2.49,13,4.58,16.18C212.68,440.94,207.94,436.34,205,431.34Zm254.54,21.88c-13.87-2.29-13.05-2.81-16.6,2.31,3.4.7,6.78,1.45,10.19,2.06a2.72,2.72,0,0,0,1.86-.59C456.45,455.86,457.86,454.59,459.49,453.22Zm-267.62.07c2.31,1.56,4.34,4,6.49,4.14,3.44.18,7-1.2,10.49-1.93C206,451,205.66,450.92,191.87,453.29ZM220,485.84A61.93,61.93,0,0,0,251.21,487Zm211.58.89-.08-.92L400.59,487C411,489.29,421.35,488.83,431.58,486.73Zm90-144.74-.75-.48c-6.06,6.6-12.52,12.95-13.65,22.7Zm-390.64-.43-.83.5,14.46,22.24C143.47,354.54,136.91,348.23,130.94,341.56ZM129,369.62l-.57.77c6.16,7.54,13.93,12.95,22.6,17.17l.59-.79Zm394.22.83-.69-.72-22.67,17.21A53.85,53.85,0,0,0,523.22,370.45ZM172.39,225.85l1,.11q1.37-13.68,2.74-27.37C172.36,207.42,171.55,216.55,172.39,225.85Zm303.15-27.13,2.8,27.31,1-.11C480,216.67,479.45,207.54,475.54,198.72Zm26.81,104,1,.25a65.12,65.12,0,0,0,5.71-27.63Q505.72,289,502.35,302.7ZM461.64,456l-1.56-.09c-1.12,1.43-2.87,2.74-3.2,4.34a3.29,3.29,0,0,0,3.75,4,5.63,5.63,0,0,0,3.79-3.76C464.61,459.22,462.66,457.56,461.64,456ZM188.8,196.85h1.75c1-1.49,2.61-2.88,2.88-4.48.37-2.32-1.34-3.83-3.74-3.85s-4.13,1.5-3.75,3.81C186.2,194,187.8,195.36,188.8,196.85Zm6.7,264.53,0-1.59c-1.49-1.06-2.87-2.75-4.5-3.05a3.21,3.21,0,0,0-3.81,3.71c.29,1.54,2.3,3.64,3.77,3.84S194,462.44,195.5,461.38Zm304.32-54.73,1.77-.06c.94-1.53,2.48-3,2.68-4.6.28-2.32-1.45-3.77-3.89-3.68s-4.08,1.63-3.6,3.94C497.11,403.86,498.76,405.19,499.82,406.65Zm-19.71-139h-1.75c-1,1.5-2.6,2.9-2.85,4.52-.34,2.29,1.28,3.82,3.78,3.77s4.14-1.48,3.72-3.83C482.72,270.53,481.13,269.15,480.11,267.67Zm-303.2,5.15-.06-1.76c-1.53-.92-3-2.41-4.62-2.63-2.39-.32-3.8,1.48-3.68,3.87s1.66,4.07,4,3.56C174.16,275.51,175.47,273.88,176.91,272.82Zm-34.21,2.73-1,.17c.86,9.41,2.69,18.59,6.67,27.22l.91-.22Q146,289.13,142.7,275.55Zm323.74-82.16c0-.58,0-1.17,0-1.76-1.47-1-2.82-2.7-4.42-3-2.31-.42-3.86,1.28-3.94,3.68s1.45,4.12,3.78,3.8C463.51,195.89,464.93,194.35,466.44,193.39ZM139.65,327.58l-.06-1.75c-1.54-1-3-2.54-4.62-2.73-2.34-.29-3.76,1.53-3.67,3.92s1.67,4.07,4,3.62C136.87,330.33,138.2,328.65,139.65,327.58Zm7.08,73.56-.07,1.72c1.46,1.05,2.79,2.68,4.4,3,2.32.48,3.84-1.14,3.93-3.59s-1.37-4.17-3.67-3.88C149.7,398.6,148.25,400.18,146.73,401.14Zm35.91-33.4-.88-.38a48.38,48.38,0,0,0-7,25.19ZM463,394.42l1.75,0c1-1.47,2.71-2.84,3-4.44.4-2.3-1.32-3.84-3.72-3.89s-4.15,1.41-3.77,3.78C460.47,391.5,462,392.92,463,394.42ZM178.3,409.19c1.46-4.76,2.95-9.24,4.13-13.8.24-.9-.7-2.1-1.09-3.16C178.47,397.78,174.21,402.8,178.3,409.19Zm295-.27c3.13-4.25,2-11.38-3.12-16.72-.4,1.13-1.21,2.21-1,3C470.41,399.88,471.91,404.48,473.27,408.92ZM186.92,394.44h1.73c1-1.5,2.66-2.91,2.89-4.52.32-2.28-1.37-3.84-3.82-3.8S183.6,387.69,184,390C184.23,391.58,185.89,393,186.92,394.44Zm21.68-173.6,1.69,0c1.12-1.44,2.94-2.78,3.19-4.37a3.24,3.24,0,0,0-3.67-3.86c-1.55.31-3.62,2.2-3.88,3.66S207.63,219.32,208.6,220.84ZM438.51,435.72c3.32-.7,4.75-2,4.74-4.39a3.53,3.53,0,0,0-3.84-3.84c-2.45,0-4.1,1.5-3.74,3.79C435.91,432.87,437.51,434.25,438.51,435.72Zm-200.8,9.92,11,22.72C248.2,460.1,243.37,450,237.71,445.64ZM489,323.28c0-.57,0-1.15,0-1.72-1.51-1-3.18-2.93-4.48-2.72a5.8,5.8,0,0,0-3.7,3.84,3.12,3.12,0,0,0,3.79,3.64C486.21,326,487.57,324.35,489,323.28Zm32,4.51c0-.58,0-1.16,0-1.74-1.48-1-2.85-2.72-4.45-3-2.22-.33-3.86,1.23-3.91,3.73s1.58,4.08,3.81,3.79C518.07,330.41,519.49,328.78,521,327.79Zm-79.89-106.9,1.63,0c1.09-1.47,3.13-3,3-4.39s-2.1-3.49-3.63-3.88a3.18,3.18,0,0,0-3.86,3.63C438.44,217.91,440.11,219.36,441.11,220.89Zm63,22.93-1.76,0c-1,1.46-2.66,2.81-2.95,4.41-.42,2.31,1.27,3.8,3.69,3.86s4.16-1.4,3.84-3.7C506.75,246.75,505.14,245.33,504.15,243.82ZM469,367.54q3.92,12.3,7.84,24.58C476.62,383.14,474.65,374.74,469,367.54ZM234.06,182.75l-.58-.83c-8.34,3.05-14.86,8.71-21.11,14.75l.61.88ZM403,468.33q5.51-11.37,11-22.74C408.48,449.71,403.24,460.62,403,468.33Zm35.85-270.7.61-.87c-6.3-6-12.8-11.79-21.22-14.79l-.55.79Zm-222,233c-1.44-1.05-2.76-2.69-4.36-3-2.31-.47-3.86,1.17-4,3.58s1.2,3.88,3.69,3.93S216,433.93,216.76,430.62Zm-69.31-178,1.72.06c1.1-1.44,2.88-2.76,3.16-4.34.38-2.18-1.18-3.88-3.67-3.94s-4.2,1.34-3.95,3.64C144.89,249.69,146.49,251.14,147.45,252.66Zm15.23,68.89-.05,1.71c1.46,1.08,2.8,2.79,4.4,3.08a3.11,3.11,0,0,0,3.81-3.61c-.32-1.55-2.19-3.64-3.63-3.88S164.21,320.57,162.68,321.55Zm-30.36-35.47-.83.4c2.2,7.25,3.25,15,10.25,20Zm358,158.17-28.39,4.59C471.77,449.85,481.14,447.85,490.32,444.25Zm19.62-137.71,1,.44c5.78-5.6,7.33-13.11,8.41-20.84Zm-33.62,45.61L483,378.44C483.42,369,480.75,360.36,476.32,352.15ZM478,278.94c3.35,4.72,7.82,7.05,12.74,8.75C487.12,284.14,485.92,277.21,478,278.94Zm-317.07,9c4.62-2.22,9.6-4,12.66-9.12C165.74,277.53,164.37,284.16,160.91,287.92Zm28.87,160.9-28.6-4.57C170.35,447.88,179.8,449.77,189.78,448.82ZM499.29,211.67l-.9-.39a56.51,56.51,0,0,0-9.59,24Q494,223.49,499.29,211.67ZM162.87,235.31c0-6.68-6.45-21.07-10.68-24.09Zm4.21,142.44,1.73.36,6.5-25.86-1.49-.38Q170.46,364.82,167.08,377.75Zm7.67-85.08c-5.92,1.56-14.1,9.31-16.05,15.07Zm303.49-.08-.67.68,14.75,13.81.63-.66C489.07,300.74,484.64,295.63,478.24,292.59Zm20.62,127.06-.63-1.18-22.15,11.67.54,1ZM175.13,431.18l.55-1.05-22.31-11.64-.6,1.16ZM443.66,190.53l.9-.31c-.65-6.92-3.47-13.06-7.48-18.8ZM209.87,209.59c-5-2.82-8-1.55-10.59,3.63C203.79,215.13,205.5,209.85,209.87,209.59Zm-1.81-19.21,6.57-19C210.79,175.34,207,185.93,208.06,190.38Zm244.62,22.68c-4.25-5.73-6.6-6.53-10.31-3.41C446.23,209.8,447.91,215.27,452.68,213.06Zm37.17,142.6c.79-5.86-1.91-14.35-5.52-18C486.26,343.92,488.05,349.79,489.85,355.66Zm-292.46,69.8.6.22V402.41h-.6ZM160.32,355.6l1.4.43q2.76-9,5.51-18.06l-1.39-.42Zm293.91,46.74-.66,0V426h.66Zm-239.85-198A15.43,15.43,0,0,0,229,200.54Zm223.05,1,.24-.94-14.44-3.7-.23.9C427.49,204.09,432.15,205.93,437.43,205.37Zm-10.6,240.25-1.25-.68-8.18,14.68,1.3.72Zm-200.74-.74-1.29.72q4.13,7.35,8.23,14.7l1.28-.71Zm-14,27.54-.23.81,16.3,3.53.21-1Zm227.75.8-.16-.78-16.37,3.34.2,1ZM192.09,233.09l-.82-1-9.4,7.52.78,1Zm-44.4,192.74-.92.89,8.62,7.82.94-1Zm347.71,7.65,1.07,1,8.41-7.94-.78-.81ZM460.32,232l-.8,1,9.36,7.27.74-1Z"/><path class="cls-1" d="M337.84,283.93c-1.44,1.8-2.37,2.91-3.23,4.08a3.48,3.48,0,0,0-.92,1.71c-.05,15.24,0,30.48,0,46.35,3.22,0,6.2.11,9.16-.08.66,0,1.85-1.19,1.78-1.69-.38-2.76,1.75-6-1.54-8.31-.56-.41-.27-2-.37-2.95.45-.25.65-.46.87-.48,5.48-.44,5.71-.44,5.61-6.06-.08-3.85,2.53-3.37,5.23-3.68,0-2.69-.05-5.33,0-8,.08-3.09,1-5.83,4.16-7a6.62,6.62,0,0,1,7.87,2.16,19.55,19.55,0,0,1,3.53,5.92c.65,2-.66,2.88-2.76,2.13-1.46-.52-2.94-1-4.81-1.58v5.95c4.76,1.46,4.9,1.46,4.83,6.56,0,2.73.91,3.79,3.59,3.46a18.77,18.77,0,0,1,2.86.12c0,1.22.4,3.07-.06,3.31-4,2.08-1.43,5.59-1.93,8.37-.09.48,1.3,1.72,2.05,1.75,3.85.18,7.71.09,11.46.09,1.22-2.14,0-5.32,3.91-5.42,6.82-.18,7.1-.15,7.11,6.77v4.83c5.1-1.56,9.6-2.89,14.07-4.32a2.89,2.89,0,0,0,1.62-1.27c3.09-6.84,10.51-6.27,15.49-9.84l.83.62-.45,4.1,3.69,2.13a10.48,10.48,0,0,1-2,1.69c-3.6,1.73-7.23,3.38-10.87,5-.64.29-1.54.79-2,.56-5.08-2.44-9.36.83-13.95,1.82-.47.1-.91.33-1.37.45-5.71,1.54-5.71,1.53-4.62,8.46l16.88-3.44c3.15-5.81,9.5-4.83,14.48-6.76a25.39,25.39,0,0,1,4.15-.73c-.6,2-1,3.24-1.37,4.5l3.2,2.25c-.14.45-.28.9-.41,1.36-2.46.68-4.88,1.49-7.36,2-3.89.81-7.69,3.07-11.81.16-.95-.68-3,.08-4.55.35-3.69.65-7.35,1.53-11.06,2.05-2.78.39-2.59,2.18-2.65,4.2-.07,2.35,1.31,2.46,3,2.45,4.24,0,8.49,0,12.73-.05a5.65,5.65,0,0,0,3.37-.94c5.83-5.08,12.34-1.27,18.44-2.5l.3,1-2.15,3.29,2.62,4.06h-16.8c-6.46-5.75-14.07-1.47-21.3-3.12V368c5.59,1,11.24,2.13,16.91,3.1.75.13,1.6-.43,2.42-.52a27.92,27.92,0,0,1,6.22-.46,43.63,43.63,0,0,1,7.74,1.87,21.43,21.43,0,0,1,3.62,1.87l-2.45,3.1,1.42,4.42c-3.64-.85-6.6-1.51-9.54-2.24-3.32-.83-7.07-.88-8.73-4.83-.21-.5-1.17-.85-1.84-1-5.09-1-10.21-1.93-15.29-2.88-1.77,5.84-1.28,6.72,4.05,8.2,2.68.75,5.25,1.93,8,2.49a33,33,0,0,0,6.3.22c.6,0,1.3-.36,1.78-.16,4.82,2,9.61,4.1,14.4,6.16l-.19,1.18-3.4,1.92c.14,1.29.29,2.65.57,5.29-5.86-4-13.06-3.56-16.32-10.15a2.61,2.61,0,0,0-1.21-1.26c-4.67-1.53-9.36-3-14.64-4.63,0,3.4-.05,6,0,8.67,0,2-.84,2.92-2.81,2.88a12.27,12.27,0,0,0-1.82,0c-3.59.41-6.42-.12-5.75-5.24-4.59,0-8.9-.07-13.21.08-.62,0-1.59,1-1.76,1.73-4.58,18.94-16.68,30.26-35.35,35a8.79,8.79,0,0,0-1,.32,7.25,7.25,0,0,0-.86.61c0,3.9-.06,8,0,12.1.06,2.33-.9,3.31-3.23,3.24-3.15-.09-6.3-.06-9.45,0-2.19,0-3-1-3-3.1.07-4.1,0-8.21,0-12.53-1.55-.41-2.92-.75-4.28-1.15-17.17-5-28.58-15.74-32.88-33.36-.51-2.08-1.18-3.14-3.56-3-3.6.21-7.23.05-10.77.05-1,4.8-4.59,6.79-9.09,5.06a3.73,3.73,0,0,1-1.63-2.77c-.23-2.51-.07-5.05-.07-8.64l-18.78,6c1.38,3.32-.08,4.1-2.89,4.13-2.16,0-4.31.62-6.47.82a7.54,7.54,0,0,1-2.2-.44,6.28,6.28,0,0,1,.9-2.14c1.86-1.9,3.8-3.74,5.83-5.45.53-.45,2-.75,2.21-.47,1.85,2.25,3.72.78,5.57.21,4.5-1.38,9-2.82,13.48-4.22,2.58-.8,2.94-2.2,1.73-7.71l-20.47,4c.75,3.81-1.58,3.88-4.22,3.57-2.8-.33-5.61-.63-8.42-.94l-.4-1.19,9.93-6a.41.41,0,0,1,.34,0c5.33,4.88,10.5-.56,15.77-.27a15.39,15.39,0,0,0,3.55-.66c4.81-.91,4.95-1.13,4-6.75-6.74,0-13.6,0-20.45,0-.41,0-1.15.3-1.19.56-.65,3.78-3,2.1-4.95,1.54-2.58-.75-5.11-1.67-7.67-2.52l-.06-1.52c3.66-1.14,7.31-2.3,11-3.39a1,1,0,0,1,.88.5c.87,4.22,4.23,2.57,6.64,2.67,4.48.21,9,0,13.46.07,1.63,0,2.93-.21,2.83-2.29-.09-1.74.52-3.73-2.15-4.23-6.06-1.14-12.08-2.49-18.16-3.47-1-.16-2.23,1.13-4.08,2.15l-9.56-5.86.13-1.06a19.1,19.1,0,0,1,3.41-1c1.92-.2,3.88,0,5.8-.23,2.51-.25,4.12.29,3.43,3.4l20.4,4.06c1.9-5.74,1.26-6.83-4-8.32-3.83-1.09-7.53-2.66-11.38-3.67-1.77-.46-3.75-.07-5.64-.07l-.34,1.14-8.89-8.12.56-1.54c3.79.55,7.61,1,11.34,1.77.54.12.68,2.11,1.16,3.74l18,5.91c0-3.18.11-5.56,0-7.93-.17-2.87,1.11-4,3.88-3.76a5.67,5.67,0,0,0,1.09,0c3.55-.37,6.17.36,5.33,5.31,4.26,0,8.21,0,12.16,0a2.2,2.2,0,0,0,1.51-.8c1.21-1.63-.1-7.28-1.59-8.92-.71-.78-.66-2.26-1-3.65l6.25-.41c1.81-3.35-2.65-10.33,5.89-9.33v-6.34l-7.11,1.93c-1.37-5.44,3.56-11.45,8.76-11.09,3.38.23,5.67,2.61,5.84,6.21.13,2.78.11,5.56.18,8.34,0,.22.2.43.39.84,7.87-.58,3.44,6.18,5.5,9.49l6.76.31c-.89,1.63-1.88,2.73-2.1,4a40.11,40.11,0,0,0-.61,8.32c0,.46,2.34,1.07,3.63,1.17,2.37.19,4.76.05,7.38.05.08-1.7.18-2.88.18-4.06q0-20.16,0-40.31a9.1,9.1,0,0,0-6.29-8.12A6.32,6.32,0,0,1,309,282c-4-4.15-7.78-8.45-11.78-12.57-2.44-2.52-5.08-4.86-7.73-7.15-3.32-2.87-6.66-5.74-10.19-8.32-.78-.58-2.6-.37-3.64.12-4.71,2.21-9.28,4.72-14,7-1.86.88-2.3,1.88-2,3.94,1.52,9.21-1.56,16.81-9.2,22.11s-16.18,5.63-24.3.8-11.67-12.28-10.69-21.48,6-15.59,14.7-18.58,16.59-1.35,23.17,5.07c2,2,3.46,2.34,5.86.94,6.74-3.92,13.47-7.92,20.44-11.42,7.62-3.82,15.55-7,23.24-10.7,2.34-1.11,4.28-3,6.54-4.34a38.5,38.5,0,0,1,5.05-2.1,19.05,19.05,0,0,0,2.73-3.42c.36-.72-.13-1.91-.32-2.87-.41-2.08-1.16-4.15-1.13-6.22,0-.5,2.51-1.31,3.89-1.37,4.23-.18,8.49-.19,12.72,0,1.36.06,3.78,1,3.8,1.53.07,2-.13,4.49-1.33,5.79-1.46,1.58-1.76,2.11,0,3.47,1,.81,1.64,2.12,2.66,2.74,2,1.32,4,2.65,6,4a23.31,23.31,0,0,0,3.09,1.87c8.09,3.71,16.32,7.14,24.27,11.12,7.3,3.65,14.35,7.82,21.42,11.91,2.34,1.36,3.86,1.29,5.89-.77A22.07,22.07,0,0,1,424,248.86a22.3,22.3,0,0,1-5.45,41.8c-15.27,3.4-29.41-10.14-26.63-25.59.36-2,.1-3.1-1.84-4-4.7-2.22-9.3-4.65-13.93-7-2-1-3.33-.91-5,1.06s-4.11,2.76-5.93,4.41c-6.66,6-13.19,12.13-19.76,18.22a4.62,4.62,0,0,0-1.41,1.64C343,282.77,340.7,284.23,337.84,283.93Zm-4.18,136.46a7.93,7.93,0,0,0,1.42.14c15.86-1.95,33-19.09,33.66-35,.82-18.72.53-37.48.76-56.23,0-2-.81-2.77-2.82-2.74-5.21.09-10.44.25-15.63-.05-3.54-.21-4.24,1.2-4.2,4.37.22,15.36.19,30.73.37,46.09.11,9.38-3.31,16.66-11.85,21.2a3.14,3.14,0,0,0-1.64,2C333.61,406.9,333.66,413.64,333.66,420.39ZM393.8,268.46a20.12,20.12,0,1,0,40.23.65c.17-10.73-8.55-20-19.08-20.35C403.28,248.42,394.09,257,393.8,268.46Zm-156.15-19.7a20.07,20.07,0,1,0,20.2,19.89A20,20,0,0,0,237.65,248.76ZM283,386.06c.66,15.59,17.83,33.41,35,34.27,0-6.62.08-13.24-.09-19.84,0-.85-1.21-1.95-2.12-2.45a21.91,21.91,0,0,1-9.66-10c-.39-.83-1.4-1.92-2.15-1.93C297,386,290,386.06,283,386.06ZM313.8,273.53c5.23-4.25,4.17-9.39,4.2-14.27,0-2.9,0-5.8,0-8.71,0-5,1.06-10.26-4.48-14.47a30.42,30.42,0,0,0-5.25,1.6c-5.35,2.53-10.6,5.29-15.88,8-3.64,1.86-4,3-2.06,6.46a10.51,10.51,0,0,0,2.11,2.46c6.1,5.69,12.21,11.38,18.38,17A18.71,18.71,0,0,0,313.8,273.53Zm24-.07a1.47,1.47,0,0,0,.91-.23c7.47-6.83,15.12-13.5,22.28-20.65,2.87-2.88,1.9-5.09-1.85-7-5.27-2.67-10.51-5.42-15.85-8a34.15,34.15,0,0,0-5.59-1.64c-1.15,1.75-1.93,2.86-2.61,4-.54.91-1.36,1.89-1.37,2.85-.11,8.09-.09,16.17,0,24.26a4.84,4.84,0,0,0,.88,2.5C335.38,270.81,336.41,271.85,337.78,273.46Zm-17.5,14.69V293c0,12.1,0,24.2,0,36.3,0,8-.87,6.58,7,6.93,3.22.13,4.15-.92,4.12-4.09-.15-13.43-.06-26.86-.07-40.29,0-1.18-.13-2.35-.21-3.66Zm.25,148.36h10.58v-50.3H320.53Zm10.56-167V240.31H320.56V269.5Zm57.12,63.7c0,17.75,0,35.06,0,52.36,0,1.82-.33,3.59,2.59,3.65s2.91-1.63,2.9-3.71c0-16.46,0-32.93,0-49.39,0-.93-.16-1.86-.25-2.91ZM258,333.2v52.36c0,1.82-.34,3.59,2.58,3.65s2.91-1.63,2.91-3.71q0-24.69,0-49.39c0-.93-.16-1.86-.26-2.91Zm75.88-108.81h-16V237.5h16Zm-.17,60.92v-13.1H317.9v13.1ZM304,326.76H282.05c0,2.54-.15,4.82.08,7.06.09.79,1.07,2.13,1.67,2.14,6.7.15,13.41.1,20.2.1Zm47.8-11.05c-1.23,6.43-1,6.72,4.7,6.73,1.81,0,3.63-.13,5.43,0,2.48.2,3.65-.67,3.32-3.25-.14-1.14-.16-2.29-.23-3.51Zm-65.23,6.41h13V315.8h-13ZM363,256.25l-1.47-.61c-6.21,5.72-12.44,11.4-18.55,17.23-.54.51-.2,1.95-.27,3l1.15.21c6.1-5.66,12.24-11.3,18.27-17C362.75,258.42,362.74,257.18,363,256.25ZM309.81,275l.1-1.13c-6.19-5.72-12.37-11.47-18.63-17.12-.46-.42-1.54-.16-2.33-.21.15.8,0,1.9.49,2.36,5.78,5.47,11.62,10.89,17.57,16.19C307.51,275.57,308.86,275.08,309.81,275Zm-1.08-40.88-.15-1c-.92-.08-2-.51-2.74-.17q-8.31,4-16.46,8.26c-.66.35-.86,1.58-1.28,2.39.82.12,1.8.59,2.42.29,5.53-2.67,11-5.45,16.47-8.26A9.82,9.82,0,0,0,308.73,234.15Zm35.6-2-1,.61c.44.94.62,2.35,1.35,2.74,5.42,2.93,10.94,5.69,16.48,8.38.65.31,1.65-.1,2.48-.18-.39-.83-.56-2.08-1.21-2.42C356.43,238.2,350.37,235.22,344.33,232.2ZM308,386.21a17.27,17.27,0,0,0,9.77,10v-10Zm-24.42-81.56.5.74c1.48-.39,3-1.19,4.42-1a4.12,4.12,0,0,1,2.84,2.29c.5,1.4,0,3.12.25,4.66.09.61.89,1.12,1.37,1.68.56-.6,1.56-1.17,1.6-1.8a42.75,42.75,0,0,0-.06-7.59c-.35-3.13-3.31-5-5.71-3.54C286.85,301.25,285.3,303.1,283.58,304.65Zm73.35,7.85,1.26.84c.61-.89,1.65-1.73,1.76-2.68.76-6.68.7-6.68,7.05-5.32.1,0,.27-.3,1.06-1.21a29.72,29.72,0,0,0-4.23-3.17c-1.27-.66-3.17-1.4-4.2-.9a5.66,5.66,0,0,0-2.58,3.82A63.49,63.49,0,0,0,356.93,312.5Zm-23,83.66c4.55-2.3,7.57-5.21,9.46-9.89h-9.46ZM259.07,259.82c5.68-2.9,11.16-5.68,16.6-8.55a1.57,1.57,0,0,0,.14-1.5c-.38-.45-1.3-1-1.66-.81q-8,3.87-15.84,8c-.36.19-.49,1.19-.38,1.75S258.64,259.43,259.07,259.82Zm133.82.09,1-.57c-.31-.92-.36-2.34-1-2.67-4.89-2.63-9.87-5.1-14.89-7.47-.54-.25-1.52.42-2.29.66.34.64.51,1.61,1.05,1.88C382.13,254.53,387.52,257.2,392.89,259.91Zm-59.36-43.37.81-1.19c-.79-.56-1.57-1.58-2.39-1.61-4.07-.17-8.17-.18-12.25,0-.79,0-1.53,1.23-2.29,1.89l.69.9Zm83.58,144.75c3.77,3.26,7.88,1.28,11.79,1.79v-3.75C422.57,358.24,419.45,358.68,417.11,361.29ZM374.88,246.22l-7.93-3.8c-.85,1.77-1.45,3-2.19,4.53l7.82,3.82ZM427.58,378c.29-1.6.5-2.74.74-4a76.09,76.09,0,0,0-7.88-1.83c-1.16-.15-2.45.69-3.68,1.08.81.9,1.46,2.26,2.47,2.62C421.83,376.81,424.58,377.29,427.58,378Zm-3.23-47.18c-2.76,1.26-5.54,2.36-8.12,3.82-.81.45-1.09,1.85-1.61,2.82,1.07.26,2.32,1,3.18.69,2.79-1,5.45-2.4,8.14-3.64C425.38,333.23,424.92,332.17,424.35,330.85Zm1.54,57c-6.28-4.17-8.82-4.86-11.75-2.8,2.36,3.85,6.74,4.12,10.13,6.14C424.9,389.9,425.39,388.87,425.89,387.85ZM287,246.82l-2.37-4.41-7.73,4c.83,1.59,1.5,2.91,2.28,4.41Zm140.42,97.23c-3,.74-5.82,1.28-8.51,2.21-.92.32-1.49,1.61-2.22,2.45,1,.47,2,1.46,2.94,1.32,3-.49,6-1.38,8.87-2.1ZM325.38,222.82l.36-.76a16.34,16.34,0,0,0,3.57-.07c.72-.17,1.28-1,1.91-1.54-.63-.49-1.21-1.26-1.91-1.41a10.19,10.19,0,0,0-3.57,0c-1.8.3-3.55.83-5.32,1.27Zm-10.26,10.83V228.5c-2.47-.35-4.81-.48-4.8,2.63C310.34,234,312.53,234,315.12,233.65Zm-.21,47.83v-5.54c-2.56.15-4.9.22-4.52,3.22C310.7,281.66,312.66,281.93,314.91,281.48ZM287.5,249.3l-6.36,3.23c1.52,1.33,2.45,2.53,3.67,3a2.85,2.85,0,0,0,2.57-1.19C287.8,253.15,287.5,251.67,287.5,249.3ZM336.78,276v5.48l.9.83c1.23-1,3.27-1.91,3.54-3.16C341.87,276.17,339.39,276.1,336.78,276ZM370,253l-.33-1.19a28,28,0,0,0-4.86-1.18,4.5,4.5,0,0,0-.88,3.06c.26.85,1.89,2.06,2.52,1.87C367.81,255.14,368.88,253.9,370,253Zm-33.21-24.5v5.22c2.5.25,4.66.08,4.51-2.82S339.07,228.08,336.83,228.5Z"/><path class="cls-1" d="M259,159.26c.45-2.89,0-5-2.68-6.63-1.84-1.08-1.4-2.95.34-4.11a12.33,12.33,0,0,1,2.47-1.12l-19.44-17.68c2.81-2.63,5.91-2.39,8.72-1.71,3,.74,3.57-.73,4.24-3a17.6,17.6,0,0,1,2.69-5.48c4-5.45,8.67-10.39,14.79-13.48a45,45,0,0,1,10.06-3.38c3.48-.81,7.19-1.79,10.62-1.33,4,.53,7.66-.61,11.48-.86,4.56-.31,9.13-.57,13.67-1.08.52-.06,1.31-1.68,1.22-2.48-.61-5.22,1.11-8.95,6.18-11A3.34,3.34,0,0,0,325,83.5c.22-2.16.64-4.62-.18-6.44-.59-1.32-3-1.81-5.78-3.26,4.41-.19,7.48-1.25,5.9-6.76l1.59,1c.4,1.62.34,3.68,1.34,4.72s2.94.69,4.57,1c-.27.69-.31,1.06-.45,1.1-1.54.5-4.23.66-4.43,1.45a23.49,23.49,0,0,0-.25,7.9c.08.79,1.51,1.62,2.49,2.1a8.75,8.75,0,0,1,5.33,8.35c0,4.41.9,5,5.15,5.26,5.3.33,10.56,1.32,15.85,1.83a40.67,40.67,0,0,0,6.71-.11,35,35,0,0,1,17.86,4,31.5,31.5,0,0,1,11.56,9.28c2.69,3.65,5.63,6.87,6.89,11.39.35,1.25,1.7,2.41,4,1.85,2.59-.62,5.5.08,8.14.2.09,1.17.22,1.52.11,1.63-4.3,4.52-8.49,9.14-13,13.46-1.57,1.51-3.89,2.24-6.08,3.46a11.23,11.23,0,0,1,2.25,1.13c.94.79,2.13,1.65,2.42,2.7.17.58-1.43,1.52-2,2.45a23,23,0,0,0-2.36,5.68c-2,1-3.84,1.59-5,4.87-1,2.82-4.87,5.55-8,6.53a154.44,154.44,0,0,1-24.6,5.78,221,221,0,0,1-51.86.72c-8.63-.82-17.18-2.67-25.71-4.34-5.1-1-9.72-3.51-12.44-8C263.54,161.89,262.56,159.37,259,159.26Zm5.36-3.28c-.62,5-.63,5,4.4,3.27,29.08-10.11,58.8-12.67,89-6.78,9.22,1.8,18.2,4.8,27.27,7.32,2,.54,3.52.93,2.86-2-.15-.68-.25-1.37-.29-1.61l5.09-2.37-.33-1.17A188.69,188.69,0,0,0,303,142.14,169.66,169.66,0,0,0,259.46,153l-.07,1.31Zm103.35-43.44a11,11,0,0,0-9.4-6.73c-12.81-1.14-25.63-2.63-38.47-2.77-9-.1-18.05,1.61-27,2.85-3.86.53-7.24,2.43-8.95,6.79,11.74-4.74,24.11-4.68,36.52-5.81.21,1.71.38,3.22.56,4.71h9.63c.24-1.68.46-3.18.69-4.75C343.65,108.13,356,107.82,367.74,112.54Zm-45.41,8c-.91-.1-2-.16-3-.32-5-.76-4.85-.76-5.11,4.21-.11,2.23-.53,4.1,2.61,4.32,4,.29,6.08-.89,6.83-3.71.26-1,1.61-1.6,2.45-2.39.72.8,1.48,1.57,2.14,2.42s1.14,2.47,1.92,2.62a15.47,15.47,0,0,0,6.63.1c.64-.16.51-3,.84-4.67.7-3.56-1.36-3.85-4-3.45-1.49.22-3,.48-4.1.66-.29-2.37.15-5.15-.93-6s-4.44-.9-5.63.1C321.92,115.27,322.5,118.06,322.33,120.53Zm-40.81,1.66c-1.59,0-3.33,0-5.06,0-2.49,0-4.06.84-3,3.75.2.55.56,1.22.42,1.7-.72,2.43.3,3.44,2.63,3.45,3.61,0,5.79-1.64,6.09-4.12a3.89,3.89,0,0,1,1.78-2.67c.57-.29,2.15.39,2.61,1.08a6.86,6.86,0,0,0,8.38,2.86c3.46-1.09,1.57-3.4,1.39-5.3-.35-3.61-1.11-4.08-4.55-3-1.49.44-3,.79-4,1.06-.57-2.45-.63-5.54-1.47-5.77a8.19,8.19,0,0,0-6,1C280,116.64,281.11,119.66,281.52,122.19Zm88.64,0c.48-2.54,1.55-5.46,1-5.8-1.68-1-4.4-2-5.9-1.27-1.2.58-1.21,3.63-1.79,5.76a2.23,2.23,0,0,1-.73.08,6.91,6.91,0,0,1-1.39-.35c-5.47-1.74-5.25-1.68-6.7,3.61-.7,2.54-.09,3.6,2.23,4.17,3.79.94,6.67-.09,7.63-2.4.41-1,1.64-1.62,2.5-2.42.7,1.08,1.44,2.13,2.09,3.24s.81,2.63,1.67,3.1c4.77,2.55,6.34,1.49,7.51-3.78.8-3.58-1-3.93-3.61-3.94Zm-38.89-14.53c.4,3.34.71,5.89,1,8.32,3.53.94,6.27,1.16,6.3-3.24,4.32.23,8.41.42,12.49.68.82.06,2.27.23,2.35.58,1,4.46,4.7,2.44,7.29,3.41l2.14-5.32C352.66,108.61,342.33,108.69,331.27,107.64Zm-10.87-.06c-11.09,1.25-21.5.81-31.56,4.65l2.18,5,6-.46c.78-1.47,1.85-3,3.1-3.18,4.28-.56,8.61-.62,13.11-.88-.12,4.84,2.92,3.83,6.12,3.43C319.66,113.55,320,111,320.4,107.58Zm5.74-19.83a7.3,7.3,0,0,0-6.9,6.68,6.88,6.88,0,1,0,6.9-6.68Zm41.09,18.63c1.61,1,3.23,1.52,3.21,2-.2,3.65,2.9,3,4.79,4s4.41,1.77,5.94,3.33c4,4,7.6,8.48,11.74,13.19l2.5-1C392.17,116.82,377.41,105.21,367.23,106.38ZM260,129.38c4.12-9.59,10.67-16,19.67-18.06l3.72-4.89c-8.05-1.6-24.82,10.69-27,21.59Zm25,2.09c6.91,4,13.65,4.74,20.76,1.68a5.94,5.94,0,0,1,3.82-.1,16.23,16.23,0,0,0,13.34-1.35,6.12,6.12,0,0,1,6.71.05A16.5,16.5,0,0,0,343,133a7.52,7.52,0,0,1,4.48.46c6.9,2.6,13.4,1.87,20.54-2.4a10.87,10.87,0,0,0-2.57.36c-4.76,2.68-9.8,2.51-14.8,1.19-3.6-.94-7-2.23-10.83-.9a8.33,8.33,0,0,1-5.38-.06c-5.48-2.28-10.71-.63-16.2-.36-7.61.37-15.1,1.45-22.66,2C292.25,133.52,288.85,132.19,285,131.47Zm122.35-.23-.73-1.46-2.76.41c-2.8.38-5.39,3.73-8.51.66a11.25,11.25,0,0,0-1.79,1.7c-1,1.32-1.91,2.73-2.83,4.12-.37.55-1,1.2-.89,1.71a1.88,1.88,0,0,0,1.5,1.05c2.45-.09,5.09.23,6.52-2.65.36-.71,1.38-1.16,2.17-1.59C402.45,133.84,404.91,132.55,407.35,131.24Zm-163,.07c2.49,1.29,5,2.53,7.45,3.91.89.5,1.49,1.57,2.41,1.95a60.42,60.42,0,0,0,6.76,2.16c.09,0,1-1.55.76-1.85-1.65-2.27-3.49-4.4-5.39-6.74C252.54,135,249,128.49,244.37,131.31ZM296,137.64c-2.93-.76-5.35-1.47-7.8-2a3.22,3.22,0,0,0-2.53.48c-3.62,3.74-8.19,4.79-13.14,5.12-1.07.08-2.09,1-3.13,1.54l.47.81Zm60.77,0,25.79,5.92.42-.91a22.34,22.34,0,0,0-3.26-1.42c-2.9-.76-6.68-.46-8.59-2.22-4.35-4-8.73-3.1-13.45-1.9A7.68,7.68,0,0,0,356.77,137.68Zm-85.72.29c4.07,2.32,11.65-.35,12.89-4.29Zm110.06.07-12.82-4.54C370.3,137.72,376.83,140.06,381.11,138ZM268.2,136.26c1.47-1.86,2.91-2.88,2.9-3.91s-1.5-2.28-2.55-2.52c-.68-.15-2.39,1.33-2.46,2.18C266,133.07,267.12,134.23,268.2,136.26Zm38.63-7.45c1.24-1.69,2.66-2.79,2.58-3.77s-1.69-1.77-2.63-2.64c-.88.95-2.27,1.81-2.47,2.89C304.17,126.08,305.58,127.16,306.83,128.81Zm42.7-3.37c-1.76-1.24-2.88-2.64-3.84-2.54s-1.79,1.68-2.68,2.61c1,.86,1.84,2.22,2.92,2.41C346.74,128.07,347.81,126.7,349.53,125.44Zm34.37,3c-1.28,1.79-2.74,3.08-2.5,3.63.52,1.17,1.91,1.95,3,2.89.75-.93,2.12-1.87,2.1-2.78S385.16,130.2,383.9,128.48Zm-126.27,14.2c4,2.66,8.89,1.33,10.8-2.82Zm137.18.06-11.07-3C386.4,144.12,390.64,145.25,394.81,142.74Zm-63.89-7.22c-4.84-3.35-5.11-3.35-9.18,0Z"/><path class="cls-1" d="M1038.88,337.39c0-13.47-.06-26.15.1-38.83a3.63,3.63,0,0,1,2.43-2.53,37.7,37.7,0,0,1,8.69,0,3.54,3.54,0,0,1,2.33,2.57c.12,22.37.09,44.74.06,67.12a8.15,8.15,0,0,1-.36,1.42c-3.66,0-7.4.19-11.09-.13-1-.09-2.21-1.6-2.67-2.73-5.14-12.37-10.15-24.8-15.2-37.21a2.8,2.8,0,0,0-1.13-1.49v41.27h-13.38c-.06-1.1-.17-2.27-.17-3.43,0-21.17.06-42.33-.09-63.49,0-3.21.88-4.15,4.05-4.12,9.19.07,9.2-.07,12.64,8.28q6.08,14.73,12.12,29.47C1037.65,334.65,1038.14,335.71,1038.88,337.39Z"/><path class="cls-1" d="M1203,218.46c0-12.14.07-24.45,0-36.76,0-2.9.73-4.21,3.87-4s6.47.05,9.89.05v71c-3.88,0-7.83.16-11.75-.13-.84-.07-1.83-1.67-2.28-2.75-4.92-11.94-9.75-23.92-14.62-35.89-.43-1.05-1-2.06-1.78-3.71v42.27h-13.23V177.84c4,0,8.09-.13,12.13.12.74,0,1.63,1.54,2,2.53,4.87,11.71,9.66,23.45,14.48,35.17C1202.14,216.73,1202.68,217.75,1203,218.46Z"/><path class="cls-1" d="M1233.82,444.25c0,11.46,0,22.91,0,34.36,0,7.23,1.14,6.64-6.5,6.67-7.11,0-7.11,0-7.11-7.08,0-20.08.06-40.15-.06-60.23,0-2.89.87-3.72,3.68-3.74,9.6-.08,9.61-.17,13.2,8.55q6,14.57,11.94,29.15c.44,1.09,1,2.15,1.63,3.66,0-12.63.11-24.71-.07-36.78,0-3.36.73-4.67,4.37-4.61,9.37.16,9.38,0,9.38,9.3,0,19.23-.07,38.46.07,57.69,0,3.13-.78,4.2-4,4.17-9.13-.07-9.11.06-12.52-8.38q-6.64-16.43-13.34-32.83Z"/><path class="cls-1" d="M1148.21,324.64v42.49c-3.9,0-7.86.08-11.81-.08-.6,0-1.41-1.07-1.66-1.81a9.17,9.17,0,0,1-.12-2.88q0-30.67,0-61.36c0-5.09,0-5.09,4.94-5.11,8.35-.05,8.36-.05,11.55,7.72q6.06,14.75,12.1,29.5a9.2,9.2,0,0,0,2.22,3.43c-.17-2.3-.49-4.59-.5-6.89,0-10,.09-20.09-.09-30.13-.06-3,1-3.85,3.74-3.66a53,53,0,0,0,6.55,0c2.55-.15,3.73.7,3.72,3.48q-.11,32.31,0,64.63c0,2.59-1,3.22-3.43,3.23-9.67,0-9.68.12-13.27-8.76-4-9.85-8-19.71-12-29.56C1149.71,327.71,1149.11,326.57,1148.21,324.64Z"/><path class="cls-1" d="M655.28,443.4c0,12.83-.11,25.13.08,37.42.06,3.41-.79,4.62-4.39,4.55-9.36-.16-9.37,0-9.37-9.35,0-19.11.09-38.22-.07-57.33,0-3.52,1-4.54,4.51-4.48,8.76.16,8.75,0,12.05,8.11q6,14.76,12,29.51a7.28,7.28,0,0,0,2.1,3c-.21-2.56-.57-5.12-.59-7.69-.07-9.91,0-19.83-.08-29.75,0-2.39.78-3.21,3.12-3.16,13.15.27,10.7-1.85,10.8,10.12.15,18.74-.05,37.49.11,56.23,0,3.66-1.05,4.83-4.73,4.75-8.41-.18-8.43,0-11.56-7.71q-6.15-15.09-12.26-30.2C656.55,446.25,656,445.06,655.28,443.4Z"/><path class="cls-1" d="M832.12,213.33c0,8.19-1,16.43-5,24-4.24,7.81-10.58,12.34-19.79,12.38s-15.71-4.34-19.91-12.18c-5.16-9.61-6-20.11-4.8-30.66a59.71,59.71,0,0,1,4.07-16.38c3.71-8.83,10.66-14,20.6-13.93s16.51,5.31,20.62,14C831.24,197.68,832.08,205.32,832.12,213.33Zm-14.29-.41-.39-.06c-.17-2.9-.22-5.8-.54-8.68a38.73,38.73,0,0,0-1.28-6c-1.67-6-4.66-9-8.6-8.93-3.78.09-6.79,3.18-8.34,8.85-2.17,7.94-2.13,16.06-1,24.1a33.19,33.19,0,0,0,3.6,11.24c2.65,4.85,8.44,4.87,11.65.36a15.7,15.7,0,0,0,2.68-5.88C816.55,223,817.1,217.93,817.83,212.92Z"/><path class="cls-1" d="M904.93,331.34c.25,7.89-.61,15.31-3.8,22.25-4,8.8-10.5,14.34-20.68,14.46s-17.23-5.09-20.92-14a57,57,0,0,1,.16-45.43c3.82-8.94,11-14,21.13-13.71,9.79.25,16.21,5.66,20.17,14.18A47.24,47.24,0,0,1,904.93,331.34Zm-35.8,0c1.19,5.9,2.13,11.84,3.66,17.63.93,3.53,3.28,6.32,7.46,6.29s6.29-2.93,7.44-6.39a54.39,54.39,0,0,0,.07-34.86c-1.14-3.48-3.33-6.24-7.45-6.43-3.32-.15-6.46,2.11-7.7,6.56C871.08,319.72,870.29,325.45,869.13,331.38Z"/><path class="cls-1" d="M925.11,335.66c-.07,1.13-.2,2.26-.21,3.4,0,8.22-.09,16.45,0,24.67.05,2.69-.82,3.67-3.56,3.48-3.25-.23-6.53-.06-10.39-.06v-3.59c0-21.29.07-42.58-.07-63.87,0-3.1,1-4,3.94-3.84,6.51.38,13.1.12,19.55.95,7.52,1,13.19,4.94,14.85,12.83,1.81,8.58,1.21,16.84-6.25,22.77-2.56,2-2.7,3.55-1.61,6.27,3.71,9.27,7.19,18.62,11,28.47-4.71,0-8.91.15-13.09-.11-.87-.06-2-1.49-2.4-2.52-3.35-8.54-6.54-17.14-9.8-25.72-.4-1.08-.88-2.14-1.32-3.21Zm0-9.36c4.7.92,8-.32,10-3.55,2.08-3.46,2-9.51-.19-12.42-2.07-2.76-5.69-3.62-9.8-2.29Z"/><path class="cls-1" d="M828.28,367.15c-4,0-7.38-.17-10.75.06-2.72.19-4-.67-5-3.34-2.95-8.44-6.22-16.76-9.39-25.12a7.09,7.09,0,0,0-2.24-3.23v31.33H787.44c-.07-1.09-.19-2.25-.19-3.42,0-21.18.06-42.36-.09-63.53,0-3.28,1-4.23,4.13-4.06,5.44.3,10.92.05,16.34.5,14,1.19,19.44,9.68,18.39,22.67-.47,5.88-2.93,11-8.08,14.36-1.77,1.15-1.61,2.31-1,3.92q4.92,12.66,9.75,25.36C827.22,364,827.66,365.35,828.28,367.15Zm-27.46-59.36c0,5.63-.12,11.16.12,16.67,0,.81,1.72,2.17,2.69,2.21,3.49.16,6.47-1.24,7.92-4.6,1.75-4.08,2.08-8.3-.85-12C808.23,307,804.75,306.91,800.82,307.79Z"/><path class="cls-1" d="M1310.31,367H1296l-12-31.51-.74.15v31.53c-4.26,0-8.22.16-12.15-.14-.7-.06-1.77-2-1.79-3.09-.14-8.83-.08-17.67-.08-26.51,0-12.46.08-24.93-.06-37.39,0-3.19,1-4.36,4.19-4.15,6.51.42,13.16,0,19.54,1.08,10.81,1.88,15.82,8.91,15.39,19.87-.27,6.74-2.35,12.61-8.18,16.55-1.7,1.14-1.66,2.22-1,3.93,3.35,8.55,6.59,17.14,9.86,25.72C1309.42,364.2,1309.79,365.44,1310.31,367Zm-27-40.41c4.44.62,8-.19,10.07-4,2.12-3.93,2.36-8.14-.18-12.07-1.87-2.89-5.39-3.74-9.89-2.64Z"/><path class="cls-1" d="M694.89,449.8c0-10.64.08-21.29,0-31.93,0-2.62.61-3.78,3.41-3.62,5.79.34,11.73-.24,17.37.84,11.18,2.12,17.45,9.84,20.14,20.49a58.19,58.19,0,0,1,.44,27.3c-3.25,14.48-11.55,21.57-26.29,22.35-4,.21-8,0-12,.08-2.39.08-3.37-.87-3-3.21a2.16,2.16,0,0,0,0-.36Zm14.26-22.91v45.87c4.61,0,7.09-1.18,9.62-4.52,6.63-8.75,6.57-28.12-.19-36.76C716.27,428.52,713.33,426.61,709.15,426.89Z"/><path class="cls-1" d="M915.92,485.23c-4.72,0-8.83.18-12.89-.14-1-.08-2.17-1.71-2.63-2.87-3.17-8.09-6.16-16.24-9.23-24.37a9.23,9.23,0,0,0-2.39-3.79v6.27c0,7.26-.08,14.51,0,21.77,0,2.33-.67,3.26-3.06,3.21-13.27-.29-10.74,1.94-10.85-10.43-.16-18.62,0-37.25-.11-55.87,0-3.56.88-5.08,4.67-4.77,6.73.54,13.59.21,20.22,1.28,8.83,1.43,13.6,7.88,14,16.85.37,8-1.47,14.81-8.3,19.77-.7.51-.92,2.54-.54,3.57,3.08,8.51,6.36,17,9.57,25.41C914.86,482.22,915.25,483.35,915.92,485.23Zm-27.14-50c0,2.3.13,4.61,0,6.9-.18,2.54,1,3.14,3.27,3,5.08-.36,8.28-4,8.57-9.94.25-5.18-2.46-8.56-7.48-9.55-2.92-.58-4.76-.2-4.36,3.45A57.5,57.5,0,0,1,888.78,435.26Z"/><path class="cls-1" d="M1104.55,311.48l-13.08,5.08c-.57-1.55-1-2.87-1.54-4.17-1-2.52-2.49-4.42-5.39-4.76a6.67,6.67,0,0,0-7.09,3.41,33.53,33.53,0,0,0-3.24,8.75,60.59,60.59,0,0,0,.15,25.19c.05.24.07.48.13.71,1.85,6.87,5.78,10.34,10.82,9.56,4.18-.65,7.61-6.33,7.28-12.43,0-.81-1.12-1.78-2-2.26a4.2,4.2,0,0,0-2.5-.09c-3.49.51-4.59-.89-4.52-4.41.16-8.47,0-8.48,8.34-8.48h14.31c.37,11.94.54,23.71-7.19,33.6s-23.82,9.32-32.18-.77c-5-6-7.21-13.17-8-20.67-1-9.55-.65-19.08,2.69-28.27,4.67-12.9,15.45-19.11,27.87-15.9C1097.52,297.65,1101.83,303.42,1104.55,311.48Z"/><path class="cls-1" d="M744.31,443.63c0-8.71.07-17.43,0-26.14,0-2.33.7-3.15,3.08-3.25,10.53-.43,10.52-.5,10.52,9.94,0,12.83,0,25.66,0,38.49a27.75,27.75,0,0,0,.7,6.09,6.48,6.48,0,0,0,7.15,5.34c3.77-.29,6.07-2.26,6.22-6.26.3-7.85.26-15.72.3-23.59,0-8.71.08-17.43,0-26.14,0-2.75.82-3.83,3.73-3.88,10.22-.18,10.22-.27,10.22,9.86,0,14.16,0,28.32,0,42.48a33.25,33.25,0,0,1-.9,7.9C783.4,481.76,778,485.29,771,486a47.89,47.89,0,0,1-14.39-.66c-7.63-1.6-12.1-7.93-12.3-15.92,0-.24,0-.48,0-.72Z"/><path class="cls-1" d="M699.26,323.94c0,9.31.43,18.64-.11,27.92-.57,9.65-5.35,14.62-14.84,15.81a45,45,0,0,1-13.69-.55c-7.89-1.49-12.74-7.3-12.85-15.36-.24-17.66-.1-35.33-.17-53,0-2,.67-2.73,2.7-2.9,11-.89,11-.93,11,9.81,0,13.19,0,26.38,0,39.57a21.52,21.52,0,0,0,.75,5.71c.95,3.4,3.68,5.07,7.19,4.75s5.7-2.3,6.1-6a69.89,69.89,0,0,0,.32-7.24c0-14,.12-28.07,0-42.11,0-3.53,1.13-4.56,4.59-4.52,9.39.12,9.39,0,9.39,9.25v18.87Z"/><path class="cls-1" d="M1348.57,248.56H1335l16.45-70.74c4.44,0,8.9-.14,13.33.13.75,0,1.78,1.72,2,2.8q7.38,30.21,14.59,60.47c.56,2.32,1.06,4.66,1.71,7.52-4.6,0-8.8.12-13-.1-.77,0-1.84-1.31-2.14-2.22-1-3.07-.77-7.5-2.8-9-2.24-1.66-6.48-.48-9.8-.88s-4.72,1.17-5.16,4.28C1349.84,243.41,1349.13,246,1348.57,248.56Zm15-22.95c-1.71-9.62-3.36-18.85-5-28.08h-.79c-1.41,9.26-2.83,18.52-4.29,28.07Z"/><path class="cls-1" d="M914.71,248.59H901.27c.62-3,1.12-5.84,1.77-8.6q6.86-29.61,13.74-59.21c.47-2,1.16-3.17,3.55-3.06,3.85.2,7.72.06,11.92.06,5.67,23.59,11.3,47,17,70.7H934.6c-.59-2.56-1.41-5.31-1.81-8.12-.42-3-1.81-4.25-4.83-3.8a27.24,27.24,0,0,1-3.26,0c-8.87.18-6.84-1.38-9,7.53C915.4,245.51,915.09,246.92,914.71,248.59Zm10-51.11-.76,0-4.24,28.05h10C928,215.91,926.36,206.69,924.7,197.48Z"/><path class="cls-1" d="M1383.73,367.14c-4.59,0-8.81.12-13-.11-.74,0-1.73-1.43-2-2.37-1-3.08-.75-7.54-2.78-9-2.24-1.66-6.48-.48-9.83-.81-3.07-.29-4.68.65-5,3.91a83.26,83.26,0,0,1-1.72,8.26h-13.59c1.57-6.88,3.06-13.55,4.6-20.21,3.62-15.64,7.34-31.25,10.83-46.91.68-3,1.9-4.09,5.06-4.06,10.49.11,10.51,0,12.94,10.07q7,28.86,13.88,57.72C1383.3,364.63,1383.46,365.68,1383.73,367.14Zm-29.47-23.26h10.1c-1.72-9.59-3.37-18.77-5-28l-.79.05C1357.13,325.18,1355.72,334.39,1354.26,343.88Z"/><path class="cls-1" d="M1383.08,485.23c-4.62,0-8.7.08-12.78-.08-.7,0-1.44-1-2-1.62-.29-.31-.27-.91-.4-1.37-.8-2.87-1-7.68-2.55-8.21-3.83-1.28-8.32-.62-12.55-.56-.59,0-1.29.88-1.71,1.5-.31.46-.22,1.17-.35,1.76-2,8.68-2,8.68-11,8.64h-4.51c1.73-7.49,3.35-14.48,5-21.47,3.55-15.27,7.18-30.53,10.58-45.84.61-2.79,1.69-3.75,4.55-3.76,11,0,11-.14,13.51,10.35q6.85,28.51,13.64,57C1382.64,482.51,1382.76,483.46,1383.08,485.23Zm-24.27-50.9-.77-.14c-1.45,9.31-2.9,18.62-4.38,28.16h10.13Z"/><path class="cls-1" d="M943.74,484.62q4.44-19.22,8.88-38.42c2.21-9.52,4.49-19,6.61-28.58.52-2.35,1.43-3.37,4.07-3.4,11.24-.15,11.28-.25,13.94,10.69q7,28.86,13.93,57.74c.14.57.14,1.18.29,2.47-4.57,0-9,.09-13.34-.12-.6,0-1.35-1.49-1.65-2.42-.93-3-.78-7.25-2.75-8.65-2.21-1.57-6.3-.31-9.52-.73-3.64-.48-4.8,1.17-5.43,4.41-1.47,7.71-1.6,7.7-9.51,7.67-1.45,0-2.91-.06-4.36-.15A4.54,4.54,0,0,1,943.74,484.62Zm23.5-50.28h-.84c-1.41,9.27-2.83,18.54-4.27,28h10.09C970.52,452.74,968.88,443.54,967.24,434.34Z"/><path class="cls-1" d="M1143.56,485.25c-4.5,0-8.48.18-12.43-.13-.94-.07-2.27-1.63-2.55-2.72-2.37-9.13-2.32-8.89-11.72-9.25-4-.15-5.46,1.23-6.09,5-1.22,7.17-1.41,7.14-8.85,7.14h-6.2c2.31-10.06,4.48-19.54,6.67-29,2.91-12.58,5.9-25.15,8.7-37.75.67-3,1.76-4.39,5.22-4.33,10.36.19,10.43,0,12.9,10.17q7,28.84,13.88,57.73C1143.29,482.89,1143.34,483.73,1143.56,485.25ZM1119.31,434l-.7-.06c-1.45,9.39-2.9,18.78-4.4,28.47h10.12C1122.62,452.71,1121,443.34,1119.31,434Z"/><path class="cls-1" d="M1099.66,414.29c-2.55,9.28-4.86,17.76-7.21,26.23-3.83,13.84-7.74,27.65-11.5,41.5-.63,2.35-1.63,3.32-4.19,3.33-8,0-8,.15-10.32-7.71q-8.55-29.37-17.09-58.72c-.36-1.26-.6-2.55-1-4.54,4.6,0,8.89-.14,13.16.13.77.05,1.8,1.74,2.07,2.83,3.41,13.57,6.69,27.17,10,40.77.11.45.23.9.56,2.19,1.52-6.72,2.79-12.64,4.21-18.52,2-8.09,4.1-16.14,6-24.23.57-2.38,1.62-3.46,4.21-3.31C1092,414.44,1095.49,414.29,1099.66,414.29Z"/><path class="cls-1" d="M721.39,337.55v29.07c-.52.25-.73.44-.94.44-4.09-.08-8.17-.18-12.26-.27-.22-3.94-.62-7.87-.63-11.81-.07-18.15.06-36.3-.11-54.45,0-3.69,1.1-4.94,4.77-4.7,4.94.32,9.93.07,14.88.34,17,.9,20.27,13.57,18.85,24.41-1.39,10.57-8.64,16.64-19.32,17C725.08,337.59,723.53,337.55,721.39,337.55Zm.22-11.56c4.89.55,7.78-.56,9.49-3.44,2-3.4,1.81-9.46-.52-12.4s-5.43-3.15-9-2.43Z"/><path class="cls-1" d="M1090.9,235.88v12.68h-27.67V178.12h27.54v12.44h-13.92V206.1h11.92v13.05c-2.11,0-4,0-5.91,0-7.36.06-6.2-.63-6.3,6.47,0,2.18.15,4.37,0,6.53-.24,2.8.71,4,3.65,3.78C1083.63,235.72,1087.12,235.88,1090.9,235.88Z"/><path class="cls-1" d="M644.17,206.09v13.06c-3.13,0-6.22.09-9.31,0-2.16-.08-3,.68-3,2.92.14,3.62.13,7.26,0,10.88-.08,2.19.69,3,2.9,3,3.73-.12,7.47,0,11.44,0v12.86c-8.79,0-17.47,0-26.15-.08-.68,0-1.51-1.13-2-1.91-.32-.56-.11-1.42-.11-2.14,0-20.81.07-41.61-.08-62.41,0-3.47.94-4.64,4.49-4.5,6.77.26,13.56.15,20.35,0,2.44,0,3.4.69,3.48,3.26.3,9.65.39,9.65-9.32,9.65-1.54,0-3.08,0-4.83,0-.08,1.22-.17,2-.18,2.85,0,4.09,0,8.18,0,12.6Z"/><path class="cls-1" d="M1262,354.28V366.9a12.87,12.87,0,0,1-1.59.23h-26.21c-.07-1.41-.18-2.69-.18-4,0-21,.08-42.09-.1-63.13,0-3.48,1.13-4.31,4.34-4.22,6.9.19,13.81.11,20.71,0,2.26,0,3.16.66,3.21,3.1.2,9.77.28,9.77-9.56,9.81-4.92,0-4.92,0-4.93,5,0,2.66.09,5.32,0,8-.09,2.12.6,3.13,2.89,3s4.37.09,6.54-.07,3.19.57,3.29,3c.4,9.68.48,9.76-9.14,9.86-2.63,0-3.74.78-3.6,3.52.18,3.38.14,6.77,0,10.16-.09,2.39.92,3.2,3.23,3.13C1254.45,354.19,1258.06,354.28,1262,354.28Z"/><path class="cls-1" d="M987.17,308.78v15.75h12.09v13H987.32v16.6h13.93v12.8H973.62c-.08-1.21-.23-2.38-.23-3.55,0-21.06.06-42.12-.08-63.18,0-3.31.91-4.45,4.27-4.34,6.54.22,13.09.16,19.64,0,2.85-.06,4.19.72,4.11,3.85-.26,10.78,1.28,8.88-9,9.09C990.66,308.81,989,308.78,987.17,308.78Z"/><path class="cls-1" d="M1197.47,427.18c0,5-.12,9.33.11,13.66A3.31,3.31,0,0,0,1200,443c3.25.25,6.54.1,10.11.1V456c-3,0-6.12.1-9.21,0-2.46-.11-3.56.71-3.44,3.3.16,3.39.13,6.78,0,10.17-.08,2.18.73,3.08,2.93,3,2.91-.09,5.82.07,8.73,0,2.19-.06,3,.85,2.94,3-.3,12,1.89,9.62-9.53,9.86-5.09.11-10.18,0-15.27.05-2.35,0-3.46-.5-3.45-3.21q.15-32.33,0-64.64c0-2.36.7-3.24,3.08-3.21,7.27.09,14.55.07,21.82,0,2.21,0,3.2.56,3.26,3.06.22,9.81.31,9.81-9.54,9.85Z"/><path class="cls-1" d="M765.76,308.78v15.74H778v13c-3.31,0-6.54.05-9.77,0-1.84,0-2.65.68-2.63,2.54,0,3.87.07,7.75,0,11.62,0,2.15,1.08,2.65,3,2.6,2.91-.08,5.82.06,8.73,0,2-.06,3,.7,2.84,2.73a5.77,5.77,0,0,0,0,.72c.32,9.43.32,9.43-9.13,9.43-5.22,0-10.43-.1-15.64.05-2.44.07-3.46-.59-3.45-3.2q.11-32.33,0-64.64c0-2.4.74-3.53,3.33-3.5q10.72.15,21.46,0c2.32,0,3.12.82,3.18,3.18.28,9.71.35,9.71-9.32,9.74Z"/><path class="cls-1" d="M619.07,352.26a70.34,70.34,0,0,0,7.29,2.67c4.69,1.14,8.94-.65,10.62-4.18,1.77-3.74.65-7.73-3.28-10.85-2.75-2.18-5.77-4-8.5-6.2-8.78-7.05-11.38-17.67-7-28,5.3-12.54,19.07-12.82,27.62-8.07a3.56,3.56,0,0,1,1.36,2.59c.15,3.49.06,7,.06,10.55-2.92-1.18-5.6-2.46-8.4-3.33s-6.05-.27-7.38,2.34a12.88,12.88,0,0,0-.81,7.78c.37,1.89,2.23,3.68,3.8,5.1,2.51,2.26,5.38,4.12,8,6.26,8.41,6.86,11,15.7,7.53,26-3.88,11.68-18.92,17.25-29.28,10.77a3.63,3.63,0,0,1-1.54-2.5C619,359.68,619.07,356.18,619.07,352.26Z"/><path class="cls-1" d="M671.29,234.43a101.07,101.07,0,0,0,10.19,2.28c3.6.42,6.33-1.39,7.8-4.73a8,8,0,0,0-2.41-9.53c-3-2.48-6.2-4.64-9.33-6.91-9.79-7.1-11-18.45-7.25-28,4.87-12.4,18.38-13.22,27.51-8.42a2.8,2.8,0,0,1,1.39,1.89c.13,3.7.06,7.41.06,11.26-3-1.18-5.43-2.39-8-3.15-3.16-.93-6.14-.17-8.05,2.64a7.53,7.53,0,0,0,0,8.58,23.79,23.79,0,0,0,4.65,5c2.29,2,4.8,3.68,7.21,5.52,10.08,7.65,10.06,20.44,5.47,29.14-4.91,9.29-18.8,12.91-27.61,7.33-.66-.42-1.53-1.18-1.55-1.8C671.22,241.79,671.29,238,671.29,234.43Z"/><path class="cls-1" d="M824.4,429.05c-2.87-1.2-5.24-2.37-7.71-3.19a7,7,0,0,0-7.94,2.11,7.11,7.11,0,0,0-.66,8.49,22.25,22.25,0,0,0,4.69,5.43c2.53,2.24,5.36,4.15,8,6.24,10.52,8.22,8.75,22.66,4.18,29.93-6.09,9.68-19.52,10-26.9,6a3.6,3.6,0,0,1-1.67-2.48c-.19-3.48-.08-7-.08-10.95,2.56.94,4.61,1.84,6.73,2.43,5.13,1.43,9.46-.18,11.26-4s.53-7.85-3.67-11.07c-3.07-2.36-6.29-4.53-9.35-6.91-10.16-7.92-8.86-22.81-4.22-30,6.18-9.6,18.41-9.19,25.91-5.16a2.76,2.76,0,0,1,1.34,1.9C824.47,421.47,824.4,425.17,824.4,429.05Z"/><path class="cls-1" d="M1213.34,367h-13.57c0-4.17-.36-8.28.07-12.3,1.54-14.67-1.67-28.15-9-40.92-3.09-5.4-5.29-11.31-8.25-17.74,5.16,0,9.68-.1,14.19.11.67,0,1.51,1.39,1.87,2.3,2.26,5.73,4.4,11.5,6.59,17.26.29.76.64,1.49,1.21,2.81,2.47-6.87,4.84-13.13,6.94-19.47.77-2.34,1.89-3.31,4.39-3.2,3.83.18,7.69.05,12.12.05-1.09,2.59-1.91,4.57-2.76,6.53-1,2.21-2,4.41-3,6.61-3.58,8.06-8.52,15.83-10.36,24.26s-.47,17.34-.51,26C1213.33,361.75,1213.34,364.16,1213.34,367Z"/><path class="cls-1" d="M762.24,190.29c-15.73-1.23-25.12,9-23,24.93a40.71,40.71,0,0,0,2.23,9.11c3.54,9.28,9.8,12.66,20.79,11.28,0,3.77.13,7.5-.11,11.2-.05.76-1.4,1.88-2.3,2.06-8.37,1.65-15.91-.56-22.38-5.86-17.29-14.17-17.43-45.24-.35-59.66a26.87,26.87,0,0,1,22-6.19c2.29.32,3.37,1.26,3.21,3.75C762.08,184,762.24,187.15,762.24,190.29Z"/><path class="cls-1" d="M1150.1,235.75c0,3.75.14,7.47-.11,11.17,0,.74-1.46,1.81-2.39,2-8.11,1.58-15.39-.61-21.76-5.59-17.9-14-17.87-46.5,0-60.55a26.85,26.85,0,0,1,21.11-5.63c2.31.32,3.39,1.26,3.24,3.74-.18,3.1,0,6.22,0,9.35-14.25-1-21.59,5.43-22.81,19.43a30.39,30.39,0,0,0,3,16.54C1134.28,234.13,1139.52,236.71,1150.1,235.75Z"/><path class="cls-1" d="M1316.65,190.48c-13.6-2-22.06,5.13-23,19.61a36.23,36.23,0,0,0,2.11,13.81c3.38,9.77,9.9,13.21,20.87,11.68,0,3.76.16,7.48-.12,11.17-.06.81-1.59,2-2.59,2.18-9.83,1.61-18.27-1.45-25-8.6-12.88-13.7-13.65-37.9-1.8-52.54,6.75-8.34,15.5-12.06,26.3-10.64,2.27.3,3.43,1.18,3.26,3.71C1316.49,184,1316.65,187.11,1316.65,190.48Z"/><path class="cls-1" d="M1309,472.42c0,3.74.19,7.47-.15,11.14-.08.83-1.93,2-3.07,2.15-10.89,1.29-19.71-2.58-26.44-11.14-11.53-14.69-10.7-38.23,2-51.94a26.74,26.74,0,0,1,24.57-8.78c2.47.35,3.4,1.49,3.19,3.83,0,.36,0,.72,0,1.09-.1,2.4.65,5.5-.56,7-1,1.28-4.36.7-6.66,1-6.62.89-11.06,4.69-13.53,10.7a30,30,0,0,0,1,25.61C1293.08,470.89,1298.76,473.54,1309,472.42Z"/><path class="cls-1" d="M1029.91,190.59v58.15c-4.11,0-8.07.17-12-.17-.72-.06-1.8-2.21-1.82-3.41-.13-13.17-.08-26.36-.08-39.53V190.77h-10.94V178h35.51v12.56Z"/><path class="cls-1" d="M857.55,427.59v9c0,15-.07,30,.06,45,0,2.85-.82,3.75-3.67,3.78-10.07.1-10.07.19-10.07-9.72V427.16c-3,0-5.64,0-8.26,0-3.86.05-3.23-3-2.81-4.89.59-2.7-2.74-7.56,2.69-7.83,10.15-.5,20.34-.13,30.52-.15,2,0,2.71.85,2.87,2.82.81,9.58.86,9.57-8.71,10.1C859.46,427.26,858.75,427.41,857.55,427.59Z"/><path class="cls-1" d="M883.41,248.57H855.12V178h13.24c.07,1.36.21,2.74.21,4.13,0,16.56.09,33.12-.05,49.67,0,3.18.91,4.34,4.12,4.12,3.48-.25,7-.06,10.77-.06Z"/><path class="cls-1" d="M1011,472.41c4.23,0,8,.06,11.69,0,2.14,0,2.9.75,3,3,.32,10,.39,10-9.4,10-5.21,0-10.42-.1-15.62,0-2.68.07-3.59-1-3.58-3.62q.1-31.9,0-63.81c0-2.62.89-3.58,3.57-3.65,10.37-.28,10.37-.36,10.37,10v48.13Z"/><path class="cls-1" d="M1163.07,472.4c4.08,0,7.7.09,11.3,0,2.45-.09,3.35.73,3.37,3.31.1,9.61.19,9.61-9.38,9.61-5.21,0-10.41-.09-15.62,0-2.65.06-3.61-.94-3.6-3.59q.09-31.91,0-63.82c0-2.59.83-3.6,3.54-3.67,10.4-.29,10.39-.38,10.39,10V472.4Z"/><path class="cls-1" d="M1112.46,366.89v-8.61c0-19.6,0-39.21,0-58.81,0-2.62.67-3.59,3.44-3.64,10.29-.19,10.29-.29,10.29,9.86v61.2Z"/><path class="cls-1" d="M1331.32,367h-13.47c-.07-1.22-.2-2.39-.2-3.55,0-21.18.06-42.36-.08-63.53,0-3.25,1-4.11,4.11-4.09,9.64.05,9.64-.06,9.64,9.44V367Z"/><path class="cls-1" d="M1242.18,248.75V177.83c4.06,0,8-.18,11.93.17.71.06,1.73,2.29,1.75,3.53.14,10.64.08,21.29.08,31.94,0,10.4-.08,20.8,0,31.21,0,3-.61,4.47-4,4.14C1248.88,248.51,1245.71,248.75,1242.18,248.75Z"/><path class="cls-1" d="M938.25,450.15c0,10.53-.08,21.07.06,31.59,0,2.68-.72,3.56-3.45,3.61-10.52.18-10.52.27-10.52-10.14,0-18.77.1-37.53-.07-56.29,0-3.71,1.14-4.78,4.77-4.71,9.21.16,9.21,0,9.21,9.07Z"/><path class="cls-1" d="M631.94,449.79c0,10.65-.08,21.3.06,31.95,0,2.68-.72,3.56-3.45,3.61-10.52.18-10.52.27-10.52-10.14,0-18.77.1-37.53-.07-56.29,0-3.71,1.14-4.78,4.77-4.71,9.21.16,9.21,0,9.21,9.07Z"/><path class="cls-1" d="M1329.75,450.17c0,10.51-.08,21,0,31.54,0,2.61-.66,3.59-3.43,3.64-10.3.19-10.3.28-10.3-9.84,0-19,.07-37.94-.07-56.92,0-3.25.83-4.41,4.23-4.38,9.52.1,9.52,0,9.52,9.49Z"/><path class="cls-1" d="M849.22,331.75c0,10.53-.09,21.06.06,31.59,0,3-.85,4.2-3.91,3.86a27.17,27.17,0,0,0-6.18,0c-3,.36-3.66-1.06-3.65-3.74.07-21.19.1-42.37,0-63.55,0-3.29,1.22-4.15,4.28-4.07,11.16.3,9.27-1.49,9.4,9.4C849.31,314.07,849.22,322.91,849.22,331.75Z"/><path class="cls-1" d="M1067.06,158.31l9.36-4.23,8.9,13.29-6.18,3.76C1075.22,167,1071.36,162.87,1067.06,158.31Z"/><path class="cls-1" d="M1188.09,395l9.32-4.21L1206.3,404l-6.22,3.79Z"/><path class="cls-1" d="M298.33,144.86l2.6,2c-.87.79-1.63,2-2.63,2.28-4.43,1-8.91,1.89-13.4,2.6-1,.15-2.08-.57-3.13-.89.62-.88,1.08-2.34,1.87-2.56C288.38,147,293.19,146,298.33,144.86Z"/><path class="cls-1" d="M353.93,144.89c5,1.14,9.46,2,13.84,3.26.92.26,1.5,1.71,2.24,2.62-1.12.29-2.3,1-3.36.81-4.26-.65-8.51-1.43-12.7-2.43-1.16-.27-2.1-1.48-3.14-2.26Z"/><path class="cls-1" d="M330.93,144.79c-5,4.11-5,4.11-9.53,0C326,141.08,326,141.08,330.93,144.79Z"/></svg>