<svg id="Logos_Patrocinadores" data-name="Logos Patrocinadores" xmlns="http://www.w3.org/2000/svg" viewBox="0 0 1500 600"><defs><style>.cls-1{fill:#7a97ab;}</style></defs><path class="cls-1" d="M879,206.93q-4.22,20.3-8.45,40.6-7.47,35.68-15,71.33c-.91,4.31-1,4.3-5.37,4.3-8,0-16.09,0-24.14,0-.78,0-1.88.41-2.25-.55s.66-1.44,1.2-2c5.46-6.12,11.28-12,15.68-19a36.58,36.58,0,0,0,5.68-14.37c1.13-8-1.54-14.6-6.52-20.63C824,247.5,798.3,255.83,788.09,268.1c-8.23,9.89-13.07,21.37-16.24,33.67a86,86,0,0,0-3.06,19.07c0,1.68-.86,2.39-2.52,2.38q-12.69-.09-25.39-.11c-2.26,0-2.9-1.17-2.76-3.19a135.74,135.74,0,0,1,2.6-17.63c1.37-6.74,2.66-13.47,2.42-20.42a24.07,24.07,0,0,0-9.6-19.07c-12.87-10-27.79-10.58-41.35-1.56a57.17,57.17,0,0,0-16.35,16.15c-7.18,10.95-6.24,22.37-1.7,33.93a90.42,90.42,0,0,0,4.78,10c1,1.8.43,2.38-1.48,2.37-9.89,0-19.78-.05-29.67,0-2.42,0-2.5-1-2.08-3q7.09-32.54,14.08-65.11,5.24-24.32,10.42-48.66Z"/><path class="cls-1" d="M1074.63,209.45c-2.15,7.93-3.58,16-5.32,24-2.33,10.73-4.57,21.48-6.85,32.21-.83,3.83-.91,3.88-4.55,2.07-4.65-2.32-9.33-4.58-13.92-7-9.06-4.82-18.28-4.85-27.68-1.2-8.59,3.31-16.19,8.13-22.18,15.18-8.1,9.57-9,20.54-5.91,32.22a76,76,0,0,0,5.83,14.69c1,1.88.63,2.53-1.49,2.53q-29.67,0-59.34,0c-.71,0-1.71.27-2-.61s.63-1.29,1.14-1.8a104.75,104.75,0,0,0,15.27-19.27c4.19-7,7.22-14.47,5.87-22.89-2-12.34-13.4-26.36-32.32-22.6-10,2-19.23,5.78-28.3,10.15-.68.33-1.34.7-2,1s-1.26.82-1.86.3-.21-1.27-.08-1.9q3.8-18.84,7.62-37.7c1.49-7.3,3-14.6,4.54-21.9q85.51,0,171-.06c2.12,0,3,.45,2.51,2.58"/><path class="cls-1" d="M643,206.93c1.56,7.9,1.74,15.56-4.38,21.88-2.79,2.89-6.52,4-10.32,4.84-5.69,1.32-11.52.73-17.25,1.5-14.93,2-28.82,6.94-40.19,16.95-9.15,8-12.15,18.85-9.23,30.66,2.84,11.5,10.38,19.08,22,21.76,8.35,1.92,16.26-.58,23.91-3.94a77,77,0,0,0,12.88-7.78c2.84-2,3-2,3.26,1.54.42,6.17.77,12.37-.25,18.54-.9,5.36-3.93,8.73-9.22,10.08a43.31,43.31,0,0,1-10.2,1.28c-38,.6-75.93.3-113.9.36-3.24,0-3.42-.28-2.7-3.54q12.65-57.06,25.3-114.13Z"/><path class="cls-1" d="M471,406.13c2-6.5,2.89-13.23,4.39-19.85q1.23-5.5,2.29-11.06c.32-1.68,1.09-2.51,2.87-2.39,1.34.1,2.68,0,4,0,1.92,0,4-.17,2.36,3.45,1.54-1,2.4-1.58,3.31-2.11,3.89-2.24,7.94-3.07,12.27-1.38a6.36,6.36,0,0,1,3.68,3.25c.71,1.59,1.3,1.26,2.28.29a15.77,15.77,0,0,1,8.67-4.26c7.42-1.3,12.52,3.42,11.23,10.81C527,391,525.12,399,523.51,407a2.28,2.28,0,0,1-2.56,2.15c-1.85,0-3.68,0-5.53,0s-2.43-.9-2-2.7c1.54-7.21,3-14.44,4.49-21.65.35-1.71,1-3.68-.89-4.8s-4.08-.52-5.85.84A12.32,12.32,0,0,0,507,387c-1.94,6.08-2.81,12.41-4.23,18.6-.82,3.54-.77,3.58-4.45,3.56-7.29,0-6.69.71-5.23-6.45q1.84-9.11,3.73-18.21c.34-1.61.59-3.25-.94-4.37s-3.21-.69-4.77,0c-3.07,1.43-4.67,4.1-5.42,7.19-1.46,6-2.68,12.09-4,18.14-.76,3.62-.77,3.66-4.39,3.66-2.09,0-4.19,0-6.28,0Z"/><path class="cls-1" d="M625.94,388.06c0-3.35-.22-4.36-1.55-5.88-3.44-3.89-9.87-2.79-12.91,2.33A18,18,0,0,0,609,394.6c.15,3.6,2,6.13,5,7a7.8,7.8,0,0,0,8.25-2.9,16.5,16.5,0,0,0,3.71-10.68m-15.6,21.59c-1.37-.63-2.79-1.15-4.09-1.89-6.84-3.88-8.19-10.23-7.46-17.32,1.36-13.18,13-21.15,25.88-17.86,7.71,2,12.45,9,11.66,17.12-1,9.9-5.89,16.69-15.43,19.95Z"/><path class="cls-1" d="M997.16,388.06c.09-4.06-1.16-6.71-4-7.65a7.9,7.9,0,0,0-8.23,1.48c-3.77,3.4-4.89,7.88-4.82,12.71.06,3.52,1.83,6,4.77,6.95,3.26,1.06,6-.05,8.13-2.45a16.6,16.6,0,0,0,4.13-11m-15.59,21.59c-.61-.28-1.2-.6-1.83-.82a14.12,14.12,0,0,1-9.25-9.84c-2.45-8.19.8-18.65,7.72-23.39a20.57,20.57,0,0,1,20.6-2c5.45,2.32,8,7,8.49,12.7,1,10.84-5.49,20.62-14.51,22.93a2.71,2.71,0,0,0-.66.37Z"/><path class="cls-1" d="M561,388c.05-4-1.16-6.36-3.83-7.53a8.35,8.35,0,0,0-9.17,2.23C545,386,543.9,390,544,394.45c.07,3.56,1.74,6,4.62,7.06A7.6,7.6,0,0,0,557,399,17,17,0,0,0,561,388m-15.58,21.69c-.61-.28-1.2-.6-1.83-.82A13.62,13.62,0,0,1,534.4,399c-2.08-8.08.08-18.44,7.86-23.54a20.44,20.44,0,0,1,20.61-1.67c6.56,3,9.6,10,8.11,18.32s-5.69,14.2-13.85,17a8.36,8.36,0,0,0-1.12.56Z"/><path class="cls-1" d="M804,387.87h5.52c1.07,0,1.73-.4,1.79-1.61a6.34,6.34,0,0,0-9-6.2,9.43,9.43,0,0,0-4.9,5.46c-.65,1.58-.32,2.41,1.52,2.37,1.68,0,3.35,0,5,0m-6.58,21.78c-6.18-2.35-10.14-6.57-11.36-13.23-2.57-14.11,9.62-26.91,23.09-24.22a13.29,13.29,0,0,1,11.08,11.19,27.86,27.86,0,0,1,.22,8c-.18,2-1.08,2.88-3.23,2.84-6.21-.12-12.41-.06-18.61,0-2.54,0-3.1.79-2.52,3.25,1.13,4.76,7.49,7.07,10.69,3.28s6.32-2.68,9.85-2.13c1.72.27,2.08,1.07,1.19,2.6a17.1,17.1,0,0,1-8.3,7.38L807,409.65Z"/><path class="cls-1" d="M685.44,387.86h5.5c1.08,0,1.69-.4,1.76-1.6a6.28,6.28,0,0,0-6.67-6.75c-3.33.17-6.88,3.49-7.43,6.81-.19,1.18.34,1.52,1.33,1.53h5.51m-6.69,21.79c-1.87-1.1-3.91-1.83-5.65-3.22-7.22-5.79-7.15-16.81-3.19-24.21,3.82-7.12,10-10.39,18-10.3,7.75.09,13.3,5.29,14.06,13,.87,8.9.53,9.28-8.35,9.28-4.62,0-9.22.07-13.83,0-2.31-.05-2.78,1.06-2.29,3a6.57,6.57,0,0,0,4.95,5.16,6.32,6.32,0,0,0,7-2.39c1.57-2.22,3.26-2.53,5.56-1.84a14.73,14.73,0,0,0,2.22.4c3.26.45,3.4.84,1.55,3.67-2.51,3.86-6.21,6-10.39,7.51Z"/><path class="cls-1" d="M715,409.65c-4.28-1.27-8.09-3.18-10.43-7.27-1.8-3.17-1.54-3.8,2-4.36.57-.08,1.16-.15,1.74-.28,2.62-.58,4.75-.78,6.53,2.21s7.1,3.43,10.29,1.55a3,3,0,0,0,1.88-2.75c-.06-1.41-1.09-2-2.22-2.43-3.45-1.28-7-2.37-10.33-3.91-6.8-3.15-8.1-10.8-2.71-16.07s18.58-6,24.63-1.24a11.44,11.44,0,0,1,3.27,4.68c.62,1.43.16,2.21-1.42,2.4a31.82,31.82,0,0,0-3.21.6c-2.23.49-4.17.92-5.85-1.62-1.33-2-7.3-2.4-9.45-1.15-2,1.16-2,3.23,0,4.28a40.18,40.18,0,0,0,4.72,1.71c2,.7,4,1.31,5.91,2.09,3.86,1.56,6.94,4,7.23,8.47.31,4.8-2,8.36-6,10.82a41.5,41.5,0,0,1-5,2.27Z"/><path class="cls-1" d="M1020.81,409.65c-.78-.32-1.53-.68-2.33-.93a14.12,14.12,0,0,1-7.3-5.49c-2.65-3.72-2.29-4.59,2.14-5.27.74-.12,1.5-.22,2.22-.41,2.16-.57,3.64-.21,4.94,2,2,3.39,8.52,4,11.52,1.48,1.83-1.55,1.6-3.46-.77-4.47-3.55-1.52-7.25-2.65-10.77-4.19-4.56-2-6.29-5.14-5.77-10a9.29,9.29,0,0,1,4.55-7.19c6.89-4.13,14.09-4.43,21.4-1.15a10,10,0,0,1,4.81,5.27c.76,1.65.6,2.72-1.47,3-1.74.23-3.48.54-5.2.88A2.54,2.54,0,0,1,1036,382c-2-2.45-7.14-3.53-9.9-2.19a2.63,2.63,0,0,0-1.69,2.31,2.28,2.28,0,0,0,1.6,2.32c1,.42,2,.75,3.07,1.08a58.79,58.79,0,0,1,8.75,3.13c6.43,3.22,7.82,10.23,3.2,15.75-2.2,2.62-5.12,4-8.15,5.23Z"/><path class="cls-1" d="M941.83,409.65c-8.31-3-11.36-9.77-10.13-19,1.28-9.52,7.33-16.41,16.2-18.28a18.57,18.57,0,0,1,10.39.56,12.24,12.24,0,0,1,6.79,5.66c2.68,4.83,2,6.12-3.43,6.45a10.09,10.09,0,0,0-1.75.13c-1.85.48-2.86,0-3.47-2-.85-2.89-3.48-4.08-6.39-3.28a8.67,8.67,0,0,0-5.57,4.38,22.54,22.54,0,0,0-2.67,11.86c.07,2.27.77,4.14,2.9,5.16s4.26.32,6.11-1a7.39,7.39,0,0,0,2.67-3.29c.63-1.57,1.66-1.88,3.17-1.59,1.81.36,3.63.65,5.45.9s2,1.12,1.29,2.62a18.28,18.28,0,0,1-10.17,9.89c-.63.23-1.23.54-1.83.82Z"/><path class="cls-1" d="M769.8,409.65c-5.1-3.21-5.89-5-4.72-11,1-5.26,2.08-10.52,3.23-15.75.35-1.66,0-2.44-1.74-2.31-2.07.16-2.46-.9-2-2.66a17,17,0,0,0,.54-2.45c.21-1.78,1-2.8,3-2.59a2.2,2.2,0,0,0,2.77-2.38c.11-2.56,1.53-4.06,3.71-5.17s4.19-2.48,6.28-3.71c.5-.29,1.07-.72,1.62-.34s.31,1.05.19,1.61c-.49,2.48-.92,4.95-1.5,7.39-.43,1.86.08,2.61,2.07,2.63,3.24,0,3.24.14,2.61,3.31-.81,4-.81,4.1-5,4.34-1.52.09-2,.89-2.27,2.15-1,5.09-2.13,10.16-3.12,15.27-.59,3.09.22,4.18,3.31,4,2.52-.19,2.91.71,2.25,2.86-.48,1.59-.77,3.25-1.16,4.88Z"/><path class="cls-1" d="M582.67,409.65c-5-2.51-6.18-4.63-5.17-10.27,1-5.43,2.08-10.85,3.26-16.25.4-1.86,0-2.74-2-2.58-1.67.13-2-.75-1.7-2.2.23-1,.45-2,.6-3,.25-1.75,1.05-2.8,3-2.55s2.68-.7,2.75-2.39c.11-2.58,1.59-4,3.75-5.15s4.32-2.57,6.47-3.87c.43-.24.89-.62,1.39-.35.67.36.4,1.05.29,1.59-.52,2.62-1,5.26-1.66,7.86-.42,1.67.07,2.26,1.79,2.33,3.62.15,3.63.22,2.9,3.77-.84,4-.81,4.11-4.64,3.91a2.22,2.22,0,0,0-2.58,2.1c-1,5.26-2.17,10.49-3.17,15.75-.49,2.65.33,3.51,3.07,3.57,3,.07,3,.07,2.44,3.07a18.31,18.31,0,0,1-1.2,4.61Z"/><path class="cls-1" d="M764.16,353.91H484c-4.72,0-4.72,0-3.69-4.72,1.21-5.57,2.46-11.13,3.59-16.72.33-1.62,1.11-2.33,2.71-2.26.76,0,1.51,0,2.27,0H1049c4.85,0,4.83,0,3.78,4.86-1.17,5.41-2.36,10.81-3.42,16.23-.38,1.91-1.24,2.82-3.22,2.63-.91-.09-1.84,0-2.77,0H764.16"/><path class="cls-1" d="M866.38,376c3.92-2.92,8-4.75,12.78-3.79,2.51.51,4.63,1.59,5.75,4,.66,1.4,1.18,1.14,2.14.25a16,16,0,0,1,11.4-4.51c5.54.1,8.88,3.56,8.77,9.08-.09,4.57-1.48,8.91-2.33,13.34-.78,4.12-1.83,8.18-2.56,12.3-.36,2-1.37,2.66-3.26,2.55-1.42-.09-2.85,0-4.27,0-3,0-3.23-.29-2.63-3.17l3.54-16.71c.39-1.89.81-3.77,1.13-5.67.49-3-1.06-4.54-4-4-3.11.54-4.92,2.73-6.25,5.34-2,3.94-2.47,8.34-3.46,12.57-.71,3.09-1.35,6.22-1.91,9.35a2.48,2.48,0,0,1-2.94,2.33,46.89,46.89,0,0,0-5,0c-2.25.15-2.73-.81-2.27-2.88,1.55-7.11,3-14.26,4.48-21.39.37-1.75.88-3.59-1-4.79s-3.72-.56-5.44.47c-2.87,1.72-4.2,4.52-4.92,7.6-1.32,5.7-2.51,11.45-3.72,17.18-.8,3.78-.78,3.79-4.76,3.79l-4,0c-1.54,0-2.1-.78-1.78-2.26q3.38-16.11,6.76-32.21c.14-.66.29-1.48,1-1.6a22.76,22.76,0,0,1,8,0c1.37.28.2,1.79.77,2.86"/><path class="cls-1" d="M655.45,377.12c1.85-1.45,3.09-3.09,5-3.93a11.9,11.9,0,0,1,4.05-1.24c4.49-.32,5.44,1,3.6,4.92a18.8,18.8,0,0,0-.92,2.06c-.57,1.72-1.44,2.5-3.51,2.23-3.64-.47-7.55,2.44-9.47,6.61a49.9,49.9,0,0,0-3,10.6c-.58,2.78-1.21,5.56-1.72,8.35a2.6,2.6,0,0,1-3.1,2.47c-1.59-.08-3.18-.07-4.77,0-2.08.09-2.88-.61-2.4-2.83q3.33-15.45,6.46-30.95c.39-1.91,1.26-2.8,3.23-2.57a16.67,16.67,0,0,0,2,0c4.3,0,4.3,0,4.59,4.27"/><path class="cls-1" d="M839.23,377.4a16.24,16.24,0,0,1,4.2-3.82,9.39,9.39,0,0,1,8.17-1.17c1.31.44,1.76,1.14,1.09,2.45a24.76,24.76,0,0,0-1.32,3c-.81,2.36-2,3.48-4.89,3.36-3.83-.17-6.44,2.51-8.19,5.77-1.94,3.58-2.58,7.59-3.48,11.52-.58,2.61-1.17,5.24-1.57,7.88-.31,2.17-1.39,3-3.55,2.84-1.75-.14-3.51,0-5.28,0-1.4,0-2-.69-1.66-2.11q3.4-16.1,6.75-32.21a2.17,2.17,0,0,1,2.44-2c1.51,0,3,.07,4.53,0,2.19-.12,3.22.59,2.46,2.92a1.45,1.45,0,0,0,.3,1.65"/><path class="cls-1" d="M915.94,409.18c-5.41,0-5.17.25-4-5.08,2-9.24,3.93-18.51,5.71-27.79.5-2.63,1.56-3.6,4.31-3.52,6.65.17,6.71,0,5.38,6.56-1.84,9.1-3.79,18.19-5.63,27.29-.35,1.76-1.11,2.72-3,2.55-.91-.08-1.84,0-2.76,0"/><path class="cls-1" d="M807.28,368.94h-1.77c-1.85,0-2-.76-1-2.13q2.52-3.6,5-7.21a2.81,2.81,0,0,1,2.51-1.37c2.33,0,4.68,0,7,0,.49,0,1.09-.12,1.38.37s-.2.92-.55,1.25c-3,2.8-6,5.6-9,8.36-1.11,1-2.53.65-3.58.72"/><path class="cls-1" d="M924.71,368.5c-5.63,0-5.48.52-4.24-5.33.81-3.91.81-3.91,4.85-3.91,6.19,0,6.19,0,5,5.93-.67,3.31-.67,3.31-5.59,3.31"/></svg>