<svg id="Logos_Patrocinadores" data-name="Logos Patrocinadores" xmlns="http://www.w3.org/2000/svg" viewBox="0 0 1500 600"><defs><style>.cls-1{fill:#7a97ab;}</style></defs><path class="cls-1" d="M551.4,199.15c74.8,0,149.59.15,224.39,0,95.94-.25,191.88-.94,287.82-1.11,39-.06,78,.82,117.05,1.06,5.12,0,7.16,1.31,7.14,6.84q-.24,94.35,0,188.69c0,5.49-2,7.43-7.16,6.84a13,13,0,0,0-1.53,0q-191.43.31-382.87.58-236.61,0-473.23-.58c-10.81,0-10.81,0-10.81-10.74q0-90.53,0-181c0-10.46,0-10.48,10.22-10.48Q436.92,199.14,551.4,199.15Zm-78,124.72c16.81,19.56,37.87,23.66,60.06,23.51s43-4.7,58.35-24.65c0,5.88.26,10.21-.06,14.51-.41,5.48,1.43,7.78,7.3,7.58,11-.39,22-.3,32.93,0,4.91.12,6.85-1.46,6.7-6.52-.29-9.42-.37-18.86,0-28.26.6-13.61,10-21.61,22.18-19.43-1.32,30.32,10,46.36,38.24,53.65a76.74,76.74,0,0,0,15.79,2.7c27.18,1.13,53.74,0,73.48-25.61v22.16h45.71V317.91c14.52,23,35.87,28.09,58.66,28.56s44.87-2.34,62.58-21.8V343.6h44.55c0-10.64-.14-20.78,0-30.92.13-6.85.09-13.8,1.26-20.51,1.38-8,7.52-11.4,16.8-10.65,8,.64,11.78,4.4,12.28,12.77.37,6.1.2,12.22.22,18.33,0,10.34,0,20.68,0,31.47,13.89,0,26.64-.27,39.37.12,5.72.18,6.82-2.24,6.75-7.2-.19-13.24-.19-26.49.08-39.73.21-10.13,5.8-15.5,15.15-15.24,9.2.25,13,4.39,13.16,14.92.18,13.5.29,27,0,40.49-.12,5.73,2,7.55,7.62,7.36,11-.36,22-.26,32.93,0,4.54.09,6.34-1.35,6.28-6.08-.22-17.32.29-34.65-.26-51.95-.43-13.34-5.77-24.61-19.15-29.5-16.62-6.07-33.58-6.27-49.84,1.41-5.06,2.4-9.22,6.69-13.16,9.65-24.21-20.84-48.25-18.15-72.6-1-.33-3.93-.6-7.12-.87-10.38H955V280.6c-16.5-21.4-37.87-27.09-61.53-26.62s-44.63,7-59.62,30.35V224h-45.7V285c-12.66-21.49-31.11-29.44-52.58-31.35-21.21-1.89-41.58,1.18-60.16,14.86,0-3.34-.23-5.14,0-6.86,1.11-7.13-2.47-8.42-8.8-8.38-13.4.06-23.93,5.26-32.38,17.34a50.69,50.69,0,0,1,0-6.15c1.24-7.68-2.42-9.69-9.53-9.23a206.44,206.44,0,0,1-23.73,0c-6.74-.36-10.17,1.57-9.28,8.95.48,3.89.09,7.88.09,13.26-16.5-19.77-37.36-24.14-60.06-24.12-23.07,0-43.93,5-59.33,25.33-6.43-18-19.92-23.9-36.61-25.25-16.06-1.3-30.64,2.19-43.37,13.55-.93-11.59-.93-11.61-11.16-11.62-8.17,0-16.35.25-24.5-.08-5.75-.23-7.41,2-7.35,7.61.25,24.95.09,49.91.14,74.87,0,2.18.39,4.35.64,7,12.95,0,25.2-.32,37.41.13,6.38.24,8.47-1.9,8.37-8.19-.24-13.75.1-27.5.32-41.25.09-5.92,2.75-10.09,8.65-12.08,13.06-4.39,21.69,1.38,22,15.22.27,13-.09,26,.28,39,.07,2.4,2.22,6.77,3.53,6.81,13.93.5,27.88.31,42.64.31V323.87Z"/><path class="cls-1" d="M550.62,299.44c-.09,9.33-1.38,17.28-10.3,21.25-10.83,4.84-22.67-.57-25.12-12.08a44.08,44.08,0,0,1-.13-16.63c1.7-9.32,9-13.88,19.33-13.4,8.23.38,14.41,6.1,15.84,14.85A50,50,0,0,1,550.62,299.44Z"/><path class="cls-1" d="M875.59,308.66h79.13v9c-11.1,0-22-.27-32.86.16a20.61,20.61,0,0,0-10.16,3.42c-9.39,6.37-25.28,4.83-32-3.86C878,315.13,877.21,312.17,875.59,308.66Z"/><path class="cls-1" d="M708.07,309.91a52.91,52.91,0,0,1,5.81-.64c22.39,0,44.79-.14,67.17.13,2.24,0,4.44,2.38,6.66,3.65-2.13,1.12-4.22,3.09-6.41,3.2-7.61.4-15.26.23-22.89.14-6.85-.09-12.91.47-19.17,4.93C728,329.33,710.23,322.47,708.07,309.91Z"/><path class="cls-1" d="M876.65,289.88c1.43-9.68,6.73-13.92,17.53-14.51,11.77-.65,19.42,4.22,22,14.51Z"/><path class="cls-1" d="M745.06,289H707.7c1.89-8.83,7.12-12.52,17.49-13C734.63,275.5,742,280,745.06,289Z"/></svg>