<svg id="Logos_Patrocinadores" data-name="Logos Patrocinadores" xmlns="http://www.w3.org/2000/svg" viewBox="0 0 1500 600"><defs><style>.cls-1{fill:#7a97ab;}</style></defs><path class="cls-1" d="M1233,251.45c4.36.23,8,.57,11.53.57,34,0,67.9.21,101.84-.16,7.7-.09,10.77,1.7,10.48,10-.57,16-.11,16-15.84,16-33.68,0-67.37.19-101-.15-7.49-.08-9,2.62-7.85,9.32,2.48,13.85,6.43,17.52,20.47,17.42,33.42-.23,66.83-.44,100.24-1,6.9-.12,9.22,2,9,9-.5,19.76,2,17-17.41,17-32.37.08-64.77-.83-97.09.33-21.26.76-41.19-20-40.77-40.65.24-11.58.28-23.16,0-34.74-.52-21.6,18.84-41.16,39.61-40.53,36,1.09,72.08.73,108.13.77,5.36,0,7.55,1.66,7.47,7.23-.29,19.23,1.74,16.46-16.23,16.68q-48.93.62-97.87,1C1240.44,239.67,1234.88,242,1233,251.45Z"/><path class="cls-1" d="M646.58,329.9c0-7.85.13-14.42,0-21-.25-10.25-6.89-17.77-17.12-17.91-27.38-.35-54.77-.07-82.15-.16-4.72,0-6.6,1.87-6.49,6.59.19,8.16-.25,16.34.1,24.48.25,5.95-2.15,7.79-7.89,7.66-21.58-.51-17.82,2.43-18-17.93-.23-20.53-.14-41.07.06-61.61.19-19.39,17-35.82,36.55-35.76,25.27.07,50.55.38,75.82.41,11.78,0,22.23,3.33,31.41,10.82,14.84,12.12,18.11,33.14,7.08,48.84-2.77,3.93-3.72,6.85-.43,11,9.95,12.42,6,27.14,6,41.12,0,1.14-2.72,3.21-4.26,3.3C660.71,330.12,654.18,329.9,646.58,329.9Zm-57.7-64.11v0c5.78,0,11.56,0,17.34,0,8.93,0,17.88.22,26.79-.28,7.51-.42,13-5.91,13.26-12.22.32-6.61-5.17-12.47-12.83-13.53a47.06,47.06,0,0,0-6.29-.23l-68.57,0c-16,0-18.1,2.4-18.53,18.06-.17,6.14,1.46,8.43,7.85,8.25C561.55,265.51,575.22,265.79,588.88,265.79Z"/><path class="cls-1" d="M762.78,216.22c13.15,0,26.37-.83,39.43.3a76.12,76.12,0,0,1,25.41,6.86c9.61,4.51,14.7,13.18,14.68,24.29,0,17.62.06,35.24,0,52.86,0,10.94-5.32,19.44-15.38,22.56-12.41,3.85-25.44,7-38.34,7.71-19.65,1.05-39.42-.06-59.13-.72a76.3,76.3,0,0,1-17.8-3.11c-20.41-5.72-26.48-13.9-26.51-34.9q0-20.91,0-41.82c0-19.94,11.8-32.41,31.88-33.82,1-.07,2.1-.16,3.15-.16h42.61Zm-3.24,23.46c-9.64.88-24.06,1.72-38.33,3.71-7.11,1-11.28,5.71-10.9,13.93.5,11,.35,22.12,0,33.16-.17,6.27,2.65,10.06,8.18,12a36.28,36.28,0,0,0,10.71,2.41c20,.49,40,.84,60,.81a81.81,81.81,0,0,0,17.15-2.32c7.67-1.7,11.49-6.53,11.14-14.79-.37-8.67-.07-17.37-.08-26.05,0-15-3.24-19.15-18.39-20.79C787.55,240.47,775.94,240.47,759.54,239.68Z"/><path class="cls-1" d="M373.48,291.52c0,10.4-.28,20.11.11,29.79.24,6-1.56,8.47-8,8.29-20.8-.56-17.43,2.69-17.62-17.41-.2-21.31,1-42.69-.41-63.91-.93-14.23,20.56-34.62,33.71-34.21,27.07.84,54.18.39,81.28.7,13.92.16,25.81,5.6,34.43,16.5,17.53,22.14,5.46,52.76-22.79,58.21a90,90,0,0,1-16.49,1.33c-24.47.13-48.94,0-73.41.06C381,290.88,377.64,291.26,373.48,291.52Zm47.83-25.69c5.25,0,10.5,0,15.75,0,9.19,0,18.39.19,27.56-.19,8.64-.36,14.11-5.7,14.06-12.9-.05-7.45-5.12-12.2-14-13-2.35-.21-4.72-.16-7.09-.16q-33.47,0-66.95,0c-14.85,0-17.93,3.26-18.35,17.94-.18,6,1.68,8.54,8,8.38C394,265.59,407.65,265.83,421.31,265.83Z"/><path class="cls-1" d="M936.06,276.56c12.86-.64,25.74-1.2,38.6-2,9.37-.55,12.86-3.88,13.08-13.2q.46-19.32.06-38.67c-.13-5.89,2.14-7.94,7.87-7.72,26.79,1,21-3.24,21.57,20.87.23,9.73,0,19.47-.06,29.2-.07,19.18-16.44,40.41-40.16,38.7a107.75,107.75,0,0,0-20.48.27c-2.29.28-5.59,3.64-6,6-.9,5.65.16,17.53-.64,23.21,0,0-27,0-27.55,0,0,0-.12,3.39-.18-19.84,0-7.69-2.55-10.34-10-9.78-6.54.49-13.15.11-19.73.07-20.87-.1-34.18-9.45-37-30-2.49-17.83-1.46-36.16-1.64-54.26,0-1.44,2.71-2.94,4.25-4.32.3-.26,1-.09,1.55-.08,27.41.41,22.28-3.94,22.75,21.13.15,7.89-.07,15.79.1,23.68.26,11.74,4.6,16,16.53,16.15,12.37.14,24.73,0,37.1,0Z"/><path class="cls-1" d="M1025.07,214.78c8.87,0,16.77-.51,24.53.29,2.63.27,5.79,3.4,7.24,6,9.8,17.7,19.14,35.66,28.75,53.47,4.24,7.85,8.55,15.69,13.23,23.29,6.23,10.12,14.25,9.65,20.17-1.21,9.33-17.07,18.37-34.29,27.58-51.43,4.6-8.56,9-17.26,14.14-25.49a11.77,11.77,0,0,1,7.87-4.76c7-.68,14.1-.22,22.53-.22-1.14,3.16-1.64,5.35-2.67,7.25q-25.18,46.42-50.53,92.78c-11.36,20.7-43.89,22.72-56.06,2.49-19.37-32.2-37.23-65.31-55.69-98C1025.68,218.37,1025.66,217.27,1025.07,214.78Z"/><path class="cls-1" d="M358.89,396.39v-31h14.54a5.88,5.88,0,0,1,4.34,1.87,6.18,6.18,0,0,1,1.81,4.46v7.84a6.13,6.13,0,0,1-1.8,4.44,5.87,5.87,0,0,1-4.35,1.84H363v10.56a2,2,0,0,1-.6,1.48,1.94,1.94,0,0,1-1.45.61,2.08,2.08,0,0,1-2.1-2.09ZM363,381.65h10.39a2,2,0,0,0,1.44-.61,2,2,0,0,0,.61-1.49v-7.84a2,2,0,0,0-.61-1.48,1.94,1.94,0,0,0-1.44-.61H363Z"/><path class="cls-1" d="M388.78,396.39V376.54a2.1,2.1,0,0,1,.6-1.5,1.88,1.88,0,0,1,1.45-.64,2,2,0,0,1,1.45.62,2.11,2.11,0,0,1,.6,1.52v2.62l3.34-2.92a6.29,6.29,0,0,1,4-1.79h3a5.87,5.87,0,0,1,4.35,1.84,6.12,6.12,0,0,1,1.8,4.43v1.13a2.16,2.16,0,0,1-.59,1.52,2,2,0,0,1-2.91,0,2,2,0,0,1-.6-1.48v-1.18a2.07,2.07,0,0,0-.59-1.48,2,2,0,0,0-1.46-.61h-2.66a3.06,3.06,0,0,0-1.9.92l-5.83,5.16v11.68a2,2,0,0,1-.61,1.48,2,2,0,0,1-1.44.61,1.93,1.93,0,0,1-1.45-.61A2,2,0,0,1,388.78,396.39Z"/><path class="cls-1" d="M439.31,382v8.84a7,7,0,0,1-2.6,5.2,7.91,7.91,0,0,1-5.35,2.39h-4.81a7.77,7.77,0,0,1-5.37-2.43,7.09,7.09,0,0,1-2.56-5.16V382a7.16,7.16,0,0,1,2.5-5.17,7.69,7.69,0,0,1,5.43-2.43h4.81a7.71,7.71,0,0,1,5.35,2.34A7,7,0,0,1,439.31,382Zm-16.54.17v8.47a2.21,2.21,0,0,0,.8,1.81l1.54,1.35a2.11,2.11,0,0,0,1.44.45h4.76a2.75,2.75,0,0,0,1.9-.78l1.25-1.12a2,2,0,0,0,.75-1.66v-8.47a2.21,2.21,0,0,0-.75-1.84L433,379.21a2.55,2.55,0,0,0-1.71-.63h-4.25a3.13,3.13,0,0,0-2.15.68l-1.39,1.22A2.12,2.12,0,0,0,422.77,382.17Z"/><path class="cls-1" d="M463,398.48h-4.1a5.94,5.94,0,0,1-4.37-1.84,6.07,6.07,0,0,1-1.83-4.43V378.63h-2.1a2,2,0,0,1-1.45-.59,2.15,2.15,0,0,1,0-3,1.94,1.94,0,0,1,1.45-.61h2.15v-5.13a2,2,0,0,1,.6-1.48,1.94,1.94,0,0,1,1.45-.61,2,2,0,0,1,1.43.62,2,2,0,0,1,.62,1.47v5.13h8.25a2,2,0,0,1,1.44.62,2,2,0,0,1,.61,1.47,2,2,0,0,1-.61,1.48,2,2,0,0,1-1.44.61h-8.3v13.58a2.15,2.15,0,0,0,2.1,2.09h4a2.17,2.17,0,0,0,2.18-1.81,2.11,2.11,0,0,1,2.07-1.8,2,2,0,0,1,1.48.61,2.13,2.13,0,0,1,.57,1.53,5.6,5.6,0,0,1-1.74,3.77A5.84,5.84,0,0,1,463,398.48Z"/><path class="cls-1" d="M499.09,382.32v5.05a2,2,0,0,1-.61,1.47,2,2,0,0,1-1.44.63h-14.5v1.22a2.26,2.26,0,0,0,.9,1.81l1.2,1a3.07,3.07,0,0,0,1.86.77H497a2,2,0,0,1,1.44.61,2.08,2.08,0,0,1,0,2.95,2,2,0,0,1-1.43.62H486.23a7.18,7.18,0,0,1-4-1.42l-1.83-1.64a5.27,5.27,0,0,1-1.42-1.95,5.38,5.38,0,0,1-.58-2.29V381.6a7.16,7.16,0,0,1,2.2-4.39l1.71-1.37a5.76,5.76,0,0,1,3.73-1.39h5.76a5.85,5.85,0,0,1,4.1,1.84l1.54,1.5A5.85,5.85,0,0,1,499.09,382.32Zm-16.5-.32v3.23H495v-2.91a2.25,2.25,0,0,0-.71-1.79l-1.2-1.07a2.73,2.73,0,0,0-1.66-.78h-5.15a2.59,2.59,0,0,0-1.73.68l-1.19,1A1.94,1.94,0,0,0,482.59,382Z"/><path class="cls-1" d="M527,398.48h-8.77a5.81,5.81,0,0,1-4-1.42l-4-3.53a5.47,5.47,0,0,1-1.9-4.39v-5.45a5.65,5.65,0,0,1,2.15-4.63l3.58-3.17a5.73,5.73,0,0,1,3.71-1.44H527a2,2,0,0,1,1.46.61,2.18,2.18,0,0,1,0,3,2,2,0,0,1-1.46.59h-8.81a2.35,2.35,0,0,0-1.58.68l-3.3,2.86a2.36,2.36,0,0,0-.8,1.87v5.1a1.82,1.82,0,0,0,.63,1.4l3.61,3.13a2.57,2.57,0,0,0,1.81.63H527a2,2,0,0,1,1.44.61,2.11,2.11,0,0,1,0,3A2,2,0,0,1,527,398.48Z"/><path class="cls-1" d="M556.86,398.48H548.1a5.81,5.81,0,0,1-4-1.42l-4-3.53a5.47,5.47,0,0,1-1.9-4.39v-5.45a5.65,5.65,0,0,1,2.15-4.63l3.58-3.17a5.71,5.71,0,0,1,3.71-1.44h9.2a1.93,1.93,0,0,1,1.45.61,2.15,2.15,0,0,1,0,3,2,2,0,0,1-1.45.59H548.1a2.35,2.35,0,0,0-1.58.68l-3.3,2.86a2.33,2.33,0,0,0-.8,1.87v5.1a1.82,1.82,0,0,0,.63,1.4l3.61,3.13a2.57,2.57,0,0,0,1.81.63h8.39a1.94,1.94,0,0,1,1.44.61,2,2,0,0,1,.61,1.48,2.07,2.07,0,0,1-.59,1.48A2,2,0,0,1,556.86,398.48Z"/><path class="cls-1" d="M584.65,398.43H572.16a1.93,1.93,0,0,1-1.45-.61,2.11,2.11,0,0,1,0-2.95,1.94,1.94,0,0,1,1.45-.62h4.2V378.63h-4.15a1.94,1.94,0,0,1-1.46-.62,2.06,2.06,0,0,1-.59-1.47,2.13,2.13,0,0,1,.59-1.5,1.92,1.92,0,0,1,1.46-.64h6.24a1.92,1.92,0,0,1,1.46.64,2.13,2.13,0,0,1,.59,1.5v17.71h4.1a2,2,0,0,1,1.48.61,2,2,0,0,1,.62,1.48,2,2,0,0,1-.61,1.48A1.94,1.94,0,0,1,584.65,398.43Zm-8.34-34.89h2.14a2,2,0,0,1,1.46.61,2.07,2.07,0,0,1,.59,1.48v1.8a2.13,2.13,0,0,1-.59,1.5,1.92,1.92,0,0,1-1.46.64h-2.19a2.08,2.08,0,0,1-2-2.09l0-1.85a2.07,2.07,0,0,1,.59-1.48A2,2,0,0,1,576.31,363.54Z"/><path class="cls-1" d="M618.64,382v8.84A7,7,0,0,1,616,396a7.91,7.91,0,0,1-5.35,2.39h-4.81a7.77,7.77,0,0,1-5.37-2.43,7.09,7.09,0,0,1-2.56-5.16V382a7.16,7.16,0,0,1,2.5-5.17,7.69,7.69,0,0,1,5.43-2.43h4.81a7.71,7.71,0,0,1,5.35,2.34A7.07,7.07,0,0,1,618.64,382Zm-16.55.17v8.47a2.22,2.22,0,0,0,.81,1.81l1.54,1.35a2.11,2.11,0,0,0,1.44.45h4.76a2.75,2.75,0,0,0,1.9-.78l1.24-1.12a2,2,0,0,0,.76-1.66v-8.47a2.19,2.19,0,0,0-.76-1.84l-1.44-1.17a2.5,2.5,0,0,0-1.7-.63h-4.25a3.13,3.13,0,0,0-2.15.68l-1.39,1.22A2.13,2.13,0,0,0,602.09,382.17Zm11.77-16.59a2.18,2.18,0,0,1,.9-.2,1.82,1.82,0,0,1,1.44.66,2.28,2.28,0,0,1,.56,1.49,1.93,1.93,0,0,1-1.15,1.89l-7.44,3.51a2.18,2.18,0,0,1-.9.2,1.79,1.79,0,0,1-1.44-.66,2.19,2.19,0,0,1-.56-1.48,1.92,1.92,0,0,1,1.14-1.89Z"/><path class="cls-1" d="M637.58,379.31,632,383v13.37a2,2,0,0,1-.61,1.47,2,2,0,0,1-1.44.62,2,2,0,0,1-1.44-.62,2.07,2.07,0,0,1-.61-1.47V376.54a2.1,2.1,0,0,1,.6-1.5,2,2,0,0,1,2.89,0,2.07,2.07,0,0,1,.61,1.5v1.4l3.74-2.32A7.71,7.71,0,0,1,640,374.4h1.9a5.81,5.81,0,0,1,4.23,1.77,6.22,6.22,0,0,1,1.88,4.36l.56,15.86a2,2,0,0,1-.58,1.47,2,2,0,0,1-1.47.62,2,2,0,0,1-2-2.09l-.61-15.61a2,2,0,0,0-2.25-2.2h-2A3.63,3.63,0,0,0,637.58,379.31Z"/><path class="cls-1" d="M708.35,380.58l-11.05,25.5a2,2,0,0,1-1.95,1.37h-5.69a2,2,0,0,1-1.45-.6,2,2,0,0,1-.6-1.5,2,2,0,0,1,2-2.06h4.39l2.81-6.65h-1a2.08,2.08,0,0,1-2-1.47l-6.14-14.59v-4a2.06,2.06,0,0,1,.58-1.48,1.89,1.89,0,0,1,1.42-.61,2,2,0,0,1,1.48.61,2,2,0,0,1,.62,1.48v3.11l5.39,12.75h1.43l5.57-12.7v-3.21a2,2,0,0,1,.62-1.46,2,2,0,0,1,1.47-.63,2,2,0,0,1,1.44.62,2,2,0,0,1,.61,1.47Z"/><path class="cls-1" d="M768.18,367.53v7.69l-8.36,21.69a2.08,2.08,0,0,1-4,0l-8.3-21.69v-7.69a2.1,2.1,0,0,1,.6-1.52,2,2,0,0,1,1.46-.63A1.92,1.92,0,0,1,751,366a2.1,2.1,0,0,1,.6,1.52v6.82l6.24,16.24,6.24-16.19v-6.87a2.1,2.1,0,0,1,.6-1.52,1.92,1.92,0,0,1,1.45-.63,2,2,0,0,1,1.46.63A2.1,2.1,0,0,1,768.18,367.53Z"/><path class="cls-1" d="M798,382.32v5.05a2,2,0,0,1-.61,1.47,2,2,0,0,1-1.44.63h-14.5v1.22a2.24,2.24,0,0,0,.91,1.81l1.19,1a3.07,3.07,0,0,0,1.86.77h10.54a2,2,0,0,1,1.44.61,2,2,0,0,1,.61,1.48,2,2,0,0,1-.62,1.47,2,2,0,0,1-1.43.62H785.11a6.16,6.16,0,0,1-2.26-.46,5.91,5.91,0,0,1-1.74-1l-1.83-1.64a5.29,5.29,0,0,1-1.43-1.95,5.5,5.5,0,0,1-.57-2.29V381.6a7.08,7.08,0,0,1,2.19-4.39l1.71-1.37a5.76,5.76,0,0,1,3.73-1.39h5.76a5.85,5.85,0,0,1,4.1,1.84l1.54,1.5A5.82,5.82,0,0,1,798,382.32Zm-16.5-.32v3.23h12.45v-2.91a2.25,2.25,0,0,0-.71-1.79L792,379.46a2.75,2.75,0,0,0-1.66-.78h-5.15a2.6,2.6,0,0,0-1.74.68l-1.19,1A1.94,1.94,0,0,0,781.47,382Z"/><path class="cls-1" d="M813,374.45h9.39a6,6,0,0,1,3.88,1.33,3.58,3.58,0,0,1,1.69,2.6,1.89,1.89,0,0,1-.63,1.47,1.94,1.94,0,0,1-1.37.58,2.37,2.37,0,0,1-1.79-.9,2.26,2.26,0,0,0-1.68-.9h-9.27c-.92,0-1.37.39-1.37,1.16a1.33,1.33,0,0,0,.91,1.24l10.9,5a6.27,6.27,0,0,1,2.72,2.4,6.67,6.67,0,0,1,1.06,3.68,6.19,6.19,0,0,1-1.86,4.55,5.84,5.84,0,0,1-4.24,1.87H813a6.68,6.68,0,0,1-4-1.32c-1.23-.88-1.85-1.73-1.85-2.56a2.12,2.12,0,0,1,2.15-2.1,2.47,2.47,0,0,1,1.67.9,3.48,3.48,0,0,0,2.58.9h7.64a1.93,1.93,0,0,0,1.51-.71,2.43,2.43,0,0,0,.61-1.63,2.12,2.12,0,0,0-1.37-2l-11-5.05a5.48,5.48,0,0,1-2.45-2.09,5.33,5.33,0,0,1-.85-2.79,5.52,5.52,0,0,1,1.53-3.89A4.94,4.94,0,0,1,813,374.45Z"/><path class="cls-1" d="M851.5,398.48h-4.1a5.94,5.94,0,0,1-4.37-1.84,6.07,6.07,0,0,1-1.83-4.43V378.63h-2.1a2,2,0,0,1-1.45-.59,2.15,2.15,0,0,1,0-3,1.94,1.94,0,0,1,1.45-.61h2.15v-5.13a2,2,0,0,1,.6-1.48,1.94,1.94,0,0,1,1.45-.61,2,2,0,0,1,1.43.62,2,2,0,0,1,.62,1.47v5.13h8.25a2,2,0,0,1,1.44.62,2.07,2.07,0,0,1,.61,1.47A2,2,0,0,1,855,378a2,2,0,0,1-1.44.61h-8.3v13.58a2.14,2.14,0,0,0,2.1,2.09h4a2.16,2.16,0,0,0,2.17-1.81,2.12,2.12,0,0,1,2.08-1.8,1.91,1.91,0,0,1,1.47.61,2.1,2.1,0,0,1,.58,1.53A5.57,5.57,0,0,1,856,396.6,5.82,5.82,0,0,1,851.5,398.48Z"/><path class="cls-1" d="M876.74,394.25l6.89-4.49V376.54a2.1,2.1,0,0,1,.6-1.5,2,2,0,0,1,2.9,0,2.1,2.1,0,0,1,.6,1.5v19.85a2,2,0,0,1-.61,1.47,2,2,0,0,1-2.88,0,2,2,0,0,1-.61-1.47v-1.64l-3.56,2.36a7.69,7.69,0,0,1-4.24,1.37h-1.9a5.92,5.92,0,0,1-4.31-1.79,6.41,6.41,0,0,1-1.92-4.39l-.61-15.76a1.82,1.82,0,0,1,.57-1.46,2,2,0,0,1,1.48-.63,1.9,1.9,0,0,1,1.42.62,2.18,2.18,0,0,1,.63,1.47l.56,15.47c0,1.49.88,2.24,2.5,2.24Z"/><path class="cls-1" d="M903,383.39h8a8.81,8.81,0,0,1,1.9.3l0-3a2,2,0,0,0-.6-1.48,2,2,0,0,0-1.46-.61H903a1.94,1.94,0,0,1-1.44-.62,2,2,0,0,1-.61-1.47,2,2,0,0,1,.6-1.48,1.93,1.93,0,0,1,1.45-.61h7.8a5.9,5.9,0,0,1,4.34,1.82,6.4,6.4,0,0,1,1.87,4.45l.51,15.67a2,2,0,0,1-.61,1.48,2,2,0,0,1-1.44.61,2.08,2.08,0,0,1-2.1-2.09l-3.47,2.09H903a5.91,5.91,0,0,1-4.4-1.84,6.14,6.14,0,0,1-1.81-4.48v-2.45a6.14,6.14,0,0,1,1.82-4.46A5.92,5.92,0,0,1,903,383.39Zm10.25,8.14-.12-1.77a2.16,2.16,0,0,0-.61-1.49,1.93,1.93,0,0,0-1.44-.6H903a2,2,0,0,0-1.45.61,2,2,0,0,0-.6,1.48v2.35a2,2,0,0,0,.61,1.46,2,2,0,0,0,1.44.63h5.79Z"/><path class="cls-1" d="M926.76,396.39V376.54a2.1,2.1,0,0,1,.6-1.5,1.91,1.91,0,0,1,1.45-.64,2,2,0,0,1,1.46.62,2.11,2.11,0,0,1,.59,1.52v2.62l3.35-2.92a6.29,6.29,0,0,1,4-1.79h3a5.84,5.84,0,0,1,4.34,1.84,6.09,6.09,0,0,1,1.81,4.43v1.13a2.13,2.13,0,0,1-.6,1.52,2,2,0,0,1-1.45.62,2,2,0,0,1-1.45-.61,2,2,0,0,1-.6-1.48v-1.18a2,2,0,0,0-.6-1.48,2,2,0,0,0-1.45-.61H938.6a3.06,3.06,0,0,0-1.9.92l-5.84,5.16v11.68a2,2,0,0,1-.61,1.48,1.94,1.94,0,0,1-1.44.61,2,2,0,0,1-1.45-.61A2,2,0,0,1,926.76,396.39Z"/><path class="cls-1" d="M973.2,398.43H960.7a1.94,1.94,0,0,1-1.45-.61,2.11,2.11,0,0,1,0-2.95,2,2,0,0,1,1.45-.62h4.2V378.63h-4.15a1.91,1.91,0,0,1-1.45-.62,2,2,0,0,1-.6-1.47,2.1,2.1,0,0,1,.6-1.5,1.9,1.9,0,0,1,1.45-.64H967a1.9,1.9,0,0,1,1.45.64,2.1,2.1,0,0,1,.6,1.5v17.71h4.1a2,2,0,0,1,1.48.61,2.09,2.09,0,0,1,0,3A2,2,0,0,1,973.2,398.43Zm-8.35-34.89H967a2,2,0,0,1,1.45.61,2,2,0,0,1,.6,1.48v1.8a2.1,2.1,0,0,1-.6,1.5,1.9,1.9,0,0,1-1.45.64h-2.2a1.94,1.94,0,0,1-1.47-.65,2,2,0,0,1-.58-1.44l0-1.85a2,2,0,0,1,.6-1.48A2,2,0,0,1,964.85,363.54Z"/><path class="cls-1" d="M1007.19,382v8.84a7,7,0,0,1-2.6,5.2,7.92,7.92,0,0,1-5.36,2.39h-4.81a7.73,7.73,0,0,1-5.36-2.43,7.11,7.11,0,0,1-2.57-5.16V382a7.2,7.2,0,0,1,2.5-5.17,7.69,7.69,0,0,1,5.43-2.43h4.81a7.71,7.71,0,0,1,5.36,2.34A7.07,7.07,0,0,1,1007.19,382Zm-16.55.17v8.47a2.22,2.22,0,0,0,.81,1.81L993,393.8a2.14,2.14,0,0,0,1.44.45h4.76a2.77,2.77,0,0,0,1.91-.78l1.24-1.12a2,2,0,0,0,.76-1.66v-8.47a2.19,2.19,0,0,0-.76-1.84l-1.44-1.17a2.55,2.55,0,0,0-1.71-.63h-4.24a3.11,3.11,0,0,0-2.15.68l-1.39,1.22A2.1,2.1,0,0,0,990.64,382.17Z"/><path class="cls-1" d="M1046.32,396.39v-31h14.54a5.88,5.88,0,0,1,4.34,1.87,6.18,6.18,0,0,1,1.81,4.46v7.84a6.13,6.13,0,0,1-1.8,4.44,5.88,5.88,0,0,1-4.35,1.84h-10.39v10.56a2,2,0,0,1-.6,1.48,1.94,1.94,0,0,1-1.45.61,2.08,2.08,0,0,1-2.1-2.09Zm4.15-14.74h10.39a2,2,0,0,0,1.44-.61,2,2,0,0,0,.61-1.49v-7.84a2,2,0,0,0-.61-1.48,1.94,1.94,0,0,0-1.44-.61h-10.39Z"/><path class="cls-1" d="M1076.21,396.39V376.54a2.13,2.13,0,0,1,.59-1.5,1.92,1.92,0,0,1,1.46-.64,2,2,0,0,1,1.45.62,2.11,2.11,0,0,1,.6,1.52v2.62l3.34-2.92a6.29,6.29,0,0,1,4-1.79h3a5.88,5.88,0,0,1,4.35,1.84,6.12,6.12,0,0,1,1.8,4.43v1.13a2.13,2.13,0,0,1-.6,1.52,1.94,1.94,0,0,1-1.45.62,2,2,0,0,1-1.45-.61,2,2,0,0,1-.6-1.48v-1.18a2,2,0,0,0-.6-1.48,2,2,0,0,0-1.45-.61H1088a3.06,3.06,0,0,0-1.9.92l-5.83,5.16v11.68a2,2,0,0,1-.61,1.48,2,2,0,0,1-2.9,0A2.07,2.07,0,0,1,1076.21,396.39Z"/><path class="cls-1" d="M1126.74,382v8.84a7,7,0,0,1-2.6,5.2,7.91,7.91,0,0,1-5.35,2.39H1114a7.77,7.77,0,0,1-5.37-2.43,7.09,7.09,0,0,1-2.56-5.16V382a7.16,7.16,0,0,1,2.5-5.17,7.67,7.67,0,0,1,5.43-2.43h4.81a7.71,7.71,0,0,1,5.35,2.34A7.07,7.07,0,0,1,1126.74,382Zm-16.55.17v8.47a2.22,2.22,0,0,0,.81,1.81l1.54,1.35a2.11,2.11,0,0,0,1.44.45h4.76a2.75,2.75,0,0,0,1.9-.78l1.24-1.12a2,2,0,0,0,.76-1.66v-8.47a2.19,2.19,0,0,0-.76-1.84l-1.44-1.17a2.5,2.5,0,0,0-1.7-.63h-4.25a3.13,3.13,0,0,0-2.15.68l-1.39,1.22A2.13,2.13,0,0,0,1110.19,382.17Z"/><path class="cls-1" d="M1145.33,378.63v17.76a2,2,0,0,1-.61,1.48,2,2,0,0,1-1.44.61,2.08,2.08,0,0,1-2.1-2.09V378.63h-2.1a1.91,1.91,0,0,1-1.45-.62,2,2,0,0,1-.6-1.47,2.16,2.16,0,0,1,.55-1.46,1.9,1.9,0,0,1,1.5-.63h2.15v-1.62a7.15,7.15,0,0,1,2.16-5.33,7.38,7.38,0,0,1,5.38-2.12h4.81a1.92,1.92,0,0,1,1.45.63,2.1,2.1,0,0,1,.6,1.52A2.07,2.07,0,0,1,1155,369a2,2,0,0,1-1.44.62h-4.81a3.41,3.41,0,0,0-2.43.9,3,3,0,0,0-1,2.31v1.62h4.1a1.85,1.85,0,0,1,1.44.6,2.07,2.07,0,0,1,.61,1.49,2,2,0,0,1-.61,1.47,1.94,1.94,0,0,1-1.44.62Z"/><path class="cls-1" d="M1186.52,382.32v5.05a2,2,0,0,1-.61,1.47,2,2,0,0,1-1.44.63H1170v1.22a2.26,2.26,0,0,0,.9,1.81l1.2,1a3.07,3.07,0,0,0,1.85.77h10.55a2,2,0,0,1,1.44.61,2.06,2.06,0,0,1,0,2.95,2,2,0,0,1-1.42.62h-10.81a7.18,7.18,0,0,1-4-1.42l-1.83-1.64a5.27,5.27,0,0,1-1.42-1.95,5.38,5.38,0,0,1-.58-2.29V381.6a6,6,0,0,1,.62-2.22,5.79,5.79,0,0,1,1.58-2.17l1.71-1.37a5.74,5.74,0,0,1,3.73-1.39h5.76a5.85,5.85,0,0,1,4.1,1.84l1.54,1.5A5.85,5.85,0,0,1,1186.52,382.32ZM1170,382v3.23h12.45v-2.91a2.25,2.25,0,0,0-.71-1.79l-1.2-1.07a2.73,2.73,0,0,0-1.66-.78h-5.15a2.59,2.59,0,0,0-1.73.68l-1.19,1A1.94,1.94,0,0,0,1170,382Z"/><path class="cls-1" d="M1201.49,374.45h9.4a6.07,6.07,0,0,1,3.88,1.33,3.59,3.59,0,0,1,1.68,2.6,1.88,1.88,0,0,1-.62,1.47,2,2,0,0,1-1.38.58,2.37,2.37,0,0,1-1.78-.9,2.29,2.29,0,0,0-1.68-.9h-9.28c-.91,0-1.36.39-1.36,1.16a1.33,1.33,0,0,0,.91,1.24l10.9,5a6.33,6.33,0,0,1,2.72,2.4,6.67,6.67,0,0,1,1.06,3.68,6.16,6.16,0,0,1-1.87,4.55,5.8,5.8,0,0,1-4.23,1.87h-8.3a6.72,6.72,0,0,1-4-1.32c-1.23-.88-1.84-1.73-1.84-2.56a2.12,2.12,0,0,1,2.15-2.1,2.47,2.47,0,0,1,1.67.9,3.45,3.45,0,0,0,2.57.9h7.64a2,2,0,0,0,1.52-.71,2.48,2.48,0,0,0,.61-1.63,2.12,2.12,0,0,0-1.37-2l-11-5.05a5.45,5.45,0,0,1-2.44-2.09,5.24,5.24,0,0,1-.85-2.79,5.56,5.56,0,0,1,1.52-3.89A5,5,0,0,1,1201.49,374.45Z"/><path class="cls-1" d="M1242.19,398.43H1229.7a1.93,1.93,0,0,1-1.45-.61,2.11,2.11,0,0,1,0-2.95,1.94,1.94,0,0,1,1.45-.62h4.2V378.63h-4.15a1.94,1.94,0,0,1-1.46-.62,2.06,2.06,0,0,1-.59-1.47,2.13,2.13,0,0,1,.59-1.5,1.92,1.92,0,0,1,1.46-.64H1236a1.91,1.91,0,0,1,1.45.64,2.09,2.09,0,0,1,.59,1.5v17.71h4.1a2,2,0,0,1,1.48.61,2,2,0,0,1,.62,1.48,2,2,0,0,1-.61,1.48A1.94,1.94,0,0,1,1242.19,398.43Zm-8.34-34.89H1236a2,2,0,0,1,1.45.61,2,2,0,0,1,.59,1.48v1.8a2.09,2.09,0,0,1-.59,1.5,1.91,1.91,0,0,1-1.45.64h-2.2a2.08,2.08,0,0,1-2-2.09l0-1.85a2,2,0,0,1,.6-1.48A2,2,0,0,1,1233.85,363.54Z"/><path class="cls-1" d="M1276.18,382v8.84a7,7,0,0,1-2.6,5.2,7.91,7.91,0,0,1-5.35,2.39h-4.81a7.77,7.77,0,0,1-5.37-2.43,7.09,7.09,0,0,1-2.56-5.16V382a7.16,7.16,0,0,1,2.5-5.17,7.69,7.69,0,0,1,5.43-2.43h4.81a7.71,7.71,0,0,1,5.35,2.34A7.07,7.07,0,0,1,1276.18,382Zm-16.55.17v8.47a2.22,2.22,0,0,0,.81,1.81l1.54,1.35a2.11,2.11,0,0,0,1.44.45h4.76a2.75,2.75,0,0,0,1.9-.78l1.24-1.12a2,2,0,0,0,.76-1.66v-8.47a2.19,2.19,0,0,0-.76-1.84l-1.44-1.17a2.5,2.5,0,0,0-1.7-.63h-4.25a3.13,3.13,0,0,0-2.15.68l-1.39,1.22A2.13,2.13,0,0,0,1259.63,382.17Z"/><path class="cls-1" d="M1295.12,379.31l-5.6,3.71v13.37a2,2,0,0,1-.61,1.47,2,2,0,0,1-1.44.62,2,2,0,0,1-1.44-.62,2.07,2.07,0,0,1-.61-1.47V376.54a2.1,2.1,0,0,1,.6-1.5,2,2,0,0,1,2.89,0,2.07,2.07,0,0,1,.61,1.5v1.4l3.75-2.32a7.66,7.66,0,0,1,4.25-1.22h1.9a5.81,5.81,0,0,1,4.23,1.77,6.22,6.22,0,0,1,1.88,4.36l.56,15.86a1.93,1.93,0,0,1-.58,1.47,2,2,0,0,1-1.47.62,2,2,0,0,1-2-2.09l-.61-15.61a2,2,0,0,0-2.25-2.2h-2A3.63,3.63,0,0,0,1295.12,379.31Z"/><path class="cls-1" d="M1321.42,383.39h8a8.88,8.88,0,0,1,1.91.3l0-3a2,2,0,0,0-.6-1.48,2,2,0,0,0-1.45-.61h-7.8A2,2,0,0,1,1320,378a2.1,2.1,0,0,1,0-2.95,2,2,0,0,1,1.46-.61h7.79a5.88,5.88,0,0,1,4.34,1.82,6.36,6.36,0,0,1,1.87,4.45l.51,15.67a2,2,0,0,1-.61,1.48,1.94,1.94,0,0,1-1.44.61,2.08,2.08,0,0,1-2.1-2.09l-3.47,2.09h-6.94a5.94,5.94,0,0,1-4.4-1.84,6.18,6.18,0,0,1-1.81-4.48v-2.45a6.11,6.11,0,0,1,1.83-4.46A5.9,5.9,0,0,1,1321.42,383.39Zm10.25,8.14-.12-1.77a2.12,2.12,0,0,0-.61-1.49,1.93,1.93,0,0,0-1.44-.6h-8.08a2,2,0,0,0-1.46.61,2,2,0,0,0-.6,1.48v2.35a2,2,0,0,0,.61,1.46,2,2,0,0,0,1.45.63h5.79Z"/><path class="cls-1" d="M1361.75,398.48h-12.4a1.91,1.91,0,0,1-1.45-.63,2.14,2.14,0,0,1-.6-1.51,2,2,0,0,1,.6-1.47,1.94,1.94,0,0,1,1.45-.62h4.1V369.57h-4.15a1.94,1.94,0,0,1-1.45-.61,2.13,2.13,0,0,1,0-3,2,2,0,0,1,1.45-.62h6.25a2,2,0,0,1,1.44.63,2,2,0,0,1,.61,1.47v26.77h4.15a2,2,0,0,1,1.44.62,2.06,2.06,0,0,1,.61,1.47,2.14,2.14,0,0,1-.6,1.51A1.92,1.92,0,0,1,1361.75,398.48Z"/><rect class="cls-1" x="242.37" y="214.06" width="89.38" height="184.42"/><rect class="cls-1" x="142.4" y="214.06" width="89.38" height="184.42"/></svg>