<svg id="Logos_Patrocinadores" data-name="Logos Patrocinadores" xmlns="http://www.w3.org/2000/svg" viewBox="0 0 1500 600"><defs><style>.cls-1{fill:#7a97ab;}</style></defs><path class="cls-1" d="M150,276c2.42-14.59,7-28.33,15.33-40.74,15.67-23.3,37.51-36.95,65-41.21,41.32-6.4,82.57,15.59,99.56,53.57,13.87,31,11.78,61.59-6.12,90.7-2.2,3.58-2.23,5.73.57,9,14.39,16.8,28.5,33.85,42.69,50.82,1.33,1.58,2.58,3.23,3.85,4.83-.75.65-1,1-1.22,1-16.61-.12-33.29,1.77-49.77-1.85-7.7-1.69-14.31-5.06-19.12-11.66-3.42-4.7-7.53-8.91-10.93-13.62-2.44-3.36-4.61-4.08-8.7-2.44C255.34,384.73,229.3,385,204.09,373c-29.7-14-47.43-37.8-53.25-70.27A23.17,23.17,0,0,0,150,300Zm144.62,35.6c12.45-22.73,4.86-52.67-16.9-69.53-20.64-16-52.3-14.45-71.31,3.51-21.34,20.16-24.78,49.77-8.59,73.92,13.38,19.95,42.81,30.24,62,21.42a31.58,31.58,0,0,0-1.88-2.79c-12.91-15.65-25.88-31.24-38.69-47-1-1.27-2-4.25-1.31-5,7.24-8.4,14.87-16.25,27.22-16.47,10.57-.19,18.42,4.46,24.89,12.43C278,291.91,286.17,301.5,294.62,311.6Z"/><path class="cls-1" d="M1350,197c-9.31,0-18.63-.15-27.94-.07-2.92,0-4.57-.82-5.27-3.89-1.31-5.79-3-11.49-4.79-18.28h9.45c6.81,0,13.65.24,20.45-.13,4.11-.23,5.61,1.33,6,5.18s1.36,7.46,2.07,11.19Z"/><path class="cls-1" d="M786.57,294c.11-1.55.31-3.09.31-4.64,0-15.83.4-31.67,0-47.48-.38-13.15,6-18.29,18.56-18.6,12.15-.3,24.32-.1,36.48,0,21,.14,42,.41,62.93.52,38.49.2,66,27.9,66.1,66.45.05,17.87-4,34.29-15.68,48.33a56.62,56.62,0,0,1-28.34,18.71c-26.83,7.72-51.42,3.86-71.3-16.86-14.91-15.53-19-35.2-16.93-56,.9-9,3.86-17.74,6.07-27.41-5.5,0-11.54-.23-17.53.23-.93.08-2.27,3.32-2.3,5.11-.17,14.82-.07,29.65-.06,44.48,0,10.66.06,21.33,0,32-.06,12.32-6.37,18.73-18.79,19-5.16.13-10.33-.09-15.49.09-3.36.11-5.36-1-7.1-4.12C771.88,333,760,312.34,748.27,291.66a5.94,5.94,0,0,0-2.9-2.68c-.11,1.66-.3,3.32-.3,5,0,19.16-.23,38.32,0,57.48.07,5.21-1.84,6.62-6.65,6.49-8.82-.25-17.66-.14-26.49-.05-3.5,0-5-1.09-5-4.91q.16-60.48,0-121c0-3.94,1.28-5.27,5.18-5.2,10.66.18,21.33.15,32,0,3.07-.05,4.78,1,6.26,3.75,10.87,20,21.9,40,32.89,60,.69,1.25,1.5,2.42,2.26,3.63Zm144.06-2.12c.11-9.48-1.64-16.81-5.7-24-7.6-13.41-26.51-15.74-37.19-4.58-11,11.47-12.65,40.37-3.12,54,10.44,15,30.62,14.39,40.34-1C929.76,308.8,930.14,300.38,930.63,291.89Z"/><path class="cls-1" d="M1025.94,319.41c-1.7,2.74-3,4.76-4.24,6.83q-17.62,29.89-35.22,59.81c-6,10.15-15.4,15.32-26.6,16.46-9.21.94-18.59.19-29.21.19,3.37-5.39,6.23-10.09,9.21-14.72q30.66-47.67,61.43-95.29c2.1-3.24,2.34-5.48-.08-8.84-12.17-16.87-24-34-36-51-1.12-1.61-2.08-3.33-3.53-5.67,2.23-.12,3.8-.27,5.36-.27,12,0,24,.15,36-.11,3.92-.08,6.07,1.34,7.83,4.69,4.64,8.84,9.55,17.54,14.39,26.27.69,1.25,1.6,2.38,3,4.37l11.6-21.08c1.45-2.62,3.35-5.11,4.23-7.91,1.75-5.62,5.53-6.52,10.77-6.35,10.32.34,20.66.1,31,.1h5.89c-2.21,3.5-3.79,6.16-5.52,8.72-11,16.25-22,32.52-33.24,48.65-2,2.92-2.21,5.08-.19,8.05,13.21,19.38,26.28,38.86,39.38,58.32,1.33,2,2.51,4.06,4.26,6.93-2.71.14-4.3.3-5.88.3-12,0-24-.14-36,.11-4.14.09-6.69-1.07-8.75-4.85-5.41-9.94-11.26-19.65-17-29.43C1028.13,322.45,1027.25,321.32,1025.94,319.41Z"/><path class="cls-1" d="M430.65,227h40.47c.11,1.32.28,2.44.28,3.57,0,27.65,0,55.31-.22,83-.19,22.83-12.26,39.38-33.94,44.83-9.72,2.44-20.11,3.11-30.17,3a84.83,84.83,0,0,1-25-4.09c-18.39-6-28.75-19.67-29.8-38.59-1.35-24.26-1.33-48.62-.87-72.92.22-11.9,6.53-20,20.44-19.1,4,.26,8,0,12,0,9.28.11,8.33-1.36,8.35,8.12.07,22.49,0,45,.15,67.48a67.76,67.76,0,0,0,1.06,10.91c1.8,10.71,8.45,15.4,20.65,14.76,8.76-.45,14.95-6.78,15.66-16.37.5-6.8.84-13.64.88-20.46C430.72,270,430.65,248.8,430.65,227Z"/><path class="cls-1" d="M583.19,321.79h53.08c2.31,0,5-.49,4.83,3.2-.25,6.14,0,12.36-.93,18.4-1.22,7.9-5.34,11.49-13.29,12.69a86.06,86.06,0,0,1-12.41,1c-22.31.1-44.62,0-66.93.14-4.21,0-5.77-1-5.75-5.52.19-35,.06-69.93.13-104.89,0-14.93,6.92-21.74,21.63-21.75,4.49,0,9,.26,13.48-.07,4.67-.34,6.32,1.08,6.28,6.08-.24,27.63-.12,55.27-.12,82.91Z"/><path class="cls-1" d="M528.23,291c0,20.15-.1,40.3.08,60.46,0,4.08-1.1,5.6-5.31,5.5-10.16-.23-20.33-.2-30.48,0-4.2.09-5.42-1.54-5.41-5.58.11-35.64,0-71.29.08-106.93,0-13.51,6.21-19.5,19.62-19.53,5.5,0,11,.24,16.49-.09,4.12-.25,5,1.39,5,5.19C528.15,250.37,528.23,270.69,528.23,291Z"/><path class="cls-1" d="M651.25,292.14q0-29.25,0-58.49c0-6.75,0-6.76,6.53-6.76,9.5,0,19,.12,28.49-.08,4-.08,5.65,1,5.64,5.31-.14,35.66,0,71.32-.12,107,0,12.63-6.34,18.61-18.9,18.72-5.34.05-10.68-.15-16,.12-4.38.23-5.77-1.48-5.73-5.81C651.35,332.13,651.25,312.13,651.25,292.14Z"/><path class="cls-1" d="M1270,354.69c8.33,0,16.67.14,25-.06,3.54-.09,5.09.79,5,4.67-.16,16.32,0,32.65-.1,49a8.72,8.72,0,0,1-8.78,8.83q-21.5.12-43,0a9,9,0,0,1-9-9.19c-.06-16.17,0-32.33-.09-48.49,0-3.7,1.21-4.91,4.93-4.81C1252.64,354.86,1261.31,354.69,1270,354.69Z"/><path class="cls-1" d="M1269.59,274.19c-7.66,0-15.32-.13-23,.06-3.38.09-4.85-.9-4.78-4.48.16-8.83.18-17.66,0-26.49-.09-3.66,1.45-4.45,4.75-4.43,15.49.12,31,.14,46.48,0,3.44,0,4.29,1.36,4.25,4.43-.11,9-.17,18,0,27,.06,3.2-1.31,4-4.18,4-7.82-.1-15.66,0-23.49,0Z"/><path class="cls-1" d="M1314,196.54h-88.86c1.34-5.4,2.91-10.38,3.73-15.49s3-6.5,8.21-6.42c21.94.35,43.9.2,65.85,0,4,0,6,1.08,6.85,5.14C1310.85,185.09,1312.44,190.32,1314,196.54Z"/><path class="cls-1" d="M1286.42,304.61c0,5.82,0,11.65,0,17.47,0,5.19-2.08,7.31-7.17,7.35q-10,.07-20,0c-4.24,0-6.46-2.36-6.49-6.48q-.12-18,0-36c0-4.53,2.51-6.95,7.15-7q9.73-.17,19.47,0c4.73.08,6.88,2.31,7,7.14.09,5.83,0,11.65,0,17.48Z"/><path class="cls-1" d="M1203.85,356.14c9.62,0,18.25-.13,26.87.14,1.14,0,3.18,2,3.2,3.13q.3,23.19,0,46.38c0,1.13-2.32,3.13-3.63,3.18-7.63.3-15.29.25-22.93,0-1.18,0-3.32-1.59-3.33-2.46C1203.79,390,1203.85,373.4,1203.85,356.14Z"/><path class="cls-1" d="M1335.34,383c0,7.15-.13,14.3.06,21.44.08,3.35-.87,4.82-4.47,4.72q-10.71-.31-21.44,0c-3.61.1-4.54-1.46-4.52-4.77q.16-21.93,0-43.88c0-3.13.85-4.53,4.25-4.42,7.31.23,14.63.24,21.94.09,3.31-.07,4.32,1.23,4.25,4.4-.15,7.48-.05,15-.05,22.44Z"/><path class="cls-1" d="M1292.77,304.61c0-5.82-.07-11.65,0-17.48.09-5.19,2.62-7.11,9.09-7.17s9.16,1.88,9.22,7c.13,12,.07,24,0,36,0,3.72-2.23,5.9-5.67,6.47a22.24,22.24,0,0,1-7.46,0c-3.56-.63-5.3-3.06-5.26-6.77C1292.81,316.61,1292.76,310.61,1292.77,304.61Z"/><path class="cls-1" d="M1246.31,304.82v18c0,4.28-2.28,6.37-6.41,6.6-1.66.09-3.33.05-5,.05-4.5,0-6.8-2.41-6.84-6.77q-.13-17.71,0-35.44c0-5.41,2.91-7.36,10-7.31,6,0,8.13,1.93,8.21,7.43.09,5.82,0,11.65,0,17.47Z"/><path class="cls-1" d="M1226.91,175.92c-1.69,6.26-3.26,12.65-5.27,18.9-.33,1-2.61,2-4,2-8.3.18-16.6.06-24.9.07-3,0-4-1.12-3.38-4.31,1-4.7,1.23-9.55,2.23-14.24.28-1.34,2-3.37,3.16-3.39,10.11-.23,20.23-.08,30.35,0C1225.53,175,1226,175.39,1226.91,175.92Z"/><path class="cls-1" d="M1249,212l12.86,1c0-3.89.14-7,0-10.09-.17-2.86,1.13-3.95,3.8-3.87.66,0,1.33,0,2,0,9.32-.12,9.5-.12,9.43,9.05,0,3.79,1.22,5.19,4.9,4.66s8.11,1.41,11.18-2.4l.63-.83c2.87-2.78,5.54-5.8,8.67-8.23,1.79-1.4,4.33-1.83,6.53-2.7l1,1.81c-5.17,5.26-10,10.92-15.68,15.57-2,1.65-6.07.62-9.09,1.26-2,.41-3.76,1.62-5.63,2.45-1.16.51-2.32,1.35-3.51,1.39-4.32.17-8.65.1-13,0-1,0-2.56-.11-2.79-.64-2.14-4.83-6.37-3.36-9.92-3.24a10.38,10.38,0,0,1-8.69-3.86c-4-4.39-8.19-8.53-12.31-12.78l.89-1.87c2.11.78,4.6,1.09,6.25,2.43,3.07,2.51,5.57,5.7,8.48,8.43a22.31,22.31,0,0,0,4.09,2.49Z"/><path class="cls-1" d="M1269,230.14c-8.81,0-17.62-.08-26.42,0-3,0-4.6-.63-4.64-4.1s1.47-4.21,4.51-4.2q27.16.12,54.34,0c3.23,0,4.37,1.12,4.38,4.35,0,3.59-1.86,4-4.75,3.92-9.14-.12-18.28,0-27.42,0Z"/><path class="cls-1" d="M1269.09,340.19h-29.45c-2.22,0-4.48.23-4.44-3.1,0-3.16,2.09-3.26,4.42-3.25q29.94,0,59.89,0c2.27,0,4.44-.06,4.44,3.19s-2.13,3.18-4.42,3.17C1289.38,340.17,1279.24,340.19,1269.09,340.19Z"/><path class="cls-1" d="M1293.75,209.48l-.63.83c-2,.6-4,1.61-6.09,1.75-8.89.64-10.8-1.61-9-10.47a3.65,3.65,0,0,1,2.38-2.38,3.82,3.82,0,0,1,3,1.59c2.4,3.9,4.31,4.43,7.21,1s6.16-3,10.46-2.21Z"/><path class="cls-1" d="M1302.37,344.21c-4,2.78-61.86,2.68-65,.16C1240.37,342.28,1297.28,342,1302.37,344.21Z"/><path class="cls-1" d="M1249.1,212l-11.82-12.34c4.79-.92,8-1.42,11,1.9,3.24,3.65,5,3.17,7.73-1.05a3.51,3.51,0,0,1,2.83-1.24,3.15,3.15,0,0,1,2.19,2,35.91,35.91,0,0,1-.09,8.42c-.13.92-1.87,2.17-3,2.28a80.64,80.64,0,0,1-8.93,0Z"/><path class="cls-1" d="M1269.48,419.9c6.47,0,13-.12,19.42.11,1.21.05,2.37,1.49,3.56,2.28-1.13.65-2.26,1.85-3.4,1.86q-19.43.18-38.85,0c-1.17,0-2.33-1.4-3.49-2.15,1.27-.69,2.54-1.92,3.84-2C1256.86,419.79,1263.17,419.9,1269.48,419.9Z"/><path class="cls-1" d="M1299.7,350.57H1240C1243.6,347.62,1294.59,347.49,1299.7,350.57Z"/><path class="cls-1" d="M1245.15,235.78c3-4,46.41-4,49.16,0Z"/><ellipse class="cls-1" cx="1289.58" cy="304.86" rx="0.71" ry="24.8"/><path class="cls-1" d="M1249.09,322.32V287.49h.84v34.83Z"/></svg>