<svg id="Logos_Patrocinadores" data-name="Logos Patrocinadores" xmlns="http://www.w3.org/2000/svg" viewBox="0 0 1500 600"><defs><style>.cls-1{fill:#7a97ab;}</style></defs><path class="cls-1" d="M918.78,269.45h2.33c3.07.06,4.34,1.11,5,4.09,1.21,5.54.46,6.89-4.74,8.61-6.14,2-8.85.26-9.59-6.23-.7-6.21-.7-6.21,5.72-6.45.43,0,.86,0,1.29,0Z"/><path class="cls-1" d="M717.55,284.51c-.63-3.9.65-6.64,4-8.38a26.59,26.59,0,0,1,4.6-2.28c1.18-.35,3-.5,3.74.16a4.1,4.1,0,0,1,.48,3.75,26.92,26.92,0,0,1-4.07,6.45C723.66,287.2,720.59,285.32,717.55,284.51Z"/><path class="cls-1" d="M1025.75,239.61c-1.27-2.34-2.46-4.24-3.36-6.26-1.86-4.16-4.92-7.24-8.47-9.94-2.12-1.6-4.22-2-6.68-.54a39.34,39.34,0,0,1-5.54,2.17c-.24-6.17,1.46-10.88,6-14.32a2.32,2.32,0,0,1,2.17,0c6.73,5.07,12.82,10.8,16.74,18.41C1028.31,232.4,1029.09,235.89,1025.75,239.61Z"/><path class="cls-1" d="M1004,268.94c-.72-5.33,2.07-8.77,6.74-8.52,1.69.09,2.61.65,2.85,2.56.51,4-2.17,6.89-6.07,6.26C1006.31,269.06,1005.11,269,1004,268.94Z"/><path class="cls-1" d="M751,52.38a10,10,0,0,0,2.18.51c36.54.5,68,14.24,95.62,37.34,8.4,7,16.11,14.9,22,24.61,2.21-.89,4.31-1.82,6.47-2.59,6.37-2.29,12.78-4,19.71-2.8a26.94,26.94,0,0,1,15.43,8.34c5.81,6.35,12.82,9.82,21,12.45s15.64,7.1,23.25,11.11a153.85,153.85,0,0,0,20.78,9.16,74.28,74.28,0,0,1,15.37,7.26c8.63,5.53,18.08,8.84,27.69,12,11,3.59,21.84,7.54,31.44,14.25,4.81,3.36,9.53,6.89,14.58,9.85a33.47,33.47,0,0,0,19.42,4.32c7.1-.46,10.56-6,8.83-13.91-1.55-7.13-5.55-12.68-10.92-17.47-3.67-3.26-7.15-6.75-10.53-10.32a28.81,28.81,0,0,1-4-5.7c-4-7.15-3.24-13.61,2.12-19.81a35.25,35.25,0,0,1,16.31-10.54c7.3-2.34,14.69-4.47,21.33-8.49,1-.62,2.72-1.44,3.42-1a22,22,0,0,1,4.91,4.39A4.11,4.11,0,0,1,1118,118c-.21,4-.39,8.08-.88,12.09-.76,6.23-4.4,10.75-9.24,14.39-3.37,2.53-6.86,4.9-10.54,7.52,3.75,5.13,7.46,10.31,11.27,15.41,5.18,6.93,8.88,14.35,8.41,23.32-.66,12.62-7.77,24.32-21.41,27.94-5.77,1.53-11.85,1.9-17.82,2.61-1.6.2-2.47.44-2.71,2.24-.93,7-2,14-3,21-.14.94-.1,1.91-.25,2.84-.26,1.56.3,2.35,1.87,2.76,3.08.79,6.08,1.88,9.16,2.67,5.42,1.37,8.88,4.6,10.36,10.06,1,3.71,2.32,7.33,3.58,11.28a45.24,45.24,0,0,0,4.45-2c8-4.79,14.45-2.19,19.52,4.34,3.14,4.05,6,8.12,10.41,10.88a1.19,1.19,0,0,1,.38.36,30.83,30.83,0,0,1,4.89,20.87c-.52,3.86-4.6,4.64-8,5a92.21,92.21,0,0,1-25.26-.83c-4.84-.81-8.32-3.6-11.43-7-1.33-1.47-2.5-2.13-4.67-1.55-6.25,1.68-12.44.95-17.35-3.32-9.22-8-20.14-10.32-31.63-9.23-10.36,1-18.43-2.52-26-9S1001,267.72,1000,258.07c-.22-.13-.36-.3-.51-.3-17.31-.27-34.64-1.76-51.79,2.53-4.65,1.16-9.75.77-14.63.64-3.78-.11-6.12,1.12-7.37,5,4.08,2.62,8.53,2.87,13.14,2,3.84-.74,7.66-1.22,11.49.05,4.38,1.45,5.94,4,5.32,8.69a16.41,16.41,0,0,1-6.26,10.67c-2.26,1.87-4.8,3.39-7.05,5.26-1.06.87-2.33,2.1-2.52,3.33-1.39,8.88-10.56,13.11-19.47,11.81-10.49-1.53-20-5.59-29.38-10.21a34.9,34.9,0,0,0-8.83-2.56c-3-.58-5.75-1.18-7.7-4s-2.88-2.66-5.27,0c-10.59,11.61-20.84,23.6-34.08,32.39-18.4,12.22-38.34,20.75-60.28,24-8.43,1.26-17,2.46-25.46,2.44-38.1-.07-72.31-11.24-101-37.11-5.5-5-10.75-10.24-15.92-15.56-2-2.07-3.47-4.67-5.31-7.21.16,0,0-.06-.17,0l-24.27,10.06c-8.29,3.42-16.62,6.8-25.74,7.17-5,.2-10-.22-13.62-4.21-1.55-1.72-2.31-4.15-3.55-6.17a19.25,19.25,0,0,0-3.26-4.46c-2.65-2.33-5.69-4.22-8.37-6.52a14.56,14.56,0,0,1-4.19-16.26,2.38,2.38,0,0,1,1.62-1.29c5-.35,9.91-.59,14.88-.81,2.57-.11,5.17.07,7.71-.26a5.63,5.63,0,0,0,3.19-1.91c1.7-2,1.11-3.08-1.48-3.43-10.58-1.42-21.12-3.25-31.73-4.24-8.49-.8-17.06-.65-25.6-.84-4.47-.1-8.95,0-13.32,0a104.5,104.5,0,0,1-3,10.52c-5.16,13.17-14.72,21-28.9,22.56a49.61,49.61,0,0,1-10.55-.06c-8.1-.83-15.29,1.48-22.12,5.58-4.21,2.53-8.5,5-12.9,7.14a8.56,8.56,0,0,1-4.94.56c-4-.68-7.63-.38-10.72,2.34-6.06,5.32-13.37,6.89-21.09,7.25-6.4.3-12.79.36-18.87-2.15-1.72-.72-3.38-1.6-5.07-2.4v-5.19a10.1,10.1,0,0,0,.58-1.36c1.23-4.56,2.38-9.15,3.69-13.69a5.45,5.45,0,0,1,4.7-4.22,6.71,6.71,0,0,0,5.11-4,36.06,36.06,0,0,0,1.6-3.24c2.32-6.31,12.48-11.29,19.25-6.52a48.6,48.6,0,0,0,5.53,2.86c1.48-4.43,3-8.44,4.14-12.55a11.36,11.36,0,0,1,8.76-8.55c4.15-1.05,8.29-2.18,12.63-3.33-.09-1.41-.11-2.69-.28-3.95-.95-7.26-2-14.51-2.86-21.78-.21-1.71-1-2-2.47-2.27-6-1-12.18-1.52-18-3.27-12.22-3.7-20.05-12.57-21.12-26.2-.84-10.81,3.25-20.12,9.25-28.7,3-4.27,6.54-8.17,10.08-12.53-2.37-1.52-4.82-3.07-7.25-4.66-7.06-4.6-12.67-10.34-13.22-19.27a46.2,46.2,0,0,1,.86-12.25c.85-4,3.65-5.1,7.47-3.55,8.3,3.36,16.63,6.69,24.8,10.36a43,43,0,0,1,9.66,6c8.89,7.31,10.45,18,3.35,27.08-4.15,5.31-9.51,9.71-14.52,14.3-4.65,4.26-8.18,9-9.22,15.42-1.11,6.86,3,13.2,9.73,14a28.14,28.14,0,0,0,8.45-.66c6.49-1.23,12-4.69,17.43-8.24,13.25-8.68,27-16.35,42.32-20.78a96.78,96.78,0,0,0,27-12,54.89,54.89,0,0,1,13.26-6.18c7.15-2.33,14.23-4.72,20.68-8.64a130.76,130.76,0,0,1,27.29-12.3,39.19,39.19,0,0,0,14-8.49,73.93,73.93,0,0,1,13.07-9.13,21.16,21.16,0,0,1,16.05-2.06c4.33,1.12,8.57,2.58,12.89,3.74a2.73,2.73,0,0,0,2.43-.66c3.93-6.43,9.4-11.44,14.75-16.61,18-17.4,39.26-29.14,63.21-36a150.76,150.76,0,0,1,40-6,14.65,14.65,0,0,0,2.73-.54ZM737,277.3c-2.09-2.14-4.05-4.1-6-6.12-3.24-3.45-6.89-6.62-9.56-10.46-9.4-13.5-14.28-28.76-16.52-45-1.29-9.32-3.14-18.5-7.33-27.05-7.52-15.4-18.91-27.64-32.13-38.09-12.12-9.57-24.89-18.33-37.5-27.27a149.36,149.36,0,0,0-14.28-8.83,12.91,12.91,0,0,0-12.93-.12c-4.84,2.75-9.27,6.21-13.87,9.37-5.79,4-10.9,9.11-18.11,10.69a58,58,0,0,0-20.56,9.41A49.83,49.83,0,0,1,530,152.22a66,66,0,0,0-23.77,10.4,65.9,65.9,0,0,1-21.63,9.57c-6.17,1.5-12.44,3.26-18.07,6.09-9,4.52-17.53,10-26.21,15.11-8.44,5-17.26,8.59-27.33,8.24-7.46-.26-13.54-4.34-15.28-10.58-1.47-5.28-.92-10.44,2.4-14.78,3.91-5.13,8.23-10,12.56-14.75,4.77-5.26,9.75-10.34,12.31-17.14s.82-12.2-5.48-15.93a62.27,62.27,0,0,0-9.85-4.52c-5.08-1.9-10.3-3.42-15.4-5.27-2.18-.79-4.16-2.07-6.31-3-1.38-.57-2.65-.35-2.62,1.6.07,3.15-.27,6.41.38,9.44,1.66,7.62,7.51,11.51,14.16,14.27,4.34,1.8,8.89,3.13,13.41,4.7-1.83,4.46-5.19,7.34-8.21,10.52-4.16,4.38-8.49,8.66-12.09,13.46-4.92,6.56-7.23,14.14-5.78,22.42,2.66,15.08,17.6,25.63,34.85,22a30.28,30.28,0,0,1,6.13-.73c2.19,0,3.58,1.12,3.31,3.6-.36,3.35-1.1,6.71-.94,10,.25,5.22,1.11,10.42,1.72,15.62,1.06,9,.07,10.39-7.78,12a24.16,24.16,0,0,1-4.59.7c-5.86,0-8.22,3.65-9.66,8.67-1,3.6-1.83,7.62-4,10.47-5.51,7.17-11.34,14.23-18.87,19.44-4.17,2.89-5.95,6.35-4.59,11.23a3,3,0,0,0,1.74,1.93c2.37.4,4.79.4,7.19.64,3.14.31,5.47-1,7.42-3.36s4.05-4.72,6.15-7a3.13,3.13,0,0,1,1.83-1.09c2.59-.07,5.33-.46,7.75.2,5.09,1.41,9.29-.05,13.34-2.9,1.41-1,2.92-1.84,4.36-2.78,6.7-4.39,13.91-7.28,22-7.28,5.36,0,10.71.3,16.06.34a15.75,15.75,0,0,0,10.68-4,33.51,33.51,0,0,0,10.79-17.58c.7-2.83.94-5.73-.75-8.83a22,22,0,0,0-1.83,2c-1.8,2.53-3.58,5.08-5.31,7.65-4.78,7.09-11,11.91-19.87,12.34-5.34.25-10.71.64-16,.36-9.61-.51-17.95,2.47-25.64,8a79.35,79.35,0,0,1-7.24,4.15l-.51-.58a22.55,22.55,0,0,1,1.31-2.36c4-5.69,9.84-8.74,16.22-10.95,10-3.46,20.55-3.29,30.92-4.09,6.7-.52,12.25-3.19,15.2-9.21,2.59-5.28,4.3-11,6-16.67,1.89-6.16,3.17-12.5,5.09-18.65.74-2.35,2.53-4.38,3.84-6.55l.74.43c0,5.5-.17,11,0,16.51.37,10.18,5.81,15.5,15.93,15.26a239.79,239.79,0,0,1,43.81,3.06c3.34.54,6.76.53,10.28.77-.21-4.08-2.12-7.7.64-11.87,2,2.65,4,4.89,5.62,7.37,2.89,4.51,6.14,8.46,11.12,10.88a42.86,42.86,0,0,1,8.76,5.49,31.16,31.16,0,0,1,6,7c1.52,2.33,1.12,4.8-1.35,6.54A66.65,66.65,0,0,1,588,285c-8.1,4.29-12.76,3.12-17-5-3.32-6.3-8.8-7.91-15-8.23-2.14-.11-4.37,1.24-6.5,2.05a1.61,1.61,0,0,0-.59,1.43c1.38,5.16,3.7,10,8.72,12.24a12.25,12.25,0,0,1,7.15,7.9c1.47,4.51,4.89,6.1,9.18,6a63.4,63.4,0,0,0,31.18-8.95,91.8,91.8,0,0,1,8.86-4c1.57-.7,3.66-1,4.63-2.14,3.62-4.44,6-9.69,5.9-15.41-.2-8.74-4.3-16-10.23-22.27a7.18,7.18,0,0,0-3.68-1.71c-3.22-.65-4.89,1.31-3.57,4.25a18.41,18.41,0,0,0,3.22,4.63c2.47,2.71,5,5.43,5.21,9.27.16,3.15-.27,6.34-.44,9.73-2.84-.05-2.77-2.44-3-4-.77-4.44-3-8-5.71-11.44a66.08,66.08,0,0,1-5.12-7.15c-2.55-4.36-2.09-6.85,1.6-10.3,2.15-2,4.63-3.68,6.57-5.86s4-4.51,4.81-7.15c1.65-5.31,2.45-10.88,3.68-16.33.79-3.49,1.34-7.12,4.32-9.84a15,15,0,0,1,2.41,12.16c-1.32,6.39-3.06,12.7-4.46,19.08a66.65,66.65,0,0,0-.84,7.07c5.89.68,11.26,1.7,16.33-.75,3.41-1.63,6.57-3.78,9.86-5.66,2.39-1.36,4.82-2.64,7.22-3.95l.52.63c-5.17,12.58-15.53,22.31-19.91,35.26.29.26.4.43.55.49,4.13,1.59,6,4.08,5.74,9-.45,7.4,4.82,10.8,11.86,8.33,2.76-1,5.43-2.2,8.16-3.26,7.4-2.88,15.25-2.5,23-3.06a13.59,13.59,0,0,0,8.1-2.85c4.11-3.35,5.18-3.41,9.56-.3,2.94,2.09,5.56,4.65,8.45,6.83a20.61,20.61,0,0,0,15.63,4c-8.3-9.25-16.28-18.55-19.85-31a26.56,26.56,0,0,1,9.49,7.9c3.6,4.52,7.15,9.1,11.09,13.32C728.4,279.69,731.71,279.89,737,277.3Zm375.46-160.65c-1.67.63-3.34,1.25-5,1.89-8.1,3.16-16.26,6.17-24.26,9.56-4.13,1.75-7.67,4.59-9.07,9.09-1.79,5.79-1.11,11.28,3.12,16,4.47,4.93,9.14,9.69,13.4,14.78,3.41,4.08,6.93,8.25,9.36,12.91,5.34,10.23-1.25,19.11-8.88,21.45a29.12,29.12,0,0,1-17.78-.39c-8.75-2.79-16.37-7.64-23.94-12.64-9.52-6.3-19.25-12.3-30.69-14.44A63.23,63.23,0,0,1,991,162.23c-4.89-3.82-10.67-5.86-16.55-7.74S962.58,151,957.32,148a178.85,178.85,0,0,0-32.61-14.32,28.48,28.48,0,0,1-8.74-5.21c-3.82-3.08-7-7-10.89-9.9-8.11-6.15-15.9-6.26-24.5-.88-1.75,1.09-3.43,2.31-5.13,3.5-9.35,6.51-18.67,13.06-28.06,19.52-10.2,7-20,14.44-28.58,23.46-7.83,8.27-14.54,17.21-18.33,28.19a243.52,243.52,0,0,0-9.12,34.38c-2.46,13-6.87,25.15-15.17,35.57-3,3.76-6.76,6.9-10.08,10.41a58.48,58.48,0,0,0-3.58,4.63c3,1.54,5.18,1.76,7.58.76a22.42,22.42,0,0,0,10-8.29c2.37-3.5,4.72-7,7.2-10.44,1.78-2.45,4.43-3.49,8.11-4.22-3.09,6-5.45,11.75-8.79,16.81s-7.67,9.47-11.76,14.4c6.63.07,12.29-1.21,17-5.51,1.77-1.63,3.65-3.17,5.51-4.7,5-4.13,5.84-4.3,11.38-.79a18.86,18.86,0,0,0,11.52,3.14,40.9,40.9,0,0,1,19.84,3.79,45.8,45.8,0,0,0,9.9,2.81c4.31.83,7.3-1,8.24-4.74a11.12,11.12,0,0,0,.65-4.32c-.78-4.76,1.73-7.2,5.66-8.84a3.56,3.56,0,0,0,.65-.49,10.41,10.41,0,0,0-.57-1.51q-6.33-10.67-12.69-21.31-3.44-5.76-6.86-11.55l.73-.59a24,24,0,0,1,3.28,1.28c3.38,1.91,6.69,3.93,10,5.9,6.48,3.79,13.44,3.59,20.68,2.59a20.68,20.68,0,0,0-.29-3.21c-1-3.92-2.29-7.77-3.16-11.71a134.07,134.07,0,0,1-2.65-14.68c-.35-3.19.82-6.2,4.15-8.52a37.8,37.8,0,0,1,2.13,5.45c.71,3.18,1.14,6.44,1.62,9.67,1.44,9.9,5.28,18.36,14.2,23.8a7.46,7.46,0,0,1,1.21,1c1.93,1.83,2.81,3.91,1.47,6.48a39.35,39.35,0,0,1-3.12,5.63c-3.9,5.11-7.37,10.39-8.91,16.76a17,17,0,0,1-1.83,3.45c-.48-1.8-.74-3.07-1.15-4.28-1.41-4.17-.91-7.8,2.11-11.29a53.46,53.46,0,0,0,5.95-9,3.54,3.54,0,0,0-.68-3.38,4.91,4.91,0,0,0-3.81-.58,7.39,7.39,0,0,0-3.31,2.37c-6.8,7.86-10.37,16.86-8.78,27.35.8,5.32,3.22,9.8,8.58,12.1,7.76,3.33,15.37,7.07,23.29,10a65.13,65.13,0,0,0,15,3.34c5.4.62,9.89-1.33,11.72-7.09,1.41-4.43,4.58-7.16,8.59-9.16a13.35,13.35,0,0,0,6.78-6.73c1.57-4.08.47-5.92-3.77-6.38-6.82-.74-12.88.61-17.07,6.76a44.68,44.68,0,0,1-4.82,5.74,8.82,8.82,0,0,1-9.73,2.33c-4.81-1.59-8.46-4.92-12.14-8.17-.33-.29-.36-1.08-.31-1.61a12.15,12.15,0,0,1,4.88-9.07,61.8,61.8,0,0,1,8.26-5.28c6.52-3.29,11.73-7.73,15-14.41,1-1.94,3-3.32,4.67-5,2.83,3.85.25,7.45.67,11.32,4.45-.37,8.67-.51,12.83-1.11,8.53-1.21,17-2.93,25.68-2.63,5.87.21,11.74.38,17.61.33,7.24-.06,12.39-4.07,13.33-11.22.76-5.77.37-11.69.49-17.55,0-.95,0-1.9,0-2.85,3.84,3.22,5,7.47,6.14,11.68,2.18,8,4,16.06,6.41,23.94s7.18,14.09,16,15.44c3.8.58,7.72.42,11.58.58,4.64.19,9.36-.1,13.91.65,8.48,1.4,14.95,6.77,21.39,12,1.23,1,2.54,1.91,4.08,3.05-.08.38-.24,1.18-.46,2.25-2.45-1.87-4.74-3.54-6.94-5.32a30.6,30.6,0,0,0-18.81-7c-7.07-.22-14.16-.05-21.22-.49-8.67-.54-16-4-21.08-11.37-2.26-3.26-4.59-6.48-6.93-9.69a14.28,14.28,0,0,0-1.8-1.63c-.38,1.78-.7,3-.9,4.29-.85,5.39,1.93,9.61,4.47,14,5,8.53,12.35,12.68,22.26,12.41,4-.11,8.13-.1,12.18.13,8.72.49,16.85,2.69,23.48,8.8a14.2,14.2,0,0,0,9,3.53,42.69,42.69,0,0,0,7.5,0c5.72-.61,9.88,1.41,13.21,6.22,4.21,6.06,10,7.49,16.83,4.7a2.75,2.75,0,0,0,1.57-1.92c-.13-3.76-.81-7.49-3.65-10.22-5.59-5.38-11.21-10.74-17-15.83a17,17,0,0,1-5.57-8.47c-.75-2.64-1.66-5.24-2.41-7.89-1.42-5-5-7.19-9.9-7.67-1.89-.19-3.78-.31-5.67-.53-4.66-.55-6.49-2.64-6.38-7.34a42.18,42.18,0,0,1,.47-4.88c1-6.65,2.18-13.25,1.29-20-.38-2.92-.06-5.94-.06-9.19,3.66.36,6.73.84,9.82.92,5,.15,10.14.92,14.87-.16,10.26-2.33,15.72-10.21,18.77-19.62,2.93-9,.24-17.29-5.58-24.4-4-4.92-8.66-9.38-13.09-14-3.1-3.21-5.14-6.82-5.12-11.11,5.43-1.84,10.79-3.23,15.8-5.44C1114.39,135.81,1115.65,127.07,1112.44,116.65ZM581.57,269.45v0c-.43,0-.86,0-1.29,0-6.42.24-6.42.24-5.71,6.45.74,6.49,3.45,8.25,9.58,6.23,5.2-1.72,6-3.07,4.75-8.61-.66-3-1.93-4-5-4.09Zm335.91.6c-5.91,0-7.93,2-7.92,7.84,0,3.43,2.79,5.34,7.84,5.36h.26c4.16,0,6.67-3,6.66-8,0-4.44,1.14-4.63-5.81-5.17C918.17,270,917.82,270.05,917.48,270.05Zm214.37,37.19c-.16-1.31-.26-2.5-.45-3.67q-.84-5.08-1.74-10.17c-.42-2.4-1.88-3.48-4.3-3.64s-3.52,1-3.69,3c-.24,2.89-.66,5.9-.1,8.68,1.52,7.6,1.75,7.59,9.14,6.12C1131,307.54,1131.2,307.44,1131.85,307.24Zm-764.74-1.51,2.84.76c4.19,1.08,5.14.56,6.29-3.61a32,32,0,0,0,.28-15.2c-2.53.33-5.46-.46-6.72,2.61C367.8,295.18,367.25,300.36,367.11,305.73Zm746.3-18.32c.38-.09,1-.24,1.55-.36,3.4-.73,3.49-.87,2.85-4.27-.51-2.68-6.38-7.84-9.13-8s-4.38,1.63-3.67,4.42a23.21,23.21,0,0,0,1.13,3.42C1107.45,285.69,1109.85,287.23,1113.41,287.41Zm-733.06-2.9c3,.81,6.1,2.69,8.71-.3a26.65,26.65,0,0,0,4.08-6.45,4.13,4.13,0,0,0-.49-3.75c-.68-.66-2.55-.51-3.73-.16a26.68,26.68,0,0,0-4.61,2.28C381,277.87,379.72,280.61,380.35,284.51Z"/><path class="cls-1" d="M535.31,547.62c-2.84-.56-5.69-1.06-8.52-1.68-14.94-3.29-27.62-10.23-36.39-23.14-4.39-6.48-6.25-13.94-7.21-21.61-1.28-10.12-.9-20.16,2.14-30,5.05-16.23,16-27,31.68-32.84,16.47-6.15,33-6.05,48.88,1.91,15.12,7.56,24.15,20,27.28,36.54,1.35,7.06,1.58,14.33,2.36,21.85H519c-1.31,7.65,2.63,18.3,11.84,21a39.44,39.44,0,0,0,18.16.91c5.68-1,9.5-4.73,13-8.8,1.58-1.82,2.81-2,5-.93,7.28,3.54,14.7,6.78,22.21,10.19-.84,3.67-3.23,6.24-5.62,8.61-9,9-19.67,15-32.39,17.1-1.85.3-3.71.55-5.57.82Zm-16.08-70.38c.42.26.49.35.56.35,13.82,0,27.63.1,41.44.05.52,0,1.58-1.24,1.47-1.67-.83-3.3-1.33-6.85-3-9.73-6.68-11.65-25-13.22-34.69-2.65C521.55,467.4,519.23,471.88,519.23,477.24Z"/><path class="cls-1" d="M1138.93,469.31a37.69,37.69,0,0,0-.37,3.82q-.11,33.3-.17,66.61c0,.59-.06,1.18-.1,1.93h-33.35V364c.06,0,.19-.26.31-.26q16.2.06,32.4.18a11.47,11.47,0,0,1,1.28.16Z"/><path class="cls-1" d="M780.54,541v-9.39q0-77.12-.06-154.23c0-2.62.69-3.39,3.29-3.4,22-.07,44-.5,66.06-.32,12.32.1,23.63,3.69,32.65,12.74A34.86,34.86,0,0,1,893,410.91c.21,7.89.2,15.8-3.73,22.95-2.37,4.3-5.16,8.36-7.89,12.45-1,1.57-1.08,2.54.76,3.39,1.25.57,2.32,1.5,3.56,2.1,12.49,6.05,18.72,16.79,21.5,29.7,3,14.09.44,27.37-8.25,39-6.84,9.14-16.66,14-27.39,17.14a82,82,0,0,1-21.66,3.17c-16.14.25-32.28.83-48.42,1C794.62,541.88,787.74,541.29,780.54,541ZM817,400.43V512.71c7.24,1.13,28.28.9,34.95-.35,9.07-1.7,16.49-5.37,19.24-15.21,3.37-12.1,1.12-24.45-14.84-27.49-7.23-1.37-14.72-1.35-22.1-1.89-2-.14-4.06,0-6.22,0V438.66c4.79-.47,9.52-.71,14.16-1.47,6.83-1.12,12.64-4,14.44-11.41a30.73,30.73,0,0,0,.73-8.45c-.45-9.77-4.61-15-13.62-15.86C834.9,400.62,826,400.74,817,400.43Z"/><path class="cls-1" d="M486.67,544.43c-13.82,0-27.3,0-40.77,0a3.78,3.78,0,0,1-3.65-1.76c-8-12-16-24-24-36-2.35-3.52-4.69-7-7.13-10.5a20.91,20.91,0,0,1-3.78-12.17c-.08-11.23,0-22.47-.05-33.7a3.65,3.65,0,0,1,.08-.67c5-.73,9.92-1.13,14.66-2.22,6.48-1.5,12.19-4.54,15.44-10.75A21.67,21.67,0,0,0,426.81,407c-7.94-3.42-16.23-3.62-24.65-2.79l-3.67.39V544.8H363.35V375.08h3.31c16,0,32-.11,48,0a101.11,101.11,0,0,1,26,3.75c13,3.56,22.38,11.52,28.38,23.52,8.79,17.6,9.25,35-2.06,51.72-6.58,9.73-16.32,15.12-27.44,18.22-.49.14-1,.23-1.5.37-.24.08-.45.23-1.28.64Z"/><path class="cls-1" d="M693.78,444.85v-80.6H728.5V540.93H694c-.19-3.39-.38-6.79-.6-10.82l-6.1,4.31c-15.06,10.66-31.27,12.69-48.3,5.77-13.29-5.4-21.92-15.71-27.23-28.73-6.95-17-7.07-34.13,1.9-50.4,8.83-16,22.93-24.76,41.15-27,8.38-1,16.59-.59,24.42,2.58,3.38,1.36,6.39,3.65,9.53,5.59,1.44.9,2.78,2,4.16,2.93Zm-25.73,16c-8.15.08-15.12,2.92-19.77,9.77-6,8.8-7.32,18.37-3.46,28.51,4.38,11.47,16.64,19,27.81,16.92,14.3-2.64,23.61-15.52,22.46-31.08C694.09,471.36,682.55,461.08,668.05,460.83Z"/><path class="cls-1" d="M921.27,438.47h33.54v5.46c0,16.68-.08,33.35.09,50a65.24,65.24,0,0,0,1.45,12c1,5,4.15,8.19,9,9.69a35.43,35.43,0,0,0,19.37.51c5.65-1.4,8.87-5.21,10.1-10.64a46.1,46.1,0,0,0,1.08-9.72c.1-18.24,0-36.47,0-54.7v-2.69h31.45c.14,1.72.41,3.49.41,5.26q0,30.32,0,60.65a73.49,73.49,0,0,1-.73,11.1c-1.81,11.51-9.6,18.43-19.21,23.52-13.06,6.91-27.14,8.56-41.7,7.1-11.64-1.17-22.42-4.64-31.73-11.94-7.91-6.19-12.51-14.32-12.68-24.41-.34-21.07-.36-42.14-.5-63.21C921.25,444,921.27,441.53,921.27,438.47Z"/><path class="cls-1" d="M1080.81,541.41h-33.58V363.78h33.58Z"/><path class="cls-1" d="M1131.85,307.24c-.65.2-.89.3-1.14.35-7.39,1.47-7.62,1.48-9.14-6.12-.56-2.78-.14-5.79.1-8.68.17-2.06,1.39-3.18,3.69-3s3.88,1.24,4.3,3.64q.9,5.09,1.74,10.17C1131.59,304.74,1131.69,305.93,1131.85,307.24Z"/><path class="cls-1" d="M367.11,305.73c.14-5.37.69-10.55,2.69-15.44,1.26-3.07,4.19-2.28,6.72-2.61a32,32,0,0,1-.28,15.2c-1.15,4.17-2.1,4.69-6.29,3.61Z"/></svg>