<svg id="Logos_Patrocinadores" data-name="Logos Patrocinadores" xmlns="http://www.w3.org/2000/svg" viewBox="0 0 1500 600"><defs><style>.cls-1{fill:#7a97ab;}</style></defs><path class="cls-1" d="M338.66,303.49c-4.09,2.76-8.17,5.53-12.28,8.27-5.18,3.46-6.78,2.91-10-2.41-3.35-5.52-7-10.89-10.69-16.18-3.43-4.87-3.47-8.48,1.18-12.26,11.63-9.45,23.84-18.07,38.15-23.18,5.12-1.83,9.7-1.36,13.77,2.64a22.12,22.12,0,0,0,27.41,3c17.14-10.46,15.16-8.26,27.82,1.65,11.19,8.76,22.22,17.72,33.16,26.78a9.81,9.81,0,0,1,3,5.55c.11.65-2.81,2.22-4.54,2.72a46.06,46.06,0,0,0-20.92,13c-2.8,3-4.81,3-7.95.37-9.92-8.29-8.64-6.2-11,3.6-4,16.39-5.11,32.77.13,49.14a33.09,33.09,0,0,1,.9,4c1.68,9,.32,11.13-8.69,12.35q-31.69,4.27-63.41,8.23c-6.7.84-10-2-10.5-8.71-.93-11.65,2.28-22.72,5-33.85,3.26-13.32,6.57-26.62,9.84-39.94.32-1.28.51-2.59.77-3.88Zm99.43-8.71a29.62,29.62,0,0,0-2.63-2.8q-13.77-11.1-27.6-22.13c-7.42-5.92-8.35-6-16.39-1-13,7.95-22.75,7.52-34.45-2.18-3.72-3.09-7.3-3.82-11.17-1.55q-16.37,9.63-32.38,19.83c-.83.53-1.12,3.28-.53,4.4,2.27,4.26,5.17,8.17,7.5,12.39,1.86,3.39,3.55,3.43,6.77,1.42a60.52,60.52,0,0,1,14.49-7.05c6.82-2,8.42.22,6.5,7.16-3.7,13.35-7.68,26.66-10.71,40.17-2.6,11.58-4.13,23.4-5.94,35.15-.61,4,1.68,5.37,5.52,4.91,5.11-.62,10.23-1,15.35-1.55,14-1.38,28-2.6,42-4.23,5.69-.66,6.12-2,4.77-7.62-3.77-15.66-5.94-31.49-3-47.52a133.2,133.2,0,0,1,5.61-20.88c1.76-4.84,4.46-5,8.14-1.35,2,2,4,4.19,6.15,6,.83.69,2.7,1.25,3.41.8C425.58,303.29,431.54,299.18,438.09,294.78Z"/><path class="cls-1" d="M1190.91,389.84h-17.15c0-6.2,0-12.19,0-18.18,0-1.51.38-3.27-.26-4.47-.93-1.78-2.79-4.55-3.94-4.41-1.84.22-4.67,2.33-4.89,4-.76,5.48-.59,11.1-.73,16.67,0,2.07,0,4.14,0,6.4h-16.72V348.59c5.88.58,11.7-1.32,18.25,1.94,7.94-4.22,14.81-3.61,21.51,2.49,4.07-1.65,7.75-3.95,11.7-4.58,11.06-1.76,18.28,3.94,19,15.18.58,8.55.11,17.16.11,26.09h-17.09c0-4.4,0-9,0-13.6,0-2.72.13-5.44-.06-8.15s-1-5.31-4.27-5.46-4.74,2.25-5.3,5.13a21.1,21.1,0,0,0-.18,4.06C1190.9,377.57,1190.91,383.45,1190.91,389.84Z"/><path class="cls-1" d="M644.8,261.32c5.7-4.75,11.71-1.56,17.72-2.86,0,6.59,0,12.57,0,18.54s.2,12.09-.19,18.11c-.67,10.61-6.19,17.15-16.58,19.19-9.84,1.93-19.5,1.1-28.9-4.11l5.57-11.6c6.44,3.11,12.86,5.67,19.58,2.32,1.76-.87,2.64-3.52,3.49-5.9-6.58,3.16-13.12,4.09-19.32.82a25.31,25.31,0,0,1-9.2-8.19c-4.91-7.63-3-18.56,3.48-24.48A19.41,19.41,0,0,1,644.8,261.32Zm.91,16.47a6.63,6.63,0,0,0-6.75-6.47c-4.06-.12-7.22,2.68-7.24,6.41,0,3.56,2.89,6.35,6.73,6.47C642.46,284.33,645.67,281.5,645.71,277.79Z"/><path class="cls-1" d="M512.24,248c11.22,0,22.12-.75,32.86.24,8,.74,14,5.79,15.75,14.18,1.83,8.79-.62,16.14-9.1,21.33l10.66,16c-6.5,0-12.18.12-17.83-.11-1-.05-2.22-1.41-3-2.43-1.8-2.41-3.16-5.19-5.16-7.42-1.44-1.61-3.6-2.59-5.44-3.85L529.81,287v12.41H512.24Zm17.61,25.31c4.77-.6,9.94,1.74,12.67-3.31a7.25,7.25,0,0,0-.65-6.54c-3.25-3.92-7.83-1.92-12-2Z"/><path class="cls-1" d="M636.63,350.42c13.37-4.14,22-1.92,27.34,6.66,5.15,8.32,4,21.09-2.48,27.82-6.21,6.44-16,7.59-24.32,3-5.32,4.24-11.31,1.09-17.17,2.33V334.46h16.63Zm.08,18.79c0,4.82,2.62,8.17,6.49,8.17s6.71-3.44,6.69-8.11c0-4.39-2.77-7.81-6.4-8C639.56,361.11,636.74,364.4,636.71,369.21Z"/><path class="cls-1" d="M512.33,338.25c11.32,0,22.41-1,33.24.28s16.25,9.46,15.74,20.25c-.44,9.22-7.39,16.34-17.53,17.68-4.47.58-9,.74-14,1.12v12.2H512.33Zm17.48,24.93c4.68-.71,9.77,1.91,12.62-3.09a7.29,7.29,0,0,0-.45-6.57c-3.15-4-7.81-2.17-12.17-2.21Z"/><path class="cls-1" d="M612,390.32c-5.75-1.39-11.65,1.79-17.28-2.66a19.31,19.31,0,0,1-14.55,2.62c-6.8-1.54-11.63-5.59-12.2-12.29-.81-9.53-.21-19.18-.21-29.09h16.36c0,5,0,9.93,0,14.85a60.74,60.74,0,0,0,.15,6.33c.34,3.16,1.33,6.31,5.21,6.19s5.48-2.88,5.56-6.46c.13-5.28.07-10.56.09-15.84v-5.11H612Z"/><path class="cls-1" d="M764.18,300.44c-10.89,0-19.2-5.08-22.44-13.65A20.69,20.69,0,0,1,747.08,264c8.64-7.76,24.55-8.18,33.64-.87,10.45,8.41,10.27,24.65-.35,32.6C775.89,299.07,771.16,300.45,764.18,300.44Zm.37-13.18c3.85-.1,6.66-3.66,6.53-8.26s-2.84-7.65-6.63-7.67c-4,0-6.83,3.37-6.8,8S760.66,287.36,764.55,287.26Z"/><path class="cls-1" d="M1141.74,369.43c-.1,12.5-10.47,21.6-24.34,21.37s-23.78-9.26-23.73-21.55c0-12.52,10.26-21.4,24.38-21.2S1141.85,357,1141.74,369.43Zm-23.83-8.14c-3.64-.14-6.67,3.16-6.91,7.52-.25,4.54,2.49,8.28,6.28,8.55s7-3.08,7.14-7.7S1121.7,361.44,1117.91,361.29Z"/><path class="cls-1" d="M979.27,369.57c0,12.48-9.78,21.19-23.76,21.23s-24-9.08-23.91-21.68,9.79-21,23.9-21.07C969.77,348,979.3,356.64,979.27,369.57Zm-17.2-.24c0-4.73-2.8-8.09-6.7-8s-6.3,3.2-6.35,7.82c-.06,4.89,2.49,8.17,6.39,8.24S962.06,374.06,962.07,369.33Z"/><path class="cls-1" d="M832.11,363.85l-5.17-10.73c8-6,25.08-6.78,33-1.71,4.39,2.8,7,6.92,7.27,11.94.39,8.71.11,17.45.11,26.44H852.18c-.33-1-.7-2-1.12-3.26-5.9,5.16-12.31,5.23-18.88,2.59-5.21-2.09-7.77-6.72-7.37-12.32a10.67,10.67,0,0,1,9-10.07c5.25-1,10.68-1.17,16-1.7C847.67,359.79,841.57,359.27,832.11,363.85Zm18,9.89c-3.53.42-7.62-1.48-8.66,3.44-.16.74,2.16,2.69,3.55,2.94C848.31,380.71,850.13,378.36,850.13,373.74Z"/><path class="cls-1" d="M693.19,274.92c-3-5.36-6.81-5.63-18-1.39l-5.06-10.42c8.12-6.24,25.26-6.94,33.34-1.53,4,2.69,6.62,6.47,6.8,11.21.32,8.71.09,17.44.09,26.25-6.94,2.2-14.87,1-15.8-2.83-5.39,5.08-11.68,5.24-18.13,3.25a11.68,11.68,0,0,1-8.51-12c.21-5.37,3-9.38,8.78-10.65C682,275.66,687.41,275.54,693.19,274.92Zm.49,8.85c-3.22.85-7.23-1.91-8.83,2.85-.26.76,2.07,3.38,3.31,3.46C691.8,290.32,693.85,288.23,693.68,283.77Z"/><path class="cls-1" d="M610.91,283.21H583.47c2.1,5.55,7.67,6.21,15.82,2.14,2.83,2.82,5.67,5.66,8.48,8.45-.14.43-.15.8-.33,1-8.19,7.28-17.8,6.87-27.35,4.26-8-2.2-13-7.86-14.52-16.28-2.64-14.57,10.35-26.82,26.22-24.67C605.42,259.92,612.34,268.76,610.91,283.21ZM582.11,273l.75,1.74h11.87l.7-1.33c-2.09-1.25-4.17-3.48-6.26-3.5C586.82,269.88,584.46,271.86,582.11,273Z"/><path class="cls-1" d="M795.57,285.77c13,3.82,16.27,4,20,.68-2.39-.56-4.31-1.06-6.26-1.44-3-.58-6-.89-8.88-1.66-4.35-1.15-7.62-3.6-8.47-8.37-.93-5.21.26-9.9,4.91-12.64a36.25,36.25,0,0,1,10.9-4c6.79-1.41,15.52.06,21.66,3.15-1.42,3.49-2.85,7-4.36,10.76-5.88-1.6-11.47-4.45-17.29-1.44-.09.47-.19.95-.28,1.43,2.18.48,4.35,1,6.54,1.44,2.66.51,5.41.71,8,1.47,4.82,1.39,8.35,4.27,8.95,9.62A11.88,11.88,0,0,1,824.94,297c-7.33,4.45-15.39,3.86-23.36,2.86-3.5-.43-6.87-1.84-10.76-2.93Z"/><path class="cls-1" d="M1020.61,351.62l-4.47,10.74c-5.8-1.72-11.4-4.25-17.2-1.53l-.25,1.43c2,.5,4.07,1.05,6.12,1.49,3.09.66,6.27,1,9.28,1.9,4.16,1.26,7.13,3.9,7.82,8.48.78,5.05-.41,9.67-5,12.15a39.2,39.2,0,0,1-12.25,4.11c-7.61,1.24-14.95-.45-22.57-3.56l4.52-11.16c6.52,2,12.75,5.15,19.78,1.15a19.8,19.8,0,0,0-3.3-1.26c-3.56-.69-7.18-1.07-10.72-1.86-4.92-1.11-8.59-3.78-9.48-9.1-1-5.68,1.41-10.39,6.49-13.3C997.05,346.91,1011.2,346.93,1020.61,351.62Z"/><path class="cls-1" d="M763.94,360.32l-12.76,6.21c-5.07-5.7-8.74-6.67-12.23-3.36-3.11,2.94-3.1,9.41,0,12.38,3.48,3.32,7.42,2.25,12.13-3.41l12.48,6.1c-2.55,8.51-11.79,13.61-22.2,12.46-12.94-1.43-21.26-8.81-22-19.5-.74-11.15,5.63-19.56,17-22.38C748.57,345.78,759.33,350.09,763.94,360.32Z"/><path class="cls-1" d="M1092.37,360.37l-12.66,6.18c-4.94-5.72-8.68-6.69-12.22-3.32-3.2,3-3,9.89.47,12.64,3.6,2.91,7.49,1.73,11.53-3.82l12.62,6.2c-2.4,8.46-11.79,13.61-22.23,12.45-13.37-1.5-21.4-8.95-22-20.43-.53-10.52,6.43-19.11,17.48-21.59C1077.66,345.94,1088.42,350.4,1092.37,360.37Z"/><path class="cls-1" d="M793.86,339.72h17.22v11.07l8.29.44V363.3l-8.14.62c0,2.23,0,4.3,0,6.37,0,7.18.41,7.57,7.61,7,1.21,3.59,2.45,7.24,3.67,10.83-6.81,4-17.92,3.39-23.32-1.26-7.27-6.26-4.3-15.11-5.42-23l-5-.41V351.24l5.05-.42Z"/><path class="cls-1" d="M672.7,334.34h16.55v55.44H672.7Z"/><path class="cls-1" d="M718.43,244.31h16.48v55.14H718.43Z"/><path class="cls-1" d="M904.15,362.73c-1.09,0-2,.11-2.88.14-6.64.17-9.2,2.71-9.3,9.48-.08,5.71,0,11.43,0,17.42H875.13V348.53c5.58,1.08,11.63-2,17.38,2.5l11.64-3.66Z"/><path class="cls-1" d="M370.53,211.45c8.58-16.32,22.08-17.74,35.64-14.9,8.22,1.73,15.89,15.47,14.34,23.91-.55,3-2.47,4.59-5.31,4.56a101.05,101.05,0,0,1-12.16-.9c-3.19-.43-4-2.3-3.15-5.56,1.63-6.65,2.74-13.43,4.14-20.53-6.85,1.63-11.18,5.86-14.43,11.5-5.27,9.14-7.81,9.69-16.82,3.75C372,212.79,371.4,212.16,370.53,211.45Z"/><path class="cls-1" d="M713.75,389.92h-16.5V349h16.5Z"/><path class="cls-1" d="M784.49,389.88H768v-41h16.46Z"/><path class="cls-1" d="M925.91,389.86H909.63v-41h16.28Z"/><path class="cls-1" d="M303.1,309.12c-3.31,1.24-5,.61-5.61-2.95-.21-1.25-2.13-3.29-3.07-3.18-3.86.45-7.64,1.58-12.29,2.66,6.19,4.84,6.27,5.62,2.14,11.09-1,1.33-2,2.64-3,4-1.89,2.66-2,5.49.19,7.87a5.64,5.64,0,0,0,8.21.31,71.85,71.85,0,0,0,8.45-9.3c1.4-1.73,2.12-4,3.51-5.77.77-.95,2.3-1.3,3.48-1.92.68,1.37,1.4,2.73,2,4.14a1.65,1.65,0,0,1-.26,1.3c-5.22,7.91-9.86,16.41-19.85,19.5-6,1.86-10.27.09-12.27-5.77-1.72-5-2.62-10.09.92-15.12,1.09-1.56,1.14-4.79.27-6.59-1.88-3.86-.85-6.75,2.31-8.52A42.41,42.41,0,0,1,290.31,296C298.5,294.37,303.87,300.07,303.1,309.12Z"/><path class="cls-1" d="M467,336.23a65,65,0,0,1-1.94,7.61c-2.38,6.2-8.32,8.82-13.91,5.26a38.94,38.94,0,0,1-10.31-10.4c-2.47-3.5-3.7-7.88-5.33-11.94-.89-2.22-1.23-4.61,1.77-5.58s3.35,1.43,4.12,3.44c1.61,4.22,3.2,8.46,5.2,12.5s7.33,6.9,9.87,5.74,3.77-8.23,1.55-11.66c-2.61-4-2.34-6.73,2-9.1,2.17-1.19,1.94-3.09-.11-4.22a34.75,34.75,0,0,0-8.64-3.76c-1.19-.28-3.16,1.45-4.31,2.69-1.49,1.6-2.45,4.6-5.09,2.51-1-.76-.92-3.78-.31-5.38a10.21,10.21,0,0,1,14.22-5.63,43,43,0,0,1,9.5,6.05c4.39,3.66,4.23,6.91.6,11.44-.8,1-.71,3-.51,4.43A46.33,46.33,0,0,0,467,336.23Z"/><path class="cls-1" d="M399,227.2c7.09-.23,14.19,3.73,23.13.46,3.28,2.65,8,6.29,12.49,10.27,1,.88,1.66,3.29,1.15,4.36s-2.83,1.89-4.17,1.67c-12.36-2-23-7.7-32.5-15.72C399,228.11,399.05,227.69,399,227.2Z"/><path class="cls-1" d="M1034.73,371.15c5.84-.1,10.1,4,10.11,9.73a9.71,9.71,0,0,1-9.58,9.91,9.93,9.93,0,0,1-10.44-9.59C1024.6,375.64,1028.94,371.24,1034.73,371.15Z"/><path class="cls-1" d="M917.88,328.37c6.22,0,10.26,3.32,10.22,8.36s-4.47,8.95-10.48,8.91S907.49,342,907.46,337C907.43,331.62,911.37,328.35,917.88,328.37Z"/><path class="cls-1" d="M705.64,328.37c6.41,0,10.1,3.07,10.09,8.34s-4.24,9-10.31,8.93c-5.85-.05-10.21-3.68-10.31-8.6C695,332,699.38,328.35,705.64,328.37Z"/><path class="cls-1" d="M776.42,328.37c6.28,0,10.19,3.23,10.15,8.37s-4.35,9-10.4,8.9c-5.83-.06-10.18-3.73-10.24-8.64C765.86,331.72,770,328.35,776.42,328.37Z"/><path class="cls-1" d="M377.63,255.43c-4.14-1.59-8.42-2.91-12.36-4.89-1.52-.76-2.76-2.89-3.24-4.65-.39-1.43.54-3.22.89-4.85,1.47.48,3.4.51,4.31,1.5,3.37,3.64,7.55,4.83,12.24,4.68,2.66-.09,5.48-.57,5.84,3.11.39,4.07-2.74,4-5.5,4.13-.6,0-1.21,0-1.81,0Z"/><path class="cls-1" d="M396.12,236.15c0,3.07-1.93,5.06-4.76,4.43a7.05,7.05,0,0,1-4.29-4.52c-.71-3,1.57-4.68,4.61-4.63S396.06,233.12,396.12,236.15Z"/><path class="cls-1" d="M367.16,235.25c-1.26-1.69-3.24-3.23-3.62-5.09-.59-2.9,1.3-4.88,4.41-5s5.11,1.74,4.62,4.72c-.31,1.9-2.13,3.54-3.28,5.3Z"/><path class="cls-1" d="M385.68,223.73l-16-7.86.62-1.24,16.11,8.19Z"/><path class="cls-1" d="M364.38,335.34c.76-12.75,1.42-25.19,2.38-37.61.08-1.09,2.05-2.05,3.16-3.06.07-.06.29,0,.44,0,14.32,1.33,13.3,2.66,10.27,13.28-1.81,6.35-3,12.89-4.43,19.35C374.36,335.46,372.78,336.5,364.38,335.34Z"/><path class="cls-1" d="M375.09,347a6.68,6.68,0,0,1-6.7,7c-4.17.12-7-2.37-7.18-6.38a6.68,6.68,0,0,1,6.85-7.26A6.8,6.8,0,0,1,375.09,347Z"/></svg>