<svg id="Logos_Patrocinadores" data-name="Logos Patrocinadores" xmlns="http://www.w3.org/2000/svg" viewBox="0 0 1500 600"><defs><style>.cls-1{fill:#7a97ab;}</style></defs><path class="cls-1" d="M270,203.42h966.86V396.58H270Zm849.31,47.43c-22.81,0-45.61.11-68.42,0-10.52-.08-15.81,4.17-15.51,15.29.39,14.81-.18,29.65.08,44.47.39,21.68,9.85,31.35,31.45,31.5,38.77.27,77.55.52,116.29-.37,6.34-.14,17.63-5.83,17.89-9.56.89-12.7-10.65-10.36-18.74-10.41-37.62-.22-75.26.18-112.87-.52-4.67-.08-9.23-5.4-13.84-8.3,4.52-2.11,9-6,13.57-6,33.63-.52,67.27-.26,100.91-.3,5.7,0,11.77.86,17-.83,4-1.29,9.43-5.94,9.5-9.2s-5.07-8-9-9.79-8.95-.71-13.51-.71c-35.92,0-71.84.17-107.75-.36-3.65-.05-7.23-4.48-10.84-6.87,3.61-2.53,6.91-5.92,10.91-7.32,3.56-1.25,7.89-.31,11.88-.31,35.92,0,71.85.37,107.75-.43,5.35-.12,10.59-5.79,15.88-8.89-5.31-3.67-10.46-10.19-15.94-10.49C1163.82,250.14,1141.54,250.85,1119.31,250.85Zm-696.79,57c17.87-7.28,27.14-17.8,23.49-35.3-3-14.19-13.18-21.31-27.13-21.46-39.84-.43-79.69-.11-119.54-.23-11.2,0-14.71,5.95-14.54,16.26.31,18.78,0,37.57.1,56.36.05,7.8-1.27,18.23,10.31,17.07,3.6-.36,7.69-10.47,8.88-16.63,1.51-7.88-.18-16.67,11.52-17.18,34.47-1.47,68.56-1.23,98,21.06,4.52,3.43,9,7.58,14.18,9.31s11,.7,16.57.89c-1.7-5.74-2.19-12.34-5.44-17C435.52,316.15,429.47,313.2,422.52,307.82ZM552.9,342.16V342c15.4,0,30.84.71,46.18-.17,22.33-1.28,37.94-21.65,37.24-47.12-.7-25.12-16.21-43.35-38.68-43.77-30.21-.57-60.46-.67-90.66.09-22.93.57-39.29,20.22-39.41,45.32-.12,25.55,17.15,45.1,40.85,45.7C523.24,342.46,538.07,342.16,552.9,342.16Zm306.56-59.83,4.25-1.36q20.7,23.58,41.39,47.15c16.62,19,27.62,18.81,44.46-.51,13.59-15.58,27.34-31,41-46.54l4.25,1.83c0,14.59-.88,29.26.48,43.71.48,5.19,6.39,9.86,9.83,14.76,3.16-5.15,8.68-10.14,9-15.48,1.16-17,1.6-34.34-.15-51.29-.8-7.8-5.84-19.2-11.73-21.32-6.1-2.2-17.58,2.77-23.12,8.24-15,14.77-28.34,31.26-41.81,47.51-7.28,8.78-12.9,9.05-20.35.07-13.86-16.67-27.8-33.4-43.17-48.63-5.15-5.1-16.1-9.4-22-7.28-5.51,2-10.36,12.68-11,19.94-1.56,17.55-1.21,35.39-.08,53,.34,5.3,5.82,10.27,8.94,15.39,3.24-5.13,8.8-10.06,9.28-15.44C860.32,311.6,859.46,296.93,859.46,282.33Zm-38.13-25.68c-8.11-1.21-14.85-4.42-19-2.36-8,4-14.24,11.18-21.56,16.58-28.9,21.33-60.89,21.41-90.13.22-6.91-5-12.85-11.54-20.19-15.66-4-2.23-10-.85-15.11-1.1.9,5.41-.16,13.2,3,15.83,13.53,11.15,27.21,23.32,43,30.2,14.81,6.46,28,9.77,24.31,30.21-.53,3,6.59,7.28,10.18,11,3.25-3.41,7.46-6.35,9.47-10.38,1.61-3.24,1-7.84.63-11.78-.76-8.89,3.72-11.07,11.58-15,19.6-9.71,37.64-22.61,56-34.63C816.06,268.18,817,264.24,821.33,256.65Z"/><path class="cls-1" d="M363.83,286c-16,0-32,.43-47.92-.33-3.82-.18-7.45-4.32-11.16-6.64,3.47-2.59,6.9-7.37,10.41-7.43q49.65-.88,99.3-.08c3.92.07,7.78,4.39,11.66,6.74-4.21,2.58-8.32,7.15-12.66,7.39C397,286.5,380.38,286,363.83,286Z"/><path class="cls-1" d="M552.07,271.24q20.49,0,41,0c15.56,0,22.69,9,24,23.27,1.39,15.08-7.15,26.33-22.1,26.79q-42.61,1.32-85.3.05c-15-.43-23.27-11.33-22.12-26.66,1.09-14.38,7.91-23.49,23.61-23.45C524.77,271.27,538.42,271.24,552.07,271.24Z"/></svg>