<svg id="Logos_Patrocinadores" data-name="Logos Patrocinadores" xmlns="http://www.w3.org/2000/svg" viewBox="0 0 1500 600"><defs><style>.cls-1{fill:#7a97ab;}</style></defs><path class="cls-1" d="M629.13,146.23c15.36-13.41,34.36-16.31,53.23-19.48,27.95-4.71,55.55-2.2,82.91,4.48,11,2.67,21.29,6.65,30.72,15h78.3c2.79,0,5.6-.14,8.39.08,12.72,1,17.68,6.26,17.91,19.11.15,8.39,0,16.78,0,25.18V350.08c0,2.8.16,5.61-.07,8.39-.79,9.65-5.62,14.33-15.26,14.89-2.39.14-4.8.05-7.2.05h-331c-18.89,0-22.34-3.41-22.35-22.21q0-91.14,0-182.27c0-2.8-.34-5.67.17-8.38,1.27-6.72,4.54-12,12-13.16a78.66,78.66,0,0,1,11.86-1.1c22.78-.1,45.56-.05,68.35-.05ZM850.73,294.3l.6.81-.8-.6c-1.16-1.58-2.08-3.43-3.52-4.68q-23-20-46.17-39.89c-3.57-3.07-7.29-6-11.16-9.12-24.75,12-50.59,15.41-77.22,15.44-27,0-53.08-3.75-77.47-16.23-16,13.61-31.52,26.72-46.92,40-5.39,4.63-10.45,9.64-15.66,14.48l-.7.8.46-1c4.88-1.63,9.94-2.86,14.62-5,14.57-6.54,29-13.48,43.5-20.13,8.91-4.08,17.93-7.92,28.59-12.61l-33.75,79.17,2,1.22,64.42-68.46c5.33,14.8,6.37,29.55,9.47,43.82s5.62,28.58,8.4,42.87l1.92,0c6.47-28.64,12.94-57.27,19.76-87.48,8.56,9.33,15.84,17.19,23,25.13,7,7.68,13.48,15.84,20.92,23s12.49,16.83,23.07,23.82c-4.27-10.84-7.74-19.72-11.27-28.58-3.4-8.53-7.13-16.94-10.22-25.58s-8.49-16.74-9.08-27.23c2.53.9,4.05,1.32,5.46,2,20,9.19,39.85,18.52,59.87,27.54C838.63,290.43,844.77,292.17,850.73,294.3ZM783.39,185.56c-47.83,15.32-94.36,15.23-141.45.09-.44,12.66-.94,24.5.21,35.65,7.56,6.3,15.54,8.92,23.71,10.85a201.38,201.38,0,0,0,94.93-.3c8.09-2,16.13-4.56,22.6-11Zm.61-24.77c-2-1.95-3.53-4.46-5.78-5.53a117.22,117.22,0,0,0-17.76-7c-24.62-7-49.87-6.53-74.91-4-11.72,1.16-23.18,5.56-34.57,9.11-3.87,1.2-8.57,2.84-9,9.06,6.72,7.09,16.06,9.57,25.22,11.9,20.7,5.28,41.87,6.38,63,4.56,13.87-1.19,27.74-3.3,40.85-8.62C776,168.22,780.64,166.21,784,160.79Zm86.37,87.58c.15-.52.29-1,.43-1.57l-65.95-26.41c-3.61,6.36-6.82,12-10.26,18.09Zm-315.45,0c26.26-4,50.44-6.2,75.05-10.61l-9.4-17.31c-20.92,8.32-41.2,16.39-61.46,24.5C558.42,245.21,557.9,245.9,554.92,248.36Zm248.67-34s50.64-7.77,55.42-9.69c-3.66-1.83-55.42-5.79-55.42-6.05Zm-181.94.15c0-5.3,0-10.13,0-15.89q-20.23,2-40.42,4.4c-4.58.55-9.12,1.17-13.25,3.32C572.5,207.85,621.65,213.08,621.65,214.49Zm207.8-37.88c-.07-.77-.13-1.53-.19-2.3-8.72.52-17.72-1-26.4,4.45.3,3,.58,5.79.94,9.27Zm-207.09,2.18c-7.71-5-16-4.14-27-4.08,9.89,5.25,16.74,10.27,26.17,11.61C621.82,183.52,622.08,181.28,622.36,178.79Z"/><path class="cls-1" d="M445.58,446.77a23.25,23.25,0,0,0,10.65,2.93c4.66,0,7.37-2.82,7.37-6.29,0-3.2-1.67-5.27-6-7.81-5.15-3.05-8.73-7.36-8.73-12.64,0-9.28,7.82-16.09,19.09-16.09,4.79,0,8.69,1.08,10.7,2.32l-2.8,8.26a18.19,18.19,0,0,0-8.23-2c-4.44,0-7.39,2.45-7.39,5.93,0,2.86,2.05,4.76,5.68,6.88,5.25,3.2,9.32,7.47,9.32,13.17,0,10.86-8.54,16.79-20,16.79-5.36,0-10.32-1.6-12.62-3.32Z"/><path class="cls-1" d="M530,407.9l-6.39,33.74c-1.17,6.06-1.88,11.36-2.44,15.66H511.16l.91-8.16-.2-.05c-4.46,6.21-10.18,9.24-15.94,9.24-6.92,0-11.66-4.15-11.66-13.08a46.85,46.85,0,0,1,1-8.87l5.41-28.48H502l-5.25,27.68a39.49,39.49,0,0,0-.83,7.15c0,3.62,1.48,6.24,5.48,6.24,5,0,10.69-6.16,12.5-15.7l4.78-25.37Z"/><path class="cls-1" d="M529.16,477.22l9.76-51.41c1.12-6,2.14-13,2.8-17.91h10.11l-1,8h.2c3.9-5.64,9.61-9,15.44-9,9.92,0,13.9,8.27,13.9,17.27,0,16.87-10.88,34.19-27.05,34.19a17.87,17.87,0,0,1-8.68-1.9h-.23l-3.92,20.79Zm17-29.81a10.32,10.32,0,0,0,6.74,2.2c9.23,0,15.63-14.34,15.63-24.36,0-4.32-1.56-9-6.69-9-5.39,0-11.23,6.65-13.13,17Z"/><path class="cls-1" d="M621,454.63a36.44,36.44,0,0,1-16.18,3.6c-13,0-18.79-8.28-18.79-19.72,0-14.65,10-31.64,26.39-31.64,9.3,0,14.72,5.79,14.74,13.45,0,12.76-12.53,17.13-30,16.75a15.85,15.85,0,0,0,1.15,7.2c1.7,3.26,4.92,5,9.25,5a26.56,26.56,0,0,0,12.37-3Zm-10.06-39c-6.36,0-11,6.16-12.6,13,10.7.14,18.21-1.82,18.21-7.9C616.59,417.49,614.43,415.59,611,415.59Z"/><path class="cls-1" d="M629.9,457.3l6-31.35c1.25-6.71,1.94-13.71,2.46-18.05h9.86c-.27,3.14-.55,6.31-1,9.89h.31c3.38-6.51,8.47-10.92,14.52-10.92a16.86,16.86,0,0,1,2.32.15l-2.2,11.24a17,17,0,0,0-2.08-.12c-7.66,0-13,8.25-14.8,18l-4,21.19Z"/><path class="cls-1" d="M662.79,457.3l6.3-33.74c1.16-6.06,1.89-11.35,2.49-15.66h9.82l-.95,8.21h.2c4.29-6.29,9.9-9.24,15.94-9.24,6.89,0,10.16,4.53,10.59,9.49,4.15-6.26,9.94-9.44,16.27-9.49,6.53,0,11,4.38,11,12.31a56.09,56.09,0,0,1-.94,8.77L728,457.3H716.94l5.31-28.43a37.55,37.55,0,0,0,.73-6.59c0-3.71-1.54-6.15-5.26-6.15-4.86,0-10.33,6.32-12.25,16.54l-4.64,24.63h-11l5.42-28.66a33.69,33.69,0,0,0,.7-6.25c0-3.38-1.07-6.26-5.13-6.26-4.79,0-10.68,6.93-12.47,16.74l-4.51,24.43Z"/><path class="cls-1" d="M770.21,457.3c.07-2.86.4-6.44.77-10.41h-.26c-4.73,8.6-10.69,11.44-16.23,11.44-8.13,0-13.25-6.52-13.25-16.09,0-16.32,10.55-35.37,32.76-35.37a47.24,47.24,0,0,1,13.86,2.1l-5.27,26.41a116.57,116.57,0,0,0-2,21.92Zm4.94-41.2a16.53,16.53,0,0,0-4.21-.48c-10.5,0-18,13.79-18.05,24.3,0,5.16,1.6,9.12,6.18,9.12,5.13,0,11.07-7,13.27-18.64Z"/><path class="cls-1" d="M792.67,466.48c2.62,1.57,7.46,2.69,11.51,2.69,7.57,0,12.71-4.1,14.91-14.48l1.28-5.95h-.23c-4,5.95-8.76,8.44-14.28,8.44-8.8,0-13.77-7.42-13.82-16.44-.11-16.1,10.81-33.87,30.5-33.87a39.62,39.62,0,0,1,15.76,3.23l-7.64,41.25c-1.82,9.63-4.53,17-9.6,21.36-4.74,4.14-11.14,5.53-17.33,5.53-5.57,0-11.05-1.21-13.9-3ZM826,416.83a13.6,13.6,0,0,0-5.6-1.08c-9.83,0-16.49,12.52-16.55,22.73,0,5,1.61,9.79,6.84,9.79,5.48,0,10.71-7.32,12.18-15.09Z"/><path class="cls-1" d="M841.61,457.3,848,423.56c1.19-6.06,1.92-11.35,2.55-15.66h10l-.95,8.32h.2c4.29-6.24,10.08-9.35,16.41-9.35,7,0,11.55,4.44,11.55,12.66a50.89,50.89,0,0,1-.91,8.36l-5.59,29.41H869.88l5.46-28.9a32.22,32.22,0,0,0,.62-5.9c0-3.69-1.38-6.32-5.4-6.32-4.86,0-11.07,6.24-13.1,17.09l-4.51,24Z"/><path class="cls-1" d="M929.76,454.63a36.44,36.44,0,0,1-16.18,3.6c-13,0-18.79-8.28-18.79-19.72,0-14.65,10-31.64,26.39-31.64,9.3,0,14.72,5.79,14.74,13.45,0,12.76-12.53,17.13-30,16.75a15.85,15.85,0,0,0,1.15,7.2c1.7,3.26,4.92,5,9.25,5a26.56,26.56,0,0,0,12.37-3Zm-10.06-39c-6.36,0-11,6.16-12.6,13,10.69.14,18.21-1.82,18.21-7.9C925.31,417.49,923.15,415.59,919.7,415.59Z"/><path class="cls-1" d="M963.35,394.45l-2.57,13.45h10.56l-1.67,8.61H959.08L955,438.09a36.34,36.34,0,0,0-.8,6.42c0,2.69,1.24,4.29,4.2,4.29a20.58,20.58,0,0,0,3.75-.26l-1.1,8.83a25.2,25.2,0,0,1-7.33.92c-7.68,0-11.21-4.25-11.21-10a43.72,43.72,0,0,1,1-8.75l4.44-23.06h-6.4l1.62-8.61h6.45l2-10.63Z"/><path class="cls-1" d="M1006,454.63a36.44,36.44,0,0,1-16.18,3.6c-13,0-18.79-8.28-18.79-19.72,0-14.65,10-31.64,26.39-31.64,9.29,0,14.71,5.79,14.74,13.45,0,12.76-12.53,17.13-30,16.75a16.13,16.13,0,0,0,1.15,7.2c1.71,3.26,4.92,5,9.25,5a26.5,26.5,0,0,0,12.37-3Zm-10.06-39c-6.36,0-11,6.16-12.6,13,10.69.14,18.2-1.82,18.2-7.9C1001.52,417.49,999.36,415.59,995.92,415.59Z"/></svg>