<svg id="Logos_Patrocinadores" data-name="Logos Patrocinadores" xmlns="http://www.w3.org/2000/svg" viewBox="0 0 1500 600"><defs><style>.cls-1{fill:#7a97ab;}</style></defs><path class="cls-1" d="M436.77,187.32v-5.14h54.12v5.14Z"/><path class="cls-1" d="M554.28,126.35v56H536.65v-56H519V110.63h52.91v15.72Z"/><path class="cls-1" d="M582.2,182.39V110.63H631v15.72H599.84v12h26.6v15.72h-26.6v12.59H631v15.73Z"/><path class="cls-1" d="M643.48,182.39V110.63h17.64v56h30.13v15.73Z"/><path class="cls-1" d="M701.53,182.39V110.63h48.78v15.72H719.17v12h26.6v15.72h-26.6v12.59h31.14v15.73Z"/><path class="cls-1" d="M787.7,183c-8.37,0-14.71-2.82-20-8.06-7.56-7.56-7.26-17.64-7.26-28.42s-.3-20.86,7.26-28.42c5.24-5.24,11.58-8.06,20-8.06,13.6,0,24.59,7.56,27.21,23.38H797c-1.11-4-3.33-7.66-9.17-7.66a8.57,8.57,0,0,0-6.95,3c-1.62,2.12-2.72,4.64-2.72,17.74s1.1,15.62,2.72,17.73a8.55,8.55,0,0,0,6.95,3c5.84,0,8.06-3.63,9.17-7.66h17.94C812.29,175.43,801.3,183,787.7,183Z"/><path class="cls-1" d="M869.23,174.93C864,180.17,858,183,849.18,183s-14.82-2.82-20.06-8.06c-7.56-7.56-7.25-17.64-7.25-28.42s-.31-20.86,7.25-28.42c5.24-5.24,11.29-8.06,20.06-8.06s14.81,2.82,20.05,8.06c7.56,7.56,7.26,17.63,7.26,28.42S876.79,167.37,869.23,174.93Zm-13-46.06a9.54,9.54,0,0,0-14.11,0c-1.61,2.12-2.62,4.54-2.62,17.64s1,15.42,2.62,17.53a9.32,9.32,0,0,0,14.11,0c1.61-2.11,2.62-4.43,2.62-17.53S857.84,131,856.23,128.87Z"/><path class="cls-1" d="M938,182.39V148l-10.18,17.74H916.5L906.32,148v34.37H888.69V110.63H906l16.13,31.65,16.12-31.65H955.6v71.76Z"/><path class="cls-1" d="M998.34,182.39V110.63h44.54v6.86H1006v25.29h31.44v6.85H1006v25.9h36.88v6.86Z"/><path class="cls-1" d="M1077.25,183c-10.78,0-17.83-2.72-24.58-9.47l5.24-5.24c5.94,5.94,11.48,7.86,19.55,7.86,10.48,0,16.93-4.94,16.93-13.31,0-3.73-1.11-7-3.43-9s-4.13-2.63-9.37-3.43l-8.37-1.31c-5.64-.91-10.07-2.72-13.2-5.44-3.63-3.23-5.44-7.66-5.44-13.41,0-12.19,8.77-20.25,23-20.25,9.17,0,15.21,2.31,21.36,7.86l-4.94,4.93c-4.43-4-9.17-6.14-16.73-6.14-9.57,0-15.11,5.34-15.11,13.3,0,3.53,1,6.35,3.22,8.27s6,3.32,9.68,3.92l7.86,1.21c6.75,1,10.07,2.42,13.1,5,3.93,3.33,6,8.27,6,14.21C1102.05,175.23,1092.17,183,1077.25,183Z"/><path class="cls-1" d="M1140.45,183a25.54,25.54,0,0,1-18.34-7.46c-6.76-6.75-6.76-13.8-6.76-29s0-22.27,6.76-29a25.54,25.54,0,0,1,18.34-7.46c12.9,0,22.47,7.86,24.89,21.36h-7.86c-1.92-8.77-8.06-14.51-17-14.51a17.27,17.27,0,0,0-12.4,5c-4.53,4.63-5,9.57-5,24.59s.51,20,5,24.59a17.31,17.31,0,0,0,12.4,5c9,0,15.31-5.75,17.23-14.51h7.66C1163,175.13,1153.25,183,1140.45,183Z"/><path class="cls-1" d="M1206.26,183c-14.51,0-25-10-25-24.29V110.63h7.66V158.1c0,10.88,6.85,18,17.33,18s17.43-7.16,17.43-18V110.63h7.66V158.7C1231.35,173,1220.77,183,1206.26,183Z"/><path class="cls-1" d="M1251.11,182.39V110.63h44.55v6.86h-36.89v25.29h31.44v6.85h-31.44v25.9h36.89v6.86Z"/><path class="cls-1" d="M1311.58,182.39V110.63h7.66v64.9h36.68v6.86Z"/><path class="cls-1" d="M1411.16,182.39l-5.75-16.23h-31.34l-5.75,16.23h-8.16l26.41-71.76H1393l26.3,71.76Zm-21.27-60.77-13.5,37.89h26.8Z"/><path class="cls-1" d="M109.1,219.81v64.9h-7.66v-64.9H80.68V213h49.18v6.85Z"/><path class="cls-1" d="M143.27,284.71V213h44.54v6.85H150.93v25.3h31.44V252H150.93v25.9h36.88v6.85ZM166.14,206h-6.65l8.87-15.42H177Z"/><path class="cls-1" d="M226.11,285.32a25.58,25.58,0,0,1-18.34-7.46c-6.75-6.75-6.75-13.81-6.75-29s0-22.28,6.75-29a25.57,25.57,0,0,1,18.34-7.45c12.9,0,22.47,7.86,24.89,21.36h-7.86c-1.91-8.77-8.06-14.51-17-14.51a17.27,17.27,0,0,0-12.4,5c-4.53,4.63-5,9.57-5,24.59s.5,20,5,24.58a17.27,17.27,0,0,0,12.4,5c9,0,15.32-5.74,17.23-14.51H251C248.68,277.45,238.91,285.32,226.11,285.32Z"/><path class="cls-1" d="M313.69,284.71,275.6,227.17v57.54h-7.66V213h7.25l38.1,57.34V213H321v71.75Z"/><path class="cls-1" d="M341.71,284.71V213h7.66v71.75Z"/><path class="cls-1" d="M392.51,285.32a25.58,25.58,0,0,1-18.35-7.46c-6.75-6.75-6.75-13.81-6.75-29s0-22.28,6.75-29a25.57,25.57,0,0,1,18.35-7.45c12.9,0,22.47,7.86,24.89,21.36h-7.86c-1.92-8.77-8.06-14.51-17-14.51a17.25,17.25,0,0,0-12.4,5c-4.53,4.63-5,9.57-5,24.59s.51,20,5,24.58a17.25,17.25,0,0,0,12.4,5c9,0,15.31-5.74,17.23-14.51h7.66C415.08,277.45,405.3,285.32,392.51,285.32Z"/><path class="cls-1" d="M475.15,284.71l-5.75-16.22H438.06l-5.74,16.22h-8.17L450.56,213H457l26.3,71.75Zm-21.27-60.77-13.5,37.89h26.81Z"/><path class="cls-1" d="M543.68,284.71h-13.1L506.9,213h18.24l12.09,40.11L549.12,213h18.34Z"/><path class="cls-1" d="M574.73,284.71V213h17.63v56h30.13v15.72Z"/><path class="cls-1" d="M655.65,285.32c-8.36,0-14.71-2.83-19.95-8.07-7.56-7.55-7.25-17.63-7.25-28.41s-.31-20.86,7.25-28.42c5.24-5.24,11.59-8.06,19.95-8.06,13.61,0,24.59,7.55,27.21,23.37H664.93c-1.11-4-3.33-7.65-9.17-7.65a8.58,8.58,0,0,0-7,3c-1.61,2.11-2.72,4.63-2.72,17.74s1.11,15.62,2.72,17.73a8.58,8.58,0,0,0,7,3c5.84,0,8.06-3.62,9.17-7.65h17.93C680.24,277.76,669.26,285.32,655.65,285.32Z"/><path class="cls-1" d="M738.8,285.32c-10.78,0-17.84-2.72-24.59-9.48l5.24-5.24c5.95,5.95,11.49,7.86,19.55,7.86,10.48,0,16.93-4.93,16.93-13.3,0-3.73-1.1-7-3.42-9s-4.13-2.62-9.38-3.42l-8.36-1.31c-5.64-.91-10.08-2.72-13.2-5.45-3.63-3.22-5.44-7.66-5.44-13.4,0-12.19,8.76-20.25,23-20.25,9.18,0,15.22,2.31,21.37,7.86l-4.94,4.93c-4.43-4-9.17-6.15-16.73-6.15-9.57,0-15.12,5.35-15.12,13.31,0,3.53,1,6.35,3.23,8.26s6,3.33,9.67,3.93l7.86,1.21c6.76,1,10.08,2.42,13.11,5,3.92,3.32,6,8.26,6,14.21C763.59,277.56,753.72,285.32,738.8,285.32Z"/><path class="cls-1" d="M803.6,285.32c-14.51,0-25-10-25-24.29V213h7.66v47.46c0,10.89,6.86,18,17.33,18s17.44-7.15,17.44-18V213h7.66V261C828.7,275.34,818.12,285.32,803.6,285.32Z"/><path class="cls-1" d="M875.17,255.18h-19v29.53h-7.66V213h26.71c13.09,0,22.17,8.16,22.17,21.06S888.26,255.18,875.17,255.18Zm-.71-35.37H856.12v28.52h18.34c9,0,15.21-4.84,15.21-14.31S883.43,219.81,874.46,219.81Z"/><path class="cls-1" d="M912,284.71V213H956.5v6.85H919.61v25.3h31.44V252H919.61v25.9H956.5v6.85Z"/><path class="cls-1" d="M1013.64,284.71l-16.32-31.84H980.08v31.84h-7.66V213h27.52c12.49,0,21.26,7.56,21.26,19.95,0,10.48-6.35,17.34-15.62,19.25l17,32.55Zm-14.41-64.9H980.08v26.3h19.15c8.36,0,14.31-4.33,14.31-13.1S1007.59,219.81,999.23,219.81Z"/><path class="cls-1" d="M1038.54,284.71V213h7.66v71.75Z"/><path class="cls-1" d="M1107.67,277.86a26.27,26.27,0,0,1-36.68,0c-6.75-6.75-6.75-13.81-6.75-29s0-22.28,6.75-29a26.3,26.3,0,0,1,36.68,0c6.76,6.75,6.76,13.81,6.76,29S1114.43,271.11,1107.67,277.86Zm-5.94-53.51a17.52,17.52,0,0,0-24.79,0c-4.54,4.63-5,9.47-5,24.49s.5,19.85,5,24.48a17.52,17.52,0,0,0,24.79,0c4.53-4.63,5-9.47,5-24.48S1106.26,229,1101.73,224.35Z"/><path class="cls-1" d="M1173.69,284.71l-16.33-31.84h-17.23v31.84h-7.66V213H1160c12.5,0,21.27,7.56,21.27,19.95,0,10.48-6.35,17.34-15.62,19.25l17,32.55Zm-14.41-64.9h-19.15v26.3h19.15c8.36,0,14.31-4.33,14.31-13.1S1167.64,219.81,1159.28,219.81Z"/><path class="cls-1" d="M130.77,380.39c-4.34,4.33-10.69,6.65-18.14,6.65H88V315.28h24.59c7.45,0,13.8,2.32,18.14,6.66,7.45,7.45,7,18.44,7,28.42S138.22,372.93,130.77,380.39Zm-5.35-53c-3.72-3.83-8.56-5.24-14.1-5.24H95.7v58.05h15.62c5.54,0,10.38-1.42,14.1-5.24,4.94-5.14,4.74-15.82,4.74-24.59S130.36,332.52,125.42,327.38Z"/><path class="cls-1" d="M155.86,387V315.28h44.55v6.86H163.52v25.29H195v6.86H163.52v25.9h36.89V387Z"/><path class="cls-1" d="M241.43,387V315.28h7.66V387Z"/><path class="cls-1" d="M315.6,387l-38.09-57.55V387h-7.66V315.28h7.26l38.09,57.35V315.28h7.66V387Z"/><path class="cls-1" d="M385.15,379.38a26.31,26.31,0,0,1-37.49.81c-6.75-6.76-6.75-13.81-6.75-29s0-22.27,6.75-29A25.37,25.37,0,0,1,366,314.68c13.71,0,23,8.87,25.09,21.47h-7.66c-2-9.07-8.46-14.62-17.43-14.62a17.39,17.39,0,0,0-12.4,5.14c-4.53,4.64-5,9.48-5,24.49s.51,20,5,24.59a17.27,17.27,0,0,0,12.4,5,17.48,17.48,0,0,0,13.6-6.15c2.93-3.52,4-7.45,4-13V356.2H366v-6.75h25.29v11.39C391.29,369.1,389.58,374.64,385.15,379.38Z"/><path class="cls-1" d="M409.14,387V315.28h44.54v6.86H416.8v25.29h31.44v6.86H416.8v25.9h36.88V387Z"/><path class="cls-1" d="M515.36,387l-38.09-57.55V387h-7.66V315.28h7.25L515,372.63V315.28h7.66V387Z"/><path class="cls-1" d="M543.38,387V315.28H551V387Z"/><path class="cls-1" d="M571.8,387V315.28h44.55v6.86H579.46v25.29h31.45v6.86H579.46v25.9h36.89V387Z"/><path class="cls-1" d="M673.49,387l-16.32-31.85H639.93V387h-7.65V315.28h27.51c12.49,0,21.26,7.57,21.26,20,0,10.48-6.35,17.33-15.62,19.25l17,32.55Zm-14.41-64.9H639.93v26.3h19.15c8.36,0,14.31-4.33,14.31-13.1S667.44,322.14,659.08,322.14Z"/><path class="cls-1" d="M705,308.33h-6.65l8.87-15.42h8.66ZM698.39,387V315.28h7.66V387Z"/><path class="cls-1" d="M768.63,387l-5.74-16.23H731.55L725.8,387h-8.16L744,315.28h6.45L776.8,387Zm-21.26-60.77-13.5,37.89h26.8Z"/><path class="cls-1" d="M856.21,380.39c-4.33,4.33-10.68,6.65-18.14,6.65H813.48V315.28h24.59c7.46,0,13.81,2.32,18.14,6.66,7.46,7.45,7.06,18.44,7.06,28.42S863.67,372.93,856.21,380.39Zm-5.34-53c-3.73-3.83-8.56-5.24-14.11-5.24H821.14v58.05h15.62c5.55,0,10.38-1.42,14.11-5.24,4.94-5.14,4.74-15.82,4.74-24.59S855.81,332.52,850.87,327.38Z"/><path class="cls-1" d="M881.31,387V315.28h44.54v6.86H889v25.29h31.44v6.86H889v25.9h36.88V387Z"/><path class="cls-1" d="M109.1,424.47v64.9h-7.66v-64.9H80.68v-6.86h49.18v6.86Z"/><path class="cls-1" d="M143.27,489.37V417.61h44.54v6.86H150.93v25.29h31.44v6.85H150.93v25.9h36.88v6.86Z"/><path class="cls-1" d="M203.74,489.37V417.61h7.66v64.9h36.68v6.86Z"/><path class="cls-1" d="M261.49,489.37V417.61H306v6.86H269.15v25.29h31.44v6.85H269.15v25.9H306v6.86Z"/><path class="cls-1" d="M344.33,490A25.58,25.58,0,0,1,326,482.51c-6.75-6.75-6.75-13.8-6.75-29s0-22.27,6.75-29A25.58,25.58,0,0,1,344.33,417c12.9,0,22.47,7.86,24.89,21.36h-7.86c-1.91-8.76-8.06-14.51-17-14.51a17.24,17.24,0,0,0-12.39,5c-4.54,4.63-5,9.57-5,24.59s.5,19.95,5,24.59a17.28,17.28,0,0,0,12.39,5c9,0,15.32-5.75,17.24-14.51h7.65C366.91,482.11,357.13,490,344.33,490Z"/><path class="cls-1" d="M426.87,482.51a26.27,26.27,0,0,1-36.68,0c-6.75-6.75-6.75-13.8-6.75-29s0-22.27,6.75-29a26.27,26.27,0,0,1,36.68,0c6.76,6.75,6.76,13.8,6.76,29S433.63,475.76,426.87,482.51ZM420.93,429a17.52,17.52,0,0,0-24.79,0c-4.54,4.64-5,9.47-5,24.49s.5,19.85,5,24.49a17.52,17.52,0,0,0,24.79,0c4.53-4.64,5-9.48,5-24.49S425.46,433.64,420.93,429Z"/><path class="cls-1" d="M505.48,489.37V434.85l-19.65,43.23h-6.55l-19.95-43.23v54.52h-7.66V417.61h7.66l23.38,50.89,22.77-50.89h7.66v71.76Z"/><path class="cls-1" d="M557.9,490c-14.52,0-25-10-25-24.29V417.61h7.66v47.47c0,10.88,6.86,18,17.34,18s17.43-7.16,17.43-18V417.61H583v48.07C583,480,572.41,490,557.9,490Z"/><path class="cls-1" d="M648.5,489.37l-38.09-57.55v57.55h-7.66V417.61H610L648.1,475V417.61h7.66v71.76Z"/><path class="cls-1" d="M676.52,489.37V417.61h7.66v71.76Z"/><path class="cls-1" d="M727.32,490A25.58,25.58,0,0,1,709,482.51c-6.75-6.75-6.75-13.8-6.75-29s0-22.27,6.75-29A25.58,25.58,0,0,1,727.32,417c12.9,0,22.47,7.86,24.89,21.36h-7.86c-1.92-8.76-8.07-14.51-17-14.51a17.25,17.25,0,0,0-12.4,5c-4.53,4.63-5,9.57-5,24.59s.51,19.95,5,24.59a17.29,17.29,0,0,0,12.4,5c9,0,15.31-5.75,17.23-14.51h7.66C749.89,482.11,740.11,490,727.32,490Z"/><path class="cls-1" d="M810,489.37l-5.75-16.23H772.87l-5.74,16.23H759l26.4-71.76h6.45l26.3,71.76ZM788.69,428.6l-13.5,37.89H802Z"/><path class="cls-1" d="M851.08,490a25.54,25.54,0,0,1-18.34-7.46c-6.75-6.75-6.75-13.8-6.75-29s0-22.27,6.75-29A25.54,25.54,0,0,1,851.08,417c12.9,0,22.47,7.86,24.89,21.36h-7.86c-1.91-8.76-8.06-14.51-17-14.51a17.23,17.23,0,0,0-12.39,5c-4.54,4.63-5,9.57-5,24.59s.5,19.95,5,24.59a17.27,17.27,0,0,0,12.39,5c9,0,15.32-5.75,17.23-14.51H876C873.65,482.11,863.88,490,851.08,490Z"/><path class="cls-1" d="M892.91,489.37V417.61h7.66v71.76Z"/><path class="cls-1" d="M962,482.51a26.27,26.27,0,0,1-36.68,0c-6.75-6.75-6.75-13.8-6.75-29s0-22.27,6.75-29a26.27,26.27,0,0,1,36.68,0c6.76,6.75,6.76,13.8,6.76,29S968.8,475.76,962,482.51ZM956.1,429a17.52,17.52,0,0,0-24.79,0c-4.54,4.64-5,9.47-5,24.49s.5,19.85,5,24.49a17.52,17.52,0,0,0,24.79,0c4.53-4.64,5-9.48,5-24.49S960.63,433.64,956.1,429Zm-10.68-18.34h-6.66l8.87-15.42h8.67Z"/><path class="cls-1" d="M1032.59,489.37,994.5,431.82v57.55h-7.66V417.61h7.25l38.1,57.34V417.61h7.66v71.76Z"/></svg>