<svg id="Logos_Patrocinadores" data-name="Logos Patrocinadores" xmlns="http://www.w3.org/2000/svg" viewBox="0 0 1500 600"><defs><style>.cls-1{fill:#7a97ab;}</style></defs><path class="cls-1" d="M1302.79,231c0-37.53,30.85-68.17,68.57-68.19,37.26,0,68.38,31.26,68.3,68.63s-31.17,68.21-68.69,68.2S1302.75,268.67,1302.79,231Zm41.29,43.59,75.37-43.37-75.37-43.36Z"/><path class="cls-1" d="M985.27,230.94c.05-37.22,30.84-68.07,68-68.11,37.8-.05,69.08,31.15,68.88,68.69-.2,37.35-31.36,68.19-68.86,68.14S985.23,268.74,985.27,230.94Zm21.87-33.88,46.46,80.32C1069.4,250,1084.37,224.12,1100,197c-10.82,0-20.15.16-29.46-.07-3.8-.1-6.11,1.05-7.88,4.52-2.57,5.08-5.72,9.87-9.15,15.66-3.61-6.19-6.41-11.28-9.53-16.16-1-1.58-2.83-3.69-4.33-3.74C1029.34,196.9,1019,197.06,1007.14,197.06Z"/><path class="cls-1" d="M1281.06,231.36a68.34,68.34,0,0,1-68.33,68.3c-37.41,0-68.3-31-68.36-68.55-.07-37.27,31.15-68.34,68.6-68.29A68.28,68.28,0,0,1,1281.06,231.36Zm-114.64,36.49c9.07,0,16.4-.59,23.59.15,8.37.85,13.83-1.61,16.77-9.8,1.26-3.49,3.82-6.5,6.18-10.35,3.62,6.22,6.53,11.49,9.74,16.56.89,1.43,2.64,3.23,4,3.27,10.32.28,20.65.15,32.51.15l-46.38-80.35Z"/><path class="cls-1" d="M803.14,380.1c1.67-13.53-5.4-21.62-18.78-22.56-9.18-.65-15.59,1.28-29.27,8.78l-9.15-8.83c12.47-11.57,27-14.95,42.93-13.11,18.18,2.09,27.44,11.17,29,29.39,1.07,12.41.56,25,.68,37.44.08,7.69,0,15.37,0,23.49H805.44c-.29-3.8-.57-7.4-.76-9.88-7,3.84-13.72,8.61-21.2,11.38-8.43,3.12-17.34,1.52-25.61-1.94-9.63-4-15.51-11.15-16-21.85s3.47-19.13,12.88-24.62c10.22-6,21.64-7.05,33.11-7.65C792.81,379.89,797.79,380.1,803.14,380.1Zm.22,11.9c-9.24.48-18.13.61-26.94,1.55a33.53,33.53,0,0,0-11.68,3.91c-5.5,2.88-7.72,8-7,14.14s4.15,10.22,10.12,12.16C788.49,430.45,805.28,416.16,803.36,392Z"/><path class="cls-1" d="M1281.08,434.78h-13c-.32-3.89-.62-7.51-1-12-1.45,1.37-2.32,2.1-3.09,2.93-12.11,13.08-32.93,15.87-48,6.37-7.87-5-11.72-12.23-11.59-21.48.15-10.7,4.58-19.73,14.61-23.42,9.79-3.6,20.42-5.12,30.79-6.87,5-.85,10.34-.14,15.35-.14,2.66-9.9-2.08-18.58-11.51-21.27-10.81-3.09-21-1.06-30.64,4.44-1.78,1-3.46,2.18-5.63,3.56l-8.93-9.38c12.37-11.34,26.67-15,42.38-13.17,20.25,2.31,29.68,13.22,30.22,34.38.28,10.82.07,21.66.07,32.49ZM1265.9,393.1c-8.92,0-17.42-.42-25.85.18-4.2.3-8.5,2-12.35,3.89-5.84,2.87-8.16,8.14-7.4,14.52s4.5,10.44,10.78,12.27C1251.75,430,1268.08,415.69,1265.9,393.1Z"/><path class="cls-1" d="M424.35,393.89h-72C350.53,404.51,358,418,368.49,423.6c14.56,7.85,30.53,4.07,46.4-11.28l8.05,6.64c-3.44,3.48-6.27,7.38-10,9.93-15.58,10.59-32.44,11.79-49.21,3.77-17.09-8.17-23.54-23.47-23.51-41.57s7.14-33,24-41.33c15.32-7.5,30.81-6.75,45,3.24C421.69,361.79,427.45,377.93,424.35,393.89Zm-10.7-10.31c.05-15.35-12.3-27.29-28.73-28.4s-31.18,11.45-33.06,28.4Z"/><path class="cls-1" d="M230.84,382.15c2.58-15.07-3.45-23.79-17.52-26.35-12.25-2.22-23,1.4-33.33,9l-6.58-7.39c12.16-10.1,25.79-13.84,40.83-11.82,19,2.56,27.32,12.38,27.63,31.48.15,9.58.09,19.17.1,28.75s0,19,0,28.94h-8.93c-.48-4.15-.92-8-1.52-13.2-10.75,15.34-24.93,18-40.86,14.73-12.43-2.6-19.86-10.68-20.83-21.77-1.14-12.95,3.94-22.81,16.49-26.93,9.7-3.19,20.25-3.94,30.49-5.32C221.29,381.64,225.91,382.15,230.84,382.15Zm.57,8.57c-9.08.46-17.6.31-25.93,1.51a46,46,0,0,0-16.93,5.59c-11.21,6.75-10.07,21.16,1.61,27.05,17.93,9.05,39.6-2.91,41.21-22.82C231.64,398.76,231.41,395.42,231.41,390.72Z"/><path class="cls-1" d="M933.85,358.27l-10.07,9.17c-5.21-3.07-9.65-6.87-14.79-8.51-22.77-7.29-42.63,12-38.69,37.08,3.25,20.68,20.37,32.51,39.13,26.47,5-1.6,9.24-5.22,14.6-8.35l9.37,8.8c-13.76,18.17-46.91,19.56-64.88,3.08-19.39-17.79-19.23-52.59.32-70.61C886.58,339.06,919.86,340.36,933.85,358.27Z"/><path class="cls-1" d="M1092.49,346.59h16.85l27.79,69.66c1.34-3.06,2.19-4.8,2.88-6.61,7.1-18.67,14.45-37.26,21.1-56.09,2-5.63,4.51-8.32,10.56-7.34,2.37.38,4.86.06,8.13.06-4.84,12.38-9.35,24-13.9,35.54-6.26,15.88-12.75,31.67-18.7,47.66-1.82,4.88-4.59,6.25-9.31,5.68s-9.27,1.55-12-5.41c-10-26-20.87-51.73-31.4-77.55C1093.85,350.5,1093.28,348.76,1092.49,346.59Z"/><path class="cls-1" d="M986.83,321.44V346.1H1013v12.41H987c0,4.29,0,7.94,0,11.6,0,12.91-.12,25.84.24,38.74.35,12.75,6,17,18.67,14.64,2.4-.45,4.75-1.21,7.17-1.85,1.42,14.53,2.73,13.27-11.89,15.67a34.16,34.16,0,0,1-6.24.13c-14.31-.32-21.74-7-22.23-21.4-.57-16.43-.28-32.9-.36-49.36,0-2.44,0-4.88,0-7.9H953.2V346.59h18.95V321.44Z"/><path class="cls-1" d="M539.88,434.76H529c-.1-2.1-.29-4.11-.29-6.12,0-14.16,0-28.32,0-42.49,0-2.29,0-4.59-.17-6.86-1.27-14.57-6.27-21.42-17.1-23.58-12.48-2.49-25.83,3.26-30.86,14.8-2.82,6.47-4.08,13.95-4.5,21.07-.7,12-.19,24.15-.19,36.23v7H464.74V348h9.89c.23,4.45.46,8.75.69,13.05l1.86,1.63c.49-1.28.7-2.77,1.49-3.81,10.42-13.77,31.12-18.08,46.12-9.68,8.52,4.78,12.92,12.53,13.85,21.81,1,10.33,1,20.77,1.2,31.16C540,412.88,539.88,423.66,539.88,434.76Z"/><path class="cls-1" d="M657.25,360.62l-8.2,6.15c-8.35-7.83-17.53-13.38-29.64-11.15-8.27,1.52-15.42,4.81-20.82,11.43-11.73,14.4-11.21,36.69,1.15,49.91,12.84,13.72,29.69,13.4,49.69-1.19l7.36,6.07c-8.47,13.27-27.25,18.82-45.47,13.81-19.39-5.34-32-22.12-32.42-43.13-.42-21.19,11.17-38.47,30.09-44.86C627.22,341.51,647.36,346.76,657.25,360.62Z"/><path class="cls-1" d="M59.9,347.73a32,32,0,0,0,3.36-.27c6.87-1.38,10.09,1.47,12.49,8.16,7.14,20,15.17,39.6,22.86,59.37l3,7.73c1.33-3.14,2.21-5,3-7q11.4-30,22.75-60.07c3.36-8.85,3.37-8.84,13.84-7.73-.46,1.6-.77,3.16-1.34,4.62-10.13,25.73-20.37,51.41-30.33,77.2-1.61,4.18-3.78,5.47-8.19,5.52s-6.53-1.51-8.14-5.52c-10.4-25.84-21-51.59-31.58-77.37C61.07,351.06,60.62,349.71,59.9,347.73Z"/><path class="cls-1" d="M298.46,434.89H288.25V291.78h10.21Z"/><path class="cls-1" d="M1046.8,346.58h13.81v88.08H1046.8Z"/><path class="cls-1" d="M701.73,434.89H691.5v-87h10.23Z"/><path class="cls-1" d="M392.25,327.18c-5.21,1.42-8.92,0-12.33-3.94-6.35-7.37-13.19-14.33-20-21.64,10.2-3,13.29-2,18.84,5.67q6.59,9.09,13.07,18.25A6.81,6.81,0,0,1,392.25,327.18Z"/></svg>