<svg id="Logos_Patrocinadores" data-name="Logos Patrocinadores" xmlns="http://www.w3.org/2000/svg" viewBox="0 0 1500 600"><defs><style>.cls-1{fill:#7a97ab;}</style></defs><path class="cls-1" d="M1282.71,234.21c0-36.13,29.76-65.62,66.15-65.63,35.94,0,66,30.08,65.89,66s-30.07,65.65-66.27,65.64S1282.67,270.45,1282.71,234.21Zm39.87,42,72.67-41.77-72.67-41.67Z"/><path class="cls-1" d="M976.38,234c.06-35.76,29.87-65.41,65.75-65.41,36.19,0,66.19,29.71,66.3,65.67.11,36.13-30.13,66.13-66.58,66C1005.7,300.18,976.32,270.43,976.38,234Zm65.92,44.87L1087,201.6c-11.45,0-21.61-.13-31.77.15-1.27,0-2.79,2-3.66,3.4-3,4.84-5.86,9.82-9.32,15.69-3.44-5.86-6.19-10.69-9.12-15.4-.89-1.44-2.28-3.62-3.5-3.65-10.28-.29-20.57-.17-32.12-.17C1012.7,227.79,1027.09,252.62,1042.3,278.85Z"/><path class="cls-1" d="M1261.73,234.88c-.13,36.21-29.81,65.5-66.26,65.4-36-.11-66.06-30.53-65.61-66.34a66.41,66.41,0,0,1,66.54-65.37A65.74,65.74,0,0,1,1261.73,234.88Zm-110.61,34.77c9.17,0,16.78-.46,24.31.14,6.92.55,11.35-1.45,13.93-8.12,1.47-3.8,4.09-7.15,6.59-11.37,3.44,5.88,6.27,10.92,9.34,15.81.88,1.4,2.46,3.32,3.76,3.36,10.09.28,20.19.15,31.65.15-15.19-26.25-29.57-51.1-44.74-77.3Z"/><path class="cls-1" d="M800.84,377.69c1-13.37-5.36-20.66-18-21.69-9.21-.76-17.12,1.61-28.76,8.79l-8.25-9c7.91-8.22,18.15-11.62,29.3-12.7a53.76,53.76,0,0,1,12.61.37c17,2.42,25.6,10.8,27.06,27.84,1.07,12.54.57,25.22.71,37.84.07,6.95,0,13.91,0,21.11H802.86c-.27-3.74-.5-7.08-.79-11.11a22,22,0,0,0-2.88,2.18c-11.25,12.12-28.45,15.27-43.56,7.93-8.68-4.21-13.75-11-14.1-20.72s3.13-17.64,11.66-22.92c10.13-6.27,21.54-7.26,33-7.87C791,377.48,795.75,377.69,800.84,377.69Zm-.2,12.06c-7.38,0-14.44-.56-21.37.18a51.37,51.37,0,0,0-15.44,4.4c-5.43,2.45-7.61,7.51-7,13.45.65,6.22,4.09,10.19,10.14,12C787.05,426,803.84,411.27,800.64,389.75Z"/><path class="cls-1" d="M1262.55,430.33h-13.34c-.31-3.58-.61-7.08-1-11.3a34.57,34.57,0,0,0-2.83,2.36c-11.14,11.9-28,15.06-43.06,8.09-9.24-4.28-14.42-11.41-14.59-21.62-.17-10.49,3.94-19.57,13.9-23.26,9.61-3.56,20.07-5,30.27-6.75,4.84-.82,9.93-.14,14.76-.14,1.84-10.74-2.73-18.24-12.36-20.67-12.37-3.13-23.37.39-33.63,7.72l-8.5-9c5.89-6.41,13.66-9.82,22.15-11.6a61,61,0,0,1,13.15-1.22c22.31.22,33.77,11.49,34.21,33.77.26,13,0,26.05.1,39.08C1261.84,420.38,1262.26,425,1262.55,430.33Zm-15.67-40.5c-7.58,0-14.84-.53-22,.18a47.65,47.65,0,0,0-14.85,4.29c-5.69,2.63-7.73,7.93-6.92,14.05.79,5.94,4.26,9.7,10,11.48C1233.28,426,1250,411.41,1246.88,389.83Z"/><path class="cls-1" d="M435.58,391H365.72c-1.57,10.5,5.57,23.18,15.69,28.59,14,7.49,28.77,4,44.75-10.85l7.25,6c-6.56,10.59-16.35,15.55-28,17.6-23.26,4.1-43.41-8.07-49.5-29.91-6.73-24.12,3.87-48,25.27-55.68C410.8,336.13,439.89,356.63,435.58,391Zm-10.74-9.88c.42-14.87-12.46-27-28.62-27.46-15.79-.43-30.47,12.63-30.61,27.46Z"/><path class="cls-1" d="M248.59,380c2.14-15.38-3.51-23.33-17.21-25.76-11.8-2.09-22.15,1.56-32,8.73l-5.81-6.78c12.58-13.34,40.62-16.33,54.94-6.11a22.84,22.84,0,0,1,10,17.73c.66,11.2.62,22.43.75,33.65.11,9.39,0,18.79,0,28.68h-8.68c-.38-3.73-.78-7.57-1.3-12.57-11.81,15.94-26.64,18.06-43.18,13-9.69-3-15.55-9.64-16.44-20-.94-10.85,2.78-19.86,12.91-24.25,7.4-3.2,15.62-5,23.65-6.08C233.49,379.23,241,380,248.59,380Zm0,9c-11.72-2.17-29.52-.29-38.24,4-7.23,3.59-10.43,8.61-9.92,15.58.48,6.48,5.08,11.47,12.55,13.62C235.08,428.58,252.43,412.39,248.64,389Z"/><path class="cls-1" d="M916.74,409.83l9.46,9c-7,11.58-28.1,17.3-45.51,12.31-18.27-5.23-29.58-20.08-30.81-40.66-1.2-19.94,9.38-37.47,26.69-44.28,17.81-7,39-2.77,50.28,10.39l-10.29,9.35c-16.45-12.81-32.69-13.14-43.4-1.26-11.07,12.29-10.62,35,.93,46.9C885.26,423.05,901.31,422.47,916.74,409.83Z"/><path class="cls-1" d="M1164.05,345.14c-4.67,11.91-9,23.07-13.42,34.21-6,15.29-12.29,30.48-18,45.87-1.75,4.7-4.44,6-9,5.46-4.4-.53-8.94,1.5-11.53-5.21-9.65-25.05-20.13-49.78-30.29-74.64-.66-1.63-1.21-3.3-2-5.38h16.26c8.73,21.83,17.48,43.72,26.8,67.05,1.3-2.95,2.12-4.63,2.78-6.37,6.86-18,13.94-35.86,20.36-54,1.92-5.42,4.35-8,10.19-7.06C1158.5,345.44,1160.9,345.14,1164.05,345.14Z"/><path class="cls-1" d="M977.88,345.17h25.22v11.75H978c0,4.53,0,8.45,0,12.37.05,12-.12,24.07.22,36.09.36,12.27,5.84,16.38,18,14.08,2.31-.43,4.57-1.17,6.91-1.78,1.36,14,2.64,12.78-11.47,15.08a32.77,32.77,0,0,1-6,.13c-13.8-.31-21-6.77-21.45-20.6-.54-15.82-.27-31.67-.34-47.51,0-2.35,0-4.71,0-7.6H945.44V345.44h18.28v-24.2h14.16Z"/><path class="cls-1" d="M546,430.47H535.85V424q0-20.44,0-40.89a63.44,63.44,0,0,0-.34-7.8c-1.13-9.13-3.6-17.5-13.77-20.54a28,28,0,0,0-29.41,8.92c-5.69,7.07-7.39,15.41-7.42,24.22,0,11.83,0,23.65,0,35.48v6.85H474.05V346.61h9.65c.25,4.39.5,8.65.84,14.49,6.28-9,13.22-14.6,22.77-16.31,15.85-2.84,36.62,1.38,38.37,26.28C547.06,390.57,546,410.24,546,430.47Z"/><path class="cls-1" d="M659.91,359l-7.9,5.92c-8.06-7.54-16.92-12.88-28.6-10.73-8,1.46-14.88,4.62-20.09,11-11.31,13.86-10.82,35.32,1.11,48,12.39,13.21,28.65,12.9,47.94-1.14l7.11,5.84c-8.18,12.78-26.3,18.12-43.87,13.29-18.71-5.14-30.88-21.29-31.28-41.5-.41-20.4,10.78-37,29-43.19C630.94,340.55,650.37,345.61,659.91,359Z"/><path class="cls-1" d="M83.6,346.56c1.65-.13,2.45-.12,3.23-.27,6.6-1.32,9.75,1.35,12.07,7.82,6.88,19.21,14.64,38.11,22,57.14.79,2,1.59,4.06,2.93,7.47,1.28-3,2.13-4.83,2.84-6.69q11-28.9,21.95-57.82c3.24-8.53,3.26-8.52,13.35-7.48a45.8,45.8,0,0,1-1.27,4.42c-9.77,24.77-19.65,49.49-29.26,74.31-1.55,4-3.6,5.32-7.88,5.34s-6.3-1.39-7.87-5.28c-10-24.87-20.29-49.66-30.47-74.48C84.75,349.78,84.31,348.48,83.6,346.56Z"/><path class="cls-1" d="M303.89,292.47h9.91V430.25h-9.91Z"/><path class="cls-1" d="M1049.23,430.39h-13.45V345.48h13.45Z"/><path class="cls-1" d="M703,346.71v83.5H693v-83.5Z"/><path class="cls-1" d="M405,326.57c-5.72,1.56-9.3.22-12.59-3.59-6.13-7.1-12.73-13.8-19.28-20.83,9.77-2.87,12.81-1.93,18.15,5.43C395.69,313.7,400.1,319.85,405,326.57Z"/></svg>