<?xml version="1.0" encoding="utf-8"?>
<!-- Generator: Adobe Illustrator 25.4.1, SVG Export Plug-In . SVG Version: 6.00 Build 0)  -->
<svg version="1.1" id="Logos_Patrocinadores" xmlns="http://www.w3.org/2000/svg" xmlns:xlink="http://www.w3.org/1999/xlink"
	 x="0px" y="0px" viewBox="0 0 1500 600" style="enable-background:new 0 0 1500 600;" xml:space="preserve">
<style type="text/css">
	.st0{fill:#3C3C3B;}
	.st1{fill:#363C3B;}
	.st2{fill:#FFFFFF;}
	.st3{fill:#353C3B;}
	.st4{fill-rule:evenodd;clip-rule:evenodd;fill:#3C3C3B;}
	.st5{fill:#FCFCFC;}
	.st6{fill:#EE8398;}
	.st7{fill:none;}
	.st8{fill-rule:evenodd;clip-rule:evenodd;fill:#3C3C3B;stroke:#000000;stroke-width:0.2137;stroke-miterlimit:3.8637;}
	.st9{fill:none;stroke:#353C3B;stroke-width:4.252;stroke-miterlimit:10;}
	.st10{fill:#393E41;}
	.st11{fill:#FFFFFC;}
	.st12{fill:#FFFCFB;}
	.st13{clip-path:url(#XMLID_00000008835550424740011300000014904198167403628168_);fill:#3C3C3B;}
	.st14{fill:#8F8FA3;}
	.st15{fill:none;stroke:#000000;stroke-width:4;stroke-miterlimit:10;}
</style>
<g>
	<path class="st14" d="M401.16,291.79c-1.73,0.18-2.88,0.4-4.04,0.4c-10.81,0.03-21.62,0.04-32.43,0.01
		c-4.02-0.01-4.28-0.32-5.07-4.07c-1.78-8.49-3.69-16.95-5.36-25.46c-0.46-2.33-1.72-2.89-3.75-2.89
		c-5.55,0.02-11.11,0.02-16.66-0.01c-1.45-0.01-2.9-0.17-4.3-0.25c-0.23-3.47,2.58-12.88,5.81-19.64c4.42,0,9.14,0,14.36,0
		c-2.67-15.24-5.23-29.82-7.79-44.41c-0.36-0.07-0.72-0.14-1.08-0.21c-1.23,2.29-2.54,4.53-3.67,6.86
		c-3.41,7.01-6.64,14.11-10.15,21.08c-7.49,14.87-15.1,29.69-22.69,44.51c-5.6,10.95-11.22,21.9-16.86,32.83
		c-3.1,5.99-6.3,11.93-9.38,17.94c-0.83,1.63-1.89,2.58-3.81,2.57c-11.71-0.04-23.42-0.03-35.13-0.08c-0.55,0-1.09-0.33-1.81-0.57
		c0.09-0.69,0.02-1.34,0.27-1.81c3.32-6.22,6.73-12.38,10.01-18.61c4.27-8.09,8.4-16.26,12.67-24.35
		c8.11-15.39,16.26-30.75,24.41-46.11c5.12-9.67,10.27-19.33,15.39-29c8.07-15.23,16.11-30.49,24.23-45.7
		c3.65-6.83,3.73-6.78,11.3-6.78c9.76,0,19.52-0.01,29.27,0c4.92,0.01,5.03,0,6.02,4.59c4.12,19,8.13,38.02,12.26,57.02
		c3.02,13.89,6.18,27.74,9.22,41.62C395.31,264.55,398.15,277.84,401.16,291.79z"/>
	<path class="st14" d="M521.99,148.28c12.81,0,25.07,0,37.9,0c-0.18,1.84-0.25,3.71-0.55,5.55c-1.37,8.55-2.81,17.08-4.19,25.62
		c-2.02,12.52-4.03,25.05-6.02,37.57c-1.03,6.49-1.87,13-3.03,19.47c-2.49,13.87-6.53,27.19-16.2,37.92
		c-3.47,3.84-7.59,7.34-11.99,10.05c-9.4,5.79-19.72,9.13-30.76,10.6c-7.06,0.94-14.09,1.03-21.07,0.62
		c-11.94-0.7-23.43-3.54-33.13-11.09c-6.74-5.25-10.87-12.32-12.8-20.6c-0.64-2.74-0.88-5.6-1.04-8.42
		c-0.69-11.89,1.3-23.53,3.3-35.18c1.79-10.44,3.19-20.95,4.84-31.42c1.58-10.03,3.27-20.03,4.9-30.05
		c0.55-3.38,1.07-6.76,1.59-10.03c3.35-1.03,32.3-1.28,38.21-0.31c-0.85,5.83-1.66,11.68-2.57,17.52
		c-1.4,8.99-2.85,17.98-4.31,26.96c-1.67,10.31-3.42,20.61-5.02,30.94c-1.33,8.59-2.38,17.23-0.36,25.85
		c1.38,5.87,5.12,9.72,10.99,11.33c11.04,3.01,20.88,0.92,28.76-7.58c4.36-4.7,6.38-10.83,7.81-16.97
		c1.52-6.54,2.56-13.19,3.69-19.81c1.48-8.68,2.88-17.37,4.25-26.07c1.34-8.55,2.55-17.12,3.91-25.67
		C519.95,159.62,520.96,154.2,521.99,148.28z"/>
	<path class="st14" d="M932.89,291.94c-14.02,0-27.01,0-40.49,0c-2.98-10.26-4.56-20.89-7.25-31.86c-3.88-0.63-8.05-0.2-12.17-0.28
		c-4.17-0.08-8.34-0.02-13.13-0.02c1.98-6.36,3.76-12.17,5.61-17.97c0.48-1.51,1.75-1.9,3.23-1.88c2.55,0.03,5.1,0.03,7.65-0.01
		c1.45-0.02,2.9-0.16,4.97-0.29c-2.62-15.06-5.15-29.64-7.69-44.22c-0.31-0.08-0.62-0.16-0.94-0.24c-0.74,1.37-1.52,2.73-2.22,4.12
		c-9.13,18.25-18.09,36.59-27.45,54.72c-6.18,11.98-12.96,23.64-19.4,35.48c-0.95,1.75-1.98,2.75-4.14,2.74
		c-11.7-0.09-23.41-0.05-35.11-0.08c-0.57,0-1.13-0.24-2.26-0.5c1.24-2.61,2.27-5.04,3.52-7.35c2.85-5.27,5.85-10.45,8.7-15.72
		c8.48-15.68,16.9-31.4,25.38-47.08c7.41-13.7,14.87-27.38,22.32-41.07c5.37-9.87,10.78-19.72,16.12-29.6
		c0.83-1.53,1.67-2.79,3.67-2.79c13.04,0.02,26.09,0.01,39.7,0.01C911.95,195.89,922.34,243.56,932.89,291.94z"/>
	<path class="st14" d="M555.33,279.44c7.18-10.48,13.99-20.42,21.02-30.69c2.51,1.95,4.76,3.6,6.91,5.39
		c7.68,6.4,16.44,9.88,26.48,9.14c6.83-0.5,12.93-2.95,16.31-9.48c3.13-6.06,1.46-11.59-4.59-14.8c-3.82-2.02-7.92-3.57-11.99-5.04
		c-5.91-2.14-12.04-3.69-17.85-6.06c-13.95-5.7-19.03-16.61-17.09-31.43c0.8-6.1,1.95-12.05,4.36-17.78
		c4.12-9.78,10.3-17.81,18.92-23.99c8.35-5.98,17.64-9.2,27.85-10.32c16.46-1.8,31.73,2,46.41,9.03c0.27,0.13,0.54,0.26,0.81,0.4
		c3.36,1.82,3.54,2.32,1.46,5.43c-2.5,3.73-5.12,7.38-7.64,11.1c-3.35,4.96-6.65,9.95-10.13,15.15c-1.59-1.09-3.07-2.01-4.45-3.07
		c-5.94-4.58-12.73-6.66-20.12-6.31c-6.21,0.3-11.68,2.58-15.16,8.16c-2.48,3.96-1.57,8.84,2.33,11.53c2.19,1.51,4.64,2.78,7.14,3.7
		c5.34,1.97,10.81,3.61,16.19,5.47c5.4,1.87,10.52,4.26,15.09,7.81c7.06,5.49,10.86,12.53,11.06,21.55
		c0.33,15.63-4.41,29.67-14.28,41.57c-5.44,6.56-12.91,11.03-20.89,14.43c-11.88,5.07-24.33,6.4-36.98,5.38
		c-11.59-0.94-22.6-4.39-32.6-10.54C561.24,283.52,558.7,281.7,555.33,279.44z"/>
	<path class="st14" d="M773.32,185.05c-1.78-1.25-3.44-2.5-5.19-3.63c-5.82-3.74-12.15-5.97-19.13-5.33
		c-4.49,0.41-8.79,1.64-12.17,5.07c-7.1,7.19-3.87,13.5,3.15,16.83c4.98,2.37,10.35,3.98,15.65,5.59
		c5.47,1.66,10.79,3.63,15.63,6.67c8.24,5.17,13.83,11.97,14.65,22.31c0.57,7.17-0.7,13.94-2.42,20.7
		c-2.21,8.7-6.45,16.47-12.36,23.19c-2.54,2.89-5.63,5.41-8.83,7.57c-8.55,5.78-18.03,9.23-28.24,11
		c-6.74,1.16-13.49,1.17-20.16,0.66c-11.14-0.85-21.73-4.1-31.43-9.85c-1.93-1.14-3.89-2.26-5.72-3.55c-1.3-0.92-2.41-2.1-3.82-3.36
		c7.01-10.13,13.8-19.94,20.84-30.11c1.55,1.08,3.02,1.83,4.14,2.93c5.83,5.73,12.7,9.4,20.71,11.05
		c6.91,1.43,13.42,0.56,19.46-3.12c4.29-2.62,6.27-6.84,6.91-11.57c0.21-1.55-0.67-3.58-1.69-4.89c-2.5-3.23-5.62-5.74-9.7-6.96
		c-6.31-1.89-12.63-3.8-18.83-6.05c-6.21-2.25-12.26-4.97-16.84-10.02c-3.64-4.01-5.7-8.67-5.94-14.18
		c-0.38-8.77,0.36-17.34,3.53-25.62c2.11-5.51,5.06-10.53,8.67-15.16c8.77-11.28,20.54-17.76,34.35-20.34
		c5.93-1.11,11.97-1.52,18.24-0.72c8.39,1.07,16.51,2.81,24.41,5.63c3.37,1.2,6.58,2.89,9.77,4.56c2.17,1.14,2.43,2.02,1.17,3.93
		c-5.8,8.74-11.69,17.42-17.56,26.11C774.4,184.59,774.04,184.66,773.32,185.05z"/>
	<path class="st14" d="M1173.92,195.14c12.95,0,25.05,0,37.61,0c0.28,5.72-1.77,10.99-1.67,16.64c7.86,0.73,15.3-0.09,22.17-4.07
		c3.52-2.04,5.75-5.14,7.11-8.94c1.37-3.84,1.41-3.87,5.4-3.88c10.2-0.03,20.41-0.02,30.61,0c1.17,0,2.34,0.18,4.11,0.33
		c-0.22,1.76-0.18,3.37-0.64,4.81c-5.2,16.43-15.57,27.74-32.45,32.53c-0.7,0.2-1.42,0.35-2.7,0.66
		c11.29,19.5,23.35,38.17,34.81,57.79c-1.7,0.15-2.84,0.33-3.99,0.33c-13.05,0.02-26.11-0.08-39.16,0.08
		c-3.01,0.04-4.58-0.95-5.85-3.65c-6.95-14.79-14.07-29.49-21.15-44.22c-0.64-1.33-1.39-2.61-2.64-4.93
		c-0.72,3.53-1.31,6.03-1.73,8.57c-1.49,8.98-2.95,17.97-4.37,26.96c-0.74,4.72-1.42,9.45-2.02,14.19c-0.25,1.98-1.18,3-3.18,2.99
		c-11.4-0.05-22.8-0.09-34.19-0.16c-0.26,0-0.51-0.27-1.22-0.67C1163.79,258.93,1168.83,227.19,1173.92,195.14z"/>
	<path class="st14" d="M1107.56,203.01c13.8,0,27.09,0,40.89,0c-0.96,6.52-1.84,12.51-2.73,18.5c-0.48,3.25-1.05,6.48-1.47,9.73
		c-0.48,3.69-0.98,4.23-4.88,4.25c-10.65,0.03-21.3,0.01-31.95,0.01c-1.2,0-2.4,0.01-3.6,0.04c-1.57,0.04-2.48,0.81-2.73,2.41
		c-0.88,5.75-1.85,11.5-2.67,17.26c-0.18,1.27,0.08,2.61,0.17,4.49c14.32,0,28.33,0,42.2,0c0.85,3.81-1.93,23.35-4.18,30.88
		c-3.08,0.94-74.37,1.27-81.25,0.31c0-1.47-0.2-3.06,0.03-4.58c1.65-10.92,3.34-21.83,5.1-32.74c1.64-10.17,3.44-20.31,5.07-30.48
		c1.47-9.13,2.8-18.28,4.19-27.35c3.19-1.05,31.74-1.34,37.95-0.38c-0.11,1.1-0.29,2.22-0.31,3.35
		C1107.35,199.89,1107.47,201.07,1107.56,203.01z"/>
	<path class="st14" d="M999.41,235.37c-3.72,18.81-5.6,37.35-9.39,55.68c-12.66,0-24.87,0-37.74,0c0.48-3.4,0.87-6.43,1.33-9.45
		c1.66-10.76,3.34-21.53,5.04-32.28c1.57-9.88,3.19-19.74,4.76-29.61c1.13-7.07,2.25-14.14,3.3-21.23c0.43-2.9,0.77-3.54,3.52-3.56
		c10.95-0.07,21.89-0.03,32.84,0.01c0.69,0,1.38,0.36,2.08,0.56c-0.18,2.37-0.34,4.54-0.53,7.11c4.65,0.77,8.97,0.31,13.26,0.39
		c4.5,0.08,9,0.02,13.5,0.02c4.32,0,8.63,0,12.93,0c0.1,6.04-3.58,28.31-5.38,32.36C1026.14,235.37,1013.15,235.37,999.41,235.37z"
		/>
	<path class="st14" d="M219.37,341.78c0-3.65,0-6.44,0-9c0.36-0.35,0.46-0.46,0.58-0.55c0.12-0.08,0.25-0.17,0.39-0.19
		c0.59-0.1,1.18-0.24,1.77-0.24c137.46-0.01,274.92,0,412.38,0.01c0.59,0,1.17,0.17,1.88,0.29c1.45,2.88,0.48,5.84,0.72,9
		c-1.23,0.26-2.2,0.55-3.19,0.65c-1.04,0.11-2.1,0.03-3.15,0.03c-135.06,0-270.12,0-405.18,0
		C223.67,341.78,221.76,341.78,219.37,341.78z"/>
	<path class="st14" d="M1297.1,331.77c0,3.7,0,6.49,0,9.2c-3.43,0.98-411.07,1.29-417.13,0.36c-1.22-2.8-0.58-5.74-0.37-9.22
		c1.93-0.12,3.8-0.33,5.68-0.33c43.22-0.02,86.45-0.01,129.67-0.01c92,0,184,0,276,0C1292.86,331.77,1294.77,331.77,1297.1,331.77z"
		/>
	<path class="st14" d="M1280.74,186.54c-1.32,0.14-2.2,0.31-3.08,0.31c-11.39,0.02-22.79-0.04-34.18,0.06
		c-2.18,0.02-3.58-0.72-4.89-2.43c-3.65-4.76-8.79-6.51-14.59-6.64c-2.96-0.07-5.92-0.01-8.96-0.01c-0.68,3.09-1.25,5.69-1.82,8.23
		c-3.19,0.97-30.89,1.25-37.18,0.33c0-1.77-0.23-3.67,0.04-5.48c1.3-8.55,2.72-17.09,4.13-25.63c0.36-2.2,0.82-4.38,1.3-6.89
		c1.39-0.12,2.68-0.33,3.98-0.33c18.44-0.02,36.89-0.28,55.32,0.1c9.45,0.19,18.66,2.11,26.82,7.58c5.05,3.39,8.8,7.78,10.86,13.36
		C1280.5,174.54,1281.89,180.21,1280.74,186.54z"/>
	<path class="st14" d="M1057.68,148.34c-1.56,10.26-3.03,19.83-4.45,29.42c-0.26,1.78-1.17,2.69-2.95,2.74
		c-1.05,0.03-2.1,0.04-3.15,0.04c-11.41,0-22.82,0-34.22,0c-1.62,0-3.23,0-5.03,0c-0.36,2.17-0.65,3.89-0.93,5.53
		c-3.4,1-32.87,1.18-38.07,0.2c1.82-12.6,3.59-25.23,6.12-37.92C1002.68,148.34,1029.91,148.34,1057.68,148.34z"/>
	<path class="st14" d="M1071.29,186.6c1.87-12.21,3.62-23.7,5.42-35.19c0.41-2.6,1.19-3.25,3.89-3.34c2.7-0.09,5.4-0.02,8.1-0.02
		c21.61,0,43.22,0,64.84,0c1.76,0,3.53,0,5.89,0c-0.73,5.09-1.34,9.6-2.04,14.1c-0.73,4.72-1.65,9.42-2.3,14.15
		c-0.53,3.93-0.62,4.22-4.71,4.23c-11.56,0.04-23.11,0.01-34.67,0.01c-1.63,0-3.26,0-4.56,0c-0.5,0.63-0.82,0.85-0.85,1.1
		c-0.73,6.2-1.63,5.2-6.18,5.23c-9.3,0.05-18.61,0.03-27.92,0C1074.74,186.86,1073.29,186.71,1071.29,186.6z"/>
	<path class="st14" d="M769.83,453.05c7.3-16.91,14.51-33.42,22.53-49.8c7.97,16.15,14.49,32.64,21.8,48.83
		c3.1-2.56,20.03-29.63,25.26-40.37c-3.36-1.17-6.78-0.45-10.11-0.58c-3.43-0.13-6.87-0.03-10.84-0.03
		c-0.13-2.02-0.23-3.71-0.33-5.31c3.33-1.24,27.03-1.49,32.07-0.41c-0.64,3.82-3.23,6.65-5.1,9.77
		c-5.85,9.75-11.89,19.39-17.81,29.1c-0.6,0.98-0.94,2.12-1.63,3.74c8.05,0,15.65,0,23.67,0c0.13,1.81,0.23,3.21,0.37,5.06
		c-1.62,0.17-2.9,0.41-4.18,0.41c-11.4,0.03-22.79-0.06-34.19,0.07c-2.62,0.03-4.24-0.74-5.17-3.23c-0.93-2.52-2.27-4.91-3.1-7.46
		c-0.67-2.05-1.77-2.92-3.89-2.89c-4.65,0.07-9.3,0.11-13.94-0.02c-2.18-0.06-3.32,0.94-4.05,2.79c-0.77,1.95-1.61,3.87-2.39,5.82
		C776.67,453.87,776.68,453.87,769.83,453.05z M792.61,418.03c-0.3,0.05-0.61,0.11-0.91,0.16c-2.15,5.22-4.29,10.45-6.66,16.2
		c4.92,0.08,9.3,0.22,14.29-0.13C796.9,428.4,794.76,423.22,792.61,418.03z"/>
	<path class="st14" d="M202.9,380.9c0.84-1.85,1.37-3.23,2.07-4.52c3.69-6.85,7.45-13.67,11.13-20.53c0.77-1.43,1.68-2.42,3.43-2.42
		c12.29,0.04,24.58,0.06,36.88,0.1c0.24,0,0.48,0.29,1.02,0.65c-0.75,1.55-1.46,3.17-2.29,4.72c-3.62,6.72-7.32,13.4-10.9,20.14
		c-0.88,1.66-2.01,2.38-3.9,2.37c-11.69-0.06-23.39-0.03-35.08-0.06C204.68,381.36,204.11,381.15,202.9,380.9z"/>
	<path class="st14" d="M640.67,452.71c-6.16,1.53-6.83,1.1-8.94-3.96c-4.25-10.17-1.27-8.64-12.54-8.78
		c-3.29-0.04-6.59-0.01-10.24-0.01c-1.32,3.06-2.74,6-3.86,9.06c-1.18,3.22-3.02,4.74-6.69,4.53c-5.53-0.32-11.1-0.07-16.65-0.09
		c-1.46-0.01-2.92-0.15-4.27-0.22c-0.98-3.81-1.09-43.46-0.16-48.13c1.62,0,3.31,0,5.46,0c0.56,4.71,0.21,9.33,0.27,13.92
		c0.06,4.8,0.01,9.6,0.01,14.41c0,4.61,0,9.23,0,13.67c4.74,2.31,10.03-1.15,14.25,2.76c7.21-15.37,13.66-31.25,21.45-46.76
		C626.69,419.51,633.56,436.12,640.67,452.71z M625.74,434.16c-2.5-5.94-4.64-11.01-7.15-16.97c-2.65,6.22-4.87,11.42-7.23,16.97
		C616.11,434.16,620.49,434.16,625.74,434.16z"/>
	<path class="st14" d="M1081.98,451.27c7.04-15.96,14.09-31.97,21.32-48.38c0.86,0.71,1.62,1.04,1.85,1.59
		c6.68,15.54,13.31,31.11,19.93,46.68c0.23,0.53,0.35,1.11,0.63,2.01c-1.36,0.12-2.5,0.22-3.64,0.32c-2.26,0.19-3.56-0.72-4.29-2.99
		c-0.87-2.7-2.25-5.22-3.31-7.86c-0.77-1.91-2.02-2.74-4.13-2.68c-4.5,0.12-9,0.1-13.5,0.01c-1.9-0.04-3.11,0.65-3.85,2.4
		c-1.23,2.9-2.53,5.76-3.84,8.62c-0.57,1.24-1.2,2.47-2.86,2.47c-7.77,0-15.54,0-23.17,0c-1.1-3.48-1.41-41.9-0.43-48.36
		c1.59-0.08,3.29-0.17,5.39-0.28c0.89,4.86,0.36,9.49,0.45,14.06c0.1,4.8,0.02,9.6,0.02,14.4c0,4.63,0,9.26,0,14.51
		c4.18,0,7.98,0,11.8,0c0.52,1.64,0.87,2.72,1.22,3.81C1081.7,451.48,1081.82,451.39,1081.98,451.27z M1104.37,418.67
		c-0.41-0.01-0.82-0.03-1.24-0.04c-2.16,5.05-4.31,10.11-6.62,15.52c5.07,0,9.44,0,14.33,0
		C1108.56,428.69,1106.46,423.68,1104.37,418.67z"/>
	<path class="st14" d="M1154.35,441.39c5.96-13.64,11.44-26.2,16.93-38.76c0.34,0.01,0.68,0.03,1.02,0.04
		c1.97,8.28,3.37,16.7,5.09,25.03c1.72,8.3,3.05,16.68,4.54,24.98c-5.5,1.48-6.27,1.05-7.16-3.64c-1.58-8.36-3.18-16.73-4.86-25.58
		c-3.52,5.1-5.14,10.81-7.77,15.98c-2.68,5.28-4.84,10.82-7.23,16.24c-0.33-0.01-0.66-0.02-0.99-0.03
		c-4.82-10.7-9.64-21.39-14.8-32.83c-2.08,10.6-4,20.39-5.95,30.35c-2.1,0-3.81,0-5.7,0c-0.14-0.99-0.44-1.74-0.31-2.41
		c3.06-16.07,6.16-32.14,9.26-48.2c0.34-0.04,0.67-0.09,1.01-0.13c2.8,6.37,5.63,12.72,8.4,19.1
		C1148.55,427.78,1151.22,434.07,1154.35,441.39z"/>
	<path class="st14" d="M964.15,439.93c0-11.49,0-22.99,0-34.81c2.14,0,3.84,0,5.48,0c0.94,3.52,1.11,45.75,0.17,50.75
		c-12.93-11.75-23.79-25.26-37.1-37.62c0,12,0,23.15,0,34.77c-2.26,0-4.05,0-6.17,0c0-16.59,0-33,0-50.19
		c1.4,1.01,2.42,1.53,3.16,2.31c8.84,9.36,17.63,18.78,26.47,28.14c2.25,2.38,4.62,4.65,6.93,6.98
		C963.44,440.14,963.79,440.03,964.15,439.93z"/>
	<path class="st14" d="M496.03,454.38c-13.99,0.79-25.17-10.44-25.31-24.68c-0.15-14.53,9.95-25.49,25.42-25.7
		c14.26-0.19,25.77,10.41,25.71,25.85C521.79,443.03,510.77,455.34,496.03,454.38z M496.2,410.21c-10.26-0.1-18.53,8.13-19.22,18.77
		c-0.62,9.64,9.33,19.77,18.94,19.88c10.59,0.12,19.68-10.18,19.57-19.15C515.35,417.63,505.05,409.47,496.2,410.21z"/>
	<path class="st14" d="M707.71,454.38c-13.14,1.07-25.51-10.48-25.43-24.65c0.08-15.01,10.59-25.66,25.55-25.7
		c15.38-0.05,25.44,11.66,25.7,25.66C733.78,443.03,721.38,455.53,707.71,454.38z M708.12,410.21c-10.06-0.75-19.57,8.05-19.4,19.18
		c0.16,10.54,7.9,19.01,19.16,19.37c10.14,0.32,19.48-9.21,19.2-19.72C726.8,418.96,718.4,409.8,708.12,410.21z"/>
	<path class="st14" d="M894.13,454.38c-12.39,1.18-25.59-10.06-25.42-24.66c0.17-15.01,10.62-25.67,25.56-25.7
		c15.41-0.03,25.49,11.52,25.62,25.19C920.04,444.08,907.74,455.32,894.13,454.38z M894.35,410.21
		c-10.57-0.52-19.41,8.25-19.16,19.39c0.24,10.53,7.8,18.62,18.9,19.16c10.09,0.49,19.56-8.93,19.44-19.49
		C913.42,419.25,904.98,409.68,894.35,410.21z"/>
	<path class="st14" d="M393.79,440.02c0-11.47,0-22.93,0-34.81c1.94,0,3.44,0,5.25,0c0,16.79,0,33.36,0,50.38
		c-5.19-3.03-7.75-8.29-11.82-12.02c-4.3-3.95-8.37-8.17-12.4-12.4c-3.89-4.08-7.6-8.32-11.39-12.48c-0.35,0.13-0.71,0.26-1.06,0.4
		c0,11.26,0,22.52,0,34.08c-2.31,0-4,0-6.3,0c-0.02-4.4-0.04-8.55-0.05-12.69c-0.01-4.2,0-8.39,0-12.59c0-4.05-0.07-8.1,0.02-12.14
		c0.1-4.09-0.43-8.24,0.53-13.18c12.52,13.05,24.44,25.47,36.36,37.89C393.21,440.29,393.5,440.16,393.79,440.02z"/>
	<path class="st14" d="M1242.48,432.55c0,7.34,0,13.72,0,20.6c-2.11,0.11-3.81,0.19-5.42,0.28c-1.17-3.34-1.58-40.28-0.57-48.25
		c4.13-0.7,8.4-0.56,12.67-0.07c0.89,0.1,1.75,0.39,2.62,0.61c7.59,1.92,9.72,4.45,10.31,12.61c0.4,5.47-2.41,11.86-10.01,13.57
		c-0.28,0.06-0.52,0.26-1.27,0.63c4.69,6.67,9.35,13.29,14.1,20.03c-5.9,1.81-7.11,1.44-9.87-2.63c-3.37-4.95-6.75-9.89-10.16-14.82
		C1244.41,434.43,1243.74,433.88,1242.48,432.55z M1242.73,426.57c2.67,1.48,4.95,0.24,7.2-0.28c3.4-0.78,5.87-4.1,5.89-7.5
		c0.01-3.01-2.54-6.47-5.74-7.29c-2.43-0.62-4.96-0.89-7.35,0.36C1242.73,416.89,1242.73,421.77,1242.73,426.57z"/>
	<path class="st14" d="M656.91,317.63c9.06-0.24,17.49-1.22,25.24,3.87c5.55,3.64,8.69,8.7,9.66,15c1.33,8.63-0.59,16.46-7.51,22.39
		c-3.84,3.29-8.3,5.34-13.48,5.39c-4.34,0.05-8.68,0.01-13.5,0.01c-0.83-4.05-0.36-7.92-0.44-11.74c-0.08-3.9-0.02-7.8-0.02-11.7
		c0-3.75,0-7.5,0-11.25C656.89,325.73,656.9,321.87,656.91,317.63z M663.45,358.21c9.05,1.76,15.77-0.97,20.18-7.91
		c2.68-4.22,3.52-14.7-1.2-20.37c-4.29-5.15-12.53-8.11-18.97-6.25C663.45,335.07,663.45,346.53,663.45,358.21z"/>
	<path class="st14" d="M754.11,432.65c4.85,6.92,9.45,13.49,14.15,20.2c-6.75,1.37-7.43,1.09-10.8-3.89
		c-3.51-5.18-7.05-10.33-11.35-15.3c0,6.34,0,12.68,0,19.5c-2.13,0.1-3.83,0.18-5.43,0.25c-1.13-3.39-1.49-40.87-0.51-48.28
		c6.9-0.67,13.83-1.23,20.17,2.83c2.64,1.69,4.28,4.24,4.59,7.4c0.75,7.74-0.58,13.38-9.04,16.4
		C755.47,431.91,755.09,432.16,754.11,432.65z M746.41,426.62c4.76,0.86,9.25-0.56,11.08-3.35c1.69-2.58,1.68-6.96-0.21-9.32
		c-2.88-3.61-6.71-3.08-10.87-2.42C746.41,416.72,746.41,421.7,746.41,426.62z"/>
	<path class="st14" d="M438.88,405.15c6.15-0.81,11.41-0.69,16.45,0.82c7.46,2.24,10.08,8.32,8.48,16.47
		c-1.13,5.73-5.08,8.55-11.05,9.76c4.95,7,9.72,13.74,14.85,20.99c-1.88,0.12-3.15,0.17-4.43,0.29c-2.52,0.24-4.13-0.85-5.53-2.97
		c-3.77-5.73-7.76-11.3-12.3-17.85c0,7.32,0,13.63,0,20.46c-2.13,0.13-3.82,0.22-6,0.35c-0.84-4.23-0.35-8.24-0.43-12.21
		c-0.08-4.04-0.02-8.09-0.02-12.14c0-3.9,0-7.79,0-11.69C438.88,413.44,438.88,409.44,438.88,405.15z M445.55,426.61
		c4.73,0.87,9.22-0.54,11.06-3.32c1.7-2.57,1.78-7.02-0.19-9.29c-2.89-3.31-6.69-3.22-10.87-2.45
		C445.55,416.72,445.55,421.7,445.55,426.61z"/>
	<path class="st14" d="M774,317.67c2.32,0,3.91,0,5.93,0c0.14,1.4,0.38,2.68,0.38,3.97c0.03,9.3,0.07,18.59,0,27.89
		c-0.07,8.75-6.96,15.36-15.76,15.72c-4.91,0.21-9.15-1.02-12.94-4.04c-4.14-3.29-5.24-8.09-5.4-12.85
		c-0.32-9.73-0.06-19.48-0.02-29.23c0-0.28,0.18-0.56,0.47-1.41c1.47-0.08,3.16-0.18,5.41-0.31c0.13,1.9,0.33,3.47,0.34,5.05
		c0.03,8.55,0.04,17.09,0.01,25.64c-0.02,5.03,2.27,8.71,6.76,10.67c7.29,3.18,14.67-1.62,14.8-9.57
		c0.14-8.69,0.04-17.39,0.04-26.09C774,321.49,774,319.87,774,317.67z"/>
	<path class="st14" d="M321.82,405.02c8.89-0.43,17.18-0.37,25.8-0.04c0,2.08,0,3.77,0,6.02c-6.45,0.07-12.65,0.13-19.15,0.2
		c0,4.19,0,7.87,0,12.09c5.82,1.01,11.82-0.11,18.24,0.69c0.11,1.71,0.22,3.41,0.36,5.56c-6.16,1.14-12.16-0.01-17.98,0.74
		c-1.11,3.04-1.36,10.9-0.49,17.35c6.05,0.97,12.35-0.17,18.98,0.7c0.12,1.44,0.23,2.84,0.33,4.15c-3.31,1.2-18.52,1.52-25.76,0.58
		c-0.77-3.81-0.27-7.83-0.36-11.81c-0.08-4.05-0.02-8.1-0.02-12.15c0-3.9-0.01-7.8,0-11.7C321.79,413.4,321.81,409.4,321.82,405.02z
		"/>
	<path class="st14" d="M1005.47,411.09c-6.83,0-12.92,0-19.17,0c-0.97,4.24-0.69,8.04-0.3,12.03c3.04,1.04,6.04,0.44,8.98,0.54
		c2.96,0.11,5.93,0.02,9.25,0.02c0,2.2,0,3.9,0,6.22c-6.02,0-11.92,0-18.17,0c0,6.21,0,11.8,0,17.99c6.37,0.05,12.58,0.1,19.09,0.15
		c0,1.91,0,3.31,0,4.65c-3.56,0.97-20.68,1.1-25.08,0.23c-0.91-3.22-1.12-42.45-0.25-47.39c3.1-0.97,19.74-1.19,25.4-0.24
		C1005.28,406.89,1005.36,408.59,1005.47,411.09z"/>
	<path class="st14" d="M1202.7,405.03c8.83,0,16.71,0,24.96,0c0,1.95,0,3.64,0,5.6c-5.98,1.2-11.99-0.18-18.07,0.84
		c-0.87,3.9-0.61,7.69-0.15,12.12c6.03,0,11.93,0,18.17,0c0,2.31,0,4,0,5.97c-5.95,1.19-11.96-0.17-18.26,0.87
		c-0.57,5.68-0.18,11.27-0.22,17.46c6.36,0,12.27,0,18.57,0c0.11,1.98,0.19,3.38,0.3,5.41c-8.4,0.33-16.4,0.18-24.83,0.07
		c-0.87-4.17-0.36-8.19-0.44-12.16c-0.09-4.04-0.02-8.09-0.02-12.14c0-3.9,0-7.79,0-11.69C1202.7,413.4,1202.7,409.41,1202.7,405.03
		z"/>
	<path class="st14" d="M1277.69,423.64c6.35,0,12.13,0,18.43,0c0.11,2.13,0.2,3.82,0.31,5.95c-6.19,1.03-12.18-0.06-17.99,0.68
		c-1.08,3.12-1.31,11.45-0.43,17.36c5.75,0.91,11.74-0.13,18.02,0.64c0,1.61,0,3.11,0,4.91c-8.2,0-16.19,0-24.11,0
		c-0.93-3.69-1.07-43.17-0.15-48.18c7.88-0.49,15.88-0.19,24.38-0.19c0.1,2.05,0.18,3.74,0.28,5.83c-6.2,1.08-12.2-0.07-18.53,0.79
		C1277.22,415.25,1277.55,419.05,1277.69,423.64z"/>
	<path class="st14" d="M313.12,442.58c1.22,6.8,0.71,8.44-4.43,10.13c-13.28,4.36-23.96,1.41-31.57-9.88
		c-5.67-8.43-5.24-17.75-0.12-26.78c5.34-9.43,20.02-15.88,33.08-9.55c2.64,1.28,4.1,2.84,3.68,5.85c-0.16,1.14-0.2,2.29-0.34,3.98
		c-1.39-0.88-2.42-1.42-3.32-2.11c-10.72-8.29-25.96-3.63-29.7,10.6c-2.95,11.23,5.7,23.3,17.3,23.97c4.79,0.28,9.02-1.8,12.92-4.47
		C311.31,443.83,312.01,443.34,313.12,442.58z"/>
	<path class="st14" d="M641.03,405.08c2.11,0,3.99,0,6.36,0c2.09,5.51,4.25,11.22,6.42,16.93c2.1,5.54,4.2,11.09,7.21,16.71
		c0.54-1.3,1.11-2.59,1.61-3.9c3.28-8.68,6.49-17.4,9.85-26.05c1.74-4.5,2.37-4.68,8.01-3.12c-6.22,16.99-12.84,33.77-19.23,50.52
		c-0.34,0.06-0.48,0.12-0.61,0.1c-0.14-0.02-0.32-0.07-0.39-0.17c-0.34-0.49-0.74-0.96-0.94-1.51
		c-6.01-15.82-11.99-31.64-17.97-47.47C641.14,406.58,641.16,405.98,641.03,405.08z"/>
	<path class="st14" d="M840.98,322.84c0,4.6,0,8.58,0,13.04c5.55,1.03,11.25-0.09,17.25,0.7c0,1.57,0,3.06,0,5.04
		c-5.68,0-11.17,0-16.48,0c-1.26,3.4-1.49,10.4-0.64,16.85c5.75,0.93,11.74-0.13,18.09,0.66c0.12,1.45,0.24,2.84,0.35,4.15
		c-3.32,1.19-17.78,1.5-24.31,0.63c-1.09-2.98-1.52-37.72-0.56-45.57c2.91-1.14,16.5-1.49,24.55-0.55c0.07,1.4,0.14,2.89,0.24,5.04
		C853.08,322.84,847.18,322.84,840.98,322.84z"/>
	<path class="st14" d="M416.12,411.23c-3.76,0-7.15,0-11.08,0c-0.14-2.13-0.25-3.83-0.39-6.07c9.83-0.8,19.34-0.24,29.41-0.37
		c0.13,1.97,0.24,3.66,0.39,5.97c-3.82,0.2-7.33,0.39-11.28,0.6c-0.87,4.6-0.32,9.22-0.42,13.79c-0.1,4.5-0.02,9-0.02,13.51
		c0,4.64,0,9.27,0,14.46c-2.02,0.13-3.71,0.24-5.98,0.39c-0.14-1.88-0.35-3.45-0.36-5.02c-0.03-10.66-0.01-21.31-0.03-31.97
		C416.35,414.89,416.22,413.29,416.12,411.23z"/>
	<path class="st14" d="M862.08,405.08c0,16.28,0,31.94,0,48c-1.93,0-3.62,0-5.29,0c-1.06-3.3-1.21-43.35-0.12-48
		C858.28,405.08,859.97,405.08,862.08,405.08z"/>
	<path class="st14" d="M1187.4,405.03c2.45,0,4.04,0,5.55,0c0.98,3.37,1.26,41.73,0.34,48.13c-1.58,0.09-3.27,0.19-5.44,0.31
		c-0.84-4.22-0.35-8.23-0.43-12.2c-0.08-4.04-0.02-8.08-0.02-12.12c0-3.89,0-7.78,0-11.67
		C1187.4,413.48,1187.4,409.48,1187.4,405.03z"/>
</g>
</svg>
