<svg xmlns="http://www.w3.org/2000/svg" viewBox="0 0 53.75 15.45"><defs><style>.cls-1{fill:#8f8fa3;}</style></defs><g id="Capa_2" data-name="Capa 2"><g id="Figuras"><path class="cls-1" d="M7.79,0a7.73,7.73,0,1,0,7.67,7.73A7.74,7.74,0,0,0,7.79,0Zm.53,11.42c-.18.26-.37.53-.57.78s-.2.08-.29,0A7.76,7.76,0,0,1,7,11.5c-.12-.17-.1-.24.06-.36l.6-.45.65.5A.17.17,0,0,1,8.32,11.42Zm-.81-.89V9.92l.21,0v.57Zm5.85,1.17H11.54a.54.54,0,0,1-.4-.16A7.09,7.09,0,0,0,9,10.1a3.47,3.47,0,0,0-3.09.12,7.4,7.4,0,0,0-1.88,1.36.39.39,0,0,1-.3.13c-.64,0-1.28,0-1.91,0l-.16,0L7.62,5.27l5.9,6.41Zm.44-.13C11.75,9,9.7,6.43,7.61,3.83,5.55,6.4,3.49,9,1.42,11.52c0-.16,6-9.92,6.21-10.23l6.22,10.25Z"/><path class="cls-1" d="M53.18,11v2.28a.16.16,0,0,1,0,.16h0s-.05-.07-.06-.1c-.1-.21-.2-.41-.29-.62s-.12-.25-.17-.37l-.13-.27-.89-1.89c0-.05-.08-.14-.16-.15h-.58v4.06h.45V11.52a4,4,0,0,1,0-.77.76.76,0,0,1,.08.11l1.1,2.36.23.48c.17.37.21.45.47.45h.33l0,0h0v-4h-.44Z"/><path class="cls-1" d="M24.32,9.05H25V5.21h-.42V7.65a4.84,4.84,0,0,1,0,.75.38.38,0,0,1-.09-.13c-.17-.37-.35-.74-.52-1.1l-.91-2h-.63V9h.42V8.13c0-.7,0-1.4,0-2.11a.81.81,0,0,1,0-.15v0h0l1.38,2.89Z"/><path class="cls-1" d="M35.11,9.05h.54V5.22h-.42V7.4c0,.14,0,.29,0,.44V8a1.2,1.2,0,0,1,0,.38h0c-.52-1.06-1-2.11-1.54-3.18v0H33V9.05h.44v-2a1.41,1.41,0,0,0,0-.2c0-.15,0-.29,0-.44V6.3a2.16,2.16,0,0,1,0-.44.25.25,0,0,1,.08.1c.2.44.41.87.61,1.31l.25.53.51,1.09C35,9,35,9,35.11,9.05Z"/><path class="cls-1" d="M25.1,10.11a3.69,3.69,0,0,0-.88,0h-.49v4.06h.9a4.71,4.71,0,0,0,.53,0,1.18,1.18,0,0,0,1-1.13c0-.64,0-1.16,0-1.64A1.38,1.38,0,0,0,25.1,10.11Zm.61,2.77a.77.77,0,0,1-.72.79,3.62,3.62,0,0,1-.57,0h-.23v0c0-.05,0-.09,0-.13V10.72a.39.39,0,0,1,0-.18.37.37,0,0,1,.17,0h.09a2.74,2.74,0,0,1,.5,0,.9.9,0,0,1,.76.9C25.72,12,25.72,12.44,25.71,12.88Z"/><path class="cls-1" d="M49.44,11.46a2.58,2.58,0,0,0,0-.39A1.27,1.27,0,0,0,48.12,10h0a1.25,1.25,0,0,0-1.28,1.06,6,6,0,0,0-.05.73c0,.11,0,.21,0,.32v0h0v.77a1.33,1.33,0,0,0,.53,1,1.3,1.3,0,0,0,.78.25,1.24,1.24,0,0,0,.38-.05,1.33,1.33,0,0,0,.95-1.27V11.46Zm-.46.9c0,.17,0,.35,0,.53a.85.85,0,0,1-1.26.77.82.82,0,0,1-.45-.75c0-.47,0-1,0-1.61a.84.84,0,0,1,.86-.83h0a.83.83,0,0,1,.85.84c0,.18,0,.37,0,.56s0,.17,0,.25h0C49,12.2,49,12.28,49,12.36Z"/><path class="cls-1" d="M44.13,7a1,1,0,0,0,.27-1.12,1,1,0,0,0-.88-.66c-.32,0-.64,0-1,0h-.48V9h.43V7.27h.29a5.24,5.24,0,0,1,.69,0,.57.57,0,0,1,.49.5,1.58,1.58,0,0,1,0,.38h0c0,.19,0,.38,0,.58V9h.43V8.67c0-.25,0-.48,0-.71a1.08,1.08,0,0,0-.33-.83.1.1,0,0,1,0,0v0h0A.46.46,0,0,1,44.13,7ZM43.5,6.8c-.2,0-.41,0-.61,0H42.5V5.68h1a.58.58,0,0,1,.57.56A.57.57,0,0,1,43.5,6.8Z"/><path class="cls-1" d="M38.68,10.07l-1.24,4.06h.47v0l0,0a1,1,0,0,1,0-.1l.08-.26c.07-.24.15-.5.23-.75s.07-.14.2-.14h1c.13,0,.18,0,.22.16s.11.38.17.57.06.22.1.34.09.27.27.27h.19l.05,0h0l-1.24-4Zm.85,2.23a3.35,3.35,0,0,1-1.05,0l0-.09c.15-.53.3-1,.49-1.53a1.89,1.89,0,0,1,.21.54c0,.08,0,.16.07.24s.13.41.19.61Z"/><path class="cls-1" d="M20.94,12.19h1.44v-.45H20.93v-1c0-.15,0-.15.15-.16h1.5v-.1c0-.05,0-.09,0-.13s0-.07,0-.1v-.07h0a11.66,11.66,0,0,0-2.05,0h0v4h2.15v-.45H20.94Z"/><path class="cls-1" d="M28.68,7.57a3.84,3.84,0,0,0,0-.48.61.61,0,0,0,0-.14v-.1H27.61v.43h.63V8.35a.2.2,0,0,1-.06.11.9.9,0,0,1-.94.18.74.74,0,0,1-.51-.72c0-.58,0-1.1,0-1.57a.78.78,0,0,1,.31-.6.79.79,0,0,1,.67-.13,1.61,1.61,0,0,1,.39.16l.2.1h0l0,0,.06,0,.09-.1.07-.07,0,0a1.28,1.28,0,0,0-1.29-.44,1.21,1.21,0,0,0-1,1.14c0,.36,0,.73,0,1.08V8a1,1,0,0,0,.17.57,1.22,1.22,0,0,0,.91.59h.17a1.43,1.43,0,0,0,1-.41.48.48,0,0,0,.15-.36C28.68,8.11,28.68,7.84,28.68,7.57Z"/><path class="cls-1" d="M48.36,5.21,47.19,9.05h.45l0-.09a1,1,0,0,0,0-.16l0-.11c.08-.25.16-.51.23-.77a.14.14,0,0,1,.16-.12H49.2c.09,0,.12,0,.14.1l.09.3,0,.1.18.57.06.18h.45L49,5.21Zm.32.55c.16.46.33,1,.48,1.58h-1c.14-.46.27-.89.41-1.33l.08-.25Z"/><path class="cls-1" d="M39.45,7.21h1.34V6.78H39.44c0-.39,0-.75,0-1.13H41V5.22H39V9h2V8.62H39.45Z"/><path class="cls-1" d="M30.42,7.21h1.35V6.77H30.43a4.6,4.6,0,0,1,0-1.12H32V5.22H30V9.05h2V8.62H30.42Z"/><path class="cls-1" d="M36.59,13.45l-.14.08a1.56,1.56,0,0,1-.28.16.89.89,0,0,1-.87-.09.84.84,0,0,1-.35-.71c0-.33,0-.66,0-1v-.55A.94.94,0,0,1,35,11a.82.82,0,0,1,.51-.52.93.93,0,0,1,.81.09l.18.13.09.06,0,0,.27-.28v0l0,0a.05.05,0,0,0,0,0,1.36,1.36,0,0,0-1.46-.36,1.22,1.22,0,0,0-.88,1.14v.06c0,.57,0,1.16,0,1.74a1.26,1.26,0,0,0,.9,1.15,1.84,1.84,0,0,0,.41.05,1.3,1.3,0,0,0,1.07-.49l0,0-.28-.27Z"/><path class="cls-1" d="M29.63,14.13h.46V12.19h1.4v-.47h-1.4v0a.53.53,0,0,1,0-.12v-.88c0-.16,0-.16.16-.16h1.41v-.43h-2Z"/><path class="cls-1" d="M42,11.37a.85.85,0,0,1,.44-.8.93.93,0,0,1,1,.06l.16.11.09.07,0,0,.28-.32,0,0A1.41,1.41,0,0,0,42.52,10a1.23,1.23,0,0,0-1,1.16c0,.46,0,.93,0,1.38v.47a.78.78,0,0,0,0,.22,1.25,1.25,0,0,0,.68.82,1.29,1.29,0,0,0,.58.13,1.58,1.58,0,0,0,.63-.13,1,1,0,0,0,.46-.35l0,0-.29-.3-.09.07-.1.07a1,1,0,0,1-.75.2A.84.84,0,0,1,42,12.9c0-.36,0-.72,0-1.07Z"/><rect class="cls-1" x="27.65" y="10.08" width="0.43" height="4.05"/><rect class="cls-1" x="44.96" y="10.08" width="0.44" height="4.05"/><rect class="cls-1" x="32.63" y="10.08" width="0.44" height="4.04"/><path class="cls-1" d="M46.16,5.22h-.38V9.05h.4V9c.06-.26,0-3.61,0-3.77Z"/><path class="cls-1" d="M20.56,9.06h.3V5.21h-.4V9.05h.1Z"/><path class="cls-1" d="M37.53,5.22h-.41V9.05h.41Z"/><path class="cls-1" d="M36.87,1.85l0,0v0h-.12v0a.2.2,0,0,1,0,.07c0,.05,0,.1,0,.15V3.26a.88.88,0,0,1,0,.16v0l0,0-.07-.13c-.13-.29-.27-.57-.4-.86L36,2c-.1-.23-.14-.24-.39-.17h0V3.78h.1l.07,0c.05,0,.05-.09.05-.15h0V2.33c0-.05,0-.09,0-.14v0h0l.78,1.64h.32V1.92A.15.15,0,0,0,36.87,1.85Z"/><path class="cls-1" d="M48.13,3.81h.1s.08,0,.08,0c0-.26,0-.52.07-.8V2.87h.1a1.41,1.41,0,0,1,.29,0,.34.34,0,0,1,.35.37c0,.1,0,.2,0,.3v.11a.14.14,0,0,0,0,.13s.08,0,.15,0l0,0V3.48a.86.86,0,0,0-.18-.71l0,0,.08-.1a.54.54,0,0,0,.06-.52.48.48,0,0,0-.35-.3,3.35,3.35,0,0,0-.55,0h-.3v2Zm.24-1.19V2.05h.56c.13,0,.21.16.21.29a.27.27,0,0,1-.23.27h-.54Z"/><path class="cls-1" d="M52.42,3.76l.09,0,.05,0,0,0V3.21a.65.65,0,0,0,0-.14c0-.1,0-.16,0-.18s.11,0,.24,0H53c.3,0,.42.12.43.41a1,1,0,0,1,0,.17v.22a.13.13,0,0,0,.05.09l0,0,0,0,.12,0v0a2.26,2.26,0,0,1,0-.26.87.87,0,0,0-.17-.72l0,0,.09-.11a.56.56,0,0,0,0-.52.48.48,0,0,0-.37-.28,3.23,3.23,0,0,0-.54,0h-.29V3.66S52.39,3.74,52.42,3.76Zm.21-1.13V2.06h.56a.29.29,0,0,1,.22.31.3.3,0,0,1-.28.26h-.5Z"/><path class="cls-1" d="M39.63,3.81l0,0a.28.28,0,0,0,.08-.11,2.24,2.24,0,0,0,.11-.34l0,0c0-.09.06-.12.14-.12a3.36,3.36,0,0,0,.45,0,.12.12,0,0,1,.13.1l.09.31,0,.1a.18.18,0,0,0,.09.13.16.16,0,0,0,.15,0l0,0-.59-1.94h-.32l-.59,1.94.12.07Zm.59-1.69a3.49,3.49,0,0,1,.2.57l.06.2a.7.7,0,0,1-.32,0H40v0l.24-.78Z"/><path class="cls-1" d="M51.23,3.84a.63.63,0,0,0,.65-.6,6.17,6.17,0,0,0,0-.86.62.62,0,0,0-.64-.59.61.61,0,0,0-.63.59c0,.1,0,.2,0,.3a.62.62,0,0,1,0,.13.66.66,0,0,1,0,.14c0,.09,0,.2,0,.3a.62.62,0,0,0,.61.59ZM51.65,3a1.92,1.92,0,0,1,0,.24.42.42,0,0,1-.38.42.41.41,0,0,1-.44-.38,5.75,5.75,0,0,1,0-.83A.41.41,0,0,1,51.24,2h0a.42.42,0,0,1,.41.42,1.22,1.22,0,0,1,0,.27V3Z"/><path class="cls-1" d="M30,3.15c.1,0,.14,0,.16.12l.09.32,0,.07c0,.06,0,.11.09.13a.17.17,0,0,0,.15,0l0,0-.6-1.93h-.32L29,3.76l.12.05h0a.51.51,0,0,0,.2-.35.54.54,0,0,1,.12-.29H30Zm-.21-1a3.29,3.29,0,0,1,.19.58l.06.2H29.5l.23-.78Z"/><path class="cls-1" d="M27.61,3.76a.21.21,0,0,0,0-.14.17.17,0,0,0-.15-.05h-.63v-.7h.55a.12.12,0,0,0,.12-.05.13.13,0,0,0,0-.14v0h-.57a.15.15,0,0,1-.1-.05c0-.13,0-.27,0-.41V2h.66A.12.12,0,0,0,27.59,2s0-.07,0-.13v0h-1v2h1Z"/><path class="cls-1" d="M33.77,3.61h0a2,2,0,0,0-.42,0,1.53,1.53,0,0,1-.37,0,5.55,5.55,0,0,1,0-.71h.35c.26,0,.29,0,.34-.17l0-.06H33V2h.77l.05-.1,0,0,0,0s0-.07-.1-.07h-.9v2h1Z"/><path class="cls-1" d="M47.8,3.73l0-.07s0-.07-.09-.08H47V2.85h.51a.2.2,0,0,0,.15,0,.16.16,0,0,0,0-.15v0h-.53c-.15,0-.15,0-.16-.15V2.2c0-.15,0-.15.16-.16h.62l.05-.11,0,0,0,0a.12.12,0,0,0-.1-.06h-.89v2h1.12Z"/><path class="cls-1" d="M25.47,3.84h0a.57.57,0,0,0,.6-.61q0-.48,0-1V1.84h0a.23.23,0,0,0-.15,0,.2.2,0,0,0,0,.15v.49c0,.24,0,.49,0,.74a.36.36,0,0,1-.35.38.35.35,0,0,1-.25-.1.4.4,0,0,1-.11-.29c0-.27,0-.53,0-.8V1.85h0a.21.21,0,0,0-.16,0,.18.18,0,0,0-.05.16V3.23A.59.59,0,0,0,25.47,3.84Z"/><path class="cls-1" d="M22.39,3.84a.85.85,0,0,0,.23,0,.58.58,0,0,0,.45-.55.51.51,0,0,0-.4-.55l-.2-.06-.25-.07a.29.29,0,0,1-.2-.23.26.26,0,0,1,.12-.26A.5.5,0,0,1,22.41,2a.54.54,0,0,1,.21,0l.14,0H23L23,2h0a1,1,0,0,0-.62-.16.51.51,0,0,0-.52.46.49.49,0,0,0,.4.57l.14,0,.26.07a.32.32,0,0,1,.22.22.34.34,0,0,1-.06.32.36.36,0,0,1-.32.15A3.57,3.57,0,0,1,22,3.5h0c-.05,0-.1,0-.15,0a.14.14,0,0,0,0,.12v0h0A1.22,1.22,0,0,0,22.39,3.84Z"/><path class="cls-1" d="M42.55,3.84h0a.6.6,0,0,0,.57-.53.52.52,0,0,0-.43-.61l-.19-.06-.23-.06a.25.25,0,0,1-.18-.27.29.29,0,0,1,.1-.22A.33.33,0,0,1,42.51,2a1.63,1.63,0,0,1,.3.07l.15,0h0l0,0A.14.14,0,0,0,43,2a.15.15,0,0,0-.13-.09h0a1.77,1.77,0,0,0-.46-.08h0a.49.49,0,0,0-.51.45.48.48,0,0,0,.4.56l.14,0,.27.08a.32.32,0,0,1,.21.2.34.34,0,0,1,0,.29.35.35,0,0,1-.34.19,3.57,3.57,0,0,1-.47-.11h0s-.1,0-.14,0a.17.17,0,0,0-.06.12v0h0A1.17,1.17,0,0,0,42.55,3.84Z"/><path class="cls-1" d="M20.6,3.8h1v0a.16.16,0,0,0,0-.15c0-.05-.1-.05-.15-.05h-.63V2.85h.5c.07,0,.19,0,.19-.17v0h-.61a.23.23,0,0,1-.09-.06c0-.13,0-.26,0-.4V2h.67A.13.13,0,0,0,21.54,2a.15.15,0,0,0,0-.13v0h-1v0a10,10,0,0,0,0,1.91Z"/><path class="cls-1" d="M44.73,2.49V2a.27.27,0,0,0,0-.12.43.43,0,0,0,0,0v0h-.14v0s0,0,0,.06a.68.68,0,0,0,0,.14V3a1.93,1.93,0,0,1,0,.24.35.35,0,0,1-.35.34.38.38,0,0,1-.37-.33.66.66,0,0,1,0-.14V1.85h0a.22.22,0,0,0-.16,0,.17.17,0,0,0,0,.12v.41c0,.3,0,.62,0,.92a.58.58,0,0,0,.59.55h0a.58.58,0,0,0,.58-.6C44.72,3,44.73,2.74,44.73,2.49Z"/><path class="cls-1" d="M45.93,3a.52.52,0,0,0,.49-.57.52.52,0,0,0-.49-.56h-.65v0a11.07,11.07,0,0,0,0,1.92v0h.05s.07,0,.08,0L45.49,3h.44Zm.26-.52a.29.29,0,0,1-.29.29h-.42V2.06h.13a2.1,2.1,0,0,1,.36,0C46.12,2.08,46.21,2.24,46.19,2.43Z"/><path class="cls-1" d="M51.22,7.3h0V8.94h.52a.49.49,0,0,0,.49-.47c0-.22,0-.44,0-.65a.52.52,0,0,0-.37-.49A1.14,1.14,0,0,0,51.22,7.3ZM52,8v.38c0,.26-.12.37-.37.37h-.21V7.53a.45.45,0,0,1,.42,0A.47.47,0,0,1,52,8Z"/><path class="cls-1" d="M38.57,3.78a.67.67,0,0,0,.28.06.75.75,0,0,0,.41-.12.18.18,0,0,0,.09-.13s0-.08-.09-.12h0l-.06,0-.11.05a.41.41,0,0,1-.61-.37c0-.26,0-.52,0-.77a.43.43,0,0,1,.17-.33A.44.44,0,0,1,39,2l.08,0,.11.05h.29L39.4,2a.7.7,0,0,0-.78-.21.53.53,0,0,0-.4.51,5,5,0,0,0,0,1A.59.59,0,0,0,38.57,3.78Z"/><path class="cls-1" d="M23.85,3.8a.67.67,0,0,0,.24,0,.63.63,0,0,0,.48-.23l0,0v0a.13.13,0,0,0-.09-.1.15.15,0,0,0-.13,0l0,0a.47.47,0,0,1-.46,0,.46.46,0,0,1-.19-.4c0-.2,0-.46,0-.73a.41.41,0,0,1,.62-.36l0,0a.12.12,0,0,0,.08,0,.21.21,0,0,0,.11,0l.07,0,.07,0L24.61,2a.69.69,0,0,0-.77-.2.56.56,0,0,0-.4.52,7.06,7.06,0,0,0,0,.92A.57.57,0,0,0,23.85,3.8Z"/><path class="cls-1" d="M34.05,3.16a.64.64,0,0,0,.38.63,1,1,0,0,0,.28,0,.72.72,0,0,0,.5-.21l0,0,0,0c-.11-.08-.13-.09-.27,0a.45.45,0,0,1-.45,0,.41.41,0,0,1-.2-.34q0-.39,0-.81a.41.41,0,0,1,.17-.31.45.45,0,0,1,.38,0l.08,0,.11,0a.25.25,0,0,0,.12,0l.06,0h.07L35.22,2a.74.74,0,0,0-.78-.2.63.63,0,0,0-.39.58v.75Z"/><path class="cls-1" d="M32.45,1.81a2.41,2.41,0,0,1-.38,0,4,4,0,0,0-.84.06h-.07l.05.06a.37.37,0,0,0,.31.1.44.44,0,0,1,.2,0V3.76l.11.07,0,0,0,0s.06-.06.06-.1a1.21,1.21,0,0,0,0-.19V2.18a.17.17,0,0,1,0-.12.22.22,0,0,1,.1,0h.28a.33.33,0,0,0,.1-.06l0,0,0,0,0-.12Z"/><path class="cls-1" d="M53.66,8.78a.81.81,0,0,0-.4,0,1.14,1.14,0,0,1-.27,0V8.16h.34A.18.18,0,0,0,53.56,8V8l-.59,0V7.5h.39a.21.21,0,0,0,.27-.15l0,0h-.89V8.91h0l.35,0a1.4,1.4,0,0,0,.51-.08l.08,0Z"/><path class="cls-1" d="M28.93,3.63a.73.73,0,0,0-.41-.06.75.75,0,0,1-.3,0v0s0-.08,0-.12,0-.3,0-.45V2a.18.18,0,0,0,0-.14.17.17,0,0,0-.15,0h0v2h1V3.71A.06.06,0,0,0,28.93,3.63Z"/><path class="cls-1" d="M37.57,3.78l.06.05.07.06V1.83h0a.2.2,0,0,0-.16,0,.14.14,0,0,0,0,.14V3.57a.17.17,0,0,0,0,.12S37.53,3.75,37.57,3.78Z"/><polygon class="cls-1" points="48.81 9.85 49.02 10.13 49.88 9.6 49.6 9.22 48.81 9.85"/><polygon class="cls-1" points="46.2 5.11 47.01 4.61 46.75 4.23 45.99 4.84 46.2 5.11"/><path class="cls-1" d="M49.91,3.75l0,0v0h.11v0a.09.09,0,0,1,0,0,.36.36,0,0,0,0-.11A6.91,6.91,0,0,0,50,1.83l0-.07,0,.07a7.64,7.64,0,0,0-.07,1.82A.38.38,0,0,0,49.91,3.75Z"/><path class="cls-1" d="M33.34,1.65c.17,0,.43-.11.46-.21a.21.21,0,0,0,0-.11l0-.05,0-.05-.49.41h.13Z"/><path class="cls-1" d="M7.53,6.08V9.44c.17,0,.17,0,.17-.13s0-.38,0-.57V6.06c0-.09,0-.19-.1-.23S7.53,6,7.53,6.08Z"/><path class="cls-1" d="M7.36,2.9a.25.25,0,0,0,.26.25.25.25,0,0,0,.25-.24.25.25,0,0,0-.26-.25A.25.25,0,0,0,7.36,2.9Z"/></g></g></svg>