<svg xmlns="http://www.w3.org/2000/svg" viewBox="0 0 38.17 16.7"><defs><style>.cls-1{fill:#8f8fa3;}</style></defs><g id="Capa_2" data-name="Capa 2"><g id="Figuras"><path class="cls-1" d="M38.17,11.31a3.46,3.46,0,0,1-.48.46,13.53,13.53,0,0,1-2.6,1.7,24.5,24.5,0,0,1-5.25,2,34.16,34.16,0,0,1-4.26.85c-1.17.16-2.35.27-3.53.32-1.33.07-2.66.08-4,0-1.14,0-2.28-.11-3.42-.23a38.89,38.89,0,0,1-4.79-.79,24.16,24.16,0,0,1-5-1.69,12.23,12.23,0,0,1-2.95-1.91A6,6,0,0,1,.36,10,4,4,0,0,1,.54,6.35a7.24,7.24,0,0,1,1.61-2A13.16,13.16,0,0,1,4.57,2.76c.07,0,.08,0,.09.05a1.44,1.44,0,0,0,.51,1c.08.08.08.08,0,.14A9.44,9.44,0,0,0,3.35,5.42,4.6,4.6,0,0,0,2.29,7a3.06,3.06,0,0,0,0,2.09,5.4,5.4,0,0,0,1.45,2.16,11.09,11.09,0,0,0,2.89,1.89,21.63,21.63,0,0,0,4.22,1.43,32.9,32.9,0,0,0,3.7.65q1.63.2,3.27.27c1.21.06,2.41.07,3.62.05s2.13-.07,3.18-.15a42.72,42.72,0,0,0,6.07-.9,22.93,22.93,0,0,0,5.08-1.74,11.58,11.58,0,0,0,2.28-1.45A.08.08,0,0,1,38.17,11.31Z"/><path class="cls-1" d="M9,6.15,9.21,6a1.62,1.62,0,0,1,1.09-.39,1,1,0,0,1,1,.88,2.81,2.81,0,0,1,0,.5V11c0,.08,0,.1-.1.1h-.86c-.08,0-.1,0-.1-.1,0-1.22,0-2.43,0-3.64a2,2,0,0,0,0-.43c-.05-.3-.24-.4-.54-.34a1.24,1.24,0,0,0-.64.44.17.17,0,0,0,0,.12c0,1.28,0,2.56,0,3.83,0,.1,0,.12-.12.12H8.09C8,11.12,8,11.1,8,11V7.31a6.5,6.5,0,0,0-.13-1.46s0-.07.06-.08l.86-.23c.05,0,.07,0,.08,0A2.53,2.53,0,0,1,9,6.15Z"/><path class="cls-1" d="M19.06,6.16a1.82,1.82,0,0,1,.78-.52,1.24,1.24,0,0,1,.76,0,1,1,0,0,1,.79.91,3.85,3.85,0,0,1,0,.48v4c0,.09,0,.12-.11.12h-.81c-.13,0-.13,0-.13-.13V7.39a2.83,2.83,0,0,0,0-.41.41.41,0,0,0-.58-.36,1.21,1.21,0,0,0-.59.43s0,.08,0,.13V11c0,.13,0,.13-.13.13h-.82c-.08,0-.11,0-.11-.11,0-1.16,0-2.31,0-3.47A7.93,7.93,0,0,0,18,5.86c0-.06,0-.08.06-.1l.83-.21c.06,0,.09,0,.11.06A3,3,0,0,1,19.06,6.16Z"/><path class="cls-1" d="M32.27,6.16a1.74,1.74,0,0,1,.94-.56,1.13,1.13,0,0,1,1.12.29,1.2,1.2,0,0,1,.29.79c0,.27,0,.54,0,.81V11c0,.08,0,.11-.11.11h-.84c-.1,0-.11,0-.11-.12V7.56a3.79,3.79,0,0,0,0-.58A.41.41,0,0,0,33,6.62a1.28,1.28,0,0,0-.59.43s0,.08,0,.12c0,1.28,0,2.55,0,3.83,0,.09,0,.12-.12.12h-.84c-.08,0-.1,0-.1-.11V7.12a5.58,5.58,0,0,0-.12-1.23c0-.08,0-.11.08-.13l.81-.21c.06,0,.08,0,.1,0A2.53,2.53,0,0,1,32.27,6.16Z"/><path class="cls-1" d="M14.78,4.32a1,1,0,0,0-.44-.15.38.38,0,0,0-.39.2.73.73,0,0,0-.09.32V5.6c0,.07,0,.07.08.07h.82c.06,0,.09,0,.07.09-.06.25-.12.51-.16.76,0,.07,0,.09-.11.09H14c-.09,0-.1,0-.1.11V11c0,.11,0,.13-.13.13h-.85c-.09,0-.11,0-.11-.12V6.73c0-.16,0-.13-.13-.14s-.23,0-.23-.23,0-.39,0-.59,0-.11.11-.11h.17c.06,0,.08,0,.08-.08s0-.4,0-.6a2.46,2.46,0,0,1,.19-1A1.17,1.17,0,0,1,14,3.22a1.65,1.65,0,0,1,1,.24.1.1,0,0,1,0,.13Z"/><path class="cls-1" d="M7.69,2.63a1.58,1.58,0,0,0-.44-1s0,0,.08,0a27.77,27.77,0,0,1,4.06-1,38.52,38.52,0,0,1,4-.47,43.45,43.45,0,0,1,4.42,0l.28,0A33.6,33.6,0,0,0,7.69,2.63Z"/><path class="cls-1" d="M6.73,7.83V11c0,.09,0,.11-.11.11H5.76c-.07,0-.09,0-.09-.08V4.77c0-.06,0-.08.08-.09l.93-.12s.05,0,.05,0V7.83Z"/><path class="cls-1" d="M16.73,8.34V11c0,.09,0,.11-.11.11h-.88c-.06,0-.09,0-.09-.08q0-2.62,0-5.25c0-.06,0-.09.08-.09l.9-.12c.09,0,.1,0,.1.09Z"/><path class="cls-1" d="M6.18,1.57A1.12,1.12,0,1,1,5.05,2.65,1.12,1.12,0,0,1,6.18,1.57Z"/><path class="cls-1" d="M16.18,3.51a.7.7,0,1,1-.7.7A.7.7,0,0,1,16.18,3.51Z"/><path class="cls-1" d="M20.31.07h-.12A.16.16,0,0,1,20.31.07Z"/><path class="cls-1" d="M30.35,7.58A3,3,0,0,0,30,6.35a1.62,1.62,0,0,0-1.84-.78,1.58,1.58,0,0,0-1,.9,4.14,4.14,0,0,0-.4,1.9c0,.26,0,.52,0,.78a3.86,3.86,0,0,0,.37,1.24,1.62,1.62,0,0,0,2.65.32,2.78,2.78,0,0,0,.5-1A5.56,5.56,0,0,0,30.35,7.58ZM29.13,9.66A1.8,1.8,0,0,1,29,10a.51.51,0,0,1-.86,0,1.34,1.34,0,0,1-.23-.6,7.19,7.19,0,0,1,0-2.22,1.31,1.31,0,0,1,.19-.51.52.52,0,0,1,.87,0,1.52,1.52,0,0,1,.25.72,1.23,1.23,0,0,0,0,.19c0,.24,0,.48,0,.64A5.67,5.67,0,0,1,29.13,9.66Z"/><path class="cls-1" d="M23.64,8.69h2.23c.08,0,.1,0,.1-.09a10.86,10.86,0,0,0-.07-1.28,2.65,2.65,0,0,0-.41-1.15A1.56,1.56,0,0,0,23.12,6a2.58,2.58,0,0,0-.6,1.2,6,6,0,0,0-.09,1.74,3.38,3.38,0,0,0,.31,1.25,1.74,1.74,0,0,0,.94,1,2,2,0,0,0,2.19-.57.08.08,0,0,0,0-.09l-.4-.73a2.27,2.27,0,0,1-.45.37,1.09,1.09,0,0,1-.75.15.88.88,0,0,1-.64-.65,2.78,2.78,0,0,1-.11-.81C23.53,8.7,23.56,8.69,23.64,8.69Zm-.1-.94a3.48,3.48,0,0,1,.11-.85,1.15,1.15,0,0,1,.12-.25.56.56,0,0,1,.92,0,1.15,1.15,0,0,1,.17.57,2.85,2.85,0,0,1,0,.5c0,.08,0,.1-.1.1H23.6Q23.53,7.83,23.54,7.75Z"/></g></g></svg>