<?xml version="1.0" encoding="utf-8"?>
<!-- Generator: Adobe Illustrator 25.4.1, SVG Export Plug-In . SVG Version: 6.00 Build 0)  -->
<svg version="1.1" id="Logos_Patrocinadores" xmlns="http://www.w3.org/2000/svg" xmlns:xlink="http://www.w3.org/1999/xlink"
	 x="0px" y="0px" viewBox="0 0 1500 600" style="enable-background:new 0 0 1500 600;" xml:space="preserve">
<style type="text/css">
	.st0{fill:#3C3C3B;}
	.st1{fill:#363C3B;}
	.st2{fill:#FFFFFF;}
	.st3{fill:#353C3B;}
	.st4{fill-rule:evenodd;clip-rule:evenodd;fill:#3C3C3B;}
	.st5{fill:#FCFCFC;}
	.st6{fill:#EE8398;}
	.st7{fill:none;}
	.st8{fill-rule:evenodd;clip-rule:evenodd;fill:#3C3C3B;stroke:#000000;stroke-width:0.2137;stroke-miterlimit:3.8637;}
	.st9{fill:none;stroke:#353C3B;stroke-width:4.252;stroke-miterlimit:10;}
	.st10{fill:#393E41;}
	.st11{fill:#FFFFFC;}
	.st12{fill:#FFFCFB;}
	.st13{clip-path:url(#XMLID_00000161612457287026874180000006128836372733102747_);fill:#3C3C3B;}
	.st14{fill:#8F8FA3;}
	.st15{fill:none;stroke:#000000;stroke-width:4;stroke-miterlimit:10;}
	.st16{font-family:'Candara';}
	.st17{font-size:51.2334px;}
</style>
<path class="st14" d="M1027.71,350.05c26.31,0,52.33,0,79.16,0c-7.02,7.01-13.01,13.98-19.98,19.79
	c-18.42,15.35-37.59,29.77-57.95,42.47c-11.41,7.12-23.34,13.41-34.84,20.39c-9.53,5.79-19.45,10.83-29.59,15.36
	c-15.29,6.82-30.45,13.89-46.17,19.82c-118.08,44.59-261.09,57.97-380.07,9.14c-7.92-3.25-15.62-7.03-23.1-11.18
	c-16.34-9.06-31.94-19.21-44.07-33.6c-9.12-10.82-17.97-21.98-22.97-35.6c-2.74-7.45-6.39-14.58-8.9-22.1
	c-1.07-3.19-1.07-6.84-1.75-10.29c-1.5-7.55-3-15.26-2.2-23.15c0.4-3.95-0.13-7.99,0.11-11.97c0.65-10.8,1.79-21.46,5.13-31.94
	c1.63-5.11,2.03-10.74,4.08-15.85c4.86-12.14,8.89-24.49,16.07-35.81c6.57-10.37,13.56-20.26,20.97-30.02
	c5.93-7.82,12.7-14.71,19.86-21.11c17.8-15.92,37.24-29.57,59.27-39.21c1.04-0.45,2.19-0.69,3.32-0.86c0.52-0.08,1.1,0.25,1.35,0.31
	c-2.14,19.25-4.27,38.46-6.36,57.27c-5.81,3.97-11.55,7.4-16.71,11.56c-6.32,5.09-12.87,10.18-18.03,16.35
	c-7.17,8.59-14.59,17-21.39,25.96c-6.03,7.96-10.87,16.5-15.75,24.97c-16.04,27.87-17.68,60.32-6.41,90.2
	c8.32,22.05,22.14,41.58,36.87,59.99c12.09,15.11,30.15,19.84,48.5,22.94c59.13,9.98,118.15,7.95,177.01-2.15
	c19.45-3.34,38.76-7.46,57.87-12.34c58.78-15.02,115.35-37.68,169.52-64.86c11.25-5.64,21.72-12.84,32.59-19.25
	c6.9-4.07,13.94-7.9,20.83-11.98C1025.51,352.45,1026.7,350.97,1027.71,350.05z"/>
<path class="st14" d="M900.64,245.26c-0.31-2.16-1.5-4.25-3.49-5.07c-7.8-3.2-14.99,16.79-20.71,15.94
	c-8.21-1.22-15.28-1.42-16.69-11.55c-1.77-12.7,5.26-21.63,15.71-27.45c27.65-15.42,61.88-23.9,93.54-21.63
	c25.13,1.8,72.46,22.68,45.95,55.04c-9.07,11.06-24.57,14.05-36.53,21.88c-8.92,5.83,12.99,24.72,17.92,28.32
	c2.23,1.63,4.72,3.17,7.48,3.23c7.1,0.16,11.18-8.96,18.16-10.28c6.56-1.24,12.5,5.65,12.47,12.33
	c-0.1,24.01-33.92,31.01-51.59,24.92c-10.88-3.75-20.06-11.25-27.04-20.28c-2.48-3.21-14.17-27.02-17.55-27.02
	c-1.81,0-3.57,0-6.63,0c-8.67,0.09-10.49,31.85-11.01,36.61c-2.37,21.87-17.78,16.06-33.52,16.87c-4.13,0.21-8.95-0.94-10.68-4.69
	c-1.31-2.82-0.42-6.12,0.49-9.09c5.89-19.28,11.54-38.64,17.44-57.92c1.89-6.18,6.59-12.58,6.35-19.3
	C900.7,245.83,900.68,245.55,900.64,245.26z M937.1,254.48c11.6-1.04,23.3-0.68,34.32-5.1c3.25-1.3,6.47-2.96,8.74-5.63
	c6.35-7.45,1.8-13.78-3.59-19.17c-3.96-3.92-33.26-3.78-36.8,0.71c-0.96,1.21-1.08,2.86-1.16,4.41
	C938.54,230.9,937.53,254.48,937.1,254.48z"/>
<path class="st14" d="M685.13,294.46c-5.38,0-11.14,0-17.2,0c0-2.38,0-4.43,0-6.48c2.49-4.84,5.19-9.62,9.36-13.59
	c8.57-8.15,22.84-5.78,33.66-5.78c14.29-14.3,28.74-28.52,42.9-43.01c8.62-8.82,18.23-16.49,27.97-23.88
	c7.29-5.53,16.37-7.41,25.67-6.79c2.92,0.19,6.44,3.54,9.52,8.46c2.1,3.35-1.74,16.78-1.96,21.06c-0.47,9.2-0.53,18.4,0.18,27.59
	c1.02,13.15,2.11,26.58,6.07,39.24c1.95,6.24,4.46,12.62,8.59,17.78c6.56,8.19,14.4,13.23,3.45,21.62
	c-8.64,6.62-20.21,6.26-30.27,4.23c-5.68-5.01-10.2-11.19-13.77-17.85c-2.72-5.07-3.85-15.18-7.39-19.18
	c-4.65-5.24-15.71-3.04-23.36-3.04c-4.8,0-24.47-2.92-27.75,0c-5.11,4.56-8.38,10.78-10.14,17.34c-1.3,4.82,0.26,13.49-2.57,17.36
	c-3.57,4.88-29.05,9.79-33.03,5.43c-3.98-4.37-7.73-7.11-6.2-13.61C679.54,318.38,691.94,294.46,685.13,294.46z M776.05,268.61
	c0-7.89,0-14.86,0-21.79c-1.38-0.97-2.54-1.79-3.87-2.72c-7.16,7.79-15.47,13.93-20.02,23.32c0.69,0.51,1.14,1.14,1.6,1.15
	C761.08,268.63,768.4,268.61,776.05,268.61z"/>
<path class="st14" d="M766.49,97.69c0.77,0.67,1.11,1.73,1.36,2.73c2.91,11.91-2.07,23.83-3.2,35.63
	c-0.33,3.48-0.69,7.04-2.14,10.22c-2.58,5.65-8.59,6.88-13.58,9.64c-25.46,14.11-47.14,19.02-76.22,19.77
	c-32.9,0.85-60.76,8.47-90.16,22.95c-4.11,2.03-7.89,4.73-11.9,7.18c0.19-0.11,1.31-16.22,1.54-18.2
	c0.54-4.47,1.86-36.66,5.59-38.28c48.31-21.07,104.45-5.21,150.95-31.79c11.05-6.31,20.94-14.71,32.63-19.74
	c1.61-0.69,3.61-1.28,5-0.22C766.41,97.62,766.45,97.65,766.49,97.69z"/>
<path class="st14" d="M630.49,195.62c12.16-4.29,23.41-2.42,34.5-2.37c4.64,0.02,9.27,2.43,14.47,3.91
	c-1.61,2.96-2.36,5.72-4.14,7.34c-6.87,6.25-10.52,14.77-16.01,21.99c-4.1,5.39-7.23,11.65-10.02,17.87
	c-4.41,9.81-8.3,19.86-12.14,29.91c-1.62,4.24-2.39,8.78-3.73,13.15c-1.34,4.34-2.13,9.01-2.9,13.59
	c-1.42,8.37-3.49,16.59-3.55,25.18c-0.02,2.16-1.32,4.31-2.09,6.67c-16.23,0-32.4,0-49.29,0c3.48-24.89,9.28-49.28,18.41-72.73
	C603.19,236.51,614.03,213.67,630.49,195.62z"/>
<path class="st14" d="M1130.47,181.98c4.39,0,9,0,13.71,0c1.62,3.2,0.01,5.88-0.78,9.03c-1.68,6.67-3.44,13.25-5.44,19.85
	c-1.98,6.52-3.52,13.25-5.37,19.87c-1.46,5.24-2.91,10.43-4.8,15.54c-4.2,11.39-13.47,18.66-21.48,26.97c2.91,2,2.46,5.24,1.54,7.44
	c-5.68,13.75-14.15,23.15-21.75,35.5c1.92,1.12,3.84,2.24,5.77,3.36c0.73,0.43,1.55,0.87,2.38,0.73c0.71-0.12,1.29-0.63,1.81-1.14
	c10.3-10,15.52-24.99,13.67-39.22c0.2,1.54,4.07,5.24,4.85,7.39c1.38,3.78,1.26,8.23,0.78,12.15c-1.03,8.47-5.47,16.66-10.63,23.3
	c-0.1,2.43-0.95,4.88,1.15,7.43c1.25,1.52,1.21,4.09,1.8,6.41c-9.43,0-18.86,0-28.48,0c-0.34-0.96-0.67-2.05-1.12-3.09
	c-0.49-1.13-1.09-2.22-1.78-3.58c-3.4,2.46-5.5,3.98-9.06,6.56c-6.22,0-14.41,0-23.07,0c-0.44-0.48-1.26-1.38-2.46-2.7
	c5.38-6.7,10.88-13.55,16.72-20.82c-4.21-6.58-4.46-13.72-2.15-21.99c3.57-12.8,4.8-16.91,13.68-27.53
	c1.85-2.21,3.22-4.82,5.09-7.68c-0.96-1.86-2.13-4.13-3.76-7.29c0-1.11,0-3.23,0-5.35c0-1.78,0-3.56,0-5.34
	c0.43-0.11,0.85-0.22,1.28-0.33c0.11-0.03,5.1,14.21,5.38,14.96c5.45-3.93,10.7-8.15,15.72-12.62c5.55-4.95-18.6-7.56-21.01-6.65
	c3.26-16.07,7.26-31.99,12-47.69c0.29-0.97,0.64-2,1.46-2.59c0.77-0.55,1.79-0.56,2.73-0.56c9.43,0.02,18.86,0.05,28.29,0.07
	c0.72,0,1.51,0.03,2.03,0.52c0.7,0.66,0.56,1.8,0.36,2.75c-1.56,7.48-3.12,14.97-5.05,22.37c-2.84,10.88-6.64,21.74-12.54,31.36
	c-6.33,10.32-15.61,16.12-23.5,24.81c-3.01,3.32-6.3,6.39-9.07,9.15c0.34-0.34,12.32,13.7,14.04,13.77
	c4.12,0.17,10.92-8.34,13.9-11.04c11.11-10.07,25.97-24,25.26-40.11c-0.86-0.76-1.69-1.68-2.7-2.3c-0.68-0.42-1.62-0.43-3.29-0.82
	C1121.45,215.77,1127.29,199.23,1130.47,181.98z"/>
<path class="st14" d="M1105.82,124.08c4.72-8.22,9.15-15.92,13.16-22.88c11.82,0,22.48,0,34.04,0
	c-3.85,7.52-10.37,11.59-16.12,16.83c5.53,1.66,10.39,3.12,14.73,4.42c2.29,8.84-0.77,15.96-4.37,24.88
	c-2.77,2.4-6.3,6.88-12.28,9.22c-3.51,1.37-7.75,0.26-10.59,3.32c-9.71,0-19.43,0-30.11,0c3.75-7.43,6.95-13.77,10.04-19.9
	c11.73-0.91,23.08-0.82,33.82-6.55C1126.9,130.16,1116.53,127.17,1105.82,124.08z"/>
<text transform="matrix(1.2952 0 0 1 492.5146 386.7852)" class="st14 st16 st17">MECANIZADOS</text>
</svg>
