<svg xmlns="http://www.w3.org/2000/svg" viewBox="0 0 178.13 61.25"><defs><style>.cls-1{fill:#8f8fa3;}.cls-2{fill:#8f8fa3;}</style></defs><title>TELECOM_Recurso 1</title><g id="Capa_2" data-name="Capa 2"><g id="Capa_1-2" data-name="Capa 1"><path class="cls-1" d="M0,12.46v-.83H8.72v.83Z"/><path class="cls-1" d="M18.94,2.63v9H16.1v-9H13.26V.1h8.53V2.63Z"/><path class="cls-1" d="M23.44,11.66V.1h7.87V2.63h-5V4.56h4.29V7.1H26.29v2h5v2.53Z"/><path class="cls-1" d="M33.32,11.66V.1h2.84v9H41v2.53Z"/><path class="cls-1" d="M42.68,11.66V.1h7.86V2.63h-5V4.56h4.29V7.1H45.52v2h5v2.53Z"/><path class="cls-1" d="M56.57,11.76a4.3,4.3,0,0,1-3.22-1.3c-1.22-1.22-1.17-2.84-1.17-4.58s0-3.36,1.17-4.58A4.3,4.3,0,0,1,56.57,0,4.2,4.2,0,0,1,61,3.77h-2.9a1.42,1.42,0,0,0-1.47-1.24A1.4,1.4,0,0,0,55.47,3c-.26.34-.44.75-.44,2.86s.18,2.52.44,2.86a1.37,1.37,0,0,0,1.12.49A1.42,1.42,0,0,0,58.06,8H61A4.2,4.2,0,0,1,56.57,11.76Z"/><path class="cls-1" d="M69.71,10.46a4.66,4.66,0,0,1-6.46,0C62,9.24,62.08,7.62,62.08,5.88s0-3.36,1.17-4.58a4.66,4.66,0,0,1,6.46,0c1.22,1.22,1.17,2.84,1.17,4.58S70.93,9.24,69.71,10.46ZM67.62,3a1.53,1.53,0,0,0-2.28,0c-.26.34-.42.73-.42,2.84s.16,2.49.42,2.83a1.51,1.51,0,0,0,2.28,0c.26-.34.42-.72.42-2.83S67.88,3.38,67.62,3Z"/><path class="cls-1" d="M80.79,11.66V6.12L79.15,9H77.33L75.69,6.12v5.54H72.85V.1h2.79l2.6,5.1L80.84.1h2.8V11.66Z"/><path class="cls-2" d="M90.53,11.66V.1h7.18V1.2H91.76V5.28h5.07v1.1H91.76v4.18h5.95v1.1Z"/><path class="cls-2" d="M103.25,11.76a5.05,5.05,0,0,1-4-1.53l.85-.84a4,4,0,0,0,3.15,1.27c1.69,0,2.73-.8,2.73-2.15a1.85,1.85,0,0,0-.55-1.44A2.49,2.49,0,0,0,104,6.51L102.6,6.3a4.22,4.22,0,0,1-2.13-.87,2.73,2.73,0,0,1-.88-2.17C99.59,1.3,101,0,103.3,0a4.62,4.62,0,0,1,3.44,1.27l-.8.79a3.63,3.63,0,0,0-2.69-1c-1.55,0-2.44.86-2.44,2.15a1.66,1.66,0,0,0,.52,1.33,3.36,3.36,0,0,0,1.56.63l1.27.2a3.75,3.75,0,0,1,2.11.81,2.91,2.91,0,0,1,1,2.29C107.24,10.51,105.65,11.76,103.25,11.76Z"/><path class="cls-2" d="M113.43,11.76a4.12,4.12,0,0,1-3-1.2c-1.09-1.09-1.09-2.23-1.09-4.68s0-3.59,1.09-4.68a4.12,4.12,0,0,1,3-1.2,3.91,3.91,0,0,1,4,3.44h-1.27a2.74,2.74,0,0,0-2.75-2.34,2.77,2.77,0,0,0-2,.82c-.74.74-.82,1.54-.82,4s.08,3.22.82,4a2.82,2.82,0,0,0,4.77-1.52h1.24A3.91,3.91,0,0,1,113.43,11.76Z"/><path class="cls-2" d="M124,11.76a3.82,3.82,0,0,1-4-3.91V.1h1.24V7.75a2.8,2.8,0,1,0,5.6,0V.1h1.24V7.85A3.84,3.84,0,0,1,124,11.76Z"/><path class="cls-2" d="M131.27,11.66V.1h7.18V1.2h-5.94V5.28h5.07v1.1h-5.07v4.18h5.94v1.1Z"/><path class="cls-2" d="M141,11.66V.1h1.24V10.56h5.91v1.1Z"/><path class="cls-2" d="M157.07,11.66l-.92-2.61h-5.06l-.92,2.61h-1.32L153.11.1h1l4.24,11.56Zm-3.43-9.79L151.47,8h4.32Z"/><path class="cls-2" d="M5.07,17.7V28.16H3.83V17.7H.49V16.59H8.42V17.7Z"/><path class="cls-2" d="M10.58,28.16V16.59h7.18V17.7h-6v4.07h5.07v1.11H11.81v4.17h6v1.11Zm3.68-12.69H13.19L14.62,13H16Z"/><path class="cls-2" d="M23.93,28.26a4.13,4.13,0,0,1-3-1.21c-1.08-1.08-1.08-2.22-1.08-4.67s0-3.59,1.08-4.68a4.12,4.12,0,0,1,3-1.2,3.89,3.89,0,0,1,4,3.44H26.68a2.74,2.74,0,0,0-2.75-2.34,2.8,2.8,0,0,0-2,.81c-.73.75-.81,1.55-.81,4s.08,3.21.81,4a2.8,2.8,0,0,0,2,.81,2.76,2.76,0,0,0,2.78-2.34h1.23A3.9,3.9,0,0,1,23.93,28.26Z"/><path class="cls-2" d="M38.05,28.16l-6.14-9.28v9.28H30.67V16.59h1.17L38,25.84V16.59h1.24V28.16Z"/><path class="cls-2" d="M42.57,28.16V16.59H43.8V28.16Z"/><path class="cls-2" d="M50.75,28.26a4.13,4.13,0,0,1-3-1.21c-1.09-1.08-1.09-2.22-1.09-4.67s0-3.59,1.09-4.68a4.12,4.12,0,0,1,3-1.2,3.9,3.9,0,0,1,4,3.44H53.5a2.81,2.81,0,0,0-4.74-1.53c-.74.75-.82,1.55-.82,4s.08,3.21.82,4a2.83,2.83,0,0,0,4.77-1.53h1.24A3.91,3.91,0,0,1,50.75,28.26Z"/><path class="cls-2" d="M64.08,28.16l-.93-2.62h-5l-.93,2.62H55.86l4.25-11.57h1l4.24,11.57Zm-3.43-9.8-2.18,6.11h4.32Z"/><path class="cls-1" d="M75.12,28.16H73L69.19,16.59h2.94l2,6.47L76,16.59h3Z"/><path class="cls-1" d="M80.13,28.16V16.59H83v9h4.86v2.54Z"/><path class="cls-1" d="M93.17,28.26A4.31,4.31,0,0,1,90,27c-1.22-1.22-1.17-2.85-1.17-4.58S88.74,19,90,17.79a4.31,4.31,0,0,1,3.21-1.29,4.17,4.17,0,0,1,4.39,3.76H94.67A1.43,1.43,0,0,0,93.19,19a1.37,1.37,0,0,0-1.12.49c-.26.34-.44.74-.44,2.86s.18,2.51.44,2.85a1.37,1.37,0,0,0,1.12.49,1.43,1.43,0,0,0,1.48-1.23h2.89A4.18,4.18,0,0,1,93.17,28.26Z"/><path class="cls-2" d="M106.58,28.26a5.05,5.05,0,0,1-4-1.53l.85-.85a4,4,0,0,0,3.15,1.27c1.69,0,2.73-.79,2.73-2.14a1.89,1.89,0,0,0-.55-1.45,2.55,2.55,0,0,0-1.51-.55l-1.35-.21a4.22,4.22,0,0,1-2.13-.88,2.71,2.71,0,0,1-.88-2.16c0-2,1.42-3.26,3.71-3.26a4.65,4.65,0,0,1,3.44,1.26l-.8.8a3.62,3.62,0,0,0-2.69-1c-1.55,0-2.44.86-2.44,2.14a1.64,1.64,0,0,0,.52,1.33,3.36,3.36,0,0,0,1.56.64l1.27.19a3.72,3.72,0,0,1,2.11.81,2.93,2.93,0,0,1,1,2.3C110.57,27,109,28.26,106.58,28.26Z"/><path class="cls-2" d="M117,28.26a3.81,3.81,0,0,1-4-3.92V16.59h1.23v7.65a2.8,2.8,0,1,0,5.6,0V16.59h1.24v7.75A3.84,3.84,0,0,1,117,28.26Z"/><path class="cls-2" d="M128.56,23.4h-3.07v4.76h-1.24V16.59h4.31a3.29,3.29,0,0,1,3.57,3.4A3.3,3.3,0,0,1,128.56,23.4Zm-.11-5.7h-3v4.59h3A2.19,2.19,0,0,0,130.9,20,2.18,2.18,0,0,0,128.45,17.7Z"/><path class="cls-2" d="M134.49,28.16V16.59h7.18V17.7h-5.95v4.07h5.07v1.11h-5.07v4.17h5.95v1.11Z"/><path class="cls-2" d="M150.88,28.16,148.25,23h-2.78v5.13h-1.23V16.59h4.43a3.13,3.13,0,0,1,3.43,3.22,3,3,0,0,1-2.52,3.1l2.75,5.25ZM148.56,17.7h-3.09v4.24h3.09a2.13,2.13,0,1,0,0-4.24Z"/><path class="cls-2" d="M154.9,28.16V16.59h1.23V28.16Z"/><path class="cls-2" d="M166,27.05a4.21,4.21,0,0,1-5.91,0C159,26,159,24.83,159,22.38s0-3.59,1.09-4.68a4.24,4.24,0,0,1,5.91,0c1.09,1.09,1.09,2.22,1.09,4.68S167.13,26,166,27.05Zm-1-8.62a2.79,2.79,0,0,0-2-.83,2.82,2.82,0,0,0-2,.83c-.73.75-.81,1.53-.81,3.95s.08,3.2.81,3.94a2.82,2.82,0,0,0,2,.83,2.79,2.79,0,0,0,2-.83c.73-.74.81-1.52.81-3.94S165.81,19.18,165.08,18.43Z"/><path class="cls-2" d="M176.68,28.16,174.05,23h-2.78v5.13H170V16.59h4.43a3.13,3.13,0,0,1,3.43,3.22,3,3,0,0,1-2.52,3.1l2.75,5.25ZM174.36,17.7h-3.09v4.24h3.09a2.13,2.13,0,1,0,0-4.24Z"/><path class="cls-2" d="M8.56,43.58a4,4,0,0,1-2.92,1.07h-4V33.09h4a4,4,0,0,1,2.92,1.07c1.2,1.2,1.14,3,1.14,4.58S9.76,42.38,8.56,43.58ZM7.7,35a3,3,0,0,0-2.27-.85H2.91v9.36H5.43A3,3,0,0,0,7.7,42.7c.8-.82.76-2.55.76-4S8.5,35.87,7.7,35Z"/><path class="cls-2" d="M12.61,44.65V33.09h7.18v1.1H13.84v4.08h5.07v1.1H13.84v4.18h5.95v1.1Z"/><path class="cls-2" d="M26.4,44.65V33.09h1.24V44.65Z"/><path class="cls-2" d="M38.36,44.65l-6.14-9.27v9.27H31V33.09h1.17l6.14,9.24V33.09h1.24V44.65Z"/><path class="cls-2" d="M49.57,43.42a4.25,4.25,0,0,1-6,.13c-1.08-1.09-1.08-2.23-1.08-4.68s0-3.59,1.08-4.68a4.11,4.11,0,0,1,3-1.2,4,4,0,0,1,4.05,3.46H49.29a2.77,2.77,0,0,0-2.81-2.35,2.81,2.81,0,0,0-2,.82c-.73.75-.81,1.53-.81,3.95s.08,3.22.81,4a2.88,2.88,0,0,0,4.19-.17,3,3,0,0,0,.65-2.1v-.88H46.48V38.59h4.08v1.84A4,4,0,0,1,49.57,43.42Z"/><path class="cls-2" d="M53.43,44.65V33.09h7.19v1.1H54.67v4.08h5.07v1.1H54.67v4.18h5.95v1.1Z"/><path class="cls-2" d="M70.56,44.65l-6.14-9.27v9.27H63.18V33.09h1.17l6.14,9.24V33.09h1.24V44.65Z"/><path class="cls-2" d="M75.08,44.65V33.09h1.23V44.65Z"/><path class="cls-2" d="M79.66,44.65V33.09h7.18v1.1h-6v4.08H86v1.1H80.89v4.18h6v1.1Z"/><path class="cls-2" d="M96.05,44.65l-2.63-5.13H90.64v5.13H89.41V33.09h4.43a3.13,3.13,0,0,1,3.43,3.21,3,3,0,0,1-2.52,3.11l2.75,5.24ZM93.73,34.19H90.64v4.24h3.09a2.13,2.13,0,1,0,0-4.24Z"/><path class="cls-2" d="M101.13,32h-1.07l1.43-2.49h1.4Zm-1.07,12.68V33.09h1.24V44.65Z"/><path class="cls-2" d="M111.39,44.65,110.46,42h-5l-.93,2.61h-1.31l4.25-11.56h1l4.24,11.56ZM108,34.86,105.78,41h4.32Z"/><path class="cls-2" d="M125.5,43.58a4,4,0,0,1-2.92,1.07h-4V33.09h4a4,4,0,0,1,2.92,1.07c1.21,1.2,1.14,3,1.14,4.58S126.71,42.38,125.5,43.58ZM124.64,35a3,3,0,0,0-2.27-.85h-2.52v9.36h2.52a3,3,0,0,0,2.27-.85c.8-.82.77-2.55.77-4S125.44,35.87,124.64,35Z"/><path class="cls-2" d="M129.55,44.65V33.09h7.18v1.1h-5.95v4.08h5.07v1.1h-5.07v4.18h5.95v1.1Z"/><path class="cls-2" d="M5.07,50.69V61.15H3.83V50.69H.49V49.58H8.42v1.11Z"/><path class="cls-2" d="M10.58,61.15V49.58h7.18v1.11h-6v4.08h5.07v1.1H11.81v4.18h6v1.1Z"/><path class="cls-2" d="M20.32,61.15V49.58h1.24V60.05h5.91v1.1Z"/><path class="cls-2" d="M29.63,61.15V49.58h7.18v1.11H30.87v4.08h5.07v1.1H30.87v4.18h5.94v1.1Z"/><path class="cls-2" d="M43,61.25a4.16,4.16,0,0,1-3-1.2c-1.09-1.09-1.09-2.23-1.09-4.68s0-3.59,1.09-4.68a4.12,4.12,0,0,1,3-1.2,3.89,3.89,0,0,1,4,3.44H45.73A2.73,2.73,0,0,0,43,50.59a2.77,2.77,0,0,0-2,.81c-.73.75-.81,1.55-.81,4s.08,3.21.81,4a2.84,2.84,0,0,0,4.78-1.53H47A3.9,3.9,0,0,1,43,61.25Z"/><path class="cls-2" d="M56.29,60.05a4.24,4.24,0,0,1-5.91,0c-1.09-1.09-1.09-2.23-1.09-4.68s0-3.59,1.09-4.68a4.24,4.24,0,0,1,5.91,0c1.09,1.09,1.09,2.22,1.09,4.68S57.38,59,56.29,60.05Zm-.95-8.63a2.82,2.82,0,0,0-2-.83,2.79,2.79,0,0,0-2,.83c-.73.75-.81,1.53-.81,3.95s.08,3.2.81,3.94a2.79,2.79,0,0,0,2,.83,2.82,2.82,0,0,0,2-.83c.73-.74.81-1.52.81-3.94S56.07,52.17,55.34,51.42Z"/><path class="cls-2" d="M69,61.15V52.36l-3.17,7H64.74l-3.21-7v8.79H60.29V49.58h1.24l3.76,8.21L69,49.58H70.2V61.15Z"/><path class="cls-2" d="M77.41,61.25a3.82,3.82,0,0,1-4-3.92V49.58h1.23v7.65a2.81,2.81,0,1,0,5.61,0V49.58h1.23v7.75A3.84,3.84,0,0,1,77.41,61.25Z"/><path class="cls-2" d="M92,61.15l-6.14-9.28v9.28H84.65V49.58h1.16L92,58.83V49.58h1.23V61.15Z"/><path class="cls-2" d="M96.54,61.15V49.58h1.23V61.15Z"/><path class="cls-2" d="M104.73,61.25a4.16,4.16,0,0,1-3-1.2c-1.09-1.09-1.09-2.23-1.09-4.68s0-3.59,1.09-4.68a4.12,4.12,0,0,1,3-1.2,3.89,3.89,0,0,1,4,3.44h-1.27a2.73,2.73,0,0,0-2.74-2.34,2.77,2.77,0,0,0-2,.81c-.73.75-.81,1.55-.81,4s.08,3.21.81,4a2.83,2.83,0,0,0,4.77-1.53h1.24A3.91,3.91,0,0,1,104.73,61.25Z"/><path class="cls-2" d="M118.05,61.15l-.93-2.62h-5.05l-.93,2.62h-1.31l4.25-11.57h1l4.24,11.57Zm-3.43-9.8-2.18,6.11h4.32Z"/><path class="cls-2" d="M124.68,61.25a4.16,4.16,0,0,1-3-1.2c-1.09-1.09-1.09-2.23-1.09-4.68s0-3.59,1.09-4.68a4.12,4.12,0,0,1,3-1.2,3.89,3.89,0,0,1,4,3.44h-1.27a2.73,2.73,0,0,0-2.74-2.34,2.77,2.77,0,0,0-2,.81c-.73.75-.81,1.55-.81,4s.08,3.21.81,4a2.83,2.83,0,0,0,4.77-1.53h1.24A3.9,3.9,0,0,1,124.68,61.25Z"/><path class="cls-2" d="M131.42,61.15V49.58h1.23V61.15Z"/><path class="cls-2" d="M142.56,60.05a4.24,4.24,0,0,1-5.91,0c-1.09-1.09-1.09-2.23-1.09-4.68s0-3.59,1.09-4.68a4.24,4.24,0,0,1,5.91,0c1.09,1.09,1.09,2.22,1.09,4.68S143.65,59,142.56,60.05Zm-.95-8.63a2.82,2.82,0,0,0-2-.83,2.79,2.79,0,0,0-2,.83c-.73.75-.81,1.53-.81,3.95s.08,3.2.81,3.94a2.79,2.79,0,0,0,2,.83,2.82,2.82,0,0,0,2-.83c.73-.74.81-1.52.81-3.94S142.34,52.17,141.61,51.42Zm-1.73-3h-1.07L140.24,46h1.4Z"/><path class="cls-2" d="M153.94,61.15l-6.14-9.28v9.28h-1.24V49.58h1.17l6.14,9.25V49.58h1.24V61.15Z"/></g></g></svg>