<svg id="Logos_Patrocinadores" data-name="Logos Patrocinadores" xmlns="http://www.w3.org/2000/svg" viewBox="0 0 1500 600"><defs><style>.cls-1{fill:#7a97ab;}</style></defs><path class="cls-1" d="M600,327.29H644.3c0,1.31-.07,2.6,0,3.87a34.52,34.52,0,0,0,2.49,11.65A17.61,17.61,0,0,0,661.45,354,26.43,26.43,0,0,0,675,352.66a16.49,16.49,0,0,0,7.74-5.81,15.26,15.26,0,0,0,2.63-8.1,17.08,17.08,0,0,0-1.35-8.44c-1.72-3.7-4.77-5.8-8.53-7a29.12,29.12,0,0,0-8.64-1.28c-3.91,0-7.82,0-11.73,0h-.83v-29.6h.73c6.13,0,12.27,0,18.4,0a21.44,21.44,0,0,0,7.88-1.4,10.23,10.23,0,0,0,6.71-8.63,15.92,15.92,0,0,0-.4-6.62c-1.15-4.07-4-6.49-7.85-7.84a26.69,26.69,0,0,0-8-1.34,32.45,32.45,0,0,0-10.56,1.12c-6.72,2-10.61,6.65-12.12,13.39-.28,1.3-.45,2.62-.68,4H606.21c0-1.21-.06-2.42,0-3.63a57.85,57.85,0,0,1,2.41-14.35c3.58-11.6,10.9-20.1,21.43-26a64.26,64.26,0,0,1,19.17-6.72,109.35,109.35,0,0,1,25.48-1.65,85.14,85.14,0,0,1,24.15,4.13A50.51,50.51,0,0,1,716.77,247a45.55,45.55,0,0,1,12.16,18.13c.41,1.07.77,2.15,1.29,3.2v-33h.84q31.47,0,63,0c.61,0,.85.16,1,.77q6.48,26.31,13,52.61,4.31,17.38,8.6,34.77a1.12,1.12,0,0,0,.28.57c.11-.38.23-.76.33-1.14q4-16.23,7.94-32.46l11-45.07c.77-3.13,1.54-6.26,2.28-9.4a.71.71,0,0,1,.83-.65q31.5,0,63,0l.67,0V387.05H859.54V290.43l-.12,0q-12.06,48.32-24,96.66H797.46q-11.79-48.22-23.6-96.46l-.13,0v96.43H730.22V357.93l-.12,0a2.29,2.29,0,0,0-.18.29c-4.38,10.35-11.82,17.83-21.7,23a75.65,75.65,0,0,1-23.5,7.52,107.6,107.6,0,0,1-19.64,1.13,102.33,102.33,0,0,1-24.5-3.37,56.93,56.93,0,0,1-21.79-11,48.32,48.32,0,0,1-14.66-21.76,67.1,67.1,0,0,1-3.43-16.21C600.4,334.13,600.25,330.75,600,327.29Zm130.13-3.89V285.82a32.42,32.42,0,0,1-17,20.37C721.47,309.48,727.19,315.07,730.16,323.4Z"/></svg>