<svg id="Logos_Patrocinadores" data-name="Logos Patrocinadores" xmlns="http://www.w3.org/2000/svg" viewBox="0 0 1500 600"><defs><style>.cls-1{fill:#7a97ab;}</style></defs><path class="cls-1" d="M1218.45,461.56c-2,.23-2.81-.47-2.73-2.62a63.82,63.82,0,0,0-.76-13.38c-1.37,2.78-2.65,5.62-4.16,8.33-.51.92-1.6,2.08-2.46,2.1s-1.94-1.14-2.44-2.05a65.83,65.83,0,0,0-4.82-8.27v15.46c-2.19.6-3.56.72-3.54-1.93,0-7,0-14.08,0-21.19,2.61-1,4.2-.59,5.3,2,1.59,3.77,3.49,7.42,5.54,11.71,2-4.17,3.94-7.65,5.42-11.31.93-2.29,2.24-3.28,4.63-3Z"/><path class="cls-1" d="M284.32,362.6V115.05H531.19V362.6ZM335,331.53,490.26,240.4,335,153.25Z"/><path class="cls-1" d="M771.55,224.49c-6.65,0-13.09.12-19.51-.13-1,0-2.23-1.61-3-2.73q-22-33.65-43.9-67.35c-.73-1.11-1.5-2.21-2.94-4.32v74.27H680V113.62c7.2,0,14.36-.12,21.5.13,1,0,2.14,1.76,2.87,2.92q21.14,33.12,42.17,66.29a9.71,9.71,0,0,0,2.9,3.14V113.82h22.08Z"/><path class="cls-1" d="M572.25,249.69c5.09,0,9.82,0,14.55,0,10.86.08,21.76-.43,32.56.39,22.54,1.7,36.61,14.52,43.31,35.56a69,69,0,0,1-.45,44.18c-6.34,18.49-20.12,28.37-39.08,29.79-16.39,1.23-32.91.52-49.38.65a7.08,7.08,0,0,1-1.51-.38ZM595.46,343c7.91,0,15.48.44,23-.11,9.94-.73,17.42-5.88,20.81-15.37,5.34-14.93,5.09-29.87-2.13-44.27-3.35-6.66-8.41-12.23-15.9-13.49-8.4-1.41-17.05-1.29-25.75-1.84Z"/><path class="cls-1" d="M696.51,311.66v29.89h60.55V360H674.12V250h81.27v18.08h-59v23.67h51.83v19.93Z"/><path class="cls-1" d="M1006,226.22c-26.71-.07-46.55-17.15-51-44a69.1,69.1,0,0,1,3.12-36c8.27-22.38,26.94-34.91,50.77-34.19,21.72.65,39.38,14.94,46,37.4a68,68,0,0,1-1.19,43.74C1045.9,214.39,1028.59,226.29,1006,226.22Zm30.31-53.93c0-13.47-2.78-22.94-8-30-11.44-15.5-33.31-15.45-44.65.1-10.39,14.24-10.91,38.18-1.17,52.91a27.59,27.59,0,0,0,45.42,1.6A41.76,41.76,0,0,0,1036.34,172.29Z"/><path class="cls-1" d="M1119.88,166h44.88v55.48h-17.09v-10c-1.18,1-1.74,1.37-2.2,1.86-19.22,20.41-49.83,14-64.29-.26-12-11.85-17-26.56-17-43,.08-18.48,6-34.76,20.92-46.69,22.48-18,56.4-13.19,71.58,10,2.94,4.5,5.11,9.32,5.41,15.23-6,0-11.68.06-17.39-.07-.74,0-1.61-.91-2.15-1.61-1.47-1.94-2.7-4.05-4.2-6a27.81,27.81,0,0,0-43.29-.94c-12.45,14.45-13.6,40.51-2.48,56,11.38,15.89,33.3,16.94,46.81,2.1,3.79-4.16,8-8.35,6.24-15.21h-25.79Z"/><path class="cls-1" d="M1019.57,312.31v29.14H1079v18.62h-80.8V249.69h3.61c23.67,0,47.34.06,71-.07,3.08,0,4,.9,3.87,3.91-.22,5.22-.06,10.45-.06,16h-57.15v23h50.28v19.76Z"/><path class="cls-1" d="M1080.8,327.28c6.58,0,12.78,0,19,.07a2.74,2.74,0,0,1,1.86,1.66c3.65,12.11,8.89,16.41,21.53,17.23a33.27,33.27,0,0,0,17.36-3.48c5-2.54,8.37-6.39,8.21-12.33s-3.54-10.15-9-12.05a137.28,137.28,0,0,0-15.19-3.85c-10-2.22-20-4.32-29-9.49-10-5.71-14.71-14.2-13.27-25.84s7.83-20.15,18.21-25.23c14.44-7.08,29.62-7.88,44.8-2.8,12.51,4.2,19.19,13.61,21.13,26.49a21.62,21.62,0,0,1,0,3h-19.72c-.2-.27-.42-.44-.46-.64-2.15-10-8.86-14.75-18.55-14.85a55.74,55.74,0,0,0-16,2.68,10.35,10.35,0,0,0-7.77,10c-.18,5.23,2,9.7,6.8,11.54,6.19,2.37,12.77,3.74,19.23,5.39,6.83,1.74,13.92,2.71,20.53,5.05,21,7.45,27.17,31.45,12.68,48.59-6.42,7.59-14.83,11.79-24.44,13.53-12,2.17-23.84,1.64-35.25-2.89-12.13-4.82-19.49-13.8-22.21-26.55a19.47,19.47,0,0,1-.34-2.53C1080.75,329.32,1080.8,328.6,1080.8,327.28Z"/><path class="cls-1" d="M674.85,224.5c-6.78,0-13.36.1-19.94-.1a4.12,4.12,0,0,1-2.9-2.29q-3.59-9.56-6.68-19.3c-.69-2.16-1.58-3.11-4-3.09q-17.56.21-35.12,0c-2.28,0-3.15.78-3.75,2.9-2.06,7.24-4.34,14.42-6.57,21.72H574c.36-1.35.61-2.58,1-3.75Q592.51,168.75,610,116.88c.8-2.4,1.79-3.5,4.53-3.37,5.48.25,11,0,16.46.16a4.2,4.2,0,0,1,3.2,1.94q20.52,53.87,40.78,107.82A3.7,3.7,0,0,1,674.85,224.5Zm-38.5-40.35C637.42,180,626,142.88,622,137.83c-4,15.58-10.29,30.27-13.06,46.32Z"/><path class="cls-1" d="M878.15,224.5c-7,0-13.81.09-20.61-.12-.86,0-2.06-1.45-2.43-2.47q-3.54-9.58-6.7-19.3c-.66-2-1.54-2.91-3.84-2.88q-17.55.18-35.12,0c-2.48,0-3.34,1-4,3.13-1.82,6.44-3.74,12.85-5.85,19.19a4,4,0,0,1-2.82,2.35c-6.45.21-12.91.11-19.77.11.58-1.95,1.05-3.66,1.62-5.34q17.12-50.82,34.19-101.66c1-3,2.3-4.22,5.61-4,5.22.34,10.48,0,15.72.18a4.23,4.23,0,0,1,3.18,2Q857.72,169,877.8,222.45A11.13,11.13,0,0,1,878.15,224.5Zm-36.89-40.3c-3.93-16.47-10.21-31.5-15.37-46.94-4.86,13.31-9.4,26.51-13.69,39.79-.69,2.16-.29,4.68-.4,7.15Z"/><path class="cls-1" d="M993.37,286.07c-6.76,0-13.22.11-19.67-.1-1.1,0-2.38-1.26-3.19-2.26-3.23-3.94-5.94-8.38-9.5-12-11-11.06-25.87-7-33.27,2.63-6.13,7.92-8.52,17.12-8.93,26.93-.5,11.69,1.34,22.88,8.19,32.69,12,17.14,34.61,15.26,43.14-3.79,2-4.4,4.1-6,8.8-5.56s9.7.11,14.88.11a40.54,40.54,0,0,1-9.69,22.42c-9.06,10.65-21.22,14.62-34.67,15.6-21.77,1.57-36.67-8.64-46.08-27.5-8.08-16.19-9.76-33.29-5.38-50.85,6.2-24.78,27.38-39.06,53.1-36C973.8,251.08,989.09,264.58,993.37,286.07Z"/><path class="cls-1" d="M762.62,249.7c7.47,0,14.16-.11,20.83.14.85,0,2,1.79,2.38,3,5.88,18.8,11.66,37.64,17.47,56.47,2.07,6.71,4.14,13.41,6.57,21.26.77-2.19,1.21-3.34,1.57-4.51,7.32-24.22,14.68-48.42,21.9-72.67.75-2.53,1.84-3.45,4.52-3.35,5.84.2,11.7.06,18.28.06-.27,2.68-.06,5.27-.83,7.54-11.22,33.31-22.58,66.57-33.84,99.87-.67,2-1.64,2.6-3.66,2.54-5.25-.13-10.5-.14-15.74,0-2.08.06-3-.7-3.64-2.61-11.58-33.31-23.26-66.6-34.81-99.93C762.86,255.27,763,252.75,762.62,249.7Z"/><path class="cls-1" d="M954.72,205.59v18.7h-71V113.83h21.49v91.76Z"/><path class="cls-1" d="M863.42,250.29h23V359.75h-23Z"/><path class="cls-1" d="M615.39,437.73h7.71L632,476l.64.12q.89-2.76,1.76-5.52c2.22-7.08,4.59-14.11,6.58-21.26.9-3.24,3.17-2.22,5.17-2.4s3.32.07,4,2.48c2.39,8.78,5,17.49,8.26,26.25q2.93-11.78,5.84-23.55c.84-3.42,1.86-6.82,2.4-10.29s2.06-4.92,5.56-4.27a21.39,21.39,0,0,0,3.35,0c-.26,1.4-.39,2.54-.69,3.63-3.83,14.08-7.82,28.12-11.42,42.26-.91,3.56-2.47,4.86-5.95,4.32a24.43,24.43,0,0,0-3.44,0c-2.79-9.62-5.54-19.06-8.56-29.45-.83,2.47-1.42,4.1-1.92,5.76-2.18,7.09-4.45,14.15-6.43,21.29-1.1,3.93-4.07,1.92-6.26,2.38-2,.41-3-.44-3.51-2.55-3.87-15.33-7.89-30.62-11.85-45.92A7.89,7.89,0,0,1,615.39,437.73Z"/><path class="cls-1" d="M1092.77,461.88c6.36,5.14,8,10.08,5.59,16.81-2.09,6-6.73,9-14.33,9.05-6.21.08-12.42,0-18.63,0a8.29,8.29,0,0,1-1.25-.29V437.84c7.73,0,15.38-.33,23,.11,5.62.33,9.47,3.81,10.89,9.31C1099.51,453.07,1098,458.1,1092.77,461.88Zm-21.19,19.39c4.61,0,8.86.2,13.08-.06,4-.24,6.68-3.58,6.76-7.71.08-3.91-2.05-7.13-5.57-7.39-4.67-.34-9.39-.09-14.27-.09Zm0-21.89c4.34,0,8.23.18,12.11-.05a7.39,7.39,0,0,0,7-7.16c.28-4.24-1.67-7.23-6-7.73s-8.63-.11-13.1-.11Z"/><path class="cls-1" d="M454.36,487.71V437.25c8.64.38,17.25.32,25.75,1.32,4.91.59,8.08,4.47,9,9.48a82.24,82.24,0,0,1,0,29.06c-1.19,6.56-5.89,10.23-13.47,10.54C468.7,487.93,461.75,487.71,454.36,487.71Zm7.82-43.66v37.21c4.63,0,9,.17,13.34-.06,3.77-.2,6.16-2.39,6.29-6.31.27-8.11.28-16.25,0-24.37-.14-4.08-2.62-6.26-6.57-6.43C471,443.91,466.77,444.05,462.18,444.05Z"/><path class="cls-1" d="M516.39,461.75c.34-3.62.47-8,1.23-12.32,1.28-7.21,4.54-10.64,11.66-11.6a52.66,52.66,0,0,1,13.45.11c6.22.78,10,4.59,11.11,10.89a82.35,82.35,0,0,1,0,27.62c-1.06,6.3-4.86,10.16-11.07,10.95a51.5,51.5,0,0,1-13.81.05c-7.46-1.09-10.89-5.4-11.78-13.63C516.78,470.07,516.68,466.29,516.39,461.75Zm7.83.49c.24,3.84.33,7.37.71,10.87.63,5.79,2.83,7.94,8.55,8.41a28.23,28.23,0,0,0,5.81-.14c4.43-.55,6.94-2.84,7.12-7.34.3-7.51.33-15,0-22.54-.19-4.86-2.78-7.15-7.66-7.61a31.77,31.77,0,0,0-6.54.06c-4.25.48-6.64,2.79-7.15,7C524.62,454.78,524.48,458.67,524.22,462.24Z"/><path class="cls-1" d="M914,462.66c.43-4.59.7-9,1.25-13.3.85-6.66,4.84-10.7,11.38-11.46a59.81,59.81,0,0,1,14.15.16c6,.74,9.56,4.55,10.64,10.48a80.66,80.66,0,0,1,.07,28c-1,6.26-4.91,10.2-11.13,10.88a62.09,62.09,0,0,1-14.86-.25c-5.81-.8-9.26-4.75-10.12-10.53C914.71,471.94,914.46,467.19,914,462.66Zm30.81.77c-.19-4.19-.17-7.73-.56-11.22-.67-5.94-3-8-8.93-8.44a28,28,0,0,0-5.1.12c-4.74.54-7.39,2.94-7.57,7.76-.28,7.39-.25,14.8,0,22.19.15,4.21,2.54,6.62,6.28,7.45,6.24,1.39,12,0,14-3.46a8.91,8.91,0,0,0,1.07-3.44C944.43,470.53,944.63,466.65,944.84,463.43Z"/><path class="cls-1" d="M709.89,459.22V437.79h7.43v49.74h-7.24V466.22H689.39v21.25H682V437.79h7.06v21.43Z"/><path class="cls-1" d="M363.83,487.58h-7.3V466.1H335.92v21.48h-7.51v-49.7h7.36v21.33h20.71v-21.4h7.35Z"/><path class="cls-1" d="M967.49,472.79c1.86,7.42,6.26,10.14,13.56,8.52,4.37-1,6.85-4.27,6.82-9.07,0-4.16-1.87-6.12-6.8-7.08-3.7-.72-7.46-1.18-11.12-2.05-6.24-1.49-9.07-4.51-9.7-9.88-.66-5.74,2.31-11.66,7.38-13.94,6.52-2.94,13.31-2.77,20-.49,4.55,1.56,6.8,5.5,6.77,10.79h-6.5c-2.94-5.66-10.44-7.85-16.52-4.71-2.58,1.33-4,3.64-3.24,6.28a7.47,7.47,0,0,0,3.94,4.46c3.53,1.19,7.38,1.39,11.08,2.1,8.92,1.7,12.7,6,12.66,14.17,0,8.42-4.66,14.52-12.89,15.61a32.94,32.94,0,0,1-13.26-.95c-6.28-1.84-8.88-7.11-9.47-13.76Z"/><path class="cls-1" d="M1036.68,449.72h-6.87c-2.77-6.05-12.42-8.24-17.64-4.09-3.68,2.93-3,8.4,1.46,10a51.09,51.09,0,0,0,7.86,1.56c1.2.21,2.42.31,3.61.54,9.45,1.84,12.91,6.05,12.56,15.27-.32,8.36-5.65,14.23-14.2,14.76a33.72,33.72,0,0,1-12.17-1.33c-5.8-1.84-8.79-7.08-8.77-13.64h6.75c2.69,7.74,6.45,10.1,13.7,8.58,4.4-.93,6.9-4.19,6.91-9,0-4.21-1.8-6.18-6.72-7.15-3.71-.72-7.47-1.18-11.14-2.05-6.17-1.47-9.14-4.55-9.6-9.51-.6-6.52,2-12,7.25-14.33a25.93,25.93,0,0,1,20-.44C1034.29,440.52,1036.47,444.43,1036.68,449.72Z"/><path class="cls-1" d="M812.31,472.59h6.79c2.44,8.19,5.69,9.92,13.83,8.69,4.4-.66,7-4.25,7-8.95,0-4.12-1.92-6.2-6.77-7.15-3.82-.76-7.7-1.23-11.48-2.14-6-1.43-8.9-4.61-9.42-9.71-.61-5.9,2.25-11.71,7.26-14,6.52-3,13.31-2.79,20-.57,4.52,1.51,6.82,5.41,7,10.78h-6.76c-2.48-5.92-12.66-8.13-17.74-3.75a5.71,5.71,0,0,0,1.56,9.78,51,51,0,0,0,7.85,1.57c1.19.22,2.41.31,3.61.53,9,1.74,12.77,5.89,12.81,14.07,0,8.42-4.52,14.48-12.75,15.75a32.39,32.39,0,0,1-12.25-.5C816.1,485.4,812.47,479.92,812.31,472.59Z"/><path class="cls-1" d="M448.48,487.33c-.35.18-.44.28-.55.29-7.19.7-7.09.66-9.32-6.36-2.14-6.7-.45-5.54-7.5-5.63-3.65-.05-8.14-1.21-10.71.48s-2.78,6.32-4.3,9.55a4.35,4.35,0,0,1-2.75,2,32.53,32.53,0,0,1-5.73.09c.44-1.55.71-2.71,1.1-3.83,4.86-14.38,9.93-28.7,14.5-43.17,1.21-3.83,3.63-2.95,6.15-3.23,2.71-.3,3.73.84,4.5,3.35,4.49,14.5,9.17,28.94,13.78,43.4C448,485.31,448.21,486.36,448.48,487.33ZM429.06,449l-.83-.14c-2.15,6.59-4.29,13.18-6.5,20h13.19C432.89,462,431,455.51,429.06,449Z"/><path class="cls-1" d="M306.75,437.58l15.95,50h-8.13c-.94-3-2.05-6.08-2.81-9.22-.53-2.23-1.66-2.89-3.84-2.81-3.89.15-7.8.13-11.69,0-2-.07-3.24.51-3.66,2.58a35.61,35.61,0,0,1-1.07,3.47c-2.2,6.9-2.2,6.9-9.95,5.76,3-8.78,5.91-17.5,8.85-26.23,2.18-6.44,4.55-12.82,6.47-19.34,1-3.36,2.62-4.85,6.12-4.25A25.54,25.54,0,0,0,306.75,437.58ZM309,469c-2.09-7-4-13.52-6-20l-.84,0c-2.12,6.56-4.25,13.12-6.48,20Z"/><path class="cls-1" d="M723.12,487.52c.92-2.69,1.73-5.08,2.54-7.47,4.44-13.12,9-26.18,13.21-39.38,1.2-3.8,3.71-2.85,6.22-3.13s3.56.73,4.31,3.13c4.58,14.73,9.36,29.4,14.05,44.09.26.8.41,1.63.75,3a50.86,50.86,0,0,1-6.22-.08c-.82-.1-1.57-1-2.28-1.68-.24-.21-.28-.66-.39-1-1-3-1.1-7.2-3.16-8.64-2.25-1.58-6.3-.7-9.56-.72-7.51-.06-7.51,0-9.79,7.06C731.05,488.14,731.05,488.14,723.12,487.52ZM737.31,469h13.26c-2.07-6.92-4-13.49-6.27-21-.72,1.91-1.08,2.79-1.38,3.69C741.09,457.29,739.27,462.93,737.31,469Z"/><path class="cls-1" d="M1148.92,459.4h16.22v6.44h-16.25v15.41h22.26v6.23h-30v-49.7h29.93v6.06h-22.18Z"/><path class="cls-1" d="M881.18,469.66v17.9h-7.26V437.21c8.08.43,16.38.1,24.36,1.54,7,1.26,10.24,9.14,9,18.14-1,7.17-6.34,12.43-13.31,12.73C889.9,469.8,885.79,469.66,881.18,469.66Zm0-25.56c0,5.95-.06,11.62.09,17.29a2.77,2.77,0,0,0,1.93,1.85,53.22,53.22,0,0,0,9.45-.23c4.5-.63,7.36-4.69,7.2-9.53-.18-5.08-2.86-8.92-7-9.3C889.1,443.84,885.34,444.1,881.15,444.1Z"/><path class="cls-1" d="M381.77,465.84v15.37h22.41v6.33h-29.8V437.78h29.81V444H381.91v15.41h16.27v6.47Z"/><path class="cls-1" d="M571.94,465.83v21.62h-7.5V437.8h29.88v6.13H572.18V459.4H588.5v6.43Z"/><path class="cls-1" d="M774.44,444H761.87v-6.17H794.5v6H782.26v43.6h-7.82Z"/><path class="cls-1" d="M1107.67,437.71H1115v43.52h19.57v6.33h-26.89Z"/><path class="cls-1" d="M1046.5,437.76h6.89v49.82h-6.89Z"/><path class="cls-1" d="M1188.38,440.7v20.62H1185V440.69a32.6,32.6,0,0,1-4.56-.28c-.59-.11-1-.93-1.56-1.43.54-.48,1.06-1.36,1.62-1.38q6.19-.18,12.41,0c.54,0,1.06.93,1.59,1.43-.55.48-1,1.26-1.66,1.38A33.68,33.68,0,0,1,1188.38,440.7Z"/><path class="cls-1" d="M800.37,452.47c1.2-2.74,2.2-4.45,2.58-6.29.11-.49-1.68-1.37-3-2.35v-6h6.78c-.21,4,0,7.87-.81,11.56-.33,1.56-2.61,2.8-4.2,3.92C801.48,453.48,800.29,452.42,800.37,452.47Z"/></svg>