<svg id="Logos_Patrocinadores" data-name="Logos Patrocinadores" xmlns="http://www.w3.org/2000/svg" viewBox="0 0 1500 600"><defs><style>.cls-1{fill:#7a97ab;}</style></defs><path class="cls-1" d="M485.79,293.78c-1.31.14-2.19.3-3.06.31q-12.28,0-24.56,0c-3.05,0-3.25-.24-3.84-3.08-1.35-6.43-2.79-12.84-4.06-19.28-.35-1.77-1.31-2.2-2.84-2.19q-6.31,0-12.62,0c-1.1,0-2.2-.13-3.26-.19-.17-2.63,2-9.76,4.4-14.88h10.88c-2-11.54-4-22.59-5.9-33.63l-.82-.16c-.93,1.73-1.92,3.43-2.78,5.2-2.58,5.31-5,10.69-7.69,16-5.67,11.27-11.44,22.49-17.18,33.72Q406.1,288,399.69,300.41c-2.35,4.54-4.78,9-7.11,13.58a3,3,0,0,1-2.89,1.95c-8.86,0-17.73,0-26.6-.06a5.16,5.16,0,0,1-1.37-.43,4.39,4.39,0,0,1,.2-1.36c2.51-4.71,5.1-9.38,7.59-14.1,3.23-6.13,6.36-12.31,9.59-18.44q9.21-17.49,18.49-34.93l11.65-22c6.12-11.54,12.2-23.1,18.36-34.62,2.76-5.17,2.82-5.13,8.55-5.13h22.18c3.73,0,3.8,0,4.56,3.48,3.12,14.39,6.16,28.8,9.28,43.18,2.29,10.52,4.68,21,7,31.53C481.36,273.15,483.51,283.22,485.79,293.78Z"/><path class="cls-1" d="M577.3,185.09H606c-.13,1.39-.19,2.81-.42,4.2-1,6.48-2.12,12.94-3.17,19.41q-2.29,14.22-4.56,28.46c-.78,4.91-1.42,9.85-2.3,14.74-1.88,10.51-4.94,20.6-12.27,28.72a42.25,42.25,0,0,1-9.08,7.62,58.62,58.62,0,0,1-23.3,8,83.57,83.57,0,0,1-15.95.46c-9.05-.53-17.75-2.68-25.09-8.39a26.91,26.91,0,0,1-9.7-15.61,37.72,37.72,0,0,1-.79-6.38c-.52-9,1-17.82,2.5-26.64,1.36-7.91,2.41-15.87,3.66-23.8,1.2-7.59,2.48-15.17,3.71-22.76.42-2.56.81-5.12,1.21-7.6,2.53-.78,24.46-1,28.93-.23-.64,4.41-1.25,8.84-1.94,13.26-1.06,6.82-2.16,13.62-3.26,20.43-1.27,7.81-2.59,15.61-3.8,23.43-1,6.5-1.81,13.05-.27,19.58a11,11,0,0,0,8.32,8.57c8.36,2.28,15.82.7,21.78-5.74,3.31-3.56,4.84-8.2,5.92-12.85,1.15-4.95,1.94-10,2.79-15q1.68-9.86,3.22-19.74c1-6.48,1.94-13,3-19.45C575.76,193.68,576.53,189.57,577.3,185.09Z"/><path class="cls-1" d="M888.52,293.89H857.85c-2.25-7.77-3.45-15.82-5.49-24.13-2.94-.47-6.1-.15-9.22-.21s-6.32,0-9.95,0c1.5-4.82,2.85-9.22,4.25-13.61a2.19,2.19,0,0,1,2.45-1.42c1.93,0,3.86,0,5.79,0,1.1,0,2.2-.12,3.77-.22-2-11.4-3.91-22.45-5.83-33.49l-.71-.18c-.56,1-1.15,2.06-1.68,3.12-6.92,13.82-13.7,27.71-20.78,41.45-4.68,9.07-9.82,17.9-14.7,26.87a3.19,3.19,0,0,1-3.13,2.07c-8.86-.06-17.73,0-26.59-.06a9.47,9.47,0,0,1-1.71-.38c.94-2,1.72-3.81,2.66-5.56,2.16-4,4.44-7.92,6.6-11.91q9.63-17.82,19.22-35.66,8.41-15.57,16.91-31.1c4.06-7.48,8.16-14.94,12.21-22.42.62-1.16,1.26-2.12,2.77-2.12,9.88,0,19.76,0,30.07,0Z"/><path class="cls-1" d="M602.56,284.43l15.92-23.25c1.9,1.48,3.61,2.73,5.23,4.09,5.82,4.85,12.45,7.48,20.06,6.92,5.17-.38,9.79-2.23,12.35-7.18,2.37-4.59,1.1-8.78-3.48-11.21a71.1,71.1,0,0,0-9.08-3.82c-4.47-1.62-9.12-2.8-13.52-4.59-10.57-4.32-14.41-12.58-12.95-23.81a51.57,51.57,0,0,1,3.31-13.47,41.68,41.68,0,0,1,14.33-18.17,43.57,43.57,0,0,1,21.1-7.82c12.47-1.36,24,1.52,35.15,6.84l.61.31c2.54,1.38,2.68,1.76,1.11,4.11-1.89,2.83-3.88,5.59-5.79,8.41-2.54,3.75-5,7.53-7.67,11.47-1.2-.82-2.32-1.52-3.36-2.32a22.56,22.56,0,0,0-15.24-4.78c-4.71.22-8.85,2-11.48,6.18a6.29,6.29,0,0,0,1.76,8.73,24.78,24.78,0,0,0,5.41,2.8c4,1.5,8.18,2.73,12.26,4.14A39.23,39.23,0,0,1,680,233.93a20.31,20.31,0,0,1,8.37,16.32,46.44,46.44,0,0,1-10.82,31.48c-4.12,5-9.78,8.35-15.82,10.94-9,3.84-18.43,4.84-28,4.07a55.27,55.27,0,0,1-24.69-8C607,287.52,605.11,286.14,602.56,284.43Z"/><path class="cls-1" d="M767.66,212.94c-1.35-.95-2.61-1.9-3.93-2.75-4.41-2.84-9.2-4.52-14.48-4-3.41.31-6.66,1.24-9.22,3.84-5.38,5.44-2.93,10.22,2.38,12.75A85.57,85.57,0,0,0,754.26,227,48.29,48.29,0,0,1,766.1,232c6.24,3.92,10.48,9.06,11.1,16.9.43,5.43-.53,10.55-1.84,15.67A42.18,42.18,0,0,1,766,282.16a35,35,0,0,1-6.69,5.73,54,54,0,0,1-21.39,8.33,62.1,62.1,0,0,1-15.27.5,54.36,54.36,0,0,1-23.8-7.46c-1.47-.87-3-1.71-4.34-2.69a34.59,34.59,0,0,1-2.89-2.54l15.78-22.81a23.81,23.81,0,0,1,3.14,2.22,30.82,30.82,0,0,0,15.69,8.37A19.63,19.63,0,0,0,741,269.45c3.25-2,4.75-5.19,5.23-8.77a5.66,5.66,0,0,0-1.28-3.71,14.51,14.51,0,0,0-7.35-5.27c-4.78-1.43-9.57-2.88-14.26-4.58s-9.28-3.76-12.75-7.58a16.58,16.58,0,0,1-4.5-10.74c-.28-6.64.27-13.13,2.67-19.4a44.7,44.7,0,0,1,6.57-11.49c6.64-8.54,15.56-13.45,26-15.4a43.9,43.9,0,0,1,13.81-.55,87.28,87.28,0,0,1,18.49,4.26,61.34,61.34,0,0,1,7.4,3.46c1.64.86,1.84,1.53.88,3-4.39,6.62-8.85,13.2-13.3,19.78C768.48,212.59,768.21,212.64,767.66,212.94Z"/><path class="cls-1" d="M1071.08,220.58h28.48c.22,4.33-1.34,8.32-1.26,12.61,6,.55,11.58-.07,16.79-3.09a12.17,12.17,0,0,0,5.38-6.77c1-2.9,1.07-2.93,4.09-2.94q11.6,0,23.19,0c.88,0,1.77.14,3.11.25a22.6,22.6,0,0,1-.48,3.65c-3.94,12.44-11.79,21-24.58,24.63-.54.15-1.08.27-2,.5,8.55,14.77,17.69,28.91,26.37,43.77-1.29.11-2.16.25-3,.25-9.89,0-19.78-.06-29.66.07a4.16,4.16,0,0,1-4.43-2.77c-5.27-11.2-10.66-22.34-16-33.49-.48-1-1-2-2-3.74-.55,2.67-1,4.57-1.31,6.49q-1.7,10.2-3.31,20.42-.84,5.37-1.53,10.75c-.19,1.5-.89,2.27-2.41,2.27q-12.95-.06-25.9-.13c-.19,0-.38-.2-.92-.5Q1065.3,256.94,1071.08,220.58Z"/><path class="cls-1" d="M1020.81,226.54h31c-.73,4.94-1.39,9.48-2.07,14-.36,2.46-.79,4.91-1.11,7.37-.37,2.79-.74,3.21-3.7,3.22q-12.11,0-24.2,0c-.91,0-1.82,0-2.73,0a1.91,1.91,0,0,0-2.06,1.82c-.67,4.36-1.4,8.71-2,13.07a22.16,22.16,0,0,0,.13,3.4h32c.64,2.89-1.47,17.69-3.17,23.39-2.33.71-56.33,1-61.54.23a22.37,22.37,0,0,1,0-3.47q1.86-12.4,3.86-24.79c1.25-7.7,2.61-15.38,3.84-23.08,1.11-6.92,2.13-13.85,3.17-20.72,2.42-.79,24.05-1,28.75-.28-.08.83-.22,1.68-.23,2.53S1020.75,225.07,1020.81,226.54Z"/><path class="cls-1" d="M938.91,251.05c-2.82,14.25-4.25,28.29-7.12,42.17H903.21c.36-2.57.66-4.87,1-7.15q1.89-12.24,3.82-24.46c1.19-7.48,2.42-15,3.61-22.43.85-5.35,1.7-10.71,2.5-16.07.32-2.2.58-2.68,2.66-2.69,8.29-.06,16.58,0,24.87,0a6.17,6.17,0,0,1,1.58.42c-.13,1.8-.25,3.45-.4,5.39,3.53.58,6.8.23,10,.29s6.81,0,10.22,0h9.79c.07,4.57-2.71,21.44-4.07,24.51Z"/><path class="cls-1" d="M348.1,331.64v-6.81c.27-.26.35-.35.44-.42a.69.69,0,0,1,.3-.14,8.63,8.63,0,0,1,1.34-.18q156.17,0,312.33,0a10.52,10.52,0,0,1,1.43.21c1.1,2.18.36,4.43.55,6.82-.94.19-1.67.42-2.42.49a23.62,23.62,0,0,1-2.38,0H348.1Z"/><path class="cls-1" d="M1164.37,324.06v7c-2.59.74-311.34,1-315.93.28-.92-2.12-.45-4.35-.28-7,1.46-.08,2.88-.24,4.3-.24q49.11,0,98.21,0h213.7Z"/><path class="cls-1" d="M1152,214.07c-1,.1-1.66.23-2.33.23-8.63,0-17.26,0-25.89,0a4.16,4.16,0,0,1-3.7-1.85c-2.76-3.6-6.66-4.92-11-5-2.24,0-4.48,0-6.79,0-.51,2.34-1,4.31-1.37,6.24-2.42.73-23.4.94-28.16.24a27.41,27.41,0,0,1,0-4.15c1-6.48,2.06-12.94,3.12-19.41.27-1.66.62-3.31,1-5.22,1-.09,2-.25,3-.25,14,0,27.94-.21,41.9.07,7.15.15,14.13,1.6,20.31,5.75a20.72,20.72,0,0,1,8.23,10.12C1151.8,205,1152.86,209.27,1152,214.07Z"/><path class="cls-1" d="M983,185.13c-1.18,7.77-2.3,15-3.38,22.28a2.11,2.11,0,0,1-2.23,2.08c-.79,0-1.59,0-2.39,0H945.32l-.71,4.18c-2.57.76-24.89.9-28.83.16,1.38-9.55,2.72-19.11,4.64-28.73Z"/><path class="cls-1" d="M993.34,214.11c1.42-9.24,2.75-18,4.11-26.65.31-2,.9-2.47,2.94-2.53s4.09,0,6.14,0h53.57c-.55,3.85-1,7.27-1.54,10.67-.56,3.58-1.26,7.14-1.74,10.72-.41,3-.47,3.19-3.57,3.2-8.75,0-17.5,0-26.26,0h-3.45c-.38.47-.62.64-.65.83-.55,4.69-1.23,3.94-4.68,4-7.05,0-14.09,0-21.14,0C996,214.31,994.86,214.19,993.34,214.11Z"/><path class="cls-1" d="M765,415.92c5.53-12.81,11-25.32,17.06-37.72,6,12.23,11,24.72,16.51,37,2.35-1.94,15.17-22.44,19.13-30.57-2.54-.89-5.13-.34-7.65-.44s-5.2,0-8.21,0c-.1-1.53-.18-2.81-.25-4,2.52-.94,20.47-1.13,24.29-.31-.48,2.89-2.45,5-3.87,7.4-4.42,7.39-9,14.69-13.49,22a26.57,26.57,0,0,0-1.23,2.83h17.93c.1,1.37.18,2.43.28,3.83-1.23.13-2.2.31-3.17.31-8.63,0-17.26,0-25.89.06-2,0-3.22-.56-3.92-2.45s-1.72-3.72-2.35-5.65a2.69,2.69,0,0,0-2.94-2.19c-3.52.06-7,.09-10.57,0a2.89,2.89,0,0,0-3.07,2.11c-.58,1.48-1.22,2.93-1.8,4.41C770.2,416.54,770.21,416.54,765,415.92Zm17.25-26.53-.69.13-5,12.27c3.73.06,7,.16,10.82-.1C785.53,397.25,783.9,393.32,782.27,389.39Z"/><path class="cls-1" d="M335.63,361.28c.63-1.41,1-2.45,1.56-3.43,2.8-5.19,5.65-10.35,8.43-15.54a2.82,2.82,0,0,1,2.6-1.84l27.93.08c.18,0,.36.23.78.5-.57,1.17-1.11,2.4-1.74,3.57-2.75,5.09-5.55,10.15-8.26,15.26a3,3,0,0,1-2.95,1.79c-8.86-.05-17.71,0-26.57-.05A12.09,12.09,0,0,1,335.63,361.28Z"/><path class="cls-1" d="M667.19,415.66c-4.67,1.16-5.17.84-6.77-3-3.22-7.71-1-6.55-9.5-6.65-2.49,0-5,0-7.75,0-1,2.32-2.08,4.55-2.93,6.87s-2.28,3.59-5.07,3.43c-4.19-.24-8.4-.05-12.61-.07-1.1,0-2.21-.11-3.23-.17-.74-2.88-.83-32.92-.12-36.45h4.14a100.88,100.88,0,0,1,.21,10.55c0,3.63,0,7.27,0,10.91v10.35c3.58,1.75,7.6-.87,10.79,2.09,5.46-11.64,10.34-23.67,16.24-35.41C656.61,390.51,661.81,403.09,667.19,415.66Zm-11.3-14.05c-1.9-4.49-3.52-8.34-5.42-12.85-2,4.72-3.68,8.65-5.47,12.85Z"/><path class="cls-1" d="M1001.44,414.57c5.33-12.09,10.67-24.22,16.15-36.64.65.54,1.23.78,1.4,1.2q7.59,17.65,15.1,35.35c.17.41.27.85.48,1.52l-2.76.24a2.79,2.79,0,0,1-3.25-2.26c-.66-2.05-1.7-4-2.5-6a2.92,2.92,0,0,0-3.13-2c-3.41.09-6.82.07-10.23,0a2.75,2.75,0,0,0-2.92,1.82c-.92,2.19-1.91,4.36-2.9,6.53-.43.94-.91,1.86-2.17,1.86H987.16c-.84-2.64-1.07-31.73-.33-36.63l4.08-.21c.68,3.69.28,7.19.35,10.65.07,3.64,0,7.27,0,10.91v11h9c.39,1.24.65,2.06.92,2.88Zm17-24.69-.93,0c-1.64,3.83-3.27,7.65-5,11.76h10.85Z"/><path class="cls-1" d="M1056.26,407.09c4.51-10.34,8.66-19.85,12.82-29.36l.77,0c1.49,6.27,2.55,12.65,3.86,19s2.3,12.63,3.43,18.92c-4.17,1.12-4.74.8-5.42-2.76-1.2-6.33-2.4-12.67-3.68-19.37-2.67,3.86-3.89,8.18-5.89,12.1s-3.66,8.19-5.47,12.3l-.75,0c-3.65-8.1-7.31-16.2-11.21-24.87-1.58,8-3,15.44-4.51,23h-4.32a6.66,6.66,0,0,1-.23-1.82q3.48-18.27,7-36.51l.77-.1c2.12,4.82,4.26,9.63,6.36,14.46S1053.88,401.54,1056.26,407.09Z"/><path class="cls-1" d="M912.19,406V379.61h4.16c.71,2.67.83,34.66.13,38.44-9.8-8.9-18-19.14-28.1-28.5v26.34h-4.67v-38a19.18,19.18,0,0,1,2.39,1.75c6.69,7.09,13.35,14.22,20,21.32,1.7,1.8,3.5,3.52,5.25,5.28Z"/><path class="cls-1" d="M557.64,416.93c-10.59.6-19.06-7.91-19.17-18.7-.11-11,7.54-19.3,19.25-19.46,10.8-.15,19.52,7.88,19.47,19.58C577.15,408.33,568.81,417.66,557.64,416.93Zm.13-33.46c-7.78-.07-14,6.16-14.56,14.22-.47,7.3,7.07,15,14.35,15.06,8,.1,14.9-7.71,14.82-14.5C572.28,389.09,564.48,382.91,557.77,383.47Z"/><path class="cls-1" d="M718,416.93c-10,.81-19.32-7.94-19.26-18.67.06-11.37,8-19.44,19.35-19.47,11.65,0,19.26,8.83,19.46,19.43C737.71,408.33,728.33,417.8,718,416.93Zm.31-33.46c-7.62-.57-14.83,6.1-14.7,14.53a14.59,14.59,0,0,0,14.51,14.67c7.69.24,14.76-7,14.55-14.94C732.43,390.1,726.06,383.16,718.28,383.47Z"/><path class="cls-1" d="M859.16,416.93c-9.38.9-19.38-7.62-19.25-18.68.13-11.37,8-19.44,19.36-19.46,11.68,0,19.31,8.73,19.41,19.08C878.79,409.12,869.47,417.64,859.16,416.93Zm.17-33.46a14.06,14.06,0,0,0-14.51,14.69c.18,8,5.91,14.1,14.32,14.51,7.64.37,14.81-6.76,14.72-14.76C873.78,390.32,867.38,383.07,859.33,383.47Z"/><path class="cls-1" d="M480.21,406.05V379.69h4v38.15c-3.93-2.29-5.88-6.27-9-9.1-3.25-3-6.34-6.19-9.39-9.39s-5.76-6.3-8.63-9.46l-.8.3V416h-4.77c0-3.34,0-6.48,0-9.61s0-6.36,0-9.54,0-6.13,0-9.2-.32-6.24.4-10l27.54,28.69Z"/><path class="cls-1" d="M1123,400.39V416l-4.1.21c-.89-2.52-1.19-30.51-.43-36.54a33.84,33.84,0,0,1,9.59-.06,15.14,15.14,0,0,1,2,.47c5.75,1.45,7.36,3.37,7.81,9.55a9.48,9.48,0,0,1-7.58,10.28,5.23,5.23,0,0,0-1,.48c3.55,5.05,7.08,10.07,10.68,15.17-4.48,1.37-5.38,1.09-7.48-2q-3.82-5.62-7.69-11.22A22.26,22.26,0,0,0,1123,400.39Zm.2-4.53c2,1.12,3.75.18,5.45-.21a6,6,0,0,0,4.46-5.68,6.15,6.15,0,0,0-4.34-5.52,7.52,7.52,0,0,0-5.57.27Z"/><path class="cls-1" d="M679.5,313.35c6.86-.18,13.24-.93,19.12,2.93a16,16,0,0,1,7.32,11.36c1,6.54-.45,12.46-5.69,17A15.7,15.7,0,0,1,690,348.68c-3.28,0-6.57,0-10.22,0-.64-3.07-.27-6-.34-8.89s0-5.91,0-8.87v-8.52C679.48,319.49,679.49,316.57,679.5,313.35Zm5,30.74c6.85,1.33,11.94-.74,15.28-6,2-3.19,2.67-11.13-.91-15.42-3.25-3.9-9.49-6.15-14.37-4.74Z"/><path class="cls-1" d="M753.11,400.47l10.72,15.3c-5.11,1-5.63.83-8.18-2.95a121.63,121.63,0,0,0-8.6-11.59V416l-4.11.19c-.85-2.56-1.13-30.95-.38-36.56,5.22-.51,10.47-.93,15.27,2.14a7.37,7.37,0,0,1,3.48,5.6c.56,5.86-.44,10.14-6.85,12.43C754.14,399.91,753.86,400.1,753.11,400.47Zm-5.83-4.57c3.6.65,7-.42,8.39-2.53a6.64,6.64,0,0,0-.16-7.06c-2.18-2.74-5.08-2.34-8.23-1.83Z"/><path class="cls-1" d="M514.36,379.64a29.21,29.21,0,0,1,12.45.62c5.66,1.7,7.64,6.3,6.43,12.48-.86,4.34-3.85,6.47-8.38,7.39L536.11,416c-1.42.09-2.39.13-3.35.22-1.91.19-3.13-.64-4.19-2.25-2.86-4.34-5.88-8.56-9.32-13.52V416l-4.55.27c-.63-3.2-.27-6.24-.33-9.25s0-6.12,0-9.19V379.64Zm5,16.26c3.58.65,7-.41,8.38-2.52,1.28-1.94,1.35-5.32-.15-7-2.18-2.51-5.06-2.44-8.23-1.86Z"/><path class="cls-1" d="M768.17,313.38h4.49a29.94,29.94,0,0,1,.29,3c0,7,.06,14.08,0,21.12-.05,6.63-5.27,11.63-11.94,11.91a14.15,14.15,0,0,1-9.8-3.06c-3.14-2.49-4-6.12-4.09-9.73-.25-7.37,0-14.76,0-22.14a6.19,6.19,0,0,1,.36-1.07l4.1-.23c.1,1.44.25,2.63.25,3.82q0,9.72,0,19.42a8.16,8.16,0,0,0,5.12,8.09,7.8,7.8,0,0,0,11.2-7.26c.11-6.58,0-13.17,0-19.75Z"/><path class="cls-1" d="M425.7,379.54c6.73-.32,13-.28,19.54,0v4.56l-14.51.15v9.16c4.41.77,8.95-.08,13.82.52l.27,4.21c-4.66.86-9.21,0-13.62.56-.84,2.3-1,8.26-.37,13.14,4.58.73,9.35-.13,14.38.53l.25,3.14c-2.51.91-14,1.15-19.51.44-.58-2.89-.2-5.93-.27-8.94s0-6.13,0-9.2v-8.86C425.67,385.89,425.69,382.86,425.7,379.54Z"/><path class="cls-1" d="M943.5,384.14H929a27.25,27.25,0,0,0-.23,9.12c2.3.79,4.58.33,6.8.41s4.49,0,7,0v4.72H928.79V412l14.46.12v3.52c-2.7.74-15.66.83-19,.18-.69-2.44-.84-32.15-.19-35.89,2.35-.74,15-.9,19.24-.19C943.35,381,943.41,382.24,943.5,384.14Z"/><path class="cls-1" d="M1092.88,379.55h18.9v4.24c-4.53.91-9.08-.14-13.69.64a27.79,27.79,0,0,0-.11,9.17h13.76v4.53c-4.51.9-9.06-.13-13.83.66-.43,4.3-.14,8.53-.17,13.22h14.07c.08,1.51.14,2.56.22,4.1-6.36.25-12.42.14-18.8.06-.66-3.16-.27-6.2-.34-9.21s0-6.12,0-9.19V379.55Z"/><path class="cls-1" d="M1149.67,393.65h14c.08,1.61.15,2.89.23,4.51-4.68.78-9.22-.05-13.62.51-.82,2.36-1,8.67-.32,13.15,4.35.69,8.89-.1,13.65.48V416h-18.26c-.71-2.79-.81-32.7-.12-36.49,6-.37,12-.14,18.47-.14.08,1.55.14,2.83.22,4.41-4.7.82-9.25-.05-14,.6C1149.32,387.29,1149.57,390.17,1149.67,393.65Z"/><path class="cls-1" d="M419.1,408c.93,5.15.54,6.39-3.35,7.67-10.06,3.31-18.15,1.07-23.91-7.49-4.3-6.38-4-13.44-.09-20.28,4-7.14,15.16-12,25.05-7.23,2,1,3.1,2.15,2.79,4.43-.12.86-.15,1.73-.26,3-1.05-.67-1.83-1.08-2.51-1.61-8.12-6.28-19.67-2.74-22.5,8-2.23,8.5,4.32,17.65,13.1,18.16,3.63.21,6.83-1.36,9.79-3.39Z"/><path class="cls-1" d="M667.46,379.58h4.82l4.86,12.83a103.19,103.19,0,0,0,5.46,12.65c.41-1,.84-2,1.22-2.95,2.49-6.58,4.92-13.18,7.46-19.74,1.32-3.4,1.8-3.54,6.06-2.36-4.71,12.86-9.72,25.58-14.56,38.27a1.91,1.91,0,0,1-.46.07.41.41,0,0,1-.29-.13,5.74,5.74,0,0,1-.72-1.14q-6.82-18-13.61-36A8.33,8.33,0,0,1,667.46,379.58Z"/><path class="cls-1" d="M818.91,317.3v9.88c4.2.77,8.52-.07,13.06.53v3.82H819.49c-1,2.57-1.13,7.87-.48,12.76,4.35.71,8.89-.1,13.7.5.09,1.09.18,2.15.26,3.14-2.51.9-13.46,1.14-18.41.48-.83-2.26-1.15-28.57-.42-34.51,2.2-.87,12.49-1.13,18.59-.42,0,1.06.11,2.19.19,3.82Z"/><path class="cls-1" d="M497.12,384.24h-8.39c-.11-1.61-.19-2.89-.3-4.59,7.45-.61,14.65-.18,22.27-.29.1,1.5.18,2.78.3,4.52l-8.55.46c-.66,3.48-.24,7-.32,10.44s0,6.82,0,10.23V416l-4.54.29c-.1-1.42-.26-2.61-.26-3.8,0-8.07,0-16.14,0-24.21C497.29,387,497.19,385.8,497.12,384.24Z"/><path class="cls-1" d="M834.89,379.59v36.35h-4c-.8-2.5-.92-32.83-.09-36.35Z"/><path class="cls-1" d="M1081.29,379.55h4.2c.75,2.55,1,31.6.26,36.45l-4.12.24c-.63-3.2-.26-6.24-.33-9.24s0-6.12,0-9.18V379.55Z"/></svg>