<svg id="Logos_Patrocinadores" data-name="Logos Patrocinadores" xmlns="http://www.w3.org/2000/svg" viewBox="0 0 1500 600"><defs><style>.cls-1{fill:#7a97ab;}</style></defs><path class="cls-1" d="M632.73,210.94a124.62,124.62,0,0,1,26.41-2.69c12.11,0,23.67,2.15,31.92,9.15,6.61,5.92,9.36,14,9.36,23.68,0,12.37-6.61,23.67-19.81,29v.54C696,275,704.82,287.35,704.82,303a36.71,36.71,0,0,1-9.91,25.83c-7.7,8.61-20.91,12.91-40.17,12.91-9.91,0-17.06-.53-22.56-1.61V210.94Zm21,53.81h5.92c10.76,0,19.37-8.61,19.37-20.44,0-10.77-4.84-19.38-17.76-19.38-3.22,0-5.92,0-7.53.54Zm0,61.35a22.11,22.11,0,0,0,6.46.54c12.91,0,22.06-7.54,22.06-22.6,0-15.61-10.76-23.14-22.6-23.14H653.7Z"/><path class="cls-1" d="M778,280.9H745.18V324h32.29v16.14H723.65V210.94h53.82v16.15H745.18v37.66h32.29V280.9Z"/><path class="cls-1" d="M799,340.09V205.56H817.8l21.42,55.88c4.7,11.71,11,28.74,15.15,41h.52c-1-16.5-2.09-36.72-2.09-60.14V210.94H869V340.09H851.66l-22.6-56.5c-4.85-12.38-10.76-28-14.53-40.36H814c1.08,13.45,1.62,32.29,1.14,59.73v37.13Z"/><path class="cls-1" d="M896.39,210.94a95.88,95.88,0,0,1,23.68-2.69c15.06,0,26.36,3.77,33.9,10.76,10.76,9.69,17.22,26.91,17.22,53.28,0,28.52-7,46.27-17.22,56-8.61,9.15-21.53,13.45-38.75,13.45-7,0-14.53-.53-19.37-1.61V210.94ZM912,322.87a16.6,16.6,0,0,0,4.85.54c14.53,0,27.44-12.38,27.44-52.2,0-30.13-8.61-47.35-26.37-47.35a20.14,20.14,0,0,0-5.92.54Z"/><path class="cls-1" d="M1035.76,280.9h-32.29V324h37.67v16.14H982V210.94h59.19v16.15h-37.67v37.66h32.29Z"/><path class="cls-1" d="M1057.28,209.87a128.21,128.21,0,0,1,25.61-2.69c13.92,0,26.17,2.15,34,9.68,7.79,7,10.58,15.61,10.58,26.91,0,15.06-7.8,26.9-21.71,33.36v1.76c9.52,3.17,14.57,12.14,17.37,27.44,2.8,15.82,6.17,29.54,8.41,33.76h-22.42c-1.68-3.69-4.49-16.35-6.73-31.65-2.8-16.89-7.85-22.16-18.5-22.16h-5v53.81h-21.52V209.87Zm21.53,60.26h5.38c12.38,0,20.45-9.68,20.45-23.13,0-12.92-5.38-21.53-18.83-22.07-2.7,0-5.39,0-7,.54Z"/><path class="cls-1" d="M595,264.75a95,95,0,0,1-37.67,75.34H595l-18.84,21.52H500.81L595,264.75Z"/><path class="cls-1" d="M378,318.56h53.94L413.1,340.09h80.18l-18.84,21.52H387.8c-10.22-2.69-19.3-21.52-19.3-21.52V208.25a18.89,18.89,0,0,1,18.83-18.83H507.14L378,318.56Z"/><polygon class="cls-1" points="515.34 264.75 569.96 264.75 510.76 323.95 458.84 323.95 477.67 302.42 424.4 302.42 537.4 189.42 563.77 216.32 515.34 264.75 515.34 264.75"/></svg>