<svg id="Logos_Patrocinadores" data-name="Logos Patrocinadores" xmlns="http://www.w3.org/2000/svg" viewBox="0 0 1500 600"><defs><style>.cls-1{fill:#7a97ab;}</style></defs><path class="cls-1" d="M528,351.64l49.1,55.48c-22,0-40.35-1.57-58.32.38-25.61,2.77-45.55-4.05-59.85-25.88-2.88-4.4-7.3-7.79-14.5-11.32,0,8.48-.31,17,.1,25.43.37,7.65-1.83,11.63-10.47,11.48-20.72-.37-41.45-.17-62.17-.1-6,0-10.45-.76-10.43-8.56.18-53.2.1-106.41.1-158.84,1.73-1.3,2.43-2.3,3.12-2.29,49.48.66,98.95,1.17,148.42,2.36,6.95.17,14.06,3.1,20.7,5.73,18.44,7.3,33.43,18.33,36.08,39.62,3,23.85-5.6,43-25.65,56.8C539.48,345.19,534.32,347.89,528,351.64Zm-81.81-2.43c27.61-6.54,39.88-24.08,37.53-51.54-2.17-25.35-17.22-43.85-37.53-45.41Z"/><path class="cls-1" d="M852.38,235.07c10.68,0,47.88,3.78,73.19,13.18,7.69,2.86,20.75,5.86,15.81,17-5.12,11.52-14.81,2.32-21.68-1.37-16.81-9-34.48-10.49-52.38-5.68-5.74,1.55-12.79,6.52-14.62,11.58-1.4,3.86,3.17,11.9,7.36,15.34,12.46,10.23,26.23,18.87,39.14,28.59,10.39,7.82,21.08,15.5,30.19,24.66C944.13,353.2,942.65,368.55,926,382c-17.36,14-38.27,19.84-59.85,22.66a245.82,245.82,0,0,1-101.59-8.1,40.75,40.75,0,0,1-7.56-2.87c-6.61-3.46-16.63-6.41-12.61-15.82,4.54-10.64,13.13-3.83,19.28-.24C780.56,387.48,798.59,390,817,385c6.45-1.76,13.91-7.25,16.48-13,1.6-3.56-3.82-12.41-8.38-16.1-14.65-11.83-30.57-22.1-45.58-33.52-9.62-7.32-19.27-14.9-27.53-23.64-14.92-15.79-12.69-36.45,7.46-45.49,18.43-8.26,39.31-11.5,59.39-15.66C827.51,235.82,841.71,235.07,852.38,235.07Z"/><path class="cls-1" d="M1196.7,237.38l153,68.57V237.62h30.21V406.36l-154.85-75v74.43H1196.7Z"/><path class="cls-1" d="M1184.83,407.1c-24.14,0-46.18-1.59-67.88.45-22.11,2.07-37.36-4.06-45.62-25.07-4-10.14-11.82-13.86-22.5-12.4a20.38,20.38,0,0,1-6.75-.14c-27.95-5.86-48.27,2.23-60.42,29.55-6.09,13.71-19.58,5.9-32.62,7.44,3.33-5.68,5.38-9.44,7.68-13,17.93-28,35.66-56,54-83.72,5-7.6,6-13.51.88-21.68-10-15.9-18.61-32.6-29.4-51.8,14.5,0,26.75-.13,39,0,19.77.27,43-5.46,58.34,2.91,14.83,8.08,21.7,30.74,31.85,47.12q32.63,52.64,65,105.41C1178.92,396.23,1181.12,400.49,1184.83,407.1ZM1057.21,358l-26.32-37.76-26,37.76Z"/><path class="cls-1" d="M332.34,383.1c-4.54,3.12-8.67,7.37-13.69,9.17-45.8,16.44-92,21.15-138.47,2.52-20.13-8.08-37.05-20.5-47.17-40.27-17.87-34.94-5.2-76.18,30.46-97.79,38.53-23.34,80.36-23.78,123-15.55,11,2.12,21.76,5.69,32.26,9.58,5,1.86,9.13,6,13.65,9.15l-1.14,4.34c-5.2,0-10.43.36-15.6-.07-14.23-1.2-28.84-5.55-42.56-3.57-36.59,5.29-60.37,37.94-54.25,70.91,6.25,33.72,40.15,56.74,75.64,51.29,12-1.84,23.94-3.9,35.91-5.86Z"/><path class="cls-1" d="M624.54,311.73h41.05c0,28.6.3,56.2-.43,83.78-.08,3.11-6,6.07-9.22,9.1-2.72-3.53-7.59-6.95-7.8-10.63-1-18.29-.81-36.65-1.12-55-.08-4.28-.53-8.56-.8-12.84l-3.44,0q0,16.72,0,33.44c0,11.18.8,22.44-.33,33.5-.42,4.09-5.37,7.72-8.25,11.56-3.22-3.51-9.13-6.94-9.24-10.54C624.18,367.33,624.54,340.54,624.54,311.73Z"/><path class="cls-1" d="M618.89,235.14c0,27.42.19,50-.27,72.65,0,2.35-3.88,4.62-6,6.93-1.66-2.27-4.72-4.52-4.76-6.82-.32-19.17-.63-38.39.41-57.51C608.54,246,614,241.92,618.89,235.14Z"/><path class="cls-1" d="M672.93,237.32c2.94,5.49,8,10.84,8.4,16.5,1.12,17.34.7,34.8.17,52.2-.09,2.91-3.67,5.72-5.63,8.57-1.77-3.08-5-6.14-5.07-9.26-.45-21.74-.24-43.49-.24-65.24Z"/><path class="cls-1" d="M666.53,209.27H627.17c2.25-15.18,3.38-16.55,10.54-14.46L646,184c1.5,3.72,3,7.43,4.38,10.82C663.61,189.09,659.76,202.66,666.53,209.27Z"/><path class="cls-1" d="M650.5,239.08l-8,60.95,3.72,0c-2.35-20-4.7-40.05-7.16-61Z"/><path class="cls-1" d="M631.18,215.64h27.19l2,3.77c-4.8,3.1-9.59,8.63-14.41,8.65-5.61,0-11.25-4.76-16.87-7.46Z"/></svg>