<svg id="Logos_Patrocinadores" data-name="Logos Patrocinadores" xmlns="http://www.w3.org/2000/svg" viewBox="0 0 1500 600"><defs><style>.cls-1{fill:#7a97ab;}</style></defs><path class="cls-1" d="M1036,338.27c-.38,2.32-.81,4.64-1.14,7-3.51,24.41-20.57,43.85-44.31,49.79-15.13,3.79-29.72,1.74-43.51-5.66l-3.3-1.71c0,2,0,3.41,0,4.8s-.56,1.93-2,1.93q-17.52-.06-35,0c-1.56,0-2.22-.54-2.05-2.08a11,11,0,0,0,0-1.28q0-66.52-.05-133.06a6.57,6.57,0,0,1,2.13-5.14q17.26-17.12,34.39-34.36c.66-.66,1.34-1.29,2.52-2.41v67c1.38-.63,2.21-.94,3-1.38a57.81,57.81,0,0,1,29.07-7.65c29.39-.19,51.68,19.7,58,45.59.84,3.45,1.08,7,1.64,10.57a23.22,23.22,0,0,0,.65,2.41Zm-32.54-3.39A33.63,33.63,0,1,0,970,368.36,33.4,33.4,0,0,0,1003.46,334.88Z"/><path class="cls-1" d="M641.58,310.67c0-1.8,0-3.3,0-4.81A74.78,74.78,0,0,0,638,281.23c-5.35-15.71-16.21-25.05-32.66-27.6a89.41,89.41,0,0,0-12.45-1c-9.3-.14-18.6-.05-27.89,0-3.11,0-3.13,0-3.13,3.08q0,47.08.06,94.18c0,2.37-.75,3.45-2.9,4.29-11.35,4.41-22.64,9-34,13.47-.77.3-1.58.5-2.69.85V220.38c0-3.2,0-3.21,3.2-3.21,21,0,42-.21,63,.09a134.82,134.82,0,0,1,39.22,6q39.32,12.53,48.73,52.63c.53,2.23.89,4.51,1.42,6.74a3.6,3.6,0,0,1-1.5,4.21c-5.39,3.88-10.67,7.94-16.13,11.73s-11.09,7.33-16.66,11C643,309.87,642.45,310.17,641.58,310.67Z"/><path class="cls-1" d="M846.07,282.89c.14-.81.22-1.06.23-1.31.2-4.72.19-4.72,4.84-4.72h31.21c3,0,3,0,3,3V391.38c0,3,0,3-2.91,3H848.91c-2.56,0-2.56,0-2.59-2.54,0-1.17,0-2.33,0-3.87a19.93,19.93,0,0,0-2.23.89,59.23,59.23,0,0,1-26.19,7.71c-18.64,1.22-34.31-5.07-47-18.55a58.81,58.81,0,0,1-15.76-34.47c-1.93-16.86,1.59-32.38,11.84-46.06a56.36,56.36,0,0,1,38.77-22.87,59.58,59.58,0,0,1,38.17,7.29C844.53,282.26,845.22,282.5,846.07,282.89ZM820.4,301.54A33.41,33.41,0,1,0,854,335.72,33.36,33.36,0,0,0,820.4,301.54Z"/><path class="cls-1" d="M738.92,274.61V391.23c0,3.13,0,3.14-3,3.14H702.65c-2.71,0-2.74,0-2.74-2.65q0-41.58,0-83.14a3.74,3.74,0,0,1,1.32-3.35q18.19-14.72,36.29-29.54C737.83,275.43,738.17,275.18,738.92,274.61Z"/><path class="cls-1" d="M678.75,322c-.57,3.32-1,6.67-1.75,10-2.57,12.24-7.15,23.61-14.88,33.56-10.24,13.18-23.87,21.08-39.84,25.22a113.61,113.61,0,0,1-28.54,3.58q-34.15,0-68.37-.12a601.89,601.89,0,0,0,152.68-72.58Z"/><path class="cls-1" d="M700,270.26V233.19H737Z"/></svg>