<svg id="Logos_Patrocinadores" data-name="Logos Patrocinadores" xmlns="http://www.w3.org/2000/svg" viewBox="0 0 1500 600"><defs><style>.cls-1{fill:#7a97ab;}</style></defs><path class="cls-1" d="M527.81,108.43v11.93c0,80.37-.13,160.74.19,241.1,0,8.85-2.34,12.39-11.43,14.51-72.48,16.93-144.79,34.52-217.15,51.92-13.76,3.3-13.84,3.35-16.88-9.62-10.24-43.66-22.14-87-30.12-131.09-7.91-43.66,7.78-81.35,38.31-113.15,5.53-5.77,11.12-11.53,16.12-17.74,24.27-30.13,55-48,94.43-48.45,40.21-.46,80.44-.26,120.66-.31A50.22,50.22,0,0,1,527.81,108.43ZM504.37,347.66V195.6c0-25.33,0-24.89-26-25.4C469,170,466.19,172.91,466.74,182c.72,11.94.17,23.94.17,36.48-6.17,0-10.33,0-14.5,0-9.43.11-19-.71-28.26.57-37.44,5.16-59,38.2-51.59,77.93,5.42,28.85,22.93,48,50.88,50.22C449.75,349.31,476.37,347.66,504.37,347.66Z"/><path class="cls-1" d="M1055.54,350c-43-.64-67.83-25.95-67-68.22.79-39.95,28.65-65.73,70-64.85,42.78.92,68.12,27.2,67.19,69.69C1124.93,325.86,1097.49,350.62,1055.54,350ZM1089,283.21l-.45,0c0-2.08.1-4.17,0-6.24-1.2-20.38-11.31-31.42-29.62-32.41-18.68-1-30.86,9.52-33.13,30a80,80,0,0,0,1.18,23.76c3.13,16.07,14.24,24.49,30.44,24.45,16,0,26.85-8.84,30.17-25C1088.55,293,1088.55,288.05,1089,283.21Z"/><path class="cls-1" d="M736.31,220v26.52c-5.72,0-11.14-.05-16.56,0-18.16.17-36.32.33-54.48.59-6.88.1-11.55,3.09-11.53,10.53,0,6.9,3.86,11,10.68,12a104.58,104.58,0,0,0,12.52.81c9.08.17,18.19-.22,27.25.34,14.6.91,28.09,5.22,34.54,19.56,6.75,15,4.38,29.83-4.83,43.54-6.95,10.35-17.51,13.56-29,13.68-28.29.32-56.59.11-85.78.11V320.66c11,0,22.06.1,33.09,0q21.48-.24,43-.8c6.55-.16,12.17-2.38,12.21-9.92,0-7.7-4.27-12.23-12.38-12.47-13.61-.4-27.26-.22-40.82-1.29C627.35,294,614,276.86,617.34,249.94c2.1-16.68,11.9-28.76,28.61-29.52C675.81,219.05,705.78,220,736.31,220Z"/><path class="cls-1" d="M1152,219.62c28.36,0,56.28-1,84.09.34,19.21.92,33,13.34,34,32.29,1.74,31.43.47,63,.47,95.12h-34.2V279.29c0-31.42-1.35-32.75-33.21-32.74H1187V347.41H1152Z"/><path class="cls-1" d="M777.78,247.14,756.17,246V219.51l21.39-.94V171.79H813V219h32.93v27.36H814.62c0,21.36-.21,41.07.11,60.78.12,7.26,5,11.34,12,12.36,6.16.89,12.4,1.24,19.19,1.89v27.05c-13.29-.6-26.25-.12-38.83-2-16.37-2.49-25.71-12-27.41-28.42-1.77-17.23-1.4-34.68-1.87-52C777.64,260.07,777.78,254.19,777.78,247.14Z"/><path class="cls-1" d="M907.38,347.36H871.71V221c25.46,0,50.24-1.28,74.8.45,16.5,1.17,24.11,11.1,26.22,27.77,1.12,8.83,1.26,17.78,1.88,27.39H942.67c-3.68-9.28-5.17-19.77-11.16-26-4.46-4.61-14.73-3.64-24.13-5.49Z"/><path class="cls-1" d="M553.89,219.61h34.53V347.39H553.89Z"/><path class="cls-1" d="M588.47,173.21v36.26H554.36C548.78,178.82,559.4,167.41,588.47,173.21Z"/><path class="cls-1" d="M466.17,247.64v72.22c-18.84-.53-39,5.07-51-14.22-8.83-14.11-9.3-30.32-.19-44.61C427.37,241.58,447.48,248.43,466.17,247.64Z"/></svg>