<svg id="Logos_Patrocinadores" data-name="Logos Patrocinadores" xmlns="http://www.w3.org/2000/svg" viewBox="0 0 1500 600"><defs><style>.cls-1{fill:#7a97ab;}</style></defs><path class="cls-1" d="M484.57,192.58c-60.44-.43-107.92,48.54-108.29,106.71s46.21,108.13,107.45,108.13c59.5,0,107-47.71,107.46-107.3A107.53,107.53,0,0,0,484.57,192.58Zm7.35,158.8c-2.52,3.67-5.06,7.34-7.81,10.83-1.09,1.37-2.92,1.11-4.14-.43-2.42-3-4.79-6.09-7-9.28-1.6-2.35-1.39-3.28.85-5.06,2.63-2.08,5.38-4,8.32-6.19,3.12,2.38,6.13,4.62,9.08,6.93A2.28,2.28,0,0,1,491.92,351.38ZM480.66,339V330.5l3,.36v7.93Zm81.4,16.31c-8.46,0-16.92-.06-25.38.05a7.09,7.09,0,0,1-5.5-2.22A99.69,99.69,0,0,0,501.81,333c-14.58-6.42-28.81-5.42-42.87,1.62a102.68,102.68,0,0,0-26.26,19,5.41,5.41,0,0,1-4.17,1.77c-8.86-.07-17.72,0-26.57,0-.46,0-.93-.1-2.14-.24,27.63-29.92,54.87-59.39,82.43-89.23L564.31,355A16.47,16.47,0,0,1,562.06,355.32Zm6.16-1.85L482.16,245.82,396,352.75c.21-2.14,82.79-137.93,86.42-142.28L568.9,353Z"/><path class="cls-1" d="M1115.78,346.12q0,15.54,0,31.09c0,.2,0,.41,0,.62a2.67,2.67,0,0,1-.58,2.25l-.15-.22a9.26,9.26,0,0,1-.88-1.37q-2-4.32-4-8.65c-.8-1.72-1.59-3.43-2.39-5.13l-1.76-3.78q-6.13-13.11-12.3-26.21c-.33-.69-1.21-2-2.22-2.08-1.85-.12-3.74-.08-5.56,0l-2.05,0h-.58V389h6.29V372.51c0-1.59,0-3.19,0-4.78,0-3.62,0-7.36,0-11,0-1.31,0-2.62,0-3.94a57.87,57.87,0,0,1,.54-10.64,5.36,5.36,0,0,1,1.12,1.54q7.7,16.37,15.33,32.73l3.15,6.73c2.37,5.07,3,6.29,6.58,6.29,1,0,2.33-.1,4-.25a2.1,2.1,0,0,0,.58-.14l.59-.19.42-.13V332.78h-6.11Z"/><path class="cls-1" d="M714.43,318.38h8.77V265.09h-5.83v20.12c0,3.46,0,6.92,0,10.38,0,1.1,0,2.21,0,3.31a68.11,68.11,0,0,1-.48,10.44,5.61,5.61,0,0,1-1.33-1.77c-2.42-5.11-4.8-10.23-7.19-15.36l-12.67-27.16h-8.83v53.28h5.95V305.59q0-14.62,0-29.24a14.62,14.62,0,0,1,.21-2.13l.06-.44h.08q9.62,20.08,19.17,40.22Z"/><path class="cls-1" d="M864.56,318.45a27.75,27.75,0,0,0,3,.14l1.89,0,1.89,0H872V265.11h-5.76v27.56c0,.93,0,1.85,0,2.77,0,2,0,4.12,0,6.17,0,.92,0,1.85,0,2.75a20.16,20.16,0,0,1-.27,5.35h0c-7.19-14.71-14.3-29.45-21.44-44.23l-.16-.34h-8.68v53.24h6V290.82c0-1,0-1.94,0-2.9,0-2,0-4,0-6.05q0-.87,0-1.74a28.64,28.64,0,0,1,.41-6,4.46,4.46,0,0,1,1,1.39q4.28,9,8.49,18.12l3.48,7.47c2.32,5,4.72,10.14,7.14,15.18C862.53,317.05,863.51,318.34,864.56,318.45Z"/><path class="cls-1" d="M725.28,333.12a54.27,54.27,0,0,0-12.18-.63c-2,0-4.14.08-6.24,0l-.61,0V389h.59c2,0,4,.05,6,.1s4,.1,5.9.1a72.23,72.23,0,0,0,7.36-.33c7.5-.76,13.78-7.86,14-15.83.24-8.86.24-16.08,0-22.7C739.85,342.41,733.19,334.7,725.28,333.12Zm8.53,38.58a10.94,10.94,0,0,1-10.08,11,76.91,76.91,0,0,1-7.92.11c-1.06,0-2.13,0-3.22,0,0-.2,0-.4-.05-.58-.06-.66-.11-1.22-.11-1.78q0-19.41,0-38.82a5.08,5.08,0,0,1,.28-2.43c.24-.24,1.09-.25,2.25-.24h1.33a42.84,42.84,0,0,1,6.9.4A12.74,12.74,0,0,1,733.81,352C733.88,359.05,733.88,365.49,733.81,371.7Z"/><path class="cls-1" d="M1063.7,352a35.84,35.84,0,0,0-.45-5.43,17.83,17.83,0,0,0-17.88-14.78h0c-9.14,0-16.63,6.2-17.81,14.75a88,88,0,0,0-.6,10.09c0,1.51-.06,3-.12,4.53l0,.59h.25c0,1,0,2,0,3,0,2.56,0,5.21,0,7.82a18.52,18.52,0,0,0,7.38,14.35,18.12,18.12,0,0,0,10.81,3.49,20,20,0,0,0,5.22-.7c7.74-2.09,13-9.2,13.19-17.69.11-6.37.07-12.85,0-19.11Zm-6.4,12.41c0,2.44,0,5,0,7.44a12.22,12.22,0,0,1-5.86,10.49,12,12,0,0,1-11.67.18,11.25,11.25,0,0,1-6.25-10.42c-.12-6.6-.21-14.41,0-22.33a11.6,11.6,0,0,1,11.89-11.59h0c6.59,0,11.57,4.9,11.84,11.65.11,2.58.08,5.22,0,7.78,0,1.17,0,2.35,0,3.53h0C1057.28,362.22,1057.29,363.31,1057.3,364.4Z"/><path class="cls-1" d="M989.85,289.8c4.62-4.21,5.93-9.6,3.78-15.58a13.12,13.12,0,0,0-12.23-9.16c-4.48-.25-8.9-.2-13.57-.14-2,0-4.07.05-6.14.05h-.58v53.36h6V293.6c1.34,0,2.65,0,4-.08a64.09,64.09,0,0,1,9.65.21c3.55.44,6,2.94,6.86,6.84a28.83,28.83,0,0,1,.41,5.27v.24c0,2.67,0,5.29,0,8.06,0,1.19,0,2.39,0,3.61v.58h6v-.58c0-1.56,0-3.1,0-4.62,0-3.41,0-6.63,0-9.91a14.82,14.82,0,0,0-4.55-11.46,3.7,3.7,0,0,1-.57-.8.64.64,0,0,0-.08-.14l.09-.1C989.24,290.41,989.53,290.09,989.85,289.8Zm-8.68-2.65c-2.8.22-5.68.19-8.46.16l-3,0h-.14c-.54,0-1.12-.07-1.78-.15l-.61-.07V271.52l.15,0a5,5,0,0,1,1.27-.26l1.8,0c3.32,0,6.74-.09,10.11,0a8.08,8.08,0,0,1,8,7.72A7.93,7.93,0,0,1,981.17,287.15Z"/><path class="cls-1" d="M914.18,332.63,896.93,389h6.5l.14-.38c.1-.27.19-.52.29-.76.18-.47.35-.91.49-1.35l1.11-3.56c1.07-3.41,2.18-6.93,3.18-10.42.43-1.55,1.11-2,2.84-2,5.29.12,10,.12,14.36,0,1.71-.07,2.5.51,3,2.24.74,2.66,1.56,5.33,2.35,7.92.48,1.55,1,3.1,1.43,4.73,1,3.26,1.28,3.84,3.84,3.84.4,0,.86,0,1.39,0a6.19,6.19,0,0,0,1.26-.23l.65-.17.62-.13-17.17-56.07Zm11.83,31c-3,.76-11.39.81-14.69.08l.38-1.27c2.21-7.3,4.3-14.22,6.92-21.15a28.92,28.92,0,0,1,2.89,7.5c.31,1.08.62,2.2,1,3.28.94,2.78,1.78,5.65,2.59,8.43C925.39,361.55,925.7,362.59,926,363.63Z"/><path class="cls-1" d="M667.44,362.05h20v-6.24l-.56,0c-3.12-.14-6.25-.11-9.28-.1-3.38,0-6.86.05-10.35-.14v-4.11c0-3.56,0-7,0-10.38,0-2.12,0-2.12,2.17-2.13,3,0,6,0,9.07,0h7.64c.82,0,1.64-.05,2.5-.1l1.65-.08,0-.52c0-.33,0-.64.08-.92.05-.63.1-1.18.09-1.72a11.51,11.51,0,0,0-.12-1.47c0-.19,0-.38-.06-.56l0-.41-.4-.1c-3.13-.82-26.31-.71-28.5.14l-.38.14V389h29.9v-6.16H667.44Z"/><path class="cls-1" d="M775.14,297.88c0-2.26,0-4.51,0-6.77a16.45,16.45,0,0,0-.14-1.87c0-.27-.07-.55-.09-.82l0-.53H760.18v6H769v3.39c0,3.94,0,7.67-.06,11.39a2.51,2.51,0,0,1-.83,1.58,12.66,12.66,0,0,1-13.1,2.44c-4.41-1.55-6.92-5.1-7-10-.23-8.1-.23-15.22,0-21.75a10.82,10.82,0,0,1,13.61-10.24,26.7,26.7,0,0,1,5.48,2.28c.89.45,1.81.91,2.77,1.34l.33.11.27-.18a7.53,7.53,0,0,0,.85-.68c.44-.44.85-.89,1.3-1.39l1-1.06-.31-.39c-4.09-5.22-11-7.54-18-6.06A16.71,16.71,0,0,0,742,280.45c-.1,5-.07,10.09-.05,15,0,2.66,0,5.32,0,8a15,15,0,0,0,2.36,7.92,17.23,17.23,0,0,0,12.74,8.14,18.82,18.82,0,0,0,2.36.15,19.54,19.54,0,0,0,13.72-5.72,6.27,6.27,0,0,0,2-4.91C775.13,305.3,775.13,301.59,775.14,297.88Z"/><path class="cls-1" d="M1048.79,265.09,1032.5,318.4h6.18l.45-1.27c.26-.71.51-1.43.74-2.16l.47-1.52c1.1-3.52,2.23-7.16,3.29-10.75.37-1.27,1-1.73,2.16-1.7,5.31.07,10.62.05,14.64,0,1.23,0,1.72.37,2,1.46.34,1.38.78,2.75,1.21,4.08.14.46.29.92.43,1.38.84,2.67,1.67,5.34,2.5,7.95l.78,2.51h6.32l-16.31-53.31Zm4.43,7.6c2.13,6.42,4.56,14,6.7,21.91h-13.85l5.69-18.42,1.08-3.51Z"/><path class="cls-1" d="M924.78,292.86h18.73V286.8H924.66c-.1-5.36-.07-10.39,0-15.67h21.52v-6H918.51v53.16h28.17v-5.87h-21.9Z"/><path class="cls-1" d="M799.33,292.79H818v-6H799.42c-.59-3.68-.45-12.88.24-15.63h21v-5.94H793.17V318.4h28.06v-5.92h-21.9Z"/><path class="cls-1" d="M885.07,379.58c-.66.37-1.29.78-1.92,1.18a21.25,21.25,0,0,1-3.94,2.16c-4.47,1.66-8.74,1.25-12.06-1.18a11.8,11.8,0,0,1-4.84-10c.21-4.51.16-9.09.11-13.52,0-2.56-.06-5.13,0-7.69a14.66,14.66,0,0,1,.61-4.5,11.51,11.51,0,0,1,7-7.23,13.13,13.13,0,0,1,11.3,1.33c.83.5,1.62,1.09,2.47,1.71.41.31.84.62,1.3.95l.42.29,3.69-3.94-.15-.35c-.1-.22-.16-.39-.21-.52a1.73,1.73,0,0,0-.33-.6c-5.47-5.65-12.31-7.33-20.34-5A17.18,17.18,0,0,0,856,348.58v.79c-.09,8-.19,16.2,0,24.3a17.3,17.3,0,0,0,12.55,15.91,19.7,19.7,0,0,0,5.61.79c5.45,0,11.42-2.06,14.91-6.81l.31-.42-4-3.78Z"/><path class="cls-1" d="M788.3,389h6.34V362.07h19.47v-6.49H794.74c0-.17,0-.34-.06-.49a12.55,12.55,0,0,1-.14-1.59c0-4.79,0-8.68,0-12.24,0-2.3,0-2.3,2.3-2.32,3,0,6,0,9.06,0h6.46c.8,0,1.6-.05,2.4-.11l1.12-.06.55,0v-5.93H788.3Z"/><path class="cls-1" d="M959.58,350.72c0-5.18,2.07-8.92,6.16-11.12,4.25-2.29,8.72-2,13.31.79.77.47,1.51,1,2.3,1.57l1.23.87.43.3,3.89-4.44-.36-.39c-5-5.42-11.41-7.49-18.95-6.14a17.23,17.23,0,0,0-14.17,16.18c-.22,6.39-.15,12.9-.09,19.19q0,3.25.06,6.5a12,12,0,0,0,.52,3.08,17.74,17.74,0,0,0,9.42,11.43,18.56,18.56,0,0,0,8.15,1.84,22.29,22.29,0,0,0,8.67-1.83,13.72,13.72,0,0,0,6.38-5l.26-.4-4-4.13-1.25.92-1.28,1a14.19,14.19,0,0,1-10.53,2.85c-5.69-.61-9.92-5.61-10.08-11.89-.12-4.92-.09-9.94-.07-14.79Q959.58,353.92,959.58,350.72Z"/><rect class="cls-1" x="760.73" y="332.78" width="5.94" height="56.28"/><rect class="cls-1" x="1001.39" y="332.78" width="6.08" height="56.29"/><rect class="cls-1" x="830.04" y="332.79" width="6.09" height="56.2"/><path class="cls-1" d="M1018.15,265.11h-5.26v53.26h5.49l.09-.47c.75-3.67.58-50.19-.18-52.39Z"/><path class="cls-1" d="M662.11,318.49c.45,0,.85.07,1.25.07h.27c.56,0,1.09-.1,1.61-.17l.63-.08.52-.07V265.06h-5.67V318.4l.55,0Z"/><path class="cls-1" d="M898.12,265.12l-.55,0-.81-.06c-.56,0-1-.08-1.53-.07a13.71,13.71,0,0,0-1.48.13l-.79.09-.52.05v53.2h5.68Z"/><path class="cls-1" d="M888.9,218.31l-.19-.23-.19-.27-1.68.12-.05.48c0,.32-.08.63-.13,1a14.93,14.93,0,0,0-.2,2.14c0,2.62,0,5.23,0,7.85,0,2.86,0,5.71,0,8.57a15.88,15.88,0,0,1-.22,2.22c0,.16-.05.31-.07.47-.06-.12-.13-.23-.2-.35-.34-.6-.69-1.22-1-1.84-1.87-4-3.72-7.93-5.58-11.9l-2.77-5.92c-1.46-3.12-1.91-3.32-5.44-2.27l-.42.12v26.67l.42.13a3.93,3.93,0,0,0,1,.17,1.53,1.53,0,0,0,1-.29,2.33,2.33,0,0,0,.62-2V236c0-3.68,0-7.37,0-11a19.28,19.28,0,0,1,.15-2l.06-.54h.07l10.8,22.88h4.55v-4.27c0-7.33,0-14.55,0-21.78A1.52,1.52,0,0,0,888.9,218.31Z"/><path class="cls-1" d="M1045.52,245.56l.65-.07.79-.08c.59,0,1-.09,1.09-.61.32-3.62.6-7.23.91-11.13l.09-1.23h1.36c1.38,0,2.69,0,4,0,3.09.19,4.83,2,4.92,5.23,0,1.35,0,2.71,0,4.06v1.59a2.11,2.11,0,0,0,.71,1.83,2.18,2.18,0,0,0,2.11-.1l.39-.16,0-.42a29.88,29.88,0,0,1,0-3.54c.14-3.33.29-6.76-2.57-9.8l.33-.36c.42-.48.79-.89,1.12-1.33a7.62,7.62,0,0,0,.78-7.32,6.4,6.4,0,0,0-4.91-4,38.91,38.91,0,0,0-7.66-.21c-1.16,0-2.35.08-3.54.08h-.59v.59c0,9.57,0,18.2,0,26.36Zm3.4-16.48v-7.93l2.07,0a44.05,44.05,0,0,1,5.66.11c1.86.2,3,2.24,2.94,4a3.75,3.75,0,0,1-3.17,3.8c-1.79.15-3.59.11-5.5.08Z"/><path class="cls-1" d="M1105.2,244.88a4.86,4.86,0,0,0,1.24.45l.68.2.76.24v-3.35c0-1.79,0-3.48,0-5.17,0-.74,0-1.38,0-1.94,0-1.39,0-2.31.25-2.59s1.45-.31,3.31-.29h1.3c4.06,0,5.79,1.69,6,5.79,0,.8,0,1.59,0,2.38,0,1,0,2,.07,3a2.41,2.41,0,0,0,.65,1.3,3.27,3.27,0,0,1,.29.39l.25.39,1.72-.59,0-.44a31.45,31.45,0,0,1,.07-3.5c.18-3.42.37-6.95-2.47-10l.38-.46a15,15,0,0,0,1.18-1.49,7.53,7.53,0,0,0,.55-7.22,6.6,6.6,0,0,0-5.17-3.95,46,46,0,0,0-7.45-.17c-1.15,0-2.31.08-3.49.08h-.59v25.61C1104.73,244,1104.73,244.63,1105.2,244.88Zm2.93-15.74v-8c.7,0,1.4,0,2.09,0a39.19,39.19,0,0,1,5.66.12c1.94.23,3.19,2.42,3,4.23a4,4,0,0,1-3.78,3.64c-1.68.08-3.36.06-5.13,0Z"/><path class="cls-1" d="M927.28,245.49c.15-.18.33-.36.5-.53a4.5,4.5,0,0,0,1.15-1.51c.58-1.53,1-3.13,1.47-4.68l.22-.78c.33-1.17.85-1.58,2-1.55,1.88.07,3.95.07,6.31,0a1.55,1.55,0,0,1,1.79,1.32c.39,1.43.81,2.86,1.23,4.28l.43,1.46a2.63,2.63,0,0,0,1.28,1.8,2.44,2.44,0,0,0,2.11-.22l.46-.22L938,217.94H933.4l-8.19,26.95,1.76,1Zm8.29-23.43A46.07,46.07,0,0,1,938.3,230c.26.94.53,1.88.82,2.83a10.45,10.45,0,0,1-4.39.42c-.48,0-1,0-1.45,0q-.43,0-.87,0l-.26-.27,3.38-10.88Z"/><path class="cls-1" d="M1088.67,246a8.83,8.83,0,0,0,9-8.28c.19-4,.19-8.08,0-12a8.56,8.56,0,0,0-8.9-8.17,8.43,8.43,0,0,0-8.82,8.18c-.09,1.39-.06,2.79,0,4.15,0,.62,0,1.23,0,1.85s0,1.22,0,1.83c0,1.36,0,2.77,0,4.17a8.61,8.61,0,0,0,8.53,8.23Zm5.86-12.31c0,1.1,0,2.24,0,3.35a5.83,5.83,0,0,1-5.34,5.8,5.68,5.68,0,0,1-6.06-5.32,92.48,92.48,0,0,1,0-11.54,5.66,5.66,0,0,1,5.63-5.37h.11a5.73,5.73,0,0,1,5.67,5.76c.06,1.28,0,2.59,0,3.86,0,.59,0,1.18,0,1.77S1094.52,233.08,1094.53,233.64Z"/><path class="cls-1" d="M792.8,236.43a1.83,1.83,0,0,1,2.16,1.64c.38,1.47.84,2.94,1.29,4.37l.34,1.08a2.58,2.58,0,0,0,1.31,1.82,2.37,2.37,0,0,0,2-.36l.4-.23-8.24-26.81h-4.51l-8.21,27,1.74.72.25-.17c1.81-1.21,2.27-3.12,2.71-5a8.35,8.35,0,0,1,1.73-4h1.77C789.28,236.48,791,236.5,792.8,236.43Zm-3-14.39a47.83,47.83,0,0,1,2.74,8.07c.25.92.51,1.86.79,2.81h-6.87l3.25-10.87Z"/><path class="cls-1" d="M760.16,244.86a2.15,2.15,0,0,0-.15-1.94,2.39,2.39,0,0,0-2-.64h-8.75v-9.84l.55,0c.7-.06,1.33-.1,2-.12h5.06a1.75,1.75,0,0,0,1.8-2.66l-.13-.38-1.22-.06c-.65,0-1.33-.06-2-.07s-1.07,0-1.6,0a21.12,21.12,0,0,1-3.1-.09,2.83,2.83,0,0,1-1.41-.74c-.14-1.83-.12-3.69-.1-5.67,0-.53,0-1.07,0-1.62h9.13a2.1,2.1,0,0,0,1.76-.66,2,2,0,0,0,0-1.9l-.14-.39H746v27.27H760Z"/><path class="cls-1" d="M845.92,242.76l-.51-.13a21.38,21.38,0,0,0-5.81-.37,24.8,24.8,0,0,1-5.09-.21,59.07,59.07,0,0,1,0-9.78h4.9c3.69,0,4.07,0,4.77-2.47l.22-.74h-9.8V221h10.61l.72-1.43-.29-.3a5.44,5.44,0,0,1-.36-.43c-.37-.48-.75-1-1.33-1-3.05-.07-6.05-.07-9.22-.06h-3.4v27.46h14.2Z"/><path class="cls-1" d="M1041,244.39c-.28-.33-.49-.62-.68-.87a2.68,2.68,0,0,0-1.22-1.12,5.43,5.43,0,0,0-1.88-.15l-.66,0-7.1-.05v-10h7a2.49,2.49,0,0,0,2.12-.66,2.37,2.37,0,0,0,.18-2.09l-.11-.44h-2.54c-1.58,0-3.16,0-4.73,0-2.17,0-2.17,0-2.23-2.11,0-1.31,0-2.6,0-3.85.07-2.08.07-2.08,2.22-2.11,1.92,0,3.84,0,5.76,0H1040l.7-1.52-.32-.28-.37-.4c-.37-.42-.78-.9-1.35-.91-3-.07-5.92-.07-9-.06h-3.43v27.55h15.62Z"/><path class="cls-1" d="M730.46,246h0c4.91,0,8.26-3.44,8.33-8.56.06-4.41,0-8.89,0-13.23V220.4a9,9,0,0,0-.12-1.28c0-.18-.06-.37-.08-.56l0-.42-.42-.09a2.3,2.3,0,0,0-2,.28,2.44,2.44,0,0,0-.57,2c0,.13,0,.25,0,.37q0,3.19,0,6.39c0,3.44,0,6.89,0,10.32,0,3-2.09,5.29-4.88,5.33a4.76,4.76,0,0,1-3.46-1.35,5.62,5.62,0,0,1-1.61-4.06c0-3.73,0-7.46,0-11.19v-7.85l-.4-.14a2.34,2.34,0,0,0-2.19,0c-.66.47-.66,1.33-.66,2.17v4.18c0,4.21,0,8.56,0,12.85C722.45,242.37,725.84,246,730.46,246Z"/><path class="cls-1" d="M687.64,246a14.65,14.65,0,0,0,3.22-.36,8.05,8.05,0,0,0,6.16-7.7c.13-3.83-1.79-6.48-5.57-7.68-.89-.28-1.79-.51-2.7-.75-1.19-.31-2.42-.63-3.57-1.05a4,4,0,0,1-2.74-3.15,3.75,3.75,0,0,1,1.72-3.6,6.56,6.56,0,0,1,3.8-1,11,11,0,0,1,2.8.63,16.21,16.21,0,0,0,2,.55,4.08,4.08,0,0,0,1.67-.11l.62-.11.57-.07-.16-1.67-.21-.15a13.27,13.27,0,0,0-8.56-2.21c-4,.11-7,2.68-7.3,6.4-.37,4,1.58,6.72,5.65,7.8.63.17,1.27.33,1.91.48,1.17.29,2.38.59,3.54,1a4.7,4.7,0,0,1,3.17,3.09,5.26,5.26,0,0,1-5.3,6.51,52,52,0,0,1-6.61-1.55l-.22-.06a2.35,2.35,0,0,0-2.07,0,2.21,2.21,0,0,0-.66,1.77v.36l.31.17A17.22,17.22,0,0,0,687.64,246Z"/><path class="cls-1" d="M967.9,245.94h.53a8.31,8.31,0,0,0,8-7.38c.49-4.26-1.55-7.12-6.07-8.5-.84-.26-1.68-.48-2.53-.71-1.05-.28-2.14-.57-3.19-.92a3.31,3.31,0,0,1-2.56-3.7,4.07,4.07,0,0,1,1.37-3.14,4.86,4.86,0,0,1,3.88-1,32.81,32.81,0,0,1,4.26,1c.65.18,1.31.36,2,.52l.36.09.24-.29a2,2,0,0,0,.52-1.85,2.2,2.2,0,0,0-1.7-1.27l-.47-.12a29.45,29.45,0,0,0-6.32-1.09H966a6.82,6.82,0,0,0-7.08,6.31c-.43,4.07,1.4,6.63,5.58,7.81.67.19,1.33.36,2,.53,1.23.31,2.5.64,3.7,1.06a4.61,4.61,0,0,1,2.93,2.81,4.77,4.77,0,0,1-.59,4.1,4.84,4.84,0,0,1-4.67,2.55,45.41,45.41,0,0,1-6.56-1.5l-.47-.14a2.23,2.23,0,0,0-1.89,0,2.19,2.19,0,0,0-.83,1.67l-.06.37.31.2A16.53,16.53,0,0,0,967.9,245.94Z"/><path class="cls-1" d="M662.73,245.37H676l.14-.39a2.14,2.14,0,0,0,0-2,2.46,2.46,0,0,0-2.12-.69h-8.84v-10h4.21c.76,0,1.55,0,2.34,0h.5c.88,0,2.54.07,2.63-2.41l0-.57-1.54-.09c-.69,0-1.34-.08-2-.09h-1.69a22.45,22.45,0,0,1-3.3-.1,2.26,2.26,0,0,1-1.3-.87c-.14-1.74-.12-3.54-.1-5.45,0-.55,0-1.12,0-1.7h5c1.42,0,2.85,0,4.28,0a1.77,1.77,0,0,0,1.55-.67,2,2,0,0,0,0-1.89l-.15-.37H662.35l-.09.48c-.81,4.28-.56,24.35.33,26.51Z"/><path class="cls-1" d="M998.21,227.23c0-2.2,0-4.39,0-6.58a6,6,0,0,0-.32-1.7c-.07-.22-.13-.45-.18-.68l-.11-.47-1.94.07-.06.48c0,.28-.09.55-.14.82a12.25,12.25,0,0,0-.23,1.94c0,2.75,0,5.51,0,8.26v4.29c0,.36,0,.73,0,1.1a25.81,25.81,0,0,1-.11,3.3,5.08,5.08,0,0,1-5,4.72,5.17,5.17,0,0,1-5.09-4.63,10.83,10.83,0,0,1-.09-1.91v-.39c0-3.75,0-7.51,0-11.26v-6.25l-.39-.13a2.5,2.5,0,0,0-2.23,0,2,2,0,0,0-.65,1.63c0,1.9,0,3.8,0,5.7,0,4.22-.08,8.57.13,12.85a8.06,8.06,0,0,0,8.24,7.55h.22a8.09,8.09,0,0,0,8-8.26C998.18,234.19,998.2,230.65,998.21,227.23Z"/><path class="cls-1" d="M1015,233.63c4.18-.31,6.7-3.26,6.74-7.9s-2.7-7.67-6.82-7.88c-1.93-.1-3.82-.08-5.82,0l-2.68,0h-.48l-.1.47c-.74,3.7-.61,24.43.17,26.73l.14.41.73,0c.54,0,1,0,1.08-.57.29-3.53.56-7.05.83-10.78l0-.24.65,0c.78,0,1.5-.08,2.23-.11.42,0,.85,0,1.28,0C1013.61,233.68,1014.29,233.68,1015,233.63Zm3.56-7.2a4,4,0,0,1-4.06,4c-1.32.06-2.63,0-4.13,0h-1.66v-9.25l1.86,0a27.14,27.14,0,0,1,5,.13C1017.53,221.55,1018.8,223.73,1018.54,226.43Z"/><path class="cls-1" d="M1088.54,294.11l-.45.11v22.61h2.73l2,0c.84,0,1.66,0,2.49-.06a6.71,6.71,0,0,0,6.74-6.57,81.93,81.93,0,0,0,0-9,7.22,7.22,0,0,0-5.08-6.84A15.62,15.62,0,0,0,1088.54,294.11Zm10.65,9.29v1.28c0,1.36,0,2.71,0,4.06-.08,3.54-1.6,5.08-5.08,5.14-.71,0-1.41,0-2.23,0h-.78V297.32c2.49-.7,4.53-.55,5.91.46S1099.18,300.76,1099.19,303.4Z"/><path class="cls-1" d="M912.55,245.15a9.65,9.65,0,0,0,4,.84,10,10,0,0,0,5.65-1.72,2.36,2.36,0,0,0,1.25-1.78,2.07,2.07,0,0,0-1.18-1.62l-.29-.18-.3.17c-.29.15-.56.31-.83.46-.54.31-1,.59-1.56.83a5.75,5.75,0,0,1-8.46-5.22c-.12-3.65-.11-7.24,0-10.69a5.84,5.84,0,0,1,2.29-4.61,5.74,5.74,0,0,1,5-.79,7,7,0,0,1,1.23.55,7.13,7.13,0,0,0,1.46.65,4.61,4.61,0,0,0,1.74,0c.33,0,.71-.09,1.15-.12l1.21-.08-.81-.9c-3-3.28-6.39-4.21-10.72-2.94a7.6,7.6,0,0,0-5.65,7.13,76.65,76.65,0,0,0,0,13.2A8.23,8.23,0,0,0,912.55,245.15Z"/><path class="cls-1" d="M708,245.45a10,10,0,0,0,3.29.58,8.68,8.68,0,0,0,6.72-3.24l.24-.29-.16-.33a2,2,0,0,0-1.25-1.29,2.23,2.23,0,0,0-1.85.61c-.18.12-.35.24-.51.33-2.32,1.18-4.64,1.25-6.37.21s-2.67-3-2.71-5.51c0-2.77-.08-6.42,0-10.11a5.88,5.88,0,0,1,2.75-5.06,6,6,0,0,1,5.9,0,4,4,0,0,1,.51.33,2.76,2.76,0,0,0,1.21.6,3.63,3.63,0,0,0,1.55-.24c.25-.07.54-.16.86-.23l1-.23-.67-.74c-2.88-3.15-6.35-4-10.62-2.77a7.72,7.72,0,0,0-5.62,7.17,110.63,110.63,0,0,0,0,12.88A8,8,0,0,0,708,245.45Z"/><path class="cls-1" d="M849.74,236.56c0,4.18,1.89,7.26,5.35,8.67a10.15,10.15,0,0,0,3.84.79,9.88,9.88,0,0,0,6.9-3l.5-.48-.55-.41c-1.59-1.21-1.84-1.22-3.73-.26a6.65,6.65,0,0,1-6.33.1,5.49,5.49,0,0,1-2.71-4.67A101.06,101.06,0,0,1,853,226a5.53,5.53,0,0,1,2.34-4.36,6,6,0,0,1,5.21-.71,7,7,0,0,1,1.19.56,6.89,6.89,0,0,0,1.51.68,3.09,3.09,0,0,0,1.63-.15,7,7,0,0,1,.81-.19l1.07-.2-.75-.79c-3-3.13-7.38-4.24-10.83-2.75a8.52,8.52,0,0,0-5.42,8c-.08,2.35-.06,4.74,0,7C849.74,234.27,849.75,235.41,849.74,236.56Z"/><path class="cls-1" d="M827.48,217.78c-1.76.06-3.56.05-5.29,0a55.36,55.36,0,0,0-11.64.74l-1,.21.67.75c1.27,1.43,2.82,1.43,4.33,1.44a6.88,6.88,0,0,1,2.77.39v23.56l1.61.93.32-.36a4.67,4.67,0,0,1,.39-.37,2.44,2.44,0,0,0,.93-1.31,14.82,14.82,0,0,0,.11-2.74c0-.31,0-.61,0-.92v-4.68c0-4.13,0-8.41,0-12.62a2.08,2.08,0,0,1,.4-1.55,1.88,1.88,0,0,1,1.42-.33,22,22,0,0,0,4-.06,2.49,2.49,0,0,0,1.34-.83l.4-.36.35-.26-.64-1.69Z"/><path class="cls-1" d="M1122.48,314.64a13.78,13.78,0,0,0-5.65-.7,13.23,13.23,0,0,1-3.77-.28V306l.84,0a16.55,16.55,0,0,0,3-.09,4,4,0,0,1,.88.05c1,.13,2.64.34,3.27-2l.19-.7-8.23-.4v-6l1,0a18,18,0,0,0,3.38-.1,4.42,4.42,0,0,1,1.05.06c1.14.15,2.88.38,3.7-2.07l.27-.77h-12.3v22.44l.5.07a33.43,33.43,0,0,0,4.9.37,17.12,17.12,0,0,0,7-1.2l1.2-.58Z"/><path class="cls-1" d="M778.56,243.09c-1.83-1.07-3.79-1-5.68-.85a11.5,11.5,0,0,1-4.27-.27l-.06-.47a14.6,14.6,0,0,1-.14-1.7c0-2.06,0-4.12.07-6.17,0-1.72,0-3.43.06-5.15,0-2.68,0-5.37,0-8.11a2.46,2.46,0,0,0-.6-1.94,2.59,2.59,0,0,0-2.05-.44l-.53.06v7.14c0,6.42,0,13.07,0,19.61v.58h13.48v-.59c0-.22,0-.43,0-.6C778.93,243.74,779,243.32,778.56,243.09Z"/><path class="cls-1" d="M898.72,245.15c.25.19.53.4.84.66l1,.81V218.05L900,218a2.52,2.52,0,0,0-2.11.41,2.36,2.36,0,0,0-.5,2c0,.15,0,.3,0,.43,0,5.27,0,10.53,0,15.79v5c0,.19,0,.39,0,.58a3.62,3.62,0,0,0,.16,1.72A3.13,3.13,0,0,0,898.72,245.15Z"/><polygon class="cls-1" points="1055.01 329.57 1057.97 333.51 1069.82 326.13 1066.04 320.73 1055.01 329.57"/><polygon class="cls-1" points="1018.66 263.6 1029.89 256.69 1026.29 251.44 1015.83 259.9 1018.66 263.6"/><path class="cls-1" d="M1070.28,244.68a4.46,4.46,0,0,1,.22.5l.15.38,1.56,0,.11-.44c0-.2.12-.41.18-.61a6.25,6.25,0,0,0,.33-1.51c.56-9.16.21-22.75-1-25l-.52-1-.52,1c-1.13,2.19-1.6,18.48-1,25.32A4.34,4.34,0,0,0,1070.28,244.68Z"/><path class="cls-1" d="M839.88,215.55c2.35,0,6-1.51,6.32-3a2.12,2.12,0,0,0-.53-1.54,6.78,6.78,0,0,1-.4-.66l-.33-.64-6.89,5.71,1.42.12Z"/><path class="cls-1" d="M480.92,277.11q0,21.45.09,42.91v3.78c2.27-.23,2.34-.23,2.37-1.71.05-2.68,0-5.37,0-8q0-18.62,0-37.25c0-1.24.28-2.65-1.4-3.17C480.53,274.48,480.92,275.87,480.92,277.11Z"/><path class="cls-1" d="M478.63,232.93a3.6,3.6,0,0,0,3.64,3.5,3.49,3.49,0,0,0,3.37-3.43,3.44,3.44,0,0,0-3.61-3.46A3.54,3.54,0,0,0,478.63,232.93Z"/></svg>