<svg id="Logos_Patrocinadores" data-name="Logos Patrocinadores" xmlns="http://www.w3.org/2000/svg" viewBox="0 0 1500 600"><defs><style>.cls-1{fill:#7a97ab;}</style></defs><path class="cls-1" d="M1015.86,200.12c-.18,2.65-.51,5.3-.51,7.95q-.06,49.55,0,99.1v8.46H933.17c-.19-26.09.05-52.37-.14-79.11H539v79.19H456.68v-7.79q0-49.56,0-99.1c0-2.9-.28-5.8-.43-8.7Z"/><path class="cls-1" d="M576.77,300.54H609c1.68,5,2,25.84.51,34.71H576.77Z"/><rect class="cls-1" x="648.23" y="300.66" width="32.94" height="34.73"/><rect class="cls-1" x="719.48" y="300.61" width="33.08" height="34.58"/><path class="cls-1" d="M790.19,300.6H824v34.63H790.15c-.3-11.28-.25-22.54,0-34.63"/><path class="cls-1" d="M860.73,335.23V300.8h33.76c.83,11.15.29,22.57.24,34.43Z"/><path class="cls-1" d="M329,413.33v-37.6h14.78v4h-9.4v12.09h6.72v4h-6.72V409.3h9.4v4Z"/><path class="cls-1" d="M352.52,413.71a7.29,7.29,0,0,1-5.33-2,10.37,10.37,0,0,1-2.74-5.12l4-1.35q1.44,4,4,4a2.44,2.44,0,0,0,2.68-2.68,4.07,4.07,0,0,0-1.34-3.11l-5.37-4a12.47,12.47,0,0,1-1.52-1.15,11.17,11.17,0,0,1-1.23-1.3,5.43,5.43,0,0,1-1-1.75,6.4,6.4,0,0,1-.33-2.09,6.48,6.48,0,0,1,2.2-5.27,8.87,8.87,0,0,1,5.87-1.83,8.28,8.28,0,0,1,3.14.56,6.53,6.53,0,0,1,2.37,1.56,9.57,9.57,0,0,1,1.57,2.23,12.2,12.2,0,0,1,1,2.75l-4,1.34a12.57,12.57,0,0,0-.58-1.37,10.08,10.08,0,0,0-.79-1.26,3.61,3.61,0,0,0-1.17-1,3.06,3.06,0,0,0-1.48-.36,2.44,2.44,0,0,0-2.69,2.69,2.86,2.86,0,0,0,1.34,2.26l5.37,4a17.4,17.4,0,0,1,1.55,1.37,14.62,14.62,0,0,1,1.25,1.54,6.8,6.8,0,0,1,.92,1.94,8,8,0,0,1,.31,2.29,6.48,6.48,0,0,1-2.19,5.27A8.91,8.91,0,0,1,352.52,413.71Z"/><path class="cls-1" d="M370.56,413.71a8.23,8.23,0,0,1-3.39-.65,6.19,6.19,0,0,1-2.29-1.7,8,8,0,0,1-1.39-2.67,17.33,17.33,0,0,1-.72-3.26,33.6,33.6,0,0,1-.24-3.79c0-1.16,0-2.33,0-3.5a33.72,33.72,0,0,1,.24-3.78,16.46,16.46,0,0,1,.73-3.26,8.18,8.18,0,0,1,1.39-2.67,6.27,6.27,0,0,1,2.28-1.69,8.23,8.23,0,0,1,3.39-.65q4.24,0,6.09,2.29c1.23,1.53,1.89,3.78,2,6.78v.71h-5.37v-.75a12.46,12.46,0,0,0-.14-1.77,7.59,7.59,0,0,0-.38-1.51,2.31,2.31,0,0,0-.81-1.16,2.26,2.26,0,0,0-1.36-.41,2,2,0,0,0-1.34.47,2.9,2.9,0,0,0-.83,1.36,10.81,10.81,0,0,0-.41,1.81,21.11,21.11,0,0,0-.15,2.15q-.07,2.6,0,7.85c0,.77.09,1.44.17,2a9.16,9.16,0,0,0,.41,1.68,2.73,2.73,0,0,0,.83,1.25,2,2,0,0,0,1.32.44,2.6,2.6,0,0,0,1.23-.27,2.29,2.29,0,0,0,.79-.67,3.45,3.45,0,0,0,.43-1.07,9,9,0,0,0,.2-1.25c0-.39,0-.87,0-1.46v-.65h5.37v.69a15.35,15.35,0,0,1-.52,3.75,8.48,8.48,0,0,1-1.4,2.84,5.87,5.87,0,0,1-2.47,1.86A9.49,9.49,0,0,1,370.56,413.71Z"/><path class="cls-1" d="M385.8,413.71a3.55,3.55,0,0,1-2.83-1.25,4.54,4.54,0,0,1-1.07-3.09v-22.9h5.37v21.26a1.86,1.86,0,0,0,.51,1.36,1.81,1.81,0,0,0,1.34.53,3.56,3.56,0,0,0,.86-.11,2.6,2.6,0,0,0,.82-.37c.28-.17.49-.31.65-.42a6.22,6.22,0,0,0,.66-.53l.53-.46V386.47H398v26.86h-5.38v-2.89l-1.16,1c-.25.21-.62.5-1.13.85a6.74,6.74,0,0,1-1.33.78,8.62,8.62,0,0,1-1.44.44A8,8,0,0,1,385.8,413.71Z"/><path class="cls-1" d="M410.27,413.71a8.07,8.07,0,0,1-3.39-.67,6.21,6.21,0,0,1-2.29-1.75,8.74,8.74,0,0,1-1.37-2.77,18.72,18.72,0,0,1-.72-3.38,38.84,38.84,0,0,1-.25-3.94c0-1.17,0-2.35,0-3.53.05-1.39.14-2.64.29-3.72a15.65,15.65,0,0,1,.76-3.16,7.8,7.8,0,0,1,1.42-2.52,6.15,6.15,0,0,1,2.29-1.58,8.38,8.38,0,0,1,3.3-.6,9.4,9.4,0,0,1,3,.45,5.49,5.49,0,0,1,2.18,1.37,9,9,0,0,1,1.45,2,10,10,0,0,1,.87,2.7c.19,1.06.33,2.09.41,3.11s.11,2.2.11,3.53v.63H407.62v2.2c0,.52,0,1.06,0,1.61s0,1.09.07,1.63a7.42,7.42,0,0,0,.23,1.52,6.92,6.92,0,0,0,.46,1.27,2.14,2.14,0,0,0,.77.86,2.1,2.1,0,0,0,1.16.31,2.77,2.77,0,0,0,1.39-.32,2,2,0,0,0,.81-1,6.31,6.31,0,0,0,.36-1.3,13.14,13.14,0,0,0,.13-1.64v-1.13h5.33V405c-.13,2.87-.83,5-2.12,6.5S412.94,413.71,410.27,413.71Zm-2.65-16.49H413V395.6a18.7,18.7,0,0,0-.13-1.87,8.59,8.59,0,0,0-.37-1.6,2.46,2.46,0,0,0-.8-1.21,2.37,2.37,0,0,0-2.72,0,2.52,2.52,0,0,0-.82,1.27,9.91,9.91,0,0,0-.37,1.62c-.07.54-.11,1.17-.13,1.91Z"/><path class="cls-1" d="M422.27,413.33v-37.6h5.38v37.6Z"/><path class="cls-1" d="M437.11,413.71a4.7,4.7,0,0,1-3.8-1.94,6.75,6.75,0,0,1-1.57-4.38,9.24,9.24,0,0,1,.66-3.55,11.11,11.11,0,0,1,1.4-2.54,8.7,8.7,0,0,1,2.45-2,26.31,26.31,0,0,1,2.61-1.39c.59-.26,1.6-.67,3.06-1.24l.57-.23v-1.93a7.11,7.11,0,0,0-.57-3.16,2.15,2.15,0,0,0-2.12-1.12,2.17,2.17,0,0,0-2,.95,5.42,5.42,0,0,0-.68,2.63,6,6,0,0,0,0,.7h-5.37a8.88,8.88,0,0,1,2.16-6.15,8.72,8.72,0,0,1,11.81,0,8.65,8.65,0,0,1,2.15,6.12v12.09a26.25,26.25,0,0,0,.69,6.71H443.2l-.71-4c-.28.56-.51,1-.68,1.3a11.46,11.46,0,0,1-.77,1.15,5.1,5.1,0,0,1-1,1.05,4.93,4.93,0,0,1-1.26.64A4.86,4.86,0,0,1,437.11,413.71Zm2.69-4.41a2,2,0,0,0,1.1-.33,3.68,3.68,0,0,0,.81-.65c.18-.21.41-.49.67-.85l.11-.14V399.9c-.23.15-.6.4-1.11.71l-1.24.79a12.93,12.93,0,0,0-1.12.84,5.94,5.94,0,0,0-1,1,5.07,5.07,0,0,0-.63,1.21,4.14,4.14,0,0,0-.28,1.48Q437.11,409.31,439.8,409.3Z"/><path class="cls-1" d="M465.44,413.33V380.51h-6.72v-4.78h18.81v4.78h-6.72v32.82Z"/><path class="cls-1" d="M485.62,413.71a8.07,8.07,0,0,1-3.39-.67,6.21,6.21,0,0,1-2.29-1.75,8.74,8.74,0,0,1-1.37-2.77,18.72,18.72,0,0,1-.72-3.38,38.84,38.84,0,0,1-.25-3.94c0-1.17,0-2.35,0-3.53,0-1.39.14-2.64.29-3.72a15.65,15.65,0,0,1,.76-3.16,7.8,7.8,0,0,1,1.42-2.52,6.15,6.15,0,0,1,2.29-1.58,8.38,8.38,0,0,1,3.3-.6,9.4,9.4,0,0,1,3,.45,5.49,5.49,0,0,1,2.18,1.37,9,9,0,0,1,1.45,2,10,10,0,0,1,.87,2.7c.19,1.06.33,2.09.41,3.11s.11,2.2.11,3.53v.63H483v2.2c0,.52,0,1.06,0,1.61s0,1.09.07,1.63a7.42,7.42,0,0,0,.23,1.52,6.92,6.92,0,0,0,.46,1.27,2.14,2.14,0,0,0,.77.86,2.1,2.1,0,0,0,1.16.31,2.77,2.77,0,0,0,1.39-.32,2,2,0,0,0,.81-1,6.31,6.31,0,0,0,.36-1.3,13.14,13.14,0,0,0,.13-1.64v-1.13h5.33V405c-.13,2.87-.83,5-2.12,6.5S488.29,413.71,485.62,413.71ZM483,397.22h5.34V395.6a18.7,18.7,0,0,0-.13-1.87,8.59,8.59,0,0,0-.37-1.6,2.46,2.46,0,0,0-.8-1.21,2.37,2.37,0,0,0-2.72,0,2.52,2.52,0,0,0-.82,1.27,9.91,9.91,0,0,0-.37,1.62c-.07.54-.11,1.17-.13,1.91ZM484.3,384l2.69-8.06h5.37L487,384Z"/><path class="cls-1" d="M503.84,413.71a8.23,8.23,0,0,1-3.39-.65,6.23,6.23,0,0,1-2.3-1.7,8.19,8.19,0,0,1-1.39-2.67,17.33,17.33,0,0,1-.72-3.26c-.13-1.08-.21-2.35-.24-3.79,0-1.16,0-2.33,0-3.5q0-2.14.24-3.78a16.49,16.49,0,0,1,.74-3.26,8.17,8.17,0,0,1,1.38-2.67,6.31,6.31,0,0,1,2.29-1.69,8.23,8.23,0,0,1,3.39-.65q4.23,0,6.08,2.29c1.24,1.53,1.89,3.78,2,6.78v.71h-5.38v-.75a12.6,12.6,0,0,0-.13-1.77,9.27,9.27,0,0,0-.38-1.51,2.39,2.39,0,0,0-.82-1.16,2.23,2.23,0,0,0-1.35-.41,2,2,0,0,0-1.34.47,2.83,2.83,0,0,0-.84,1.36,10.8,10.8,0,0,0-.4,1.81,16.59,16.59,0,0,0-.15,2.15q-.09,2.6,0,7.85a18,18,0,0,0,.17,2,8.42,8.42,0,0,0,.41,1.68,2.71,2.71,0,0,0,.82,1.25,2,2,0,0,0,1.33.44,2.65,2.65,0,0,0,1.23-.27,2.16,2.16,0,0,0,.78-.67,3.22,3.22,0,0,0,.43-1.07,7.68,7.68,0,0,0,.2-1.25c0-.39,0-.87,0-1.46v-.65h5.38v.69a15.83,15.83,0,0,1-.53,3.75,8.46,8.46,0,0,1-1.39,2.84,5.9,5.9,0,0,1-2.48,1.86A9.47,9.47,0,0,1,503.84,413.71Z"/><path class="cls-1" d="M515.23,413.33V386.47h5.38v2.9c.79-.73,1.44-1.29,1.95-1.67a8.52,8.52,0,0,1,2.09-1.1,7.86,7.86,0,0,1,2.84-.51,3.48,3.48,0,0,1,2.79,1.26,4.63,4.63,0,0,1,1.07,3.09v22.89H526V393.19a4,4,0,0,0-.4-2.05,1.77,1.77,0,0,0-1.62-.64,3.5,3.5,0,0,0-1.37.28,4.66,4.66,0,0,0-1,.53c-.22.16-.54.41-1,.76v21.26Z"/><path class="cls-1" d="M536.28,382.44v-5.37h5.37v5.37Zm0,30.89V386.47h5.37v26.86Z"/><path class="cls-1" d="M553.51,413.71a8.23,8.23,0,0,1-3.39-.65,6.19,6.19,0,0,1-2.29-1.7,8,8,0,0,1-1.39-2.67,17.33,17.33,0,0,1-.72-3.26,35.88,35.88,0,0,1-.25-3.79c0-1.16,0-2.33,0-3.5a36.05,36.05,0,0,1,.25-3.78,16.46,16.46,0,0,1,.73-3.26,8.18,8.18,0,0,1,1.39-2.67,6.27,6.27,0,0,1,2.28-1.69,8.23,8.23,0,0,1,3.39-.65q4.25,0,6.09,2.29c1.23,1.53,1.89,3.78,2,6.78v.71H556.2v-.75a12.46,12.46,0,0,0-.14-1.77,7.59,7.59,0,0,0-.38-1.51,2.31,2.31,0,0,0-.81-1.16,2.26,2.26,0,0,0-1.36-.41,2,2,0,0,0-1.34.47,2.9,2.9,0,0,0-.83,1.36,10.81,10.81,0,0,0-.41,1.81,21.11,21.11,0,0,0-.15,2.15q-.07,2.6,0,7.85c0,.77.09,1.44.17,2a9.16,9.16,0,0,0,.41,1.68,2.73,2.73,0,0,0,.83,1.25,2,2,0,0,0,1.32.44,2.6,2.6,0,0,0,1.23-.27,2.29,2.29,0,0,0,.79-.67,3.45,3.45,0,0,0,.43-1.07,9,9,0,0,0,.2-1.25c0-.39,0-.87,0-1.46v-.65h5.37v.69a15.35,15.35,0,0,1-.52,3.75,8.48,8.48,0,0,1-1.4,2.84,5.87,5.87,0,0,1-2.47,1.86A9.49,9.49,0,0,1,553.51,413.71Z"/><path class="cls-1" d="M569.59,413.71a4.71,4.71,0,0,1-3.81-1.94,6.79,6.79,0,0,1-1.56-4.38,9.24,9.24,0,0,1,.66-3.55,11.12,11.12,0,0,1,1.39-2.54,8.62,8.62,0,0,1,2.46-2,26.42,26.42,0,0,1,2.6-1.39c.59-.26,1.61-.67,3.07-1.24l.56-.23v-1.93a7.27,7.27,0,0,0-.56-3.16,2.56,2.56,0,0,0-4.11-.17,5.53,5.53,0,0,0-.68,2.63c0,.16,0,.39,0,.7h-5.37a8.79,8.79,0,0,1,2.16-6.15,8.7,8.7,0,0,1,11.8,0,8.61,8.61,0,0,1,2.15,6.12v12.09a25.74,25.74,0,0,0,.7,6.71h-5.36l-.71-4c-.28.56-.5,1-.68,1.3a11.46,11.46,0,0,1-.77,1.15,5.08,5.08,0,0,1-1,1.05,5.29,5.29,0,0,1-1.26.64A4.94,4.94,0,0,1,569.59,413.71Zm2.69-4.41a2.1,2.1,0,0,0,1.1-.33,3.93,3.93,0,0,0,.81-.65c.18-.21.4-.49.67-.85l.07-.11,0-7.46c-.22.15-.59.4-1.11.71l-1.24.79a11.59,11.59,0,0,0-1.11.84,6,6,0,0,0-1,1,5.07,5.07,0,0,0-.63,1.21,4.13,4.13,0,0,0-.27,1.48Q569.59,409.31,572.28,409.3Z"/><path class="cls-1" d="M603.72,413.71q-5.09,0-7.76-3a13,13,0,0,1-3-8.14l5.37-1.35q.4,8.07,5.38,8.06c2.68,0,4-1.34,4-4a7.16,7.16,0,0,0-.33-2.21,5.93,5.93,0,0,0-1-1.87,11.67,11.67,0,0,0-1.22-1.36c-.36-.35-.86-.77-1.48-1.27L597,393.19a10.65,10.65,0,0,1-3-3.69,11.42,11.42,0,0,1-1.1-5.08,8.71,8.71,0,0,1,2.58-6.62,9.5,9.5,0,0,1,6.84-2.46,11,11,0,0,1,7.27,2.24,9.8,9.8,0,0,1,3.33,6.33c0,.29.09.7.15,1.22l-5.37,1.34c0-.24,0-.6-.11-1.07a8.21,8.21,0,0,0-1.6-4.1,4.43,4.43,0,0,0-3.67-1.55,3.94,3.94,0,0,0-3,1.09,4.11,4.11,0,0,0-1,3,6.56,6.56,0,0,0,2.69,5.32l6.72,5.37q5.37,4.35,5.37,10.39a8.31,8.31,0,0,1-2.55,6.46A9.79,9.79,0,0,1,603.72,413.71Z"/><path class="cls-1" d="M620.65,413.71a3.55,3.55,0,0,1-2.83-1.25,4.59,4.59,0,0,1-1.07-3.09v-22.9h5.37v21.26a1.83,1.83,0,0,0,.52,1.36,1.77,1.77,0,0,0,1.33.53,3.56,3.56,0,0,0,.86-.11,2.65,2.65,0,0,0,.83-.37l.64-.42a6.22,6.22,0,0,0,.66-.53l.54-.46V386.47h5.37v26.86H627.5v-2.89l-1.17,1c-.24.21-.62.5-1.12.85a7.08,7.08,0,0,1-1.34.78,8.78,8.78,0,0,1-1.43.44A8.12,8.12,0,0,1,620.65,413.71Z"/><path class="cls-1" d="M637.53,421.39V386.47h5.37v2.69c.43-.47.73-.78.9-1s.46-.42.87-.77a5.34,5.34,0,0,1,1.07-.74,8,8,0,0,1,1.16-.41,5.42,5.42,0,0,1,1.46-.2,5.7,5.7,0,0,1,2.43.5,6.09,6.09,0,0,1,1.76,1.18,5.47,5.47,0,0,1,1.18,2,19.46,19.46,0,0,1,.72,2.35,18.56,18.56,0,0,1,.37,2.83q.12,1.79.15,2.88c0,.74,0,1.75,0,3v.39a31,31,0,0,1-.18,3.4,21,21,0,0,1-.65,3.33,12.35,12.35,0,0,1-1.2,2.93,6,6,0,0,1-1.93,2,5,5,0,0,1-2.76.78q-2.73,0-5.37-2.79v10.47Zm9.4-12.09a1.85,1.85,0,0,0,1.43-.63,3.84,3.84,0,0,0,.85-1.79,17,17,0,0,0,.35-2.31c.06-.76.1-1.65.1-2.67l0-3.55c0-.63,0-1.14,0-1.53s0-.89-.08-1.53a12.54,12.54,0,0,0-.18-1.56,11.47,11.47,0,0,0-.34-1.34,3.8,3.8,0,0,0-.56-1.16,2.93,2.93,0,0,0-.84-.71,2.26,2.26,0,0,0-1.17-.3,3.81,3.81,0,0,0-.59,0,3.35,3.35,0,0,0-.59.14,4.48,4.48,0,0,0-1,.4l-.45.24-.47.29-.42.25v16.62A7.74,7.74,0,0,0,646.93,409.3Z"/><path class="cls-1" d="M667,413.71a8.07,8.07,0,0,1-3.39-.67,6.17,6.17,0,0,1-2.28-1.75,8.54,8.54,0,0,1-1.38-2.77,18.72,18.72,0,0,1-.72-3.38c-.13-1.13-.22-2.44-.25-3.94,0-1.17,0-2.35,0-3.53,0-1.39.14-2.64.29-3.72a16.35,16.35,0,0,1,.76-3.16,7.8,7.8,0,0,1,1.42-2.52,6.23,6.23,0,0,1,2.29-1.58,8.43,8.43,0,0,1,3.31-.6,9.38,9.38,0,0,1,3,.45,5.49,5.49,0,0,1,2.18,1.37,9,9,0,0,1,1.45,2,10,10,0,0,1,.87,2.7,28.85,28.85,0,0,1,.41,3.11c.07,1,.11,2.2.11,3.53v.63H664.35v2.2c0,.52,0,1.06,0,1.61s0,1.09.07,1.63a8.18,8.18,0,0,0,.23,1.52,6.24,6.24,0,0,0,.47,1.27A2,2,0,0,0,667,409.3a2.74,2.74,0,0,0,1.38-.32,2,2,0,0,0,.81-1,6.35,6.35,0,0,0,.37-1.3,11.65,11.65,0,0,0,.12-1.64v-1.13h5.33V405c-.13,2.87-.83,5-2.12,6.5S669.67,413.71,667,413.71Zm-2.64-16.49h5.33V395.6a16.13,16.13,0,0,0-.13-1.87,9.42,9.42,0,0,0-.36-1.6,2.54,2.54,0,0,0-.81-1.21,2.14,2.14,0,0,0-1.34-.42,2.17,2.17,0,0,0-1.38.44,2.58,2.58,0,0,0-.82,1.27,9.91,9.91,0,0,0-.37,1.62,16.77,16.77,0,0,0-.12,1.91Z"/><path class="cls-1" d="M679,413.33V386.47h5.37v3.59a8.15,8.15,0,0,1,2.38-2.78,5.56,5.56,0,0,1,3.48-1.19l.86.08v5.94a8.15,8.15,0,0,0-3-.59,3.71,3.71,0,0,0-2.71,1,3.56,3.56,0,0,0-1,2.67v18.13Z"/><path class="cls-1" d="M693.75,382.44v-5.37h5.37v5.37Zm0,30.89V386.47h5.37v26.86Z"/><path class="cls-1" d="M718,411.19q-1.87,2.52-6.19,2.52c-2.88,0-5-.84-6.19-2.52s-1.87-4.1-1.87-7.26v-8.06q0-4.74,1.87-7.26c1.24-1.68,3.31-2.52,6.19-2.52s4.94.84,6.19,2.52,1.87,4.1,1.87,7.26v8.06Q719.88,408.67,718,411.19Zm-7.19-2.05a3.2,3.2,0,0,0,2,0,2.56,2.56,0,0,0,.71-.42A1.66,1.66,0,0,0,714,408a7.92,7.92,0,0,0,.3-.83,5.09,5.09,0,0,0,.14-1c0-.44,0-.8.06-1.06s0-.64,0-1.16v-8.06c0-.52,0-.91,0-1.17s0-.61-.06-1.06a5.2,5.2,0,0,0-.14-1,7.92,7.92,0,0,0-.3-.83,1.77,1.77,0,0,0-.47-.72,2.53,2.53,0,0,0-.71-.4,3,3,0,0,0-2,0,2.53,2.53,0,0,0-.71.4,1.77,1.77,0,0,0-.47.72,7.92,7.92,0,0,0-.3.83,4.53,4.53,0,0,0-.14,1c0,.45-.05.81-.06,1.06s0,.65,0,1.17v8.06c0,.52,0,.9,0,1.16s0,.62.06,1.06a4.46,4.46,0,0,0,.14,1,7.92,7.92,0,0,0,.3.83,1.66,1.66,0,0,0,.47.71A2.56,2.56,0,0,0,710.82,409.14Z"/><path class="cls-1" d="M724.29,413.33V386.47h5.37v3.59a8,8,0,0,1,2.38-2.78,5.55,5.55,0,0,1,3.47-1.19l.86.08v5.94a8.07,8.07,0,0,0-3-.59,3.68,3.68,0,0,0-2.7,1,3.56,3.56,0,0,0-1,2.67v18.13Z"/><path class="cls-1" d="M753.84,413.71a5,5,0,0,1-3.12-1,6.44,6.44,0,0,1-2.06-2.73,18.18,18.18,0,0,1-1.08-3.57,27.19,27.19,0,0,1-.44-4q0-1,0-4.83c0-.92.07-1.76.13-2.5s.15-1.53.28-2.35a14.58,14.58,0,0,1,.5-2.15,10.34,10.34,0,0,1,.81-1.8,5.49,5.49,0,0,1,1.18-1.44,4.92,4.92,0,0,1,1.61-.9,6.09,6.09,0,0,1,2.1-.34,5.75,5.75,0,0,1,1.69.24,4.94,4.94,0,0,1,1.5.76,10,10,0,0,1,1.14.91c.29.27.67.64,1.13,1.14v-13.4h5.37v37.59h-5.37V410.9a12.51,12.51,0,0,1-2.48,2A5.37,5.37,0,0,1,753.84,413.71Zm1.34-4.41a10.75,10.75,0,0,0,4-.84V391.57a7.78,7.78,0,0,0-4-1.07,2.24,2.24,0,0,0-1.34.39A2.21,2.21,0,0,0,753,392a8,8,0,0,0-.4,1.53,13.73,13.73,0,0,0-.15,1.86c-.05,3.13-.05,5.62,0,7.45a23.32,23.32,0,0,0,.15,2.39,12.17,12.17,0,0,0,.41,2,3.27,3.27,0,0,0,.83,1.5A1.82,1.82,0,0,0,755.18,409.3Z"/><path class="cls-1" d="M777.2,413.71a8,8,0,0,1-3.39-.67,6.13,6.13,0,0,1-2.29-1.75,8.54,8.54,0,0,1-1.38-2.77,18.72,18.72,0,0,1-.72-3.38,39.1,39.1,0,0,1-.24-3.94c0-1.17,0-2.35,0-3.53a34.79,34.79,0,0,1,.28-3.72,15.67,15.67,0,0,1,.77-3.16,7.45,7.45,0,0,1,1.42-2.52,6.11,6.11,0,0,1,2.28-1.58,8.47,8.47,0,0,1,3.31-.6,9.33,9.33,0,0,1,3,.45,5.49,5.49,0,0,1,2.18,1.37,9,9,0,0,1,1.45,2,9.63,9.63,0,0,1,.87,2.7,28.85,28.85,0,0,1,.41,3.11c.08,1,.11,2.2.11,3.53v.63H774.55v2.2c0,.52,0,1.06,0,1.61s0,1.09.07,1.63a8.18,8.18,0,0,0,.23,1.52,6.24,6.24,0,0,0,.47,1.27,2,2,0,0,0,1.93,1.17,2.71,2.71,0,0,0,1.38-.32,1.92,1.92,0,0,0,.81-1,6.35,6.35,0,0,0,.37-1.3,11.65,11.65,0,0,0,.12-1.64v-1.13h5.33V405q-.18,4.31-2.12,6.5C781.85,413,779.87,413.71,777.2,413.71Zm-2.65-16.49h5.33V395.6a16.32,16.32,0,0,0-.12-1.87,10.54,10.54,0,0,0-.37-1.6,2.54,2.54,0,0,0-.81-1.21,2.14,2.14,0,0,0-1.34-.42,2.17,2.17,0,0,0-1.38.44,2.58,2.58,0,0,0-.82,1.27,9.86,9.86,0,0,0-.36,1.62,16.55,16.55,0,0,0-.13,1.91Z"/><path class="cls-1" d="M798.39,413.33v-37.6h5.37v37.6Z"/><path class="cls-1" d="M809.29,413.33V386.47h5.37v2.9c.8-.73,1.45-1.29,2-1.67a8.52,8.52,0,0,1,2.09-1.1,7.86,7.86,0,0,1,2.84-.51,3.48,3.48,0,0,1,2.79,1.26,4.58,4.58,0,0,1,1.08,3.09v22.89H820V393.19a4,4,0,0,0-.4-2.05,1.74,1.74,0,0,0-1.61-.64,3.55,3.55,0,0,0-1.38.28,5.19,5.19,0,0,0-1,.53c-.22.16-.54.41-1,.76v21.26Z"/><path class="cls-1" d="M838.6,421.37H837c-.42,0-1,0-1.72-.06a14,14,0,0,1-1.83-.15c-.49-.07-1-.18-1.68-.3a5.9,5.9,0,0,1-1.56-.47,7.5,7.5,0,0,1-1.19-.69,2.5,2.5,0,0,1-.85-1,2.83,2.83,0,0,1-.28-1.28,5.81,5.81,0,0,1,1.12-3.6,8,8,0,0,1,2.91-2.36,5.52,5.52,0,0,1-1.89-.9,1.78,1.78,0,0,1-.8-1.46,3.4,3.4,0,0,1,.09-.75,6,6,0,0,1,.18-.73,5.05,5.05,0,0,1,.34-.74l.37-.66a6.49,6.49,0,0,1,.45-.67l.43-.59.45-.57.38-.47a12.09,12.09,0,0,1-2.69-8.06,13.35,13.35,0,0,1,.88-5,7.74,7.74,0,0,1,2.74-3.5,7.54,7.54,0,0,1,4.44-1.31,7.31,7.31,0,0,1,2.6.42,5.6,5.6,0,0,1,1.82,1.06,7.9,7.9,0,0,1,1.37,1.69,5.41,5.41,0,0,1,4.54-3.15H848l0,4.39h-.34l-1.36,0a4.22,4.22,0,0,0-1,.18,2,2,0,0,0-.9.49,10.68,10.68,0,0,1,.66,2.17,12.27,12.27,0,0,1,.28,2.51,13.5,13.5,0,0,1-.85,5,7.49,7.49,0,0,1-2.71,3.46,7.63,7.63,0,0,1-4.5,1.3l-2.71-.31a1.78,1.78,0,0,1-.2.36c-.12.18-.2.32-.27.43a2.66,2.66,0,0,0-.18.43,1.86,1.86,0,0,0-.08.5,1.09,1.09,0,0,0,.53.92,3.64,3.64,0,0,0,1.44.56c.62.12,1.21.2,1.78.26s1.2.1,1.89.14,1.19.07,1.45.11q1.2.17,2.13.39A10.72,10.72,0,0,1,845,410a5.28,5.28,0,0,1,1.61,1,4.36,4.36,0,0,1,1,1.51,5.21,5.21,0,0,1,.41,2.12,6.25,6.25,0,0,1-.52,2.62,5.5,5.5,0,0,1-1.37,1.91,7.47,7.47,0,0,1-2.08,1.25,12.09,12.09,0,0,1-2.56.7A18.65,18.65,0,0,1,838.6,421.37Zm0-4,1,0c.3,0,.65,0,1-.08a5.26,5.26,0,0,0,1-.2,4.6,4.6,0,0,0,.82-.35,1.43,1.43,0,0,0,.59-.55,1.48,1.48,0,0,0,.21-.79c0-1.5-1.43-2.41-4.3-2.75l-4.43-.52a4.75,4.75,0,0,0-1.39,1.69,5,5,0,0,0-.58,2.33.82.82,0,0,0,.23.58,1.43,1.43,0,0,0,.68.37c.31.08.61.15.93.21a8.15,8.15,0,0,0,1.12.11l1.11,0,1.08,0Zm-1.34-15.82q3.36,0,3.36-5.71a14,14,0,0,0-.15-2.13,8.68,8.68,0,0,0-.5-1.91,3.35,3.35,0,0,0-1.05-1.47,2.66,2.66,0,0,0-1.66-.53,2.7,2.7,0,0,0-1.68.53,3.26,3.26,0,0,0-1,1.47,9.93,9.93,0,0,0-.49,1.91,14,14,0,0,0-.15,2.13Q833.9,401.59,837.26,401.58Z"/><path class="cls-1" d="M857.12,413.71a8,8,0,0,1-3.39-.67,6.13,6.13,0,0,1-2.29-1.75,8.54,8.54,0,0,1-1.38-2.77,18.72,18.72,0,0,1-.72-3.38,39.1,39.1,0,0,1-.24-3.94c-.05-1.17-.05-2.35,0-3.53a34.79,34.79,0,0,1,.28-3.72,15.67,15.67,0,0,1,.77-3.16,7.45,7.45,0,0,1,1.42-2.52,6.11,6.11,0,0,1,2.28-1.58,8.47,8.47,0,0,1,3.31-.6,9.38,9.38,0,0,1,3,.45,5.49,5.49,0,0,1,2.18,1.37,9,9,0,0,1,1.45,2,9.63,9.63,0,0,1,.87,2.7,28.85,28.85,0,0,1,.41,3.11c.08,1,.11,2.2.11,3.53v.63H854.47v2.2c0,.52,0,1.06,0,1.61s0,1.09.07,1.63a8.18,8.18,0,0,0,.23,1.52,6.24,6.24,0,0,0,.47,1.27,2,2,0,0,0,1.93,1.17,2.71,2.71,0,0,0,1.38-.32,1.92,1.92,0,0,0,.81-1,6.35,6.35,0,0,0,.37-1.3,11.65,11.65,0,0,0,.12-1.64v-1.13h5.33V405q-.18,4.31-2.12,6.5C861.77,413,859.79,413.71,857.12,413.71Zm-2.65-16.49h5.33V395.6a16.32,16.32,0,0,0-.12-1.87,10.54,10.54,0,0,0-.37-1.6,2.54,2.54,0,0,0-.81-1.21,2.14,2.14,0,0,0-1.34-.42,2.17,2.17,0,0,0-1.38.44,2.58,2.58,0,0,0-.82,1.27,9.86,9.86,0,0,0-.36,1.62,16.55,16.55,0,0,0-.13,1.91Z"/><path class="cls-1" d="M869.1,413.33V386.47h5.37v2.9c.8-.73,1.45-1.29,1.95-1.67a8.71,8.71,0,0,1,2.09-1.1,7.92,7.92,0,0,1,2.85-.51,3.47,3.47,0,0,1,2.78,1.26,4.58,4.58,0,0,1,1.08,3.09v22.89h-5.38V393.19a4,4,0,0,0-.4-2.05,1.74,1.74,0,0,0-1.61-.64,3.5,3.5,0,0,0-1.37.28,4.66,4.66,0,0,0-1,.53c-.23.16-.55.41-1,.76v21.26Z"/><path class="cls-1" d="M890.15,382.44v-5.37h5.37v5.37Zm0,30.89V386.47h5.37v26.86Z"/><path class="cls-1" d="M908.26,413.71a8.07,8.07,0,0,1-3.39-.67,6.21,6.21,0,0,1-2.29-1.75,8.74,8.74,0,0,1-1.37-2.77,18.72,18.72,0,0,1-.72-3.38,38.84,38.84,0,0,1-.25-3.94c0-1.17,0-2.35,0-3.53,0-1.39.14-2.64.29-3.72a15.65,15.65,0,0,1,.76-3.16,7.8,7.8,0,0,1,1.42-2.52,6.15,6.15,0,0,1,2.29-1.58,8.38,8.38,0,0,1,3.3-.6,9.4,9.4,0,0,1,3,.45,5.49,5.49,0,0,1,2.18,1.37,9,9,0,0,1,1.45,2,10,10,0,0,1,.87,2.7c.19,1.06.33,2.09.41,3.11s.11,2.2.11,3.53v.63H905.61v2.2c0,.52,0,1.06,0,1.61s0,1.09.08,1.63a7.42,7.42,0,0,0,.23,1.52,6.92,6.92,0,0,0,.46,1.27,2.14,2.14,0,0,0,.77.86,2.07,2.07,0,0,0,1.16.31,2.77,2.77,0,0,0,1.39-.32,2,2,0,0,0,.81-1,6.31,6.31,0,0,0,.36-1.3,13.14,13.14,0,0,0,.13-1.64v-1.13h5.33V405c-.13,2.87-.83,5-2.12,6.5S910.93,413.71,908.26,413.71Zm-2.65-16.49H911V395.6a18.7,18.7,0,0,0-.13-1.87,8.59,8.59,0,0,0-.37-1.6,2.41,2.41,0,0,0-.81-1.21,2.12,2.12,0,0,0-1.34-.42,2.16,2.16,0,0,0-1.37.44,2.52,2.52,0,0,0-.82,1.27,9,9,0,0,0-.37,1.62c-.07.54-.11,1.17-.13,1.91Z"/><path class="cls-1" d="M920.24,413.33V386.47h5.38v3.59a8,8,0,0,1,2.38-2.78,5.55,5.55,0,0,1,3.47-1.19l.86.08v5.94a8.07,8.07,0,0,0-3-.59,3.68,3.68,0,0,0-2.7,1,3.56,3.56,0,0,0-1,2.67v18.13Z"/><path class="cls-1" d="M935,413.33V386.47h5.37v26.86ZM936.36,384l2.69-8.06h5.37L939.05,384Z"/><path class="cls-1" d="M950.21,413.71a4.74,4.74,0,0,1-3.81-1.94,6.79,6.79,0,0,1-1.56-4.38,9.24,9.24,0,0,1,.66-3.55,11.11,11.11,0,0,1,1.4-2.54,8.7,8.7,0,0,1,2.45-2,27.62,27.62,0,0,1,2.6-1.39c.59-.26,1.61-.67,3.07-1.24l.57-.23v-1.93a7.11,7.11,0,0,0-.57-3.16,2.55,2.55,0,0,0-4.1-.17,5.53,5.53,0,0,0-.69,2.63c0,.16,0,.39,0,.7h-5.37a8.88,8.88,0,0,1,2.16-6.15,8.72,8.72,0,0,1,11.81,0,8.65,8.65,0,0,1,2.15,6.12v12.09a26.25,26.25,0,0,0,.69,6.71H956.3l-.71-4c-.28.56-.51,1-.68,1.3a13.51,13.51,0,0,1-.77,1.15,5.1,5.1,0,0,1-1,1.05,4.93,4.93,0,0,1-1.26.64A4.86,4.86,0,0,1,950.21,413.71Zm2.69-4.41A2,2,0,0,0,954,409a3.68,3.68,0,0,0,.81-.65c.18-.21.41-.49.67-.85a.61.61,0,0,1,.11-.14V399.9c-.23.15-.6.4-1.12.71l-1.23.79a12.93,12.93,0,0,0-1.12.84,5.59,5.59,0,0,0-1,1,5.07,5.07,0,0,0-.63,1.21,3.93,3.93,0,0,0-.28,1.48Q950.21,409.31,952.9,409.3Z"/><path class="cls-1" d="M980.58,413.71a5,5,0,0,1-3.11-1,6.44,6.44,0,0,1-2.06-2.73,18.18,18.18,0,0,1-1.08-3.57,25.9,25.9,0,0,1-.44-4q0-1,0-4.83c0-.92.07-1.76.12-2.5s.15-1.53.29-2.35a14.58,14.58,0,0,1,.5-2.15,9,9,0,0,1,.81-1.8,5.66,5.66,0,0,1,1.17-1.44,5.07,5.07,0,0,1,1.62-.9,6.09,6.09,0,0,1,2.1-.34,5.75,5.75,0,0,1,1.69.24,5.06,5.06,0,0,1,1.5.76,10,10,0,0,1,1.14.91c.29.27.67.64,1.13,1.14v-13.4h5.37v37.59H986V410.9a12.8,12.8,0,0,1-2.48,2A5.4,5.4,0,0,1,980.58,413.71Zm1.35-4.41a10.75,10.75,0,0,0,4-.84V391.57a7.81,7.81,0,0,0-4-1.07,2.29,2.29,0,0,0-1.35.39,2.33,2.33,0,0,0-.82,1.13,8,8,0,0,0-.39,1.53,12.28,12.28,0,0,0-.15,1.86c-.06,3.13-.06,5.62,0,7.45a20.78,20.78,0,0,0,.15,2.39,13.26,13.26,0,0,0,.4,2,3.28,3.28,0,0,0,.84,1.5A1.82,1.82,0,0,0,981.93,409.3Z"/><path class="cls-1" d="M1003.94,413.71a8.07,8.07,0,0,1-3.39-.67,6.21,6.21,0,0,1-2.29-1.75,8.74,8.74,0,0,1-1.37-2.77,18.72,18.72,0,0,1-.72-3.38,38.84,38.84,0,0,1-.25-3.94c0-1.17,0-2.35,0-3.53.05-1.39.14-2.64.29-3.72a15.65,15.65,0,0,1,.76-3.16,7.8,7.8,0,0,1,1.42-2.52,6.15,6.15,0,0,1,2.29-1.58,8.38,8.38,0,0,1,3.3-.6,9.4,9.4,0,0,1,3,.45,5.49,5.49,0,0,1,2.18,1.37,9,9,0,0,1,1.45,2,10,10,0,0,1,.87,2.7c.19,1.06.33,2.09.41,3.11s.11,2.2.11,3.53v.63h-10.75v2.2c0,.52,0,1.06,0,1.61s.05,1.09.08,1.63a7.42,7.42,0,0,0,.23,1.52,6.92,6.92,0,0,0,.46,1.27,2.14,2.14,0,0,0,.77.86,2.07,2.07,0,0,0,1.16.31,2.77,2.77,0,0,0,1.39-.32,2,2,0,0,0,.8-1,5.77,5.77,0,0,0,.37-1.3,13.14,13.14,0,0,0,.13-1.64v-1.13H1012V405c-.13,2.87-.83,5-2.12,6.5S1006.61,413.71,1003.94,413.71Zm-2.65-16.49h5.34V395.6a18.7,18.7,0,0,0-.13-1.87,8.59,8.59,0,0,0-.37-1.6,2.41,2.41,0,0,0-.81-1.21,2.12,2.12,0,0,0-1.34-.42,2.16,2.16,0,0,0-1.37.44,2.52,2.52,0,0,0-.82,1.27,9,9,0,0,0-.37,1.62c-.07.54-.11,1.17-.13,1.91Z"/><path class="cls-1" d="M1015.94,413.33v-37.6h5.38v37.6Z"/><path class="cls-1" d="M1035.06,413.33v-37.6h8.34q5.89,0,8.32,2.41t2.42,8.33v14.77q0,6.19-2.46,9.14t-8.32,2.95Zm5.38-4h3a9.21,9.21,0,0,0,2.26-.24,3,3,0,0,0,1.54-.88,7.5,7.5,0,0,0,.92-1.22,4.79,4.79,0,0,0,.47-1.79c.09-.81.15-1.48.16-2s0-1.33,0-2.44V387.81c0-.68,0-1.23,0-1.64s0-.88-.06-1.43a10.33,10.33,0,0,0-.16-1.32c-.07-.32-.17-.67-.29-1.07a2.75,2.75,0,0,0-.48-.94,7.49,7.49,0,0,0-.69-.7,2.62,2.62,0,0,0-.94-.55,8.58,8.58,0,0,0-1.25-.29,9.74,9.74,0,0,0-1.6-.12h-2.85Z"/><path class="cls-1" d="M1058.84,382.44v-5.37h5.38v5.37Zm0,30.89V386.47h5.38v26.86Z"/><path class="cls-1" d="M1076.41,413.71a7.27,7.27,0,0,1-5.32-2,10.21,10.21,0,0,1-2.74-5.12l4-1.35c1,2.69,2.31,4,4,4a2.44,2.44,0,0,0,2.68-2.68,4,4,0,0,0-1.34-3.11l-5.37-4a12.3,12.3,0,0,1-1.51-1.15,10.42,10.42,0,0,1-1.24-1.3,5.41,5.41,0,0,1-1-1.75,6.4,6.4,0,0,1-.33-2.09,6.47,6.47,0,0,1,2.19-5.27,8.87,8.87,0,0,1,5.87-1.83,8.34,8.34,0,0,1,3.15.56,6.58,6.58,0,0,1,2.36,1.56,9.57,9.57,0,0,1,1.57,2.23,12.72,12.72,0,0,1,1,2.75l-4,1.34a12.45,12.45,0,0,0-.59-1.37,9,9,0,0,0-.79-1.26,3.57,3.57,0,0,0-1.16-1,3.13,3.13,0,0,0-1.49-.36,2.66,2.66,0,0,0-2,.7,2.69,2.69,0,0,0-.71,2,2.84,2.84,0,0,0,1.35,2.26l5.37,4a18.67,18.67,0,0,1,1.54,1.37,13.46,13.46,0,0,1,1.25,1.54,6.54,6.54,0,0,1,.92,1.94,8,8,0,0,1,.32,2.29,6.46,6.46,0,0,1-2.2,5.27A8.89,8.89,0,0,1,1076.41,413.71Z"/><path class="cls-1" d="M1095.34,413.71A8.07,8.07,0,0,1,1092,413a6.09,6.09,0,0,1-2.28-1.75,8.54,8.54,0,0,1-1.38-2.77,18.72,18.72,0,0,1-.72-3.38,38.84,38.84,0,0,1-.25-3.94c0-1.17,0-2.35,0-3.53,0-1.39.14-2.64.29-3.72a15.65,15.65,0,0,1,.76-3.16,7.8,7.8,0,0,1,1.42-2.52,6.15,6.15,0,0,1,2.29-1.58,8.38,8.38,0,0,1,3.3-.6,9.4,9.4,0,0,1,3,.45,5.49,5.49,0,0,1,2.18,1.37,9,9,0,0,1,1.45,2,10,10,0,0,1,.87,2.7c.19,1.06.33,2.09.41,3.11s.11,2.2.11,3.53v.63H1092.7v2.2c0,.52,0,1.06,0,1.61s0,1.09.07,1.63a7.42,7.42,0,0,0,.23,1.52,6.92,6.92,0,0,0,.46,1.27,2.21,2.21,0,0,0,.77.86,2.12,2.12,0,0,0,1.16.31,2.75,2.75,0,0,0,1.39-.32,2,2,0,0,0,.81-1,5.74,5.74,0,0,0,.36-1.3,11.46,11.46,0,0,0,.13-1.64v-1.13h5.33V405c-.13,2.87-.83,5-2.12,6.5S1098,413.71,1095.34,413.71Zm-2.64-16.49H1098V395.6a18.7,18.7,0,0,0-.13-1.87,9.42,9.42,0,0,0-.36-1.6,2.54,2.54,0,0,0-.81-1.21,2.37,2.37,0,0,0-2.72,0,2.58,2.58,0,0,0-.82,1.27,9.91,9.91,0,0,0-.37,1.62,16.77,16.77,0,0,0-.12,1.91Z"/><path class="cls-1" d="M1107.33,413.33V386.47h5.37v2.9c.8-.73,1.45-1.29,2-1.67a8.52,8.52,0,0,1,2.09-1.1,7.86,7.86,0,0,1,2.84-.51,3.48,3.48,0,0,1,2.79,1.26,4.58,4.58,0,0,1,1.07,3.09v22.89h-5.37V393.19a4,4,0,0,0-.4-2.05,1.74,1.74,0,0,0-1.61-.64,3.55,3.55,0,0,0-1.38.28,5.19,5.19,0,0,0-1,.53c-.22.16-.54.41-1,.76v21.26ZM1118.18,384a5.08,5.08,0,0,1-2.07-.46c-.71-.31-1.39-.61-2-.92a4.63,4.63,0,0,0-1.84-.45c-.68,0-1,.47-1,1.41H1108a6.75,6.75,0,0,1,1.2-4.08,4,4,0,0,1,3.41-1.65,7.3,7.3,0,0,1,3.05.9,6.93,6.93,0,0,0,2.85.9c.71,0,1.07-.48,1.07-1.44h3.23a6.81,6.81,0,0,1-1.21,4.12A3.94,3.94,0,0,1,1118.18,384Z"/><path class="cls-1" d="M1141.89,411.19c-1.24,1.68-3.31,2.52-6.19,2.52s-5-.84-6.19-2.52-1.87-4.1-1.87-7.26v-8.06q0-4.74,1.87-7.26c1.24-1.68,3.31-2.52,6.19-2.52s5,.84,6.19,2.52,1.87,4.1,1.87,7.26v8.06Q1143.76,408.67,1141.89,411.19Zm-7.19-2.05a3.2,3.2,0,0,0,2,0,2.56,2.56,0,0,0,.71-.42,1.66,1.66,0,0,0,.47-.71,7.92,7.92,0,0,0,.3-.83,5.09,5.09,0,0,0,.14-1c0-.44,0-.8.06-1.06s0-.64,0-1.16v-8.06c0-.52,0-.91,0-1.17s0-.61-.06-1.06a5.2,5.2,0,0,0-.14-1,7.92,7.92,0,0,0-.3-.83,1.77,1.77,0,0,0-.47-.72,2.53,2.53,0,0,0-.71-.4,3,3,0,0,0-2,0,2.53,2.53,0,0,0-.71.4,1.77,1.77,0,0,0-.47.72,7.92,7.92,0,0,0-.3.83,4.53,4.53,0,0,0-.14,1c0,.45,0,.81-.06,1.06s0,.65,0,1.17v8.06c0,.52,0,.9,0,1.16s0,.62.06,1.06a4.46,4.46,0,0,0,.14,1,7.92,7.92,0,0,0,.3.83,1.66,1.66,0,0,0,.47.71A2.56,2.56,0,0,0,1134.7,409.14Z"/></svg>