<svg id="Logos_Patrocinadores" data-name="Logos Patrocinadores" xmlns="http://www.w3.org/2000/svg" viewBox="0 0 1500 600"><defs><style>.cls-1{fill:#7a97ab;}</style></defs><path class="cls-1" d="M785.1,379.58c-4.6-.88-9.25-1.55-13.79-2.68-28-7-42.12-24.42-42.15-53.78a110.85,110.85,0,0,1,25-70.89c13.76-17.2,32.47-26.1,53.83-29.87,15.73-2.77,31.43-2.91,46.82,1.83,20.35,6.26,32.24,20.27,34.41,41.29,3.53,34.15-5.58,64.48-30.51,88.89-14.85,14.53-33.45,21.53-53.88,24.05-1.84.22-3.64.76-5.46,1.16Zm62.36-100.8c-.72-3.44-1.53-9-3.11-14.41-1.93-6.54-6.66-10.47-13.25-12.26-17.7-4.81-35.31,1.82-44.94,17.71a93.11,93.11,0,0,0-13.59,56.47c.84,11.07,7.45,19.15,18.22,21.39,16.09,3.34,30.28-1.06,40.5-15C842.51,317.37,846,299.51,847.46,278.78Z"/><path class="cls-1" d="M678.87,297.77c2.55.83,4.61,1.55,6.7,2.18,20.46,6.12,22.86,19,20.1,34-4.16,22.57-24.82,40-47.85,40.56-28.41.69-56.85.71-85.28,1a34.91,34.91,0,0,1-3.66-.39c2.12-10.08,4.17-19.89,6.25-29.69,8.08-38.15,16.26-76.28,24.14-114.47,1-4.69,2.51-6.39,7.54-6.3,23.07.4,46.14.23,69.21.53a78.93,78.93,0,0,1,15.9,1.88c22.65,4.93,31.7,23.49,22,44.62-6.09,13.31-17.49,19.79-30.67,24-1,.33-2.09.64-3.12,1C679.89,296.79,679.68,297.08,678.87,297.77Zm-63.72,49.87c10.45,0,20.37.65,30.18-.17,10.92-.92,16.74-7.21,18.77-18.06,1.71-9.17-2.26-15.43-11.55-16.39-8.92-.93-17.95-.79-26.94-.86-1.14,0-3.07,1.32-3.3,2.34C619.77,325.49,617.51,336.55,615.15,347.64ZM628.38,285a9.52,9.52,0,0,0,2.28.71c8.2,0,16.39,0,24.58-.26A19.89,19.89,0,0,0,674,270.33c2.47-9.21-1.35-17.26-9.24-18-8.61-.75-17.3-.54-26-.52-1.29,0-3.49,1-3.71,2C632.71,264.15,630.59,274.55,628.38,285Z"/><path class="cls-1" d="M1025.89,375.5c-14.2,0-27.92.08-41.63-.16-1,0-2.78-2.41-2.71-3.62.63-11.34,1.59-22.65,2.46-34,.2-2.67.57-5.34.59-8,.06-8.87-3.54-12.67-12.54-13-6.32-.22-12.65,0-19-.12-2.8-.06-3.69,1.14-4.25,3.8q-5.37,25.88-11.19,51.66c-.29,1.28-1.84,3.24-2.82,3.25-12.94.22-25.88.15-39.39.15,2.59-12.28,5.08-24.07,7.58-35.86,7.85-36.93,15.76-73.85,23.45-110.81.68-3.29,2-4.08,5-4.06,28.14.19,56.29-.09,84.41.6,15.65.39,27.29,4.36,30.29,22.32,1.15,6.88-.12,14.54-1.87,21.44-4.91,19.32-20.1,26.64-37.82,30.5a5.11,5.11,0,0,0-3.21,1.85c2.84.48,5.68.93,8.5,1.45,11.19,2.06,16.2,7.79,15.92,19.28-.31,12.94-1.22,25.86-1.76,38.8C1025.74,365.55,1025.89,370.13,1025.89,375.5ZM955.65,289a9.58,9.58,0,0,0,2,.62c8,0,16.08.05,24.13,0a22.46,22.46,0,0,0,21.62-16.54c3.33-11.84-.64-18.57-12.65-19.92-8.1-.91-16.34-.75-24.52-.74a4.73,4.73,0,0,0-3.49,2.79C960.24,266.34,958,277.55,955.65,289Z"/><path class="cls-1" d="M552.74,375.51c-14.91,0-29.28-.05-43.66,0-3.38,0-3.24-2.47-3.54-4.51-1.05-7.16-2.21-14.34-2.77-21.55-.3-3.71-1.92-4.39-5.11-4.37-17.23.08-34.47.11-51.7,0-3.34,0-5.23,1.26-6.72,4.08-4.08,7.66-8.25,15.28-12.59,22.79-.83,1.46-2.58,3.36-3.95,3.38-12.75.26-25.51.16-39.27.16,1.74-3,3-5.29,4.34-7.52Q429.91,298.54,472,229.07c1.87-3.1,3.87-4.4,7.48-4.36,13.76.17,27.52.24,41.27,0,3.92-.08,5.23,1.5,5.85,4.91q9.09,50.64,18.3,101.27,3.82,21.13,7.67,42.26C552.66,373.72,552.65,374.35,552.74,375.51ZM492.55,255.37l-1.68-.24c-11.05,20.51-22.09,41-33.47,62.12h41C496.44,296.25,494.5,275.81,492.55,255.37Z"/><path class="cls-1" d="M343.62,289.63h60.71c-2,9.21-3.73,17.92-5.91,26.51-.25,1-3,1.8-4.61,1.81-16.6.13-33.21.29-49.8,0-5.11-.1-7.07,1.5-8,6.5-3.27,17-7,33.83-10.63,50.88H284.08c10.64-50.13,21.21-99.88,31.82-149.83H422.49c-2,9.51-4,18.78-6.08,28.57h-5.17c-18.18,0-36.36.12-54.54-.09-4.17,0-6.08.81-6.82,5.38C348.28,269.22,345.87,279,343.62,289.63Z"/><path class="cls-1" d="M1058.25,225.09h26.8c5.37,0,10.76.24,16.12-.08,3.76-.23,5.47.89,6.59,4.68,5.12,17.36,10.61,34.61,16,51.88.58,1.89,1.39,3.71,2.36,6.27,1.63-2,2.82-3.45,3.93-4.93,13.46-18,27-35.89,40.29-53.94,2.19-3,4.56-4.32,8.27-4.26,10.75.19,21.5.06,32.26.08,1.35,0,2.7.2,5,.39-5.05,6.26-9.53,11.88-14.07,17.45-20.38,25-40.63,50.06-61.27,74.82-5.28,6.33-5.54,13.9-7.29,21.12-2.62,10.84-4.55,21.86-7,32.76-.34,1.52-1.84,4-2.84,4-13.08.27-26.17.18-39.82.18,2.27-11,4.4-21.45,6.6-31.9,1.34-6.31,3.15-12.54,4-18.91a20.33,20.33,0,0,0-1.3-9.58c-10.79-28.26-21.8-56.43-32.73-84.62C1059.69,229,1059.17,227.57,1058.25,225.09Z"/></svg>