<svg id="Logos_Patrocinadores" data-name="Logos Patrocinadores" xmlns="http://www.w3.org/2000/svg" viewBox="0 0 1500 600"><defs><style>.cls-1,.cls-2{fill:#7a97ab;}.cls-2{stroke:#7a97ab;stroke-miterlimit:10;}</style></defs><path class="cls-1" d="M68.49,124.51c4.31-8.44,11.37-10.69,20.54-10.68q216.44.27,432.88.13c15.29,0,20.21,5,20.22,20.35V330c0,15.38-5,20.36-20.22,20.36q-216.43,0-432.87.13c-9.18,0-16.24-2.25-20.55-10.67ZM304.58,337.2h214.5c9.81,0,9.87-.05,9.87-9.8q0-95.22,0-190.46c0-9.77-.06-9.83-9.84-9.84H91.44c-9.82,0-9.88.07-9.88,9.8q0,95.23,0,190.47c0,9.75.08,9.83,9.84,9.83Z"/><path class="cls-1" d="M911.94,206.33Q899.46,228,887,249.59c-5.72,10-13.93,10.19-19.67.38-7.47-12.75-14.76-25.61-22.15-38.41-1.06-1.82-2.22-3.58-4.24-6.82-.21,3.71-.41,5.76-.41,7.8,0,21.51-.07,43,0,64.53,0,5.27-.4,9.68-7.38,9.57-6.26-.11-7.68-1.71-7.69-9.83q0-44.31,0-88.64c0-3.89-1.37-8.64,4.38-10.22,6.7-1.85,13.31-.15,16.26,4.8,7.77,13.08,15.34,26.28,22.92,39.47,2.67,4.63,5.13,9.39,8,14.7,10.07-17.72,19.8-34.84,29.52-52,3.85-6.8,10.15-9.27,17.56-6.94,4.52,1.41,4.06,5.09,4.06,8.54q0,36.82,0,73.65c0,5.65-.13,11.3,0,16.95.16,5.31-.44,9.51-7.41,9.53-6.72,0-7.78-3.75-7.74-9.29.13-21.51,0-43,0-64.53v-6.21Z"/><path class="cls-1" d="M1410.49,255.08V239c0-18,.07-36.08,0-54.12,0-5.45,2.55-8.08,7.88-8.09s8,2.44,8,8c0,31.08.07,62.16-.19,93.24,0,2.48-2.2,6.79-3.85,7-3.92.57-8.26-.35-12.14-1.58-1.66-.52-2.64-3.3-3.85-5.1q-22.81-34.2-45.61-68.41c-.8-1.2-1.63-2.38-3.55-5.16v8.06c0,21.52,0,43,0,64.56,0,6.81-3,9.56-9,8.71-3.67-.51-6-2.17-6-6.31,0-32.17-.06-64.34.21-96.5,0-2.08,2.43-5.35,4.39-6,5-1.56,10-1,13.32,4q9.4,14.13,18.75,28.28,15.14,22.83,30.25,45.66Z"/><path class="cls-1" d="M1305,255.75c0,5.65-.16,11.3,0,16.94.22,5.92-2.64,9.76-8,11.19-16.92,4.48-33.9,5.7-50.56-1.14-10.6-4.35-16.94-12.8-20.47-23.29-5.85-17.43-5.71-35.11-.37-52.57,4.7-15.41,15.33-24.8,31.25-28.26a66.25,66.25,0,0,1,39.09,2.82c4.43,1.73,7.72,4.23,5.35,9.86s-5.89,5.08-11,3.36c-6.89-2.29-14.39-4.48-21.48-4.08-19,1.07-29.71,12.53-30.42,31.62-.33,8.84-.36,17.94,1.37,26.55,3.47,17.31,14.41,26.22,32.1,25.14,21.87-1.34,17.7,1,18.12-17.58v-.65c0-13.46,1-12.26-12.33-12.35-7.23-.05-9.49-2-8.33-8.12.39-2,3.16-5,5-5.11,8.24-.55,16.54-.28,24.81-.2,4.08,0,5.82,2.48,5.85,6.31,0,6.52,0,13,0,19.56Z"/><path class="cls-1" d="M753.22,177.81c5.76-.7,8.91,1.43,10.76,6.64,10.79,30.28,21.89,60.44,32.69,90.71,1.3,3.65,4.92,8.39-1.56,11-5.77,2.3-10.55-.08-13-6.16-2.08-5.25-3.53-10.79-6.07-15.79-1.1-2.17-4.19-4.62-6.47-4.71-11.3-.48-22.65-.45-34,0-2.09.08-5,2.43-5.92,4.47-2.43,5.31-3.85,11.06-5.88,16.56s-7,7.68-12.59,5.66c-4.47-1.6-3.56-4.88-2.43-8.05q6.07-17.21,12.31-34.34c7-19.4,14.23-38.74,21-58.22C744.22,179.72,747.29,176.59,753.22,177.81Zm-.2,20c-5.65,16.17-11,31.47-16.45,47h32.84C763.83,228.81,758.59,213.78,753,197.81Z"/><path class="cls-1" d="M1099.92,177.79c5.86-.94,8.83,2,10.69,7.2,10.93,30.68,22,61.3,33,92,1.09,3.05,3.49,6.68-1.27,9-4.54,2.22-11.12.38-12.94-3.95-2.36-5.6-4.43-11.34-6.23-17.14-1.3-4.22-3.71-5.8-8.11-5.7-10.66.23-21.33.21-32,0-4.18-.07-6.37,1.57-7.54,5.52-1.6,5.41-3.51,10.73-5.48,16a9.83,9.83,0,0,1-13.38,5.31c-4.39-2.13-2.27-5.6-1.26-8.46,5.26-14.95,10.69-29.84,16.08-44.75,5.68-15.73,11.52-31.39,17-47.19C1090.44,179.83,1093.65,176.75,1099.92,177.79Zm-17.09,67.32h33.05c-5.54-15.77-10.78-30.72-16.57-47.23C1093.54,214.4,1088.35,229.27,1082.83,245.11Z"/><path class="cls-1" d="M965.5,232.39c0-15.2,0-30.39,0-45.59,0-7.84,1.22-9.07,9.19-9,12,.12,24-.57,35.82,1,19.72,2.63,27.44,13.52,26.22,34.18-.89,15.24-13.23,26.77-30.14,27.81-6.72.41-13.49.29-20.24.13-4.19-.09-5.84,1.54-5.78,5.75.16,10.64-.09,21.28.1,31.92.09,5.41-1.94,8-7.58,8.06s-7.71-2.61-7.66-8C965.6,263.22,965.51,247.81,965.5,232.39Zm15.14-23.3c0,3.91.21,7.83,0,11.73-.31,4.69,1.4,6.82,6.33,6.58,5.65-.27,11.33.08,17-.1,11.87-.4,19.51-10.31,17-21.93-2.11-9.9-8.36-13.94-21.8-14.08C980.64,191.11,980.64,191.11,980.64,209.09Z"/><path class="cls-1" d="M622.84,232.18c.66,5.59.91,11.26,2.07,16.75,4,18.86,17.31,26.16,35.71,24.69,6.31-.5,12.54-3.29,18.56-5.65,4.19-1.65,7.05-1.33,9.3,2.7s1.42,7.11-2.3,9.52c-16,10.43-56.42,11.57-70-10.85-8.34-13.78-9.59-29.11-8.54-44.72a76.16,76.16,0,0,1,2.48-14.75c4.66-17.33,15.61-28.26,33.57-31.58,11.74-2.17,23.39-2,34.76,2,2.24.79,5.36,1.51,6.22,3.2a14.6,14.6,0,0,1,1.35,9.2c-.89,3.79-4.17,4.19-7.91,2.92-6.15-2.07-12.37-4.71-18.71-5.23-20.7-1.7-34.12,10.83-35.83,32.57-.24,3,0,6.08,0,9.13Z"/><path class="cls-1" d="M1172.43,231.47c0-15.2.08-30.41,0-45.62-.05-5.23,1.59-8.22,7.42-8.22s8.5,2.29,8.49,8.1q-.06,46.28,0,92.55c0,5.65-2.39,8.42-8.23,8.35-5.66-.06-7.67-3-7.65-8.23C1172.48,262.76,1172.44,247.11,1172.43,231.47Z"/><path class="cls-1" d="M221.65,255.39c0,5.22-.29,10.45.07,15.65.48,7-2.81,11.45-9.25,13-15,3.7-30.1,4.78-45.05-.07-13.29-4.3-21.38-13.79-25.18-27a86,86,0,0,1-.07-48.24c4.71-16.53,15.5-26.87,32.56-30.21,13.09-2.56,26-2.07,38.39,3.35,3.93,1.72,6.66,4.24,4.74,9.14-1.62,4.12-4,5.86-8.56,3.88-8.9-3.83-18-6.08-28-4.19-15,2.84-23.5,10.08-25.6,25.44a109.65,109.65,0,0,0,0,30.49c2.86,19.42,16.41,29.62,36.19,27.41,16.35-1.83,15,1.74,15.07-16.07v-.65c0-13.41,0-13.47-13.23-14.18-4.43-.24-7.64-1.34-7.67-6.67s3-6.61,7.56-6.54q10.46.17,20.91,0c5-.08,7.17,2.23,7.09,7.12-.09,6.08,0,12.17,0,18.25Z"/><path class="cls-1" d="M315.56,232.18c0-15.2.15-30.41-.08-45.61-.09-6.12,2.35-8.71,8.46-8.64,13.5.15,27,.08,40.5,0,4.47,0,7.62,1,7.7,6.42.09,5.79-3.24,6.81-8,6.76-9.15-.09-18.3.12-27.44-.06-4.73-.09-6.72,1.79-6.59,6.55.2,6.94.21,13.9,0,20.84-.15,4.87,2,6.5,6.69,6.4,8.49-.18,17,0,25.47,0,4.35-.05,7.11,1.27,7.2,6.21.09,5.26-3.09,5.94-7.26,5.9-8.28-.1-16.56.19-24.82-.09-5.31-.19-7.44,1.71-7.32,7.14.26,11.5-.05,23,.12,34.53.08,5.54-2.32,7.89-7.8,7.92-5.64,0-6.91-3.12-6.88-8C315.62,263,315.56,247.6,315.56,232.18Z"/><path class="cls-1" d="M425.42,238.08c0-13.24-.16-26.48.08-39.72.1-5.25-1.63-7.58-7.12-7.32-6.3.29-12.62,0-18.93.05-4.65,0-6.72-2.08-6.66-6.74.07-4.36,2.09-6.37,6.39-6.36h65.94c4.28,0,6.35,1.95,6.41,6.32.07,4.65-2,6.83-6.63,6.78-5.66-.07-11.34.29-17-.06-5.92-.37-8.05,1.84-8,7.85.23,26,.08,52.09.1,78.14,0,4.65-.42,8.85-6.48,9.31-5.3.41-8.24-1.34-8.17-7.22.17-13.68.05-27.35.05-41Z"/><path class="cls-1" d="M259.5,231.93c0-15-.06-29.93,0-44.9,0-7,2.07-9.08,8-9.12,6.19,0,7.64,3.6,7.63,8.89-.06,30.16,0,60.31-.06,90.47,0,7.05-2,9.09-8,9.12-6.16,0-7.68-3.6-7.65-8.9C259.55,262.31,259.5,247.12,259.5,231.93Z"/><path class="cls-2" d="M78.44,432a46.78,46.78,0,0,1,6.18.31q10.32,2,10.32,10.92a11.53,11.53,0,0,1-3.4,8.57,13.19,13.19,0,0,1-9,3.65v.13l14.82,18.85H94L79.17,455.73H71.93v18.66H69.14V432ZM92,443.13q0-4.77-3.62-6.7t-10.28-1.94H71.93v18.7h6.31q6.93,0,10.35-2.35T92,443.13Z"/><path class="cls-2" d="M107.87,459.25a18.87,18.87,0,0,1,1.62-8.09,12.4,12.4,0,0,1,4.44-5.32,11.28,11.28,0,0,1,6.35-1.86,10.67,10.67,0,0,1,8.31,3.42q3.12,3.41,3.11,10.74v1.11H110.53q0,7,3.08,10.3t8.67,3.28a19.74,19.74,0,0,0,8.38-1.68v2.38c-2,1.1-4.77,1.65-8.38,1.65q-6.93,0-10.67-4.16T107.87,459.25Zm12.41-13a8.58,8.58,0,0,0-6.64,3,12.52,12.52,0,0,0-3,7.72h18.5c-.06-3.51-.84-6.17-2.32-8A7.89,7.89,0,0,0,120.28,446.24Z"/><path class="cls-2" d="M147.3,488.29V485.5a21.94,21.94,0,0,0,4.19,1.62,19,19,0,0,0,4.53.47q11.17,0,11.18-11.9v-4.48h-.13a11.69,11.69,0,0,1-3.89,2.85,12.14,12.14,0,0,1-5.22,1.12,11.54,11.54,0,0,1-9.38-4.11q-3.41-4.11-3.41-11.31,0-7.36,3.54-11.57t9.88-4.21a9.75,9.75,0,0,1,5.19,1.29A15.14,15.14,0,0,1,167.2,448h.12l.38-3.26h2v31a17.58,17.58,0,0,1-1.58,8.08,10.15,10.15,0,0,1-4.63,4.55,17.08,17.08,0,0,1-7.66,1.53,26.3,26.3,0,0,1-5-.46A12.56,12.56,0,0,1,147.3,488.29Zm19.9-19.74V450.87a10.33,10.33,0,0,0-3.69-3.19,10.14,10.14,0,0,0-5-1.38,9.47,9.47,0,0,0-7.87,3.57q-2.82,3.57-2.83,9.82t2.69,9.73c1.78,2.28,4.37,3.41,7.76,3.41a10.93,10.93,0,0,0,4.71-1.14A13.45,13.45,0,0,0,167.2,468.55Z"/><path class="cls-2" d="M184.54,465.88a8.15,8.15,0,0,1,2.87-6.5,10.93,10.93,0,0,1,7.41-2.48,26.72,26.72,0,0,1,9.11,1.75v-3.81c0-2.82-.73-4.94-2.19-6.38s-3.79-2.16-7-2.16a24.93,24.93,0,0,0-7.61,1.49v-2.38a10.58,10.58,0,0,1,3.19-1,23.89,23.89,0,0,1,4.42-.43q5.94,0,8.83,2.7c1.92,1.8,2.89,4.52,2.89,8.16V464.9c0,2.09.08,5.26.25,9.49h-2.28l-.45-3.46h-.13a12.31,12.31,0,0,1-4.25,3,12.87,12.87,0,0,1-5.43,1.27,10.23,10.23,0,0,1-7-2.31Q184.53,470.54,184.54,465.88Zm19.39,2.38v-7.39a28.3,28.3,0,0,0-4.27-1.26,29,29,0,0,0-5.16-.36,7.88,7.88,0,0,0-5.41,1.73,6.21,6.21,0,0,0-2,4.9,6.75,6.75,0,0,0,1.93,5.29,7.41,7.41,0,0,0,5.11,1.73,11.07,11.07,0,0,0,5.75-1.37A17.23,17.23,0,0,0,203.93,468.26Z"/><path class="cls-2" d="M223.62,428.43h2.53v46h-2.53Z"/><path class="cls-2" d="M241.11,459.63q0-7.11,3.64-11.38a12.06,12.06,0,0,1,9.66-4.27,11.91,11.91,0,0,1,9.63,4.26q3.57,4.25,3.57,11.39,0,6.94-3.65,11.25a11.9,11.9,0,0,1-9.55,4.3,12.09,12.09,0,0,1-9.68-4.23Q241.12,466.71,241.11,459.63Zm23.84,0q0-6.12-2.86-9.73a9.28,9.28,0,0,0-7.68-3.6,9.43,9.43,0,0,0-7.76,3.59q-2.86,3.58-2.87,9.74t2.84,9.65a9.42,9.42,0,0,0,7.79,3.55,9.32,9.32,0,0,0,7.71-3.54C264,466.94,265,463.71,265,459.63Z"/><path class="cls-2" d="M280.22,473.66V471a16.59,16.59,0,0,0,8.07,1.88,9.36,9.36,0,0,0,6-1.76,6,6,0,0,0,2.2-4.94,4.67,4.67,0,0,0-1.46-3.71,11.46,11.46,0,0,0-4.88-2.13,36,36,0,0,1-5.14-1.59,7.91,7.91,0,0,1-3.27-2.41,6.48,6.48,0,0,1-1.27-4.19,7.1,7.1,0,0,1,2.79-6.17,11.92,11.92,0,0,1,7.14-2,16.47,16.47,0,0,1,7.4,1.69v2.47a21.27,21.27,0,0,0-3.57-1.41,14.75,14.75,0,0,0-4-.49,8.5,8.5,0,0,0-5.44,1.49,5.09,5.09,0,0,0-1.86,4.22,4.57,4.57,0,0,0,.87,3,5.48,5.48,0,0,0,2.4,1.63,43.63,43.63,0,0,0,4.6,1.33,14.18,14.18,0,0,1,6.24,2.91A6.81,6.81,0,0,1,299,466a8.4,8.4,0,0,1-2.86,6.68,11.45,11.45,0,0,1-7.8,2.49Q283,475.18,280.22,473.66Z"/><path class="cls-2" d="M329.85,459.76q0-7.25,3.49-11.51a11.5,11.5,0,0,1,9.37-4.27,12.62,12.62,0,0,1,5.28,1,10,10,0,0,1,3.89,3.21H352l-.13-3.59V428.43h2.54v40.12q0,3.68.19,5.84H352.7l-.69-3.46h-.13a10.28,10.28,0,0,1-3.95,3,12.25,12.25,0,0,1-5.29,1.27,12.73,12.73,0,0,1-6.38-1.63,11.83,11.83,0,0,1-4.65-5.1A19.09,19.09,0,0,1,329.85,459.76Zm22,7.93V450.87q-3.9-4.58-9.11-4.57a8.9,8.9,0,0,0-7.51,3.65c-1.83,2.43-2.74,5.75-2.74,9.93s.9,7.21,2.71,9.51a9,9,0,0,0,7.48,3.44,10.64,10.64,0,0,0,5.39-1.44A9.89,9.89,0,0,0,351.88,467.69Z"/><path class="cls-2" d="M369.38,459.25a18.87,18.87,0,0,1,1.62-8.09,12.4,12.4,0,0,1,4.44-5.32,11.28,11.28,0,0,1,6.35-1.86,10.67,10.67,0,0,1,8.31,3.42q3.11,3.41,3.11,10.74v1.11H372q0,7,3.08,10.3t8.67,3.28a19.74,19.74,0,0,0,8.38-1.68v2.38c-2,1.1-4.77,1.65-8.38,1.65q-6.93,0-10.67-4.16T369.38,459.25Zm12.41-13a8.58,8.58,0,0,0-6.64,3,12.52,12.52,0,0,0-3,7.72h18.5c-.06-3.51-.84-6.17-2.32-8A7.89,7.89,0,0,0,381.79,446.24Z"/><path class="cls-2" d="M425.19,459.25a18.87,18.87,0,0,1,1.62-8.09,12.54,12.54,0,0,1,4.44-5.32A11.31,11.31,0,0,1,437.6,444a10.71,10.71,0,0,1,8.32,3.42q3.1,3.41,3.11,10.74v1.11H427.86q0,7,3.08,10.3t8.66,3.28a19.68,19.68,0,0,0,8.38-1.68v2.38q-3,1.65-8.38,1.65-6.92,0-10.66-4.16T425.19,459.25Zm12.41-13a8.58,8.58,0,0,0-6.63,3,12.53,12.53,0,0,0-3.05,7.72h18.5q-.09-5.26-2.31-8A7.9,7.9,0,0,0,437.6,446.24Z"/><path class="cls-2" d="M466.72,444.75l.5,4.15h.07a15.67,15.67,0,0,1,4.28-3.69A10.74,10.74,0,0,1,476.9,444a10.06,10.06,0,0,1,6.13,1.75A8.6,8.6,0,0,1,486.2,450h.13a16.07,16.07,0,0,1,4.55-4.55,10.53,10.53,0,0,1,5.61-1.48c3.25,0,5.74.94,7.44,2.81s2.55,4.5,2.55,7.89v19.71H504V455.28c0-6-2.56-9-7.65-9A8.52,8.52,0,0,0,491,448a17.43,17.43,0,0,0-4.14,4.77v21.65h-2.54v-20a8.33,8.33,0,0,0-2-5.9,7.47,7.47,0,0,0-5.73-2.16,9.34,9.34,0,0,0-5,1.37,18.17,18.17,0,0,0-4.32,4v22.76h-2.54V444.75Z"/><path class="cls-2" d="M525.06,444.75l.79,3.46h.07a11.38,11.38,0,0,1,4.11-3,12.09,12.09,0,0,1,5.06-1.19q6.23,0,9.51,4c2.19,2.67,3.28,6.45,3.28,11.31q0,6.29-2.16,9.83a11.44,11.44,0,0,1-5,4.79,14,14,0,0,1-5.6,1.25,12,12,0,0,1-9.24-3.65h-.06l.06,5.78v11.84h-2.53v-44.4Zm20.15,14.63q0-6.22-2.66-9.65a8.9,8.9,0,0,0-7.46-3.43,11.34,11.34,0,0,0-9.24,4.95v17.68a14.64,14.64,0,0,0,4.31,3,12.09,12.09,0,0,0,4.87.92,10.77,10.77,0,0,0,7-2.65C544.14,468.42,545.21,464.81,545.21,459.38Z"/><path class="cls-2" d="M564.87,444.75l.45,5.26h.06a13.37,13.37,0,0,1,5-4.31A13.81,13.81,0,0,1,577,444h.83v2.51H577a13,13,0,0,0-6.71,1.9,12.74,12.74,0,0,0-4.87,5v21h-2.54V444.75Z"/><path class="cls-2" d="M587.76,459.25a18.87,18.87,0,0,1,1.62-8.09,12.49,12.49,0,0,1,4.45-5.32,11.28,11.28,0,0,1,6.34-1.86,10.7,10.7,0,0,1,8.32,3.42q3.1,3.41,3.11,10.74v1.11H590.43q0,7,3.08,10.3t8.66,3.28a19.68,19.68,0,0,0,8.38-1.68v2.38q-3,1.65-8.38,1.65-6.92,0-10.66-4.16T587.76,459.25Zm12.41-13a8.58,8.58,0,0,0-6.63,3,12.59,12.59,0,0,0-3,7.72H609q-.11-5.26-2.32-8A7.9,7.9,0,0,0,600.17,446.24Z"/><path class="cls-2" d="M624.91,473.66V471A16.52,16.52,0,0,0,633,472.9a9.34,9.34,0,0,0,6-1.76,6,6,0,0,0,2.21-4.94,4.7,4.7,0,0,0-1.46-3.71,11.51,11.51,0,0,0-4.89-2.13,36.4,36.4,0,0,1-5.14-1.59,8,8,0,0,1-3.27-2.41,6.48,6.48,0,0,1-1.27-4.19,7.1,7.1,0,0,1,2.79-6.17,12,12,0,0,1,7.14-2,16.47,16.47,0,0,1,7.4,1.69v2.47a21.27,21.27,0,0,0-3.57-1.41,14.65,14.65,0,0,0-4-.49,8.5,8.5,0,0,0-5.44,1.49,5.09,5.09,0,0,0-1.86,4.22,4.57,4.57,0,0,0,.88,3,5.5,5.5,0,0,0,2.39,1.63,43.24,43.24,0,0,0,4.61,1.33,14.19,14.19,0,0,1,6.23,2.91,6.81,6.81,0,0,1,2,5.22,8.43,8.43,0,0,1-2.85,6.68,11.5,11.5,0,0,1-7.81,2.49Q627.65,475.18,624.91,473.66Z"/><path class="cls-2" d="M655.86,465.88a8.16,8.16,0,0,1,2.88-6.5,10.93,10.93,0,0,1,7.41-2.48,26.72,26.72,0,0,1,9.11,1.75v-3.81c0-2.82-.73-4.94-2.19-6.38s-3.79-2.16-7-2.16a24.93,24.93,0,0,0-7.61,1.49v-2.38a10.48,10.48,0,0,1,3.19-1,23.89,23.89,0,0,1,4.42-.43q5.94,0,8.83,2.7t2.88,8.16V464.9c0,2.09.09,5.26.26,9.49h-2.29l-.44-3.46h-.13a12.31,12.31,0,0,1-4.25,3,12.87,12.87,0,0,1-5.43,1.27,10.28,10.28,0,0,1-7-2.31C656.75,471.32,655.86,469,655.86,465.88Zm19.4,2.38v-7.39a28.3,28.3,0,0,0-4.27-1.26,29,29,0,0,0-5.16-.36,7.88,7.88,0,0,0-5.41,1.73,6.21,6.21,0,0,0-1.95,4.9,6.75,6.75,0,0,0,1.93,5.29,7.41,7.41,0,0,0,5.11,1.73,11.07,11.07,0,0,0,5.75-1.37A17.44,17.44,0,0,0,675.26,468.26Z"/><path class="cls-2" d="M709.3,444.75H712q9,24.24,10,26.91h.25l10.38-26.91h2.73l-17.93,44.4h-2.73l5.93-14.51Z"/><path class="cls-2" d="M764.61,465.88a8.15,8.15,0,0,1,2.87-6.5,10.93,10.93,0,0,1,7.41-2.48,26.68,26.68,0,0,1,9.11,1.75v-3.81c0-2.82-.73-4.94-2.19-6.38s-3.79-2.16-7-2.16a24.93,24.93,0,0,0-7.62,1.49v-2.38a10.58,10.58,0,0,1,3.19-1,24,24,0,0,1,4.43-.43q5.92,0,8.82,2.7t2.89,8.16V464.9c0,2.09.08,5.26.25,9.49h-2.28l-.45-3.46h-.12a12.46,12.46,0,0,1-4.26,3,12.86,12.86,0,0,1-5.42,1.27,10.26,10.26,0,0,1-7-2.31Q764.61,470.54,764.61,465.88ZM784,468.26v-7.39a28.3,28.3,0,0,0-4.27-1.26,29,29,0,0,0-5.16-.36,7.9,7.9,0,0,0-5.41,1.73,6.21,6.21,0,0,0-1.95,4.9,6.76,6.76,0,0,0,1.94,5.29,7.39,7.39,0,0,0,5.11,1.73,11,11,0,0,0,5.74-1.37A17.23,17.23,0,0,0,784,468.26Z"/><path class="cls-2" d="M805.72,444.75l.44,5.26h.07a13.41,13.41,0,0,1,5-4.31,13.88,13.88,0,0,1,6.62-1.72h.83v2.51h-.83a13,13,0,0,0-6.71,1.9,12.74,12.74,0,0,0-4.87,5v21h-2.54V444.75Z"/><path class="cls-2" d="M831.66,467.31V447.16h-5.87v-2.41h5.87v-7.94h2.54v7.94h9.08v2.41H834.2v19.42q0,3.44,1.33,4.84a5.54,5.54,0,0,0,4.19,1.41,12.33,12.33,0,0,0,4-.54v2.23a13.94,13.94,0,0,1-4.5.66,7.63,7.63,0,0,1-5.58-2Q831.66,471.25,831.66,467.31Z"/><path class="cls-2" d="M857.31,474.39V444.75h2.54v29.64Zm.54-35.68,4-11.07h3.34l-5.08,11.07Z"/><path class="cls-2" d="M874.81,459.82a18.16,18.16,0,0,1,2.05-9.19,12.37,12.37,0,0,1,5.16-5.09,14.19,14.19,0,0,1,6.44-1.56,20.71,20.71,0,0,1,4.35.46,12.38,12.38,0,0,1,3.43,1.23v2.6a16.79,16.79,0,0,0-3.8-1.43,16.54,16.54,0,0,0-4-.54,10.9,10.9,0,0,0-5.26,1.35,10,10,0,0,0-4.07,4.39,17,17,0,0,0-1.59,7.84q0,5.94,3.11,9.45a10.63,10.63,0,0,0,8.38,3.5,20.29,20.29,0,0,0,7.74-1.81v2.38a17.41,17.41,0,0,1-7.93,1.78,14.82,14.82,0,0,1-7.07-1.68,12.27,12.27,0,0,1-5-5.13A17.79,17.79,0,0,1,874.81,459.82Z"/><path class="cls-2" d="M910.56,463V444.75h2.54v18.91c0,3.26.75,5.6,2.27,7a8.61,8.61,0,0,0,6.17,2.14,9.64,9.64,0,0,0,4.68-1,6.85,6.85,0,0,0,2.83-2.89,12.27,12.27,0,0,0,.93-5.37V444.75h2.54v18.34a19.66,19.66,0,0,1-.63,5.59,8.78,8.78,0,0,1-2.16,3.57,9.18,9.18,0,0,1-3.52,2.23,15,15,0,0,1-9.4-.11,9.69,9.69,0,0,1-3.54-2.25,8.71,8.71,0,0,1-2.06-3.38A19.14,19.14,0,0,1,910.56,463Z"/><path class="cls-2" d="M949,428.43h2.54v46H949Z"/><path class="cls-2" d="M966.53,459.63q0-7.11,3.64-11.38a13,13,0,0,1,19.3,0q3.57,4.25,3.57,11.39,0,6.94-3.65,11.25a11.93,11.93,0,0,1-9.56,4.3,12.11,12.11,0,0,1-9.68-4.23Q966.54,466.71,966.53,459.63Zm23.84,0q0-6.12-2.86-9.73a9.28,9.28,0,0,0-7.68-3.6,9.43,9.43,0,0,0-7.76,3.59q-2.87,3.58-2.87,9.74t2.84,9.65a10.25,10.25,0,0,0,15.51,0C989.43,466.94,990.37,463.71,990.37,459.63Z"/><path class="cls-2" d="M1005.65,473.66V471a16.52,16.52,0,0,0,8.06,1.88,9.34,9.34,0,0,0,6-1.76,6,6,0,0,0,2.21-4.94,4.7,4.7,0,0,0-1.46-3.71,11.57,11.57,0,0,0-4.89-2.13,36,36,0,0,1-5.14-1.59,7.91,7.91,0,0,1-3.27-2.41,6.48,6.48,0,0,1-1.27-4.19,7.1,7.1,0,0,1,2.79-6.17,11.92,11.92,0,0,1,7.14-2,16.47,16.47,0,0,1,7.4,1.69v2.47a21.27,21.27,0,0,0-3.57-1.41,14.7,14.7,0,0,0-4-.49,8.5,8.5,0,0,0-5.44,1.49,5.09,5.09,0,0,0-1.86,4.22,4.52,4.52,0,0,0,.88,3,5.5,5.5,0,0,0,2.39,1.63,43.63,43.63,0,0,0,4.6,1.33,14.18,14.18,0,0,1,6.24,2.91,6.81,6.81,0,0,1,1.95,5.22,8.43,8.43,0,0,1-2.85,6.68,11.5,11.5,0,0,1-7.81,2.49C1010.15,475.18,1007.47,474.67,1005.65,473.66Z"/><path class="cls-2" d="M1059.21,444.75l.79,3.46h.07a11.38,11.38,0,0,1,4.11-3,12.09,12.09,0,0,1,5.06-1.19q6.21,0,9.5,4c2.19,2.67,3.29,6.45,3.29,11.31q0,6.29-2.16,9.83a11.49,11.49,0,0,1-5,4.79,14.05,14.05,0,0,1-5.6,1.25,12,12,0,0,1-9.24-3.65h-.06l.06,5.78v11.84h-2.54v-44.4Zm20.15,14.63q0-6.22-2.66-9.65a8.91,8.91,0,0,0-7.46-3.43,11.34,11.34,0,0,0-9.24,4.95v17.68a14.61,14.61,0,0,0,4.3,3,12.12,12.12,0,0,0,4.87.92,10.73,10.73,0,0,0,6.95-2.65C1078.28,468.42,1079.36,464.81,1079.36,459.38Z"/><path class="cls-2" d="M1096.35,463V444.75h2.54v18.91q0,4.89,2.27,7a8.61,8.61,0,0,0,6.17,2.14,9.65,9.65,0,0,0,4.69-1,6.83,6.83,0,0,0,2.82-2.89,12.25,12.25,0,0,0,.94-5.37V444.75h2.54v18.34a19.61,19.61,0,0,1-.64,5.59,8.67,8.67,0,0,1-2.16,3.57,9.1,9.1,0,0,1-3.52,2.23,15,15,0,0,1-9.39-.11,9.69,9.69,0,0,1-3.54-2.25,8.74,8.74,0,0,1-2.07-3.38A19.14,19.14,0,0,1,1096.35,463Z"/><path class="cls-2" d="M1137.31,470.93h-.07l-.32,3.46h-2.28q.19-4.67.19-9.3V428.43h2.54v20h.06a11.55,11.55,0,0,1,4.07-3.27,11.82,11.82,0,0,1,5.3-1.21q6.06,0,9.33,3.92t3.27,11.6a19.23,19.23,0,0,1-1.77,8.68,11.95,11.95,0,0,1-11.09,7,11,11,0,0,1-5.35-1.2A15.66,15.66,0,0,1,1137.31,470.93Zm19.42-11.43q0-13.2-9.87-13.2-5.55,0-9.49,4.89v16.95a12.57,12.57,0,0,0,3.54,3.22,10,10,0,0,0,5.51,1.47,9,9,0,0,0,7.53-3.58Q1156.72,465.67,1156.73,459.5Z"/><path class="cls-2" d="M1174.35,428.43h2.54v46h-2.54Z"/><path class="cls-2" d="M1193.85,434.75h2.92v3h-2.92Zm.19,10h2.54v29.64H1194Z"/><path class="cls-2" d="M1211.54,459.82a18.16,18.16,0,0,1,2-9.19,12.4,12.4,0,0,1,5.15-5.09,14.23,14.23,0,0,1,6.45-1.56,20.71,20.71,0,0,1,4.35.46,12.3,12.3,0,0,1,3.42,1.23v2.6a17.86,17.86,0,0,0-7.84-2,10.86,10.86,0,0,0-5.25,1.35,10.11,10.11,0,0,0-4.08,4.39,17,17,0,0,0-1.58,7.84q0,5.94,3.11,9.45a10.61,10.61,0,0,0,8.38,3.5,20.29,20.29,0,0,0,7.74-1.81v2.38a17.45,17.45,0,0,1-7.94,1.78,14.81,14.81,0,0,1-7.06-1.68,12.27,12.27,0,0,1-5-5.13A17.67,17.67,0,0,1,1211.54,459.82Z"/><path class="cls-2" d="M1247.73,434.75h2.92v3h-2.92Zm.19,10h2.54v29.64h-2.54Z"/><path class="cls-2" d="M1268.47,467.31V447.16h-5.87v-2.41h5.87v-7.94H1271v7.94h9.07v2.41H1271v19.42q0,3.44,1.33,4.84a5.52,5.52,0,0,0,4.19,1.41,12.37,12.37,0,0,0,4-.54v2.23a14,14,0,0,1-4.51.66,7.61,7.61,0,0,1-5.57-2Q1268.47,471.25,1268.47,467.31Z"/><path class="cls-2" d="M1291.77,465.88a8.16,8.16,0,0,1,2.88-6.5,10.93,10.93,0,0,1,7.41-2.48,26.72,26.72,0,0,1,9.11,1.75v-3.81c0-2.82-.73-4.94-2.19-6.38s-3.79-2.16-7-2.16a24.93,24.93,0,0,0-7.61,1.49v-2.38a10.48,10.48,0,0,1,3.19-1A23.89,23.89,0,0,1,1302,444q5.94,0,8.83,2.7c1.92,1.8,2.89,4.52,2.89,8.16V464.9c0,2.09.08,5.26.25,9.49h-2.29l-.44-3.46h-.13a12.31,12.31,0,0,1-4.25,3,12.87,12.87,0,0,1-5.43,1.27,10.28,10.28,0,0,1-7-2.31C1292.66,471.32,1291.77,469,1291.77,465.88Zm19.4,2.38v-7.39a28.3,28.3,0,0,0-4.27-1.26,29,29,0,0,0-5.16-.36,7.88,7.88,0,0,0-5.41,1.73,6.21,6.21,0,0,0-1.95,4.9,6.75,6.75,0,0,0,1.93,5.29,7.41,7.41,0,0,0,5.11,1.73,11.07,11.07,0,0,0,5.75-1.37A17.44,17.44,0,0,0,1311.17,468.26Z"/><path class="cls-2" d="M1332.88,444.75l.45,5.26h.06a13.37,13.37,0,0,1,5-4.31A13.85,13.85,0,0,1,1345,444h.82v2.51H1345a13,13,0,0,0-6.72,1.9,12.81,12.81,0,0,0-4.87,5v21h-2.54V444.75Z"/><path class="cls-2" d="M1357.78,434.75h2.92v3h-2.92Zm.19,10h2.54v29.64H1358Z"/><path class="cls-2" d="M1375.46,459.63q0-7.11,3.64-11.38a12.06,12.06,0,0,1,9.66-4.27,11.93,11.93,0,0,1,9.64,4.26q3.57,4.25,3.57,11.39,0,6.94-3.65,11.25a11.93,11.93,0,0,1-9.56,4.3,12.11,12.11,0,0,1-9.68-4.23Q1375.47,466.71,1375.46,459.63Zm23.84,0q0-6.12-2.86-9.73a9.28,9.28,0,0,0-7.68-3.6,9.43,9.43,0,0,0-7.76,3.59q-2.87,3.58-2.87,9.74t2.84,9.65a10.25,10.25,0,0,0,15.51,0C1398.36,466.94,1399.3,463.71,1399.3,459.63Z"/><path class="cls-2" d="M1414.58,473.66V471a16.52,16.52,0,0,0,8.06,1.88,9.34,9.34,0,0,0,6-1.76,6,6,0,0,0,2.21-4.94,4.7,4.7,0,0,0-1.46-3.71,11.57,11.57,0,0,0-4.89-2.13,36,36,0,0,1-5.14-1.59,8,8,0,0,1-3.27-2.41,6.48,6.48,0,0,1-1.27-4.19,7.1,7.1,0,0,1,2.79-6.17,11.92,11.92,0,0,1,7.14-2,16.47,16.47,0,0,1,7.4,1.69v2.47a21.27,21.27,0,0,0-3.57-1.41,14.7,14.7,0,0,0-4-.49,8.5,8.5,0,0,0-5.44,1.49,5.09,5.09,0,0,0-1.86,4.22,4.52,4.52,0,0,0,.88,3,5.5,5.5,0,0,0,2.39,1.63,43.63,43.63,0,0,0,4.6,1.33,14.18,14.18,0,0,1,6.24,2.91,6.81,6.81,0,0,1,2,5.22,8.43,8.43,0,0,1-2.85,6.68,11.5,11.5,0,0,1-7.81,2.49C1419.08,475.18,1416.4,474.67,1414.58,473.66Z"/></svg>