<svg id="Logos_Patrocinadores" data-name="Logos Patrocinadores" xmlns="http://www.w3.org/2000/svg" viewBox="0 0 1500 600"><defs><style>.cls-1,.cls-2{fill:#7a97ab;}.cls-1{fill-rule:evenodd;}</style></defs><path class="cls-1" d="M528.55,360c20.34-28.8-58.15-59.16-58.15-59.16l27-2.07s77.89-7.24,62.87,16.54Z"/><path class="cls-1" d="M528.62,360l31.79-44.69a46.19,46.19,0,0,1-4.25,5.1c-30,29.7-155.71,21.28-155.71-52.59a44.56,44.56,0,0,1,.65-7.84,33,33,0,0,1,1.78-6.29L377.44,322a48.59,48.59,0,0,0-2.31,15.08c0,74,120.77,56.18,150.56,26.39A26.43,26.43,0,0,0,528.62,360Z"/><path class="cls-1" d="M377.33,322c18.9-58.32,147.51-54.78,147.51-54.78l30.64,1.13s-132.94-63.82-152.7-14.63Z"/><path class="cls-2" d="M400.4,370.5c-13.48-8.55-22.33-22.2-22.32-42.16h0a45,45,0,0,1,13.68-33h0c8.47-8.42,20.17-14.45,33.16-18.76h0c26-8.62,57.24-10.37,78.57-10.38h0c14.89,0,35.18,1.82,35.18,1.82h-4.9s-27.47-.66-30.28-.66h0c-31.88,0-86.08,4-110.92,28.8h0a43.78,43.78,0,0,0-13.35,32.24h0c0,19.61,8.6,32.79,21.8,41.19h0c13.19,8.4,31,11.93,49.41,11.92h0c31.61,0,64.8-10.48,78.28-24h0c4.33-4.33,6.11-8.52,6.11-12.57h0c0-8.7-8.44-17.16-19.25-24.18h0c-10.77-7-23.74-12.66-32.39-16h0c-5.76-2.24-9.59-3.49-9.59-3.49h0l1.49-.7s33.57,10.85,51.07,26.85h0c5.83,5.33,9.8,11.24,9.81,17.56h0c0,4.4-2,8.91-6.44,13.38h0c-13.93,13.89-47.21,24.32-79.09,24.34h0c-18.51,0-36.56-3.53-50-12.09Z"/><path class="cls-2" d="M395.94,377.75c-12.73-8.25-21-21.46-21-40.8h0c0-16.73,7.65-29.54,19.45-39.24h0c11.78-9.7,27.69-16.34,44.33-20.9h0c33.28-9.13,69.52-10,81.66-10h0c2.7,0,4.2.05,4.2.05L545.34,268h-25c-18.11,0-90.5,1.92-125.29,30.62h0c-11.6,9.55-19,22-19,38.37h0c0,19,8,31.77,20.48,39.88h0c12.46,8.1,29.38,11.49,47,11.48h0c32.45,0,67.36-11.47,81.35-25.48h0c4.34-4.36,6.13-8.68,6.14-13h0c0-9.14-8.42-18.35-19.14-26.18h0c-10.72-7.83-23.6-14.3-32.19-18.21h0c-5.73-2.62-9.54-4.08-9.54-4.08l1.42-.67s33.46,12.94,50.83,30.42h0c5.78,5.82,9.72,12.16,9.73,18.72h0c0,4.6-2,9.24-6.47,13.74h0c-14.41,14.36-49.41,25.81-82.13,25.81h0c-17.79,0-34.9-3.39-47.63-11.67Z"/><path class="cls-2" d="M404.91,363.28c-14.24-8.85-23.71-23-23.71-43.55h0c0-23.48,15.21-37.46,35.77-45.43h0c20.57-8,46.59-10.11,68.72-10.11h0c26,0,58.1,3.8,58.1,3.8l-12.44,0-12.74-1.13h0c-8.37-.74-20-1.48-32.92-1.48h0c-22.05,0-48,2.16-68.3,10h0c-20.34,7.93-35,21.43-35,44.33h0c0,20.21,9.19,33.84,23.15,42.55h0c14,8.7,32.77,12.38,51.84,12.38h0c30.72,0,62.15-9.57,75.13-22.6h0c4.32-4.31,6.08-8.38,6.08-12.21h0c0-8.26-8.47-15.94-19.34-22.16h0c-10.85-6.23-23.9-11-32.6-13.86h0c-5.82-1.89-9.66-2.9-9.66-2.9h0l1.72-.74s33.52,8.77,51.16,23.26h0c5.87,4.84,9.9,10.33,9.91,16.4h0c0,4.21-2,8.59-6.42,13h0c-13.45,13.41-45,22.93-76,22.95h0c-19.22,0-38.21-3.7-52.46-12.56Z"/><path class="cls-2" d="M409.48,356.11c-15.05-9.18-25.16-23.78-25.14-45h0c0-20.42,11.57-33.06,28.17-40.41h0c16.61-7.37,38.26-9.65,58.81-9.65h0c33.9,0,70.51,6.92,70.51,6.92l-8.37,0s-11.23-1.83-17.19-2.6h0a358.76,358.76,0,0,0-44.95-3.09h0c-20.46,0-42,2.28-58.32,9.55h0c-16.34,7.29-27.43,19.38-27.45,39.3h0c0,20.81,9.8,34.92,24.56,44h0c14.76,9,34.53,12.88,54.28,12.88h0c29.72,0,59.42-8.75,71.91-21.28h0c4.29-4.3,6.05-8.24,6.05-11.85h0c0-3.91-2.08-7.58-5.59-11h0c-3.49-3.4-8.39-6.47-13.84-9.18h0C512,309.25,498.85,305.3,490.08,303h0c-5.83-1.53-9.72-2.31-9.72-2.31h0l1.95-.82s33.46,6.72,51.24,19.72h0c5.91,4.34,10,9.4,10,15.23h0c0,4-2,8.27-6.4,12.71h0c-13,12.92-42.8,21.61-72.76,21.63h0c-19.91,0-39.87-3.86-54.91-13.06Z"/><path class="cls-2" d="M414.08,349c-15.86-9.52-26.62-24.63-26.6-46.47h0c0-18.07,9.1-29.57,22.76-36.38h0c13.66-6.83,31.84-9.12,50.27-9.12h0c39.15,0,82.3,11,82.3,11h-5.74l-4.29-1h0c-4.37-1-10.62-2.26-18.08-3.56h0c-14.93-2.6-34.73-5.19-54.19-5.18h0c-18.32,0-36.36,2.3-49.71,9h0c-13.36,6.71-22.07,17.64-22.09,35.27h0c0,21.41,10.45,36,26,45.4h0c15.56,9.39,36.3,13.43,56.71,13.42h0c28.67,0,56.67-8,68.66-20h0c4.27-4.28,6-8.1,6-11.49h0c0-3.69-2.06-7.05-5.58-10.11h0c-3.51-3-8.44-5.73-13.93-8h0c-11-4.63-24.22-7.73-33.05-9.48h0c-5.88-1.16-9.77-1.72-9.77-1.72h0l2.22-.91s33.35,4.68,51.25,16.18h0c6,3.84,10.1,8.48,10.12,14.08h0c0,3.83-2,7.95-6.38,12.36h0c-12.47,12.43-40.63,20.39-69.53,20.4h0c-20.57,0-41.5-4.06-57.36-13.59Z"/><path class="cls-2" d="M418.73,341.9c-16.69-9.88-28.14-25.52-28.12-48h0c0-16.19,7.36-26.75,18.79-33.08h0c11.44-6.34,26.86-8.59,43.19-8.6h0c42.49,0,92.75,15.76,92.75,15.76l-4.64,0s-.3-.15-5.52-1.58h0c-5.21-1.43-12.61-3.34-21.33-5.24h0c-17.44-3.82-40.16-7.64-61.26-7.64h0c-16.21,0-31.45,2.27-42.57,8.44h0c-11.1,6.2-18.12,16.17-18.15,32h0c0,22,11.1,37.14,27.5,46.89h0c16.4,9.75,38.12,14,59.13,14h0c27.55,0,53.9-7.35,65.39-18.87h0c4.26-4.26,6-8,6-11.13h0c0-3.48-2.06-6.53-5.6-9.24h0c-3.52-2.71-8.48-5-14-6.91h0c-11.06-3.83-24.38-6.09-33.27-7.29h0c-5.92-.8-9.84-1.13-9.85-1.13h0l2.46-1s33.28,2.67,51.31,12.67h0c6,3.35,10.21,7.55,10.23,12.93h0c0,3.65-2,7.64-6.36,12h0c-12,11.94-38.51,19.22-66.29,19.24h0c-21.18,0-43.09-4.27-59.77-14.18Z"/><path class="cls-2" d="M423.38,334.82c-17.51-10.27-29.65-26.44-29.63-49.53h0c0-14.68,6.06-24.41,15.78-30.33h0c9.71-5.92,23-8.12,37.41-8.12h0c44.48,0,101.95,21.27,101.95,21.27h0l-4.32-.14-6.81-2.32h0c-6-1.94-14.36-4.53-24.13-7.13h0c-19.56-5.19-44.64-10.38-66.69-10.38h0c-14.33,0-27.36,2.21-36.73,7.93h0C400.85,261.8,395.06,271,395,285.29h0c0,22.6,11.78,38.27,29,48.41h0c17.22,10.13,39.92,14.62,61.5,14.62h0c26.4,0,51.16-6.76,62.15-17.78h0c4.24-4.25,5.95-7.83,5.94-10.79h0c0-3.25-2-6-5.59-8.37h0c-3.54-2.37-8.52-4.27-14.09-5.78h0c-11.12-3-24.54-4.44-33.48-5.1h0c-6-.42-9.91-.51-9.91-.51h0l3.36-1.19a216.24,216.24,0,0,1,22.66,2.07h0c13.77,1.94,29,5.39,35.45,12.12h0a9.74,9.74,0,0,1,2.92,6.76h0c0,3.48-2,7.34-6.33,11.7h0c-11.51,11.46-36.45,18.15-63.07,18.17h0c-21.76,0-44.65-4.51-62.16-14.8Z"/><path class="cls-2" d="M428.05,327.79c-18.34-10.69-31.19-27.42-31.17-51.11h0c0-13.42,5.09-22.46,13.45-28h0c8.36-5.55,19.85-7.67,32.68-7.67h0c45.56,0,109.58,27.24,109.58,27.24l-3.88-.15s-1.64-.73-8.24-3.23h0c-6.6-2.5-15.87-5.84-26.54-9.18h0C492.57,249,465.55,242.34,443,242.34h0c-12.69,0-23.93,2.13-31.93,7.45h0c-8,5.33-12.86,13.8-12.87,26.89h0c0,23.17,12.46,39.39,30.51,50h0c18,10.53,41.7,15.29,63.81,15.29h0c25.22,0,48.44-6.23,59-16.78h0c4.23-4.22,5.93-7.7,5.92-10.44h0c0-3.21-2.29-5.78-6.3-7.89h0c-4-2.09-9.55-3.61-15.66-4.67h0c-12.21-2.14-26.53-2.5-34.76-2.49h0c-4.14,0-6.73.08-6.73.08h0l5.26-1.4,1.47,0h0c12.41,0,38.48.78,51.05,7.33h0c4.18,2.18,7,5.14,7,9.07h0c0,3.31-2,7-6.31,11.39h0c-11,11-34.45,17.14-59.89,17.16h0c-22.3,0-46.14-4.77-64.48-15.47Z"/><path class="cls-2" d="M432.71,320.78C413.55,309.66,400,292.36,400,268.07h0c0-12.37,4.35-20.79,11.63-26h0c7.27-5.22,17.34-7.26,28.77-7.26h0c46,0,115,33.54,115.08,33.55l-2.72-.1s-5.88-2.68-9.46-4.22h0c-7.16-3.1-17.2-7.24-28.65-11.36h0c-22.91-8.27-51.54-16.51-74.25-16.51h0c-11.28,0-21.07,2-28,7h0c-6.89,5-11,12.84-11,24.9h0c0,23.74,13.15,40.53,32,51.52h0c18.87,11,43.46,16,66,16h0c24.06,0,45.81-5.75,55.85-15.83h0c4.21-4.2,5.9-7.57,5.89-10.1h0c0-2.18-1.18-3.92-3.42-5.44h0a28.19,28.19,0,0,0-9.34-3.53h0c-7.7-1.72-18-2.46-27.1-2.46a161.85,161.85,0,0,0-16.75.75h0c-4.42.25-7.19.51-7.19.51l-.13-1c0,.63,11.2-1.42,24.29-1.42h0a163.38,163.38,0,0,1,20.9,1.17h0c6.6.9,12.38,2.36,16.08,4.84h0c2.46,1.63,4,3.83,4,6.57h0c0,3.15-2,6.75-6.29,11.07h0C545.67,331.26,523.7,337,499.42,337h0c-22.76,0-47.54-5.06-66.71-16.19Z"/><path class="cls-2" d="M542.42,298.26a163.38,163.38,0,0,0-20.9-1.17c-9.62,0-18.24.93-22.13,1.22l-18.9,1.74,16.87-.55s2.77-.26,7.19-.51,10.25-.75,16.75-.75c9.13,0,19.4.74,27.1,2.46a28.19,28.19,0,0,1,9.34,3.53c2.24,1.52,3.41,3.26,3.42,5.44,0,2.53-1.68,5.9-5.89,10.1-6.57,6.59-18.16,11.34-32.12,13.84l.08,0,1.06,1.19c13.73-2.55,25.18-7.3,32-14,4.31-4.32,6.28-7.92,6.29-11.07,0-2.74-1.57-4.94-4-6.57C554.8,300.62,549,299.16,542.42,298.26Z"/><path class="cls-2" d="M551.73,305.64c-12.57-6.55-38.64-7.33-51.05-7.33l-1.44,0-8.13.74s5.43.59,9.57.59c8.23,0,22.55.35,34.76,2.49,6.11,1.06,11.68,2.58,15.66,4.67s6.3,4.68,6.3,7.89c0,2.74-1.69,6.22-5.92,10.44l-.58.55a39.67,39.67,0,0,0,5.69-4.66,11.89,11.89,0,0,0,2.14-6.33C558.73,310.78,555.91,307.82,551.73,305.64Z"/><path class="cls-2" d="M554.65,321.83a4.07,4.07,0,0,0,.29-2.08A9.74,9.74,0,0,0,552,313c-6.4-6.73-21.68-10.18-35.45-12.12a216.24,216.24,0,0,0-22.66-2.07l-7.15.67s7.75.61,13.71,1c8.94.66,22.36,2.08,33.48,5.1,5.57,1.51,10.55,3.41,14.09,5.78s5.59,5.12,5.59,8.37a5.53,5.53,0,0,1-.79,3.17C553.61,322.36,554,322.43,554.65,321.83Z"/><path class="cls-2" d="M551,325.55c0-.25.2-.49.2-.74,0-5.38-4.23-9.58-10.23-12.93-18-10-51.27-12.66-51.27-12.66l-6.76.6s8.19.75,14.11,1.55c8.89,1.2,22.21,3.46,33.27,7.29,5.52,1.9,10.48,4.2,14,6.91s5.6,5.76,5.6,9.24a8.71,8.71,0,0,1-.16,1.66C550.19,326.17,550.5,325.86,551,325.55Z"/><path class="cls-2" d="M537.23,315.73c-17.9-11.5-51.26-16.17-51.3-16.18l-4.88.44s6.61,1,12.49,2.19c8.83,1.75,22.06,4.85,33.05,9.48,5.49,2.31,10.42,5,13.93,8,3.12,2.71,5.09,5.65,5.5,8.86.4-.2.78-.4,1.16-.61C546.37,323.18,542.52,319.14,537.23,315.73Z"/><path class="cls-2" d="M533.55,319.6c-17.78-13-51.21-19.71-51.24-19.72l-4.11.34s6.05,1.26,11.88,2.79c8.77,2.29,21.92,6.24,32.84,11.67,5.45,2.71,10.35,5.78,13.84,9.18a19.35,19.35,0,0,1,4.75,6.71l1.12-.45C541.11,326.23,537.81,322.72,533.55,319.6Z"/><path class="cls-2" d="M529.85,323.45c-17.64-14.49-51.12-23.24-51.16-23.26l-3.46.26s5.59,1.49,11.41,3.38c8.7,2.83,21.75,7.63,32.6,13.86,7.49,4.28,13.86,9.26,17.08,14.65.39-.12.77-.23,1.15-.36A32.5,32.5,0,0,0,529.85,323.45Z"/><path class="cls-2" d="M526.15,327.31c-17.5-16-51-26.83-51.06-26.85l-2.93.23s5.26,1.72,11,4c8.65,3.38,21.62,9,32.39,16,6.11,4,11.48,8.4,15,13.08l1.23-.27A42.34,42.34,0,0,0,526.15,327.31Z"/><path class="cls-2" d="M471.61,300.73l-2.68.16s5.07,2,10.8,4.59c8.59,3.91,21.47,10.38,32.19,18.21a76.42,76.42,0,0,1,11.31,9.9h0l0,0c.35.38.68.76,1,1.14l.06.08,1.29-.19c-1-1.19-2-2.37-3.19-3.51C505.07,313.67,471.63,300.75,471.61,300.73Z"/><path class="cls-2" d="M561.15,309.84c0,2.52-1.76,5.82-5.88,9.93-6.57,6.59-18.16,11.34-32.12,13.84l-.18,0,.91,1.24c14.14-2.55,25.59-7.39,32.36-14.13,4.24-4.25,6.2-7.8,6.29-10.9Z"/><rect class="cls-2" x="612.96" y="211.74" width="0.21" height="201.04"/><path class="cls-2" d="M694.91,347.89h3.59L684,389.12h-5l-14.55-41.23H668l13.44,37.95Z"/><path class="cls-2" d="M724.51,378.29h-19.2l-3.83,10.83h-3.59l14.36-41.23h5.39L732,389.12h-3.59Zm-18.08-3.16h17L714.91,350Z"/><path class="cls-2" d="M742.09,377.73c0,6.44,2.85,8.73,10.34,8.73a59.07,59.07,0,0,0,9.16-.8l.44,3.15a54.68,54.68,0,0,1-9.91.93c-10,0-13.68-4.27-13.68-11.95V359.22c0-7.68,3.71-12,13.68-12a54.68,54.68,0,0,1,9.91.93l-.44,3.16a57.9,57.9,0,0,0-9.16-.81c-7.49,0-10.34,2.29-10.34,8.73Z"/><path class="cls-2" d="M799,347.89v29.53c0,7-4.21,12.32-14.24,12.32s-14.24-5.32-14.24-12.32V347.89h3.65v29.53c0,5.76,3.65,9,10.59,9s10.58-3.28,10.58-9V347.89Z"/><path class="cls-2" d="M838,347.89v29.53c0,7-4.21,12.32-14.24,12.32s-14.24-5.32-14.24-12.32V347.89h3.66v29.53c0,5.76,3.65,9,10.58,9s10.59-3.28,10.59-9V347.89Z"/><path class="cls-2" d="M882.69,351.54l-12,32.26h-5.63l-12-32.26-.87,37.58h-3.65l1.23-41.23h5.33l12.82,33.68,12.75-33.68H886l1.24,41.23h-3.65Z"/><path class="cls-2" d="M911.67,347.89h14c8.3,0,11.33,3.78,11.33,9.53v6.44c0,5.76-3,9.54-11.33,9.54H915.32v15.72h-3.65Zm14.05,3.28h-10.4v18.95h10.4c5.2,0,7.62-1.74,7.62-6.26v-6.44C933.34,352.9,930.92,351.17,925.72,351.17Z"/><path class="cls-2" d="M960.76,373.27H949v15.85h-3.65V347.89H960c8.29,0,11.33,3.78,11.33,9.53v6.32c0,4.52-1.86,7.86-6.69,9l11,16.34h-4.15Zm-.74-22.1H949V370h11c5.2,0,7.62-1.73,7.62-6.25v-6.32C967.64,352.9,965.22,351.17,960,351.17Z"/><path class="cls-2" d="M983.67,347.89h23.22v3.28H987.32v15.29h18.21v3.29H987.32v16.09H1007v3.28H983.67Z"/><path class="cls-2" d="M1027.13,389.74a34.65,34.65,0,0,1-11.64-2l.68-3a39.07,39.07,0,0,0,11.09,1.67c7.06,0,9-2.1,9-7.37,0-6.37-.06-7-9.22-9.16-10-2.29-11.08-4.09-11.08-12.38,0-6.75,2.47-10.28,12.81-10.28a42.82,42.82,0,0,1,10.65,1.42l-.43,3.1a49.56,49.56,0,0,0-10.09-1.24c-8.18,0-9.29,2-9.29,7.12,0,6.69.19,7,8.85,9.17,10.84,2.72,11.46,4.27,11.46,12.07C1039.89,385.66,1037.6,389.74,1027.13,389.74Z"/><path class="cls-2" d="M1060.81,389.74a34.65,34.65,0,0,1-11.64-2l.68-3a39.07,39.07,0,0,0,11.09,1.67c7.06,0,9-2.1,9-7.37,0-6.37-.06-7-9.22-9.16-10-2.29-11.08-4.09-11.08-12.38,0-6.75,2.47-10.28,12.81-10.28a42.82,42.82,0,0,1,10.65,1.42l-.43,3.1a49.56,49.56,0,0,0-10.09-1.24c-8.18,0-9.29,2-9.29,7.12,0,6.69.19,7,8.85,9.17,10.84,2.72,11.46,4.27,11.46,12.07C1073.57,385.66,1071.28,389.74,1060.81,389.74Z"/><path class="cls-2" d="M1083.78,347.89H1107v3.28h-19.56v15.29h18.2v3.29h-18.2v16.09h19.62v3.28h-23.28Z"/><path class="cls-2" d="M1127.25,389.74a34.65,34.65,0,0,1-11.64-2l.68-3a39,39,0,0,0,11.08,1.67c7.06,0,9-2.1,9-7.37,0-6.37-.07-7-9.23-9.16-10-2.29-11.08-4.09-11.08-12.38,0-6.75,2.48-10.28,12.82-10.28a42.74,42.74,0,0,1,10.64,1.42l-.43,3.1a49.47,49.47,0,0,0-10.09-1.24c-8.17,0-9.29,2-9.29,7.12,0,6.69.19,7,8.86,9.17,10.83,2.72,11.45,4.27,11.45,12.07C1140,385.66,1137.71,389.74,1127.25,389.74Z"/><path class="cls-2" d="M679.75,294.77c0,8.07,3.47,12.79,14.39,12.79a88.87,88.87,0,0,0,12.79-1V281.49H721.7v36.37A106.24,106.24,0,0,1,694,321.58c-20.23,0-29.91-8.56-29.91-24.94V261.39c0-17,9.93-24.94,31.4-24.94,6.7,0,16.26.74,23.7,2.73l-1.73,13.65a109.44,109.44,0,0,0-23.21-2.24c-10.92,0-14.52,4.47-14.52,12.91Z"/><path class="cls-2" d="M766.5,306.56h34v13.78H750.86V237.69H766.5Z"/><path class="cls-2" d="M884.4,296.14c0,13.77-7.95,25.44-31.28,25.44s-31.27-11.67-31.27-25.44V261.89c0-13.78,7.94-25.44,31.27-25.44s31.28,11.66,31.28,25.44Zm-46.91-.87c0,7.82,4,12.53,15.63,12.53s15.64-4.71,15.64-12.53V262.76c0-7.82-4-12.54-15.64-12.54s-15.63,4.72-15.63,12.54Z"/><path class="cls-2" d="M913.56,320.34V237.69h32.52c15.63,0,22,6.45,22,17.62v8.56c0,6.83-2.85,10.67-9.18,13.41,7.57,1.61,12,7.19,12,15.26v8.81c0,11.67-7.57,19-22.59,19Zm38.85-63c0-4.59-2.49-6.7-8.2-6.7h-15v21.72h14.89c6.08,0,8.32-2.85,8.32-7.69Zm2.85,35.87c0-5.58-2.48-8.31-8.69-8.31H929.2v22.58h16c7.07,0,10-2,10-8.07Z"/><path class="cls-2" d="M1043.62,303.21H1013l-5.21,17.13H991.37l26.07-82.65h21.84l26.06,82.65H1049Zm-26.8-13.53h22.83l-11.29-39.09Z"/><path class="cls-2" d="M1105.8,306.56h34v13.78h-49.64V237.69h15.64Z"/></svg>