<?xml version="1.0" standalone="no"?>
<!DOCTYPE svg PUBLIC "-//W3C//DTD SVG 20010904//EN"
 "http://www.w3.org/TR/2001/REC-SVG-20010904/DTD/svg10.dtd">
<svg version="1.0" xmlns="http://www.w3.org/2000/svg"
 width="741.000000pt" height="325.000000pt" viewBox="0 0 741.000000 325.000000"
 preserveAspectRatio="xMidYMid meet">

<g transform="translate(0.000000,325.000000) scale(0.100000,-0.100000)"
fill="#8f8fa3" stroke="none">
<path d="M655 3011 c-44 -11 -107 -46 -131 -73 -69 -75 -85 -192 -37 -279 51
-95 124 -129 275 -129 l99 0 -3 108 -3 107 -27 3 -27 3 -3 -83 -3 -83 -55 -3
c-30 -2 -72 2 -93 8 -85 25 -145 116 -134 206 5 52 26 83 81 128 30 25 48 31
101 34 53 4 70 0 99 -17 l35 -22 12 22 c10 19 8 25 -12 40 -25 19 -95 40 -126
38 -10 -1 -31 -4 -48 -8z"/>
<path d="M940 2775 l0 -245 30 0 30 0 0 105 0 105 33 0 c31 0 34 -5 87 -105
52 -101 55 -105 87 -105 18 0 33 2 33 5 0 3 -25 51 -57 107 -52 95 -55 103
-37 113 10 5 33 24 51 42 28 26 33 38 33 77 0 103 -60 146 -203 146 l-87 0 0
-245z m183 183 c34 -18 46 -39 47 -81 0 -60 -34 -87 -110 -87 l-60 0 0 90 0
90 51 0 c28 0 60 -5 72 -12z"/>
<path d="M1310 2842 c0 -164 2 -181 23 -222 56 -112 234 -121 311 -17 19 26
21 44 24 223 l3 194 -30 0 -31 0 0 -175 c0 -195 -7 -222 -60 -250 -37 -19 -73
-19 -115 1 -57 27 -65 59 -65 253 l0 171 -30 0 -30 0 0 -178z"/>
<path d="M1740 2776 l0 -246 30 0 30 0 0 100 0 100 68 0 c108 0 162 48 162
142 0 97 -58 140 -197 146 l-93 4 0 -246z m201 165 c38 -38 40 -97 6 -137 -20
-23 -34 -28 -85 -32 l-62 -4 0 101 0 101 56 0 c48 0 59 -4 85 -29z"/>
<path d="M2247 3006 c-171 -64 -228 -243 -122 -382 86 -112 280 -125 382 -25
128 123 99 312 -60 392 -52 27 -149 34 -200 15z m161 -51 c139 -59 164 -231
48 -333 -33 -28 -89 -52 -126 -52 -69 0 -169 72 -191 137 -6 19 -9 60 -7 89
11 126 155 209 276 159z"/>
<path d="M5010 3011 c-84 -26 -169 -104 -199 -184 -32 -85 4 -185 98 -269 129
-116 465 -238 726 -263 76 -8 76 -8 5 46 -25 19 -77 62 -116 95 -65 57 -81 65
-209 108 -224 77 -326 134 -372 213 -46 79 -11 118 85 93 113 -28 274 -145
397 -290 77 -89 128 -136 242 -223 l61 -47 12 35 c6 20 23 48 36 64 l24 29
-97 113 c-134 157 -356 379 -424 423 -89 59 -192 80 -269 57z"/>
<path d="M6622 2798 c-125 -17 -199 -61 -499 -293 -153 -119 -162 -127 -152
-149 8 -16 8 -38 1 -70 -5 -25 -8 -46 -5 -46 2 0 116 71 251 157 297 189 353
219 455 239 94 19 156 12 196 -22 60 -50 48 -102 -35 -150 -80 -47 -148 -63
-428 -99 l-271 -36 -79 -52 -80 -52 60 -8 c91 -13 536 -1 624 17 149 29 244
79 287 153 23 41 25 51 20 116 -13 154 -55 234 -141 272 -63 28 -122 35 -204
23z"/>
<path d="M5781 2374 c-25 -32 -46 -97 -38 -117 6 -15 122 -47 171 -47 20 0 27
7 35 38 15 50 14 107 -1 119 -15 12 -97 33 -127 33 -11 0 -29 -12 -40 -26z"/>
<path d="M6079 2161 c153 -76 421 -262 457 -316 20 -31 14 -55 -30 -130 -134
-222 -162 -477 -80 -735 29 -92 40 -106 35 -44 -4 60 15 223 40 324 10 45 40
135 66 199 52 132 65 229 43 330 -23 108 -125 262 -229 350 l-58 48 -149 7
c-82 4 -160 9 -174 13 -14 3 22 -18 79 -46z"/>
<path d="M460 1746 l0 -446 188 0 c136 0 204 4 247 15 159 41 249 166 215 296
-16 59 -89 131 -153 148 l-47 14 44 28 c58 36 96 101 96 163 0 63 -19 104 -68
148 -74 67 -94 71 -319 76 l-203 4 0 -446z m366 350 c67 -31 98 -74 98 -138 0
-55 -22 -92 -75 -123 -28 -16 -56 -21 -151 -24 l-118 -3 0 156 0 156 98 0 c81
0 105 -4 148 -24z m73 -409 c77 -51 103 -159 53 -226 -10 -14 -39 -37 -63 -51
-40 -23 -57 -25 -176 -28 l-133 -4 0 172 0 172 138 -4 c132 -3 140 -4 181 -31z"/>
<path d="M1260 2120 l0 -70 60 0 60 0 0 70 0 70 -60 0 -60 0 0 -70z"/>
<path d="M1510 1745 l0 -445 60 0 60 0 0 445 0 445 -60 0 -60 0 0 -445z"/>
<path d="M1770 1745 l0 -445 60 0 60 0 0 445 0 445 -60 0 -60 0 0 -445z"/>
<path d="M2020 2120 l0 -70 60 0 60 0 0 70 0 70 -60 0 -60 0 0 -70z"/>
<path d="M3680 1745 l0 -445 55 0 55 0 0 229 0 230 33 25 c85 64 232 53 302
-24 19 -20 20 -38 23 -241 l3 -219 60 0 59 0 0 213 c-1 276 -11 301 -145 364
-50 23 -73 27 -140 27 -71 -1 -104 -8 -177 -39 -17 -7 -18 5 -18 159 l0 166
-55 0 -55 0 0 -445z"/>
<path d="M1260 1605 l0 -305 60 0 60 0 0 305 0 305 -60 0 -60 0 0 -305z"/>
<path d="M2020 1605 l0 -305 60 0 60 0 0 305 0 305 -60 0 -60 0 0 -305z"/>
<path d="M2280 1884 c6 -14 10 -147 10 -305 l0 -279 60 0 60 0 0 203 c0 199 0
203 25 239 33 49 96 78 169 78 31 0 70 -7 86 -15 55 -29 60 -52 60 -290 l0
-215 61 0 60 0 -3 233 -3 234 -27 40 c-38 58 -120 97 -202 97 -68 0 -151 -25
-191 -56 l-26 -20 -35 41 c-30 35 -41 41 -75 41 -37 0 -38 -1 -29 -26z"/>
<path d="M3228 1900 c-179 -32 -268 -120 -268 -267 0 -128 70 -233 177 -264
65 -19 207 -16 257 5 21 9 40 16 42 16 2 0 4 -20 4 -45 0 -89 -54 -155 -143
-175 -53 -11 -96 -5 -151 22 -38 20 -39 20 -59 -1 -18 -17 -19 -22 -6 -37 28
-35 110 -64 180 -64 131 0 229 55 275 154 23 50 24 57 24 359 l0 307 -49 0
c-42 0 -49 -3 -54 -22 -6 -22 -6 -22 -27 -3 -25 22 -122 29 -202 15z m210
-247 l-3 -178 -45 -22 c-110 -56 -254 -12 -301 92 -34 73 -22 154 29 208 52
55 113 74 245 76 l77 1 -2 -177z"/>
<path d="M4603 1895 c-136 -37 -216 -145 -217 -290 0 -170 113 -292 279 -303
97 -6 173 16 220 65 l35 36 0 -51 0 -52 60 0 60 0 0 234 0 233 -45 42 c-94 86
-257 122 -392 86z m212 -94 c22 -10 55 -31 74 -46 l33 -29 -4 -90 c-5 -116
-31 -176 -94 -216 -103 -65 -223 -39 -297 66 -33 48 -45 127 -28 192 14 50 63
109 106 128 45 20 162 17 210 -5z"/>
<path d="M5160 1874 c6 -14 10 -146 10 -300 l0 -274 55 0 55 0 0 193 c0 180 1
196 23 237 30 59 65 82 129 87 67 5 116 -18 140 -67 15 -30 18 -65 18 -242 l0
-208 61 0 61 0 -3 230 c-2 209 -1 232 16 249 40 46 151 53 204 14 48 -36 51
-53 51 -280 l0 -213 60 0 60 0 0 208 c0 114 -5 224 -10 244 -40 144 -257 197
-377 93 l-37 -32 -43 33 c-92 70 -211 73 -306 7 -37 -25 -40 -26 -49 -9 -22
39 -48 56 -88 56 -38 0 -39 -1 -30 -26z"/>
<path d="M460 650 c0 -213 1 -220 20 -220 19 0 20 7 20 100 l0 100 90 0 c114
0 124 -8 134 -110 7 -84 10 -90 38 -90 14 0 18 5 14 16 -3 9 -9 48 -13 87 -5
54 -12 76 -28 93 l-22 22 30 23 c39 32 47 99 19 145 -26 40 -79 54 -206 54
l-96 0 0 -220z m255 155 c29 -28 32 -70 10 -102 -20 -29 -73 -43 -157 -43
l-68 0 0 85 0 85 95 0 c88 0 98 -2 120 -25z"/>
<path d="M1917 863 c-4 -3 -7 -102 -7 -220 0 -206 1 -213 20 -213 19 0 20 7
20 220 0 177 -3 220 -13 220 -8 0 -17 -3 -20 -7z"/>
<path d="M3100 785 l0 -84 -36 24 c-72 49 -161 28 -200 -48 -22 -41 -22 -143
0 -185 40 -78 146 -92 214 -30 l22 21 0 -26 c0 -17 5 -27 15 -27 13 0 15 31
15 220 0 189 -2 220 -15 220 -12 0 -15 -16 -15 -85z m-58 -76 c33 -18 61 -94
53 -146 -10 -65 -49 -106 -104 -106 -74 0 -120 69 -106 160 12 83 89 128 157
92z"/>
<path d="M3740 650 l0 -220 145 0 c138 0 145 1 145 20 0 19 -7 20 -125 20
l-125 0 0 85 0 85 110 0 c91 0 110 3 110 15 0 12 -19 15 -110 15 l-110 0 0 80
0 80 125 0 c118 0 125 1 125 20 0 19 -7 20 -145 20 l-145 0 0 -220z"/>
<path d="M914 731 c-63 -38 -87 -161 -46 -239 24 -48 91 -78 148 -68 41 8 104
63 104 90 0 26 -21 18 -54 -20 -27 -32 -38 -37 -74 -37 -27 0 -50 7 -64 19
-20 18 -48 72 -48 94 0 6 46 10 125 10 69 0 125 2 125 5 0 2 -5 27 -11 54 -15
70 -61 111 -127 111 -28 0 -59 -8 -78 -19z m128 -22 c18 -10 48 -65 48 -89 0
-6 -39 -10 -104 -10 l-105 0 10 33 c18 64 93 97 151 66z"/>
<path d="M1249 727 c-19 -13 -39 -38 -46 -57 -28 -82 -3 -190 52 -226 40 -26
114 -24 155 6 l33 24 -6 -44 c-8 -64 -42 -94 -108 -94 -44 0 -55 4 -75 27 -13
15 -30 27 -39 27 -41 0 13 -66 67 -80 84 -23 168 16 188 88 5 20 10 106 10
190 0 145 -1 152 -20 152 -14 0 -20 -7 -20 -21 0 -20 -1 -20 -31 5 -41 35
-111 36 -160 3z m152 -35 c27 -24 33 -37 37 -84 7 -93 -35 -152 -107 -150 -41
1 -68 17 -86 52 -18 36 -19 126 -1 159 31 56 107 67 157 23z"/>
<path d="M1621 736 c-24 -13 -50 -51 -51 -73 0 -7 9 -13 20 -13 11 0 20 7 20
15 0 30 38 55 83 55 50 0 73 -14 82 -51 8 -35 -11 -48 -82 -59 -107 -15 -133
-35 -133 -103 0 -75 102 -108 182 -59 35 22 36 22 41 2 6 -25 67 -29 67 -5 0
8 -9 15 -20 15 -19 0 -20 7 -20 114 0 63 -3 122 -6 131 -16 40 -130 60 -183
31z m156 -187 c-7 -51 -32 -78 -82 -89 -45 -10 -79 1 -95 30 -24 45 10 79 90
91 94 14 93 14 87 -32z"/>
<path d="M2104 740 c-30 -12 -62 -56 -74 -102 -35 -126 62 -240 178 -208 68
18 102 72 102 162 0 98 -53 158 -140 157 -25 0 -55 -4 -66 -9z m129 -40 c50
-39 53 -166 6 -216 -39 -42 -123 -35 -153 11 -39 60 -28 166 21 205 34 26 92
26 126 0z"/>
<path d="M2407 730 c-30 -24 -43 -70 -27 -99 13 -26 54 -47 105 -56 59 -11 85
-30 85 -65 0 -36 -27 -53 -82 -52 -44 1 -66 15 -79 49 -10 28 -39 31 -39 4 0
-57 85 -101 158 -81 56 15 82 41 82 83 0 44 -30 70 -105 92 -91 26 -118 61
-77 98 31 28 89 22 122 -13 15 -16 33 -30 39 -30 21 0 11 31 -18 61 -25 25
-37 29 -84 29 -39 0 -61 -6 -80 -20z"/>
<path d="M3269 723 c-17 -15 -38 -42 -45 -60 -18 -42 -18 -115 0 -157 47 -113
216 -109 259 7 11 30 -26 20 -45 -12 -22 -39 -78 -56 -124 -36 -34 14 -64 59
-64 95 0 19 6 20 120 20 l120 0 0 28 c-1 44 -36 109 -69 126 -49 26 -114 21
-152 -11z m152 -32 c17 -17 29 -40 29 -55 l0 -26 -100 0 c-95 0 -100 1 -100
21 0 12 15 36 34 55 45 45 95 47 137 5z"/>
<path d="M4100 590 c0 -136 2 -160 15 -160 12 0 15 16 15 88 1 150 25 202 94
202 58 0 61 -7 66 -152 4 -113 7 -133 22 -136 14 -3 17 11 20 118 3 119 4 122
31 146 34 29 87 32 110 6 14 -15 17 -41 17 -145 0 -123 1 -127 21 -127 21 0
21 3 17 130 -5 161 -16 183 -95 188 -42 2 -56 -1 -79 -21 l-29 -25 -22 24
c-32 34 -100 34 -142 -2 -29 -24 -31 -24 -31 -6 0 11 -7 22 -15 26 -13 5 -15
-16 -15 -154z"/>
<path d="M4688 726 c-36 -24 -38 -24 -38 -6 0 13 -7 20 -20 20 -19 0 -20 -7
-20 -215 0 -208 1 -215 20 -215 18 0 20 7 20 87 0 72 2 84 13 70 19 -26 86
-49 123 -43 71 14 114 76 114 166 0 100 -40 151 -123 158 -44 3 -58 0 -89 -22z
m123 -16 c43 -23 64 -128 39 -194 -13 -35 -56 -60 -98 -59 -96 3 -137 160 -62
235 30 30 83 38 121 18z"/>
<path d="M5058 738 c-8 -7 -20 -22 -26 -33 -11 -19 -11 -18 -12 8 0 20 -5 27
-20 27 -19 0 -20 -7 -20 -155 0 -146 1 -155 19 -155 18 0 20 10 23 114 3 104
5 117 27 140 13 14 33 26 45 28 11 2 22 11 24 21 4 21 -35 24 -60 5z"/>
<path d="M5228 733 c-61 -38 -90 -162 -53 -233 32 -62 104 -92 169 -70 37 12
86 61 86 86 0 24 -22 15 -54 -22 -27 -32 -38 -37 -75 -37 -52 0 -88 31 -101
86 l-8 37 125 0 126 0 -7 41 c-14 89 -58 129 -138 129 -24 0 -55 -8 -70 -17z
m136 -35 c15 -13 29 -38 32 -55 l7 -33 -102 0 c-85 0 -101 3 -101 15 0 24 28
73 47 84 32 19 90 13 117 -11z"/>
<path d="M5537 730 c-30 -24 -43 -70 -27 -99 13 -26 54 -47 105 -56 63 -11 87
-31 83 -68 -2 -26 -9 -34 -37 -43 -50 -16 -92 -4 -116 34 -22 35 -45 42 -45
13 0 -57 85 -101 158 -81 56 15 82 41 82 83 0 44 -30 70 -105 92 -91 26 -118
61 -77 98 31 28 89 22 122 -13 15 -16 33 -30 39 -30 21 0 11 31 -18 61 -25 25
-37 29 -84 29 -39 0 -61 -6 -80 -20z"/>
<path d="M5870 737 c-14 -7 -33 -28 -43 -47 -16 -33 -16 -35 0 -39 10 -2 19 3
22 10 10 32 51 59 88 59 54 0 85 -24 81 -63 -3 -34 -13 -38 -112 -52 -93 -13
-137 -95 -82 -150 37 -37 87 -42 145 -13 46 23 49 23 60 6 14 -22 61 -24 61
-3 0 8 -6 15 -14 15 -11 0 -15 26 -17 121 -4 118 -5 121 -32 145 -22 19 -39
24 -80 24 -29 0 -63 -6 -77 -13z m121 -249 c-17 -16 -44 -29 -59 -29 -70 -3
-92 9 -92 51 0 39 30 60 100 70 34 5 65 12 69 15 3 4 7 -13 9 -36 3 -38 -1
-47 -27 -71z"/>
</g>
</svg>
