<svg id="Logos_Patrocinadores" data-name="Logos Patrocinadores" xmlns="http://www.w3.org/2000/svg" viewBox="0 0 1500 600"><defs><style>.cls-1{fill:#7a97ab;}</style></defs><path class="cls-1" d="M752,68.82A69,69,0,0,1,764.77,70c2.86.54,5.71,1.09,8.56,1.67,58.12,11.75,98.65,61.5,97.57,119.73-1.11,60.15-44.16,109-104.11,117.45a105,105,0,0,1-14.39.95c-37.28.12-74.56.07-111.85.07-1.27,0-2.83.42-3.78-.15-.48-.3-1-.62-1.42-1a5.72,5.72,0,0,1-.63-8.8,3.29,3.29,0,0,1,1.47-.82c7-1.46,14.24-1.41,21.25-2.72,52.21-9.72,88.63-56.47,87.44-112C743.8,134.39,703,89.34,652.29,82.21c-4-.56-8.18-.6-12.16-1.4-3-.61-7.29-1.3-8.35-3.34a3,3,0,0,1-.17-2,8.29,8.29,0,0,1,8.24-6.66Zm-18.4,226.65c50.47-5.41,93.63-62.31,87.62-114.34-5.77-50-51.54-100.56-88.2-96.72,39.31,24.29,61.33,59,61.46,105C794.64,235.8,772.54,270.71,733.63,295.47Zm36.1-212c41.15,25.41,63.1,60.41,63,106.73-.1,46-22.3,80.71-63,106,49.71-5.69,90.69-55.9,90.12-107.42C859.28,137.47,817.87,87.88,769.73,83.47Zm-75.67.38c40,24.74,62.2,59.51,62.22,105.9s-22.23,81.1-62.18,106c46.26-1.84,89.36-54.55,89.14-107.29C783,137.6,738.92,85.1,694.06,83.85Z"/><path class="cls-1" d="M978.86,464.64c-5.62,22.59-27.05,37.21-51.15,34.87-26.52-2.57-43.42-19.17-44.67-43.89-1.47-29,12.2-49.66,36.35-54.5,31.79-6.38,57.47,11.85,60.39,39.87C979.88,441.91,981,457.55,978.86,464.64Zm-75-12c0,4.73,1.71,9.68,4.37,15.3,8.36,17.65,33.35,19.34,44.23,3.32,8-11.8,7.76-32.09-.56-43.55-8.66-11.94-26.26-14.09-37.27-4.43C906.79,430.21,904.6,439.52,903.91,452.65Z"/><path class="cls-1" d="M620.52,369.28v9c0,36.34-.23,72.69.18,109,.09,7.85-2.14,10.75-9.91,9.62-3.48-.5-7.09-.08-11.94-.08v-11.7c0-12.28-.23-24.58.1-36.85.16-5.75-1.19-8.28-7.61-8.07-13.8.46-27.64.34-41.45,0-5.29-.11-7.14,1.5-7,6.94.31,16.1.11,32.21.11,49H521.19V369.24h21.68v51.82c18.09,0,35.17.13,52.23-.27,1.29,0,3.52-3.79,3.58-5.87.34-12.28.17-24.57.17-36.85v-8.79Z"/><path class="cls-1" d="M796.67,413.48V369.25h20.46c.17,3.28.46,6.28.46,9.27q0,54.14,0,108.25c0,4.68,2.09,10.49-6.8,10.25-12.69-.35-12.69.14-13.37-9.83a12.69,12.69,0,0,0-.83-2.28c-7.5,8.11-16.45,13-27.26,13.73-25.94,1.81-45.48-15.07-47.27-41.46a80.86,80.86,0,0,1,1.47-22.83c7.62-33.81,44.26-45.24,70.17-22.21C794.16,412.58,794.93,412.72,796.67,413.48Zm.7,35.62c-.08-1.53-.1-3.07-.23-4.6-1.32-14.89-12-26.3-25.53-27.17-13.77-.9-24.05,8-27.55,23.52a39.25,39.25,0,0,0,3,26.85c8.52,17.17,29.59,17.76,43.1,4.25C797.44,464.68,798,449.35,797.37,449.1Z"/><path class="cls-1" d="M678,468.62q8.6-25.26,17.19-50.51c5.61-16.49,9.07-18.32,27.25-13.9q-13.56,34.2-27.06,68.24c-6.51,16.37-13.38,32.61-19.53,49.12-2.21,5.94-5.15,8.71-11.61,7.83-3.76-.52-7.65-.1-12.84-.1,3.94-9.47,7.29-18.4,11.36-27,2.52-5.3,2.47-9.92.34-15.32-10.8-27.29-21.28-54.69-32.49-83.65,7.61,0,14.34-.37,21,.27,1.53.15,3.22,3.58,4,5.79,6.08,17.36,11.95,34.8,17.9,52.2.8,2.36,1.73,4.67,2.6,7Z"/><path class="cls-1" d="M879.33,419.41c-21.81,3.83-25.58,8.37-25.78,31.12-.13,15.06,0,30.12,0,45.75H833V403.5h18.33c.41,2.62.86,5.48,1.51,9.59,7-9,15.11-13.78,26.53-11.68Z"/></svg>