<svg id="Logos_Patrocinadores" data-name="Logos Patrocinadores" xmlns="http://www.w3.org/2000/svg" viewBox="0 0 1500 600"><defs><style>.cls-1{fill:#848484;}.cls-2{fill:#c1c5c8;}.cls-3{fill:#7a97ab;}.cls-4{fill:#303030;}.cls-5{fill:#f0f0f0;}</style></defs><path class="cls-1" d="M474.73,305.72l-.07-.06v0h.07Z"/><path class="cls-2" d="M1183.6,221.74H510.84c-1.83,0-3.67-.08-5.51-.13a1.84,1.84,0,0,1-.53.06q-.07,5.22-.17,10.46a5.65,5.65,0,0,1-1.19,1.2c-.5.29-1.28.16-1.73.51-1.79,1.37-4.48,2.61-4.94,4.38-.35,1.39,1.74,4,3.39,5.17,2.11,1.45,2.27,2.76,1.44,4.81s-1.39,4.51-2.52,6.53a4.07,4.07,0,0,1-3.21,1.8c-2.58-.35-5.11-.53-6.48,1.93-1.55,2.78-.18,5.28,1.81,7.43.47,1.07,1.65,2.61,1.3,3.14a86.56,86.56,0,0,1-6.29,8c-.21.25-1.13-.1-1.71-.17a54.13,54.13,0,0,1-5.23-1.52c-2.76-1.11-5.41.25-5.68,3.19-.14,1.51.15,3.06.05,4.58a18,18,0,0,1-.73,3l-14.75,7.44-6.63,1.72c-4,.61-8.09,1.52-12.17,1.76-4.94.3-9.91,0-14.86,0-8.32-1.53-16.46-3.58-24-7.61-13.77-7.37-23.31-18.63-30.23-32.42-3.56-7.1-4.82-14.73-5.82-22.45q-.37-6.48-.74-12.95c-16,0-32.05.08-48.08.06-2.18,0-3.33.36-3.32,3q.14,38.75,0,77.49c0,2.35.87,2.94,3.07,2.93,13.27-.07,26.54-.05,39.81,0s26.53.07,39.8.1q38.57,0,77.12,0a1.83,1.83,0,0,1,.33,0,1.09,1.09,0,0,1,.26,0,3,3,0,0,1,.43.09l.48.13c.35.1.69.2,1,.28v0l.07.06h-.07l-.06,1.81c0,6.63.08,13.27.09,19.89q.06,47.31.08,94.6-.13,10.13-.28,20.25a.71.71,0,0,0,.38.09q35.82,0,71.65,0c4.12,0,4.13,0,4.13-4.24V311.28a10.29,10.29,0,0,1,.1-3.34,3.57,3.57,0,0,1,2.07-2.13,26.36,26.36,0,0,1,5.19-.13h625.3c4.36,0,4.37,0,4.37-4.27V225.74C1187.68,221.75,1187.66,221.75,1183.6,221.74ZM584,291.63c-9.49-.14-19-.1-28.47,0-2.21,0-3-.62-3-2.94q.12-24.65,0-49.29c0-2.3.75-3,3-3,9.58.1,19.17.14,28.76,0,2.67,0,3.24,1,3.21,3.41-.11,8.06,0,16.13,0,24.19s-.11,16.12.06,24.18C587.51,290.94,586.59,291.67,584,291.63Zm108,0c-9.79-.07-19.59,0-29.38-.11a6,6,0,0,1-3.63-1.69c-7.95-7.79-15.78-15.7-23.66-23.55-.75-.76-1.57-1.44-2.92-2.68-.11,1.83-.22,2.89-.22,4,0,7-.08,14.08,0,21.13.05,2.29-.76,3-3,3q-13.78-.15-27.55,0c-2.29,0-3.24-.53-3.22-3.06q.15-24.8,0-49.61c0-2.37.68-3.19,3.11-3.16,9.29.13,18.58-.06,27.86.16a9,9,0,0,1,5.32,2.29c8.63,7.75,17.08,15.69,25.6,23.56a4.28,4.28,0,0,0,1.09.45c0-1.15.14-2.12.14-3.09,0-6.84,0-13.68,0-20.52,0-1.81.37-2.84,2.52-2.82,9.39.08,18.78.06,28.17,0,1.94,0,2.41.85,2.41,2.6q-.06,25.26,0,50.53C694.61,290.93,693.91,291.62,691.93,291.61Zm101.87-17c-8.18,9-18.81,13.5-30.78,15.11-18.58,2.51-37.24.62-55.86,1.25-2.15.07-2.81-.76-2.79-2.86.09-8.27,0-16.53,0-24.8,0-8.06.08-16.12,0-24.18,0-2.44.58-3.4,3.21-3.38,15.4.11,30.87-.82,46.19.31,14.63,1.08,28.87,4.75,39.68,16.17A16.22,16.22,0,0,1,793.8,274.65Zm93.48,7.49a46.91,46.91,0,0,1-21.87,8.71,158.59,158.59,0,0,1-21.88,1.24c-12.16-.29-23.71-3.08-33.57-10.84a16.57,16.57,0,0,1-6.24-13c-.32-9.58,0-19.19-.13-28.78,0-2.18.58-3.09,2.94-3.06q14.84.17,29.69,0c2.31,0,3,.81,3,3-.08,9.28.09,18.58-.11,27.86a5.48,5.48,0,0,0,3.41,5.58c4.41,1.89,9.08,2.39,13.55.06a5.12,5.12,0,0,0,2.77-5c-.12-9.59,0-19.19-.1-28.78,0-2.51.69-3.37,3.27-3.33q14.38.19,28.77,0c2.65,0,3.66.82,3.57,3.51-.15,5.21,0,10.42,0,15.62,0,4.5-.23,9,.05,13.48C894.7,274.48,891.87,278.88,887.28,282.14Zm85.07-.12c-8.72,6.16-18.73,7.94-29,8.91a118.61,118.61,0,0,1-15.53.59,97.72,97.72,0,0,1-30.78-6.39c3.24-4.4,6.31-8.43,9.21-12.58,1.22-1.72,2.56-1.66,4.2-1a52.49,52.49,0,0,0,23.82,4.05c1.74-.14,3.41-1.17,5.12-1.78-1.53-.91-3-2.31-4.63-2.64-4.86-1-9.86-1.25-14.7-2.3-5.33-1.17-10.49-2.89-14.87-6.49-5.11-4.21-5.27-10.86-.32-15.59,5.93-5.64,13.4-8.07,21-9.58a80.74,80.74,0,0,1,31.44-.45c6.12,1.2,12.18,2.73,19.07,4.31-3.73,4.63-6.7,8.44-9.84,12.09-.46.52-1.82.57-2.68.4-5.76-1.12-11.45-2.68-17.25-3.45-2.69-.35-5.66.48-8.34,1.29-1.86.56-1,2.2.18,2.64a58.48,58.48,0,0,0,8.68,2.59c7.42,1.56,14.94,2.68,22.31,4.48,4.46,1.09,7.22,4.53,8,9.09C978.33,275.15,976.59,279,972.35,282Zm69-28.46c-2.38-.09-3.21.69-3.18,3.13.11,10.2-.07,20.4.11,30.6,0,3-.91,3.8-3.81,3.75q-13.77-.26-27.53,0c-3.06.07-3.73-1-3.69-3.87.15-10.09,0-20.19.1-30.29,0-2.49-.69-3.44-3.27-3.34-4.38.18-8.77,0-13.15.08-2,0-2.68-.74-2.63-2.7.1-4.08.14-8.16,0-12.23-.09-2.4.93-2.91,3.09-2.89,11.11.07,22.22,0,33.34,0h32.42c4,0,4,.07,4.07,4.16,0,3.37-.18,6.75.06,10.1.2,2.92-1,3.66-3.68,3.54C1049.52,253.46,1045.43,253.71,1041.36,253.56ZM1150.05,291c-9.9,0-19.8-.1-29.69.07-2.67.05-4.24-.77-5-3.27-.86-2.89-2.73-3.74-5.74-3.63-6.31.25-12.65.17-19,0-2.27-.05-3.77.49-4.09,2.91-.44,3.31-2.37,4-5.52,4-9.69-.21-19.39-.07-29.08-.07h-4c2.72-4.59,5-8.58,7.44-12.54,8.3-13.73,16.66-27.42,24.88-41.2a3.62,3.62,0,0,1,3.61-2.05q16.53.08,33.06,0a4.33,4.33,0,0,1,4.21,2.31q13.85,22.77,27.85,45.44c1.51,2.47,3,4.93,5,8Z"/><path class="cls-3" d="M474.87,442.36a1.89,1.89,0,0,0-.21.51l-3.66,0-73.77.06a9.36,9.36,0,0,1-1.36-.22V306.05a5.65,5.65,0,0,1,1.36-.34q36.27,0,72.54.07l4.89-.06-.06,1.81c0,6.63.08,13.27.09,19.89q.06,47.31.08,94.6-.13,10.13-.28,20.25A.71.71,0,0,0,474.87,442.36Z"/><path class="cls-4" d="M474.73,305.72h-.07v-.06Z"/><path class="cls-5" d="M474.68,305.71h0v-.06Z"/><path class="cls-3" d="M504.8,221.66q-.07,5.22-.17,10.46a5.65,5.65,0,0,1-1.19,1.2c-.5.29-1.28.16-1.73.51-1.79,1.37-4.48,2.61-4.94,4.38-.35,1.39,1.74,4,3.39,5.17,2.11,1.45,2.27,2.76,1.44,4.81s-1.39,4.51-2.52,6.53a4.07,4.07,0,0,1-3.21,1.8c-2.58-.35-5.11-.53-6.48,1.93-1.55,2.78-.18,5.28,1.81,7.43.47,1.07,1.65,2.61,1.3,3.14a86.56,86.56,0,0,1-6.29,8c-.21.25-1.13-.1-1.71-.17a54.13,54.13,0,0,1-5.23-1.52c-2.76-1.11-5.41.25-5.68,3.19-.14,1.51.15,3.06.05,4.58a18,18,0,0,1-.73,3l-14.75,7.44-6.63,1.72c-4,.61-8.09,1.52-12.17,1.76-4.94.3-9.91,0-14.86,0-8.32-1.53-16.46-3.58-24-7.61-13.77-7.37-23.31-18.63-30.23-32.42-3.56-7.1-4.82-14.73-5.82-22.45q-.37-6.48-.74-12.95.38-2.72.78-5.41,1.5-5.82,3-11.63c3.81-11.46,10.49-21.12,18.88-29.63,2-2,4.57-3.55,6.87-5.3l0,0,11.05-6.3a21.15,21.15,0,0,1,1.56,1.43c1.95,2.21,5.61,3.16,7.59,1.94s2.8-4.66,1.87-7.54a1.32,1.32,0,0,1,0-.56l13.17-1.58a14.74,14.74,0,0,0,.38,1.89c1.39,3.76,5,5.91,7.21,4,1.63-1.41,2.53-3.66,3.76-5.54l12.86,1c0,1.53.06,2.34,0,3.14-.21,2.29.36,4.62,2.44,5.36s4.85.76,6.54-1.74c1.26-1.86,2.82-2.06,4.65-.72a10.56,10.56,0,0,0,3.1,1.83c4.54,1.29,6.07,3.88,4,8.28-1.2,1.56-1.08,3,.46,4.23a6.33,6.33,0,0,0,8.18-.68c.77-1.47,1.64-1.21,2.58-.16l7.52,8.42-4,6c-.13,1-.6,2.17-.32,3.07,1,3.4,6.47,4.36,10.18,1.9q.59.57,1.17,1.17c.95,2.84,2,5.65,2.75,8.55a3.33,3.33,0,0,1-1,2.82c-4.78,3.45-6.79,5.25-1,10Z"/><path class="cls-2" d="M739.32,263.47c0-2.65.06-5.3,0-7.94-.06-1.79.54-2.52,2.43-2.58,6.26-.18,12.31,1,17.39,4.55,5.95,4.16,5.27,9.12-1.39,13.79-5,3.53-10.91,3.49-16.74,3-.61-.05-1.53-1.45-1.59-2.28C739.19,269.18,739.32,266.32,739.32,263.47Z"/><path class="cls-2" d="M1100.34,253.91c2.57,5.78,4.74,10.65,7.09,15.91H1094C1096.07,264.61,1098,259.68,1100.34,253.91Z"/></svg>