<svg id="Logos_Patrocinadores" data-name="Logos Patrocinadores" xmlns="http://www.w3.org/2000/svg" viewBox="0 0 1500 600"><defs><style>.cls-1{fill:#7a97ab;}.cls-2{fill:#ed8297;}.cls-3{fill:none;}</style></defs><path class="cls-1" d="M1033.89,346a63.63,63.63,0,0,1-7.37,7.16c-12.4,10.51-26.18,18.94-40.51,26.51-26,13.72-53.46,23.47-81.77,31A540.1,540.1,0,0,1,837.81,424c-18.25,2.5-36.58,4.12-55,5-20.74,1-41.49,1.1-62.23.47q-26.72-.81-53.29-3.51a592.59,592.59,0,0,1-74.67-12.24c-26.74-6.27-52.83-14.51-77.65-26.43-16.57-8-32.2-17.38-45.92-29.72-10.05-9-18.62-19.26-24.11-31.73-8.59-19.5-7.06-38.57,2.83-57.17,6.3-11.84,15.06-21.7,25.07-30.5,11.48-10.1,24.25-18.31,37.71-25.49,1-.53,1.21-.4,1.3.74a23,23,0,0,0,8,16c1.32,1.17,1.33,1.15-.22,2.15-10.17,6.56-19.8,13.81-28.18,22.6-7,7.36-12.91,15.48-16.4,25.15-3.94,11-2.95,21.83.74,32.61,4.52,13.22,12.59,24.07,22.62,33.58,13.19,12.53,28.57,21.78,44.93,29.5,21.07,9.94,43.17,16.89,65.79,22.26a525.29,525.29,0,0,0,57.62,10.12c16.92,2.07,33.9,3.43,50.93,4.26,18.81.93,37.63,1.08,56.46.74Q799,412,823.7,410c31.83-2.53,63.41-6.76,94.54-13.94,27.27-6.29,53.87-14.57,79-27a175.78,175.78,0,0,0,35.54-22.7A1.11,1.11,0,0,1,1033.89,346Z"/><path class="cls-1" d="M579.26,265.62c1.29-1.18,2.37-2.3,3.58-3.26,5-3.91,10.53-6.21,17-5.94a15.88,15.88,0,0,1,15.56,13.63,45,45,0,0,1,.62,7.86q0,31.72,0,63.44c0,1.3-.37,1.57-1.6,1.55-4.47-.08-8.93-.07-13.4,0-1.2,0-1.5-.31-1.5-1.5q.06-28.38,0-56.74A36.28,36.28,0,0,0,599,278c-.85-4.6-3.71-6.27-8.39-5.28-4.18.89-7.22,3.75-9.93,6.93-.45.54-.29,1.16-.29,1.75q0,29.89,0,59.78c0,1.41-.38,1.75-1.75,1.72-4.41-.09-8.83-.07-13.24,0-1.2,0-1.51-.3-1.51-1.5,0-19.27,0-38.54.06-57.81a105.63,105.63,0,0,0-2-22.66c-.19-.9.08-1.15.83-1.35,4.47-1.13,8.94-2.26,13.38-3.48.88-.23,1.14,0,1.36.77A41.1,41.1,0,0,1,579.26,265.62Z"/><path class="cls-1" d="M736.26,265.72a28.07,28.07,0,0,1,12.21-8.14,21,21,0,0,1,11.83-.66c6.85,1.66,11.27,6.93,12.21,14.27a57.79,57.79,0,0,1,.38,7.43q0,31.26,0,62.51c0,1.32-.23,1.82-1.7,1.78-4.21-.11-8.42,0-12.63,0-2.13,0-2.13,0-2.13-2.05q0-28,0-56a42.4,42.4,0,0,0-.38-6.37c-.79-4.92-4.27-7.12-9.07-5.64-3.82,1.18-6.68,3.73-9.26,6.66-.54.62-.36,1.35-.36,2q0,29.67,0,59.32c0,2,0,2-2,2-4.26,0-8.53-.06-12.79,0-1.32,0-1.68-.29-1.67-1.65.05-18,0-36,0-54,0-8.78-.07-17.54-2-26.16-.21-.93.07-1.34,1-1.57q6.48-1.63,12.94-3.37c1-.26,1.36-.19,1.68.91A55.42,55.42,0,0,1,736.26,265.72Z"/><path class="cls-1" d="M942.1,265.73a27,27,0,0,1,14.63-8.8c6.51-1.38,12.55-.45,17.37,4.61,3.26,3.42,4.3,7.76,4.5,12.29.19,4.2.14,8.42.14,12.62q0,27.39,0,54.76c0,1.27-.21,1.73-1.63,1.7-4.36-.11-8.72-.12-13.08,0-1.56,0-1.78-.47-1.78-1.87q.08-26.76,0-53.53a58.38,58.38,0,0,0-.4-9c-.77-5-4.25-7.23-9.14-5.69-3.81,1.21-6.67,3.76-9.23,6.71-.49.57-.3,1.25-.3,1.89q0,29.82,0,59.62c0,1.47-.34,1.87-1.82,1.83-4.36-.11-8.73-.09-13.09,0-1.26,0-1.59-.31-1.59-1.58q.06-30.35,0-60.68a89.48,89.48,0,0,0-1.94-19.17c-.28-1.28,0-1.73,1.32-2,4.23-1,8.44-2.15,12.64-3.3.94-.26,1.28-.12,1.57.87A49.68,49.68,0,0,1,942.1,265.73Z"/><path class="cls-1" d="M669.55,237.12a14.41,14.41,0,0,0-6.8-2.44,5.71,5.71,0,0,0-6.06,3.12,10.8,10.8,0,0,0-1.39,5.09c-.09,4.71,0,9.42-.1,14.14,0,1,.5,1,1.22,1,4.26,0,8.52,0,12.78,0,1,0,1.41.13,1.12,1.33-.93,3.94-1.76,7.91-2.52,11.88-.2,1-.63,1.3-1.61,1.28-3.14-.05-6.29.05-9.43-.05-1.31,0-1.57.39-1.57,1.62,0,22.3,0,44.6.07,66.91,0,1.64-.49,2-2,1.94-4.41-.1-8.83-.09-13.24,0-1.35,0-1.77-.29-1.76-1.72q.07-33.3,0-66.6c0-2.41.33-2.09-2.09-2.1-3.52,0-3.52,0-3.52-3.58,0-3.09.08-6.19,0-9.28-.06-1.4.41-1.77,1.71-1.62.9.1,1.83,0,2.73,0s1.23-.21,1.19-1.18c-.15-3.14-.27-6.28-.27-9.42,0-5.56.59-11,2.92-16.16,3.36-7.39,9.12-11.12,17.21-11.34a26,26,0,0,1,15,3.7,1.4,1.4,0,0,1,.68,2.05C672.34,229.4,671,233.16,669.55,237.12Z"/><path class="cls-1" d="M559.12,210.79A24,24,0,0,0,552.25,195a2.07,2.07,0,0,1,1.21-.63,423.76,423.76,0,0,1,63.24-16.18,581.18,581.18,0,0,1,62.82-7.33,663,663,0,0,1,68.92-.44c1.46.06,2.92.19,4.39.39A520.3,520.3,0,0,0,559.12,210.79Z"/><path class="cls-1" d="M544.17,291.76c0,16.47,0,32.95,0,49.43,0,1.43-.41,1.74-1.76,1.71-4.46-.08-8.93-.06-13.39,0-1,0-1.38-.19-1.38-1.3q0-48.75,0-97.5c0-.91.17-1.3,1.19-1.43,4.83-.58,9.65-1.25,14.46-1.92.59-.08.87,0,.84.67,0,.4,0,.81,0,1.21Z"/><path class="cls-1" d="M700,299.74c0,13.84,0,27.68,0,41.52,0,1.4-.4,1.66-1.7,1.64-4.56-.08-9.13-.06-13.69,0-1,0-1.39-.18-1.39-1.3q0-40.92,0-81.82c0-1,.32-1.33,1.25-1.44,4.67-.58,9.35-1.17,14-1.84,1.27-.18,1.51.25,1.51,1.43Q699.92,278.83,700,299.74Z"/><path class="cls-1" d="M535.63,194.25A17.44,17.44,0,1,1,518,211.09,17.48,17.48,0,0,1,535.63,194.25Z"/><path class="cls-1" d="M691.42,224.49a10.65,10.65,0,0,1,10.79,10.77,10.81,10.81,0,0,1-11,10.91,10.65,10.65,0,0,1-10.72-10.84A10.81,10.81,0,0,1,691.42,224.49Z"/><path class="cls-2" d="M755.72,170.92H753.8A2.07,2.07,0,0,1,755.72,170.92Z"/><path class="cls-1" d="M912.14,287.76a48.36,48.36,0,0,0-6.26-19.05c-6.3-10.46-17.16-15.14-28.58-12.22-7.72,2-12.78,7.16-16.31,14-4.78,9.29-6,19.33-6.18,29.61a119.73,119.73,0,0,0,.82,12.12,58.53,58.53,0,0,0,5.78,19.4c9.07,17.39,31.54,16.72,41.16,4.95a41.66,41.66,0,0,0,7.85-15.95A84.93,84.93,0,0,0,912.14,287.76Zm-17.23,10.7c0,8.05-.09,15-1.84,21.77a19.15,19.15,0,0,1-2.46,5.84c-3.37,5.13-9.84,5.24-13.44.23a20.42,20.42,0,0,1-3.48-9.31,115.27,115.27,0,0,1,.21-34.64,19.08,19.08,0,0,1,3-7.87,8.13,8.13,0,0,1,13.53-.25c2.48,3.32,3.24,7.25,3.82,11.22.14,1,.22,2,.31,3A98.49,98.49,0,0,1,894.91,298.46Z"/><path class="cls-1" d="M807.56,305.06c11.62.05,23.24,0,34.85.05,1.14,0,1.47-.29,1.46-1.44a146.57,146.57,0,0,0-1-19.87c-.94-6.42-2.71-12.52-6.41-18-8.75-12.93-27.62-13-36.94-3-5,5.31-7.74,11.7-9.29,18.67a89.47,89.47,0,0,0-1.47,27.07,56.7,56.7,0,0,0,4.79,19.52c3.13,6.69,7.62,12.11,14.71,14.83,11.69,4.47,24.69,1.41,34.15-8.88.46-.5.34-.85.08-1.33-2-3.74-4-7.49-6.14-11.43a35.34,35.34,0,0,1-7,5.76,16.09,16.09,0,0,1-11.66,2.3c-5.45-1.12-8.37-5-10.08-10-1.41-4.13-1.55-8.44-1.61-12.76C805.92,305.29,806.34,305.05,807.56,305.06ZM806,290.48a50.22,50.22,0,0,1,1.83-13.19,14.55,14.55,0,0,1,1.86-4,8.62,8.62,0,0,1,14.3.05c1.83,2.7,2.29,5.81,2.7,8.92.33,2.57.33,5.15.45,7.73.06,1.29-.4,1.5-1.54,1.48-3-.07-6.08,0-9.13,0s-6.28,0-9.43,0C806.26,291.49,805.94,291.32,806,290.48Z"/><rect class="cls-3" x="432.66" y="163.63" width="609.34" height="273.29"/></svg>