<svg id="Logos_Patrocinadores" data-name="Logos Patrocinadores" xmlns="http://www.w3.org/2000/svg" viewBox="0 0 1500 600"><defs><style>.cls-1{fill:#7a97ab;}</style></defs><g id="Capa_2" data-name="Capa 2"><g id="Figuras"><path class="cls-1" d="M876.7,412H793.19a23.69,23.69,0,0,1-8.57-3.1l8.33-4.75h3.57l16.66-5a72,72,0,0,0-5.95-15.47c-16.66-23.79-34-47.58-51.87-71.38l-11.9,15.71-37.59,51.87a70.59,70.59,0,0,0-5.24,9.28c-4.52,9.51-1.66,14.27,8.81,15.22H724.9c5,0,3.57,2.62,5.24,4.05s-3.57,3.33-5.24,3.33H649.24c-1.91,0-3.57-2.14-5.48-3.09,1.67-1.67,3.34-4.52,4.76-4.29,24.51,3.1,36.41-15.22,48.3-30.45s30-39.74,45.21-59.49a13.55,13.55,0,0,0,0-18.79c-19-25.22-37.59-50.68-56.39-76.14a38.07,38.07,0,0,0-34-20.23c-2.38,0-5-2.61-7.62-4.28,2.62-1.43,5.48-4.52,8.09-4.52h85.66c2.62,0,4.76,2.38,7.14,3.57-2.14,1.9-4.29,4.76-6.9,5.23s-9.52,0-14.28,0c-8.8,1.43-11.18,6-6.18,13.33,8.32,12.37,17.36,23.79,26.17,36.16S758.21,269,767.49,280l18.8-25c8.56-11.9,17.61-23.79,23.79-35.69s5.71-19-9.28-19.51a56.84,56.84,0,0,1-9,0c-1.9,0-3.09-2.86-4.76-4.28a16.69,16.69,0,0,1,5-4.76,18.71,18.71,0,0,1,7.38,0H962.6a13.62,13.62,0,0,1,5.47,0c1.67,0,3.81,2.61,3.81,4a5.94,5.94,0,0,1-3.57,4.28,47.51,47.51,0,0,1-8.09,0c-15.7,0-18.56,5.24-10.23,18.09s18.32,27.36,27.6,40.92l30.69,45.45,19.51-29.74c11.9-18.09,23.8-35.93,35.22-54.25,8.09-13.8,4-20-11.9-20.47a24.61,24.61,0,0,1-7.37,0,23.58,23.58,0,0,1-5.71-3.56,26.34,26.34,0,0,1,5.71-4.76,14.49,14.49,0,0,1,6.42,0h55.44a28.56,28.56,0,0,1,9,0,7.14,7.14,0,0,1,2.86,5s-2.62,2.86-4,2.86c-23.79,0-34.5,16.18-45.68,32.6-16.66,23.79-33.55,49.25-49.49,74.47a54.26,54.26,0,0,0-7.14,23.79v53.78c0,18.08,3.33,18.08,18.56,19.75a73.92,73.92,0,0,1,13.56,4.28c-3.09,7.38-9.52,3.57-14.28,3.81H964.27a31.3,31.3,0,0,1-8.09,0c-1.91,0-3.34-2.62-5-4s2.85-3.33,4.52-3.57a115.31,115.31,0,0,1,12.61,0,13.33,13.33,0,0,0,14.5-12,12.78,12.78,0,0,0,0-2.23V321.86a38.08,38.08,0,0,0-6.66-17.61c-19.27-29-39.26-57.58-58.29-87.08a47.58,47.58,0,0,0-45.21-18.56,69.45,69.45,0,0,0-58.53,34.74c-12.14,15.46-23.8,31.41-35.69,47.58a12.84,12.84,0,0,0,0,17.37c22.36,30,44.25,60.2,66.14,90.42a30.23,30.23,0,0,0,25.7,16.18c2.62,0,5,2.86,7.61,4.28Z"/><path class="cls-1" d="M221,263.09V191.71c0-6,1.9-8.09,8.33-8.09H274c5.95,0,8.09,1.9,8.09,7.85V336.14c0,6.9-2.85,8.32-8.8,8.09H230.47c-7.14,0-9.76-1.91-9.52-9.28Z"/><path class="cls-1" d="M451.75,333.28v71.38c0,6.66-1.43,9.76-9,9.52H398c-5.48,0-7.38-1.9-7.38-7.38V261.19c0-5.95,2.62-7.86,8.33-7.62h44.49c6.43,0,8.57,1.91,8.57,8.33C451.51,285.22,451.75,309.25,451.75,333.28Z"/><path class="cls-1" d="M1138,375.87c0-7.14,0-14.51,1.67-21.65,0-2.14,3.09-3.81,4.75-5.71,1.43,1.9,3.81,3.81,4.29,5.95a237.39,237.39,0,0,0,6.42,26.41,47.58,47.58,0,0,0,53.77,28.07,49.71,49.71,0,0,0,45.45-38.54,44.25,44.25,0,0,0-17.37-44,220.08,220.08,0,0,0-29.26-16.65c-13.09-6.67-27.13-12.14-39.74-19.75a53.31,53.31,0,0,1,2.14-94.23,95.16,95.16,0,0,1,68.05-8.32c23.79,4.52,23.79,4.75,26.89,29.26a119.74,119.74,0,0,1,0,12.85,34.34,34.34,0,0,1-2.86,7.85,27,27,0,0,1-5-6.18c-2.15-4.29-3.34-9.05-5.24-13.57a50,50,0,0,0-79.23-10.23,33.55,33.55,0,0,0,2.39,47.39l.23.2a181.78,181.78,0,0,0,34.5,21.41c10.94,5.95,23.79,10,33.78,15.71a60.68,60.68,0,0,1,35.46,56.15,62.6,62.6,0,0,1-36.41,56.63,101.14,101.14,0,0,1-97.08-1.9,17.65,17.65,0,0,1-6.9-11.66,67.83,67.83,0,0,1,0-15.47Z"/><path class="cls-1" d="M371.8,242.63H301.61c-7.14,0-9.52-2.38-9.28-9.52V191.47c0-5.95,2.14-7.85,8.09-7.85H443.18c6.43,0,8.57,2.14,8.33,8.33v41.87c0,6.9-2.14,9-8.8,9Z"/><path class="cls-1" d="M300.9,413.7H229.52c-6.43.24-8.57-1.9-8.57-8.8V362.07c0-5.47,1.9-7.61,7.38-7.61H373.47c5,0,6.9,2.14,6.9,7.14v44.49c0,6.42-2.62,7.61-8.33,7.61Z"/><path class="cls-1" d="M579.05,412.75H541c-2.38,0-4.76-2.38-7.14-3.57,2.14-1.42,4.28-3.8,6.66-4.28,25-3.09,25-2.86,25-28.31V221.69c0-17.85-3.09-20.94-21.17-21.89h-3.57a72.1,72.1,0,0,1-6.9-5c2.14-1.43,4.52-4,6.9-4h77.33c2.61,0,5,2.85,7.37,4.52a78.16,78.16,0,0,1-7.37,4.52h-4.52c-16.9,0-20,4-20,21.17V382.06c0,18.08,2.62,20.94,20.7,22.13h2.62l8.56,4.52a27.46,27.46,0,0,1-8.8,3.57C604,413,591.66,412.75,579.05,412.75Z"/></g></g></svg>