<?xml version="1.0" encoding="utf-8"?>
<!-- Generator: Adobe Illustrator 25.4.1, SVG Export Plug-In . SVG Version: 6.00 Build 0)  -->
<svg version="1.1" id="Logos_Patrocinadores" xmlns="http://www.w3.org/2000/svg" xmlns:xlink="http://www.w3.org/1999/xlink"
	 x="0px" y="0px" viewBox="0 0 1500 600" style="enable-background:new 0 0 1500 600;" xml:space="preserve">
<style type="text/css">
	.st0{fill:#3C3C3B;}
	.st1{fill:#363C3B;}
	.st2{fill:#FFFFFF;}
	.st3{fill:#353C3B;}
	.st4{fill-rule:evenodd;clip-rule:evenodd;fill:#3C3C3B;}
	.st5{fill:#FCFCFC;}
	.st6{fill:#EE8398;}
	.st7{fill:none;}
	.st8{fill-rule:evenodd;clip-rule:evenodd;fill:#3C3C3B;stroke:#000000;stroke-width:0.2137;stroke-miterlimit:3.8637;}
	.st9{fill:none;stroke:#353C3B;stroke-width:4.252;stroke-miterlimit:10;}
	.st10{fill:#393E41;}
	.st11{fill:#FFFFFC;}
	.st12{fill:#FFFCFB;}
	.st13{clip-path:url(#XMLID_00000025402126914251773150000004248336297728054166_);fill:#3C3C3B;}
	.st14{fill:#8F8FA3;}
	.st15{fill:none;stroke:#000000;stroke-width:4;stroke-miterlimit:10;}
</style>
<g>
	<path class="st14" d="M511.67,364.16c12.41-46.32,24.46-91.3,36.54-136.41c2.39-0.37,4.21-0.89,6.04-0.89
		c102.22,0.02,204.44-0.26,306.65,0.54c14.14,0.11,28.51,4.67,42.26,8.82c9.14,2.75,15.02,9.86,15.18,20.51
		c0.15,10.88-7.1,15.92-15.55,18.97c-12.06,4.36-24.61,7.37-38.39,11.38c11.53,1.32,22.23,1.58,32.44,3.95
		c13.73,3.18,27.86,6.41,40.43,12.44c21.33,10.23,21.71,30.61,1.56,43.09c-19.58,12.13-41.86,16.4-64.34,16.92
		c-44.88,1.05-89.79,0.63-134.69,0.68c-71.84,0.07-143.67,0.02-215.51,0.02C520.55,364.16,516.82,364.16,511.67,364.16z
		 M665.18,325.8c2.51,0.36,4.33,0.85,6.14,0.86c27.79,0.03,55.58,0.14,83.37-0.13c5.28-0.05,10.95-0.72,15.69-2.78
		c3.82-1.66,9.14-5.9,9.09-8.92c-0.06-4.38-3.35-10.89-7.07-12.58c-6.89-3.13-15.06-4.52-22.75-4.72
		c-22.41-0.58-44.84-0.21-67.26-0.21c-4.3,0-8.61,0-13.13,0C667.79,307.59,666.51,316.49,665.18,325.8z M672.71,272.38
		c26.94,0,52.99,0.27,79.04-0.19c6.78-0.12,15.95-1.83,15.45-10.26c-0.48-7.93-9.5-9.24-16.46-9.44c-22.99-0.66-46-0.92-69-0.98
		c-2.2-0.01-5.86,2.02-6.35,3.77C673.85,260.87,673.5,266.77,672.71,272.38z"/>
	<path class="st14" d="M1370.84,273.3c-29.45,0-57.85,0-86.24,0c-17.08,0-34.17-0.29-51.24,0.15c-6.11,0.16-10.44-1.35-13.06-6.81
		c-4.79-9.96-13.4-14.16-23.81-14.08c-20.43,0.15-40.93,0.22-61.26,1.97c-11.22,0.97-11.61,3.41-7.7,13.53
		c6.1,15.76,12.41,31.45,18.2,47.32c2.4,6.58,6.5,10.38,13.31,11.8c26.62,5.54,53.31,5.73,79.87,0.24
		c12.75-2.64,13.49-5.22,7.87-16.42c-0.95-1.89-1.78-3.85-3.06-6.65c3.91-0.17,6.93-0.42,9.95-0.42
		c42.39-0.03,84.78,0.12,127.17-0.16c6.67-0.04,11.52,1.44,14.97,7.28c2.22,3.77,5.19,7.11,7.58,10.79
		c8.69,13.37,6.74,22.94-8.56,27.81c-17.59,5.6-35.99,9.86-54.35,11.72c-67.14,6.79-134.55,5.53-201.87,3.46
		c-34.7-1.07-69.45-3.49-102.91-14.16c-4.5-1.43-8.94-3.1-13.27-4.98c-10.35-4.52-17.34-11.25-19.69-23.19
		c-3.56-18.08-8.76-35.84-13.27-53.73c-4.06-16.08-0.21-26.12,16.17-30.57c19.93-5.42,40.69-10.2,61.21-10.72
		c56.23-1.42,112.57-1.94,168.75,0.12c31.33,1.14,62.69,6.89,93.58,12.88C1352.05,244.9,1361.78,254.38,1370.84,273.3z"/>
	<path class="st14" d="M225.01,303.95c-0.99,2.57-1.34,3.71-1.86,4.77c-7.13,14.57-5.49,19.22,10.88,20.87
		c15.9,1.6,32.12,1.08,48.12,0.19c9.28-0.51,15.87-6.32,20.1-15.12c12.77-26.55,26.2-52.79,39-79.33c2.9-6.01,6.05-8.79,13.35-8.72
		c43.33,0.41,86.66,0.2,131.18,0.2c-1.12,3.87-1.86,7.04-2.96,10.09c-9.69,26.79-19.91,53.41-29,80.4
		c-5.27,15.65-15.45,26.71-30.67,30.77c-22.13,5.91-44.84,12.05-67.52,13.04c-54.59,2.38-109.33,3.02-163.96,1.93
		c-25.65-0.51-51.61-4.88-76.66-10.72c-28.38-6.62-32.64-22.01-15.25-45.34c1.22-1.63,4.09-2.9,6.21-2.91
		C145.19,303.9,184.41,303.95,225.01,303.95z"/>
</g>
</svg>
