<svg xmlns="http://www.w3.org/2000/svg" viewBox="0 0 56.6 26.82"><defs><style>.cls-1{fill:#8f8fa3;}</style></defs><g id="Capa_2" data-name="Capa 2"><g id="Textos"><path class="cls-1" d="M18.15,10.2c0-2.68,0-5.37,0-8.06A2.12,2.12,0,0,1,20.29,0c2.54,0,5.09,0,7.63,0h8.46a2,2,0,0,1,2.09,1.58,2.24,2.24,0,0,1,.05.58c0,5.37,0,10.75,0,16.12a2.14,2.14,0,0,1-2.14,2.12q-8,0-16,0a2.1,2.1,0,0,1-2.19-1.47,3,3,0,0,1-.08-.68Zm10.16,9.62h8.12A1.47,1.47,0,0,0,38,18.29V2.14A1.46,1.46,0,0,0,36.43.58q-8.05,0-16.12,0a1.5,1.5,0,0,0-1.59,1.61v16a1.47,1.47,0,0,0,1.63,1.65Z"/><path class="cls-1" d="M43.41,26.75V24.9a.51.51,0,0,0-.83-.48.6.6,0,0,0-.16.43c0,.5,0,1,0,1.51v.37h-.77v-.84c0-.36,0-.72,0-1.08s-.11-.46-.48-.46-.51.09-.52.46v1.92h-.74V24c.28.06.6-.19.79.2a1.33,1.33,0,0,1,1.73.07A1.22,1.22,0,0,1,43.82,24a.58.58,0,0,1,.34.42c0,.72,0,1.45,0,2.17,0,.06-.13.16-.2.17A3.6,3.6,0,0,1,43.41,26.75Z"/><path class="cls-1" d="M2.89,26.12c.11.58.09.6-.43.6H.36c-.26,0-.36,0-.36-.34C0,25.26,0,24.15,0,23H2.85v.54H1.48c-.7,0-.58-.07-.59.59a2.13,2.13,0,0,0,0,.35H2.6c.17.52.12.59-.37.59H.9v1.05Z"/><path class="cls-1" d="M28.54,26.72l-.09,0c-.73,0-.74.05-1-.66a.45.45,0,0,0-.56-.38,2.91,2.91,0,0,1-.59,0c-.33-.05-.48.1-.57.42-.21.69-.23.69-1,.59l.43-1.2c.28-.77.57-1.53.84-2.3a.3.3,0,0,1,.35-.25c1,0,.75-.18,1.09.74s.67,1.84,1,2.77C28.5,26.56,28.51,26.64,28.54,26.72Zm-1.86-3H26.6l-.49,1.44h1.05Z"/><path class="cls-1" d="M21.35,25.34v.13c.06,1.13-.39,1.3-1.28,1.31a5.22,5.22,0,0,1-.88-.07.75.75,0,0,1-.65-.75,9.77,9.77,0,0,1,0-1.21.8.8,0,0,1,.8-.84,5.43,5.43,0,0,1,1.14,0,.9.9,0,0,1,.86,1Zm-.82,0v-.56a.36.36,0,0,0-.38-.43H19.7c-.29,0-.4.18-.4.45s0,.64,0,1,.11.54.6.54.62-.1.62-.54Z"/><path class="cls-1" d="M35.92,25.37V25c0-.75.31-1.09,1.06-1.12a4.59,4.59,0,0,1,1.17.09c.46.09.6.48.62.89a8.39,8.39,0,0,1,0,1.12.7.7,0,0,1-.67.72,6.83,6.83,0,0,1-1.43,0,.79.79,0,0,1-.71-.87Zm2,0v-.46c0-.39-.16-.53-.58-.54s-.67.12-.69.5a8.81,8.81,0,0,0,0,.89c0,.47.14.6.65.59s.62-.13.62-.59Z"/><path class="cls-1" d="M45.5,24.39c-.06-.46,0-.49.35-.49s.94,0,1.41.06.6.27.62.7,0,1.12,0,1.68c0,.12-.1.35-.16.35-.22,0-.5.16-.66-.16a1.87,1.87,0,0,1-1.53.16.26.26,0,0,1-.14-.09,1.41,1.41,0,0,1-.07-1.17c.1-.32.38-.36.66-.37h.79c.14,0,.33.05.32-.2s0-.43-.27-.45a8.53,8.53,0,0,0-1,0Zm1.13,1.05h-.16c-.3,0-.46.11-.45.42s.08.46.43.47a1.26,1.26,0,0,0,.39,0,.41.41,0,0,0,.24-.18C47.26,25.69,47.08,25.44,46.63,25.44Z"/><path class="cls-1" d="M6.72,25.53c-.1.55,0,.78.54.79s.76,0,1.15-.05c.1.38.06.47-.32.48a7.81,7.81,0,0,1-1.53-.06c-.52-.09-.7-.39-.7-.91,0-.3,0-.6,0-.89,0-.55.23-.85.78-.93a4.38,4.38,0,0,1,1.2,0,.75.75,0,0,1,.68.83c0,.91.09.72-.7.74Zm1.13-.41c-.1-.29-.11-.59-.24-.66a1.23,1.23,0,0,0-.74-.06c-.28.06-.24.34-.21.55s.21.15.32.16A8,8,0,0,0,7.85,25.12Z"/><path class="cls-1" d="M30.17,24v1.77a.56.56,0,0,0,.89.54.58.58,0,0,0,.22-.43,12,12,0,0,0,0-1.47c0-.34.1-.47.43-.42a1.83,1.83,0,0,0,.34,0V26.7c-.5.13-.69.09-.81-.2a1.45,1.45,0,0,1-1.3.25.55.55,0,0,1-.53-.59c0-.65,0-1.29,0-1.94,0-.19.07-.28.27-.27Z"/><path class="cls-1" d="M34.29,23.14c0,.28,0,.59.09.75s.44.07.69.1v.39l-.35,0c-.42,0-.42,0-.42.43s0,.62,0,.92c0,.48.09.57.58.58H35c.1.41,0,.49-.35.48a3.45,3.45,0,0,1-.55-.07c-.43-.09-.63-.38-.65-.93,0-.37,0-.75,0-1.12,0-.22-.06-.33-.3-.3s-.3,0-.25-.23.16-.21.24-.2c.26,0,.33-.11.3-.34s0-.31,0-.49Z"/><path class="cls-1" d="M14.94,26.35c.05.41,0,.48-.37.47a3.6,3.6,0,0,1-.56-.08.71.71,0,0,1-.59-.75c0-.4,0-.79,0-1.19s-.08-.45-.4-.41a.62.62,0,0,1-.18,0V24l.06,0c.48-.06.49-.06.49-.55,0-.24.07-.34.32-.31s.28,0,.48,0a4.09,4.09,0,0,1,0,.5c0,.25.07.37.34.35A3,3,0,0,1,15,24v.41l-.13,0c-.63,0-.63,0-.63.7,0,.22,0,.44,0,.66,0,.47.1.57.57.58Z"/><path class="cls-1" d="M48.77,24.37v-.32c.2-.09.46-.13.54-.27s0-.42,0-.65h.78a4,4,0,0,1,0,.49c0,.25.08.36.34.34a3.05,3.05,0,0,1,.43,0v.41l-.19,0c-.61,0-.57-.08-.57.6,0,.25,0,.5,0,.75,0,.47.11.58.57.59h.16c.1.4,0,.49-.35.48a3.6,3.6,0,0,1-.56-.08.7.7,0,0,1-.59-.75c0-.4,0-.79,0-1.18s-.07-.46-.4-.42A.56.56,0,0,1,48.77,24.37Z"/><path class="cls-1" d="M4,22.67h.76v4.06H4Z"/><path class="cls-1" d="M54.61,26.74h-.76V22.67h.76Z"/><path class="cls-1" d="M9.63,22.69l0,0c.71-.07.71-.07.71.62v3c0,.48,0,.48-.48.47H9.63Z"/><path class="cls-1" d="M15.92,24h.73l0,.21a7,7,0,0,1,.76-.29c.21-.06.25.1.24.28s.06.32-.21.34c-.72.05-.79.15-.79.86,0,.37,0,.75,0,1.12,0,.21-.13.24-.28.21s-.47.13-.48-.17C15.9,25.7,15.92,24.85,15.92,24Z"/><path class="cls-1" d="M12.29,24c-.27.34-.51.67-.78,1a.28.28,0,0,0,0,.4c.3.42.58.84.87,1.27-.62.18-.83.1-1.15-.4-.18-.28-.36-.57-.57-.84a.34.34,0,0,1,0-.49,1.85,1.85,0,0,0,.3-.39A1,1,0,0,1,12.29,24Z"/><path class="cls-1" d="M56.53,24c-.28.34-.51.65-.77.95a.31.31,0,0,0,0,.43c.3.41.57.84.86,1.28-.65.16-.81.1-1.13-.38-.19-.29-.37-.59-.59-.87a.33.33,0,0,1,0-.48,2.36,2.36,0,0,0,.35-.48C55.53,23.93,56,23.87,56.53,24Z"/><path class="cls-1" d="M51.87,24l.07,0c.68-.08.68-.08.68.6s0,1.2,0,1.8c0,.3-.07.43-.38.39a2.35,2.35,0,0,0-.38,0Z"/><path class="cls-1" d="M24,25.36H22.36c-.15-.5-.1-.57.39-.57h.82C24.1,24.79,24.1,24.79,24,25.36Z"/><path class="cls-1" d="M51.85,23.56v-.67a3.31,3.31,0,0,1,.73.09.69.69,0,0,1,0,.45A3.65,3.65,0,0,1,51.85,23.56Z"/><path class="cls-1" d="M25.7,5.26V6.1c-.27-.35-.49-.61-.68-.9A3.66,3.66,0,0,0,23.74,4c-.95-.59-1.88-1.2-2.82-1.8a2.13,2.13,0,0,1-.29-.31l.08-.09,1.52,1c.65.42,1.32.82,1.95,1.28a4.23,4.23,0,0,0,1.5.41c-.16.81.61.8,1,1.15l.1,0c0-.33,0-.67,0-1s.07-.4.38-.4c.78,0,.78,0,.78.78V17.13H26.78V15.38L20.73,18.6l-.08-.06c.06-.08.1-.19.18-.24l3.76-2c.65-.34,1.3-.68,1.93-1a.68.68,0,0,0,.24-.38,1,1,0,0,0,0-.35c0-.84-.2-1.11-1.06-1.42v.67l-.07,0c-.32-.42-.62-.84-.95-1.24a2.2,2.2,0,0,0-.52-.49L20.91,10a1.63,1.63,0,0,1-.28-.3l.09-.08,1.52,1c.65.42,1.32.82,2,1.27a4,4,0,0,0,1.5.41c-.16.81.6.8,1,1.22,0-.23,0-.36,0-.5,0-.53,0-1,0-1.58a.43.43,0,0,0-.11-.31c-.28-.2-.59-.38-.95-.6v.71l-.08,0a6.6,6.6,0,0,1-.59-.8,4.38,4.38,0,0,0-1.67-1.44c-.82-.52-1.65-1-2.46-1.57a1.5,1.5,0,0,1-.27-.29L20.7,7a1.36,1.36,0,0,1,.21.1c1.05.68,2.11,1.34,3.15,2a2.3,2.3,0,0,0,1.28.42c.25,0,.37.08.36.37a.6.6,0,0,0,.22.38c.24.18.51.32.82.51,0-.21,0-.36,0-.51,0-.46,0-.92,0-1.38a.58.58,0,0,0-.34-.6c-.24-.13-.46-.28-.73-.44v.67l-.07,0a6.57,6.57,0,0,1-.51-.67,4.4,4.4,0,0,0-1.58-1.45c-.89-.55-1.77-1.12-2.65-1.7a1.33,1.33,0,0,1-.27-.26l.08-.1A3.37,3.37,0,0,1,21,4.6c1,.63,2,1.24,2.95,1.91A2.57,2.57,0,0,0,25.41,7c.21,0,.31.08.28.29a.45.45,0,0,0,.28.5l.8.49V7.64c0-.45,0-.9,0-1.35a.53.53,0,0,0-.3-.53C26.24,5.62,26,5.46,25.7,5.26Z"/><path class="cls-1" d="M34.77,4.16V5.32H31.32c-.33,0-.47.13-.47.45,0,1-.12.79.75.8h3.17V7.7H31.2c-.27,0-.36.08-.36.35,0,.88,0,.91.89.91h3v1.16h-1c-.92,0-1.84,0-2.76,0a2.75,2.75,0,0,1-.85-.18.91.91,0,0,1-.6-.93c0-1.24,0-2.48,0-3.71a1.12,1.12,0,0,1,1.21-1.12C32.08,4.13,33.41,4.16,34.77,4.16Z"/><path class="cls-1" d="M36,17.16c-.48,0-.93,0-1.37,0-.09,0-.21-.17-.24-.28-.45-1.29-.88-2.58-1.32-3.88a2.27,2.27,0,0,0-.16-.46.53.53,0,0,0-.34-.24.5.5,0,0,0-.38.22c-.22.57-.4,1.15-.6,1.77l.31,0c.57,0,.57,0,.75.56.08.23.16.46.23.69,0,0,0,0,0,.1-.5,0-1,0-1.5,0a.3.3,0,0,0-.35.25c-.1.35-.23.69-.34,1,0,.18-.12.25-.31.25-.42,0-.83,0-1.29,0L29.94,15c.39-1.06.77-2.13,1.2-3.19a1.19,1.19,0,0,1,.58-.57,2.16,2.16,0,0,1,1.69,0,1,1,0,0,1,.55.48C34.66,13.47,35.33,15.3,36,17.16Z"/></g></g></svg>