<svg xmlns="http://www.w3.org/2000/svg" viewBox="0 0 54.8 24.16"><defs><style>.cls-1{fill:#8f8fa3;}</style></defs><g id="Capa_2" data-name="Capa 2"><g id="Textos"><path class="cls-1" d="M2.45,7.27l.25-.39A17.85,17.85,0,0,1,8.09,1.67,11.12,11.12,0,0,1,14.42,0a11.36,11.36,0,0,1,5.71,1.92,18.09,18.09,0,0,1,5.14,5.21s0,.05.06.13a4.55,4.55,0,0,0-.64,0,1.3,1.3,0,0,1-1.38-.66,14.38,14.38,0,0,0-4.8-4.17,9.64,9.64,0,0,0-5.39-1.15,10.54,10.54,0,0,0-5,1.85A15.86,15.86,0,0,0,4.22,7a.66.66,0,0,1-.65.32C3.22,7.25,2.86,7.27,2.45,7.27Z"/><path class="cls-1" d="M29.23,17c.48,0,.94,0,1.38,0a.39.39,0,0,1,.27.19,17.15,17.15,0,0,0,3.19,3.29,10.83,10.83,0,0,0,5.51,2.37,9.43,9.43,0,0,0,5.25-.94,14,14,0,0,0,5.07-4.23,1.44,1.44,0,0,1,1.5-.7A3.3,3.3,0,0,0,52,17a1,1,0,0,1,0,.13,17.77,17.77,0,0,1-5.44,5.34,11,11,0,0,1-6.73,1.67A11.74,11.74,0,0,1,34.08,22a18.42,18.42,0,0,1-4.79-4.93A.85.85,0,0,1,29.23,17Z"/><path class="cls-1" d="M0,8.94V8.55H2.21a.32.32,0,0,1,.34.21C3.27,10.3,4,11.83,4.73,13.37l.09.14.12-.21L7.1,8.73c0-.07.13-.18.2-.18H9.51v.4L9,9c-.18,0-.29.1-.3.29s0,.37,0,.56c0,1.44,0,2.88,0,4.32,0,.12,0,.24,0,.35.05.51.05.51.56.56l.26,0v.38H6.38v-.4h.35c.36,0,.44-.08.46-.43s0-.82,0-1.23c0-1.13,0-2.26,0-3.41l-.13.23q-1.23,2.58-2.47,5.18a.45.45,0,0,1-.23.17c-.14.05-.2-.05-.26-.17C3.27,13.68,2.44,12,1.62,10.21L1.48,10c0,.08,0,.11,0,.13l0,4.27v.05c0,.59.07.63.66.67h.17v.39H0v-.38l.51-.06a.29.29,0,0,0,.29-.3c0-.08,0-.16,0-.25,0-1.66,0-3.32,0-5C.85,9.05.81,9,.36,9Z"/><path class="cls-1" d="M49.35,10.26V10l.1,0h2.91l.56,0a1.17,1.17,0,0,1,.8,1.93,3.07,3.07,0,0,1-.62.51,1.91,1.91,0,0,1-.32.16s0,0,0,.06c.5.75,1,1.5,1.5,2.24a1.18,1.18,0,0,0,.52.34v.29H53.37c-.06,0-.13-.08-.17-.13-.55-.85-1.11-1.7-1.65-2.55a.56.56,0,0,1-.07-.23,1.89,1.89,0,0,1,.23-.05,1.14,1.14,0,0,0,1-1.69.92.92,0,0,0-.78-.46c-.71-.07-.72-.07-.73.64,0,1.07,0,2.15,0,3.22a.22.22,0,0,0,0,.08c0,.22,0,.5.08.67s.38.16.6.25v.23h-2.5v-.28l.16,0c.42-.06.45-.06.46-.49,0-1.35,0-2.69,0-4a.3.3,0,0,0-.31-.33Z"/><path class="cls-1" d="M36.82,15.6a1.24,1.24,0,0,1-1-.42c-1-1.26-2.1-2.49-3.15-3.73l-.18-.21c0,.13,0,.21,0,.29l0,3c0,.55,0,.55.53.64l.13,0v.29H31.26v-.29l.14,0c.54-.07.55-.07.56-.63,0-1.25,0-2.5,0-3.75,0-.44,0-.47-.48-.51l-.22,0V9.93c.54,0,1.07,0,1.6,0,.08,0,.16.11.22.19l3,3.57.22.23a1,1,0,0,0,0-.21c0-1,0-1.93,0-2.89a1.23,1.23,0,0,0,0-.2c0-.25-.13-.35-.36-.35l-.32,0V9.94h1.9v.31l-.19,0c-.45,0-.49.08-.5.53v4.8Z"/><path class="cls-1" d="M27.51,13.7c-.05.55-.1,1.09-.16,1.63,0,.05-.1.11-.16.12l-.69.05H22.31c-.08-.16,0-.26.13-.32a.56.56,0,0,0,.38-.63c0-1.63,0-3.27,0-4.9,0-.1,0-.2,0-.31S22.68,9,22.47,9L22,9V8.56H25.2v.38L24.64,9a.3.3,0,0,0-.31.33c0,.11,0,.22,0,.33,0,1.65,0,3.31,0,5a2.11,2.11,0,0,0,0,.23l.4,0,1.94-.09c.17,0,.23-.1.26-.25S27,14.18,27,14C27.11,13.65,27.11,13.65,27.51,13.7Z"/><path class="cls-1" d="M46.44,15.48v-.3l.42,0c.17,0,.22-.11.17-.26-.12-.33-.24-.65-.37-1a.22.22,0,0,0-.17-.1c-.6,0-1.2,0-1.79,0a.24.24,0,0,0-.18.13c-.11.29-.21.59-.31.89s0,.29.21.31h.15c.27,0,.27,0,.24.34H43v-.34c.46.07.59-.26.73-.59.6-1.48,1.22-3,1.82-4.43.07-.18.15-.26.35-.24s.34,0,.44.23c.6,1.48,1.23,3,1.85,4.42.14.34.24.73.76.62v.33Zm0-2.15-.85-2-.84,2Z"/><path class="cls-1" d="M16.39,10.45l0-.32,1.42-.29a.27.27,0,0,1,.18.08,4.1,4.1,0,0,1,.45.58c.28.45.52.91.8,1.41.16-.23.31-.44.45-.66l.81-1.18a.26.26,0,0,1,.19-.12c.26,0,.52,0,.81,0l0,.3c-.54,0-.73.41-1,.74s-.63.81-.93,1.22a.31.31,0,0,0,0,.28c.42.76.86,1.51,1.3,2.26.13.24.29.47.63.43v.32c-.5,0-1,0-1.48,0-.06,0-.15-.09-.19-.16l-.95-1.72-.16-.27-.82,1.19-.18.28c-.46.74-.46.74-1.37.68-.06-.19,0-.31.21-.34a.59.59,0,0,0,.34-.18c.51-.65,1-1.31,1.5-2a.24.24,0,0,0,0-.22c-.39-.65-.78-1.3-1.18-1.94A.67.67,0,0,0,16.39,10.45Z"/><path class="cls-1" d="M16.06,15.16v.32H13.57v-.3l.41,0c.15,0,.23-.08.17-.24-.12-.33-.24-.67-.37-1a.24.24,0,0,0-.18-.1c-.59,0-1.19,0-1.79,0a.29.29,0,0,0-.18.13c-.11.28-.2.56-.29.85s0,.32.26.36l.32,0,0,.29H10.11v-.34c.44.08.58-.22.71-.54.61-1.48,1.23-2.95,1.84-4.43.06-.16.1-.3.34-.29s.37,0,.48.29c.59,1.45,1.21,2.9,1.82,4.35C15.45,14.85,15.54,15.26,16.06,15.16Zm-2.51-1.83-.85-2-.84,2Z"/><path class="cls-1" d="M42.25,11.14H42c0-.12,0-.23,0-.33,0-.26-.11-.36-.34-.37H39.93v2c.42,0,.86,0,1.3,0,.08,0,.18-.13.22-.22a1.2,1.2,0,0,0,0-.39h.32v1.71c-.31.07-.32.07-.34-.23s0-.41-.42-.42H39.92V15c.51,0,1,0,1.48,0s.57-.05.69-.61l.06-.25h.3c0,.41-.05.81-.09,1.2,0,.05-.1.13-.16.14-.23,0-.46,0-.69,0H38.24c.09-.12.14-.22.21-.26a.42.42,0,0,0,.27-.44c0-1.33,0-2.67,0-4,0-.4,0-.46-.45-.48s-.25-.16-.2-.33h4.28Z"/><path class="cls-1" d="M28.13,10h2.55v.3l-.13,0c-.54.05-.56.05-.57.59,0,1.22,0,2.45,0,3.67,0,.09,0,.17,0,.26,0,.26.13.36.39.35.09,0,.18,0,.29,0v.3H28.11v-.29l.3,0c.37-.05.4-.06.4-.44,0-1,0-2.08,0-3.12,0-.29,0-.58,0-.87s0-.42-.45-.44S28.08,10.26,28.13,10Z"/></g></g></svg>