<svg id="Logos_Patrocinadores" data-name="Logos Patrocinadores" xmlns="http://www.w3.org/2000/svg" viewBox="0 0 1500 600"><defs><style>.cls-1{fill:#7a97ab;}</style></defs><path class="cls-1" d="M864.77,498.22,806.69,281.34c-8.48-31.65-17.32-63.21-25.18-95a49.11,49.11,0,0,1,.29-22.52c3.82-15.77,9-31.23,14-46.66,1.06-3.22,3.54-6.94,6.41-8.43,20.8-10.79,41.87-21.08,62.87-31.49a34.35,34.35,0,0,1,4.62-1.41c1.13,3.11,2.36,5.94,3.19,8.87q53.42,187.94,106.81,375.89c.86,3,2.27,5.89,3.42,8.84V471c-2.58-1.2-5.45-2-7.7-3.66-9-6.62-18-13.14-26.45-20.41-5.8-5-10.2-4.54-16-.09-20.42,15.66-41.17,30.89-61.73,46.36a45.52,45.52,0,0,0-4.91,5Z"/><path class="cls-1" d="M739.79,90.52,844.84,486.29l-1.55.88q-15-14.25-29.91-28.51c-7.89-7.58-9.14-7.79-18.53-1.86-17.35,11-34.63,22-52,33-3.33,2.1-6.83,3.92-11.26,6.45-1.15-3.48-2.15-6.09-2.86-8.78-25-94.8-50.1-189.58-74.64-284.5-1.87-7.26-1.11-15.93.85-23.29,4.39-16.46,10.1-32.57,15.77-48.65,1.32-3.74,3.84-8.19,7.09-9.93,19-10.19,38.4-19.69,57.68-29.38A29.14,29.14,0,0,1,739.79,90.52Z"/><path class="cls-1" d="M640.72,213.14l73.53,274.43-1.67,1.3c-8.77-7.82-18-15.22-26.22-23.56-11.06-11.19-17.5-12.57-31.93-5.91C638,467,621.35,474.17,604.77,481.46a13.55,13.55,0,0,1-8.43.84c2.25-3.84,3.95-8.16,6.85-11.42,9.52-10.74,10.1-22.15,6.16-35.65-7.92-27.09-14.59-54.55-21.32-82a24.66,24.66,0,0,1,.62-13.89c15.57-40.55,31.57-80.93,47.47-121.34a49.61,49.61,0,0,1,2.49-4.8Z"/></svg>