<svg id="Logos_Patrocinadores" data-name="Logos Patrocinadores" xmlns="http://www.w3.org/2000/svg" viewBox="0 0 1500 600"><defs><style>.cls-1{fill:#7a97ab;}</style></defs><path class="cls-1" d="M786.24,341.15c-19.33-.29-34.49-16.74-32.72-35.92a38.69,38.69,0,0,1,2.28-9.51Q788,207.06,820.41,118.47a61,61,0,0,1,3.83-9,32.88,32.88,0,0,1,59.4,27.68q-6.06,16.66-12.14,33.33l-54,148.2c-4.05,11.09-11.78,18.26-23.22,21.27A73.5,73.5,0,0,1,786.24,341.15Z"/><path class="cls-1" d="M691.84,279.58a25.08,25.08,0,0,1,1.72-9.38q25.17-69,50.32-138c3.23-8.87,9.11-14.82,18.39-16.85a24.5,24.5,0,0,1,30,23.26,27,27,0,0,1-1.6,9.87q-18.42,50.43-36.81,100.87c-4.65,12.76-9.27,25.53-14,38.28-3.06,8.34-8.93,13.73-17.55,15.87a24.68,24.68,0,0,1-30.19-19.82C691.93,282.31,691.93,280.93,691.84,279.58Z"/><path class="cls-1" d="M717.85,150.22a17.79,17.79,0,0,1-1.25,7q-16.61,45.48-33.15,91c-1.77,4.88-3.61,9.74-5.35,14.63a18.5,18.5,0,0,1-21.18,11.63,18.31,18.31,0,0,1-14.24-19.26,20.17,20.17,0,0,1,1.21-5.34q11.61-32,23.3-64Q674.84,165,682.48,144a18.2,18.2,0,0,1,29.25-7.81A16.79,16.79,0,0,1,717.85,150.22Z"/><path class="cls-1" d="M659.13,159c-.54,2.07-.92,4.19-1.64,6.2q-10.74,29.63-21.57,59.23c-2.19,6-4.3,12-6.58,18a14.13,14.13,0,0,1-26.58-9.6c2-5.82,4.18-11.58,6.29-17.36q11-30.17,22-60.35a14.85,14.85,0,0,1,7.32-8.78A14.38,14.38,0,0,1,659.13,159Z"/><path class="cls-1" d="M370,487.47V414.54c.87-.08,1.64-.21,2.41-.22q4.2,0,8.4,0c2.37,0,2.38,0,3.24,2.31q8.27,22,16.52,44,2.35,6.28,4.73,12.56c.24.66.56,1.29.92,2.11a4.64,4.64,0,0,0,1.43-2.53q8-21.19,16-42.4,2.61-7,5.24-13.91c.81-2.11.84-2.12,3.14-2.13q4.2,0,8.39,0c.71,0,1.41.11,2.33.19.08,1,.2,1.82.2,2.66q0,33.69,0,67.38c0,.16,0,.32,0,.48,0,2.48-.16,2.61-2.54,2.65-2.06,0-4.13,0-6.41,0-.44-5.23-.16-10.16-.21-15.07s0-10.07,0-15.11V427.86l-.49-.12c-.31.68-.66,1.35-.92,2q-10.35,27.5-20.67,55c-.19.52-.41,1-.59,1.57a1.71,1.71,0,0,1-1.76,1.33c-1.92,0-3.84,0-5.76,0-1.36,0-1.68-1-2.05-2q-2.61-7-5.23-13.91-7.93-21.09-15.85-42.19a4.12,4.12,0,0,0-1.28-1.85c0,.82-.12,1.64-.12,2.46q0,26.86,0,53.71c0,1.1-.09,2.2-.15,3.48A35.16,35.16,0,0,1,370,487.47Z"/><path class="cls-1" d="M913.05,436.77c-3,0-5.81,0-8.59,0-.36,0-.76-.48-1.05-.81a2.56,2.56,0,0,1-.29-.91c-2-7.26-6.9-11.46-14-13.31a29,29,0,0,0-11.66-.59,22,22,0,0,0-15.55,10.19,34.34,34.34,0,0,0-5.17,15.8c-.79,7.55.11,14.84,3.82,21.61,7,12.84,24,16.77,35.81,8.23,6.25-4.52,8.85-10.91,8.95-18.45a5.68,5.68,0,0,0-.33-1.19H882.15a28.7,28.7,0,0,1,0-8h31.45c.56,1.84.68,35.1.14,38a9.48,9.48,0,0,1-5.07.2c-.48-.07-1-.93-1.22-1.53-.73-2.19-1.32-4.43-2-6.86a8.23,8.23,0,0,0-1.23.85c-7,7.82-16.12,10-26.12,9.21-14.87-1.16-27-11.79-30.35-28a45.74,45.74,0,0,1,3.64-29.92c5.88-12,15.65-18.2,29-18.62a41.12,41.12,0,0,1,13.52,1.6c10.38,3.23,16.74,10.18,19,20.84C913,435.5,913,435.89,913.05,436.77Z"/><path class="cls-1" d="M752.86,434.72c-.35,1.29-.55,2.13-.81,2.95q-7.54,23.64-15.1,47.27c-.12.38-.29.75-.37,1.13a2,2,0,0,1-2.28,1.62q-2.88-.06-5.76,0a1.91,1.91,0,0,1-2.16-1.72c-.86-3.57-1.81-7.12-2.72-10.68l-6.87-26.94c-.17-.68-.41-1.34-.68-2.21a3.54,3.54,0,0,0-1.12,2.42q-4.61,18.12-9.18,36.24c-.14.55-.31,1.08-.43,1.63a1.43,1.43,0,0,1-1.54,1.22h-7c-1.27,0-1.55-.92-1.85-1.85-1.15-3.57-2.31-7.15-3.45-10.72l-12-37.43c-.26-.82-.47-1.66-.8-2.85a53.16,53.16,0,0,1,8.76.06c.47,0,1,1.11,1.22,1.8,1.27,4.37,2.46,8.77,3.67,13.16q3.45,12.48,6.91,24.95c.23.84.51,1.66.84,2.75a3.78,3.78,0,0,0,1.07-2.41q4.51-18.37,9-36.77c.29-1.14.65-2.27,1-3.62h8.22c1.16,0,1.43.78,1.66,1.69,1.09,4.33,2.21,8.67,3.32,13q3.3,12.88,6.6,25.77a5,5,0,0,0,1.08,2.22c.31-1,.64-1.93.91-2.91q5.08-18.48,10.14-37c.15-.54.33-1.07.46-1.61a1.44,1.44,0,0,1,1.56-1.19Z"/><path class="cls-1" d="M575.94,481.24c-.17,8.85,0,17.58-.12,26.21a17.94,17.94,0,0,1-8.19.18c-.51-1.76-.64-69.68-.1-72.69a33.6,33.6,0,0,1,8.16-.06c.11,2.09.21,4,.34,6.41.62-.65.93-1,1.3-1.36,1.47-1.32,2.78-2.95,4.48-3.88,7-3.85,19.12-4.2,27,2.84a23.75,23.75,0,0,1,6.6,9.85,36.2,36.2,0,0,1,0,25.35c-4.14,11.21-14.21,15.68-24.54,14.6A21,21,0,0,1,579,484C578.07,483.16,577.14,482.31,575.94,481.24Zm-.29-20.19c0,4.55.7,9,3.12,12.89,3.39,5.52,8.54,7.69,14.85,7.34,6-.34,10.3-3.34,12.55-8.86a33.5,33.5,0,0,0,2-8.08,24.9,24.9,0,0,0-2.14-14.49c-2.83-5.79-7.56-8.73-14-8.81s-11.15,2.89-14,8.65A25.59,25.59,0,0,0,575.65,461.05Z"/><path class="cls-1" d="M1072.24,434.9h8.27v5.91l.48.17c.35-.34.69-.68,1-1,1.4-1.28,2.64-2.86,4.25-3.78,7.14-4.1,21.51-5,29.87,5.46a27.62,27.62,0,0,1,5.25,11.2,37.3,37.3,0,0,1-.78,19.88c-5.35,16.82-22.81,18.95-33.5,13.47-1.88-.95-3.41-2.59-5-4-.33-.27-.42-.84-.62-1.27l-.79.47v26.32a43.54,43.54,0,0,1-8.44.14Zm41,26.66a25,25,0,0,0-3.61-13.72,14.36,14.36,0,0,0-9.2-6.39c-8.68-1.86-16,2.34-18.73,10.83a28.42,28.42,0,0,0,.06,17.91c2,6.1,6.16,9.94,12.68,10.95,8,1.25,14.39-2.53,17.09-10.19a17.25,17.25,0,0,0,.84-3C1112.74,465.84,1113,463.7,1113.26,461.56Z"/><path class="cls-1" d="M464,450.93h-8.28a12.69,12.69,0,0,1,.95-6.16,15.9,15.9,0,0,1,10.75-9.84,36.84,36.84,0,0,1,20.37-.41c6.58,1.66,10,6.16,10.11,13.11.13,8.71,0,17.42.06,26.13,0,1.44,0,2.88.06,4.31.17,2.67,1,3.33,3.66,3.16l1.28-.13c.65,1.93.34,3.83.23,5.7,0,.46-.68,1.1-1.18,1.27a11.81,11.81,0,0,1-8.22.17,5.83,5.83,0,0,1-3.72-4.38c-.18-.74-.32-1.5-.53-2.5a14,14,0,0,0-1.31,1c-5.63,5.55-12.59,6.95-20.13,6.36a23.41,23.41,0,0,1-5.61-1.15,12.82,12.82,0,0,1-9-12.06,24.82,24.82,0,0,1,.13-4.31c.77-5.51,4-9.18,9.07-11.1a53,53,0,0,1,8.09-2.17c3.13-.63,6.31-1,9.46-1.51a29.77,29.77,0,0,0,4.21-.92c4.75-1.47,6.35-5.71,3.84-10.05a7,7,0,0,0-4-3.32,20.93,20.93,0,0,0-15.66.83,7.71,7.71,0,0,0-4.15,5.57C464.27,449.26,464.14,450,464,450.93Zm25.25,9.65a40,40,0,0,1-11.45,2.58c-1.9.22-3.8.51-5.68.89a14.39,14.39,0,0,0-6.55,2.76,8,8,0,0,0-2.74,8.4c.68,3.17,2.92,4.85,5.92,5.59a19.31,19.31,0,0,0,11.09-.54c4.19-1.44,7.57-3.92,8.89-8.36C489.74,468.34,489.15,464.66,489.2,460.58Z"/><path class="cls-1" d="M803.75,463.71H790.83c-4.4,0-8.8,0-13.19,0s-8.6-.12-13.1.12c-.11,4.91.91,9.14,4.17,12.57,4.16,4.38,9.44,5.46,15.19,4.7,5.21-.69,8.91-3.4,10.51-8.54a2.11,2.11,0,0,1,2.43-1.72c2,.08,4.1,0,6.39,0-.13,1-.14,1.6-.29,2.19-2.06,7.77-6.91,12.83-14.72,14.89a29.71,29.71,0,0,1-14,.25c-7.47-1.62-13-5.86-15.91-12.91-3.64-8.72-4.29-17.67-.64-26.6,5.22-12.72,17.9-17.7,30.16-14.24a19.42,19.42,0,0,1,9.91,6.86c4.93,6.16,6.63,13.34,6.5,21.07a3.36,3.36,0,0,1-.15.7c0,.07-.1.13-.15.19Zm-39-8.08c2,.57,27.92.59,30,0,.39-7.64-6.64-14.54-14.89-14.62S764.43,447.77,764.78,455.63Z"/><path class="cls-1" d="M1007.88,461.7c-.35,2.38-.57,5.34-1.25,8.2-2.71,11.45-11.42,18.56-23.2,18.91a34,34,0,0,1-7.87-.62c-8.78-1.83-14.7-7.12-17.62-15.58a34.77,34.77,0,0,1-.23-22.15c3.12-10,11.44-16.44,22-17a27.83,27.83,0,0,1,13.36,2.17c8.39,3.86,12.6,10.75,14.07,19.56C1007.52,457.12,1007.61,459.13,1007.88,461.7Zm-9.32-.38A26.31,26.31,0,0,0,996.05,450c-3-5.76-7.74-8.91-14.22-8.88a14.78,14.78,0,0,0-14.12,9,25.42,25.42,0,0,0-.22,21.8c2.78,6.29,7.92,9.55,14.82,9.38s11.53-3.75,14.29-9.91A27.27,27.27,0,0,0,998.56,461.32Z"/><path class="cls-1" d="M623.83,461.06c.47-3.07.7-6.2,1.46-9.19C628,441,636.51,434.12,647.7,433.43a28.11,28.11,0,0,1,12,1.61c7.92,3.07,12.69,8.94,14.78,17a36.19,36.19,0,0,1,.11,17.79c-2.78,11.53-11.58,18.64-23.44,19a27.65,27.65,0,0,1-13.3-2.5c-8.75-4.34-12.58-11.88-13.59-21.18a36.82,36.82,0,0,1,0-4.07Zm42.66.32a24.59,24.59,0,0,0-2.68-11.82c-3-5.51-7.71-8.51-14-8.5s-11.15,2.93-13.92,8.56a25.19,25.19,0,0,0-.16,22.87c2.8,5.85,7.79,8.82,14.26,8.77s11.21-3.24,14.14-9A24.5,24.5,0,0,0,666.49,461.38Z"/><path class="cls-1" d="M520,487.54a36.93,36.93,0,0,1-8.47-.15c0-17.5,0-34.87,0-52.42a29.93,29.93,0,0,1,8.08-.05v7.37l.48.09c.34-.4.71-.77,1-1.2,3.4-4.87,8.19-7.23,14-7.72a24.55,24.55,0,0,1,9.49.91c6.17,1.91,9.46,6.27,10.4,12.5a43.45,43.45,0,0,1,.51,6.44c0,10.38,0,20.77,0,31.16,0,.93-.09,1.87-.15,3a29.29,29.29,0,0,1-7.29.11c-.42,0-1-.74-1.12-1.24a7.59,7.59,0,0,1-.09-2.14c0-10.22,0-20.45,0-30.67a24.69,24.69,0,0,0-.32-4.3,9.15,9.15,0,0,0-7.22-7.75c-9.08-2.29-17.3,3.11-18.76,12.32a31.74,31.74,0,0,0-.38,4.77c0,8.62,0,17.25,0,25.88C520.13,485.36,520,486.3,520,487.54Z"/><path class="cls-1" d="M1052.06,434.89h8c.58,1.76.79,48.54.26,52.2-1.65.73-4.76.85-7.77.21v-7.2L1052,480a7,7,0,0,0-.89.92c-3.52,5.32-8.69,7.64-14.85,7.92a31.58,31.58,0,0,1-7.39-.52c-6.77-1.31-10.86-5.86-11.9-13a42.51,42.51,0,0,1-.48-6c0-10.63,0-21.27,0-31.9,0-.77.1-1.55.17-2.51h8.22c.09,1,.25,2,.25,3,0,10.23,0,20.46,0,30.69a28.6,28.6,0,0,0,.23,3.82c.67,5.12,4,8.41,9.22,8.79,9.58.72,15.73-4.51,16.93-13.17a36.46,36.46,0,0,0,.34-5c0-8.39,0-16.78,0-25.18C1051.92,437,1052,436,1052.06,434.89Z"/><path class="cls-1" d="M813.5,487.53V435.27c1.71-.7,4.85-.8,7.83-.22v10.2a11.93,11.93,0,0,0,1.34-1.23c1.07-1.49,2-3.1,3.19-4.48,3.93-4.56,9-6.35,14.89-6.07a24.19,24.19,0,0,1,.13,8.87c-.93.14-1.93.33-2.94.44-9.13,1-14.32,6-15.49,15.15a59.57,59.57,0,0,0-.45,6.93c-.06,6.47,0,12.95,0,19.42v3.06C819.12,488,816.46,487.68,813.5,487.53Z"/><path class="cls-1" d="M926.24,434.84h7.83c.07,3.38.14,6.65.21,9.92l.5.21c2.68-4.69,5.91-8.77,11.24-10.54a15.93,15.93,0,0,1,7.82-.74,67.2,67.2,0,0,1,0,8.62c-1.28.18-2.44.39-3.61.52-8,.88-12.88,5.08-14.6,12.95a42.94,42.94,0,0,0-.85,8.32c-.11,6.79,0,13.58,0,20.37,0,.94-.09,1.87-.15,3a29.84,29.84,0,0,1-7.3.1c-.41,0-.93-.74-1.11-1.24a6.05,6.05,0,0,1-.09-1.91q0-23.25,0-46.5C926.05,437,926.16,436,926.24,434.84Z"/></svg>