<svg id="Logos_Patrocinadores" data-name="Logos Patrocinadores" xmlns="http://www.w3.org/2000/svg" viewBox="0 0 1500 600"><defs><style>.cls-1,.cls-2{fill:#7a97ab;}.cls-1{fill-rule:evenodd;}</style></defs><path class="cls-1" d="M256,363.76v-7.71l5.49-.35c4.49-.25,7.28-1,8.41-2.32s1.82-5.62,2-13.05q.66-22.68.66-49.16,0-14.07-.19-32c-.12-7.22-.56-11.64-1.28-13.21a4.23,4.23,0,0,0-2-1.95c-1-.5-5.33-1-13.05-1.56v-7.72q11.1.28,21.77.28c8.28,0,16.22-.09,23.91-.28q4.94,11.67,10.28,23.15,3.77,8.19,33.35,69.39,31.24-62.86,43.76-92.54c7.34.31,14.34.47,21,.47,7.78,0,15.27-.16,22.52-.47v7.72c-8,.5-12.58,1.19-13.61,2.13s-1.73,3.73-2,8.44q-.7,11.57-.72,44,0,16.38.37,34.57c.25,12.14.66,19,1.29,20.58a4.66,4.66,0,0,0,1.82,2.13c.81.47,5.08,1.07,12.89,1.73v7.71q-14.91-.7-26.57-.72t-32,.72v-7.71l5.43-.19c4.3-.16,7-.75,8-1.79s1.79-3.67,2.07-8,.47-14.49.47-30.55V260q-14.16,28.38-36.11,74.44-9,18.92-14.08,30.87h-6.24q-6.87-15.81-18.48-40L283.29,260v12.49q0,51.86.54,71.43c.18,5.27.91,8.5,2.13,9.72s5.77,2,13.68,2.39v7.71q-9.37-.7-18.73-.72-14,0-24.91.72Z"/><path class="cls-1" d="M443.06,356.87c4.59-.25,7.43-.7,8.51-1.41.75-.47,1.91-2.36,3.46-5.57q4.49-9.56,11.47-26.55l26-63.74h10.82l33.23,78.95q6.46,15.39,8,16.84c1,1,4.11,1.65,9.31,2v6.2q-12-.52-22.66-.53c-8.49,0-16.54.18-24.2.53v-6.2c5.85-.23,9.21-.58,10.12-1a2.29,2.29,0,0,0,1.35-2.26q0-1.39-3.08-9.53L510.54,332c-6.07-.1-12.87-.15-20.35-.15-6.52,0-12.47.05-17.79.15l-3.24,8.46c-.9,2.28-2,5.72-3.24,10.29a10.08,10.08,0,0,0-.45,2.79,2.42,2.42,0,0,0,1.43,2.38c1,.48,4.42.95,10.34,1.43v6.2Q470,363,459.3,363c-6.8,0-12.23.18-16.24.53v-6.7Zm48.21-71.25-15.51,37.72q6.78.38,14.93.38c5.7,0,11.12-.13,16.31-.38l-15.73-37.72Z"/><path class="cls-1" d="M557.84,363.57v-6.2c4.41-.28,7.12-.73,8.13-1.31s3.31-3.21,6.92-7.88l24.8-33q-11.64-20.35-18.57-31.24T568.7,270.76a7.78,7.78,0,0,0-4.46-1.25,30.94,30.94,0,0,0-4.8.53l-.65-6,27.51-5.52a34.48,34.48,0,0,1,7.22,6.83q2.76,3.62,10.34,17.59l7.78,14.33,18-26.17c3.09-4.47,5.4-8,6.93-10.67a50.66,50.66,0,0,0,7.4.6,92.92,92.92,0,0,0,9.79-.6v6c-4.12.3-6.68.75-7.65,1.33q-2,1.1-7.06,7.66l-22.78,29.76,4.84,8.83q12.64,22.94,17.72,30.87c4.51,7,7.2,10.74,8,11.35s3.16,1,6.88,1.15v6.2q-8.4-.52-16-.53c-4.49,0-8.91.18-13.23.53-1.85-3.06-4.44-7.56-7.73-13.55l-14.63-26.76L587.83,344c-1.71,2.61-5.75,9.11-12.12,19.58-3.84-.35-6.68-.53-8.54-.53s-5,.18-9.33.53Z"/><path class="cls-1" d="M668.48,363.7v-4.8a60.87,60.87,0,0,0,9.57-5.61q1.23-24.9,1.2-51.92,0-21.22-.44-40.06c-.19-8.94-.63-14.09-1.29-15.44a3.08,3.08,0,0,0-1.91-1.78c-.94-.41-5.4-.94-13.37-1.63v-7.72q17.75.47,32.91.47c9.82,0,19.07-.16,27.86-.47v7.72c-8.47.56-13.34,1.28-14.62,2.22a5.08,5.08,0,0,0-1.7,3.33q-.51,2.53-.78,29.74l-.57,44.76c0,8.41.22,18.1.66,29.14q12,.62,17.82.63,17.37,0,29.24-2.66c1.6-5.56,3.14-12.21,4.67-19.92h8.1c-1.35,8.75-2.54,19.6-3.58,32.62a112.38,112.38,0,0,1-16.09,1.29l-33.29-.38L698,363c-6.87-.06-16.68.16-29.52.66Z"/><path class="cls-1" d="M776.27,363.57v-6.2c6.75-.33,10.59-.9,11.47-1.68s1.43-2.71,1.6-5.8q.52-9.7.53-36.19,0-10.12-.3-29.41c-.1-8.76-.28-13.58-.58-14.43a3.13,3.13,0,0,0-1.56-1.88c-1.08-.55-4.79-1-11.16-1.41V260.4q15.12.6,23.16.6,13.82,0,25-.6v6.17q-10,.6-11.3,1.58t-1.65,4.6q-.65,7.06-.66,28.61,0,28.68.23,39.95c.15,7.53.58,12,1.3,13.43a3.35,3.35,0,0,0,1.89,1.5c1,.38,4.34.75,10.19,1.13v6.2l-8.69-.23q-8.24-.3-14.7-.3l-24.77.53Z"/><path class="cls-1" d="M834.56,363.57v-6.2c6-.23,9.49-.63,10.52-1.15a3.67,3.67,0,0,0,1.56-1.94c.52-1.18.87-5.32,1-12.42q.42-17.66.43-26.6l-.15-31.12c0-8.23-.25-13-.8-14.25a3.07,3.07,0,0,0-1.38-1.61c-1-.6-4.72-1.16-11.2-1.71V260.4c7.76.25,13.48.38,17.22.38,4.12,0,8.78-.13,14-.38q16.94,21.6,38.25,46.9,14.19,16.95,24.46,28V306.12c0-11-.12-20.52-.42-28.5-.2-4.77-.6-7.68-1.18-8.76a2.59,2.59,0,0,0-1.63-1.26,92.84,92.84,0,0,0-10.29-1V260.4q8,.38,16,.38c7.25,0,13.83-.13,19.7-.38v6.17c-5.5.35-8.79.76-9.91,1.18a4,4,0,0,0-1.56,1,4.46,4.46,0,0,0-.88,1.71c-.35,1.15-.53,4.94-.58,11.32l-.22,29.41-.15,29.61q0,11.94.5,23.82l-1,1q-8.89-1.62-12.58-2.11-18.9-21-45.65-52.65-13.51-16-21.83-27v28.58q0,11.72.38,28.16c.12,8.11.47,12.75,1,14a2.25,2.25,0,0,0,1.11,1.25c.93.53,4.44,1,10.56,1.46v6.2c-7.93-.35-13.62-.53-17-.53q-4.3,0-18.33.53Z"/><path class="cls-1" d="M965.13,363.57v-4a38.55,38.55,0,0,0,7.12-4.12q1.51-11.44,1.49-48.23,0-25.08-.51-33.23c-.15-2.88-.65-4.72-1.5-5.47s-4.52-1.41-11-2V260.4q17.36.68,27.44.68l40.5-.45c4.27,0,8.13.17,11.54.5l.53.83a156.68,156.68,0,0,0-2.36,21.3h-5.8c-.25-7.15-.52-11-.85-11.47s-1.43-1-3.34-1.38c-4.06-.9-10.29-1.33-18.67-1.33-4.11,0-8.93.18-14.43.5q-.95,22.74-1.1,36.19c5.24.33,10.19.5,14.78.5,6.83,0,10.92-.22,12.3-.65a3,3,0,0,0,1.75-2.13c.3-.88.63-4,1-9.26h6.33c-.25,8.28-.38,13.68-.38,16.16l.38,16.56h-6.33c-.35-6.42-.78-10.13-1.33-11.11a2.82,2.82,0,0,0-2-1.26c-2.46-.53-8-.8-16.54-.8-2.71,0-5.85.15-9.48.45-.11,2.59-.16,5.25-.16,7.93q0,21,.73,32.35l14.56.23a179.34,179.34,0,0,0,22.73-1.34c1.23-4.49,2.39-9.63,3.52-15.35h6.12a240.6,240.6,0,0,0-2,24.84,114.83,114.83,0,0,1-12.85.73c-2.71,0-8-.08-16-.28q-11.1-.3-20.42-.3c-8.21,0-16.82.18-25.9.53Z"/><path class="cls-1" d="M1051.61,356.87c4.59-.25,7.43-.7,8.51-1.41.75-.47,1.9-2.36,3.46-5.57q4.47-9.56,11.47-26.55l26-63.74h10.82l33.22,78.95q6.48,15.39,8,16.84c1,1,4.11,1.65,9.31,2v6.2q-12-.52-22.67-.53-12.72,0-24.19.53v-6.2c5.85-.23,9.21-.58,10.12-1a2.29,2.29,0,0,0,1.35-2.26q0-1.39-3.09-9.53L1119.09,332c-6.07-.1-12.87-.15-20.35-.15q-9.79,0-17.8.15l-3.23,8.46a104.11,104.11,0,0,0-3.24,10.29,10.08,10.08,0,0,0-.45,2.79,2.42,2.42,0,0,0,1.43,2.38c1,.48,4.41.95,10.34,1.43v6.2c-4.82-.35-10.79-.53-18-.53-6.8,0-12.22.18-16.23.53v-6.7Zm48.21-71.25-15.51,37.72c4.52.25,9.48.38,14.93.38,5.7,0,11.12-.13,16.31-.38l-15.73-37.72Z"/><path class="cls-1" d="M1169.4,363.57v-6.2c5.69-.48,8.93-.95,9.78-1.38a2.6,2.6,0,0,0,1.16-1.41c.5-1.18.85-5.14,1-11.92q.38-15.74.37-24.77,0-12.19-.3-31c-.17-9.37-.65-15.11-1.38-17.22a2.52,2.52,0,0,0-1.18-1.46c-.78-.5-3.94-1-9.48-1.63V260.4q15.19.6,19.62.6l36.84-.68q12,0,17.47,2.34a18.56,18.56,0,0,1,8.66,7.4,22.26,22.26,0,0,1,3.21,12,24.71,24.71,0,0,1-5.12,15.49q-5.08,6.66-17.74,11.79L1248,333l12.19,18.07c2.31,3,4,4.71,5.15,5.34a13,13,0,0,0,5.52,1V363l-4.34.08q-18.68.15-24,.45-6.4-10.24-19.13-29.64l-15.13-23a17.47,17.47,0,0,0,1.1-2.66,38,38,0,0,0,4.35.37q6.81,0,13.45-5.52t6.6-15.73q0-8.89-5.22-13.8t-15.66-4.95q-3.31,0-9,.53l-.53,21.68-.65,27.51q0,9.33.73,23.89.6,11,1.18,12.27a3.25,3.25,0,0,0,1.63,1.55c1,.58,4.36,1,10,1.31v6.2c-8.81-.35-16.64-.53-23.44-.53q-10.89,0-23.39.53Z"/><path class="cls-2" d="M1218.89,390.63c-22.6,33.52-47.42,60.7-73.63,81.54-43.32,34.43-90.43,51.65-137.69,51.65S913.2,506.6,869.88,472.17c-26.21-20.84-51-48-73.63-81.54h28.89c18.62,25.41,38.6,46.42,59.47,63,39,31,81,46.46,123,46.46s84-15.49,123-46.46c20.88-16.59,40.86-37.6,59.47-63Z"/><path class="cls-2" d="M301.08,211.39c22.88-34.25,48.08-62,74.71-83.14C419.12,93.81,466.23,76.6,513.48,76.6s94.37,17.21,137.69,51.65c26.63,21.16,51.83,48.89,74.71,83.14H697.09c-19-26.13-39.33-47.67-60.65-64.61-39-31-81-46.47-123-46.47s-84,15.49-123,46.47c-21.31,16.94-41.69,38.48-60.64,64.61Z"/></svg>