<svg id="Logos_Patrocinadores" data-name="Logos Patrocinadores" xmlns="http://www.w3.org/2000/svg" viewBox="0 0 1500 600"><defs><style>.cls-1{fill:#7a97ab;}</style></defs><path class="cls-1" d="M646.15,326c-.2,15.39-6,39.69-17.51,62.71-2.75,5.51-5.39,6.41-10.64,3a264.61,264.61,0,0,0-23.28-13.28c-5.83-3-6.07-6-3.23-11.77,14.13-28.91,16.39-59,5.78-89.42-3.42-9.8-8.51-19.14-13.76-28.15s-5.93-8.81-11,0c-12.08,20.85-24,41.8-36,62.69q-42.43,73.77-84.92,147.51a39.82,39.82,0,0,0-2.36,4c-2.61,6.17-6.68,7.92-13,5.1-8.15-3.63-16.46-6.89-24.73-10.24-5.22-2.12-5.74-5-2.87-9.89,11.27-19.07,22.18-38.35,33.27-57.53q59.23-102.43,118.47-204.88c6.32-10.95,5.11-10.54,15.06-3.78C619.91,212.26,646.16,262,646.15,326Z"/><path class="cls-1" d="M485.68,154.87c18.37-.76,35.76,3,52.94,8.34,5.07,1.57,7.23,3.34,3.59,8.84a234.62,234.62,0,0,0-13.28,23.29c-2.79,5.49-6.34,7.15-12.18,5.17-13.51-4.59-27.52-4.73-41.55-3.93-10.42.59-11.33,1.87-10.6,12,.61,8.52.87,17.07,1.55,25.59.39,4.92-1.32,7.4-6.06,9.64A135.72,135.72,0,0,0,436.26,258c-4.42,3.36-7.08,3-11.1.15-7.64-5.35-15.8-10-23.32-15.47-5.22-3.82-8.59-3.4-12.36,1.9-11,15.48-18.41,32.41-21.29,51.2-6.23,40.63,6.2,75.19,34.87,104.05,4.2,4.23,4.45,7.16,1.5,11.83-5.19,8.21-10,16.65-14.76,25.14-2.32,4.17-4.27,4.39-7.89,1.21-32-28.18-51.25-63-55.63-105.69-4.46-43.38,6.64-82.45,33.3-116.87,6.38-8.24,14.49-15.13,21.6-22.84,4-4.35,7.46-3.82,12-.64,8.94,6.21,18.34,11.73,27.47,17.66,4.52,2.94,6.32,1.78,6-3.45-.52-10.08-.87-20.18-1.53-30.25-.61-9.21-.54-9.84,8.05-12.72C450.32,157.51,467.79,154,485.68,154.87Z"/><path class="cls-1" d="M976.32,316.07c0,22.94.09,45.88,0,68.82,0,8.43-.16,8.43-8.25,8.59-10,.2-10.87-.2-10.86-8.79,0-27.2.33-54.41.55-81.62,0-1.94.18-3.88.13-5.82a5.77,5.77,0,0,0-.72-1.84c-.5.55-1.29,1-1.45,1.67a46,46,0,0,0-1,5.72c-3.31,26.59-6.51,53.2-10,79.77-.47,3.59-1.8,9.34-4,10-5,1.45-10.72.85-16,0-1.41-.23-2.86-4.25-3.18-6.67-3.36-25-6.48-50.07-9.69-75.11-.69-5.4-1.45-10.79-2.23-16.17a31.72,31.72,0,0,0-.86-3.32,18.75,18.75,0,0,0-.82,3.92q0,40.24.09,80.48c0,2.72.05,5.44,0,8.16-.21,9.55-.44,9.76-9.83,9.7-9.07,0-9.3-.13-9.32-10.23q-.17-67.08-.12-134.14c0-10.3.14-10.3,10.26-10.5,22-.45,22.17-.46,24.61,21.57,2.65,23.93,5,47.89,7.6,71.84a22.11,22.11,0,0,0,1.13,3.87c.55-1.38,1.42-2.72,1.58-4.14,2.93-25.48,6-50.94,8.55-76.45,1.7-16.7,1.41-16.78,18.44-16.74,18.33,0,15.16-1.38,15.28,15.64C976.38,274.86,976.3,295.47,976.32,316.07Z"/><path class="cls-1" d="M991.81,323c0-18.64-.2-37.28,0-55.91.26-24.39,5.92-29.95,30.45-30.36a87.82,87.82,0,0,1,12.75.85c14,1.76,18.66,6.6,20.22,20.87a155,155,0,0,1,.92,16.26c.1,35.33.17,70.67,0,106,0,4-.75,11-2.49,11.42-5.77,1.5-12.18.92-18.29.45-.94-.08-2.15-3.79-2.25-5.87a163.36,163.36,0,0,1-.07-19.79c.52-7-3.41-7.53-8.66-7.48-8.29.08-9.14.54-9.41,7.89-.24,6.59-.17,13.2-.09,19.8.05,4.38-1.89,6.5-6.3,6.29-.39,0-.78,0-1.16,0-15.35,1.06-15.59.85-15.61-14.53q-.06-28-.05-55.91Zm23.1-22.86c0,11.23.2,22.45,0,33.67-.13,6.28,3.6,6.87,8.29,6.54,4.34-.3,9.85,1.45,9.8-6.18-.13-22.06.07-44.13-.19-66.19-.09-7.64-3.14-10.4-9.53-10.21s-8.21,2.56-8.33,11C1014.76,279.23,1014.89,289.68,1014.91,300.13Z"/><path class="cls-1" d="M809.06,316.08c0-22.53-.1-45.06,0-67.59,0-9.51.19-9.62,9.81-9.74s19.43-.26,29.13.11c18.43.72,24.37,6.58,25.2,24.73.38,8.14.18,16.31.19,24.47,0,1.55-.2,3.1-.31,4.64-.53,7.08-5.52,11.31-10.07,15.83,5.55,4,9.92,8.89,10,16.06.28,21,.25,41.94.44,62.91,0,4.61-2.32,5.73-6.46,6.1-16,1.41-16.33,1.19-16.34-14.53,0-16.71,0-33.41-.14-50.11,0-5.14-.49-10.24-7.54-11-8.29-.92-10.39.52-10.45,9.12-.13,18.65.06,37.3,0,55.94-.06,10.44-.2,10.44-10.26,10.61a45.25,45.25,0,0,0-4.66,0c-6.72.79-8.59-2.45-8.53-8.78C809.26,361.92,809.09,339,809.06,316.08Zm23.36-37.34h.11c0,5-.19,10.05.12,15.05.11,1.66,1.07,4,2.37,4.75,6.26,3.7,14.72-.74,15.3-8.25a160.86,160.86,0,0,0,.08-20.83c-.44-8.36-2.71-9.83-10.73-10s-7.28,4.95-7.26,10.05C832.43,272.57,832.42,275.66,832.42,278.74Z"/><path class="cls-1" d="M739.67,287.46c-.6,10.06-.69,20.18-1.94,30.16-1.45,11.61-6.72,16.12-18.37,17.1a138.87,138.87,0,0,1-15.13.45c-5.08-.14-6.79,2.18-6.73,7,.16,13.59.12,27.18,0,40.78-.07,10.68-.15,10.68-11.18,10.75-.77,0-1.55,0-2.33,0-9.62-.19-9.81-.19-9.85-9.69-.12-27.57-.08-55.14-.11-82.71,0-17.87-.12-35.73,0-53.59.06-8.49.26-8.72,8.36-8.83,11.25-.14,22.55-.41,33.77.32,15.43,1,20.63,6,22.11,21.47.84,8.84.16,17.82.17,26.74Zm-42.15-.16c0,7.34-.15,14.69.12,22,.07,2.08.77,5,2.24,6,5.64,4.05,15-.33,15.65-7.23.45-5,.19-10,.19-15.06,0-8.5.25-17-.21-25.49-.37-6.75-3.11-8-11.24-8-6,0-7,3.17-6.83,8.07C697.63,274.16,697.49,280.73,697.52,287.3Z"/><path class="cls-1" d="M751.3,315.9c0-22.54-.11-45.08,0-67.62,0-9.19.22-9.32,8.94-9.47,9.33-.17,18.66-.22,28,0,7.56.19,7.84.7,7.84,9.35,0,5,1,10-7.14,10.2-14.27.41-14.26.91-14.25,15.56,0,5.05,0,10.1,0,15.15.13,10.34.15,10.34,10,10.83.39,0,.78,0,1.17,0,9.55.5,9.91.86,9.74,10-.15,8.12-.24,8.21-8.61,8.57a22.72,22.72,0,0,1-3.5,0c-6.32-.75-9.09,1.55-8.87,8.37.43,13.2.33,26.42.08,39.63-.11,5.64,2.18,7.82,7.58,7.24a16.48,16.48,0,0,1,2.33,0c11.74.32,13.87,2.83,11.46,14.72-.39,1.92-3.09,4.73-4.81,4.81-11.25.46-22.53.24-33.8.34-4.6,0-6.1-2.46-6-6.61.05-2.72,0-5.44,0-8.16Q751.32,347.39,751.3,315.9Z"/><path class="cls-1" d="M670.85,160.13h11v59.34h-11Zm18.26,17.44a7.87,7.87,0,0,0-.94-4.26,3.08,3.08,0,0,0-2.77-1.46,3,3,0,0,0-2.67,1.43,7.9,7.9,0,0,0-.92,4.23l-.91-7.38A19.16,19.16,0,0,1,685,162a8,8,0,0,1,6-2.86,7.75,7.75,0,0,1,4.92,1.6,9.82,9.82,0,0,1,3.08,4.69,23.62,23.62,0,0,1,1,7.55v46.53H689.11Zm18.23,0a8.07,8.07,0,0,0-.92-4.26,3,3,0,0,0-2.67-1.46,3.1,3.1,0,0,0-2.77,1.43,7.71,7.71,0,0,0-.94,4.23l-.79-7.6a18.88,18.88,0,0,1,4.15-8,8.13,8.13,0,0,1,6-2.77,7,7,0,0,1,4.8,1.77,11.31,11.31,0,0,1,3.09,5.15,27.14,27.14,0,0,1,1.07,8.12v45.33h-11Z"/><path class="cls-1" d="M732.62,218.19A13.52,13.52,0,0,1,727.7,212a25.68,25.68,0,0,1-1.7-9.86V178.42A29.32,29.32,0,0,1,727.66,168a14.08,14.08,0,0,1,4.78-6.6A12.52,12.52,0,0,1,740,159.1a13.16,13.16,0,0,1,7.67,2.2,13.76,13.76,0,0,1,4.85,6.43A27.75,27.75,0,0,1,754.19,178v16.8H734.74V184.43h9v-7.09a7.38,7.38,0,0,0-1-4.12,3.08,3.08,0,0,0-2.73-1.48,2.78,2.78,0,0,0-2.55,1.57,9,9,0,0,0-.9,4.43v24.81a6.23,6.23,0,0,0,1,3.77,3.32,3.32,0,0,0,2.82,1.32,3.21,3.21,0,0,0,2.62-1.09,4.6,4.6,0,0,0,.92-3.09v-2.05l10.45.11v1.66q0,8.17-3.67,12.66t-10.32,4.49A13.63,13.63,0,0,1,732.62,218.19Z"/><path class="cls-1" d="M767.6,218.41a12.24,12.24,0,0,1-4.87-5.6,21.17,21.17,0,0,1-1.68-8.83V176.31a23.19,23.19,0,0,1,1.68-9.29,12.86,12.86,0,0,1,4.87-5.89,14.06,14.06,0,0,1,7.69-2,14.31,14.31,0,0,1,7.74,2,12.81,12.81,0,0,1,4.92,5.92,23.53,23.53,0,0,1,1.68,9.37v5.15H779v-3.89a8.55,8.55,0,0,0-.91-4.34,2.9,2.9,0,0,0-2.63-1.55,2.86,2.86,0,0,0-2.57,1.52,7.89,7.89,0,0,0-.92,4.14v25.39a5.87,5.87,0,0,0,.92,3.54,3,3,0,0,0,2.57,1.26,2.94,2.94,0,0,0,2.61-1.35,6.86,6.86,0,0,0,.89-3.8v-3.6l10.8.17v4.69a21.22,21.22,0,0,1-1.71,8.92,12.59,12.59,0,0,1-4.94,5.69,16.35,16.35,0,0,1-15.47,0Z"/><path class="cls-1" d="M797.76,216q-2.67-4.33-2.67-12.63,0-9.49,3.85-14.52t11.14-5h3.37l.61,11.26h-3.41a4.43,4.43,0,0,0-4,2.12,11.53,11.53,0,0,0-1.35,6.17,7.31,7.31,0,0,0,.83,3.89,2.72,2.72,0,0,0,2.45,1.31,4.11,4.11,0,0,0,3.47-1.63,7.64,7.64,0,0,0,1.25-4.71l.74,5a22.76,22.76,0,0,1-1.07,7.17,9.66,9.66,0,0,1-2.91,4.46,7.07,7.07,0,0,1-4.59,1.52A8.53,8.53,0,0,1,797.76,216Zm15.56-39.1a5.84,5.84,0,0,0-1-3.6A3.25,3.25,0,0,0,809.6,172a2.7,2.7,0,0,0-2.38,1.29,6.54,6.54,0,0,0-.85,3.63H796q0-8.46,3.6-13.15a12,12,0,0,1,10.12-4.69A12.39,12.39,0,0,1,822,167.28a25.33,25.33,0,0,1,1.63,9.6v42.59H813.32Z"/><path class="cls-1" d="M832.24,160.13h10.92v59.34H832.24Zm17.83,17.44a8.3,8.3,0,0,0-.88-4.26,2.86,2.86,0,0,0-2.62-1.46,2.78,2.78,0,0,0-2.55,1.43,8.36,8.36,0,0,0-.86,4.23l-.91-7a20.08,20.08,0,0,1,4-8.43,7.64,7.64,0,0,1,5.8-3,7.26,7.26,0,0,1,6.53,4q2.34,3.94,2.34,11.09v45.33H850.07Z"/><path class="cls-1" d="M868.69,136.35h10.83v14.06H868.69Zm0,23.78h10.83v59.34H868.69Z"/><path class="cls-1" d="M911,172.42l-13.94,33.79h15.12v13.26H885.77V207l14.56-33.56H886.39V160.13H911Z"/><path class="cls-1" d="M920.91,216q-2.67-4.33-2.67-12.63,0-9.49,3.85-14.52t11.14-5h3.37l.61,11.26H933.8a4.41,4.41,0,0,0-4,2.12,11.43,11.43,0,0,0-1.36,6.17,7.4,7.4,0,0,0,.83,3.89,2.72,2.72,0,0,0,2.45,1.31,4.11,4.11,0,0,0,3.47-1.63,7.64,7.64,0,0,0,1.25-4.71l.74,5a22.76,22.76,0,0,1-1.07,7.17,9.5,9.5,0,0,1-2.91,4.46,7.06,7.06,0,0,1-4.58,1.52A8.55,8.55,0,0,1,920.91,216Zm15.56-39.1a5.84,5.84,0,0,0-1-3.6,3.26,3.26,0,0,0-2.76-1.26,2.7,2.7,0,0,0-2.38,1.29,6.54,6.54,0,0,0-.85,3.63H919.16q0-8.46,3.61-13.15a12,12,0,0,1,10.12-4.69,12.36,12.36,0,0,1,12.21,8.18,25.32,25.32,0,0,1,1.64,9.6v42.59H936.47Z"/><path class="cls-1" d="M958.52,218.56a12,12,0,0,1-3-5.52,31.68,31.68,0,0,1-1.05-8.72v-29.1a30.92,30.92,0,0,1,1.07-8.69,12,12,0,0,1,3.06-5.48,6.7,6.7,0,0,1,4.78-1.89,7.29,7.29,0,0,1,5.49,2.83,20.47,20.47,0,0,1,4,7.92l-.92,7.43a9.51,9.51,0,0,0-.39-2.92,3.91,3.91,0,0,0-1.16-1.83,2.83,2.83,0,0,0-1.86-.63,2.91,2.91,0,0,0-2.58,1.43,7.56,7.56,0,0,0-.91,4.06v24.81a7,7,0,0,0,.91,3.89,3.14,3.14,0,0,0,4.44.77,3.71,3.71,0,0,0,1.16-1.8,9.49,9.49,0,0,0,.39-2.91l.61,7.94a17.21,17.21,0,0,1-3.54,7.58,7.31,7.31,0,0,1-5.64,2.71A6.76,6.76,0,0,1,958.52,218.56Zm13.39-82.21h10.84v83.12H971.91Z"/><path class="cls-1" d="M996.71,218.41a12.15,12.15,0,0,1-4.65-5.54,21.31,21.31,0,0,1-1.62-8.72V175a20.72,20.72,0,0,1,1.62-8.6,11.91,11.91,0,0,1,4.65-5.43,15.37,15.37,0,0,1,14.66,0,11.81,11.81,0,0,1,4.66,5.43,21.06,21.06,0,0,1,1.59,8.6v29.33A21.24,21.24,0,0,1,1016,213a11.92,11.92,0,0,1-4.66,5.49,13.68,13.68,0,0,1-7.34,1.89A13.44,13.44,0,0,1,996.71,218.41Zm9.46-12a6.07,6.07,0,0,0,.75-3.32v-27a5.65,5.65,0,0,0-.75-3.17,2.4,2.4,0,0,0-2.14-1.12,2.43,2.43,0,0,0-2.1,1.15,5.5,5.5,0,0,0-.78,3.14v27a6,6,0,0,0,.76,3.32,2.56,2.56,0,0,0,4.26,0Z"/><path class="cls-1" d="M1029.86,218a14.93,14.93,0,0,1-5-6.37,23.48,23.48,0,0,1-1.79-9.46v-1l10-.11V202a6.66,6.66,0,0,0,1.16,4,3.68,3.68,0,0,0,6,.11,6.81,6.81,0,0,0,.3-7,7,7,0,0,0-2-2.14,36.81,36.81,0,0,0-3.41-2c-.26-.15-.53-.3-.81-.43s-.54-.28-.81-.43a.82.82,0,0,0-.21-.11,1.08,1.08,0,0,1-.22-.12,22.71,22.71,0,0,1-4.74-3.54,15.18,15.18,0,0,1-3.35-5.38,23.21,23.21,0,0,1-1.31-8.34,24.06,24.06,0,0,1,1.66-9.24,14.24,14.24,0,0,1,4.68-6.23,11.45,11.45,0,0,1,6.9-2.2,11.81,11.81,0,0,1,7,2.14,13.9,13.9,0,0,1,4.7,6.09,23,23,0,0,1,1.69,9.09v1l-10.1.17v-1.2a5.71,5.71,0,0,0-.9-3.34,2.71,2.71,0,0,0-2.33-1.29,2.63,2.63,0,0,0-2.28,1.37,6.55,6.55,0,0,0-.87,3.55,6.65,6.65,0,0,0,.87,3.57,7.08,7.08,0,0,0,2.23,2.26,31.51,31.51,0,0,0,3.63,1.89l.15.08.16.09a.38.38,0,0,0,.17.08l.18.09a23.7,23.7,0,0,1,5.26,3.17,13.44,13.44,0,0,1,3.59,5.23,24.51,24.51,0,0,1,1.46,9.27,23.24,23.24,0,0,1-1.77,9.37,14.44,14.44,0,0,1-5,6.29,12.77,12.77,0,0,1-7.43,2.23A12.46,12.46,0,0,1,1029.86,218Z"/></svg>