<svg id="Logos_Patrocinadores" data-name="Logos Patrocinadores" xmlns="http://www.w3.org/2000/svg" viewBox="0 0 1500 600"><defs><style>.cls-1{fill:#7a97ab;}</style></defs><path class="cls-1" d="M1350,317.93c-8.5-1.05-19.53.7-24.77-4-4.87-4.35-3.5-15.59-5-23.78-2.65-14.27-6.86-17.76-21.79-18.28-2.39-.08-4.79-.05-7.18-.05-15.81,0-15.82,0-15.86,15.41,0,3.18,0,6.37,0,9.56,0,22.65-.29,22.88-25,19.11V201.51c23.58,0,47-1,70.32.42,12.19.75,21.24,9.32,24.32,21.78,3.9,15.82-.44,29-15.66,38.31,12.7,7.13,15.1,18.42,16.06,30.84.54,6.84,3,13.53,4.54,20.29Zm-73.92-65.11c11.43,0,21.33.53,31.14-.16,8.93-.63,13.17-6.84,13.37-15.36S1317,222.17,1308,221.49c-10.46-.79-21-.18-31.89-.18Z"/><path class="cls-1" d="M152.34,300q0-85.44,0-170.88c0-34.94,15.44-50.28,50.28-50.28q163.44,0,326.89,0c31.39,0,47.55,15.18,47.64,46.68q.45,175.67,0,351.33c-.08,31.52-16.26,46.7-47.63,46.7q-164.65,0-329.29,0c-31.52,0-47.77-16.09-47.85-47.89C152.23,417.11,152.34,358.55,152.34,300Zm120.81-84.58,2.05-.21c.66,2.12,1.45,4.21,2,6.36,17.43,71.94,35,143.86,52,215.89,2.05,8.64,5.47,11.9,14.38,11.45a400.18,400.18,0,0,1,40.69,0c9.27.48,13-2.64,15.25-11.9,17-70.42,34.54-140.69,52-211,.94-3.8,2.1-7.55,3.15-11.33l2.67.51V448.72c16.73,0,32.27-.65,47.71.22,11,.62,13.32-3.62,13.28-13.77-.34-86.43-.18-172.87-.23-259.3,0-4.19-.55-8.37-.9-13.29-28.88,0-56.4.35-83.89-.21-8.59-.17-11.54,2.89-13.49,10.91C406,230.13,391.61,286.85,377.4,343.6c-3.39,13.56-6.9,27.08-10.35,40.62-3.71-4.64-5.05-9.09-6.2-13.59-16.76-66-33.41-131.95-50.44-197.84-1-3.78-4.88-9.64-7.54-9.71-29.79-.69-59.6-.43-89.78-.43V448.72c16.15,0,31.29-.71,46.33.23,11.51.73,14-3.87,13.92-14.42-.38-69.3-.19-138.61-.19-207.92Z"/><path class="cls-1" d="M653.43,202a15.83,15.83,0,0,1,2.37-.85c31.86-2.79,31.87-2.79,42.16,27.34,5.49,16.08,11,32.17,19,48.43,6-18.58,11.72-37.27,18.13-55.72,8.58-24.69,1.66-20,28.07-20.53,4.31-.09,8.62,0,14.69,0v15c0,30.25-.36,60.51.2,90.75.19,9.71-4.08,11.08-12.18,11-7.83-.09-12.69-.84-12.36-10.81a440.85,440.85,0,0,0-2.3-64.64c-7.67,21.88-15.65,43.65-22.83,65.69-2.4,7.38-6.16,9.83-13.75,9.81-7.31,0-10.6-2.87-12.82-9.49-7.17-21.34-14.86-42.51-22.35-63.74l-2.93.36v53.91c0,20.67-.54,21.08-23.08,17.22Z"/><path class="cls-1" d="M907.57,259.29c0,35.76-23.14,60.28-56.91,60.37s-57.14-24.41-57.36-60c-.22-36.45,22.93-61.41,57-61.48S907.59,222.68,907.57,259.29Zm-57.18-39.5c-19.61.05-31.76,15.4-31.5,39.76.26,23.67,12.57,38.64,31.7,38.59S881.92,283,882,259.35C882.12,234.83,870.05,219.74,850.39,219.79Z"/><path class="cls-1" d="M1147.61,201.38h84.28V222.3c-16.27,0-32.13.47-48-.18-9.25-.38-12.5,2.45-12.56,12-.06,9.9,3.16,13.37,13.08,12.88,13.85-.7,27.76-.18,42.57-.18v20.5c-14.19,0-28.45.72-42.59-.23-11.45-.77-13.13,4.54-13,14.1.12,9.09.68,15.39,12.59,14.58,13.5-.91,27.12.13,40.66-.3,8-.25,10.37,3.05,10.18,10.61-.16,6.83-.84,11.42-9.52,11.29-23.53-.37-47.06-.21-70.6-.09-5.75,0-8.88-1.65-8.84-8.1.22-34.63.2-69.26.33-103.89C1146.24,204.19,1147,203.11,1147.61,201.38Z"/><path class="cls-1" d="M1035.26,279.12c11.44-.78,21.77-5.38,28,9.92,4.92,12.14,30.72,14.12,40.4,4.95,6.11-5.8,5.81-13.53-1.89-17.86-6.48-3.66-14-5.53-21.08-8.07-8.6-3.08-17.74-5.08-25.77-9.24-19.25-10-22-34.16-6.18-49.07,16.09-15.17,52.91-16.06,68.7-.4,5.94,5.89,8.83,14.84,11.79,23.64-11.54,1.42-22.35,8.16-29.07-7.16-4-9.2-22.93-10.69-31.26-4.28-7.81,6-6.39,15.84,3.54,19.42,10.47,3.77,21.46,6.08,32.14,9.32,12.29,3.72,23,9.7,27,23a33,33,0,0,1-17.11,39.48c-20.23,9.92-41.05,9.73-61-.83C1041,305.33,1034.71,294.29,1035.26,279.12Z"/><path class="cls-1" d="M948.2,200.7c0,24.81-.4,47.83.12,70.83.49,21.32,11.26,29.27,31.9,25.5,10.67-1.95,15-8.65,15.29-18.28.56-20.29.5-40.59.67-60.89,0-5.1,0-10.19,0-16.24h24.9c0,28.12,1,55.89-.4,83.53-.8,15.44-11.26,26-26.27,30.92a69.31,69.31,0,0,1-44.67-.09c-15.5-5.21-25.13-16.36-26-32.48-1.27-25-1-50.13-.69-75.2,0-2.56,4.56-6.48,7.64-7.28C935.56,199.79,940.92,200.7,948.2,200.7Z"/><path class="cls-1" d="M694.55,388.65h-27v17.87h31.74v11.05H653.43V350.83h45.72V362H667.51v15.91h27Z"/><path class="cls-1" d="M728.8,406.52h29.91v11.05h-44V350.83H728.8Z"/><path class="cls-1" d="M815.12,388.65h-27v17.87h31.73v11.05H774V350.83h45.73V362H788.08v15.91h27Z"/><path class="cls-1" d="M889,395.34q-.8,10.77-8.15,17t-19.36,6.18q-13.14,0-20.68-8.64t-7.54-23.72v-4.07a39.13,39.13,0,0,1,3.48-17,25.51,25.51,0,0,1,9.93-11.25,28.25,28.25,0,0,1,15-3.92q11.82,0,19.06,6.19T889,373.48H875c-.35-4.31-1.57-7.44-3.69-9.38s-5.32-2.91-9.64-2.91q-7.05,0-10.54,4.93T847.5,381.4v5.05q0,10.82,3.35,15.81t10.59,5q6.52,0,9.74-2.91t3.69-9Z"/><path class="cls-1" d="M955.5,362H934.56v55.6H920.48V362H899.82V350.83H955.5Z"/><path class="cls-1" d="M996,393.14H984.82v24.43H970.74V350.83h25.4q12.11,0,18.68,5.28T1021.4,371a20.16,20.16,0,0,1-3,11.39,20.54,20.54,0,0,1-9.18,7.26L1024,416.92v.65h-15.12ZM984.82,382h11.37q5.29,0,8.21-2.63a9.32,9.32,0,0,0,2.91-7.27,9.93,9.93,0,0,0-2.74-7.42c-1.84-1.81-4.64-2.71-8.43-2.71H984.82Z"/><path class="cls-1" d="M1095.46,385.71a39.45,39.45,0,0,1-3.57,17.28,26.44,26.44,0,0,1-10.21,11.46,28.76,28.76,0,0,1-15.23,4,29.06,29.06,0,0,1-15.17-4A26.83,26.83,0,0,1,1041,403.11a38.37,38.37,0,0,1-3.7-17v-3.3a39.36,39.36,0,0,1,3.63-17.35,26.69,26.69,0,0,1,10.29-11.5,30.76,30.76,0,0,1,30.37,0,26.61,26.61,0,0,1,10.28,11.5,39.12,39.12,0,0,1,3.64,17.3Zm-14.27-3q0-10.5-3.85-15.95a13.79,13.79,0,0,0-21.93-.07q-3.84,5.38-3.89,15.79v3.25q0,10.23,3.85,15.86a13.67,13.67,0,0,0,22,.21q3.79-5.43,3.85-15.84Z"/><path class="cls-1" d="M1168.49,417.57h-14.08L1127,373.66v43.91h-14.08V350.83H1127l27.46,44v-44h14Z"/><path class="cls-1" d="M1203,417.57h-14.09V350.83H1203Z"/><path class="cls-1" d="M1276.9,395.34q-.8,10.77-8.14,17t-19.37,6.18q-13.14,0-20.68-8.64t-7.53-23.72v-4.07a39.13,39.13,0,0,1,3.47-17,25.57,25.57,0,0,1,9.93-11.25,28.25,28.25,0,0,1,15-3.92q11.84,0,19.06,6.19t8.36,17.37h-14.09q-.51-6.47-3.68-9.38t-9.65-2.91q-7,0-10.54,4.93t-3.59,15.28v5.05q0,10.82,3.35,15.81t10.59,5q6.52,0,9.74-2.91c2.15-1.94,3.37-4.94,3.69-9Z"/><path class="cls-1" d="M1328.81,400.06a7,7,0,0,0-2.82-6q-2.82-2.08-10.14-4.4a74.53,74.53,0,0,1-11.6-4.56q-11.64-6.15-11.64-16.55a15.89,15.89,0,0,1,3.12-9.65,20.35,20.35,0,0,1,9-6.62,34.46,34.46,0,0,1,13.12-2.38,31.31,31.31,0,0,1,13,2.59,20.58,20.58,0,0,1,8.9,7.31,18.79,18.79,0,0,1,3.17,10.72h-14.09a8.91,8.91,0,0,0-2.95-7.13q-3-2.54-8.31-2.54c-3.45,0-6.12.71-8,2.13a6.69,6.69,0,0,0-2.87,5.62c0,2.17,1.12,4,3.36,5.45a38.53,38.53,0,0,0,9.88,4.13q12,3.53,17.51,8.75a17.2,17.2,0,0,1,5.5,13,15.94,15.94,0,0,1-6.72,13.59q-6.71,4.92-18.07,4.92a35.64,35.64,0,0,1-14.37-2.82,22.56,22.56,0,0,1-9.88-7.72,19.43,19.43,0,0,1-3.4-11.36h14.13q0,11,13.52,11,5,0,7.84-2A6.44,6.44,0,0,0,1328.81,400.06Z"/></svg>