<svg id="Logos_Patrocinadores" data-name="Logos Patrocinadores" xmlns="http://www.w3.org/2000/svg" viewBox="0 0 1500 600"><defs><style>.cls-1{fill:#7a97ab;}</style></defs><path class="cls-1" d="M1029.73,365.13v87.52c-1.73.11-3.42.29-5.11.29q-144.54,0-289.07,0H473.25c-5.33,0-5.33,0-5.33-5.32,0-26,.07-52.07-.08-78.1,0-3.59,1-4.48,4.54-4.48q276.57.12,553.13.07Zm-502,62-.68.09c-.3-1.12-.65-2.22-.9-3.35-3.07-13.82-6.09-27.66-9.24-41.46-.25-1.12-1.37-2.85-2.16-2.88-5.23-.26-10.47-.14-15.88-.14v62.1c2.59,0,5-.15,7.44.05,2.75.22,3.62-.72,3.59-3.54-.15-14.07-.08-28.15-.09-42.22V392.2c.87.34,1,.75,1.08,1.16,3.26,15.1,6.48,30.21,9.84,45.28.24,1.07,1.42,2.65,2.29,2.74a99.76,99.76,0,0,0,10,.13c3.68-16.89,7.29-33.49,10.9-50.1l.74.1v49.7h10.89v-61.8c-5,0-9.75.13-14.52-.06-2.33-.09-3,.91-3.42,2.94-1.09,5.51-2.34,11-3.56,16.47Q530.86,413,527.69,427.16Zm268.83,14c3-15.62,5.87-31.12,9-47.6.52,2,.86,3.14,1.07,4.26,2.24,12.08,4.41,24.18,6.72,36.26,1.43,7.51,1.53,7.36,9.07,7.52,2.77.06,3.83-.91,4.49-3.5,4.6-18.15,9.35-36.27,14-54.4.34-1.29.51-2.63.79-4.06H830l-9.22,43.84c-2.87-11.69-5.14-23.28-7.29-34.89-1.75-9.52-1.68-9.46-11.44-9.24-2.1,0-2.86.82-3.17,2.77-.89,5.55-1.9,11.08-2.89,16.61q-2.22,12.31-4.46,24.61H791l-9.22-43.64H769.45c.34,1.42.58,2.56.88,3.67q6.51,24.79,13,49.58C785.87,442.58,785.84,442.59,796.52,441.16Zm-102.6.13V398.63a9.71,9.71,0,0,1,2.59,3.25c5.9,10.8,12.14,21.43,17.51,32.48,2.74,5.65,6,8.09,12.32,7.31,2.94-.36,4-.83,3.95-4-.15-18.18-.07-36.36-.08-54.53,0-1.14-.12-2.27-.19-3.47H718.89v41.78a7.35,7.35,0,0,1-2.46-2.82q-9.88-18.22-19.79-36.44c-.57-1.05-1.53-2.57-2.41-2.64-3.79-.29-7.61-.12-11.41-.12v61.85ZM568,441.3h43.67V430.44H579.87V414.15h27.78V403.71H579.91V390h30.38V379.7H568Zm295.45-51.09h4.3c7.51,0,15,.06,22.52-.07,1,0,2.72-.92,2.78-1.54.29-3,.13-6,.13-9h-41v6.78q0,25.85,0,51.69c0,1.56-.47,3.45,2.2,3.44,12.67,0,25.33,0,38-.08.74,0,2.06-1,2.1-1.56.22-3,.1-6,.1-9.44H863.77V413.93h26.89V403.79h-4c-6.69,0-13.37,0-20.06,0-1.5,0-3.18.29-3.14-2.13C863.54,398,863.49,394.42,863.49,390.21ZM674.05,441.09c-.35-1.28-.59-2.4-1-3.47q-8.18-24.27-16.39-48.52c-1.09-3.19-1.48-7.54-3.76-9.14s-6.55-.32-9.93-.6c-2.59-.22-3.64.82-4.43,3.19-6.24,18.63-12.62,37.2-18.94,55.8-.31.92-.47,1.89-.71,2.87,11.83,1.34,11.83,1.34,15.22-9.14a3.31,3.31,0,0,0,.25-.66c.26-2.19,1.54-2.82,3.65-2.78,5.39.11,10.79.16,16.17,0,2.44-.08,3.46.8,4.18,3.1,3.27,10.58,3.34,10.56,14.51,9.73A8.25,8.25,0,0,0,674.05,441.09Zm295.67-10.42v-51h-11.5v61.58H998V430.67Zm-62.28,10.61h39.69V430.65H919c-.08-1.85-.2-3.35-.2-4.84,0-14.3,0-28.6,0-42.89,0-1.5.59-3.53-2.12-3.51-3,0-6,0-9.2,0Z"/><path class="cls-1" d="M912.94,134V272l.65.28c.67-1.13,1.36-2.25,2-3.39q38-65.76,75.94-131.53c1.38-2.38,2.83-3.46,5.73-3.39,9.5.21,19,.08,28.52.08h3.92c-.84,1.65-1.36,2.78-2,3.86Q971.3,235.68,914.9,333.42c-1.62,2.81-3.35,3.86-6.57,3.75-7.5-.24-15-.07-22.53-.08-4.63,0-4.64,0-4.64-4.52V198.88l-.54-.32c-.55.88-1.14,1.74-1.65,2.63q-38.26,66.21-76.46,132.45c-1.46,2.54-2.94,3.61-6,3.54-9-.23-18-.09-27.25-.09V134.34h31.19V272.47l.71.17q4.72-8.13,9.44-16.27,34.49-59.66,68.9-119.35c1.27-2.21,2.61-3.1,5.2-3.05C894,134.13,903.23,134,912.94,134Z"/><path class="cls-1" d="M616,134.25V280.89l.56.16c2.5-4.31,5-8.62,7.51-12.94q37.73-65.31,75.4-130.64c1.45-2.53,3-3.61,6-3.52,7.85.24,15.72.08,23.59.08h4V336.8H701.78V190.16l-.72-.17c-.6.93-1.24,1.83-1.8,2.79q-40.72,70.47-81.39,141c-1.37,2.37-2.78,3.49-5.7,3.42-9-.23-18-.09-27.53-.09V198.58l-.7-.17c-.6.92-1.25,1.82-1.8,2.77q-38.25,66.21-76.44,132.47c-1.47,2.55-3.05,3.55-6.05,3.48-9.27-.22-18.55-.08-27.82-.08h-4.4c.84-1.61,1.36-2.74,2-3.81q56.73-98.17,113.41-196.39a4.89,4.89,0,0,1,5-2.87c8.1.14,16.2,0,24.3.06C613.22,134,614.37,134.15,616,134.25Z"/><path class="cls-1" d="M654.15,418H638.64c2.52-8.09,5-15.89,7.4-23.69l.79-.09Z"/></svg>