<svg id="Logos_Patrocinadores" data-name="Logos Patrocinadores" xmlns="http://www.w3.org/2000/svg" viewBox="0 0 1500 600"><defs><style>.cls-1,.cls-2{fill:#8f8fa3;}.cls-2{font-size:129.02px;font-family:KenyanCoffeeRg-Regular, Kenyan Coffee;}.cls-3{letter-spacing:0em;}</style></defs><path class="cls-1" d="M631.61,333.5c-.26,20.41-8,52.61-23.21,83.13-3.64,7.3-7.14,8.49-14.1,4A351.71,351.71,0,0,0,563.44,403c-7.72-3.94-8-7.91-4.28-15.6,18.73-38.32,21.72-78.16,7.66-118.54-4.53-13-11.27-25.37-18.24-37.31s-7.86-11.68-14.6-.05c-16,27.64-31.77,55.42-47.7,83.11Q430,412.42,373.71,510.17a52.3,52.3,0,0,0-3.12,5.34c-3.47,8.17-8.86,10.49-17.22,6.76-10.8-4.82-21.82-9.14-32.79-13.58-6.91-2.81-7.61-6.66-3.8-13.11,14.94-25.27,29.4-50.84,44.1-76.26q78.53-135.79,157-271.59c8.37-14.5,6.78-14,20-5C596.84,182.7,631.63,248.63,631.61,333.5Z"/><path class="cls-1" d="M418.91,106.63c24.34-1,47.4,4,70.17,11.06,6.72,2.07,9.58,4.43,4.75,11.72a311.87,311.87,0,0,0-17.6,30.87c-3.7,7.27-8.41,9.47-16.14,6.84-17.91-6.08-36.48-6.26-55.08-5.21-13.81.79-15,2.48-14.06,15.86.82,11.3,1.16,22.63,2.06,33.92.52,6.53-1.75,9.81-8,12.78a179.9,179.9,0,0,0-31.59,18.9c-5.86,4.44-9.39,3.93-14.71.19-10.12-7.09-20.95-13.2-30.92-20.5-6.92-5.07-11.38-4.51-16.38,2.51-14.62,20.52-24.41,43-28.22,67.87-8.26,53.86,8.21,99.68,46.22,137.93,5.57,5.61,5.9,9.49,2,15.68-6.87,10.88-13.3,22.07-19.56,33.32-3.08,5.54-5.67,5.82-10.46,1.6-42.44-37.34-67.94-83.51-73.75-140.09-5.9-57.5,8.8-109.3,44.14-154.92C260.21,176,271,166.9,280.37,156.69c5.31-5.77,9.89-5.07,16-.85,11.85,8.22,24.32,15.54,36.41,23.41,6,3.89,8.37,2.35,8-4.57-.69-13.37-1.15-26.75-2-40.11-.8-12.2-.71-13,10.67-16.86C372,110.12,395.19,105.51,418.91,106.63Z"/><path class="cls-1" d="M1069.28,320.32c0,30.41.13,60.82,0,91.22,0,11.17-.22,11.17-10.94,11.39-13.25.26-14.41-.28-14.4-11.65,0-36.07.44-72.13.73-108.19,0-2.58.23-5.15.18-7.72a7.73,7.73,0,0,0-1-2.45c-.66.74-1.7,1.38-1.92,2.22a62.35,62.35,0,0,0-1.37,7.58c-4.39,35.25-8.63,70.53-13.28,105.75-.63,4.75-2.4,12.38-5.24,13.21-6.56,1.92-14.21,1.12-21.19,0-1.88-.3-3.8-5.62-4.23-8.84-4.45-33.16-8.58-66.37-12.84-99.56-.91-7.15-1.92-14.3-3-21.43a40.75,40.75,0,0,0-1.13-4.41c-.38,1.74-1.09,3.47-1.09,5.2q0,53.34.11,106.69c0,3.6.08,7.21,0,10.82-.29,12.65-.59,12.93-13,12.85-12-.07-12.32-.16-12.35-13.56q-.21-88.9-.16-177.81c0-13.66.19-13.66,13.6-13.93,29.22-.59,29.38-.6,32.62,28.6,3.52,31.72,6.69,63.49,10.07,95.23a29.39,29.39,0,0,0,1.51,5.13c.72-1.83,1.88-3.6,2.1-5.49,3.87-33.77,7.89-67.52,11.33-101.34,2.25-22.14,1.86-22.24,24.44-22.18,24.3.06,20.1-1.84,20.26,20.73C1069.36,265.69,1069.25,293,1069.28,320.32Z"/><path class="cls-1" d="M1089.82,329.48c0-24.7-.27-49.41,0-74.11.35-32.33,7.85-39.7,40.37-40.25a119.79,119.79,0,0,1,16.91,1.13c18.48,2.34,24.73,8.75,26.79,27.66a204.58,204.58,0,0,1,1.22,21.57c.14,46.83.23,93.67,0,140.5,0,5.29-1,14.54-3.3,15.14-7.66,2-16.15,1.22-24.25.59-1.24-.09-2.85-5-3-7.77a216.59,216.59,0,0,1-.09-26.23c.69-9.23-4.52-10-11.47-9.92-11,.11-12.13.72-12.48,10.46-.32,8.74-.24,17.49-.13,26.24.07,5.81-2.5,8.62-8.34,8.35a13.36,13.36,0,0,0-1.55,0c-20.34,1.41-20.66,1.13-20.69-19.27q-.06-37.05-.07-74.11Zm30.62-30.29c0,14.87.26,29.76-.06,44.63-.17,8.32,4.78,9.1,11,8.67,5.75-.41,13.05,1.91,13-8.2-.17-29.24.09-58.49-.26-87.73-.12-10.14-4.16-13.8-12.63-13.54-8.31.25-10.89,3.39-11,14.61C1120.23,271.48,1120.4,285.33,1120.44,299.19Z"/><path class="cls-1" d="M847.57,320.33c0-29.87-.14-59.74,0-89.6.05-12.6.24-12.75,13-12.9s25.76-.36,38.62.14c24.42.95,32.3,8.72,33.4,32.77.5,10.8.23,21.63.25,32.44,0,2.05-.26,4.11-.42,6.16-.69,9.38-7.31,15-13.33,21,7.35,5.28,13.15,11.79,13.28,21.29.37,27.8.32,55.6.58,83.4.06,6.11-3.07,7.59-8.56,8.08-21.16,1.88-21.65,1.59-21.67-19.26,0-22.14.05-44.29-.18-66.43-.07-6.81-.65-13.57-10-14.61-11-1.23-13.77.69-13.85,12.09-.17,24.72.08,49.44,0,74.15-.08,13.83-.27,13.84-13.6,14.06-2.06,0-4.15-.2-6.18,0-8.91,1-11.39-3.25-11.3-11.64C847.83,381.09,847.6,350.71,847.57,320.33Zm31-49.5h.14c0,6.65-.25,13.32.16,19.95.14,2.2,1.41,5.27,3.14,6.29,8.3,4.91,19.52-1,20.28-10.93a212,212,0,0,0,.1-27.61c-.58-11.09-3.58-13-14.21-13.3-10.47-.26-9.66,6.56-9.62,13.32C878.55,262.65,878.53,266.74,878.54,270.83Z"/><path class="cls-1" d="M755.58,282.38c-.79,13.34-.91,26.76-2.56,40-1.93,15.39-8.92,21.38-24.36,22.67a183.72,183.72,0,0,1-20,.6c-6.74-.18-9,2.89-8.93,9.3.21,18,.17,36,.05,54-.08,14.16-.2,14.16-14.81,14.26-1,0-2.06,0-3.09,0-12.76-.25-13-.25-13.06-12.85-.16-36.54-.11-73.09-.14-109.64,0-23.68-.16-47.36,0-71,.08-11.25.34-11.56,11.07-11.7,14.92-.19,29.9-.55,44.77.41,20.45,1.32,27.35,8,29.31,28.46,1.12,11.72.22,23.63.23,35.46Zm-55.87-.2c0,9.73-.2,19.47.16,29.18.1,2.76,1,6.58,3,8,7.47,5.37,19.91-.43,20.74-9.58.6-6.61.26-13.3.26-20,0-11.27.33-22.56-.29-33.79-.48-8.95-4.11-10.64-14.89-10.65-8,0-9.24,4.21-9.06,10.7C699.85,264.76,699.68,273.47,699.71,282.18Z"/><path class="cls-1" d="M771,320.09c0-29.88-.15-59.76,0-89.64,0-12.18.29-12.35,11.85-12.56,12.36-.21,24.73-.29,37.09,0,10,.25,10.39.94,10.38,12.4,0,6.6,1.36,13.2-9.46,13.51C801.93,244.37,802,245,802,264.45c0,6.69-.06,13.39,0,20.09.17,13.71.2,13.71,13.22,14.35.52,0,1,0,1.55,0,12.67.66,13.13,1.14,12.91,13.28-.2,10.77-.31,10.89-11.42,11.37a29.81,29.81,0,0,1-4.63,0c-8.38-1-12.06,2.06-11.76,11.1.57,17.49.44,35,.11,52.54-.14,7.48,2.88,10.36,10,9.6a22.76,22.76,0,0,1,3.09,0c15.57.43,18.39,3.76,15.19,19.51-.51,2.55-4.09,6.28-6.38,6.38-14.91.61-29.86.32-44.8.45-6.09.05-8.09-3.26-8-8.75.07-3.61-.06-7.22-.06-10.82Q771,361.82,771,320.09Z"/><path class="cls-1" d="M743.5,159.87c0-8.22-.36-16.45.07-24.65.57-11.06,3.1-13.39,13.92-14.09,3.07-.2,6.16,0,9.24,0,8.43-.12,12,4.57,12.37,12.42.17,4.11.35,8.23.14,12.33-.29,5.55.73,12.25-2,16.22-2,2.85-9.21,2.3-14.14,2.77s-7.78,2.66-7.48,7.71c.34,5.84-2.53,12.91,4.5,16.52,1.47.75,5.47-1.47,7-3.37,1.39-1.72.37-5.24,1.57-7.31,1-1.77,3.81-3.73,5.57-3.51s4.73,3.2,4.55,4.64c-.8,6.35-.71,16.21-4.36,18.06-6.55,3.32-15.75,3.11-23.47,1.94-7.49-1.12-7.45-8.71-7.49-15,0-.51,0-1,0-1.54q0-11.55,0-23.12Zm25-18.44c-1.17-1.94-3.14-8.78-5.86-9.08-8.2-.93-7,6.51-7.21,11.82-.12,2.48-.31,5.43.86,7.35,1,1.71,3.84,2.94,6,3.15,1.49.14,3.92-1.46,4.6-2.91C767.94,149.6,767.78,146.88,768.54,141.43Z"/><text class="cls-2" transform="translate(666 198.81)"><tspan class="cls-3">m</tspan><tspan x="73.16" y="0">ecanizados</tspan></text></svg>