<svg id="Logos_Patrocinadores" data-name="Logos Patrocinadores" xmlns="http://www.w3.org/2000/svg" viewBox="0 0 1500 600"><defs><style>.cls-1{fill:#7a97ab;}</style></defs><path class="cls-1" d="M975,339.33h61.31c-5.44,5.43-10.08,10.83-15.48,15.32A405.77,405.77,0,0,1,976,387.55c-8.84,5.51-18.08,10.38-27,15.79a206.39,206.39,0,0,1-22.91,11.9c-11.84,5.28-23.59,10.75-35.76,15.35-91.45,34.53-202.2,44.89-294.34,7.08A168.42,168.42,0,0,1,578.08,429c-12.66-7-24.74-14.87-34.13-26-7.07-8.38-13.92-17-17.79-27.57-2.12-5.77-4.95-11.29-6.89-17.11-.83-2.48-.83-5.3-1.36-8-1.16-5.85-2.32-11.82-1.7-17.93.31-3.06-.1-6.19.08-9.27.51-8.36,1.39-16.61,4-24.73,1.26-4,1.58-8.32,3.16-12.27,3.77-9.41,6.89-19,12.44-27.73,5.09-8,10.51-15.69,16.24-23.25a115.9,115.9,0,0,1,15.38-16.35c13.78-12.33,28.84-22.91,45.9-30.37a10.22,10.22,0,0,1,2.57-.66,2.46,2.46,0,0,1,1,.24c-1.66,14.91-3.31,29.78-4.93,44.35-4.5,3.08-8.94,5.74-12.94,8.95-4.9,3.94-10,7.89-14,12.67-5.56,6.65-11.3,13.16-16.57,20.11a178.79,178.79,0,0,0-12.19,19.33c-12.42,21.59-13.69,46.72-5,69.86,6.44,17.08,17.15,32.2,28.55,46.46,9.36,11.71,23.35,15.37,37.56,17.77,45.79,7.73,91.5,6.16,137.08-1.67q22.59-3.87,44.82-9.55c45.53-11.63,89.33-29.19,131.28-50.24,8.72-4.37,16.82-9.94,25.25-14.9,5.34-3.15,10.79-6.12,16.13-9.28A18.19,18.19,0,0,0,975,339.33Z"/><path class="cls-1" d="M876.59,258.17a4.86,4.86,0,0,0-2.7-3.92c-6-2.48-11.61,13-16,12.34-6.36-.94-11.84-1.1-12.93-8.94-1.37-9.83,4.08-16.75,12.17-21.26,21.42-11.95,47.92-18.51,72.44-16.76,19.46,1.4,56.12,17.57,35.59,42.63-7,8.57-19,10.88-28.3,16.94-6.9,4.52,10.06,19.15,13.88,21.93,1.73,1.26,3.66,2.46,5.8,2.51,5.5.12,8.66-6.95,14.06-8,5.09-1,9.68,4.37,9.66,9.55-.08,18.59-26.27,24-40,19.29-8.43-2.9-15.53-8.71-20.94-15.7-1.92-2.49-11-20.93-13.59-20.93H900.6c-6.72.07-8.13,24.67-8.53,28.36-1.83,16.93-13.77,12.43-26,13.06-3.2.17-6.93-.73-8.28-3.63-1-2.19-.32-4.74.39-7.05,4.56-14.93,8.94-29.92,13.5-44.85,1.47-4.79,5.11-9.75,4.92-14.95Q876.64,258.5,876.59,258.17Zm28.24,7.14c9-.8,18-.53,26.58-3.95a16.81,16.81,0,0,0,6.77-4.35c4.92-5.77,1.39-10.67-2.78-14.85-3.07-3-25.76-2.93-28.5.55a5.82,5.82,0,0,0-.9,3.42C906,247.05,905.17,265.31,904.83,265.31Z"/><path class="cls-1" d="M709.7,296.27H696.37v-5c1.93-3.75,4-7.45,7.25-10.52,6.64-6.31,17.69-4.48,26.07-4.48,11.07-11.07,22.26-22.08,33.23-33.31a192.12,192.12,0,0,1,21.66-18.49c5.64-4.29,12.68-5.74,19.88-5.26,2.26.15,5,2.74,7.37,6.55,1.62,2.59-1.35,13-1.52,16.31a165.66,165.66,0,0,0,.14,21.37c.8,10.18,1.64,20.58,4.71,30.38,1.51,4.83,3.45,9.78,6.65,13.77,5.08,6.34,11.15,10.25,2.67,16.75-6.69,5.12-15.66,4.84-23.45,3.27a49.34,49.34,0,0,1-10.66-13.82c-2.11-3.93-3-11.76-5.73-14.85-3.6-4.06-12.17-2.36-18.09-2.36-3.71,0-18.95-2.26-21.49,0A27.3,27.3,0,0,0,737.21,310c-1,3.74.2,10.45-2,13.44-2.77,3.78-22.5,7.59-25.59,4.2s-6-5.5-4.8-10.53C705.37,314.8,715,296.27,709.7,296.27Zm70.41-20V259.38l-3-2.11c-5.54,6-12,10.79-15.5,18.06.53.4.88.89,1.24.89C768.51,276.27,774.18,276.25,780.11,276.25Z"/><path class="cls-1" d="M772.7,143.88a4,4,0,0,1,1.06,2.12c2.25,9.22-1.61,18.46-2.48,27.59a24.72,24.72,0,0,1-1.66,7.92c-2,4.37-6.66,5.32-10.52,7.46-19.72,10.93-36.51,14.74-59,15.31-25.48.66-47.06,6.56-69.82,17.78-3.19,1.56-6.11,3.66-9.21,5.55.14-.09,1-12.56,1.19-14.09.42-3.46,1.45-28.39,4.33-29.65,37.41-16.31,80.89-4,116.9-24.61,8.56-4.89,16.22-11.4,25.27-15.29,1.25-.54,2.79-1,3.88-.17Z"/><path class="cls-1" d="M667.38,219.73c9.41-3.32,18.13-1.87,26.71-1.84,3.6,0,7.18,1.89,11.21,3-1.25,2.29-1.83,4.43-3.21,5.68-5.32,4.84-8.15,11.44-12.4,17a70.51,70.51,0,0,0-7.76,13.84c-3.41,7.6-6.43,15.38-9.4,23.17-1.25,3.28-1.85,6.8-2.89,10.18a82,82,0,0,0-2.25,10.53c-1.09,6.48-2.7,12.85-2.75,19.5,0,1.67-1,3.34-1.62,5.16H624.85a249.4,249.4,0,0,1,14.26-56.33C646.23,251.39,654.63,233.71,667.38,219.73Z"/><path class="cls-1" d="M1054.59,209.16h10.62c1.25,2.48,0,4.56-.61,7-1.3,5.17-2.67,10.27-4.22,15.37s-2.72,10.26-4.16,15.39c-1.13,4.06-2.25,8.08-3.71,12-3.26,8.82-10.43,14.45-16.64,20.89,2.26,1.55,1.91,4.05,1.2,5.76-4.39,10.65-11,17.93-16.84,27.49l4.46,2.6a2.9,2.9,0,0,0,1.85.57,2.79,2.79,0,0,0,1.4-.88A36.47,36.47,0,0,0,1038.53,285c.15,1.19,3.15,4.06,3.75,5.72a20.75,20.75,0,0,1,.61,9.4c-.8,6.56-4.24,12.9-8.24,18.05-.07,1.88-.73,3.78.89,5.75,1,1.17.94,3.17,1.4,5h-22.06c-.27-.74-.52-1.59-.87-2.39s-.84-1.71-1.38-2.77l-7,5.07H987.75l-1.91-2.09c4.17-5.18,8.43-10.49,12.95-16.12-3.26-5.1-3.46-10.63-1.67-17,2.77-9.92,3.71-13.1,10.59-21.33a61.21,61.21,0,0,0,3.94-5.94l-2.9-5.65v-8.28l1-.26c.08,0,4,11,4.16,11.59a148.21,148.21,0,0,0,12.17-9.77c4.3-3.83-14.4-5.86-16.27-5.15q3.78-18.68,9.29-36.94a3.58,3.58,0,0,1,1.13-2,3.64,3.64,0,0,1,2.12-.44l21.91.06a2.25,2.25,0,0,1,1.57.4,2.29,2.29,0,0,1,.28,2.13c-1.21,5.8-2.42,11.59-3.92,17.32-2.19,8.42-5.14,16.84-9.71,24.29-4.9,8-12.09,12.49-18.2,19.22-2.33,2.57-4.88,4.95-7,7.09.26-.27,9.54,10.61,10.87,10.66,3.2.13,8.46-6.46,10.77-8.55,8.6-7.79,20.11-18.59,19.56-31.06a17.14,17.14,0,0,0-2.09-1.79,10.94,10.94,0,0,0-2.55-.63C1047.6,235.33,1052.13,222.53,1054.59,209.16Z"/><path class="cls-1" d="M1035.5,164.32l10.19-17.72h26.36c-3,5.83-8,9-12.48,13l11.41,3.43c1.78,6.85-.59,12.36-3.38,19.26-2.14,1.86-4.87,5.33-9.51,7.14-2.71,1.06-6,.2-8.2,2.57h-23.32l7.78-15.41c9.08-.7,17.87-.64,26.19-5.07Z"/><path class="cls-1" d="M599.72,367.77H595q0-4.32-.77-12.49t-.83-9.8h-.25q-2.52,6.28-6.36,13.66t-3.86,8.63h-3.38q0-1.35-3.59-8.78T571.42,349c-.64-1.68-1.07-2.87-1.31-3.56h-.25c-.05,1.76-.38,5.34-1,10.71s-.92,9.23-.92,11.58h-4.31q0-.18,1.7-10.66a107.1,107.1,0,0,0,1.71-14.56h6.6q0,2.13,4,10.66t4,10.32h.25q0-1.8,4.52-10.35T591,342.55h6.45q0,4.09,1.16,14.49T599.72,367.77Z"/><path class="cls-1" d="M629,364.85l-.15,2.92H608.6q.36-6,.35-13.25,0-6.81-.35-12h19l-.2,2.89q-6.9-.24-14.63-.24c.1,2,.15,4.71.15,8.12q6.68,0,11.9-.23V356q-5.58-.18-11.9-.18,0,5,.23,9.34Q621.44,365.14,629,364.85Z"/><path class="cls-1" d="M657.48,364.69l-.32,2.89a29.62,29.62,0,0,1-6.73.72q-8.62,0-13-3.65a11.27,11.27,0,0,1-4.34-8.93q0-5.52,4.84-9.52t13-4a24,24,0,0,1,4.77.52l-.7,3.08a22.38,22.38,0,0,0-5.14-.69q-6.07,0-9.21,2.9a9.45,9.45,0,0,0,.47,14.46q3.62,3.06,10,3.06A31.32,31.32,0,0,0,657.48,364.69Z"/><path class="cls-1" d="M690.25,367.77H685q0-1.29-3.16-8.15H667.32c-2.07,4.51-3.11,7.22-3.11,8.15h-5.07q0-.7,6.47-12.39t6.48-12.83h5.82q0,1.14,6.17,12.65T690.25,367.77Zm-9.61-10.69q-5.89-11.37-5.89-12.09h-.28q0,.6-6.1,12.09Z"/><path class="cls-1" d="M720.44,367.77h-3.51q0-.31-8.23-9.28-8.61-9.39-9.81-11.85h-.26q.47,4.67.46,8,0,6.51.37,13.13h-4.21q.42-6.28.42-13.25t-.42-12h4.82q0,.54,7.57,8.83,7.93,8.73,9,11.36h.25c-.29-3.15-.43-5.83-.43-8q0-7.17-.35-12.17h4.29q-.42,5.13-.43,12T720.44,367.77Z"/><path class="cls-1" d="M734.64,367.77h-4.77q.39-6.27.38-13.25t-.38-12h4.77q-.35,5.29-.35,12Q734.29,361.54,734.64,367.77Z"/><path class="cls-1" d="M763.52,364.54l-.15,3.23H741.84l.23-2.32q3.16-3.4,9.21-11,6.5-8.24,6.5-9.17V345q-5.5,0-15.58.48l.12-3H762.8l-.2,2.4q-2.86,3.12-8.81,10.95-6.19,8.13-6.2,9v.21Q752.78,365.06,763.52,364.54Z"/><path class="cls-1" d="M797.4,367.77h-5.3q0-1.29-3.16-8.15H774.46c-2.07,4.51-3.11,7.22-3.11,8.15h-5.07q0-.7,6.48-12.39t6.47-12.83h5.82q0,1.14,6.18,12.65T797.4,367.77Zm-9.61-10.69q-5.89-11.37-5.9-12.09h-.27q0,.6-6.1,12.09Z"/><path class="cls-1" d="M828.21,354.25a12.7,12.7,0,0,1-4.55,9.65q-4.56,4.14-12.56,4.15-2.61,0-8.71-.28.38-6,.38-13.25,0-6.81-.38-12h2.76q1,0,3.06-.06l2.71-.06q8.87,0,13.08,3.37A10.36,10.36,0,0,1,828.21,354.25Zm-4.36.87a8.92,8.92,0,0,0-3.55-7.18q-3.56-2.9-11-2.89a28.54,28.54,0,0,0-2.89.19c.14,3,.2,6.11.2,9.28q0,5.24.28,10.62a24.85,24.85,0,0,0,3.86.31q6.63,0,9.85-3A9.66,9.66,0,0,0,823.85,355.12Z"/><path class="cls-1" d="M864.37,354.77a12.11,12.11,0,0,1-4.74,10,17.18,17.18,0,0,1-11,3.75,16.78,16.78,0,0,1-10.47-3.44,11.06,11.06,0,0,1-4.51-9.29,12.07,12.07,0,0,1,4.74-10,17.28,17.28,0,0,1,11-3.71,16.82,16.82,0,0,1,10.48,3.43A11.09,11.09,0,0,1,864.37,354.77Zm-4.47.45a9.37,9.37,0,0,0-3.4-7.74,12.11,12.11,0,0,0-7.84-2.74,10.62,10.62,0,0,0-7.32,2.89,9.82,9.82,0,0,0-3.22,7.71,9.39,9.39,0,0,0,3.43,7.76,12.24,12.24,0,0,0,7.84,2.74,10.53,10.53,0,0,0,7.31-2.93A9.9,9.9,0,0,0,859.9,355.22Z"/><path class="cls-1" d="M890.64,361.25q0,7.15-12.92,7.16a37.68,37.68,0,0,1-8.38-.83l.88-3a31.05,31.05,0,0,0,8,1.12q8.53,0,8.53-3.72a3.79,3.79,0,0,0-2.21-3.21,34.86,34.86,0,0,0-5.82-2.39,26.7,26.7,0,0,1-6.4-2.88,5.45,5.45,0,0,1,0-9.24q2.89-2,8.16-2a36.64,36.64,0,0,1,8.18.6l-.6,3.08A34.21,34.21,0,0,0,880,345q-6.45,0-6.45,3.33a3.14,3.14,0,0,0,1.86,2.7,39.05,39.05,0,0,0,5.32,2,29.78,29.78,0,0,1,6.78,3A6.23,6.23,0,0,1,890.64,361.25Z"/></svg>