<svg id="Logos_Patrocinadores" data-name="Logos Patrocinadores" xmlns="http://www.w3.org/2000/svg" viewBox="0 0 1500 600"><defs><style>.cls-1{fill:#7a97ab;}</style></defs><path class="cls-1" d="M752.32,35.83c22.39.41,42.68,5.5,61.57,16.09A124.82,124.82,0,0,1,873,125.85c2.93,10.09,4.94,20.34,4.9,30.9,0,1.79.81,2.67,2.39,3.4a124.93,124.93,0,0,1,65.86,72.24,121.78,121.78,0,0,1,7,49A125,125,0,0,1,939.45,331a127.24,127.24,0,0,1-26,34.49,128.89,128.89,0,0,1-30.28,20.89,123.31,123.31,0,0,1-32.42,10.8c-5,1-10.13,1.25-15.22,1.72-9.44.88-18.81.06-28.15-1.37a108.38,108.38,0,0,1-32.81-10.32c-6.89-3.49-13.41-7.73-20-11.76a2.56,2.56,0,0,0-3.39,0,122.61,122.61,0,0,1-40,19.26A124.81,124.81,0,0,1,684.05,399a130.31,130.31,0,0,1-26.71-1.49A121.11,121.11,0,0,1,620,385.09a125.18,125.18,0,0,1-55.82-58.37,119.2,119.2,0,0,1-10-31.94,122.63,122.63,0,0,1-1.06-33.43,132.38,132.38,0,0,1,7.5-31.88,112.61,112.61,0,0,1,20.47-35A147.32,147.32,0,0,1,598.74,177c6.6-5.34,14.14-9.51,21.29-14.18a10.3,10.3,0,0,1,3.15-1.7c3.77-.81,4.48-3.45,4.64-6.74a121,121,0,0,1,13.68-50.51,124.17,124.17,0,0,1,28-35.95C682.82,56,697.89,47.09,714.93,41.94c8.66-2.62,17.77-3.85,26.73-5.4C745.41,35.88,749.29,36,752.32,35.83Zm-.66,13.24c-2.49.12-6.43.07-10.3.55A112.63,112.63,0,0,0,664.75,92c-13.89,17.52-21.63,37.52-23.79,59.73-.13,1.33-.23,2.49,1.81,1.89A118.67,118.67,0,0,1,683,148.77c2.31.14,4.62.47,6.93.41a3.89,3.89,0,0,0,2.71-1.35c5.15-7.31,9.94-14.87,15.28-22A76.49,76.49,0,0,1,732.47,104c10.95-6,22.41-7.23,34.22-3,13.75,5,23.68,14.93,32.38,26.15,4.89,6.3,9.11,13.12,13.45,19.83a4.46,4.46,0,0,0,4.56,2.19c5.48-.24,11-.52,16.46-.43a111.73,111.73,0,0,1,28.81,4.53c2.33.66,2.75.38,2.48-1.93-1.84-15.47-5.93-30.22-13.54-43.93a112.65,112.65,0,0,0-36.9-39.91C795.8,55.27,775.3,49.29,751.66,49.07Zm135,320.12c29.17-16.85,60.43-58.2,52.09-112.7-3.47-22.7-13.34-42.39-28.95-59.18a108.31,108.31,0,0,0-31.91-23.79,9.86,9.86,0,0,0-.42,1.24c-1.1,6-1.92,12-3.34,17.85-3.94,16.23-11.43,30.8-21.18,44.28a4.19,4.19,0,0,0-.53,3.17c1.57,5.53,3.46,11,5,16.51,5.57,19.59,11.38,39.12,16.47,58.84,4.39,17,7.91,34.24,11.84,51.38A20.8,20.8,0,0,0,886.69,369.19ZM627.76,173.87c-28.28,12.45-62.39,49.46-62,99.88.18,27.83,9.2,52.16,27,73.23a97.53,97.53,0,0,0,26.43,22.38c.31-.95.57-1.52.7-2.13,2.13-9.75,4.07-19.55,6.41-29.25,3.7-15.29,7.39-30.6,11.61-45.76,4.81-17.32,10.24-34.47,15.28-51.72a5.56,5.56,0,0,0-.56-3.95c-3.19-5.26-6.81-10.25-9.88-15.57a106.52,106.52,0,0,1-11.06-28C630.13,186.72,629.07,180.35,627.76,173.87Zm36.27,76c-1.28,3.94-2.56,7.47-3.59,11.07-4.4,15.44-9,30.84-13,46.37-4,15.29-7.6,30.71-11.27,46.09-1.49,6.29-2.7,12.66-4.07,19-.74,3.43-.6,3.75,2.56,5,1.41.56,2.8,1.18,4.22,1.71a115.44,115.44,0,0,0,28.89,6.53,112.32,112.32,0,0,0,28.63-1,110.05,110.05,0,0,0,39.14-14.44c2.31-1.37,4.47-3,7.25-4.85-2.3-2.11-4.35-3.77-6.14-5.67A125.06,125.06,0,0,1,713,323.84a122.1,122.1,0,0,1-10.21-45.07,3.57,3.57,0,0,0-2.4-3.62A124.71,124.71,0,0,1,674,258.72C670.65,256,667.55,253,664,249.88Zm99.48,115.61c.88.7,1.58,1.35,2.36,1.87a110.45,110.45,0,0,0,48.79,18,117.47,117.47,0,0,0,27.92-.19A113,113,0,0,0,872.31,377c1.56-.65,2-1.38,1.59-3.07-2.57-11.61-4.82-23.3-7.57-34.87q-5.22-21.92-11.06-43.68c-3.44-12.72-7.34-25.32-11.07-38-.74-2.47-1.66-4.88-2.55-7.48a11.92,11.92,0,0,0-1.07.79,124.11,124.11,0,0,1-35.25,24.46c-1.73.8-2.19,1.86-2.34,3.67-.45,5.8-.87,11.63-1.83,17.36a120.4,120.4,0,0,1-7.23,24.8,124.17,124.17,0,0,1-20.07,33.31C770.71,358.13,767.15,361.59,763.51,365.49ZM752.7,273.78c3.58-.23,7.22-.13,10.73-.75,7.85-1.38,15.63-3.12,23.44-4.69a3,3,0,0,0,2.73-3.74c-.32-2.77-.39-5.58-.88-8.32a117.37,117.37,0,0,0-8.25-27.71,110.62,110.62,0,0,0-25.93-36.43c-1.3-1.19-2.12-1.32-3.31,0-4.81,5.51-9.94,10.76-14.47,16.5-5.68,7.17-9.76,15.34-13.21,23.81a114,114,0,0,0-7.44,31.36c-.37,3.48-.44,3.5,2.87,4.51A121.52,121.52,0,0,0,752.7,273.78Zm-37.26,7.39c1.25,7,2.1,13.21,3.52,19.32,5,21.29,15.87,39.22,31.34,54.49,2.24,2.21,2.9,2.2,5.14,0a116.84,116.84,0,0,0,21.33-28.18A104.67,104.67,0,0,0,787,300c1.22-5.35,1.8-10.85,2.61-16.29.24-1.66-.39-2.3-2.21-1.9-6,1.33-12,3-18.05,3.65a178.73,178.73,0,0,1-24.37.88c-6.58-.25-13.12-1.66-19.65-2.74C722.26,283.1,719.3,282.14,715.44,281.17Zm87.21-19.63a7.75,7.75,0,0,0,1.13-.25c.52-.22,1-.48,1.51-.74a105.21,105.21,0,0,0,20.36-13.82c3.39-2.89,6.44-6.19,9.62-9.33a3.38,3.38,0,0,0,1-3.89c-2.5-6.82-4.62-13.79-7.43-20.48-6.21-14.8-12.7-29.48-19.17-44.17-2.43-5.53-2.55-5.48-8.44-3.88-.62.17-1.24.31-1.86.46-12.19,2.92-23.24,8.38-33.75,15.05-1.75,1.12-2,2.12-.39,3.71a122.51,122.51,0,0,1,24,32.39,117.27,117.27,0,0,1,12.93,42.61A21,21,0,0,0,802.65,261.54Zm-99.79.29c1-5.47,1.73-10.5,2.78-15.48a124,124,0,0,1,34.59-61.9c2.16-2.07,2.18-2.29-.24-3.92a110.94,110.94,0,0,0-38.6-16.38c-2-.45-3.14.14-3.93,1.95-.7,1.61-1.59,3.13-2.36,4.71a554,554,0,0,0-25.68,62.73,3.09,3.09,0,0,0,.68,3.47A111.76,111.76,0,0,0,695,257.46C697.48,259,700.1,260.3,702.86,261.83Zm97.07-110.37a24,24,0,0,0-1.26-2.27c-4.88-6.62-9.6-13.35-14.71-19.78a50.89,50.89,0,0,0-19.45-15.21,27.77,27.77,0,0,0-13.28-2.48c-9.9.7-17.53,6-24.52,12.42-6.82,6.25-12.13,13.77-17.26,21.4-1.26,1.87-2.33,3.87-3.56,5.94,5.2,1.61,10.06,2.91,14.76,4.63a121.11,121.11,0,0,1,30.58,16.27c1.26.93,2.08.83,3.34,0,3.9-2.64,7.72-5.5,11.92-7.55,7.45-3.64,15.1-6.86,22.77-10C792.6,153.41,796.19,152.61,799.93,151.46ZM821.65,162l25.28,60.21c.51-.71,1-1.39,1.5-2.12a100.33,100.33,0,0,0,12.06-27.05c1.92-7.15,3-14.53,4.36-21.82.38-2,0-3.55-2.43-4.11-4.35-1-8.63-2.33-13-3.35-8.87-2.08-17.89-2.21-26.93-2A3,3,0,0,0,821.65,162Zm-137.56,0a.85.85,0,0,0-.41-.18,105,105,0,0,0-41.23,5.73,3.36,3.36,0,0,0-1.47,2.73A81.69,81.69,0,0,0,642,179.1a113.51,113.51,0,0,0,12.43,36.3c1.29,2.4,2.88,4.63,4.29,6.87Z"/><path class="cls-1" d="M1057.21,489.1l1.56-2.07c6.5-8.55,22.17-8.13,29.1-3.56,5.57,3.67,8.12,9.21,9.15,15.42,2,12.06,2.39,24.19-.91,36.12-3.24,11.7-12.25,16.85-24.27,15.85-5.62-.46-10.2-2.86-14.68-6.94-.08,1.41-.17,2.24-.17,3.07,0,6.8-.07,13.6,0,20.39,0,2.18-.73,3-2.93,2.93-2.71-.13-5.43-.08-8.15,0-1.76,0-2.51-.73-2.41-2.45,0-.47,0-1,0-1.44V486c0-4.06,0-4.11,4.19-4.11H1053c3.26,0,3.47.23,3.5,3.6,0,1,0,2.07,0,3.1Zm-.62,26.62.39,0c0,2.72,0,5.43,0,8.15a17,17,0,0,0,3.45,10.49c3.44,4.47,8.07,5.7,13.44,4.85s8.22-4.25,9.35-9.08a63.11,63.11,0,0,0,.23-28.48c-.83-3.71-2.6-6.95-6.17-8.69-7.79-3.77-17.45.56-19.34,9C1057,506.43,1057,511.13,1056.59,515.72Z"/><path class="cls-1" d="M992.64,544.07v4.27c0,6.32-.08,12.64,0,19,0,2.32-.83,3.14-3.09,3s-4.8,0-7.2,0c-3,0-3.19-.16-3.19-3.32,0-6.08,0-12.16,0-18.24V486.09c0-4.17,0-4.17,4.28-4.17h5c3,0,3.18.15,3.2,3.31,0,1.19,0,2.37,0,3.55l.85.6a5.5,5.5,0,0,1,.65-1.48c4.5-5.43,10.37-7.73,17.34-7.65,6.5.07,12.37,1.55,16.73,6.8,3.5,4.23,4.84,9.32,5.66,14.57a81.6,81.6,0,0,1-.11,27.45,38.14,38.14,0,0,1-4.38,12.54c-4.78,7.95-12.64,10.19-21.4,9.13C1000,549.89,999.78,549.82,992.64,544.07Zm0-28.55h0c0,3.6-.08,7.2,0,10.8a13.53,13.53,0,0,0,12.81,13.14c7,.57,12.23-3.42,13.51-10.77a75.29,75.29,0,0,0,.24-25.06c-.7-4.39-2.11-8.6-6.72-10.67a14,14,0,0,0-19.86,12.72C992.62,509,992.64,512.24,992.64,515.52Z"/><path class="cls-1" d="M457,488.71c2.76-2.12,4.83-4.25,7.33-5.52,7.89-4,15.95-4.31,23.75.3,3.8,2.24,5.74,6,6.66,10.15a41,41,0,0,1,1.06,8.53c.11,14.39.06,28.79,0,43.18,0,3.61-.16,3.76-3.8,3.77H485.8c-3.3,0-3.41-.1-3.41-3.34,0-14,0-28,0-42A15.63,15.63,0,0,0,482,500c-1.63-6.55-7.9-9.42-14.71-6.86a13.39,13.39,0,0,0-8,7.8,31.56,31.56,0,0,0-2.22,10.44c-.27,11.43-.1,22.87-.1,34.3,0,3.38-.08,3.44-3.54,3.45-2.32,0-4.64-.06-7,0-1.87.06-2.55-.76-2.53-2.58.07-4.48,0-9,0-13.44V462.59c0-3.72,0-3.73,3.74-3.73,2.16,0,4.33.08,6.48,0s2.84.69,2.82,2.78c-.07,8.08,0,16.16,0,24.23Z"/><path class="cls-1" d="M825.74,505.4c.62-.58,1.27-1.13,1.86-1.74,6.42-6.56,12.86-13.11,19.23-19.74a5.93,5.93,0,0,1,4.86-2c3.11.12,6.23,0,9.35,0,.83,0,1.67.14,3.18.28-2.11,2.26-3.74,4.06-5.43,5.8-4.67,4.82-9.35,9.63-14.09,14.38a2.65,2.65,0,0,0-.48,3.59c6.76,13.41,13.45,26.86,20.18,40.29,1.24,2.49,1.07,2.83-1.74,2.85-3.12,0-6.24-.06-9.35,0a3.32,3.32,0,0,1-3.52-2.18c-4.89-10.14-9.9-20.23-14.88-30.34-.34-.7-.76-1.37-1.33-2.4-1.62,1.42-3.07,2.7-4.55,4a11,11,0,0,0-4,9.84c.41,6,.11,12,.09,18,0,2.93-.17,3.09-3.17,3.1-2.56,0-5.11,0-7.67,0-1.51,0-2.22-.69-2.16-2.19,0-.48,0-1,0-1.44q0-41.5,0-83c0-3.59,0-3.61,3.6-3.62h6c3.3,0,3.4.1,3.41,3.34v42.91Z"/><path class="cls-1" d="M713.52,519.86c-5.75,0-11.51,0-17.27,0-2,0-2.7.72-2.67,2.68.09,5.69.88,11.09,5.95,14.69,6.26,4.43,16.31,2.94,21-3.11,1.25-1.61,2.46-2.06,4.27-1,1.64,1,3.37,1.81,5.08,2.69,2.81,1.44,2.85,2,1,4.65a23.12,23.12,0,0,1-14.6,9.69,39.7,39.7,0,0,1-16.88,0c-10.68-2.43-16-9.84-18.05-20-1.89-9.52-1.38-19.08.28-28.58a28.35,28.35,0,0,1,6.54-13.93,19.61,19.61,0,0,1,13.37-6.78,56.51,56.51,0,0,1,14.76.43c8,1.4,12.86,6.76,15.17,14.37,2.21,7.27,2.08,14.81,2,22.33,0,1.84-1.28,1.93-2.65,1.93ZM707,509.76c3.67,0,7.35-.06,11,0,1.89,0,2.72-.81,2.44-2.6a68,68,0,0,0-1.64-8.67c-1.23-4.2-4.19-6.54-8.59-7.3-6.83-1.16-12,1.14-14.44,7.27-1.16,2.92-1.5,6.17-2.06,9.29-.29,1.63.88,2,2.25,2Z"/><path class="cls-1" d="M954.24,542.14c-3,2.23-5.63,4.43-8.5,6.22-6.19,3.85-18.71,3.57-24.32-1.38A18.46,18.46,0,0,1,915,533c-.21-16.08-.06-32.15-.11-48.23,0-2.22.93-3,3-2.91,2.47.09,5,.11,7.44,0s3,1,3,3.17c-.06,14.15,0,28.31-.06,42.47,0,4.48,1,8.25,5.46,10.24,4.15,1.83,10.43.74,13.76-2.33a19.23,19.23,0,0,0,6.18-14.58c.13-11.83,0-23.67,0-35.51,0-3.3.12-3.41,3.33-3.43h6.48c3.06,0,3.2.16,3.2,3.32q0,21.35,0,42.71c0,6.08-.06,12.16,0,18.23,0,2.15-.65,3.1-2.88,3-2.4-.13-4.8-.06-7.2,0-1.72,0-2.49-.78-2.46-2.48C954.27,545.16,954.24,543.68,954.24,542.14Z"/><path class="cls-1" d="M758.42,489.22c2.9-2.27,5.11-4.6,7.8-6,7.27-3.81,14.92-4.17,22.37-.61,5.94,2.84,8.5,8.36,8.61,14.54.29,16.48.1,33,.14,49.44,0,1.84-.7,2.61-2.55,2.56-2.48-.08-5,0-7.44,0-2.86,0-3-.2-3-3.23,0-13.44,0-26.88,0-40.32a42.64,42.64,0,0,0-.49-6,7.86,7.86,0,0,0-6.86-7c-7.56-1.31-14.44,2.81-16.49,10.25A42,42,0,0,0,759,513c-.18,11-.06,21.92-.07,32.88,0,3.08-.16,3.23-3.27,3.24-2.32,0-4.65-.08-7,0-2.08.1-2.82-.73-2.81-2.81.07-10.47,0-21,0-31.43q0-14.88,0-29.76c0-3.07.16-3.21,3.29-3.23,2.08,0,4.16.07,6.24,0s3.15.73,3,2.93C758.35,486.16,758.42,487.5,758.42,489.22Z"/><path class="cls-1" d="M531.75,526.11c1.52-4.1,3-8.2,4.58-12.29,3.72-9.79,7.5-19.56,11.16-29.37a3.36,3.36,0,0,1,3.75-2.55c2.47.1,5,0,7.43,0s2.76.53,1.9,2.79c-2.73,7.08-5.59,14.11-8.34,21.19C547.16,519,542.36,532.1,537,545c-2.87,7-4.79,14.41-9.65,20.53-4.7,5.91-11,6.94-17.84,6.45a2.36,2.36,0,0,1-1.56-1.68,60.24,60.24,0,0,1,0-8.39,2.64,2.64,0,0,1,2-1.7c6.57.65,9.07-3.65,11.74-8.59,2.45-4.51,2.07-8.34.36-12.9-6.71-17.88-13.1-35.88-19.6-53.84-.88-2.44-.51-3,2.14-3s5.28.07,7.92,0a3,3,0,0,1,3.34,2.37c3.39,9.65,6.85,19.28,10.3,28.9,1.56,4.34,3.17,8.65,4.75,13Z"/><path class="cls-1" d="M591,480.47a25.24,25.24,0,0,1,14.28,3.11,18.63,18.63,0,0,1,7.84,8.14c.68,1.36.56,2.19-.89,2.85q-3.62,1.62-7.13,3.43c-1.2.62-1.87.33-2.51-.8-4.29-7.49-13.37-8-19.89-5-4.71,2.17-4.78,9.13-1.85,11.67s6.68,4,10.37,5.31c3.91,1.39,7.87,2.66,11.74,4.13,11.31,4.29,14.3,18.7,8.31,28.28-3.39,5.43-8.74,7.62-14.56,8.71-8,1.5-15.77.88-23.05-3.12a21.1,21.1,0,0,1-9-9.68c-.68-1.4-.33-2.25,1.06-2.84,2.5-1.06,4.95-2.27,7.5-3.19a2.56,2.56,0,0,1,2.29.71c5.14,7.94,10.58,8.17,20,6.74a6,6,0,0,0,5.34-4.88c.52-3.37.31-6.79-3.22-8.55-3.7-1.85-7.62-3.27-11.42-4.93s-7.84-3.2-11.54-5.22c-7.47-4.08-9.43-11.6-7.94-19.16,2.06-10.45,9.36-14.69,19.65-15.73C587.8,480.34,589.25,480.47,591,480.47Z"/><path class="cls-1" d="M647.85,480.46a24.82,24.82,0,0,1,14.6,3.42,17.15,17.15,0,0,1,7.37,8.25,2.4,2.4,0,0,1-.74,2.21c-2.36,1.32-4.87,2.38-7.3,3.59A1.78,1.78,0,0,1,659,497c-3.67-7.38-14-7.63-19.67-4.87-4.61,2.25-5.41,9.75-1,12.43,3.82,2.34,8.19,3.83,12.38,5.54,3.25,1.33,6.73,2.12,9.87,3.65q9.33,4.53,10,15.11c.44,6.56-1.22,12.14-6.23,16.58a22,22,0,0,1-11,4.87c-8,1.45-15.78.9-23-3.12a21.47,21.47,0,0,1-9.07-9.59c-.69-1.42-.34-2.27,1-2.88,2.41-1.07,4.83-2.11,7.23-3.22a2,2,0,0,1,3,1c4.61,7.84,11.63,7.84,19.57,6.43a6.83,6.83,0,0,0,5.93-6.4,7.3,7.3,0,0,0-4.57-7.52c-4.56-2.09-9.4-3.6-14-5.7a66.39,66.39,0,0,1-11-6.1c-3.77-2.7-5.19-6.84-5.45-11.5-.35-6.31,1.44-11.7,6.11-16,4-3.62,8.93-4.78,14.1-5.28C644.59,480.35,646,480.46,647.85,480.46Z"/><path class="cls-1" d="M406.06,512.55c0-5.6-.05-11.2,0-16.79,0-2.05-.67-2.86-2.77-2.83-6.38.09-5.88.6-5.89-6,0-5,0-5,4.95-5,3.68,0,3.68,0,3.68-3.78,0-5.28,0-10.56,0-15.83,0-3.38.07-3.44,3.54-3.45,2.32,0,4.64.06,7,0,1.88-.06,2.54.77,2.52,2.59-.06,5.84.06,11.67-.06,17.51,0,2.33.82,3.12,3.08,3,2.79-.14,5.6,0,8.4,0,1.7,0,2.49.77,2.46,2.47,0,2.08,0,4.16,0,6.24,0,1.61-.79,2.32-2.36,2.32-3,0-6.08.05-9.12,0-1.73,0-2.43.67-2.42,2.42,0,10.79,0,21.58.07,32.38a20.46,20.46,0,0,0,.8,5c.89,3.39,3.23,5.17,6.77,5.36.47,0,1,0,1.43,0,5.86,0,5.34-.61,5.33,5.48s.69,5.65-5.49,5.56a42.13,42.13,0,0,1-9.48-.79c-7.24-1.8-11.61-7.21-11.89-14.7-.25-7-.05-14-.05-21.07Z"/><path class="cls-1" d="M885.6,493.78c2.73-2.75,5-5.9,8.06-7.88s6.68-2.84,10.15-3.89c2-.62,3.09.46,3,2.72a70.27,70.27,0,0,0,0,7.68c.14,2.37-.89,3.19-3.11,2.95-9.15-1-14.8,6.45-16.3,12.91a31.83,31.83,0,0,0-.78,6.88c-.08,10.16,0,20.31,0,30.46,0,3.28-.24,3.5-3.59,3.51-2.4,0-4.8-.07-7.19,0-1.94.08-2.76-.66-2.71-2.65.09-3.67,0-7.35,0-11q0-25.07,0-50.13c0-3.29.11-3.4,3.34-3.41,2.24,0,4.48,0,6.72,0,1.71,0,2.47.79,2.45,2.49C885.58,487.59,885.6,490.77,885.6,493.78Z"/></svg>