<svg id="Logos_Patrocinadores_Web" data-name="Logos Patrocinadores Web" xmlns="http://www.w3.org/2000/svg" viewBox="0 0 300 300"><defs><style>.cls-1{fill:#8f8fa3;}</style></defs><path class="cls-1" d="M29.06,217.59c-1.2-1-2.79-.79-4.16-1.32-1.21-.47-1.83-1-1.69-2.45q1.17-12,2.2-24a2.16,2.16,0,0,1,1.68-2.1,20.46,20.46,0,0,1,11.79-.58,10,10,0,0,1,7.63,8.62,23.63,23.63,0,0,1-1.33,12.88c-1.89,4.66-5.24,7.63-10.3,8.46-.37.06-.77,0-.84.54Zm10.6-17.9a36.08,36.08,0,0,0-.34-4c-.56-2.7-2.2-3.87-4.94-4-1.57-.07-2.1.53-2.21,2-.4,4.94-1,9.88-1.36,14.82-.09,1.07-.84,2.56.24,3.16,1.31.74,2.95.3,4.32-.4a6.42,6.42,0,0,0,3-3.81,25,25,0,0,0,1.3-7.77"/><path class="cls-1" d="M251.83,217.59c-.13-.17-.23-.43-.39-.49-5.56-1.76-7.71-5.88-8-11.36a22.09,22.09,0,0,1,2.38-11.82,13.23,13.23,0,0,1,16.1-6.27c4.1,1.39,6.21,4.55,6.84,8.57a22.12,22.12,0,0,1-1.54,13.07c-1.9,4.06-4.82,6.89-9.32,7.83-.32.06-.58.13-.68.47ZM262.12,200c-.06-1.2-.09-2.41-.2-3.6-.24-2.7-1.57-4.51-3.56-4.94a5.05,5.05,0,0,0-5.82,2.89,22,22,0,0,0-1.54,15c.84,3.55,5,4.55,7.74,2.11a8.17,8.17,0,0,0,2.18-3.63,28.64,28.64,0,0,0,1.2-7.8"/><path class="cls-1" d="M83.39,217.59c0-.72-.68-.71-1.13-.9a10.54,10.54,0,0,1-6.59-8.79,22.3,22.3,0,0,1,1.9-13.45,13.2,13.2,0,0,1,16-6.91c4.39,1.35,6.61,4.63,7.25,9a22.75,22.75,0,0,1-1.16,11.8c-1.68,4.31-4.51,7.43-9.12,8.69-.35.1-.76.1-.82.59Zm10.72-17.78a17.18,17.18,0,0,0-.45-4.88,4.28,4.28,0,0,0-3.25-3.41A4.92,4.92,0,0,0,85.48,193a10,10,0,0,0-2.11,4.19,29.58,29.58,0,0,0-.83,10.09c.23,3,1.66,5,3.72,5.32,2.81.48,4.88-.75,6.22-3.72,1.27-2.81,1.42-5.83,1.63-9.11"/><path class="cls-1" d="M177.57,217.59c-.22-.76-1-.63-1.48-.81a10.71,10.71,0,0,1-7.72-9.17c-.84-6.11-.06-12,4.47-16.65,4.06-4.19,9.13-4.82,14.43-3.19,4.46,1.37,6.15,5,6.46,9.43.33,4.77.32,4.76-4.36,5.44-4.18.6-8.34,1.31-12.53,1.82-2,.24-2.33,1.12-1.87,2.86a6.43,6.43,0,0,0,6.22,5.28,17.58,17.58,0,0,0,7.14-.9c1.72-.6,2,.28,2.47,1.58s.47,2.35-1.24,2.94c-1.28.44-2.92-.05-3.84,1.37Zm9.64-20.26c-.15-4.26-1.77-6.07-5.24-6-3.88.06-7.85,4.95-7.24,8.85.17,1.12.91.8,1.51.72,3-.42,6.09-.95,9.15-1.3,1.59-.19,2.08-1,1.82-2.25"/><path class="cls-1" d="M5.06,217.59c-1-1.14-2.62-.86-3.87-1.48-1-.51-1.51-1-1-2.22,1.37-3.11,1.33-3.15,4.76-2.37a11.68,11.68,0,0,0,4.71.11,4.35,4.35,0,0,0,3.61-4.54c0-2.42-1.66-3.17-3.65-3.57-.44-.1-.91-.09-1.34-.2-.91-.23-2.31.21-2.12-1.56.15-1.4-.08-2.9,2-3.16a6.61,6.61,0,0,0,4.58-2.21,3,3,0,0,0,.69-3.15c-.47-1.13-1.54-1.36-2.63-1.4a12.75,12.75,0,0,0-4.91.65c-2,.72-2.06-.79-2.5-1.94s-.83-2.26.91-2.84A18.76,18.76,0,0,1,15.27,187c5.76,1.52,7.29,7.33,3,11.53-1.26,1.24-1.37,1.83.05,3.05,2.57,2.2,3.06,6,1.44,9.35a11.17,11.17,0,0,1-7.58,6c-.58.16-1.43-.21-1.72.7Z"/><path class="cls-1" d="M59.39,217.59c0-.14,0-.37-.11-.4-6.69-2.88-7.94-8.51-7.47-14.94A18.89,18.89,0,0,1,55.47,192a12.8,12.8,0,0,1,14.82-4.15c1,.43,2.27.78,1.51,2.4-.6,1.27-.83,2.61-3,1.89-3.74-1.24-6.69.23-8.31,3.83a18.81,18.81,0,0,0-1.3,11.27c.78,4.37,3.37,6,7.69,4.88,1.27-.33,2.11-.52,2.51,1.1.35,1.41.73,2.6-1.12,3.28-.86.31-1.94.23-2.55,1.13Z"/><path class="cls-1" d="M150,88.55c1.31,1.26,3.23,1.47,4.6,2.61-.19.4-.27,1-.58,1.16-2.59,1.41-4.9,3.51-8.1,3.49-.53,0-1.07,0-1.36.56a75.29,75.29,0,0,0-11.65,4.38c-1.38-1.46-.08-2.08.91-2.69,4.73-2.92,9.49-5.8,14.24-8.7a11.2,11.2,0,0,0,1-.81Z"/><path class="cls-1" d="M123.69,114.36c.4,1-.07,1.92-.31,2.85-1.79,6.78-3.57,13.56-5.46,20.31-.46,1.65-.2,2.61,1.33,3.49,4.58,2.63,9.1,5.37,13.91,7.55,8.34,3.78,14.07,1.87,18.62-6.11l1-1.76a14,14,0,0,0,2.25-.09c4.37-.78,3.88-.07,5-4.11.9-3.25,2-6.45,2.92-9.7a6.74,6.74,0,0,1,3.09-4.2c2.88-1.77,5.68-3.66,8.47-5.57,4.45-3,9.17-5.65,13.44-9,1.86,1.2.78,2-.38,2.76-5.34,3.56-10.51,7.4-16,10.59-4.52,2.6-6.84,6.13-8.14,11.12-2.81,10.87-6.25,21.58-9.34,32.38-.56,2-1.14,2.52-3.13,1.41q-18.75-10.49-37.63-20.78c-2-1.09-2.67-2.39-1.81-4.59,1-2.5,1.75-5.09,2.61-7.64,3.23.14,3.27.15,4.23-3.16,1.25-4.3,2.37-8.64,3.66-12.93.32-1,.15-2.5,1.69-2.87"/><path class="cls-1" d="M119.94,187c2.34.08,5,0,7.49,1.13,3.24,1.43,4.86,3.78,4.6,7.3-.49,6.54-1.15,13.07-1.71,19.61-.11,1.37-.66,2-2.11,2-6-.06-5,.6-4.63-4.78.4-5.19.85-10.38,1.21-15.57.25-3.81-1.14-5.23-5-5.24-.68,0-1.35.13-2,.13-1.9,0-2.58,1-2.73,2.8-.56,6.46-1.21,12.92-1.89,19.37-.11,1.05.39,2.66-.86,3a10.4,10.4,0,0,1-5.8,0c-.81-.23-.47-1.19-.41-1.81.73-8.12,1.51-16.23,2.23-24.34a2.29,2.29,0,0,1,2-2.14,35.77,35.77,0,0,1,9.66-1.4"/><path class="cls-1" d="M291.82,209.46c.21-2.71.64-7.82,1-12.94.24-3.7-1.17-5.12-4.84-5.12l-.9,0c-3.64.19-3.7.27-4.05,3.88-.6,6.39-1.3,12.77-1.82,19.15-.15,1.91-.82,2.59-2.75,2.54-5.17-.15-4.55.52-4.13-4.47.61-7.14,1.38-14.27,2-21.41a2.76,2.76,0,0,1,2.3-2.83,34.14,34.14,0,0,1,14.35-.92c5,.78,7.47,4,7,9-.51,6.09-1.09,12.17-1.56,18.27-.12,1.68-.75,2.3-2.49,2.3-4.72,0-4.72.11-4.08-7.52"/><path class="cls-1" d="M151.69,187c2.21.09,4.72,0,7.08,1,3.33,1.38,4.89,3.58,4.78,7.15-.19,6.64-1,13.24-1.65,19.84-.14,1.38-.65,2-2.1,2-6-.1-5,.56-4.63-4.86s.89-10.68,1.2-16c.19-3.2-1.17-4.55-4.33-4.71-.23,0-.45,0-.68,0-4.27,0-4.37.08-4.8,4.31-.64,6.23-1.28,12.46-1.78,18.7-.16,2-.94,2.66-2.93,2.62-4.35-.08-4.4,0-4-4.37.65-7.21,1.42-14.42,2-21.64a2.75,2.75,0,0,1,2.39-2.76,36.92,36.92,0,0,1,9.44-1.23"/><path class="cls-1" d="M188,108.07c-4.27,3.3-9,5.91-13.44,9-2.79,1.91-5.59,3.8-8.47,5.56a6.79,6.79,0,0,0-3.09,4.21c-.92,3.25-2,6.45-2.92,9.7-1.13,4-.64,3.33-5,4.11a14,14,0,0,1-2.25.09,38.6,38.6,0,0,0,1.43-9.28,13.35,13.35,0,0,0-4-10.18l.34-.27-.37-.13v0c.39-1.05-.48-1.51-1-2.05a48.09,48.09,0,0,0-6.44-4.92c-.71-.48-1.71-.73-1.85-1.81h1.35a.89.89,0,0,0,.92.46h0a.88.88,0,0,0,.92.46h0a.89.89,0,0,0,.92.47h0a4.75,4.75,0,0,0,.94.91c4.34,2.27,8.69,4.51,13,6.77a4.27,4.27,0,0,0,2.4.46c8.25-.71,14.64-7,14.47-15,0-1.62-.55-3.25-.05-4.88,4.18,1.92,8.46,3.64,12.22,6.37"/><path class="cls-1" d="M163.54,140.17a113.64,113.64,0,0,1,3.57-12.29,2.63,2.63,0,0,1,1-1.18,153.69,153.69,0,0,1,14.46-9.55c2.27-1.28,3.52-.88,5.46,1.27-1.35,1.28-.72,3-.85,4.47-.3,3.45-.64,6.88-3.26,9.54-5.29,2.26-10.53,4.68-16.14,6.12-1.3.34-2.91.18-3.76,1.64l-.45,0"/><path class="cls-1" d="M164,140.19c.85-1.46,2.46-1.3,3.76-1.63,5.61-1.45,10.84-3.87,16.14-6.13a33.85,33.85,0,0,1-4.74,9.53c-1.09,1.55-1.8,3.39-3.55,4.69a30.2,30.2,0,0,0-7.28,7.34c-1.28,1.95-3.29,2.59-4.72,4.15s-4.25,2.31-5.19,4.82c-.14.37-.45.69-.86.52s-.36-.61-.2-1,.27-.7-.06-1a3.94,3.94,0,0,1,.65-2.32c.5-.16.74-.39.26-.85a3.9,3.9,0,0,1,.68-2.32,1.75,1.75,0,0,0,.66-2.22,4,4,0,0,1,.66-2.31c.5-.15.75-.38.27-.85a3.89,3.89,0,0,1,.69-2.33,1.75,1.75,0,0,0,.65-2.2,3.91,3.91,0,0,1,.69-2.32c1-1,1.05-2.37,1.49-3.58"/><path class="cls-1" d="M175.76,101.7c-.5,1.63,0,3.26.05,4.88.17,8-6.22,14.29-14.47,15a4.27,4.27,0,0,1-2.4-.46c-4.34-2.26-8.69-4.5-13-6.77a4.75,4.75,0,0,1-.94-.91c.61-.19,1.59,1,1.84-.49,4.18,1.33,7.86,3.71,11.74,5.68a3.54,3.54,0,0,0,3.77,0,55.08,55.08,0,0,0,7.27-4.52c3.61-2.84,3.48-6.61-.33-9.23-.71-.49-1.73-.62-2.11-1.57a5.59,5.59,0,0,0-4-2.52,19.52,19.52,0,0,0-8.63-3.63c-3.26-1.17-6.62-1-10-.77.29-.58.83-.57,1.36-.57,3.2,0,5.51-2.07,8.1-3.48.31-.17.39-.76.58-1.16,2.57.67,4.78,2.1,7.1,3.27,4.72,2.4,9.61,4.46,14.11,7.27"/><path class="cls-1" d="M234.91,187.5c.6,0,1.2,0,1.81,0,1.13,0,1.63.4,1.51,1.61q-1.23,13.14-2.38,26.29c-.09,1-.49,1.55-1.52,1.55-.23,0-.45,0-.68,0-5.92,0-5,.39-4.51-4.68.6-7.05,1.27-14.09,1.88-21.13.32-3.67.3-3.68,3.89-3.67"/><path class="cls-1" d="M224.69,188c-2.55,3.63-4.93,7.27-7.6,10.7a4.28,4.28,0,0,0-.41,5.44c2,3.47,3.61,7.11,5.48,10.63.81,1.52.83,2.22-1.23,2.28-5.17.14-5.27.25-7.22-4.56-1.32-3.22-3.49-6.17-3.06-10a12.55,12.55,0,0,1,2.19-6.51c1.26-1.68,2.33-3.51,3.51-5.26,2.35-3.51,3.79-4,8.34-2.72"/><path class="cls-1" d="M198.19,217c-1-.23-2.62.58-3.16-.54-.42-.84.93-1.91,1.56-2.83,2.43-3.54,4.85-7.1,7.37-10.58a3,3,0,0,0,.25-3.67c-1.82-3.21-3.42-6.55-5.22-9.77-1-1.75-.42-2,1.35-2.19,3-.3,5,.52,5.91,3.64a17.13,17.13,0,0,0,1.65,3.46c2.73,4.83,2.2,9.46-.73,14-1.14,1.77-2.2,3.6-3.31,5.39C202,217,202,217,198.19,217"/><path class="cls-1" d="M157.29,161.49c.33.32.22.66.06,1s-.23.8.2,1,.72-.15.86-.52c.94-2.51,3.62-3.13,5.19-4.82s3.44-2.2,4.72-4.15a30.2,30.2,0,0,1,7.28-7.34c1.75-1.3,2.46-3.14,3.55-4.69a33.59,33.59,0,0,0,4.74-9.53c2.62-2.66,3-6.09,3.26-9.54.13-1.51-.5-3.19.85-4.47,1.62,2.44,1.05,5.14.55,7.65a49.07,49.07,0,0,1-13,25.41,123.68,123.68,0,0,1-16.47,14.11c-.62.45-1.23,1.43-2.11.88s-.87-1.67-.53-2.66c.27-.78.55-1.55.83-2.32"/><path class="cls-1" d="M123.69,114.36c-1.54.37-1.37,1.83-1.69,2.87-1.29,4.29-2.41,8.63-3.66,12.93-1,3.31-1,3.3-4.23,3.16q3.3-9.6,6.6-19.2c.19-.55.37-1.31,1.05-1.34a2,2,0,0,1,1.93,1.58"/><path class="cls-1" d="M144.51,96.37c3.36-.18,6.72-.41,10,.77,0,.31,0,.61,0,.92-6.67-1.53-12.74.31-18.65,3.24-1,.49-2.38,1.69-3-.55a75.29,75.29,0,0,1,11.65-4.38"/><path class="cls-1" d="M140.9,112.09c.14,1.08,1.13,1.33,1.85,1.81a48.09,48.09,0,0,1,6.44,4.92c.56.54,1.43,1,1,2.05-2.85-1.49-5.13-3.79-7.8-5.56-1.85-1.23-4-2.16-5.22-4.17.78-.09,1.59-1.12,2.32.08.09.88.73.89,1.38.87Z"/><path class="cls-1" d="M146.81,113c-.25,1.52-1.23.3-1.84.49h0a.88.88,0,0,0-.92-.46h0a.87.87,0,0,0-.92-.46h0a.89.89,0,0,0-.92-.46h0a10,10,0,0,0-3.73-2.25c-.68-.26-.83-.55-.25-1.06a43.76,43.76,0,0,1,8.53,4.17"/><path class="cls-1" d="M154.48,98.06c0-.3,0-.61,0-.92a19.52,19.52,0,0,1,8.63,3.63h-1l-7.68-2.72"/><path class="cls-1" d="M138.28,108.79c-.59.52-.43.8.25,1.06a10,10,0,0,1,3.73,2.25H140.9a1.32,1.32,0,0,0-1.38-.87c-.73-1.2-1.54-.17-2.32-.08.21-.85-1.48-2.57,1.08-2.35"/><path class="cls-1" d="M162.16,100.78h1a5.57,5.57,0,0,1,4,2.53,22.27,22.27,0,0,1-5-2.52"/><path class="cls-1" d="M164,140.19c-.44,1.21-.51,2.59-1.49,3.58a11.91,11.91,0,0,1,1-3.6l.45,0"/><path class="cls-1" d="M159.54,153.78a1.73,1.73,0,0,1-.66,2.21,3.87,3.87,0,0,1,.66-2.21"/><path class="cls-1" d="M161.81,146.09a1.75,1.75,0,0,1-.65,2.2,3.83,3.83,0,0,1,.65-2.2"/><path class="cls-1" d="M160.47,150.62c.48.47.23.7-.27.85a.79.79,0,0,1,.27-.85"/><path class="cls-1" d="M158.2,158.32c.48.45.24.69-.26.85a.78.78,0,0,1,.26-.85"/><path class="cls-1" d="M150.22,120.83l.37.13-.34.27a.24.24,0,0,1,0-.4"/><path class="cls-1" d="M144.06,113a.9.9,0,0,1,.92.47.89.89,0,0,1-.92-.47"/><path class="cls-1" d="M143.15,112.54a.9.9,0,0,1,.92.46.88.88,0,0,1-.92-.46"/><path class="cls-1" d="M142.25,112.09a.89.89,0,0,1,.92.46.9.9,0,0,1-.92-.46"/><path class="cls-1" d="M139.52,111.22a1.33,1.33,0,0,1,1.38.87c-.65,0-1.29,0-1.38-.87"/></svg>