<svg id="Logos_Patrocinadores_Web" data-name="Logos Patrocinadores Web" xmlns="http://www.w3.org/2000/svg" viewBox="0 0 300 81.61"><defs><style>.cls-1{fill:#8f8fa3;}</style></defs><path class="cls-1" d="M52.16,152.47c0-4.4.23-8.82-.06-13.2-.41-6.41.94-12.49,2.77-18.54a3.23,3.23,0,0,1,3.07-2.56c4.91-.72,9.85-.5,14.78-.71a6.9,6.9,0,0,1,4.8,1.6c2.69,2.17,5.23,4.67,8.24,6.28,5.69,3,8.27,8,10,13.79,1.19,4.05,2.67,8,4.13,12a7.19,7.19,0,0,1,0,5.28c-2.42,6.55-4.82,13.11-7.14,19.71-.76,2.14-2.61,3.19-4.19,4.45-3.77,3-7.71,5.86-11.52,8.84a6,6,0,0,1-4.32,1.39c-4.74-.36-9.49-.7-14.24-1a3.56,3.56,0,0,1-3.63-2.94,56.26,56.26,0,0,1-2.67-17.56c.11-5.61,0-11.21,0-16.82Zm13.58,16.85c-.1,2.5.34,2.85,2.37,2.06,2.82-1.11,5.56-2.46,8.43-3.4,3.47-1.13,5.22-3.4,6.9-6.65,2.78-5.42,2.34-10.11-.81-15-.83-1.28-1-3-2.61-3.75-4.23-2-8.49-3.91-12.74-5.86-1.16-.54-1.64-.15-1.48,1.09.23,1.79.43,3.59.68,5.38.83,6,1.82,11.89.44,18C66.3,163.94,66.14,166.84,65.74,169.32Z" transform="translate(0 -117.45)"/><path class="cls-1" d="M46,139.31a24.84,24.84,0,0,0,0,2.59c.44,4.34,0,8.22-4.46,10.6-1.7.92-1.33,2.42.15,3.24,4,2.19,4.71,5.61,4.23,9.67a11.91,11.91,0,0,0,0,3.1c1.06,7.19-1.46,13.33-5.41,19.13a4.25,4.25,0,0,1-3.78,2.2,35.6,35.6,0,0,0-6.2.48c-6.55,1.24-11.73-1.85-17-4.95-3.72-2.21-7.5-4.31-11.32-6.35a3.49,3.49,0,0,1-2.12-3.74c0-.34,0-.69,0-1,0-6,1.32-7.85,6.88-9.95a3.31,3.31,0,0,1,3.15.56c3.56,2.14,7.13,4.26,10.69,6.39,2.13,1.27,7.78-.46,8.69-2.76a3.56,3.56,0,0,0-.77-3.85c-2.4-2.72-4.67-5.57-7.25-8.11-1.79-1.77-1.65-3.13-.06-4.79q3.5-3.66,6.86-7.43c2.49-2.78,2-4.27-.92-6.32s-5.51-1.91-8.41.18-6.05,3.7-9.07,5.56c-1.23.76-2.39,1-3.57,0a4.08,4.08,0,0,0-.44-.28C-.23,139.62-.19,139.62.1,132.38a3.56,3.56,0,0,1,2-3.34c6.53-3.57,13-7.27,19.58-10.72,3-1.56,6.31-.43,9.48-.51a18.44,18.44,0,0,0,2.06.21c5.11-.78,7.25,2.34,9.66,6.21C45.88,129.05,46.39,134,46,139.31Z" transform="translate(0 -117.45)"/><path class="cls-1" d="M178.65,133.73v35.64a24.62,24.62,0,0,1-.07,2.58c-.18,1.71-1,3.05-2.85,3.13s-2.6-1.42-2.87-3a15.82,15.82,0,0,1-.09-2.58q0-21,0-41.93a14.78,14.78,0,0,1,.11-2.58c.48-2.7,2.88-3.61,5-1.92a15.73,15.73,0,0,1,3,3.58l24.8,35.46c.24.34.51.67.89,1.16.78-.91.5-1.87.5-2.72q0-16.56,0-33.13a15.8,15.8,0,0,1,.22-3.08,2.39,2.39,0,0,1,2.43-2,2.44,2.44,0,0,1,2.86,1.7,10.75,10.75,0,0,1,.36,3q0,21.74,0,43.48c0,.52,0,1,0,1.55-.1,1.27-.48,2.41-1.84,2.85a3,3,0,0,1-3.46-1.17q-2.74-3.62-5.33-7.34-11-15.71-22-31.43c-.34-.48-.75-.93-1.13-1.39Z" transform="translate(0 -117.45)"/><path class="cls-1" d="M256.08,145.2c1.82,0,3.64-.06,5.45,0,2.11.08,3.69,1.26,3.72,3.28.14,7.3-.13,14.64-5.59,20.38-6.45,6.78-14.59,7.53-23.06,5.31-10-2.61-14.24-10.22-15.91-19.71-1.22-6.95,0-13.54,2.64-20,3-7.36,12.56-13,20.85-12.4,5.18.4,10.12,1.52,14.48,4.47,2.77,1.87,3.67,3.83,2.59,5.45s-2.87,1.75-5.88-.42a19.4,19.4,0,0,0-12.33-4,14.58,14.58,0,0,0-11.46,5.68c-6.4,7.94-6.48,22.9-.11,30.83,4.14,5.15,9.86,6.21,16,5.19,5.7-.95,9-4.76,10.68-10.14.05-.16.09-.33.14-.5,2.23-8,2.1-8.15-6.07-8.19h-.26c-2.05,0-4.47,0-4.5-2.66s2.49-2.57,4.48-2.63c1.38,0,2.77,0,4.16,0Z" transform="translate(0 -117.45)"/><path class="cls-1" d="M141.68,128.1c-7.42,0-14.25,0-21.08,0a19.85,19.85,0,0,1-3.61-.31,2.52,2.52,0,0,1,0-5,18,18,0,0,1,3.1-.3q12.74,0,25.47,0c1.54,0,3.3-.24,4.19,1.4s-.2,3.14-1.12,4.5q-12.79,19-25.6,38.06c-.45.67-1.52,1.3-1,2.2s1.59.44,2.43.44c6.93,0,13.86,0,20.79,0a11.18,11.18,0,0,1,3.86.45A2.47,2.47,0,0,1,151,172a2.58,2.58,0,0,1-2,2.46,8.75,8.75,0,0,1-2.56.28q-13.65,0-27.3,0a11.27,11.27,0,0,1-3.07-.36c-2.33-.7-3.11-2.42-2.13-4.63a19.65,19.65,0,0,1,1.84-3.12Q127.66,149,139.55,131.4C140.17,130.48,140.76,129.54,141.68,128.1Z" transform="translate(0 -117.45)"/><path class="cls-1" d="M284.73,122.18a18.31,18.31,0,0,1,9.91,2.87c2.14,1.44,2.69,3.2,1.58,4.78-1.39,2-3,1.2-4.54.23a13.33,13.33,0,0,0-8.57-2.44,9.3,9.3,0,0,0-5.83,2.53c-3.45,3.25-3,8,1,10.56a44.52,44.52,0,0,0,7.82,3.49c.88.35,1.78.67,2.68,1,10.59,3.76,12.1,9.22,10.85,17-1.3,8.08-8.31,13.2-17.23,13a23.69,23.69,0,0,1-10.78-2.53,7.11,7.11,0,0,1-2.48-1.85c-.91-1.21-1.27-2.5-.26-3.81a2.6,2.6,0,0,1,3.72-.56,23,23,0,0,0,6.69,2.76c5.73,1.31,11.3-1.11,13.72-5.91s1-8.86-3.63-11.36a89.57,89.57,0,0,0-10.1-4.14c-3.94-1.54-7.61-3.51-9.34-7.68a12.53,12.53,0,0,1,6.31-16A19.31,19.31,0,0,1,284.73,122.18Z" transform="translate(0 -117.45)"/><path class="cls-1" d="M163.54,148.59c0,7.07,0,14.15,0,21.22a14,14,0,0,1-.2,2.83,2.69,2.69,0,0,1-2.66,2.41,2.74,2.74,0,0,1-2.83-2.51,12.21,12.21,0,0,1-.17-2.57q0-21.36,0-42.71c0-3.56,1-5.17,3-5.13s2.88,1.67,2.89,5.24Q163.56,138,163.54,148.59Z" transform="translate(0 -117.45)"/><path class="cls-1" d="M170.79,193.82c0-3.21,0-6,0-8.88,0-1-.16-2.47,1.19-2.46s.86,1.47.87,2.32c0,3.88,0,7.76,0,11.64,0,.68.08,1.51-.69,1.81-.93.37-1.4-.44-1.84-1.06-2.5-3.51-5-7-7.95-10.46v4c0,1.55.06,3.11-.05,4.65-.07,1,.14,2.8-1.16,2.76-1.46,0-.85-1.78-.87-2.78-.08-3.71,0-7.41,0-11.12,0-.67-.08-1.5.7-1.8.93-.36,1.42.42,1.86,1,1.79,2.54,3.54,5.11,5.34,7.64A6.77,6.77,0,0,0,170.79,193.82Z" transform="translate(0 -117.45)"/><path class="cls-1" d="M240.48,190.3c0-2,0-4,0-5.93,0-1.57.75-2.27,2.36-2.41,7.12-.62,11.17,3.93,9.59,10.86a8,8,0,0,1-10.73,5.71,1.87,1.87,0,0,1-1.21-2C240.47,194.43,240.48,192.36,240.48,190.3Zm9.89-.16a6.17,6.17,0,0,0-1.63-4.93c-1.46-1.49-3.34-1.42-5.08-.93-1.53.42-1,2-1.06,3.12,0,2.49,0,5,0,7.48,0,1.55.76,2.09,2.25,2.11C248.46,197,250.35,194.84,250.37,190.14Z" transform="translate(0 -117.45)"/><path class="cls-1" d="M129.24,193.93c1.08-2.86.74-5.59.85-8.3,0-.78,0-1.55.1-2.32,0-.45.28-.88.78-.86a.83.83,0,0,1,.74.91c0,4.65,0,9.3,0,13.94a.94.94,0,0,1-.69,1c-.71.17-1.11-.35-1.46-.84-2.23-3.08-4.44-6.16-6.67-9.23-.33-.45-.74-.85-1.59-1.83,0,2,0,3.34,0,4.68,0,1.72,0,3.45-.07,5.17,0,.81,0,2-1.18,1.95s-.83-1.16-.83-1.89c0-4.05,0-8.09,0-12.14,0-.68,0-1.51.73-1.79.93-.34,1.4.45,1.84,1.07Q125.53,188.68,129.24,193.93Z" transform="translate(0 -117.45)"/><path class="cls-1" d="M140.47,198.64c-2.88.21-4.87-1.45-5.95-4.15a10.1,10.1,0,0,1,1-9.86c1.94-2.84,6.73-3.61,9.53-1.57.64.46,1.4,1.06.91,1.89s-1.36.24-2-.06c-3.59-1.61-6.19-.79-7.5,2.36-1.53,3.7-.11,8.16,3,9.37a4.62,4.62,0,0,0,6.15-4.36c-.05-1.44-1.11-1.26-2-1.42-.51-.09-1.08-.22-1-.9.06-.5.55-.57,1-.68,3.11-.77,4.44.49,3.87,3.65C146.67,197,144.64,198.69,140.47,198.64Z" transform="translate(0 -117.45)"/><path class="cls-1" d="M195.33,192a28.63,28.63,0,0,0,3.73,4.47c.44.47,1.27,1,.64,1.72s-1.46.05-2-.48c-1.14-1.18-2.18-2.44-3.3-3.64-.4-.43-.78-1.17-1.43-.94s-.6,1.12-.61,1.8a19.75,19.75,0,0,1,0,2.31c-.06.5-.32,1-1,1.05s-.85-.56-.86-1.07c0-4.58,0-9.15,0-13.72a1.45,1.45,0,0,1,1-1.34c2.7-1.09,7.08.32,8,2.61,1.26,3.07-.2,5.52-4.1,6.9C195.47,191.64,195.45,191.76,195.33,192Zm-2.74-5c-.1,1.61.16,2.92,2.27,2.84,1.93-.07,3.18-.95,3.21-2.9s-1.3-2.78-3.22-2.82C192.73,184,192.49,185.31,192.59,186.94Z" transform="translate(0 -117.45)"/><path class="cls-1" d="M239.1,197.05c.11.62.08,1.06-.39,1.27a1,1,0,0,1-1.47-.67c-1.35-3.94-4.6-2.41-7.24-2.51-1.36,0-1.78,1.17-2.26,2.2-.3.63-.72,1.34-1.56,1s-.52-1.17-.29-1.79c1.61-4.28,3.21-8.56,4.9-12.8.53-1.33,1.78-2.59,2.77-.71C235.94,187.53,237.37,192.45,239.1,197.05Zm-6.29-11.12-.65-.05c-.72,1.83-1.46,3.65-2.15,5.49-.24.64-.48,1.5.42,1.76a5.34,5.34,0,0,0,4-.09c1.27-.74.09-1.85-.17-2.75C233.88,188.82,233.32,187.38,232.81,185.93Z" transform="translate(0 -117.45)"/><path class="cls-1" d="M212.86,182.16c.89.07,1.25.76,1.54,1.49q2.44,6.38,4.88,12.76c.25.65.54,1.45-.24,1.84-1,.51-1.44-.37-1.63-1.1-.61-2.26-2.36-2.22-4.12-2.11-1.93.13-4.33-.82-5.1,2.14-.17.65-.61,1.41-1.47,1s-.61-1.2-.38-1.82c1.63-4.34,3.3-8.67,5-13A1.66,1.66,0,0,1,212.86,182.16Zm-.09,3c-.91,2.35-1.56,4.09-2.27,5.81-.8,1.91,0,2.41,1.84,2.41,3.52,0,3.66-.11,2.39-3.4C214.18,188.56,213.59,187.16,212.77,185.15Z" transform="translate(0 -117.45)"/><path class="cls-1" d="M298.08,196.87c0,.8,0,1.25-.51,1.41a.83.83,0,0,1-1.05-.55c-1.41-4-4.75-2.5-7.49-2.62-1.51-.07-1.86,1.32-2.45,2.34-.31.52-.67,1.16-1.4.74-.51-.3-.42-.92-.24-1.41,1.71-4.51,3.37-9,5.18-13.51.53-1.32,1.87-1.74,2.5-.26C294.62,187.67,296.36,192.45,298.08,196.87Zm-6.26-11.14-.66-.07c-.77,2.05-1.57,4.09-2.31,6.15-.35,1,.12,1.47,1.11,1.5s1.72,0,2.58,0c1.64,0,1.9-.76,1.37-2.12C293.2,189.39,292.52,187.56,291.82,185.73Z" transform="translate(0 -117.45)"/><path class="cls-1" d="M279.39,194.24c1.19-3.3,2.35-6.62,3.58-9.91.3-.81.36-2.28,1.62-1.85s.45,1.63.16,2.47c-1.32,3.82-2.65,7.65-4.07,11.43-.3.8-.49,2.06-1.74,1.93-1-.1-1.19-1.15-1.48-1.94q-2.16-6-4.27-11.92c-.25-.7-.78-1.65.18-2,1.18-.47,1.38.73,1.65,1.48,1.27,3.45,2.48,6.92,3.72,10.38Z" transform="translate(0 -117.45)"/><path class="cls-1" d="M180.05,190.29c0-1.81.09-3.62,0-5.42-.12-2.09.68-3.15,2.84-2.88,1.38.17,3.71-.73,3.95.71.3,1.79-2,1.1-3.22,1.42-1.81.48-1.36,1.95-1.41,3.17s.09,2.3,1.67,2.4a4.53,4.53,0,0,1,.52,0c.87.17,2.41-.36,2.43.75,0,1.42-1.58.9-2.47.91-2.22,0-2.14,1.49-2.18,3s.45,2.63,2.33,2.61c1,0,2.68-.42,2.66.74,0,1.49-1.77.85-2.76.87-4.33.1-4.33.06-4.34-4.19Z" transform="translate(0 -117.45)"/><path class="cls-1" d="M154,198.66c-4.09,0-4.1,0-4.11-3.87,0-3.27.09-6.55,0-9.82-.08-2.22.75-3.25,3-3,.17,0,.35,0,.52,0,1.18.24,3.27-.64,3.34.84.09,1.65-1.93,1-3.14,1.1-1.89.09-1.54,1.56-1.55,2.69,0,1.3-.39,2.88,1.74,3.12,1,.11,2.85-.52,2.87.82s-1.79.78-2.8.86c-1.92.16-1.83,1.48-1.83,2.8s-.07,2.71,1.85,2.76a1.11,1.11,0,0,1,.26,0c1,.32,3-.63,2.88,1C156.9,199.27,154.9,198.36,154,198.66Z" transform="translate(0 -117.45)"/><path class="cls-1" d="M89.31,197.59c-11.91.86-23.82.52-35.72.25v-1H89.3Z" transform="translate(0 -117.45)"/><path class="cls-1" d="M263.15,182c1.12,0,2.25,0,3.37,0,.53,0,1.08.18,1.17.79a.92.92,0,0,1-.92,1.05c-2.57.13-2.42,1.92-2.41,3.7,0,2.75,0,5.51,0,8.26,0,.9.08,2.28-1.07,2.32-1.38,0-1-1.39-1-2.22-.06-3-.07-6,0-9,0-1.68-.31-2.88-2.31-3-.67,0-1.55-.3-1.4-1.18s1.06-.73,1.74-.75c.95,0,1.9,0,2.85,0Z" transform="translate(0 -117.45)"/><path class="cls-1" d="M37.82,197.76a242.1,242.1,0,0,1-29.63-.13v-.86H37.82Z" transform="translate(0 -117.45)"/><path class="cls-1" d="M255,190.14c0-2.15,0-4.3,0-6.46,0-.59.12-1.3.93-1.3s1,.66,1,1.26q0,6.71,0,13.43c0,.61-.31,1.26-1.09,1.18s-.85-.78-.86-1.38C255,194.63,255,192.38,255,190.14Z" transform="translate(0 -117.45)"/><path class="cls-1" d="M269.57,190.2c0-2.07,0-4.14,0-6.21,0-.67,0-1.54.9-1.61s1.11.77,1.11,1.45q.06,6.46,0,12.93c0,.67-.17,1.52-1.08,1.49s-.92-.92-.93-1.58C269.55,194.51,269.57,192.36,269.57,190.2Z" transform="translate(0 -117.45)"/><path class="cls-1" d="M116.56,190.39c0,2.16,0,4.31,0,6.46,0,.69-.25,1.5-1.17,1.4-.73-.08-.82-.82-.82-1.43q0-6.47,0-12.92c0-.67,0-1.54,1-1.51s1,.86,1,1.54c0,2.15,0,4.31,0,6.46Z" transform="translate(0 -117.45)"/><path class="cls-1" d="M177.05,190.18c0,2.24,0,4.47,0,6.71,0,.57,0,1.34-.9,1.25-.63-.06-.71-.71-.71-1.22q0-6.57,0-13.15c0-.58,0-1.38.84-1.36s.89.93.9,1.58c0,2.07,0,4.13,0,6.19Z" transform="translate(0 -117.45)"/><path class="cls-1" d="M204.09,190.48c0,2.06,0,4.13,0,6.19,0,.58,0,1.37-.74,1.46s-.87-.71-.88-1.28q0-6.58,0-13.16c0-.51.08-1.16.72-1.2.85-.06.88.7.88,1.28C204.11,186,204.09,188.24,204.09,190.48Z" transform="translate(0 -117.45)"/></svg>