<svg id="Logos_Patrocinadores_Web" data-name="Logos Patrocinadores Web" xmlns="http://www.w3.org/2000/svg" viewBox="0 0 300 300"><defs><style>.cls-1{fill:#8f8fa3;}</style></defs><path class="cls-1" d="M-.09,167.79H43.76c0,1.3-.07,2.57,0,3.83a34.35,34.35,0,0,0,2.46,11.54,17.46,17.46,0,0,0,14.52,11.07,26.16,26.16,0,0,0,13.46-1.31,16.41,16.41,0,0,0,7.67-5.75,15.28,15.28,0,0,0,2.6-8,17,17,0,0,0-1.34-8.36c-1.7-3.67-4.72-5.74-8.45-6.94a28.91,28.91,0,0,0-8.56-1.27c-3.87,0-7.74,0-11.61,0H53.7V133.25h.72c6.07,0,12.15,0,18.23,0a21.25,21.25,0,0,0,7.8-1.38,10.16,10.16,0,0,0,6.65-8.55,16,16,0,0,0-.4-6.56c-1.14-4-4-6.43-7.78-7.76A25.81,25.81,0,0,0,71,107.64a32.35,32.35,0,0,0-10.46,1.1c-6.65,2-10.51,6.59-12,13.27-.29,1.29-.46,2.59-.68,3.92H6c0-1.2,0-2.4,0-3.59a58,58,0,0,1,2.38-14.21C12,96.64,19.23,88.21,29.66,82.41a63.67,63.67,0,0,1,19-6.66,108.38,108.38,0,0,1,25.24-1.63A84.29,84.29,0,0,1,97.8,78.21a50,50,0,0,1,17.74,10.08,45.27,45.27,0,0,1,12,18,32.82,32.82,0,0,0,1.28,3.17V76.75h63.18c.6,0,.83.15,1,.76q6.43,26.06,12.9,52.1,4.26,17.22,8.51,34.45a1.14,1.14,0,0,0,.28.56c.11-.38.23-.75.32-1.13q3.93-16.08,7.87-32.15,5.46-22.32,10.94-44.64c.76-3.1,1.52-6.2,2.26-9.31.11-.48.3-.64.81-.64h62.42c.21,0,.42,0,.66,0V227H257v-95.7l-.11,0q-12,47.85-23.8,95.74H195.47q-11.68-47.76-23.38-95.54l-.13,0V227H128.87V198.14l-.12,0c-.06.1-.14.19-.19.29-4.34,10.25-11.7,17.66-21.49,22.76a75,75,0,0,1-23.28,7.45,105.52,105.52,0,0,1-19.45,1.11,101,101,0,0,1-24.27-3.33A56.42,56.42,0,0,1,18.49,215.5,47.81,47.81,0,0,1,4,194a66.37,66.37,0,0,1-3.4-16C.28,174.56.13,171.22-.09,167.79Zm128.89-3.85V126.71A32.09,32.09,0,0,1,112,146.89C120.2,150.15,125.86,155.69,128.8,163.94Z"/></svg>