<?xml version="1.0" encoding="UTF-8"?> <svg xmlns="http://www.w3.org/2000/svg" id="Logos_Patrocinadores_Web" data-name="Logos Patrocinadores Web" viewBox="0 0 300 300"><defs><style>.cls-1{fill:#8f8fa3;}</style></defs><path class="cls-1" d="M0,186.87c3.81-7,7.64-14.06,11.43-21.11,5.19-9.62,10.53-19.16,15.46-28.91,5.4-10.68,13.86-15.89,25.77-15.64,2.62.05,5.24,0,8.1,0,.83,22,1.65,43.79,2.48,65.73H41.9l.5-11.09c-.48-.06-.88-.15-1.27-.16-4.43,0-8.85,0-13.28,0a1.9,1.9,0,0,0-2,1.32c-1.2,2.86-2.52,5.68-3.68,8.56a2.18,2.18,0,0,1-2.41,1.58c-5.92-.07-11.84,0-17.76,0-.65,0-1.31.07-2,.11Zm44.59-50.16-.41-.09L32.1,162.8h11Z"></path><path class="cls-1" d="M270.12,143.12c1.06-.92,2-1.77,2.94-2.55,6.31-5.11,13.42-5.92,20.94-3.55,3.84,1.2,5.34,3.28,4.94,7.29a98.86,98.86,0,0,1-2.35,12.61c-1.59,6.81-3.4,13.56-5.06,20.35a11.74,11.74,0,0,1-10.29,9.42c-3.38.52-6.9.1-10.55.1.08-.45.15-1,.29-1.57q3.82-15.47,7.67-30.95c.43-1.75,1.05-3.63-.52-5.06s-3.81-1.15-5.78-.55c-2.36.7-3.58,2.54-4.17,4.78-1.36,5.14-2.65,10.29-3.95,15.45-1.39,5.5-2.78,11-4.1,16.52a1.87,1.87,0,0,1-2.19,1.72c-5.49-.07-11,0-16.73,0,.21-1,.33-1.91.54-2.75q3.8-15.21,7.61-30.42a11.25,11.25,0,0,0,.36-2.29,3.05,3.05,0,0,0-2.7-3.27c-3.8-.82-7,1-8,5-2.21,8.31-4.27,16.66-6.38,25-.64,2.49-1.2,5-1.9,7.47-.14.48-.77,1.17-1.19,1.17-5.74.07-11.48,0-17.23,0-.09,0-.18-.12-.39-.26,1.57-6.32,3.14-12.68,4.73-19,2.35-9.39,4.78-18.75,7-28.16.46-1.92,1.22-2.45,3.12-2.39,4.72.14,9.45.05,14.18.05H243c-.42,1.89-.79,3.56-1.26,5.7.68-.62,1-.9,1.33-1.21,6.27-6.32,13.8-7,21.9-4.79C267.93,137.76,269.3,140.19,270.12,143.12Z"></path><path class="cls-1" d="M184.2,187.1l1.3-5.76a5.56,5.56,0,0,0-.71.48c-5.7,6.38-12.93,7.57-20.8,5.77-5.37-1.23-7.62-4.79-6.47-10.18,1.69-7.94,3.73-15.8,5.66-23.68,1.22-5,2.53-9.95,3.73-14.95.24-1,.56-1.57,1.73-1.56,5.44.05,10.88,0,16.32,0a7.9,7.9,0,0,1,.89.16c-1,3.93-1.9,7.8-2.86,11.66q-2.61,10.43-5.23,20.85c-.77,3.1-.42,4.81,1.15,5.66a6.75,6.75,0,0,0,7.53-1.66,9.74,9.74,0,0,0,1.7-3.5q4-15.6,7.89-31.25c.36-1.46.93-2,2.49-2,5.43.1,10.86,0,16.55,0-.3,1.39-.54,2.59-.83,3.77q-5.55,22.25-11.1,44.48c-.28,1.14-.68,1.67-2,1.65C195.58,187.05,190,187.1,184.2,187.1Z"></path><path class="cls-1" d="M123.7,176.09c-.89,3.59-1.68,6.9-2.54,10.18-.1.36-.61.87-.93.87-5.72,0-11.5.4-17.15-.28s-7.26-3.76-5.89-9.77c1.62-7.1,3.48-14.14,5.25-21.2q4.09-16.24,8.2-32.46c.12-.46.28-.91.44-1.43h18.51c-1.26,5-2.51,9.91-3.83,15.08h7.65l-1.69,7c-1.06,4.33-1.06,4.33-5.44,4.33h-3.39c-1.09,4.32-2.18,8.58-3.24,12.84-.86,3.41-1.69,6.83-2.53,10.25-.79,3.24.12,4.44,3.47,4.6C121.54,176.13,122.49,176.09,123.7,176.09Z"></path><path class="cls-1" d="M102.26,121.29,85.77,187H67.22c1.25-5.05,2.45-10,3.68-14.87C74.93,156,79,139.84,83,123.67c.44-1.81,1.07-2.51,3-2.44C91.33,121.4,96.65,121.29,102.26,121.29Z"></path><path class="cls-1" d="M146.41,187H127.87c1.6-6.45,3.16-12.76,4.73-19.06,2.38-9.56,4.8-19.11,7.12-28.69.37-1.55,1-2.07,2.63-2,5.37.12,10.75.05,16.53.05Z"></path></svg> 