<svg id="Logos_Patrocinadores_Web" data-name="Logos Patrocinadores Web" xmlns="http://www.w3.org/2000/svg" viewBox="0 0 300 300"><defs><style>.cls-1{fill:#8f8fa3;}</style></defs><path class="cls-1" d="M83.66,112.06v84.15H0V112.06ZM17.25,185.49l52.39-30.8L17.25,125.24Z"/><path class="cls-1" d="M165,149.32c-2.3,0-4.54,0-6.78,0-.24,0-.54-.32-.7-.57q-4.94-7.54-9.84-15.13L142,124.92c-.14-.22-.3-.44-.6-.87v25.23h-7.53V111.74c.24,0,.5,0,.76,0,2.05,0,4.11,0,6.16,0a1.26,1.26,0,0,1,1.24.69q7.35,11.66,14.76,23.29a2,2,0,0,0,.59.66V111.75H165Z"/><path class="cls-1" d="M97.44,195.34V157.9a1.73,1.73,0,0,1,.33-.08c4.9,0,9.8-.1,14.7,0,7.15.19,12.21,3.69,15,10.25a23.19,23.19,0,0,1,.25,17.7c-2,5.22-6,8.15-11.42,9.16a23.18,23.18,0,0,1-4.08.36c-4.6,0-9.2,0-13.8,0Zm7.93-5.92c2.57,0,5.06.11,7.54,0a7.69,7.69,0,0,0,7.33-5.49,18.59,18.59,0,0,0-.62-14.23,8.62,8.62,0,0,0-7.37-5.39c-1.9-.15-3.83,0-5.74-.07h-1.14Z"/><path class="cls-1" d="M291.5,135.23h-8.8v-5.77H298v18.92h-5.88V145a4.63,4.63,0,0,0-.61.49c-5.57,6-13.65,5.32-19,2.19-4.57-2.69-7.09-6.88-8.16-12a21.68,21.68,0,0,1,2.81-16.55c5.09-8.08,17.56-11.19,25.91-3.34a12.75,12.75,0,0,1,3.93,6.87c0,.19.06.38.09.57s0,.22,0,.43c-1.62,0-3.23-.08-4.83,0a2.19,2.19,0,0,1-2.33-1.25,9.61,9.61,0,0,0-5.57-4.7,9.45,9.45,0,0,0-10.81,4.08,15.91,15.91,0,0,0-.67,16.71c3.48,6.55,11.7,7.25,16.65,1.6.47-.54.85-1.15,1.3-1.69A3.82,3.82,0,0,0,291.5,135.23Z"/><path class="cls-1" d="M226.53,131.16c.14-5.89,1.67-10.89,5.55-15a15.85,15.85,0,0,1,10.36-4.94c5.42-.5,10.22.88,14.05,4.91a19.39,19.39,0,0,1,4.9,10A22.77,22.77,0,0,1,259.91,140c-3.32,7.37-9.93,10.52-17.44,9.88-9.33-.8-14.57-7.79-15.67-15.73C226.65,133,226.6,131.91,226.53,131.16Zm28-.39a16.48,16.48,0,0,0-1.58-7.4c-1.63-3.32-4.16-5.5-8-5.77a8.79,8.79,0,0,0-8.82,4.87,16.28,16.28,0,0,0-.19,16.18,9.26,9.26,0,0,0,16.12.67A15.35,15.35,0,0,0,254.49,130.77Z"/><path class="cls-1" d="M139.45,164.09v8h17.7v6.85H139.6v10h20.49v6.39H131.9V157.87h27.61v6.22Z"/><path class="cls-1" d="M268.18,157.85v6.8H248.81v7.65h17.06v6.78h-17v9.81H269v6.39H241.58V157.85Z"/><path class="cls-1" d="M269.4,184.15h7.14c.78,4.65,4.29,7.06,9.22,6.34a11.37,11.37,0,0,0,4.5-1.43,4.22,4.22,0,0,0,2.24-3.85,3.93,3.93,0,0,0-2.61-3.83,43.26,43.26,0,0,0-5.52-1.51,38.78,38.78,0,0,1-9.06-2.78c-6.17-3.08-7.36-10.37-2.54-15.37a14.36,14.36,0,0,1,8.3-4.1,20.55,20.55,0,0,1,10.06.57,10.73,10.73,0,0,1,7.47,9.73c0,.13,0,.27,0,.52h-2c-1.42,0-2.85,0-4.27,0a.72.72,0,0,1-.86-.62c-.91-3.12-2.75-4.55-6-4.73a11.23,11.23,0,0,0-5.9,1.09,3.87,3.87,0,0,0-.47,6.79,13.41,13.41,0,0,0,5.22,1.83c3,.63,6,1.15,8.85,2,3.05.92,5.56,2.74,6.37,6,1.28,5.16-.29,9.9-4.93,12.93a15.34,15.34,0,0,1-7.08,2.4c-4,.35-7.95.12-11.6-1.78C271.86,192.29,269.78,188.8,269.4,184.15Z"/><path class="cls-1" d="M132.39,149.32c-2.49,0-4.9,0-7.3,0-.21,0-.52-.34-.61-.59-.82-2.31-1.63-4.64-2.39-7a.94.94,0,0,0-1-.75q-6.12,0-12.25,0a.87.87,0,0,0-1,.78c-.66,2.31-1.37,4.61-2.1,6.9-.08.26-.41.63-.63.63-2.33.05-4.65,0-7.09,0,.13-.44.23-.82.35-1.18q6-17.8,12-35.6a1,1,0,0,1,1.2-.86c2,0,4.06,0,6.08,0a.85.85,0,0,1,1,.66q6.8,18.1,13.63,36.22A7.77,7.77,0,0,1,132.39,149.32Zm-17.91-29.58c-.14.44-.22.67-.3.91-1.13,3.7-2.29,7.4-3.4,11.11-.37,1.24-.59,2.53-.89,3.85h9.53A18.5,18.5,0,0,0,119,133c-.5-1.68-1.11-3.31-1.68-5C116.42,125.35,115.49,122.64,114.48,119.74Z"/><path class="cls-1" d="M240.13,170.25c-1.87,0-3.65-.1-5.41,0a2.79,2.79,0,0,1-3.09-1.67,14.49,14.49,0,0,0-2.67-3.3c-3.68-3.68-8.36-2.21-10.71.4a13.39,13.39,0,0,0-3.18,7,19.26,19.26,0,0,0,1.74,12.53,9.34,9.34,0,0,0,4.36,4.31,7.87,7.87,0,0,0,10.36-3.29c.47-.8.77-1.69,1.19-2.52.1-.2.34-.47.53-.48,2.24,0,4.49,0,6.73,0,.05,0,.09.05.2.13a13.92,13.92,0,0,1-2.61,6.67A14.8,14.8,0,0,1,227.41,196a16.87,16.87,0,0,1-9.83-.86,16.45,16.45,0,0,1-8.44-8.9c-2.87-6.6-3.26-13.33-.23-20,2.54-5.56,7.08-8.45,13.17-8.88a18.69,18.69,0,0,1,9.08,1.35c4.55,2,7.15,5.68,8.61,10.29C239.88,169.35,240,169.72,240.13,170.25Z"/><path class="cls-1" d="M201.15,149.32c-2.5,0-4.91,0-7.31,0-.23,0-.55-.38-.65-.65q-1.23-3.44-2.37-6.9a.92.92,0,0,0-1-.76q-6.12,0-12.24,0a.87.87,0,0,0-1,.75c-.66,2.34-1.37,4.67-2.1,7-.08.24-.4.57-.6.58-2.33,0-4.65,0-7.07,0a5.12,5.12,0,0,1,.17-.72q6.09-18.15,12.19-36.28a.75.75,0,0,1,.85-.64c2.14,0,4.27,0,6.41,0a.74.74,0,0,1,.84.55q6.9,18.33,13.81,36.66C201.06,149,201.08,149.1,201.15,149.32Zm-12.84-13.71a19,19,0,0,0-.39-2.28c-.42-1.42-.93-2.8-1.4-4.2-1-3.13-2.09-6.26-3.2-9.55-.17.43-.28.7-.37,1-1.38,4.09-2.78,8.17-4.11,12.28a15.84,15.84,0,0,0-.37,2.77Z"/><path class="cls-1" d="M177.91,185.2l3.37-11.14c1.54-5.12,3.1-10.25,4.62-15.39a.88.88,0,0,1,1-.76c2.18,0,4.37,0,6.77,0a15.62,15.62,0,0,1-.39,2.64c-3.81,11.31-7.67,22.62-11.49,33.93-.2.59-.44.82-1.08.81-1.89-.05-3.78,0-5.67,0a.86.86,0,0,1-1-.67c-4-11.41-8-22.81-11.92-34.22a13.41,13.41,0,0,1-.31-2.58h4.26c.85,0,1.7.05,2.54,0,.68-.06,1,.2,1.14.83q3.18,10.47,6.41,20.93C176.73,181.36,177.29,183.16,177.91,185.2Z"/><path class="cls-1" d="M202.78,111.73h7.41v31.15h16.75v6.38H202.78Z"/><path class="cls-1" d="M195.91,158h7.9v37.29h-7.9Z"/></svg>