<?xml version="1.0" encoding="UTF-8"?> <svg xmlns="http://www.w3.org/2000/svg" id="Logos_Patrocinadores_Web" data-name="Logos Patrocinadores Web" viewBox="0 0 300 300"><defs><style>.cls-1{fill:#8f8fa3;}</style></defs><path class="cls-1" d="M0,186.46c.67-1.8,1.33-3.58,2-5.36q3.31-8.86,6.64-17.73,3.72-9.87,7.44-19.73,4.44-11.82,8.85-23.64c.36-1,.75-1.93,1.09-2.91.09-.25.2-.34.45-.32h.32q10.59,0,21.19,0a.78.78,0,0,1,.88.63c1.29,3.51,2.63,7,4,10.53q4.5,12,9,24c2,5.23,3.94,10.45,5.9,15.67,1.22,3.23,2.42,6.47,3.63,9.7.68,1.83,1.37,3.65,2.18,5.48V117.49c0-.82-.12-.71.69-.71,4.35,0,8.7,0,13.05,0H98.71a.71.71,0,0,1,.81.48c1.7,4.07,3.44,8.12,5.18,12.17l5,11.7,6.66,15.58,4,9.25.89,2.09a1,1,0,0,0,.4.6V117.55a3.2,3.2,0,0,0,0-.44c0-.25.07-.36.32-.34a1.74,1.74,0,0,0,.32,0H137.6c.72,0,.64-.08.64.64v68.41c0,.78.08.69-.66.69q-12.12,0-24.24,0a.81.81,0,0,1-.88-.59q-2.65-6.39-5.37-12.77-3.16-7.51-6.32-15t-6.28-14.87q-2.08-4.95-4.16-9.92c0-.06,0-.11-.14-.1a1.34,1.34,0,0,0,0,.66v51.74c0,.17,0,.34,0,.51s-.06.4-.35.37-.3,0-.45,0H54.79c-.86,0-.85,0-1.1-.82q-3.31-10.56-6.62-21.12l-5.61-17.87Q39,139,36.62,131.34c-.06-.19-.12-.38-.22-.67a19.39,19.39,0,0,0-.87,2.52q-2,6.06-3.89,12.11-2.61,8.12-5.22,16.26-2.88,9-5.78,18c-.69,2.17-1.4,4.33-2.09,6.5-.09.3-.17.47-.53.47q-9,0-17.89,0l-.13,0"></path><path class="cls-1" d="M167.79,187.94a31.39,31.39,0,0,1-11.17-2.17,26.85,26.85,0,0,0-4.48-1.34,3.19,3.19,0,0,0-3.8,2.59,4.26,4.26,0,0,0-.1.49c0,.25-.12.33-.36.32-.53,0-1.06,0-1.59,0-.27,0-.35-.12-.38-.37-.24-1.74-.5-3.47-.75-5.2q-.43-3-.86-6c-.32-2.26-.62-4.52-.94-6.78-.14-1-.3-2.09-.46-3.13-.11-.7-.11-.71.6-.71h.5c1.23,0,1.23,0,1.66,1.11a37.08,37.08,0,0,0,5.27,9.47,21.13,21.13,0,0,0,7.11,6,18.76,18.76,0,0,0,6.78,1.9,15.64,15.64,0,0,0,7-.81,11.1,11.1,0,0,0,6-5.14,12.77,12.77,0,0,0,1.41-7.14c-.2-3.64-2.09-6.3-4.65-8.61a49.74,49.74,0,0,0-6.06-4.56c-3-2-6.2-3.77-9.3-5.65a37.76,37.76,0,0,1-9-6.95,16.3,16.3,0,0,1-3.86-7.43,21.55,21.55,0,0,1-.28-6.94A16.22,16.22,0,0,1,154,118.53a21.14,21.14,0,0,1,9.16-2.82,23.44,23.44,0,0,1,9.32,1.39c1.78.58,3.51,1.3,5.3,1.84a4.7,4.7,0,0,0,2.87.08,3.47,3.47,0,0,0,2.19-2.53,1.87,1.87,0,0,0,0-.25c.06-.45.25-.72.78-.61a3.84,3.84,0,0,0,.76,0c.79,0,.79,0,.87.76.29,2.82.59,5.63.88,8.44.23,2.32.44,4.63.68,6.94.18,1.79.39,3.57.59,5.35,0,.13,0,.26,0,.38.05.3,0,.43-.36.42a14.1,14.1,0,0,0-1.72,0c-.41,0-.51-.18-.58-.49a24.84,24.84,0,0,0-2.57-6.78,20.63,20.63,0,0,0-9.7-9.3,16.75,16.75,0,0,0-8.55-1.37,10.33,10.33,0,0,0-6.62,3.14,9,9,0,0,0-2.46,5.62,10.76,10.76,0,0,0,2.76,8,29.66,29.66,0,0,0,6.64,5.54c2.68,1.76,5.48,3.33,8.24,5a68.25,68.25,0,0,1,9.3,6.32,23.49,23.49,0,0,1,6.18,7.54,17.12,17.12,0,0,1,1.71,9.48,17.93,17.93,0,0,1-6.29,12.05,21,21,0,0,1-10,4.73,26.4,26.4,0,0,1-5.61.52"></path><path class="cls-1" d="M278.21,187.94a29,29,0,0,1-9.14-1.43c-1.87-.58-3.68-1.34-5.57-1.84a5.56,5.56,0,0,0-2.25-.27,3.24,3.24,0,0,0-2.76,3c-.07.4-.21.47-.56.46s-.94,0-1.4,0c-.26,0-.36-.08-.4-.35-.28-2.11-.59-4.22-.89-6.33l-1-6.7q-.41-3-.82-5.89c-.11-.78-.22-1.55-.34-2.32-.1-.59-.1-.59.52-.6a9.59,9.59,0,0,0,1.2,0c.48,0,.66.18.82.58a42,42,0,0,0,4.41,8.53,21.85,21.85,0,0,0,9,7.85,18.17,18.17,0,0,0,5.78,1.52,16,16,0,0,0,5.85-.38,11.09,11.09,0,0,0,8.53-9,12.17,12.17,0,0,0-.93-7.92,14.65,14.65,0,0,0-3.63-4.44,56,56,0,0,0-6.77-5c-2.25-1.44-4.55-2.82-6.87-4.16a54.56,54.56,0,0,1-8.32-5.64,17.61,17.61,0,0,1-6.11-9.46,21,21,0,0,1-.36-7.06,16.63,16.63,0,0,1,1.7-5.86,16,16,0,0,1,5.77-6.34A20.15,20.15,0,0,1,271,116a23.32,23.32,0,0,1,3.53-.35,22,22,0,0,1,6.73,1c2.29.66,4.47,1.63,6.75,2.3a5.06,5.06,0,0,0,2.38.18,3.28,3.28,0,0,0,2.5-2.27,1.29,1.29,0,0,0,0-.19c.1-.33.11-.84.33-1a2.85,2.85,0,0,1,1.18-.07.56.56,0,0,1,.13,0c.83,0,.8,0,.89.86.18,1.9.39,3.78.59,5.67.14,1.37.27,2.74.42,4.1.19,1.91.41,3.82.6,5.73.15,1.43.28,2.86.42,4.29,0,.42.08.84.13,1.26,0,.27-.07.38-.35.38a15.32,15.32,0,0,0-1.66,0c-.43,0-.59-.14-.68-.53a21.52,21.52,0,0,0-1.31-4.15,25.16,25.16,0,0,0-3.94-6.53,19.56,19.56,0,0,0-6.35-5,16.59,16.59,0,0,0-9.05-1.68,10.4,10.4,0,0,0-6.56,2.93,9,9,0,0,0-2.68,6.12,10.77,10.77,0,0,0,2.79,7.78,30.28,30.28,0,0,0,7.19,5.87c4.18,2.67,8.57,5,12.69,7.73a40.32,40.32,0,0,1,6.89,5.66,18.43,18.43,0,0,1,5.13,9.9,17.61,17.61,0,0,1-1.22,10,18.92,18.92,0,0,1-9.67,9.76,23.19,23.19,0,0,1-7,1.95,28.47,28.47,0,0,1-3.68.24"></path><path class="cls-1" d="M223.84,186.51H208.57c-.75,0-.71.09-.69-.67,0-.43-.2-1,.11-1.27s.81-.07,1.23-.09a22.21,22.21,0,0,0,5.06-.71,5.17,5.17,0,0,0,3.93-4.81,34.21,34.21,0,0,0,.22-4.3q0-9.16,0-18.32a2,2,0,0,0-.39-1.23c-2-3-4.06-6-6.09-8.94q-3.94-5.82-7.91-11.61c-2-2.89-4-5.78-6.12-8.54a41.18,41.18,0,0,0-3.57-4.12,8.53,8.53,0,0,0-5.76-2.71h-.06c-.76-.11-.76-.11-.76-.88,0-1.16,0-1.16,1.16-1.16h27.42c.8,0,.7-.08.71.71,0,1.19,0,1.16-1.15,1.26a24.64,24.64,0,0,0-4,.47,2.74,2.74,0,0,0-2.19,3.62,11.44,11.44,0,0,0,1.71,3.72c3.62,5.42,7.25,10.83,10.85,16.28,1.4,2.13,2.82,4.25,4.23,6.38.35.54.42.53.75,0l4.31-6.85,6.12-9.68c1.59-2.54,3.24-5,4.76-7.61a5.39,5.39,0,0,0,.86-3.07,2.7,2.7,0,0,0-1.4-2.33,6.58,6.58,0,0,0-2.83-.83,17,17,0,0,0-2.47-.13c-.35,0-.47-.09-.48-.46,0-1.48-.06-1.48,1.42-1.48h20.74c.76,0,.69-.08.68.68,0,.39.17.88-.07,1.17s-.75.18-1.14.23a11.72,11.72,0,0,0-6.72,3.52,37.62,37.62,0,0,0-5.11,6.28c-3.28,4.94-6.52,9.9-9.77,14.85-2.09,3.18-4.16,6.36-6.24,9.54-.23.35-.44.72-.67,1.07a1.09,1.09,0,0,0-.19.66c0,7.23,0,14.46,0,21.69a12.44,12.44,0,0,0,.53,3.62,4.91,4.91,0,0,0,3.68,3.39,21.33,21.33,0,0,0,5.9.65c.65,0,.66,0,.65.64,0,.44.19,1-.09,1.29s-.85.09-1.29.09c-4.87,0-9.75,0-14.63,0"></path></svg> 