<?xml version="1.0" encoding="UTF-8"?> <svg xmlns="http://www.w3.org/2000/svg" id="Logos_Patrocinadores_Web" data-name="Logos Patrocinadores Web" viewBox="0 0 300 300"><defs><style>.cls-1{fill:#8f8fa3;}</style></defs><path class="cls-1" d="M57.3,131.57H61c10.07,0,17.18,6.08,17.18,16.87,0,11.75-8,16.87-17.34,16.87H57.3Zm-15.66,47H63.85c16.71,0,30.62-13.2,30.62-30.14S80.64,118.3,63.85,118.3H41.64Z"></path><path class="cls-1" d="M143.08,137.57H128.53v4c-3-3.6-8-5.35-12.71-5.35-12.15,0-20.54,10.07-20.54,21.82s8.55,21.9,20.7,21.9c4.8,0,9.84-1.84,12.39-5.91h.16v4.56h14.55Zm-23.42,11.27a8.91,8.91,0,0,1,9.35,9.27c0,5.2-3.44,9.19-9.35,9.19s-9.36-4-9.36-9.19A8.91,8.91,0,0,1,119.66,148.84Z"></path><path class="cls-1" d="M179.12,138.6a19.94,19.94,0,0,0-9.59-2.39c-12.87,0-22.94,9.11-22.94,22.3,0,12.39,10.15,21.42,22.31,21.42a22.65,22.65,0,0,0,10.22-2.32v-12.3a11.18,11.18,0,0,1-7.27,2.79c-6,0-10.23-4.15-10.23-10.07a9.84,9.84,0,0,1,10-10,12.81,12.81,0,0,1,7.51,2.88Z"></path><path class="cls-1" d="M216.93,138.84a32.73,32.73,0,0,0-13.51-2.63c-8.94,0-18.06,4.48-18.06,14.55,0,7.35,4.55,9.59,9.12,10.79s9.1,1.36,9.1,4.55c0,2.24-2.71,3.12-4.55,3.12-3.59,0-8.56-2.08-11.51-4.15l-5.28,10.15a31.87,31.87,0,0,0,16.55,4.71c9.51,0,19.34-4.48,19.34-15.27,0-7.59-5.11-10.78-11.91-12.14-2-.4-6.56-.8-6.56-3.6,0-2.08,2.88-2.8,4.57-2.8a18.08,18.08,0,0,1,7.83,2Z"></path><path class="cls-1" d="M267.61,137.57H253.06v4c-3-3.6-8-5.35-12.72-5.35-12.14,0-20.53,10.07-20.53,21.82s8.55,21.9,20.7,21.9c4.79,0,9.84-1.84,12.39-5.91h.16v4.56h14.55Zm-23.42,11.27a8.9,8.9,0,0,1,9.34,9.27c0,5.2-3.43,9.19-9.34,9.19s-9.36-4-9.36-9.19A8.91,8.91,0,0,1,244.19,148.84Z"></path><path class="cls-1" d="M61,132.73H58.46v31.41h2.36c8.87,0,16.18-4.74,16.18-15.7C77,138.35,70.48,132.73,61,132.73Zm0-2.32c10.65,0,18.35,6.54,18.35,18,0,12.54-8.67,18-18.51,18H56.14V130.41Zm2.87,49.33H40.47v-62.6H63.85c17.41,0,31.79,13.68,31.79,31.3S81.18,179.74,63.85,179.74Zm0-2.33a29.15,29.15,0,0,0,29.46-29c0-16.28-13.28-29-29.46-29H42.79v57.94Z"></path><path class="cls-1" d="M127.37,177A16.85,16.85,0,0,1,116,181.1c-12.89,0-21.86-10.77-21.86-23.07s8.8-23,21.7-23a18.86,18.86,0,0,1,11.55,3.78V136.4h16.87v43.34H127.37Zm2.32-38.31v6c-4-4.68-7.31-7.37-13.87-7.37-11.4,0-19.38,9.44-19.38,20.66s8.13,20.74,19.54,20.74c4.79,0,9.12-1.72,11.75-5.91h2v4.55h12.23V138.73Zm-1.84,19.38a8.19,8.19,0,0,0-16.38,0c0,4.59,3,8,8.19,8S127.85,162.7,127.85,158.11Zm2.32,0c0,5.8-3.93,10.36-10.51,10.36s-10.51-4.56-10.51-10.36a10.51,10.51,0,0,1,21,0Z"></path><path class="cls-1" d="M169.53,135.05a21.31,21.31,0,0,1,10.76,2.87v15.31c-2.6-1.93-5.23-4-8.68-4a8.69,8.69,0,0,0-8.83,8.83c0,5.25,3.69,8.91,9.07,8.91,3.78,0,5.87-1.92,8.44-4.28v15.67a24.2,24.2,0,0,1-11.39,2.77c-12.72,0-23.47-9.49-23.47-22.59C145.43,144.62,156.08,135.05,169.53,135.05Zm0,2.32c-12.28,0-21.78,8.65-21.78,21.14,0,11.68,9.56,20.26,21.15,20.26a21.94,21.94,0,0,0,9.06-1.89v-9.3a12.33,12.33,0,0,1-6.11,1.68c-6.62,0-11.39-4.65-11.39-11.23a11,11,0,0,1,11.15-11.16,12.63,12.63,0,0,1,6.35,1.89v-9.45A18.9,18.9,0,0,0,169.53,137.37Z"></path><path class="cls-1" d="M203.42,135.05a34,34,0,0,1,15.11,3.24l-6,11.41a17.54,17.54,0,0,0-8.31-2.42c-.88,0-3.41.39-3.41,1.64,0,3.76,18.47.38,18.47,15.74,0,11.81-10.8,16.44-20.5,16.44-6.74,0-12.39-2-18.08-5.46l6.39-12.29c3.23,2.27,7.85,4.71,11.93,4.71,1.9,0,3.39-.89,3.39-2,0-4.55-18.22-.12-18.22-15.34C184.2,139.69,194.24,135.05,203.42,135.05Zm0,2.32c-8.73,0-16.9,4.31-16.9,13.39,0,14,18.23,7.31,18.23,15.34,0,3.41-3.94,4.29-5.72,4.29-3.48,0-8-1.75-11.08-3.65l-4.17,8a30.72,30.72,0,0,0,15,4c9.32,0,18.18-4.32,18.18-14.11,0-8.26-6.34-10.08-12.84-11.34-2.31-.45-5.63-1.39-5.63-4.4s3.42-4,5.73-4a19.39,19.39,0,0,1,7.32,1.62l3.76-7.16A32.14,32.14,0,0,0,203.42,137.37Z"></path><path class="cls-1" d="M251.89,177a16.82,16.82,0,0,1-11.38,4.06c-12.89,0-21.87-10.77-21.87-23.07s8.81-23,21.7-23a18.82,18.82,0,0,1,11.55,3.78V136.4h16.87v43.34H251.89Zm2.33-38.31v6c-3.95-4.68-7.31-7.37-13.88-7.37C229,137.37,221,146.81,221,158s8.13,20.74,19.54,20.74c4.79,0,9.11-1.72,11.75-5.91h2v4.55h12.23V138.73Zm-1.84,19.38a8.2,8.2,0,0,0-16.39,0c0,4.59,2.95,8,8.2,8S252.38,162.7,252.38,158.11Zm2.32,0c0,5.8-3.92,10.36-10.51,10.36s-10.52-4.56-10.52-10.36a10.52,10.52,0,0,1,21,0Z"></path><path class="cls-1" d="M214.88,84.3c.25,1.28.49,2.56.71,3.85,44.07,12.47,73.53,37.06,73.53,64.56,0,39.6-61.1,73.2-139,73.2s-139-33.6-139-73.2c0-29.08,33-54.92,81.29-66.6.44-1.3.88-2.61,1.31-3.92C43.51,93.82,7.64,120.59,7.64,152.71c0,43.21,64.91,76.74,142.5,76.74s142.54-33.53,142.54-76.74C292.68,122.39,260.73,96.85,214.88,84.3Z"></path><path class="cls-1" d="M212.82,76c.21.69.42,1.39.61,2.08,50.24,13.32,84.68,41.93,84.68,74.64,0,45.2-65.77,82.6-148.12,82.6s-148.1-37.4-148.1-82.6c0-34.68,38.73-64.76,94-76.88.22-.68.43-1.36.64-2C40.29,85.87,0,116.41,0,152.71c0,47.07,67.7,84.47,150,84.47s150-37.4,150-84.47C300,118.45,264.1,89.31,212.82,76Z"></path><path class="cls-1" d="M111.71,79.52H106.1l2.78-8.79H109ZM113.53,85l1.69,4.81h7.2l-9.78-27.63h-7.37l-10,27.63h7.17L104.23,85Z"></path><path class="cls-1" d="M128.51,67.68h.65c2.21,0,4.69.45,4.69,3.44s-2.48,3.45-4.69,3.45h-.65Zm6.68,10.81c3.69-.69,5.68-4,5.68-7.8,0-5.9-3.89-8.5-9-8.5H121.76V89.82h6.75V79.19h.07L135,89.82h8.4Z"></path><path class="cls-1" d="M149.17,67.68h.65c2.2,0,4.68.45,4.68,3.45s-2.48,3.44-4.68,3.44h-.65Zm6.68,10.81c3.68-.69,5.68-4,5.68-7.8,0-5.9-3.88-8.5-9-8.5h-10.1V89.82h6.75V79.19h.06l6.38,10.63H164Z"></path><path class="cls-1" d="M176.13,68.23a7.48,7.48,0,0,1,7.34,7.3c0,4.76-3.31,8.24-7.34,8.24s-7.33-3.48-7.33-8.24A7.47,7.47,0,0,1,176.13,68.23Zm0-7a14.26,14.26,0,0,0-14.36,14.21c0,9,6,15.25,14.36,15.25s14.37-6.3,14.37-15.24A14.27,14.27,0,0,0,176.13,61.27Z"></path><polygon class="cls-1" points="200.41 83.74 212.64 62.19 191.14 62.19 191.14 68.27 201.34 68.27 189.04 89.82 211.29 89.82 211.29 83.74 200.41 83.74"></polygon></svg> 