<svg id="Logos_Patrocinadores_Web" data-name="Logos Patrocinadores Web" xmlns="http://www.w3.org/2000/svg" width="300" height="300" viewBox="0 0 300 300"><defs><style>.cls-1{fill:#8f8fa3;}</style></defs><path class="cls-1" d="M150,32.36a118.94,118.94,0,0,0-24.7,235.28c4-26.11,12.77-78.59-30.17-103.74C52,138.64,53.46,117.35,53.28,114.83s1.08-8.66,6.85-4.51c15.15,14.25,17.86,14.25,48,14.61s39.5,21.11,41,21.65,2,1.26,7.92-6.5c9.54-11.16,17-13.82,35.22-14.59l.27,0c41.11-.88,41.18-9.92,42.8-12.45,3.62-5.61,7.58-6.85,10.53-2.06,4.78,20.5-8.81,31.11-50.17,59.66-39.73,27.42-22.38,92-20.95,97A118.94,118.94,0,0,0,150,32.36Z"/></svg>