<svg id="Logos_Patrocinadores_Web" data-name="Logos Patrocinadores Web" xmlns="http://www.w3.org/2000/svg" width="300" height="300" viewBox="0 0 300 300"><defs><style>.cls-1{fill:#8f8fa3;}</style></defs><path class="cls-1" d="M61.21,118.73H16.72a7.53,7.53,0,0,0-7.53,7.53V173.5A7.77,7.77,0,0,0,17,181.27h31.1l6.75-6.76H25.7l7.14-7.14H13.14Z"/><polygon class="cls-1" points="71.38 118.73 81.36 128.71 63.37 146.71 82.62 146.71 62.11 167.22 42.92 167.22 49.94 160.19 30 160.19 71.38 118.73"/><path class="cls-1" d="M92.54,146.47,58.16,180.85H85.61l6.78-6.78H78.67S93.74,163.81,92.54,146.47Z"/><path class="cls-1" d="M106.47,126a47.71,47.71,0,0,1,10.28-.93c4.79,0,9.19.72,12.36,3.37a10.66,10.66,0,0,1,3.71,8.59c0,4.51-2.63,8.59-7.73,10.59v.22c6,1.57,9.43,6.08,9.43,11.88a12.94,12.94,0,0,1-3.79,9.52c-3,3.08-8.11,4.65-15.6,4.65a62.56,62.56,0,0,1-8.66-.5Zm8.19,19.4h2.47a7.42,7.42,0,0,0,7.58-7.51c0-4-2-7-7.11-7a10.57,10.57,0,0,0-2.94.29Zm0,22.34a13.55,13.55,0,0,0,2.63.21c5,0,8.73-2.79,8.73-8.3,0-5.66-4.25-8.45-9-8.52h-2.4Z"/><path class="cls-1" d="M159.78,151.56H147.42v15.32h14.06v6.66H139.15V125.29h21.4v6.65H147.42v13.25h12.36Z"/><path class="cls-1" d="M165.88,173.54V125.29h7.65l8.73,20.61c1.78,4.37,4.4,10.6,6,15.25h.15c-.38-6.15-.85-13.6-.85-22.26v-13.6h7.26v48.25h-7.64L178.4,153a151.36,151.36,0,0,1-5.64-15.32h-.16c.31,5.58.62,12.39.62,22.41v13.46Z"/><path class="cls-1" d="M201.65,126a42.23,42.23,0,0,1,9.27-.93c6,0,10.36,1.36,13.45,4,4.25,3.51,6.87,9.81,6.87,19.47,0,10.38-2.78,16.83-6.8,20.41-3.47,3.29-8.49,4.93-15.22,4.93a66.8,66.8,0,0,1-7.57-.5Zm8.19,41.45a10.51,10.51,0,0,0,2,.14c5.64,0,10.89-4.43,10.89-19.11,0-10.95-3.4-17.25-10.5-17.25a12.69,12.69,0,0,0-2.4.21Z"/><path class="cls-1" d="M256.27,151.56H243.91v15.32H258v6.66H235.64V125.29h21.41v6.65H243.91v13.25h12.36Z"/><path class="cls-1" d="M262.38,126a48,48,0,0,1,10-.93c5.33,0,9.81.86,12.9,3.51,2.86,2.58,3.94,5.8,3.94,9.81A12.67,12.67,0,0,1,281,150.56v.14c3.63,1.22,5.56,4.44,6.56,10.17,1.16,5.87,2.4,11,3.25,12.67h-8.58c-.69-1.36-1.78-6.09-2.7-11.74-1-6.23-2.94-8.31-7-8.31h-1.94v20h-8.18Zm8.18,21.62h2.17c4.94,0,8-3.58,8-8.52,0-4.72-2-7.94-7.41-8a10.91,10.91,0,0,0-2.79.28Z"/></svg>