<svg id="Logos_Patrocinadores_Web" data-name="Logos Patrocinadores Web" xmlns="http://www.w3.org/2000/svg" viewBox="0 0 300 300"><defs><style>.cls-1{fill:#8f8fa3;}</style></defs><path class="cls-1" d="M60.07,142.24H52.74c-1.55,0-2.58.33-3.12,1a4.84,4.84,0,0,0-.8,3.09v2.2a5.33,5.33,0,0,0,.71,3.2,3.61,3.61,0,0,0,2.87.89h8a3.59,3.59,0,0,0,2.86-.89,5.25,5.25,0,0,0,.72-3.2v-2.2a4.91,4.91,0,0,0-.8-3.09C62.65,142.57,61.61,142.24,60.07,142.24Zm32.27.48a4.19,4.19,0,0,0-2.23-.43H80.33v5H90.68a2.54,2.54,0,0,0,1.78-.51,2.2,2.2,0,0,0,.53-1.64v-.67A1.89,1.89,0,0,0,92.34,142.72ZM32.2,149.91a3.09,3.09,0,0,0-1.69-.37H19.28v3.19H30.51a3.47,3.47,0,0,0,1.68-.33,1.22,1.22,0,0,0,.58-1.17A1.44,1.44,0,0,0,32.2,149.91Zm-.46-5a1.45,1.45,0,0,0,.46-1.21,1.52,1.52,0,0,0-.46-1.23,2.17,2.17,0,0,0-1.37-.38H19.28v3.19H30.37A2.17,2.17,0,0,0,31.74,144.94Zm89.72-2.22a4.24,4.24,0,0,0-2.23-.43h-9.79v5h10.35a2.54,2.54,0,0,0,1.78-.51,2.16,2.16,0,0,0,.53-1.64v-.67A1.91,1.91,0,0,0,121.46,142.72Zm145.45,8.48h14.21L274,139.05ZM0,119.12V176H300V119.12Zm38.75,35.81a3.78,3.78,0,0,1-1.29,1.65,5.22,5.22,0,0,1-1.94.82,12.31,12.31,0,0,1-2.56.24H13V137.21H31q3.87,0,5.65,1.22t1.77,4.14a8.87,8.87,0,0,1-.21,2.11,3.52,3.52,0,0,1-.6,1.32,2.88,2.88,0,0,1-.92.76,7.41,7.41,0,0,1-1.29.5v.08a4.1,4.1,0,0,1,2.9,1.4,5.79,5.79,0,0,1,.86,3.48A7,7,0,0,1,38.75,154.93Zm31.67-4.46a9.53,9.53,0,0,1-.59,3.64,5,5,0,0,1-1.75,2.26,7.28,7.28,0,0,1-2.78,1.15,18.86,18.86,0,0,1-3.87.34h-10a19,19,0,0,1-3.88-.34,7.18,7.18,0,0,1-2.76-1.14A5,5,0,0,1,43,154.12a9.55,9.55,0,0,1-.61-3.65v-6.09a9.59,9.59,0,0,1,.61-3.65,5.1,5.1,0,0,1,1.75-2.27,7,7,0,0,1,2.76-1.15,20.72,20.72,0,0,1,3.88-.32h10a18.86,18.86,0,0,1,3.87.34,7.27,7.27,0,0,1,2.78,1.14,4.93,4.93,0,0,1,1.75,2.26,9.62,9.62,0,0,1,.59,3.65Zm28.67-5.89a6.49,6.49,0,0,1-.72,3.37,4.2,4.2,0,0,1-2.78,1.65v.05a6.82,6.82,0,0,1,1.38.41,3.41,3.41,0,0,1,1.06.75,3.22,3.22,0,0,1,.72,1.31,7.13,7.13,0,0,1,.25,2v3.47H92.74v-2.46a3.47,3.47,0,0,0-.55-2.23,2.65,2.65,0,0,0-2-.62H80.33v5.31H74.06V137.21H93a8.72,8.72,0,0,1,3,.43,4.31,4.31,0,0,1,1.87,1.21,4.75,4.75,0,0,1,1,1.89,9.67,9.67,0,0,1,.3,2.54Zm29.11,0a6.49,6.49,0,0,1-.72,3.37,4.2,4.2,0,0,1-2.78,1.65v.05a6.46,6.46,0,0,1,1.38.41,3.41,3.41,0,0,1,1.06.75,3.22,3.22,0,0,1,.72,1.31,7.13,7.13,0,0,1,.25,2v3.47h-6.26v-2.46a3.41,3.41,0,0,0-.55-2.23,2.65,2.65,0,0,0-2-.62h-9.84v5.31h-6.26V137.21h18.9a8.69,8.69,0,0,1,3,.43,4.31,4.31,0,0,1,1.87,1.21,4.75,4.75,0,0,1,1,1.89,9.67,9.67,0,0,1,.3,2.54ZM155,157.64H132.29V137.21h22.34V142H138.55v3.28h15.23v4.23H138.55v3.27H155Zm24,0H158.64V137.21h6.26v15.18H179Zm22.85,0H181.48V137.21h6.27v15.18h14.07Zm28.33-6.14q0,4.4-1.75,5.48c-1.17.72-3.38,1.09-6.64,1.09l-4.16.09-5.93-.09a6.28,6.28,0,0,1-4.49-1.36c-1-.9-1.42-2.37-1.42-4.42v-15h2.52v14.68c0,1.65.37,2.71,1.12,3.17a7.56,7.56,0,0,0,3.82.7l4.44.15,4.82-.15a8,8,0,0,0,4-.72c.74-.47,1.12-1.58,1.12-3.34V137.25h2.51Zm28,3.73a3.88,3.88,0,0,1-2,1.89,10.73,10.73,0,0,1-3.41.82c-1.34.13-2.8.19-4.37.19h-1.65c-1.55,0-2.72,0-3.49,0s-2-.16-3.58-.37a4.92,4.92,0,0,1-3.43-1.69c-.68-.92-1-2.51-1-4.79h2.51v.46a7.64,7.64,0,0,0,.3,2.48,2.14,2.14,0,0,0,1.52,1.18,14.55,14.55,0,0,0,3.28.49c1.37.07,2.71.11,4,.11a44,44,0,0,0,5.45-.28,5.46,5.46,0,0,0,3-1.06,3.47,3.47,0,0,0,.81-2.57c0-1.51-.35-2.46-1-2.87a7.35,7.35,0,0,0-3.52-.61h-4.75l-5.55-.16a7.67,7.67,0,0,1-4.5-1.12,4.29,4.29,0,0,1-1.58-3.79,8,8,0,0,1,.68-3.52,3.94,3.94,0,0,1,2.31-2,14.16,14.16,0,0,1,3.83-.78c1.47-.11,3.12-.17,4.94-.17,1.51,0,2.6,0,3.27.05s1.77.13,3.29.29A5.17,5.17,0,0,1,257,139a6.33,6.33,0,0,1,1.21,4.24h-2.52a5.94,5.94,0,0,0-.32-2.23,2,2,0,0,0-1-1,8.3,8.3,0,0,0-2.36-.55,37.51,37.51,0,0,0-4.41-.21h-.87c-1.37,0-2.79.06-4.25.18a10.93,10.93,0,0,0-3.18.63,2.22,2.22,0,0,0-1.27,1.2,5.18,5.18,0,0,0-.28,1.83,2.89,2.89,0,0,0,1,2.61,5.48,5.48,0,0,0,3,.69H249c.85,0,1.61,0,2.27,0s1.66.11,3,.25a5.26,5.26,0,0,1,3.23,1.41c.82.8,1.23,2.15,1.23,4.07A7.44,7.44,0,0,1,258.18,155.23Zm26.9,2.71-2.74-4.66H265.7L263,157.94h-2.94l12.25-20.72h3.32L288,157.94Z"/></svg>