<?xml version="1.0" encoding="UTF-8"?> <svg xmlns="http://www.w3.org/2000/svg" id="Logos_Patrocinadores_Web" data-name="Logos Patrocinadores Web" viewBox="0 0 300 300"><defs><style>.cls-1{fill:#8f8fa3;}</style></defs><path class="cls-1" d="M62.74,175.1c2.42,0,4.63-.11,6.82.07.63.05,1.36.86,1.74,1.5a91.68,91.68,0,0,0,30.9,31.68c43.2,26.74,100.12,12.69,126.13-31.16,1-1.63,1.95-2.34,3.82-2.13a41.89,41.89,0,0,0,4.49,0c-8.33,31.11-40.87,65.44-88.51,64.66C101.17,239,70.45,204.45,62.74,175.1Z"></path><path class="cls-1" d="M62.67,119.08c8.8-31.93,41.21-65,87.63-64.67,46.6.34,78,34,86.36,64.67-2.18,0-4.31.11-6.42-.07-.55-.05-1.15-.9-1.52-1.51-9.78-16.29-23.12-28.69-40.37-36.73A90.85,90.85,0,0,0,71.7,117c-1,1.64-2,2.32-3.82,2.13C66.21,119,64.52,119.08,62.67,119.08Z"></path><path class="cls-1" d="M206.26,119.09c-4,0-7.72.07-11.4-.07a4.29,4.29,0,0,1-2.21-1.38,60.31,60.31,0,0,0-32.77-16c-19.92-3-37.46,2.4-52.4,16a5.14,5.14,0,0,1-4,1.56c-3.43-.12-6.86,0-10.61,0a62,62,0,0,1,19-23.47,62.6,62.6,0,0,1,76.74.92A60,60,0,0,1,206.26,119.09Z"></path><path class="cls-1" d="M93.15,175.1c4.13,0,8,0,11.92.05a3.14,3.14,0,0,1,1.79,1c13.76,12.82,30.08,18.51,48.75,17a60.13,60.13,0,0,0,37-16.59,4.62,4.62,0,0,1,3.6-1.45c3.12.12,6.24.06,9.37.09.1,0,.21.13.5.3a59.19,59.19,0,0,1-17.21,22,60.93,60.93,0,0,1-36.58,13.75C120.23,212.45,99.69,190.9,93.15,175.1Z"></path><path class="cls-1" d="M0,130.71H8.66c6.63,0,13.26,0,19.89,0a30.25,30.25,0,0,1,4.46.36c6.23,1,9.25,7.26,6.23,12.89-.64,1.19-1.41,2.32-1.92,3.16,3.76,1.81,5.52,7.5,2.94,12.26a6.75,6.75,0,0,1-5,3.36,17.72,17.72,0,0,1-3.48.36q-15.32,0-30.62,0c-.32,0-.64,0-1.16-.09Zm9.93,24.46c6.26,0,12.4,0,18.55,0a1.47,1.47,0,0,0,.93-.22c.55-.54,1.42-1.17,1.42-1.77a3.81,3.81,0,0,0-1.1-2.41,3.12,3.12,0,0,0-2-.43c-5.58,0-11.16,0-16.74,0a5.37,5.37,0,0,0-1,.2Zm0-11.67c6,0,11.78,0,17.56,0,1.52,0,2.65-.64,2.62-2.44s-.82-2.41-2.81-2.44c-3,0-6,0-9,0H9.9Z"></path><path class="cls-1" d="M68.75,130.69c4.28,0,8.59-.3,12.85.07,5.88.51,8.83,3.79,9.11,9.72.2,4.22.2,8.46,0,12.68-.27,6.09-3.32,9.65-9.35,9.92-8.5.37-17,.39-25.53,0-6.13-.29-9.28-4.19-9.38-10.34-.06-4-.08-7.94,0-11.91.13-5.87,3.24-9.3,9-10.11A19.7,19.7,0,0,1,58,130.4c3.57,0,7.15,0,10.73,0ZM68.62,155h0c2.53,0,5.06.07,7.59,0s4-1.36,4.18-3.93a69.63,69.63,0,0,0,0-7.78c-.13-2.53-1.5-4.14-4-4.22-5.18-.19-10.38-.17-15.56,0A3.64,3.64,0,0,0,57,142.64a45.57,45.57,0,0,0-.12,8.34c.23,2.84,1.61,3.9,4.54,4C63.81,155,66.22,155,68.62,155Z"></path><path class="cls-1" d="M182.21,163.06h-9.89c0-1.73.09-3.39,0-5.05-.15-2.29-1-3.22-3.28-3.27-5.26-.1-10.52,0-16.07,0V163h-9.89v-32.3h2c9.17,0,18.34,0,27.51,0a18.85,18.85,0,0,1,3.67.34c3.73.75,5.84,3,6.17,6.78a46.9,46.9,0,0,1,0,6.81c-.16,2.67-1,3.66-4.52,5.78C182.36,152.12,182.9,154.57,182.21,163.06ZM152.91,139c0,2.32,0,4.45.05,6.58a1.51,1.51,0,0,0,1,1c5.34,0,10.67.07,16-.08,2.19-.07,2.83-1.17,2.81-3.82S172.13,139,170,139C164.45,138.9,158.86,139,152.91,139Z"></path><path class="cls-1" d="M96.88,130.79c.67,0,1.3-.08,1.94-.08q13.75,0,27.5,0c.65,0,1.31,0,2,0,5,.37,7.61,2.92,8,7.86a43.25,43.25,0,0,1,0,5.46c-.16,3.08-1.67,5.27-5.16,6.32,3.75.93,4.91,3.3,5.07,6.34a40.67,40.67,0,0,1,0,5.06,1.78,1.78,0,0,1-1.15,1.28c-2.85.11-5.7.06-8.9.06,0-1.7,0-3.23,0-4.75-.08-2.5-1-3.59-3.36-3.64-5.26-.1-10.52,0-16,0V163H96.88Zm9.81,15.79c5.54,0,10.85,0,16.17,0a7.37,7.37,0,0,0,1.54-.19c2.39-.51,2.12-2.41,2.16-4.16s-.53-3.14-2.37-3.18c-5.76-.11-11.53,0-17.35,0a5.31,5.31,0,0,0-.14.83C106.69,142,106.69,144.11,106.69,146.58Z"></path><path class="cls-1" d="M199.29,150.21v5H225V163a15.29,15.29,0,0,1-1.66.16H190.92c-1.07,0-1.87,0-1.86-1.49.05-10,0-20,0-30.05a4.64,4.64,0,0,1,.14-.73h35.17v7.39H199.32v5h23.85c0,2.15.09,4.08-.08,6,0,.37-1.09.91-1.68.92-6.51.06-13,0-19.52,0Z"></path><path class="cls-1" d="M231.11,130.79H241v23.79h22.12V163c-.5.05-1,.16-1.49.16-9.62,0-19.24,0-28.87,0-1.15,0-1.8-.17-1.79-1.56,0-10,0-19.89,0-29.84A7.83,7.83,0,0,1,231.11,130.79Z"></path><path class="cls-1" d="M299.46,154.62V163h-32V130.83h9.86v23.79Z"></path><path class="cls-1" d="M300,126.44a4.82,4.82,0,0,1-5,4.83,4.9,4.9,0,0,1-4.82-4.85,5,5,0,0,1,4.94-5A5,5,0,0,1,300,126.44Zm-7.34,3,4.14.6.05-.56-2-2.33-2.26,2.32c.15-1.84.29-3.69.48-6.06a26,26,0,0,1,4.33,1.17c.2.09-.29,1.77-.46,2.71h-.42l1.06,1.57c1.44-1.77,1.47-3.55.19-5a3.68,3.68,0,0,0-5.86,4.41C292.18,128.71,292.42,129.08,292.66,129.45Z"></path></svg> 