<?xml version="1.0" encoding="UTF-8"?> <svg xmlns="http://www.w3.org/2000/svg" id="Logos_Patrocinadores_Web" data-name="Logos Patrocinadores Web" viewBox="0 0 300 300"><defs><style>.cls-1{fill:#8f8fa3;}</style></defs><path class="cls-1" d="M107.83,184.7l7.59-9.43c.7-.87,1.41-1.73,2.1-2.61a1.15,1.15,0,0,1,1-.48h12.09c.63,0,.74.24.53.79q-3.53,9.15-7,18.32c-.25.65-.68.7-1.25.7H96.08c-2.83,0-5.67,0-8.51,0-.24,0-.56.12-.68-.17s.15-.41.28-.58Q94,182,100.87,172.8a1.33,1.33,0,0,1,1.2-.62h9.51c.82,0,.86.08.55.89Q110,178.55,108,184A.88.88,0,0,0,107.83,184.7Z"></path><path class="cls-1" d="M144.86,158.62l5.13-6.37c1.51-1.88,3-3.75,4.52-5.63a1.38,1.38,0,0,1,1.16-.59c4,0,8,0,11.94,0,.64,0,.8.19.56.81q-3.53,9.15-7,18.32c-.24.61-.63.68-1.18.68H124.34c-.41,0-.51-.18-.26-.52l1.09-1.47q6.33-8.51,12.64-17a1.75,1.75,0,0,1,1.59-.8c3,0,6,0,9,0,1,0,1.08.09.71,1q-2.11,5.53-4.24,11.08l-.15.4Z"></path><path class="cls-1" d="M82.49,132.45l6.28-7.8c1.11-1.38,2.23-2.76,3.33-4.15a1.25,1.25,0,0,1,1.11-.52q6,0,12,0c.7,0,.75.23.52.81q-3.45,9-6.87,18a1.25,1.25,0,0,1-1.37,1q-17.53,0-35,0H62c-.46,0-.55-.18-.27-.55l1.09-1.46c4.21-5.67,8.44-11.34,12.64-17a1.5,1.5,0,0,1,1.34-.66c3.11,0,6.23,0,9.35,0,.92,0,1,0,.63.89l-4.13,10.79-.26.71Z"></path><path class="cls-1" d="M197.66,181.61c-1.42,3.29-2.78,6.37-4.08,9.48a1.27,1.27,0,0,1-1.42.93c-1-.06-2,0-3,0s-.95-.09-.6-.9q2.39-5.55,4.78-11.1c1-2.38,2.06-4.74,3.06-7.13a1,1,0,0,1,1.08-.71c1.17,0,2.33,0,3.5,0,.51,0,.72.2.74.72.14,3.49.3,7,.46,10.47a1.7,1.7,0,0,0,.19,1c.31,0,.39-.3.54-.48q4.41-5.54,8.79-11.08a1.36,1.36,0,0,1,1.22-.59c1.07,0,2.13,0,3.2,0s1,.05.72,1q-2.17,7.37-4.37,14.71c-.34,1.15-.7,2.28-1,3.43a.82.82,0,0,1-.91.7q-1.71,0-3.42,0c-.62,0-.75-.21-.57-.78.91-2.87,1.8-5.76,2.69-8.64.05-.16.09-.33.18-.66a12.51,12.51,0,0,0-1.62,1.81q-2.17,2.58-4.32,5.21a1.21,1.21,0,0,1-1,.49c-1.19,0-2.38,0-3.57,0-.67,0-.88-.24-.9-.88C197.93,186.31,197.79,184.06,197.66,181.61Z"></path><path class="cls-1" d="M181,146a36.21,36.21,0,0,1,6,.26,8.71,8.71,0,0,1,1.24.33,3.29,3.29,0,0,1,2.26,4.4,29.13,29.13,0,0,1-1.7,4.47,6.36,6.36,0,0,1-3.73,3.37c-.58.21-.65.44-.4,1,.77,1.71,1.48,3.44,2.21,5.17.32.76.28.83-.51.84-1.34,0-2.69,0-4,0a.9.9,0,0,1-1-.64c-.67-1.58-1.4-3.14-2.05-4.74a1,1,0,0,0-1.15-.74c-2.89.1-2.1-.49-3.16,2.18-.43,1.09-.84,2.18-1.23,3.28a.86.86,0,0,1-1,.66c-1.16,0-2.33,0-3.49,0-.76,0-.8-.08-.5-.87q2.1-5.55,4.21-11.08c.9-2.37,1.81-4.73,2.68-7.11a1,1,0,0,1,1.11-.78C178.15,146.05,179.47,146,181,146Zm-1,9.74v0c.68,0,1.37,0,2.05,0a2.37,2.37,0,0,0,2.21-1.46c.35-.81.68-1.63,1-2.47.36-1,0-1.49-1.07-1.63-1.41-.18-2.82.07-4.23,0a.59.59,0,0,0-.63.44c-.57,1.54-1.15,3.07-1.74,4.61-.15.4,0,.56.4.56Z"></path><path class="cls-1" d="M180.07,172.17a32.21,32.21,0,0,1,6,.27,7.81,7.81,0,0,1,.95.25,3.42,3.42,0,0,1,2.47,4.57,28.28,28.28,0,0,1-1.7,4.55,6,6,0,0,1-3.47,3.13c-.7.26-.72.55-.43,1.15.78,1.68,1.51,3.38,2.26,5.07.32.74.27.83-.53.84-1.34,0-2.68,0-4,0a1,1,0,0,1-1-.65c-.7-1.6-1.46-3.18-2.17-4.78a1,1,0,0,0-1-.7c-2.44,0-2.43,0-3.25,2.25-.38,1.08-.79,2.14-1.15,3.22a.85.85,0,0,1-.95.66c-1.14,0-2.28,0-3.42,0-.8,0-.86-.08-.58-.83q2.94-8.14,5.9-16.29c.23-.65.49-1.28.68-1.94a1,1,0,0,1,1.1-.79C177.08,172.19,178.45,172.17,180.07,172.17Zm-1,9.73h0c.66,0,1.32,0,2,0a2.43,2.43,0,0,0,2.32-1.56c.33-.79.64-1.6.9-2.42.31-1,0-1.42-1-1.59a32.29,32.29,0,0,0-4.4-.11c-.35,0-.48.24-.57.51-.55,1.53-1.09,3.06-1.65,4.58-.17.45,0,.61.44.6C177.72,181.89,178.37,181.9,179,181.9Z"></path><path class="cls-1" d="M252.55,165.85c-.69,0-1.37,0-2.05,0a.85.85,0,0,1-.92-.62c-.69-1.6-1.42-3.19-2.09-4.81a1,1,0,0,0-1-.69c-2.4,0-2.4,0-3.25,2.17-.41,1.06-.83,2.12-1.2,3.2a.94.94,0,0,1-1.05.75c-1.11,0-2.23,0-3.34,0-.85,0-.89-.07-.59-.88l5.34-14.06c.53-1.37,1.07-2.74,1.56-4.13a1,1,0,0,1,1-.76c3.09.06,6.19-.12,9.27.12a7.22,7.22,0,0,1,3,.82,3.05,3.05,0,0,1,1.61,3.4,20.45,20.45,0,0,1-2.21,5.79,5.71,5.71,0,0,1-3.23,2.64c-.75.26-.75.56-.46,1.19.75,1.66,1.45,3.35,2.16,5,.33.77.29.83-.57.84Zm-4.28-10.09v0c.71,0,1.42,0,2.12,0a2.22,2.22,0,0,0,1.85-1,11.34,11.34,0,0,0,1.28-3.15c.21-.84-.14-1.24-1-1.36a36.67,36.67,0,0,0-4.32-.13.62.62,0,0,0-.68.47q-.87,2.34-1.77,4.68c-.18.48,0,.58.45.57Z"></path><path class="cls-1" d="M263.67,165.85h-4.84c-1.06,0-1.08,0-.72-1L262.64,153c.77-2,1.57-4.07,2.31-6.11a1.1,1.1,0,0,1,1.22-.87c2.89.09,5.78-.1,8.66.12a6.82,6.82,0,0,1,2.28.56,3.59,3.59,0,0,1,2.13,4.31,50.65,50.65,0,0,1-2,5.57c-.54,1.48-1.14,2.93-1.67,4.41-1.08,3-3.34,4.32-6.33,4.72A54.24,54.24,0,0,1,263.67,165.85Zm2.86-4h0c.53,0,1.06,0,1.59,0a2.9,2.9,0,0,0,2.83-1.91c1-2.59,2-5.16,2.94-7.75.46-1.25,0-1.89-1.34-2-1,0-2,0-3,0a1,1,0,0,0-1.16.81q-1.91,5.1-3.87,10.16c-.2.52-.18.76.45.71S266,161.81,266.53,161.81Z"></path><path class="cls-1" d="M78.71,192c-2.15,0-4.31,0-6.46,0-.24,0-.56.11-.71-.13s.12-.46.25-.66q6.28-9.21,12.56-18.41a1.19,1.19,0,0,1,1.12-.6c2.39,0,4.77,0,7.15,0,.82,0,.88.11.58.9q-3.44,9-6.86,18A1.24,1.24,0,0,1,85,192C82.87,192,80.79,192,78.71,192Z"></path><path class="cls-1" d="M115.74,165.83h-6.46c-.24,0-.56.11-.68-.18s.13-.41.25-.6q6.3-9.23,12.6-18.46a1.18,1.18,0,0,1,1.08-.56c2.41,0,4.82,0,7.23,0,.63,0,.81.19.57.82q-3.53,9.15-7,18.31a.92.92,0,0,1-1,.68C120.1,165.82,117.92,165.83,115.74,165.83Z"></path><path class="cls-1" d="M53.35,139.68H47c-.25,0-.58.11-.72-.11s.13-.51.28-.72q6-8.78,12-17.52a7.06,7.06,0,0,0,.42-.64,1.28,1.28,0,0,1,1.3-.71q3.57,0,7.14,0c.65,0,.8.16.56.79q-3.51,9.09-7,18.18a1,1,0,0,1-1.13.75C57.66,139.66,55.5,139.68,53.35,139.68Z"></path><path class="cls-1" d="M286.25,166.15a10.54,10.54,0,0,1-4.27-.68,4,4,0,0,1-2.45-5.13c1.07-3.08,2.22-6.15,3.48-9.16,1.51-3.64,4.61-5,8.29-5.33a13,13,0,0,1,5,.32,4.58,4.58,0,0,1,3.6,3.6,4.23,4.23,0,0,1-.29,2.31c-1,2.61-2,5.19-2.95,7.81-1.37,3.87-4.26,5.63-8.13,6.09A12.24,12.24,0,0,1,286.25,166.15ZM292,149.82c-1.8,0-3.5.37-4.28,2.16-1.15,2.66-2.12,5.42-3.11,8.15-.35,1,.07,1.56,1,1.81,3.17.8,5.3-.29,6.48-3.33l.08-.21c.8-2.11,1.62-4.21,2.39-6.32.44-1.21,0-1.92-1.24-2.16A12.08,12.08,0,0,0,292,149.82Z"></path><path class="cls-1" d="M222.9,192.32a10.05,10.05,0,0,1-4.34-.86,4,4,0,0,1-2.19-5.08c1-3,2.1-6,3.22-8.92a7.88,7.88,0,0,1,5.57-5,15.26,15.26,0,0,1,7.14-.34,6.42,6.42,0,0,1,2.63,1.13,4,4,0,0,1,1.52,4.44c-1.06,3.2-2.15,6.39-3.46,9.49-1.22,2.88-3.65,4.23-6.6,4.77A21.64,21.64,0,0,1,222.9,192.32Zm1.25-4c1.84-.09,3.59-.39,4.35-2.39,1-2.55,1.89-5.12,2.8-7.7a1.44,1.44,0,0,0-1.23-2.11,6.79,6.79,0,0,0-3.38.14,3.6,3.6,0,0,0-2.51,2.33c-.28.84-.61,1.66-.91,2.5-.6,1.66-1.22,3.32-1.78,5-.41,1.23,0,1.88,1.3,2.09A5.2,5.2,0,0,0,224.15,188.27Z"></path><path class="cls-1" d="M155.82,192.31a10.32,10.32,0,0,1-4.35-.84,4.07,4.07,0,0,1-2.18-5.22c1-2.87,2-5.72,3.1-8.57a8.36,8.36,0,0,1,6.83-5.47,14.59,14.59,0,0,1,6,0c2,.46,3.61,1.36,4.15,3.52a4.32,4.32,0,0,1-.21,2.61c-.94,2.6-1.92,5.18-2.82,7.79-1.36,3.95-4.32,5.68-8.27,6.06A12.43,12.43,0,0,1,155.82,192.31Zm1.15-4v-.05a4.68,4.68,0,0,0,.53,0c1.59-.16,3.14-.49,3.8-2.17,1-2.64,2-5.31,2.92-8a1.38,1.38,0,0,0-1.18-2,6.56,6.56,0,0,0-4,.32,3.19,3.19,0,0,0-1.83,1.84c-.95,2.56-1.9,5.12-2.8,7.7-.45,1.3,0,2,1.37,2.18C156.17,188.21,156.57,188.25,157,188.31Z"></path><path class="cls-1" d="M225.93,162c-.89,0-1.78,0-2.66,0a1.44,1.44,0,0,0-1.43.77c-.54.86-1.15,1.67-1.71,2.52a1.12,1.12,0,0,1-1.07.55c-1.27,0-2.53,0-3.8,0-.23,0-.56.13-.67-.17s.14-.42.27-.6q4.08-5.72,8.19-11.42c1.65-2.31,3.32-4.6,4.95-6.92a1.5,1.5,0,0,1,1.38-.72c1.68,0,3.35,0,5,0,.57,0,.83.19.81.8q-.22,6.7-.42,13.43c0,1.54-.07,3.09-.06,4.63,0,.7-.2,1-.95,1-1.22-.05-2.44,0-3.65,0-.55,0-.79-.18-.73-.76.08-.83.09-1.67.19-2.5.06-.48-.15-.57-.55-.57Zm4.43-11.51c-.07,0-.13,0-.15.07l-4.9,7.12c-.3.43,0,.46.3.46h3.19c1,0,1.09-.06,1.16-1.1.1-1.66.22-3.32.35-5A4.85,4.85,0,0,0,230.36,150.52Z"></path><path class="cls-1" d="M61.52,192c-1.6,0-3.19,0-4.79,0-.73,0-.78-.1-.39-.72l11.5-18.53a1,1,0,0,1,.92-.55h5.09c.55,0,.72.17.51.73q-3.56,9.22-7.07,18.45a.89.89,0,0,1-1,.63C64.71,192,63.12,192,61.52,192Z"></path><path class="cls-1" d="M98.61,165.83H94c-.24,0-.57.1-.71-.12s.11-.52.25-.74q4.93-8,9.9-15.95c.49-.8,1-1.59,1.48-2.39a1.09,1.09,0,0,1,1-.6c1.65,0,3.29,0,4.94,0,.59,0,.77.18.54.78q-3.53,9.15-7,18.31a1,1,0,0,1-1.07.71C101.76,165.81,100.18,165.83,98.61,165.83Z"></path><path class="cls-1" d="M36.22,139.68H31.43c-.72,0-.78-.11-.4-.72l11.46-18.46a1,1,0,0,1,.93-.51c1.7,0,3.39,0,5.09,0,.7,0,.67.26.47.78-1.6,4.15-3.19,8.32-4.79,12.48-.7,1.84-1.45,3.67-2.1,5.54a1.19,1.19,0,0,1-1.39.92C39.21,139.64,37.72,139.68,36.22,139.68Z"></path><path class="cls-1" d="M208.64,162a23.88,23.88,0,0,0,4.38-.41c.49-.08.72,0,.63.57-.15.9-.25,1.81-.37,2.71a.66.66,0,0,1-.56.63,22.26,22.26,0,0,1-9.12.36c-2-.45-3.12-1.54-3.36-3.33a4.92,4.92,0,0,1,.4-2.45c1.05-2.77,2.15-5.52,3.16-8.31,1.36-3.77,4.16-5.52,8-5.89a22.57,22.57,0,0,1,7.46.59c.59.14.77.35.47.93-.43.8-.82,1.63-1.18,2.47a.86.86,0,0,1-1.12.58,25.18,25.18,0,0,0-5-.54,3.53,3.53,0,0,0-3.78,2.58c-.91,2.33-1.79,4.68-2.68,7a3.58,3.58,0,0,0-.2.73c-.17,1.15.24,1.67,1.41,1.74C207.62,162,208.13,162,208.64,162Z"></path><path class="cls-1" d="M144.56,120a36.24,36.24,0,0,1,4.78.16,7.48,7.48,0,0,1,.82.18A2.89,2.89,0,0,1,152.4,124a23.82,23.82,0,0,1-2,5.35,5.39,5.39,0,0,1-3.64,2.76c-.57.16-.64.37-.42.89.83,2,1.61,4,2.43,6,.22.54.17.76-.49.77-2.42,0-2.42,0-3.33-2.21-.56-1.41-1.14-2.81-1.69-4.23a.84.84,0,0,0-.9-.63c-1.32,0-2.64,0-3.95,0a.86.86,0,0,0-1,.67c-.67,1.88-1.38,3.75-2,5.64-.19.54-.45.81-1,.75-.42,0-.86,0-1.29,0-.87,0-.9,0-.6-.84l2.82-7.79c1.22-3.36,2.46-6.71,3.65-10.07.26-.75.6-1.1,1.45-1C141.72,120,143,120,144.56,120Zm-2.45,10.24v0c.93,0,1.87,0,2.8,0a3.34,3.34,0,0,0,3.14-2.14c.47-1.15.89-2.32,1.27-3.5s0-1.84-1.24-2a51.67,51.67,0,0,0-6.22-.13c-.4,0-.49.29-.6.58-.78,2.19-1.56,4.39-2.36,6.57-.2.53-.14.73.47.71C140.28,130.18,141.19,130.2,142.11,130.2Z"></path><path class="cls-1" d="M144.68,172.17h7.53c.85,0,.9.08.62.86s-.62,1.61-.87,2.43a1,1,0,0,1-1.12.76c-1.44,0-2.88,0-4.33,0a.83.83,0,0,0-.93.66c-1.66,4.65-3.35,9.29-5,13.93-.44,1.22-.44,1.22-1.7,1.22-1,0-2,0-3,0-.68,0-.78-.21-.56-.81q2.37-6.49,4.71-13c.22-.63.82-1.4.49-1.87s-1.23-.11-1.88-.12c-1,0-2,0-3,0-.56,0-.66-.19-.46-.69.34-.87.67-1.75.95-2.64a.93.93,0,0,1,1.06-.72C139.67,172.18,142.18,172.17,144.68,172.17Z"></path><path class="cls-1" d="M176.64,140a9.85,9.85,0,0,1-2.86-.26c-2.9-.74-4-2.75-3.05-5.58.83-2.42,1.73-4.81,2.6-7.22.72-2,1.47-4,2.15-6,.24-.71.58-1.07,1.36-1a5.43,5.43,0,0,0,1.14,0c.65,0,.79.18.56.79-.9,2.42-1.77,4.86-2.65,7.29-.71,2-1.43,3.9-2.12,5.86-.85,2.42-.07,3.57,2.49,3.71a11,11,0,0,0,3.18-.2,5.36,5.36,0,0,0,4-3.68c1.53-4.24,3.1-8.47,4.6-12.72a1.33,1.33,0,0,1,1.52-1.07c1.86.07,1.86,0,1.22,1.79-1.43,4-2.92,7.88-4.28,11.86-1.43,4.2-4.13,6.15-8.95,6.4Z"></path><path class="cls-1" d="M44.36,192c-.94,0-1.88,0-2.82,0s-1,0-.54-.84c2-3.66,4.08-7.3,6.13-10.95,1.34-2.41,2.71-4.82,4-7.24a1.28,1.28,0,0,1,1.33-.78c.78.05,1.57,0,2.35,0s.84.06.55.83l-4.08,10.66c-.94,2.46-1.92,4.91-2.81,7.38a1.22,1.22,0,0,1-1.41.94C46.18,191.94,45.27,192,44.36,192Z"></path><path class="cls-1" d="M81.47,165.83h-3c-.77,0-.84-.12-.48-.76L85.93,151c.8-1.44,1.62-2.87,2.41-4.31a1,1,0,0,1,1-.62c.86,0,1.72,0,2.58,0,.57,0,.79.17.56.77q-3.54,9.18-7,18.37a.89.89,0,0,1-1,.66C83.49,165.81,82.48,165.83,81.47,165.83Z"></path><path class="cls-1" d="M19.07,139.68H16.18c-.87,0-.92-.09-.51-.84l3.6-6.44c2.12-3.78,4.26-7.55,6.34-11.35A1.66,1.66,0,0,1,27.44,120a16.19,16.19,0,0,0,2,0c.87,0,.91.07.61.86l-2.61,6.82c-1.43,3.74-2.88,7.47-4.28,11.22a1,1,0,0,1-1.17.81C21,139.64,20,139.68,19.07,139.68Z"></path><path class="cls-1" d="M192.22,165.85c-.59,0-1.17,0-1.75,0s-.71-.2-.51-.73c.6-1.56,1.19-3.13,1.78-4.69,1.73-4.55,3.47-9.09,5.18-13.64A1,1,0,0,1,198,146c1.14,0,2.28,0,3.42,0,.57,0,.71.19.5.74q-3.51,9.19-7,18.4a.9.9,0,0,1-1,.7C193.38,165.82,192.8,165.85,192.22,165.85Z"></path><path class="cls-1" d="M114.17,140a11.06,11.06,0,0,1-3.39-.31,3.44,3.44,0,0,1-2.7-4.45c.57-2.37,1.6-4.59,2.39-6.89.41-1.2.85-2.38,1.32-3.56a7.53,7.53,0,0,1,6.33-4.93,22.65,22.65,0,0,1,7.48.25c.63.12.8.32.53,1-.64,1.47-.61,1.48-2.21,1.3a21.84,21.84,0,0,0-5.3-.19,4.48,4.48,0,0,0-3.91,2.83q-1.93,4.8-3.53,9.72c-.55,1.67,0,2.5,1.77,2.77a23,23,0,0,0,6.2-.22c.85-.1.9-.08.8.74a2.28,2.28,0,0,0,0,.45c0,.74-.29,1.09-1,1.17A32,32,0,0,1,114.17,140Z"></path><path class="cls-1" d="M159.34,140a9.72,9.72,0,0,1-3.67-.43,3.36,3.36,0,0,1-2.41-4,18.43,18.43,0,0,1,1.12-3.54c.74-2.1,1.57-4.18,2.27-6.29a8.09,8.09,0,0,1,7.81-6,23.53,23.53,0,0,1,6.43.4c.62.13.71.36.47.93-.62,1.49-.6,1.49-2.19,1.31a21.84,21.84,0,0,0-5.3-.19A4.45,4.45,0,0,0,160,125c-1.23,3.19-2.41,6.4-3.5,9.64-.62,1.83,0,2.58,1.85,2.88a22.09,22.09,0,0,0,6.13-.26c.7-.08.88.12.78.75a.77.77,0,0,1,0,.15c-.19,1.39-.19,1.38-1.61,1.55A27.31,27.31,0,0,1,159.34,140Z"></path><path class="cls-1" d="M211,120c2.35,0,4.71,0,7.07,0,.64,0,.88.11.62.81-.74,1.93-.37,1.53-2.21,1.57-1.29,0-2.58,0-3.87,0-.76,0-1.06.28-1.3.94-1.86,5.2-3.76,10.38-5.61,15.58a1.12,1.12,0,0,1-1.27.87c-2,0-2,0-1.35-1.91l5.22-14.43c.37-1,.36-1-.77-1-1.49,0-3,0-4.48,0-.63,0-.74-.19-.52-.77.74-1.94.29-1.59,2.23-1.61S208.93,120,211,120Z"></path><path class="cls-1" d="M125.34,139.7c-1.58,0-1.65.27-1-1.47,2.05-5.61,4.07-11.23,6.11-16.85.62-1.71.32-1.39,2-1.41s1.52-.13,1,1.39c-2,5.67-4.11,11.33-6.16,17C126.67,140,126.89,139.66,125.34,139.7Z"></path><path class="cls-1" d="M191.09,139.7c-1.54,0-1.61.23-1-1.43,2.07-5.69,4.11-11.38,6.18-17.06.52-1.44.27-1.22,1.74-1.25a7.66,7.66,0,0,0,.83,0c.67-.06.79.2.57.8-.77,2.06-1.5,4.14-2.25,6.21-1.37,3.78-2.74,7.57-4.12,11.34C192.45,139.91,192.77,139.67,191.09,139.7Z"></path><path class="cls-1" d="M1.92,139.68c-.49,0-1,0-1.45,0s-.57-.2-.35-.6l.14-.28q4.5-9,9-18c.15-.31.23-.72.65-.78s.94-.2,1.25.08-.06.7-.18,1c-2.26,5.94-4.55,11.87-6.8,17.82-.2.53-.47.8-1,.74C2.73,139.65,2.32,139.68,1.92,139.68Z"></path><path class="cls-1" d="M27.26,192c-.43,0-.86,0-1.29,0-.67,0-.75-.26-.44-.77l.07-.14q4.53-9.08,9.07-18.15c.14-.29.23-.66.62-.71s.93-.2,1.24.12-.07.67-.19,1q-3.35,8.77-6.7,17.54C29.2,192,29.2,192,28,192Z"></path><path class="cls-1" d="M64.34,165.83H62.9c-.42,0-.56-.18-.37-.57.06-.11.11-.23.17-.34l9-18c.14-.29.22-.67.57-.77a1.55,1.55,0,0,1,1.32,0c.39.29,0,.7-.14,1q-3.32,8.7-6.65,17.39c-.48,1.27-.48,1.27-1.82,1.27Z"></path></svg> 