<svg id="Logos_Patrocinadores_Web" data-name="Logos Patrocinadores Web" xmlns="http://www.w3.org/2000/svg" viewBox="0 0 299.14 66.96"><defs><style>.cls-1{fill:#8f8fa3;}</style></defs><path class="cls-1" d="M20.07,154.58a18.91,18.91,0,0,0,1,8.9,11.58,11.58,0,0,0,5.21,5.81c4.63,2.65,9.36,2.4,14.12.41a21.42,21.42,0,0,0,4.19-2.44c.52-.37.52-.36.9.12l6.31,8c.33.42.34.48-.08.8a34.38,34.38,0,0,1-15.57,6.78,40.68,40.68,0,0,1-7.31.53,34.83,34.83,0,0,1-15.24-3.53A23.88,23.88,0,0,1,1.86,167.18a21.61,21.61,0,0,1-1.35-9.85,24.9,24.9,0,0,1,1.86-7.74,25.54,25.54,0,0,1,6.27-8.83,24.4,24.4,0,0,1,5.48-3.93,1.57,1.57,0,0,0,.76-.88,31.64,31.64,0,0,1,11.53-14.21A29.68,29.68,0,0,1,38.79,117a45.19,45.19,0,0,1,8.46-.49,42.25,42.25,0,0,1,14.93,2.89,28,28,0,0,1,12.24,9.62,22.75,22.75,0,0,1,2.88,5.31,2.84,2.84,0,0,1,.13.38c.06.26,0,.44-.32.44H76.8q-9.93,0-19.86,0a.82.82,0,0,1-.9-.62,8.18,8.18,0,0,0-5.7-4.93,17.09,17.09,0,0,0-9.38.12,10,10,0,0,0-4.06,1.89,5.28,5.28,0,0,0-.93,1.12c-.19.28-.07.39.22.42l3.72.47a45,45,0,0,1,11.17,2.38A18.9,18.9,0,0,1,58,140.51a12.07,12.07,0,0,1,3.37,7.28c0,.4-.06.57-.51.61-2.55.23-5.1.51-7.65.76l-6.77.65c-1,.1-2,.2-3.07.32-.82.09-.82.1-1.21-.61a8.36,8.36,0,0,0-4-3.5,11.14,11.14,0,0,0-3.3-.94c-.46-.06-.5,0-.4.41a9.49,9.49,0,0,0,1.74,3.6,14.76,14.76,0,0,0,6,4.77,12.1,12.1,0,0,0,7.63.53,27.15,27.15,0,0,0,5.59-2l2.86-1.3a.38.38,0,0,1,.56.14c1.28,1.89,2.57,3.77,3.86,5.66l2.77,4c.37.53.36.57-.23.79A81.62,81.62,0,0,1,56,164.72a40.38,40.38,0,0,1-6,.92,59.6,59.6,0,0,1-7.07.16,29.08,29.08,0,0,1-14.82-4.27,33.22,33.22,0,0,1-7.7-6.64C20.34,154.78,20.28,154.64,20.07,154.58Z" transform="translate(-0.43 -116.52)"/><path class="cls-1" d="M108.39,155.52c1.62,0,3.24,0,4.86,0a17.77,17.77,0,0,1,3.34.35A5.19,5.19,0,0,1,121,161a4.72,4.72,0,0,1-2.79,4.59,7.08,7.08,0,0,1-1.28.5c-.27.07-.29.18-.13.4,1.81,2.49,3.5,5.06,5.41,7.48a2.48,2.48,0,0,0,1.5.94c.24.05.45.12.42.45s-.29.28-.5.28h-5.52a.65.65,0,0,1-.59-.3c-1.9-2.68-3.82-5.35-5.71-8-.36-.52-.73-.9-1.42-.78-.27,0-.41.12-.4.4,0,2.22-.07,4.45.09,6.67a1.49,1.49,0,0,0,1.48,1.38l.92.09c.19,0,.31.08.31.29s-.13.28-.32.28h-9.68c-.2,0-.35,0-.35-.29s.13-.27.32-.28l.74-.08a1.58,1.58,0,0,0,1.67-1.71c.07-1.15.09-2.3.08-3.45,0-4,.07-7.95-.08-11.93a1.57,1.57,0,0,0-1.65-1.72c-.25,0-.5-.06-.75-.07s-.34-.08-.33-.32.16-.25.34-.26h5.66Zm1.55,5.53c0,1.28,0,2.56,0,3.84,0,.32.11.44.44.44a16.52,16.52,0,0,0,2.72-.2,3.2,3.2,0,0,0,2.74-2.54,6.58,6.58,0,0,0,0-3.15,3.22,3.22,0,0,0-2.68-2.56,13.68,13.68,0,0,0-2.64-.18c-.41,0-.57.11-.56.55C110,158.51,109.94,159.78,109.94,161.05Z" transform="translate(-0.43 -116.52)"/><path class="cls-1" d="M133.08,175.63h-8.45c-.2,0-.24-.11-.24-.28s0-.28.24-.29c.36,0,.71,0,1.06-.08a1.53,1.53,0,0,0,1.46-1.59c0-3.4,0-6.81,0-10.21,0-1.69,0-3.39,0-5.08,0-1.32-.41-1.77-1.7-2a3.66,3.66,0,0,0-.66,0c-.21,0-.42,0-.41-.31s.2-.27.39-.27h15.83c.64,0,.64,0,.64.63,0,1.61,0,3.21,0,4.82,0,.2.08.47-.26.51s-.4-.17-.45-.41a9.34,9.34,0,0,0-.44-1.48,4.34,4.34,0,0,0-4-2.79c-1.15-.09-2.3-.09-3.45-.09-.37,0-.52.1-.52.49q0,3.57,0,7.12c0,.4.16.51.53.48a3.18,3.18,0,0,0,3.17-2.42,9.46,9.46,0,0,0,.44-2c0-.24.11-.38.38-.37s.28.21.28.41q0,5,0,10c0,.21,0,.34-.29.35s-.36-.12-.38-.37a7.82,7.82,0,0,0-.82-2.74,3.16,3.16,0,0,0-3-1.66.23.23,0,0,0-.26.24,2.17,2.17,0,0,0,0,.26q0,3.12,0,6.23c0,1.13.34,1.56,1.46,1.65a10,10,0,0,0,4.91-.58,6.1,6.1,0,0,0,3.34-3.85l.21-.58c.08-.23.27-.2.44-.18s.19.2.17.33c-.12.91-.25,1.81-.37,2.72s-.3,1.92-.41,2.88c0,.4-.2.51-.58.51Z" transform="translate(-0.43 -116.52)"/><path class="cls-1" d="M227.58,175.63H219.3c-.19,0-.44.07-.44-.27s.21-.31.43-.3a3.91,3.91,0,0,0,1-.09,1.49,1.49,0,0,0,1.39-1.6q0-7.79,0-15.56a1.54,1.54,0,0,0-1.42-1.63,4.65,4.65,0,0,0-1-.08c-.2,0-.29-.08-.3-.29s.09-.29.29-.29.59,0,.88,0h15c.66,0,.66,0,.66.66,0,1.55,0,3.1,0,4.65,0,.23.17.61-.29.65s-.39-.31-.45-.57a6,6,0,0,0-1.16-2.6,4.53,4.53,0,0,0-3.07-1.49,36,36,0,0,0-3.75-.11c-.28,0-.4.11-.4.39,0,2.43,0,4.87,0,7.3,0,.35.17.41.47.41a3.27,3.27,0,0,0,3.28-2.58,9.5,9.5,0,0,0,.38-1.82c0-.27.14-.39.42-.38s.25.23.25.41q0,4.89,0,9.78c0,.21.11.5-.26.54s-.37-.23-.41-.48a6.39,6.39,0,0,0-1.29-3.29,3.35,3.35,0,0,0-2.56-1c-.22,0-.26.15-.26.33,0,2.24,0,4.48,0,6.72,0,.83.4,1.23,1.26,1.31a9.27,9.27,0,0,0,5.87-1,6.49,6.49,0,0,0,2.61-3.57c0-.08,0-.16.08-.25s.14-.43.44-.36.25.33.22.53c-.1.78-.21,1.55-.32,2.32-.15,1-.32,2-.43,3.06,0,.4-.2.51-.59.51Z" transform="translate(-0.43 -116.52)"/><path class="cls-1" d="M289.92,175.63h-8.4c-.18,0-.27-.07-.27-.26s.06-.32.27-.31a4.92,4.92,0,0,0,1.15-.09,1.52,1.52,0,0,0,1.35-1.55c.16-4.71.05-9.43.08-14.14,0-.5-.05-1-.07-1.5a1.54,1.54,0,0,0-1.36-1.59,4.87,4.87,0,0,0-1-.1c-.21,0-.44,0-.43-.3s.22-.27.41-.27h1c5,0,10,0,14.95,0,.4,0,.53.1.53.51,0,1.65,0,3.3,0,5,0,.21.08.47-.26.51s-.39-.18-.45-.42-.18-.71-.3-1.06a4.41,4.41,0,0,0-4.15-3.2c-1.15-.07-2.3-.09-3.45-.09-.38,0-.52.11-.51.5,0,2.37,0,4.75,0,7.12,0,.41.17.49.53.48a3.22,3.22,0,0,0,3.18-2.47,10.23,10.23,0,0,0,.42-1.9c0-.22.05-.41.34-.41s.33.2.33.42v9.9c0,.22,0,.42-.32.42s-.32-.19-.35-.41a7.51,7.51,0,0,0-.82-2.69,2.85,2.85,0,0,0-2.47-1.6c-.84-.05-.84-.06-.84.77,0,1.95,0,3.91,0,5.87,0,1.19.34,1.59,1.51,1.7a11.69,11.69,0,0,0,4-.3,6,6,0,0,0,4.16-4.12,5.6,5.6,0,0,0,.17-.54c.07-.3.28-.26.49-.24s.18.21.16.36q-.39,2.87-.8,5.73c0,.23-.13.34-.37.34h-8.45Z" transform="translate(-0.43 -116.52)"/><path class="cls-1" d="M243.14,159.65c-.11.14,0,.3,0,.46q0,5.94,0,11.89a7.61,7.61,0,0,0,0,.83,2.35,2.35,0,0,0,2.48,2.21l.35,0a.24.24,0,0,1,.22.28c0,.15-.06.26-.23.27l-.26,0h-6.46a.23.23,0,0,1-.26-.27c0-.16,0-.29.23-.3l.7-.09a2.17,2.17,0,0,0,2-2.33c0-.23,0-.47,0-.7V158.71a2.81,2.81,0,0,0-2.31-2.55,2.41,2.41,0,0,1-.48-.07c-.2-.05-.17-.22-.17-.37s.1-.2.24-.2h.31c2,0,4.09,0,6.14,0a1,1,0,0,1,.86.41l6.84,8.62c.84,1.06,1.69,2.11,2.55,3.18.15-.14.08-.29.09-.43V159.1a5.55,5.55,0,0,0-.12-1.22,2,2,0,0,0-1.83-1.71l-.66-.08c-.19,0-.3-.1-.29-.31s.15-.27.33-.27h5.88c.2,0,.48-.08.51.27s-.23.35-.47.39c-1.59.22-2,.76-2.16,2.57,0,.22,0,.44,0,.67q0,8,0,16.08c0,.19.13.46-.13.55a.59.59,0,0,1-.69-.26c-2.15-2.67-4.32-5.33-6.48-8l-6.53-8C243.27,159.71,243.24,159.64,243.14,159.65Z" transform="translate(-0.43 -116.52)"/><path class="cls-1" d="M110.72,136.23c0,.56,0,1.07,0,1.58a.59.59,0,0,1-.24.41,9.91,9.91,0,0,1-7,3,12.52,12.52,0,0,1-6.37-1.3A9.41,9.41,0,0,1,92,132.06a10.4,10.4,0,0,1,3.53-9,10.59,10.59,0,0,1,6.84-2.84,12.63,12.63,0,0,1,5.23.93c.38.15.78.28,1.17.39a1.12,1.12,0,0,0,1.47-.7,1.8,1.8,0,0,0,.08-.21c.07-.23.14-.45.46-.4s.27.34.27.55c0,1.31,0,2.62,0,3.93,0,.71,0,1.42,0,2.12,0,.16.08.38-.2.42a.42.42,0,0,1-.53-.33,7,7,0,0,0-.79-2,6.07,6.07,0,0,0-5.5-3.33,5.89,5.89,0,0,0-5.56,3.5,12.35,12.35,0,0,0-1.08,6.55,15.32,15.32,0,0,0,.9,4.44c1.08,2.76,3.35,3.92,6.25,3.69a8.64,8.64,0,0,0,5.8-3.3l.21-.22S110.63,136.27,110.72,136.23Z" transform="translate(-0.43 -116.52)"/><path class="cls-1" d="M100.29,158.62c0,1,0,2,0,3,0,.18.14.47-.23.51s-.44-.13-.51-.41a7.44,7.44,0,0,0-1-2.22,6.06,6.06,0,0,0-5.66-3,6,6,0,0,0-5.43,4,13,13,0,0,0-.87,6.06,14.84,14.84,0,0,0,.92,4.48,5.35,5.35,0,0,0,4.38,3.61,7.5,7.5,0,0,0,6.5-2.07,11.52,11.52,0,0,0,1.19-1.23c.07-.08.13-.2.24-.16s.07.17.09.27a.27.27,0,0,0,0,.09c.3,1.32-.59,2-1.48,2.63a12.14,12.14,0,0,1-13.19,0,9.54,9.54,0,0,1-4-6.41,10.91,10.91,0,0,1,9.4-12.55A12.53,12.53,0,0,1,97,156c.35.13.7.24,1,.34a1.14,1.14,0,0,0,1.51-.77,1.72,1.72,0,0,0,.07-.21.36.36,0,0,1,.43-.33c.31,0,.28.26.28.46Z" transform="translate(-0.43 -116.52)"/><path class="cls-1" d="M270.65,155.51h8.41c.64,0,.65,0,.65.63,0,1.43,0,2.86,0,4.29,0,.21.07.47-.26.51s-.4-.16-.47-.41a7.78,7.78,0,0,0-.92-2.19,3.69,3.69,0,0,0-3.29-1.63c-.43,0-.85,0-1.28,0s-.43.13-.41.42v15.52c0,.07,0,.15,0,.22-.07,1.56.57,2.1,2.15,2.19h.44a.24.24,0,0,1,.23.28c0,.15-.06.26-.23.27l-.35,0h-9.73a.26.26,0,0,1-.29-.31.24.24,0,0,1,.29-.25,6.3,6.3,0,0,0,1.15-.1,1.52,1.52,0,0,0,1.36-1.54c.17-5.43,0-10.85.08-16.27,0-.24,0-.44-.35-.44a13.52,13.52,0,0,0-2.38.12,3.54,3.54,0,0,0-2.7,2.24,5.37,5.37,0,0,0-.47,1.47c0,.26-.15.44-.46.4s-.26-.27-.27-.47c0-1.49,0-3,0-4.46,0-.4.14-.51.52-.5C264.93,155.52,267.79,155.51,270.65,155.51Z" transform="translate(-0.43 -116.52)"/><path class="cls-1" d="M187.17,175.62H178.5c-.17,0-.28-.08-.28-.26a.25.25,0,0,1,.29-.3,6.12,6.12,0,0,0,1.14-.1,1.48,1.48,0,0,0,1.31-1.35,7.41,7.41,0,0,0,.07-1.41c0-4.57,0-9.14,0-13.7v-.27c.07-1.61-.77-2.09-2.16-2.15-.24,0-.66.17-.64-.3s.43-.26.67-.26h9.82c.17,0,.28.07.28.26a.25.25,0,0,1-.29.3,7.93,7.93,0,0,0-1.28.08,1.54,1.54,0,0,0-1.42,1.58c-.16,2.49,0,5-.07,7.47,0,2.12,0,4.24,0,6.37,0,.54,0,1.08.1,1.63a1.15,1.15,0,0,0,1,1.12,18.48,18.48,0,0,0,4.46,0,4.76,4.76,0,0,0,3.52-2.75,16.25,16.25,0,0,0,1.07-2.71c0-.15.06-.32.24-.4s.54,0,.51.36c-.19,1.92-.38,3.84-.59,5.76-.13,1.06-.15,1.05-1.24,1.05Z" transform="translate(-0.43 -116.52)"/><path class="cls-1" d="M207.53,175.62H199c-.21,0-.39,0-.38-.3s.18-.27.37-.27a4.1,4.1,0,0,0,1.1-.1,1.44,1.44,0,0,0,1.27-1.38,5.69,5.69,0,0,0,.07-.83c0-4.8,0-9.61,0-14.41,0-1.62-.62-2.19-2.25-2.25a2.55,2.55,0,0,1-.39,0c-.15,0-.18-.14-.18-.26s0-.24.18-.27a2.11,2.11,0,0,1,.35,0h9.82c.21,0,.44,0,.43.3s-.22.28-.41.27a5.76,5.76,0,0,0-1.1.08,1.53,1.53,0,0,0-1.48,1.62c-.16,2.35-.05,4.71-.07,7.07s0,4.45,0,6.67c0,.58.06,1.15.1,1.72a1.14,1.14,0,0,0,1,1.09,17.3,17.3,0,0,0,4.49,0,5,5,0,0,0,3.76-3.28,18.51,18.51,0,0,0,.81-2.19c.06-.2.11-.4.39-.41s.42.05.38.37c-.21,1.93-.39,3.86-.62,5.79-.12,1-.15,1-1.22,1Z" transform="translate(-0.43 -116.52)"/><path class="cls-1" d="M149.06,155.51h4.56a.24.24,0,0,1,.26.28.25.25,0,0,1-.27.28l-1,.09c-1,.08-1.38.6-1,1.55.43,1.1.9,2.18,1.36,3.27,1.12,2.63,2.26,5.25,3.39,7.87a.43.43,0,0,0,0,.12c.08.12.05.34.23.33s.16-.19.21-.31c.36-.79.71-1.58,1.06-2.38q1.67-3.75,3.32-7.52a4.12,4.12,0,0,0,.27-.84,1.52,1.52,0,0,0-1.44-2.08l-.7-.08c-.2,0-.4,0-.39-.32s.22-.27.42-.27h5.93c.17,0,.32,0,.34.25a.33.33,0,0,1-.26.4,3.79,3.79,0,0,0-2.39,2.19c-1.82,3.64-3.39,7.4-5.09,11.09-1,2.1-1.91,4.21-2.85,6.32a.43.43,0,0,1-.43.31c-.26,0-.36-.16-.44-.36-1.31-3-2.61-6.07-3.93-9.09s-2.53-6-3.89-8.91a2.23,2.23,0,0,0-1.9-1.57c-.21,0-.3-.16-.28-.37s.19-.26.38-.26Z" transform="translate(-0.43 -116.52)"/><path class="cls-1" d="M171.75,175.63h-5c-.18,0-.27-.08-.27-.26s.07-.31.29-.31a5.1,5.1,0,0,0,1.1-.08,1.5,1.5,0,0,0,1.39-1.6q0-7.78,0-15.56a1.55,1.55,0,0,0-1.45-1.65,4.12,4.12,0,0,0-.93-.07c-.23,0-.4,0-.39-.33s.23-.25.41-.25h9.86c.17,0,.29.07.29.26s-.09.29-.29.3a6.77,6.77,0,0,0-1,.07,1.59,1.59,0,0,0-1.5,1.67c0,.28,0,.56,0,.84V173c0,1.4.57,2,2,2.06.18,0,.35,0,.53,0s.31.07.31.28-.13.28-.31.28h-5Z" transform="translate(-0.43 -116.52)"/><path class="cls-1" d="M196.14,128.81c1.14,0,2.49-.08,3.82.09a3.59,3.59,0,0,1,2.75,1.48,3,3,0,0,1-1.54,4.56c-.54.2-.55.21-.23.66l2.74,3.86a1.82,1.82,0,0,0,1.16.88c.15,0,.24.11.21.28s-.14.16-.26.16h-3.32c-.24,0-.35-.16-.47-.34l-3.33-4.73a2.35,2.35,0,0,0-.19-.25.57.57,0,0,0-.65-.13c-.22.07-.14.29-.14.46,0,1.2,0,2.39,0,3.58,0,.68.28.93,1,1,.2,0,.58-.06.56.24s-.38.12-.58.12H192.4c-.11,0-.23,0-.22-.16s.1-.13.19-.14l.44-.07c.69-.1.94-.38,1-1.09s0-1.24,0-1.85q0-3.54,0-7.08a1.06,1.06,0,0,0-.58-1.13,4.67,4.67,0,0,0-.65-.13c-.13,0-.36,0-.35-.17s.25-.15.39-.15Zm.54,3.23h0v2.2c0,.18,0,.38.21.38a4,4,0,0,0,2.54-.5,3.06,3.06,0,0,0,.45-3.63,1.72,1.72,0,0,0-.76-.7,4.78,4.78,0,0,0-2.21-.31c-.24,0-.22.18-.22.35Z" transform="translate(-0.43 -116.52)"/><path class="cls-1" d="M114.59,134.84c0-1.44,0-2.89,0-4.33,0-1-.25-1.26-1.26-1.38-.13,0-.35.07-.35-.15s.24-.17.39-.17c2.15,0,4.3,0,6.45,0a6.85,6.85,0,0,1,2.05.32A3,3,0,0,1,124,132a2.86,2.86,0,0,1-2,3c-.52.19-.53.2-.2.66,1,1.37,1.9,2.77,2.94,4.1a1.49,1.49,0,0,0,.88.61c.14,0,.27.08.26.25s-.18.21-.32.21h-3.19c-.28,0-.41-.18-.55-.38l-3.33-4.73a1,1,0,0,0-.29-.33.44.44,0,0,0-.69.41c0,1.29,0,2.57.07,3.85,0,.42.37.69.87.8.22.05.66,0,.63.21s-.43.16-.67.16c-1.62,0-3.24,0-4.87,0h-.35c-.09,0-.18,0-.17-.16s.08-.14.17-.15l.53-.07a.94.94,0,0,0,.9-1.05c0-1.5,0-3,0-4.51Zm2.87-2.8c0,.72,0,1.45,0,2.17,0,.32.12.46.44.43a11.12,11.12,0,0,0,1.63-.17,1.78,1.78,0,0,0,1.12-.79,3.46,3.46,0,0,0,0-3.22,1.81,1.81,0,0,0-1.19-.84,8.84,8.84,0,0,0-1.54-.16c-.38,0-.48.15-.48.51C117.47,130.66,117.46,131.35,117.46,132Z" transform="translate(-0.43 -116.52)"/><path class="cls-1" d="M185.39,140.79h-5c-.09,0-.19,0-.19-.14s.09-.14.18-.15.41-.05.61-.09a.82.82,0,0,0,.76-.74,6.34,6.34,0,0,0,.07-.75q0-4.2,0-8.4c0-1-.28-1.29-1.25-1.39-.14,0-.36,0-.36-.15s.25-.16.39-.16h9.2c.3,0,.41.09.41.4,0,1,0,2,0,2.92,0,.15,0,.31-.17.34s-.25-.12-.3-.27-.15-.51-.23-.76a2.54,2.54,0,0,0-2.26-1.71c-.69-.05-1.38-.07-2.08-.08-.27,0-.4.1-.39.39v4c0,.3.12.38.41.35a1.93,1.93,0,0,0,1.83-1.69c.08-.3.13-.61.2-.91a.19.19,0,0,1,.21-.18c.14,0,.17.1.18.21s0,.24,0,.36v5.12c0,.11,0,.21,0,.31s0,.25-.18.26-.2-.11-.22-.23a6.15,6.15,0,0,0-.32-1.19,1.88,1.88,0,0,0-1.78-1.34c-.24,0-.33,0-.33.28,0,1.3,0,2.59,0,3.89a.74.74,0,0,0,.75.83c2.29.18,4.09-.24,5-2.71a.85.85,0,0,1,.06-.17c.05-.15.13-.28.32-.22s.12.21.11.34c-.12.83-.23,1.66-.36,2.49s-.16,1-1.17,1Z" transform="translate(-0.43 -116.52)"/><path class="cls-1" d="M133.53,138.83V137c0-.15,0-.35.19-.39s.28.17.32.33a4.72,4.72,0,0,0,1.78,2.77,3,3,0,0,0,3.32.26,1.63,1.63,0,0,0,.15-2.65,6,6,0,0,0-1.44-.94,18.08,18.08,0,0,1-2.58-1.44,3.68,3.68,0,0,1-1.67-2.5,3.48,3.48,0,0,1,3.28-3.91,5,5,0,0,1,2.41.44c.16.08.33.14.49.21.56.22.72.16,1-.37.06-.12.09-.27.27-.23s.14.17.14.28l.09,3.32c0,.14,0,.31-.18.35s-.26-.14-.31-.3a3.81,3.81,0,0,0-2.4-2.85,2.25,2.25,0,0,0-2.16.19,1.43,1.43,0,0,0-.16,2.26,9.88,9.88,0,0,0,2.45,1.48,11.15,11.15,0,0,1,2.34,1.48,3.5,3.5,0,0,1-.91,5.81,4.79,4.79,0,0,1-3.87.1c-.26-.1-.51-.22-.78-.32a.85.85,0,0,0-1.15.34c-.11.15-.19.37-.44.28s-.15-.29-.15-.46C133.52,140,133.53,139.4,133.53,138.83Z" transform="translate(-0.43 -116.52)"/><path class="cls-1" d="M148.75,128.81c1.62,0,3.25,0,4.87,0,.42,0,.57.13.56.56,0,.78,0,1.56,0,2.34,0,.18.1.46-.21.5s-.25-.25-.3-.42a3,3,0,0,0-1.06-1.73,3.23,3.23,0,0,0-2.17-.38c-.16,0-.21.16-.21.3s0,.29,0,.44c0,2.67,0,5.33,0,8,0,.32,0,.65.05,1,.09.76.33,1,1.12,1.09.17,0,.48-.08.48.15s-.33.16-.5.16h-5.53c-.09,0-.19,0-.19-.14s.09-.14.18-.15l.48-.06c.71-.13,1-.39,1-1.1q0-3.93,0-7.87c0-.45,0-.91,0-1.37,0-.31-.09-.45-.43-.45a6.75,6.75,0,0,0-1.27.12,2.35,2.35,0,0,0-1.63,1.76c0,.14-.07.28-.11.43s-.1.25-.27.23-.19-.17-.19-.3c0-.65,0-1.3,0-1.95,0-1.31-.16-1.11,1.12-1.12Z" transform="translate(-0.43 -116.52)"/><path class="cls-1" d="M173.4,140.79h-5.13a.16.16,0,0,1-.16-.13c0-.12.08-.15.17-.16s.33,0,.49-.05c.7-.12.91-.39.95-1.09.12-2.12.05-4.24.06-6.37,0-.91,0-1.82-.06-2.73,0-.7-.23-1-.91-1.09l-.39,0c-.12,0-.31,0-.3-.17s.2-.14.32-.14h5.66c.14,0,.35-.05.35.16s-.2.13-.32.15a3.13,3.13,0,0,0-.44,0,1,1,0,0,0-.95,1.11c0,1.9,0,3.8,0,5.7,0,1,0,2,0,3.05,0,.6.17.79.77.87a7.78,7.78,0,0,0,2.68-.07,2.71,2.71,0,0,0,1.82-1.5,10.18,10.18,0,0,0,.68-1.63c0-.14.11-.28.3-.25s.19.19.17.34c-.12,1.18-.25,2.37-.36,3.55,0,.36-.19.47-.54.46Z" transform="translate(-0.43 -116.52)"/><path class="cls-1" d="M164.7,140.79h-2.52c-.13,0-.35.06-.34-.16s.19-.13.32-.14c1.06-.14,1.23-.44.8-1.44-.19-.46-.4-.91-.59-1.37a.48.48,0,0,0-.51-.33H158.5c-.23,0-.41,0-.51.27a11.08,11.08,0,0,0-.58,1.48c-.19.77.1,1.18.88,1.3.21,0,.59-.07.56.24s-.39.15-.6.15c-1,0-2,0-3,0-.14,0-.34.06-.38-.14s.16-.21.3-.26a2.08,2.08,0,0,0,1.23-1.25c1-2.14,1.95-4.29,2.92-6.44l1.72-3.82c.06-.12.09-.28.25-.28s.24.19.3.33c1.06,2.38,2.1,4.77,3.16,7.15.56,1.23,1,2.51,1.71,3.68a1.27,1.27,0,0,0,.84.66c.12,0,.3.05.25.23s-.2.14-.33.15Zm-4.5-8.08-1.64,3.62c-.11.23-.08.35.22.35q1.41,0,2.82,0c.26,0,.3-.11.2-.33-.2-.43-.38-.86-.57-1.29C160.91,134.31,160.58,133.57,160.2,132.71Z" transform="translate(-0.43 -116.52)"/><path class="cls-1" d="M221.78,140.79H219.3c-.14,0-.38.08-.39-.15s.21-.14.34-.16c1.05-.16,1.2-.43.79-1.41-.19-.45-.4-.89-.58-1.34a.53.53,0,0,0-.57-.38h-3.31a.5.5,0,0,0-.55.34,8.86,8.86,0,0,0-.57,1.48.91.91,0,0,0,.88,1.23c.22,0,.6,0,.57.24s-.39.15-.6.15c-1,0-2,0-3,0-.14,0-.34,0-.37-.16s.17-.2.3-.25a2.12,2.12,0,0,0,1.25-1.3q1.72-3.78,3.43-7.56c.4-.87.78-1.75,1.17-2.62.06-.13.1-.31.28-.32s.23.19.3.33l4.29,9.74c.18.39.38.77.59,1.14a1.2,1.2,0,0,0,.83.62c.13,0,.29,0,.25.23s-.2.14-.33.15Zm-4.51-8.08c-.58,1.3-1.12,2.47-1.65,3.64-.1.23-.05.33.21.33q1.41,0,2.82,0c.29,0,.31-.11.21-.35-.33-.73-.64-1.46-1-2.18C217.71,133.71,217.52,133.27,217.27,132.71Z" transform="translate(-0.43 -116.52)"/><path class="cls-1" d="M206.87,134.77v-4.28c0-1-.29-1.29-1.27-1.37h-.13c-.1,0-.23,0-.22-.16s.15-.13.25-.14H211l.31,0a.14.14,0,0,1,.15.13c0,.12-.08.14-.17.15h-.18c-1,.08-1.29.38-1.3,1.35q0,4.31,0,8.61c0,1,.31,1.31,1.31,1.4.13,0,.35-.07.33.16s-.2.14-.33.14h-5.57c-.12,0-.31,0-.32-.14s.19-.15.31-.16c1.09-.13,1.31-.37,1.31-1.47v-4.24Z" transform="translate(-0.43 -116.52)"/><path class="cls-1" d="M129.16,140.79h-2.74c-.14,0-.36.06-.36-.14s.22-.15.35-.16c.93-.08,1.25-.37,1.25-1.3q0-4.38,0-8.75c0-1-.32-1.22-1.29-1.32-.13,0-.31,0-.32-.14s.19-.16.31-.16h5.57c.12,0,.31,0,.3.16s-.19.13-.32.15c-1,.09-1.28.36-1.29,1.39v8.61c0,1,.29,1.27,1.29,1.36.12,0,.31,0,.32.14s-.21.16-.34.16Z" transform="translate(-0.43 -116.52)"/><path class="cls-1" d="M207.51,127.61c-.32,0-.46,0-.33-.42.28-.77.52-1.56.77-2.34.08-.24.19-.38.47-.38h2c.09,0,.22,0,.26.09s-.06.15-.12.22l-2.44,2.6A.65.65,0,0,1,207.51,127.61Z" transform="translate(-0.43 -116.52)"/></svg>