<svg id="Logos_Patrocinadores_Web" data-name="Logos Patrocinadores Web" xmlns="http://www.w3.org/2000/svg" viewBox="0 0 300 300"><defs><style>.cls-1{fill:#8f8fa3;}</style></defs><path class="cls-1" d="M42.35,109.38c7.81-.37,17.06,1.29,18.78,6.81,2.82,9-11.49,22.2-24,28.66-3.06,1.59-4.9,2-5.68,1.91a.87.87,0,0,1-.61-1.33c.44-1,2.46-2.89,5.14-5,14-11,18.6-19,15.95-22.26-1.7-2.09-8.8-3.54-16.19-3.54-2,0-7.29.46-7.83-1.38-.42-1.54,6.64-3.53,14.39-3.89M25.83,150.79c6.7-.39,14.83.79,19.4,4.28a8.21,8.21,0,0,1,3,8.59c-2.65,10.4-12.49,23-34.35,32.66-7,3.07-12.43,4.25-13.57,3.42s2.34-7.74,3.42-10a187.34,187.34,0,0,1,12.11-21.14c1.57-2.41,4-6.61,6.17-6.28,2,.3-.33,4.77-1.84,7.6-2.55,4.76-9.52,18-7.21,18.76,5.09,1.76,29-16.43,25.47-26.57-1.63-4.7-12-5.15-18.55-5.15-3,0-9.48.7-9.84-1.58-.38-2.1,9.87-4.21,15.84-4.56"/><path class="cls-1" d="M77.56,139.65c4,.73,7.29,1.29,8,3,.85,1.92-3.54,2-5.75,2.09-10.57.2-17,.41-17.27,4-.41,4.63,4.53,9.28,9.39,15.8,4.46,6,9.51,11.86,8.06,17.34-1.82,6.84-10.2,8.27-18.17,8.28A97.35,97.35,0,0,1,44,188.32c-3.78-.74-3.22-2.61-2.22-3.22s7.57-.69,12.05-.95c3.68-.22,14.38-.22,16-3,2.05-3.35-3-9.1-7.56-15.11-5.72-7.5-12-15.25-8.69-20.9,4.31-7.31,16.93-6.81,24-5.54m164.83,20.51c8.48,0,11.76-2.9,13.1-9.61l2-10.47c.13-.7-.29-.91-.82-.91h-4.1l-1.14,6-.63,3.21-.55,2.77c-.75,3.8-3.21,5.51-7.36,5.51-4.58,0-5.8-1.67-5.09-5.51l.24-1.24.94-4.74,1.14-6H236a1.06,1.06,0,0,0-1.16.91l-2,10.47c-1.37,7.37,2.29,9.61,9.55,9.61ZM98.12,171.51c-.62,2.89,1.64,4.28,6.23,7.13,5,3.12,6.17,3.35,5.71,5-.36,1.32-1.69,1.38-4,1.38H97.17a1.58,1.58,0,0,0-1.79,1.32L95,188.18H106.3c5.17,0,8.4-.32,9.58-3.48a4.3,4.3,0,0,0-.83-4.7,12.32,12.32,0,0,0-3.2-2.31c-6.45-3.65-8.13-4.07-7.72-5.83.22-1,.91-1,3.34-1H115a1.56,1.56,0,0,0,1.78-1.33l.37-1.9h-9.56c-5.42,0-8.67,0-9.5,3.92Zm49.72,0c-.6,2.89,1.66,4.28,6.25,7.13,5,3.12,6.17,3.35,5.7,5-.37,1.32-1.69,1.38-3.94,1.38H146.9a1.57,1.57,0,0,0-1.78,1.32l-.36,1.84H156c5.16,0,8.4-.32,9.56-3.48a4.28,4.28,0,0,0-.81-4.7,12.25,12.25,0,0,0-3.22-2.31c-6.43-3.65-8.12-4.07-7.71-5.83.23-1,.91-1,3.34-1h7.57a1.58,1.58,0,0,0,1.78-1.33l.37-1.9h-9.57c-5.42,0-8.67,0-9.5,3.92Zm126,0c-.62,2.89,1.64,4.28,6.23,7.13,5,3.12,6.17,3.35,5.7,5-.37,1.32-1.68,1.38-3.94,1.38h-8.95a1.57,1.57,0,0,0-1.78,1.32l-.35,1.84h11.27c5.16,0,8.4-.32,9.58-3.48a4.3,4.3,0,0,0-.83-4.7,12.37,12.37,0,0,0-3.21-2.31c-6.44-3.65-8.13-4.07-7.71-5.83.21-1,.91-1,3.34-1h7.56a1.57,1.57,0,0,0,1.78-1.33l.37-1.9h-9.56c-5.42,0-8.68,0-9.5,3.92Zm-74.43-15.27a4.29,4.29,0,0,0-.82-4.71,12.51,12.51,0,0,0-3.21-2.33c-6.44-3.64-8.12-4-7.72-5.81.23-1,.92-1,3.35-1h7.56A1.56,1.56,0,0,0,200.4,141l.37-1.93h-9.56c-5.42,0-8.67,0-9.51,3.92-.61,2.89,1.65,4.29,6.24,7.15,5,3.11,6.17,3.35,5.71,5-.37,1.33-1.69,1.38-4,1.38h-8.94a1.58,1.58,0,0,0-1.79,1.32l-.35,1.84h11.27c5.17,0,8.4-.32,9.58-3.48Zm-24,0a4.29,4.29,0,0,0-.82-4.71,12.51,12.51,0,0,0-3.21-2.33c-6.45-3.64-8.13-4-7.72-5.81.22-1,.91-1,3.34-1h7.55a1.57,1.57,0,0,0,1.8-1.31l.37-1.93h-9.57c-5.43,0-8.67,0-9.5,3.92-.61,2.89,1.65,4.29,6.24,7.15,5,3.11,6.17,3.35,5.7,5-.36,1.33-1.68,1.38-3.94,1.38h-8.94a1.59,1.59,0,0,0-1.8,1.32l-.35,1.84h11.28c5.16,0,8.4-.32,9.57-3.48Zm104.88-17.07c-1,0-1.59.35-1.74,1.11l-.4,2.08h8.08l-3.37,17.35h3.62a1.63,1.63,0,0,0,1.82-1.46l3.09-15.89h6.75c.95,0,1.29-.42,1.46-1.26l.37-1.93Zm-176.17,5.72a.93.93,0,0,0-1,.69l-2.76,14.13H112.6c6.82,0,11.54-2.54,13-10.39,1.1-5.87-1.44-10.15-8.38-10.15H102.52l-.07.27c-.32,1.37-.15,2.9,2.18,2.9h10.69c5.15,0,5.88,2.58,4.85,7.1s-2.77,6.75-6.64,7.1h-7.31l2.26-11.66Zm173.29,12.9c.18-.9-.14-1.25-1-1.25h-11l3.24-16.67a.6.6,0,0,0-.63-.7h-4.39l-4,20.54h17.38Zm-32.81,9.86H240l-9,8-5.9-8h-4.64c-.76,0-1.18.48-1.34,1.31l-3.74,19.22h4a1.33,1.33,0,0,0,1.43-1.18l2.8-14.38,4.53,6.47a1.23,1.23,0,0,0,1.08.64h2.05a1.94,1.94,0,0,0,1.33-.64l7.06-6.47L236.8,187c-.15.76.15,1.18,1,1.18h3.95L245.46,169C245.62,168.13,245.41,167.65,244.63,167.65ZM195.44,169l-3.73,19.22h19l.4-2.06c.17-.84-.05-1.11-1-1.11H197.47l1.08-5.52h11.14a.59.59,0,0,0,.6-.49l.43-2.18a.39.39,0,0,0-.42-.49H199.17l1.06-5.5h12.16c.57,0,1.15,0,1.31-.76l.46-2.42H197a1.44,1.44,0,0,0-1.59,1.31Zm56.34,0L248,188.18h19l.4-2.06c.16-.84,0-1.11-1-1.11h-12.6l1.07-5.52H266a.59.59,0,0,0,.6-.49l.43-2.18a.39.39,0,0,0-.42-.49H255.5l1.06-5.5h12.17c.58,0,1.15,0,1.3-.76l.46-2.42H253.37a1.45,1.45,0,0,0-1.59,1.31ZM138,168.34l-1.81,9.35c-3.18,1-11.43,2.76-10.15-3.85l1.21-6.19h-4.33a1,1,0,0,0-1,.69l-1.1,5.64c-2.08,10.72,8.07,9.26,14.64,7.24l-1.36,7h3.63a1.63,1.63,0,0,0,1.82-1.46l3.7-19.08h-4.39a1,1,0,0,0-.9.7Zm54.21,1.23.37-1.92H172.9c-1,0-1.59.34-1.75,1.11l-.4,2.07h8.07l-3.36,17.35h3.63a1.62,1.62,0,0,0,1.81-1.46l3.09-15.9h6.75c1,0,1.3-.41,1.45-1.25ZM135.6,147.8c.77-4,3.1-5.45,7.26-5.45,4.4,0,5.56,1.66,4.84,5.45l-.24,1.24c-.09.43-.28,1.53-1.43,1.53h-11l.53-2.76Zm-6.2,11.91h3.89l1.12-6h12.1l-1.13,6h3.88a1.05,1.05,0,0,0,1.14-.9l2-10.37c1.49-7.87-2.95-9.54-8.94-9.54-7.17,0-11.28,1.8-12.83,9.54l-2,10.37c-.14.69.27.9.78.9Zm81.66-11.91c.77-4,3.1-5.45,7.26-5.45,4.4,0,5.55,1.66,4.84,5.45l-.24,1.24c-.1.43-.29,1.53-1.42,1.53h-11l.54-2.76Zm-6.2,11.91h3.88l1.14-6H222l-1.13,6h3.88a1.05,1.05,0,0,0,1.14-.9l2-10.37c1.49-7.87-3-9.54-9-9.54-7.16,0-11.26,1.8-12.83,9.54l-2,10.37c-.14.69.26.9.78.9Z"/></svg>