<svg id="Logos_Patrocinadores_Web" data-name="Logos Patrocinadores Web" xmlns="http://www.w3.org/2000/svg" viewBox="0 0 300 300"><defs><style>.cls-1{fill:#8f8fa3;}</style></defs><path class="cls-1" d="M300,168.42c-.22,1.36-.47,2.71-.67,4.07A34.73,34.73,0,0,1,248,198.27c-.51-.28-1-.53-1.92-1,0,1.17,0,2,0,2.8s-.32,1.13-1.15,1.13q-10.23,0-20.47,0c-.91,0-1.3-.32-1.2-1.22a6.26,6.26,0,0,0,0-.75q0-38.85,0-77.71a3.84,3.84,0,0,1,1.24-3q10.08-10,20.09-20.07c.38-.39.78-.75,1.47-1.41V136.2c.8-.37,1.29-.55,1.73-.81a33.9,33.9,0,0,1,17-4.47c17.17-.11,30.19,11.51,33.87,26.63.49,2,.64,4.12,1,6.17a14,14,0,0,0,.38,1.41Zm-19-2A19.64,19.64,0,1,0,261.44,186,19.49,19.49,0,0,0,281,166.44Z"/><path class="cls-1" d="M69.63,152.3v-2.81a43.62,43.62,0,0,0-2.11-14.39c-3.12-9.17-9.47-14.63-19.07-16.12a53.69,53.69,0,0,0-7.27-.57c-5.43-.08-10.87,0-16.3,0-1.81,0-1.82,0-1.82,1.8q0,27.5,0,55a2.25,2.25,0,0,1-1.69,2.51c-6.63,2.57-13.22,5.24-19.83,7.87-.45.17-.92.29-1.57.49V99.56c0-1.87,0-1.87,1.87-1.87,12.26,0,24.51-.12,36.77,0a78.9,78.9,0,0,1,22.9,3.49q23,7.3,28.47,30.74c.31,1.3.52,2.63.82,3.93a2.09,2.09,0,0,1-.87,2.46c-3.15,2.27-6.23,4.64-9.42,6.85s-6.48,4.29-9.73,6.41C70.49,151.83,70.15,152,69.63,152.3Z"/><path class="cls-1" d="M189.07,136.07a7.15,7.15,0,0,0,.13-.76c.12-2.76.12-2.76,2.83-2.76h18.23c1.73,0,1.74,0,1.74,1.75v65.14c0,1.74,0,1.74-1.7,1.74H190.73c-1.5,0-1.5,0-1.51-1.48,0-.68,0-1.36,0-2.26-.6.24-1,.34-1.3.52a34.66,34.66,0,0,1-15.29,4.51,33.16,33.16,0,0,1-27.46-10.84A34.36,34.36,0,0,1,136,171.5c-1.13-9.85.93-18.91,6.91-26.9a32.94,32.94,0,0,1,22.65-13.36,34.74,34.74,0,0,1,22.29,4.26C188.17,135.71,188.57,135.85,189.07,136.07Zm-15,10.89a19.52,19.52,0,1,0,19.6,20A19.5,19.5,0,0,0,174.08,147Z"/><path class="cls-1" d="M126.49,131.24v68.11c0,1.83,0,1.83-1.76,1.83H105.3c-1.58,0-1.59,0-1.59-1.54q0-24.28,0-48.56a2.19,2.19,0,0,1,.77-2q10.62-8.6,21.19-17.25Z"/><path class="cls-1" d="M91.35,158.94c-.34,1.94-.62,3.89-1,5.82a47.14,47.14,0,0,1-8.7,19.6c-6,7.7-13.94,12.31-23.27,14.73a66.44,66.44,0,0,1-16.66,2.09q-20,0-39.94-.07a351.56,351.56,0,0,0,89.18-42.39Z"/><path class="cls-1" d="M103.73,128.7V107h21.66C118.29,114.15,111,121.49,103.73,128.7Z"/></svg>