<svg id="Logos_Patrocinadores_Web" data-name="Logos Patrocinadores Web" xmlns="http://www.w3.org/2000/svg" viewBox="0 0 300 300"><defs><style>.cls-1{fill:#8f8fa3;}</style></defs><path class="cls-1" d="M272.14,170.36c-6-3.31-10.58-5.33-13.67-6-6.68-1.4-13.8-2.36-18.32-2.89V141.4h28.28v7L300,139.94l-31.57-8.46v7H240.15V118.77c4.49-.53,11.63-1.49,18.32-2.89,3.09-.64,7.69-2.66,13.67-6l3.8,5.93,22-24.15-31.15,9.9,3.75,5.86c-5.6,3.09-9.95,5-12.69,5.58-6.45,1.35-13.32,2.28-17.73,2.81v-14.3h-199v13a71.24,71.24,0,0,1-21-6.22C6.36,101.48,2.77,92.14,2.74,92.05L0,93c.15.43,3.94,10.49,18.85,17.94a74.07,74.07,0,0,0,22.33,6.57v20.93H1.37v2.92H41.18v21.32a74.36,74.36,0,0,0-22.33,6.57C3.94,176.75.15,186.81,0,187.23l2.74,1c0-.09,3.53-9.38,17.41-16.32a71.24,71.24,0,0,1,21-6.22v9.95h0v23.85a6.64,6.64,0,1,0,5.14,0V175.63H234.91v23.85a6.63,6.63,0,1,0,5.14,0V175.63h.1v-11.2c4.44.53,11.29,1.46,17.73,2.81,2.74.57,7.09,2.49,12.69,5.58l-3.75,5.86,31.15,9.9-22-24.15ZM46.94,205.6a3.14,3.14,0,1,1-3.14-3.14A3.14,3.14,0,0,1,46.94,205.6Zm55.5-56.06a21.59,21.59,0,0,1-5.23,8.64,17.53,17.53,0,0,1-6.94,3.9,29.79,29.79,0,0,1-8.73,1H63V114.24H81a35.4,35.4,0,0,1,9.3.93,16.43,16.43,0,0,1,7.36,4.5,21.39,21.39,0,0,1,4.67,7.92,36,36,0,0,1,1.6,11.55A32.12,32.12,0,0,1,102.44,149.54ZM143,163.11h-9.87V114.24H143Zm67.72,0H173.58V114.24h36.24v8.27H183.45v10.83H208v8.24H183.45v13.3h27.3Zm29.87,42.49a3.14,3.14,0,1,1-3.14-3.14A3.15,3.15,0,0,1,240.62,205.6Z"/><path class="cls-1" d="M89.94,125.27a9.4,9.4,0,0,0-4.57-2.3,44.93,44.93,0,0,0-8.1-.46H72.84v32.37h7.37a26.85,26.85,0,0,0,6-.47,9.21,9.21,0,0,0,4-2,10.46,10.46,0,0,0,2.58-4.72,31.75,31.75,0,0,0,1-8.95,29.06,29.06,0,0,0-1-8.7A11.3,11.3,0,0,0,89.94,125.27Z"/></svg>