<svg id="Logos_Patrocinadores_Web" data-name="Logos Patrocinadores Web" xmlns="http://www.w3.org/2000/svg" viewBox="0 0 300 300"><defs><style>.cls-1{fill:none;stroke:#8f8fa3;stroke-miterlimit:10;stroke-width:4.25px;}</style></defs><path class="cls-1" d="M107.56,128.26l46.68,87.9S159.12,231,178.78,231h22.74l-47.28-86.42s-11.65-16.32-29.72-16.32Z"/><path class="cls-1" d="M156.93,128.23l46.68,87.9S208.49,231,228.15,231h22.74l-47.28-86.42S192,128.23,173.89,128.23Z"/><path class="cls-1" d="M206,128.26l46.68,87.9S257.53,231,277.19,231h22.74l-47.28-86.42S241,128.26,222.93,128.26Z"/><path class="cls-1" d="M96.31,220.24V109.68s.35-10.77-10.78-10.77-11.92,9.64-11.92,9.64v26.69s-21.72-14.64-46.12-2.59S0,165.62,0,177.08,2.67,209.7,22.8,222.4c11.61,7.32,21.93,10.46,27.52,6.88a25.1,25.1,0,0,0,5.43-5c2.71-3.25,2.87-9,.92-13a7.6,7.6,0,0,0-1.74-2.24l-7.14-4.48-.46-.26-5.16-2.4a18,18,0,0,1-3.83-1.78L33.24,197a12.76,12.76,0,0,1-5.2-6.32l-.32-.86a26.36,26.36,0,0,1-1.65-11.08l.14-2a19.68,19.68,0,0,1,5.33-12.19L32,164a25.79,25.79,0,0,1,13.67-7.56,18.9,18.9,0,0,1,4.75-.3l2.32.11a15.61,15.61,0,0,1,7.3,2.25l.82.5a22,22,0,0,1,10.19,14.65l.72,3.75v44.14S72.53,231,84.43,231,96.31,220.24,96.31,220.24Z"/><rect class="cls-1" x="73.4" y="68.14" width="23.21" height="23.21" rx="1.08" transform="translate(1.1 -1.16) rotate(0.78)"/></svg>