<svg id="Logos_Patrocinadores_Web" data-name="Logos Patrocinadores Web" xmlns="http://www.w3.org/2000/svg" viewBox="0 0 300 300"><defs><style>.cls-1{fill:#8f8fa3;fill-rule:evenodd;}</style></defs><path class="cls-1" d="M50.25,283.53c-.5,5-1,9.91-1.49,14.92H47c1-6.87,1.93-13.71,2.93-20.74a4.64,4.64,0,0,1,.5.62c.52,1,1,2,1.53,3q3.15,6,6.32,12c.13.25.29.47.54.86.25-.41.45-.7.61-1q3.53-6.48,7-13c.33-.61.66-1.22,1-1.82a7.13,7.13,0,0,1,.52-.69c.82,7.05,1.61,13.88,2.41,20.83H67.88c-.48-5-.95-10-1.42-15l-.22-.07a3.27,3.27,0,0,0-.41.51c-2.43,4.46-4.94,8.88-7,13.52-.14.31-.3.62-.5,1.05a7.62,7.62,0,0,1-.43-.68L51,284.21C50.82,284,50.79,283.58,50.25,283.53Z"/><path class="cls-1" d="M0,278.06H1.09L8.55,278a13.7,13.7,0,0,1,4.84.67,7.29,7.29,0,0,1,4.82,5.06,13.83,13.83,0,0,1,.32,6.55,9.5,9.5,0,0,1-8.07,7.81,16.43,16.43,0,0,1-2.62.21c-2.37,0-4.73,0-7.1,0-.21,0-.42,0-.73-.06C.29,291.51.29,284.85,0,278.06Zm2.71,19.07a20.13,20.13,0,0,0,6.28.11,7.44,7.44,0,0,0,6.54-5.85,14.14,14.14,0,0,0,.11-6.75A6.4,6.4,0,0,0,10,279.32a25.65,25.65,0,0,0-5.47-.11c-.56,0-1.11.15-1.79.24C2.45,285.34,2.47,291.19,2.71,297.13Z"/><path class="cls-1" d="M124.44,299a15.59,15.59,0,0,1-4.3-.63,9.21,9.21,0,0,1-6.67-7.49,12.46,12.46,0,0,1,.06-5.16,9.32,9.32,0,0,1,6.78-7.31,14,14,0,0,1,8.19,0,9.62,9.62,0,0,1,7,8.92,12.3,12.3,0,0,1-.45,4.67,9.32,9.32,0,0,1-7.71,6.69C126.39,298.86,125.41,298.9,124.44,299Zm8.33-11.1a23.34,23.34,0,0,0-.42-2.85c-.74-3-2.47-5.16-5.57-5.92a10.33,10.33,0,0,0-3.18-.27,7.21,7.21,0,0,0-6.68,4.76,13.17,13.17,0,0,0,0,9.78,6.79,6.79,0,0,0,5,4.34,10.63,10.63,0,0,0,3.08.27,7.28,7.28,0,0,0,6.63-4.26A13.35,13.35,0,0,0,132.77,287.9Z"/><path class="cls-1" d="M32.93,299a14.43,14.43,0,0,1-4.83-.83A9.22,9.22,0,0,1,22,290.54a12.45,12.45,0,0,1,.12-4.79,9.28,9.28,0,0,1,6.74-7.33,14.07,14.07,0,0,1,8.47.07A9.55,9.55,0,0,1,44,287.3a12.84,12.84,0,0,1-.33,4.32,9.3,9.3,0,0,1-7.78,7.06C35,298.87,33.93,298.9,32.93,299Zm-8.36-10.61a28.64,28.64,0,0,0,.36,3.09c.66,3.13,2.34,5.43,5.57,6.26a11.47,11.47,0,0,0,2.81.29,7.41,7.41,0,0,0,7.35-5.3,13.55,13.55,0,0,0,0-8.56,7.14,7.14,0,0,0-5.38-5.06,10.65,10.65,0,0,0-3.28-.24,7.31,7.31,0,0,0-6.59,4.89A14,14,0,0,0,24.57,288.39Z"/><path class="cls-1" d="M99.24,293.65c0-5.06.07-10.12-.21-15.25h1.72c-.11,3.38-.28,6.8-.34,10.21s0,6.8,0,10.23c-.41.1-.55-.25-.75-.46-2.87-3.14-5.73-6.3-8.61-9.43-1.69-1.84-3.41-3.64-5.11-5.46a4.18,4.18,0,0,0-.75-.77,8.32,8.32,0,0,0-.28,2.63c0,.85,0,1.7,0,2.56s0,1.76,0,2.65,0,1.76,0,2.64,0,1.71,0,2.56.08,1.75.13,2.69H83.15a198.26,198.26,0,0,0,.53-20.54l.2-.1a8.8,8.8,0,0,1,.72.65c1.89,2,3.76,4.08,5.66,6.11,2.65,2.83,5.32,5.64,8,8.46.24.25.5.47.74.71Z"/><path class="cls-1" d="M278.22,279.5c-.24.79-.45,1.47-.7,2.27-.32-.27-.55-.46-.78-.67a9.44,9.44,0,0,0-10.43-1.3,7.43,7.43,0,0,0-3.8,4.62,12.6,12.6,0,0,0,.1,8.18c1.19,3.3,3.7,4.9,7.09,5.23a12.33,12.33,0,0,0,4.87-.4c1.16-.34,1.19-.37,1.19-1.55,0-1.83,0-3.66,0-5.49v-1h2.4v8.18a9.35,9.35,0,0,1-2.8.81,25.15,25.15,0,0,1-6.3.51,13.37,13.37,0,0,1-4-.82,9,9,0,0,1-5.79-7.36,12.71,12.71,0,0,1,.07-4.8,9.23,9.23,0,0,1,6.68-7.38,16.44,16.44,0,0,1,11.29.54C277.62,279.19,277.89,279.34,278.22,279.5Z"/><path class="cls-1" d="M146.66,297.57V279.26h.93c2.15,0,4.29-.07,6.43,0a18.3,18.3,0,0,1,3.48.27,6.69,6.69,0,0,1,5.58,5.24,12.7,12.7,0,0,1,.2,5.62,8.64,8.64,0,0,1-7.48,7,20.6,20.6,0,0,1-2.72.19C151,297.58,148.85,297.57,146.66,297.57Zm2.32-1.11a5.53,5.53,0,0,0,1,.21,37.65,37.65,0,0,0,4.25,0,6.86,6.86,0,0,0,6.41-5.74,12.84,12.84,0,0,0,0-5.72,5.8,5.8,0,0,0-5.06-4.82,16.44,16.44,0,0,0-4.43-.13l-2.2.23A154.87,154.87,0,0,0,149,296.46Z"/><path class="cls-1" d="M283.12,298.51h-1.85c.1-.3.15-.53.25-.75q4.31-9.61,8.63-19.24a2.41,2.41,0,0,1,.25-.51c.2-.25.44-.26.6,0a8.06,8.06,0,0,1,.42.95q3.58,8.44,7.19,16.88c.35.83.74,1.65,1.16,2.57h-2.86a2.83,2.83,0,0,1-.22-.43c-.88-2.2-1.75-4.39-2.6-6.6a1.05,1.05,0,0,0-1.1-.8q-3,0-6.06,0a1,1,0,0,0-1.11.78C285,293.74,284.06,296.06,283.12,298.51Zm3.57-9.19a22.15,22.15,0,0,0,6.63-.11c-1.08-2.43-2.14-4.86-3.21-7.29h-.23C288.82,284.36,287.78,286.8,286.69,289.32Z"/><path class="cls-1" d="M239.61,278.36h1.92l-8.47,20.11h-1.81c-2.72-6.65-5.45-13.33-8.21-20.11h2.85c1.08,2.87,2.13,5.79,3.27,8.68s2.26,5.78,3.64,8.6C235.41,290,237.47,284.17,239.61,278.36Z"/><path class="cls-1" d="M245.08,278.32h10.4v1.48c-2.55,0-5.08-.42-7.73-.21-.21,2.55-.1,5.06-.1,7.65a15.48,15.48,0,0,0,3.6,0c1.16,0,2.32-.08,3.53-.13v1.52c-1.16.12-2.34-.18-3.52-.14s-2.32,0-3.45,0a57.93,57.93,0,0,0,0,8.85,26.71,26.71,0,0,0,3.9,0c1.29-.06,2.57-.16,3.92-.25v1.36H245.08C245.38,291.75,245.38,285.08,245.08,278.32Z"/><path class="cls-1" d="M216.3,297.5h-2.57c-.47-1.19-.95-2.41-1.44-3.63-.38-1-.79-1.93-1.16-2.9a.81.81,0,0,0-.85-.58c-1.89,0-3.78,0-5.67,0a.84.84,0,0,0-.89.66c-.69,1.86-1.39,3.71-2.09,5.57-.11.29-.21.58-.32.9h-1.7a6.36,6.36,0,0,1,.25-.74q3.84-8.58,7.69-17.15a1,1,0,0,1,.12-.26c.12-.17.27-.32.4-.48.17.17.4.3.48.5.81,1.88,1.57,3.78,2.38,5.66,1.7,4,3.43,7.92,5.15,11.88C216.15,297.09,216.21,297.27,216.3,297.5Zm-8.76-15.06a39.86,39.86,0,0,0-2.86,6.78,24,24,0,0,0,5.79-.1C209.53,286.9,208.58,284.7,207.54,282.44Z"/><path class="cls-1" d="M174.47,287.22v1.33h-6.31a33.24,33.24,0,0,0,0,7.92,44,44,0,0,0,7.06-.23v1.26h-9.46c-.16-2,.16-4,.13-6s0-4,0-6.06-.12-4-.19-6.13H175c0,.2.05.4.07.61s0,.38,0,.68c-.79,0-1.53-.06-2.27-.11s-1.57-.12-2.36-.15-1.5,0-2.32,0a42.79,42.79,0,0,0-.17,7A50.1,50.1,0,0,0,174.47,287.22Z"/><path class="cls-1" d="M109.14,298.48h-2.62V278.39h2.61C108.89,285,108.86,291.73,109.14,298.48Z"/><path class="cls-1" d="M77.56,278.37c-.3,6.73-.32,13.37,0,20.08H74.92V278.37Z"/><path class="cls-1" d="M188,297.48V279.32h2.3v17.11a42.28,42.28,0,0,0,7.29-.2v1.25Z"/><path class="cls-1" d="M148.07,123.16H34.19v-3.48l2.72-.69A1108.14,1108.14,0,0,0,37.42,1.42a19.91,19.91,0,0,1,2.28-.24c15.46.2,30.93.26,46.38.7,8.08.24,16.23.43,24.12,2.67,17.86,5.05,30.48,15.76,36.54,33.61a9.27,9.27,0,0,0,.41,1.08c.08.14.29.21.85.61.22-12.94,0-25.6.14-38.49l3.31-.25c.11,1.55.29,2.94.29,4.33q0,54.66,0,109.32c0,1.43.12,2.85.2,4.62H265.58v3.35c-1.79.26-2.56,1.66-3.23,3.18-8.56,19.55-17.4,39-25.63,58.67-7.44,17.81-14.23,35.9-21.3,53.86-.32.8-.63,1.61-.93,2.36H200.71c-.11-.26-.39-.76-.57-1.28-8.68-25.42-18.71-50.32-28.82-75.18-5.27-13-11-25.73-16.64-38.56-.46-1-.61-2.55-2.68-2.5-.55,6.54-.17,13.07-.24,19.59s0,13.14,0,19.72v78.78h-3.66V162.86C148.08,149.74,148.1,136.63,148.07,123.16ZM55.85,10.22c-.08,1-.19,1.9-.21,2.75-.3,16.13-.7,32.26-.86,48.4-.1,10.43.14,20.87.24,31.3.06,6,.12,12,.22,18,0,3.21.22,3.34,3.48,3.57,1.16.08,2.32.09,3.47.19,10.73.86,21.42.79,32-1.31,16.06-3.17,27-12.53,32.46-27.83,4.89-13.61,5.18-27.62,1.94-41.68-3.5-15.17-14.16-30.24-37.75-33.31-10.66-1.4-21.4-1.13-32.12-.55A25.69,25.69,0,0,0,55.85,10.22ZM175.34,123.29c1,9.81,32.34,92.17,37.35,98.24.51-1,1-1.88,1.41-2.81,5-12.24,10.14-24.43,15-36.74,7.16-18.24,13.88-36.64,19.13-55.54.27-1,.42-2,.66-3.15Zm-27.4-44.13-.6-.18c-.37,1-.76,2.09-1.09,3.14a53.69,53.69,0,0,1-12.19,20.81,59.87,59.87,0,0,1-21.68,14.58c-.91.36-1.8.78-2.69,1.17.06.24.13.48.19.72h19c3.18,0,6.37,0,9.56,0s6.29.26,9.5-.24Z"/></svg>