<svg id="Logos_Patrocinadores_Web" data-name="Logos Patrocinadores Web" xmlns="http://www.w3.org/2000/svg" viewBox="0 0 300 300"><defs><style>.cls-1{fill:#8f8fa3;}</style></defs><path class="cls-1" d="M135.27,153.88c3.19,1.65,3.95,4.49,4.1,7.6.09,2,0,3.94,0,5.9.06,2.21.2,4.41.31,6.8-1.72,0-3.61,0-5.5,0a1.27,1.27,0,0,1-.91-.79,12.8,12.8,0,0,1-.35-2.76c0-2.69,0-5.38,0-8.07a12,12,0,0,0-.27-2.46,3.32,3.32,0,0,0-3.22-2.85c-1-.1-2,0-3.08,0v16.89H120V132.72a3.84,3.84,0,0,1,.83-.18c3.36,0,6.73-.07,10.09.07,5.26.21,7.77,2.5,8.34,7.71a33.68,33.68,0,0,1,0,6.66C139,150.35,138.2,151.46,135.27,153.88Zm-8.84-15.44v12.82c1.14,0,2.17.08,3.19,0,1.52-.13,2.85-.88,3-2.46a58.34,58.34,0,0,0,0-8.15c-.1-1.41-1.14-2.09-2.6-2.18C128.84,138.39,127.7,138.44,126.43,138.44Z"/><path class="cls-1" d="M72,174.07V132.72a4.71,4.71,0,0,1,.91-.18c3.41,0,6.83-.08,10.24.06,5.46.23,8.54,3.39,8.71,8.89.11,3.72.05,7.45.05,11.18s0,7.34,0,11a18.37,18.37,0,0,1-.15,2.78c-.77,4.65-3.19,7.11-7.9,7.51-3.6.31-7.24.16-10.86.2A8.66,8.66,0,0,1,72,174.07Zm6.47-35.63v29.77c.51,0,.91.1,1.31.1a23.58,23.58,0,0,0,2.79-.08,2.88,2.88,0,0,0,2.8-2.8,14.46,14.46,0,0,0,.07-1.86q0-10.24,0-20.5a13.47,13.47,0,0,0-.09-2,2.79,2.79,0,0,0-2.81-2.6C81.25,138.38,80,138.44,78.46,138.44Z"/><path class="cls-1" d="M115.48,153.43c0,3.62,0,7.25,0,10.87a17.67,17.67,0,0,1-.31,3.08,8.37,8.37,0,0,1-7.73,7.12,15.39,15.39,0,0,1-4.18-.09c-4.7-.81-7.42-4-7.52-9.21q-.24-11.88,0-23.77c.09-4.75,2.45-7.82,6.35-8.93a12.71,12.71,0,0,1,7.05,0c3.91,1.13,6.22,4.34,6.32,9,.09,4,0,8,0,12Zm-6.47-.14c0-3.68,0-7.35,0-11a7.42,7.42,0,0,0-.23-2,3.34,3.34,0,0,0-6.39,0,6.38,6.38,0,0,0-.25,1.68q0,11.34,0,22.67a6.7,6.7,0,0,0,.27,1.83,3.36,3.36,0,0,0,6.35,0,8.14,8.14,0,0,0,.25-2.14C109,160.64,109,157,109,153.29Z"/><path class="cls-1" d="M149.66,121.51H136.88v-4.93h17.85V190H136.9v-4.89h12.76Z"/><path class="cls-1" d="M0,116.55H17.81v5H5v63.54h12.8V190H0Z"/><path class="cls-1" d="M44.22,158.4v15.7H37.88V132.7a3.66,3.66,0,0,1,.74-.16c3.26,0,6.53-.07,9.78.07,4.9.2,7.85,2.58,8.4,7.44a50.23,50.23,0,0,1-.12,11.43c-.51,4.27-3.6,6.68-7.9,6.9C47.34,158.46,45.9,158.4,44.22,158.4Zm.11-5.84c1.23,0,2.31,0,3.38,0,1.65-.07,2.72-.9,2.79-2.54.13-3,.11-6,0-9a2.38,2.38,0,0,0-2.13-2.49c-1.32-.13-2.65,0-4.05,0Z"/><path class="cls-1" d="M22.35,155.88v12.41H33.52v5.81H15.87V132.65H33.5v5.69H22.4V150h8.75v5.84Z"/><path class="cls-1" d="M60.62,132.6h6.24v41.49H60.62Z"/><path class="cls-1" d="M165.55,173.73a4.53,4.53,0,0,1,.84-.32c1.71-.29,1.74-.28,1.76-2q.06-5.51.07-11c0-1.61-.12-1.72-1.7-2a6.61,6.61,0,0,1-1-.29l.06-.39a3.87,3.87,0,0,1,.82-.12c2.79.07,5.59,0,8.36.27a7.15,7.15,0,0,1,6.87,7.25c.13,4.81-2.22,8.06-6.46,8.86a15.69,15.69,0,0,1-2.47.27c-2.36,0-4.72,0-7.09,0Zm5-.46a28.6,28.6,0,0,0,3.71,0,4.74,4.74,0,0,0,4.37-4.16,20.6,20.6,0,0,0,.29-4.15c-.18-4.83-3.44-7.3-8.37-6.31Z"/><path class="cls-1" d="M204.18,131.78H208v7.41c.85-.42,1.47-.76,2.11-1,3.39-1.52,5.36-.25,5.34,3.44,0,1.5,0,3-.05,4.5-.07,1.34,0,2.49,1.77,2.81a13,13,0,0,1-5.34,0c1.66-.42,1.63-1.6,1.58-2.83,0-1.5,0-3,0-4.5a2.29,2.29,0,0,0-1.38-2.39c-1-.37-3.11,0-3.65.74a2.06,2.06,0,0,0-.29,1.14c0,1.82,0,3.63,0,5.44,0,1.63,0,1.63,1.49,2.21-.83.58-3.82.67-5.51.09a7.14,7.14,0,0,1,.88-.35A1.26,1.26,0,0,0,206,147c0-4.3-.06-8.6,0-12.89,0-1.46-1.13-1.5-1.93-2Z"/><path class="cls-1" d="M228,157h3.89v7c.65-.36,1.06-.6,1.49-.81A4.57,4.57,0,0,1,240,166a9,9,0,0,1,.21,4c-.77,4.12-4.33,5.79-8.1,4l-.7-.35L230,174.76c0-.67-.09-1.11-.09-1.55,0-4.44,0-8.89.05-13.34,0-1.26-.23-2.13-1.62-2.31-.08,0-.14-.12-.2-.2A1.55,1.55,0,0,1,228,157Zm4,11.38h0c0,.82,0,1.65,0,2.48a3,3,0,0,0,2.45,3.09,2.89,2.89,0,0,0,3.22-2.1,8.6,8.6,0,0,0,.22-5.33,4.69,4.69,0,0,0-1.08-1.84c-1-1.06-2.29-1-3.6-.52s-1.25,1.46-1.2,2.51C232,167.21,232,167.78,232,168.35Z"/><path class="cls-1" d="M171.65,133.43c-2.63-.4-3.64.15-4.57,2.33-.26.62-.53,1.23-.8,1.84l-.38-.11v-4.93h13.9c.08,1.74.15,3.34.22,4.95l-.51.13c-.24-.54-.51-1.07-.72-1.63-.91-2.34-2-3-4.72-2.59,0,.47-.09,1-.09,1.47,0,3.67,0,7.35,0,11,0,2,0,2,1.95,2.38a3.06,3.06,0,0,1,.59.17c.08,0,.12.16.18.24-.93.47-6.21.54-7.81-.17a14.62,14.62,0,0,1,1.46-.32c.76-.09,1.33-.38,1.34-1.21C171.66,142.51,171.65,138,171.65,133.43Z"/><path class="cls-1" d="M287.14,163.17h3.48l.27,1.38a27.31,27.31,0,0,1,2.73-1.26c2.86-1,4.55.23,4.59,3.25,0,1.55,0,3.1,0,4.65,0,2.24,0,2.24,1.79,3.25h-5.34c0-.09,0-.27,0-.27,1.29-.32,1.58-1.18,1.51-2.4-.1-1.65,0-3.31-.05-5a2,2,0,0,0-1.51-2.24c-1.13-.3-3.15.15-3.6.91a2.56,2.56,0,0,0-.22,1.19c0,1.65.06,3.31,0,5-.07,1.25.05,2.28,1.5,2.79H287c.05-.18.08-.34.12-.35,1.36-.16,1.73-1,1.65-2.25-.1-1.54,0-3.1,0-4.65s.47-3.2-1.93-3.63Z"/><path class="cls-1" d="M224.45,148.94a13,13,0,0,1-5.52,0c1.83-.33,1.85-1.55,1.8-2.91-.06-1.55,0-3.1,0-4.66,0-1.36.4-3-2-3.21,1.34-.63,2.52-.39,3.78-.51l.26,1.42a1.13,1.13,0,0,0,.41,0,20,20,0,0,1,3-1.3c2.34-.63,3.85.55,3.94,3,0,1.65,0,3.31,0,5,0,1.36-.6,3.12,2.18,2.94a7.93,7.93,0,0,1-6,.13c2-.17,1.81-1.5,1.77-2.79,0-1.6,0-3.2-.05-4.81a2,2,0,0,0-1.59-2c-1.14-.26-3.21.31-3.57,1a2.6,2.6,0,0,0-.15,1c0,1.56,0,3.11,0,4.66C222.75,147.12,222.26,148.63,224.45,148.94Z"/><path class="cls-1" d="M249.57,163.05l3.88-.24v6.94c0,.63,0,1.25,0,1.87-.1,1.19,0,2.18,1.56,2.25.09,0,.18.21.41.5h-3.83l-.36-1.07-.57.21a18.15,18.15,0,0,1-3.51,1.07,2.49,2.49,0,0,1-3-2.58c-.14-2-.07-4-.09-6.05s0-1.89-2-2.61c1.37-.74,2.61-.41,4-.48,0,1.67,0,3.25,0,4.83,0,1.19,0,2.38.13,3.56a1.83,1.83,0,0,0,1.6,1.83,3.84,3.84,0,0,0,3.37-.73c.23-.2.2-.76.21-1.16,0-1.71,0-3.41,0-5.12,0-2,0-2-1.79-2.59Z"/><path class="cls-1" d="M259.64,142.54c.08-1.44.25-2.81-1-3.79-.69-.54-1.76-.42-3,.23a3.54,3.54,0,0,1,.09,1.29,2,2,0,0,1-.8,1.19,1.29,1.29,0,0,1-1.22-.26,1.6,1.6,0,0,1-.3-1.38,3.22,3.22,0,0,1,1.29-1.44,5.94,5.94,0,0,1,5-.36,3.21,3.21,0,0,1,2.06,3.32c0,1.66,0,3.31,0,5,0,2,0,2,1.88,2.4-1.6,1.35-3.12,1-3.94-.76a19.2,19.2,0,0,1-3.47,1.45,2.65,2.65,0,0,1-3.28-1.66,2.9,2.9,0,0,1,1.84-3.64c1.08-.47,2.24-.76,3.37-1.13C258.63,142.82,259.12,142.69,259.64,142.54Zm.05.72a30.9,30.9,0,0,0-3.13.92,2.21,2.21,0,0,0-1.2,3.17c.56,1,1.92,1.15,3.14.43C260.33,146.7,259.56,145,259.69,143.26Z"/><path class="cls-1" d="M284.78,168.78c0,3.58-2.36,6-5.7,6s-5.68-2.46-5.6-6.05,2.4-6,5.77-5.93S284.81,165.24,284.78,168.78Zm-2.11,0a18.21,18.21,0,0,0-1-3.62,2.82,2.82,0,0,0-5-.17,8.25,8.25,0,0,0,0,7.61,2.73,2.73,0,0,0,2.85,1.48,2.47,2.47,0,0,0,2.34-1.73A34,34,0,0,0,282.67,168.74Z"/><path class="cls-1" d="M182.88,142.83c-.14,2,.23,3.65,1.78,4.63,2.29,1.46,4.07.14,5.89-1.26a2.15,2.15,0,0,1-.15.63,5.15,5.15,0,0,1-5.3,2.45,4.73,4.73,0,0,1-4.26-3.92,10.87,10.87,0,0,1,0-4,5.13,5.13,0,0,1,5.66-4c2.71.37,4.15,2.74,4,5.45Zm5.38-.7c.16-1.47.07-2.72-1.1-3.6a2.21,2.21,0,0,0-2.61-.11,3.73,3.73,0,0,0-1.61,3.71Z"/><path class="cls-1" d="M198.8,166c-.31-.42-.62-.85-.94-1.26a2.84,2.84,0,0,0-2.42-1.43,1.84,1.84,0,0,0-1.86,1.36,1.58,1.58,0,0,0,1,2c.79.37,1.63.62,2.45.92,2.43.86,3.21,2.15,2.61,4.32-.52,1.92-2.48,2.93-4.69,2.48-1-.2-2-1.12-3.12.46v-4.43c.55.6.92,1,1.24,1.36.79,1,1.59,1.93,3,2a1.87,1.87,0,0,0,2.13-1.4,1.76,1.76,0,0,0-1.14-2.25c-.86-.36-1.74-.64-2.61-1-2.2-.84-2.87-1.87-2.49-3.82a3.59,3.59,0,0,1,3.78-2.78c.51,0,1,.2,1.52.24s1.2,0,1.9,0v3Z"/><path class="cls-1" d="M264.77,131.94l3.88-.18v1.75q0,6.13,0,12.26c0,2.32,0,2.32,2,3.46h-5.8c0-.09,0-.27,0-.27,1.79-.3,1.81-1.56,1.78-3-.05-3.46,0-6.93,0-10.39,0-2.34,0-2.34-1.81-3.29Z"/><path class="cls-1" d="M203.48,164l-2.07-.3-.06-.31,2.07-.71c.47-1.35-.77-3.67,2.17-3.8v4h3.6l.08.5c-.94,1-2.44,0-3.67.72,0,2.52-.08,5.14,0,7.75.06,1.36,1.38,1.82,2.52,1a12.81,12.81,0,0,0,1-.83,2.83,2.83,0,0,1-5.31,1.08,6.57,6.57,0,0,1-.32-2.12C203.46,168.64,203.48,166.33,203.48,164Z"/><path class="cls-1" d="M200.44,138.83c-2-1.26-4-.74-4.9,1.31a6.93,6.93,0,0,0-.12,5.29,3.72,3.72,0,0,0,5.83,1.8,3.22,3.22,0,0,1,1.31-.65,3,3,0,0,1-.36.82,5,5,0,0,1-5.1,1.87,4.84,4.84,0,0,1-3.91-3.54c-1.26-3.91.85-7.84,4.6-8.24a6.85,6.85,0,0,1,3.38.73,3.1,3.1,0,0,1,1.18,1.84,1.46,1.46,0,0,1-.67,1.22,1.5,1.5,0,0,1-1.38-.15,2,2,0,0,1-.28-1.38A2.61,2.61,0,0,1,200.44,138.83Z"/><path class="cls-1" d="M260.62,163.89c0,2.83-.05,5.35,0,7.87a1.88,1.88,0,0,0,.91,1.45,3.31,3.31,0,0,0,1.83-.37c.29-.11.51-.45.84-.76a2.49,2.49,0,0,1-2.22,2.54c-1.62.29-2.79-.19-3.18-1.48a8,8,0,0,1-.3-2.29c0-2.21,0-4.43,0-6.73l-2-.22-.07-.32,2-.73c.58-1.28-.76-3.59,2.12-3.81v3.65c1.23.84,2.74-.19,3.75.75l-.06.45Z"/><path class="cls-1" d="M248.76,139a3.17,3.17,0,0,0-5,1.53,7.3,7.3,0,0,0-.08,4.86,3.73,3.73,0,0,0,6,1.94l1.06-.73.31.3a13.38,13.38,0,0,1-1.19,1.39,5.14,5.14,0,0,1-7.86-1.38,6.53,6.53,0,0,1,.38-7,5.26,5.26,0,0,1,6.59-1.83,4.22,4.22,0,0,1,1.68,1.86c.17.36-.21,1.19-.59,1.56a1.37,1.37,0,0,1-1.36-.16,2.43,2.43,0,0,1-.27-1.53C248.35,139.51,248.62,139.25,248.76,139Z"/><path class="cls-1" d="M211.06,162.88h3.7l.2,1.49a7.24,7.24,0,0,1,1.43-1,7,7,0,0,1,2.49-.5,1.26,1.26,0,0,1,1.13,1.57,1.92,1.92,0,0,1-1,1.3c-.79.24-1.37-.26-1.51-1.13a2.58,2.58,0,0,0-.13-.42c-1.83.21-2.42.8-2.43,2.46s0,3.41,0,5.11c-.05,1.18.25,1.91,1.55,1.94.16,0,.32.14.46.41a33.63,33.63,0,0,1-5.84.2l0-.41a8,8,0,0,1,.78-.27,1.17,1.17,0,0,0,1-1.3c0-2.43,0-4.85,0-7.28a1.22,1.22,0,0,0-1-1.37,6.28,6.28,0,0,1-.88-.4Z"/><path class="cls-1" d="M233.73,137.88h3.85c0,.61,0,1.36,0,2.11,0,2.22,0,4.44,0,6.66,0,1.1.08,2,1.49,2,.13,0,.26.15.43.25-1.06.6-4.57.64-5.78.13,0-.05,0-.14,0-.14,1.95-.3,1.86-1.71,1.8-3.18s-.07-3,0-4.48,0-2.7-2-2.86Z"/><path class="cls-1" d="M266,174.43c.06-.22.07-.4.11-.4,1.72-.24,1.79-1.42,1.72-2.8s0-3,0-4.49c0-2.27,0-2.27-2-3.57h4v4.52c0,1.45,0,2.89,0,4.34-.05,1,.13,1.73,1.31,1.82.2,0,.37.23.48.58Z"/><path class="cls-1" d="M184.13,162.82h3.65c0,.42.09.86.09,1.3,0,2.42,0,4.85,0,7.27,0,1.2.06,2.18,1.56,2.28.08,0,.16.12.22.19s0,.1,0,.27H184a2.39,2.39,0,0,0,0-.26c1.87-.39,1.91-1.73,1.81-3.25s0-2.78,0-4.18C185.81,164.19,185.8,164.19,184.13,162.82Z"/><path class="cls-1" d="M221.41,163h3.87v4.09l0,4.19c0,2,0,2,1.73,2.67-.84.61-4.2.65-5.42.06,1.68-.83,1.69-.83,1.71-3,0-1.7,0-3.41,0-5.12,0-1.2-.13-2.17-1.58-2.35C221.64,163.52,221.59,163.29,221.41,163Z"/><path class="cls-1" d="M235.16,133.2a1.37,1.37,0,1,1,2.74.08,1.41,1.41,0,0,1-1.51,1.41A1.33,1.33,0,0,1,235.16,133.2Z"/><path class="cls-1" d="M268.71,159.93a1.3,1.3,0,0,1-1.2-1.39,1.37,1.37,0,0,1,1.42-1.48,1.27,1.27,0,0,1,1.32,1.39A1.39,1.39,0,0,1,268.71,159.93Z"/><path class="cls-1" d="M186.75,159.64a1.25,1.25,0,0,1-1.29-1.3,1.32,1.32,0,0,1,1.32-1.54,1.25,1.25,0,0,1,1.41,1.29A1.38,1.38,0,0,1,186.75,159.64Z"/><path class="cls-1" d="M224.29,156.89a1.27,1.27,0,0,1,1.33,1.3,1.31,1.31,0,0,1-1.3,1.55,1.27,1.27,0,0,1-1.44-1.26A1.43,1.43,0,0,1,224.29,156.89Z"/></svg>