<svg id="Logos_Patrocinadores_Web" data-name="Logos Patrocinadores Web" xmlns="http://www.w3.org/2000/svg" viewBox="0 0 300 300"><defs><style>.cls-1{fill:#8f8fa3;}</style></defs><path class="cls-1" d="M43.46,110.61a43.12,43.12,0,1,0,42.8,43.16A43.17,43.17,0,0,0,43.46,110.61Zm3,63.74c-1,1.47-2,2.94-3.14,4.34-.44.56-1.17.45-1.66-.17-1-1.21-1.92-2.44-2.79-3.72-.65-1-.56-1.32.34-2s2.16-1.61,3.34-2.49c1.25,1,2.46,1.86,3.64,2.78A.92.92,0,0,1,46.42,174.35Zm-4.52-5V166l1.2.14v3.18Zm32.67,6.55c-3.4,0-6.79,0-10.19,0a2.9,2.9,0,0,1-2.21-.89A40,40,0,0,0,50.39,167a19.31,19.31,0,0,0-17.21.66,41,41,0,0,0-10.54,7.61A2.19,2.19,0,0,1,21,176c-3.56,0-7.12,0-10.67,0-.19,0-.37,0-.86-.1L42.53,140l32.94,35.75A6.61,6.61,0,0,1,74.57,175.93Zm2.47-.75L42.5,132,7.91,174.9C8,174,41.14,119.54,42.6,117.79Q60,146.46,77.31,175Z"/><path class="cls-1" d="M296.81,172.24c0,4.16,0,8.31,0,12.48a1.93,1.93,0,0,0,0,.24,1.07,1.07,0,0,1-.23.9l-.06-.08a4,4,0,0,1-.36-.55l-1.62-3.48-1-2.05-.71-1.52c-1.64-3.51-3.27-7-4.93-10.52-.13-.28-.49-.81-.89-.83-.75-.05-1.5,0-2.24,0h-1.05v22.63h2.52v-8.55c0-1.45,0-2.95,0-4.43,0-.53,0-1,0-1.58a23.64,23.64,0,0,1,.21-4.27,2.08,2.08,0,0,1,.46.62l6.15,13.13,1.26,2.7c.95,2,1.22,2.53,2.64,2.53.42,0,.94,0,1.6-.1l.24-.06.24-.08.16-.05V166.88h-2.45Z"/><path class="cls-1" d="M135.72,161.1h3.52V139.71h-2.33v8.08c0,1.39,0,2.77,0,4.16v1.33a26.89,26.89,0,0,1-.19,4.19,2.32,2.32,0,0,1-.54-.7c-1-2.06-1.92-4.11-2.88-6.17l-5.09-10.9h-3.54v21.38h2.39V144.23c0-.27,0-.55.09-.85l0-.18h0c2.58,5.37,5.13,10.75,7.7,16.14Z"/><path class="cls-1" d="M196,161.13a9.81,9.81,0,0,0,1.21.06H199V139.72h-2.31V151.9c0,.81,0,1.65,0,2.47,0,.37,0,.74,0,1.11a8,8,0,0,1-.11,2.14h0c-2.89-5.91-5.74-11.82-8.61-17.76l-.06-.13h-3.48V161.1h2.4V148.88c0-.81,0-1.62,0-2.43,0-.23,0-.47,0-.7a11.7,11.7,0,0,1,.17-2.42,1.88,1.88,0,0,1,.41.56c1.14,2.42,2.27,4.84,3.41,7.27l1.39,3c.93,2,1.9,4.07,2.87,6.09C195.17,160.57,195.56,161.09,196,161.13Z"/><path class="cls-1" d="M140.08,167a22.11,22.11,0,0,0-4.89-.26c-.82,0-1.66,0-2.51,0h-.24v22.67h.24c.81,0,1.62,0,2.42,0s1.59,0,2.37,0a29,29,0,0,0,2.95-.13A6.62,6.62,0,0,0,146,183c.1-3.56.1-6.46,0-9.12A7.71,7.71,0,0,0,140.08,167Zm3.42,15.48a4.4,4.4,0,0,1-4,4.43,27.94,27.94,0,0,1-3.18,0L135,187a2,2,0,0,1,0-.23,6.22,6.22,0,0,1-.05-.71q0-7.8,0-15.59a2.07,2.07,0,0,1,.11-1c.1-.1.44-.1.9-.1h.54a16.85,16.85,0,0,1,2.76.16,5.1,5.1,0,0,1,4.27,5.08C143.53,177.42,143.53,180,143.5,182.5Z"/><path class="cls-1" d="M275.91,174.59a15.64,15.64,0,0,0-.18-2.18,7.15,7.15,0,0,0-7.18-5.93h0a7,7,0,0,0-7.15,5.92,34.51,34.51,0,0,0-.24,4c0,.61,0,1.21-.05,1.82v.23h.1c0,.4,0,.79,0,1.19,0,1,0,2.09,0,3.14a7.44,7.44,0,0,0,3,5.76,7.32,7.32,0,0,0,4.34,1.4,8,8,0,0,0,2.1-.28,7.32,7.32,0,0,0,5.29-7.1c.05-2.56,0-5.16,0-7.67Zm-2.57,5c0,1,0,2,0,3a4.9,4.9,0,0,1-2.35,4.21,4.81,4.81,0,0,1-4.68.07,4.52,4.52,0,0,1-2.51-4.18c0-2.65-.08-5.78,0-9a4.64,4.64,0,0,1,4.77-4.65h0a4.69,4.69,0,0,1,4.75,4.67c0,1,0,2.1,0,3.12,0,.47,0,.95,0,1.42h0C273.33,178.7,273.34,179.13,273.34,179.57Z"/><path class="cls-1" d="M246.27,149.63a5.45,5.45,0,0,0,1.52-6.25,5.28,5.28,0,0,0-4.91-3.68c-1.8-.1-3.58-.08-5.45,0l-2.46,0h-.24v21.41h2.42v-9.92l1.59,0a26,26,0,0,1,3.87.09,3.2,3.2,0,0,1,2.76,2.75,11.28,11.28,0,0,1,.16,2.11v.1c0,1.07,0,2.12,0,3.23v1.68H248v-.23c0-.63,0-1.25,0-1.86,0-1.36,0-2.66,0-4a6,6,0,0,0-1.82-4.6,1.86,1.86,0,0,1-.23-.32l0-.06,0,0C246,149.88,246.14,149.75,246.27,149.63Zm-3.49-1.06c-1.12.09-2.28.07-3.39.06h-1.25a6.74,6.74,0,0,1-.72-.06l-.24,0v-6.25h.06a1.9,1.9,0,0,1,.5-.11h.73c1.33,0,2.71,0,4.06,0a3.23,3.23,0,0,1,3.2,3.1A3.18,3.18,0,0,1,242.78,148.57Z"/><path class="cls-1" d="M215.9,166.82,209,189.46h2.61l.06-.16.11-.3c.08-.19.14-.37.2-.54l.45-1.43c.43-1.37.87-2.78,1.27-4.19.18-.62.45-.82,1.14-.8,2.13.05,4,.05,5.76,0a1,1,0,0,1,1.2.89c.3,1.07.63,2.15.95,3.19.19.62.38,1.24.57,1.9.39,1.3.51,1.53,1.54,1.53h.56a2.22,2.22,0,0,0,.5-.1l.26-.06.25,0-6.89-22.51Zm4.74,12.44a19.35,19.35,0,0,1-5.89,0l.15-.51c.89-2.94,1.73-5.71,2.78-8.49a11.78,11.78,0,0,1,1.16,3c.12.43.25.88.39,1.31.38,1.12.72,2.27,1,3.39C220.4,178.43,220.52,178.85,220.64,179.26Z"/><path class="cls-1" d="M116.86,178.63h8v-2.5h-.22c-1.25-.06-2.51-.05-3.73,0s-2.75,0-4.15-.06v-1.65c0-1.43,0-2.8,0-4.17,0-.85,0-.85.88-.85h6.7l1,0,.66,0v-.21l0-.37c0-.25,0-.47,0-.68a5.41,5.41,0,0,0-.05-.59l0-.23V167l-.16-.05c-1.26-.32-10.56-.28-11.44.06l-.15.06v22.35h12V187h-9.42Z"/><path class="cls-1" d="M160.09,152.87v-2.71a6.32,6.32,0,0,0-.06-.76l0-.32,0-.22h-5.89v2.4h3.54v1.36c0,1.59,0,3.08,0,4.58a1.07,1.07,0,0,1-.34.63,5,5,0,0,1-5.25,1,4.1,4.1,0,0,1-2.84-4c-.09-3.25-.09-6.11,0-8.73a4.4,4.4,0,0,1,1.71-3.37,4.47,4.47,0,0,1,3.75-.74,10.52,10.52,0,0,1,2.2.92c.36.18.73.36,1.11.53l.13.05.11-.07a2.35,2.35,0,0,0,.34-.28c.18-.17.35-.36.53-.55l.39-.43-.13-.16a7.17,7.17,0,0,0-7.21-2.43,6.71,6.71,0,0,0-5.34,6.34c0,2,0,4.05,0,6,0,1.07,0,2.14,0,3.21a6,6,0,0,0,.95,3.17,6.92,6.92,0,0,0,5.11,3.27,7.46,7.46,0,0,0,.95.06,7.83,7.83,0,0,0,5.5-2.29,2.54,2.54,0,0,0,.82-2C160.09,155.85,160.09,154.36,160.09,152.87Z"/><path class="cls-1" d="M269.93,139.71l-6.55,21.4h2.48l.19-.51c.1-.28.2-.57.29-.87l.19-.61c.44-1.41.9-2.87,1.32-4.31.15-.51.39-.69.87-.68,2.13,0,4.26,0,5.88,0,.49,0,.69.15.79.59s.31,1.11.48,1.64l.18.55c.33,1.07.67,2.14,1,3.19l.32,1h2.53l-6.54-21.4Zm1.77,3c.86,2.58,1.83,5.61,2.69,8.8h-5.56c.78-2.53,1.54-5,2.28-7.4l.44-1.4Z"/><path class="cls-1" d="M220.15,150.86h7.52v-2.43H220.1c0-2.16,0-4.17,0-6.29h8.64v-2.4h-11.1v21.34h11.31v-2.35h-8.79Z"/><path class="cls-1" d="M169.8,150.83h7.51v-2.42h-7.47a25,25,0,0,1,.09-6.27h8.42v-2.39h-11v21.36h11.26v-2.38H169.8Z"/><path class="cls-1" d="M204.21,185.66l-.77.48a8.8,8.8,0,0,1-1.58.87,5,5,0,0,1-4.84-.48,4.71,4.71,0,0,1-1.94-4c.08-1.81.06-3.65,0-5.43,0-1,0-2.06,0-3.09a5.77,5.77,0,0,1,.24-1.8,4.59,4.59,0,0,1,2.83-2.9,5.23,5.23,0,0,1,4.53.53,10.39,10.39,0,0,1,1,.69l.53.38.17.11,1.48-1.58-.06-.14c0-.09-.07-.15-.09-.21a.62.62,0,0,0-.13-.24,7.62,7.62,0,0,0-8.16-2,6.89,6.89,0,0,0-4.9,6.37v.32c0,3.2-.08,6.5,0,9.75a6.93,6.93,0,0,0,5,6.39,7.81,7.81,0,0,0,2.26.31,7.37,7.37,0,0,0,6-2.73l.12-.16-1.59-1.52Z"/><path class="cls-1" d="M165.37,189.44h2.55v-10.8h7.81V176H168l0-.19c0-.25-.05-.45-.06-.64,0-1.92,0-3.49,0-4.92,0-.92,0-.92.92-.92H175l1,0,.45,0,.22,0v-2.38H165.37Z"/><path class="cls-1" d="M234.12,174.08a4.67,4.67,0,0,1,2.47-4.46,5.06,5.06,0,0,1,5.34.32c.31.18.61.4.93.63l.49.35.17.12,1.56-1.79-.14-.15a7.9,7.9,0,0,0-7.61-2.47,6.94,6.94,0,0,0-5.69,6.5c-.08,2.56-.06,5.17,0,7.7,0,.87,0,1.74,0,2.61a5.27,5.27,0,0,0,.21,1.23,7.12,7.12,0,0,0,3.78,4.59,7.53,7.53,0,0,0,3.28.74,8.9,8.9,0,0,0,3.47-.73,5.46,5.46,0,0,0,2.56-2l.11-.15-1.61-1.66-.5.37-.52.38a5.7,5.7,0,0,1-4.23,1.14,4.7,4.7,0,0,1-4-4.77c0-2,0-4,0-5.93C234.11,175.79,234.12,174.94,234.12,174.08Z"/><rect class="cls-1" x="154.31" y="166.88" width="2.38" height="22.59"/><rect class="cls-1" x="250.9" y="166.88" width="2.44" height="22.59"/><rect class="cls-1" x="182.12" y="166.89" width="2.44" height="22.56"/><path class="cls-1" d="M257.63,139.72h-2.12V161.1h2.21l0-.19c.29-1.48.23-20.15-.08-21Z"/><path class="cls-1" d="M114.72,161.15l.51,0h.1a6.47,6.47,0,0,0,.65-.07l.26,0,.2,0V139.7h-2.27v21.41h.22Z"/><path class="cls-1" d="M209.45,139.72h-.22l-.32,0a4.5,4.5,0,0,0-.62,0,4.15,4.15,0,0,0-.59.05l-.32,0-.21,0v21.35h2.28Z"/><path class="cls-1" d="M205.75,120.94l-.08-.09-.07-.11-.68,0,0,.2c0,.13,0,.25-.05.38a6.11,6.11,0,0,0-.08.86c0,1,0,2.1,0,3.15s0,2.29,0,3.44a5.59,5.59,0,0,1-.09.89,1.23,1.23,0,0,1,0,.19l-.08-.14c-.14-.24-.28-.49-.4-.74-.75-1.59-1.49-3.18-2.24-4.78l-1.11-2.37c-.58-1.26-.76-1.34-2.18-.91l-.17,0v10.7l.17.05a1.41,1.41,0,0,0,.42.07.6.6,0,0,0,.38-.12.93.93,0,0,0,.26-.82v-7.26a7.18,7.18,0,0,1,.06-.79l0-.22h0l4.33,9.18H206v-1.71c0-3,0-5.84,0-8.74A.63.63,0,0,0,205.75,120.94Z"/><path class="cls-1" d="M268.61,131.88l.26,0,.32,0c.23,0,.42,0,.44-.25.12-1.45.24-2.9.36-4.47l0-.49h.54c.56,0,1.08,0,1.61,0a2,2,0,0,1,2,2.1c0,.54,0,1.08,0,1.63V131a.84.84,0,0,0,.29.74.87.87,0,0,0,.84,0l.16-.07,0-.17a13.47,13.47,0,0,1,0-1.42c.06-1.33.12-2.71-1-3.93l.13-.15a6.7,6.7,0,0,0,.45-.53,3,3,0,0,0,.31-2.93,2.55,2.55,0,0,0-2-1.63,15.63,15.63,0,0,0-3.07-.09c-.47,0-.94,0-1.42,0h-.24V121c0,3.85,0,7.31,0,10.58Zm1.36-6.62v-3.18l.84,0a17,17,0,0,1,2.27,0,1.53,1.53,0,0,1,1.18,1.6,1.51,1.51,0,0,1-1.27,1.53,20.23,20.23,0,0,1-2.21,0Z"/><path class="cls-1" d="M292.56,131.6a2.09,2.09,0,0,0,.5.18l.28.08.3.1v-3.42c0-.3,0-.56,0-.78,0-.56,0-.93.1-1s.58-.12,1.33-.12h.53c1.62,0,2.32.68,2.4,2.32,0,.32,0,.64,0,1s0,.8,0,1.2a.89.89,0,0,0,.26.52l.12.16.1.16.69-.24v-.18a13.08,13.08,0,0,1,0-1.4c.07-1.37.15-2.79-1-4l.16-.19c.18-.21.33-.39.47-.59a3,3,0,0,0,.22-2.9,2.66,2.66,0,0,0-2.08-1.59,18.48,18.48,0,0,0-3-.07c-.46,0-.92,0-1.4,0h-.23v10.28C292.38,131.25,292.38,131.5,292.56,131.6Zm1.18-6.32v-3.2h.84a17,17,0,0,1,2.27,0,1.56,1.56,0,0,1,1.21,1.7,1.61,1.61,0,0,1-1.52,1.46c-.67,0-1.34,0-2.05,0Z"/><path class="cls-1" d="M221.15,131.85a2.18,2.18,0,0,1,.21-.22,1.79,1.79,0,0,0,.45-.6c.24-.62.42-1.26.6-1.88l.08-.31c.14-.47.35-.64.79-.62.75,0,1.58,0,2.53,0a.62.62,0,0,1,.72.53c.15.57.32,1.15.49,1.72l.17.58a1.07,1.07,0,0,0,.52.73,1,1,0,0,0,.85-.09l.18-.09-3.3-10.81h-1.83l-3.29,10.82.71.38Zm3.33-9.41a18.92,18.92,0,0,1,1.1,3.18c.1.37.21.75.32,1.13a4.06,4.06,0,0,1-1.76.17h-.93l-.1-.11,1.35-4.37Z"/><path class="cls-1" d="M285.93,132a3.55,3.55,0,0,0,3.63-3.32c.08-1.63.07-3.24,0-4.81a3.46,3.46,0,0,0-3.58-3.28,3.39,3.39,0,0,0-3.54,3.29c0,.55,0,1.12,0,1.66v1.48a15.52,15.52,0,0,0,0,1.67,3.46,3.46,0,0,0,3.43,3.31Zm2.35-4.94c0,.44,0,.9,0,1.35a2.34,2.34,0,0,1-2.15,2.32,2.26,2.26,0,0,1-2.42-2.13,35.71,35.71,0,0,1,0-4.63,2.27,2.27,0,0,1,2.26-2.16h0a2.3,2.3,0,0,1,2.28,2.31c0,.52,0,1,0,1.55v1.39Z"/><path class="cls-1" d="M167.18,128.21a.74.74,0,0,1,.87.66c.15.59.33,1.18.51,1.75l.14.44a1.06,1.06,0,0,0,.52.73.93.93,0,0,0,.82-.15l.16-.09-3.3-10.76h-1.81l-3.3,10.82.7.29.1-.07a3,3,0,0,0,1.09-2,3.34,3.34,0,0,1,.69-1.62h.71C165.76,128.23,166.47,128.24,167.18,128.21ZM166,122.44a18,18,0,0,1,1.1,3.23c.1.37.21.75.32,1.13h-2.76l1.31-4.36Z"/><path class="cls-1" d="M154.08,131.59a.88.88,0,0,0-.06-.77,1,1,0,0,0-.81-.26h-3.52v-4l.22,0c.28,0,.54,0,.79,0h2a.82.82,0,0,0,.7-.27.85.85,0,0,0,0-.79l-.05-.15-.49,0-.81,0h-.64a8.43,8.43,0,0,1-1.24,0,1.2,1.2,0,0,1-.57-.29c0-.74,0-1.49,0-2.28,0-.21,0-.43,0-.65h3.66a.82.82,0,0,0,.71-.26.8.8,0,0,0,0-.76l0-.16h-5.58v11H154Z"/><path class="cls-1" d="M188.5,130.75l-.21-.05a8.68,8.68,0,0,0-2.33-.15,10,10,0,0,1-2-.08,22.39,22.39,0,0,1,0-3.93h2c1.48,0,1.64,0,1.92-1l.09-.3H184V122h4.26l.29-.57-.12-.12-.14-.18c-.15-.19-.3-.39-.53-.39-1.23,0-2.43,0-3.71,0h-1.36v11h5.7Z"/><path class="cls-1" d="M266.78,131.4c-.11-.13-.2-.24-.27-.34a1,1,0,0,0-.49-.45,2,2,0,0,0-.76-.06H265l-2.85,0v-4H265a1,1,0,0,0,.85-.27,1,1,0,0,0,.07-.84l0-.17h-2.92c-.87,0-.87,0-.89-.85,0-.52,0-1,0-1.54,0-.84,0-.84.89-.85h3.45l.28-.61-.12-.12a1.17,1.17,0,0,1-.15-.16.88.88,0,0,0-.55-.36c-1.19,0-2.37,0-3.63,0h-1.37v11h6.27Z"/><path class="cls-1" d="M142.16,132h0a3.24,3.24,0,0,0,3.34-3.43c0-1.77,0-3.57,0-5.31v-1.53a2.94,2.94,0,0,0-.05-.51l0-.22,0-.17-.17,0a.88.88,0,0,0-.78.12.94.94,0,0,0-.23.82v2.71c0,1.38,0,2.77,0,4.15a2,2,0,0,1-2,2.13,1.85,1.85,0,0,1-1.38-.54,2.3,2.3,0,0,1-.65-1.63c0-1.5,0-3,0-4.49V121l-.16-.06a1,1,0,0,0-.88,0c-.26.19-.26.54-.26.88v1.67c0,1.69,0,3.44,0,5.16A3.26,3.26,0,0,0,142.16,132Z"/><path class="cls-1" d="M125,132a5.68,5.68,0,0,0,1.29-.15,3.22,3.22,0,0,0,2.47-3.09,2.89,2.89,0,0,0-2.23-3.08q-.54-.16-1.08-.3c-.48-.13-1-.26-1.44-.43a1.6,1.6,0,0,1-1.1-1.26,1.54,1.54,0,0,1,.69-1.45,2.77,2.77,0,0,1,1.53-.4,4.87,4.87,0,0,1,1.12.26c.26.08.53.16.8.22a1.68,1.68,0,0,0,.67,0l.25,0,.23,0-.07-.67-.08-.06a5.3,5.3,0,0,0-3.44-.88,2.82,2.82,0,0,0-2.92,2.56,2.72,2.72,0,0,0,2.26,3.13l.77.2c.47.11,1,.23,1.42.38a1.88,1.88,0,0,1,1.27,1.24,2.11,2.11,0,0,1-2.12,2.61,19,19,0,0,1-2.66-.62l-.08,0a.93.93,0,0,0-.83,0,.88.88,0,0,0-.27.72V131l.12.07A6.92,6.92,0,0,0,125,132Z"/><path class="cls-1" d="M237.46,132h.21a3.35,3.35,0,0,0,3.22-3c.19-1.71-.63-2.86-2.44-3.42l-1-.28c-.43-.11-.86-.23-1.28-.37a1.33,1.33,0,0,1-1-1.49,1.67,1.67,0,0,1,.55-1.26,2,2,0,0,1,1.56-.38,11.41,11.41,0,0,1,1.71.39l.78.21.15,0,.09-.11a.77.77,0,0,0,.21-.75.88.88,0,0,0-.68-.51l-.19,0a11.47,11.47,0,0,0-2.53-.44h-.1a2.73,2.73,0,0,0-2.84,2.53,2.67,2.67,0,0,0,2.24,3.13c.26.08.53.14.8.21.49.13,1,.26,1.48.43a1.82,1.82,0,0,1,1.18,1.13,1.91,1.91,0,0,1-.24,1.64,2,2,0,0,1-1.87,1,17.27,17.27,0,0,1-2.63-.61l-.19,0a.72.72,0,0,0-1.1.67l0,.15.13.08A6.6,6.6,0,0,0,237.46,132Z"/><path class="cls-1" d="M115,131.8h5.33l.06-.16a.82.82,0,0,0,0-.8c-.19-.28-.61-.28-.85-.28H116v-4h1.69c.31,0,.62,0,.94,0h.2c.36,0,1,0,1.06-1v-.23l-.62,0-.8,0h-.68a11.43,11.43,0,0,1-1.32,0,1,1,0,0,1-.53-.36c-.05-.7,0-1.42,0-2.18,0-.22,0-.45,0-.68h3.74a.72.72,0,0,0,.62-.27.81.81,0,0,0,0-.76l-.06-.15h-5.34l0,.19c-.33,1.72-.23,9.78.12,10.64Z"/><path class="cls-1" d="M249.62,124.52c0-.88,0-1.76,0-2.64a2.63,2.63,0,0,0-.13-.69,2.76,2.76,0,0,1-.08-.27l0-.19-.78,0,0,.2-.06.32a4.9,4.9,0,0,0-.09.78c0,1.11,0,2.21,0,3.32v1.72c0,.14,0,.29,0,.44a9.65,9.65,0,0,1-.05,1.32,2,2,0,0,1-2,1.9,2.07,2.07,0,0,1-2-1.86,4.72,4.72,0,0,1,0-.76V121l-.16,0a1,1,0,0,0-.89,0,.8.8,0,0,0-.26.66c0,.76,0,1.52,0,2.29,0,1.69,0,3.43.05,5.15a3.23,3.23,0,0,0,3.31,3h.09a3.24,3.24,0,0,0,3.22-3.31C249.61,127.31,249.62,125.89,249.62,124.52Z"/><path class="cls-1" d="M256.35,127.09a3.21,3.21,0,0,0,0-6.34c-.77,0-1.53,0-2.33,0h-1.27l0,.19a62.63,62.63,0,0,0,.06,10.73l.06.16h.29c.22,0,.42,0,.44-.23.12-1.41.22-2.83.33-4.32v-.1h.26l.89,0a4.51,4.51,0,0,1,.52,0C255.8,127.11,256.08,127.11,256.35,127.09Zm1.43-2.9a1.6,1.6,0,0,1-1.63,1.6c-.53,0-1,0-1.66,0h-.66v-3.71l.74,0a10.17,10.17,0,0,1,2,.05C257.38,122.24,257.89,123.11,257.78,124.19Z"/><path class="cls-1" d="M285.88,151.36l-.18,0v9.08h1.91c.33,0,.66,0,1,0a2.7,2.7,0,0,0,2.7-2.64,33.47,33.47,0,0,0,0-3.61,2.87,2.87,0,0,0-2-2.74A6.22,6.22,0,0,0,285.88,151.36Zm4.27,3.73v.51c0,.55,0,1.09,0,1.63,0,1.43-.64,2-2,2.07h-1.2v-6.65a2.74,2.74,0,0,1,2.37.18A2.7,2.7,0,0,1,290.15,155.09Z"/><path class="cls-1" d="M215.24,131.71a3.79,3.79,0,0,0,1.59.34,4.09,4.09,0,0,0,2.27-.69.93.93,0,0,0,.5-.72.84.84,0,0,0-.47-.65l-.12-.07-.12.07-.33.18c-.22.13-.42.24-.63.34a2.44,2.44,0,0,1-2.31-.08,2.38,2.38,0,0,1-1.08-2c0-1.46,0-2.91,0-4.29a2.24,2.24,0,0,1,2.92-2.17,3,3,0,0,1,.49.22,3.11,3.11,0,0,0,.59.26,1.82,1.82,0,0,0,.7,0l.46,0,.49,0-.33-.37a3.85,3.85,0,0,0-4.3-1.18,3.05,3.05,0,0,0-2.27,2.86,31.28,31.28,0,0,0,0,5.3A3.32,3.32,0,0,0,215.24,131.71Z"/><path class="cls-1" d="M133.13,131.83a3.91,3.91,0,0,0,1.32.23,3.44,3.44,0,0,0,2.69-1.3l.1-.11-.06-.14a.83.83,0,0,0-.5-.51.92.92,0,0,0-.75.24l-.2.13a2.61,2.61,0,0,1-2.56.09,2.5,2.5,0,0,1-1.09-2.21c0-1.11,0-2.58,0-4.06a2.36,2.36,0,0,1,1.1-2,2.41,2.41,0,0,1,2.37,0,.86.86,0,0,1,.2.13,1.18,1.18,0,0,0,.49.24,1.39,1.39,0,0,0,.62-.1l.35-.09.39-.09-.27-.3a3.85,3.85,0,0,0-4.27-1.11,3.11,3.11,0,0,0-2.25,2.88,44.56,44.56,0,0,0,0,5.17A3.2,3.2,0,0,0,133.13,131.83Z"/><path class="cls-1" d="M190,128.26a3.48,3.48,0,0,0,2.15,3.48,4.13,4.13,0,0,0,1.54.32,4,4,0,0,0,2.77-1.21l.2-.19-.22-.17c-.64-.48-.74-.49-1.5-.1a2.69,2.69,0,0,1-2.54,0,2.25,2.25,0,0,1-1.09-1.88,42.78,42.78,0,0,1,0-4.53,2.26,2.26,0,0,1,.94-1.75,2.4,2.4,0,0,1,2.1-.28,2.81,2.81,0,0,1,.47.22,2.6,2.6,0,0,0,.61.28,1.23,1.23,0,0,0,.65-.06l.33-.08.43-.08-.31-.32a4,4,0,0,0-4.34-1.1,3.44,3.44,0,0,0-2.18,3.21c0,.94,0,1.9,0,2.82Z"/><path class="cls-1" d="M181.1,120.72c-.71,0-1.43,0-2.13,0a22.44,22.44,0,0,0-4.67.3l-.39.08.27.3a2,2,0,0,0,1.73.58,2.56,2.56,0,0,1,1.11.16v9.45l.65.38.13-.15a1.17,1.17,0,0,1,.16-.15,1,1,0,0,0,.37-.52,5.82,5.82,0,0,0,0-1.1c0-.12,0-.25,0-.37v-1.88c0-1.66,0-3.38,0-5.06a.84.84,0,0,1,.16-.63.79.79,0,0,1,.57-.13,8.47,8.47,0,0,0,1.59,0,1,1,0,0,0,.54-.33l.16-.15.14-.11-.26-.67Z"/><path class="cls-1" d="M299.5,159.6a5.5,5.5,0,0,0-2.27-.28,5.3,5.3,0,0,1-1.51-.11v-3.07h.33a6.9,6.9,0,0,0,1.21,0,2.3,2.3,0,0,1,.35,0,1,1,0,0,0,1.32-.8l.07-.28-3.3-.16v-2.42h.39a7.68,7.68,0,0,0,1.36,0,1.56,1.56,0,0,1,.42,0,1.16,1.16,0,0,0,1.49-.83l.1-.31h-4.93v9l.2,0a13.44,13.44,0,0,0,2,.15,6.84,6.84,0,0,0,2.83-.48l.48-.23Z"/><path class="cls-1" d="M161.46,130.88a3.86,3.86,0,0,0-2.28-.34,4.45,4.45,0,0,1-1.71-.11c0-.06,0-.12,0-.18a5.68,5.68,0,0,1-.06-.69c0-.82,0-1.65,0-2.47s0-1.38,0-2.07c0-1.08,0-2.16,0-3.26a.94.94,0,0,0-.24-.77,1,1,0,0,0-.82-.18l-.21,0v2.87c0,2.58,0,5.24,0,7.87v.23h5.41v-.23a1.7,1.7,0,0,1,0-.24C161.61,131.14,161.62,131,161.46,130.88Z"/><path class="cls-1" d="M209.69,131.71l.34.26.39.33V120.83l-.21,0a1,1,0,0,0-.84.16,1,1,0,0,0-.21.8,1.09,1.09,0,0,1,0,.18q0,3.17,0,6.33v2a1.85,1.85,0,0,1,0,.23,1.49,1.49,0,0,0,.07.69A1.19,1.19,0,0,0,209.69,131.71Z"/><polygon class="cls-1" points="272.42 165.59 273.61 167.17 278.37 164.21 276.85 162.04 272.42 165.59"/><polygon class="cls-1" points="257.83 139.12 262.34 136.34 260.89 134.24 256.7 137.63 257.83 139.12"/><path class="cls-1" d="M278.55,131.52l.09.2.06.15h.62l.05-.18c0-.08,0-.16.07-.25a2.38,2.38,0,0,0,.13-.6c.23-3.68.09-9.13-.39-10l-.21-.39-.21.39c-.45.88-.64,7.42-.39,10.16A1.62,1.62,0,0,0,278.55,131.52Z"/><path class="cls-1" d="M186.08,119.83c.94,0,2.4-.61,2.53-1.21a.82.82,0,0,0-.21-.61c-.05-.09-.11-.17-.16-.27l-.14-.26-2.76,2.29.57,0Z"/><path class="cls-1" d="M42,144.54q0,8.61,0,17.22v1.52c.91-.1.94-.1,1-.69,0-1.08,0-2.15,0-3.23v-15c0-.5.11-1.07-.57-1.27C41.84,143.48,42,144,42,144.54Z"/><path class="cls-1" d="M41.08,126.81a1.45,1.45,0,0,0,1.46,1.4,1.41,1.41,0,0,0,1.36-1.38,1.39,1.39,0,0,0-1.45-1.38A1.42,1.42,0,0,0,41.08,126.81Z"/></svg>