<svg id="Logos_Patrocinadores_Web" data-name="Logos Patrocinadores Web" xmlns="http://www.w3.org/2000/svg" viewBox="0 0 300 300"><defs><style>.cls-1{fill:#8f8fa3;}</style></defs><path class="cls-1" d="M252.91,112.53c-.07,1-.19,2-.19,2.92q0,18.26,0,36.49v3.12H222.46c-.07-9.61,0-19.28-.05-29.13H77.33v29.16H47v-2.87q0-18.24,0-36.49c0-1.07-.1-2.13-.16-3.2Z"/><path class="cls-1" d="M91.24,149.5h11.87c.62,1.84.75,9.52.19,12.78H91.24Z"/><rect class="cls-1" x="117.55" y="149.55" width="12.13" height="12.79"/><rect class="cls-1" x="143.78" y="149.53" width="12.18" height="12.73"/><path class="cls-1" d="M169.82,149.53h12.44v12.75H169.8c-.11-4.16-.09-8.3,0-12.75"/><path class="cls-1" d="M195.79,162.28V149.6h12.43c.31,4.1.11,8.31.09,12.68Z"/><path class="cls-1" d="M0,191V177.19H5.44v1.48H2v4.45H4.45v1.48H2v5H5.44V191Z"/><path class="cls-1" d="M8.67,191.17a2.67,2.67,0,0,1-2-.72,3.85,3.85,0,0,1-1-1.89l1.48-.5c.36,1,.85,1.49,1.49,1.49a.9.9,0,0,0,1-1,1.48,1.48,0,0,0-.5-1.14l-2-1.49a6,6,0,0,1-.55-.42,4.29,4.29,0,0,1-.46-.48,2.22,2.22,0,0,1-.35-.64,2.45,2.45,0,0,1-.12-.78,2.39,2.39,0,0,1,.81-1.94A3.32,3.32,0,0,1,8.67,181a3.07,3.07,0,0,1,1.16.21,2.35,2.35,0,0,1,.87.57,3.93,3.93,0,0,1,.58.82,4.45,4.45,0,0,1,.35,1l-1.48.5a3.11,3.11,0,0,0-.22-.51,2.82,2.82,0,0,0-.29-.46,1.37,1.37,0,0,0-.42-.38,1.15,1.15,0,0,0-.55-.14.9.9,0,0,0-1,1,1.05,1.05,0,0,0,.49.84l2,1.48q.33.27.57.51a4.44,4.44,0,0,1,.46.56,2.51,2.51,0,0,1,.34.72,2.84,2.84,0,0,1,.11.84,2.38,2.38,0,0,1-.8,1.94A3.26,3.26,0,0,1,8.67,191.17Z"/><path class="cls-1" d="M15.31,191.17a3,3,0,0,1-1.24-.24,2.32,2.32,0,0,1-.85-.62,3.07,3.07,0,0,1-.51-1,6.48,6.48,0,0,1-.27-1.2,13.33,13.33,0,0,1-.09-1.39q0-.64,0-1.29a13.33,13.33,0,0,1,.09-1.39,6.3,6.3,0,0,1,.27-1.2,3.07,3.07,0,0,1,.51-1,2.32,2.32,0,0,1,.85-.62,3,3,0,0,1,1.24-.24,2.72,2.72,0,0,1,2.24.84,4.09,4.09,0,0,1,.73,2.5v.26h-2v-.28a4,4,0,0,0-.05-.64,2.7,2.7,0,0,0-.14-.56.8.8,0,0,0-.8-.58.75.75,0,0,0-.49.17,1.1,1.1,0,0,0-.31.5,3.82,3.82,0,0,0-.15.67,6.06,6.06,0,0,0,0,.79c0,.64,0,1.6,0,2.89a7.37,7.37,0,0,0,.06.75,3.3,3.3,0,0,0,.15.62,1,1,0,0,0,.31.46.77.77,0,0,0,.48.16,1,1,0,0,0,.46-.1.89.89,0,0,0,.29-.25,1.44,1.44,0,0,0,.15-.39,3,3,0,0,0,.08-.46c0-.15,0-.32,0-.54v-.24h2v.26a6.12,6.12,0,0,1-.19,1.37,3.23,3.23,0,0,1-.52,1.05,2.19,2.19,0,0,1-.91.69A3.67,3.67,0,0,1,15.31,191.17Z"/><path class="cls-1" d="M20.92,191.17a1.29,1.29,0,0,1-1-.46,1.7,1.7,0,0,1-.39-1.14v-8.43h2V189a.72.72,0,0,0,.19.5.66.66,0,0,0,.49.19,1.66,1.66,0,0,0,.32,0,1.06,1.06,0,0,0,.31-.14l.23-.15a2.49,2.49,0,0,0,.24-.2l.2-.17v-7.83h2V191h-2V190l-.43.37c-.09.07-.22.18-.41.31a3.08,3.08,0,0,1-.49.29,5,5,0,0,1-.53.16A2.84,2.84,0,0,1,20.92,191.17Z"/><path class="cls-1" d="M29.93,191.17a2.8,2.8,0,0,1-1.24-.25,2.25,2.25,0,0,1-.85-.64,3.24,3.24,0,0,1-.5-1,7,7,0,0,1-.27-1.25,14.2,14.2,0,0,1-.09-1.44c0-.44,0-.87,0-1.3a12.89,12.89,0,0,1,.11-1.38,5.3,5.3,0,0,1,.28-1.16,2.8,2.8,0,0,1,.52-.92,2.19,2.19,0,0,1,.84-.59A3.06,3.06,0,0,1,30,181a3.51,3.51,0,0,1,1.12.17,2.05,2.05,0,0,1,.8.5,3.08,3.08,0,0,1,.53.75,3.49,3.49,0,0,1,.32,1,9.29,9.29,0,0,1,.15,1.15c0,.37.05.8.05,1.3v.23H29v.81a5.8,5.8,0,0,0,0,.59c0,.2,0,.4,0,.6a2.62,2.62,0,0,0,.09.56,2,2,0,0,0,.17.47.76.76,0,0,0,.28.31.75.75,0,0,0,.43.12,1,1,0,0,0,.51-.12.77.77,0,0,0,.3-.36,2.14,2.14,0,0,0,.13-.48,4.51,4.51,0,0,0,.05-.6v-.42h2V188a3.85,3.85,0,0,1-.78,2.4A2.75,2.75,0,0,1,29.93,191.17Zm-1-6.07h2v-.6a6.39,6.39,0,0,0,0-.68,3.9,3.9,0,0,0-.14-.59.82.82,0,0,0-.3-.45.84.84,0,0,0-1,0,1,1,0,0,0-.3.46,3.61,3.61,0,0,0-.13.6,4.73,4.73,0,0,0-.05.71Z"/><path class="cls-1" d="M34.35,191V177.19h2V191Z"/><path class="cls-1" d="M39.82,191.17a1.78,1.78,0,0,1-1.41-.71,2.54,2.54,0,0,1-.57-1.62,3.42,3.42,0,0,1,.24-1.3,4,4,0,0,1,.52-.94,3.27,3.27,0,0,1,.9-.73,8.06,8.06,0,0,1,1-.51l1.13-.46.2-.08v-.71a2.6,2.6,0,0,0-.2-1.16.94.94,0,0,0-1.51-.07,2.11,2.11,0,0,0-.26,1v.26h-2a3.24,3.24,0,0,1,.8-2.27,2.81,2.81,0,0,1,2.17-.84,2.85,2.85,0,0,1,2.17.85,3.19,3.19,0,0,1,.79,2.26v4.45A9.61,9.61,0,0,0,44,191h-2l-.27-1.48c-.1.2-.18.36-.25.48a3.35,3.35,0,0,1-.28.42,1.74,1.74,0,0,1-.37.39,2.46,2.46,0,0,1-.46.23A1.74,1.74,0,0,1,39.82,191.17Zm1-1.62a.68.68,0,0,0,.4-.13,1.65,1.65,0,0,0,.3-.23c.07-.08.15-.18.25-.32s0,0,0-.05v-2.73l-.4.26c-.19.12-.35.21-.46.29a4.92,4.92,0,0,0-.41.31,2.17,2.17,0,0,0-.37.38,1.66,1.66,0,0,0-.23.44,1.49,1.49,0,0,0-.1.55Q39.82,189.55,40.81,189.55Z"/><path class="cls-1" d="M50.25,191V179H47.77v-1.76H54.7V179H52.22V191Z"/><path class="cls-1" d="M57.68,191.17a2.85,2.85,0,0,1-1.25-.25,2.21,2.21,0,0,1-.84-.64,3.25,3.25,0,0,1-.51-1,7,7,0,0,1-.27-1.25,14.2,14.2,0,0,1-.09-1.44c0-.44,0-.87,0-1.3a12.89,12.89,0,0,1,.11-1.38,5.94,5.94,0,0,1,.28-1.16,3,3,0,0,1,.52-.92,2.36,2.36,0,0,1,.84-.59,3.09,3.09,0,0,1,1.22-.22,3.47,3.47,0,0,1,1.12.17,2,2,0,0,1,.8.5,3.12,3.12,0,0,1,.54.75,3.84,3.84,0,0,1,.32,1c.07.39.12.77.15,1.15s0,.8,0,1.3v.23h-4v.81a5.8,5.8,0,0,0,0,.59l0,.6a2.61,2.61,0,0,0,.08.56,2.57,2.57,0,0,0,.17.47.84.84,0,0,0,.28.31.77.77,0,0,0,.43.12,1,1,0,0,0,.51-.12.67.67,0,0,0,.3-.36,2.14,2.14,0,0,0,.13-.48,3.28,3.28,0,0,0,0-.6v-.42h2V188a3.73,3.73,0,0,1-.78,2.4A2.74,2.74,0,0,1,57.68,191.17Zm-1-6.07h2v-.6a6.15,6.15,0,0,0-.05-.68,3,3,0,0,0-.14-.59.86.86,0,0,0-.29-.45.83.83,0,0,0-.5-.16.76.76,0,0,0-.5.17.92.92,0,0,0-.31.46,3.61,3.61,0,0,0-.13.6,6.56,6.56,0,0,0,0,.71Zm.49-4.89,1-3h2l-2,3Z"/><path class="cls-1" d="M64.38,191.17a3,3,0,0,1-1.24-.24,2.32,2.32,0,0,1-.85-.62,3.07,3.07,0,0,1-.51-1,6.48,6.48,0,0,1-.27-1.2,13.33,13.33,0,0,1-.09-1.39q0-.64,0-1.29a13.33,13.33,0,0,1,.09-1.39,6.3,6.3,0,0,1,.27-1.2,3.28,3.28,0,0,1,.51-1,2.32,2.32,0,0,1,.85-.62,3,3,0,0,1,1.24-.24,2.75,2.75,0,0,1,2.25.84,4.15,4.15,0,0,1,.72,2.5v.26h-2v-.28a4,4,0,0,0-.05-.64,2.7,2.7,0,0,0-.14-.56.8.8,0,0,0-.8-.58.75.75,0,0,0-.49.17,1.19,1.19,0,0,0-.31.5,3.82,3.82,0,0,0-.15.67,6.06,6.06,0,0,0,0,.79c0,.64,0,1.6,0,2.89a7.37,7.37,0,0,0,.06.75,3.3,3.3,0,0,0,.15.62,1,1,0,0,0,.31.46.77.77,0,0,0,.48.16,1,1,0,0,0,.46-.1.89.89,0,0,0,.29-.25,1.18,1.18,0,0,0,.15-.39,3,3,0,0,0,.08-.46c0-.15,0-.32,0-.54v-.24h2v.26a5.59,5.59,0,0,1-.19,1.37,3.23,3.23,0,0,1-.52,1.05,2.19,2.19,0,0,1-.91.69A3.67,3.67,0,0,1,64.38,191.17Z"/><path class="cls-1" d="M68.58,191v-9.89h2v1.07c.29-.27.53-.47.72-.62a3.19,3.19,0,0,1,.77-.4,2.75,2.75,0,0,1,1-.19,1.31,1.31,0,0,1,1,.46,1.73,1.73,0,0,1,.39,1.14V191h-2v-7.42a1.45,1.45,0,0,0-.15-.75.65.65,0,0,0-.6-.24,1.29,1.29,0,0,0-.5.11,2.21,2.21,0,0,0-.38.19l-.35.28V191Z"/><path class="cls-1" d="M76.33,179.66v-2h2v2Zm0,11.37v-9.89h2V191Z"/><path class="cls-1" d="M82.67,191.17a3,3,0,0,1-1.24-.24,2.32,2.32,0,0,1-.85-.62,3.07,3.07,0,0,1-.51-1,6.48,6.48,0,0,1-.27-1.2c0-.4-.07-.86-.09-1.39s0-.86,0-1.29,0-1,.09-1.39a6.3,6.3,0,0,1,.27-1.2,3.53,3.53,0,0,1,.51-1,2.32,2.32,0,0,1,.85-.62,3,3,0,0,1,1.24-.24,2.75,2.75,0,0,1,2.25.84,4.15,4.15,0,0,1,.72,2.5v.26h-2v-.28a4,4,0,0,0,0-.64,2.7,2.7,0,0,0-.14-.56.8.8,0,0,0-.8-.58.75.75,0,0,0-.49.17,1.19,1.19,0,0,0-.31.5,5,5,0,0,0-.15.67c0,.23,0,.49,0,.79,0,.64,0,1.6,0,2.89a7.37,7.37,0,0,0,.06.75,3.3,3.3,0,0,0,.15.62,1,1,0,0,0,.31.46.77.77,0,0,0,.48.16,1,1,0,0,0,.46-.1.89.89,0,0,0,.29-.25,1.18,1.18,0,0,0,.15-.39,3,3,0,0,0,.08-.46c0-.15,0-.32,0-.54v-.24h2v.26a5.59,5.59,0,0,1-.19,1.37,3,3,0,0,1-.52,1.05,2.13,2.13,0,0,1-.91.69A3.67,3.67,0,0,1,82.67,191.17Z"/><path class="cls-1" d="M88.59,191.17a1.76,1.76,0,0,1-1.4-.71,2.54,2.54,0,0,1-.57-1.62,3.42,3.42,0,0,1,.24-1.3,4,4,0,0,1,.51-.94,3.19,3.19,0,0,1,.91-.73,9,9,0,0,1,1-.51l1.13-.46.21-.08v-.71a2.58,2.58,0,0,0-.21-1.16.79.79,0,0,0-.78-.42.81.81,0,0,0-.73.35,2,2,0,0,0-.25,1c0,.06,0,.15,0,.26h-2a3.28,3.28,0,0,1,.79-2.27,2.81,2.81,0,0,1,2.17-.84,2.87,2.87,0,0,1,2.18.85,3.19,3.19,0,0,1,.79,2.26v4.45a9.18,9.18,0,0,0,.26,2.47h-2l-.26-1.48c-.1.2-.18.36-.25.48a5,5,0,0,1-.28.42,2.35,2.35,0,0,1-.37.39,2.58,2.58,0,0,1-.47.23A1.7,1.7,0,0,1,88.59,191.17Zm1-1.62a.71.71,0,0,0,.41-.13,1.65,1.65,0,0,0,.3-.23c.06-.08.15-.18.24-.32l0,0v-2.74l-.41.26-.45.29a3.68,3.68,0,0,0-.41.31,1.86,1.86,0,0,0-.37.38,2,2,0,0,0-.24.44,1.72,1.72,0,0,0-.1.55Q88.59,189.55,89.58,189.55Z"/><path class="cls-1" d="M101.16,191.17a3.62,3.62,0,0,1-2.86-1.1,4.82,4.82,0,0,1-1.1-3l2-.5q.15,3,2,3a1.31,1.31,0,0,0,1.48-1.49,2.64,2.64,0,0,0-.12-.81,2.27,2.27,0,0,0-.36-.69,6.29,6.29,0,0,0-.45-.5c-.14-.13-.32-.28-.55-.47l-2.47-2a3.72,3.72,0,0,1-1.09-1.35,4.22,4.22,0,0,1-.41-1.88,3.17,3.17,0,0,1,1-2.43,3.49,3.49,0,0,1,2.51-.9,4,4,0,0,1,2.68.82,3.64,3.64,0,0,1,1.23,2.33c0,.11,0,.25.05.45l-2,.49c0-.09,0-.22,0-.39a2.91,2.91,0,0,0-.59-1.51,1.62,1.62,0,0,0-1.35-.57,1.42,1.42,0,0,0-1.09.4,1.49,1.49,0,0,0-.39,1.1,2.42,2.42,0,0,0,1,2l2.47,2a4.78,4.78,0,0,1,2,3.82,3,3,0,0,1-.94,2.38A3.58,3.58,0,0,1,101.16,191.17Z"/><path class="cls-1" d="M107.4,191.17a1.3,1.3,0,0,1-1.05-.46,1.7,1.7,0,0,1-.39-1.14v-8.43h2V189a.68.68,0,0,0,.19.5.64.64,0,0,0,.49.19,1.63,1.63,0,0,0,.31,0,1,1,0,0,0,.31-.14l.23-.15.25-.2.19-.17v-7.83h2V191h-2V190l-.42.37c-.09.07-.23.18-.42.31a2.7,2.7,0,0,1-.49.29,5,5,0,0,1-.53.16A2.81,2.81,0,0,1,107.4,191.17Z"/><path class="cls-1" d="M113.61,194V181.14h2v1l.33-.35.32-.28a1.73,1.73,0,0,1,.39-.27,2.3,2.3,0,0,1,.43-.16,2.33,2.33,0,0,1,.53-.07,2.13,2.13,0,0,1,.9.18,2.47,2.47,0,0,1,.65.44,1.88,1.88,0,0,1,.43.73,7.44,7.44,0,0,1,.27.86,7.11,7.11,0,0,1,.13,1c0,.44,0,.8.06,1.07s0,.64,0,1.12v.14c0,.43,0,.85-.07,1.25a7,7,0,0,1-.24,1.23,4.2,4.2,0,0,1-.44,1.07,2.13,2.13,0,0,1-.71.75,1.85,1.85,0,0,1-1,.29,2.73,2.73,0,0,1-2-1V194Zm3.46-4.45a.7.7,0,0,0,.53-.23,1.56,1.56,0,0,0,.31-.66,6.49,6.49,0,0,0,.13-.85c0-.29,0-.61,0-1V185c0-.14,0-.33,0-.56a5.2,5.2,0,0,0-.07-.57,4.13,4.13,0,0,0-.13-.5,1.32,1.32,0,0,0-.2-.43,1.16,1.16,0,0,0-.31-.26.89.89,0,0,0-.43-.11l-.22,0-.21.05-.19.06-.19.09-.17.09-.17.1-.15.1v6.12A2.91,2.91,0,0,0,117.07,189.55Z"/><path class="cls-1" d="M124.46,191.17a2.85,2.85,0,0,1-1.25-.25,2.21,2.21,0,0,1-.84-.64,3.25,3.25,0,0,1-.51-1,7,7,0,0,1-.27-1.25q-.06-.62-.09-1.44c0-.44,0-.87,0-1.3a12.89,12.89,0,0,1,.11-1.38,5.94,5.94,0,0,1,.28-1.16,3,3,0,0,1,.52-.92,2.36,2.36,0,0,1,.84-.59,3.09,3.09,0,0,1,1.22-.22,3.47,3.47,0,0,1,1.12.17,2,2,0,0,1,.8.5,3.12,3.12,0,0,1,.54.75,3.84,3.84,0,0,1,.32,1c.07.39.12.77.15,1.15s0,.8,0,1.3v.23h-4v.81a5.8,5.8,0,0,0,0,.59l0,.6a2.61,2.61,0,0,0,.08.56,2.57,2.57,0,0,0,.17.47.84.84,0,0,0,.28.31.77.77,0,0,0,.43.12,1,1,0,0,0,.51-.12.67.67,0,0,0,.3-.36,2.9,2.9,0,0,0,.14-.48,4.73,4.73,0,0,0,0-.6v-.42h2V188a3.73,3.73,0,0,1-.78,2.4A2.74,2.74,0,0,1,124.46,191.17Zm-1-6.07h2v-.6a6.15,6.15,0,0,0,0-.68,3,3,0,0,0-.14-.59.86.86,0,0,0-.29-.45.83.83,0,0,0-.5-.16.76.76,0,0,0-.5.17.85.85,0,0,0-.3.46,3.68,3.68,0,0,0-.14.6,6.56,6.56,0,0,0,0,.71Z"/><path class="cls-1" d="M128.87,191v-9.89h2v1.32a3,3,0,0,1,.87-1A2.11,2.11,0,0,1,133,181l.32,0v2.19a2.88,2.88,0,0,0-1.1-.22,1.38,1.38,0,0,0-1,.37,1.3,1.3,0,0,0-.38,1V191Z"/><path class="cls-1" d="M134.31,179.66v-2h2v2Zm0,11.37v-9.89h2V191Z"/><path class="cls-1" d="M143.24,190.24a3.26,3.26,0,0,1-4.56,0,4.4,4.4,0,0,1-.69-2.67v-3a4.42,4.42,0,0,1,.69-2.67,3.26,3.26,0,0,1,4.56,0,4.42,4.42,0,0,1,.69,2.67v3A4.4,4.4,0,0,1,143.24,190.24Zm-2.65-.75a1.17,1.17,0,0,0,.74,0,.93.93,0,0,0,.26-.15.71.71,0,0,0,.18-.27,2.63,2.63,0,0,0,.1-.3,1.59,1.59,0,0,0,.06-.38c0-.16,0-.3,0-.39v-3.83c0-.09,0-.22,0-.39a1.59,1.59,0,0,0-.06-.38c0-.08-.06-.19-.1-.3a.66.66,0,0,0-.18-.26.93.93,0,0,0-.26-.15,1,1,0,0,0-.74,0,.93.93,0,0,0-.26.15.56.56,0,0,0-.17.26c0,.11-.08.22-.11.3a1.67,1.67,0,0,0-.05.38c0,.17,0,.3,0,.39s0,.24,0,.43v3c0,.19,0,.33,0,.43s0,.23,0,.39a1.67,1.67,0,0,0,.05.38,2.85,2.85,0,0,0,.11.3.6.6,0,0,0,.17.27A.93.93,0,0,0,140.59,189.49Z"/><path class="cls-1" d="M145.55,191v-9.89h2v1.32a2.93,2.93,0,0,1,.88-1,2.07,2.07,0,0,1,1.28-.44l.31,0v2.19a2.83,2.83,0,0,0-1.09-.22,1.38,1.38,0,0,0-1,.37,1.34,1.34,0,0,0-.38,1V191Z"/><path class="cls-1" d="M156.43,191.17a1.84,1.84,0,0,1-1.15-.37,2.39,2.39,0,0,1-.75-1,6.91,6.91,0,0,1-.4-1.32A9.59,9.59,0,0,1,154,187c0-.25,0-.84,0-1.78,0-.34,0-.65,0-.92s.06-.57.11-.87a6.23,6.23,0,0,1,.18-.79,3.93,3.93,0,0,1,.3-.66,1.78,1.78,0,0,1,1-.86,2.11,2.11,0,0,1,.77-.13,2.06,2.06,0,0,1,.62.09,1.84,1.84,0,0,1,.56.28,4.36,4.36,0,0,1,.42.34c.1.09.24.23.41.41v-4.93h2V191h-2v-.9a4.06,4.06,0,0,1-.91.75A1.93,1.93,0,0,1,156.43,191.17Zm.5-1.62a3.86,3.86,0,0,0,1.48-.31V183a2.88,2.88,0,0,0-1.48-.4.82.82,0,0,0-.5.15.86.86,0,0,0-.3.41,3,3,0,0,0-.15.57,6.15,6.15,0,0,0,0,.68c0,1.16,0,2.07,0,2.75,0,.33,0,.62,0,.88a6.06,6.06,0,0,0,.15.74,1.21,1.21,0,0,0,.31.55A.68.68,0,0,0,156.93,189.55Z"/><path class="cls-1" d="M165,191.17a2.8,2.8,0,0,1-1.24-.25,2.25,2.25,0,0,1-.85-.64,3.24,3.24,0,0,1-.5-1,7,7,0,0,1-.27-1.25,14.2,14.2,0,0,1-.09-1.44c0-.44,0-.87,0-1.3a12.89,12.89,0,0,1,.11-1.38,5.3,5.3,0,0,1,.28-1.16,2.8,2.8,0,0,1,.52-.92,2.19,2.19,0,0,1,.84-.59,3.06,3.06,0,0,1,1.22-.22,3.51,3.51,0,0,1,1.12.17,2.05,2.05,0,0,1,.8.5,3.08,3.08,0,0,1,.53.75,3.49,3.49,0,0,1,.32,1,9.29,9.29,0,0,1,.15,1.15c0,.37.05.8.05,1.3v.23h-4v.81a5.8,5.8,0,0,0,0,.59c0,.2,0,.4,0,.6a2.62,2.62,0,0,0,.09.56,2,2,0,0,0,.17.47.76.76,0,0,0,.28.31.75.75,0,0,0,.43.12,1,1,0,0,0,.51-.12.77.77,0,0,0,.3-.36,2.14,2.14,0,0,0,.13-.48,4.51,4.51,0,0,0,0-.6v-.42h2V188a3.85,3.85,0,0,1-.78,2.4A2.75,2.75,0,0,1,165,191.17Zm-1-6.07h2v-.6a6.39,6.39,0,0,0,0-.68,3.9,3.9,0,0,0-.14-.59.82.82,0,0,0-.3-.45.84.84,0,0,0-1,0,1,1,0,0,0-.3.46,3.61,3.61,0,0,0-.13.6,4.73,4.73,0,0,0-.05.71Z"/><path class="cls-1" d="M172.84,191V177.19h2V191Z"/><path class="cls-1" d="M176.85,191v-9.89h2v1.07c.29-.27.53-.47.72-.62a3.3,3.3,0,0,1,.76-.4,2.84,2.84,0,0,1,1.05-.19,1.31,1.31,0,0,1,1,.46,1.73,1.73,0,0,1,.39,1.14V191h-2v-7.42a1.45,1.45,0,0,0-.15-.75.65.65,0,0,0-.6-.24,1.25,1.25,0,0,0-.5.11,1.88,1.88,0,0,0-.38.19c-.08.06-.2.15-.35.28V191Z"/><path class="cls-1" d="M187.64,194H187l-.63,0a5.35,5.35,0,0,1-.67-.06l-.62-.11a2.24,2.24,0,0,1-.58-.17,2.82,2.82,0,0,1-.44-.26.9.9,0,0,1-.31-.36,1,1,0,0,1-.1-.47,2.08,2.08,0,0,1,.41-1.32,3,3,0,0,1,1.07-.88,2,2,0,0,1-.69-.32.66.66,0,0,1-.3-.54,1.41,1.41,0,0,1,0-.28c0-.1,0-.19.07-.27a1.62,1.62,0,0,1,.13-.27l.13-.24a2.83,2.83,0,0,1,.17-.25,2.66,2.66,0,0,1,.16-.22,1.93,1.93,0,0,1,.16-.21l.14-.17a4.44,4.44,0,0,1-1-3,4.81,4.81,0,0,1,.33-1.83,2.82,2.82,0,0,1,1-1.28,2.74,2.74,0,0,1,1.64-.49,2.58,2.58,0,0,1,1,.16,2.08,2.08,0,0,1,.67.39,2.75,2.75,0,0,1,.5.62A2,2,0,0,1,191,181h.15v1.61h-.63a2.06,2.06,0,0,0-.38.07.75.75,0,0,0-.33.18,4.08,4.08,0,0,1,.24.8,4.5,4.5,0,0,1,.11.92,5,5,0,0,1-.32,1.84,2.77,2.77,0,0,1-1,1.27,2.83,2.83,0,0,1-1.66.48l-1-.12-.07.14a.79.79,0,0,0-.1.16,1.07,1.07,0,0,0-.07.15.68.68,0,0,0,0,.19.43.43,0,0,0,.2.34,1.25,1.25,0,0,0,.53.2,5.13,5.13,0,0,0,.65.1l.7.05a3.91,3.91,0,0,1,.53,0c.3,0,.56.09.79.14a5.28,5.28,0,0,1,.7.24,2,2,0,0,1,.59.37,1.69,1.69,0,0,1,.39.56,1.87,1.87,0,0,1,.15.78,2.42,2.42,0,0,1-.19,1,2.09,2.09,0,0,1-.51.71,3.14,3.14,0,0,1-.76.46,4.28,4.28,0,0,1-1,.25A7,7,0,0,1,187.64,194Zm0-1.46H188l.38,0a1.85,1.85,0,0,0,.38-.07,1.94,1.94,0,0,0,.3-.13.61.61,0,0,0,.22-.2.57.57,0,0,0,.07-.29c0-.56-.52-.89-1.58-1l-1.63-.19a1.81,1.81,0,0,0-.51.63,1.74,1.74,0,0,0-.22.85.29.29,0,0,0,.09.22.54.54,0,0,0,.25.13l.34.08.41,0h1.12Zm-.49-5.83c.82,0,1.24-.69,1.24-2.1a4.75,4.75,0,0,0-.06-.78,3.7,3.7,0,0,0-.18-.71,1.34,1.34,0,0,0-.39-.54,1,1,0,0,0-.61-.19,1,1,0,0,0-.62.19,1.24,1.24,0,0,0-.38.54,3.09,3.09,0,0,0-.18.71,4.75,4.75,0,0,0-.06.78C185.91,186,186.32,186.7,187.15,186.7Z"/><path class="cls-1" d="M194.46,191.17a2.85,2.85,0,0,1-1.25-.25,2.29,2.29,0,0,1-.84-.64,3.25,3.25,0,0,1-.51-1,6.18,6.18,0,0,1-.26-1.25,14.2,14.2,0,0,1-.09-1.44c0-.44,0-.87,0-1.3a13.1,13.1,0,0,1,.1-1.38,6.76,6.76,0,0,1,.28-1.16,2.82,2.82,0,0,1,.53-.92,2.19,2.19,0,0,1,.84-.59,3,3,0,0,1,1.21-.22,3.43,3.43,0,0,1,1.12.17,2,2,0,0,1,.8.5,2.87,2.87,0,0,1,.54.75,3.49,3.49,0,0,1,.32,1c.07.39.12.77.15,1.15s0,.8,0,1.3v.23h-4v.81c0,.19,0,.39,0,.59l0,.6a3.43,3.43,0,0,0,.08.56,3.61,3.61,0,0,0,.17.47.78.78,0,0,0,.29.31.74.74,0,0,0,.42.12,1,1,0,0,0,.51-.12.67.67,0,0,0,.3-.36,2.18,2.18,0,0,0,.14-.48,4.73,4.73,0,0,0,0-.6v-.42h2V188a3.85,3.85,0,0,1-.78,2.4A2.78,2.78,0,0,1,194.46,191.17Zm-1-6.07h2v-.6a6.15,6.15,0,0,0,0-.68,3,3,0,0,0-.13-.59.94.94,0,0,0-.3-.45.83.83,0,0,0-.5-.16.78.78,0,0,0-.5.17.85.85,0,0,0-.3.46,3.68,3.68,0,0,0-.14.6c0,.2,0,.43-.05.71Z"/><path class="cls-1" d="M198.87,191v-9.89h2v1.07c.29-.27.53-.47.72-.62a3.19,3.19,0,0,1,.77-.4,2.75,2.75,0,0,1,1-.19,1.3,1.3,0,0,1,1,.46,1.74,1.74,0,0,1,.4,1.14V191h-2v-7.42a1.45,1.45,0,0,0-.15-.75.65.65,0,0,0-.59-.24,1.34,1.34,0,0,0-.51.11,1.75,1.75,0,0,0-.37.19,3.68,3.68,0,0,0-.36.28V191Z"/><path class="cls-1" d="M206.62,179.66v-2h2v2Zm0,11.37v-9.89h2V191Z"/><path class="cls-1" d="M213.29,191.17a2.88,2.88,0,0,1-1.25-.25,2.29,2.29,0,0,1-.84-.64,3.25,3.25,0,0,1-.51-1,7,7,0,0,1-.26-1.25,14.2,14.2,0,0,1-.09-1.44c0-.44,0-.87,0-1.3a13.1,13.1,0,0,1,.1-1.38,6.76,6.76,0,0,1,.28-1.16,2.82,2.82,0,0,1,.53-.92,2.19,2.19,0,0,1,.84-.59,3.06,3.06,0,0,1,1.22-.22,3.41,3.41,0,0,1,1.11.17,2.09,2.09,0,0,1,.81.5,3.08,3.08,0,0,1,.53.75,3.49,3.49,0,0,1,.32,1c.07.39.12.77.15,1.15s0,.8,0,1.3v.23h-4v.81c0,.19,0,.39,0,.59l0,.6a3.43,3.43,0,0,0,.08.56,2.56,2.56,0,0,0,.18.47.76.76,0,0,0,.28.31.75.75,0,0,0,.43.12,1,1,0,0,0,.51-.12.7.7,0,0,0,.29-.36,2.18,2.18,0,0,0,.14-.48,4.73,4.73,0,0,0,0-.6v-.42h2V188a3.85,3.85,0,0,1-.78,2.4A2.78,2.78,0,0,1,213.29,191.17Zm-1-6.07h2v-.6a6.15,6.15,0,0,0-.05-.68,3,3,0,0,0-.13-.59.94.94,0,0,0-.3-.45.84.84,0,0,0-1,0,.85.85,0,0,0-.3.46,3.68,3.68,0,0,0-.14.6,6.85,6.85,0,0,0,0,.71Z"/><path class="cls-1" d="M217.7,191v-9.89h2v1.32a2.93,2.93,0,0,1,.88-1,2.07,2.07,0,0,1,1.28-.44l.31,0v2.19a2.83,2.83,0,0,0-1.09-.22,1.38,1.38,0,0,0-1,.37,1.34,1.34,0,0,0-.38,1V191Z"/><path class="cls-1" d="M223.14,191v-9.89h2V191Zm.5-10.82,1-3h2l-2,3Z"/><path class="cls-1" d="M228.74,191.17a1.78,1.78,0,0,1-1.41-.71,2.54,2.54,0,0,1-.57-1.62,3.42,3.42,0,0,1,.24-1.3,4.44,4.44,0,0,1,.52-.94,3.27,3.27,0,0,1,.9-.73,8.06,8.06,0,0,1,1-.51l1.13-.46.21-.08v-.71a2.58,2.58,0,0,0-.21-1.16.94.94,0,0,0-1.51-.07,2,2,0,0,0-.25,1,1.86,1.86,0,0,0,0,.26h-2a3.24,3.24,0,0,1,.8-2.27,2.81,2.81,0,0,1,2.17-.84,2.85,2.85,0,0,1,2.17.85,3.19,3.19,0,0,1,.79,2.26v4.45A9.61,9.61,0,0,0,233,191h-2l-.26-1.48c-.11.2-.19.36-.25.48s-.16.25-.29.42a1.74,1.74,0,0,1-.37.39,2.46,2.46,0,0,1-.46.23A1.74,1.74,0,0,1,228.74,191.17Zm1-1.62a.68.68,0,0,0,.4-.13,1.65,1.65,0,0,0,.3-.23c.07-.08.15-.18.25-.32l0-.05v-2.73l-.41.26c-.19.12-.35.21-.46.29a4.92,4.92,0,0,0-.41.31,2.17,2.17,0,0,0-.37.38,2,2,0,0,0-.23.44,1.49,1.49,0,0,0-.1.55Q228.74,189.55,229.73,189.55Z"/><path class="cls-1" d="M239.92,191.17a1.84,1.84,0,0,1-1.15-.37,2.41,2.41,0,0,1-.76-1,6.88,6.88,0,0,1-.39-1.32,11,11,0,0,1-.17-1.47c0-.25,0-.84,0-1.78,0-.34,0-.65.05-.92s.06-.57.1-.87a6.13,6.13,0,0,1,.19-.79,3.27,3.27,0,0,1,.3-.66,1.92,1.92,0,0,1,.43-.53,1.82,1.82,0,0,1,.6-.33,2.11,2.11,0,0,1,.77-.13,2.06,2.06,0,0,1,.62.09,1.79,1.79,0,0,1,.55.28,2.77,2.77,0,0,1,.42.34,5,5,0,0,1,.42.41v-4.93h2V191h-2v-.9a4.3,4.3,0,0,1-.91.75A1.93,1.93,0,0,1,239.92,191.17Zm.49-1.62a3.9,3.9,0,0,0,1.49-.31V183a2.89,2.89,0,0,0-1.49-.4.79.79,0,0,0-.49.15.8.8,0,0,0-.3.41,3,3,0,0,0-.15.57,4.4,4.4,0,0,0-.05.68c0,1.16,0,2.07,0,2.75a7.61,7.61,0,0,0,.05.88,4.62,4.62,0,0,0,.15.74,1.12,1.12,0,0,0,.31.55A.66.66,0,0,0,240.41,189.55Z"/><path class="cls-1" d="M248.52,191.17a2.85,2.85,0,0,1-1.25-.25,2.29,2.29,0,0,1-.84-.64,3.25,3.25,0,0,1-.51-1,6.18,6.18,0,0,1-.26-1.25,14.2,14.2,0,0,1-.09-1.44c0-.44,0-.87,0-1.3a13.1,13.1,0,0,1,.1-1.38,6.76,6.76,0,0,1,.28-1.16,2.82,2.82,0,0,1,.53-.92,2.19,2.19,0,0,1,.84-.59,3,3,0,0,1,1.21-.22,3.43,3.43,0,0,1,1.12.17,2,2,0,0,1,.8.5,2.87,2.87,0,0,1,.54.75,3.49,3.49,0,0,1,.32,1c.07.39.12.77.15,1.15s0,.8,0,1.3v.23h-3.95v.81a5.76,5.76,0,0,0,0,.59l0,.6a3.43,3.43,0,0,0,.08.56,3.61,3.61,0,0,0,.17.47.78.78,0,0,0,.29.31.74.74,0,0,0,.42.12,1,1,0,0,0,.51-.12.67.67,0,0,0,.3-.36,2.18,2.18,0,0,0,.14-.48,4.73,4.73,0,0,0,0-.6v-.42h2V188a3.85,3.85,0,0,1-.78,2.4A2.78,2.78,0,0,1,248.52,191.17Zm-1-6.07h2v-.6a6.15,6.15,0,0,0,0-.68,3,3,0,0,0-.13-.59.94.94,0,0,0-.3-.45.83.83,0,0,0-.5-.16.78.78,0,0,0-.5.17.85.85,0,0,0-.3.46,3.68,3.68,0,0,0-.14.6,6.85,6.85,0,0,0,0,.71Z"/><path class="cls-1" d="M252.94,191V177.19h2V191Z"/><path class="cls-1" d="M260,191V177.19h3.07a3.3,3.3,0,0,1,3.95,3.95v5.44a5.24,5.24,0,0,1-.9,3.37A3.82,3.82,0,0,1,263,191Zm2-1.48h1.09a3.34,3.34,0,0,0,.83-.09,1.17,1.17,0,0,0,.57-.33,3.08,3.08,0,0,0,.34-.44A1.73,1.73,0,0,0,265,188c0-.3.05-.55.06-.74s0-.49,0-.9v-4.75c0-.26,0-.46,0-.61s0-.32,0-.53a2.59,2.59,0,0,0-.06-.48c0-.12-.06-.25-.11-.4a.9.9,0,0,0-.17-.34l-.26-.26a.9.9,0,0,0-.34-.2,2.82,2.82,0,0,0-.46-.11,3.57,3.57,0,0,0-.59,0H262Z"/><path class="cls-1" d="M268.73,179.66v-2h2v2Zm0,11.37v-9.89h2V191Z"/><path class="cls-1" d="M275.2,191.17a2.69,2.69,0,0,1-2-.72,3.93,3.93,0,0,1-1-1.89l1.49-.5c.35,1,.85,1.49,1.48,1.49a1,1,0,0,0,.73-.26,1,1,0,0,0,.26-.73,1.47,1.47,0,0,0-.49-1.14l-2-1.49a6.25,6.25,0,0,1-.56-.42,3.52,3.52,0,0,1-.45-.48,2,2,0,0,1-.36-.64,2.45,2.45,0,0,1-.12-.78,2.39,2.39,0,0,1,.81-1.94,3.32,3.32,0,0,1,2.16-.67,3,3,0,0,1,1.16.21,2.2,2.2,0,0,1,.87.57,3.59,3.59,0,0,1,.58.82,5,5,0,0,1,.36,1l-1.48.5c-.08-.2-.15-.37-.22-.51a3.73,3.73,0,0,0-.29-.46,1.3,1.3,0,0,0-.43-.38,1.12,1.12,0,0,0-.55-.14,1,1,0,0,0-.73.26,1,1,0,0,0-.26.73,1.07,1.07,0,0,0,.5.84l2,1.48a5.89,5.89,0,0,1,.56.51,4.44,4.44,0,0,1,.46.56,2.27,2.27,0,0,1,.34.72,2.84,2.84,0,0,1,.12.84,2.39,2.39,0,0,1-.81,1.94A3.26,3.26,0,0,1,275.2,191.17Z"/><path class="cls-1" d="M282.17,191.17a2.8,2.8,0,0,1-1.24-.25,2.25,2.25,0,0,1-.85-.64,3.24,3.24,0,0,1-.5-1,7,7,0,0,1-.27-1.25,14.2,14.2,0,0,1-.09-1.44c0-.44,0-.87,0-1.3a12.89,12.89,0,0,1,.11-1.38,5.3,5.3,0,0,1,.28-1.16,2.8,2.8,0,0,1,.52-.92,2.19,2.19,0,0,1,.84-.59,3.06,3.06,0,0,1,1.22-.22,3.51,3.51,0,0,1,1.12.17,2.05,2.05,0,0,1,.8.5,3.08,3.08,0,0,1,.53.75,3.49,3.49,0,0,1,.32,1,7.71,7.71,0,0,1,.15,1.15c0,.37.05.8.05,1.3v.23h-4v.81a5.8,5.8,0,0,0,0,.59c0,.2,0,.4,0,.6a2.62,2.62,0,0,0,.09.56,2,2,0,0,0,.17.47.76.76,0,0,0,.28.31.75.75,0,0,0,.43.12,1,1,0,0,0,.51-.12.77.77,0,0,0,.3-.36,2.14,2.14,0,0,0,.13-.48,4.51,4.51,0,0,0,.05-.6v-.42h2V188a3.85,3.85,0,0,1-.78,2.4A2.75,2.75,0,0,1,282.17,191.17Zm-1-6.07h2v-.6a6.39,6.39,0,0,0,0-.68,3,3,0,0,0-.14-.59.82.82,0,0,0-.3-.45.84.84,0,0,0-1,0,1,1,0,0,0-.3.46,3.61,3.61,0,0,0-.13.6,4.73,4.73,0,0,0-.05.71Z"/><path class="cls-1" d="M286.59,191v-9.89h2v1.07c.3-.27.54-.47.72-.62a3.4,3.4,0,0,1,.77-.4,2.84,2.84,0,0,1,1.05-.19,1.33,1.33,0,0,1,1,.46,1.73,1.73,0,0,1,.39,1.14V191h-2v-7.42a1.45,1.45,0,0,0-.15-.75c-.09-.16-.29-.24-.59-.24a1.34,1.34,0,0,0-.51.11,2.05,2.05,0,0,0-.37.19l-.36.28V191Zm4-10.82a1.78,1.78,0,0,1-.76-.17l-.75-.33a1.7,1.7,0,0,0-.68-.17c-.25,0-.38.17-.38.52h-1.18a2.43,2.43,0,0,1,.44-1.5,1.44,1.44,0,0,1,1.26-.61,2.72,2.72,0,0,1,1.12.33,2.55,2.55,0,0,0,1.05.33c.26,0,.39-.17.39-.53h1.19a2.58,2.58,0,0,1-.44,1.52A1.47,1.47,0,0,1,290.58,180.21Z"/><path class="cls-1" d="M299.31,190.24a3.26,3.26,0,0,1-4.56,0,4.41,4.41,0,0,1-.68-2.67v-3a4.43,4.43,0,0,1,.68-2.67,3.26,3.26,0,0,1,4.56,0,4.42,4.42,0,0,1,.69,2.67v3A4.4,4.4,0,0,1,299.31,190.24Zm-2.64-.75a1,1,0,0,0,.36.06,1.06,1.06,0,0,0,.37-.06.81.81,0,0,0,.26-.15.71.71,0,0,0,.18-.27,2.63,2.63,0,0,0,.1-.3,1.59,1.59,0,0,0,.06-.38c0-.16,0-.3,0-.39v-3.83c0-.09,0-.22,0-.39a1.59,1.59,0,0,0-.06-.38c0-.08-.06-.19-.1-.3a.66.66,0,0,0-.18-.26.81.81,0,0,0-.26-.15.87.87,0,0,0-.37-.07.8.8,0,0,0-.36.07.87.87,0,0,0-.27.15.56.56,0,0,0-.17.26c-.05.11-.08.22-.11.3a1.67,1.67,0,0,0-.05.38c0,.17,0,.3,0,.39s0,.24,0,.43v3c0,.19,0,.33,0,.43s0,.23,0,.39a1.67,1.67,0,0,0,.05.38,2.85,2.85,0,0,0,.11.3.6.6,0,0,0,.17.27A.87.87,0,0,0,296.67,189.49Z"/></svg>