<?xml version="1.0" encoding="UTF-8"?> <svg xmlns="http://www.w3.org/2000/svg" id="Logos_Patrocinadores_Web" data-name="Logos Patrocinadores Web" viewBox="0 0 300 300"><defs><style>.cls-1{fill:#8f8fa3;}</style></defs><path class="cls-1" d="M49.63,189.77c1.47,2.84,3.55,5.3,5.34,8.1-.41.06-.71.15-1,.16a66.5,66.5,0,0,1-29.16-4.61A44.69,44.69,0,0,1,6.86,180.75a27.52,27.52,0,0,1-6.75-17,39.37,39.37,0,0,1,0-6.33c.61-4.78,3.69-7.9,7.57-10.36a42.34,42.34,0,0,1,9.41-4.24,1.47,1.47,0,0,0,1.08-1.18,66,66,0,0,1,15.13-27.54c3.26-3.56,7-6.5,11.69-7.86,5.94-1.7,11.26-.17,16.12,3.35,4.23,3.06,7.45,7.08,10.45,11.29a65.39,65.39,0,0,1,9.69,20.66,1.51,1.51,0,0,0,1.09,1.19,37.81,37.81,0,0,1,11.57,5.73,13.23,13.23,0,0,1,5.43,8.73,27.41,27.41,0,0,1,.12,5.36,29.87,29.87,0,0,1-2.73,11.71,36.91,36.91,0,0,1-13.55,14.68,55.23,55.23,0,0,1-17.36,7.3,2.27,2.27,0,0,1-1.54-.3,57.32,57.32,0,0,0-12.78-6c-.51-.16-1-.3-1.56-.45-.09.09-.19.18-.28.28m2.27-17.08c2.27-.2,6.82-.48,11.34-1a59.53,59.53,0,0,0,15-3.71,1.26,1.26,0,0,0,.94-1.43,94.68,94.68,0,0,0-2.39-19.63c-2.24-9.39-6-18.1-12.32-25.49a33.28,33.28,0,0,0-10.66-8.74,8.81,8.81,0,0,0-5.77-.9,14.4,14.4,0,0,0-5.59,2.67,47.07,47.07,0,0,0-11.79,12.93C23.1,139.52,20.21,152.9,20.23,167a1.13,1.13,0,0,0,.59.82c1.39.56,2.79,1.1,4.21,1.53,8,2.43,16.26,3.2,26.87,3.3m-36-23.27c-2.63,2-5.07,3.84-5.78,7.07-.66,3,1.46,6.79,4.06,7.72.56-4.82,1.13-9.67,1.72-14.79m69.42,14.85c2.61-1,4.14-4.25,3.65-7.8-.42-3.14-3.29-6.71-5.47-6.93.6,4.87,1.21,9.77,1.82,14.73"></path><path class="cls-1" d="M155.61,121.62l0,21.15h-3.41l0-26.85c1.38,0,2.75,0,4.1,0,.24,0,.53.42.65.71q3.76,9,7.48,18A30.41,30.41,0,0,0,166,138l0-22h3.5l0,26.83c-1.49,0-3,0-4.4,0-.25,0-.56-.45-.68-.76q-4.11-9.79-8.17-19.61c-.12-.29-.25-.57-.38-.86l-.22.07"></path><path class="cls-1" d="M286,142.67h-3.48l0-26.88c1.37,0,2.73,0,4.09,0,.24,0,.55.41.66.69,2.4,5.73,4.76,11.46,7.14,17.2a31.51,31.51,0,0,0,1.92,4l0-21.9h3.49l0,26.83c-1.52,0-3,0-4.55,0-.21,0-.47-.47-.59-.77-2.73-6.54-5.43-13.09-8.15-19.63a2.37,2.37,0,0,0-.54-.86Z"></path><path class="cls-1" d="M195.72,130.85l0,11.87h-3.48l0-26.72a1.4,1.4,0,0,1,.37-.11c3.29,0,6.59,0,9.87.11a6.07,6.07,0,0,1,6,6.22c.07,2-.17,4-1.59,5.58a15.12,15.12,0,0,1-2.19,1.68,4.64,4.64,0,0,0,.43.19,4.22,4.22,0,0,1,3,3.77c.21,2,.26,4,.4,5.94a4.44,4.44,0,0,0,1.35,3.39c-1.4,0-2.59.06-3.78,0a1.24,1.24,0,0,1-.8-.87c-.28-1.89-.45-3.8-.66-5.7a19.69,19.69,0,0,0-.38-2.89,2.93,2.93,0,0,0-3-2.41c-1.75-.05-3.51,0-5.43,0m0-2.67c2-.09,3.79-.06,5.58-.29,2.26-.28,3.4-1.94,3.52-4.75a3.75,3.75,0,0,0-3.13-4.2,54.81,54.81,0,0,0-5.93-.33c0,.45-.05.71-.05,1,0,2.8,0,5.59,0,8.61"></path><path class="cls-1" d="M126.24,123.38c-.11-.57-.21-1.17-.35-1.77a4.1,4.1,0,0,0-3.68-3.38,4.26,4.26,0,0,0-4.76,2.45,13.36,13.36,0,0,0-1.08,3.92,37.09,37.09,0,0,0,.32,11.47,9.11,9.11,0,0,0,.79,2.19,4.61,4.61,0,0,0,8,.11c1.11-2.08,1.17-4.35,1.21-6.75h-5.46v-2.69h8.56l0,13.87h-2.49v-3.28c-.21.19-.32.25-.36.34a6.21,6.21,0,0,1-6,3.56c-3,0-5.46-1.24-6.69-4.07a19.88,19.88,0,0,1-1.47-5.51,30.09,30.09,0,0,1,.63-12,8.58,8.58,0,0,1,12.57-5.46c2.83,1.42,3.77,4,3.89,7Z"></path><path class="cls-1" d="M278.44,129.22a26.67,26.67,0,0,1-1.29,8.57,8.4,8.4,0,0,1-15.81-.16,25.1,25.1,0,0,1-1.06-10,27.85,27.85,0,0,1,1.11-6.7,8.44,8.44,0,0,1,13.6-3.56,10.43,10.43,0,0,1,2.9,6.26c.28,1.86.37,3.75.55,5.62m-3.58.06-.25,0c0-1,.05-2,0-3a14,14,0,0,0-1.16-5.59,4.51,4.51,0,0,0-5.2-2.49c-2.42.51-3.35,2.31-3.8,4.44a36.23,36.23,0,0,0-.3,11.57,14.67,14.67,0,0,0,1.09,3.92,3.89,3.89,0,0,0,3.63,2.38c2.73.15,4.5-1.09,5.12-4,.5-2.34.61-4.76.89-7.14"></path><path class="cls-1" d="M230.22,142.75c-1,0-2.05,0-3.05,0a1,1,0,0,1-.67-.6q-.85-2.94-1.62-5.91c-.16-.61-.38-.91-1.11-.89-2.41.06-4.82,0-7.23,0-.65,0-.89.23-1,.83-.58,2.18-1.21,4.36-1.83,6.56H210c.62-2.09,1.22-4.14,1.83-6.19q3-9.91,6-19.85c.2-.67.48-.89,1.14-.85,1,0,2.09,0,3.13,0a1.09,1.09,0,0,1,.81.57q3.68,12.87,7.28,25.75a2.63,2.63,0,0,1,.06.55m-6.33-10.18c-1.18-4.24-2.33-8.42-3.49-12.59l-.19,0c-1.24,4.17-2.49,8.35-3.74,12.57Z"></path><path class="cls-1" d="M149,139.87v2.89H134L134,116l14.42,0V119H137.44c0,2.66,0,5.23,0,7.8,0,.18.52.49.79.5,2.84,0,5.68,0,8.51,0,.91,0,1.23.24,1.13,1.14-.06.6,0,1.22,0,1.89H137.52v9.58Z"></path><path class="cls-1" d="M204.53,189.73a3.52,3.52,0,0,1-.36,0c-2.87.08-2.87.08-4.06-2.57q-4.43-9.87-8.88-19.72c-.11-.26-.25-.5-.52-1l0,23.26h-2.46l0-26.84c1,0,1.95,0,2.91,0,.25,0,.55.39.68.67q4.83,10.65,9.62,21.32a2.76,2.76,0,0,0,.6.91l0-22.88h2.47Z"></path><path class="cls-1" d="M259.1,185.69l0-11.42V162.88h2.43l0,26.84a26.76,26.76,0,0,1-2.84,0c-.3,0-.65-.46-.79-.79-1.93-4.23-3.83-8.47-5.74-12.7q-2-4.45-4-8.9c-.09-.2-.21-.39-.46-.85l0,23.22H245.2V188.6c0-8.22,0-16.44,0-24.66,0-.89.26-1.06,1.13-1.16,1.68-.2,2.48.4,3.16,2,2.91,6.74,6,13.41,9,20.11.13.28.28.56.42.85l.23,0"></path><polygon class="cls-1" points="188.95 139.82 188.95 142.76 174.08 142.78 174.05 115.97 188.44 115.95 188.45 118.88 177.58 118.89 177.59 127.23 187.85 127.22 187.86 130.21 177.6 130.22 177.61 139.84 188.95 139.82"></polygon><path class="cls-1" d="M249.17,123.73c-1.12,0-2.06,0-3,0-.49,0-.71-.15-.71-.67a6.17,6.17,0,0,0-.18-1.35c-.5-2.24-1.73-3.42-3.77-3.62-2.31-.24-4.16.68-4.89,2.85a23.1,23.1,0,0,0-1,5.42,31.73,31.73,0,0,0,.48,9.62,9.34,9.34,0,0,0,.8,2.18c1,1.87,2.58,2.45,4.57,2.31a3.84,3.84,0,0,0,3.66-2.87c.39-1.29.56-2.65.84-4h3.32c.17,6.08-3.41,10.18-9.11,9.68-4.3-.36-6.61-2.4-7.62-6.94a30.18,30.18,0,0,1,.22-14.69,8.7,8.7,0,0,1,13.14-5.1c2.62,1.63,3.16,4.27,3.3,7.21"></path><path class="cls-1" d="M166.42,176.33a28.84,28.84,0,0,1,1.4-8.47c2-5.46,7-6.21,10.69-4.84a7.68,7.68,0,0,1,4.68,5.64,28,28,0,0,1-.15,15.88c-2,6.33-8.07,6.63-11.62,4.78-2.55-1.34-3.62-3.78-4.15-6.42-.43-2.16-.58-4.38-.85-6.57m2.76,0c0,1-.07,2,0,2.93a15.32,15.32,0,0,0,1.54,6.19,5.15,5.15,0,0,0,5.48,2.69c2.5-.36,3.77-2,4.48-4.21a25.93,25.93,0,0,0,.92-9.56,17.87,17.87,0,0,0-1.28-6.46,5.17,5.17,0,0,0-3.37-3.14,5.31,5.31,0,0,0-6.64,3.32,20.46,20.46,0,0,0-1.15,8.24"></path><path class="cls-1" d="M128.89,181.52h2.37c0,.67.06,1.32.13,2,.4,3.67,2.89,4.85,5.67,4.76,2.12-.07,4.11-.68,5.06-2.85s.95-5.65-2.41-7.09c-1.9-.82-3.9-1.4-5.83-2.16-2.31-.92-4-2.4-4.42-5-.84-5.73,2.92-9,8.45-8.6a11.54,11.54,0,0,1,2,.35,6.15,6.15,0,0,1,4.38,7H142c-.06-.32-.12-.66-.17-1-.48-3.23-2.8-4.82-6-4.14a4.51,4.51,0,0,0-3.92,4,4.56,4.56,0,0,0,2.39,4.92,29.62,29.62,0,0,0,3.67,1.54c.88.34,1.79.59,2.66.94,4.58,1.85,4.86,4.71,4.42,8a6.9,6.9,0,0,1-7,6.13A16.36,16.36,0,0,1,134,190a6.47,6.47,0,0,1-5.06-6.08c-.07-.74,0-1.49,0-2.35"></path><path class="cls-1" d="M300.11,189.65h-2.64c-.68-2.35-1.37-4.71-2-7.07-.13-.46-.25-.75-.82-.74-3,0-5.93,0-8.95,0l-2.24,7.8h-2.66c.77-2.56,1.53-5.07,2.29-7.58q2.76-9.2,5.5-18.39a1.11,1.11,0,0,1,1.3-.94c2.12,0,2.12,0,2.73,2Q296.28,177,300,189.18c0,.11.07.24.13.47M290.51,165l-.19,0c-1.36,4.89-2.72,9.78-4.09,14.73h8.43c-1.4-5-2.78-9.87-4.15-14.76"></path><path class="cls-1" d="M226.45,189.71H223.8c.8-2.7,1.59-5.37,2.39-8,1.8-6,3.62-11.94,5.39-17.91a1.11,1.11,0,0,1,1.28-.95c2.11.05,2.12,0,2.73,2q3.72,12.26,7.43,24.52c0,.09,0,.18.09.33h-2.64c-.65-2.25-1.35-4.53-1.95-6.84a1.05,1.05,0,0,0-1.25-1c-2.61.05-5.22.05-7.83,0a.84.84,0,0,0-1,.76c-.64,2.35-1.33,4.68-2,7m7-25c-1.45,5.19-2.82,10.1-4.2,15.06h8.43c-1.4-5-2.78-9.87-4.23-15.05"></path><path class="cls-1" d="M150.88,178.09l0,11.7h-2.49l0-26.68s.09-.12.14-.12c3.06,0,6.13-.14,9.17.13a5.77,5.77,0,0,1,5.41,5.18,12.65,12.65,0,0,1,.09,4.07,6.59,6.59,0,0,1-6.58,5.7c-1.84.09-3.7,0-5.73,0m.06-2H152c1.56-.05,3.13,0,4.68-.19a4.36,4.36,0,0,0,4-3.8,12.5,12.5,0,0,0-.12-3.66,3.5,3.5,0,0,0-2.92-3.06c-2.18-.36-4.42-.38-6.71-.56Z"></path><polygon class="cls-1" points="278.73 174.6 278.73 176.67 268.46 176.69 268.47 187.66 279.86 187.65 279.87 189.63 265.94 189.64 265.91 162.86 279.48 162.85 279.48 164.84 268.43 164.86 268.44 174.62 278.73 174.6"></polygon><polygon class="cls-1" points="115.42 174.84 125.67 174.83 125.68 176.84 115.4 176.85 115.41 187.8 126.77 187.79 126.77 189.79 112.87 189.81 112.84 163.04 126.42 163.03 126.43 164.99 115.41 165 115.42 174.84"></polygon><path class="cls-1" d="M252.64,115.82c.84,0,1.59.05,2.33,0s1.17.2,1.16,1.12c0,5.61,0,11.21,0,16.82v8.93h-3.46Z"></path><polygon class="cls-1" points="223.54 164.95 216.54 164.95 216.56 189.7 214.07 189.7 214.04 164.98 207 164.99 207 162.93 223.54 162.91 223.54 164.95"></polygon><path class="cls-1" d="M267.34,114.24c.84-1.64,1.66-3.26,2.51-4.85a.77.77,0,0,1,.6-.33c1.07,0,2.14,0,3.44,0-.77,1-1.44,1.85-2.1,2.7a7.59,7.59,0,0,0-.9,1.15c-.76,1.42-1.93,1.79-3.55,1.36"></path><path class="cls-1" d="M231.67,161.74c1-1.89,1.9-3.51,2.81-5.12a.69.69,0,0,1,.51-.31c.74,0,1.49,0,2.42,0-1.25,1.77-2.33,3.46-3.6,5-.32.39-1.23.28-2.14.45"></path></svg> 