<svg id="Logos_Patrocinadores_Web" data-name="Logos Patrocinadores Web" xmlns="http://www.w3.org/2000/svg" viewBox="0 0 300 300"><defs><style>.cls-1,.cls-2,.cls-3{fill:#8f8fa3;}.cls-1{fill-rule:evenodd;}.cls-3{stroke:#000;stroke-miterlimit:3.86;stroke-width:0.21px;}</style></defs><path class="cls-1" d="M60,172.37c8-11.26-22.72-23.13-22.72-23.13l10.56-.8s30.44-2.84,24.57,6.46Z"/><path class="cls-1" d="M60.06,172.38l12.42-17.46a17.74,17.74,0,0,1-1.66,2C59.12,168.52,10,165.23,10,136.36a17.12,17.12,0,0,1,.26-3.06,12.63,12.63,0,0,1,.69-2.46L1,157.52a18.9,18.9,0,0,0-.9,5.9c0,28.91,47.2,22,58.83,10.31A9.28,9.28,0,0,0,60.06,172.38Z"/><path class="cls-1" d="M.93,157.52c7.39-22.79,57.65-21.41,57.65-21.41l12,.44s-52-24.94-59.68-5.71Z"/><path class="cls-2" d="M10,176.48C4.68,173.13,1.22,167.8,1.23,160h0a17.56,17.56,0,0,1,5.35-12.92h0c3.31-3.29,7.88-5.64,13-7.33h0c10.16-3.37,22.38-4.05,30.71-4.05h0c5.82,0,13.75.71,13.75.71H62.07s-10.73-.26-11.83-.26h0c-12.46,0-33.64,1.58-43.35,11.26h0A17.14,17.14,0,0,0,1.67,160h0c0,7.67,3.36,12.82,8.52,16.1h0c5.16,3.28,12.13,4.66,19.31,4.66h0c12.36,0,25.33-4.1,30.6-9.39h0a6.93,6.93,0,0,0,2.38-4.91h0c0-3.4-3.3-6.71-7.52-9.45h0a72.65,72.65,0,0,0-12.66-6.27h0c-2.25-.88-3.75-1.36-3.75-1.36h0l.59-.28s13.12,4.25,20,10.5h0c2.27,2.08,3.83,4.39,3.83,6.86h0a7.41,7.41,0,0,1-2.52,5.23h0C55,177.12,42,181.19,29.5,181.2h0c-7.23,0-14.29-1.38-19.55-4.72Z"/><path class="cls-2" d="M8.21,179.31c-5-3.22-8.21-8.39-8.21-15.94H0c0-6.54,3-11.55,7.6-15.34h0c4.6-3.79,10.82-6.39,17.33-8.17h0c13-3.57,27.17-3.9,31.91-3.9h0c1.06,0,1.64,0,1.64,0l8.12.43H56.84c-7.07,0-35.37.75-49,12h0C3.34,152.1.44,157,.44,163.37h0c0,7.43,3.14,12.41,8,15.58h0c4.87,3.16,11.48,4.49,18.38,4.49h0c12.68,0,26.33-4.49,31.79-10h0a7.09,7.09,0,0,0,2.4-5.07h0c0-3.57-3.29-7.17-7.48-10.23h0A74.82,74.82,0,0,0,41,151.06h0c-2.23-1-3.72-1.59-3.72-1.59l.55-.26s13.08,5.06,19.87,11.89h0c2.26,2.27,3.79,4.75,3.8,7.31h0a7.53,7.53,0,0,1-2.53,5.37h0c-5.63,5.62-19.31,10.09-32.1,10.09h0c-6.95,0-13.64-1.33-18.61-4.56Z"/><path class="cls-2" d="M11.71,173.65c-5.56-3.46-9.26-9-9.26-17h0c0-9.18,5.94-14.65,14-17.76h0c8-3.12,18.21-3.95,26.85-3.95h0c10.16,0,22.71,1.48,22.71,1.48H61.13l-5-.44h0c-3.27-.29-7.81-.58-12.87-.58h0c-8.61,0-18.74.85-26.69,3.93h0c-7.95,3.1-13.67,8.38-13.68,17.33h0c0,7.89,3.59,13.22,9.05,16.63h0c5.46,3.39,12.8,4.83,20.26,4.83h0c12,0,24.28-3.74,29.36-8.83h0A6.82,6.82,0,0,0,64,164.5h0c0-3.23-3.3-6.23-7.55-8.66h0a71,71,0,0,0-12.75-5.42h0c-2.27-.74-3.77-1.13-3.77-1.13h0l.67-.29s13.1,3.43,20,9.09h0c2.29,1.89,3.87,4,3.88,6.41h0a7.29,7.29,0,0,1-2.52,5.1h0c-5.25,5.23-17.58,9-29.68,9h0c-7.51,0-14.94-1.44-20.51-4.91Z"/><path class="cls-2" d="M13.5,170.85a19.53,19.53,0,0,1-9.82-17.58h0c0-8,4.52-12.92,11-15.79h0c6.49-2.89,15-3.77,23-3.78h0a172.32,172.32,0,0,1,27.56,2.71H62s-4.39-.71-6.72-1h0a138.57,138.57,0,0,0-17.56-1.21h0c-8,0-16.41.89-22.79,3.73h0c-6.39,2.85-10.73,7.58-10.73,15.36h0a19.07,19.07,0,0,0,9.6,17.18h0c5.76,3.53,13.49,5,21.21,5h0c11.61,0,23.22-3.42,28.1-8.31h0c1.68-1.68,2.37-3.22,2.37-4.63h0a6.1,6.1,0,0,0-2.19-4.29h0a21.65,21.65,0,0,0-5.41-3.59h0A70,70,0,0,0,45,150.1h0c-2.28-.6-3.8-.9-3.8-.9h0l.76-.32S55,151.5,62,156.59h0c2.31,1.69,3.9,3.67,3.91,5.95h0c0,1.57-.77,3.23-2.5,5h0C58.33,172.55,46.67,176,35,176h0c-7.78,0-15.58-1.51-21.46-5.11Z"/><path class="cls-2" d="M15.3,168.06c-6.2-3.72-10.4-9.62-10.4-18.15h0c0-7.07,3.56-11.56,8.9-14.22h0c5.34-2.67,12.44-3.57,19.64-3.57h0c15.3,0,32.17,4.29,32.17,4.29H63.37L61.69,136h0c-1.71-.38-4.15-.88-7.07-1.39h0a127.18,127.18,0,0,0-21.18-2h0c-7.16,0-14.21.9-19.43,3.51h0c-5.22,2.62-8.62,6.9-8.63,13.79h0c0,8.36,4.08,14.07,10.17,17.74h0c6.08,3.67,14.19,5.25,22.17,5.24h0c11.2,0,22.14-3.13,26.83-7.83h0c1.67-1.67,2.34-3.16,2.34-4.48h0a5.35,5.35,0,0,0-2.18-4h0a20.71,20.71,0,0,0-5.44-3.14h0a70.52,70.52,0,0,0-12.92-3.7h0c-2.3-.46-3.82-.68-3.82-.68h0l.87-.35s13,1.83,20,6.32h0c2.33,1.5,3.94,3.32,3.95,5.51h0c0,1.49-.77,3.1-2.49,4.83h0c-4.88,4.85-15.88,8-27.17,8h0c-8,0-16.22-1.59-22.42-5.32Z"/><path class="cls-2" d="M17.11,165.3c-6.52-3.86-11-10-11-18.75h0c0-6.33,2.88-10.46,7.35-12.93h0c4.47-2.48,10.49-3.36,16.88-3.36h0c16.6,0,36.25,6.16,36.25,6.16H64.78s-.12-.06-2.15-.62h0c-2-.56-4.93-1.31-8.34-2h0a116.74,116.74,0,0,0-23.94-3h0c-6.34,0-12.3.88-16.64,3.29h0c-4.34,2.43-7.08,6.32-7.09,12.5h0c0,8.6,4.34,14.51,10.74,18.32h0c6.42,3.81,14.9,5.48,23.12,5.47h0c10.76,0,21.06-2.87,25.55-7.37h0c1.66-1.66,2.34-3.11,2.33-4.35h0A4.63,4.63,0,0,0,66.18,155h0a19.58,19.58,0,0,0-5.48-2.7h0a71.19,71.19,0,0,0-13-2.85h0c-2.31-.31-3.84-.44-3.85-.44h0l1-.41s13,1,20.05,5h0c2.34,1.3,4,3,4,5.05h0c0,1.43-.78,3-2.49,4.7h0c-4.68,4.67-15,7.51-25.9,7.52h0c-8.28,0-16.85-1.67-23.37-5.54Z"/><path class="cls-2" d="M18.93,162.53c-6.84-4-11.59-10.33-11.58-19.36h0c0-5.73,2.37-9.54,6.17-11.85h0c3.8-2.31,9-3.17,14.62-3.17h0c17.38,0,39.84,8.31,39.84,8.31h0l-1.68-.05-2.67-.91h0c-2.32-.76-5.61-1.77-9.43-2.79h0c-7.64-2-17.44-4.05-26.06-4.05h0c-5.6,0-10.69.86-14.36,3.1h0c-3.65,2.24-5.91,5.82-5.92,11.41h0c0,8.84,4.6,15,11.33,18.93h0c6.73,4,15.6,5.71,24,5.71h0c10.32,0,20-2.64,24.29-6.95h0c1.66-1.66,2.33-3.06,2.33-4.22h0c0-1.27-.8-2.34-2.19-3.27h0a19.18,19.18,0,0,0-5.5-2.26h0a74.8,74.8,0,0,0-13.09-2h0c-2.33-.17-3.87-.2-3.87-.2h0l1.32-.46a81,81,0,0,1,8.85.81h0c5.39.75,11.36,2.1,13.86,4.73h0a3.81,3.81,0,0,1,1.14,2.64h0c0,1.36-.77,2.87-2.48,4.58h0c-4.49,4.48-14.24,7.09-24.65,7.09h0c-8.5,0-17.44-1.76-24.29-5.78Z"/><path class="cls-2" d="M20.76,159.78c-7.17-4.17-12.19-10.71-12.19-20h0c0-5.25,2-8.78,5.26-10.94h0c3.27-2.17,7.76-3,12.78-3h0c17.8,0,42.82,10.64,42.82,10.64l-1.52,0s-.64-.29-3.22-1.27h0c-2.58-1-6.2-2.28-10.37-3.58h0C46,129,35.41,126.39,26.61,126.39h0c-5,0-9.36.83-12.49,2.91h0c-3.12,2.09-5,5.39-5,10.51h0c0,9.06,4.87,15.4,11.93,19.52h0c7.05,4.12,16.29,6,24.94,6h0c9.85,0,18.93-2.44,23-6.56h0c1.66-1.65,2.32-3,2.32-4.08h0c0-1.25-.9-2.26-2.46-3.08h0a22,22,0,0,0-6.12-1.83h0a85.77,85.77,0,0,0-13.59-1h0c-1.62,0-2.63,0-2.63,0h0l2.06-.55h.57c4.85,0,15,.31,20,2.87h0c1.64.85,2.74,2,2.74,3.54h0c0,1.3-.77,2.76-2.47,4.45h0c-4.31,4.3-13.46,6.7-23.4,6.71h0c-8.72,0-18-1.86-25.2-6.05Z"/><path class="cls-2" d="M22.58,157c-7.49-4.34-12.79-11.1-12.78-20.59h0c0-4.84,1.69-8.13,4.54-10.17h0c2.84-2,6.78-2.84,11.25-2.84h0c18,0,45,13.11,45,13.11l-1.06,0s-2.3-1.05-3.7-1.66h0c-2.8-1.21-6.72-2.82-11.2-4.43h0c-9-3.23-20.14-6.46-29-6.45h0c-4.41,0-8.24.79-10.94,2.73h0c-2.69,2-4.31,5-4.32,9.74h0c0,9.27,5.14,15.84,12.52,20.13h0c7.37,4.29,17,6.26,25.8,6.26h0c9.4,0,17.9-2.25,21.83-6.19h0c1.64-1.64,2.3-3,2.3-4h0a2.53,2.53,0,0,0-1.34-2.12h0a10.8,10.8,0,0,0-3.65-1.38h0a51.86,51.86,0,0,0-10.59-1,63.4,63.4,0,0,0-6.54.29h0c-1.73.1-2.82.2-2.82.2l-.05-.39c0,.25,4.38-.55,9.5-.55h0a62.57,62.57,0,0,1,8.16.46h0a15.82,15.82,0,0,1,6.29,1.88h0a3.07,3.07,0,0,1,1.57,2.57h0c0,1.23-.77,2.64-2.45,4.33h0c-4.13,4.11-12.72,6.33-22.21,6.34h0c-8.89,0-18.58-2-26.07-6.33Z"/><path class="cls-2" d="M65.45,148.25a62.57,62.57,0,0,0-8.16-.46c-3.76,0-7.13.36-8.65.47l-7.39.68,6.59-.21s1.09-.1,2.82-.2,4-.29,6.54-.29a51.86,51.86,0,0,1,10.59,1,10.8,10.8,0,0,1,3.65,1.38,2.53,2.53,0,0,1,1.34,2.12c0,1-.66,2.31-2.3,4-2.57,2.58-7.1,4.43-12.56,5.41h0l.41.47c5.36-1,9.84-2.86,12.49-5.49,1.68-1.69,2.45-3.1,2.45-4.33a3.07,3.07,0,0,0-1.57-2.57A15.82,15.82,0,0,0,65.45,148.25Z"/><path class="cls-2" d="M69.09,151.13c-4.91-2.56-15.1-2.87-20-2.87h-.56l-3.18.29s2.12.23,3.74.23a85.77,85.77,0,0,1,13.59,1,22,22,0,0,1,6.12,1.83c1.56.82,2.46,1.83,2.46,3.08,0,1.07-.66,2.43-2.32,4.08-.07.08-.15.15-.22.22A15.68,15.68,0,0,0,71,157.14a4.59,4.59,0,0,0,.84-2.47C71.83,153.14,70.73,152,69.09,151.13Z"/><path class="cls-2" d="M70.23,157.46a1.51,1.51,0,0,0,.12-.82A3.81,3.81,0,0,0,69.21,154c-2.5-2.63-8.47-4-13.86-4.73a81,81,0,0,0-8.85-.81l-2.8.26,5.36.4a74.8,74.8,0,0,1,13.09,2,19.18,19.18,0,0,1,5.5,2.26c1.39.93,2.19,2,2.19,3.27a2.2,2.2,0,0,1-.31,1.24C69.83,157.66,70,157.69,70.23,157.46Z"/><path class="cls-2" d="M68.79,158.91c0-.1.08-.19.08-.29,0-2.1-1.66-3.75-4-5.05-7.05-3.91-20-4.95-20-4.95l-2.64.23s3.2.3,5.51.61a71.19,71.19,0,0,1,13,2.85,19.58,19.58,0,0,1,5.48,2.7,4.63,4.63,0,0,1,2.18,3.61,2.91,2.91,0,0,1-.06.65C68.49,159.15,68.61,159,68.79,158.91Z"/><path class="cls-2" d="M63.43,155.07c-7-4.49-20-6.32-20-6.32l-1.91.17s2.58.4,4.88.86a70.52,70.52,0,0,1,12.92,3.7,20.71,20.71,0,0,1,5.44,3.14,5.69,5.69,0,0,1,2.15,3.46l.46-.23C67,158,65.49,156.4,63.43,155.07Z"/><path class="cls-2" d="M62,156.59c-7-5.09-20-7.71-20-7.71l-1.6.13s2.36.49,4.64,1.09a70,70,0,0,1,12.83,4.56,21.65,21.65,0,0,1,5.41,3.59,7.64,7.64,0,0,1,1.86,2.62l.44-.18A9.91,9.91,0,0,0,62,156.59Z"/><path class="cls-2" d="M60.54,158.09c-6.89-5.66-20-9.08-20-9.09l-1.36.1s2.19.58,4.46,1.32a71,71,0,0,1,12.75,5.42c2.92,1.67,5.41,3.62,6.67,5.72l.45-.14A12.92,12.92,0,0,0,60.54,158.09Z"/><path class="cls-2" d="M59.1,159.6c-6.84-6.25-20-10.49-20-10.5l-1.14.09s2,.67,4.3,1.55A72.65,72.65,0,0,1,55,157a23,23,0,0,1,5.86,5.11l.48-.11A16.9,16.9,0,0,0,59.1,159.6Z"/><path class="cls-2" d="M37.78,149.21l-1.05.06s2,.77,4.22,1.79a74.82,74.82,0,0,1,12.58,7.12A30.33,30.33,0,0,1,58,162.05h0v0c.14.14.27.29.4.44l0,0,.5-.07a17.63,17.63,0,0,0-1.24-1.37C50.86,154.27,37.79,149.22,37.78,149.21Z"/><path class="cls-2" d="M72.78,152.77c0,1-.69,2.28-2.3,3.88-2.57,2.58-7.1,4.43-12.56,5.41h-.07l.36.48c5.52-1,10-2.89,12.65-5.52,1.65-1.66,2.42-3.05,2.45-4.26Z"/><line class="cls-3" x1="93.06" y1="193" x2="93.06" y2="114.43"/><path class="cls-2" d="M125.05,167.64h1.41l-5.69,16.11h-1.94l-5.68-16.11h1.4l5.25,14.83Z"/><path class="cls-2" d="M136.62,179.52h-7.5l-1.5,4.23h-1.41l5.62-16.11h2.1l5.62,16.11h-1.41Zm-7.07-1.23h6.63l-3.31-9.83Z"/><path class="cls-2" d="M143.49,179.3c0,2.52,1.11,3.41,4,3.41a23.3,23.3,0,0,0,3.58-.31l.17,1.23a20.68,20.68,0,0,1-3.87.37c-3.9,0-5.35-1.67-5.35-4.67v-7.26c0-3,1.45-4.67,5.35-4.67a21.53,21.53,0,0,1,3.87.36l-.17,1.23a23.3,23.3,0,0,0-3.58-.31c-2.93,0-4,.9-4,3.41Z"/><path class="cls-2" d="M165.73,167.64v11.54c0,2.74-1.65,4.82-5.57,4.82s-5.56-2.08-5.56-4.82V167.64H156v11.54c0,2.25,1.43,3.53,4.14,3.53s4.14-1.28,4.14-3.53V167.64Z"/><path class="cls-2" d="M181,167.64v11.54c0,2.74-1.65,4.82-5.57,4.82s-5.56-2.08-5.56-4.82V167.64h1.43v11.54c0,2.25,1.42,3.53,4.13,3.53s4.14-1.28,4.14-3.53V167.64Z"/><path class="cls-2" d="M198.44,169.07l-4.69,12.6h-2.21l-4.69-12.6-.34,14.68h-1.43l.49-16.11h2.08l5,13.16,5-13.16h2.08l.49,16.11h-1.43Z"/><path class="cls-2" d="M209.76,167.64h5.47c3.24,0,4.43,1.48,4.43,3.73v2.51c0,2.25-1.19,3.73-4.43,3.73h-4v6.14h-1.43Zm5.5,1.28h-4.07v7.41h4.07c2,0,3-.68,3-2.45v-2.51C218.23,169.6,217.29,168.92,215.26,168.92Z"/><path class="cls-2" d="M229,177.56h-4.6v6.19h-1.42V167.64h5.71c3.24,0,4.42,1.48,4.42,3.73v2.46a3.24,3.24,0,0,1-2.61,3.54l4.31,6.38h-1.62Zm-.29-8.64h-4.31v7.36h4.31c2,0,3-.68,3-2.45v-2.46C231.64,169.6,230.69,168.92,228.66,168.92Z"/><path class="cls-2" d="M237.9,167.64H247v1.28h-7.65v6h7.11v1.28h-7.11v6.29H247v1.28h-9.1Z"/><path class="cls-2" d="M254.89,184a13.61,13.61,0,0,1-4.55-.78l.27-1.16a15,15,0,0,0,4.33.65c2.76,0,3.51-.82,3.51-2.88,0-2.49,0-2.75-3.61-3.58-3.89-.89-4.33-1.59-4.33-4.84,0-2.63,1-4,5-4a16.9,16.9,0,0,1,4.16.55l-.17,1.21a19.66,19.66,0,0,0-3.94-.48c-3.2,0-3.63.77-3.63,2.78,0,2.62.07,2.74,3.46,3.58,4.23,1.07,4.47,1.67,4.47,4.72C259.87,182.4,259,184,254.89,184Z"/><path class="cls-2" d="M268.05,184a13.61,13.61,0,0,1-4.55-.78l.27-1.16a15,15,0,0,0,4.33.65c2.76,0,3.51-.82,3.51-2.88,0-2.49,0-2.75-3.61-3.58-3.89-.89-4.33-1.59-4.33-4.84,0-2.63,1-4,5-4a16.9,16.9,0,0,1,4.16.55l-.17,1.21a19.66,19.66,0,0,0-3.94-.48c-3.19,0-3.63.77-3.63,2.78,0,2.62.07,2.74,3.46,3.58,4.23,1.07,4.48,1.67,4.48,4.72C273,182.4,272.14,184,268.05,184Z"/><path class="cls-2" d="M277,167.64h9.07v1.28h-7.64v6h7.11v1.28h-7.11v6.29h7.67v1.28H277Z"/><path class="cls-2" d="M294,184a13.57,13.57,0,0,1-4.55-.78l.26-1.16a15,15,0,0,0,4.33.65c2.76,0,3.51-.82,3.51-2.88,0-2.49,0-2.75-3.6-3.58-3.9-.89-4.33-1.59-4.33-4.84,0-2.63,1-4,5-4a16.91,16.91,0,0,1,4.17.55l-.17,1.21a19.85,19.85,0,0,0-3.95-.48c-3.19,0-3.63.77-3.63,2.78,0,2.62.08,2.74,3.46,3.58,4.24,1.07,4.48,1.67,4.48,4.72C299,182.4,298.1,184,294,184Z"/><path class="cls-2" d="M119.13,146.88c0,3.15,1.35,5,5.62,5a35.08,35.08,0,0,0,5-.39v-9.8h5.77V155.9a41.51,41.51,0,0,1-10.82,1.46c-7.9,0-11.69-3.35-11.69-9.75V133.83c0-6.64,3.88-9.74,12.28-9.74a39.72,39.72,0,0,1,9.26,1.06l-.68,5.34a43,43,0,0,0-9.07-.88c-4.27,0-5.67,1.75-5.67,5Z"/><path class="cls-2" d="M153,151.49h13.29v5.38h-19.4v-32.3H153Z"/><path class="cls-2" d="M199.11,147.41c0,5.39-3.11,10-12.23,10s-12.22-4.56-12.22-10V134c0-5.39,3.1-9.94,12.22-9.94s12.23,4.55,12.23,9.94Zm-18.34-.33c0,3,1.55,4.89,6.11,4.89s6.11-1.84,6.11-4.89V134.37c0-3.06-1.55-4.9-6.11-4.9s-6.11,1.84-6.11,4.9Z"/><path class="cls-2" d="M210.5,156.87v-32.3h12.71c6.11,0,8.59,2.52,8.59,6.89v3.34c0,2.67-1.12,4.18-3.59,5.24a5.68,5.68,0,0,1,4.7,6v3.44c0,4.56-3,7.42-8.83,7.42Zm15.18-24.64c0-1.79-1-2.62-3.2-2.62h-5.87v8.49h5.82c2.38,0,3.25-1.11,3.25-3Zm1.12,14c0-2.18-1-3.25-3.4-3.25h-6.79v8.83h6.26c2.77,0,3.93-.78,3.93-3.15Z"/><path class="cls-2" d="M261.33,150.18h-12l-2,6.69h-6.41l10.19-32.3h8.54l10.18,32.3h-6.4Zm-10.47-5.29h8.92l-4.41-15.28Z"/><path class="cls-2" d="M285.63,151.49h13.29v5.38h-19.4v-32.3h6.11Z"/></svg>