<svg id="Logos_Patrocinadores_Web" data-name="Logos Patrocinadores Web" xmlns="http://www.w3.org/2000/svg" viewBox="0 0 300 300"><defs><style>.cls-1{fill:#8f8fa3;}</style></defs><path class="cls-1" d="M76.36,181l-1.87,8c-1.07,4.57-2.28,9.12-3.14,13.73-.45,2.45-1.77,3.36-4,3.79-14.39,2.77-28,.61-40.45-7.07C11.3,189.85,2.19,175.67.4,157.49c-3.12-31.59,19.1-55.67,45.14-60.55,27.2-5.1,55,11,63.27,37.08.15.46.22.94.4,1.73-1,.1-1.79.27-2.61.27-5.5,0-11-.05-16.5.07a3.7,3.7,0,0,1-3.68-2.19,34.31,34.31,0,0,0-22.84-16.71,35.45,35.45,0,0,0-17.84,68.58,34.64,34.64,0,0,0,26.78-2.68c.61-.32,1.2-.68,1.8-1l2-1.09"/><path class="cls-1" d="M162.6,149.78h16.68c-4.15,18.81-8.26,37.42-12.36,56H151.09c.4-2.19.76-4.16,1.22-6.62-.86.63-1.45,1-2,1.46-7.39,6.55-16.08,8-25.32,5.76-8.78-2.12-11.4-10-10-16.87,1.76-9,3.86-18,5.84-27,.92-4.2,1.9-8.39,2.88-12.74h16.65c-1.67,7.64-3.34,15.18-5,22.73-1,4.49-2,9-2.83,13.5-1.12,5.86,2.25,9.32,8.31,8.75s10.5-3.6,12.77-9.06a91.09,91.09,0,0,0,4-13.77c1.77-7.32,3.31-14.7,5-22.16"/><path class="cls-1" d="M269.75,160.2H259.52c.9-3.76,1.69-7.06,2.52-10.55h10.12c1.25-5.66,2.46-11.16,3.72-16.88h16.24c-1.11,5.58-2.21,11-3.36,16.83H300c-.41,2-.73,3.68-1.12,5.36s-.83,3.21-1.35,5.19h-11.2c-.91,4-1.77,7.71-2.58,11.41-1.15,5.25-2.24,10.52-3.39,15.77-1.22,5.57.13,7.17,5.92,6.93,1.36-.06,2.72-.21,4.52-.35-.21,1.27-.34,2.37-.57,3.44-.55,2.49-1.05,5-1.76,7.42-.2.66-1.09,1.59-1.66,1.59-5,0-10.07.45-14.93-.38-7.44-1.27-10.44-6.4-8.87-13.86,2.12-10.05,4.36-20.08,6.53-30.13.08-.36.1-.75.21-1.79"/><path class="cls-1" d="M100.62,204.26H80.85c3-13,6-25.81,9-39H66.1c1.43-6,2.77-11.55,4.15-17.27h43.81c-4.48,18.76-8.93,37.34-13.44,56.24"/><path class="cls-1" d="M230.17,148.53c-1.18,5.16-2.29,10-3.45,15.09l-3.29-.47c-9.6-1.27-17.17,1.23-21,11.33-2.2,5.81-3.31,12-4.82,18.1-1.08,4.36-2,8.75-3.05,13.37h-17c4.28-18.93,8.47-37.49,12.69-56.18h16.11c-.55,2.51-1.08,4.94-1.6,7.36,6.76-7.68,15.17-10.06,25.41-8.6"/><path class="cls-1" d="M237,149.72h16.9c-4.09,18.83-8.45,37.38-12.66,56.08H224.25c4.25-18.76,8.45-37.3,12.7-56.08"/><path class="cls-1" d="M258.37,129.59c-1,4.32-2,8.4-3,12.6H238.45c1-4.26,2-8.37,3-12.6Z"/></svg>