<svg id="Logos_Patrocinadores_Web" data-name="Logos Patrocinadores Web" xmlns="http://www.w3.org/2000/svg" viewBox="0 0 300 300"><defs><style>.cls-1{fill:#8f8fa3;}</style></defs><path class="cls-1" d="M109.28,6.44c-1.51,4.27-3,8.56-4.54,12.82q-35.53,97.67-71.08,195.3c-.18.49-.33,1-.54,1.61H64.86l40.57-111.35h23.89L88.73,216.25h1.71c9.54,0,19.08,0,28.62,0a1.76,1.76,0,0,0,2-1.39q18.51-51,37.09-102c1.58-4.34,2.45-8.76,1.49-13.36-1.62-7.67-7.68-13.07-15.87-14.15a36.92,36.92,0,0,0-4.82-.31c-8.17,0-16.34,0-24.52,0h-1.78L115,78.57q13.85-38,27.66-76.12A2.44,2.44,0,0,1,145.34.57C180.88-.21,213,9.81,241.21,31.49c28.67,22,47,50.86,55.18,86.11a144.09,144.09,0,0,1,2.55,50.87q-7.56,59.35-53.48,97.75A145.81,145.81,0,0,1,177.88,298a152.86,152.86,0,0,1-31.38,2.57l-.88-.07c.63-1.76,1.22-3.45,1.83-5.13q14.07-38.68,28.12-77.36a2.19,2.19,0,0,1,2.46-1.75c13.06.07,26.13,0,39.19,0A20.55,20.55,0,0,0,236.9,202.5q16.28-44.73,32.57-89.45c1.68-4.59,2.53-9.26,1.39-14.09-1.72-7.33-7.8-12.56-15.73-13.58a36.17,36.17,0,0,0-4.53-.32c-19,0-38,0-56.95,0-1.23,0-1.64.44-2,1.5q-24.12,66.35-48.28,132.67Q129.55,257.1,115.74,295c-.17.46-.35.9-.63,1.65-5.16-1.6-10.34-3-15.38-4.81A150.08,150.08,0,0,1,4.87,188.44,148.21,148.21,0,0,1,.38,140,150,150,0,0,1,108,6.53c.37-.11.76-.16,1.14-.24Z"/><path class="cls-1" d="M240.78,104.69c-1.65,4.56-3.24,9-4.84,13.35q-14,38.46-28,76.92a1.81,1.81,0,0,1-2,1.48c-6.95-.07-13.9,0-20.84,0h-1.53c.75-2.1,1.44-4,2.15-6q15.36-42.16,30.72-84.34a1.76,1.76,0,0,1,2-1.41c7,.06,14,0,21,0Z"/><path class="cls-1" d="M109.12,6.29l.32,0a1.29,1.29,0,0,0-.16.17Z"/></svg>