<svg id="Logos_Patrocinadores_Web" data-name="Logos Patrocinadores Web" xmlns="http://www.w3.org/2000/svg" viewBox="0 0 300 300"><defs><style>.cls-1{fill:#8f8fa3;}</style></defs><path class="cls-1" d="M15.83,242.55V279H1V195.5H15.83v34H51.44v-34H66.27V279H51.44V242.55Z"/><path class="cls-1" d="M85.42,300,95,277.35c-7-18.57-15.53-40.4-23.12-59.66H87.52c6.77,19.49,10.62,31.75,14.94,43.78,3.74-10.16,9.93-29.31,15-43.78H132.7C122,244.77,111.34,272,99.89,300Z"/><path class="cls-1" d="M180.46,279v-8.64c-3.51,5.37-10.63,10-21.14,10-16.69,0-28.25-13.07-28.25-32.22,0-18.57,11.09-32.46,28.6-32.46,9.69,0,16.7,4.79,20.09,9.81-.12-4.32-.12-7.94-.12-12.14V195.5h14.24V279Zm-34.8-30.59c0,11.68,6.31,20.44,16.93,20.44,11.1,0,17.75-8.88,17.75-20.9,0-11.8-7.36-20.44-17.63-20.44C152,227.49,145.66,236.72,145.66,248.39Z"/><path class="cls-1" d="M216.42,217.57v4.2c0,1.4,0,2.8-.12,4.09,2.1-6.19,7.83-9.69,14.83-9.69a22.53,22.53,0,0,1,3.39.23v13.54a14.62,14.62,0,0,0-4.09-.46c-11.09,0-13.08,7.94-13.08,20.55v29H203.11V228.66c0-3.85,0-7.36-.12-11.09Z"/><path class="cls-1" d="M299.67,248.39c0,18.92-12.5,32.46-32.35,32.46s-31.75-13.66-31.75-32.46c0-19.26,12.72-32.81,32-32.81S299.67,229.13,299.67,248.39Zm-49.51-.11c0,12.49,6.42,20.66,17.16,20.66s17.28-8.17,17.28-20.66c0-12.15-6.53-20.79-17.28-20.79S250.16,236.13,250.16,248.28Z"/><path class="cls-1" d="M150.33,1.33H76a4,4,0,0,0,0,8A70.32,70.32,0,1,1,76,150a4,4,0,0,0,0,8h74.32a78.33,78.33,0,0,0,0-156.66ZM137.15,149a78.27,78.27,0,0,0,0-138.68,70.3,70.3,0,0,1,0,138.68Zm17.19-69.34a78.4,78.4,0,0,0-41.93-69.34,70.31,70.31,0,0,1,0,138.68A78.4,78.4,0,0,0,154.34,79.66ZM161.92,149a78.26,78.26,0,0,0,0-138.68,70.3,70.3,0,0,1,0,138.68Z"/></svg>