<?xml version="1.0" encoding="utf-8"?>
<!-- Generator: Adobe Illustrator 25.4.1, SVG Export Plug-In . SVG Version: 6.00 Build 0)  -->
<svg version="1.1" id="Capa_1" xmlns="http://www.w3.org/2000/svg" xmlns:xlink="http://www.w3.org/1999/xlink" x="0px" y="0px"
	 viewBox="0 0 600 600" style="enable-background:new 0 0 600 600;" xml:space="preserve">
<style type="text/css">
	.st0{fill:none;stroke:url(#SVGID_1_);stroke-width:10;stroke-miterlimit:10;}
	.st1{fill:none;stroke:url(#SVGID_00000056400742726076264520000009221652422731047815_);stroke-width:10;stroke-miterlimit:10;}
	.st2{fill:none;stroke:url(#SVGID_00000103967058886725292450000016514051440113108656_);stroke-width:10;stroke-miterlimit:10;}
	.st3{fill:none;stroke:url(#SVGID_00000015345073618852993500000002430511933337391759_);stroke-width:10;stroke-miterlimit:10;}
	.st4{fill:none;stroke:url(#SVGID_00000094576105533409142660000008600681957380558753_);stroke-width:10;stroke-miterlimit:10;}
	.st5{fill:none;stroke:url(#SVGID_00000023243589371237785690000003448117082993531554_);stroke-width:10;stroke-miterlimit:10;}
	.st6{fill:none;stroke:url(#SVGID_00000150796730881052131540000009726749943805531310_);stroke-width:10;stroke-miterlimit:10;}
	.st7{fill:none;stroke:url(#SVGID_00000137844278717765567720000010717976830779850941_);stroke-width:10;stroke-miterlimit:10;}
	.st8{fill:none;stroke:url(#SVGID_00000070097332410771430880000001591286693742921867_);stroke-width:10;stroke-miterlimit:10;}
	.st9{fill:none;stroke:url(#SVGID_00000169520655591620550030000013043249340188450962_);stroke-width:10;stroke-miterlimit:10;}
	.st10{fill:none;stroke:url(#SVGID_00000147216359747924375630000006912844475960032153_);stroke-width:10;stroke-miterlimit:10;}
	.st11{fill:none;stroke:url(#SVGID_00000031191916777582917150000013331771051367140480_);stroke-width:10;stroke-miterlimit:10;}
	.st12{fill:none;stroke:url(#SVGID_00000165955131695998987640000001514656381179860609_);stroke-width:10;stroke-miterlimit:10;}
	.st13{fill:none;stroke:url(#SVGID_00000034785327366555336200000016692575659787452828_);stroke-width:10;stroke-miterlimit:10;}
	.st14{fill:none;stroke:url(#SVGID_00000133495115853750109700000010824340000695223706_);stroke-width:10;stroke-miterlimit:10;}
	.st15{fill:none;stroke:url(#SVGID_00000183233250696757170620000006984549552728197560_);stroke-width:10;stroke-miterlimit:10;}
	.st16{fill:none;stroke:url(#SVGID_00000153674889657566511760000003051890942099499909_);stroke-width:10;stroke-miterlimit:10;}
	.st17{fill:none;stroke:url(#SVGID_00000111889904868881253960000014626228222720935057_);stroke-width:10;stroke-miterlimit:10;}
	.st18{fill:none;stroke:url(#SVGID_00000124866902618969423000000007826187752043637429_);stroke-width:10;stroke-miterlimit:10;}
	.st19{fill:none;stroke:url(#SVGID_00000008844766971171911680000013427758844060005295_);stroke-width:10;stroke-miterlimit:10;}
	.st20{fill:none;stroke:url(#SVGID_00000039123572322890396680000003574134424374440100_);stroke-width:10;stroke-miterlimit:10;}
	.st21{fill:none;stroke:url(#SVGID_00000054261863868042259610000016854225247078675079_);stroke-width:10;stroke-miterlimit:10;}
	.st22{fill:none;stroke:url(#SVGID_00000007407619583901393940000015374581466393235614_);stroke-width:10;stroke-miterlimit:10;}
	.st23{fill:none;stroke:url(#SVGID_00000083781282337553732960000011982108502564007069_);stroke-width:10;stroke-miterlimit:10;}
	.st24{fill:none;stroke:url(#SVGID_00000089539421324640464410000015816083844012867203_);stroke-width:10;stroke-miterlimit:10;}
	.st25{fill:none;stroke:url(#SVGID_00000093892349074295166960000015437814121901623944_);stroke-width:10;stroke-miterlimit:10;}
	.st26{fill:none;stroke:url(#SVGID_00000018939881413864674670000014674376070642730125_);stroke-width:10;stroke-miterlimit:10;}
	.st27{fill:none;stroke:url(#SVGID_00000059273469864162967820000008411608845112065410_);stroke-width:10;stroke-miterlimit:10;}
	.st28{fill:none;stroke:url(#SVGID_00000101795986801577422920000002966205226913439655_);stroke-width:10;stroke-miterlimit:10;}
	.st29{fill:none;stroke:url(#SVGID_00000079463329076955045420000015503363728531550088_);stroke-width:10;stroke-miterlimit:10;}
	.st30{fill:none;stroke:url(#SVGID_00000034782626500599552030000000634106128180617883_);stroke-width:10;stroke-miterlimit:10;}
	.st31{fill:none;stroke:url(#SVGID_00000093140335200440977920000010322791779698144170_);stroke-width:10;stroke-miterlimit:10;}
	.st32{fill:none;stroke:url(#SVGID_00000095322992821622531140000016194880252630161340_);stroke-width:10;stroke-miterlimit:10;}
	.st33{fill:none;stroke:url(#SVGID_00000075857147028041832350000001209543004800578213_);stroke-width:10;stroke-miterlimit:10;}
	.st34{fill:none;stroke:url(#SVGID_00000056402565010863673580000005223643718327063957_);stroke-width:10;stroke-miterlimit:10;}
	.st35{fill:none;stroke:url(#SVGID_00000169543783164687663340000005860271342308155289_);stroke-width:10;stroke-miterlimit:10;}
	.st36{fill:none;stroke:url(#SVGID_00000049220028587640967340000017987559426805172354_);stroke-width:10;stroke-miterlimit:10;}
	.st37{fill:none;stroke:url(#SVGID_00000114758552918992752740000007042559276905365402_);stroke-width:10;stroke-miterlimit:10;}
	.st38{fill:none;stroke:url(#SVGID_00000119810962961910360690000007876225087992568718_);stroke-width:10;stroke-miterlimit:10;}
	.st39{fill:none;stroke:url(#SVGID_00000083089816647051008730000015541350653971907006_);stroke-width:10;stroke-miterlimit:10;}
	.st40{fill:none;stroke:url(#SVGID_00000061450937313562494810000017729560409410123708_);stroke-width:10;stroke-miterlimit:10;}
	.st41{fill:none;stroke:url(#SVGID_00000049925934618374488060000000432251572760516526_);stroke-width:10;stroke-miterlimit:10;}
	.st42{fill:none;stroke:url(#SVGID_00000005974080606405451000000007155924505183557270_);stroke-width:10;stroke-miterlimit:10;}
	.st43{fill:none;stroke:url(#SVGID_00000079445526169910550560000009045036773917668746_);stroke-width:10;stroke-miterlimit:10;}
	.st44{fill:none;stroke:url(#SVGID_00000127742385674213781310000007129663285083629492_);stroke-width:10;stroke-miterlimit:10;}
	.st45{fill:none;stroke:url(#SVGID_00000081621720341970656260000016627467873791727787_);stroke-width:10;stroke-miterlimit:10;}
	.st46{fill:none;stroke:url(#SVGID_00000137832109037348049760000014477483079655921078_);stroke-width:10;stroke-miterlimit:10;}
	.st47{fill:none;stroke:url(#SVGID_00000066483062291546311620000009678609755146958729_);stroke-width:10;stroke-miterlimit:10;}
	.st48{fill:none;stroke:url(#SVGID_00000008135943939390111090000010035738377834291632_);stroke-width:10;stroke-miterlimit:10;}
	.st49{fill:none;stroke:url(#SVGID_00000075874483696514973700000017416208668874447752_);stroke-width:10;stroke-miterlimit:10;}
	.st50{fill:none;stroke:url(#SVGID_00000048483548915179862690000003344621646192811436_);stroke-width:10;stroke-miterlimit:10;}
	.st51{fill:none;stroke:url(#SVGID_00000143601636357774800910000014708964214652183487_);stroke-width:10;stroke-miterlimit:10;}
	.st52{fill:none;stroke:url(#SVGID_00000163053081396551201450000017503256042305213092_);stroke-width:10;stroke-miterlimit:10;}
	.st53{fill:none;stroke:url(#SVGID_00000006705693657370310370000010452137599491042446_);stroke-width:10;stroke-miterlimit:10;}
	.st54{fill:none;stroke:url(#SVGID_00000020382349025711177430000007067915615670938019_);stroke-width:10;stroke-miterlimit:10;}
	.st55{fill:none;stroke:url(#SVGID_00000174570413861914366620000014748501044545809311_);stroke-width:10;stroke-miterlimit:10;}
	.st56{fill:#FFFFFF;}
	.st57{fill:none;stroke:#000000;stroke-width:10;stroke-miterlimit:10;}
	.st58{fill:none;stroke:#FFFFFF;stroke-width:10;stroke-miterlimit:10;}
	.st59{fill:none;stroke:url(#SVGID_00000040571761790114130890000010820566424238372768_);stroke-width:10;stroke-miterlimit:10;}
	.st60{fill:none;stroke:url(#SVGID_00000147929698897665942770000004770837398968267925_);stroke-width:10;stroke-miterlimit:10;}
	.st61{fill:none;stroke:url(#SVGID_00000124851035416762780490000013983560831006474414_);stroke-width:10;stroke-miterlimit:10;}
	.st62{fill:none;stroke:url(#SVGID_00000121987911917252972510000004220845766798050454_);stroke-width:10;stroke-miterlimit:10;}
	.st63{fill:none;stroke:url(#SVGID_00000003807539736100294150000010841763666071565462_);stroke-width:10;stroke-miterlimit:10;}
	.st64{fill:none;stroke:url(#SVGID_00000148637955092694405800000013657847560184919215_);stroke-width:10;stroke-miterlimit:10;}
	.st65{fill:none;stroke:url(#SVGID_00000141422149829025298750000009852225457092235675_);stroke-width:10;stroke-miterlimit:10;}
	.st66{fill:none;stroke:url(#SVGID_00000130607101582881904430000012316927662156105356_);stroke-width:10;stroke-miterlimit:10;}
</style>
<g>
	<path class="st57" d="M417.4,487.1h83.4v20.5l24.4,0c20,0,40,0,60,0c6.7,0,7.3-0.6,7.3-7.4c0-62.8,0-125.5,0-188.3L417.4,487.1z
		 M546.9,472.2c-5.6,0.1-10.5-4.5-10.6-10.2c-0.1-5.6,4.5-10.5,10.2-10.6c5.6-0.1,10.5,4.5,10.6,10.2
		C557.2,467.2,552.6,472.1,546.9,472.2z"/>
	<path class="st57" d="M592.5,89.8c0-6.8-0.6-7.4-7.3-7.4c-28.2,0-56.4,0-84.6,0v20.5h-96v-20H187.8v19.9H91.6V82.4l-18.4,0
		c-8.1,0-16.2,0-24.3,0c-13.9,0-27.7,0-41.6,0c-6.3,0-7,0.7-7,7c0,137,0,274.1,0,411.1c0,6.4,0.7,7.1,6.9,7.1c20.4,0,40.9,0,61.3,0
		l23.4,0v-20.4h96.2v20h170.4l233.8-233.8C592.5,212.2,592.5,151,592.5,89.8z M45.3,467.5c-5.6,0-10.4-4.8-10.3-10.4
		c0-5.7,4.7-10.4,10.4-10.3c5.6,0,10.4,4.8,10.3,10.4C55.7,462.7,51,467.5,45.3,467.5z M46.1,138.5c-5.6,0-10.4-4.8-10.3-10.4
		c0-5.7,4.7-10.4,10.4-10.3c5.6,0,10.4,4.8,10.3,10.4C56.5,133.8,51.8,138.5,46.1,138.5z M367.8,233.7h58.6v17.6h-58.6V233.7z
		 M367.4,269.8h58.6v17.5h-58.6V269.8z M366.9,307.8h58.6v18.5h-58.6V307.8z M334.7,117.5h31.2v31.2h-31.2V117.5z M238.5,353.1V237
		h116.2v116.2H238.5z M322.6,371.3v58.6H305v-58.6H322.6z M284.6,370.8v58.6h-18.5v-58.6H284.6z M245.3,372.2v58.6h-19.7v-58.6
		H245.3z M225.7,222.5v-58.6h17.6v58.6H225.7z M261.8,223v-58.6h17.5V223H261.8z M299.8,223.4v-58.6h18.5v58.6H299.8z M341.1,371.8
		h17.6v58.6h-17.6V371.8z M339.1,222.1v-58.6h19.7v58.6H339.1z M293.9,118h31.2v31.2h-31.2V118z M255,118h31.2v31.2H255V118z
		 M216.1,118.9h31.2v31.2h-31.2V118.9z M111.9,226.3h31.2v31.2h-31.2V226.3z M143.6,267.1v31.2h-31.2v-31.2H143.6z M112.4,306h31.2
		v31.2h-31.2V306z M144.5,376.1h-31.2v-31.2h31.2V376.1z M157.8,233.3h58.6V253h-58.6V233.3z M216.8,366.5h-58.6v-17.6h58.6V366.5z
		 M217.3,330.3h-58.6v-17.5h58.6V330.3z M217.8,292.4h-58.6v-18.5h58.6V292.4z M249.7,476.7h-31.2v-31.2h31.2V476.7z M290.5,476.2
		h-31.2V445h31.2V476.2z M329.4,476.2h-31.2V445h31.2V476.2z M368.3,475.3h-31.2v-31.2h31.2V475.3z M426.8,366.8h-58.6v-19.7h58.6
		V366.8z M440.2,224.1h31.2v31.2h-31.2V224.1z M472.3,263v31.2h-31.2V263H472.3z M441.1,301.9h31.2v31.2h-31.2V301.9z M472.8,373.9
		h-31.2v-31.2h31.2V373.9z M546.7,138.5c-5.6,0-10.4-4.8-10.3-10.4c0-5.7,4.8-10.4,10.4-10.3c5.6,0,10.4,4.8,10.3,10.4
		C557.1,133.8,552.3,138.5,546.7,138.5z"/>
</g>
</svg>
