<svg id="Logos_Patrocinadores_Web" data-name="Logos Patrocinadores Web" xmlns="http://www.w3.org/2000/svg" viewBox="0 0 300 300"><defs><style>.cls-1{fill:#fdfdfd;}.cls-2{fill:#8f8fa3;}.cls-3{fill:#ef8499;}.cls-4{fill:#fff;}.cls-5{fill:none;}</style></defs><path class="cls-1" d="M150,222.1q-74.64,0-149.3,0c-.61,0-.72-.14-.72-.74Q0,154.84,0,88.3c0-.59.1-.73.72-.73q149.27,0,298.52,0c.64,0,.76.14.76.77q0,66.54,0,133.08c0,.54-.1.69-.68.69Z"/><path class="cls-2" d="M296,177.35a30,30,0,0,1-3.63,3.52,109.92,109.92,0,0,1-19.94,13.06,192,192,0,0,1-40.27,15.28,265.42,265.42,0,0,1-32.7,6.56c-9,1.23-18,2-27.07,2.46-10.21.5-20.42.55-30.64.24q-13.14-.41-26.23-1.73a291.11,291.11,0,0,1-36.77-6,185.19,185.19,0,0,1-38.23-13,94.6,94.6,0,0,1-22.61-14.63A46.38,46.38,0,0,1,6.05,167.45c-4.23-9.61-3.47-19,1.4-28.15a53.82,53.82,0,0,1,12.34-15,96.92,96.92,0,0,1,18.57-12.55c.49-.26.59-.19.63.37A11.33,11.33,0,0,0,42.94,120c.64.58.65.57-.11,1.06A75.53,75.53,0,0,0,29,132.16a35.52,35.52,0,0,0-8.07,12.39c-1.94,5.4-1.46,10.74.36,16a41.22,41.22,0,0,0,11.14,16.54c6.5,6.17,14.07,10.72,22.12,14.52a164.34,164.34,0,0,0,32.39,11,257,257,0,0,0,28.37,5c8.33,1,16.69,1.69,25.07,2.1,9.27.46,18.53.53,27.8.36q12.21-.21,24.39-1.18A319.21,319.21,0,0,0,239.07,202c13.43-3.1,26.52-7.18,38.91-13.31a86.89,86.89,0,0,0,17.49-11.18A.55.55,0,0,1,296,177.35Z"/><path class="cls-2" d="M207.84,154.76c.07-5,.69-10,3-14.58,1.74-3.37,4.23-5.93,8-6.9,5.62-1.44,11,.87,14.07,6a23.73,23.73,0,0,1,3.09,9.38,41.87,41.87,0,0,1-.85,16.19,20.48,20.48,0,0,1-3.87,7.85c-4.73,5.79-15.8,6.12-20.26-2.44a28.88,28.88,0,0,1-2.85-9.55A59.44,59.44,0,0,1,207.84,154.76Z"/><path class="cls-2" d="M72.17,137.78c.64-.58,1.17-1.13,1.77-1.6a12.38,12.38,0,0,1,8.36-2.93A7.82,7.82,0,0,1,90,140a22.78,22.78,0,0,1,.3,3.87q0,15.61,0,31.23c0,.64-.18.78-.79.77q-3.3-.06-6.6,0c-.59,0-.73-.16-.73-.74q0-14,0-27.94a18.08,18.08,0,0,0-.27-3.28c-.42-2.26-1.83-3.08-4.13-2.59a9,9,0,0,0-4.89,3.41c-.22.26-.14.57-.14.86q0,14.72,0,29.43c0,.7-.19.86-.86.85-2.17-.05-4.35,0-6.52,0-.59,0-.74-.15-.74-.74,0-9.49,0-19,0-28.46a52.2,52.2,0,0,0-1-11.16c-.09-.44,0-.57.41-.66,2.2-.56,4.4-1.12,6.59-1.72.43-.11.56,0,.67.38A20.06,20.06,0,0,1,72.17,137.78Z"/><path class="cls-2" d="M149.47,137.83a13.93,13.93,0,0,1,6-4,10.44,10.44,0,0,1,5.83-.33,7.84,7.84,0,0,1,6,7,28.05,28.05,0,0,1,.19,3.66q0,15.39,0,30.78c0,.65-.11.89-.84.87-2.07-.05-4.14,0-6.22,0-1,0-1,0-1-1q0-13.77,0-27.56a21.92,21.92,0,0,0-.19-3.13c-.39-2.42-2.1-3.5-4.47-2.78a10.14,10.14,0,0,0-4.55,3.28c-.27.31-.18.67-.18,1v29.21c0,1,0,1-1,1-2.1,0-4.2,0-6.3,0-.65,0-.82-.15-.82-.82,0-8.86,0-17.72,0-26.58a58,58,0,0,0-1-12.88c-.1-.46,0-.66.49-.77q3.19-.81,6.37-1.66c.47-.13.67-.09.83.45A26.34,26.34,0,0,1,149.47,137.83Z"/><path class="cls-2" d="M250.81,137.83A13.3,13.3,0,0,1,258,133.5c3.21-.68,6.18-.22,8.55,2.27a8.93,8.93,0,0,1,2.22,6c.09,2.07.06,4.14.07,6.22q0,13.47,0,27c0,.63-.11.86-.8.84-2.15-.05-4.3-.06-6.44,0-.77,0-.88-.23-.88-.92q0-13.17,0-26.36a29.4,29.4,0,0,0-.19-4.4c-.39-2.48-2.1-3.56-4.51-2.81a10.25,10.25,0,0,0-4.54,3.31c-.24.28-.15.61-.15.93q0,14.67,0,29.35c0,.72-.17.92-.89.9-2.15-.05-4.3,0-6.45,0-.62,0-.78-.15-.78-.78q0-14.94,0-29.88a43.93,43.93,0,0,0-1-9.43c-.14-.63,0-.86.65-1,2.08-.49,4.15-1,6.22-1.62.46-.13.63-.06.77.43A23.62,23.62,0,0,1,250.81,137.83Z"/><path class="cls-2" d="M198.73,165.18l3,5.63c.13.23.19.41,0,.65-4.65,5.07-11.05,6.58-16.81,4.37-3.49-1.33-5.7-4-7.24-7.3a27.8,27.8,0,0,1-2.36-9.61A43.81,43.81,0,0,1,176,145.6a19.21,19.21,0,0,1,4.57-9.2c4.58-4.92,13.88-4.9,18.18,1.47a20.64,20.64,0,0,1,3.16,8.86,71.06,71.06,0,0,1,.51,9.78c0,.57-.15.71-.71.71-5.72,0-11.44,0-17.16,0-.61,0-.81.11-.8.76a20.14,20.14,0,0,0,.79,6.28c.84,2.44,2.28,4.36,5,4.91a8,8,0,0,0,5.75-1.13A17.44,17.44,0,0,0,198.73,165.18Z"/><path class="cls-2" d="M116.63,123.75a7.08,7.08,0,0,0-3.35-1.2,2.8,2.8,0,0,0-3,1.53,5.43,5.43,0,0,0-.69,2.51c0,2.32,0,4.64,0,7,0,.49.25.49.6.49,2.1,0,4.2,0,6.3,0,.52,0,.69.06.55.65q-.69,2.91-1.24,5.85c-.1.51-.31.64-.79.63-1.55,0-3.1,0-4.65,0-.64,0-.77.19-.77.79,0,11,0,22,0,32.94,0,.82-.24,1-1,1-2.17-.05-4.34,0-6.52,0-.66,0-.87-.14-.86-.85q0-16.39,0-32.79c0-1.19.16-1-1-1-1.74,0-1.74,0-1.74-1.76,0-1.52,0-3,0-4.56,0-.7.21-.88.85-.8.44.05.9,0,1.34,0s.61-.1.59-.58c-.08-1.54-.13-3.09-.13-4.64a18.7,18.7,0,0,1,1.43-7.95,8.91,8.91,0,0,1,8.48-5.59,12.79,12.79,0,0,1,7.36,1.82.69.69,0,0,1,.34,1C118,120,117.34,121.8,116.63,123.75Z"/><path class="cls-2" d="M62.26,110.78A11.84,11.84,0,0,0,58.88,103a1.07,1.07,0,0,1,.59-.31,210.06,210.06,0,0,1,31.14-8,284.36,284.36,0,0,1,30.93-3.6,322.69,322.69,0,0,1,33.93-.22c.72,0,1.44.09,2.16.19A256.26,256.26,0,0,0,62.26,110.78Z"/><path class="cls-2" d="M54.9,150.65c0,8.11,0,16.22,0,24.33,0,.71-.2.86-.87.85-2.19,0-4.39,0-6.59,0-.5,0-.68-.09-.68-.64q0-24,0-48c0-.45.09-.64.59-.7,2.38-.29,4.75-.62,7.12-1,.29,0,.43,0,.41.33s0,.4,0,.6Z"/><path class="cls-2" d="M131.6,154.58c0,6.81,0,13.63,0,20.44,0,.69-.2.82-.84.81-2.25,0-4.5,0-6.74,0-.5,0-.69-.09-.69-.64q0-20.15,0-40.28c0-.48.15-.65.61-.71,2.3-.29,4.6-.58,6.9-.9.62-.09.74.12.74.7C131.59,140.85,131.6,147.71,131.6,154.58Z"/><path class="cls-2" d="M50.7,102.64A8.59,8.59,0,1,1,42,110.93,8.61,8.61,0,0,1,50.7,102.64Z"/><path class="cls-2" d="M127.39,117.53a5.24,5.24,0,0,1,5.32,5.3,5.32,5.32,0,0,1-5.42,5.37,5.24,5.24,0,0,1-5.28-5.34A5.31,5.31,0,0,1,127.39,117.53Z"/><path class="cls-3" d="M159.05,91.15h-.94A1,1,0,0,1,159.05,91.15Z"/><path class="cls-4" d="M227.58,154a42,42,0,0,1-.9,10.71,9.4,9.4,0,0,1-1.22,2.88,3.85,3.85,0,0,1-6.61.11,10,10,0,0,1-1.71-4.58,56.41,56.41,0,0,1,.1-17.06,9.41,9.41,0,0,1,1.49-3.87,4,4,0,0,1,6.67-.12,11.71,11.71,0,0,1,1.88,5.52c.07.5.1,1,.15,1.49A49.1,49.1,0,0,1,227.58,154Z"/><path class="cls-4" d="M189,150.51h-4.65c-.37,0-.53-.08-.51-.49a24.62,24.62,0,0,1,.9-6.5,6.83,6.83,0,0,1,.92-2,4.23,4.23,0,0,1,7,0A9.58,9.58,0,0,1,194,146c.17,1.26.17,2.53.22,3.8,0,.64-.19.74-.75.73C192,150.48,190.45,150.51,189,150.51Z"/><rect class="cls-5" y="87.57" width="300" height="134.55"/></svg>