<svg id="Logos_Patrocinadores_Web" data-name="Logos Patrocinadores Web" xmlns="http://www.w3.org/2000/svg" width="300" height="300" viewBox="0 0 300 300"><defs><style>.cls-1{fill:#8f8fa3;}</style></defs><rect class="cls-1" x="1.21" y="117.17" width="17.53" height="45.2"/><rect class="cls-1" x="48.52" y="136.82" width="17.53" height="45.2"/><rect class="cls-1" x="15.05" y="150.65" width="17.53" height="45.2" transform="translate(-149.44 197.06) rotate(-90)"/><rect class="cls-1" x="34.69" y="103.34" width="17.53" height="45.2" transform="translate(-82.49 169.4) rotate(-90)"/><path class="cls-1" d="M87.1,179.66a7.31,7.31,0,0,1,2.19-.53q7.44-.49,8.51-1.78t1.07-12.49l-.05-5.12v-5.36l-.19-5.89.1-3.46,0-3.8v-4.48l-.1-2,.1-2.54c0-.58,0-1.26,0-2q0-3.08-.29-6.48a6.46,6.46,0,0,0-.54-1.31,16.47,16.47,0,0,0-5.82-1.25c-2.67-.21-4.19-.44-4.55-.7s-.4-.7-.43-1.51h4.09l12.92.29q5,0,13.26-.29a11.16,11.16,0,0,1-.1,1.46,31.81,31.81,0,0,1-3.26.53,24.9,24.9,0,0,0-5.65,1,1.65,1.65,0,0,0-.92.82,8.2,8.2,0,0,0-.59,3.27l-.24,6.28.2,21.68v8.57c-.07,2.69-.1,4.53-.1,5.5a53.07,53.07,0,0,0,.27,7,3.92,3.92,0,0,0,.92,2.16,4.71,4.71,0,0,0,2.17,1.05,19.84,19.84,0,0,0,3.5.59c1.82.06,3,.32,3.46.77a5.42,5.42,0,0,1,.14,1.07v.39c-3,.1-5.13.15-6.53.15-.81,0-2.26-.05-4.34-.15l-6.72.1-11.46,0h-.93Z"/><path class="cls-1" d="M120.77,181.61l.2-1.31a25.8,25.8,0,0,1,4.31-.72,32.72,32.72,0,0,0,4.76-1.3,12.93,12.93,0,0,0,2.37-1.92,60.1,60.1,0,0,0,4.58-5.11c.48-.61,1.75-2,3.79-4.28a129.35,129.35,0,0,0,11.54-14.39q-7.5-9.72-14.22-19.35t-8.47-10.9q-.58-.43-5.55-.87c-1.23-.1-2.12-.2-2.67-.29a4.69,4.69,0,0,1-.3-1.41l.1-.54c2.3-.1,3.73-.15,4.28-.15h1.32l3.26.25,8.17.44q2.34.13,6.48.14a16,16,0,0,0,3.26-.44,11.74,11.74,0,0,1,1.85-.19,13.41,13.41,0,0,1,1.84.19,2.89,2.89,0,0,1,.25,1l0,.34a20,20,0,0,1-3.71.73,19.64,19.64,0,0,0-4,.85,4.54,4.54,0,0,0-1.67,1,4.58,4.58,0,0,0-.25,1.22,2.4,2.4,0,0,0,.25,1q1.35,3,6.56,9.93l8.4,11.1a98.73,98.73,0,0,0,6.12-8.38q7.23-10.89,7.63-11.77a4,4,0,0,0,.38-1.56,2.26,2.26,0,0,0-.68-1.63,4.68,4.68,0,0,0-2.47-1c-2.6-.55-4.12-.84-4.57-.88a4,4,0,0,1-.78-.34,3,3,0,0,1-.39-1.21l.1-.54,9.54-.15h9.2l5,.1.73.15.1,1-6,2.09a27.89,27.89,0,0,0-3.89,2.19,54.5,54.5,0,0,0-5.65,6.2q-4.08,4.93-7.83,10.29-.74,1-2.87,3.69c-.81,1-1.63,2.16-2.44,3.36a2.54,2.54,0,0,0,.49.77l.68.88,14.5,19.45a71,71,0,0,0,6.67,8.31,7.91,7.91,0,0,0,3,1.8,32.91,32.91,0,0,0,6.52,1,3.69,3.69,0,0,1,.34,1.32l-.05.48-1.65.05a22.91,22.91,0,0,1-2.39-.19c-2.07-.23-4.8-.36-8.17-.39l-4.87-.1-8.61.32c-2,.18-3.15.27-3.41.27a9.53,9.53,0,0,1-1.17-.1,2.59,2.59,0,0,1-.24-.88,2.27,2.27,0,0,1,.24-.78l2.78-.24,5.4-1.07a2,2,0,0,0,1.21-1.26,6.6,6.6,0,0,0-.68-1.61q-1.84-3.21-7.48-11t-7.91-10.58q-.69.48-6,7.49-6.92,9.1-7.59,10.46a7.23,7.23,0,0,0-1,3.26,2.91,2.91,0,0,0,1.9,2.72c.87.46,4,1.09,9.28,1.9a7.9,7.9,0,0,1,.1,1c0,.17,0,.39,0,.69l-1.51,0c-.68,0-2.69-.22-6-.68q-8.94-.24-12.49-.24c-2,0-4,.1-6.12.3-1.1.09-1.77.14-2,.14C121.87,181.66,121.36,181.64,120.77,181.61Z"/><path class="cls-1" d="M188.86,118.54h2.33c.84,0,2.69,0,5.55.13q6.62.26,11,.26l5.69-.1a13.68,13.68,0,0,1,2.34.2,1.26,1.26,0,0,1,.34.82v.54l-1.23.58h-.53l-2.75,0-1.41,0a4.63,4.63,0,0,0-2.7.73,1.44,1.44,0,0,0-.77,1.12,3,3,0,0,0,.68,1.61q.24.39.78,1.17a43.07,43.07,0,0,0,2.58,3.84q2.28,3.23,4.87,7.6c.68,1.17,1.39,2.29,2.14,3.36l7.4,11.21c.49-.62,1.16-1.53,2-2.73l7-10.09,8.1-12.12a9.85,9.85,0,0,0,1.26-2.44,3.12,3.12,0,0,0,.1-.82,1.93,1.93,0,0,0-.92-1.66q-1.51-1-6.52-1.51l-.93-.14a2,2,0,0,1-.34-1,5,5,0,0,1,.05-.63l2.53,0,9.15.25,7.35-.15,2,0-.14,1.7a5.11,5.11,0,0,1-1.08.15l-1.16.14a8.46,8.46,0,0,1-.93.1,6.72,6.72,0,0,0-1.6.83A160,160,0,0,0,239,135.77q-5,6.71-8.47,12.21a31.52,31.52,0,0,1-1.8,2.68,9.92,9.92,0,0,0-1.51,2.43,23.27,23.27,0,0,0-.53,5.75q0,15.16.53,17.9.3,1.37.78,1.65c.85.43,4.2.93,10.08,1.52v.57a3.63,3.63,0,0,1-.35,1.37l-12.47-.53-8.34.44h-6.82c-.65,0-1.37,0-2.15,0a2.62,2.62,0,0,1-.19-.78,2.54,2.54,0,0,1,.14-.68,1.32,1.32,0,0,1,.69-.34l6.3-1a15.46,15.46,0,0,0,3.67-1.46,3,3,0,0,0,.73-1.8q0-.87,0-13.53a29,29,0,0,0-.32-5.76,17.41,17.41,0,0,0-2.07-3.68L210.56,143,199.71,127.2a21.18,21.18,0,0,0-4.92-5.51c-.61-.41-2.16-.74-4.62-1a9.39,9.39,0,0,1-1.17-.1Z"/><path class="cls-1" d="M293.92,121.17c.26,2.14.39,3.37.39,3.7l-.19,4.33a31.58,31.58,0,0,1-.25,3.55,1.83,1.83,0,0,1-.73.19l-.43-.09q-1.56-6.81-5.28-9.93a13.68,13.68,0,0,0-9.08-3.12,13.28,13.28,0,0,0-9.1,3.12,9.39,9.39,0,0,0-3.55,7.25,8.23,8.23,0,0,0,2.48,5.79q2.47,2.63,12.7,7.87A80.8,80.8,0,0,1,292,150.41a17.27,17.27,0,0,1,5.07,5.92,16.42,16.42,0,0,1,1.7,7.5,19,19,0,0,1-2.7,9.79,17.49,17.49,0,0,1-7.28,6.89q-4.57,2.31-12.11,2.32a38.09,38.09,0,0,1-12.61-2.1,14.18,14.18,0,0,1-4.33-2A2.33,2.33,0,0,1,259,177a11.11,11.11,0,0,1,.1-1.36,94.11,94.11,0,0,0,.73-9.44,8.38,8.38,0,0,1,.34-2.68.78.78,0,0,1,.73-.34.86.86,0,0,1,.7.32,2.36,2.36,0,0,1,.37,1.19,16.54,16.54,0,0,0,5.55,10.71,16,16,0,0,0,18.32,3.11,12,12,0,0,0,5.06-4.64,11.47,11.47,0,0,0,1.83-5.92,10.87,10.87,0,0,0-2.78-7.2q-2.78-3.25-11.14-7.62a82.23,82.23,0,0,1-10.9-6.35,23.77,23.77,0,0,1-6.13-6.91,13.67,13.67,0,0,1-1.51-6.57,14.68,14.68,0,0,1,5.35-11.46q5.36-4.7,14.36-4.69a28.85,28.85,0,0,1,8.56,1.12A20.32,20.32,0,0,1,293.92,121.17Z"/></svg>