<?xml version="1.0" standalone="no"?>
<!DOCTYPE svg PUBLIC "-//W3C//DTD SVG 20010904//EN"
 "http://www.w3.org/TR/2001/REC-SVG-20010904/DTD/svg10.dtd">
<svg version="1.0" xmlns="http://www.w3.org/2000/svg"
 width="2000.000000pt" height="504.000000pt" viewBox="0 0 2000.000000 504.000000"
 preserveAspectRatio="xMidYMid meet">

<g transform="translate(0.000000,504.000000) scale(0.100000,-0.100000)"
fill="#8f8fa3" stroke="none">
<path d="M14710 4705 c-401 -27 -643 -65 -849 -132 -131 -42 -214 -88 -273
-151 -112 -119 -112 -147 -9 -562 45 -179 104 -415 131 -524 55 -220 70 -252
148 -314 224 -177 753 -305 1472 -357 483 -34 683 -39 1520 -40 839 0 1036 6
1520 40 403 30 602 56 858 116 330 78 491 208 452 369 -13 54 -127 234 -222
350 l-54 65 -1082 3 c-771 1 -1082 -1 -1082 -9 0 -6 25 -57 55 -114 30 -56 55
-114 55 -127 0 -58 -95 -98 -325 -135 -156 -24 -650 -25 -815 0 -157 24 -253
50 -308 85 -27 18 -25 11 -162 372 -60 157 -131 343 -159 414 -28 71 -51 137
-51 147 0 39 96 75 285 105 141 23 595 26 725 5 231 -36 256 -50 359 -195 l81
-116 1080 0 c731 0 1080 3 1080 10 0 17 -80 140 -138 213 -65 83 -150 147
-257 197 -343 159 -860 244 -1745 285 -402 19 -2007 18 -2290 0z"/>
<path d="M4044 4583 c-63 -130 -145 -303 -206 -433 -36 -76 -289 -584 -383
-767 -67 -131 -161 -190 -339 -213 -122 -16 -500 -12 -607 6 -168 29 -241 64
-254 125 -5 23 5 52 49 138 31 61 56 115 56 120 0 8 -280 11 -920 11 l-920 0
-13 -32 c-8 -18 -45 -98 -83 -178 -57 -121 -69 -155 -72 -208 -5 -67 3 -90 46
-149 97 -131 475 -251 957 -303 334 -36 617 -45 1365 -45 1177 0 1697 27 2110
111 363 73 581 171 726 326 78 84 88 106 219 473 42 118 60 168 116 320 10 28
75 208 144 400 69 193 130 360 135 373 6 13 10 27 10 32 0 6 -387 10 -1040 10
l-1039 0 -57 -117z"/>
<path d="M7076 4691 c-5 -7 -17 -48 -46 -156 -17 -65 -118 -424 -171 -610 -10
-36 -129 -497 -198 -765 -27 -107 -66 -257 -85 -334 -20 -76 -36 -147 -36
-157 0 -19 49 -19 2688 -16 2124 2 2702 5 2757 15 39 7 113 20 165 28 356 58
631 171 768 317 154 164 131 365 -58 508 -188 143 -581 250 -1002 275 -109 6
-150 18 -95 28 274 48 398 82 520 142 174 86 235 171 224 311 -17 215 -241
354 -660 408 -103 13 -423 15 -2442 15 -1308 0 -2326 -4 -2329 -9z m2965 -385
c109 -15 174 -41 212 -82 69 -74 -3 -154 -172 -192 -52 -11 -183 -15 -620 -19
l-554 -5 6 54 c11 92 35 237 42 248 10 16 966 13 1086 -4z m175 -682 c160 -33
243 -103 247 -208 4 -96 -82 -152 -273 -175 -52 -7 -337 -11 -737 -11 -564 0
-653 2 -653 15 0 7 4 36 9 62 6 26 17 107 26 178 9 72 18 136 21 143 3 9 140
12 643 12 549 0 650 -2 717 -16z"/>
<path d="M6965 1745 c-92 -15 -135 -29 -187 -61 -86 -55 -131 -134 -130 -235
1 -163 88 -239 342 -294 116 -25 149 -33 230 -50 205 -45 270 -98 270 -218 -1
-124 -79 -200 -242 -233 -144 -29 -334 -3 -428 60 -57 37 -99 105 -112 179
-14 75 -23 87 -67 80 l-33 -6 7 -60 c25 -225 196 -339 510 -339 142 -1 209 12
303 59 126 62 189 210 148 347 -36 120 -132 177 -377 226 -330 65 -381 83
-431 150 -41 57 -32 170 19 231 59 69 226 108 388 90 168 -20 265 -97 290
-235 7 -36 8 -37 49 -34 l41 3 -3 39 c-13 163 -136 269 -350 301 -113 17 -131
17 -237 0z"/>
<path d="M14778 1745 c-132 -23 -262 -93 -341 -185 -84 -98 -147 -270 -147
-402 0 -221 117 -431 290 -518 105 -53 181 -71 305 -72 166 -1 294 42 402 137
79 69 156 203 165 285 3 34 2 35 -38 38 l-41 3 -12 -47 c-62 -246 -308 -385
-582 -330 -237 49 -380 217 -395 466 -13 201 64 367 217 469 88 59 172 83 294
83 211 2 357 -79 432 -239 32 -70 35 -73 68 -73 31 0 35 3 35 28 0 43 -55 147
-107 203 -81 87 -189 138 -338 159 -85 12 -109 11 -207 -5z"/>
<path d="M3204 1716 c-3 -8 -4 -25 -2 -38 l3 -23 222 -3 223 -2 2 -528 3 -527
34 -3 c20 -2 37 2 42 10 5 7 9 246 9 531 l0 517 226 0 225 0 -3 38 -3 37 -488
3 c-416 2 -488 0 -493 -12z"/>
<path d="M4287 1723 c-4 -3 -7 -260 -7 -570 l0 -563 39 0 c26 0 41 5 45 16 3
9 6 129 6 268 0 288 6 322 71 387 65 65 155 99 264 99 125 0 217 -45 259 -126
20 -36 21 -60 26 -339 l5 -300 40 0 40 0 0 310 0 310 -28 58 c-45 91 -125 139
-266 159 -147 20 -300 -26 -376 -114 l-35 -42 0 221 c0 192 -2 222 -16 227
-21 8 -59 8 -67 -1z"/>
<path d="M8762 1722 c-10 -7 -12 -127 -10 -568 l3 -559 40 0 40 0 0 565 0 565
-30 3 c-16 1 -36 -2 -43 -6z"/>
<path d="M9783 1724 c-10 -4 -13 -60 -13 -232 l0 -227 -30 37 c-37 45 -128
100 -195 119 -100 28 -248 12 -345 -37 -54 -27 -144 -123 -172 -184 -47 -100
-53 -257 -14 -366 65 -184 254 -290 473 -264 113 13 179 45 245 118 l37 41 3
-67 3 -67 43 -3 42 -3 -2 568 -3 568 -30 2 c-16 1 -36 0 -42 -3z m-231 -383
c54 -17 128 -70 165 -119 89 -117 89 -318 1 -448 -27 -40 -105 -95 -163 -115
-22 -7 -82 -13 -135 -14 -88 0 -100 3 -163 33 -127 63 -195 193 -184 352 10
158 86 261 230 311 57 21 181 20 249 0z"/>
<path d="M11627 1724 c-4 -4 -7 -45 -7 -91 l0 -83 45 0 46 0 -3 88 -3 87 -35
3 c-20 2 -39 0 -43 -4z"/>
<path d="M5600 1433 c-99 -15 -212 -67 -261 -120 -80 -85 -119 -188 -119 -311
0 -291 209 -464 521 -432 152 16 267 90 328 212 41 81 40 88 -8 88 -38 0 -41
-2 -72 -61 -18 -33 -49 -74 -68 -90 -82 -68 -225 -94 -346 -64 -115 29 -188
82 -234 173 -20 39 -42 138 -33 147 3 3 187 5 408 5 222 0 405 3 407 8 3 4 0
38 -5 76 -12 86 -52 177 -107 238 -86 96 -266 154 -411 131z m222 -102 c98
-38 190 -151 200 -246 l3 -30 -359 -3 -358 -2 7 37 c23 123 116 222 243 259
67 19 193 12 264 -15z"/>
<path d="M8080 1433 c-211 -32 -360 -171 -391 -365 -31 -192 69 -379 248 -459
131 -60 335 -55 443 9 76 46 106 72 144 126 66 94 81 144 80 261 0 94 -2 105
-38 180 -61 131 -162 208 -314 241 -64 13 -119 16 -172 7z m178 -87 c204 -55
309 -257 242 -467 -31 -95 -105 -175 -195 -208 -166 -62 -368 -17 -459 102
-53 70 -71 125 -71 227 0 82 4 103 26 151 48 101 115 158 229 193 59 18 162
19 228 2z"/>
<path d="M10390 1434 c-193 -35 -311 -129 -364 -292 -25 -75 -19 -245 12 -323
42 -106 145 -196 265 -233 83 -26 251 -24 329 3 124 43 217 138 253 259 6 20
3 22 -34 22 -38 0 -42 -3 -66 -47 -49 -94 -110 -142 -215 -169 -172 -44 -367
30 -434 165 -27 53 -49 138 -41 152 4 5 166 9 411 9 l404 0 0 49 c0 68 -33
166 -78 231 -45 65 -138 132 -216 154 -57 17 -183 28 -226 20z m189 -94 c78
-23 129 -58 168 -113 35 -49 63 -117 63 -152 l0 -25 -353 0 c-195 0 -356 2
-359 6 -7 6 15 82 36 123 76 147 266 216 445 161z"/>
<path d="M11400 1433 c-90 -13 -158 -50 -217 -117 -22 -25 -43 -46 -47 -46 -3
0 -6 32 -6 71 l0 70 -42 -3 -43 -3 0 -405 0 -405 42 -3 42 -3 3 263 3 263 29
63 c31 67 71 109 139 144 33 17 62 22 132 23 l90 2 3 37 c3 31 0 37 -23 46
-26 10 -56 11 -105 3z"/>
<path d="M12236 1429 c-71 -11 -170 -63 -209 -109 -19 -22 -36 -40 -39 -40 -3
0 -5 28 -4 63 l1 62 -42 3 -43 3 0 -410 0 -411 40 0 c22 0 40 3 40 8 0 4 1
116 1 248 0 172 4 257 14 294 34 129 138 205 298 218 137 10 249 -37 292 -123
18 -37 20 -66 25 -340 l5 -300 40 0 40 0 0 310 c0 293 -1 312 -21 355 -62 134
-239 203 -438 169z"/>
<path d="M13180 1429 c-30 -5 -87 -25 -127 -44 -138 -68 -213 -195 -213 -358
0 -140 36 -232 122 -313 84 -80 179 -114 318 -114 142 0 250 39 325 116 24 24
47 44 51 44 4 0 4 -51 1 -112 -6 -127 -24 -184 -76 -236 -101 -101 -361 -123
-516 -45 -52 27 -72 50 -95 109 -17 47 -20 49 -56 49 -37 0 -39 -1 -36 -30 6
-50 43 -124 79 -155 77 -68 169 -94 333 -95 131 0 199 14 283 58 67 35 100 71
136 147 l26 55 3 453 3 452 -41 0 -40 0 0 -65 c0 -36 -1 -65 -3 -65 -2 0 -26
22 -54 49 -92 89 -253 127 -423 100z m225 -83 c109 -29 186 -90 227 -181 18
-41 22 -68 22 -145 0 -86 -3 -101 -32 -162 -18 -36 -47 -79 -65 -94 -80 -68
-217 -102 -334 -84 -175 28 -272 120 -292 277 -25 198 52 328 227 383 69 22
179 25 247 6z"/>
<path d="M15911 1425 c-189 -43 -316 -175 -344 -357 -32 -209 85 -407 284
-477 58 -20 164 -29 244 -20 181 20 332 147 374 314 14 56 15 171 2 228 -32
139 -149 257 -298 302 -74 23 -188 27 -262 10z m218 -80 c116 -30 187 -88 236
-191 25 -52 29 -70 28 -149 0 -106 -16 -156 -73 -231 -31 -42 -56 -61 -117
-91 -75 -37 -80 -38 -182 -37 -92 0 -114 4 -163 26 -75 35 -138 94 -174 165
-40 79 -46 209 -15 294 65 173 265 266 460 214z"/>
<path d="M11622 1003 l3 -408 40 0 40 0 3 408 2 407 -45 0 -45 0 2 -407z"/>
<path d="M16624 747 c-3 -8 -4 -45 -2 -83 l3 -69 45 0 45 0 3 83 3 82 -46 0
c-29 0 -48 -5 -51 -13z"/>
</g>
</svg>
