<svg id="Logos_Patrocinadores_Web" data-name="Logos Patrocinadores Web" xmlns="http://www.w3.org/2000/svg" viewBox="0 0 300 300"><defs><style>.cls-1{fill:#8f8fa3;fill-rule:evenodd;}</style></defs><path class="cls-1" d="M297.1,149a2.53,2.53,0,0,1-.12.81,3.55,3.55,0,0,1-3.46,2.36,2.24,2.24,0,0,1-2.38-2.44c0-2.74,3.17-3.23,6-3.17Zm2.49-3.9c0-2.82-1-5.75-5.37-5.75a9.08,9.08,0,0,0-4.65,1.22l.58,1.71a6.76,6.76,0,0,1,3.69-1c2.88,0,3.2,2.09,3.2,3.25v.29c-5.44,0-8.46,1.83-8.46,5.24a4,4,0,0,0,4.3,4,5.17,5.17,0,0,0,4.3-2.1l.32,1.78h2.3a22.87,22.87,0,0,1-.21-3.37Zm-14.3-11.51-2.56,4.16h1.8l3.54-4.16Zm.17,6.08H282.9v14.07h2.56Zm-6,11.63a7.36,7.36,0,0,1-3.14.66c-2.79,0-4.88-2-4.88-5.26,0-2.91,1.74-5.32,5-5.32a6.25,6.25,0,0,1,3,.67l.58-1.95a8,8,0,0,0-3.54-.75,7.16,7.16,0,0,0-7.55,7.5c0,4.3,2.76,7.18,7,7.18a10.07,10.07,0,0,0,4-.81Zm-19.07,2.44H263v-7.53a7.79,7.79,0,0,1,.09-1.2,3.59,3.59,0,0,1,3.43-3.25,7,7,0,0,1,.87.06v-2.42a5,5,0,0,0-.7,0,4.25,4.25,0,0,0-3.92,3.08l-.2-2.76H260.3c.09,1.3.12,2.73.12,4.39ZM253.84,149a2.53,2.53,0,0,1-.12.81,3.55,3.55,0,0,1-3.46,2.36,2.24,2.24,0,0,1-2.38-2.44c0-2.74,3.17-3.23,6-3.17Zm2.5-3.9c0-2.82-1-5.75-5.38-5.75a9.08,9.08,0,0,0-4.65,1.22l.58,1.71a6.78,6.78,0,0,1,3.69-1c2.88,0,3.2,2.09,3.2,3.25v.29c-5.43,0-8.46,1.83-8.46,5.24a4,4,0,0,0,4.31,4,5.16,5.16,0,0,0,4.29-2.1l.32,1.78h2.3a23,23,0,0,1-.2-3.37Zm-13.64-1.66h-6.45v2h3.95v5.85a8.28,8.28,0,0,1-3.37.52c-4.59,0-7.56-2.94-7.56-7.91s3.11-7.88,7.88-7.88a9.82,9.82,0,0,1,4.33.84l.64-2.06a12.27,12.27,0,0,0-4.91-.9c-6.57,0-10.61,4.27-10.61,10.12A9.2,9.2,0,0,0,236.65,154a17.92,17.92,0,0,0,6-1.07Zm-31.28,8.7c-2.47,0-4.21-2.33-4.21-5.41,0-2.67,1.31-5.47,4.3-5.47s4.21,3,4.21,5.38c0,3.2-1.83,5.5-4.27,5.5Zm-.06,1.92c3.35,0,7-2.27,7-7.5,0-4.28-2.73-7.21-6.77-7.21-3.87,0-7,2.76-7,7.47,0,4.45,3,7.24,6.74,7.24Zm-11.28-16.75a1.59,1.59,0,1,0-1.57-1.57,1.54,1.54,0,0,0,1.57,1.57Zm1.31,2.36h-2.56v14.07h2.56Zm-18.67,14.07h2.56v-8.49a3.74,3.74,0,0,1,3.6-3.81c2.41,0,3.25,1.92,3.25,4.19v8.11h2.56v-8.4c0-4.83-3-6-5-6a5.21,5.21,0,0,0-4.65,2.61l-.2-2.29H182.6c.09,1.16.12,2.32.12,3.8Zm-10.12-1.6c-2.47,0-4.22-2.33-4.22-5.41,0-2.67,1.31-5.47,4.3-5.47s4.22,3,4.22,5.38c0,3.2-1.83,5.5-4.27,5.5Zm-.06,1.92c3.34,0,7-2.27,7-7.5,0-4.28-2.73-7.21-6.77-7.21-3.86,0-7,2.76-7,7.47,0,4.45,3,7.24,6.74,7.24Zm-14.77-17v2.59h-2.18v1.94h2.18v7.65a5.52,5.52,0,0,0,1,3.69,3.64,3.64,0,0,0,2.76,1.08,7.13,7.13,0,0,0,2.27-.35l-.12-1.95a4.62,4.62,0,0,1-1.48.18c-1.42,0-1.92-1-1.92-2.74v-7.56h3.66v-1.94h-3.66v-3.38Zm-16.7,16.66h2.56v-8.49a3.78,3.78,0,0,1,3.6-3.81c2.42,0,3.26,1.92,3.26,4.19v8.11H153v-8.4c0-4.83-3-6-5-6a5.2,5.2,0,0,0-4.65,2.61l-.2-2.29H141c.09,1.16.11,2.32.11,3.8Zm-14-8.14L129,140c.38-1.2.7-2.42,1-3.55.38,1.13.67,2.3,1.08,3.58l1.94,5.64Zm6.42,2,2.09,6.17h2.7l-6.68-19.6h-3.05l-6.66,19.6h2.62l2-6.17Zm-29.39-2.23c.21-1.78,1.31-4.16,3.92-4.16,2.85,0,3.55,2.53,3.52,4.16Zm9.82,1.83A6.09,6.09,0,0,0,114,146c0-2.58-1.19-6.62-5.78-6.62-4.1,0-6.63,3.34-6.63,7.58s2.62,7.1,6.92,7.1a11.62,11.62,0,0,0,4.71-.9l-.47-1.83a9.25,9.25,0,0,1-3.89.72c-2.56,0-4.74-1.42-4.8-4.85Zm-23.75,5.87a8,8,0,0,0,4,1c3.29,0,5.23-1.75,5.23-4.25,0-2.09-1.28-3.31-3.69-4.21-1.83-.73-2.64-1.25-2.64-2.42s.81-1.91,2.32-1.91a5.76,5.76,0,0,1,2.88.81l.61-1.83a6.47,6.47,0,0,0-3.43-.87c-3,0-4.85,1.86-4.85,4.12,0,1.66,1.19,3.06,3.75,4,1.86.7,2.58,1.34,2.58,2.56s-.87,2.09-2.7,2.09a7.18,7.18,0,0,1-3.4-1Zm-9.16-.9c-2.47,0-4.22-2.33-4.22-5.41,0-2.67,1.31-5.47,4.3-5.47s4.22,3,4.22,5.38c0,3.2-1.83,5.5-4.27,5.5ZM81,154.08c3.34,0,7-2.27,7-7.5,0-4.28-2.73-7.21-6.77-7.21-3.86,0-7,2.76-7,7.47,0,4.45,3,7.24,6.74,7.24Zm-12.42-7c0,3.84-1.31,4.86-3.57,4.86a6.1,6.1,0,0,1-2.15-.38l-.35,2.06a7.93,7.93,0,0,0,2.7.47c3.37,0,5.93-1.6,5.93-6.81V134.16H68.55Z"/><path class="cls-1" d="M63.84,168.42a4.85,4.85,0,0,0,2.45.63c2.26,0,3.34-1.29,3.34-2.76s-.81-2.18-2.43-2.82c-1.33-.51-1.91-.95-1.91-1.83,0-.66.5-1.44,1.81-1.44a3.49,3.49,0,0,1,1.8.46l.35-1a4.48,4.48,0,0,0-2.11-.46c-1.87,0-3.1,1.11-3.1,2.61,0,1.34,1,2.16,2.53,2.7,1.3.49,1.81,1,1.81,1.91s-.74,1.62-2,1.62a4.32,4.32,0,0,1-2.2-.61Z"/><path class="cls-1" d="M76.92,162H75.67v4.21a1.56,1.56,0,0,1-.12.64A1.79,1.79,0,0,1,73.9,168c-1.12,0-1.53-.9-1.53-2.21V162H71.11v4c0,2.41,1.3,3,2.38,3a2.58,2.58,0,0,0,2.28-1.28h0l.07,1.12H77c0-.55-.06-1.17-.06-1.9Z"/><path class="cls-1" d="M78.86,168.92h1.22v-4.16a1.74,1.74,0,0,1,.1-.61,1.72,1.72,0,0,1,1.55-1.25c1,0,1.44.78,1.44,1.88v4.14h1.22v-4.27a2.52,2.52,0,0,1,.1-.63A1.64,1.64,0,0,1,86,162.9c1,0,1.49.78,1.49,2.12v3.9h1.23v-4.06c0-2.39-1.36-3-2.28-3a2.26,2.26,0,0,0-1.51.49,2.64,2.64,0,0,0-.78.89h0a2,2,0,0,0-1.94-1.38A2.39,2.39,0,0,0,80,163.14h0L79.89,162H78.8c0,.57.06,1.14.06,1.86Z"/><path class="cls-1" d="M91.84,168.92V162H90.58v6.89Zm-.65-8a.78.78,0,1,0-.76-.77.75.75,0,0,0,.75.77Z"/><path class="cls-1" d="M93.78,168.92H95v-4.15a1.82,1.82,0,0,1,1.76-1.87c1.18,0,1.59.94,1.6,2v4h1.25v-4.12c0-2.36-1.48-2.93-2.44-2.93a2.54,2.54,0,0,0-2.27,1.28h0L94.83,162H93.72c0,.57,0,1.14,0,1.87Z"/><path class="cls-1" d="M102.79,168.93V162h-1.25v6.89Zm-.65-8.05a.74.74,0,0,0,.78-.76.78.78,0,1,0-1.55,0,.74.74,0,0,0,.76.76Z"/><path class="cls-1" d="M104.25,168.59a4,4,0,0,0,1.94.48c1.61,0,2.56-.85,2.56-2.08,0-1-.63-1.62-1.81-2.06-.9-.36-1.3-.61-1.3-1.18s.4-.94,1.14-.94a2.79,2.79,0,0,1,1.41.4l.3-.9a3.21,3.21,0,0,0-1.68-.43,2.13,2.13,0,0,0-2.38,2c0,.81.59,1.5,1.84,1.95.91.35,1.27.66,1.27,1.26s-.43,1-1.32,1a3.5,3.5,0,0,1-1.67-.48Z"/><path class="cls-1" d="M110.5,160.77V162h-1.07v1h1.07v3.74a2.72,2.72,0,0,0,.48,1.81,1.82,1.82,0,0,0,1.36.52,3.35,3.35,0,0,0,1.11-.17l-.06-1a2.28,2.28,0,0,1-.73.09c-.69,0-.94-.49-.94-1.34V163h1.8v-1h-1.79v-1.65Z"/><path class="cls-1" d="M114.78,168.93H116v-3.68a3.81,3.81,0,0,1,0-.59,1.75,1.75,0,0,1,1.68-1.59,2.5,2.5,0,0,1,.42,0v-1.18a1.79,1.79,0,0,0-.34,0,2.07,2.07,0,0,0-1.92,1.51h0l-.06-1.36h-1.09c0,.64,0,1.34,0,2.15Z"/><path class="cls-1" d="M122,169.09a3.38,3.38,0,0,0,3.42-3.67,3.26,3.26,0,0,0-3.32-3.53,3.36,3.36,0,0,0-3.41,3.66,3.28,3.28,0,0,0,3.3,3.54Zm0-.94c-1.21,0-2.06-1.14-2.06-2.64,0-1.31.64-2.68,2.1-2.68s2.07,1.47,2.07,2.63c0,1.57-.9,2.69-2.09,2.69Z"/><path class="cls-1" d="M134.4,158.84v4.1h0a2.27,2.27,0,0,0-2.08-1c-1.67,0-3.1,1.39-3.09,3.7,0,2.09,1.3,3.5,3,3.5a2.53,2.53,0,0,0,2.33-1.35h0l.06,1.19h1.12c0-.47-.06-1.16-.06-1.78v-8.32Zm0,7.21a2.15,2.15,0,0,1-.06.53,1.89,1.89,0,0,1-1.83,1.51c-1.34,0-2-1.16-2-2.57s.77-2.64,2.06-2.64a1.84,1.84,0,0,1,1.81,1.44,2.48,2.48,0,0,1,.06.54Z"/><path class="cls-1" d="M143.12,165.73a2.82,2.82,0,0,0,0-.58c0-1.27-.59-3.25-2.84-3.25-2,0-3.24,1.64-3.24,3.71a3.22,3.22,0,0,0,3.39,3.48,5.59,5.59,0,0,0,2.3-.44l-.22-.9a4.48,4.48,0,0,1-1.91.36,2.2,2.2,0,0,1-2.35-2.38Zm-4.81-.9a2.06,2.06,0,0,1,1.92-2,1.79,1.79,0,0,1,1.73,2Z"/><path class="cls-1" d="M147.5,169h1.23v-3.87a4.41,4.41,0,0,0,1,.08,4,4,0,0,0,2.93-1,2.73,2.73,0,0,0,.75-2,2.57,2.57,0,0,0-.85-2,4,4,0,0,0-2.69-.79,12.39,12.39,0,0,0-2.38.19Zm1.23-8.58a5,5,0,0,1,1.17-.1c1.36,0,2.26.61,2.26,1.87s-.91,2-2.4,2a4.21,4.21,0,0,1-1-.1Z"/><path class="cls-1" d="M156.14,169v-6.89h-1.25V169Zm-.65-8a.78.78,0,0,0,0-1.55.78.78,0,0,0,0,1.55Z"/><path class="cls-1" d="M158.07,169h1.25V164.8a1.85,1.85,0,0,1,1.77-1.87c1.18,0,1.59.95,1.59,2.06v4h1.26v-4.12c0-2.36-1.48-2.93-2.43-2.93a2.55,2.55,0,0,0-2.28,1.28h0l-.07-1.12H158c0,.57.06,1.14.06,1.87Z"/><path class="cls-1" d="M166.11,160.8v1.27H165v1h1.07v3.75a2.67,2.67,0,0,0,.49,1.8,1.78,1.78,0,0,0,1.35.53,3.3,3.3,0,0,0,1.11-.17l-.06-1a2.54,2.54,0,0,1-.72.08c-.7,0-.94-.48-.94-1.34V163h1.79v-1h-1.8v-1.65Z"/><path class="cls-1" d="M176.16,162.07h-1.25v4.22a1.75,1.75,0,0,1-.11.64,1.8,1.8,0,0,1-1.65,1.15c-1.13,0-1.54-.9-1.54-2.21v-3.8h-1.26v4c0,2.4,1.3,3,2.38,3a2.58,2.58,0,0,0,2.28-1.28h0l.07,1.12h1.11c0-.54-.06-1.16-.06-1.89Z"/><path class="cls-1" d="M178.1,169h1.25v-3.68a3.81,3.81,0,0,1,0-.59,1.76,1.76,0,0,1,1.68-1.59c.17,0,.3,0,.43,0V162a2,2,0,0,0-.34,0,2.07,2.07,0,0,0-1.92,1.51h-.05l-.05-1.35H178c0,.64.06,1.34.06,2.15Z"/><path class="cls-1" d="M187.46,164.74c0-1.38-.51-2.82-2.63-2.82a4.43,4.43,0,0,0-2.28.6l.29.84a3.27,3.27,0,0,1,1.8-.51,1.41,1.41,0,0,1,1.57,1.59v.14c-2.66,0-4.14.9-4.14,2.56a2,2,0,0,0,2.11,2,2.53,2.53,0,0,0,2.1-1h.05l.11.87h1.13a10.29,10.29,0,0,1-.11-1.65Zm-1.22,1.91a1.11,1.11,0,0,1-.06.4,1.74,1.74,0,0,1-1.69,1.15,1.1,1.1,0,0,1-1.17-1.2c0-1.34,1.55-1.58,2.92-1.55Z"/><path class="cls-1" d="M188.86,168.63a4,4,0,0,0,1.94.48c1.6,0,2.56-.85,2.56-2.07,0-1-.63-1.63-1.81-2.07-.9-.36-1.3-.61-1.3-1.18s.4-.94,1.14-.94a2.79,2.79,0,0,1,1.41.4l.3-.9a3.21,3.21,0,0,0-1.68-.43,2.13,2.13,0,0,0-2.38,2c0,.82.59,1.5,1.84,2,.91.34,1.27.65,1.27,1.25s-.43,1-1.33,1a3.5,3.5,0,0,1-1.66-.48Z"/><path class="cls-1" d="M196.79,162.08l2.53,6.35a.93.93,0,0,1,.1.33.86.86,0,0,1-.1.3,4,4,0,0,1-1,1.39,3.19,3.19,0,0,1-1.1.62l.32,1a3.55,3.55,0,0,0,1.54-.79c.85-.76,1.46-1.95,2.36-4.31l1.87-4.91h-1.32l-1.37,4c-.17.5-.31,1-.44,1.43h0c-.12-.41-.29-.95-.46-1.4l-1.5-4.08Z"/><path class="cls-1" d="M206.7,168.49a4.84,4.84,0,0,0,2.44.63c2.27,0,3.35-1.29,3.35-2.76s-.81-2.18-2.44-2.82c-1.32-.51-1.91-.95-1.91-1.84,0-.65.5-1.43,1.81-1.43a3.62,3.62,0,0,1,1.81.45l.34-1a4.45,4.45,0,0,0-2.11-.46c-1.86,0-3.1,1.11-3.1,2.61,0,1.33,1,2.16,2.54,2.7,1.29.49,1.8,1,1.8,1.91s-.73,1.62-2,1.62a4.39,4.39,0,0,1-2.21-.61Z"/><path class="cls-1" d="M216.83,169.14a3.38,3.38,0,0,0,3.42-3.67,3.27,3.27,0,0,0-3.32-3.53,3.37,3.37,0,0,0-3.42,3.65,3.29,3.29,0,0,0,3.31,3.55Zm0-.94c-1.21,0-2.07-1.14-2.07-2.65,0-1.31.64-2.67,2.11-2.67s2.06,1.46,2.06,2.63c0,1.57-.89,2.69-2.09,2.69Z"/><path class="cls-1" d="M221.69,171.8h1.25v-3.74h0a2.39,2.39,0,0,0,2.12,1.08c1.61,0,3.13-1.22,3.13-3.7,0-2.09-1.26-3.5-2.94-3.5a2.64,2.64,0,0,0-2.43,1.34h0l-.07-1.18h-1.13c0,.65.06,1.36.06,2.24Zm1.25-6.81a2.74,2.74,0,0,1,.07-.5,2,2,0,0,1,1.9-1.55c1.33,0,2,1.18,2,2.56,0,1.58-.77,2.66-2.09,2.66a1.93,1.93,0,0,1-1.87-1.47,2.1,2.1,0,0,1-.05-.51Z"/><path class="cls-1" d="M232.46,169.15a3.36,3.36,0,0,0,3.41-3.67,3.27,3.27,0,0,0-3.31-3.54,3.37,3.37,0,0,0-3.42,3.66,3.29,3.29,0,0,0,3.31,3.55Zm0-.94c-1.21,0-2.07-1.14-2.07-2.65,0-1.31.64-2.68,2.11-2.68s2.06,1.47,2.06,2.64c0,1.56-.89,2.69-2.09,2.69Z"/><path class="cls-1" d="M237.31,169h1.26v-3.68a3.81,3.81,0,0,1,.05-.59,1.75,1.75,0,0,1,1.68-1.59,2.5,2.5,0,0,1,.42,0V162a1.79,1.79,0,0,0-.34,0,2.07,2.07,0,0,0-1.92,1.51h0l-.06-1.36h-1.1c.05.64.06,1.34.06,2.15Z"/><path class="cls-1" d="M242.45,160.84v1.27h-1.07v1h1.07v3.74a2.65,2.65,0,0,0,.49,1.81,1.75,1.75,0,0,0,1.35.53,3.58,3.58,0,0,0,1.11-.17l-.06-1a2.17,2.17,0,0,1-.72.09c-.7,0-.94-.49-.94-1.34v-3.7h1.8v-.95h-1.8v-1.66Z"/><path class="cls-1" d="M252.19,165.78a2.89,2.89,0,0,0,0-.58c0-1.27-.59-3.25-2.83-3.25-2,0-3.25,1.64-3.25,3.72a3.21,3.21,0,0,0,3.39,3.47,5.61,5.61,0,0,0,2.31-.44l-.23-.9a4.48,4.48,0,0,1-1.91.36,2.2,2.2,0,0,1-2.35-2.38Zm-4.82-.9a2.06,2.06,0,0,1,1.93-2,1.79,1.79,0,0,1,1.72,2Z"/><polygon class="cls-1" points="258.38 169 259.63 169 259.63 160.46 262.56 160.46 262.56 159.41 255.46 159.41 255.46 160.46 258.38 160.46 258.38 169"/><path class="cls-1" d="M269,165.79a2.82,2.82,0,0,0,0-.58c0-1.27-.59-3.25-2.84-3.25-2,0-3.24,1.64-3.24,3.71a3.22,3.22,0,0,0,3.39,3.48,5.59,5.59,0,0,0,2.3-.44l-.22-.9a4.51,4.51,0,0,1-1.91.36,2.2,2.2,0,0,1-2.35-2.38Zm-4.81-.9a2.06,2.06,0,0,1,1.92-2,1.79,1.79,0,0,1,1.73,2Zm2.56-5.75-1.25,2h.88l1.74-2Z"/><path class="cls-1" d="M275.13,167.81a3.48,3.48,0,0,1-1.53.33,2.37,2.37,0,0,1-2.4-2.58,2.39,2.39,0,0,1,2.44-2.6,3,3,0,0,1,1.45.33l.28-1a4,4,0,0,0-1.73-.37,3.51,3.51,0,0,0-3.7,3.67,3.27,3.27,0,0,0,3.43,3.52,4.82,4.82,0,0,0,2-.4Z"/><path class="cls-1" d="M276.67,169h1.25v-4.15a1.83,1.83,0,0,1,.09-.59,1.79,1.79,0,0,1,1.68-1.28c1.18,0,1.59.94,1.59,2v4h1.26V164.9c0-2.36-1.48-2.93-2.43-2.93a2.55,2.55,0,0,0-2.28,1.28h0l-.07-1.13h-1.11c0,.57.06,1.14.06,1.87Z"/><path class="cls-1" d="M285.68,169v-6.89h-1.25V169ZM285,161a.78.78,0,1,0-.77-.77.75.75,0,0,0,.77.77Z"/><path class="cls-1" d="M292.31,167.82a3.48,3.48,0,0,1-1.53.33,2.6,2.6,0,0,1,0-5.18,3,3,0,0,1,1.45.33l.28-1a4,4,0,0,0-1.73-.37,3.51,3.51,0,0,0-3.7,3.67,3.27,3.27,0,0,0,3.43,3.52,4.82,4.82,0,0,0,2-.4Z"/><path class="cls-1" d="M296.59,169.18a3.37,3.37,0,0,0,3.41-3.67,3.27,3.27,0,0,0-3.32-3.54,3.37,3.37,0,0,0-3.41,3.66,3.29,3.29,0,0,0,3.3,3.55Zm0-.94c-1.21,0-2.06-1.14-2.06-2.65,0-1.31.64-2.68,2.1-2.68s2.07,1.47,2.07,2.64c0,1.56-.9,2.69-2.09,2.69Z"/><path class="cls-1" d="M11.11,148.67a7,7,0,1,1,7,7.1,7,7,0,0,1-7-7.1"/><path class="cls-1" d="M26.9,149a7,7,0,1,1,7,7.1,7,7,0,0,1-7-7.1"/><path class="cls-1" d="M12.35,136.54c-.64-2.44,1.56-5.08,4.91-5.89s6.58.5,7.22,2.95-1.56,5.08-4.91,5.89-6.58-.51-7.22-3"/><path class="cls-1" d="M39.33,136.62c.59-2.44-1.69-5.08-5.1-5.89s-6.66.5-7.25,3,1.69,5.08,5.1,5.89,6.66-.51,7.25-2.95"/><path class="cls-1" d="M1.92,140.71c-1.25-1.3-.46-4,1.75-6.1s5-2.69,6.28-1.39.47,4-1.75,6.11-5,2.69-6.28,1.38"/><path class="cls-1" d="M49.52,140.71c1.21-1.3.35-4-1.92-6.1s-5.1-2.69-6.32-1.39-.36,4,1.92,6.11,5.1,2.69,6.32,1.38"/><path class="cls-1" d="M-.08,148.14c.63-3.34,3.14-5.64,5.61-5.13s4,3.63,3.34,7-3.13,5.64-5.61,5.13-4-3.63-3.34-7"/><path class="cls-1" d="M52.19,148.36c-.69-3.34-3.29-5.64-5.81-5.13s-4,3.63-3.31,7,3.28,5.63,5.8,5.12,4-3.63,3.32-7"/><path class="cls-1" d="M11.37,161.77c-1.17,3.15.75,6.8,4.28,8.14s7.35-.15,8.52-3.31-.75-6.8-4.28-8.14-7.35.14-8.52,3.31"/><path class="cls-1" d="M2.29,157.64c-2,1.07-2.38,4.3-.87,7.23s4.35,4.43,6.34,3.36,2.38-4.3.87-7.23-4.35-4.43-6.34-3.36"/><path class="cls-1" d="M49.49,157.64c2,1.07,2.27,4.3.7,7.23s-4.43,4.43-6.38,3.36-2.27-4.3-.7-7.23,4.43-4.43,6.38-3.36"/><path class="cls-1" d="M40.11,161.77c1.11,3.15-.92,6.8-4.53,8.14s-7.43-.15-8.55-3.31.92-6.8,4.53-8.14,7.43.14,8.55,3.31"/></svg>