<?xml version="1.0" encoding="utf-8"?>
<!-- Generator: Adobe Illustrator 25.0.0, SVG Export Plug-In . SVG Version: 6.00 Build 0)  -->
<svg version="1.1" id="Logos_Patrocinadores" xmlns="http://www.w3.org/2000/svg" xmlns:xlink="http://www.w3.org/1999/xlink"
	 x="0px" y="0px" viewBox="0 0 1500 600" style="enable-background:new 0 0 1500 600;" xml:space="preserve">
<style type="text/css">
	.st0{fill:#3C3C3B;}
	.st1{fill:#FFFFFF;}
	.st2{fill-rule:evenodd;clip-rule:evenodd;}
	.st3{fill:none;stroke:#000000;stroke-width:4;stroke-miterlimit:10;}
	.st4{fill:#1D1D1B;}
	.st5{fill-rule:evenodd;clip-rule:evenodd;fill:#1D1D1B;}
	.st6{opacity:0.142;fill-rule:evenodd;clip-rule:evenodd;enable-background:new    ;}
	.st7{fill:#8F8FA3;}
	.st8{font-family:'ChakraPetch-Bold';}
	.st9{font-size:170px;}
</style>
<g>
	<g>
		<path class="st7" d="M652.48,444c-38.33,0.59-76.66,1.18-114.99,1.77c-0.17-0.26-0.33-0.75-0.51-0.76
			c-3.63-0.2-6.85-1.69-10.24-2.84c-9.52-3.24-17.58-8.58-24.71-15.52c-9.06-8.81-18.12-17.62-27.2-26.42
			c-0.93-0.9-1.94-1.73-3.11-2.76c-1.33,1.28-2.52,2.39-3.68,3.55c-10.78,10.79-21.55,21.6-32.33,32.39
			c-0.59,0.59-1.16,1.21-1.83,1.68c-8.18,5.73-16.82,10.45-26.9,11.91c-0.2,0.03-0.33,0.51-0.49,0.78
			c-38.33,0.59-76.66,1.18-114.99,1.77c-0.32-0.33-0.58-0.85-0.96-0.95c-5.84-1.64-10.67-4.7-13.88-9.96
			c-1.56-2.55-2.97-5.19-4.45-7.79c-0.35-23-0.71-45.99-1.06-68.99c41.78-0.64,83.57-1.28,125.13-1.92
			c0.36-0.22,0.53-0.28,0.65-0.39c23.55-24.25,47.1-48.5,70.62-72.79c0.75-0.77,1.06-1.95,1.58-2.95c0.57-0.01,1.14-0.02,1.71-0.03
			c0.03,2.16,1.84,3.07,3.1,4.3c22.93,22.28,45.89,44.53,68.82,66.81c0.95,0.92,1.68,2.08,2.23,2.76
			c42.56-0.65,84.34-1.29,126.12-1.94c0.35,23,0.71,45.99,1.06,68.99c-0.64,1.05-1.48,2.04-1.89,3.18
			c-2.51,6.98-6.93,11.95-14.18,14.19C654.83,442.45,653.69,443.34,652.48,444z"/>
		<path class="st7" d="M470.85,283.76c-0.57,0.01-1.14,0.02-1.71,0.03c-0.65-0.74-1.25-1.54-1.96-2.23
			c-23.55-22.85-47.11-45.69-70.64-68.56c-0.71-0.69-1.2-1.61-1.55-2.08c-42.52,0.65-84.31,1.29-126.1,1.94
			c-0.35-23-0.71-45.99-1.06-68.99c0.33-0.32,0.85-0.58,0.95-0.96c2.15-7.91,7.25-13.15,14.49-16.74c1.42-0.7,3.49,0.49,4.26-1.6
			c38-0.58,75.99-1.17,113.99-1.75c0.32,0.33,0.59,0.86,0.97,0.95c3.14,0.72,6.41,1.05,9.44,2.08c7.47,2.55,14.42,6.13,20.34,11.48
			c3.55,3.21,7.47,6.07,10.64,9.62c2.81,3.14,6.13,5.64,9.06,8.59c5.31,5.34,10.76,10.53,16.42,16.05c1.47-1.62,2.95-3.43,4.6-5.06
			c10.77-10.58,20.42-22.27,31.97-32.08c6.6-5.6,14.2-9.14,22.41-11.52c1.81-0.52,3.69-0.74,5.13-2.12
			c38.33-0.59,76.66-1.18,114.99-1.77c0.48,0.32,0.92,0.81,1.45,0.95c9.27,2.36,15.22,8.12,17.86,17.32
			c0.15,0.53,0.65,0.95,0.99,1.42c0.35,22.66,0.7,45.33,1.04,67.99c-41.79,0.64-83.58,1.28-125.4,1.93
			c-0.65,0.64-1.25,1.21-1.82,1.8c-22.96,23.67-45.92,47.35-68.87,71.03C472.06,282.18,471.48,283,470.85,283.76z"/>
		<path class="st7" d="M667.8,138.72c-0.34-0.47-0.84-0.9-0.99-1.42c-2.64-9.2-8.59-14.95-17.86-17.32
			c-0.53-0.14-0.97-0.62-1.45-0.95c6.67-0.1,13.33-0.2,20-0.31C667.59,125.39,667.69,132.06,667.8,138.72z"/>
		<path class="st7" d="M652.48,444c1.21-0.66,2.35-1.54,3.63-1.94c7.25-2.24,11.68-7.21,14.18-14.19c0.41-1.14,1.25-2.12,1.89-3.18
			c0.1,6.33,0.19,12.67,0.29,19C665.81,443.79,659.15,443.89,652.48,444z"/>
		<path class="st7" d="M287.53,124.56c-0.78,2.1-2.84,0.9-4.26,1.6c-7.24,3.59-12.34,8.83-14.49,16.74
			c-0.1,0.38-0.63,0.64-0.95,0.96c-0.1-6.33-0.19-12.67-0.29-19C274.2,124.76,280.87,124.66,287.53,124.56z"/>
		<path class="st7" d="M272.23,430.83c1.48,2.6,2.9,5.24,4.45,7.79c3.21,5.27,8.04,8.32,13.88,9.96c0.38,0.11,0.64,0.63,0.96,0.95
			c-6.33,0.1-12.67,0.19-19,0.29C272.43,443.5,272.33,437.16,272.23,430.83z"/>
	</g>
	<text transform="matrix(0.9999 -0.0154 0.0154 0.9999 703.304 236.6494)"><tspan x="0" y="0" class="st7 st8 st9">LÁSER</tspan><tspan x="0" y="204" class="st7 st8 st9">VLC</tspan></text>
</g>
</svg>
