<?xml version="1.0" encoding="UTF-8"?> <svg xmlns="http://www.w3.org/2000/svg" id="Logos_Patrocinadores_Web" data-name="Logos Patrocinadores Web" viewBox="0 0 300 300"><defs><style>.cls-1{fill:#8f8fa3;}</style></defs><path class="cls-1" d="M51.54,153.74H53c3.5,0,7,0,10.52,0a1.1,1.1,0,0,1,1.23.72q3.47,7.94,7,15.84c.06.13.08.28.17.58-.49,0-.91.06-1.34.06H45.73a3.85,3.85,0,0,1-.68,0c-.88-.13-1.32.22-1.69,1.06-2,4.61-4,9.18-6,13.79a1.62,1.62,0,0,1-1.77,1.13c-5.54-.05-11.09,0-16.64,0H17.51c.74-2,1.58-3.66,2.35-5.4s1.54-3.44,2.3-5.16l2.39-5.41H0V93H17.68c.17,2.51.05,5,.07,7.53s0,5,0,7.58v45.59c.88.28,11.43.38,14.4.15l16.2-36.29c.23.48.4.77.53,1.07q4.34,9.82,8.7,19.65a2,2,0,0,1,0,1.8c-1.84,4.05-3.63,8.12-5.44,12.19C52,152.7,51.8,153.11,51.54,153.74Z"></path><path class="cls-1" d="M298.31,169.19H286.48c0-.45-.05-.89-.05-1.32,0-5.4,0-10.8,0-16.19a40.8,40.8,0,0,0-.42-5.41c-.57-3.86-2.62-5.88-6.52-6.4a47.84,47.84,0,0,0-6.09-.44c-8.83,0-17.66,0-26.49,0h-1.39c0,2.59,0,5.07,0,7.54s0,4.91,0,7.36v14.87H233.87c-.21-.84-.28-71.61-.06-73.16a7.66,7.66,0,0,1,.85-.08c13.17,0,26.34,0,39.51,0a37.78,37.78,0,0,1,11.59,1.77A19,19,0,0,1,296.62,106a18.52,18.52,0,0,1,2.41,7,23.44,23.44,0,0,1-.44,9.65,18.48,18.48,0,0,1-6.94,10.32c-.21.15-.41.32-.87.69a6.67,6.67,0,0,1,.73.4,16.09,16.09,0,0,1,6.43,11.4,59.69,59.69,0,0,1,.41,7.45c.06,5.06,0,10.11,0,15.17C298.37,168.41,298.33,168.77,298.31,169.19Zm-52.76-40.65c.4,0,.73.06,1.06.06q13.53,0,27.05,0a19.12,19.12,0,0,0,7.19-1.34c3-1.21,5.36-3.23,6.23-6.54a14.8,14.8,0,0,0,.23-6.18,7.57,7.57,0,0,0-4.85-6.19c-.42-.17-.84-.33-1.27-.48a22.84,22.84,0,0,0-7.24-1.1q-13.69,0-27.39,0c-.32,0-.65,0-1,.08Z"></path><path class="cls-1" d="M156.74,123.45H144.88c-.13-1-.21-2.08-.4-3.1a33.57,33.57,0,0,0-.91-4,11.86,11.86,0,0,0-6-7.17A20.73,20.73,0,0,0,130,107a47.3,47.3,0,0,0-13,.41,20.37,20.37,0,0,0-5.58,1.81,7.86,7.86,0,0,0-4.59,7.24,24.54,24.54,0,0,0,.14,2.7,5.19,5.19,0,0,0,2.73,4.2,24.94,24.94,0,0,0,4.3,2,74.52,74.52,0,0,0,10,2.28c5.47,1.1,11,1.91,16.38,3.4a35.73,35.73,0,0,1,9.12,3.62,17,17,0,0,1,7.76,9c2.67,7.7,1,18.45-8.18,24.25a31.31,31.31,0,0,1-11.89,4.48,62.43,62.43,0,0,1-23.94-.64,29.88,29.88,0,0,1-8-3A23.69,23.69,0,0,1,94,154.44a37.4,37.4,0,0,1-1.63-11.27,7,7,0,0,1,.06-.72H104c.1,1.3.11,2.62.32,3.9a38.05,38.05,0,0,0,1.1,5.3,13,13,0,0,0,7.18,8.16,26.22,26.22,0,0,0,9,2.25,53.67,53.67,0,0,0,10.06,0,24.42,24.42,0,0,0,8-2,15.72,15.72,0,0,0,2.17-1.19c3.25-2.16,4.41-5.29,4.22-9.07a6.55,6.55,0,0,0-4.15-6,35.83,35.83,0,0,0-7.4-2.43c-6-1.31-11.94-2.55-17.91-3.86a47.92,47.92,0,0,1-11.79-3.86,27.4,27.4,0,0,1-3.93-2.44,15.34,15.34,0,0,1-6-9.69,21.44,21.44,0,0,1,.15-9.43,18.22,18.22,0,0,1,7.56-10.52,29.13,29.13,0,0,1,10.78-4.51,53,53,0,0,1,17-.78,41.94,41.94,0,0,1,9.07,1.83c9.33,3.17,14.72,9.74,16.55,19.33C156.33,119.39,156.47,121.35,156.74,123.45Z"></path><path class="cls-1" d="M176.91,106.71V126c1.58.09,3.15,0,4.72,0h42.74v10.63c-3.14.08-6.29,0-9.44,0H177.05c-.26.95-.29,20.53,0,21.73h49.84a74.84,74.84,0,0,1,.15,10.66c-.8.22-60,.31-61.75.09-.21-.82-.26-71.8,0-73.12h61.16v10.64c-3.26.06-6.53,0-9.79,0H176.91Z"></path><path class="cls-1" d="M101,186.87H99.66c-3.55,0-7.1,0-10.64,0a1.61,1.61,0,0,1-1.77-1.12Q76,160.31,64.8,134.86,55.89,114.68,47,94.51c-.21-.47-.41-1-.65-1.51H59.55Q80.19,139.76,101,186.87Z"></path><path class="cls-1" d="M295,203.28h2.72a6,6,0,0,1-.07.79A13.44,13.44,0,0,1,286,214.77a18,18,0,0,1-9.14-.85,14.17,14.17,0,0,1-9.19-10.53,18.16,18.16,0,0,1,1-11.85c2.36-5.21,6.56-7.94,12.13-8.62a17,17,0,0,1,10.61,2,11.94,11.94,0,0,1,5.06,5.18,6.3,6.3,0,0,1,.79,3.35h-2.62a.92.92,0,0,1-.19-.34,7.72,7.72,0,0,0-3.06-4.74,12.8,12.8,0,0,0-6.83-2.74,14.05,14.05,0,0,0-5.17.32,11.75,11.75,0,0,0-8.16,7.08,14.79,14.79,0,0,0-.31,11c1.86,5.22,6.63,8.7,13,8.2a13.56,13.56,0,0,0,4.39-1,10.36,10.36,0,0,0,6.27-7Z"></path><path class="cls-1" d="M194.33,183.72c-.18.49-.28.81-.42,1.1Q187.46,199,181,213.14a1.39,1.39,0,0,1-1.54,1c-1.91-.08-1.5.26-2.31-1.51q-6.25-13.67-12.49-27.37c-.19-.4-.34-.82-.56-1.35a8,8,0,0,1,2.84-.07c.23,0,.48.43.61.71.7,1.5,1.36,3,2,4.54q4.52,10.19,9,20.37c.15.34.33.67.58,1.17.24-.5.42-.85.58-1.21,3.62-8.17,7.26-16.33,10.85-24.51.38-.86.81-1.26,1.76-1.15A17.29,17.29,0,0,0,194.33,183.72Z"></path><path class="cls-1" d="M220,183.78h2.53c.12,3.08,0,6.13.05,9.17s0,6,0,9.05v9.32l4,0h15.8v2.53c-.81.24-21,.3-22.35.08C219.82,213.14,219.76,185.27,220,183.78Z"></path></svg> 