<svg id="Logos_Patrocinadores_Web" data-name="Logos Patrocinadores Web" xmlns="http://www.w3.org/2000/svg" viewBox="0 0 300 300"><defs><style>.cls-1{fill:#8f8fa3;}</style></defs><path class="cls-1" d="M28.93,110.14c-3.08,1.09-6.3,1.87-9.21,3.31A35.4,35.4,0,0,0,.38,136.66a1.18,1.18,0,0,1-.38.63V110.14Z"/><path class="cls-1" d="M73.63,110.14v27.11c-.88-2.29-1.58-4.66-2.67-6.84-5.29-10.66-13.93-17.16-25.41-20a4,4,0,0,1-.62-.25Z"/><path class="cls-1" d="M290,175.86c-.26.07-.35.07-.39.11a15.31,15.31,0,0,1-25.89-4,24.52,24.52,0,0,1-.17-20.21c3.73-8.6,12.77-10.69,19.77-8.4a11.65,11.65,0,0,1,5.46,3.93c.23.29.48.58.95,1.14V130.71H300v49.68h-4.68c-1.41,0-2.82,0-4.23,0-.91.05-1.16-.3-1.12-1.15.06-1.12,0-2.24,0-3.4m.33-12.74c-.21-2-.31-3.35-.53-4.7a11.12,11.12,0,0,0-.65-2.25,7.8,7.8,0,0,0-7.64-5.35c-3.93-.07-6.8,1.66-8.16,5.14a16.1,16.1,0,0,0,.1,12.36,7.62,7.62,0,0,0,7.53,5.14c3.91,0,6.88-1.86,8.18-5.35a35.83,35.83,0,0,0,1.17-5"/><path class="cls-1" d="M156.8,130.66H167v17.45l.27.08,1-1.2a12.45,12.45,0,0,1,8.92-4.37c9.66-.76,16.59,5.59,17.73,15.32a26.84,26.84,0,0,1-1.87,14.14c-4.14,9.43-14.11,10.74-20.83,8.06a13.48,13.48,0,0,1-5.4-4.24v4.4H156.8Zm20.43,42.81c2.17,0,4.6-1.74,6-4.87a16.33,16.33,0,0,0,.71-11.25c-1.15-4.33-4.18-6.59-8.58-6.53a7.85,7.85,0,0,0-8.1,6.74,26.57,26.57,0,0,0-.46,7.44c.44,5.23,4.05,8.44,10.41,8.47"/><path class="cls-1" d="M113.18,164.5H86c-.81,3.67,2.11,7.88,6.08,8.84a10.21,10.21,0,0,0,6.57-.38,5.92,5.92,0,0,0,3-2.68c.14-.26.48-.58.73-.58,3.06,0,6.11,0,9.17,0,.26,0,.52.05.9.08a15.2,15.2,0,0,1-6.25,8.47,19.5,19.5,0,0,1-12.9,3,33.53,33.53,0,0,1-7.43-1.49,13.94,13.94,0,0,1-8.94-9,25.46,25.46,0,0,1-.44-16.38c2-6.53,6.63-10.27,13.3-11.43a24.19,24.19,0,0,1,11.06.5c6.56,2,10.23,6.55,11.5,13.11.49,2.54.54,5.17.82,8m-11-6.23a7.79,7.79,0,0,0-8.18-7.88c-4.61.1-8.19,3.66-7.85,7.88Z"/><path class="cls-1" d="M239.92,162c0,6.95-2.38,12.72-8.59,16.41a22.64,22.64,0,0,1-13.22,2.88,22.22,22.22,0,0,1-9.12-2.42,17,17,0,0,1-9.22-13.24A22,22,0,0,1,200.91,154c2.62-6.56,7.79-9.9,14.51-11.05a23.91,23.91,0,0,1,13.28,1.26c7.05,2.9,10.62,8.33,11.21,15.83.05.66,0,1.33,0,2m-30,.65.17,0c.14,1,.22,2.1.43,3.13.93,4.59,4.07,7.3,8.54,7.41,5.36.13,8.61-2.12,9.8-6.86A17.94,17.94,0,0,0,229,158c-1-4.48-3.49-6.86-8-7.32-4.83-.49-8.73,1.37-10.15,6.32a45.86,45.86,0,0,0-.9,5.65"/><path class="cls-1" d="M133.44,170.59c.15-.47.31-.94.45-1.41q3.66-12.26,7.3-24.52a1.32,1.32,0,0,1,1.55-1.14c3.17.06,6.34,0,9.61,0-.07.31-.09.53-.16.73-5.19,13.81-10.35,27.62-15.6,41.41a34.17,34.17,0,0,1-3,5.84,7.56,7.56,0,0,1-6.8,3.49c-2.58,0-5.17,0-7.86,0v-7.36a45.52,45.52,0,0,0,4.57-.31,5.08,5.08,0,0,0,3.75-6.71q-6.76-17.77-13.52-35.55c-.18-.47-.34-.94-.55-1.54,3.74,0,7.34,0,10.94,0,.32,0,.76.68.89,1.12q3.84,12.15,7.61,24.31c.16.51.34,1,.52,1.54l.28,0"/><polygon class="cls-1" points="44.76 171.48 71.39 171.48 71.39 180.3 33.75 180.3 33.75 130.69 44.76 130.69 44.76 171.48"/><rect class="cls-1" x="245.21" y="130.7" width="10.16" height="49.61"/><path class="cls-1" d="M.07,153.26c4.15,14.51,13.77,23.26,28.06,27.23H.07Z"/></svg>