<svg id="Logos_Patrocinadores_Web" data-name="Logos Patrocinadores Web" xmlns="http://www.w3.org/2000/svg" viewBox="0 0 300 300"><defs><style>.cls-1{fill:#8f8fa3;}</style></defs><path class="cls-1" d="M300,148.91c-.21.16-.17.43-.25.65a3.23,3.23,0,1,1,0-2.09c.06.2,0,.45.24.59Zm-.58-.44a2.73,2.73,0,1,0-2.74,2.75,2.73,2.73,0,0,0,2.74-2.75"/><path class="cls-1" d="M95.76,160.16l2.73-5.87q4.38-9.48,8.75-19a.62.62,0,0,1,.68-.41h7.18c.26,0,.56,0,.5.38s.22.75-.43.79a11.33,11.33,0,0,0-2.16.29,2.09,2.09,0,0,0-1.77,2,38.64,38.64,0,0,0-.06,5.59c0,1.64.07,3.28.11,4.92q.17,6.58.34,13.17a13.83,13.83,0,0,0,.19,1.56,2.19,2.19,0,0,0,2,2c.64.11,1.29.19,1.93.24s.3.49.36.76-.11.39-.41.39H103.58c-.34,0-.5-.09-.44-.44s-.19-.7.42-.72a12.14,12.14,0,0,0,1.8-.23,2.05,2.05,0,0,0,1.9-2,23.17,23.17,0,0,0,.13-3.82c0-2.91,0-5.83-.07-8.75l-.12-10.69a2.73,2.73,0,0,0,0-.38c-.31.05-.31.32-.39.5L95.19,165.84a1.12,1.12,0,0,1-1.42.57c-.23-.09-.23-.32-.3-.5q-4.18-9.43-8.35-18.87l-2.67-6a.4.4,0,0,0-.26-.3c0,1.44-.09,2.86-.14,4.29-.17,5.34-.5,10.67-.48,16,0,.73.05,1.46.12,2.18a2.34,2.34,0,0,0,1.69,2.15,8.94,8.94,0,0,0,2.5.44c.65,0,.4.45.45.76s-.16.41-.46.41H75.23c-.25,0-.54,0-.46-.35s-.29-.76.37-.82a11.91,11.91,0,0,0,1.67-.29,2.61,2.61,0,0,0,2.11-2.36,72.62,72.62,0,0,0,.7-7.37c.26-4.54.49-9.09.72-13.64a17.79,17.79,0,0,0-.09-3.34,2.51,2.51,0,0,0-2.16-2.42,12.34,12.34,0,0,0-2.1-.29c-.62-.06-.29-.5-.36-.77s.13-.39.42-.39q3.65,0,7.3,0a.64.64,0,0,1,.66.47q3.52,7.55,7.07,15.08,2.16,4.59,4.33,9.2c.08.17.1.39.35.51"/><path class="cls-1" d="M194.66,143.08l-2,6.07c-2,5.85-3.92,11.71-5.85,17.58-.21.66-.63.48-1.06.55s-.61-.23-.73-.6l-8.53-26.5a13.46,13.46,0,0,0-1-2.28,3.49,3.49,0,0,0-3-1.77c-.43,0-.69-.12-.68-.67s.16-.56.6-.56c3.65,0,7.29,0,10.94,0,.25,0,.61-.14.56.36s.13.82-.52.85a8.42,8.42,0,0,0-2.27.37,1.07,1.07,0,0,0-.87,1.32,9.26,9.26,0,0,0,.52,2q3.12,9.85,6.26,19.72c.06.2.13.38.25.71.49-1.53.94-2.92,1.38-4.32q3.21-10,6.39-20.07c.12-.37.28-.48.64-.46s.69-.08.89.46q4.22,11.79,8.49,23.56a1.43,1.43,0,0,0,.36.7c.56-1.84,1.13-3.64,1.66-5.46,1.48-5,2.92-10,4.13-15.12a10,10,0,0,0,.25-1.43,1.4,1.4,0,0,0-1.28-1.73,11.55,11.55,0,0,0-1.74-.24c-.66,0-.52-.44-.55-.84s.31-.38.57-.38h9.36c.27,0,.6-.08.55.39s.13.82-.49.81c-.16,0-.33,0-.49,0a3.78,3.78,0,0,0-3.35,2.65c-1.14,2.79-2,5.68-2.89,8.54-2,6.44-4,12.87-6,19.31-.1.32-.12.68-.64.61s-.87.11-1.12-.56c-2.77-7.64-5.59-15.27-8.4-22.89-.07-.19-.15-.37-.29-.74"/><path class="cls-1" d="M160.74,148.38a11.54,11.54,0,0,1,5.51-3.22c4.62-1.07,8.25,1.82,8.28,6.6,0,3.48,0,7,0,10.45,0,.57,0,1.14.07,1.7a1.57,1.57,0,0,0,1.46,1.65,9.84,9.84,0,0,0,1.09.14.74.74,0,0,1,.62,1.1c-.08.18-.22.15-.35.15H167.7c-.26,0-.41-.1-.34-.35s-.25-.69.26-.79,1-.14,1.56-.24a1.56,1.56,0,0,0,1.45-1.6,4.91,4.91,0,0,0,.06-.67c0-3.48,0-7,0-10.45a6.93,6.93,0,0,0-.28-1.86,4.15,4.15,0,0,0-4.35-3.3,7,7,0,0,0-5,1.9,1,1,0,0,0-.33.79c0,4.24,0,8.47,0,12.71,0,.14,0,.28,0,.42.08,1.47.49,1.93,1.93,2.16a3.07,3.07,0,0,0,.67.08c.56,0,.68.26.66.77s-.15.44-.47.43H154c-.24,0-.54.05-.46-.34s-.29-.78.37-.82a9.55,9.55,0,0,0,1.32-.2,1.71,1.71,0,0,0,1.63-1.91c0-.47,0-.93,0-1.4V138c0-.52,0-1.05,0-1.58a1.36,1.36,0,0,0-1.31-1.47c-.6-.11-1.2-.17-1.81-.23-.22,0-.42,0-.36-.33s-.19-.65.28-.74c2.26-.44,4.5-1,6.72-1.58.54-.14.37.27.37.5v15.85Z"/><path class="cls-1" d="M260.56,143.56c0,3.67,0,7.34,0,11,0,.51.1.61.61.46a5.18,5.18,0,0,0,2.63-1.65,52.15,52.15,0,0,0,3.67-5.06c.59-.91.37-1.25-.71-1.39-.33,0-.83.15-.83-.56s.18-.7.71-.72c2.67-.11,5.34-.25,8-.37.21,0,.6-.21.59.26s.21.82-.44.93-1.3.27-1.95.43a8.35,8.35,0,0,0-3.57,2.43,59.16,59.16,0,0,0-4.06,4.59c-.29.34,0,.5.12.7,1.87,2.27,3.8,4.48,5.75,6.67a41.74,41.74,0,0,0,3.31,3.47,3.5,3.5,0,0,0,2.05,1,.74.74,0,0,1,.59,1.08c-.08.18-.22.14-.36.15h-5.53a.63.63,0,0,1-.54-.31c-2.4-3.06-4.91-6-7.43-9-.29-.34-.6-.66-.91-1a1.17,1.17,0,0,0-.81-.36c-.75,0-.88.08-.88.82,0,2.17,0,4.34,0,6.5,0,1.25.44,1.7,1.65,1.94a7.29,7.29,0,0,0,1.38.2c.64,0,.45.43.49.77s-.26.4-.54.4H253.49c-.25,0-.62.12-.55-.37.05-.33-.2-.77.47-.79a7.93,7.93,0,0,0,2-.31,1.52,1.52,0,0,0,1.22-1.41c0-.38.08-.76.08-1.14q0-12.81,0-25.6c0-2-.29-2.33-2.29-2.55-.22,0-.45,0-.66-.08s-.6.14-.59-.37,0-.66.55-.78c2.12-.44,4.22-.95,6.31-1.47.47-.12.55,0,.55.43q0,5.53,0,11.06"/><path class="cls-1" d="M213,156.74c0-5.6,3.19-9.93,8.19-11.38a10.5,10.5,0,0,1,13.25,8.31,11.82,11.82,0,0,1-2.4,10,10.24,10.24,0,0,1-10.85,3.56c-4.19-1-6.75-3.77-7.89-7.9a9.44,9.44,0,0,1-.3-2.58m4.52-1.61a15.4,15.4,0,0,0,.14,2.54,12.24,12.24,0,0,0,2.45,6.24,5.36,5.36,0,0,0,7.11,1.35,6.17,6.17,0,0,0,2.37-3.63,17.66,17.66,0,0,0,.41-7,12.08,12.08,0,0,0-2-5.59c-2.68-3.82-7.51-3.4-9.48.82a11.3,11.3,0,0,0-1,5.25"/><path class="cls-1" d="M46.32,124.32a3,3,0,0,1,1.46,1.3,40.07,40.07,0,0,1,5.54,11.43c2.81,8.15,5.59,16.31,8.66,24.37,1.33,3.51,2.7,7,4.24,10.43.07.17.23.34.12.56h0c-2.21-1.67-4.09-3.71-6.19-5.51a21,21,0,0,0-3.3-2.23,8.44,8.44,0,0,0-.56-2.95q-1.68-5.28-2.93-10.67c-1-4.43-2-8.87-3-13.3a71.2,71.2,0,0,0-2.2-8.13,4.87,4.87,0,0,0-.83-1.75c-.08-.17-.26-.28-.25-.49s0-.35-.24-.36a.38.38,0,0,0,0-.08c0-.2-.07-.28-.23-.29l-.24-.12v-.13c-.24-.67-.31-.7-1.09-.47,0-.22.1-.36.19-.53.23-.43.69-.65.9-1.08"/><path class="cls-1" d="M129.8,164.4l-1.49,1c-.65.41-1.31.8-2,1.23a4.41,4.41,0,0,1-4,.75,5.94,5.94,0,0,1-3.61-3,5.06,5.06,0,0,1,2.6-7.26c2-.9,4.11-1.66,6.16-2.51.67-.28,1.31-.64,2-1,.17-.09.34-.2.33-.45a12.34,12.34,0,0,0-.23-3.32,3.77,3.77,0,0,0-6.83-1,9.48,9.48,0,0,0-1,2.28,1.19,1.19,0,0,1-1.75.93,2.87,2.87,0,0,1-.7-.35,1.35,1.35,0,0,1-.31-2.32,8.93,8.93,0,0,1,2-1.59,19,19,0,0,1,6.18-2.71,5.17,5.17,0,0,1,6.27,4.44,13.94,13.94,0,0,1,.08,1.45c0,3.83,0,7.66,0,11.49a1.51,1.51,0,0,0,0,.3c.29,1.79.92,2.29,2.57,1.66l.23-.08c.65-.25.94-.07,1.05.61,0,.21-.08.25-.21.31l-4.51,2.2a.82.82,0,0,1-.7-.05,3.12,3.12,0,0,1-1.7-1.65c-.21-.42-.37-.88-.57-1.36m0-5.41v-3.53c0-.26,0-.45-.35-.29a46.63,46.63,0,0,0-5.24,2.5,3.79,3.79,0,0,0-1.81,4.54,3.21,3.21,0,0,0,3.93,2.51,9.75,9.75,0,0,0,3.23-1.63.66.66,0,0,0,.24-.64V159"/><path class="cls-1" d="M51.43,164.37a17.85,17.85,0,0,0-6,4.77c-.25.28-.52.55-.79.82a.3.3,0,0,1-.15-.31c.06-1,.15-2,.3-3a36.36,36.36,0,0,0,.55-4.3,89.8,89.8,0,0,0-.47-10c-.13-1.54-.27-3.08-.37-4.63-.16-2.4-.27-4.81-.37-7.21-.05-1.22,0-2.43,0-3.65,0-.21.08-.45-.12-.63v-.61c.45-.27.26-.63.12-1v-1.22c.26-.05.32-.16.12-.36,0-.24.1-.51-.11-.73l.11-.49c.23-.21.08-.48.13-.73h.34a3.84,3.84,0,0,1,0,.48,28.18,28.18,0,0,0-.07,5,38.82,38.82,0,0,0,.58,5.26,14.61,14.61,0,0,0,1.21,4c.16.31.32.76.74.7s.52-.52.69-.86a.5.5,0,0,0,0-.12,18.86,18.86,0,0,0,.38-3.59c0-1.64,0-3.27-.1-4.91s-.31-3.52-.59-5.27a10.89,10.89,0,0,1-.52-2.46.22.22,0,0,1,.22.17c.17.62.35,1.24.49,1.87a94.69,94.69,0,0,1,1.45,9.77c.27,2.4.39,4.82.64,7.21.11,1,0,1.94.12,2.91.14,1.8.33,3.6.47,5.41.11,1.48.36,3,.57,4.42a30.35,30.35,0,0,1,.42,3.16"/><path class="cls-1" d="M286.13,145a10.05,10.05,0,0,1,3.56.64.9.9,0,0,1,.63.65,31.44,31.44,0,0,1,.88,4c0,.21,0,.31-.23.39-.88.28-.87.29-1.3-.54a7.75,7.75,0,0,0-2.21-2.86,3.64,3.64,0,0,0-4.49,0,3.29,3.29,0,0,0-.28,4.64A8.48,8.48,0,0,0,286,154a14.05,14.05,0,0,1,4.12,2.39,6.08,6.08,0,0,1-1.38,10,9.59,9.59,0,0,1-9.88-.34,1.07,1.07,0,0,1-.56-.8,28.72,28.72,0,0,1-.44-4.53c0-.64.52-.42.81-.57s.38.15.46.37a9.43,9.43,0,0,0,2.95,4.5,4,4,0,0,0,4.84.46,4,4,0,0,0,.12-6.16,8.59,8.59,0,0,0-2.24-1.42,23.3,23.3,0,0,1-3.52-1.88c-4.17-2.8-3-7.9.44-9.91a8,8,0,0,1,4.4-1.13"/><path class="cls-1" d="M13.46,165.36l-6.7-4.79-5.29-3.75-.29-.25,1.54-.65,15.07-6.1.4-.13c.38.45.12,1,.16,1.45a24,24,0,0,1-.19,4,11.72,11.72,0,0,1-.68,2.94,20.45,20.45,0,0,1-2.6,5.36c-.46.65-.94,1.3-1.42,1.94"/><path class="cls-1" d="M141.38,155.3c0-2.43,0-4.86,0-7.29,0-.45-.09-.6-.57-.58-.86,0-1.74,0-2.61,0-.22,0-.44.05-.54-.24s.07-.42.23-.57a7.86,7.86,0,0,0,.65-.64,1.32,1.32,0,0,1,1.17-.47c.53,0,1.22.25,1.57-.11s.14-1,.07-1.52a2.63,2.63,0,0,1,1-2.53,22.48,22.48,0,0,0,1.88-1.9.69.69,0,0,1,.81-.24c.25.09.11.39.12.59,0,1.73,0,3.45,0,5.17,0,.47.14.57.58.57,1.56,0,3.12,0,4.68,0,.53,0,.67.24.68.69a1.06,1.06,0,0,1-1.18,1.22c-1.42,0-2.84,0-4.25,0-.41,0-.51.12-.51.51,0,4.3,0,8.59,0,12.89a7.49,7.49,0,0,0,.2,1.56,3,3,0,0,0,4.15,2.4,9.94,9.94,0,0,0,1.39-.58c.23-.11.41-.14.44.14s.65.62.12.9a38.74,38.74,0,0,1-4.25,2.07,4.31,4.31,0,0,1-5.61-3.18,9.7,9.7,0,0,1-.29-2.52V155.3"/><path class="cls-1" d="M244,149.82a19.56,19.56,0,0,1,3.23-3.66,5.19,5.19,0,0,1,1.89-1.06,2.81,2.81,0,0,1,3.22,1.19,2.49,2.49,0,0,1-1.79,3.56,1.09,1.09,0,0,1-.83-.32c-1.71-1.57-3.24-.92-4.43.51a11.13,11.13,0,0,0-1.12,1.73,1.21,1.21,0,0,0-.17.63c0,3.72,0,7.45,0,11.18,0,1.26.5,1.79,1.75,2,.64.1,1.29.18,1.93.23s.27.47.33.72,0,.43-.38.43H237.17c-.3,0-.48-.08-.4-.4s-.27-.71.37-.76a7.72,7.72,0,0,0,1.84-.32,1.46,1.46,0,0,0,1.08-1.26,10.92,10.92,0,0,0,.09-1.15q0-6.34,0-12.7a7,7,0,0,0,0-.79c-.13-1-.41-1.32-1.41-1.54a14.91,14.91,0,0,0-1.49-.24c-.27,0-.45-.11-.44-.45s0-.52.41-.6a49.08,49.08,0,0,0,6.42-1.74c.43-.15.42,0,.42.34,0,1.49,0,3,0,4.48"/><path class="cls-1" d="M44.74,123.74a1,1,0,0,1,.6,0,17.17,17.17,0,0,0-.92,2.23c-1,3.59-1.91,7.2-2.84,10.81-1,3.92-2.1,7.83-3.44,11.65a60.45,60.45,0,0,1-4.11,9.7A34.3,34.3,0,0,1,29.11,165a33.74,33.74,0,0,1-5.67,4.51A20.14,20.14,0,0,0,21.55,167a.5.5,0,0,0,.35-.09c.93-.77,1.9-1.49,2.79-2.31a37.34,37.34,0,0,0,5.67-6.68,64.72,64.72,0,0,0,4.64-8.5c1.08-2.32,2.12-4.67,3-7.06,1.18-3.1,2.29-6.23,3.37-9.37.93-2.69,1.69-5.42,2.77-8a.19.19,0,0,0-.07-.26c.11-.38.54-.56.63-1"/><path class="cls-1" d="M13.46,165.36c.48-.64,1-1.29,1.42-1.94a20.45,20.45,0,0,0,2.6-5.36,11.72,11.72,0,0,0,.68-2.94,24,24,0,0,0,.19-4c0-.49.22-1-.16-1.45l1-.4c0,.18.13.27.27.36l1.62,1.12a.71.71,0,0,0,.54.2,6.49,6.49,0,0,0,.55.36c.47.23.69.81,1.28.85a.3.3,0,0,1,.24.15.33.33,0,0,0,.37.34c.47.13.68.61,1.08.82A23.94,23.94,0,0,1,27.19,155c.16.1.13.28.15.44h0a1.59,1.59,0,0,1-.13.13h0a.8.8,0,0,1-.13.13h0A.21.21,0,0,0,27,156h0a.8.8,0,0,0-.13.13h0a.2.2,0,0,0-.12.25h0c-.08,0-.11.05-.12.13h0c-.13,0-.14.14-.13.25h0l-.13.13h0a1.59,1.59,0,0,0-.13.13h0a.22.22,0,0,0-.13.25h0l-.13.13h0a.25.25,0,0,0-.12.26h0l-.13.13h0a1.59,1.59,0,0,1-.13.13h0a.28.28,0,0,0-.13.25h0l-.13.13h0a.8.8,0,0,0-.13.13h0a.28.28,0,0,0-.13.25h0l-.18.13-.06.06-.13.18h0a.23.23,0,0,0-.13.25h0c-.12,0-.21,0-.25.15v0l-.12.18h0l-.13.12h0l-.13.13h0a.41.41,0,0,0-.25.25h0a1.45,1.45,0,0,0-.62.74h0l-.13.13h0L23,161h0l-.12.13h0a1.42,1.42,0,0,0-.61.73l-.12.12c-.25,0-.37.19-.49.37h0l-.13.13h0l-.13.13h0l-.12.12h0a2.76,2.76,0,0,0-1,.85h0l-.13.13h0l-.13.13h0a.39.39,0,0,0-.37.25,15.7,15.7,0,0,0-2.2,1.61,6.22,6.22,0,0,0-2,.73.65.65,0,0,1-.87-.07c-.38-.32-.8-.6-1.2-.9"/><path class="cls-1" d="M44.11,124.7a.19.19,0,0,1,.07.26c-1.08,2.63-1.84,5.36-2.77,8-1.08,3.15-2.19,6.28-3.37,9.38-.92,2.39-2,4.74-3,7.06a64.72,64.72,0,0,1-4.64,8.5,37.34,37.34,0,0,1-5.67,6.68c-.89.82-1.86,1.54-2.79,2.31a.5.5,0,0,1-.35.09l-.8-.7a1,1,0,0,1,.35-.8,46.47,46.47,0,0,0,3.59-4.09,73.47,73.47,0,0,0,5.44-8c1.13-1.94,2.17-3.94,3.21-5.94q2.23-4.32,4.19-8.77c1.8-4.06,3.56-8.14,5.37-12.19a4.69,4.69,0,0,1,1.21-1.84"/><path class="cls-1" d="M44,136.26c.2.18.12.42.12.63,0,1.22,0,2.44,0,3.65.1,2.4.21,4.81.37,7.21.1,1.55.24,3.09.37,4.64a89.51,89.51,0,0,1,.47,10,37.07,37.07,0,0,1-.55,4.31c-.15,1-.24,2-.3,3a.3.3,0,0,0,.15.31c-1.17,1.41-2.33,2.82-3.5,4.22A17,17,0,0,1,39.49,176c-.18,0-.24-.13-.3-.26a2.89,2.89,0,0,0-2.41-1.57,16.33,16.33,0,0,1-2.08-.32,15.72,15.72,0,0,0-5.92,0,15.56,15.56,0,0,0-2.67.91.71.71,0,0,1-.21-.5c.51-.23,1-.57,1.49-.77a25.44,25.44,0,0,1,6.47-1.06,7.43,7.43,0,0,0,2.59-.52,15.38,15.38,0,0,0,2.5-1.56,9.06,9.06,0,0,0,3.27-4.47,27.13,27.13,0,0,0,1.32-6.86c.05-.7,0-1.41.12-2.11.24-1.67,0-3.34.13-5,.06-1,0-2,.05-3a15.64,15.64,0,0,0,0-2.27,61.4,61.4,0,0,1,0-7.43,8.25,8.25,0,0,0-.09-2.76v-.24H44"/><path class="cls-1" d="M43.76,136.26v.24a.37.37,0,0,0-.12.33c-.07,2-.25,3.94-.34,5.91-.12,2.6-.22,5.19-.37,7.79-.13,2.43-.29,4.86-.63,7.27a27.92,27.92,0,0,1-1.59,6.62A10.72,10.72,0,0,1,37,169.36a14.74,14.74,0,0,1-3.84,1.78c-2.51.84-5.15,1.31-7.52,2.59l-.43-1c2.24-1.1,4.49-2.19,6.73-3.32a14.55,14.55,0,0,0,3-2.18,15,15,0,0,0,3.9-5.78A47.26,47.26,0,0,0,41.44,151c.26-1.61.47-3.22.64-4.84s.39-3,.58-4.54c.22-1.76.32-3.53.69-5.26,0-.24.13-.48-.08-.69v-.24c.38-.14.29-.37.12-.61v-.24c.4-.09.2-.4.23-.62a4.59,4.59,0,0,1,.13-1.33H44l0,.49c0,.14,0,.28.11.36v.48c-.42.19-.25.47-.13.74v.6c-.47.23-.14.66-.23,1"/><path class="cls-1" d="M43.39,134.55v.25c-.2.17-.09.4-.12.61v.24c-.18.9-.4,1.79-.53,2.7-.27,2-.64,3.92-.92,5.89q-.55,3.75-1.35,7.47A39.94,39.94,0,0,1,37,162.23a16.87,16.87,0,0,1-3.88,4.92c-2.45,2.1-5.37,3.46-8.18,5a6,6,0,0,1-.63-1.2c1-.66,2-1.29,3-2a27.62,27.62,0,0,0,4.9-4.2,28.41,28.41,0,0,0,4.18-6.56,65.39,65.39,0,0,0,3.86-11.72c.75-2.92,1.32-5.89,2-8.84.59-2.76,1.12-5.53,1.76-8.27A15.4,15.4,0,0,1,45.75,124c.27,0,.39.22.57.35-.21.43-.67.65-.9,1.08-.09.17-.23.31-.19.53a5.94,5.94,0,0,0-.74,2.67l0,.48c-.52.18-.35.61-.34,1v.36c-.15,0-.3.06-.12.25s-.09.5.1.73v.34c-.36.11-.18.41-.24.63-.15,0-.28.06-.11.24a4.59,4.59,0,0,0-.13,1.33c-.37.1-.18.4-.23.61"/><path class="cls-1" d="M45.75,124a15.52,15.52,0,0,0-1.84,5.4c-.64,2.75-1.17,5.51-1.76,8.27-.64,3-1.21,5.92-2,8.84a65.39,65.39,0,0,1-3.86,11.72,28.41,28.41,0,0,1-4.18,6.56,27.62,27.62,0,0,1-4.9,4.2c-1,.69-2,1.32-3,2l-.84-1.47A33.74,33.74,0,0,0,29.11,165,34.3,34.3,0,0,0,34,158.16a60.45,60.45,0,0,0,4.11-9.7c1.34-3.82,2.43-7.73,3.44-11.65.93-3.61,1.86-7.22,2.84-10.81a17.17,17.17,0,0,1,.92-2.23.36.36,0,0,1,.41.19"/><path class="cls-1" d="M25.61,173.73c2.37-1.28,5-1.75,7.52-2.59A14.74,14.74,0,0,0,37,169.36a10.72,10.72,0,0,0,3.74-4.94,27.92,27.92,0,0,0,1.59-6.62c.35-2.41.5-4.84.63-7.27.15-2.6.25-5.2.37-7.79.09-2,.27-3.94.34-5.91a.37.37,0,0,1,.12-.33,8.25,8.25,0,0,1,.09,2.76,61.4,61.4,0,0,0,0,7.43,15.64,15.64,0,0,1,0,2.27c-.08,1,0,2-.05,3-.1,1.68.11,3.35-.13,5-.1.7-.07,1.41-.12,2.11a27.13,27.13,0,0,1-1.32,6.86A9,9,0,0,1,39,170.41a15.38,15.38,0,0,1-2.5,1.56,7.43,7.43,0,0,1-2.59.52,25.44,25.44,0,0,0-6.47,1.06c-.54.2-1,.54-1.49.77-.1-.19-.19-.39-.29-.59"/><path class="cls-1" d="M25.27,142.94a2.88,2.88,0,0,1,1.1-.72l.11-.07.13,0a3.94,3.94,0,0,0,2.56-.91l.18-.08c.12,0,.24,0,.3-.13h0l.14-.09C33,139,35.18,136,37.32,133c1.15-1.61,2.15-3.32,3.15-5a1.39,1.39,0,0,1-.11.85c-1.2,3.33-2.43,6.66-3.92,9.87a10.54,10.54,0,0,1-1,2.17c-.18.11-.33.28-.59.25a2.6,2.6,0,0,0-1.63.52c-1.78,1.08-3.4,2.38-5.26,3.34a15,15,0,0,1-6.28,1.73,6.79,6.79,0,0,1,1-1.23,7.64,7.64,0,0,0,4.25-1.6.46.46,0,0,0,.23-.52c-.09-.26-.34-.29-.6-.31-.43,0-.88.15-1.29-.12"/><path class="cls-1" d="M51.43,164.37a30.35,30.35,0,0,0-.42-3.16c-.21-1.47-.46-2.94-.57-4.42-.14-1.81-.33-3.61-.47-5.41-.07-1,0-1.93-.12-2.91-.25-2.39-.37-4.81-.64-7.21a94.69,94.69,0,0,0-1.45-9.77c-.14-.63-.32-1.25-.49-1.87a.22.22,0,0,0-.22-.17,4.17,4.17,0,0,0-.72-1.95c-.1-.21-.29-.48-.59-.45s-.42.34-.51.61c-.14.43-.25.87-.38,1.3-.14-.09-.11-.23-.12-.36a4.57,4.57,0,0,1,.61-2.07h1l.24.12a.22.22,0,0,0,.23.25s0,.08,0,.12v.24c.23,1,.67,1.84.93,2.79.45,1.66.81,3.32,1.13,5q.54,2.89,1,5.81c.2,1.15.38,2.3.55,3.45s.33,2.39.51,3.58c.2,1.37.45,2.73.68,4.09.37,2.24.72,4.48,1.21,6.7q.55,2.63,1.13,5.25a8.42,8.42,0,0,0-2.54.44"/><path class="cls-1" d="M23.69,152.33a.28.28,0,0,0-.24-.15c0-.23-.19-.33-.35-.46a12.82,12.82,0,0,1-3-3,8.25,8.25,0,0,1,1.31-1.68c3,.13,5.71-1,8.29-2.41,1.06-.58,2.09-1.21,3.16-1.78a1.64,1.64,0,0,1,1.66-.15c-.3.67-.59,1.35-.88,2l-.11.17a.13.13,0,0,0,0,.05,1.4,1.4,0,0,1-.12.18l-.23.48a.25.25,0,0,0-.13.25.64.64,0,0,0-.1.13c-.16.06-.12.22-.16.35s-.24.47-.35.71a.28.28,0,0,0-.12.26h0l-.11.14h0l-.16.12a3.34,3.34,0,0,0-1.83.07,39.31,39.31,0,0,1-7.54,1.25c-.48,0-.5.27-.27.59a20.67,20.67,0,0,0,4.08,4.67c.36.28.66.75,1.22.71a1.59,1.59,0,0,1-.37.61c0-.16,0-.33-.15-.44a23.94,23.94,0,0,0-2.05-1.55c-.4-.21-.61-.69-1.08-.82,0-.22-.14-.35-.37-.34"/><path class="cls-1" d="M36.24,179.14a15,15,0,0,1-6.45,3.54.3.3,0,0,1-.42-.2q-1.28-3-2.54-5.95a6.74,6.74,0,0,1,3-.61,13.28,13.28,0,0,1,3.81.88,4,4,0,0,1,2.61,2.34"/><path class="cls-1" d="M24.91,172.13c2.81-1.52,5.73-2.88,8.18-5A16.87,16.87,0,0,0,37,162.23a39.94,39.94,0,0,0,3.5-10.52c.53-2.47,1-5,1.35-7.47.28-2,.65-3.92.92-5.89.13-.91.35-1.8.53-2.7.21.21.13.46.08.69-.37,1.73-.47,3.5-.69,5.26-.19,1.51-.42,3-.58,4.54s-.38,3.23-.63,4.84a47.84,47.84,0,0,1-2.6,10.48,15,15,0,0,1-3.9,5.78,14.55,14.55,0,0,1-3,2.18c-2.23,1.13-4.49,2.22-6.73,3.32a1.06,1.06,0,0,1-.27-.61"/><path class="cls-1" d="M36.24,179.14a4,4,0,0,0-2.61-2.34,13.28,13.28,0,0,0-3.81-.88,6.74,6.74,0,0,0-3,.61,7.76,7.76,0,0,1-.72-1.71,15.56,15.56,0,0,1,2.67-.91,15.72,15.72,0,0,1,5.92,0,16.33,16.33,0,0,0,2.08.32,2.89,2.89,0,0,1,2.41,1.57c.06.13.12.26.3.26a17.78,17.78,0,0,1-3.25,3.12"/><path class="cls-1" d="M47.29,127.87a4.91,4.91,0,0,1,.83,1.74,71.93,71.93,0,0,1,2.2,8.14c1,4.43,2,8.87,3,13.3q1.25,5.4,2.93,10.67a8.44,8.44,0,0,1,.56,2.95l-1.54-.59a12.18,12.18,0,0,0-.46-2.55c-.88-3.35-1.75-6.71-2.42-10.1-.38-1.92-.85-3.82-1.11-5.75-.32-2.44-.82-4.84-1.3-7.24a80.65,80.65,0,0,0-2-8.23,11.49,11.49,0,0,1-.78-2.34"/><path class="cls-1" d="M47.29,127.87a11.49,11.49,0,0,0,.78,2.34,80.65,80.65,0,0,1,2,8.23c.48,2.4,1,4.8,1.3,7.24.26,1.93.73,3.83,1.11,5.75.67,3.39,1.54,6.75,2.42,10.1a12.18,12.18,0,0,1,.46,2.55L54,163.93q-.57-2.62-1.13-5.25c-.49-2.22-.84-4.46-1.21-6.7-.23-1.36-.48-2.72-.68-4.09-.18-1.19-.33-2.39-.51-3.58s-.35-2.3-.55-3.45c-.33-1.93-.67-3.88-1-5.81-.32-1.68-.68-3.34-1.13-5-.26-1-.7-1.84-.93-2.8l.24.12c0,.21.17.32.25.49"/><path class="cls-1" d="M44.11,124.7a4.69,4.69,0,0,0-1.21,1.84c-1.81,4-3.57,8.13-5.37,12.19q-2,4.44-4.19,8.77c-1,2-2.08,4-3.21,5.94a73.47,73.47,0,0,1-5.44,8,46.47,46.47,0,0,1-3.59,4.09,1,1,0,0,0-.35.8l-.84-.49c.22-.24.42-.49.65-.71a38.11,38.11,0,0,0,3.28-3.57,68,68,0,0,0,6.25-9c2.31-4,4.47-8.06,6.4-12.25a4,4,0,0,0,.6-1.63.56.56,0,0,0,0-.07,1.65,1.65,0,0,0,.59-1.27s0,0,0-.07a4.12,4.12,0,0,0,1-2.12v-.07a1.74,1.74,0,0,0,.11-.18.2.2,0,0,0,0-.07c.33-.16.35-.46.35-.78V134l.11-.17a.17.17,0,0,0,0-.07c.26-.1.24-.31.23-.52h0a.23.23,0,0,0,.12-.26s0-.05,0-.07c.27-.1.24-.33.24-.54a.09.09,0,0,0,0-.07c0-.06.07-.12.11-.17a.17.17,0,0,0,0-.07c.25-.1.24-.32.23-.52h0c.12-.05.13-.15.13-.25a.22.22,0,0,0,0-.08c.26-.09.23-.32.23-.53a.06.06,0,0,0,0-.07c0-.06.07-.12.11-.17v-.08l.11-.17s0,0,0-.07c.26-.1.23-.33.24-.54a.1.1,0,0,0,0,0,1.23,1.23,0,0,1,.1-.2v-.07l.11-.18a.17.17,0,0,0,0-.07c.27-.09.24-.32.24-.53,0,0,0-.05,0-.07s.07-.12.11-.17a.25.25,0,0,0,0-.07c.33-.16.35-.47.35-.78a.11.11,0,0,0,0-.08l.11-.17a.15.15,0,0,0,0-.07,1.67,1.67,0,0,0,.6-1.14.22.22,0,0,0,0-.08,1.63,1.63,0,0,1,.11-.17.56.56,0,0,0,0-.07l.11-.16h0c.24,0,.24-.2.24-.38a.14.14,0,0,0,0-.07l.1-.15h0a.22.22,0,0,0,.23-.27.08.08,0,0,0,0,0c.25-.1.31-.32.39-.53a.62.62,0,0,1,.7-.25c-.09.4-.52.58-.63,1"/><path class="cls-1" d="M40.74,130.34v.08c0,.05-.07.11-.11.17a.06.06,0,0,1,0,.07.52.52,0,0,0-.23.54.11.11,0,0,1,0,.07.22.22,0,0,0-.12.25h0A.52.52,0,0,0,40,132a.22.22,0,0,1,0,.08l-.11.17a.09.09,0,0,1,0,.07.54.54,0,0,0-.24.53.11.11,0,0,1,0,.08c-.11.05-.13.14-.12.26a.52.52,0,0,0-.23.52.17.17,0,0,1,0,.07l-.11.17v.08a1,1,0,0,0-.35.77.12.12,0,0,1,0,0,1,1,0,0,1-.12.19v.08a7.13,7.13,0,0,0-1,2.12.08.08,0,0,1,0,.05,2.48,2.48,0,0,0-.6,1.29v0a1,1,0,0,0-.36.58c-1.62,3.55-3.41,7-5.28,10.42-.12.22-.19.5-.58.55.15-.43.51-.74.47-1.19h0a1.4,1.4,0,0,0,.6-1.1h0a.16.16,0,0,0,.11-.18v-.05a.22.22,0,0,0,.14-.24h0l.11-.13h0c.12,0,.13-.15.12-.26s.23-.48.35-.71c.18-.06.15-.22.16-.36l.1-.12a.23.23,0,0,0,.13-.25l.23-.48.11-.16a.41.41,0,0,1,0-.07l.11-.17c.29-.67.58-1.35.88-2a7.42,7.42,0,0,0,.88-1.84,10.27,10.27,0,0,0,1-2.17c1.49-3.21,2.72-6.53,3.92-9.87a1.39,1.39,0,0,0,.11-.85,13.19,13.19,0,0,1,2.75-3.63,1.58,1.58,0,0,1,.36-.2l.07.34a.12.12,0,0,1,0,.07c-.16,0-.25.09-.23.27h0l-.11.15a.08.08,0,0,1,0,.07.35.35,0,0,0-.24.39h0a1.53,1.53,0,0,0-.11.16.17.17,0,0,1,0,.07l-.11.17a.22.22,0,0,1,0,.08,1.65,1.65,0,0,0-.6,1.14.15.15,0,0,1,0,.07c0,.06-.07.12-.11.17a.11.11,0,0,1,0,.08,1,1,0,0,0-.35.78.25.25,0,0,1,0,.07c0,.05-.07.11-.11.17a.13.13,0,0,1,0,0,.58.58,0,0,0-.26.55.17.17,0,0,1,0,.07c0,.06-.07.12-.11.17v.08l-.1.17a.23.23,0,0,1,0,.07.53.53,0,0,0-.24.54.08.08,0,0,1,0,.05l-.12.19"/><path class="cls-1" d="M31.35,149c0,.45-.32.76-.47,1.19.39-.05.46-.33.58-.55,1.87-3.41,3.66-6.87,5.28-10.42.08-.2.13-.43.35-.55a4,4,0,0,1-.6,1.63c-1.93,4.19-4.09,8.26-6.4,12.25a68,68,0,0,1-6.25,9,38.11,38.11,0,0,1-3.28,3.57c-.23.22-.43.47-.65.71-.13,0-.28,0-.38-.1,0-.3.25-.45.43-.63a47.25,47.25,0,0,0,4.46-4.93c.2-.26.26-.44,0-.67,0-.06,0-.12,0-.18v0l.25-.15h0a.32.32,0,0,0,.13-.26v0c0-.07.09-.13.13-.19l.06-.06.18-.13h0l.13-.25h0l.13-.14v0l.13-.14h0a.28.28,0,0,0,.13-.25h0a1.59,1.59,0,0,0,.13-.13h0l.13-.13h0a.26.26,0,0,0,.13-.26h0l.13-.13h0a.23.23,0,0,0,.13-.25h0a1.59,1.59,0,0,1,.13-.13h0l.13-.12h0a.22.22,0,0,0,.13-.25h0l.12-.13h0a.22.22,0,0,0,.12-.25h0L27,156h0c.12-.05.13-.15.13-.25h0l.13-.13h0a1.59,1.59,0,0,0,.13-.13h0a1.59,1.59,0,0,0,.37-.61l1.72-2.69A29.24,29.24,0,0,1,31.35,149m-.8,1.94c.22-.11.29-.22.24-.41-.21,0-.23.18-.24.41"/><path class="cls-1" d="M35.41,140.88a7.42,7.42,0,0,1-.88,1.84,1.64,1.64,0,0,0-1.66.15c-1.07.57-2.1,1.2-3.16,1.78-2.58,1.41-5.25,2.54-8.29,2.41l.23-.34A15.12,15.12,0,0,0,27.93,145c1.86-1,3.48-2.26,5.26-3.34a2.6,2.6,0,0,1,1.63-.52c.26,0,.41-.14.59-.25"/><path class="cls-1" d="M25.27,142.94c.41.27.86.08,1.29.12.26,0,.51.05.6.31a.46.46,0,0,1-.23.52,7.64,7.64,0,0,1-4.25,1.6,14.21,14.21,0,0,1,2.59-2.55"/><path class="cls-1" d="M24.44,159.5c.24.23.18.41,0,.67A46.26,46.26,0,0,1,20,165.1c-.18.18-.42.33-.43.63a5.32,5.32,0,0,0-1.59-.17c.25-.2.5-.4.76-.59.19,0,.37,0,.37-.26a1.84,1.84,0,0,1,.57-.38c.27,0,.4-.09.4-.36a1.77,1.77,0,0,1,0-.23h0a.12.12,0,0,0,.13-.13h0a.13.13,0,0,0,.13-.13h0a1.13,1.13,0,0,0,1-.85h0a.11.11,0,0,0,.12-.12h0c.08,0,.13,0,.13-.12h0a.13.13,0,0,0,.13-.13h.23c.44.1.54-.2.6-.54l.1-.1c.22,0,.48,0,.3-.36l0-.24h0c.08,0,.13,0,.12-.12h0a.12.12,0,0,0,.13-.13h0c.08,0,.12-.05.13-.13h0c.23,0,.31-.17.47-.26s.32,0,.17-.24l0-.24h0c.18,0,.27-.07.25-.25h0a.13.13,0,0,0,.13-.13h0a.11.11,0,0,0,.13-.12h.14"/><path class="cls-1" d="M20.11,148.73a12.67,12.67,0,0,0,3,3c.16.13.33.23.35.46-.59,0-.81-.63-1.28-.85a6.49,6.49,0,0,1-.55-.36,4.18,4.18,0,0,1-.4-.44c-.44-.54-1.17-.79-1.43-1.5l.32-.3"/><path class="cls-1" d="M19.79,149c.26.71,1,1,1.43,1.5a4.18,4.18,0,0,0,.4.44.71.71,0,0,1-.54-.2q-.81-.57-1.62-1.11c-.14-.1-.26-.19-.27-.37a.91.91,0,0,1,.6-.26"/><path class="cls-1" d="M29.17,141.2a3.87,3.87,0,0,1-2.56.9,7.25,7.25,0,0,1,2.56-.9"/><path class="cls-1" d="M19.64,164.33a1.84,1.84,0,0,0-.57.38.37.37,0,0,0-.37.26l-.76.58-.46,0a15.7,15.7,0,0,1,2.2-1.61h0c0,.11,0,.23,0,.34"/><path class="cls-1" d="M43.65,124.5l-.07-.34h0c.08,0,.12,0,.14-.08s.19-.09.3-.08c-.08.21-.14.43-.39.51"/><path class="cls-1" d="M29.65,141c-.06.13-.18.12-.3.13l.3-.13"/><path class="cls-1" d="M43.74,124.07c0,.08-.06.11-.14.08l.14-.08"/><path class="cls-1" d="M26.48,142.15l-.11.07.11-.07"/><path class="cls-1" d="M29.78,140.91l-.14.1.14-.1"/><polyline class="cls-1" points="66.34 172.41 66.37 172.4 66.35 172.41 66.34 172.41"/><path class="cls-1" d="M45.34,126.53a4.57,4.57,0,0,0-.61,2.07h-.24a6,6,0,0,1,.74-2.67c.78-.23.85-.2,1.09.47-.35-.11-.7-.29-1,.13"/><path class="cls-1" d="M45.34,126.53c.28-.42.63-.24,1-.13v.13h-1"/><path class="cls-1" d="M47,127.38l-.24-.12V127c.25,0,.24.18.24.36"/><path class="cls-1" d="M46.79,126.9a.22.22,0,0,1-.23-.25c.16,0,.24.09.23.25"/><path class="cls-1" d="M44.85,129c.13-.43.24-.87.38-1.31.09-.26.19-.57.51-.6s.49.24.59.45a4.13,4.13,0,0,1,.72,1.95,10.89,10.89,0,0,0,.52,2.46c.28,1.75.46,3.51.59,5.27s.06,3.27.1,4.91a18.86,18.86,0,0,1-.38,3.59.5.5,0,0,1,0,.12c-.17.34-.28.8-.69.86s-.58-.39-.74-.7a14.61,14.61,0,0,1-1.21-4,38.82,38.82,0,0,1-.58-5.26,28.18,28.18,0,0,1,.07-5c0-.16,0-.32,0-.48v-.85c0-.37.19-.72.12-1.1V129"/><path class="cls-1" d="M43.76,136.26c.09-.32-.24-.75.23-1v1h-.24"/><path class="cls-1" d="M44,135.65v-1h.13c.14.35.33.7-.12,1"/><path class="cls-1" d="M44.72,130.67v.48h-.43l.08-.49a.3.3,0,0,1,.35,0"/><path class="cls-1" d="M43.86,132.37c.06-.22-.11-.52.24-.63l.14.14-.11.49h-.27"/><path class="cls-1" d="M44,132.37h.14c.21.22.08.49.11.73H44c0-.16,0-.33,0-.49v-.24"/><path class="cls-1" d="M44.12,134.68H44c-.12-.27-.29-.55.13-.74v.74"/><path class="cls-1" d="M44.24,131.88l-.14-.14v-.34c.12-.05.14-.14.15-.25h.12c0,.24.1.52-.13.73"/><path class="cls-1" d="M44,133.1h.23c.2.2.14.31-.12.36s-.11-.23-.11-.36"/><path class="cls-1" d="M21.26,162.65a1.13,1.13,0,0,1-1,.85,2.76,2.76,0,0,1,1-.85"/><path class="cls-1" d="M23.67,160.45c-.16.09-.24.3-.47.26a1.45,1.45,0,0,1,.62-.74,1.94,1.94,0,0,0,0,.24.25.25,0,0,0-.17.24"/><path class="cls-1" d="M22.56,161.66l-.1.11-.23,0h0a1.53,1.53,0,0,1,.61-.74l0,.24a.44.44,0,0,0-.3.36"/><path class="cls-1" d="M23.69,152.33c.23,0,.34.12.37.34a.33.33,0,0,1-.37-.34"/><path class="cls-1" d="M21.86,162.3h-.24c.12-.18.24-.36.49-.37h0l-.25.38"/><path class="cls-1" d="M20.05,163.74a1.77,1.77,0,0,0,0,.23l-.36,0h0a.39.39,0,0,1,.37-.25"/><path class="cls-1" d="M24.06,159.73c0,.18-.07.27-.25.25a.41.41,0,0,1,.25-.25"/><path class="cls-1" d="M26.61,156.44a.22.22,0,0,1-.13.25c0-.11,0-.21.13-.25"/><path class="cls-1" d="M26.85,156.08a.22.22,0,0,1-.12.25.2.2,0,0,1,.12-.25"/><path class="cls-1" d="M27.1,155.71c0,.11,0,.21-.13.25a.21.21,0,0,1,.13-.25"/><path class="cls-1" d="M26,157.29a.26.26,0,0,1-.13.26.27.27,0,0,1,.13-.26"/><path class="cls-1" d="M25.64,157.78a.28.28,0,0,1-.13.25.28.28,0,0,1,.13-.25"/><path class="cls-1" d="M25.28,158.27l-.14.25a.27.27,0,0,1,.14-.25"/><path class="cls-1" d="M24.79,158.87a.32.32,0,0,1-.13.26.26.26,0,0,1,.13-.26"/><path class="cls-1" d="M24.67,159.12l-.25.15c0-.12.13-.15.25-.15"/><path class="cls-1" d="M26.25,156.93a.23.23,0,0,1-.13.25.22.22,0,0,1,.13-.25"/><path class="cls-1" d="M26.49,156.69l-.13.12.13-.12"/><path class="cls-1" d="M26.37,156.81a1.59,1.59,0,0,0-.13.13,1.59,1.59,0,0,1,.13-.13"/><path class="cls-1" d="M26.13,157.17l-.13.13Z"/><path class="cls-1" d="M25.88,157.54l-.13.13Z"/><path class="cls-1" d="M25.52,158l-.13.13.13-.13"/><path class="cls-1" d="M25.4,158.14l-.13.14.13-.14"/><path class="cls-1" d="M25.15,158.51l-.18.13.18-.13"/><path class="cls-1" d="M24.91,158.7l-.13.18.13-.18"/><path class="cls-1" d="M24.44,159.5H24.3l.12-.18c0,.07,0,.13,0,.19"/><path class="cls-1" d="M24.3,159.49c0,.08,0,.12-.13.12Z"/><path class="cls-1" d="M24.18,159.61c0,.08-.05.12-.13.12l.13-.12"/><path class="cls-1" d="M23.21,160.7c0,.08-.05.13-.13.13l.13-.13"/><path class="cls-1" d="M23.09,160.82A.12.12,0,0,1,23,161l.13-.13"/><path class="cls-1" d="M23,160.94c0,.09,0,.13-.12.13l.12-.13"/><path class="cls-1" d="M22.11,161.92l.12-.12h0l-.12.12Z"/><path class="cls-1" d="M21.63,162.28a.13.13,0,0,1-.13.13,1.59,1.59,0,0,1,.13-.13"/><path class="cls-1" d="M21.51,162.4a.12.12,0,0,1-.13.13Z"/><path class="cls-1" d="M21.38,162.53a.11.11,0,0,1-.12.12l.12-.12"/><path class="cls-1" d="M20.29,163.5a.13.13,0,0,1-.13.13l.13-.13"/><path class="cls-1" d="M20.17,163.62a.12.12,0,0,1-.13.13l.13-.13"/><path class="cls-1" d="M27.34,155.47a1.59,1.59,0,0,1-.13.13,1.59,1.59,0,0,0,.13-.13"/><path class="cls-1" d="M27.22,155.59a.8.8,0,0,1-.13.13.8.8,0,0,0,.13-.13"/><path class="cls-1" d="M27,156l-.13.12L27,156"/><path class="cls-1" d="M26.73,156.32l-.12.13a.13.13,0,0,1,.12-.13"/><path class="cls-1" d="M25.76,157.66a1.59,1.59,0,0,1-.13.13,1.59,1.59,0,0,0,.13-.13"/><path class="cls-1" d="M43.27,135.41c0-.21-.08-.44.12-.61.17.24.26.47-.12.61"/><path class="cls-1" d="M43.39,134.55c0-.21-.14-.51.23-.61,0,.22.17.53-.23.61"/><path class="cls-1" d="M44,132.37v.24h-.24c-.17-.18,0-.22.11-.24Z"/><path class="cls-1" d="M44.25,131.15c0,.11,0,.2-.15.25-.19-.22-.07-.49-.1-.74a.24.24,0,0,0,.12-.24v-.36h.24a2.28,2.28,0,0,1,0,.26c0,.11-.15.23,0,.35l-.12.49"/><path class="cls-1" d="M44.85,129v.24c-.21,0-.24.17-.24.34s-.06.26-.23.27c-.16-.27.14-.48.08-.73l0-.48h.24c0,.13,0,.27.12.36"/><path class="cls-1" d="M44.46,129.08c.06.25-.24.46-.08.73,0,.08,0,.17,0,.24h-.24c0-.37-.18-.8.34-1"/><path class="cls-1" d="M44.12,130.42a.24.24,0,0,1-.12.24c-.18-.18,0-.21.12-.24"/><path class="cls-1" d="M31.35,149a29.24,29.24,0,0,0-1.92,3.16l-1.72,2.69c-.56,0-.86-.43-1.22-.71a20.67,20.67,0,0,1-4.08-4.67c-.23-.32-.21-.57.27-.59a39.31,39.31,0,0,0,7.54-1.25,3.34,3.34,0,0,1,1.83-.07l0,.12v.06c0,.05-.07.11-.11.17h0a2.58,2.58,0,0,0-.6,1.1Z"/><path class="cls-1" d="M33,146c0,.14,0,.29-.16.36,0-.13,0-.29.16-.36"/><path class="cls-1" d="M33.18,145.62a.23.23,0,0,1-.14.25.27.27,0,0,1,.14-.25"/><path class="cls-1" d="M32.44,147.06c0,.11,0,.21-.12.26a.28.28,0,0,1,.12-.26"/><path class="cls-1" d="M32.07,147.7l0-.12.16-.12a.22.22,0,0,1-.14.24"/><path class="cls-1" d="M33.52,145a.91.91,0,0,1-.11.16.91.91,0,0,0,.11-.16"/><path class="cls-1" d="M32.32,147.32l-.11.13Z"/><path class="cls-1" d="M33.65,144.74l-.11.17.11-.17"/><path class="cls-1" d="M37.7,137.28a7.13,7.13,0,0,1,1-2.12,4.12,4.12,0,0,1-1,2.12"/><path class="cls-1" d="M37.1,138.62a2.41,2.41,0,0,1,.59-1.27,1.65,1.65,0,0,1-.59,1.27"/><path class="cls-1" d="M42.2,127.06a1.65,1.65,0,0,1,.6-1.14,1.67,1.67,0,0,1-.6,1.14"/><path class="cls-1" d="M38.8,134.84a1,1,0,0,1,.35-.78c0,.32,0,.62-.35.78"/><path class="cls-1" d="M41.72,128.16a1,1,0,0,1,.35-.78c0,.31,0,.61-.35.78"/><path class="cls-1" d="M40.86,130.1a.53.53,0,0,1,.24-.54c0,.22,0,.44-.24.54"/><path class="cls-1" d="M39.64,132.89a.54.54,0,0,1,.24-.53c0,.21,0,.44-.24.53"/><path class="cls-1" d="M40,132a.5.5,0,0,1,.23-.51c0,.21,0,.42-.23.51"/><path class="cls-1" d="M41.34,129a.56.56,0,0,1,.24-.53c0,.21,0,.44-.24.53"/><path class="cls-1" d="M40.38,131.19a.51.51,0,0,1,.23-.53c0,.21,0,.44-.23.53"/><path class="cls-1" d="M39.28,133.75a.52.52,0,0,1,.23-.52c0,.21,0,.42-.23.52"/><path class="cls-1" d="M43,125.44a.34.34,0,0,1,.24-.38c0,.18,0,.36-.24.38"/><path class="cls-1" d="M43.4,124.84c0-.17.07-.25.23-.27a.22.22,0,0,1-.23.27"/><path class="cls-1" d="M39.51,133.23c0-.12,0-.21.12-.26a.23.23,0,0,1-.12.26"/><path class="cls-1" d="M40.24,131.52a.21.21,0,0,1,.13-.25c0,.11,0,.2-.13.25"/><path class="cls-1" d="M40.62,130.59l.11-.17c0,.05-.07.11-.11.17"/><path class="cls-1" d="M43.29,125l.11-.15-.11.15"/><path class="cls-1" d="M42.93,125.6a.91.91,0,0,1,.11-.16.91.91,0,0,0-.11.16"/><path class="cls-1" d="M42.81,125.84a1.63,1.63,0,0,1,.11-.17,1.63,1.63,0,0,0-.11.17"/><path class="cls-1" d="M40.74,130.34l.11-.17-.11.17"/><path class="cls-1" d="M38.67,135.08a1,1,0,0,0,.11-.17,1,1,0,0,1-.11.17"/><path class="cls-1" d="M39.16,134l.11-.17-.11.17"/><path class="cls-1" d="M41.11,129.49l.1-.17Z"/><path class="cls-1" d="M39.89,132.29l.11-.17-.11.17"/><path class="cls-1" d="M41.22,129.24c0-.05.07-.11.11-.17s-.07.12-.11.17"/><path class="cls-1" d="M41.59,128.4c0-.06.07-.12.11-.17s-.07.11-.11.17"/><path class="cls-1" d="M42.08,127.3l.11-.17-.11.17"/><path class="cls-1" d="M31.35,149a2.58,2.58,0,0,1,.6-1.1,1.4,1.4,0,0,1-.6,1.1"/><path class="cls-1" d="M32,147.93c0-.06.07-.12.11-.17a.15.15,0,0,1-.11.17"/><path class="cls-1" d="M30.55,151c0-.23,0-.38.24-.41.05.19,0,.3-.24.41"/><path class="cls-1" d="M22.11,161.92l.12-.12.23,0c-.06.33-.16.63-.6.53l.25-.38"/><path class="cls-1" d="M19.68,164l.36,0c0,.27-.13.39-.4.37,0-.12,0-.24,0-.35"/><path class="cls-1" d="M22.56,161.66a.44.44,0,0,1,.3-.36c.18.35-.08.34-.3.36"/><path class="cls-1" d="M18.7,165a.37.37,0,0,1,.37-.26c0,.26-.18.27-.37.26"/><path class="cls-1" d="M23.67,160.45a.25.25,0,0,1,.17-.24c.15.23,0,.24-.17.24"/><path class="cls-1" d="M298.18,150.19a.59.59,0,0,1-.8-.31c-.18-.33-.43-.64-.61-1a.53.53,0,0,0-.61-.27c-.32.06-.16.32-.17.49a8,8,0,0,0,0,.85c0,.17,0,.26-.24.26s-.25-.08-.25-.25v-3c0-.24.17-.23.33-.23.51,0,1,0,1.52,0a.85.85,0,0,1,.92.78.84.84,0,0,1-.7,1c-.32.07-.34.19-.15.44s.5.78.77,1.2m-1.56-2,.72-.08c.25,0,.42-.17.42-.43a.4.4,0,0,0-.41-.38c-.37,0-.76,0-1.14-.05-.2,0-.21.1-.23.26-.07.51.06.8.64.68"/><path class="cls-1" d="M44.36,130.05c0-.08,0-.16,0-.24.17,0,.23-.12.23-.27s0-.32.23-.34c.08.38-.14.73-.11,1.1h-.35a2.28,2.28,0,0,0,0-.26"/><path class="cls-1" d="M44.38,130.31h.35v.37a.3.3,0,0,0-.35,0c-.14-.12,0-.24,0-.35"/></svg>