<?xml version="1.0" encoding="UTF-8"?> <svg xmlns="http://www.w3.org/2000/svg" id="Logos_Patrocinadores_Web" data-name="Logos Patrocinadores Web" viewBox="0 0 300 300"><defs><style>.cls-1{fill:#8f8fa3;}</style></defs><path class="cls-1" d="M116.12,113.57a.73.73,0,0,0,.35.12l.66,0a13.12,13.12,0,0,1,1.53.11l.37,0c.31,0,.63.05.94.1s.78.08,1.16.17a39.29,39.29,0,0,1,5.92,1.39,49.59,49.59,0,0,1,8,3.37,54.8,54.8,0,0,1,7.37,4.66c.64.49,1.27,1,1.89,1.52a.51.51,0,0,1,.13.16.14.14,0,0,1,0,.14l-.18.23-1.78,1.85-10.08,10.46c-.16.16-.3.32-.46.47s-.25.15-.44,0l-.1-.1a26.75,26.75,0,0,0-4.57-3.43,24.43,24.43,0,0,0-4.3-2,23.21,23.21,0,0,0-2.83-.77,14,14,0,0,0-1.45-.2l-.22,0a14.46,14.46,0,0,0-2.63-.08l-.52.05-.36.05a16.25,16.25,0,0,0-3.29.72,21.66,21.66,0,0,0-2.91,1.19,31,31,0,0,0-3.13,1.76c-1.22.77-2.4,1.6-3.56,2.45-1.48,1.09-2.93,2.22-4.36,3.36l-6.16,4.87c-1,.77-2,1.52-3,2.27a43.06,43.06,0,0,1-6,3.8,54.42,54.42,0,0,1-7.54,3.22c-2,.69-4.06,1.27-6.13,1.77-1.14.27-2.28.52-3.44.73-.72.14-1.43.29-2.16.37-.48.12-1,.12-1.45.24s-1.11.16-1.67.2c-.17,0-.34.05-.51.07l-.51.06c-.34,0-.68.05-1,.11s-.49,0-.73.06a4.89,4.89,0,0,0-.66,0,13,13,0,0,1-1.39.1c-.44,0-.88,0-1.32.09a5.63,5.63,0,0,1-.58,0l-1.25,0c-2,0-4,0-5.94,0-.37,0-.73,0-1.1-.06s-.63,0-1-.05a13.29,13.29,0,0,1-1.54-.11l-.51,0a8.8,8.8,0,0,1-1-.1l-.37,0a6,6,0,0,1-.94-.11l-.44,0-.58-.08-.36-.05c-.54-.07-1.07-.16-1.6-.25l-1-.17c-1.69-.31-3.57-.73-5.42-1.24a63.92,63.92,0,0,1-15.79-6.76,71.84,71.84,0,0,1-8.46-5.94Q3.15,142.23.7,139.86a6.11,6.11,0,0,1-.56-.58.18.18,0,0,1,0-.2l.46-.48L5.29,134l7.52-7.42.43-.4a.18.18,0,0,1,.2,0,1.22,1.22,0,0,1,.17.15A48.46,48.46,0,0,0,19,130.82,56.39,56.39,0,0,0,29.62,137,51.1,51.1,0,0,0,37,139.59c1.25.34,2.5.64,3.78.89.69.13,1.39.23,2.09.37.54,0,1.06.18,1.6.19s1.36.11,2,.22l.22,0c1.47,0,2.93.16,4.4.12.56,0,1.12,0,1.68-.07l1.54-.06a10.51,10.51,0,0,0,1.25-.09,4.21,4.21,0,0,1,.51,0l.51,0c.65-.08,1.31-.13,2-.22.16,0,.34,0,.5-.06l.58-.09c.41-.07.83-.09,1.24-.19.67-.09,1.34-.24,2-.37,1-.2,2-.44,2.93-.7a42.32,42.32,0,0,0,8.39-3.24,34.63,34.63,0,0,0,7.64-5.4c.27-.25.54-.5.8-.76q1.89-1.84,3.86-3.6a63.54,63.54,0,0,1,7.33-5.62,51,51,0,0,1,6.46-3.61,40.82,40.82,0,0,1,6.53-2.39,26.78,26.78,0,0,1,3.08-.66c.45-.13.92-.13,1.37-.23.14,0,.29,0,.44,0a3.42,3.42,0,0,0,.44,0,12.18,12.18,0,0,1,1.6-.13l.51,0a.73.73,0,0,0,.35-.12Z"></path><path class="cls-1" d="M115,195a.55.55,0,0,0-.27-.12l-.58,0a13.14,13.14,0,0,1-1.54-.12c-.17,0-.34,0-.51,0l-.58-.07-.29,0c-.34,0-.68-.08-1-.14l-.94-.15a39.8,39.8,0,0,1-6.24-1.61A36.79,36.79,0,0,1,93.83,188a31.13,31.13,0,0,1-4-3.39c-.34-.35-.67-.72-1-1.08a3.15,3.15,0,0,1-.22-.29.21.21,0,0,1,0-.2,1.22,1.22,0,0,1,.15-.17l.46-.47,11.56-11.57a8.57,8.57,0,0,1,.69-.66.2.2,0,0,1,.21,0s0,0,.06,0l.16.15a22.81,22.81,0,0,0,9,5.29,15.75,15.75,0,0,0,2.13.52c.45.12.92.13,1.38.23h.07c.73,0,1.46.13,2.19.13a11.51,11.51,0,0,0,1.18-.06,3.11,3.11,0,0,1,.43,0c.62,0,1.22-.15,1.82-.21.92-.18,1.82-.38,2.71-.64a27.55,27.55,0,0,0,5.58-2.4,30.4,30.4,0,0,0,4.17-2.85c.11-.1.23-.19.35-.28a.24.24,0,0,1,.27,0c.14.13.29.26.42.4l4.05,4.25,7.24,7.59c.16.16.3.32.45.49a.18.18,0,0,1,0,.2c-.09.12-.17.24-.27.35-.48.56-1,1.08-1.52,1.59a32.45,32.45,0,0,1-4.83,3.82,37.07,37.07,0,0,1-7.73,3.82,37.92,37.92,0,0,1-4.79,1.37c-.79.17-1.58.34-2.38.44-.49.13-1,.13-1.52.24a3.13,3.13,0,0,1-.43,0,3.13,3.13,0,0,0-.44,0,14.36,14.36,0,0,1-1.61.13l-.51,0a.47.47,0,0,0-.26.11Z"></path><path class="cls-1" d="M299.9,171a.78.78,0,0,0-.21,0H299l-9.16,0h-.74a.27.27,0,0,1-.17-.12c-.07-.13-.14-.26-.2-.4l-1.08-2.56c-.2-.48-.39-.95-.6-1.42a2,2,0,0,0-.17-.32.27.27,0,0,0-.18-.11l-.22,0h-.66l-10.35,0h-.66c-.37,0-.4.06-.54.38-.22.52-.42,1.05-.63,1.57-.33.84-.67,1.68-1,2.51a2.07,2.07,0,0,1-.15.34.25.25,0,0,1-.22.16l-.66,0-6.6,0H262.6a.17.17,0,0,1-.16-.2l.17-.48,2.65-7q2-5.34,4.06-10.69l5.73-15.07a2.5,2.5,0,0,1,.23-.53.29.29,0,0,1,.24-.15l.44,0,9.46,0h.44a.31.31,0,0,1,.24.16c.06.11.1.22.15.33.58,1.43,1.17,2.85,1.75,4.28l5.22,12.82,5.62,13.78.66,1.63a3.41,3.41,0,0,1,.26.76c0,.07.08.12.14.16ZM280.65,158.5l3.51,0h.59l.22,0a.2.2,0,0,0,.19-.24c-.06-.19-.11-.38-.18-.56-.27-.76-.55-1.51-.83-2.27-1-2.77-2-5.53-3-8.3-.07-.19-.14-.37-.22-.55a.16.16,0,0,0-.12-.07.13.13,0,0,0-.13.06,1.92,1.92,0,0,0-.21.46l-.8,2.12-3.23,8.48c-.06.16-.12.32-.17.48a.8.8,0,0,0-.05.21.21.21,0,0,0,0,.14.14.14,0,0,0,.12.07l.51,0Z"></path><path class="cls-1" d="M147.9,154.45l-.06-15.85v-.73a1.66,1.66,0,0,1,0-.22c0-.08.12-.19.2-.19l.22,0h.59l10.27,0h.73a.33.33,0,0,1,.28.21c.08.17.15.36.22.54q1.76,4.66,3.52,9.33c.83,2.22,1.67,4.43,2.51,6.65l.18.48a.33.33,0,0,0,.28.21,5.09,5.09,0,0,0,1.17,0,.21.21,0,0,0,.17-.12c0-.09.09-.17.13-.26s.13-.37.2-.55q2.82-8,5.66-15.88c.06-.17.12-.33.19-.48a.28.28,0,0,1,.23-.16l.66,0,8.29,0h2.57c.15,0,.29,0,.44,0a.27.27,0,0,1,.21.18c0,.07,0,.14,0,.21,0,.27,0,.54,0,.81l.06,17.17.06,14.45c0,.27,0,.54,0,.81a1.52,1.52,0,0,1,0,.21.29.29,0,0,1-.2.2l-.22,0H186l-7.56,0a3,3,0,0,1-.73,0,.28.28,0,0,1-.11-.08.34.34,0,0,1-.05-.14,2.83,2.83,0,0,1,0-.29c0-.25,0-.49,0-.73q0-9.44-.07-18.86a5.31,5.31,0,0,0,0-.8.09.09,0,0,0-.1-.09s-.1,0-.12.06-.15.36-.22.54q-1.95,5.46-3.92,10.9c-1.05,2.94-2.11,5.89-3.17,8.83-.07.18-.14.37-.22.54a.26.26,0,0,1-.22.17l-.37,0h-3.3l-.21,0a.2.2,0,0,1-.12-.07,2,2,0,0,1-.25-.54l-2.32-6.09L158.05,152l-.54-1.44c0-.14-.12-.27-.18-.4s0,0-.06,0a.1.1,0,0,0-.12.06.33.33,0,0,0,0,.14c0,.24,0,.49,0,.73,0,2.06,0,4.11,0,6.16q0,6.54,0,13.06c0,.27,0,.54,0,.81a1.66,1.66,0,0,1,0,.22.29.29,0,0,1-.2.19l-.58,0-3.67,0H148.2a.31.31,0,0,1-.2-.19c0-.07,0-.14,0-.22,0-.24,0-.49,0-.73Q147.92,162.41,147.9,154.45Z"></path><path class="cls-1" d="M193.35,154.31l-.06-16c0-.27,0-.54,0-.81a.29.29,0,0,1,.25-.23l.22,0h.66l18.84-.07h.81a6.76,6.76,0,0,1,1.1.06l.44,0a9.42,9.42,0,0,1,2.56.58,7,7,0,0,1,1.55.82,6.26,6.26,0,0,1,1.84,2.06,8,8,0,0,1,.7,1.69,8.44,8.44,0,0,1,.34,1.87l0,.29a9.06,9.06,0,0,1,.08,1.47,5.46,5.46,0,0,1-.05.8c0,.15,0,.29,0,.44a7.87,7.87,0,0,1-.46,2.14,6.42,6.42,0,0,1-1.08,2,5.89,5.89,0,0,1-2.72,1.91c-.18.07-.37.12-.56.18a.17.17,0,0,0-.11.09s.06.11.15.13l.43.11a6.25,6.25,0,0,1,4.21,3,8.5,8.5,0,0,1,.88,2.24,10.6,10.6,0,0,1,.33,2.54c0,.41,0,.83,0,1.24a8.42,8.42,0,0,1-.4,2.38,7.62,7.62,0,0,1-3,4.11,10,10,0,0,1-2.62,1.28,9.72,9.72,0,0,1-2,.48,5.24,5.24,0,0,1-1.31.11l-20.09.07a2.92,2.92,0,0,1-.66,0,.28.28,0,0,1-.14-.16l0-.22v-.58c0-.93,0-1.86,0-2.79Zm13.75,3.62-4.62,0c-.22,0-.44,0-.65,0a.2.2,0,0,0-.13.06.21.21,0,0,0-.07.13l0,.22c0,.17,0,.34,0,.51,0,1.49,0,3,0,4.47,0,.17,0,.34,0,.51a1.55,1.55,0,0,0,0,.21.27.27,0,0,0,.19.2,2.92,2.92,0,0,0,.66,0l8.93,0a5.64,5.64,0,0,0,1.16-.12,3.31,3.31,0,0,0,1.44-.68,2.51,2.51,0,0,0,.76-1.06A3.38,3.38,0,0,0,215,161c0-.15,0-.29,0-.44a3.08,3.08,0,0,0-.23-.84,2.72,2.72,0,0,0-1-1.23,3.14,3.14,0,0,0-1.71-.56h-4.9Zm-.18-13.48-4.47,0h-.58a.29.29,0,0,0-.3.27c0,.19,0,.39,0,.58,0,1.56,0,3.13,0,4.69,0,.12,0,.25,0,.37s0,.14,0,.21a.29.29,0,0,0,.2.19l.22,0h.74l7.77,0h1a3.65,3.65,0,0,0,.8-.1,2.56,2.56,0,0,0,1.86-1.6,3.94,3.94,0,0,0,.23-2.09c0-.15,0-.29-.08-.43a2.76,2.76,0,0,0-.43-1,2.48,2.48,0,0,0-2-1.12h-4.92Z"></path><path class="cls-1" d="M259.6,154.06l.06,16.06a4.39,4.39,0,0,1,0,.81.26.26,0,0,1-.14.15l-.14,0H259l-7,0h-.44a.27.27,0,0,1-.27-.29c0-.24,0-.49,0-.73,0-3.77,0-7.53,0-11.3a5.3,5.3,0,0,0,0-.8.26.26,0,0,0-.19-.2l-.21,0h-3l-9.76,0c-.27,0-.53,0-.8,0a.2.2,0,0,0-.13.06.27.27,0,0,0-.07.13,1.43,1.43,0,0,0,0,.29c0,.27,0,.54,0,.81q0,5.43,0,10.86c0,.26,0,.53,0,.8a2.07,2.07,0,0,1,0,.22c0,.08-.08.11-.15.15a.32.32,0,0,1-.14,0h-.59l-6.67,0c-.22,0-.44,0-.66,0a.26.26,0,0,1-.2-.19,1.92,1.92,0,0,1,0-.22v-.66l-.12-31.91v-.66a1.46,1.46,0,0,1,0-.22.27.27,0,0,1,.2-.19l.29,0h1.4l5.28,0h.66a.3.3,0,0,1,.24.24c0,.25,0,.49,0,.73l0,9.18c0,.88,0,1.76,0,2.64,0,.17,0,.34,0,.51a.32.32,0,0,0,.25.24l.21,0h.52l12.91-.05.59,0a.54.54,0,0,0,.21-.05.23.23,0,0,0,.14-.15,1.92,1.92,0,0,0,0-.22c0-.24,0-.49,0-.73q0-5.68,0-11.37c0-.27,0-.54,0-.81a.25.25,0,0,1,.17-.21l.15,0h.22l7,0h.22c.22,0,.33.1.33.3s0,.54,0,.81Q259.58,146.09,259.6,154.06Z"></path></svg> 