<svg id="Logos_Patrocinadores_Web" data-name="Logos Patrocinadores Web" xmlns="http://www.w3.org/2000/svg" viewBox="0 0 300 300"><defs><style>.cls-1{fill:#8f8fa3;}.cls-2{fill:#323232;}.cls-3{fill:#1b1b1b;}.cls-4{fill:#282828;}.cls-5{fill:#303030;}.cls-6{fill:#c3c3c3;}.cls-7{fill:#343434;}.cls-8{fill:#373a2a;}.cls-9{fill:#0e0e0e;}.cls-10{fill:#060606;}.cls-11{fill:#373835;}.cls-12{fill:#252525;}.cls-13{fill:#535353;}.cls-14{fill:#fff;}.cls-15{fill:#c2c2c2;}.cls-16{fill:#d5d5d5;}.cls-17{fill:#6a6a6a;}.cls-18{fill:#636363;}.cls-19{fill:#515151;}.cls-20{fill:#696969;}.cls-21{fill:#474747;}.cls-22{fill:#3c3c3c;}.cls-23{fill:#3b3b3b;}.cls-24{fill:#1d1d1d;}.cls-25{fill:#2c2c2c;}.cls-26{fill:none;stroke:#8f8fa3;stroke-miterlimit:10;stroke-width:2px;}</style></defs><path class="cls-1" d="M.09,143.5a1.84,1.84,0,0,0,.9.11,2.24,2.24,0,0,1,1.25,3.08,3.51,3.51,0,0,1-2.15,2.14Z"/><path class="cls-1" d="M1.19,152l2.18,3.2c0,1.43,0,2.86,0,4.3C1.4,157.32,1.08,154.7,1.19,152Z"/><path class="cls-1" d="M.09,192.49l83.36,0c1.63.18,3.2.83,4.89.56,1.32.21,2.55.58,3.11,2a1.44,1.44,0,0,1-.82,1.31c-1.69.69-3.25-.07-4.85-.45L.09,195.68Z"/><path class="cls-1" d="M1.09,151c-.34,0-.67,0-1,0v-2.13c.84-.88,1-2.23,2.15-2.9,1.4-.8,2.43-.53,3,1a3.75,3.75,0,0,1-.47,3A4.16,4.16,0,0,1,1.09,151Z"/><path class="cls-1" d="M.09,140.31l3.12-1.17c1.22,1.09,1,2.27.22,3.49a4.49,4.49,0,0,1-1.94,1.25,1.54,1.54,0,0,1-1.4-.38Z"/><path class="cls-1" d="M70.89,103q90.15,0,180.31.11c23.24,0,42.41,15.3,46.64,36.87,5.72,29.22-15.72,55.56-45.68,55.71-37.28.18-74.56,0-111.83.05-10,0-20,.12-30,.19a2.08,2.08,0,0,1-2.27-.14c.18-2.83,2.72-3.06,4.55-4.08a10.6,10.6,0,0,1,2.55-.52c1.22-.09,2.43-.1,3.65-.13,43.51-.31,87-.07,130.52-.12,8.37,0,16.35-1.47,23.62-5.69,16.4-9.53,24.13-27.87,19.51-46-4.73-18.55-20.4-30.9-40.29-31.28-15.51-.3-31-.07-46.54-.07H86.92a74.19,74.19,0,0,1-9.07-.34,26.51,26.51,0,0,1-5.59-2.16,3.19,3.19,0,0,1-1.68-1.67C70.69,103.44,70.79,103.19,70.89,103Z"/><path class="cls-1" d="M41.89,103.82l6.35-.83c2.2-1.33,4-.3,5.78,1,1.38,2.48,1.95,4.73-1.74,5.68-3.87.51-7.78.16-11.67.49-3.32.27-5.06-1.21-4.54-4.71C37.7,103.75,39.43,102.44,41.89,103.82Z"/><path class="cls-1" d="M2.24,146.69c-.41-1-.83-2.05-1.25-3.08l1.26-1.08c3.08-.69,1.36-2.72,1.21-4.31L3,135c.48-1.35,1.57-2.3,2.33-3.47l1.29-1.94c.65-1.19.53-2.69,1.31-3.79s1.81-2.92,3.4-.62a4.37,4.37,0,0,1,.07,1.57c-.72,2.54-1.45,5.09-1.93,7.69-.75,2.84-.41,5.86-1.48,8.65-.67,1.75-.93,3.84-3.61,3.55C3.68,145.59,3,146.69,2.24,146.69Z"/><path class="cls-1" d="M61.45,101.5l1.82.45c1.71,1.59,1.15,4.33,3,5.83,2.84,3.37,7,6,6.61,11.24-.4,2-1.46,2.87-3.51,2a3.88,3.88,0,0,1-1.86-2.42c-.46-2.73-2.21-4.74-3.9-6.78-1.18-2.44-4.15-3.85-4.1-7C59.83,103.47,60,102.13,61.45,101.5Z"/><path class="cls-1" d="M26.85,108.32c1.84-1.85,2.12-6,6.4-4.19a2.21,2.21,0,0,1,.8,1.89c-.22,1.36-1.13,2.53-1,4-.18,1.6-.88,2.76-2.62,3a6.3,6.3,0,0,1-3.87-3.32A1.35,1.35,0,0,1,26.85,108.32Z"/><path class="cls-1" d="M65.41,108.37c-3-1.4-1.92-4.12-2.14-6.42,2.47.85,5.4-1.81,7.62,1l-.09.36c-.59,1.18-1,2.5-2.22,3.2C66.75,105.79,66.8,108.3,65.41,108.37Z"/><path class="cls-1" d="M53.63,104.13,48.24,103c-.05-.7-1.13-1.4,0-2.08a3.18,3.18,0,0,1,4.34,0l4.28,0a2.47,2.47,0,0,1,.41,3,2.53,2.53,0,0,1-2.2.89A3.24,3.24,0,0,1,53.63,104.13Z"/><path class="cls-1" d="M56.85,104.1c0-1,0-2.1,0-3.14,1.53-.58,2.47-2.85,4.52-1.74.92.5.43,1.51.06,2.29-.46,1.22,0,2.79-1.39,3.67a2.31,2.31,0,0,1-2.17.66C57.1,105.52,56.5,105.08,56.85,104.1Z"/><path class="cls-1" d="M10.87,125.53c-3.35-.61-2.22,3.36-4.23,4.1-1.34-4.67,2.25-6.4,5.17-8.53,1-.39,1.41.26,1.69,1.07C13.39,123.88,13.06,125.43,10.87,125.53Z"/><path class="cls-1" d="M33.32,106.16c0-.67,0-1.35-.07-2,2.21.36,3.69-1,5.27-2.18,1.26-.06,2.49,0,3.35,1.12,0,.25,0,.5,0,.76l-5.3,1.45C35.6,106,34.73,107.05,33.32,106.16Z"/><path class="cls-1" d="M26.85,108.32v1.11a3.84,3.84,0,0,1-2.27,2.77,5,5,0,0,1-2.22.37,3,3,0,0,1-2-1C20.73,106.87,25.11,110.2,26.85,108.32Z"/><path class="cls-1" d="M13,119c-.46-4.11,3.2-3.24,5.25-4.3a2,2,0,0,1,.59,1.19,3,3,0,0,1-1.32,2.31,4.75,4.75,0,0,1-1.28.45C15.2,118.76,14.19,119.57,13,119Z"/><path class="cls-1" d="M13,119c1.14,0,1.59-2.46,3.18-.89.54,1.15-.07,2.1-.55,3.07a3.91,3.91,0,0,1-1.43,1.34,1.37,1.37,0,0,1-1.24-.18c-.4-.41-.8-.82-1.19-1.24Z"/><path class="cls-1" d="M5.35,131.57c.23,1.82.05,3.37-2.33,3.47C1.19,132.15,3.56,132.05,5.35,131.57Z"/><path class="cls-1" d="M41.87,103.07c-1.2-.12-2.54.17-3.35-1.12.76-1.13,1.5-2.43,3.17-1.5C43,101.17,42.16,102.17,41.87,103.07Z"/><path class="cls-1" d="M52.59,100.91H48.25a2,2,0,0,1,2.45-2.09C52,98.88,52.47,99.76,52.59,100.91Z"/><path class="cls-1" d="M18.27,115.76a9.33,9.33,0,0,1,0-1.06l2.12-3.15,2.3,0a1.49,1.49,0,0,1,.15,1.39C21.68,114.47,20.78,116.43,18.27,115.76Z"/><path class="cls-1" d="M3.46,138.22c.75,1.76,2.89,3.9-1.21,4.31,1.29-.86,1.12-2.12,1-3.39A3.31,3.31,0,0,1,3.46,138.22Z"/><path class="cls-1" d="M39.71,179.71c-2.82,0-5.64.45-8.42.58-12.1.55-19-7.75-25.95-15.83a5.09,5.09,0,0,1-.89-4C6.11,160,7,161.19,8,162.08s1.6,2.15,2.58,3.08c.81.81,1.5,1.72,2.28,2.56,2.38,2.43,5.53,4,7.56,6.81,4,3.64,9,2.15,13.52,2.15,3.72,0,7.34-.59,10.27,2.38C43,181,41.34,180.33,39.71,179.71Z"/><path class="cls-1" d="M39.71,179.71c1.48-.16,3.16.5,4.29-1.07-.48-1.34.35-2.06,1.29-2.73,6.85-.33,12.19-4.68,18.35-6.85,3.31-3.47,6.84-6.12,11.86-3.07.94.82,1.5,1.75.8,3-4.26-2.47-8-2.92-10.13,2.64-.23.59-.94,1.38-1.47,1.4-5.85.28-9.52,6.52-15.81,5.63C45.78,178.24,43.2,183,39.71,179.71Z"/><path class="cls-2" d="M79.8,188.61c-1.21-2.36-3.76-3-5.69-4.38-2.84-2.08-6.5-4.21-3.32-8.71,1.49,1.18,1.7,3.4,3.55,4.29a27.54,27.54,0,0,0,4,2.53,7.31,7.31,0,0,1,2.52,3.36,3.27,3.27,0,0,1,0,2.14A1.42,1.42,0,0,1,79.8,188.61Z"/><path class="cls-1" d="M4.29,159.54c-.3,0-.61-.07-.91-.08-1-1.09-.42-2.49-.75-3.71a7.72,7.72,0,0,1,2.46-3.84,2.44,2.44,0,0,1,1.43-.29c3,2.26,3.32-2.57,5.63-2.18a2.08,2.08,0,0,1,1.46,2.33c-.51,2.22-.94,4.48-3.08,5.86C8.34,157.89,6.47,159.23,4.29,159.54Z"/><path class="cls-1" d="M76.3,169a2.28,2.28,0,0,0-1.09-2.12,2,2,0,0,1-.29-3c6-.39,5.5,4.19,6.22,7.88a6.4,6.4,0,0,1-2.59,4,2.87,2.87,0,0,1-2.33.06,3.07,3.07,0,0,1-1.35-2.67C76.16,172.07,79.58,171.66,76.3,169Z"/><path class="cls-1" d="M79.8,188.61l.94-.66c.92-1.73,2.29-1.95,4-1.19a4.29,4.29,0,0,1,1.16,1.88c.3,1.71,2,2.55,2.59,4.12a1.08,1.08,0,0,1-.58,1.16c-2.15,1.54-3.3.09-4.42-1.46C83.46,190,81.31,189.62,79.8,188.61Z"/><path class="cls-1" d="M4.29,159.54c1.24-2.23,3.17-2.74,5.53-2.22,1.3,2.65,1,4.66-2.26,5.46l-3.11-2.36A4.4,4.4,0,0,0,4.29,159.54Z"/><path class="cls-3" d="M74.87,173.21a2.21,2.21,0,0,1,1.24,2.18,24.94,24.94,0,0,0-1.91,5.33c-3.25-.37-3.21-2.86-3.41-5.2Z"/><path class="cls-1" d="M5.5,152.12a3.28,3.28,0,0,1-2.13,3c-1.89-.28-1.3-2.23-2.18-3.2a4.38,4.38,0,0,0-.1-1c.77-1.26,2.06-1.08,3.26-1.13C6.21,149.88,6.13,150.86,5.5,152.12Z"/><path class="cls-4" d="M87.87,193.92l-.1-1.23c-.41-1,.16-1.43.94-1.79,3.67-.49,5.69,2.36,8.29,4a1.85,1.85,0,0,1,.63,2.19c-1.29,1.46-2.72,2-4.45.72l0,0c-.85-1-.91-2.49-2.14-3.22Z"/><path class="cls-5" d="M91.07,194.66c2.12.15,2,1.79,2.14,3.22l-2.42-2.24A8.41,8.41,0,0,0,91.07,194.66Z"/><path class="cls-1" d="M5.5,152.12a2.36,2.36,0,0,0-1.15-2.24c0-1.07,0-2.13.05-3.2,3.12-2,2.43-5.48,3.14-8.39.35-1.45-.37-3.16,1-4.39A3.31,3.31,0,0,1,9.83,136c-.18,3.47,1.2,6.72,1.49,10.12-2.84,1-1.18,5.59-4.81,6A5.7,5.7,0,0,0,5.5,152.12Z"/><path class="cls-1" d="M97.61,155.45c4-3,10.24-1.52,13.42,3.34,5.61,8.56,8.34,18.16,9.87,28.17.4,2.65-2.15,3.47-3,5.34h-3.07c3.54-6.13,1.32-12.31.12-18.46-.73-2.69-1.41-5.4-4-7.1a3,3,0,0,1-1.12-1.79c.06-3.25-1-5.72-4.6-6.29C102.58,158,99.66,157.75,97.61,155.45Z"/><path class="cls-6" d="M115.81,173.17c2.19,4.33,1.83,9.18,2.72,13.77.49,2.56-2,3.89-3.67,5.36l-2.32.31a2.15,2.15,0,0,1-2.19.1c-.37-2.83,2.65-3.37,3.62-5.3,1.67-3.14-.07-6.41.36-9.6C114.42,176.13,114.31,174.39,115.81,173.17Z"/><path class="cls-1" d="M110.6,192.34l1.94.27-4.23,2.93-3.27.16c-.65-1.12,0-1.91.66-2.74a4.84,4.84,0,0,1,2-1.25A3.08,3.08,0,0,1,110.6,192.34Z"/><path class="cls-1" d="M68.64,106.23c.15-1.39.25-2.82,2.16-2.92l1,.84c.82.53,1.74,1,1.1,2.25C71.39,107.64,70,108.5,68.64,106.23Z"/><path class="cls-1" d="M72.89,106.09l-1.14-1.94a5.81,5.81,0,0,1,4.31,1.95l.19.31a2.4,2.4,0,0,1-2.86.28Z"/><path class="cls-1" d="M33.32,106.16c1-.47,2-1.19,3.27-.88.35,2.52.9,4.06,4.34,3.39,3.75-.72,7.72-.24,11.6-.29,1.37,1.22,3-.4,4.45.46a53.9,53.9,0,0,1,6.19,3.71c4.85,4.64,5.09,10.58,4.71,16.68-.47,4.49-1.71,8.69-4.87,12.11a2.45,2.45,0,0,1-1.49.48c-3.24-2-5.08-5.49-8.13-7.72a4,4,0,0,1-.28-1.48,28.1,28.1,0,0,0,.15-5.87c-1.31-7.38-7.23-7.12-12.71-7.6-1.66-4.18-4.84-7.09-8.34-9.72C30,107.49,33.24,107.35,33.32,106.16Z"/><path class="cls-1" d="M56.84,109.5c-1.48-.2-3.17.36-4.31-1.12,3.32-.66.21-3,1.1-4.25l1.08,0C56.54,105.5,58.36,106.85,56.84,109.5Z"/><path class="cls-7" d="M107.29,192.56l-1.1,1c-.82.95-2.67.64-2.92,2.31-1.83,1.95-4.25,2.82-6.71,3.58-1.57.48-3.16.79-3.38-1.62a7.77,7.77,0,0,0,4.36-1.11,28.43,28.43,0,0,0,2.06-4.4c2.27-2,4.55-3.87,7.83-2.1A2.09,2.09,0,0,1,107.29,192.56Z"/><path class="cls-8" d="M103.27,195.9c-.61-2.75,1.69-1.86,2.92-2.31-.38.71-.76,1.41-1.15,2.11Z"/><path class="cls-1" d="M8.68,136c0-.71-.07-1.43-.1-2.14.06-2.68.43-5.27,2.21-7.45,1.22.72,1.28,2.34,2.36,3.24,1.62-1.13,1.8-3,2.74-4.34.43-.84.88-1.68,1.32-2.52a8.5,8.5,0,0,1,.75-1.22c1.31-1.42,2.49-3,4.73-3,3.33.84,4.58,3.89,6.6,6.12.24,1.41,2.08,1.27,2.48,2.52.35,2.89-1.49,6,.92,8.65,1.83,1.8,1.07-2,2.47-1.15,1.32.54,1.23,2.18,2.32,2.9a12.46,12.46,0,0,0,1.24.3,12.42,12.42,0,0,1,3.37.59,1.76,1.76,0,0,1,1.09,1.7c-.51,1.31-2.13.92-3.25,2.17a3.06,3.06,0,0,1,3.49-.31c2.55,2.74,6,5,5.37,9.48-3.17,3.41-7.56,3.29-11.67,4-3.37.24-7.42-1.43-9.21,3.28-2.81,1.29-5.24.51-7.48-1.34-1.68-5-5.27-9-7.9-13.55A45.05,45.05,0,0,1,8.68,136Z"/><path class="cls-1" d="M17.17,125.38l-3.49,7c-2.49-1.52-2.75-3.69-2.89-5.92,0-.3.05-.61.08-.92L13,122.34a6.45,6.45,0,0,1,1-.25C15.43,122.81,16.21,124.18,17.17,125.38Z"/><path class="cls-1" d="M68.64,106.23c1.45,1,2.84.22,4.25-.14l.06.27c.52,1.06,1.53,1.73,2.18,2.68.42,1.28.9,2.54,1.43,3.79a2.78,2.78,0,0,1-.29,1.36c-1.65,1.43-1.16,4.82-4.42,4.79.32-5-4.3-7.07-6.44-10.61C66.2,107.23,66.22,104.93,68.64,106.23Z"/><path class="cls-1" d="M66.54,129.7c.54-6.18-.23-12-4.35-17-1.87-2.25-4.69-4-4.27-7.51h2.14c1,2.42,4.22,3.34,4.29,6.38A76.48,76.48,0,0,1,68.63,118a2.2,2.2,0,0,0,1.07,2.13,1.67,1.67,0,0,1,.27,2.07c-1.7-.28-2,.37-1.19,1.78.14,1.9.27,3.79-.78,5.52A1.06,1.06,0,0,1,66.54,129.7Z"/><path class="cls-1" d="M69.7,122.21v-2.13c1.2.57,2.2.76,2.15-1.1,2.34-1,1.07-4.93,4.25-5.3,1.78-.23,1.62,1,1.68,2.13-1.43,5-3.14,9.82-4,14.92A1.86,1.86,0,0,1,71.82,132,4.28,4.28,0,0,1,70.55,129C70.94,126.67,69.11,124.59,69.7,122.21Z"/><path class="cls-1" d="M68.63,118a10.73,10.73,0,0,1-4.28-6.39A8.21,8.21,0,0,1,68.63,118Z"/><path class="cls-1" d="M29,125.41c-3-1.34-3.64-5-6.46-6.45-.59-1.72.7-2.54,1.68-3.51.73-.52,1.53-1,2.26-1.52,1.09-.68,1.95-2,3.57-1.31a3.18,3.18,0,0,0,2.14-3.19c5,1.31,8.39,4,8.57,9.57-.35.83.65,1.63.06,2.47a32.24,32.24,0,0,1-7.9,4.36C31.66,125.53,30.3,125.87,29,125.41Z"/><path class="cls-1" d="M30.07,112.62l-3.21,2.13a4.26,4.26,0,0,1-2.19-3.23l2.19-2.09A6.64,6.64,0,0,1,30.07,112.62Z"/><path class="cls-1" d="M57.92,105.17c1.3,2.57,3.84,4.44,4.27,7.51-2.15-.45-4.18-1.1-5.35-3.18,0-2-1.38-3.58-2.13-5.34l2.14-.06Z"/><path class="cls-1" d="M24.67,111.52a3.26,3.26,0,0,1,2.19,3.23,2.3,2.3,0,0,1-2.08,1.14,4.06,4.06,0,0,1-2.15-3.23c0-.36.05-.71.08-1.07Z"/><path class="cls-1" d="M22.63,112.66a3.35,3.35,0,0,1,2.15,3.23L22.56,119l-4.25,3.29c-1.58-1.16-2.23-2.55-1.12-4.38l1.08-2.11Z"/><path class="cls-1" d="M17.19,117.87c.38,1.46.75,2.92,1.12,4.38l-.09,1c-1.95.53-2.77-.68-3.4-2.19.46-1,.93-2,1.39-2.93Z"/><path class="cls-1" d="M14.82,121l3.4,2.19-1,2.16c-2.13-.09-3.07-1.31-3.21-3.3Z"/><path class="cls-1" d="M7.56,162.78a6.79,6.79,0,0,0,2.26-5.46c1.94-1.24,1.44-3.91,3.13-5.3,2.42-.46,3.71.9,4.68,2.82a14.47,14.47,0,0,0,.11,6.89,2.09,2.09,0,0,1-1.34,1.59,11.86,11.86,0,0,0-6.65,2.53Z"/><path class="cls-1" d="M16.31,162.63l.91-.93c2.3-1,4,0,5.5,1.62.76,2.38-1.37,3.46-2.3,5.09-1.36,1.76.07,3.8-.58,5.63-.17.17-.33.35-.49.53-2.3-2.39-5.6-3.63-7.54-6.44C13.69,166.6,14.84,164.49,16.31,162.63Z"/><path class="cls-1" d="M45.1,176.54c-.37.7-.74,1.4-1.1,2.1-6.72-1.09-13.46-.35-20.19-.39-2.17,0-4.13-1.07-4.46-3.68l.12-.42A2.34,2.34,0,0,1,21,174a50,50,0,0,0,16,.45,5.88,5.88,0,0,1,1.45.18c1.94,1,4.09,1.1,6.2,1.39Z"/><path class="cls-1" d="M16.31,162.63c.21,3.22-.24,5.9-4.5,5.5l-2.06-2.28C10.8,162.5,13.11,161.68,16.31,162.63Z"/><path class="cls-1" d="M64.36,170.14c-6.42,2.14-11.68,7.75-19.27,6.4l0,0c-.32-2.76,1.82-3,3.65-3.32s3.82-.27,5.33-1.68c3.2-1.62,6.5-2.88,10.18-2.7A.8.8,0,0,1,64.36,170.14Z"/><path class="cls-1" d="M64.36,170.14l0-1.09c-1.43-3.35.63-4.68,3.32-5.55a10.25,10.25,0,0,1,6.63-.28l.68.43.24,3.23C70.47,164.26,67.35,167,64.36,170.14Z"/><path class="cls-9" d="M78.23,182.82c2.89-.74,2.59,1.81,3.37,3.23a.7.7,0,0,1-1.17,0Z"/><path class="cls-10" d="M80.43,186.09l1.17,0c1.07.38,3.08-1,3,1.59l-3.85.31C80.64,187.33,80.53,186.71,80.43,186.09Z"/><path class="cls-1" d="M17.21,155.25,13,152a2.2,2.2,0,0,0-1.08-2.12c-1.46-.7-1.54-1.85-1-3.18A17.31,17.31,0,0,1,8.68,136c3.57,5.37,7.22,10.69,10.67,16.14.73,1.15,2.29,2.39,1,4.16C18.85,157.34,17.91,156.64,17.21,155.25Z"/><path class="cls-1" d="M10.83,146.72c.34,1.06.69,2.12,1,3.18-2,.21-.64,8.62-5.36,2.17C8.86,151,6.61,146.29,10.83,146.72Z"/><path d="M82.3,177.73c-.69-1.93-3.43-.21-4-2.26l2.3-3.32,3.2,4.17C84.08,177.61,83.49,178,82.3,177.73Z"/><path class="cls-11" d="M84.61,188.83c1.82.33,3.8.36,4.72,2.42l-1.56,1.44C86.64,191.47,83.94,191.51,84.61,188.83Z"/><path class="cls-12" d="M96.14,195.55a6.6,6.6,0,0,1,3.57-2c1.73,2.72-1.35,2.19-2.17,3.19Z"/><path class="cls-1" d="M124.86,129.43c-3.31,2.32-2.93,5.87-3.38,8.67-.72,4.48-2.82,5.14-6.52,3.88.11-4.09,2.32-7.83,1.71-12-2.88,0-2.48,2.25-2.92,3.71-.65,2.19-1,4.48-1.44,6.73-.61,2.93-3,2.13-4.71,1.93-2.55-.29-1-2.11-.78-3.24.59-3.3,1.62-6.55,1.94-9.87.35-3.68,2.34-3.84,5.38-3.83,4.26,0,8.39,1.81,12.83.28,2.73-1,5.4-.25,4.41,4a81.66,81.66,0,0,0-1.66,9.83c-.34,3-2.25,3.26-4.54,2.95-3.5-.47-.91-2.59-1-3.93C124.14,135.62,126.36,132.9,124.86,129.43Z"/><path class="cls-1" d="M252.56,120.49c-1.34,6.32-2.83,12.5-3.9,18.75-.48,2.83-1.86,3.56-4.33,3.18-.85-.13-1.76-.81-2.49-.63-4.44,1.14-7.79,1.16-7.37-5,.52-7.65,3.27-11.21,9.5-10.84,2.22.13,2-1.22,2.08-2.07C246.29,119.11,249.28,119.82,252.56,120.49Z"/><path class="cls-1" d="M176.65,160.91c-3.41,3.11-3.27,6.38-3.66,9.14-.65,4.55-2.87,5.13-6.77,3.81,1-4.52,2.23-9,2.84-13.51.42-3.11,2.18-3.21,4.45-3,.68.07,1.32.56,2,.63,2.63.3,6.7-2.78,7.5,1.71.84,4.66-1,9.46-2.71,13.88-.63,1.63-3.19.74-5.12.49C175.09,170,177.46,166.07,176.65,160.91Z"/><path class="cls-1" d="M208.22,173.92c.26-4,2.39-7.8,1.63-12.54-3.72,2.58-3.14,6.46-3.83,9.53s-2,3.87-4.68,3.46c-3.93-.59-.74-2.93-1-4.41a8.91,8.91,0,0,1,.58-3.09c2.18-9.85,2.18-9.86,12-9.51,2.29.07,4.3,1.14,3.31,3.49-1.29,3-.8,6.17-1.46,9.23C214,174,212.43,175.31,208.22,173.92Z"/><path class="cls-1" d="M195.76,128.9c-.89,4.14-1.75,7.58-2.33,11.06-.47,2.82-2.4,2.65-4.37,2.44-2.91-.31-1.34-2.31-1.15-3.59.34-2.27,1-4.49,1.45-6.74.17-.83.38-1.88-.8-2.15s-1.59.74-1.79,1.54c-.7,2.73-1.4,5.48-1.83,8.27-.48,3.05-2.57,3-4.73,2.63-2.82-.5-1.1-2.53-.91-3.77.55-3.48,1.54-6.9,2.08-10.39.4-2.6,2-3.35,4.08-2.73a12.8,12.8,0,0,0,6.18,0C194.57,125,195.78,126.76,195.76,128.9Z"/><path class="cls-1" d="M171.85,131.34c-2.23-1.17-4.29,0-6.27-.9a7.56,7.56,0,0,1,9.78-4.85c4.16,1.3,3.4,4.31,2.57,7.34-.09.34-.08.71-.16,1-1.75,8.5-3.73,9.86-12.21,8.42-1.54-.26-2.68-1-2.88-2.66-.33-2.68.39-5.06,2.9-6.31A45.2,45.2,0,0,1,171.85,131.34Z"/><path class="cls-1" d="M230.45,168.18c-1.83,5.37-6.08,7.65-10.66,5.9-1.16-.44-2.36-1-2.67-2.38-.92-4,.19-7.69,2.26-11.06,1.76-2.86,4.73-3.5,7.9-3.29,3.43.23,5.05,2,4.93,5.52s-1.86,4.57-5.1,4.09a18,18,0,0,0-2.65,0c-1,0-1.78.32-1.8,1.44a2.48,2.48,0,0,0,.48,1.36,3.15,3.15,0,0,0,1.85-.61C226.63,167.38,228.49,168.13,230.45,168.18Z"/><path class="cls-1" d="M145.82,138.2c-1.2,1.52-2.24,3.31-4.29,3.74-3.3.69-6.86,1.61-9-2.14-1.88-3.36,1.26-11.61,4.86-13.47,5.86-3,9.88-.47,10.39,6.58l0,.74c-2.1,1.79-2.1,1.79-5.35,1.82C143.91,136,147,134.51,145.82,138.2Z"/><path class="cls-1" d="M151,168.62c.52-7.82,5-12.21,11.26-11.24,1.85.29,3.33,1,4.07,2.88,2.48,6.32-3.2,14.4-9.93,14.14C152.4,174.25,150.45,172.44,151,168.62Z"/><path class="cls-1" d="M229.07,129.8c-3.72-.12-6,2-8.39.41,2.12-4.32,6.25-6.1,10.33-4.44s2.48,4.82,1.94,7.68c-.3,1.56-.69,3.1-.89,4.68-.48,3.84-2.12,5.92-6,3.44-1.15-.74-1.51-.07-2.11.19-2.61,1.17-5.18,1.24-6.11-1.82s.65-5.49,3.52-6.89C223.48,132,226.13,132.26,229.07,129.8Z"/><path class="cls-1" d="M257.1,142.44c-5,0-6.72-2-5.85-6.93,1.28-7.2,3.9-10,9.39-10.11,4.68-.08,6.51,1.88,6,6.46C265.94,138.77,262.66,142.4,257.1,142.44Z"/><path class="cls-1" d="M147.82,132.91c2.29-4.38,4.92-8.26,10.84-7.52,1.87.24,3.57.64,4.21,2.63.37,1.17.71,2.82-.52,3.37-1.48.66-3.32,1.13-4.67-.8-1.22-1.73-2.32-.5-2.71.63-.74,2.07-2.56,4.37-1,6.42,1,1.34,2-.43,2.64-1.44a3.18,3.18,0,0,1,4.67-.78c1.51,1.22-.11,2.92-1,4.07-3,4.09-9,3.9-12.67-.26a6.71,6.71,0,0,1,.22-6.43Z"/><path class="cls-1" d="M205.49,128.55c.76-5.28,4.89-2.78,7.6-3,1.84-.16,4.74-1.38,5.59,1s-1.15,4.28-3,5.79-3.59,2.88-5.17,4.14c1.12,2.22,2.31,1.5,3.23,1.69,1.07.22,2.77-.51,2.56,1.61-.15,1.53-.75,2.72-2.64,2.65-3.72-.13-7.45-.23-11.17-.34a2.22,2.22,0,0,1-.62-1.39c.66-5.14,4.4-7.82,7.84-10.27C208.3,130.62,206.14,131.55,205.49,128.55Z"/><path class="cls-1" d="M192.84,154.67c-1.24,5.78-2.57,11.45-3.64,17.16-.51,2.73-2.25,2.71-4.28,2.55-2.88-.24-1.59-2.19-1.32-3.51,1.12-5.53,2.49-11,3.5-16.56.54-3,2.59-2.26,4.41-2.24C193.64,152.1,192.81,153.65,192.84,154.67Z"/><path class="cls-1" d="M202.52,141.54c0,.18,0,.37,0,.55-7.45.75-7.44.75-5.88-6.57.55-2.56.94-5.16,1.61-7.69.85-3.19,3.32-3.41,6.21-.65C206,132.26,202.06,136.61,202.52,141.54Z"/><path class="cls-1" d="M200.11,157.9c-1,4.48-2.15,8.93-2.77,13.45-.42,3-2.08,3.26-4.41,3-3.55-.35-1.22-2.67-1.09-3.89a79.08,79.08,0,0,1,1.76-8.82C194.63,157,194.65,157.05,200.11,157.9Z"/><path class="cls-1" d="M82.55,111.56c7.64,5.26,9,12.84,9.3,21.54.2,5.93-1.76,10.71-3.94,15.73l-.56-.54c-1.29-2.63,0-5.06.54-7.55.12-.5.27-1,.43-1.46.44-4.23.83-8.45-.28-12.64a9.1,9.1,0,0,1-.73-1.29,9.75,9.75,0,0,1-.66-3.5c0-1.55-.17-3-1.64-4a10.1,10.1,0,0,1-2.89-3,4.52,4.52,0,0,1-.4-1.39A2.34,2.34,0,0,1,82.55,111.56Z"/><path class="cls-1" d="M87.86,161.64c-.69-.91-2.76-.21-2.55-2.17-.79.21-1.14,1-1.79,1.38-3.17-.29-3.09-3.34-4.44-5.17C78,154.16,77.43,152.26,76,151l-2,0-.41-.59a2.77,2.77,0,0,1,.11-1.4,6.85,6.85,0,0,1,2.44-2.6,2.18,2.18,0,0,1,1.4.16c1.62,1.72,3.19,3.47,4.66,5.32,1.12,1.91,1.89,4.21,4.69,4.34,1.13,0,2.21.81,3.37.17,1.38.31,2.7-2.2,4.12-.09a2.45,2.45,0,0,1-1.23,2.39C90.82,158.74,89.42,160.33,87.86,161.64Z"/><path class="cls-1" d="M252.08,174.61c-.4-3-.32-6.5,1.76-7.26,2.88-1,7.08-1.2,9.56.23,2.75,1.59.78,4.68-1,7-2.07-1.75.53-3.59-.76-5.15-3.42-.18-1.31,4.59-4.31,4.85-1.67-1.45.82-3.38-.67-4.85C253.65,169.65,255.09,173.41,252.08,174.61Z"/><path class="cls-13" d="M93.23,158.11a1.66,1.66,0,0,1,1.09-1.82,2.85,2.85,0,0,0,3.29-.84l8.41,2c2.18,1.51,3.87,3.36,4.12,6.15a5.68,5.68,0,0,1-.62,1.43c-2.26.69-3.41-.75-4.5-2.31-1.59-3.11-4.45-3.16-7.38-3-1.09-.66-2.34-.45-3.51-.67A1,1,0,0,1,93.23,158.11Z"/><path class="cls-1" d="M242.89,169.05c1.61-1.46,3.32-2.73,5.67-2,2.09.66,2.63,2.29,2.09,4.2-.77,2.68-2.85,3.47-5.39,3a4.3,4.3,0,0,1-3.26-3.11A3.35,3.35,0,0,1,242.89,169.05Z"/><path class="cls-1" d="M241,171.21c-.5,3.24-2.82,3.71-5.18,2.66-1.85-.82-1.73-3.07-.85-4.64,1.24-2.2,3.07-3.4,5.53-1.31A16.27,16.27,0,0,0,242.2,169c.35.84-.11,1.26-.83,1.5-.34.12-1-.13-1-.09C239.87,171.19,241.07,170.72,241,171.21Z"/><path class="cls-1" d="M199.33,152.32c.09,0,1.9-1,1.8,1.06s-1.06,3.3-3.35,2.91c-1.05-.18-2.74.59-2.71-1.42S196.15,151.58,199.33,152.32Z"/><path class="cls-14" d="M147.91,132.8c-.08,2.14-.15,4.29-.22,6.43l-1.87-1c-.83-3.81-3.12-2.18-5-1.2-.76.39-1.34,1.26-2.27.82-.33-.15-.52-.92-.49-1.39.09-1.5,1.3-1.38,2.36-1.46C143,134.77,146.1,135.93,147.91,132.8Z"/><path class="cls-1" d="M203.61,120.28c.3.12,2.1-.91,1.81,1.38s-1.47,3-3.58,2.68c-1.08-.16-2.68.47-2.49-1.64C199.55,120.42,200.89,119.75,203.61,120.28Z"/><path class="cls-1" d="M82.55,111.56l0,2.07c-2.06.87-3.17-.8-4.58-1.68a5.45,5.45,0,0,1-1.45-3.41,2,2,0,0,1,.71-1.27C79.31,108.34,81.51,109.24,82.55,111.56Z"/><path class="cls-14" d="M241,171.21c-.82.23-1.65.4-2.44.7-1.18.44-1.61-.12-1.72-1.16s.45-1.43,1.48-1.68c1.34-.34,2.66,2.54,3.9,0l.69,0c-.3.7-.59,1.41-.89,2.12Z"/><path class="cls-1" d="M77.25,107.27l-.07,1.12a2.32,2.32,0,0,1-2.22,1c-2-.09-3.36-.67-2-3l3.3,0Z"/><path class="cls-1" d="M230.82,174.45a2.53,2.53,0,0,1-.42-.93c-.1-.87.52-1.27,1.27-1.2.4,0,1,.47,1.07.79C232.84,173.92,232.2,174.27,230.82,174.45Z"/><path class="cls-15" d="M115.81,173.17l-.06,5.47c-3.53-.56-1.75-3.83-2.92-5.59-.52-1.94-1.74-3.65-2-5.68a2.28,2.28,0,0,1,.51-1.39C114.94,167.07,115.26,170.19,115.81,173.17Z"/><path class="cls-16" d="M109.43,163.56,106,157.4c3.76,1.13,6.12,3.1,4.59,7.45C109.78,164.81,109.71,164.09,109.43,163.56Z"/><path class="cls-17" d="M109.43,163.56l1.18,1.29c.24.38.48.75.71,1.13a3.85,3.85,0,0,1,0,1,1.68,1.68,0,0,1-2.22.09,1.76,1.76,0,0,1,.2-2.23Z"/><path class="cls-18" d="M113.9,172.12c1.78,1.84-.27,4.77,1.85,6.52-.79,3.21,2.47,6.72-.75,9.75a1.73,1.73,0,0,1-1.15-.67,5.58,5.58,0,0,1-1-3.26,9.25,9.25,0,0,0-.65-3.89c-.43-.78-1.52-1.35-.86-2.5a11.29,11.29,0,0,1,1.19-6.12A1.24,1.24,0,0,1,113.9,172.12Z"/><path class="cls-19" d="M107.2,190.26c.76-.58,1.17-2,2.58-1,1.51-.49,2.67-2.42,4.62-1.14.19.1.39.19.6.28l-4.4,4-3.31.21Z"/><path class="cls-1" d="M48.29,151c-.75-3.49-3.88-5.48-5.36-8.51.61-2.29,3-2.46,4.46-3.82.65-.6,1.22-1.28,1.84-1.9,1.44-1,2.57-2.55,4.48-2.84,3.94,1,5.79,4.12,7.42,7.44-.11,2.6.21,5.18.29,7.78-1.9,2.5-4.1,4.5-7.51,4.52C52.25,152.34,50.16,151.9,48.29,151Z"/><path class="cls-1" d="M66.54,129.7c.34,0,.68,0,1,0,3.08-.41,3.46,2,4.24,4-.05,3.34-2,5.93-3.4,8.76a6.12,6.12,0,0,1-3,2.5c-2.28-.11-3.11-1.53-3.28-3.56C64,137.62,66.28,134,66.54,129.7Z"/><path class="cls-1" d="M62.16,141.36l3.25,3.19c1.7,2.53-1,5.25.34,7.8-.52,1.78-1.86,2.34-3.56,2.39-3.43-1.42-1.25-3.89-1.12-6-1.51-2.47-2.62-4.95.06-7.39Z"/><path class="cls-1" d="M40.77,121.06c.57-.68-3.5-1.4,0-2.06,7-2.32,11.46,0,13.92,7.47-1.24.81.44,3.39-2.09,3.41-1.41-1.11-1.09-2.84-1.6-4.27-1-2.82-2.84-4.28-6-3.58A6.55,6.55,0,0,1,42,122,2.64,2.64,0,0,1,40.77,121.06Z"/><path class="cls-1" d="M53.71,133.93c-1,1.61-2.13,3-4.28,3.12l-.46-.48a2.29,2.29,0,0,1,.78-2.4c1-.88,1.75-2.11,3.36-1.73.18.13.35.27.52.41Z"/><path class="cls-1" d="M52.58,129.68l2.12-3.21c-.33,2.13.91,4.53-1.07,6.38h0C52.47,132.07,51.41,131.24,52.58,129.68Z"/><path class="cls-1" d="M52.58,129.68l1.06,3.18c-1.71-.25-2.1,1.47-3.22,2.11a3.09,3.09,0,0,1-1-2,8.32,8.32,0,0,1,.14-2.23c.45-2.24-.45-2.79-2.59-2.28-2.82.67-5,2.42-7.23,4.05-1.46.77-2.55,2.18-4.29,2.46-2-.62.45,5.47-3.27,2.1-1.7-6.15,1-10.58,8.76-14.59,1.3-.69,3.26.54,4.17-1.39C50.59,119.85,52.51,122.05,52.58,129.68Z"/><path class="cls-1" d="M17.21,155.25l3.16,1.08c2.24,1.73,4.85,2.11,7.57,2.09a3.58,3.58,0,0,1,3.8,1.34,4,4,0,0,1-.26,4.11c-1.42,1.24-3.17,1.19-4.91,1.22a8.92,8.92,0,0,1-2.52-.35,3.55,3.55,0,0,1-1.39-.93l-5.44-2.11C14.7,159.55,15.44,157.4,17.21,155.25Z"/><path class="cls-1" d="M48.29,151c2.26-.66,4.51-1.3,5.25,2-.51,2.67-2.83,3.3-4.86,4.25l-3.52,1.21a21.82,21.82,0,0,1-4.43,1.13,10.06,10.06,0,0,1-2.39,0c-2-.43-3.79-1.32-4.08-3.56-.18-1.44,1.56-1.1,2.26-1.79C40.64,153.84,44.67,153.18,48.29,151Z"/><path class="cls-1" d="M50.49,130.77l-.1,2a42.65,42.65,0,0,1-2.86,3.95c-1.58,1.57-3.66,2-5.73,2.47l-4.19,0C37,133.54,44,127.26,49.23,128.84A1.55,1.55,0,0,1,50.49,130.77Z"/><path class="cls-1" d="M41.83,123.25c-5.74,2.87-9.66,7-9.67,13.83-4.08-3.24-1.8-6.91-.73-10.51a1.3,1.3,0,0,1,.88-1c2.58-1.93,5.19-3.81,8.46-4.46a2.77,2.77,0,0,0,1,.15A1.26,1.26,0,0,1,41.83,123.25Z"/><path class="cls-1" d="M36.52,154.2c-3.14,3.33-.09,3.58,2.13,4.23.12,2.42-1.36,4-2.86,5.61a3.37,3.37,0,0,1-1.42.37,2.88,2.88,0,0,1-1.34-.52c-1.19-1.23-.35-3.32-1.89-4.41-1.17,0-2.43.17-3.2-1.06-1.45-3.45-.18-4.68,3.39-4.3A49.85,49.85,0,0,0,36.52,154.2Z"/><path class="cls-1" d="M50.49,130.77c-5.71-2.14-10.35.89-12.88,8.41l-1.09,0c-1.77-3.18.59-5.19,2.12-7.44,2.64-2.08,5.25-4.24,8.71-4.83C50.57,126.4,52.37,127.11,50.49,130.77Z"/><path class="cls-1" d="M48.3,139.24c-1.37,1.77-3.62,2.1-5.37,3.25l-3.32-.14c.52-1.84,2-1.77,3.25-2.14C44.5,139,45.83,135.89,48.3,139.24Z"/><path class="cls-1" d="M48.3,139.24c-2.23-2-3.59.86-5.44,1l-1.06-1,5.43-3.13a3.08,3.08,0,0,1,2.19,1h0A2.47,2.47,0,0,1,48.3,139.24Z"/><path class="cls-1" d="M28.94,136.09l3.32,4.18c.24,1,0,1.5-1.13,1.13-1.69-1-3.1-2.11-3.26-4.23C27.45,136.05,28,135.86,28.94,136.09Z"/><path class="cls-1" d="M38.64,131.79c-.29,2.6-3.06,4.5-2.12,7.44-1.63-1.09-.93-2.78-1.09-4.25A6.68,6.68,0,0,1,38.64,131.79Z"/><path class="cls-1" d="M31.13,141.4l1.13-1.13c1,.2,2.76.48,2.24,1.46C33.74,143.16,32.19,142.52,31.13,141.4Z"/><path class="cls-1" d="M32.31,125.52l-.89,1c-1.05.14-2.48,1-2.4-1.16C30.13,125,31.27,123.75,32.31,125.52Z"/><path class="cls-1" d="M28.94,136.09l-1.07,1.08c-1.24-1-1.09-2.16-.58-4.25Z"/><path class="cls-1" d="M78.47,111.48l4.1,2.15c.11.38.21.77.31,1.15l-.46.51c-1.47.7-3,1.36-4.64,1l-.54-.43a2.33,2.33,0,0,0-1.13-2.16c0-.33,0-.66,0-1A2.34,2.34,0,0,1,78.47,111.48Z"/><path class="cls-1" d="M78.47,111.48l-2.31,1.21c-1.66-.66-1.89-1.83-1.2-3.33a2.17,2.17,0,0,1,2.22-1Z"/><path class="cls-1" d="M70.78,133.93c-.1-2.16-1.5-3.33-3.23-4.27,0-2.13,0-4.25,0-6.38,3.41.19,3,3.44,4.27,5.32l0,3.22a1.63,1.63,0,0,1,.24,2.08A1,1,0,0,1,70.78,133.93Z"/><path class="cls-1" d="M71.84,128.6l-4.27-5.32c-.08-1.89,1-1.62,2.13-1.07C71.13,124.1,72.3,126.08,71.84,128.6Z"/><path class="cls-1" d="M71.84,133.92l0-2.1,1-1.09c.87-2.64,1.27-5.4,2.35-8,.6-1.43.89-3.17,3.11-2.82a4,4,0,0,1,.71,3.95,13.79,13.79,0,0,1-1,2.3c-1.35,2.71-2,5.66-3,8.5-.56,1.63-.79,4-3.63,3.27A4.28,4.28,0,0,1,71.84,133.92Z"/><path class="cls-1" d="M78.19,120.14c-3.74,2.55-2.43,7.59-5.28,10.59a27.22,27.22,0,0,1,4.33-14.89l.12.18A5.69,5.69,0,0,1,78.79,118a3.15,3.15,0,0,1,.11,1.22A1.68,1.68,0,0,1,78.19,120.14Z"/><path class="cls-1" d="M22.66,163.81a3,3,0,0,1,.84.05A5.27,5.27,0,0,1,25.85,169a3.91,3.91,0,0,1-3.18,3.6c-2.68-.53-3.53-2.36-3.46-4.84Z"/><path class="cls-1" d="M19.21,167.79l3.15,4.42c.75,2-.73,1.91-1.94,2.08a3.41,3.41,0,0,1-1-.14C19.33,172,16.89,170,19.21,167.79Z"/><path class="cls-1" d="M20.42,174.29c.65-.69,1.3-1.38,1.94-2.08.84-1,2.61-1.32,2.55-3.09,1.4-.36,2,.83,2.92,1.47,1.16,1.36,2.45,2.07,4.11.76a7,7,0,0,1,3.47-1.19,4.78,4.78,0,0,1,2.23.49,3.12,3.12,0,0,1,1.57,3.28c-.25.82-1.06,1-1.63,1.51-4.85,2.3-10-.39-14.94.85C21.69,176.53,20.87,175.3,20.42,174.29Z"/><path class="cls-1" d="M54.71,172.27c-1,2.16-2.86,2.2-4.82,2.12s-3.85,0-4.84,2.1c-2.31.65-4.65,1.42-6.48-1,1.77-1.85,4.85-1.45,6.37-3.71A4.43,4.43,0,0,1,46,171c1.41-.31,2.39,1,3.73,1,1.82.31,3.29-1.57,5.17-.83A.79.79,0,0,1,54.71,172.27Z"/><path class="cls-1" d="M46.13,172.25c-1.71,2.95-4.57,3.25-7.56,3.24l-1-.05,1.14-1.08a7.53,7.53,0,0,1,2.37-1.86C42.75,172,44.38,170.88,46.13,172.25Z"/><path class="cls-1" d="M54.71,172.27v-1.08c-.44-2.45,1.44-2.8,3.07-3.23s3.5-.35,4.29-2.3c1.2-2.56,3.77-3.65,5.77-5.36a5.41,5.41,0,0,1,1.8-1.18,4.35,4.35,0,0,1,2.72.66,6.73,6.73,0,0,1,2.78,2c0,.63,0,1.26-.07,1.89-2.21,1.18-4.67.15-7.06.94s-3.29,2.27-3.66,4.45Z"/><path class="cls-20" d="M113.9,172.12l-1.62.31a1.3,1.3,0,0,1-1.87-.17c-1.06-1.28-2.55-2.36-2-4.36a1.6,1.6,0,0,1,.87-1h2.07Z"/><path class="cls-21" d="M109.25,166.93c-.3.32-.59.65-.88,1-2.87-.63-3.53-2.66-3.35-5.23l4.28,2.13C109.28,165.51,109.27,166.22,109.25,166.93Z"/><path class="cls-22" d="M112.22,180.57c3.26.56,2.33,2.49,1.45,4.4a1.5,1.5,0,0,1-2.25.05C109.49,183.15,110.54,181.8,112.22,180.57Z"/><path class="cls-23" d="M110.41,172.26l1.87.17c1.81,2.22-.39,3.8-.92,5.64C108.3,176.58,110.36,174.26,110.41,172.26Z"/><path class="cls-24" d="M111.42,185l2.25-.05c.24,1.05.49,2.09.73,3.14l-4.62,1.14C109.77,187.62,111.79,186.79,111.42,185Z"/><path class="cls-25" d="M82.3,177.73l1.45-1.41c1.09.92,2.15,2.26.71,3.23S82.66,178.82,82.3,177.73Z"/><path class="cls-14" d="M244.4,132.44c-.81,2.13-.41,4.91-2.85,5.48-1.65.39-1.57-1.59-1.21-2.72.63-1.9.23-4.73,2.69-5.27C245,129.5,243.8,131.72,244.4,132.44Z"/><path class="cls-14" d="M171.77,136c-.22,1.07-.64,2-1.87,2.14-.71.08-1.45-.12-1.44-1a2.12,2.12,0,0,1,1.93-2C171,134.93,171.78,135,171.77,136Z"/><path class="cls-14" d="M226.4,161.84c-.07-.14.29.27.35.72.13,1-.74,1.14-1.39,1.15s-1.61.16-1.29-1C224.28,162,224.87,161.58,226.4,161.84Z"/><path class="cls-14" d="M142.4,130.14c-.5,1.56-1.19,1.65-1.9,1.64-.86,0-1.42-.49-.92-1.24a2.66,2.66,0,0,1,1.78-.72A1.94,1.94,0,0,1,142.4,130.14Z"/><path class="cls-14" d="M160,161.2c.49.92.78,1.23.79,1.53,0,2.69-.31,5.29-2.58,7.14a1.6,1.6,0,0,1-1.28-.39A8.4,8.4,0,0,1,160,161.2Z"/><path class="cls-14" d="M226.9,136a2.32,2.32,0,0,1-1.85,2.09,1,1,0,0,1-1.21-1.14,2,2,0,0,1,1.59-1.76C226.05,135,226.76,135,226.9,136Z"/><path class="cls-14" d="M256.87,135.36c.64-2.22.47-4.79,2.88-5.52,1.28-.39,1.63,1.19,1.24,2.24-.75,2-.23,5.12-2.87,5.77C256.24,138.32,257.24,136.14,256.87,135.36Z"/><path class="cls-1" d="M87.9,148.82c-2.79,1.29-3.5,3.61-3.22,6.42-3.44-1.73-3.72-4.07-1.36-6.93,2.71-1.57,2.06-4.75,3.35-7a4.22,4.22,0,0,1,.94-1.12,1.38,1.38,0,0,1,1.37.13C88.91,143.19,87.37,145.88,87.9,148.82Z"/><path class="cls-1" d="M82.88,114.78l2.88,2.11c1.15,1.2,1.33,2.88,2.14,4.26l0,4.23-.33.66a1.52,1.52,0,0,1-2,.3,4.69,4.69,0,0,1-1.08-2.63,15.8,15.8,0,0,0-1.32-4.56c-.23-.39-.43-.8-.64-1.2-.49-1-1.06-2.09-.08-3.17Z"/><path class="cls-1" d="M89,140.32l-1.09,0c-2.46-5-2.06-9.91,0-14.86l.05-.06,1,0a43.66,43.66,0,0,1,0,14.91Z"/><path class="cls-1" d="M89,140.31q0-7.45,0-14.91A22.07,22.07,0,0,1,89,140.31Z"/><path class="cls-1" d="M87.9,121.15a5.92,5.92,0,0,1-2.14-4.26C87.71,117.69,88,119.32,87.9,121.15Z"/><path class="cls-1" d="M87.88,125.44q0,7.42,0,14.86h0c-2.49,2.31-.76,6.2-3.23,8.52-3.56,2.14-1.84,4.28,0,6.42l2.19,2c-3.94.5-4.64-2.37-5.41-5.16-2.55-3.71,1.43-6.8,1-10.31.71-2.79,2.34-5.37,1.95-8.42,0-.53,0-1.06,0-1.6.09-1.6,0-3.25.9-4.7l.65-.49Z"/><path class="cls-1" d="M83.61,141.37c1.15,3.93-2.82,6.84-2.15,10.67-1.94-1.4-3.94-2.76-4.31-5.39-.27-.87.24-1.37.87-1.82,2.29-.53,2.56-2.56,3.24-4.3C82.41,139.79,83.08,140.39,83.61,141.37Z"/><path class="cls-1" d="M76.13,146.69c.25,1.75-1.59,2.17-2.17,3.4a7.74,7.74,0,0,1-6.11-.74c-1.3-1.48.17-2.35.74-3.42,1.19-1.43,2.32-2.93,4.42-3.05C75,143.39,76.57,144.23,76.13,146.69Z"/><path class="cls-1" d="M76.13,146.69,73,143.46A1.29,1.29,0,0,1,72.6,142a4.17,4.17,0,0,1,3.68-2.87,6.15,6.15,0,0,1,3.86.66c.57,2.31-1.91,3.61-1.92,5.73l-1.07,1.12-.51,0Z"/><path class="cls-1" d="M67.64,149.11c2.31-1,4.23.57,6.32,1-.17.4-.33.81-.5,1.21A4.5,4.5,0,0,0,70,153c-.28.9-.4,1.87-1.28,2.46-2,.08-2.13-1.46-2.45-2.83a2.83,2.83,0,0,1,.3-2.64A2.46,2.46,0,0,1,67.64,149.11Z"/><path class="cls-14" d="M246.55,172.14a1.13,1.13,0,0,1-1.23-1.26,1.7,1.7,0,0,1,1.58-1.69c1-.13,1.7.39,1.47,1.45A1.84,1.84,0,0,1,246.55,172.14Z"/><path class="cls-1" d="M48.33,156.38,53.54,153c3.19-.22,5-2.89,7.53-4.23,2.31,1.37-1.55,4.13,1.23,5.4a1.46,1.46,0,0,1-.11,1.3A29.71,29.71,0,0,1,58,159.05a19.13,19.13,0,0,1-3.8,1.64c-1.35.42-2.58,1.12-3.91,1.62a5.22,5.22,0,0,1-1.48.18,2.51,2.51,0,0,1-2-1.06A5.34,5.34,0,0,1,48.33,156.38Z"/><path class="cls-1" d="M67.64,149.11a1.43,1.43,0,0,1-.29.72c-1.93.92-2.75.11-2.18-1.72s1-4,2.36-5.69q1.62-4.24,3.25-8.49h1.06v4.26c.61.95.18,1.85-.1,2.77-.28,2-2.39,3.43-2.06,5.7Z"/><path class="cls-1" d="M67.53,142.42c.51,2.49-3.69,4.86-.18,7.41L66.57,152a.77.77,0,0,1-1.14.05c-1.61-.15-2.12-.85-1.5-2.46s1-3.34,1.48-5Z"/><path class="cls-1" d="M65.43,152l1.14-.05,1.92,3.48a1.53,1.53,0,0,1,.36,2,3,3,0,0,1-2.1.73,5.62,5.62,0,0,1-4.4-2.54c0-.25,0-.5,0-.75a3.86,3.86,0,0,1,0-.76Z"/><path class="cls-1" d="M41.83,123.25c0-.68,0-1.36-.07-2l3.33-.11c.62.24,2.1.17.61,1.29A5.17,5.17,0,0,1,41.83,123.25Z"/><path class="cls-1" d="M49.42,137.05a2.09,2.09,0,0,1-2.19-1l3.16-3.29,0,2.19A2.14,2.14,0,0,0,49.42,137.05Z"/><path class="cls-1" d="M27,171.17c-.69-.69-1.39-1.37-2.09-2-.46-1.75-.93-3.51-1.4-5.26h2.28c1.62.9,3.42.15,5.1.54,1.47,1.94-.42,3.12-1,4.59A5.75,5.75,0,0,1,27,171.17Z"/><path class="cls-1" d="M31.14,159.48c2.88.33,2,2.56,2.13,4.23a1.47,1.47,0,0,1-2.13,0Z"/><path class="cls-1" d="M31.14,163.72h2.13l1.11,0c.29.95-.27,1.39-1,1.71a2.28,2.28,0,0,1-2.12-.61c-1.82-.31-3.87.62-5.44-1Z"/><path class="cls-1" d="M48.33,156.38a9.25,9.25,0,0,1-1.14,5.28c.22,2.37-1.74,2.76-3.26,3.56a3.63,3.63,0,0,1-3.35-1.42,11.21,11.21,0,0,1,4.48-6.35Z"/><path class="cls-1" d="M45.06,157.45c-1,2.36-1.76,4.89-4.29,6.21l-.68.34a1.86,1.86,0,0,1-1.1-1,3.49,3.49,0,0,1,1.81-4.55Z"/><path class="cls-1" d="M40.8,158.46a9.3,9.3,0,0,0-1.19,5.16,2.78,2.78,0,0,1-4.2.09c.92-1.86,1.37-4,3.24-5.28Z"/><path class="cls-1" d="M35.41,163.71l4.2-.09.18.19a3.55,3.55,0,0,1,.7,1.14,4.07,4.07,0,0,1-.14,2,19.18,19.18,0,0,1-1.11,2.39,3.7,3.7,0,0,1-1.78,1.86l-2.14,0c-2.21-1.53-3.22-3.5-2.29-6.18l1.35-1.22Z"/><path class="cls-1" d="M82.48,114.78l1,3.25c-1.75,1.54-3.53.29-5.3,0L77.36,116C79.13,115.85,80.52,114.18,82.48,114.78Z"/><path class="cls-1" d="M70.77,140.31c.36-.71.72-1.42,1.07-2.13,3.41-3.59,2.27-9.06,5.36-12.78,1.26,1,1.31,2.56,1.61,4a13.36,13.36,0,0,1-.38,3.56,10.92,10.92,0,0,1-.53,2c-.92,1.58-1,3.47-1.89,5.08-1.77-.09-1.83,1.76-2.86,2.5C71,143.23,71.43,141.2,70.77,140.31Z"/><path class="cls-1" d="M78.19,120.14a7.92,7.92,0,0,0,0-1c.86-.73,1.28,0,1.75.52a9.61,9.61,0,0,1,.87,3.58,1.65,1.65,0,0,1-2.06,1.54l-.64-.36C78.16,123,78.17,121.57,78.19,120.14Z"/><path class="cls-1" d="M78.18,129.63c-1.48-1.14-.83-2.78-1-4.23l.94-1,.31-.06a4.46,4.46,0,0,1,.93,2.28A3.28,3.28,0,0,1,78.18,129.63Z"/><path class="cls-1" d="M79.36,120l-1.14-.83c0-.37,0-.73-.08-1.09,1.75-2.18,3.54.55,5.3,0l.26-.11C83.43,121.05,81.83,121.43,79.36,120Z"/><path class="cls-1" d="M33,165q1.15,3.09,2.29,6.18l-3.16,1.08c-3.15.89-4-.44-3.24-3.32l2.3-4.06Z"/><path class="cls-1" d="M28.92,168.91c.18,2,1.09,3.25,3.24,3.32-2.5,3.39-3.78.88-5.17-1.06C27.63,170.41,28.28,169.66,28.92,168.91Z"/><path class="cls-1" d="M37.46,171.19,38.6,169c1.39.8,1.88,2.18,2.32,3.59l0,.73a2.09,2.09,0,0,1-2.23,1.06Z"/><path class="cls-1" d="M63.27,165.86c-.15,2.37-1.59,3.24-3.79,3.19-1.94,0-3.83,0-4.78,2.14-1.68,1-3.11,2.58-5.37,2.11-.41-.71,0-1.27.36-1.83a16.07,16.07,0,0,0,2.18-4.19,3.14,3.14,0,0,1,1-1,8.41,8.41,0,0,1,3.68-.59,8,8,0,0,1,2.19.29C60.32,168.05,61.75,164.84,63.27,165.86Z"/><path class="cls-1" d="M46.13,172.25,41,173.3l-.38,0c-.14-1.85,1-2.91,2.44-3.7a3.27,3.27,0,0,1,3.08.22,1.12,1.12,0,0,1,.06,1.42C46.14,171.56,46.14,171.9,46.13,172.25Z"/><path class="cls-1" d="M46.15,171.22c0-.33,0-.65,0-1a2.43,2.43,0,0,1,.84-1,2.85,2.85,0,0,1,1.94-.5c1.48.67,1.8,1.91,1.66,3.38l-1.25,1.18C47.68,173.5,47.25,171.85,46.15,171.22Z"/><path class="cls-1" d="M66.42,157.56l2.07-.45a2.13,2.13,0,0,1,1.14,2.32l-1,1.23c-2.28,1.15-5,1.46-6.7,3.75a2.28,2.28,0,0,1-3.29.44c-1.22-2.08-1.73-4.23-.63-6.52a6.26,6.26,0,0,1,4.29-3.41l-.11.31C63.31,156.54,64,158.57,66.42,157.56Z"/><path class="cls-1" d="M59.17,164.74c3-1.67,5.06-5.59,9.47-4.08-.63,2.92-4.78,2.24-5.37,5.2-1.39.67-2.52,2.4-4.39,1-.75-.59-1.68-1.12-1-2.32A1,1,0,0,1,59.17,164.74Z"/><path class="cls-1" d="M68.9,159.91l-2.67-2.66c-.14-.72-.26-1.44-.39-2.16a3.68,3.68,0,0,1,2.22-3.78c2.54-.07,2.22,1.32,2.27,2.52q1.52,3.34,3,6.7Z"/><path class="cls-1" d="M84.67,148.82c1.53-2.67-.15-6.54,3.23-8.52C86.41,143,88.11,146.86,84.67,148.82Z"/><path class="cls-1" d="M79.36,120c1.82.08,3.52-.09,4.34-2.08a8.9,8.9,0,0,1,1.85,5.55,13.43,13.43,0,0,1-3.84.47,2,2,0,0,1-1.15-.58C79.18,122.59,79.36,121.27,79.36,120Z"/><path class="cls-1" d="M81.54,123.44c1.35-1.09,2.69-1.47,4,0,.12,1,.25,2,.37,3l-.19-.08a1.17,1.17,0,0,1-1.23.39C83.23,126,81.37,125.57,81.54,123.44Z"/><path class="cls-1" d="M78.18,129.63l.22-3.29c2.47-.44,4.44.74,6.4,1.94.81,1-.08,2.54,1,3.51a9.55,9.55,0,0,1,0,1.07,1.89,1.89,0,0,1-1.29.56c-2.32-1.15-4.75,0-7.1-.37Z"/><path class="cls-1" d="M84.51,132.9l1.25,0c.46,3.13-.57,5.89-2.15,8.51l-2.06-1.07c-.17-.18-.34-.35-.52-.52a2.56,2.56,0,0,1,.17-2.13C82.41,136.14,83.15,134.31,84.51,132.9Z"/><path class="cls-1" d="M85.76,131.79c-1.28-.81-1-2.15-1.14-3.36a1.21,1.21,0,0,1,.13-1.86,3,3,0,0,0,1-.13C85.75,128.23,85.76,130,85.76,131.79Z"/><path class="cls-1" d="M78.22,145.53c-1.46-2.58-1.39-4.53,2.13-5.06a.78.78,0,0,1,1.16-.27l0,.1C81.8,142.9,82.37,145.71,78.22,145.53Z"/><path class="cls-1" d="M70.77,140.31l2.38,2.26a6.79,6.79,0,0,0-.12.89,6.75,6.75,0,0,0-3.35,3.19C68.1,144.21,70.26,142.4,70.77,140.31Z"/><path class="cls-1" d="M81.51,140.2l-1.16.27-4.33-.4c-1.34-2.06-.45-3.64,1.1-5.08,2.79-.52,3.75,1.22,4.34,3.44Z"/><path class="cls-1" d="M48.19,169.38l-.78.77c-2-1.18-4.23-2.24-3.46-5.24.43-1.72,2.38-1.95,3.24-3.25l2.18,0c1.53,1.82,1.53,3.83.75,5.94C49.77,168.46,48.74,168.67,48.19,169.38Z"/><path class="cls-1" d="M56.88,166.8l-4.15.37c-2.14-1.3-2.6-3.3-2.32-5.6,1.07-.69,2.13-1.39,3.19-2.09.68.52,1.47,1,1.63,1.91a6.65,6.65,0,0,0,1.17,2.92A2.76,2.76,0,0,1,56.88,166.8Z"/><path class="cls-1" d="M54.82,161.53l-1.22-2.05L58,158.33c1.16,2,.85,4.26,1.15,6.41l-1.12,0a2.69,2.69,0,0,1-1.85-.88A6.55,6.55,0,0,1,54.82,161.53Z"/><path class="cls-1" d="M50.41,161.57q1.17,2.81,2.32,5.6a3.22,3.22,0,0,1-.23.82c-1.18,2-2.32,1.49-3.43-.06l.3-6.32C49.72,161.58,50.06,161.57,50.41,161.57Z"/><path class="cls-1" d="M66.42,157.56c-.13.92-.42,1.95-1.53,1.73-2.17-.41-2.35-2.33-2.69-4.06Z"/><path class="cls-1" d="M44,164.91l3.46,5.24-1.27.09-3-.07-.66-.29c-1.59-1.3-1.53-3.46-2.64-5l0-1.07a8,8,0,0,0,1-.15Z"/><path class="cls-1" d="M43.12,170.17l-2.55,3.11a7.12,7.12,0,0,1-2-4.3l.95-2.34c1.51.76,2,2.49,3.25,3.48Z"/><path class="cls-1" d="M42.8,170.12c-2.22-.11-3-1.55-3.25-3.48l.27-1.76A5.91,5.91,0,0,1,42.8,170.12Z"/><path class="cls-1" d="M81.46,138.43,77.12,135c.08-.65.16-1.29.25-1.94,2.35-1.12,4.68-3.63,7.14-.15C85.2,135.68,83.2,137,81.46,138.43Z"/><path class="cls-1" d="M84.75,126.57c0,.62-.09,1.24-.13,1.86-2.46.43-4.29-1-6.22-2.09,0-.65,0-1.3,0-2l2.11-1c.33,0,.66,0,1,.08C82.48,124.62,84.3,124.9,84.75,126.57Z"/><path class="cls-1" d="M49.07,167.93c1.13.52,2.27.88,3.43.06a6,6,0,0,1-1.92,4.13c-.85-.87-.94-2.4-2.39-2.75Z"/><path class="cls-1" d="M57.05,163.6l1,1.19c.28.7.56,1.4.83,2.1l-2-.09-1.11-2C55.49,163.66,56,163.34,57.05,163.6Z"/><path class="cls-1" d="M57.05,163.6l-1.28,1.2c-.94-.91-2.21-1.73-1-3.27Z"/><ellipse class="cls-14" cx="45" cy="138" rx="13" ry="9" transform="translate(-73.1 53.61) rotate(-36.39)"/><path class="cls-1" d="M84.89,195.43c2.15,1.2,3.92,2.93,6,4.22a10.15,10.15,0,0,0,7.25,1.53,26.55,26.55,0,0,0,7.42-2.89c2.56-1.31,5.1-2.66,7.65-4,1.71-.9.2-3.49-1.51-2.59l-6.83,3.58a30.31,30.31,0,0,1-6.64,2.81c-4.89,1.23-8-3.12-11.84-5.25-1.69-.93-3.21,1.66-1.51,2.59Z"/><path class="cls-26" d="M76.45,182.06s-5.36-3.14,0-7.4a10.39,10.39,0,0,1,4.08-1.58,4,4,0,0,1,.85,0c2.23.24-12.2-16.66-10.4-19.8s5.38-2.1,5.38-2.1L87.94,170.4s-5.13-7.92-2.25-10,6.5,6,6.5,6-4.56-7-2.28-9a4,4,0,0,1,4.81-.29l3,6.27s-1.91-6.08-.1-8,6.31-1,6.31-1,2.06.2,5.09,4.45"/><path class="cls-1" d="M70.89,152.66a57.32,57.32,0,0,0,11.57,18.1l2.13-2.12a67.38,67.38,0,0,1-12.22-17.38l-1.69,2.2c6.73,2.77,10.57,9.49,12.7,16.11l2.89-.8A86.17,86.17,0,0,0,75.35,146.6a1.51,1.51,0,0,0-2.8.75,18.42,18.42,0,0,0,1.5,6.36,64.42,64.42,0,0,0,2.73,6.2,63.59,63.59,0,0,0,7.27,11.18c1.06,1.32,3.31-.41,2.36-1.82-3.85-5.67-7.69-11.39-10.4-17.72l-2.59,1.52a137.36,137.36,0,0,0,13.2,18.24c1.2,1.4,3-.38,2.36-1.81a72.22,72.22,0,0,0-5.55-10.14l-2.36,1.82a61.38,61.38,0,0,0,8.55,9.38,1.5,1.5,0,0,0,2.12-2.12L85,160.36l-1.82,2.36,7.6,5.34,1.52-2.59a94,94,0,0,1-10.35-7.72l-1.46,2.51a72.68,72.68,0,0,1,10.42,5l1.52-2.59A74,74,0,0,1,83,157.49l-1.51,2.59A62.47,62.47,0,0,1,93.1,167l.36-2.75a34.45,34.45,0,0,1-8.62,2,1.5,1.5,0,0,0,0,3c1.41,0,3.08-.3,3.58-1.82a2.43,2.43,0,0,0-1.58-3.08c-3.45-.76-3.64,5.22-3.21,7.25l2.51-1.46a15.77,15.77,0,0,0-4.78-3.89,1.52,1.52,0,0,0-2.26,1.29c-.2,2.43,1.73,4.21,1.78,6.52l2.56-1.06a2.9,2.9,0,0,1-.87-1.77c-.09-1-1.25-2.05-2.25-1.29-2.17,1.64-5.08,1.57-7.47,2.76A5.83,5.83,0,0,0,70,180.51a20.1,20.1,0,0,0,3.53,4.34c1.32,1.41,2.67,2.79,4.08,4.12a28.88,28.88,0,0,0,4.27,3.78c1.23.78,3.13.27,3.09-1.4,0-1.93-3-1.94-3,0v.17l.74-1.3.63-.12-.52-.45-.7-.61-1.55-1.4c-1-.95-2-1.91-3-2.9s-1.93-2-2.86-3-2.16-2-2.29-3.44c-.22-2.25,2-3.07,3.78-3.55,1.94-.51,4-.89,5.59-2.13l-2.26-1.3a6.19,6.19,0,0,0,1.75,3.89,1.51,1.51,0,0,0,2.56-1.06,8.55,8.55,0,0,0-.88-3.35,6.41,6.41,0,0,1-.9-3.17l-2.26,1.3A13.44,13.44,0,0,1,84,172.32c1,1.24,2.79-.13,2.5-1.46a5.63,5.63,0,0,1,0-2.45c.06-.26.47-1,.42-1.17l-1.37-.94a4.45,4.45,0,0,1-.73,0v3a37.61,37.61,0,0,0,9.42-2.12,1.52,1.52,0,0,0,.36-2.74A62.23,62.23,0,0,0,83,157.49a1.5,1.5,0,0,0-1.51,2.59,73.91,73.91,0,0,0,9.45,5.16c1.72.78,3.22-1.6,1.52-2.59a77.69,77.69,0,0,0-11.14-5.28,1.51,1.51,0,0,0-1.46,2.5,100.32,100.32,0,0,0,11,8.19c1.65,1.06,3.08-1.5,1.52-2.59l-7.6-5.34c-1.49-1-2.84,1.14-1.82,2.35l6.76,8.08,2.12-2.12a61.38,61.38,0,0,1-8.55-9.38c-1-1.34-3.28.4-2.35,1.82A72.67,72.67,0,0,1,86.39,171l2.36-1.82A132.16,132.16,0,0,1,76,151.55c-1-1.7-3.33-.21-2.59,1.52,2.71,6.32,6.55,12,10.4,17.72L86.17,169a59.8,59.8,0,0,1-6.6-10.19,53.62,53.62,0,0,1-2.47-5.46,17.28,17.28,0,0,1-1.55-6l-2.79.76a83.57,83.57,0,0,1,10.62,21.46c.6,1.82,3.49,1,2.89-.8-2.49-7.75-7-15-14.8-18.2-1.32-.55-2.2,1.16-1.69,2.2a70.13,70.13,0,0,0,12.68,18c1.35,1.39,3.45-.72,2.13-2.12a53.44,53.44,0,0,1-10.81-16.77c-.71-1.77-3.61-1-2.89.79Z"/><path class="cls-1" d="M83.65,187.56l-4.31-4.73-2.16-2.37a9.15,9.15,0,0,1-1.81-2.08c-.09-.22-.14-.08.21-.39a4.53,4.53,0,0,1,1.07-.71,6.75,6.75,0,0,1,2.37-.65c1.71-.19,3.45-.25,4.89-1.29s.19-3.58-1.51-2.59A15.45,15.45,0,0,0,77.73,177c-1.08,1.47-2.31,4.42.27,5.22,2.32.72,3.69-1.81,3.15-3.77a4.66,4.66,0,0,0-4.4-3.3,1.48,1.48,0,0,0-1.3.74c-.72,1.37-.92,3.49.54,4.48s3-.28,3.17-1.8-.74-3.1-2.4-2.75a2.17,2.17,0,0,0-1.17,3.42c.86,1.17,2.76,1.58,4.09,1.95a25.84,25.84,0,0,0,5,.86,25.25,25.25,0,0,0,10-1.32c1.81-.63,1-3.53-.8-2.89a23.05,23.05,0,0,1-8.32,1.26,21.52,21.52,0,0,1-4.07-.54,20.79,20.79,0,0,1-2.09-.58c-.36-.12-1.33-.32-1.5-.65l.2.76-.58.62h-.8c-.34-.1-.91-.53-.33-.79l.76-.21H77l.76.2c.18.36.23.36.14,0a1.06,1.06,0,0,1,.16-.52l-1.29.75a1.64,1.64,0,0,1,1.4.83c.07.13.08.28.15.4v.21l1.11.46a8.71,8.71,0,0,0,.63-1.14,12.14,12.14,0,0,1,3.87-3.54l-1.51-2.59c-1.61,1.16-3.84.71-5.67,1.28s-4.46,2-4.43,4.23a4.55,4.55,0,0,0,1.41,2.85c.84.95,1.71,1.87,2.56,2.81l5.26,5.76c1.31,1.43,3.42-.69,2.12-2.12Z"/><path class="cls-1" d="M91,163.21c.43-.07-.29,0,.15,0h.27c.09,0,.42.08.14,0,0,0,.38.12.19,0s.21.2-.07-.06c.06.05.18.27.12.11s-.09-.31-.06-.1a.9.9,0,0,1,.76-1.07h.8c.55.53.71.63.49.31l-.15-.25-.22-.38c-.17-.33-.34-.66-.49-1l-.09-.2c.06.13,0,.11,0-.05l-.18-.49c-.06-.16-.11-.32-.16-.49s-.05-.16-.08-.25a.93.93,0,0,1,0,.37l-.38.66a1.06,1.06,0,0,1-1.38.06c-.13-.19-.16-.21-.08-.07-.08-.22-.1-.25-.06-.1,0-.24,0-.28,0-.11q.06-.36,0-.12c.1-.2.12-.24,0-.09q.22-.25.06-.09a.63.63,0,0,1,.31-.17c-.17,0-.17,0,0,0-.18,0-.18,0,0,0a3.27,3.27,0,0,1-.53-.17c.3.12-.23-.11-.28-.13l-.51-.26a16.93,16.93,0,0,1-1.95-1.19l-.46-.33,0,0-.22-.18q-.45-.36-.87-.75A1.5,1.5,0,0,0,84,158.75a19.32,19.32,0,0,0,4.53,3.14,4.47,4.47,0,0,0,3.23.65,2.58,2.58,0,0,0,1.79-2.42,2.38,2.38,0,0,0-2.15-2.49,1.78,1.78,0,0,0-1.73,1.07,2.43,2.43,0,0,0,0,1.8,16,16,0,0,0,1.17,2.73,5.46,5.46,0,0,0,.82,1.26,1.77,1.77,0,0,0,2.2.28c1.36-.82,1-2.81,0-3.73a4.08,4.08,0,0,0-3.61-.72,1.5,1.5,0,0,0-1,1.84A1.54,1.54,0,0,0,91,163.21Z"/><path class="cls-1" d="M85.87,144.53a23.2,23.2,0,0,1-.84,3.78A25,25,0,0,0,83.92,152a4.92,4.92,0,0,0,3.08,5.5,8.67,8.67,0,0,0,3,.63c1.15,0,2.45-.19,3.52.32,1.64.79,2,3.18,2.36,4.76.39,1.89,3.28,1.09,2.89-.8A11.24,11.24,0,0,0,96.47,157c-1.77-2-4.18-1.72-6.57-1.84a4.32,4.32,0,0,1-2.42-.77A2.09,2.09,0,0,1,87,152c.3-1.2.81-2.34,1.14-3.53a27.84,27.84,0,0,0,.77-3.95,1.52,1.52,0,0,0-1.5-1.5,1.54,1.54,0,0,0-1.5,1.5Z"/><path class="cls-1" d="M62.52,171.53a20.26,20.26,0,0,0,14.09-6.38c1.32-1.42-.8-3.54-2.12-2.12a17.19,17.19,0,0,1-12,5.5c-1.92.07-1.93,3.07,0,3Z"/><path class="cls-1" d="M91.83,159a39.44,39.44,0,0,0,2.06,4.93c.83,1.64,2.51,1.63,3.45.08a8.22,8.22,0,0,0,.86-2,13.67,13.67,0,0,1,.43-2,4.84,4.84,0,0,1,1.63-1.58,2.67,2.67,0,0,1,2.06-.37,11,11,0,0,1,4,1.95,9.4,9.4,0,0,1,2.77,2.88c1.56,2.67,1.44,6,3,8.65a1.5,1.5,0,0,0,2.59-1.51c-1.42-2.38-1.47-5.29-2.61-7.79a12.94,12.94,0,0,0-5.34-5.5c-2.4-1.43-5.39-2.54-8-.9a7.48,7.48,0,0,0-2.84,3,9.54,9.54,0,0,0-.48,2,6.48,6.48,0,0,1-.32,1.06,3.11,3.11,0,0,1-.2.41c-.27.37-.19.4.26.08l1.15.15c.38.44.43.43.16,0l-.33-.69c-.16-.35-.32-.69-.47-1-.35-.82-.66-1.65-1-2.49-.64-1.8-3.54-1-2.89.8Z"/><path class="cls-1" d="M79.3,180.68c3,4.38,6,8.83,10,12.31a1.54,1.54,0,0,0,2.12,0,1.51,1.51,0,0,0,0-2.12,71.65,71.65,0,0,1-5.58-5.58c-1.64-1.84-3-4.19-5.38-5.15a1.48,1.48,0,0,0-1.46.39c-1.35,1.41.07,3,1,4.21s2,2.62,3,3.88,2,2.36,3.06,3.5a14.41,14.41,0,0,0,3.51,3.15c1.71.9,3.23-1.69,1.52-2.59a10.19,10.19,0,0,1-2.55-2.31c-.92-1-1.81-2-2.67-3s-1.6-1.92-2.35-2.92l-1.15-1.56-.59-.84-.3-.43c-.16-.31-.16-.16,0,.45l-.38.66.09-.1-1.46.39a5.84,5.84,0,0,1,2,1.9c.79,1,1.6,1.93,2.44,2.85a67.66,67.66,0,0,0,5.24,5.2l2.12-2.12c-3.86-3.32-6.73-7.52-9.56-11.71a1.5,1.5,0,1,0-2.59,1.52Z"/><path class="cls-1" d="M81.17,176.9c.45,2.79,2.57,5.36,4.19,7.59a71.22,71.22,0,0,0,5.78,6.95l2.12-2.12a52,52,0,0,1-10.24-14c-.75-1.47-2.64-.56-2.8.76a8.67,8.67,0,0,0,2.43,7.05,1.52,1.52,0,0,0,2.56-1.06c-.32-4.93-.69-10.2,1.29-14.85l-2.79-.76.23,13.09a1.5,1.5,0,0,0,3,0l.36-7.91h-3l1.39,10.44c.25,1.85,3,2,3,0a66.65,66.65,0,0,1,.91-12.78l-2.95-.4.27,8.61a42,42,0,0,0,.75,8.3,1.51,1.51,0,0,0,3-.4c-.07-5.66-.14-11.37.94-17l-3-.4a169.55,169.55,0,0,1,.77,18.72c0,1.95,2.87,1.91,3,0l1.53-21.32-2.94.4c1.92,8.06,1.74,16.38,1.43,24.6l2.79-.75a8.56,8.56,0,0,1-1.36-3.23c-.46-1.76-2.76-1.18-3,.4a28.92,28.92,0,0,0,.42,9.23l.39-1.46a.49.49,0,0,1,.7,0l-2.75,1.16c1.94,4.4,7.35,3.23,10.89,2a95,95,0,0,0,13.26-5.87,10.28,10.28,0,0,0,4.29-3.47c1.14-1.93.52-3.93-.15-5.89q-2.46-7.27-4.3-14.73L110.89,169a23.21,23.21,0,0,1,4,10.68,42.72,42.72,0,0,1,.45,5.76c0,1.67-.19,4-2.07,4.67l1.16,2.74c1.74-.92,3.58-2,4.57-3.78,1.25-2.27.47-4.91-.16-7.24-1.44-5.36-3.12-10.66-4.7-16-.55-1.85-3.44-1.06-2.89.8,1.34,4.55,2.7,9.09,4,13.65.34,1.16.67,2.32,1,3.49a7,7,0,0,1,.37,3.17c-.39,1.68-2.33,2.57-3.71,3.3s-.46,3.29,1.16,2.74c5-1.71,4.44-7.85,4-12.09-.52-4.76-1.73-9.52-4.62-13.42a1.51,1.51,0,0,0-2.74,1.15q1.52,6.16,3.46,12.19c.3.93.61,1.85.92,2.78a5.63,5.63,0,0,1,.6,2.8c-.31,1.34-1.94,2.12-3,2.72a88.48,88.48,0,0,1-10.78,5c-2.48,1-8.08,3.81-9.67.2-.73-1.68-3-.38-2.74,1.16.34,2.07,2.89,2.54,4.32,1.33a1.49,1.49,0,0,0,.38-1.46,26.22,26.22,0,0,1-.31-8.43l-2.95.4a10.84,10.84,0,0,0,1.67,3.94,1.52,1.52,0,0,0,2.8-.76c.32-8.49.45-17.07-1.54-25.4-.41-1.72-2.83-1.22-3,.4L89.38,186.8h3a169.55,169.55,0,0,0-.77-18.72c-.15-1.55-2.6-2.19-3-.4-1.12,5.86-1.11,11.81-1,17.75l2.94-.4a40.28,40.28,0,0,1-.65-8l-.26-8.12c-.05-1.62-2.6-2.12-3-.4a71.8,71.8,0,0,0-1,13.58h3L87.3,171.66a1.5,1.5,0,0,0-3,0l-.36,7.91h3l-.23-13.09c0-1.36-2.18-2.21-2.8-.76-2.23,5.23-2.06,10.81-1.7,16.37L84.77,181a5.81,5.81,0,0,1-1.55-4.93l-2.8.76a54.9,54.9,0,0,0,10.72,14.58,1.5,1.5,0,0,0,2.12-2.12A64.46,64.46,0,0,1,88,183c-1.46-2-3.48-4.36-3.89-6.87-.31-1.9-3.2-1.09-2.89.8Z"/><path class="cls-1" d="M96.82,161.48a8.22,8.22,0,0,1,6.2-.31,8.54,8.54,0,0,1,4.85,4.57,33.52,33.52,0,0,1,2.38,7.72c.65,2.9,1.23,5.81,1.83,8.71a33.54,33.54,0,0,1,.8,3.94c.11,1.22-2,1.66-2.91,2.07-2.69,1.2-5.45,2.25-8.24,3.19-1.35.45-2.71.87-4.07,1.26-.13,0-1.84.5-1.62.66-.29-.2-.16-1.67-.18-2q-.21-4.36-.16-8.75a138.3,138.3,0,0,1,1.79-20.41c.31-1.88-2.58-2.7-2.89-.79A143.27,143.27,0,0,0,92.7,183c0,1.78,0,3.56,0,5.35a28.71,28.71,0,0,0,.32,5.41c.87,3.76,5,1.92,7.43,1.15a101.65,101.65,0,0,0,10.12-3.77,16.6,16.6,0,0,0,4.07-2c1.24-1,1.32-2.54,1.07-4-.63-3.64-1.51-7.27-2.28-10.88a46,46,0,0,0-2.67-9.28,11.81,11.81,0,0,0-6.5-6.5,11.31,11.31,0,0,0-9,.43c-1.73.84-.22,3.43,1.52,2.59Z"/><path class="cls-1" d="M89.7,180.17a10.36,10.36,0,0,0,.09,4.15,5.05,5.05,0,0,0,2.37,3.12,1.5,1.5,0,0,0,1.52-2.59l-.31-.18.09.07-.13-.12-.25-.25.07.09-.1-.15a1.92,1.92,0,0,1-.18-.31,1.34,1.34,0,0,0-.12-.24c.09.22.1.25,0,.1a.87.87,0,0,1-.07-.17c0-.11-.07-.23-.1-.35s-.1-.29-.07-.37c0,.21,0,.23,0,.06a1.79,1.79,0,0,1,0-.23c0-.27,0-.53,0-.8,0-.61.1-1.22.17-1.83a1.47,1.47,0,0,0-.44-1.06,1.5,1.5,0,0,0-2.12,0,1.71,1.71,0,0,0-.44,1.06Z"/><path class="cls-1" d="M94.61,194.25c.28.1.41.05.37-.16a.84.84,0,0,1,0-.31c.12-.3.18-.64.28-.94.25-.74.51-1.48.74-2.23q.72-2.25,1.29-4.53a59.05,59.05,0,0,0,1.52-9,85.56,85.56,0,0,0,0-9.06c0-2.69.38-5.47,2.61-7.22l-2.35-.31c.57,1.14-.18,2.79-.54,3.89-.45,1.37-1,2.71-1.48,4.06A34.12,34.12,0,0,0,95,176.84c-.3,2.91-.16,5.84-.21,8.75,0,1.48-.11,2.94-.27,4.41a15,15,0,0,0-.17,4.18,1.51,1.51,0,0,0,2.2.89c1.68-.77,1.38-3.47,1.5-5,.18-2.28.32-4.56.46-6.84.28-4.5.55-9,1.18-13.47.31-2.17.7-4.33,1.2-6.47.12-.53.26-1.06.4-1.59a2.93,2.93,0,0,0,.18-.69l.1-.31-1.18.07c0,.05.45,1.33.47,1.42a7.42,7.42,0,0,1,.2,1.48,20.71,20.71,0,0,1-1,6.34c-.58,2.14-1.09,4.27-1.47,6.45-.43,2.5-.74,5-1,7.55-.16,1.27-.31,2.55-.47,3.82-.07.59,0,2.65-.65,3l2.2.9c-.69-3.32-.12-6.7.43-10s1-6.69,1.33-10.05c.18-1.62.35-3.24.55-4.86.1-.8.19-1.61.32-2.4,0-.26.08-.51.14-.76.1-.4.39-.74.5-1.09l.1-.1c.26-.09.23-.15-.11-.18a3.36,3.36,0,0,1,.13,1.1,21.71,21.71,0,0,1,.08,2.28,32.62,32.62,0,0,1-.45,4.83c-.52,3.2-1.31,6.36-1.8,9.57-.23,1.52-.36,3-.5,4.57a28.4,28.4,0,0,1-1.21,4.74c-.28,1-.3,2.33.77,3s2.22-.16,2.9-1.07a16,16,0,0,0,2.64-7.79c.45-3.56.64-7.16,1-10.74q.28-3,.6-5.94c.09-.88.16-1.76.32-2.63,0-.26.1-.53.17-.79a6.46,6.46,0,0,1,.25-.78c.25-.45.24-.51,0-.18l-1.16.15c-.47-.36-.57-.31-.31.18.09.26.16.53.23.8a13.87,13.87,0,0,1,.29,1.71,19.88,19.88,0,0,1,0,3.7,53.51,53.51,0,0,1-1.42,7.41,109,109,0,0,0-2.16,14.92c-.13,1.45,2.19,2.1,2.79.76l.45-1a1.52,1.52,0,0,0-1.7-2.2,28.61,28.61,0,0,0-2.88.67c-1.32.39-1.53,2.65,0,2.9l1.47.24c1.89.31,2.7-2.58.8-2.89l-1.47-.25v2.9a28.66,28.66,0,0,1,2.88-.68l-1.69-2.2-.45,1,2.8.75a101.69,101.69,0,0,1,2-13.89c1-4.4,2.14-8.88,1.44-13.42-.23-1.47-.59-4.12-2.45-4.33-2-.21-2.57,2.68-2.8,4.13-.76,4.66-1,9.46-1.43,14.17-.19,2.11-.28,4.25-.63,6.34a17,17,0,0,1-.65,2.71,8.26,8.26,0,0,1-.52,1.27,10.09,10.09,0,0,0-1,1.49l.87.33c.53.53.83.6.92.2a2.34,2.34,0,0,0,.23-.72c.15-.47.33-.92.49-1.39a15,15,0,0,0,.62-3.31,66.88,66.88,0,0,1,.9-6.76c.84-4.4,2-8.84,1.87-13.36,0-1.74,0-4.42-1.89-5.2s-3.61.63-4.33,2.22c-.93,2.08-.91,4.75-1.17,7-.3,2.68-.57,5.35-.92,8-.68,5.22-2.15,10.47-1,15.73a1.51,1.51,0,0,0,2.2.9c1.93-1.17,1.89-3.62,2.14-5.62.34-2.65.62-5.31,1-8a66.11,66.11,0,0,1,1.46-7.52,39.47,39.47,0,0,0,1.51-7.19c.13-2,0-4.92-1.46-6.49a2.17,2.17,0,0,0-2.66-.42,3.59,3.59,0,0,0-1.46,2.42A84.43,84.43,0,0,0,96,175.93c-.24,2.82-.41,5.66-.58,8.49-.1,1.49-.19,3-.3,4.48,0,.71-.1,1.42-.16,2.12,0,.32,0,.63-.08.94l0,.47c-.11.46,0,.48.18,0l2.2.9c-.23-1.36.25-2.94.37-4.3s.18-3,.19-4.43a54.24,54.24,0,0,1,.41-9.28,49.69,49.69,0,0,1,2.61-8.22c.94-2.55,2.24-5.5.92-8.13a1.52,1.52,0,0,0-2.36-.3c-2.69,2.11-3.47,5.62-3.49,8.88,0,4,.27,7.91-.3,11.92a66.9,66.9,0,0,1-2.79,11.41c-.51,1.51-1.3,3.28-.42,4.81a2.77,2.77,0,0,0,3.75,1.1c1.7-.9.19-3.49-1.52-2.59Z"/><path class="cls-1" d="M99.7,187.81,96.41,186c-.92-.5-2-1.23-3.06-.77-1.93.82-1.88,4.21-1.15,5.8s3,3.06,4.67,1.92c.92-.6,1-1.75,1.15-2.74a29,29,0,0,0,.31-3.84,1.52,1.52,0,0,0-2.26-1.3,3.64,3.64,0,0,0-1.82,3.41c.09,1.17,1.66,2.15,2.56,1.06a2.91,2.91,0,0,1,3-1.14c1.15.29,1.71,1.43,2.8,1.82,2.31.84,4.38-1.88,5.19-3.71,1.12-2.51,1.3-5.37,1.92-8a67.59,67.59,0,0,1,2.67-8.69l-3-.4c-.65,7.75-4.69,14.73-5.56,22.46a1.52,1.52,0,0,0,1.1,1.45c2.19.55,4-.86,4.89-2.78a22.92,22.92,0,0,0,2-6.81,19.63,19.63,0,0,0-.92-7.33c-.65-2.46-1.4-5-.82-7.54l-2.74.36c.25.39,0,1.61,0,2.11,0,.91-.12,1.83-.2,2.74-.16,1.76-.36,3.53-.61,5.28-.5,3.56-1.14,7.09-1.77,10.62-.24,1.36,1.41,2.67,2.51,1.46a11.84,11.84,0,0,0,2.62-6.63c.08-.59.21-1.2.24-1.8a2.7,2.7,0,0,1,0-.28q.23-.86-1.26.45c0,.2.41.69.5.88a6.25,6.25,0,0,1,.61,1.89c.07.52.1.85-.23,1l2.2,1.69c.79-3,2.71-5.41,1.23-8.53-.72-1.52-3.32-.45-2.74,1.15a2.7,2.7,0,0,1-.52,3c-1.34,1.4.78,3.52,2.12,2.12a5.67,5.67,0,0,0,1.3-5.86l-2.75,1.15c.9,1.89-1.05,4.42-1.53,6.22a1.53,1.53,0,0,0,2.21,1.7c1.75-.75,1.91-2.9,1.57-4.53s-1.39-4.63-3.38-4.84c-2.29-.24-2.31,2.47-2.53,4-.25,1.8-.56,3.74-1.82,5.13l2.5,1.46c.71-4,1.42-7.93,2-11.93.26-2,.48-3.93.63-5.91.13-1.57.65-3.82-.25-5.23a1.52,1.52,0,0,0-2.74.36c-1,4.25.84,8.07,1.54,12.18a12.7,12.7,0,0,1-.49,5.93c-.26.87-1.1,4.61-2.52,4.25l1.1,1.45c.87-7.72,4.9-14.68,5.56-22.46.15-1.8-2.39-1.86-3-.4a70.6,70.6,0,0,0-2.51,8c-.63,2.61-.77,5.51-1.79,8-.28.68-1,2.19-1.85,2.35.39-.07.11-.16-.1-.35a7.44,7.44,0,0,0-.68-.58,5.71,5.71,0,0,0-1.44-.77,5.8,5.8,0,0,0-6.44,1.74l2.56,1.06c0-.4,0-.6.33-.82l-2.25-1.29a25.22,25.22,0,0,1-.27,3.47c0,.29-.09.57-.15.86.6-.2.7-.37.3-.53-.16-.38-.39-.55-.44-1,0-.22.22-1.37.15-1.46-1.11.13-1.31.32-.61.58l.78.43,3.1,1.7c1.69.93,3.21-1.66,1.51-2.59Z"/><path class="cls-1" d="M10.49,145.75l-.1,2.11,2.95-.4a8.49,8.49,0,0,0-1.81-3.22,1.49,1.49,0,0,0-.66-.39,1.11,1.11,0,0,0-.6,0,1.11,1.11,0,0,0-.56.17,1.55,1.55,0,0,0-.54.54l-.44.64a1.66,1.66,0,0,0-.15,1.16,1.47,1.47,0,0,0,.69.89,1.5,1.5,0,0,0,1.15.16l.36-.16a1.45,1.45,0,0,0,.54-.53l.44-.64-2.35.3.3.37-.23-.31a7,7,0,0,1,.87,1.5l-.15-.36q.13.34.24.69a1.56,1.56,0,0,0,.69.9l.36.15a1.22,1.22,0,0,0,.6,0,1.42,1.42,0,0,0,.86-.41,1.61,1.61,0,0,0,.44-1.06l.1-2.11a1.54,1.54,0,0,0-.44-1.06,1.52,1.52,0,0,0-1.06-.44,1.46,1.46,0,0,0-1.06.44,1.59,1.59,0,0,0-.44,1.06Z"/><path class="cls-14" d="M2.32,165.69c.48,1.56,1.76,2.06,3.25,2.31,1.29.22,1.58,1.29,2.26,2.27a4.74,4.74,0,0,0,3.32,2.13c.85.17.73.45,1,1.22a3.58,3.58,0,0,0,1.23,1.64c1.1.8,2.4.75,3.65,1.14a4.07,4.07,0,0,1,1.62,1.2,7.38,7.38,0,0,0,1.9,1.28A7.23,7.23,0,0,1,22.51,180a19.77,19.77,0,0,0,1.6,1.42,4.93,4.93,0,0,0,2.34.86c.53.06,1.84-.1,2.18.45,1,1.64,3.6.13,2.59-1.52a4.31,4.31,0,0,0-3.65-1.85,3.09,3.09,0,0,1-2.17-.75c-.54-.48-1-1-1.61-1.43a15.1,15.1,0,0,0-2-1A8.84,8.84,0,0,1,20,174.69a7.3,7.3,0,0,0-3.75-1.51c-.57-.11-1-.16-1.3-.67s-.36-1.29-.84-1.87a3.34,3.34,0,0,0-1.81-1.07c-.63-.16-1.19-.1-1.68-.55-.8-.75-1.13-2-1.92-2.74a4.26,4.26,0,0,0-1.63-1,10,10,0,0,1-1.87-.38c-.56-1.84-3.46-1.06-2.89.8Z"/><path class="cls-14" d="M24.52,182.06a15,15,0,0,0,5.12.38c.85-.13,1.62-.55,2.46-.67a3.6,3.6,0,0,1,1.91.46,12.13,12.13,0,0,0,9.41.63,1.55,1.55,0,0,0,1-1.85,1.5,1.5,0,0,0-1.84-1,9,9,0,0,1-4.17.56,17.88,17.88,0,0,1-4.14-1.4,6.13,6.13,0,0,0-4.34.17,9.56,9.56,0,0,1-4.66-.13c-1.88-.37-2.69,2.52-.79,2.89Z"/><path class="cls-14" d="M31.83,182.24l4,.11a29.28,29.28,0,0,0,3.86.05,4.11,4.11,0,0,0,1.49-.46c.37-.21.7-.64,1.1-.78.87-.31,2.06.38,3,.41a7.72,7.72,0,0,0,3-.67,5.83,5.83,0,0,1,3.16-.48c2,.27,4,.28,5.21-1.68.43-.73.54-1.11,1.4-1.32s1.66-.2,2.47-.39a5.29,5.29,0,0,0,2.34-1.2c.33-.3.63-.82,1-1a5.61,5.61,0,0,1,1.42-.22A3.39,3.39,0,0,0,67.54,173c.47-.74.6-1.39,1.54-1.58,1.7-.35,3.42,0,4.93-1.09s.07-3.72-1.51-2.59c-1.35.95-3.27.41-4.8.95a4,4,0,0,0-1.84,1.3,12.5,12.5,0,0,0-.74,1.2c-.31.5-.42.44-1,.51a4.3,4.3,0,0,0-2.67,1.2,3.67,3.67,0,0,1-1.79,1.23c-1.59.37-3.27.25-4.55,1.44-.55.51-.79,1.58-1.4,1.94-.81.47-2.33-.19-3.21-.21-2,0-3.75,1.52-5.68,1.19a7.73,7.73,0,0,0-3.09-.33c-.88.2-1.34.86-2.13,1.18a5.22,5.22,0,0,1-1.85.05l-2-.05-4-.11c-1.93-.05-1.93,2.95,0,3Z"/><path class="cls-14" d="M88.44,151.62c.22,0,0,.12.07,0s.19-.51.32-.74c.46-.76,1.08-1.41,1.53-2.17a2.47,2.47,0,0,0,.36-1.3c0-.33-.2-.7-.19-1,0-.46.56-1,.81-1.42A5.69,5.69,0,0,0,92.2,143c.17-.88-.07-1.54.42-2.32a6.21,6.21,0,0,0,.94-2.16c.07-.41.08-.82.14-1.23,0-.18.27-.61,0-.42a1.54,1.54,0,0,0,.54-2,1.51,1.51,0,0,0-2-.54,3.62,3.62,0,0,0-1.47,2.78,6.91,6.91,0,0,1-.16,1.11,5.39,5.39,0,0,1-.61,1.1,4.8,4.8,0,0,0-.63,1.52c-.11.57.06,1.18-.09,1.73a12.58,12.58,0,0,1-1.19,2,3.76,3.76,0,0,0-.35,2.86l.07-.25-.32.45-.56.78a9.83,9.83,0,0,0-.84,1.29,3.65,3.65,0,0,0-.21,3.29,2.77,2.77,0,0,0,2.6,1.64c1.92-.1,1.93-3.1,0-3Z"/><path class="cls-14" d="M94.87,133.19A10.47,10.47,0,0,1,93.73,130c-.13-1.15.13-2.31,0-3.47a12.69,12.69,0,0,0-2.22-6.13c-.57-.84-.5-1.76-.86-2.69A7.69,7.69,0,0,0,89,115.21c-1.51-1.58-3.79-3-4.66-5.1a1.51,1.51,0,0,0-2-.54,1.54,1.54,0,0,0-.54,2.05c.87,2,3,3.58,4.51,5.1A5.67,5.67,0,0,1,88,119a9.85,9.85,0,0,0,1,2.93,9.6,9.6,0,0,1,1.84,6,12,12,0,0,0,.17,3.48,17.58,17.58,0,0,0,1.33,3.35c.83,1.74,3.42.22,2.59-1.51Z"/><path class="cls-14" d="M53.4,98.07l-2.74-.35a3.8,3.8,0,0,0-2.4.24c-.61.32-.91.81-1.6,1a10.85,10.85,0,0,1-2.53.34c-.81,0-1.6-.21-2.4-.27a15.53,15.53,0,0,0-2.55.08,7.57,7.57,0,0,0-4.45,1.55,1.5,1.5,0,0,0,0,2.12,1.53,1.53,0,0,0,2.12,0c.93-.77,2.59-.72,3.73-.77,1.51,0,3,.4,4.49.24a7.77,7.77,0,0,0,4.24-1.31c.24-.19.27-.25.48-.29a3.63,3.63,0,0,1,.87.1l2.74.35a1.5,1.5,0,0,0,1.5-1.5,1.53,1.53,0,0,0-1.5-1.5Z"/><path class="cls-14" d="M34.71,104a12.32,12.32,0,0,0,2.25-.39l1-.25a5.23,5.23,0,0,1,.54-.12c.06,0,.49-.06.21,0,.3,0,.61,0,.91,0l.53,0c.06,0,.55.07.29,0,.3.05.59.12.89.2l.43.13.35.13-.53-2a.82.82,0,0,1,.75-.47H42.1c-.38,0,.36.06-.16,0S41,101,40.54,101c-.78-.08-1.56-.12-2.34-.13s-1.55,0-2.32.07h-.41c-.18,0-.19,0,0,0-.17,0-.17,0,0,0l.13.12q-.16-.18,0,.06a.83.83,0,0,1,0,.75A1.5,1.5,0,1,0,33,100.38a2.32,2.32,0,0,0,1,3.24c1.09.51,2.31.25,3.47.24a27.33,27.33,0,0,1,3.27.16l.42,0,.18,0a6.59,6.59,0,0,0,.88.1,2.31,2.31,0,0,0,1.9-1,1.51,1.51,0,0,0-.54-2,9.81,9.81,0,0,0-4.62-.89,12.76,12.76,0,0,0-2.38.42c-.36.09-.72.19-1.08.27l-.46.09c-.18,0-.21,0-.07,0l-.31,0a1.53,1.53,0,0,0-1.5,1.5,1.51,1.51,0,0,0,1.5,1.5Z"/><path class="cls-1" d="M30.82,106.67a9.14,9.14,0,0,0,6.92-1.48c.9-.53,1.67.27,2.54.62a3.79,3.79,0,0,0,3.24-.07c.92-.45,1.85-1.88,2.85-2,.5-.06,1,.32,1.51.35a3,3,0,0,0,1.65-.37c1.18-.59,1.86-1.23,3.26-.9a10.45,10.45,0,0,1,3.56,2c1.56,1.14,3.06-1.46,1.52-2.59-2.06-1.52-4.37-2.92-7-2.44a5.11,5.11,0,0,0-1.81.69c-.56.34-.72.57-1.35.41a4,4,0,0,0-3.57.62c-.74.52-1.59,1.78-2.58,1.55s-1.81-1-2.92-1.13a4.61,4.61,0,0,0-3,1.06,5.42,5.42,0,0,1-4,.76c-1.88-.38-2.69,2.51-.79,2.89Z"/><path class="cls-1" d="M55.69,103.72a5.27,5.27,0,0,0,2.65-.94c.67-.44,1.58-1.41,2.39-1,.44.23.79.61,1.24.85a10.26,10.26,0,0,0,1.42.57,17,17,0,0,1,2.85,1.12,46.37,46.37,0,0,1,4.82,3.27c1.21.87,2.81,2,2.92,3.65.12,1.92,3.12,1.93,3,0a7.39,7.39,0,0,0-3.06-5.22,50.45,50.45,0,0,0-5.59-4,15.15,15.15,0,0,0-3.2-1.46,11.74,11.74,0,0,1-1.64-.56c-.51-.25-.88-.65-1.36-.93a3.84,3.84,0,0,0-3.69,0c-.87.42-1.76,1.49-2.75,1.56-1.91.14-1.93,3.14,0,3Z"/><path class="cls-1" d="M70.05,123.93a1.5,1.5,0,0,0,0-3,1.5,1.5,0,0,0,0,3Z"/><path class="cls-1" d="M86,129a1.5,1.5,0,0,0,0-3,1.5,1.5,0,0,0,0,3Z"/><path class="cls-1" d="M94.24,158.63c2.14-.52,3.89-2,6-2.53,1.91-.5,4.55-.57,6,1a17.75,17.75,0,0,1,3.15,5.51c.86,2.16,1.51,4.4,2.16,6.63.54,1.85,3.44,1.06,2.89-.8a64.63,64.63,0,0,0-2.49-7.42c-1-2.27-2.15-4.8-4-6.47s-4.79-1.89-7.28-1.54c-2.64.37-4.66,2.14-7.2,2.76-1.87.45-1.08,3.34.8,2.89Z"/></svg>