<svg id="Logos_Patrocinadores_Web" data-name="Logos Patrocinadores Web" xmlns="http://www.w3.org/2000/svg" viewBox="0 0 300 300"><defs><style>.cls-1{fill:#8f8fa3;}.cls-2{fill:#fff;}</style></defs><path class="cls-1" d="M128.63,105.8l14.29-17.7c5.06-6.26,10.14-12.49,15.17-18.77a2.71,2.71,0,0,1,2.36-1.15c7.12,0,14.23,0,21.34,0,.48,0,1.11-.21,1.4.25s-.28.89-.57,1.25q-14.15,17.53-28.32,35.07a2.59,2.59,0,0,1-2.14,1.24c-7.48,0-15,0-22.46,0A9.81,9.81,0,0,1,128.63,105.8Z"/><path class="cls-1" d="M220.59,68.2c-2.9,3.6-5.46,6.79-8,10-7.12,8.83-14.27,17.65-21.37,26.49a3,3,0,0,1-2.65,1.35c-7.05-.05-14.1,0-21.15,0-.52,0-1.24.27-1.51-.34s.38-.86.68-1.24l28.31-35.07a2.24,2.24,0,0,1,1.8-1.14C204.45,68.21,212.24,68.2,220.59,68.2Z"/><path class="cls-1" d="M91.73,106c2.83-3.52,5.31-6.62,7.81-9.71q10.89-13.45,21.75-26.92a2.88,2.88,0,0,1,2.54-1.18c7,0,14.1,0,21.15,0,.52,0,1.24-.28,1.51.33s-.38.86-.68,1.24q-14,17.31-28,34.64a3.77,3.77,0,0,1-3.3,1.6c-6.86-.07-13.73,0-20.59,0Z"/><path class="cls-1" d="M0,163.81c0-3.49.05-7,0-10.48,0-1.2.33-1.71,1.58-1.64s2.62,0,3.93,0c1,0,2-.11,2.15,1.37.14,1.09.87.46,1.38.21a16.32,16.32,0,0,1,7.51-2A6.45,6.45,0,0,1,21.18,153c.9.9,1.56.72,2.57.24,3.19-1.54,6.53-2.51,10.11-1.56a6.08,6.08,0,0,1,4.71,6c0,5.74,0,11.48,0,17.21,0,1.11-.28,1.58-1.47,1.52-1.74-.08-3.5-.09-5.24,0-1.28.07-1.57-.45-1.56-1.63.05-4.68,0-9.36,0-14,0-2.21-.45-2.59-2.68-2.38-4.14.39-4.14.39-4.14,4.45s0,8,0,12c0,1.2-.34,1.69-1.59,1.62a50.24,50.24,0,0,0-5.06,0c-1.33.08-1.72-.43-1.7-1.71,0-4.61,0-9.23,0-13.84,0-2.34-.45-2.7-2.8-2.49-4.17.38-4.17.38-4.17,4.42s-.07,7.86,0,11.79c0,1.53-.49,1.93-1.92,1.84a41.64,41.64,0,0,0-4.87,0C.36,176.4,0,176,0,174.85.06,171.17,0,167.49,0,163.81Z"/><path class="cls-1" d="M70,212.21c0,3.86,0,7.72,0,11.59,0,4.57-2.65,7.09-7.22,7.19s-8.84-.19-13.25-.45c-2.73-.16-2.73-.2-2.73-2.89,0-3.8,0-3.72,3.74-3.2a64.36,64.36,0,0,0,9.52.13c1.59,0,1.89-1.28,1.68-2.56-.23-1.46-1.33-.67-2.05-.58a44.39,44.39,0,0,1-7.63.55c-3.51-.16-6.11-2.09-6.48-5.54a47.59,47.59,0,0,1,.11-12.84,6.07,6.07,0,0,1,6.36-5.18c5.42,0,10.85,0,16.27,0,1.28,0,1.74.32,1.71,1.66C70,204.11,70,208.16,70,212.21Z"/><path class="cls-1" d="M182.78,212.39c0,3.93,0,7.86,0,11.79,0,4.13-2.64,6.7-6.78,6.8-4.56.11-9.1-.16-13.64-.44-2.78-.17-2.78-.2-2.78-3,0-3.65,0-3.62,3.56-3.09,3.23.48,6.48.18,9.72.19,1.66,0,1.85-1.26,1.67-2.53-.21-1.51-1.31-.69-2-.61-3,.33-6.06,1-9.1.28a5.85,5.85,0,0,1-5-5.72c-.15-3.85-.17-7.73,0-11.58.2-3.69,2.87-6,6.58-6,5.3,0,10.6,0,15.91,0,1.42,0,2,.3,1.91,1.84C182.71,204.29,182.78,208.34,182.78,212.39Z"/><path class="cls-1" d="M235.11,174.16a18.1,18.1,0,0,1-10.7,2.59c-3.61-.19-6.16-2.38-6.42-6a90.78,90.78,0,0,1,0-12.12c.3-4.55,2.78-6.84,7.34-6.95,2.56-.06,5.12-.07,7.67,0,1.27,0,1.82-.34,1.74-1.67-.09-1.49,0-3,0-4.49,0-1.09.33-1.6,1.49-1.56,1.75.06,3.5.05,5.24,0,1,0,1.43.39,1.43,1.42q0,14.77,0,29.53c0,1.07-.43,1.42-1.46,1.37a24.74,24.74,0,0,0-3.55,0C236.29,176.5,235.13,176.23,235.11,174.16Z"/><path class="cls-1" d="M58.13,167.35c-2.06,0-4.12,0-6.18,0-.83,0-1.7-.11-1.6,1.17.08,1,.36,1.87,1.61,1.84,3.56-.08,7.12.28,10.66-.21,2.7-.37,2.69-.42,2.7,2.35,0,3.35,0,3.44-3.28,3.7a107.62,107.62,0,0,1-13.07.5c-3.92-.17-6.47-2.19-6.79-6.08a62.16,62.16,0,0,1,.1-13.43c.49-3.65,2.92-5.75,6.61-5.87q5.25-.16,10.49,0c4.14.13,6.75,2.9,6.85,7.12,0,2.37-.06,4.74,0,7.11,0,1.35-.33,1.91-1.78,1.83C62.37,167.27,60.25,167.35,58.13,167.35Z"/><path class="cls-1" d="M259.4,176.72c-1.93,0-3.86,0-5.79,0a6.53,6.53,0,0,1-6.75-6.53c-.09-4.1-.1-8.22,0-12.32a6.51,6.51,0,0,1,6.6-6.52c4-.15,8.1-.15,12.14,0s6.62,2.93,6.67,7q.06,5.7,0,11.39c-.06,4.29-2.78,6.93-7.08,7Z"/><path class="cls-1" d="M111.18,174.1a18,18,0,0,1-10.54,2.64A6.31,6.31,0,0,1,94.38,171c0-.31-.08-.62-.11-.93-.55-6.8,2.49-9.76,8.77-9.41,1.92.11,3.86,0,5.79,0,.75,0,1.7.29,1.69-1.07,0-1.19-.39-2-1.67-2a47.7,47.7,0,0,0-7.27.19l-.19,0c-4.65.7-5.1.25-4.77-4.48.07-1,.46-1.28,1.35-1.34a134.22,134.22,0,0,1,14.18-.53c4.13.14,6.58,2.64,6.58,6.74,0,5.48,0,11,0,16.44,0,1.33-.41,1.77-1.7,1.66a21,21,0,0,0-3.55,0C112,176.49,111.05,176.15,111.18,174.1Z"/><path class="cls-1" d="M97.76,212.7c0,2.87-.05,5.74,0,8.6,0,1.24-.39,1.67-1.61,1.6-1.49-.07-3,0-4.49,0-.73,0-1.36-.07-1.42-1-.07-1.21-.74-.8-1.41-.48a15.84,15.84,0,0,1-10.28,1.8,6.16,6.16,0,0,1-5.18-5.37c-.06-.5-.07-1-.11-1.49-.49-6.53,2.35-9.4,8.91-9,1.8.1,3.62.05,5.43,0,.84,0,2,.4,1.93-1.21,0-1.4-.79-1.84-2-1.86a71.66,71.66,0,0,0-9.15.38c-.5.06-1,.13-1.49.15-.31,0-.8,0-.9-.11-.91-1.55-.33-3.26-.41-4.9-.06-1.13,1-1.08,1.61-1.11,3.11-.11,6.2-.67,9.32-.55,1.69.06,3.37,0,5.06,0a6.27,6.27,0,0,1,6.19,6.22C97.8,207.09,97.76,209.89,97.76,212.7Z"/><path class="cls-1" d="M206.75,174.12a18.16,18.16,0,0,1-10.44,2.63,6.4,6.4,0,0,1-6.41-6.41c0-.87,0-1.74,0-2.62,0-4.32,2.62-7,7-7,2.55,0,5.11,0,7.67,0,.75,0,1.53.1,1.52-1.08s-.26-1.93-1.47-2c-2.31,0-4.61,0-6.92.08a19.56,19.56,0,0,0-3.34.29c-2,.41-2.27-.49-2.22-2.2.11-3.58,0-3.53,3.62-3.91a99.52,99.52,0,0,1,11.58-.41c4.58.06,7,2.47,7.05,7.08,0,5.29,0,10.59,0,15.89,0,1.48-.46,2-1.93,1.87a22.5,22.5,0,0,0-3.18,0C207.83,176.42,206.46,176.41,206.75,174.12Z"/><path class="cls-1" d="M232.19,213.91c-2.12,0-4.24,0-6.36,0-.63,0-1.46-.21-1.47.9,0,.86.08,1.68,1,2a6.74,6.74,0,0,0,1.85.21,62.15,62.15,0,0,0,10.82-.46c.88-.15,1.3.09,1.25,1,0,.75,0,1.5,0,2.24,0,2.78,0,2.76-2.72,2.93-4.6.29-9.2.49-13.82.4a6.4,6.4,0,0,1-6.63-6.4c-.09-4-.1-8.1,0-12.15a6.46,6.46,0,0,1,6.48-6.61c3.74-.14,7.49-.15,11.22,0a6.13,6.13,0,0,1,6.26,6.15c.19,2.8,0,5.61.11,8.41,0,1.1-.51,1.39-1.49,1.37-2.18,0-4.37,0-6.55,0Z"/><path class="cls-1" d="M288.89,151.71c2.37,0,4.74,0,7.11,0,1.14,0,1.5.41,1.54,1.52.21,4.79.24,4.78-4.6,4.78-2.5,0-5,0-7.49,0-1.12,0-2.3,0-2.26,1.52s1.23,1.5,2.34,1.49c2.56,0,5.12,0,7.68,0a6.27,6.27,0,0,1,6.55,5.44,12.24,12.24,0,0,1-.22,5.74c-.74,2.62-3.14,4.35-6.26,4.48a125.7,125.7,0,0,1-16.8-.7c-.07,0-.15,0-.19,0-2.12-1.45-.62-3.57-.92-5.35-.21-1.27.92-.77,1.6-.7a119.79,119.79,0,0,0,12.71.31c1.19,0,1.89-.5,1.93-1.76.06-1.5-1.07-1.07-1.84-1.09-2.75,0-5.49,0-8.24,0a6.33,6.33,0,0,1-6.61-6.58c0-1.06-.06-2.12,0-3.18.26-3.4,3.09-5.77,7-5.86C284.27,151.66,286.58,151.71,288.89,151.71Z"/><path class="cls-1" d="M256.36,198.43c2.62,0,5.24,0,7.86,0,.93,0,1.28.26,1.34,1.26.27,4.74.3,4.74-4.4,4.74h-7.11a8.16,8.16,0,0,0-1.31,0c-1,.14-1.67.6-1.58,1.7s.79,1.31,1.71,1.31c2.56,0,5.12,0,7.68,0,4.68,0,7.25,2.62,7.24,7.33a11.39,11.39,0,0,1-.35,4.06,6.3,6.3,0,0,1-5.8,4.26c-5.43.15-10.84-.14-16.26-.42-1.51-.08-2.14-.61-2.11-2.27.09-4.19,0-4,4.17-3.76,3.48.24,7,.1,10.48.09,1.16,0,1.64-.69,1.65-1.82,0-1.37-1-1-1.74-1-2.62,0-5.24,0-7.86,0-3,0-5.52-1-6.56-4-1.16-3.27-1.26-6.64,1.18-9.53a5.59,5.59,0,0,1,4.47-2C251.49,198.44,253.92,198.43,256.36,198.43Z"/><path class="cls-1" d="M122.72,164c0-3.56,0-7.11,0-10.66,0-1.19.37-1.7,1.61-1.63,1.5.08,3,0,4.49,0,.77,0,1.42.13,1.47,1,.08,1.31.68,1,1.44.57a17.57,17.57,0,0,1,9.18-2c3.89.18,6.43,2.2,6.78,6.06.54,6,.12,11.95.21,17.93,0,.81-.4,1.08-1.16,1.07-2,0-4,0-6,0-1.29,0-1.16-.85-1.16-1.65,0-4.49,0-9,0-13.46,0-2.78-.57-3.29-3.33-3-5.21.44-5.21.44-5.21,5.55,0,3.67,0,7.35,0,11,0,1.22-.39,1.65-1.61,1.59-1.75-.08-3.5-.08-5.24,0-1.17.05-1.51-.44-1.49-1.53C122.74,171.2,122.72,167.59,122.72,164Z"/><path class="cls-1" d="M212.31,210.74c0,3.43-.07,6.86,0,10.28,0,1.52-.51,2-1.94,1.89a35.89,35.89,0,0,0-3.74,0c-1,0-1.85,0-2.07-1.29s-.88-.45-1.35-.22a16.71,16.71,0,0,1-10.66,1.77,6.17,6.17,0,0,1-5.29-6.07c0-5.74,0-11.47,0-17.2,0-1.15.35-1.54,1.5-1.48a50.69,50.69,0,0,0,5.23,0c1.3-.07,1.55.48,1.54,1.64-.05,4.61,0,9.22,0,13.83,0,2.3.21,2.51,2.41,2.53,5.94.06,6.08-.08,6.08-5.92,0-3.49,0-7,0-10.47,0-1.21.38-1.67,1.61-1.61,1.74.09,3.49.08,5.23,0,1.14,0,1.53.34,1.52,1.49C212.27,203.51,212.3,207.13,212.31,210.74Z"/><path class="cls-1" d="M175.48,170c4,0,7.45.06,10.87,0,1.3,0,1.69.36,1.69,1.68,0,4.69.06,4.69-4.66,4.69-5.5,0-11-.05-16.48,0-1.51,0-1.73-.54-1.92-1.92-.48-3.41.9-5.71,3.46-7.82a71.27,71.27,0,0,0,8.45-8.48h-7.37c-4.56,0-4.51,0-4.51-4.55,0-1.44.41-1.94,1.91-1.92q9.65.1,19.28,0c1.35,0,1.71.37,1.88,1.76a8,8,0,0,1-3.32,7.86C181.63,163.83,178.85,166.8,175.48,170Z"/><path class="cls-1" d="M83.75,151.71c2.24,0,4.49,0,6.73,0,1.06,0,1.38.39,1.44,1.42.31,5,.33,5-4.75,5H80.25c-1.59,0-2.42.64-2.36,2.37.08,2.49.07,5,0,7.47-.05,1.69.72,2.34,2.35,2.38a63.91,63.91,0,0,0,9.88-.55c1.53-.2,1.93.27,1.78,1.63a5.23,5.23,0,0,0,0,.56c0,4.13,0,4.07-4.08,4.29-3.54.19-7.08.49-10.64.42-5-.1-7.5-2.59-7.5-7.5q0-5,0-9.91c0-4.73,2.56-7.41,7.32-7.58C79.26,151.65,81.5,151.71,83.75,151.71Z"/><path class="cls-1" d="M109.37,201.19c2.94-2.18,5.7-3.47,9-3.3,1.12.05,1.55.41,1.49,1.54a38.55,38.55,0,0,0,0,4.3c.07,1.2-.45,1.51-1.54,1.44a19.27,19.27,0,0,0-6.83.77,1.75,1.75,0,0,0-1.46,2c.06,4.36,0,8.73,0,13.09,0,1.5-.48,2-1.93,1.9-1.61-.1-3.24-.06-4.86,0-1.09,0-1.57-.32-1.57-1.49q0-10.75,0-21.5c0-1.13.37-1.58,1.52-1.5a18,18,0,0,0,3.36,0C108.49,198.19,109.66,198.68,109.37,201.19Z"/><path class="cls-1" d="M122.87,210.53c0-3.55,0-7.1,0-10.65,0-1.15.37-1.55,1.5-1.47s2.24,0,3.36,0c1.3,0,2.81-.46,2.82,1.8,0,1,.75.4,1.18.11a12.55,12.55,0,0,1,7.67-2.46c1.23.05,1.72.47,1.59,1.66,0,.18,0,.37,0,.56,0,1.55.45,3.45-.27,4.56-.82,1.26-2.87.28-4.37.51-.18,0-.37,0-.56.05-4.68.71-4.68.71-4.68,5.39,0,3.48-.05,7,0,10.46,0,1.33-.28,1.94-1.74,1.84a50,50,0,0,0-5,0c-1.15,0-1.5-.43-1.48-1.54C122.9,217.75,122.87,214.14,122.87,210.53Z"/><path class="cls-1" d="M162.12,164.55c0,3.36-.05,6.72,0,10.08,0,1.26-.32,1.81-1.67,1.72a33.09,33.09,0,0,0-4.67,0c-1.52.11-2.06-.37-2-2,.09-4.47,0-9,.06-13.43,0-1.46-.42-2.08-1.89-1.86-1.31.21-1.7-.37-1.71-1.67,0-4.67-.09-4.67,4.66-4.67,1.8,0,3.62.1,5.41,0,1.55-.12,1.88.51,1.85,1.92C162.06,158,162.12,161.25,162.12,164.55Z"/><path class="cls-1" d="M154.3,211.1c0,3.37-.05,6.74,0,10.1,0,1.32-.42,1.77-1.71,1.71a46.54,46.54,0,0,0-4.87,0c-1.32.07-1.7-.45-1.69-1.73.07-4.55,0-9.1.05-13.65,0-1.3-.21-2.09-1.71-1.86s-1.72-.53-1.72-1.83c0-4.65,0-4.65,4.68-4.65,1.68,0,3.37.08,5,0,1.42-.08,2,.3,1.93,1.85C154.22,204.37,154.3,207.74,154.3,211.1Z"/><path class="cls-1" d="M157.91,150.14c-4.12,0-4.12,0-4.11-4.13,0-2.53,0-2.53,2.54-2.54,1.43,0,2.87.05,4.3,0,1.16-.05,1.59.45,1.48,1.55,0,.31,0,.62,0,.94C162.13,150.14,162.13,150.14,157.91,150.14Z"/><path class="cls-1" d="M150.07,196.69c-4,0-4,0-4-4.05,0-2.58,0-2.59,2.64-2.59,1.37,0,2.74,0,4.11,0,1.15,0,1.59.43,1.47,1.54a7.35,7.35,0,0,0,0,.94C154.31,196.69,154.31,196.69,150.07,196.69Z"/><path class="cls-2" d="M61.81,209.62c0,1.65,0,2.89,0,4.14,0,1-.23,1.52-1.33,1.53-1.61,0-3.23.17-4.84.18a1.73,1.73,0,0,1-1.94-2c0-2.24,0-4.48,0-6.71,0-1.35.54-2.15,2-2,.25,0,.5,0,.75,0,1.71.14,3.9-.76,5,.38S61.64,208.36,61.81,209.62Z"/><path class="cls-2" d="M174.55,209.61c0,.79,0,1.29,0,1.78-.09,4.77.71,3.52-4,4.1a2.29,2.29,0,0,1-.37,0c-3.46.05-3.59-.08-3.6-3.45,0-1.8,0-3.61,0-5.41,0-1.36.59-1.95,1.92-1.87.31,0,.63,0,.94,0,1.6.08,3.67-.67,4.69.29S174.36,208.25,174.55,209.61Z"/><path class="cls-2" d="M234.7,163.57c0,1.12-.09,2.25,0,3.36.16,1.59-.37,2.46-2,2.58a34.6,34.6,0,0,1-4.45.48c-1.36-.05-2.08-.63-2.07-2.05,0-2.61,0-5.23,0-7.84a1.64,1.64,0,0,1,1.78-1.9c1.87,0,3.74,0,5.61,0,.93,0,1.16.5,1.15,1.31,0,1.37,0,2.74,0,4.11Z"/><path class="cls-2" d="M54,161.39c-.5,0-1,0-1.49,0-1.08,0-2.32.32-2.18-1.56.11-1.57.42-2.7,2.32-2.59.93,0,1.86,0,2.8,0,2.14,0,3.07,1.36,2.47,3.44-.19.66-.61.69-1.12.69Z"/><path class="cls-2" d="M255.07,164c0-1.37,0-2.75,0-4.12a1.92,1.92,0,0,1,2.09-2.26c1.62-.06,3.25-.06,4.87,0,1.42.05,2.1.8,2.07,2.29-.06,2.74,0,5.49,0,8.23,0,1.46-.56,2.22-2.09,2.19-1.68,0-3.37,0-5.05,0a1.65,1.65,0,0,1-1.86-1.84C255.06,167,255.07,165.53,255.07,164Z"/><path class="cls-2" d="M105.65,170.08a11.78,11.78,0,0,1-2.23-.16c-.91-.25-.89-1.11-.81-1.87a1.54,1.54,0,0,1,1.68-1.41c1.62,0,3.25,0,4.87,0,.71,0,1.41-.06,1.35,1,0,.8.16,1.68-1,1.89A17,17,0,0,1,105.65,170.08Z"/><path class="cls-2" d="M84.43,216.78c-1.69,0-2.76-.15-2.83-1.73s1-1.75,2.19-1.72c1.49,0,3,0,4.47,0,.63,0,1.29-.05,1.27.9,0,.78.19,1.64-1,1.81C87,216.27,85.46,216.59,84.43,216.78Z"/><path class="cls-2" d="M201.08,170.1a10,10,0,0,1-2.2-.25c-.77-.25-.8-1-.73-1.73a1.54,1.54,0,0,1,1.63-1.47c1.68-.07,3.36,0,5,0,.67,0,1.27,0,1.23.95s.22,1.71-.91,1.93A15.45,15.45,0,0,1,201.08,170.1Z"/><path class="cls-2" d="M228.33,203.8c.5,0,1,0,1.49,0a2.52,2.52,0,0,1,2,3.76c-.32.55-.85.43-1.32.44-1.48,0-3,0-4.46,0-.76,0-1.74.24-1.67-1.08s-.36-2.65,1.39-3a18.47,18.47,0,0,1,2.59-.18Z"/></svg>