<svg id="Logos_Patrocinadores_Web" data-name="Logos Patrocinadores Web" xmlns="http://www.w3.org/2000/svg" viewBox="0 0 300 300"><defs><style>.cls-1{fill:#8f8fa3;}</style></defs><path class="cls-1" d="M98.73,166.71a2.89,2.89,0,0,1-2.85-1.36l-8.6-14.08c-.52-.84-1.08-1.67-1.62-2.5-1.12-1.74-.71-3.21,1.2-4.2,3.08-1.61,6.19-3.18,9.27-4.81q6.2-3.28,12.36-6.64c1.39-.75,2.68-1.67,4.13-2.31a5.22,5.22,0,0,1,2.81-.38,67,67,0,0,1,7.59,1.81,5.36,5.36,0,0,1,2.62,1.82,72.34,72.34,0,0,1,4,6.45,2.86,2.86,0,0,1,.25,2c-.68,2.63-1.41,5.25-2.32,7.82a4.21,4.21,0,0,1-1.84,2.06c-3.1,1.74-6.31,3.31-9.46,5q-6.09,3.22-12.14,6.52c-1.46.79-2.88,1.64-4.34,2.43A6.21,6.21,0,0,1,98.73,166.71Z"/><path class="cls-1" d="M187.23,130c1.46.72,2.93,1.39,4.36,2.15,2.76,1.47,5.48,3,8.24,4.49q7.46,4,14.93,8c1.72.93,2.18,2.39,1.21,4-1.68,2.73-3.41,5.44-5.1,8.17s-3.26,5.33-4.87,8c-1.3,2.18-2.51,2.54-4.88,1.29-4.7-2.47-9.37-5-14.05-7.49-3.79-2-7.55-4.1-11.37-6.1a3.61,3.61,0,0,1-1.9-2.2c-.8-2.6-1.55-5.22-2.22-7.84a2.55,2.55,0,0,1,.21-1.78c1.32-2.28,2.67-4.57,4.2-6.75a4.69,4.69,0,0,1,2.37-1.61c2.53-.74,5.13-1.27,7.71-1.87a8.48,8.48,0,0,1,1-.15Z"/><path class="cls-1" d="M137.46,76.86q0-6.94,0-13.89c0-2.08.95-2.95,3.3-3h20c2.32,0,3.27.89,3.27,3,0,9.22,0,18.44,0,27.67a3.38,3.38,0,0,1-1.2,2.69c-1.94,1.73-3.75,3.6-5.74,5.28a4.75,4.75,0,0,1-2.6,1c-2.53.13-5.07.11-7.61,0a4.14,4.14,0,0,1-2.39-.87q-3.3-2.84-6.33-5.91a3.23,3.23,0,0,1-.7-2.12C137.43,86.12,137.46,81.49,137.46,76.86Z"/><path class="cls-1" d="M130.67,68.48v4.64a50.67,50.67,0,0,0-5.48,2.23,107.78,107.78,0,0,0-10.65,6.22A51.7,51.7,0,0,0,102,94.15a51.68,51.68,0,0,0-9.19,39.08,1.25,1.25,0,0,1-.88,1.56c-1,.45-2,1-3.29,1.66-.34-2.37-.77-4.56-1-6.77a54.81,54.81,0,0,1,4.84-28.09,59.76,59.76,0,0,1,7.67-12.39,63.61,63.61,0,0,1,14.29-12.87A65.1,65.1,0,0,1,127,70.06C128.18,69.59,129.33,69.05,130.67,68.48Z"/><path class="cls-1" d="M170.78,68.47c2,.83,3.77,1.49,5.47,2.26a72.09,72.09,0,0,1,8.06,3.87A81.43,81.43,0,0,1,194,81.48a55.59,55.59,0,0,1,10.88,12.39,57.29,57.29,0,0,1,8.53,21.79,55.91,55.91,0,0,1-.27,19.48,12.26,12.26,0,0,1-.34,1.24c-1.33-.68-2.55-1.25-3.67-1.94-.27-.16-.33-.74-.31-1.11.22-2.85.66-5.69.7-8.54a48,48,0,0,0-2.75-16.64,54.11,54.11,0,0,0-6.29-12.62,57.91,57.91,0,0,0-12-12.85A53.32,53.32,0,0,0,178,76.31c-2.14-1-4.37-1.91-6.53-2.9a1.18,1.18,0,0,1-.67-.79C170.74,71.35,170.78,70.08,170.78,68.47Z"/><path class="cls-1" d="M192.65,168.68c-3.43,3.23-7.43,5.38-11.43,7.59-6.87,3.81-14.46,5.58-22.3,6.78a48,48,0,0,1-12.83.46c-8.31-.94-16.48-2.52-23.89-6.2-3.59-1.78-6.93-4-10.32-6.07a29.91,29.91,0,0,1-3-2.54c1.31-.69,2.48-1.38,3.74-1.91.3-.13,1,.17,1.31.42a64.29,64.29,0,0,0,17.21,8.9,61.07,61.07,0,0,0,36.17,1,53.23,53.23,0,0,0,14.56-6c2-1.26,4-2.64,6-4a1.31,1.31,0,0,1,1.61-.14C190.41,167.52,191.49,168.06,192.65,168.68Z"/><path class="cls-1" d="M204.79,132c-1.36-.7-2.62-1.27-3.78-2-.31-.18-.39-.79-.4-1.2-.12-3.58.09-7.2-.35-10.74a40.65,40.65,0,0,0-5.71-16,48.85,48.85,0,0,0-11.63-13.14A46,46,0,0,0,172,82.54a1.63,1.63,0,0,1-1.2-1.71c.06-1.07,0-2.15,0-3.44a47.62,47.62,0,0,1,18.09,10.7C204.21,102.25,206.91,119.55,204.79,132Z"/><path class="cls-1" d="M116.72,164.36c1.37-.71,2.53-1.36,3.75-1.92a1.54,1.54,0,0,1,1.15.07A23.7,23.7,0,0,1,124.1,164c5.05,3.33,10.87,4.93,16.87,6.27a44.23,44.23,0,0,0,16.48.61,55.32,55.32,0,0,0,19-6.15c1.12-.63,2.1-1.45,3.23-2.06a2.23,2.23,0,0,1,1.59-.07c.9.33,1.7.89,2.59,1.29s.79.88,0,1.31c-2.64,1.52-5.25,3.08-7.95,4.52-8,4.25-16.7,5.79-25.82,5.75a53.1,53.1,0,0,1-21.85-4.4c-3.77-1.71-7.24-4-10.84-6A4.41,4.41,0,0,1,116.72,164.36Z"/><path class="cls-1" d="M96.68,132c-.12-.94-.23-1.69-.31-2.44a46.89,46.89,0,0,1,2.78-21.69,49.1,49.1,0,0,1,6.6-12.11,47.6,47.6,0,0,1,14.4-13.19c2.8-1.63,5.74-3,8.63-4.53a15.48,15.48,0,0,1,2-.69,28.3,28.3,0,0,1-.06,3.94c-.07.46-.73,1-1.25,1.25-2.81,1.56-5.87,2.82-8.47,4.63a46.59,46.59,0,0,0-16.9,20.67,44.29,44.29,0,0,0-3.17,21.05,1.22,1.22,0,0,1-.79,1.4C99,130.82,97.94,131.38,96.68,132Z"/><path class="cls-1" d="M232.14,226c-.41,1.46-.71,2.68-1.12,3.87-.11.34-.51.84-.8.85-6.7.37-13.39.77-20.1,1a7.79,7.79,0,0,1-7-3.94c-.31,1.13-.5,2-.83,2.88a1.32,1.32,0,0,1-.87.72c-4.48,0-8.95,0-13.58,0,1.58-6.21,3.13-12.3,4.74-18.67a32,32,0,0,0-3.34.36c-.31.06-.6.61-.7,1-.67,2.52-1.28,5-1.92,7.56-.76,3-1.56,5.93-2.26,8.91-.18.77-.61.87-1.34.87-3.74,0-7.51.21-11.23-.06-5.32-.39-10.56.48-15.85.41-.47,0-.95,0-1.42,0-4.5.07-5.41-.21-8.68-2.67-.08,0-.21.07-.21.12-.18,1.92-1.59,2.23-3.41,2.23-2.4,0-4.82.29-7.21.17a6.71,6.71,0,0,1-6.23-4.16c-.06-.13-.21-.22-.39-.42-.41,1.49-.8,2.88-1.19,4.33-4,0-8,.39-11.85-.15-2.32-.33-4.2.53-6.33.53-3,0-6,.21-8.65-1.54-.35,1.13-1.31,1.13-2.31,1.16-3.23.11-6.45.34-9.68.4s-6.11-.77-7.75-3.5a7.24,7.24,0,0,1-.84-5.83c-1-.1-1.37.37-1.56,1.15-.51,2.11-1.06,4.21-1.68,6.29a1.53,1.53,0,0,1-1,.87c-6.31.38-12.62.78-18.94,1a8.22,8.22,0,0,1-7.91-4.07c-.32,1.14-.5,2.05-.83,2.91-.12.31-.56.74-.85.74-4.44,0-8.87,0-13.31,0-.07,0-.14-.07-.25-.12q2.25-8.85,4.5-17.73c-1.53-.2-2,.26-2.31,1.4-.91,3.89-2,7.74-3,11.6-.35,1.35-.62,2.72-1,4.05a1.39,1.39,0,0,1-1,.8c-4.31.05-8.62,0-12.92,0a2.81,2.81,0,0,1-.54-.16c1.49-5.87,3-11.75,4.5-17.71-1.38-.18-2.05.11-2.34,1.3-1.33,5.5-2.75,11-4.15,16.52H.88c1.37-5.46,2.71-10.91,4.1-16.34,1.07-4.17,2.19-8.33,3.33-12.49a1.16,1.16,0,0,1,.87-.59c3.66,0,7.32,0,11,0,.21,0,.55,0,.6.12.47,1,1,.44,1.75.23,2.77-.78,5.63-1.29,8.5-.44a26.09,26.09,0,0,1,2.77,1.34,2.32,2.32,0,0,0,1.46.14,30.57,30.57,0,0,1,7.38-1.83c4.67-.44,8.24,1.1,10.18,5.06,1.25-1,2.47-2.07,3.8-3a11,11,0,0,1,6.4-2.07c3.7,0,7.4,0,11.11,0a9.66,9.66,0,0,1,7,3.2c.13-.15.23-.22.25-.3.24-.74.23-1.73.77-2.15s1.62-.16,2.44-.32a1.59,1.59,0,0,0,1-.72c.65-1.26,1.17-2.57,1.82-3.82a1.39,1.39,0,0,1,1-.69c3.91-.05,7.83,0,11.75,0a2.38,2.38,0,0,1,.5.15l-1.29,5.12c1.76,0,3.29,0,4.82,0,.41,0,.78.4,1.2.5a5,5,0,0,0,1.66.19c1.13-.12,2.25-.47,3.38-.53,4.85-.24,9.71-.53,14.57-.57,3.25,0,5.46,1.75,7,4.22a6.37,6.37,0,0,0,.41.55c.32-1.1.63-2,.87-2.94.72-2.85,1.39-5.72,2.14-8.57.09-.33.57-.83.88-.84,4.47-.05,8.95,0,13.63,0-2.24,8.81-4.45,17.49-6.67,26.2,1.21.34,1.89.25,2.17-.94.65-2.75,1.43-5.48,2.16-8.22,1.07-4,3.69-6.73,8-8.26a15.18,15.18,0,0,1,5.24-.77c5,0,10.08,0,15.12,0,1,0,1.6-.18,1.8-1.25a59.3,59.3,0,0,1,1.55-6,1.3,1.3,0,0,1,.94-.78c4.31-.05,8.61,0,12.92,0a2.94,2.94,0,0,1,.56.15l-1.9,7.52c.38,0,.7,0,1,0,1.72-.07,3.44-.17,5.16-.23,4.47-.15,7.67,1.53,9.43,5.44,1.43-2.16,3.61-3.4,5.84-4.54a6.82,6.82,0,0,1,2.71-.68c4.34-.1,8.69-.21,13-.1a8.11,8.11,0,0,1,7.54,4.75,5.29,5.29,0,0,0,.27.47c1.62-1.13,3.12-2.38,4.82-3.33a12.07,12.07,0,0,1,6.21-1.52c5.29.07,10.59,0,15.88,0,1.15,0,1.58-.33,1.79-1.32.48-2.22,1.1-4.42,1.67-6.65h14.3c-1.24,4.83-2.45,9.58-3.67,14.32l.27.13c.52-.52,1.07-1,1.57-1.58,1.35-1.5,2.68-3,4-4.49a1.37,1.37,0,0,1,.85-.41c5.07,0,10.14,0,15.5,0a8.07,8.07,0,0,1-.71,1.2c-3.17,3.54-6.37,7-9.54,10.59a28.25,28.25,0,0,0-2.27,2.79,1.57,1.57,0,0,0-.08,1.28c1.4,4.29,2.84,8.57,4.25,12.85a4.15,4.15,0,0,1,.07.8h-4.67c-3,0-5.95,0-8.92,0-.84,0-1.24-.24-1.46-.94-.64-2-1.32-4-2-6a2.6,2.6,0,0,0-.67-1.1,9.21,9.21,0,0,0-.4,1.11c-.51,1.95-1.06,3.89-1.46,5.87-.18.93-.7,1-1.59,1-3.83,0-7.68.22-11.49-.07-5.16-.38-10.23.52-15.35.42-1.51,0-3,0-4.51-.09-3.37-.27-5.69-1.79-6.69-4.76C232.44,226.62,232.34,226.42,232.14,226ZM33.59,206.77a5.48,5.48,0,0,0-5.12-2.63,24.53,24.53,0,0,0-5.32.74c-1.67.4-3.27,1.08-5,1.66a2,2,0,0,1-.14-.62c.22-1.13-.4-1.39-1.53-1.34a42.41,42.41,0,0,1-4.51,0c-1.24-.08-1.61.44-1.85,1.42-1.31,5.34-2.69,10.67-4,16l-1.7,6.82h6.42c2.08,0,2.06,0,2.51-1.79,1.2-4.77,2.39-9.55,3.66-14.31a2,2,0,0,1,1.12-1.31,36.62,36.62,0,0,1,5.34-.69,1.2,1.2,0,0,1,1.39,1.61c-1,3.83-2,7.65-3,11.48-.41,1.6-.76,3.21-1.18,5h5.74c2.63,0,2.62,0,3.19-2.2,1.22-4.77,2.43-9.54,3.7-14.29a1.57,1.57,0,0,1,1-.91,38.71,38.71,0,0,1,4.42-.7c2.23-.21,2.75.38,2.24,2.32q-1.66,6.36-3.31,12.71c-.25,1-.43,1.93-.68,3.06,2.7,0,5.23,0,7.76,0,.3,0,.76-.56.86-.92,1.43-5.4,2.85-10.8,4.19-16.21a12.94,12.94,0,0,0,.31-3.56A3.71,3.71,0,0,0,47,204.53a15.64,15.64,0,0,0-4.32-.32A23.19,23.19,0,0,0,33.59,206.77ZM188,204.91c.67-2.73,1.31-5.32,2-8h-8.44c-2.71,10.62-5.41,21.14-8.15,31.86,2.78,0,5.34,0,7.91,0a1.08,1.08,0,0,0,.72-.65c.65-2.32,1.24-4.65,1.84-7,.84-3.27,1.66-6.54,2.54-9.79a1.33,1.33,0,0,1,.94-.7c2-.21,3.93-.4,5.9-.46,2.34-.08,2.77.43,2.27,2.46-.75,3-1.55,6-2.31,9-.59,2.32-1.17,4.63-1.8,7.15,2.52,0,4.83,0,7.14,0,.93,0,1.38-.22,1.59-1.08,1.44-5.72,3-11.4,4.39-17.12,1-4-1.29-6.48-5.85-6.53-1.46,0-2.93,0-4.38.15C192.29,204.4,190.3,204.66,188,204.91ZM75.47,222.82c-.75,0-1.3,0-1.85,0-4,.17-7.91.37-11.86.52-1.48,0-2.06-.38-2-1.36,0-1.72.52-2.26,2.05-2.26,4.65,0,9.3,0,13.94,0,1.11,0,1.65-.17,1.88-1.31.47-2.47,1.2-4.89,1.85-7.32,1.17-4.32-1.07-7-6-7-3.27,0-6.54-.06-9.81,0a11.08,11.08,0,0,0-5.71,1.55c-2.55,1.57-3.48,3.92-4.14,6.43-.57,2.17-1.17,4.34-1.7,6.52a37.13,37.13,0,0,0-1.12,5.45c-.26,3.09,1.72,5.07,5.15,5.11,4,0,8-.14,12-.29,1.72-.07,3.43-.29,5.13-.52a1.38,1.38,0,0,0,1-.67C74.68,226.13,75,224.55,75.47,222.82Zm154.45,0c-.7,0-1.25,0-1.79,0-3.95.17-7.91.37-11.86.52-1.51.06-2.08-.35-2.07-1.33,0-1.64.58-2.29,2-2.29,4.7,0,9.39,0,14.09,0,1,0,1.51-.2,1.73-1.2.55-2.54,1.28-5,1.93-7.55,1.09-4.14-1.11-6.78-5.85-6.89-3.4-.08-6.81-.07-10.21,0-4.65.1-8.18,2.55-9.24,6.45-1.14,4.15-2.2,8.32-3.22,12.5a4.83,4.83,0,0,0,5,6.11c4.08,0,8.17-.16,12.26-.32,1.63-.06,3.25-.27,4.87-.48.39-.05,1-.32,1.07-.59C229.16,226.18,229.5,224.55,229.92,222.81Zm58,6a18.64,18.64,0,0,0-.45-2c-1.05-3.13-2.15-6.25-3.19-9.39a1.93,1.93,0,0,1-.07-1.41,13.86,13.86,0,0,1,1.72-2.15l7.16-8c.29-.31.54-.64,1-1.2-2.63,0-4.94.07-7.25,0a3.07,3.07,0,0,0-2.71,1.2c-1.61,1.89-3.48,3.63-4.91,5.62s-3.36,1.72-5.54,1.51l4.08-16.05c-2.78,0-5.35,0-7.92,0-.25,0-.62.47-.71.78-.45,1.64-.82,3.31-1.25,5-1.91,7.34-3.85,14.69-5.76,22-.33,1.3-.57,2.62-.9,4.12,2.74,0,5.3,0,7.87,0a.91.91,0,0,0,.64-.55c.62-2.25,1.22-4.5,1.76-6.76.7-2.94.32-2.33,3.47-2.4.05,0,.1,0,.13,0,.36.26.93.46,1,.78,1,2.72,1.81,5.47,2.74,8.19.1.3.49.73.76.74C282.31,228.81,285,228.79,287.9,228.79Zm-170.41-2.38a6.72,6.72,0,0,1,.07,1.15c-.14.95.25,1.31,1.35,1.27,1.67-.07,3.35,0,5,0,.76,0,1.15-.22,1.33-.94,1.33-5.33,2.75-10.64,4-16a12.33,12.33,0,0,0,.32-4.23c-.23-2.19-2.51-3.65-5.68-3.54-5.24.17-10.47.54-15.7.86a1,1,0,0,0-.75.45c-.48,1.66-.89,3.35-1.37,5.22l2.35-.13,10.69-.54c1.08,0,1.77.33,1.75,1.38,0,1.4-.54,2-1.74,2h-8.65a8.93,8.93,0,0,0-5.13,1.28c-4,2.7-5.12,6.51-4.82,10.76a4.15,4.15,0,0,0,3.36,3.56c4,.55,7.95.31,11.54-1.67C116,227,116.68,226.76,117.49,226.41Zm53.39-3.8c-.61,0-.95,0-1.28,0-3.66.17-7.3.36-11,.52-2.29.1-2.78-.42-2.29-2.44q.9-3.78,1.88-7.55c.53-2,1.15-2.47,3.47-2.48,3.7,0,7.4,0,11.1,0,.44,0,1.15-.33,1.25-.63.53-1.72.92-3.48,1.37-5.28a5.54,5.54,0,0,0-.79-.11c-5.21,0-10.42-.11-15.62,0-5,.15-7.59,3-8.75,6.77-.9,2.94-1.64,5.91-2.33,8.89a25.22,25.22,0,0,0-.61,4.57,4.27,4.27,0,0,0,4.13,4.16c5.79-.19,11.58-.46,17.37-.72.24,0,.63-.22.68-.4C170,226.22,170.4,224.5,170.88,222.61Zm87.69-.07c-2.22.14-4.09.29-6,.37-2.36.1-4.73.19-7.09.21-1.34,0-1.67-.37-1.6-1.56a5.53,5.53,0,0,1,.18-1.14c.63-2.44,1.26-4.88,1.91-7.31.56-2.11,1-2.44,3.46-2.45,3.7,0,7.4,0,11.1,0,.4,0,1.07-.2,1.14-.42.54-1.8,1-3.63,1.46-5.54-.58,0-1-.08-1.33-.08-4.69,0-9.38,0-14.08,0-5.24,0-8.43,2.27-9.75,6.84-.7,2.42-1.33,4.86-1.94,7.3a44.94,44.94,0,0,0-1.12,5.22,4.56,4.56,0,0,0,4.82,5.16c5.58-.12,11.16-.49,16.74-.79a1,1,0,0,0,.74-.49C257.7,226.17,258.09,224.48,258.57,222.54ZM97.08,199c-2.5,0-4.65,0-6.79,0a1.47,1.47,0,0,0-1,.7A22.8,22.8,0,0,0,88,202.93a2.1,2.1,0,0,1-2.55,1.7c-.41,0-1.19.21-1.27.46-.53,1.77-.93,3.57-1.4,5.48l2.77.19a6.7,6.7,0,0,1-.12.83c-.7,2.78-1.46,5.55-2.11,8.34a32.18,32.18,0,0,0-.78,4.78,4.4,4.4,0,0,0,4.2,4.35c3.4,0,6.79-.07,10.18-.16a1.13,1.13,0,0,0,.85-.55c.48-1.73.88-3.49,1.33-5.37-2,0-3.85,0-5.69,0-1.61,0-2.18-.57-1.84-2q1.16-4.8,2.5-9.55a1.51,1.51,0,0,1,1.12-.77c1.41-.09,2.84,0,4.25-.07a1.32,1.32,0,0,0,1-.58c.5-1.74.89-3.5,1.36-5.46-1.64,0-3.14,0-4.63,0-1.11,0-1.47-.29-1.17-1.3C96.39,201.94,96.68,200.55,97.08,199Zm49.13-2.12c-2.37,0-4.64.08-6.89,0-1.26-.06-1.76.36-2,1.39q-2,8.06-4.05,16.11c-.76,3-1.57,6-2.29,9a4.73,4.73,0,0,0,4.31,5.76,57.62,57.62,0,0,0,6.82-.16.91.91,0,0,0,.66-.45c.48-1.77.91-3.56,1.37-5.42l-1.4,0c-.38,0-.77,0-1.16,0-1.24-.1-1.66-.54-1.56-1.66a6.49,6.49,0,0,1,.2-1.14q1.77-7,3.57-14C144.57,203.15,145.37,200.09,146.21,196.84Zm13.12,23.65c4.5-.32,8.77-.61,13-.93a.87.87,0,0,0,.61-.49c.5-1.89,1-3.8,1.44-5.85-4.36,0-8.53,0-12.69,0-.27,0-.68.41-.77.7-.33,1.07-.54,2.17-.81,3.26S159.64,219.23,159.33,220.49Zm87.73,0c4.51-.31,8.71-.59,12.9-.9a.88.88,0,0,0,.66-.43c.53-1.92,1-3.85,1.52-5.86H248.87C248.28,215.63,247.7,217.91,247.06,220.48Zm-144.59-7.25c-2.07,0-3.81,0-5.55,0a.93.93,0,0,0-.69.5c-.55,2.08-1,4.16-1.58,6.41,1.08,0,2.06,0,3,0a.94.94,0,0,0,.71-.49A15,15,0,0,1,102.47,213.23Z"/><path class="cls-1" d="M174.82,239.87c-.3,1-.61,2-.88,3.08-.41,1.51-.53,1.58-2.54,1.19.47-1.82.93-3.64,1.41-5.46a6.31,6.31,0,0,0,.37-1.22c.07-1.17.79-1.54,1.94-1.29a1.67,1.67,0,0,1,1.06.71c.53,1.21.92,2.47,1.5,4.05.37-1.31.68-2.29.93-3.27.41-1.66.39-1.66,2.5-1.4a4,4,0,0,1-.05.85c-.57,2.1-1.17,4.19-1.74,6.28-.15.55-.29,1-1.14,1s-1.55.09-1.84-.84c-.37-1.22-.82-2.42-1.24-3.63Z"/><path class="cls-1" d="M192.43,244.14c.47-1.83.91-3.67,1.43-5.49.26-.93,1.14-.55,1.83-.53.45,0,.9,0,1.36.07.9.06,1.8.13,2.7.17a5.16,5.16,0,0,0,1-.06c.59-.09,1.17-.28,1.76-.31,1.45-.09,2,.46,1.69,1.76s-.63,2.47-.92,3.72-1.39.74-2.42.82c.4-1.57.77-3,1.17-4.56-1.26-.18-2.19-.32-2.3,1.06a11.78,11.78,0,0,1-.57,2.13c-.47,1.58-.54,1.61-2.47,1.24l1.07-4.34c-1.69-.4-1.88-.3-2.23,1-.2.75-.42,1.49-.66,2.23C194.37,244.48,194.28,244.52,192.43,244.14Z"/><path class="cls-1" d="M125.64,244.16l1.14-4.32c-1.74-.43-2-.32-2.31,1-.18.72-.33,1.44-.54,2.14-.45,1.47-.56,1.52-2.5,1.19l1.11-4.31c-1.61-.47-1.89-.35-2.25.93-.21.75-.38,1.51-.62,2.25-.47,1.43-.53,1.45-2.45,1.12.48-1.86.9-3.73,1.51-5.55.1-.29,1-.42,1.6-.49a8.55,8.55,0,0,1,1.75,0c.82.05,1.64.15,2.45.22a3.37,3.37,0,0,0,.84,0c.55-.1,1.07-.3,1.62-.36,1.66-.17,2.25.39,1.93,1.84-.21,1-.52,1.95-.75,2.93C127.76,244.5,127.67,244.55,125.64,244.16Z"/><path class="cls-1" d="M259.57,238.05c-.69,2.43-1.2,4.68-2,6.85a2.89,2.89,0,0,1-2,1.37,28.37,28.37,0,0,1-4.33.06c-.17-1.27.19-1.73,1.37-1.58a9.36,9.36,0,0,0,2.05,0,3.4,3.4,0,0,0,1-.44l-.16-.39c-.65,0-1.31.08-2,.09-1.69,0-2.21-.52-1.83-2,.11-.41.27-.81.38-1.22.68-2.57,1-2.8,3.9-2.81Zm-5.5,4.31c2.15.39,2.51.35,2.59-2.65C254.49,239.38,253.93,240,254.07,242.36Z"/><path class="cls-1" d="M58,244c-.8,0-1.6.12-2.4.09-1.29,0-1.73-.62-1.45-1.76l.54-2.14a2.42,2.42,0,0,1,2.41-2c1.53-.07,3.07,0,4.8,0-.21,1-.37,1.88-.59,2.75-.27,1.09-.59,2.16-.87,3.25-.45,1.72-1.31,2.34-3.27,2.28-1,0-2-.1-2.95-.17a2.94,2.94,0,0,1-.51-.13c-.2-1,.19-1.45,1.37-1.3a9.36,9.36,0,0,0,2,0,3.94,3.94,0,0,0,1.06-.41Zm1.19-4.24c-2.25-.22-2.17-.6-2.72,2.62C58.59,242.87,59.15,242.34,59.18,239.71Z"/><path class="cls-1" d="M75.26,246.16c.7-2.6,1.33-5.1,2.11-7.56.09-.28,1-.4,1.58-.48a14.66,14.66,0,0,1,1.62,0,5,5,0,0,0,.75-.15c2.14-.29,2.75.25,2.4,2.15a14.76,14.76,0,0,1-.35,1.46c-.71,2.36-1.21,2.74-3.94,2.69-1.11,0-1.7.19-1.94,1.29S76.16,246.08,75.26,246.16Zm6.12-6.48c-2.2-.2-3.1.85-2.71,3C81,243.06,81.6,242.36,81.38,239.68Z"/><path class="cls-1" d="M90.34,242.94c0,1-.45,1.4-1.48,1.39s-2.15.15-3.22.13c-1.28,0-1.83-.75-1.52-1.86.25-.85.48-1.71.71-2.57.4-1.46,1.14-2,2.79-2.06.85,0,1.72,0,2.57,0,1,.06,1.55.57,1.38,1.54,0,.27-.08.53-.14.8-.35,1.71-.46,1.8-2.39,1.8-.6,0-1.2,0-1.8,0a2.79,2.79,0,0,0-.81.37,2.85,2.85,0,0,0,.87.47,10,10,0,0,0,1.54-.05Zm-1-3.35-.29-.32a19.35,19.35,0,0,0-1.88.54c-.09,0,0,.67,0,.69a3.42,3.42,0,0,0,1.57.12C89,240.53,89.13,240,89.31,239.59Z"/><path class="cls-1" d="M46.22,244.16c.35-1.15.73-2.21,1-3.29.11-.48.6-1.27-.45-1.37-.75-.08-1.77-.35-2,.88a20.89,20.89,0,0,1-.79,2.68c-.44,1.44-.44,1.44-2.36,1.09.35-1.33.68-2.67,1-4s.7-2.6,1.07-3.94h2.06L45.51,238c1,0,1.82,0,2.66,0,1.3.06,1.74.62,1.45,1.75s-.53,2-.76,3C48.47,244.39,48.32,244.49,46.22,244.16Z"/><path class="cls-1" d="M66.45,244.12l.87-3.48c.12-.46.5-1.09-.42-1.15-.72,0-1.71-.34-2,.75-.21.9-.46,1.8-.69,2.69-.4,1.53-.55,1.61-2.51,1.21.37-1.44.75-2.89,1.12-4.34.19-.75.37-1.5.57-2.24.41-1.52.55-1.59,2.48-1.27L65.69,238h2.62c1.06,0,1.66.5,1.44,1.47a27.59,27.59,0,0,1-1.23,4.35c-.16.38-1.17.48-1.79.72Z"/><path class="cls-1" d="M218.9,244.19c.61-2.29,1.15-4.5,1.79-6.7.45-1.52.51-1.51,2.38-1.21l-.23,1.69c.63,0,1.21,0,1.78,0,2.2-.07,2.64.37,2.21,2.3-.22.94-.6,1.86-.78,2.8-.23,1.24-1,1.48-2.42,1.1.28-1.11.59-2.2.84-3.31.1-.5.6-1.24-.44-1.37-.85-.1-1.87-.22-2,1a17,17,0,0,1-.59,2.36C221,244.48,221,244.48,218.9,244.19Z"/><path class="cls-1" d="M154.31,242.58c1.07,1,2.59-.05,3.78.46.18.88-.19,1.27-1.22,1.27s-2.06.15-3.09.16c-1.44,0-2-.57-1.73-1.8a18.57,18.57,0,0,1,.86-3.13c.21-.52.78-1.23,1.29-1.3a24.48,24.48,0,0,1,4.45-.11,1.18,1.18,0,0,1,.75.91,9.61,9.61,0,0,1-.52,2.59c-.09.25-.72.46-1.12.48-1.14.06-2.28,0-3.41,0Zm3-2.93-.28-.35a15.44,15.44,0,0,0-1.93.44c-.1,0-.07.77,0,.79a3.49,3.49,0,0,0,1.56.1C156.94,240.54,157.07,240,157.28,239.65Z"/><path class="cls-1" d="M108.26,238c3.16,0,3.51.41,2.67,3.19a8.09,8.09,0,0,1-.62,1.75c-.29.49-.75,1.18-1.21,1.24a25.8,25.8,0,0,1-4.81.14c-.82-.06-1-.86-.85-1.58.26-1,.54-2,.84-3a2.35,2.35,0,0,1,2.43-1.72C107.23,238,107.74,238,108.26,238ZM107,243.11c.45-.22,1.18-.36,1.3-.67a16.06,16.06,0,0,0,.53-2.78s-.19-.13-.3-.18a1.66,1.66,0,0,0-2.29,1.08c-.11.44-.2.89-.34,1.33C105.63,242.73,106,243.05,107,243.11Z"/><path class="cls-1" d="M130.81,239.42c-.22-.89.12-1.31,1.08-1.33s2.15-.13,3.22-.11c1.28,0,1.74.5,1.52,1.62s-.61,2.48-.95,3.71c-.27,1-.94,1.23-2,1a7.17,7.17,0,0,0-1.47,0,1,1,0,0,0-.25.06c-1.54.42-2.57.14-2.85-.75a2.52,2.52,0,0,1,2-2.93c.76-.11,1.56,0,2.31-.11.33,0,.62-.36.92-.55-.3-.18-.58-.49-.9-.52C132.59,239.37,131.73,239.42,130.81,239.42Zm3,2.55a17.53,17.53,0,0,0-1.81,0,.83.83,0,0,0-.5.42c0,.09.18.41.3.41C132.5,242.86,133.33,243.08,133.79,242Z"/><path class="cls-1" d="M206.05,239.52c-.27-1,.12-1.42,1.13-1.44s2.23-.11,3.35-.09,1.51.58,1.31,1.47c-.29,1.32-.72,2.62-1,3.94-.22,1-1,1-1.84.89-.54,0-1.08,0-1.62,0a1.14,1.14,0,0,0-.25.06c-1.56.41-2.58.12-2.82-.79a2.47,2.47,0,0,1,2-2.91c.68-.1,1.39,0,2.06-.09a4,4,0,0,0,1.13-.61,3.52,3.52,0,0,0-1.08-.47A22.37,22.37,0,0,0,206.05,239.52Zm2.88,2.47a17.85,17.85,0,0,0-1.83,0c-.18,0-.35.29-.45.48s.16.31.26.32C207.67,242.85,208.55,243.12,208.93,242Z"/><path class="cls-1" d="M170.45,242.86c.13,1-.21,1.45-1.31,1.45s-2.49.16-3.74.15c-1.44,0-2.05-.68-1.78-1.94.31-1.44.66-2.87,1.11-4.28s1.31-2.05,3.1-2.09c1.33,0,2.67,0,4,0a2.25,2.25,0,0,1,.4.07c.22,1-.19,1.41-1.4,1.41-4.38,0-3.39-.56-4.51,3.11-.67,2.18-.65,2.18,1.86,2.12C168.9,242.85,169.63,242.86,170.45,242.86Z"/><path class="cls-1" d="M189.56,236.16c.08,1.09-.35,1.48-1.54,1.49-3.61,0-3.6-.75-4.34,3.08-.43,2.22-.5,2.21,2,2.13.68,0,1.36,0,2.09,0,.08.93-.22,1.46-1.39,1.45s-2.49.17-3.73.15c-1.45,0-2-.7-1.7-2,.36-1.47.72-2.93,1.17-4.38s1.16-1.9,2.79-1.94S188,236.16,189.56,236.16Z"/><path class="cls-1" d="M243.26,244.15c.5-1.9.93-3.74,1.54-5.53.1-.29,1-.43,1.56-.51a17.06,17.06,0,0,1,1.75,0c.52,0,1-.16,1.53-.16,1.42,0,1.91.51,1.63,1.73s-.68,2.69-1.1,4-1.41.31-2.27.72c.41-1.73.77-3.19,1.12-4.66-2.1-.38-2.36-.24-2.78,1.34-.16.63-.32,1.27-.51,1.9C245.32,244.46,245.26,244.48,243.26,244.15Z"/><path class="cls-1" d="M136.69,244.13l1.44-5.47c.25-.92,1.06-.56,1.69-.56s1.08.05,1.63.05a6.58,6.58,0,0,0,.75-.14c2.18-.28,2.89.38,2.41,2.3-.29,1.13-.6,2.25-1,3.36s-1.37.5-2.32.63l1.15-4.51c-2.12-.41-2.38-.27-2.78,1.27-.18.68-.37,1.35-.58,2C138.68,244.45,138.53,244.52,136.69,244.13Z"/><path class="cls-1" d="M235.76,244.13c.4-1.51.78-2.92,1.16-4.32-1.93-.47-2.31-.3-2.77,1.18-.21.66-.43,1.33-.61,2-.4,1.5-.55,1.58-2.45,1.14.48-1.82.95-3.64,1.46-5.46.24-.88,1-.58,1.7-.57s1.05.08,1.58.06c.38,0,.75-.15,1.13-.18,1.86-.13,2.39.38,2,2-.23,1-.48,2-.78,3C237.78,244.5,237.65,244.55,235.76,244.13Z"/><path class="cls-1" d="M104.85,236.1c.16,1.21-.26,1.62-1.43,1.39-.79-.15-1.57-.11-1.65,1l1.84.13c0,.84-.12,1.45-1.32,1.42a1.62,1.62,0,0,0-1.16.76,10.08,10.08,0,0,0-.63,2.11c-.42,1.61-.47,1.64-2.53,1.28.26-1,.58-1.9.75-2.86.08-.43-.25-.89-.25-1.34a3.16,3.16,0,0,1,.31-1.38c.2-.37.74-.61.92-1a2.58,2.58,0,0,1,2.43-1.61C103,236,103.91,236.05,104.85,236.1Z"/><path class="cls-1" d="M152.08,238.09c.08,1.11-.29,1.65-1.46,1.5a1.11,1.11,0,0,0-.26,0c-2.5,0-3,.41-3,2.7,0,.22.54.59.87.63a24.48,24.48,0,0,0,2.58,0c.17.94-.19,1.38-1.28,1.38s-2,.15-2.95.15c-1.27,0-1.81-.5-1.61-1.58a14,14,0,0,1,1.05-3.55,2.81,2.81,0,0,1,1.85-1.2A32.41,32.41,0,0,1,152.08,238.09Z"/><path class="cls-1" d="M219.19,238.12c.17,1.17-.29,1.5-1.42,1.49-2.93-.05-3,0-3.32,2.64,0,.2.49.63.79.66.88.09,1.78,0,2.77,0,0,.86-.23,1.42-1.41,1.39-1,0-2,.14-2.94.13-1.19,0-1.7-.51-1.52-1.53a11.49,11.49,0,0,1,.85-3.23,3,3,0,0,1,1.85-1.51A27.3,27.3,0,0,1,219.19,238.12Z"/><path class="cls-1" d="M111.3,244.18c.51-1.93,1-3.8,1.53-5.63a1.53,1.53,0,0,1,1.23-.45c1,.73,1.83,0,2.72-.08a6.46,6.46,0,0,1,.88,0c-.07,1.55-.06,1.58-1.66,1.64-.89,0-1.44.36-1.62,1.17s-.39,1.34-.56,2C113.41,244.47,113.42,244.48,111.3,244.18Z"/><path class="cls-1" d="M98,238c.08,1.2-.36,1.77-1.69,1.64a1.42,1.42,0,0,0-1.69,1.24c-.14.68-.32,1.35-.5,2-.4,1.49-.57,1.58-2.49,1.18.49-1.89.94-3.79,1.53-5.66a1.51,1.51,0,0,1,1.28-.35,3,3,0,0,0,2.47-.05A4.3,4.3,0,0,1,98,238Z"/><path class="cls-1" d="M243.43,238.27c-.42,1.71-.79,3.17-1.15,4.62s-.56,1.63-2.58,1.25c.3-1,.61-2,.88-3.08.14-.52.51-1-.4-1.45-.51-.23,0-1.29.7-1.33S242.49,238.27,243.43,238.27Z"/><path class="cls-1" d="M50.19,244.29c.37-1.34.71-2.48,1-3.64a1.84,1.84,0,0,0-.18-.9c-.09-.26-.37-.57-.29-.75a1.26,1.26,0,0,1,.79-.7,20.22,20.22,0,0,1,2.48,0l-1.35,5.26C52.27,244.84,51.19,244.18,50.19,244.29Z"/><path class="cls-1" d="M227.53,244.49c.29-1.21.52-2.06.68-2.93.14-.7.71-1.4-.24-2.1-.24-.18-.14-1.18.85-1.2h2.44c-.52,2-.93,3.84-1.59,5.64C229.55,244.23,228.42,244.26,227.53,244.49Z"/><path class="cls-1" d="M70.61,241.08c-.06-1.67,0-1.7,1.61-1.7h3.56c0,1.7,0,1.7-1.74,1.7Z"/><path class="cls-1" d="M231.78,236c-.12,1.57-.14,1.58-2.1,1.44C229.28,236.07,229.58,235.85,231.78,236Z"/><path class="cls-1" d="M241.74,237.38c-.05-1.47.09-1.56,2.09-1.34C244,237.54,243.65,237.75,241.74,237.38Z"/><path class="cls-1" d="M54.47,236.07c-.26,1.62-.37,1.68-2.26,1.31C52.36,235.87,52.47,235.8,54.47,236.07Z"/><path class="cls-1" d="M61.72,214.12a26.22,26.22,0,0,1,.75-2.87,2.34,2.34,0,0,1,2.35-1.5c1.51,0,3,0,4.51,0,1.27,0,1.69.49,1.54,1.63a10.16,10.16,0,0,1-.48,2c-.1.27-.47.67-.72.68C67.08,214.14,64.49,214.12,61.72,214.12Z"/><path class="cls-1" d="M216.28,213.88a19,19,0,0,1,.61-2.53,2.4,2.4,0,0,1,2.4-1.61c1.5,0,3,0,4.5,0,1.32,0,1.76.53,1.58,1.72a7.7,7.7,0,0,1-.58,2,1.24,1.24,0,0,1-.88.65c-2.39,0-4.79,0-7.19,0C216.61,214.09,216.5,214,216.28,213.88Z"/><path class="cls-1" d="M119,219a15.69,15.69,0,0,1-.62,2.41,1.49,1.49,0,0,1-1,.75c-1.94.32-3.9.57-5.86.77-.93.09-1.86,0-2.09-1.09a2.37,2.37,0,0,1,1.54-2.65,8.65,8.65,0,0,1,1.91-.18C114.84,219,116.81,219,119,219Z"/></svg>