<svg id="Logos_Patrocinadores_Web" data-name="Logos Patrocinadores Web" xmlns="http://www.w3.org/2000/svg" xmlns:xlink="http://www.w3.org/1999/xlink" viewBox="0 0 300 300"><defs><style>.cls-1{fill:none;}.cls-2{clip-path:url(#clip-path);}.cls-3{fill:#8f8fa3;}</style><clipPath id="clip-path"><rect class="cls-1" y="104.44" width="300" height="100.76"/></clipPath></defs><g class="cls-2"><path class="cls-3" d="M202.71,104.47q-2.09,10.08-4.2,20.17-3.7,17.73-7.45,35.45c-.45,2.14-.48,2.13-2.67,2.13-4,0-8,0-12,0-.39,0-.94.2-1.12-.27s.33-.72.59-1c2.72-3,5.61-5.94,7.79-9.42a18.12,18.12,0,0,0,2.83-7.14c.56-4-.77-7.25-3.24-10.25-7.85-9.48-20.62-5.35-25.69.75a41.86,41.86,0,0,0-8.07,16.73,42.81,42.81,0,0,0-1.52,9.48c0,.83-.42,1.19-1.25,1.18q-6.32,0-12.62-.05c-1.12,0-1.44-.58-1.37-1.59a66.08,66.08,0,0,1,1.3-8.76,43.28,43.28,0,0,0,1.2-10.15,12,12,0,0,0-4.78-9.47c-6.39-5-13.8-5.26-20.54-.78a28.36,28.36,0,0,0-8.12,8c-3.57,5.44-3.11,11.11-.85,16.86a43.28,43.28,0,0,0,2.38,4.95c.48.9.21,1.19-.74,1.18-4.91,0-9.83,0-14.74,0-1.21,0-1.25-.51-1-1.48q3.51-16.17,7-32.35c1.74-8.06,3.45-16.12,5.18-24.18Z"/><path class="cls-3" d="M299.94,105.72c-1.06,3.94-1.78,8-2.64,11.94-1.16,5.33-2.27,10.67-3.4,16-.41,1.91-.46,1.93-2.26,1-2.32-1.15-4.64-2.27-6.92-3.48a15.83,15.83,0,0,0-13.76-.6,26.77,26.77,0,0,0-11,7.55c-4,4.75-4.49,10.2-2.93,16a36.54,36.54,0,0,0,2.9,7.3c.47.94.31,1.26-.74,1.26H229.68c-.36,0-.85.13-1-.3s.31-.64.56-.9a51.61,51.61,0,0,0,7.59-9.58c2.08-3.49,3.59-7.19,2.92-11.37-1-6.13-6.66-13.1-16.06-11.23a58.85,58.85,0,0,0-14.06,5c-.34.17-.67.35-1,.51s-.62.4-.92.15-.1-.64,0-.95c1.26-6.24,2.51-12.49,3.79-18.73.74-3.63,1.5-7.26,2.25-10.88q42.49,0,85,0c1.05,0,1.47.22,1.24,1.28"/><path class="cls-3" d="M85.48,104.47c.78,3.92.87,7.73-2.18,10.87a9.71,9.71,0,0,1-5.12,2.4c-2.83.66-5.73.36-8.57.75-7.42,1-14.32,3.45-20,8.42-4.54,4-6,9.37-4.58,15.24A13.9,13.9,0,0,0,56,153c4.15.95,8.08-.29,11.88-2a38.24,38.24,0,0,0,6.4-3.87c1.41-1,1.5-1,1.62.77a40,40,0,0,1-.12,9.21,5.76,5.76,0,0,1-4.59,5,21.59,21.59,0,0,1-5.06.64c-18.87.3-37.73.15-56.6.18-1.61,0-1.7-.14-1.34-1.76l12.57-56.71Z"/><path class="cls-3" d="M0,203.45c1-3.23,1.44-6.58,2.18-9.86q.61-2.75,1.14-5.5c.16-.84.54-1.25,1.43-1.19.66,0,1.33,0,2,0,1,0,2-.08,1.18,1.71.76-.48,1.19-.78,1.64-1a6.74,6.74,0,0,1,6.1-.69,3.18,3.18,0,0,1,1.83,1.62c.35.79.64.62,1.13.14a7.87,7.87,0,0,1,4.31-2.12c3.69-.64,6.22,1.71,5.58,5.38-.7,4-1.62,8-2.42,12A1.12,1.12,0,0,1,24.82,205c-.92,0-1.83,0-2.75,0s-1.21-.45-1-1.35q1.14-5.37,2.23-10.75c.17-.85.5-1.83-.44-2.39a2.53,2.53,0,0,0-2.91.42,6.08,6.08,0,0,0-2.07,3c-1,3-1.41,6.17-2.11,9.25-.4,1.75-.38,1.77-2.21,1.76-3.62,0-3.32.36-2.6-3.2.61-3,1.23-6,1.85-9,.17-.8.3-1.61-.46-2.17a2.21,2.21,0,0,0-2.37,0,5,5,0,0,0-2.69,3.57c-.73,3-1.34,6-2,9-.38,1.79-.38,1.81-2.18,1.81-1,0-2.08,0-3.12,0Z"/><path class="cls-3" d="M77,194.47c0-1.66-.11-2.17-.77-2.92-1.71-1.94-4.91-1.39-6.42,1.16a9,9,0,0,0-1.25,5,3.53,3.53,0,0,0,2.5,3.5,3.89,3.89,0,0,0,4.1-1.44A8.19,8.19,0,0,0,77,194.47M69.24,205.2c-.68-.31-1.39-.58-2-.94-3.39-1.93-4.06-5.09-3.7-8.61a10,10,0,0,1,12.86-8.87,7.76,7.76,0,0,1,5.79,8.5c-.48,4.93-2.92,8.3-7.66,9.92Z"/><path class="cls-3" d="M261.45,194.47c.05-2-.58-3.34-2-3.8a3.92,3.92,0,0,0-4.09.74,7.82,7.82,0,0,0-2.39,6.31,3.42,3.42,0,0,0,2.37,3.45,3.62,3.62,0,0,0,4-1.22,8.21,8.21,0,0,0,2.05-5.48M253.7,205.2c-.3-.14-.6-.3-.91-.41a7,7,0,0,1-4.59-4.89c-1.22-4.07.4-9.27,3.83-11.62a10.23,10.23,0,0,1,10.24-1c2.71,1.15,4,3.45,4.22,6.31.49,5.39-2.73,10.25-7.21,11.39a1.23,1.23,0,0,0-.33.19Z"/><path class="cls-3" d="M44.74,194.42c0-2-.58-3.16-1.91-3.74a4.13,4.13,0,0,0-4.55,1.11,8,8,0,0,0-2,5.86,3.5,3.5,0,0,0,2.3,3.5,3.77,3.77,0,0,0,4.15-1.23,8.46,8.46,0,0,0,2-5.5M37,205.2c-.3-.14-.59-.3-.9-.41a6.75,6.75,0,0,1-4.59-4.89c-1-4,0-9.16,3.91-11.69a10.15,10.15,0,0,1,10.24-.83c3.26,1.48,4.77,5,4,9.1s-2.83,7.06-6.88,8.44a3.25,3.25,0,0,0-.56.28Z"/><path class="cls-3" d="M165.49,194.37h2.74c.53,0,.86-.2.89-.8a3.15,3.15,0,0,0-4.45-3.08,4.67,4.67,0,0,0-2.43,2.71c-.33.79-.16,1.2.75,1.18h2.5m-3.27,10.83a8.3,8.3,0,0,1-5.65-6.58c-1.28-7,4.78-13.37,11.47-12a6.59,6.59,0,0,1,5.51,5.56,13.61,13.61,0,0,1,.11,4c-.09,1-.53,1.43-1.6,1.41-3.09-.06-6.17,0-9.25,0-1.26,0-1.54.39-1.25,1.61.56,2.37,3.72,3.52,5.31,1.64s3.14-1.33,4.89-1.06c.86.13,1,.53.6,1.29a8.55,8.55,0,0,1-4.13,3.66l-1.26.54Z"/><path class="cls-3" d="M106.56,194.37h2.73c.54,0,.84-.19.87-.79a3.11,3.11,0,0,0-3.31-3.35,4.37,4.37,0,0,0-3.69,3.38c-.1.59.16.76.66.76h2.74m-3.33,10.83a23.06,23.06,0,0,1-2.81-1.6c-3.58-2.88-3.55-8.36-1.58-12a9.29,9.29,0,0,1,8.92-5.12,6.82,6.82,0,0,1,7,6.46c.44,4.41.27,4.61-4.14,4.61-2.3,0-4.59,0-6.88,0-1.15,0-1.38.53-1.14,1.48a3.29,3.29,0,0,0,2.47,2.57,3.15,3.15,0,0,0,3.46-1.19,2.16,2.16,0,0,1,2.76-.91,8,8,0,0,0,1.11.19c1.61.22,1.68.42.77,1.83A9.77,9.77,0,0,1,108,205.2Z"/><path class="cls-3" d="M121.23,205.2a8.12,8.12,0,0,1-5.18-3.61c-.9-1.58-.77-1.89,1-2.17.29,0,.58-.08.87-.14,1.3-.29,2.36-.39,3.24,1.1s3.53,1.7,5.12.77a1.5,1.5,0,0,0,.93-1.37c0-.7-.54-1-1.1-1.21-1.72-.63-3.47-1.17-5.13-1.94a4.7,4.7,0,0,1-1.35-8c2.74-2.68,9.23-3,12.24-.62a5.69,5.69,0,0,1,1.62,2.32c.31.72.08,1.1-.71,1.2-.53.06-1.06.18-1.59.29-1.11.25-2.07.46-2.9-.8-.66-1-3.63-1.19-4.7-.57s-1,1.61,0,2.12a21.1,21.1,0,0,0,2.34.86c1,.34,2,.65,2.94,1,1.92.78,3.45,2,3.59,4.21a5.64,5.64,0,0,1-3,5.38,20.94,20.94,0,0,1-2.5,1.13Z"/><path class="cls-3" d="M273.2,205.2c-.39-.16-.76-.34-1.16-.47a7,7,0,0,1-3.63-2.72c-1.31-1.85-1.13-2.28,1.07-2.62a10.16,10.16,0,0,0,1.1-.21,1.9,1.9,0,0,1,2.46,1c1,1.68,4.23,2,5.72.74.91-.77.8-1.73-.38-2.23-1.76-.75-3.6-1.32-5.35-2.08a4.34,4.34,0,0,1-2.87-5,4.63,4.63,0,0,1,2.26-3.57,10.94,10.94,0,0,1,10.63-.57,5,5,0,0,1,2.4,2.62c.37.82.29,1.35-.73,1.49s-1.74.26-2.59.44a1.26,1.26,0,0,1-1.38-.56,4.74,4.74,0,0,0-4.92-1.09,1.3,1.3,0,0,0-.84,1.15,1.12,1.12,0,0,0,.79,1.15c.5.21,1,.37,1.53.54a29.24,29.24,0,0,1,4.35,1.55,4.85,4.85,0,0,1,1.59,7.83,9.81,9.81,0,0,1-4.05,2.6Z"/><path class="cls-3" d="M234,205.2c-4.13-1.48-5.65-4.86-5-9.44s3.64-8.15,8.05-9.08a9.16,9.16,0,0,1,5.16.28,6.09,6.09,0,0,1,3.38,2.81c1.33,2.4,1,3-1.7,3.2a5.06,5.06,0,0,0-.88.07c-.91.23-1.42,0-1.72-1a2.41,2.41,0,0,0-3.18-1.63,4.3,4.3,0,0,0-2.76,2.17,11.21,11.21,0,0,0-1.33,5.9,2.64,2.64,0,0,0,1.44,2.56,2.85,2.85,0,0,0,3-.49,3.64,3.64,0,0,0,1.33-1.63,1.19,1.19,0,0,1,1.57-.79c.9.18,1.81.32,2.71.44s1,.56.64,1.3a9.08,9.08,0,0,1-5.06,4.92c-.31.12-.6.27-.9.41Z"/><path class="cls-3" d="M148.47,205.2c-2.53-1.6-2.92-2.48-2.34-5.49.51-2.61,1-5.23,1.6-7.83.18-.82,0-1.2-.86-1.14-1,.08-1.22-.45-1-1.32a8.55,8.55,0,0,0,.26-1.22c.11-.88.51-1.39,1.47-1.29a1.09,1.09,0,0,0,1.37-1.18,2.9,2.9,0,0,1,1.85-2.57c1.07-.55,2.08-1.23,3.12-1.84.25-.15.53-.36.81-.17s.15.52.09.8c-.24,1.23-.46,2.46-.75,3.67-.21.92,0,1.3,1,1.31,1.61,0,1.61.07,1.3,1.64-.4,2-.4,2-2.49,2.16-.76,0-1,.44-1.13,1.07-.51,2.53-1.06,5-1.55,7.58-.29,1.54.11,2.08,1.65,2,1.25-.09,1.44.35,1.12,1.42-.25.79-.39,1.62-.58,2.43Z"/><path class="cls-3" d="M55.49,205.2c-2.5-1.25-3.07-2.3-2.57-5.1s1-5.39,1.62-8.08c.2-.93,0-1.36-1-1.28-.83.06-1-.38-.85-1.1.12-.48.22-1,.3-1.46.12-.87.52-1.39,1.47-1.27s1.34-.35,1.37-1.19a2.91,2.91,0,0,1,1.86-2.56c1.11-.57,2.15-1.27,3.22-1.92.21-.12.44-.31.69-.17s.2.52.14.79c-.25,1.3-.5,2.61-.82,3.9-.21.83,0,1.13.89,1.16,1.8.08,1.8.11,1.44,1.88-.42,2-.4,2-2.31,1.94a1.11,1.11,0,0,0-1.28,1c-.51,2.61-1.08,5.21-1.57,7.83-.25,1.32.16,1.74,1.52,1.77s1.5,0,1.22,1.53a9.54,9.54,0,0,1-.6,2.29Z"/><path class="cls-3" d="M145.67,177.5H6.46c-2.35,0-2.35,0-1.83-2.34.6-2.77,1.22-5.53,1.78-8.31.16-.81.55-1.16,1.35-1.13.37,0,.75,0,1.12,0h278.3c2.41,0,2.4,0,1.88,2.42-.58,2.68-1.17,5.37-1.7,8.06-.19,1-.61,1.4-1.6,1.3-.45,0-.91,0-1.37,0H145.67"/><path class="cls-3" d="M196.46,188.46c1.95-1.45,3.95-2.36,6.36-1.88a3.67,3.67,0,0,1,2.85,2c.33.7.59.57,1.07.13a7.92,7.92,0,0,1,5.66-2.25,4.11,4.11,0,0,1,4.36,4.52,39.33,39.33,0,0,1-1.16,6.63c-.39,2-.91,4.06-1.27,6.11a1.32,1.32,0,0,1-1.62,1.26c-.71,0-1.42,0-2.13,0-1.5,0-1.6-.14-1.3-1.57q.87-4.15,1.76-8.31c.19-.93.4-1.87.56-2.81.24-1.48-.53-2.26-2-2a4.36,4.36,0,0,0-3.11,2.65c-1,2-1.22,4.14-1.71,6.24-.36,1.54-.67,3.1-.95,4.65a1.24,1.24,0,0,1-1.46,1.16c-.83,0-1.67-.05-2.5,0-1.12.08-1.36-.4-1.13-1.43.77-3.53,1.49-7.08,2.23-10.63.18-.86.43-1.78-.48-2.38a2.43,2.43,0,0,0-2.71.24,5.57,5.57,0,0,0-2.44,3.77c-.65,2.84-1.25,5.69-1.85,8.54-.4,1.88-.38,1.88-2.36,1.88h-2c-.77,0-1-.38-.89-1.12l3.36-16c.07-.32.15-.73.52-.79a11.21,11.21,0,0,1,4,0c.68.14.1.89.38,1.42"/><path class="cls-3" d="M91.65,189a13.68,13.68,0,0,1,2.47-1.95,6,6,0,0,1,2-.62c2.23-.16,2.71.5,1.79,2.45a9.5,9.5,0,0,0-.46,1,1.38,1.38,0,0,1-1.74,1.1c-1.81-.23-3.76,1.21-4.71,3.29a25.09,25.09,0,0,0-1.49,5.26c-.29,1.38-.6,2.77-.85,4.15A1.3,1.3,0,0,1,87.13,205c-.79,0-1.58,0-2.37,0-1,0-1.43-.31-1.2-1.41,1.11-5.12,2.17-10.25,3.22-15.38.19-.94.62-1.39,1.6-1.27a8.17,8.17,0,0,0,1,0c2.14,0,2.14,0,2.28,2.12"/><path class="cls-3" d="M183,189.17a8.21,8.21,0,0,1,2.09-1.9,4.67,4.67,0,0,1,4.06-.58c.65.22.87.57.54,1.22a11.45,11.45,0,0,0-.65,1.48,2.12,2.12,0,0,1-2.44,1.67c-1.9-.08-3.19,1.25-4.06,2.87a21.49,21.49,0,0,0-1.73,5.72c-.29,1.3-.58,2.6-.78,3.92a1.43,1.43,0,0,1-1.77,1.41c-.86-.07-1.74,0-2.62,0-.7,0-1-.34-.82-1,1.12-5.34,2.25-10.67,3.35-16a1.08,1.08,0,0,1,1.21-1c.75,0,1.5,0,2.25,0,1.09-.06,1.6.3,1.23,1.45a.72.72,0,0,0,.14.82"/><path class="cls-3" d="M221.09,205c-2.69,0-2.57.13-2-2.52,1-4.59,2-9.2,2.84-13.81.25-1.3.78-1.79,2.14-1.75,3.3.09,3.33,0,2.68,3.26-.92,4.52-1.89,9-2.8,13.56-.18.87-.55,1.35-1.5,1.27-.45,0-.91,0-1.37,0"/><path class="cls-3" d="M167.1,185h-.88c-.92,0-1-.38-.51-1.06.84-1.19,1.66-2.38,2.49-3.58a1.37,1.37,0,0,1,1.24-.68h3.49c.24,0,.54-.06.69.18s-.1.46-.28.63c-1.48,1.39-3,2.78-4.46,4.15-.56.51-1.26.32-1.78.36"/><path class="cls-3" d="M225.45,184.75c-2.8,0-2.72.26-2.11-2.65.4-1.94.4-1.94,2.41-1.94,3.08,0,3.08,0,2.48,2.94-.34,1.65-.34,1.65-2.78,1.65"/></g></svg>