<svg id="Logos_Patrocinadores_Web" data-name="Logos Patrocinadores Web" xmlns="http://www.w3.org/2000/svg" viewBox="0 0 300 300"><defs><style>.cls-1{fill:#8f8fa3;}</style></defs><path class="cls-1" d="M111.74,140a40.73,40.73,0,0,0,5.47-11.79c2.45-9-2.18-15.18-11.57-15.62-6.36-.31-12.25,1.45-18.11,3.56-.77.28-1.83,1.3-2.35,0s.94-1.4,1.69-1.69c7.46-2.88,15-5.09,23.16-3.23,9,2.06,12.31,8.57,11.91,17.15a39.22,39.22,0,0,1-4.31,15.85c-.86,1.69-.63,2.79.47,4.29a105.2,105.2,0,0,1,12.44,22.17c.58,1.39,1.78,3.23-.45,4.14s-2.92-.71-3.67-2.48a97.64,97.64,0,0,0-11.88-21.27c-3.11,4.32-5.93,8.57-9.08,12.57a176.75,176.75,0,0,1-22.72,23.62c-3.62,3.16-6.61,3.41-9,.67-2.13-2.39-1.48-6.56,1.63-9.14,5.5-4.56,10.73-9.41,15.83-14.41A188,188,0,0,0,107,147.1c1.62-2,2-3.34-.14-5.61C94.2,128.28,79,119.4,61.69,114.07c-.54-.17-1.07-.41-1.63-.53-1.59-.36-3.13-1-2.59-2.91s2.28-1.32,3.76-.95c18.19,4.6,33.63,13.94,46.83,27.14,1,1,2,2,3,2.9A2.32,2.32,0,0,0,111.74,140Z"/><path class="cls-1" d="M15,155.11c1.34-6.5,2.78-13,4-19.51.39-2.16,1.25-2.75,3.36-2.74,6.65,0,6.65-.08,6.65,6.69,0,7.84-.09,15.67.05,23.5,0,2.36-.82,2.81-3,2.84s-2.74-.69-2.71-2.76c.11-7.25,0-14.5,0-21.93-1.18.38-1.22,1.24-1.4,2.07-1.42,6.61-2.89,13.2-4.31,19.81-.39,1.82-1,2.91-3.32,2.83s-2.44-1.27-2.8-3C10,155.7,8.31,148.49,6,141.31c0,7.07-.07,14.13,0,21.19,0,2.33-.23,3.43-3.07,3.44s-3-1.33-3-3.54c.08-8.87.1-17.74,0-26.61,0-2.2.55-2.95,2.86-2.94,6.77,0,6.75-.09,8.1,6.55,1.07,5.24,2.18,10.47,3.28,15.7Z"/><path class="cls-1" d="M226.74,149.16c-.87,4.7-2,9.38-2.53,14.12-.31,2.52-1.58,2.75-3.45,2.51s-4,1.12-4.61-2.3c-1.12-6.55-2.78-13-4.15-19.51-.22-1-1.39-2.87.93-2.75,1.67.09,4.35-1.65,4.84,2,.64,4.78,1.49,9.52,2.27,14.36,1.49-.57,1.1-1.86,1.29-2.87.68-3.73,1.55-7.44,1.94-11.19.22-2,1-2.6,2.81-2.35s4.29-1,4.77,2.29c.59,4.09,1.43,8.13,2.15,12.2.13.76.08,1.6,1.14,2.2.82-4.79,1.6-9.38,2.4-14a3.84,3.84,0,0,1,5.4-2.65c.86.42.67,1.07.52,1.73-1.53,6.94-3.18,13.86-4.58,20.83-.74,3.71-3.46,1.51-5.24,2s-2.23-.49-2.5-2.2c-.78-4.82-1.85-9.6-2.8-14.39Z"/><path class="cls-1" d="M43.5,166.1c-6.62.06-9.33-2-10.12-7.71-.14-1-.91-2.76.95-2.6s4.26-1.69,5.22,1.38c.41,1.3.44,2.73,1.65,3.68a4.51,4.51,0,0,0,6.21-.67,4.44,4.44,0,0,0-1.25-6.59c-2.06-1.19-4.38-1.92-6.56-2.92-4.88-2.24-6.67-5.82-5.67-11.22.82-4.45,3.91-6.74,9.31-6.89,5.91-.18,9.21,1.73,10.25,6.05.27,1.09,1.09,2.86-.77,3-1.64.11-4,1.46-5-1.14-.8-2.17-1.83-3.78-4.37-3.46a3.57,3.57,0,0,0-3.25,3.12c-.42,2.5.74,4.19,3,5.2,2,.88,4,1.71,6,2.66,5.31,2.6,6.69,5.59,5.43,11.56q-1.28,6-8.93,6.55C44.88,166.14,44.19,166.1,43.5,166.1Z"/><path class="cls-1" d="M144.33,166.12c-6.32,0-9-1.87-9.88-7.18-.19-1.12-1.32-3.22,1-3.14,1.7.06,4.6-1.94,5.15,1.85.19,1.36.56,2.74,2,3.45,2.21,1.13,4.27,1,5.86-1a4.28,4.28,0,0,0-1.11-6.34c-2.45-1.43-5.19-2.36-7.77-3.58-4-1.91-5-5.33-4.72-9.45.27-3.5,1.68-6.28,5.15-7.39,5.18-1.64,13.1-1.36,14.54,5.41.23,1.1,1.07,2.86-.91,2.91-1.64,0-4,1.42-4.92-1.26-.71-2.08-1.81-3.53-4.13-3.39a3.58,3.58,0,0,0-3.48,3.26c-.4,2.37.74,4,2.81,5s4,1.76,6,2.69c5.38,2.57,6.79,5.43,5.67,11.4-.78,4.18-3.78,6.43-9.1,6.79C145.71,166.16,145,166.12,144.33,166.12Z"/><path class="cls-1" d="M64.55,149.4c.32,3,0,6.16.88,9.2.56,1.88,1.53,3.15,3.53,3.16a3.56,3.56,0,0,0,3.68-3,6.23,6.23,0,0,0,.51-2c-.4-3.23,1.45-3.45,3.95-3.32,1.69.09,2.4.43,2.4,2.34,0,6-3.19,9.92-8.69,10.33-7.2.55-11.2-2.33-12-8.78a63.21,63.21,0,0,1,0-15.85c.75-6.06,4.16-8.92,10.58-8.93,6,0,9.16,2.57,9.9,8.24.14,1,.93,3-1.14,2.87-1.69-.13-4.32,1.75-5.07-1.6a22.68,22.68,0,0,0-.53-2.34A3.59,3.59,0,0,0,69,137a3.38,3.38,0,0,0-3.34,2.52C64.47,142.68,64.85,146.05,64.55,149.4Z"/><path class="cls-1" d="M177.61,152.54c0,2,.1,3,0,4.05-1,8.76-5.63,11-13.77,9-4.61-1.11-4.88-5.68-5.36-9.53a23.77,23.77,0,0,1,.58-8.55c1.12-4.71,4.11-7.06,9.2-7.07s7.52,2,8.89,6.88A21.81,21.81,0,0,1,177.61,152.54Zm-6,1c-.21-2.31.27-4.65-.79-6.83-.59-1.2-1.37-2.17-2.84-2.11a2.81,2.81,0,0,0-2.73,2.23,26.47,26.47,0,0,0,0,13.23,2.9,2.9,0,0,0,2.74,2.24c1.51.11,2.4-.89,3-2.34C171.78,157.79,171.36,155.6,171.59,153.5Z"/><path class="cls-1" d="M262.16,154.43c0,2.76.06,5.52,0,8.27,0,1,1.42,2.64-.17,2.91s-4,1.35-5.19-1c-.63-1.27-1-.82-1.65-.19a6.73,6.73,0,0,1-8.25,1c-2.92-1.53-3-4.68-2.72-7.64.26-3.18,2.27-4.83,5.16-5.66,1.65-.47,3.31-.91,4.94-1.45a2.9,2.9,0,0,0,2.2-3.43,2.87,2.87,0,0,0-2.38-2.62c-1.71-.32-3.24.35-3.55,2-.67,3.49-3.47,2.21-4.81,1.74-2.09-.74-.62-2.78,0-4.05,1.54-3.34,6.22-4.54,11.68-3.22,3.52.85,4.67,2.5,4.72,6.85,0,2.18,0,4.37,0,6.55Zm-6-.89a36,36,0,0,0-4.73,2c-1.67,1-2,2.71-1.5,4.53.43,1.43,1.34,2.44,3,2.18a3.81,3.81,0,0,0,3.46-3.32A11.65,11.65,0,0,0,256.18,153.54Z"/><path class="cls-1" d="M281.46,153.43c0-1.15,0-2.3,0-3.44.36-7.37,5.36-10.94,12.45-9.07,3.2.85,4.73,3,5.41,6,.31,1.34.27,2.75.54,4.1.45,2.29-.1,3.43-2.73,3.19-2.4-.22-4.83-.05-7.25,0-1.26,0-2.75-.2-2.65,1.74.13,2.37-.08,5.06,2.69,6.19,1.67.68,2.72-.54,3.55-1.9.57-.93.06-2.79,2.1-2.5,1.22.17,2.79-.58,3.58.51s0,2.45-.54,3.59c-1.55,3.64-5,5-10.61,4.18-3.58-.52-6-3.23-6.47-7.38a49.49,49.49,0,0,1,0-5.17Zm9.17-2.61c1.29-.38,3.54.93,3.32-2-.16-2.06-.55-4.11-3.06-4.22-2.72-.11-3.32,2.1-3.57,4.21C287,151.73,289.32,150.45,290.63,150.82Z"/><path class="cls-1" d="M182.84,155.4c0-2.3,0-4.6,0-6.91,0-1.51.51-3.35-2.11-3.42-1.36,0-.94-1.35-1-2.18s0-1.76,1.15-1.72c2.17.07,1.88-1.43,2-2.81.35-4.89,3.56-7,8.39-5.81,1.32.33,1.28,1.17,1.23,2s.54,2.29-1.25,2.22-2.4,1-2.49,2.57c-.11,2.1,1.38,1.69,2.58,1.74,1.48.06,1.13,1.18,1.16,2s.32,2.15-1.15,2c-3.1-.37-2.59,1.75-2.59,3.53,0,4.61-.1,9.22,0,13.82.07,2.29-.16,3.45-3,3.47-3.11,0-3-1.57-2.9-3.63C182.89,160,182.84,157.71,182.84,155.4Z"/><path class="cls-1" d="M199.18,154.1c0-1.95,0-3.91,0-5.86,0-1.64.26-3.27-2.3-3.15-1.46.07-.93-1.29-1-2.09s-.35-1.87.9-1.81c3.18.18,2.42-2.13,2.3-3.74-.19-2.45.44-3.35,3.15-3.39,2.89,0,3.18,1.21,3,3.49-.11,1.7-.68,3.9,2.43,3.65,1.17-.1,1.07,1,1.05,1.76s.33,2.19-1,2.11c-3.08-.16-2.47,1.94-2.48,3.68,0,2.65,0,5.29,0,7.93,0,2.21-.66,4.72,2.83,5.26,1.21.19.62,1.76.66,2.71.05,1.12-.8,1.12-1.64,1.24-6,.88-7.93-.76-8-7Z"/><path class="cls-1" d="M272,144.27a33.31,33.31,0,0,1,2.92-2.66c1-.71,2.38-1.67,3.46-.93,1.53,1,.58,3,.67,4.48.11,2-1.52,1.23-2.5,1.33-3,.31-4.19,2-4.19,4.86,0,4-.19,8.05.06,12.05.18,2.94-1.64,2.33-3.29,2.43s-3,0-2.92-2.45c.18-6.43,0-12.86.09-19.28,0-1.16-.78-3.13,1.61-2.93C269.68,141.32,272.6,139.67,272,144.27Z"/></svg>