<?xml version="1.0" encoding="UTF-8"?> <svg xmlns="http://www.w3.org/2000/svg" id="Logos_Patrocinadores_Web" data-name="Logos Patrocinadores Web" width="300" height="300" viewBox="0 0 300 300"><defs><style>.cls-1{fill:#8f8fa3;}</style></defs><path class="cls-1" d="M159.59,130.9c0,.23,0,.46,0,.7v36.92h-7.78v-3.76l-.18-.11c-.07.12-.12.25-.2.36a9.92,9.92,0,0,1-7.07,4,1.71,1.71,0,0,0-.3.09H142.2c-.68-.13-1.37-.22-2-.4a11.58,11.58,0,0,1-7.95-6.5,16.76,16.76,0,0,1,.19-15.29,11.93,11.93,0,0,1,14.95-5.7,10.71,10.71,0,0,1,3.75,2.63l.59.64a1.6,1.6,0,0,0,.07-.28q0-6.64,0-13.3ZM152,154.76a22.9,22.9,0,0,0-.56-2.88,6.38,6.38,0,0,0-5.44-4.77,6.11,6.11,0,0,0-6.56,3.37,8.53,8.53,0,0,0,.08,8.66,6.15,6.15,0,0,0,5.89,3.31,6.3,6.3,0,0,0,5.52-3.59A10.3,10.3,0,0,0,152,154.76Z"></path><path class="cls-1" d="M257.77,169.1c-.75-.15-1.52-.25-2.25-.45-3.16-.91-5.41-2.81-6-6.15s0-6.46,2.95-8.66a11.24,11.24,0,0,1,5.76-2,19.94,19.94,0,0,1,8.67.92,3,3,0,0,0,.33,0,14.15,14.15,0,0,0-.13-1.64,4.54,4.54,0,0,0-4.24-3.77,18.39,18.39,0,0,0-8.53,1.12l-.7.24-2-6c1.12-.4,2.2-.85,3.33-1.17a23.21,23.21,0,0,1,12.07-.41c4.21,1,6.59,3.86,7.32,8.08a21,21,0,0,1,.29,3.63c0,5,0,10,0,15,0,.21,0,.42,0,.64h-7.5V165.6c-.23.2-.36.31-.48.43a10.27,10.27,0,0,1-6.43,3,4.36,4.36,0,0,0-.52.11Zm4.9-12.71a8.11,8.11,0,0,0-4,.73,3.43,3.43,0,0,0-1.87,3.46,3.11,3.11,0,0,0,2.45,2.84,7.2,7.2,0,0,0,5.88-.79,4.1,4.1,0,0,0,2-2.83c.11-.58.06-1.18.13-1.76s-.17-.72-.62-.88A12.3,12.3,0,0,0,262.67,156.39Z"></path><path class="cls-1" d="M111,169.1c-.51-.09-1-.16-1.52-.28-3.78-.88-5.85-3.37-6.6-7a15.26,15.26,0,0,1-.29-3.09c0-5.71,0-11.41,0-17.11,0-.47.1-.66.62-.65,2.18,0,4.36,0,6.54,0,.2,0,.39,0,.64,0v.72c0,4.86,0,9.73,0,14.59a10.69,10.69,0,0,0,.29,2.33,4.25,4.25,0,0,0,4.94,3.36,4.55,4.55,0,0,0,4.41-4.81c.07-3.24,0-6.48,0-9.71,0-2,0-4,0-6,0-.3,0-.51.41-.51h7a1.45,1.45,0,0,1,.33.06v27.51H120v-3.69l-.12-.06-.52.63a9.67,9.67,0,0,1-5.77,3.55c-.27,0-.55.1-.83.16Z"></path><path class="cls-1" d="M295,148.61a9.27,9.27,0,0,0-3.59.45,7.27,7.27,0,0,0-4.88,5.83,17.42,17.42,0,0,0-.34,3.46c-.05,3.16,0,6.33,0,9.49v.68h-7.76V141h7.77v5.26c1.76-3.78,4.45-6.06,8.82-5.79Z"></path><path class="cls-1" d="M168.28,130.9l.61.18a4.11,4.11,0,0,1-1.2,8.06,4.11,4.11,0,0,1-.88-8.11c.13,0,.26-.09.39-.13Z"></path><path class="cls-1" d="M80.68,168.54H72.89v-.68c0-4.82,0-9.65,0-14.48a11.67,11.67,0,0,0-.33-2.7,4,4,0,0,0-3.84-3.16c-2.41-.1-4,.82-4.73,2.79a6.66,6.66,0,0,0-.43,2.19c0,5.1,0,10.2,0,15.29v.73H55.77V141c.17,0,.36,0,.55,0,2.19,0,4.39,0,6.59,0,.47,0,.62.12.61.6,0,1,0,2.1,0,3.33.22-.26.35-.4.46-.54a9.49,9.49,0,0,1,5.69-3.67c3.59-.61,6.8.06,9.15,3.14.24.31.43.65.63.95.73-.67,1.4-1.38,2.16-2a11.08,11.08,0,0,1,10.7-1.72c3,1,4.62,3.35,5.23,6.39a16.55,16.55,0,0,1,.31,3.14c0,5.83,0,11.66,0,17.48,0,.14,0,.28,0,.46H90.06v-.66c0-4.81,0-9.62,0-14.42a12.07,12.07,0,0,0-.34-2.81,4,4,0,0,0-3.82-3.11c-2.42-.1-4,.82-4.74,2.79a6.66,6.66,0,0,0-.43,2.19c0,5.12,0,10.23,0,15.34Z"></path><path class="cls-1" d="M228.83,144.74l.39-.42a11.3,11.3,0,0,1,11.27-3.61c3.5.72,5.54,3,6.3,6.46a17.2,17.2,0,0,1,.35,3.51c0,5.76,0,11.52,0,17.27v.57h-7.74c0-.27,0-.51,0-.75,0-4.71,0-9.41,0-14.11a12.13,12.13,0,0,0-.21-2.56c-.52-2.47-2.07-3.63-4.64-3.59a4.29,4.29,0,0,0-4.33,3.77,11.34,11.34,0,0,0-.2,2.18c0,4.78,0,9.55,0,14.32v.73h-7.75c0-.21,0-.43,0-.66,0-4.79,0-9.58,0-14.38A11.54,11.54,0,0,0,222,151c-.61-2.79-2.72-3.79-5.27-3.4a4.39,4.39,0,0,0-3.78,4.3c-.06.64-.09,1.28-.09,1.93,0,4.66,0,9.33,0,14v.71h-7.76c0-.19,0-.39,0-.58q0-13.19,0-26.39c0-.5.14-.63.63-.63,2.18,0,4.36,0,6.54,0,.19,0,.39,0,.63,0v3.71l.13.06.56-.66a9.36,9.36,0,0,1,5.47-3.44c3.15-.55,6.07-.1,8.43,2.27A20.06,20.06,0,0,1,228.83,144.74Z"></path><path class="cls-1" d="M201.28,168.54h-7.79v-.69c0-4.83,0-9.65,0-14.48a10.35,10.35,0,0,0-.23-2.29c-.69-3-2.89-3.88-5.44-3.51a4.57,4.57,0,0,0-4,4.78c-.06,1.84,0,3.68,0,5.52v10.65h-7.75V141h7.73v3.68l.12.06.39-.45a9.45,9.45,0,0,1,5.12-3.52c3.43-.76,6.63-.34,9.24,2.26a8.92,8.92,0,0,1,2.43,5.31,21.49,21.49,0,0,1,.19,3c0,5.5,0,11,0,16.52Z"></path><path class="cls-1" d="M163.93,141h7.73V168.5h-7.73Z"></path><circle class="cls-1" cx="14.78" cy="136.82" r="4.89" transform="translate(-122.64 129.49) rotate(-80.78)"></circle><circle class="cls-1" cx="12.33" cy="150" r="4.89"></circle><circle class="cls-1" cx="9.89" cy="163.18" r="4.89"></circle><circle class="cls-1" cx="36.17" cy="163.18" r="4.89"></circle><circle class="cls-1" cx="27.92" cy="136.82" r="4.89" transform="translate(-111.65 132.55) rotate(-76.72)"></circle><circle class="cls-1" cx="41.06" cy="136.82" r="4.89" transform="translate(-101.53 145.34) rotate(-76.72)"></circle><path class="cls-1" d="M38.6,145.11a4.88,4.88,0,0,0-4.22,2.42h0c-2.13,2.22-4.65-.22-4.65-.22h0a4.89,4.89,0,0,0-8.36,5.06h0a5,5,0,0,0,.35.54,4.76,4.76,0,0,1-.35,5.79h0a4.89,4.89,0,1,0,5.36,1h0c-1.9-3.67,1.06-5.28,1.06-5.28h0a4.83,4.83,0,0,0,1.94-1.7h0a3.29,3.29,0,0,1,4.88.13h0a4.89,4.89,0,1,0,4-7.71Z"></path></svg> 