<svg id="Logos_Patrocinadores_Web" data-name="Logos Patrocinadores Web" xmlns="http://www.w3.org/2000/svg" viewBox="0 0 291.74 83.81"><defs><style>.cls-1{fill:#8f8fa3;}</style></defs><path class="cls-1" d="M187.33,108.09H214.6c.6,1.29,1.29,2.54,1.77,3.86q6.39,17.37,12.7,34.77c2.3,6.3,4.61,12.59,7.27,19.85,0-14.43,0-27.79,0-41.14,0-5.79-.83-11.59.52-17.34h37.32c1,.28,2.08.55,3.11.85,18.13,5.11,23.73,25.28,10.7,38.8-1.73,1.8-1.44,2.68.23,4.23,6.11,5.66,8.82,12.66,7.21,20.93-2.18,11.15-12.11,18.75-24.64,18.83-16,.1-32,0-48.08.09-3.29,0-5.27-.88-5.85-4.2-.52-3-2.32-4.06-5.34-4-5.73.16-11.49.26-17.22,0-3.95-.19-6.45.91-7.2,5-.44,2.37-2,3.21-4.41,3.17q-9.51-.15-19,0c-2.88,0-3.52-1-2.63-3.69Q174.25,148.12,187.33,108.09Zm15,33.58h-.69c-1.1,3.47-2.22,6.93-3.31,10.41-2.56,8.14-1.49,9.28,7.2,7.82,1.45-.25,2.28-.79,1.8-2.34C205.72,152.25,204,147,202.37,141.67Zm58.09,22.77c.64,2.33-1.54,6.34,3.74,6.19,4.62-.13,7.6-2.56,7.51-6.3s-3-5.84-7.44-6C259.39,158.17,260.83,161.73,260.46,164.44Zm.11-28.88c0,5.5.29,5.88,4.22,5.84,4.2-.05,7-2.44,6.95-6s-2.67-5.82-7-5.82C260.9,129.59,260.56,130.08,260.57,135.56Z" transform="translate(-4.13 -108.09)"/><path class="cls-1" d="M70.34,108.09c.09,1.42.26,2.84.26,4.26q0,37.08,0,74.15c0,5.2,0,4.92-5.1,5.34s-8.7-1.31-12.05-5.18c-6.69-7.72-13.86-15-21-22.68-1.16,1.52-.76,3-.77,4.31,0,6.41-.06,12.83.07,19.24.06,3-.94,4.34-4.13,4.27-6.57-.16-13.15-.1-19.72,0-2.48,0-3.77-.79-3.76-3.47q.13-40.11.17-80.21H18.66q12.77,15.52,25.54,31l1-.27V108.09Z" transform="translate(-4.13 -108.09)"/><path class="cls-1" d="M119.86,108.09c1.38,6.51,2.62,13.06,4.19,19.52.77,3.2-.38,4.06-3.33,4-6.46-.08-12.92,0-19.37,0-2.58,0-4.44.41-4.4,3.65s2,3.29,4.32,3.26c3.83-.05,7.66.09,11.48,0,2.66-.09,3.65,1.07,3.63,3.59-.06,5.23-.08,10.46,0,15.69,0,2.72-1.06,3.93-3.81,3.88-3.94-.07-7.89.07-11.84,0-2.76-.06-3.81,1.15-3.82,3.86s1.08,3.83,3.85,3.79c7.29-.1,14.59,0,21.88,0,2.79,0,3.65.92,2.84,3.64q-2.34,7.86-4.39,15.81c-.58,2.21-1.79,3.09-4.08,3.08q-19.73-.08-39.46,0c-2.16,0-3.78-.43-3.77-3.08q.08-40.29.12-80.59Z" transform="translate(-4.13 -108.09)"/><path class="cls-1" d="M174.41,108.09c1.21,6.42,2.34,12.86,3.68,19.26.65,3.1-.2,4.39-3.52,4.31-6.34-.15-12.68,0-19,0-2.44,0-4.52.08-4.57,3.45s1.88,3.58,4.41,3.52c3.35-.07,6.7.06,10,0,2.39-.06,3.5.88,3.46,3.35q-.12,8.2,0,16.4c0,2.44-1,3.46-3.41,3.43-3.46-.06-6.94.14-10.4,0-2.78-.14-3.79.8-3.73,3.65.17,7.25-.06,14.51.11,21.76.08,3.56-1.23,4.85-4.83,4.68-5.25-.25-10.52-.08-15.78-.09-1.86,0-3.33-.38-3.32-2.7.07-27-.34-54,.21-80.94Z" transform="translate(-4.13 -108.09)"/></svg>