<svg id="Logos_Patrocinadores_Web" data-name="Logos Patrocinadores Web" xmlns="http://www.w3.org/2000/svg" viewBox="0 0 300 300"><defs><style>.cls-1{fill:#8f8fa3;}.cls-2{fill:#fff;}</style></defs><path class="cls-1" d="M125.88,195.09l-55.58,0c-1.13,0-2.26,0-3.38,0-.45-.44-.26-1-.26-1.51q0-27.39,0-54.77c0-.52-.15-1.07.23-1.54.86,0,1.72-.13,2.57-.13,18.12,0,36.24,0,54.35,0,1.64,0,2.18.36,2.1,2.05-.14,3.11,0,6.24,0,9.36,0,3,0,3-2.78,3.15a5.25,5.25,0,0,1-2.16.15H82.4c-.94.15-.57.9-.59,1.42-.09,1.85.09,3.7-.11,5.55.5.66,1.21.3,1.81.3,7.81,0,15.63.09,23.45,0,1.91,0,2.27.6,2.21,2.32-.13,3.38,0,6.76,0,10.14,0,.68.29,1.49-.49,2s-1.41.24-2.12.24c-8.08,0-16.17,0-24.26,0-1,2-.24,4.11-.41,6.16,0,.37.29.57.65.6a11.86,11.86,0,0,0,1.19,0h33.08a2.51,2.51,0,0,0,1.55-.2c5.34-6.67,10.57-13.42,15.61-20.32,1.86-2.55,4-4.93,5.89-7.43,3.67-4.74,7.37-9.45,10.92-14.28,1-1.34,1.62-.73,2.18,0,11.53,15.86,23.89,31.1,35.69,46.76.59.78,1.59,1.2,2,2.22.5-.5.23-1.12.23-1.66,0-15.49,0-31,0-46.47,0-1.59.29-2.18,2-2.11,3.71.15,7.44.11,11.16,0,1.38,0,1.81.31,1.79,1.73-.08,6.57,0,13.14,0,20.16l6.65-5,20.85-16a3.42,3.42,0,0,1,2.13-.89c7.45,0,14.89,0,22.34,0a4.79,4.79,0,0,1,.77.2l-16.23,12.63c-.05.68-.56.77-1.08.85l-12.83,9.74L221,166.09l37.24,28.59c-.24.69-.8.37-1.17.37-7.12,0-14.23,0-21.34,0a4.25,4.25,0,0,1-2.71-.94q-7.12-5.42-14.27-10.8c-3.46-2.63-7-5.23-10.29-8a6.07,6.07,0,0,0-1.19-.61c-.36-.17-.76-.31-.81-.8-1-.85-.72.17-.72.55,0,2.06,0,4.12,0,6.18,0,4.25-.07,8.5,0,12.75,0,1.45-.44,1.72-1.79,1.71-7.9-.06-15.81-.16-23.71.06a5.27,5.27,0,0,1-4.83-2.54c-5.07-6.88-10.33-13.61-15.61-20.32-2.74-3.48-5.36-7.06-8.13-10.73-5.89,7.65-11.68,15.13-17.43,22.63-2.72,3.54-5.37,7.12-8.06,10.68C126.23,195.15,126.12,195.22,125.88,195.09Z"/><path class="cls-1" d="M48,137.66c5.73,2,10.23,5.38,12.92,11a20.24,20.24,0,0,1-15.75,28.92,6.61,6.61,0,0,0-1.14.3c-.66.48-1.41.23-2.11.23-8.13,0-16.26,0-24.39,0-.67,0-1.69-.55-1.94.72,0,4.79,0,9.57,0,14.36,0,.6.35,1.33-.35,1.82l-15,0A2.82,2.82,0,0,1,0,193.3Q0,166.14,0,139a3.52,3.52,0,0,1,.18-1.76c1.12,0,2.24-.12,3.36-.12h38.2a23.25,23.25,0,0,1,5.13.43C47.29,137.38,47.67,137.27,48,137.66Z"/><path class="cls-1" d="M15.34,178.69h.43c0,4.8,0,9.6,0,14.4,0,.66.33,1.49-.56,1.92Z"/><path class="cls-2" d="M48.43,158.73a5.35,5.35,0,0,1-4.35,4.33c-3.16-.3-6.33-.08-9.5-.13-6.27-.09-12.54.16-18.81-.13A84.91,84.91,0,0,1,15.68,152c.54-.55,1.23-.41,1.88-.41,8.2,0,16.4,0,24.6,0,.78,0,1.55.4,2.34,0,2.34.53,3.48,2.15,4,4.36A8.31,8.31,0,0,0,48.43,158.73Z"/><rect class="cls-1" x="268.36" y="105.38" width="31.64" height="31.64"/></svg>