<svg id="Logos_Patrocinadores_Web" data-name="Logos Patrocinadores Web" xmlns="http://www.w3.org/2000/svg" viewBox="0 0 300 300"><defs><style>.cls-1{fill:none;}.cls-2,.cls-3{fill:#8f8fa3;}.cls-2{stroke:#fff;stroke-miterlimit:10;}</style></defs><path class="cls-1" d="M137.05,45.11c.24-.35.49-.68.74-1s.35-.51.54-.76c.5-.7,1-1.38,1.53-2.06C132.47,37,122.74,34.78,111,34.78H55.47v72.9h55.84c2.21,0,4.35-.11,6.43-.29a110.48,110.48,0,0,1,18.85-61.55A6.13,6.13,0,0,1,137.05,45.11Z"/><path class="cls-2" d="M268.68,173.9a17.74,17.74,0,0,0-10.26,1.73,72.46,72.46,0,0,1-32.93,7.3c-33.2,0-58.78-23-66.63-54.1a88.47,88.47,0,0,1-12.22,5,2.84,2.84,0,0,0-1.78,3.61,3,3,0,0,0,.37.74l56.34,79h22.72c20.16,0,36.28-3.92,50.16-10.82,15.11-7.52,11.39-30.06-5.32-32.47Z"/><path class="cls-3" d="M199.63,214.44l-54.4-76.25a2.85,2.85,0,0,1,.69-4,2.65,2.65,0,0,1,.75-.38,88.05,88.05,0,0,0,12.19-5c21.64-11,35.89-30.54,35.89-59.58v-.63A72.32,72.32,0,0,0,190.6,44a84.22,84.22,0,0,0-19.74,17.58l-.15.17a217.38,217.38,0,0,0-17.66,24,31.76,31.76,0,0,1-3.92,6.65h0c-.18.24-.37.46-.57.69s-.21.29-.33.41c-6.59,7.73-17.1,12.63-30.46,13.82-2.08.18-4.22.29-6.43.29H55.47V34.78h55.47c11.75,0,21.48,2.24,28.86,6.48.38-.5.77-1,1.2-1.5l.46-.58c.89-1.1,1.8-2.2,2.74-3.27l.34-.39c1-1.12,2-2.23,3.05-3.31l.66-.67q1.56-1.61,3.2-3.14l.49-.45c1-1,2.11-1.9,3.19-2.82l.46-.4c1.2-1,2.33-1.9,3.52-2.81l.76-.58c1.2-.91,2.4-1.79,3.66-2.66l.5-.32c1.2-.81,2.4-1.59,3.6-2.41l.59-.36.66-.39C155.27,5.59,136.71,0,114.09,0H17.31V217.17H55.47V141.49h.47a90.6,90.6,0,0,1,73.78,38l26.91,37.68h45Z"/><path class="cls-3" d="M34.53,233.63c10.32,0,14.64,5.26,14.64,15V254c0,7.21-2.54,11.73-8.16,13.53,6,1.78,8.26,6.66,8.26,13.7v10.23c0,2.91.08,5.63,1.31,7.89H43.16c-.84-1.89-1.2-3.61-1.2-8V281c0-7.42-3.48-9.76-9.62-9.76H27.2v28.07H19.88V233.63Zm-1.88,31c5.82,0,9.29-1.89,9.29-9v-6.29c0-5.91-2.16-9-7.61-9H27.2v24.33Z"/><path class="cls-3" d="M88.79,249.5v5.91h-7v-6.29c0-5.92-2.35-9.48-7.7-9.48s-7.7,3.61-7.7,9.48v34.73c0,5.92,2.4,9.49,7.7,9.49s7.7-3.61,7.7-9.49v-8.53h7v8.16c0,10-4.71,16.52-14.84,16.52s-14.7-6.56-14.7-16.52v-34C59.25,239.55,64,233,74,233S88.79,239.55,88.79,249.5Z"/><path class="cls-3" d="M136.29,299.16h-2.41L117.7,236.71v62.64h-1.89V233.63H119L135.16,296l16.15-62.34h3.18v65.72h-2.07V236.71Z"/><path class="cls-3" d="M167,233.63v65.72h-2.06V233.63Z"/><path class="cls-3" d="M204.81,249.78v5.07h-2.07v-5.17c0-8-3-14.64-11.64-14.64s-11.73,6.67-11.73,14.64v33.67c0,8,3,14.56,11.73,14.56s11.64-6.58,11.64-14.56v-7.22h2.07v7.15c0,9.1-3.75,16.61-13.8,16.61s-13.71-7.51-13.71-16.61V249.85c0-9.1,3.76-16.61,13.71-16.61S204.81,240.68,204.81,249.78Z"/><path class="cls-3" d="M228.1,233.63c9.76,0,13.51,5.73,13.51,14.74v5.92c0,8.07-3.2,12.48-10.42,13.8,7.32,1.12,10.42,5.9,10.42,13.14v10.33c0,2.52.28,5.72,1.78,7.79h-2.25c-1.31-2.07-1.6-5-1.6-7.79V281.2c0-9.68-5.82-12.21-14.42-12.21h-8v30.36H215V233.63Zm-2.94,33.43c9.12,0,14.43-2.41,14.43-12.5v-6c0-8-3.1-13-11.54-13H217.11v31.46Z"/><path class="cls-3" d="M253.53,249.78c0-9.2,3.94-16.62,13.89-16.62,10.14,0,14.08,7.42,14.08,16.62V283.2c0,9.2-3.94,16.62-14.08,16.62-9.95,0-13.89-7.42-13.89-16.62Zm2.06,33.51c0,8.08,3.11,14.64,11.83,14.64s12-6.56,12-14.64V249.62c0-8.06-3.19-14.64-12-14.64s-11.83,6.58-11.83,14.64Z"/><path class="cls-2" d="M268.56,36.26c11.65-8.31,9.17-25.67-4.66-30.84C253.15,1.42,240.48,0,225.79,0c-1.78,0-3.61.06-5.3.13h-1c-1.68.08-3.36.2-5,.36l-.94.1c-1.65.17-3.3.37-4.92.6h-.22c-1.66.24-3.29.53-4.93.85l-1,.18c-1.58.33-3.15.68-4.69,1.06L197,3.5c-1.5.38-3,.79-4.47,1.2l-.35.11c-1.54.47-3,1-4.54,1.51l-.92.33c-1.45.54-2.91,1.1-4.33,1.69l-1.09.47a37.67,37.67,0,0,0-3.49,1.58c-.2.11-.42.19-.62.29-1.4.67-2.77,1.38-4.13,2.11l-.84.46c-1.1.61-2.2,1.2-3.28,1.89l-.66.39-.59.36c-1.2.79-2.49,1.6-3.73,2.41l-.38.25c-1.2.87-2.47,1.74-3.67,2.66l-.76.58c-1.2.91-2.4,1.85-3.52,2.81l-.54.47C154,26,153,26.88,152,27.82l-.5.45c-1.09,1-2.16,2.06-3.19,3.13l-.67.68c-1,1.08-2.06,2.19-3.05,3.3l-.22.26-3,3.6c-.09.12-.19.23-.27.35-.4.49-.79,1-1.21,1.5s-1,1.36-1.52,2.06c-.2.25-.36.51-.54.76s-.51.68-.75,1-.3.48-.46.74a110.46,110.46,0,0,0-18.81,61.71h0c13.36-1.2,23.86-6.1,30.45-13.83l.34-.41a5.19,5.19,0,0,0,.56-.68h0A31.7,31.7,0,0,0,153,85.84h0a214.85,214.85,0,0,1,17.66-24l.14-.17a84.61,84.61,0,0,1,19.74-17.58,64.9,64.9,0,0,1,30.51-10h.16c1.4-.07,2.81-.13,4.22-.13,9.77,0,18.23,2.64,26.62,4.8,8,2.12,11.45,1.21,16.13-2.2Z"/></svg>