<svg id="Logos_Patrocinadores_Web" data-name="Logos Patrocinadores Web" xmlns="http://www.w3.org/2000/svg" viewBox="0 0 300 300"><defs><style>.cls-1{fill:#8f8fa3;}.cls-2{fill:#fff;}</style></defs><path class="cls-1" d="M20.78,154.94l-3.9,2.63c-1.65,1.1-2.15.92-3.18-.77s-2.22-3.46-3.4-5.13-1.1-2.7.38-3.9a41.61,41.61,0,0,1,12.11-7.36,3.88,3.88,0,0,1,4.38.84,7,7,0,0,0,8.7.95c5.44-3.32,4.81-2.62,8.83.53,3.56,2.78,7.06,5.63,10.53,8.5a3.12,3.12,0,0,1,1,1.77c0,.2-.89.7-1.44.86A14.66,14.66,0,0,0,48.11,158c-.89.94-1.52,1-2.52.12-3.15-2.63-2.74-2-3.51,1.14-1.27,5.21-1.62,10.41,0,15.61a8.73,8.73,0,0,1,.29,1.25c.53,2.87.1,3.54-2.76,3.93q-10.07,1.35-20.13,2.61c-2.13.27-3.17-.64-3.34-2.76-.29-3.71.73-7.22,1.59-10.75,1-4.23,2.08-8.46,3.12-12.69.1-.4.17-.82.25-1.23Zm31.57-2.76a8.27,8.27,0,0,0-.84-.89q-4.36-3.53-8.76-7c-2.35-1.88-2.65-1.89-5.2-.33-4.14,2.52-7.23,2.39-10.94-.69a2.83,2.83,0,0,0-3.55-.49c-3.46,2-6.89,4.14-10.28,6.29a1.49,1.49,0,0,0-.17,1.4c.72,1.35,1.64,2.59,2.38,3.93.59,1.08,1.13,1.09,2.15.45a19.78,19.78,0,0,1,4.6-2.24c2.17-.64,2.68.07,2.07,2.28-1.18,4.24-2.44,8.46-3.4,12.76-.83,3.67-1.32,7.43-1.89,11.16-.2,1.27.53,1.7,1.75,1.55,1.62-.19,3.25-.33,4.88-.49,4.44-.44,8.89-.82,13.32-1.34,1.81-.21,1.94-.63,1.51-2.42-1.19-5-1.88-10-.94-15.09a41.34,41.34,0,0,1,1.78-6.63c.55-1.54,1.41-1.57,2.58-.43.65.64,1.26,1.33,2,1.92a1.25,1.25,0,0,0,1.08.25C48.38,154.88,50.27,153.57,52.35,152.18Z"/><path class="cls-1" d="M291.4,182.36H286c0-2,0-3.87,0-5.77a3.32,3.32,0,0,0-.08-1.42c-.3-.57-.89-1.45-1.25-1.4a2.13,2.13,0,0,0-1.56,1.25,49.12,49.12,0,0,0-.23,5.3c0,.65,0,1.31,0,2h-5.31V169.26c1.87.19,3.72-.42,5.8.62a5.39,5.39,0,0,1,6.83.79,18.75,18.75,0,0,1,3.71-1.46c3.51-.55,5.81,1.26,6.05,4.83.18,2.71,0,5.44,0,8.28h-5.42V178c0-.86,0-1.73,0-2.59s-.33-1.68-1.36-1.73-1.5.71-1.68,1.63a6.93,6.93,0,0,0-.06,1.29Z"/><path class="cls-1" d="M118,141.55c1.81-1.51,3.72-.49,5.63-.91,0,2.1,0,4,0,5.89s.07,3.84,0,5.75c-.22,3.37-2,5.45-5.27,6.09a13.06,13.06,0,0,1-9.18-1.3l1.77-3.68c2.05,1,4.08,1.8,6.22.73.56-.27.84-1.11,1.11-1.87-2.09,1-4.17,1.3-6.14.26a8,8,0,0,1-2.92-2.6,6.34,6.34,0,0,1,1.1-7.78A6.17,6.17,0,0,1,118,141.55Zm.29,5.23a2.23,2.23,0,1,0-2.31,2A2.14,2.14,0,0,0,118.28,146.78Z"/><path class="cls-1" d="M75.9,137.3c3.56,0,7-.23,10.43.08a5.41,5.41,0,0,1,5,4.51,5.87,5.87,0,0,1-2.89,6.77l3.38,5.08c-2.06,0-3.86,0-5.66,0-.33,0-.7-.45-.94-.77-.57-.77-1-1.65-1.64-2.36a9.09,9.09,0,0,0-1.73-1.22l-.38.34v3.94H75.9Zm5.59,8c1.51-.19,3.15.56,4-1.05a2.32,2.32,0,0,0-.21-2.08c-1-1.24-2.48-.61-3.81-.63Z"/><path class="cls-1" d="M115.39,169.84c4.25-1.31,7-.61,8.69,2.12a7.74,7.74,0,0,1-.79,8.83,6.34,6.34,0,0,1-7.72,1c-1.69,1.34-3.6.34-5.46.74V164.78h5.28Zm0,6c0,1.53.83,2.59,2.06,2.59a2.3,2.3,0,0,0,2.12-2.57,2.34,2.34,0,0,0-2-2.53C116.32,173.24,115.43,174.28,115.42,175.81Z"/><path class="cls-1" d="M75.92,166c3.6,0,7.12-.31,10.56.09s5.16,3,5,6.43a6,6,0,0,1-5.57,5.61c-1.42.19-2.86.24-4.45.36v3.87H75.92Zm5.56,7.91c1.48-.22,3.1.61,4-1a2.28,2.28,0,0,0-.14-2.08c-1-1.28-2.48-.69-3.86-.7Z"/><path class="cls-1" d="M107.58,182.51c-1.83-.44-3.7.57-5.49-.84a6.14,6.14,0,0,1-4.62.83c-2.16-.49-3.69-1.77-3.87-3.9-.26-3-.07-6.09-.07-9.24h5.2c0,1.59,0,3.15,0,4.72a19.26,19.26,0,0,0,0,2c.11,1,.43,2,1.66,2s1.74-.91,1.76-2.05c0-1.67,0-3.35,0-5v-1.62h5.36Z"/><path class="cls-1" d="M155.9,154c-3.46,0-6.1-1.61-7.13-4.33a6.59,6.59,0,0,1,1.69-7.24,8.87,8.87,0,0,1,10.69-.27,6.6,6.6,0,0,1-.11,10.35A7.87,7.87,0,0,1,155.9,154Zm.11-4.18a2.34,2.34,0,0,0,2.08-2.62,2.25,2.25,0,0,0-2.11-2.44,2.56,2.56,0,0,0,0,5.06Z"/><path class="cls-1" d="M275.79,175.88c0,4-3.33,6.86-7.73,6.79s-7.56-2.94-7.54-6.85,3.26-6.79,7.74-6.73S275.82,171.93,275.79,175.88Zm-7.57-2.58a2.31,2.31,0,0,0-2.2,2.38,2.4,2.4,0,0,0,2,2.72,2.3,2.3,0,0,0,2.27-2.45A2.39,2.39,0,0,0,268.22,173.3Z"/><path class="cls-1" d="M224.19,175.92c0,4-3.1,6.73-7.54,6.75s-7.62-2.89-7.59-6.89,3.1-6.68,7.59-6.69S224.21,171.82,224.19,175.92Zm-5.46-.07c0-1.5-.89-2.57-2.12-2.54s-2,1-2,2.48.79,2.59,2,2.61S218.73,177.35,218.73,175.85Z"/><path class="cls-1" d="M177.47,174.11l-1.65-3.41c2.55-1.9,8-2.15,10.49-.54a4.66,4.66,0,0,1,2.31,3.79c.13,2.76,0,5.54,0,8.4h-4.82l-.36-1a5.36,5.36,0,0,1-6,.82,3.67,3.67,0,0,1-2.34-3.91A3.4,3.4,0,0,1,178,175c1.67-.33,3.39-.37,5.08-.54C182.41,172.82,180.47,172.65,177.47,174.11Zm5.72,3.14c-1.12.13-2.42-.47-2.75,1.09-.05.24.69.86,1.12.94C182.61,179.46,183.19,178.72,183.19,177.25Z"/><path class="cls-1" d="M133.35,145.87c-.93-1.7-2.16-1.79-5.7-.44L126,142.12c2.58-2,8-2.2,10.59-.49a4.49,4.49,0,0,1,2.16,3.56c.1,2.77,0,5.54,0,8.34-2.2.7-4.72.33-5-.9a5.44,5.44,0,0,1-5.76,1,3.7,3.7,0,0,1-2.7-3.81,3.34,3.34,0,0,1,2.79-3.38A48.89,48.89,0,0,1,133.35,145.87Zm.16,2.81c-1,.27-2.3-.61-2.81.91-.08.24.66,1.07,1.06,1.09C132.91,150.76,133.56,150.09,133.51,148.68Z"/><path class="cls-1" d="M107.23,148.5H98.51c.67,1.76,2.44,2,5,.68.89.9,1.8,1.8,2.69,2.69,0,.13,0,.25-.11.3-2.6,2.31-5.65,2.18-8.68,1.35a6.14,6.14,0,0,1-4.61-5.17c-.84-4.62,3.28-8.51,8.33-7.83C105.48,141.11,107.68,143.91,107.23,148.5Zm-9.15-3.25.24.56h3.77l.22-.43c-.66-.39-1.32-1.1-2-1.11S98.83,144.9,98.08,145.25Z"/><path class="cls-1" d="M165.86,149.31c4.12,1.22,5.17,1.28,6.36.22-.76-.18-1.37-.33-2-.46-.94-.18-1.9-.28-2.82-.52a3.3,3.3,0,0,1-2.69-2.66,3.56,3.56,0,0,1,1.56-4,10.92,10.92,0,0,1,10.34-.26L175.24,145c-1.87-.51-3.65-1.42-5.49-.46l-.09.45c.69.15,1.38.32,2.07.46.85.16,1.72.23,2.55.46a3.51,3.51,0,0,1,2.84,3.06,3.77,3.77,0,0,1-1.93,3.88c-2.33,1.41-4.89,1.23-7.42.91a25.8,25.8,0,0,1-3.41-.93C164.92,151.53,165.4,150.42,165.86,149.31Z"/><path class="cls-1" d="M237.32,170.23l-1.42,3.41c-1.84-.55-3.62-1.35-5.46-.49l-.08.45c.65.16,1.29.34,1.94.48,1,.21,2,.31,2.95.6a3.24,3.24,0,0,1,2.49,2.69,3.45,3.45,0,0,1-1.59,3.86,12.07,12.07,0,0,1-3.89,1.3,13,13,0,0,1-7.16-1.13c.49-1.22,1-2.34,1.43-3.54,2.07.63,4.05,1.64,6.28.37a5.82,5.82,0,0,0-1.05-.4c-1.13-.22-2.28-.34-3.4-.6a3.48,3.48,0,0,1-3-2.88,3.89,3.89,0,0,1,2.06-4.23C229.84,168.73,234.33,168.74,237.32,170.23Z"/><path class="cls-1" d="M155.82,173l-4,2c-1.61-1.81-2.78-2.12-3.89-1.07a3,3,0,0,0,0,3.93c1.1,1.06,2.35.72,3.85-1.08l4,1.94c-.81,2.7-3.74,4.32-7,3.95-4.11-.45-6.75-2.79-7-6.19s1.78-6.21,5.38-7.1C150.94,168.37,154.35,169.74,155.82,173Z"/><path class="cls-1" d="M260.11,173l-4,2c-1.57-1.81-2.76-2.12-3.88-1.05a3,3,0,0,0,.15,4c1.14.92,2.37.54,3.66-1.22l4,2c-.77,2.69-3.75,4.32-7.06,3.95-4.25-.47-6.8-2.84-7-6.48a6.65,6.65,0,0,1,5.55-6.86C255.44,168.42,258.85,169.84,260.11,173Z"/><path class="cls-1" d="M165.32,166.45h5.47V170l2.63.14v3.83l-2.59.2v2c0,2.28.13,2.41,2.42,2.23l1.17,3.44c-2.17,1.27-5.69,1.07-7.41-.4-2.3-2-1.36-4.8-1.72-7.32l-1.57-.13V170.1l1.6-.13Z"/><path class="cls-1" d="M126.85,164.74h5.25v17.6h-5.25Z"/><path class="cls-1" d="M141.37,136.15h5.23v17.51h-5.23Z"/><path class="cls-1" d="M200.34,173.75l-.91.05c-2.11,0-2.93.86-3,3,0,1.81,0,3.63,0,5.53h-5.35v-13.1c1.78.35,3.7-.64,5.52.8l3.7-1.16Z"/><path class="cls-1" d="M30.9,125.71c2.72-5.18,7-5.63,11.31-4.72,2.62.54,5,4.91,4.56,7.59A1.6,1.6,0,0,1,45.08,130a31.18,31.18,0,0,1-3.86-.28c-1-.14-1.25-.73-1-1.77.52-2.11.87-4.26,1.32-6.52A7,7,0,0,0,37,125.11c-1.67,2.9-2.48,3.07-5.34,1.19C31.38,126.14,31.17,125.94,30.9,125.71Z"/><path class="cls-1" d="M139.88,182.39h-5.24v-13h5.24Z"/><path class="cls-1" d="M162.35,182.37h-5.23v-13h5.23Z"/><path class="cls-1" d="M207.25,182.37h-5.17v-13h5.17Z"/><path class="cls-1" d="M9.49,156.73c-1.06.39-1.6.19-1.79-.94-.06-.4-.67-1-1-1a34.4,34.4,0,0,0-3.9.85c2,1.53,2,1.78.68,3.52-.32.42-.64.84-.95,1.27a1.84,1.84,0,0,0,.06,2.5,1.8,1.8,0,0,0,2.61.09,22.79,22.79,0,0,0,2.68-2.95c.45-.55.67-1.28,1.12-1.83.24-.3.72-.41,1.1-.61.22.43.45.86.63,1.31a.55.55,0,0,1-.08.42c-1.66,2.51-3.13,5.21-6.3,6.19-1.9.59-3.26,0-3.9-1.83-.55-1.6-.83-3.21.29-4.81a2.46,2.46,0,0,0,.09-2.09,1.84,1.84,0,0,1,.73-2.7,13.32,13.32,0,0,1,3.83-1.54C8,152.05,9.73,153.86,9.49,156.73Z"/><path class="cls-1" d="M61.54,165.34a20.17,20.17,0,0,1-.62,2.41c-.75,2-2.64,2.81-4.42,1.67a12.09,12.09,0,0,1-3.27-3.3,18,18,0,0,1-1.69-3.79c-.29-.71-.39-1.46.56-1.77s1.06.45,1.31,1.09c.51,1.34,1,2.69,1.65,4s2.33,2.19,3.13,1.82,1.2-2.61.5-3.7c-.83-1.28-.75-2.14.62-2.89.69-.38.62-1,0-1.34a11.12,11.12,0,0,0-2.75-1.19c-.37-.09-1,.46-1.36.85s-.78,1.46-1.62.8c-.31-.24-.29-1.2-.1-1.71A3.25,3.25,0,0,1,58,156.47a14,14,0,0,1,3,1.92c1.4,1.17,1.35,2.2.19,3.64a2.09,2.09,0,0,0-.16,1.4A15.9,15.9,0,0,0,61.54,165.34Z"/><path class="cls-1" d="M39.94,130.72c2.25-.08,4.51,1.18,7.34.14,1,.85,2.56,2,4,3.26a1.53,1.53,0,0,1,.37,1.39,1.56,1.56,0,0,1-1.33.53,21.1,21.1,0,0,1-10.32-5S40,130.87,39.94,130.72Z"/><path class="cls-1" d="M241.81,176.43a3,3,0,0,1,3.21,3.09,3.09,3.09,0,0,1-3.05,3.14,3.15,3.15,0,0,1-3.31-3A3.08,3.08,0,0,1,241.81,176.43Z"/><path class="cls-1" d="M204.7,162.84c2,0,3.26,1.06,3.25,2.66a3,3,0,0,1-3.33,2.82c-1.88,0-3.22-1.15-3.23-2.74S202.63,162.84,204.7,162.84Z"/><path class="cls-1" d="M137.31,162.84c2,0,3.2,1,3.2,2.65s-1.35,2.85-3.27,2.84-3.24-1.17-3.28-2.74S135.32,162.83,137.31,162.84Z"/><path class="cls-1" d="M159.78,162.84c2,0,3.24,1,3.23,2.66s-1.39,2.84-3.31,2.83a3,3,0,0,1-3.25-2.75C156.43,163.91,157.73,162.84,159.78,162.84Z"/><path class="cls-1" d="M33.15,139.68a41.46,41.46,0,0,1-3.92-1.55,2.47,2.47,0,0,1-1-1.48c-.13-.45.17-1,.28-1.54.47.15,1.08.16,1.37.48a4.78,4.78,0,0,0,3.89,1.48c.84,0,1.74-.18,1.85,1s-.87,1.26-1.75,1.31h-.57Z"/><path class="cls-1" d="M39,133.56c0,1-.61,1.61-1.51,1.41a2.27,2.27,0,0,1-1.36-1.44c-.23-1,.5-1.48,1.46-1.47S39,132.6,39,133.56Z"/><path class="cls-1" d="M29.83,133.27c-.4-.53-1-1-1.15-1.61-.19-.92.41-1.55,1.4-1.58s1.62.55,1.47,1.5c-.1.6-.68,1.12-1,1.68Z"/><path class="cls-1" d="M35.71,129.61l-5.08-2.49.2-.39,5.11,2.6Z"/><path class="cls-2" d="M52.35,152.18c-2.08,1.39-4,2.7-5.91,3.92a1.25,1.25,0,0,1-1.08-.25c-.7-.59-1.31-1.28-2-1.92-1.17-1.14-2-1.11-2.58.43A41.34,41.34,0,0,0,39,161c-.94,5.09-.25,10.12.94,15.09.43,1.79.3,2.21-1.51,2.42-4.43.52-8.88.9-13.32,1.34-1.63.16-3.26.3-4.88.49-1.22.15-1.95-.28-1.75-1.55.57-3.73,1.06-7.49,1.89-11.16,1-4.3,2.22-8.52,3.4-12.76.61-2.21.1-2.92-2.07-2.28a19.78,19.78,0,0,0-4.6,2.24c-1,.64-1.56.63-2.15-.45-.74-1.34-1.66-2.58-2.38-3.93a1.49,1.49,0,0,1,.17-1.4c3.39-2.15,6.82-4.26,10.28-6.29a2.83,2.83,0,0,1,3.55.49c3.71,3.08,6.8,3.21,10.94.69,2.55-1.56,2.85-1.55,5.2.33q4.39,3.5,8.76,7A8.27,8.27,0,0,1,52.35,152.18ZM28.94,165.06c2.67.36,3.17,0,3.76-2.55.46-2,.83-4.12,1.41-6.14,1-3.37,1.28-3.79-3.27-4.21,0,0-.11,0-.14,0-.35.32-1,.63-1,1C29.4,157.06,29.19,161,28.94,165.06Zm3.41,3.69a2.18,2.18,0,0,0-2.24-2.13,2.12,2.12,0,0,0-2.17,2.31,2,2,0,0,0,2.28,2A2.12,2.12,0,0,0,32.35,168.75Z"/><path class="cls-2" d="M118.28,146.78a2.14,2.14,0,0,1-2.31,2,2.05,2.05,0,1,1,2.31-2Z"/><path class="cls-2" d="M81.49,145.34v-3.76c1.33,0,2.78-.61,3.81.63a2.32,2.32,0,0,1,.21,2.08C84.64,145.9,83,145.15,81.49,145.34Z"/><path class="cls-2" d="M115.42,175.81c0-1.53.9-2.57,2.15-2.51a2.34,2.34,0,0,1,2,2.53,2.3,2.3,0,0,1-2.12,2.57C116.25,178.4,115.41,177.34,115.42,175.81Z"/><path class="cls-2" d="M81.48,173.89v-3.76c1.38,0,2.86-.58,3.86.7a2.28,2.28,0,0,1,.14,2.08C84.58,174.5,83,173.67,81.48,173.89Z"/><path class="cls-2" d="M156,149.79a2.56,2.56,0,0,1,0-5.06,2.25,2.25,0,0,1,2.11,2.44A2.34,2.34,0,0,1,156,149.79Z"/><path class="cls-2" d="M268.22,173.3a2.39,2.39,0,0,1,2.07,2.65A2.3,2.3,0,0,1,268,178.4a2.4,2.4,0,0,1-2-2.72A2.31,2.31,0,0,1,268.22,173.3Z"/><path class="cls-2" d="M218.73,175.85c0,1.5-.89,2.58-2.11,2.55s-2.05-1.06-2-2.61.82-2.46,2-2.48S218.73,174.35,218.73,175.85Z"/><path class="cls-2" d="M183.19,177.25c0,1.47-.58,2.21-1.63,2-.43-.08-1.17-.7-1.12-.94C180.77,176.78,182.07,177.38,183.19,177.25Z"/><path class="cls-2" d="M133.51,148.68c.05,1.41-.6,2.08-1.75,2-.4,0-1.14-.85-1.06-1.09C131.21,148.07,132.49,149,133.51,148.68Z"/><path class="cls-2" d="M98.08,145.25c.75-.35,1.5-1,2.24-1s1.33.72,2,1.11l-.22.43H98.32Z"/><path class="cls-1" d="M28.94,165.06c.25-4.05.46-8,.76-11.95,0-.34.65-.65,1-1,0,0,.1,0,.14,0,4.55.42,4.23.84,3.27,4.21-.58,2-1,4.09-1.41,6.14C32.11,165.09,31.61,165.42,28.94,165.06Z"/><path class="cls-1" d="M32.35,168.75a2.12,2.12,0,0,1-2.13,2.2,2,2,0,0,1-2.28-2,2.12,2.12,0,0,1,2.17-2.31A2.18,2.18,0,0,1,32.35,168.75Z"/></svg>