<svg id="Logos_Patrocinadores_Web" data-name="Logos Patrocinadores Web" xmlns="http://www.w3.org/2000/svg" viewBox="0 0 300 300"><defs><style>.cls-1{fill:#8f8fa3;}</style></defs><path class="cls-1" d="M300,194.84v59.31c-.09.41-.19.82-.26,1.22-.18,1.06-.25,2.14-.53,3.16a18.61,18.61,0,0,1-18.09,13.78c-5.48,0-11,.05-16.44.05H18.82a18.91,18.91,0,0,1-5.64-.91,18.63,18.63,0,0,1-13-18c.06-13,0-26,0-39V47A18.37,18.37,0,0,1,1,41.33c2.47-7.46,7.6-11.86,15.34-13.11A33,33,0,0,1,21.59,28Q151,28,280.44,28a21.55,21.55,0,0,1,3.31.19c7.14,1.1,12.07,5.05,14.91,11.67a18.45,18.45,0,0,1,1.16,7.43q0,52.59,0,105.17,0,20.4,0,40.8A13.71,13.71,0,0,0,300,194.84Zm-149.93,71.9h70.57q30.17,0,60.34-.07h.69A12.65,12.65,0,0,0,293,259.41a14.62,14.62,0,0,0,1.41-6.9q0-102.36,0-204.7c0-.57,0-1.15,0-1.72a13,13,0,0,0-7-11,13.38,13.38,0,0,0-6.64-1.5h-261l-1.38,0a12.13,12.13,0,0,0-6,1.78c-4.46,2.69-6.53,6.73-6.53,11.88q0,102.75,0,205.5a16,16,0,0,0,.15,2.4c.82,5.25,3.62,8.92,8.64,10.79a15.56,15.56,0,0,0,5.54.78Z"/><path class="cls-1" d="M69.19,98.08v115q0,13.66,0,27.35a12.53,12.53,0,0,1-.14,2.29A8.68,8.68,0,0,1,61,250c-1.53.14-3.06.22-4.59.22-8.16,0-16.32,0-24.48,0a22.59,22.59,0,0,1-4.33-.47c-3.91-.8-6.11-3.56-6.14-7.59,0-3.49,0-7,0-10.46q0-82.47,0-164.93c0-2.65-.05-5.29.06-7.93a15.06,15.06,0,0,1,.67-3.94c1-3.26,3.43-5,6.74-5.44a29.77,29.77,0,0,1,4-.22q48.33,0,96.66,0a20.21,20.21,0,0,1,7,1c6.37,2.28,10.21,6.82,11.67,13.37a18.46,18.46,0,0,1,.42,4q0,36,0,72.07a17.81,17.81,0,0,1-11.55,16.92,29.71,29.71,0,0,1-5.81,1.28c-1,.16-2,.29-3.06.49a3.82,3.82,0,0,0-3.29,4.38c0,.27,0,.53.08.8a2.83,2.83,0,0,0,2.23,2.62c1.81.46,3.65.82,5.48,1.23a29.69,29.69,0,0,1,3.22.8,10.84,10.84,0,0,1,6.56,6.65c1.41,3.6,2.78,7.21,4.14,10.83,1.23,3.3,2.42,6.61,3.65,9.91a17.33,17.33,0,0,0,1,2.2,8,8,0,0,0,6.4,4.31,39,39,0,0,0,4.58.24q28.9,0,57.82,0a20.17,20.17,0,0,0,4.09-.45c4.67-1,7.2-3.9,7.34-8.66.09-3.17,0-6.36-.17-9.53a7.94,7.94,0,0,0-6.76-7.63,50.56,50.56,0,0,0-6.38-.68c-4.44-.27-8.88-.46-13.31-.65-4.63-.2-9.26-.35-13.89-.54a59.11,59.11,0,0,1-9.48-.92c-7.6-1.53-13.58-5.4-17.56-12.16a18.13,18.13,0,0,1-2.54-8.72c0-.77-.05-1.53-.05-2.3q0-38.39,0-76.78c0-2.33.08-4.67.32-7a18.21,18.21,0,0,1,2.64-7.64,15.48,15.48,0,0,1,10.26-7.14,27.23,27.23,0,0,1,6.16-.67q41.72,0,83.44,0a22.8,22.8,0,0,1,4.44.42c4.15.85,6.4,3.51,6.71,7.75.07.88.1,1.76.1,2.64q0,12.93,0,25.86a25,25,0,0,1-.31,3.77,7.82,7.82,0,0,1-6.86,7,28.65,28.65,0,0,1-4.8.43c-9.61,0-19.23,0-28.85,0-5.21,0-10.42,0-15.63,0a20.14,20.14,0,0,0-4.31.5,8,8,0,0,0-6.38,7.72c-.11,3.48-.08,7,0,10.46a6.6,6.6,0,0,0,2.53,5.08,12.22,12.22,0,0,0,6.48,2.73c2.84.34,5.71.5,8.58.7,4.7.31,9.4.59,14.1.87,3.21.19,6.42.34,9.63.54,3.51.21,7,.37,10.54.73a17.27,17.27,0,0,1,8.27,3.2c6.74,4.78,10.33,11.28,10.35,19.59q.06,34.71,0,69.42c0,4.1,0,8.2,0,12.29a17.8,17.8,0,0,1-1.47,7.27c-2,4.56-5.58,7.37-10.2,9a25.07,25.07,0,0,1-8.46,1.35l-112.52,0c-7.55,0-15.09,0-22.64-.05a30.52,30.52,0,0,1-5.14-.47,8.55,8.55,0,0,1-7-6.48c-.76-2.56-1.42-5.16-2.07-7.76q-5.19-21.06-10.37-42.13c-.32-1.3-.71-2.59-1.13-3.85A7.91,7.91,0,0,0,91,183.78c-1.93-.29-3.89-.34-5.84-.47a13.61,13.61,0,0,1-4.36-.89A7.83,7.83,0,0,1,76,176.34a13.17,13.17,0,0,1-.23-2.51q0-12.65,0-25.28a17.09,17.09,0,0,1,.26-2.86,7.11,7.11,0,0,1,6.1-6.17,28.77,28.77,0,0,1,4.33-.45c2.19-.07,4.37,0,6.55,0a8.17,8.17,0,0,0,8.41-6.43,20.17,20.17,0,0,0,.67-4.76c.08-6.63.06-13.25,0-19.88a15.56,15.56,0,0,0-.29-3.2,8.45,8.45,0,0,0-7.32-6.51A37.79,37.79,0,0,0,90.35,98c-6.67,0-13.34,0-20,0C70,98,69.74,98.05,69.19,98.08Z"/></svg>