<svg id="Logos_Patrocinadores_Web" data-name="Logos Patrocinadores Web" xmlns="http://www.w3.org/2000/svg" viewBox="0 0 300 300"><defs><style>.cls-1{fill:#8f8fa3;}</style></defs><path class="cls-1" d="M21.74,151c6.38,0,12.77,0,19.15,0a5.06,5.06,0,0,0,4.1-1.66,4.45,4.45,0,0,0,.82-5,4.52,4.52,0,0,0-4.39-2.86c-6.47,0-12.94,0-19.41,0a20.88,20.88,0,0,1-16-6.82c-5.61-6.07-7.29-13.24-4.91-21.08S9,100.72,17.1,98.78a19.08,19.08,0,0,1,4.46-.45c7.49,0,15,0,22.46,0a16.31,16.31,0,0,1,16.45,14.85c0,.06,0,.12,0,.18.11,1.48.06,1.53-1.39,1.53H22a5,5,0,0,0-5,3.31,4.85,4.85,0,0,0,4.63,6.5c3.11.06,6.23,0,9.34,0H41.23c8.18,0,14.31,3.73,18.55,10.54a21.54,21.54,0,0,1-3.18,26.1,20.83,20.83,0,0,1-15.3,6.39c-8.15,0-16.3,0-24.45,0A16.7,16.7,0,0,1,.63,153c-.22-2-.2-2,1.79-2Z"/><path class="cls-1" d="M166.37,133V99.78c0-1.45,0-1.46,1.44-1.46h13.94c1.33,0,1.37,0,1.37,1.35v24.72c0,1.25,0,1.25,1.25,1.26s2.75,0,4.13,0a1.61,1.61,0,0,0,1.54-.83c4.87-7.3,9.57-14.72,14.23-22.15.74-1.17,1.49-2.32,2.19-3.51a1.57,1.57,0,0,1,1.52-.86c6.17,0,12.34,0,18.52,0,.28,0,.67-.13.81.2s-.19.54-.35.78l-15,22.1c-2.49,3.68-4.95,7.36-7.45,11a1,1,0,0,0,0,1.36q9,13.26,18,26.53c1.49,2.2,3,4.41,4.49,6.62.13.19.36.38.23.63s-.43.16-.66.16c-6.32,0-12.64,0-19,0-.71,0-1-.41-1.31-.9Q198,154.2,189.7,141.56a1.86,1.86,0,0,0-1.82-1c-1.23.07-2.46.06-3.69,0-.81,0-1.1.22-1.09,1.06,0,3.51,0,7,0,10.52v14.38c0,1.18,0,1.2-1.22,1.2H167.61c-1.22,0-1.24,0-1.24-1.27Z"/><path class="cls-1" d="M92.44,133a36,36,0,0,1,31.27-35.72,35.52,35.52,0,0,1,28.71,8.85,36.67,36.67,0,0,1,7.1,8.64c.46.75.33,1.09-.43,1.51q-6.47,3.45-12.85,7c-.72.4-1.07.39-1.54-.37a19.07,19.07,0,0,0-26.37-6.13,18.67,18.67,0,0,0-9,16.05c-.26,9.81,7.36,17.26,14.82,18.9a19.25,19.25,0,0,0,20.76-8.95c.51-.83.87-.85,1.65-.42,4.22,2.34,8.46,4.62,12.7,6.93,1.06.58,1.08.6.44,1.7a34.36,34.36,0,0,1-18.52,15.72c-12.91,4.59-25,2.87-35.7-5.91A34.44,34.44,0,0,1,92.7,137.94,31.21,31.21,0,0,1,92.44,133Z"/><path class="cls-1" d="M69.08,133V99.66c0-1.33,0-1.34,1.36-1.34H84.55c1.2,0,1.27.07,1.27,1.28q0,33.48,0,67c0,.88-.24,1.2-1.17,1.2-4.79,0-9.58,0-14.38,0-1.19,0-1.2,0-1.2-1.21Z"/><path class="cls-1" d="M211.6,202.2c1,0,2,0,3,0a5.13,5.13,0,0,1,4.81,3.41,5,5,0,0,1-2,5.6,8.12,8.12,0,0,1-3.29,1.38,20,20,0,0,1-8.19-.09,6.89,6.89,0,0,1-2.47-1,3.89,3.89,0,0,1,0-6.51c.6-.39.59-.6.16-1.13a3.45,3.45,0,0,1,.87-5.4c.6-.41.79-.62.1-1.19a4.81,4.81,0,0,1,.74-7.64c2-1.35,4.3-1.31,6.59-1.17a2.51,2.51,0,0,1,.27,0c1.42.21,1.42.21,2.07-1,.84-1.61,3.3-2.74,4.93-2,1,.44.31,1.6.46,2.42.1.53-.25.75-.76.74-.33,0-.66,0-1,0a2.48,2.48,0,0,0-1.28.37c-.7.46-.75.9-.18,1.5a4.75,4.75,0,0,1-1.15,7.68c-2.17,1.27-4.51,1.23-6.89.9-.49-.07-1-.29-1.47.06a1.61,1.61,0,0,0,.29,2.79,3.56,3.56,0,0,0,1.58.3h2.87Zm-.53,7.93a7.88,7.88,0,0,0,3.72-.77,1.69,1.69,0,0,0,.93-1.71,1.63,1.63,0,0,0-1.2-1.32,6.1,6.1,0,0,0-1.94-.3,34.28,34.28,0,0,1-5.64-.19c-.46-.08-.93-.3-1.29.25a1.68,1.68,0,0,0-.23,1.77,3.3,3.3,0,0,0,1.69,1.54A10.66,10.66,0,0,0,211.07,210.13Zm2.56-16.27c0-1.73-1.18-2.79-3.13-2.79s-3.28,1.15-3.28,2.88a3,3,0,0,0,3.18,2.83C212.38,196.8,213.62,195.68,213.63,193.86Z"/><path class="cls-1" d="M10.38,206.93a11.56,11.56,0,0,1-7-1.87,7.24,7.24,0,0,1-2.71-3.6c-.19-.49-.13-.78.46-.89,1-.18,1.94-.39,2.9-.61a.7.7,0,0,1,1,.53,4,4,0,0,0,3.18,2.62,8.9,8.9,0,0,0,4.61,0,2.91,2.91,0,0,0,2.39-2.95,2.51,2.51,0,0,0-1.86-2.57c-1.74-.53-3.52-1-5.27-1.46-.78-.22-1.56-.45-2.31-.73a5.91,5.91,0,0,1-4-5.66,6.45,6.45,0,0,1,2.62-5.79c3.09-2.45,9.71-2.28,12.79.52a6.28,6.28,0,0,1,1.62,2.34c.19.48.05.74-.44.86l-3,.71a.68.68,0,0,1-.86-.44c-1.18-2.51-5-2.56-6.83-1.51a2.44,2.44,0,0,0,0,4.36,9.17,9.17,0,0,0,2.45.87c1.62.41,3.25.8,4.85,1.29,2.81.85,4.61,2.62,4.87,5.66A6.75,6.75,0,0,1,16,205.79,11,11,0,0,1,10.38,206.93Z"/><path class="cls-1" d="M286.15,198.26c-1.64,0-3.29.06-4.94,0-.92,0-1.08.3-1,1.14a4.12,4.12,0,0,0,5.78,4,3.32,3.32,0,0,0,2-1.87.87.87,0,0,1,1.13-.59c.64.13,1.3.16,1.95.26.91.14,1,.35.62,1.2a7.43,7.43,0,0,1-6.16,4.51,8.66,8.66,0,0,1-5-.65,8,8,0,0,1-4.52-6.79c-.34-2.93,0-5.75,2-8.16,2.12-2.6,4.92-3.26,8.08-2.76s4.79,2.52,5.76,5.31a10.54,10.54,0,0,1,.54,3.44c0,.74-.24,1-1,1C289.57,198.24,287.86,198.26,286.15,198.26ZM284,195.53h2.88c1,0,1.16-.24.93-1.19a3.84,3.84,0,0,0-3.82-3.05,4.1,4.1,0,0,0-3.76,3.41c-.09.59.13.84.72.83Z"/><path class="cls-1" d="M231.06,198.26c-1.71,0-3.42,0-5.12,0-.79,0-1,.32-.89,1,.07.35.1.71.17,1.07a4.07,4.07,0,0,0,7.52,1.3,1.16,1.16,0,0,1,1.47-.73c.59.13,1.19.16,1.78.23s1,.34.62,1.06a7.51,7.51,0,0,1-6.52,4.67c-5.48.43-9-2.69-9.29-8.2a10.33,10.33,0,0,1,1.85-7.21c2.2-2.9,5.21-3.59,8.58-2.9,3.13.64,4.77,2.89,5.58,5.83a13,13,0,0,1,.39,2.56c.09,1.21,0,1.29-1.2,1.29C234.35,198.27,232.7,198.26,231.06,198.26Zm-2.12-2.73c1,0,2.09,0,3.13,0,.71,0,.87-.31.74-.95a3.85,3.85,0,0,0-7.65.21c-.09.57.09.76.64.74C226.84,195.51,227.89,195.53,228.94,195.53Z"/><path class="cls-1" d="M167.19,198.26c-1.67,0-3.35,0-5,0-.82,0-1.06.32-1,1.08.16,1.7.67,3.21,2.34,3.95a4.23,4.23,0,0,0,4.28-.35,3.11,3.11,0,0,0,1.17-1.44.86.86,0,0,1,1.12-.59,20.47,20.47,0,0,0,2.05.25c.77.06.9.42.59,1.08a7.42,7.42,0,0,1-5.81,4.56c-3.82.57-6.7-.33-8.76-3.64s-1.69-9,.88-12c2.27-2.65,5.23-3.26,8.47-2.5s4.73,3.07,5.49,6a21.77,21.77,0,0,1,.36,2.57c.09.73-.23,1-1,1-1.73,0-3.47,0-5.21,0ZM165,195.53c1.05,0,2.1,0,3.15,0,.67,0,.9-.2.74-.91a3.92,3.92,0,0,0-3.86-3.35,4,4,0,0,0-3.79,3.47c-.11.57.07.78.62.78Z"/><path class="cls-1" d="M32.49,198.26c-1.65,0-3.29,0-4.94,0-.86,0-1.09.32-1.05,1.12a4.1,4.1,0,0,0,2.37,3.92,4.16,4.16,0,0,0,4.34-.45,2.94,2.94,0,0,0,1-1.32c.25-.65.65-.75,1.27-.62a16,16,0,0,0,2,.28c.7.08.84.38.55,1a7.49,7.49,0,0,1-6.16,4.65,8.19,8.19,0,0,1-6.62-1.59,8.4,8.4,0,0,1-3-5.83c-.33-3,0-5.93,2.14-8.36s5.09-3.11,8.24-2.49c2.94.57,4.52,2.65,5.44,5.32a10.31,10.31,0,0,1,.52,3.36c0,.73-.24,1-1,1C35.91,198.24,34.2,198.26,32.49,198.26Zm-2.21-2.73h2.88c1.07,0,1.24-.25,1-1.32a3.82,3.82,0,0,0-3.91-2.92,4.07,4.07,0,0,0-3.63,3.45c-.08.55.11.79.66.79Z"/><path class="cls-1" d="M93.41,197.3c0,3.7-1.08,6.6-4.09,8.46-3.39,2.1-9.38,2-11.68-3.84a10.47,10.47,0,0,1,2-11.42,8.12,8.12,0,0,1,12.47,1.74A9.78,9.78,0,0,1,93.41,197.3Zm-4.35.2a8,8,0,0,0-.69-3.64,3.2,3.2,0,0,0-3-2.06A3.26,3.26,0,0,0,82,193.72a9.42,9.42,0,0,0-.11,7.66,3.24,3.24,0,0,0,3.42,2.11,3.36,3.36,0,0,0,3.18-2.35A10.07,10.07,0,0,0,89.06,197.5Z"/><path class="cls-1" d="M131.31,192a14.35,14.35,0,0,1,2.35-2.66,5.42,5.42,0,0,1,8.27,2.73,8.4,8.4,0,0,1,.37,2.39c0,3.65,0,7.3,0,11,0,.91-.29,1.25-1.19,1.16a10.73,10.73,0,0,0-1.88,0c-.89.08-1.13-.32-1.12-1.15,0-3.08,0-6.17,0-9.25v-.9c0-1.66-.75-2.8-2-3.18a3.38,3.38,0,0,0-3.51,1.45,5.3,5.3,0,0,0-.95,3.22c0,2.87,0,5.75,0,8.62,0,.88-.24,1.28-1.17,1.19a11.78,11.78,0,0,0-2,0c-.78.06-1.05-.24-1-1,0-3.53,0-7.07,0-10.6,0-1.74,0-3.47,0-5.21,0-.72.21-1.06,1-1s1.38,0,2.07,0c.52,0,.77.23.76.75C131.3,190.32,131.31,191.15,131.31,192Z"/><path class="cls-1" d="M244.73,192.06a11.38,11.38,0,0,1,1.78-2.34,5.39,5.39,0,0,1,8.59,2.05,8.24,8.24,0,0,1,.46,2.64c0,3.72,0,7.43,0,11.14,0,.8-.3,1.07-1.06,1a17.3,17.3,0,0,0-2.16,0c-.75,0-1-.28-1-1,0-3.38,0-6.76,0-10.14a3.62,3.62,0,0,0-.59-2.31,2.67,2.67,0,0,0-3.68-.67,4.57,4.57,0,0,0-2.16,4.18c-.07,2.91,0,5.81,0,8.72,0,1.19,0,1.21-1.2,1.22-.69,0-1.38,0-2.06,0s-.91-.24-.91-.9c0-1.79,0-3.59,0-5.39,0-3.47,0-6.94,0-10.42,0-.84.23-1.15,1.11-1.15,2.67,0,2.66,0,2.7,2.62C244.59,191.55,244.5,191.8,244.73,192.06Z"/><path class="cls-1" d="M46,192.33c.42-.65.73-1.19,1.1-1.68a5.15,5.15,0,0,1,6-2.05,5.07,5.07,0,0,1,3.77,4.93c.09,4.07,0,8.15,0,12.22,0,.57-.24.82-.81.81-.75,0-1.5,0-2.24,0s-1-.26-1-1c0-3.17,0-6.35,0-9.52a8.31,8.31,0,0,0-.2-1.87,2.73,2.73,0,0,0-4.5-1.51,5.27,5.27,0,0,0-1.88,4.38c0,2.78,0,5.57,0,8.35,0,.92-.28,1.26-1.18,1.17a10.85,10.85,0,0,0-1.89,0c-.89.08-1.12-.32-1.12-1.15,0-3.47,0-6.95,0-10.42,0-1.74,0-3.48,0-5.21,0-.75.2-1.07,1-1.08,2.78,0,2.78-.05,2.8,2.7C46,191.67,46,191.92,46,192.33Z"/><path class="cls-1" d="M67,206.92a9.3,9.3,0,0,1-4.85-1.1,5.37,5.37,0,0,1-2.38-2.49c-.3-.64-.24-1,.54-1.11a8.31,8.31,0,0,0,1.32-.25,1.88,1.88,0,0,1,2.43.74c1,1.4,4.64,1.52,6,.4a1.6,1.6,0,0,0,.61-1.6,1.68,1.68,0,0,0-1.31-1.35c-.95-.26-1.93-.43-2.9-.61a18.17,18.17,0,0,1-2.52-.62c-2.5-.87-3.86-2.65-3.79-5a5.45,5.45,0,0,1,4.06-5.22,9.93,9.93,0,0,1,7.18.58,5.15,5.15,0,0,1,2.32,2.53c.22.47.16.8-.44.91-.76.13-1.52.3-2.28.46a.79.79,0,0,1-1-.46c-1-1.84-4.07-1.67-5.33-.85a1.47,1.47,0,0,0,0,2.5,5.2,5.2,0,0,0,2,.74c1.4.31,2.82.56,4.21.92a4.67,4.67,0,0,1,3.88,4.37,5,5,0,0,1-2.46,5.19A9.61,9.61,0,0,1,67,206.92Z"/><path class="cls-1" d="M259.13,197.56c0-3.08.82-5.82,3.37-7.75a7.51,7.51,0,0,1,7.5-.92c2.31.83,3.36,2.76,3.89,5,.12.49-.06.74-.57.77-.24,0-.47.06-.71.09a5.7,5.7,0,0,1-1.86.16c-.66-.16-.47-1-.75-1.52a2.85,2.85,0,0,0-2.42-1.61,2.89,2.89,0,0,0-3,1.4,9.25,9.25,0,0,0-.41,8.23,2.87,2.87,0,0,0,2.9,1.86,3,3,0,0,0,2.87-1.94c.69-1.48.69-1.48,2.31-1.25l.18,0c1.73.26,1.73.26,1.11,2a7.21,7.21,0,0,1-11.46,3.24,8.93,8.93,0,0,1-2.95-6.44C259.09,198.46,259.13,198,259.13,197.56Z"/><path class="cls-1" d="M147.32,197.4c0-1.65,0-3.08,0-4.52,0-.66-.25-.9-.9-.91-1.28,0-1.28,0-1.28-1.31v-.18c0-1.77-.16-1.82,1.66-1.75.61,0,.84-.24.86-.85,0-.95.14-1.9.2-2.86,0-.63.31-1,1-1a.55.55,0,0,0,.18,0c2.26-.18,2.26-.18,2.26,2.14,0,.57,0,1.14,0,1.7s.21.89.84.86,1.32,0,2,0c.51,0,.79.2.77.74,0,0,0,.06,0,.09,0,2.86.3,2.38-2.25,2.42-1.34,0-1.36,0-1.34,1.34,0,2.51-.16,5,.09,7.54.2,2.06.75,2.55,2.81,2.51.9,0,1.12.27,1,1a3.38,3.38,0,0,0,0,.45c0,1.89-.05,1.95-1.93,2a6.94,6.94,0,0,1-3.43-.43,4.25,4.25,0,0,1-2.42-3.63C147.24,201,147.37,199.08,147.32,197.4Z"/><path class="cls-1" d="M122.53,194.68c0,3.59,0,7.18,0,10.77,0,.86-.27,1.2-1.13,1.14a20.3,20.3,0,0,0-2.34,0c-.71,0-1-.29-.93-1,0-1.32,0-2.64,0-4q0-8.94,0-17.87c0-1.18,0-1.21,1.21-1.21.72,0,1.44,0,2.15,0s1,.3,1,1.06C122.52,187.32,122.53,191,122.53,194.68Z"/><path class="cls-1" d="M181,194.62c0,3.62,0,7.24,0,10.87,0,.8-.24,1.16-1.08,1.1a10.8,10.8,0,0,0-2,0c-.87.07-1.14-.29-1.14-1.14,0-4.58,0-9.16,0-13.74,0-2.69,0-5.39,0-8.08,0-.76.23-1.11,1-1a19.28,19.28,0,0,0,2.15,0c.75,0,1,.27,1,1,0,3.47,0,6.94,0,10.41Z"/><path class="cls-1" d="M185.62,194.58c0-3.62,0-7.24,0-10.86,0-.85.26-1.21,1.13-1.15s1.5,0,2.25,0c.57,0,.82.25.79.81a1.08,1.08,0,0,0,0,.18c0,7.33,0,14.67,0,22,0,.72-.23,1-1,1a19.46,19.46,0,0,0-2.16,0c-.79.06-1-.28-1-1C185.63,201.88,185.62,198.23,185.62,194.58Z"/><path class="cls-1" d="M100.76,192a10,10,0,0,1,2.37-2.9,6.53,6.53,0,0,1,.85-.5c1.72-.78,2.18-.49,2.18,1.35v.44a6,6,0,0,1-.1,2c-.28.73-1.17.34-1.76.56a3.63,3.63,0,0,0-2.26,1.9,8.86,8.86,0,0,0-.92,3.89c0,2.3,0,4.61,0,6.91,0,.73-.24,1-1,1a19.45,19.45,0,0,0-2.16,0c-.79.06-1-.28-1-1.05,0-3.11,0-6.22,0-9.33,0-2.13,0-4.25,0-6.38,0-.79.21-1.17,1.06-1.1a14.9,14.9,0,0,0,1.89,0c.6,0,.88.23.86.85C100.75,190.37,100.76,191.17,100.76,192Z"/><path class="cls-1" d="M198.57,197.71c0,2.61,0,5.21,0,7.82,0,.76-.24,1.1-1,1.05s-1.5,0-2.25,0-.9-.27-.9-.91c0-1.5,0-3,0-4.49,0-3.78,0-7.55,0-11.32,0-.85.25-1.21,1.12-1.14a15.89,15.89,0,0,0,2.07,0c.74,0,1,.27,1,1C198.55,192.38,198.57,195.05,198.57,197.71Z"/><path class="cls-1" d="M300,204.22c0,2.7.36,2.34-2.31,2.35-2.32,0-2.06.26-2.08-2,0-.59,0-1.19,0-1.79s.21-.89.83-.88c.9,0,1.79,0,2.69,0,.67,0,.91.29.88.93C300,203.27,300,203.74,300,204.22Z"/><path class="cls-1" d="M198.57,184.75c0,2.32.23,2-2.08,2s-2.07.3-2.08-2.11-.25-2.08,2.12-2.08S198.54,182.33,198.57,184.75Z"/></svg>