<svg id="Logos_Patrocinadores_Web" data-name="Logos Patrocinadores Web" xmlns="http://www.w3.org/2000/svg" viewBox="0 0 300 300"><defs><style>.cls-1,.cls-2{fill:#8f8fa3;}.cls-1{fill-rule:evenodd;}</style></defs><path class="cls-1" d="M50.89,140.68h231.6v1.91H51.93C51.6,141.94,51.26,141.3,50.89,140.68ZM53,145.14H281.67V147h-228C53.48,146.4,53.26,145.76,53,145.14Zm-5.47-8.91h239.5v1.9H49.16C48.66,137.47,48.12,136.84,47.56,136.23Z"/><polygon class="cls-1" points="70.48 161.42 66.74 168.53 65.18 168.53 61.46 161.42 63.15 161.42 66.01 167.08 68.85 161.42 70.48 161.42"/><path class="cls-1" d="M80,160.23H78.25V159H80Zm-.1,8.3H78.35v-7.11h1.56Z"/><path class="cls-1" d="M96.94,164.92a3.75,3.75,0,0,1-.33,1.6,3.46,3.46,0,0,1-.88,1.2,4.22,4.22,0,0,1-1.29.76,4.8,4.8,0,0,1-1.55.24,5.61,5.61,0,0,1-1.37-.14,7.15,7.15,0,0,1-1.16-.38l-.1.33H88.8v-9.91h1.56v3.54a6.86,6.86,0,0,1,1.39-.67,4.76,4.76,0,0,1,1.65-.27,3.39,3.39,0,0,1,2.58,1A3.69,3.69,0,0,1,96.94,164.92Zm-1.61,0a3,3,0,0,0-.54-1.93,2.19,2.19,0,0,0-1.77-.66,4.42,4.42,0,0,0-1.37.23,6.27,6.27,0,0,0-1.29.58v4.07a8.91,8.91,0,0,0,1.13.32,5.93,5.93,0,0,0,1.09.09,2.91,2.91,0,0,0,2-.65A2.58,2.58,0,0,0,95.33,165Z"/><path class="cls-1" d="M111,162.72h-.09l-.67-.09c-.22,0-.48,0-.77,0a4.07,4.07,0,0,0-1.39.25,6.42,6.42,0,0,0-1.29.63v5.05h-1.56v-7.11h1.56v1.05a8.15,8.15,0,0,1,1.63-.81,4.44,4.44,0,0,1,1.44-.24l.59,0,.55.06Z"/><path class="cls-1" d="M125.41,168.53h-1.55v-.76l-.56.31a5.66,5.66,0,0,1-.68.3,4.76,4.76,0,0,1-.89.24,5.9,5.9,0,0,1-1.18.1,3.5,3.5,0,0,1-2.12-.63,2,2,0,0,1-.87-1.62,1.88,1.88,0,0,1,.45-1.31,3,3,0,0,1,1.29-.79,8.83,8.83,0,0,1,2-.39c.79-.06,1.64-.12,2.54-.15v-.18a1.12,1.12,0,0,0-.19-.68,1.16,1.16,0,0,0-.52-.42,2.93,2.93,0,0,0-.8-.2c-.31,0-.63,0-1,0a8.74,8.74,0,0,0-1.36.13,12.39,12.39,0,0,0-1.56.36h-.08v-1.22q.45-.09,1.32-.21a12.09,12.09,0,0,1,1.69-.11,10.51,10.51,0,0,1,1.7.12,3.76,3.76,0,0,1,1.25.42,2.1,2.1,0,0,1,.8.76,2.28,2.28,0,0,1,.27,1.15Zm-1.55-1.75v-2l-1.67.09a12.63,12.63,0,0,0-1.53.19,2.75,2.75,0,0,0-1.08.46,1,1,0,0,0-.41.84,1,1,0,0,0,.48.93,2.79,2.79,0,0,0,1.46.3,4.49,4.49,0,0,0,1.5-.24A7.58,7.58,0,0,0,123.86,166.78Z"/><path class="cls-1" d="M139,168.46q-.45.09-1,.15a8.13,8.13,0,0,1-.92.06,3.38,3.38,0,0,1-2.15-.59,2.25,2.25,0,0,1-.74-1.88v-3.78h-1v-1h1v-2h1.55v2H139v1h-3.22v3.24c0,.38,0,.67,0,.88a1.2,1.2,0,0,0,.23.59,1,1,0,0,0,.5.37,2.94,2.94,0,0,0,1,.12,3.77,3.77,0,0,0,.8-.09,4.76,4.76,0,0,0,.59-.14H139Z"/><path class="cls-1" d="M148.39,160.23h-1.75V159h1.75Zm-.1,8.3h-1.55v-7.11h1.55Z"/><path class="cls-1" d="M165.07,165a3.46,3.46,0,0,1-1.16,2.74,5.34,5.34,0,0,1-6.22,0,3.85,3.85,0,0,1,0-5.49,5.29,5.29,0,0,1,6.22,0A3.46,3.46,0,0,1,165.07,165Zm-1.61,0a2.42,2.42,0,0,0-2.65-2.73,2.72,2.72,0,1,0,0,5.44,2.42,2.42,0,0,0,2.65-2.71Z"/><path class="cls-1" d="M181,168.53h-1.55v-4.05a5.34,5.34,0,0,0-.08-.92,1.47,1.47,0,0,0-.27-.67,1.25,1.25,0,0,0-.6-.4,3.39,3.39,0,0,0-1-.13,4.12,4.12,0,0,0-1.33.24,7.63,7.63,0,0,0-1.33.62v5.31H173.3v-7.11h1.55v.79a7.23,7.23,0,0,1,1.51-.73,5.09,5.09,0,0,1,1.59-.26,3.39,3.39,0,0,1,2.29.69,2.55,2.55,0,0,1,.78,2Z"/><path class="cls-1" d="M208.45,168.08a12.86,12.86,0,0,1-1.48.45,7.22,7.22,0,0,1-3.32-.07,4.13,4.13,0,0,1-1.43-.68,3.12,3.12,0,0,1-.94-1.16A3.81,3.81,0,0,1,201,165a3.32,3.32,0,0,1,1.24-2.73,5.11,5.11,0,0,1,3.3-1,6.7,6.7,0,0,1,1.55.18,10.22,10.22,0,0,1,1.41.41v1.34h-.09a6,6,0,0,0-1.47-.66,5.11,5.11,0,0,0-1.47-.23,3,3,0,0,0-2.09.69,3,3,0,0,0,0,4,3,3,0,0,0,2.11.69,4.61,4.61,0,0,0,1-.1,5.1,5.1,0,0,0,.88-.24l.63-.28a5.12,5.12,0,0,0,.47-.27h.09Z"/><path class="cls-1" d="M224.14,165a3.46,3.46,0,0,1-1.16,2.74,5.34,5.34,0,0,1-6.22,0,3.85,3.85,0,0,1,0-5.49,5.29,5.29,0,0,1,6.22,0A3.46,3.46,0,0,1,224.14,165Zm-1.61,0a2.42,2.42,0,0,0-2.65-2.73,2.72,2.72,0,0,0-2,.68,2.69,2.69,0,0,0-.7,2,2.74,2.74,0,0,0,.71,2,2.7,2.7,0,0,0,2,.68,2.42,2.42,0,0,0,2.65-2.71Z"/><path class="cls-1" d="M240.09,168.53h-1.55v-4.05a5.34,5.34,0,0,0-.08-.92,1.47,1.47,0,0,0-.27-.67,1.25,1.25,0,0,0-.6-.4,3.44,3.44,0,0,0-1-.13,4.12,4.12,0,0,0-1.33.24,7.31,7.31,0,0,0-1.33.62v5.31h-1.56v-7.11h1.56v.79a7.23,7.23,0,0,1,1.51-.73,5,5,0,0,1,1.59-.26,3.39,3.39,0,0,1,2.29.69,2.55,2.55,0,0,1,.78,2Z"/><path class="cls-1" d="M253.71,168.46q-.45.09-1,.15a8.13,8.13,0,0,1-.92.06,3.38,3.38,0,0,1-2.15-.59,2.25,2.25,0,0,1-.74-1.88v-3.78h-1.05v-1h1.05v-2h1.56v2h3.21v1H250.5v3.24c0,.38,0,.67,0,.88a1.2,1.2,0,0,0,.23.59,1,1,0,0,0,.5.37,2.94,2.94,0,0,0,1,.12,3.77,3.77,0,0,0,.8-.09,4.76,4.76,0,0,0,.59-.14h.09Z"/><path class="cls-1" d="M267.17,162.72h-.08l-.68-.09c-.22,0-.47,0-.77,0a4.11,4.11,0,0,0-1.39.25,6.42,6.42,0,0,0-1.29.63v5.05H261.4v-7.11H263v1.05a8.42,8.42,0,0,1,1.63-.81,4.5,4.5,0,0,1,1.45-.24l.58,0,.55.06Z"/><path class="cls-1" d="M282.33,165a3.46,3.46,0,0,1-1.16,2.74,5.34,5.34,0,0,1-6.22,0,3.85,3.85,0,0,1,0-5.49,5.29,5.29,0,0,1,6.22,0A3.46,3.46,0,0,1,282.33,165Zm-1.61,0a2.42,2.42,0,0,0-2.65-2.73,2.72,2.72,0,1,0,0,5.44A2.64,2.64,0,0,0,280,167,2.67,2.67,0,0,0,280.72,165Z"/><rect class="cls-2" x="290.57" y="158.62" width="1.56" height="9.9"/><path class="cls-1" d="M40.15,147h4c1.09.66,1.79,1.39,1.64,2.23A38.93,38.93,0,0,0,40.15,147Zm-9.47-4.46a84,84,0,0,1,9.14,2.57H33.19c-5.53-1.3-10.83-2.17-13-2.56C20.16,142.57,24,142.57,30.68,142.57Zm14.06,8.19a10.62,10.62,0,0,1-1.65,1c-7.52-2.53-17.7-4.18-20.92-4.76-.09,0,4.63,0,10.48,0a79.3,79.3,0,0,1,9.61,2.75C43.1,150.08,44,150.41,44.74,150.76Zm3.07,3c-.73-.37-1.54-.73-2.41-1.08a8.42,8.42,0,0,0,1.14-.91C47.42,152.32,48,153,47.81,153.72ZM2.36,165.85a27.77,27.77,0,0,1-1-2.67c23.16-3.36,35.94-6.47,41.9-9.32l1,.36c.84.31,1.7.64,2.48,1a12.23,12.23,0,0,1-2,1.22C39.15,159.22,26.42,162.38,2.36,165.85Zm2.46,4.39a28.41,28.41,0,0,1-1.58-2.59c23.67-3.44,36.51-6.61,42.32-9.5a12.34,12.34,0,0,0,3-2c1.81,1.23,2.13,2.74-1.84,4.72C41.16,163.65,28.57,166.79,4.82,170.24Zm48.84-23.19A27.38,27.38,0,0,1,6.12,172c23.1-3.38,35.69-6.51,41.42-9.37,3.2-1.59,5.06-3.55,4-5.83a5.71,5.71,0,0,0-1.92-2,2.78,2.78,0,0,0-.06-2.45,5.61,5.61,0,0,0-1.92-2,2.78,2.78,0,0,0-.07-2.45A3.46,3.46,0,0,0,47,147Zm-1.75-4.49A26.79,26.79,0,0,1,53,145.14H44.48a36.35,36.35,0,0,0-6.33-2.58Zm-2.77-4.45a27.16,27.16,0,0,1,1.75,2.58H31.21c-5.53-1.3-10.84-2.18-13-2.57C18.15,138.11,30.44,138.11,49.14,138.11ZM0,154.72a27.38,27.38,0,0,1,47.57-18.49H12.1c-.63,0-1.12,0-1.48,0-1.15.07-3.25.89-1,2,1,.51,7.7,1.6,8.25,1.7l3.74.69H14.08c-.63,0-1.12,0-1.48,0-1.15.06-3.25.89-1,2,1,.51,7.7,1.59,8.25,1.69l3.74.69H16.06c-.63,0-1.12,0-1.48,0-1.14.07-3.25.9-1,2,1,.51,7.7,1.6,8.25,1.7,5.53,1,12.8,2.37,18.63,4.07-6.41,2.51-18.69,5.32-39.66,8.35A27.63,27.63,0,0,1,0,154.72Z"/><path class="cls-1" d="M81.47,134.62H72V132.5a3.17,3.17,0,0,0-.36-1.88,1.55,1.55,0,0,0-1.22-.41,1.75,1.75,0,0,0-1.4.55,2.49,2.49,0,0,0-.47,1.66,3.57,3.57,0,0,0,.54,2.15A7.55,7.55,0,0,0,72,136.32q6.83,2.94,8.59,4.84t1.78,6.09a8.06,8.06,0,0,1-1,4.5,7.34,7.34,0,0,1-3.79,2.44,20,20,0,0,1-6.55,1A19.49,19.49,0,0,1,64,154a6.74,6.74,0,0,1-3.79-2.88,11,11,0,0,1-.9-5v-1.87h9.5v3.48a3.52,3.52,0,0,0,.39,2.06,2.33,2.33,0,0,0,2.93-.12A2.57,2.57,0,0,0,72.6,148c0-1.68-.31-2.79-.94-3.3a31.09,31.09,0,0,0-4.79-2.6,47.57,47.57,0,0,1-5.05-2.67,6.56,6.56,0,0,1-2.06-2.29,7.7,7.7,0,0,1-.8-3.74,8.07,8.07,0,0,1,1.14-4.81,7.49,7.49,0,0,1,3.74-2.36,19.45,19.45,0,0,1,6.21-.87,21.29,21.29,0,0,1,6.78.94,6.71,6.71,0,0,1,3.71,2.36c.62.94.92,2.55.93,4.82Z"/><rect class="cls-2" x="87.24" y="125.97" width="10.22" height="28.59"/><polygon class="cls-1" points="112.62 125.97 112.62 148.84 118.83 148.84 118.83 154.56 102.39 154.56 102.39 125.97 112.62 125.97"/><polygon class="cls-1" points="123.76 125.97 140.81 125.97 140.81 131.69 133.98 131.69 133.98 137.11 140.37 137.11 140.37 142.55 133.98 142.55 133.98 148.84 141.49 148.84 141.49 154.56 123.76 154.56 123.76 125.97"/><polygon class="cls-1" points="169.24 125.97 169.24 154.56 160.28 154.56 154.96 141.56 154.96 154.56 146.41 154.56 146.41 125.97 154.96 125.97 160.69 138.84 160.69 125.97 169.24 125.97"/><polygon class="cls-1" points="196.51 125.97 196.51 131.69 190.44 131.69 190.44 154.56 180.21 154.56 180.21 131.69 174.17 131.69 174.17 125.97 196.51 125.97"/><polygon class="cls-1" points="201.44 125.97 218.75 125.97 218.75 131.69 211.66 131.69 211.66 137.11 217.97 137.11 217.97 142.55 211.66 142.55 211.66 154.56 201.44 154.56 201.44 125.97"/><polygon class="cls-1" points="233.9 125.97 233.9 148.84 240.12 148.84 240.12 154.56 223.68 154.56 223.68 125.97 233.9 125.97"/><polygon class="cls-1" points="245.04 125.97 262.09 125.97 262.09 131.69 255.26 131.69 255.26 137.11 261.65 137.11 261.65 142.55 255.26 142.55 255.26 148.84 262.77 148.84 262.77 154.56 245.04 154.56 245.04 125.97"/><path class="cls-1" d="M290.45,126l-3.57,12.64,5.39,15.95H282.8a73.15,73.15,0,0,1-3.11-10.4c-.26,1.8-.61,3.71-1.07,5.74l-1,4.66H267.7l3.69-15.95L267.7,126h9.88c.18.79.53,2.1,1.07,3.94.42,1.4.77,2.68,1,3.85l2.19-7.79Z"/><path class="cls-1" d="M295.77,129.21h1a1.13,1.13,0,0,0,.5-.08.55.55,0,0,0,.26-.24.77.77,0,0,0,.1-.4.65.65,0,0,0-.19-.5.73.73,0,0,0-.56-.19h-1.1Zm-.47,2.38v-4.26h1.55a1.61,1.61,0,0,1,.72.12.92.92,0,0,1,.38.4,1.32,1.32,0,0,1,.15.64,1.21,1.21,0,0,1-.25.78,1.15,1.15,0,0,1-.73.38,1.23,1.23,0,0,1,.29.24,3,3,0,0,1,.37.54l.61,1.16h-.58l-.47-.88a5.4,5.4,0,0,0-.41-.7.88.88,0,0,0-.27-.25.84.84,0,0,0-.36-.06h-.53v1.89Zm1.36-5.07a2.87,2.87,0,1,0,2.87,2.87A2.86,2.86,0,0,0,296.66,126.52Zm0-.47a3.34,3.34,0,1,1-3.34,3.34A3.33,3.33,0,0,1,296.66,126.05Z"/></svg>