<svg id="Logos_Patrocinadores_Web" data-name="Logos Patrocinadores Web" xmlns="http://www.w3.org/2000/svg" viewBox="0 0 300 300"><defs><style>.cls-1{fill:#8f8fa3;}</style></defs><g id="nmjxRw.tif"><path class="cls-1" d="M52,101a69.82,69.82,0,0,1,9.17,1.82,48.34,48.34,0,0,1,22.15,13.89c.18.19.47.37.33.68s-.46.25-.72.25H77c-7.5,0-15,.09-22.49,0a15,15,0,0,0-11,4.53c-3.74,3.59-7.29,7.39-11,11.06-4.43,4.41-8.89,8.78-13.35,13.16A9.91,9.91,0,0,1,12,149.06H0v-4.22c.16-1.12.32-2.23.49-3.35a48.19,48.19,0,0,1,37-39.41c2.1-.46,4.24-.63,6.34-1.07Z"/><path class="cls-1" d="M300,183.51c-1.6,3-4,4.46-7.48,4a6.76,6.76,0,0,1,.66-13.42c3.18-.15,5.33,1.36,6.82,4Zm-6.32-8.45a5.75,5.75,0,0,0-5.84,5.72,5.94,5.94,0,0,0,5.85,5.93,5.88,5.88,0,0,0,5.82-5.94A5.7,5.7,0,0,0,293.68,175.06Z"/><path class="cls-1" d="M231.86,172.4V183c0,1.73,0,1.73-1.78,1.73-3.64,0-7.27,0-10.9,0-1.08,0-1.53-.28-1.51-1.45.07-5.74-.07-11.49.11-17.22.23-7.11,0-14.22.23-21.32.12-3.94.13-7.87,0-11.84l-2.31,8.3q-5.79,20.94-11.56,41.89a1.86,1.86,0,0,1-2.17,1.65c-3.75-.09-7.5-.06-11.25,0a1.67,1.67,0,0,1-1.95-1.46q-6.72-24.57-13.55-49.12a4.07,4.07,0,0,0-.51-1.21c0,.32-.05.64,0,1,.08,10.38.07,20.77.3,31.16.13,6,.09,12,.17,18,0,1.6,0,1.62-1.65,1.62-3.71,0-7.42,0-11.13,0-1.41,0-1.63-.24-1.49-1.66.21-2.22.08-4.43.12-6.6-.37-.16-.47.06-.57.2-4.09,5.8-9.83,9-16.69,10.07-8,1.29-15.83.87-23.33-2.4-8.36-3.65-13.14-10.19-14.66-19.11-.69-4-.41-3.24,2.83-3.29s6.57,0,9.85,0c.77,0,1.22.21,1.39,1.05,1.25,6.37,5.32,9.88,11.54,11a20,20,0,0,0,12.06-1c4.08-1.8,6.31-6.09,5.14-10a8,8,0,0,0-5.84-5.58c-3.34-1-6.73-1.72-10.09-2.62-4.15-1.11-8.45-1.68-12.44-3.3-7-2.85-11.49-7.94-12.75-15.55a20.41,20.41,0,0,1,11.09-21.74c9.29-4.55,18.87-5,28.41-.75a25.29,25.29,0,0,1,11.53,10.81c.86,1.48,1.61,3,2.48,4.58,0-1.53.07-3.06,0-4.59-.18-3.08,0-6.17-.09-9.25,0-.82.39-1.07,1.16-1.07,6.87,0,13.75,0,20.62,0,1,0,1.26.46,1.47,1.28q3.12,12.21,6.29,24.39,2.72,10.56,5.45,21.1c.13.52.31,1,.5,1.68a2.16,2.16,0,0,0,.56-1.25q5.92-22.84,11.82-45.71a1.64,1.64,0,0,1,1.9-1.5c6.57.05,13.13,0,19.69,0,1.54,0,1.58,0,1.58,1.57q0,3.63,0,7.26v1.21c.55.15.61-.19.74-.39,4.92-7.57,12.1-11.45,20.84-12.63,6.81-.93,13.42-.16,19.54,3.21,8.19,4.51,12.63,11.49,13.54,20.77.08.8-.22,1.07-.95,1.07-3.87,0-7.74,0-11.61,0-.93,0-1-.63-1.15-1.31a13.74,13.74,0,0,0-3.7-7.68,14.83,14.83,0,0,0-19.3-1.14c-4.76,3.77-7.11,8.92-8.27,14.68a41.2,41.2,0,0,0,.61,19.37c1.56,5.62,4.62,10.15,10,12.74a15.3,15.3,0,0,0,19.93-5.89,12.47,12.47,0,0,0,1.52-4,1,1,0,0,1,1.2-1c3.87,0,7.73,0,11.6,0,.84,0,1.07.29,1,1.12-1.75,13.11-10,22.62-23.83,24.24a36,36,0,0,1-15.3-1.19A26.94,26.94,0,0,1,233,173.67,2.9,2.9,0,0,0,231.86,172.4Zm-71-18.57a5.43,5.43,0,0,0,.06-.55c0-5.82,0-11.64,0-17.46,0-1-.44-1.26-1.35-1.25-3.6,0-7.19,0-10.78,0-1.08,0-1.49-.37-1.71-1.4a11.08,11.08,0,0,0-4.59-7.11,16.15,16.15,0,0,0-9.66-2.66,13.91,13.91,0,0,0-7.57,2.09,7.93,7.93,0,0,0-1,12.52A12,12,0,0,0,129,140.1c5.76,1.41,11.53,2.81,17.29,4.24a26.24,26.24,0,0,1,9.72,4.19A24.36,24.36,0,0,1,160.9,153.83Z"/><path class="cls-1" d="M28.19,180.67c4.49,0,9,0,13.47,0a14.4,14.4,0,0,0,10.8-4.5c7-7.28,14.16-14.45,21.16-21.75,2.11-2.2,4.21-4.28,7.25-5.11a11.43,11.43,0,0,1,2.88-.49c3.63,0,7.27,0,10.9,0,1,0,1.27.43,1.23,1.35A46.91,46.91,0,0,1,92.94,165c-5.46,14.29-15.29,24.32-29.78,29.29-14.83,5.09-28.93,2.92-42-5.67a40,40,0,0,1-8.16-7c-.2-.23-.59-.43-.47-.75s.61-.23.94-.23Z"/><path class="cls-1" d="M76.48,131.47c-4.22,0-8.44.1-12.65,0a14.66,14.66,0,0,0-11.11,4.65c-7.45,7.4-14.86,14.85-22.3,22.26-.77.77-1.59,1.5-2.4,2.23a8,8,0,0,1-5.46,2.09c-6.48,0-13,0-19.44,0a1.29,1.29,0,0,1-1.48-1.13A57.38,57.38,0,0,1,.26,154.7c-.19-1.46,0-1.65,1.43-1.65,6.83,0,13.66-.06,20.5,0a13.91,13.91,0,0,0,10.75-4.56c5-5.32,10.28-10.37,15.43-15.55q4-4,8-7.87a11.84,11.84,0,0,1,8.46-3.45c7,0,14.05,0,21.08,0a2.26,2.26,0,0,1,2.21,1.16,57,57,0,0,1,4,7.43c.48,1.11.37,1.27-.87,1.27C86.32,131.48,81.4,131.47,76.48,131.47Z"/><path class="cls-1" d="M19.62,166.65c4.49,0,9,0,13.48,0a12.76,12.76,0,0,0,9.52-4Q54.17,151,65.82,139.42a13.08,13.08,0,0,1,9.79-4c5.67.09,11.33,0,17,0,1,0,1.48.28,1.73,1.28a46.93,46.93,0,0,1,1.3,6.66c.14,1.33,0,1.5-1.37,1.5-6.76,0-13.52.08-20.28,0a14.47,14.47,0,0,0-10.9,4.57C56,156.52,48.93,163.72,41.86,170.9c-.85.86-1.75,1.68-2.57,2.57a9.74,9.74,0,0,1-7.52,3.23c-7.27,0-14.53,0-21.8,0a2,2,0,0,1-1.84-1,51.84,51.84,0,0,1-4.2-7.58c-.6-1.33-.48-1.5,1-1.5C9.86,166.64,14.74,166.65,19.62,166.65Z"/><path class="cls-1" d="M291.53,180.63c0-1.13,0-2.26,0-3.38,0-.68.26-1,1-1a10.1,10.1,0,0,1,2.33.12,2.34,2.34,0,0,1,1.85,1.76,2.25,2.25,0,0,1-.75,2.53c-.68.5-.67.9-.24,1.53a19.09,19.09,0,0,1,1.12,1.91c.14.28.53.65.08.91s-.72-.11-.92-.47c-.45-.78-.92-1.55-1.31-2.35s-.76-1.1-1.55-.91-.53.91-.58,1.44,0,.94,0,1.4,0,.88-.54.86-.4-.5-.41-.83C291.52,183,291.53,181.8,291.53,180.63Zm2.11-3.45c-.94-.2-1.24.42-1.13,1.36.08.78-.46,1.92,1.09,1.91,1.31,0,2.1-.57,2.14-1.61S295.11,177.21,293.64,177.18Z"/></g></svg>