<svg id="Logos_Patrocinadores_Web" data-name="Logos Patrocinadores Web" xmlns="http://www.w3.org/2000/svg" viewBox="0 0 300 300"><defs><style>.cls-1{fill:#8f8fa3;}</style></defs><path class="cls-1" d="M74.35,105.73a17.61,17.61,0,0,1-18.08,17.21c-11-.06-19.75,1.45-22.67,14.85C31.6,147,21.77,150.91,13,148.44A17.37,17.37,0,0,1,.11,129.64c.88-8,8.25-14.46,17.34-14.91,2.53-.12,5.09.35,7.64.4,7.19.16,11.78-2.25,13.6-10.24C41.84,91.09,52,85.11,63.18,89.33,69.47,91.71,74.56,99.17,74.35,105.73Z"/><path class="cls-1" d="M49.7,175.91c-.16,7.15-10,17.1-16.77,17-8-.19-16.73-10.45-16.42-19.33.24-7,8.66-14.58,16.27-14.62C42,158.87,49.91,166.87,49.7,175.91Z"/><path class="cls-1" d="M291.34,191.5c-6.32,1.43-7.06-2.09-7-6.89,0-7.67,0-15.35-.07-23,0-4.82-.83-9.42-6.94-9.39-5.77,0-7.38,4.08-7.36,9.16,0,8,0,16,0,24,0,3.4-.3,6.76-4.68,6.91-5.64.2-10.36,3.06-15.5,4.72-8.08,2.6-13.85-.56-17.18-7.94-3.1-6.88-2.6-13.86,2.1-19.94s10.9-5.65,17.45-3.6c4,1.27,8.51,2.68,10-3.37,1.27-5.17-2.11-7.51-6.31-9.2-17.91-7.23-38.7,4.24-38.94,24.13-.16,13-5.45,16.15-15.64,18.93-7.1,1.94-13.32,2.91-18.29-3.27-5.34-6.64-5.8-14.12-1.58-21.52,3.93-6.89,10.08-8.2,17.37-6.13,4.58,1.3,10.16,3.63,11.93-3.16,1.6-6.2-3.8-8-8.47-9.46-20.62-6.6-38.37,7.93-37.55,31.31.22,6.49-.78,9.79-8,8.84-5-.65-9.27,1.54-13.67,3.61-7.09,3.33-14.24,3.65-20.69-1.74-2-1.67-3.77-3.84-3.16-6.6.76-3.44,3.9-2.65,6.32-2.72,4.15-.11,8.31,0,12.47,0h14.39c5.49,0,7.1-3,6.75-8.06-.78-11.31-9.2-21.67-20.69-25.05a26.62,26.62,0,0,0-29.5,10.7,32.36,32.36,0,0,0-5.62,23.68c.38,2.73.45,5.33-3,5.91-2.51.43-5.92,1-7-1.54-3-6.62-1.14-13.81-1.35-20.77-.15-4.92,3.74-5.06,7.2-5.9,3-.74,5.19-2.71,4.88-6.16-.26-2.84-2.12-5.13-4.82-5.21-6.71-.2-7.59-4.16-7.52-9.6.06-4.85-1.51-9.29-7.46-9-5.25.23-6.73,4.25-6.67,8.83s.13,9-6.21,9.85c-2.88.37-4.13,2.93-4.17,5.69s1.36,5.21,4.23,5.61c6.35.87,6.2,5.34,6.1,10-.07,3.2-.18,6.4-.07,9.59.19,5.34.14,9.57-7.65,8-5.51-1.15-8.48,2.36-7.25,8.09.86,4,23.63,11.39,26.59,8.49,8.32-8.2,17.73-6.28,26.3-2,11.93,6,23.29,5.8,34.93.32,9.57-4.51,18.71-4.66,28.21.62s19.81,5.25,29.17-.7c7.07-4.5,13.8-4.41,20.63-.41,11,6.43,21.77,6.59,32.44-.46,2.25-1.48,5.4-3.55,6.9-1.71,6.75,8.24,12.89,7.14,19.62.2.76-.78,3.07-.09,4.66,0,4.39.18,8-1.22,7.91-6.12C299.72,192.75,296.28,190.38,291.34,191.5ZM124.53,164.55a25.65,25.65,0,0,1,5.43-2c5.26.17,8.95,1.78,11.67,5.3,1.38,1.78,2.79,3.7,1.88,6.09-1,2.72-3.59,2.2-5.74,2.25-3.51.07-7,.19-10.54-.08-2.94-.23-7.29,1.67-8.34-2.4S121.19,166.6,124.53,164.55Z"/><path class="cls-1" d="M276.92,143.74c-4.53-.89-7.61-3.46-7.55-8.2s3.24-7.64,7.9-7.55c5,.1,8.52,3.13,8.05,8.36C284.92,140.84,281.7,143.48,276.92,143.74Z"/></svg>