<svg id="Logos_Patrocinadores_Web" data-name="Logos Patrocinadores Web" xmlns="http://www.w3.org/2000/svg" viewBox="0 0 300 300"><defs><style>.cls-1{fill:#8f8fa3;}</style></defs><path class="cls-1" d="M242.22,98c.85.19,1.71.34,2.54.57a15.5,15.5,0,0,1-1.6,30.27,15.52,15.52,0,1,1-4.87-30.65c.23,0,.46-.13.68-.19Zm-1.6,25.88a10.36,10.36,0,1,0-10.09-10.34A10.24,10.24,0,0,0,240.62,123.88Z"/><path class="cls-1" d="M180.84,98a44.91,44.91,0,0,1,4.47,1.29,14.23,14.23,0,0,1,7.49,6.84c.14.26.24.53.42.92-2.1,0-4.08,0-6.05,0-.33,0-.67-.45-1-.74a9.77,9.77,0,0,0-7.51-3.11c-4.29.14-8.27,3.67-9.21,8.19a10.52,10.52,0,0,0,8.11,12.36,8.83,8.83,0,0,0,8.47-2.92,1.89,1.89,0,0,1,1.57-.64c1.77,0,3.54,0,5.42,0a11.59,11.59,0,0,1-3,4.45c-4.71,4.33-10.18,5.68-16.17,3.35s-9.49-7-10-13.55a15.38,15.38,0,0,1,13.24-16.25,3.28,3.28,0,0,0,.5-.17Z"/><path class="cls-1" d="M300,202.36a3.24,3.24,0,0,0-.13.33c-.52,2.25-1.31,3.09-3.67,3.17s-4.49-.19-6.78-.31l-.05-1h4.07c.93,0,1.86.05,2.79,0a2.32,2.32,0,0,0,2.35-2.54c0-.66,0-1.33,0-2a1.93,1.93,0,0,0-2-2.05c-1-.09-2,0-3-.06-.57,0-1.15,0-1.71-.06a2.89,2.89,0,0,1-2.94-2.93,18.34,18.34,0,0,1,0-3.23c.2-2.1,1.26-3.26,3.35-3.31a60.84,60.84,0,0,1,6.46.38c.22,0,.4.51.64.84-2.14,0-4,0-5.9,0-2.42-.06-3.29.74-3.3,3.17,0,.45,0,.9,0,1.36,0,1.76.69,2.44,2.47,2.49,1.11,0,2.23,0,3.34,0,1.95-.07,3.7.67,3.84,3.2,0,.08.08.15.12.23Z"/><path class="cls-1" d="M21.85,182v-5.57H299.7V182Z"/><path class="cls-1" d="M99.53,154.79v15.79c-12.29-.4-22.35-5.21-29.26-15.35-8.59-12.59-9.08-25.94-1.35-39.07,6.74-11.44,17.31-16.9,30.6-17.46v15.79c-7.2.25-13,3.16-17.16,9.16A18.76,18.76,0,0,0,79,136.21,20.45,20.45,0,0,0,99.53,154.79Z"/><path class="cls-1" d="M21.85,115.43l5.88,4.07q7.25,5,14.48,10a1.4,1.4,0,0,1,.7,1.32q0,19,0,38.09c0,.29,0,.59,0,.94h-21Z"/><path class="cls-1" d="M63.75,99.35v15.36c-.29,0-.58.05-.87.05-6.41,0-12.81,0-19.22,0a2.56,2.56,0,0,1-1.39-.46q-9.77-6.81-19.5-13.66c-.28-.2-.58-.39-1-.68v14.75H.94V99.35Z"/><path class="cls-1" d="M202.2,107.05v21.32h-5.43V98.61c1.59,0,3.18.07,4.75,0a2,2,0,0,1,2.16,1.24c3.68,6.59,7.43,13.13,11.16,19.68a1.22,1.22,0,0,0,.55.53v-1c0-6.47,0-12.94,0-19.4,0-.82.2-1.1,1-1.06,1.46.06,2.93,0,4.43,0v29.84h-2.47c-.91,0-1.81,0-2.71,0a1.33,1.33,0,0,1-1.41-.83q-5.67-9.93-11.39-19.86l-.47-.79Z"/><path class="cls-1" d="M284.3,140.21a15.52,15.52,0,1,1-15.65,15.44A15.58,15.58,0,0,1,284.3,140.21ZM274.16,155.7a10.11,10.11,0,1,0,10.08-10.4A10.31,10.31,0,0,0,274.16,155.7Z"/><path class="cls-1" d="M242.83,170.52V140.87h5.46v12H259v-12h5.41v29.65H259V158.17H248.33v12.35Z"/><path class="cls-1" d="M183.85,170.57c-2,0-3.8,0-5.63,0-.24,0-.57-.37-.69-.64-.89-2.07-1.76-4.14-2.58-6.24a1,1,0,0,0-1.13-.74c-3,0-6,0-9,0a1.11,1.11,0,0,0-1.23.86c-.79,2-1.66,4-2.45,6a1,1,0,0,1-1.17.81c-1.71-.05-3.41,0-5.25,0,.62-1.5,1.19-2.88,1.77-4.26,3.42-8.23,6.86-16.46,10.26-24.7.26-.63.56-.89,1.24-.84,1.14.08,2.53-.32,3.34.21s1,1.92,1.39,2.94l10.73,25.58Zm-11.21-12.86c-1.13-3.08-2.23-6.05-3.42-9.26-1.2,3.25-2.3,6.23-3.41,9.26Z"/><path class="cls-1" d="M184.87,140.82h5.53v1.07c0,5.92,0,11.85,0,17.77a13,13,0,0,0,.21,2.42,5.07,5.07,0,0,0,9.91,0,12.09,12.09,0,0,0,.2-2.33c0-5.95,0-11.91,0-17.86v-1.06h5.46c0,.27,0,.54,0,.8,0,6.25,0,12.51,0,18.77,0,5.66-3,9.51-8.41,10.55a10.91,10.91,0,0,1-10.63-3.48A9.13,9.13,0,0,1,185,162a31.8,31.8,0,0,1-.14-3.24q0-8.4,0-16.78Z"/><path class="cls-1" d="M239.11,162.3c-2,5.81-9.69,9.93-16.14,8.74a15.67,15.67,0,0,1-13.1-16.13,15.46,15.46,0,0,1,13.54-14.6c8.08-.92,14.14,4.21,15.79,9-2,0-3.92,0-5.86,0-.27,0-.57-.29-.78-.51a10.64,10.64,0,0,0-5.88-3.27c-4.64-.83-9.23,2.32-10.76,6.76-2.34,6.79,2.88,14.15,9.85,13.85a9.53,9.53,0,0,0,6.54-3.24,1.47,1.47,0,0,1,.87-.5C235.13,162.28,237.08,162.3,239.11,162.3Z"/><path class="cls-1" d="M155.27,149.27c-2,0-3.87,0-5.76,0a1.62,1.62,0,0,1-.94-.55,10.74,10.74,0,0,0-5.82-3.23c-4.86-.88-9.62,2.6-11,7.33-1.89,6.68,3.36,13.61,10.1,13.28a9.65,9.65,0,0,0,6.46-3.21,1.91,1.91,0,0,1,1.21-.53c1.83-.06,3.67,0,5.51,0-.63,4.42-8.14,9.18-14,8.94a15.72,15.72,0,0,1-15-14,15.46,15.46,0,0,1,12.46-16.73C146.57,139,153.3,143.93,155.27,149.27Z"/><path class="cls-1" d="M149.49,111.07h10v5.12h-10v7.1h10.39v5.1c-.29,0-.56.06-.82.06-4.75,0-9.51,0-14.26,0-.69,0-.93-.17-.93-.9q0-14,0-28.07c0-.54,0-.9.75-.9,4.93,0,9.87,0,14.8,0a3,3,0,0,1,.42.06v5.07H149.49Z"/><path class="cls-1" d="M130.31,128.45V103.8h-5.55c0-1.66,0-3.21,0-4.76,0-.15.45-.41.7-.41,1.29,0,2.58,0,3.88,0h11.88v5.13h-5.43v1.13c0,7.52,0,15,0,22.56,0,.85-.26,1.07-1.07,1C133.31,128.41,131.84,128.45,130.31,128.45Z"/><path class="cls-1" d="M30.1,198.44l3.63,7.22a1.35,1.35,0,0,1-1.9-.86c-.89-1.93-1.93-3.8-2.88-5.71a1.07,1.07,0,0,0-1-.7c-1.43,0-2.86-.13-4.39-.21v7.51H22.21V188.48c.31,0,.63-.06.94-.06H29c2.61,0,3.87,1,4.19,3.56a13.11,13.11,0,0,1-.17,3.85A3.12,3.12,0,0,1,30.1,198.44ZM23.57,197c2.23,0,4.42,0,6.6,0a1.55,1.55,0,0,0,1.52-1.43,21.51,21.51,0,0,0,0-4.17A1.7,1.7,0,0,0,30,189.83c-2.11-.07-4.23,0-6.4,0Z"/><path class="cls-1" d="M278.81,205.66c-1.11.36-1.56-.13-2-1-.89-1.9-1.88-3.76-2.87-5.61a1.23,1.23,0,0,0-.75-.62c-1.49-.14-3-.19-4.61-.27v7.53h-1.25V188.48c.28,0,.56-.06.85-.06h6.14c2.21,0,3.5,1,3.84,3.12a13.62,13.62,0,0,1,0,3.93,3.18,3.18,0,0,1-3,3C276.41,200.89,277.6,203.27,278.81,205.66ZM268.63,197c2.26,0,4.44,0,6.63,0a1.66,1.66,0,0,0,1.57-1.61,19.62,19.62,0,0,0,0-3.83,1.74,1.74,0,0,0-1.66-1.64c-2.15-.08-4.3,0-6.5,0Z"/><path class="cls-1" d="M146.92,195.3l-1.47-2a3,3,0,0,1-.52-3.21,2.76,2.76,0,0,1,2.76-1.67c1.67,0,3.35.14,5,.22.66,0,.81.39.57,1h-4.49a5.61,5.61,0,0,0-1.16.06c-1.51.28-2.06,1.28-1.19,2.53,2,3,4.21,5.84,6.41,8.86.86-.87,1.61-1.67,2.41-2.42a3.23,3.23,0,0,1,.85-.43,3.48,3.48,0,0,1-.23.95c-.64,1-1.32,2-2.06,3.08l2.39,3.35a1.75,1.75,0,0,1-2.24-.84,17.12,17.12,0,0,0-1.24-1.69l-1.54,1.39a4.72,4.72,0,0,1-6.59-.08,4.65,4.65,0,0,1-.36-6.7C145,196.9,146,196.17,146.92,195.3Zm.8,1.16-1.92,1.6a3.25,3.25,0,0,0-1.41,3.37,4,4,0,0,0,2.92,3,2.58,2.58,0,0,0,2.46-.48c.71-.59,1.37-1.25,2.11-1.93Z"/><path class="cls-1" d="M207.49,205.88c-.81-.08-1.62-.12-2.42-.23a4,4,0,0,1-3.47-3.1,19.69,19.69,0,0,1-.54-7.33,19.48,19.48,0,0,1,.65-3.71,4.22,4.22,0,0,1,4.14-3.16,25.89,25.89,0,0,1,4.13.13,3.9,3.9,0,0,1,3.36,2.76,17.11,17.11,0,0,1,.8,6.31,21.69,21.69,0,0,1-.43,4.1c-.59,2.86-2,4-5,4.13-.42,0-.84,0-1.26,0Zm5.49-8.67c-.23-1.7-.36-3.35-.72-5a3,3,0,0,0-3.14-2.58,31.64,31.64,0,0,0-3.23,0,3,3,0,0,0-2.9,2.18,12.86,12.86,0,0,0-.57,2.81,19.52,19.52,0,0,0,.42,7.34,3,3,0,0,0,2.78,2.33,23.79,23.79,0,0,0,3.68,0,3,3,0,0,0,3-2.47C212.6,200.35,212.75,198.76,213,197.21Z"/><path class="cls-1" d="M56.65,197.33c-.23,1.58-.39,3.35-.77,5.06a4,4,0,0,1-3.72,3.28,21.06,21.06,0,0,1-4.49,0c-2.34-.29-3.48-1.51-4-4.13a22.91,22.91,0,0,1,.12-9.22c.61-2.68,2.14-3.92,4.89-4,.84,0,1.69,0,2.53,0,2.71.11,4.24,1.33,4.78,4C56.35,193.89,56.43,195.52,56.65,197.33Zm-12.07-.66c.12,1.64.17,2.75.29,3.85.29,2.66,1.38,3.75,4,3.95a16.16,16.16,0,0,0,2.78-.1,3.11,3.11,0,0,0,3-2.56,20.65,20.65,0,0,0,.49-4.28,28.06,28.06,0,0,0-.49-5.18c-.37-1.83-1.39-2.57-3.25-2.68-1-.06-2,0-3,0a3.07,3.07,0,0,0-3.19,2.53C44.89,193.83,44.75,195.51,44.58,196.67Z"/><path class="cls-1" d="M109.17,204.59c2,0,4,0,5.89,0a5,5,0,0,0,2.08-.44c1.42-.71,1.68-4.83.37-5.74a3.67,3.67,0,0,0-1.78-.49c-1.31-.08-2.64,0-4-.08a3,3,0,0,1-3.14-3.31c0-.84,0-1.69,0-2.53.06-2.18,1.25-3.59,3.43-3.64a59.18,59.18,0,0,1,6.37.39c.23,0,.42.48.75.89h-4.71a20.44,20.44,0,0,0-2.6.06,1.9,1.9,0,0,0-1.82,1.82,22.83,22.83,0,0,0,0,3.41,1.61,1.61,0,0,0,1.5,1.55,8.94,8.94,0,0,0,1.16.12c1.2,0,2.4,0,3.61,0a2.94,2.94,0,0,1,3.21,2.76,15.48,15.48,0,0,1,0,3.6,2.84,2.84,0,0,1-2.83,2.78c-2.35.09-4.72-.12-7.08-.24C108.91,205.45,109.13,204.91,109.17,204.59Z"/><path class="cls-1" d="M255.89,196.54v1.2H248c0,2-.08,3.89,0,5.73.06.87.91,1,1.67,1h7.09l.06.82c-.13.06-.21.13-.29.13-2.52.12-5,.28-7.55.32a2.14,2.14,0,0,1-2.33-2,4.51,4.51,0,0,1-.11-.89c0-3.79,0-7.58,0-11.36,0-2.18,1.05-3.11,3.22-3.05s4.21.18,6.31.24c.72,0,.89.32.63,1.05h-6c-2.69,0-2.83.15-2.83,2.87v3.82c1.34,0,2.65.12,3.95.14S254.53,196.54,255.89,196.54Z"/><path class="cls-1" d="M223.3,188.53c1-.29,1.45-.09,1.79.91,1.47,4.38,3,8.73,4.58,13.09.1.29.23.59.42,1.09.2-.49.32-.78.43-1.08,1.61-4.36,3.26-8.72,4.81-13.1.34-1,.84-1.19,1.83-.92q-3.19,8.61-6.35,17.17c-1.42.16-1.42.16-1.88-1.14l-5.43-15.37C223.43,189,223.38,188.78,223.3,188.53Z"/><path class="cls-1" d="M191.44,204.55v.82a24,24,0,0,1-6.71.39,4.14,4.14,0,0,1-3.45-2.71,19.21,19.21,0,0,1-1-4.25,17.72,17.72,0,0,1,.42-6.8,4.51,4.51,0,0,1,4.83-3.74c1.94,0,3.88.24,5.88.38l.07,1.13c-1.3-.08-2.52-.17-3.74-.2a24.5,24.5,0,0,0-3,.08,2.92,2.92,0,0,0-2.63,2.27,17.19,17.19,0,0,0,0,9.77,3.75,3.75,0,0,0,4.08,2.86Z"/><path class="cls-1" d="M67.34,188.48h1.35V202.4c0,1.59.4,2,2,2,1.95,0,3.91,0,5.86,0h1v1.27c-2.67,0-5.31.09-7.94,0-1.41-.07-2-.8-2.16-2.22a7.85,7.85,0,0,1-.08-1.08c0-4.3,0-8.6,0-12.9Z"/><path class="cls-1" d="M88.22,188.46h1.26v13.41c0,.3,0,.6,0,.9.09,1.18.51,1.61,1.7,1.62,2,0,4.09,0,6.13,0h1v1.27a3.26,3.26,0,0,1-.57.08c-2.17,0-4.33,0-6.49,0s-3.09-.88-3.09-3.14V188.46Z"/></svg>