<svg id="Logos_Patrocinadores_Web" data-name="Logos Patrocinadores Web" xmlns="http://www.w3.org/2000/svg" viewBox="0 0 300 300"><defs><style>.cls-1{fill:#8f8fa3;}.cls-2{fill:#fff;}.cls-3{fill:#fffffd;}.cls-4{fill:#fffdfc;}</style></defs><path class="cls-1" d="M206.44,156.79h-.87q-12.52,0-25,0a1.15,1.15,0,0,1-1.21-.75c-4.49-8.7-9-17.38-13.51-26.08a1.29,1.29,0,0,0-1.34-.84q-5.39.06-10.77,0c-.68,0-.82.19-.82.84,0,8.63,0,17.26,0,25.89,0,.7-.13.95-.91.95q-11-.06-22,0c-.71,0-.88-.17-.88-.88q0-38.17,0-76.34c0-.7.16-.89.88-.89,15.08,0,30.17,0,45.25,0,6.44,0,12.55,1.45,17.9,5.25a23.43,23.43,0,0,1,9.68,16c2,12.18-5.4,21.7-13.59,25.62-.66.31-.51.56-.24,1q8.46,14.6,16.9,29.19C206.05,156.09,206.2,156.36,206.44,156.79Z"/><path class="cls-1" d="M271.23,158.19c-6.55-.13-11.79-.63-16.84-2.39a29.63,29.63,0,0,1-11.28-7c-.42-.4-.48-.66-.09-1.14,3.27-4.08,6.51-8.18,9.77-12.26.17-.21.27-.83.81-.29,2.81,2.85,6.39,4.16,10.19,4.93a29.44,29.44,0,0,0,11.53.26,11.61,11.61,0,0,0,2.24-.69,6.46,6.46,0,0,0,4-8.29,4.7,4.7,0,0,0-2.86-3.27,32.74,32.74,0,0,0-7-1.56c-4.48-.77-9-1.17-13.34-2.81-8-3.07-12.27-8.9-13.07-17.38a26.78,26.78,0,0,1,2.32-14.8,23.6,23.6,0,0,1,15.85-12.65,39.35,39.35,0,0,1,27.05,2.29,26.74,26.74,0,0,1,7.86,5.79c.53.54.46.83,0,1.33q-5.39,5.39-10.7,10.82c-.44.45-.65.43-1.09,0a15,15,0,0,0-10-4.31,20.42,20.42,0,0,0-7.59.36,8.78,8.78,0,0,0-4.84,3.26,5.56,5.56,0,0,0,2.06,8.47,16.89,16.89,0,0,0,5.27,1.33c5,.85,10,1.29,14.83,3,4.2,1.52,7.92,3.68,10.35,7.61a21.65,21.65,0,0,1,3,9.32,30.66,30.66,0,0,1-.61,11.8c-2,7.17-6.73,12-13.36,15.09A35.05,35.05,0,0,1,271.23,158.19Z"/><path class="cls-1" d="M30.56,78.71c9.86,0,19.72,0,29.57,0,.7,0,1,.12.95.9q-.06,9.16,0,18.33c0,.66-.15.84-.82.84-6,0-12,0-18,0-.81,0-1,.16-1,1,0,18.71,0,37.42,0,56.12,0,.92-.22,1.13-1.13,1.12q-9.63-.06-19.27,0c-.78,0-1-.18-1-1q0-28.07,0-56.13c0-1-.24-1.16-1.17-1.16-6,.05-11.91,0-17.86.05-.71,0-.87-.18-.87-.88q0-9.16,0-18.33c0-.73.21-.86.89-.86C10.78,78.72,20.67,78.71,30.56,78.71Z"/><path class="cls-1" d="M64.8,78.71c6.09,0,12,0,18,0,.69,0,.76.42.91.84L89.4,95l5.25,14.2c.08.2.17.4.32.76l3.34-9.26q3.81-10.58,7.62-21.14c.13-.38.14-.84.81-.84,6,0,12.09,0,18.25,0l-2,5.13q-9.54,24.18-19.1,48.37a4.15,4.15,0,0,0-.3,1.55c0,7.41,0,14.81,0,22.21,0,.87-.25,1-1,1-5.19,0-10.39,0-15.59,0-.67,0-.82-.18-.81-.84,0-7.43,0-14.86,0-22.3a4.23,4.23,0,0,0-.31-1.64Q75.51,105.91,65.15,79.61Z"/><path class="cls-1" d="M233.18,117.82q0,19,0,38.07c0,.87-.21,1.09-1.07,1.08-5.51,0-11,0-16.54,0-.66,0-.89-.1-.89-.84q0-38.28,0-76.54c0-.67.12-.9.86-.89q8.35.06,16.72,0c.79,0,.92.24.92,1Q233.17,98.74,233.18,117.82Z"/><path class="cls-2" d="M162.28,109.39c-3.18,0-6.36,0-9.54,0-.64,0-.85-.14-.84-.82,0-3,0-6,0-9,0-.67.2-.84.85-.83,5.88,0,11.76,0,17.64,0a10.9,10.9,0,0,1,2.72.29,5.09,5.09,0,0,1,0,10,11.46,11.46,0,0,1-2.8.26Z"/><path class="cls-1" d="M116.24,196.86a.44.44,0,0,0-.68-.22,26.35,26.35,0,0,0-6.23,3.88,16.2,16.2,0,0,0-2.32,3.16c-.89,1.27-1.65,1.19-2.45-.12-.31-.51-.94-.85-1.36-1.35-.23-.26-.4-.51-.16-.82,1.13-1.49,1.92-3.25,3.38-4.5,2.81-2.44,5.89-4.49,9.58-5.2a14.09,14.09,0,0,1,8.32.81c.32.13.65.24,1,.36,4.92,1.7,7.84,8,5.41,12.94a13.74,13.74,0,0,1-3.79,4.5c-1.14.91-2.55,1.33-3.61,2.36.24.41.71.52,1.14.69a8.44,8.44,0,0,1,5.11,8.05,7.39,7.39,0,0,1-2.28,5,25.94,25.94,0,0,1-5.59,4.37,18,18,0,0,1-10.5,2.22,10.46,10.46,0,0,1-7.34-4.13,21.63,21.63,0,0,1-2.6-4.24.78.78,0,0,1,.7.37,12.51,12.51,0,0,0,2.29,2.07c2.61,2.23,5.51,3.4,9,2.63,0,0,.08.09.07.15.22.13.37-.08.55-.11s.58-.07.72-.39a7.9,7.9,0,0,0,1.6-.53c1.36-.77,2.56-1.79,3.84-2.67a28.93,28.93,0,0,0,4-3.88,3.78,3.78,0,0,0,1.15-3.65,1.51,1.51,0,0,1,0-.56,1.33,1.33,0,0,0-1.19-1.62c-2.6-.55-5.2-.86-7.8.13a1.87,1.87,0,0,1-2-.8c-.26-.31-.6-.66-.88-1-.63-.67-.81-.3-1,.24-.46,1.27-.89,2.55-1.33,3.82-.1.3-.19.59-.28.88-.42.09,0-.54-.44-.43s-.26.34-.32.54a17.44,17.44,0,0,0-.89,2.87c-.45-.42-.22-.93-.44-1.35-.61.15-.51.72-.65,1.13-.24.7-.08,1.56-1,2-.22.11-.19.69-.3,1s-.05.55-.41.54a.66.66,0,0,1-.62-.5,1.44,1.44,0,0,1-.09-.64,51.63,51.63,0,0,1,1.38-6.74c.08-.24,0-.81.63-.54.15.06.32-.48.4-.78.33-1.15.57-2.32.84-3.47.59-2.52,1.89-4.72,2.77-7.1,1.21-3.27,3.2-6.11,4.87-9.13C116.57,197,116.46,196.89,116.24,196.86Z"/><path class="cls-1" d="M158.76,183.7v-9.64c0-1.21,0-1.24,1.2-1.24h8.6a6.79,6.79,0,0,1,6.77,5.21,6.46,6.46,0,0,1-3.67,7.42c-.75.38-.64.67-.32,1.24,1.22,2.2,2.4,4.43,3.59,6.64.55,1,.35,1.37-.79,1.38s-2.08,0-3.12,0a1.23,1.23,0,0,1-1.31-.82c-1.17-2.4-2.39-4.78-3.59-7.16a2.26,2.26,0,0,0-2.31-.56c-.24.19-.13.47-.13.7,0,2.24,0,4.48,0,6.71,0,.81-.27,1.16-1.1,1.13s-1.83,0-2.74,0-1.11-.28-1.1-1.1C158.78,190.31,158.76,187,158.76,183.7Z"/><path class="cls-1" d="M32.53,183.7v-9.63c0-1.2,0-1.25,1.21-1.25h8.59a6.81,6.81,0,0,1,6.77,5.1,6.49,6.49,0,0,1-3.62,7.53c-.73.36-.7.63-.36,1.24,1.23,2.2,2.41,4.42,3.6,6.63.55,1,.35,1.38-.8,1.39s-2.08,0-3.12,0a1.24,1.24,0,0,1-1.31-.82c-1.17-2.4-2.38-4.78-3.59-7.16a2.2,2.2,0,0,0-2.3-.55c-.25.18-.14.46-.14.7,0,2.23,0,4.47,0,6.7,0,.9-.36,1.17-1.19,1.13a24.1,24.1,0,0,0-2.55,0c-.89.05-1.22-.28-1.21-1.2C32.56,190.25,32.53,187,32.53,183.7Z"/><path class="cls-1" d="M181.86,183.75c0-3.24,0-6.49,0-9.73,0-.87.24-1.23,1.18-1.22,4,0,7.93,0,11.89,0,.82,0,1.15.26,1.1,1.09a20.19,20.19,0,0,0,0,2.46c.06.86-.33,1.07-1.12,1.05-2.42,0-4.84,0-7.27,0-.7,0-.95.17-.89.89a13.24,13.24,0,0,1,0,2.27c0,.65.22.78.81.77,1.95,0,3.9,0,5.86,0,.82,0,1.14.27,1.09,1.1s0,1.7,0,2.55c0,.68-.25,1-.94.95-2,0-4,0-6,0-.63,0-.91.11-.86.81a16.7,16.7,0,0,1,0,2.55c-.06.75.24.87.91.86,2.39,0,4.79,0,7.18,0,.89,0,1.27.28,1.19,1.2a24.1,24.1,0,0,0,0,2.55c0,.65-.3.9-.92.9q-6.14,0-12.27,0c-.84,0-1-.45-1-1.15C181.87,190.3,181.86,187,181.86,183.75Z"/><path class="cls-1" d="M275,183.7v-9.63c0-1.2.05-1.25,1.2-1.25,3.93,0,7.87,0,11.8,0,.85,0,1.22.26,1.16,1.14a16.9,16.9,0,0,0,0,2.36c.06.9-.34,1.12-1.18,1.11-2.42,0-4.84,0-7.27,0-.65,0-.88.16-.84.83a16.9,16.9,0,0,1,0,2.36c0,.6.17.74.74.73,2,0,4,0,6,0,.78,0,1.09.28,1,1.05s0,1.7,0,2.55-.26,1-1,1c-2,0-4,0-5.95,0-.6,0-.84.13-.8.77a17.9,17.9,0,0,1,0,2.64c0,.7.23.82.86.81,2.42,0,4.85,0,7.27,0,.85,0,1.21.28,1.15,1.16s0,1.69,0,2.54-.31,1-1,1q-6.09,0-12.18,0c-.8,0-1-.36-1-1.1C275,190.31,275,187,275,183.7Z"/><path class="cls-1" d="M160.47,219.3c.48.43.09.88,0,1.28a5.73,5.73,0,0,1-5.93,4.38,4.14,4.14,0,0,1-3.27-1.82,20.32,20.32,0,0,1-2.33-3.79,6.9,6.9,0,0,1-.29-5.22c.47-1.16.68-2.38,1.2-3.54a18.08,18.08,0,0,1,8.59-9.37c1.31-.64,2.6-1,3.92,0,.81.65,1.93.79,2.64,1.59,1.35,1.5,1.16,3.28.65,5a12.31,12.31,0,0,1-6.85,7.74,3.25,3.25,0,0,1-3.65-.7c-.64-.71-.9-.66-1.28.19a9.3,9.3,0,0,0-.74,6.24c.31,1.17.69,1.35,1.86,1.16a6.34,6.34,0,0,0,4-2.52,18.1,18.1,0,0,0,2.27-3.54,5.84,5.84,0,0,1-1,2.73,1.18,1.18,0,0,1-.24.6l0,.05,0-.05A1.33,1.33,0,0,1,160.47,219.3Z"/><path class="cls-1" d="M19.56,195c-5,0-9.91-4.32-10.46-9.85a11.26,11.26,0,0,1,9.13-12.44A10.72,10.72,0,0,1,27.36,175c.94.77.95.93.14,1.78-.55.57-1.12,1.11-1.64,1.71a.92.92,0,0,1-1.49.15,6.08,6.08,0,0,0-8.36.64A6.68,6.68,0,0,0,16,188a6.19,6.19,0,0,0,8.31.82c.71-.5,1.13-.46,1.65.18s1.08,1.15,1.61,1.72c.76.82.75,1-.12,1.74A11.19,11.19,0,0,1,19.56,195Z"/><path class="cls-1" d="M146.12,195A11.23,11.23,0,0,1,144,172.69a10.75,10.75,0,0,1,9.27,2.39c.62.52.74.94.11,1.52a20.42,20.42,0,0,0-1.71,1.77c-.52.62-.93.69-1.63.16a6.09,6.09,0,0,0-9.72,3.42,6.49,6.49,0,0,0,2.44,7,6.27,6.27,0,0,0,7.25-.11c.69-.49,1.13-.5,1.66.15a21.87,21.87,0,0,0,1.74,1.86c.57.55.51,1-.07,1.48A10.65,10.65,0,0,1,146.12,195Z"/><path class="cls-1" d="M62.48,191.46c-1.17,0-2.34,0-3.5,0a1,1,0,0,0-1.08.65c-1.31,2.93-.65,2.59-4.06,2.61-2.24,0-2.24,0-1.29-2q4.44-9.59,8.9-19.15c.22-.47.34-1.07,1-1s.77.59,1,1l9.18,19.75c.56,1.22.43,1.43-.88,1.44-.82,0-1.64,0-2.46,0a1.35,1.35,0,0,1-1.57-1c-.47-2-1.67-2.59-3.57-2.24A9.52,9.52,0,0,1,62.48,191.46Z"/><path class="cls-1" d="M198.65,194c.08-.19.15-.4.24-.6l9.36-20.09c.2-.43.37-.89,1-.86s.7.46.88.86q4.67,10,9.31,20c.5,1.08.33,1.35-.85,1.36a14.52,14.52,0,0,0-2,0,1.89,1.89,0,0,1-2.37-1.57c-.36-1.45-1.23-1.84-2.67-1.73-1.92.15-3.85.06-5.77,0a1.09,1.09,0,0,0-1.2.76c-1.25,2.84-.73,2.49-3.94,2.51-.44,0-.88,0-1.32,0A.6.6,0,0,1,198.65,194Z"/><path class="cls-1" d="M140.64,201.57a5.38,5.38,0,0,1,2.72-1c.87,0,1.73-.1,2.3.86.22.37.9.43,1.23.76a5.65,5.65,0,0,1,1.57,5.69,10.84,10.84,0,0,1-5.87,7,3.8,3.8,0,0,1-4.24-1c-.94-1-1.2-.92-1.74.34a14.35,14.35,0,0,0-1.26,6.12,2.2,2.2,0,0,0,1.45,2.36,1.16,1.16,0,0,0,1.42-.38,3.68,3.68,0,0,1,1.31-1,8.65,8.65,0,0,0,3.23-3.07c.2-.33.43-.93.94-.71s.14.75.14,1.17c0,2.53-2.2,3.18-3.67,4.46-.14.12-.3.2-.5.34.53.27.92-.37,1.37-.06a.71.71,0,0,1-.49.41c-1.48.56-2.91,1.53-4.6.85a5.27,5.27,0,0,1-2.72-2.11,11.93,11.93,0,0,1-1.36-9.86,21.94,21.94,0,0,1,2.32-5.59,2.31,2.31,0,0,1,.75-.94c.17-.07.25,0,.32.15.14-.06-.17.53.21.14a22.88,22.88,0,0,1,6.82-5.1,1.61,1.61,0,0,1,.36-.1c.15,0,.28-.11.4-.06a2.11,2.11,0,0,0-.9.21c-.44.09-.81.42-1.29.36C140.72,201.81,140.61,201.74,140.64,201.57Z"/><path class="cls-1" d="M178.48,204.85a55.68,55.68,0,0,0-4.31,5.08c-.86,1.19-1.5,2.51-2.39,3.68a13.4,13.4,0,0,0-2.25,4.42c-.56,1.92-1.24,3.81-1.91,5.7-.19.54-.38,1.18-1.13,1.25a1.82,1.82,0,0,1-1.63-.93c-1.07-1.35-.9-2.84-.53-4.36a58.15,58.15,0,0,1,5.1-14.08c.64-1.2,1.1-2.47,1.74-3.66a1.17,1.17,0,0,0,.19-.51c.07-1,.12-.95,1-.61.6.24,1,.75,1.82.8.4,0,1.06.79,1.2,1.51a2.7,2.7,0,0,1-.38,2,5.86,5.86,0,0,0-.86,2.42c1.13-1.3,2.22-2.64,3.39-3.9a25.63,25.63,0,0,0,2.57-2.84.58.58,0,0,1,.67-.2c.82.2,1.57.73,2.52.41,0,0,1.05.51,1.2,1.21a3.33,3.33,0,0,1-.31,2.65,79.77,79.77,0,0,0-4.68,8.37c-.73,1.44-2,1.43-3.29,1.56-.51,0-.42-.37-.41-.67a16.56,16.56,0,0,1,1.36-6.32C177.57,206.82,178,205.84,178.48,204.85Z"/><path class="cls-1" d="M260.7,184.7c1.7-3.76,3.33-7.3,4.89-10.86a1.42,1.42,0,0,1,1.63-1c.87.08,1.76,0,2.64,0,1.53,0,1.62.14,1,1.56l-8.74,18.7c-.18.4-.37.8-.56,1.2s-.35.71-.87.71-.7-.33-.88-.72c-1.31-2.85-2.64-5.7-4-8.55l-5.32-11.46c-.56-1.22-.43-1.44.88-1.44,1,0,2,0,3,0a1.18,1.18,0,0,1,1.28.84q2.25,5,4.54,10.05C260.34,184,260.48,184.24,260.7,184.7Z"/><path class="cls-1" d="M76,183.76c0-3.24,0-6.49,0-9.73,0-1.15.07-1.21,1.25-1.21,3.9,0,7.8,0,11.71,0,.9,0,1.27.26,1.2,1.18a16.9,16.9,0,0,0,0,2.36c.06.86-.33,1.08-1.12,1.06-2.43,0-4.85,0-7.28,0-.71,0-.93.18-.88.9a22.27,22.27,0,0,1,0,2.83c-.05.7.22.82.85.81,1.92,0,3.84,0,5.76,0,.88,0,1.19.32,1.14,1.17s0,1.64,0,2.46-.3,1-1,1c-2,0-4,0-6,0-.62,0-.8.17-.79.79,0,2.11,0,4.22,0,6.33,0,.82-.29,1.15-1.1,1.12s-1.83,0-2.74,0S76,194.38,76,193.58C76,190.31,76,187,76,183.76Z"/><path class="cls-1" d="M191.39,210.4c.93-2.35,2.58-4.16,2.1-6.73a5.46,5.46,0,0,1-1.93,1.92,7.16,7.16,0,0,0-2.18,2.33,3.71,3.71,0,0,0,0,4.1c1,1.61,1.9,3.26,2.82,4.91,1.32,2.36.32,5.88-1.44,7.5a5.25,5.25,0,0,1-4.24,1c-.11,0-.29-.07-.17-.23.45-.59-.26-.49-.38-.51a7.4,7.4,0,0,1-4.14-2.34,5.22,5.22,0,0,1-.56-6.68c.19-.27.47-.76.74-.55s1.15.28,1.18,1.06a2.57,2.57,0,0,1-.63,1.63c-.48.65-.31,2.89.27,3.79a2.57,2.57,0,0,0,2.64,1.09,3.75,3.75,0,0,0,2.63-2.75,4.31,4.31,0,0,0-.24-3.73,32.09,32.09,0,0,0-2.07-3.59,2.89,2.89,0,0,1-.56-1.38,28.74,28.74,0,0,1-.46-3.55,6.47,6.47,0,0,1,2.5-5,28.48,28.48,0,0,1,2.49-1.88c.77-.55,1.23.33,1.82.53a2.27,2.27,0,0,1,.94.57c.15.16.33.25.46,0s0-.35-.22-.43-.41-.21-.4-.46a.29.29,0,0,1,.34-.26,13,13,0,0,1,3,.91,2.35,2.35,0,0,1,1,1.33,8.13,8.13,0,0,1,.07,5.71c-.47,1.29-1.54,1.73-2.62,2.2a.82.82,0,0,1-.91-.36C192.79,210,192.26,209.79,191.39,210.4Z"/><path class="cls-1" d="M103.16,185.9c0,2.55,0,5.1,0,7.64,0,.85-.28,1.23-1.16,1.18a23.25,23.25,0,0,0-2.64,0c-.91.06-1.21-.32-1.21-1.21,0-5,0-9.95,0-14.92,0-1.2,0-1.2-1.23-1.2-1,0-2,0-2.93,0-.66,0-.9-.27-.88-.9,0-.95,0-1.89,0-2.84,0-.58.23-.86.84-.85h13.41c.56,0,.8.26.8.8,0,1,0,2,0,3,0,.56-.28.78-.83.77-1,0-2,0-3,0s-1.25.15-1.21,1.16C103.21,181,103.16,183.44,103.16,185.9Z"/><path class="cls-1" d="M225.22,185.86c0-2.46-.05-4.92,0-7.37,0-1-.28-1.19-1.17-1.12s-2,0-3,0c-.64,0-.91-.23-.89-.89,0-.94,0-1.89,0-2.83,0-.58.2-.88.82-.87h13.41c.56,0,.82.25.82.79v3c0,.55-.27.79-.82.78-1.14,0-2.27,0-3.4,0-.69,0-.83.22-.83.86,0,5,0,10.07,0,15.11,0,1.27-.08,1.35-1.32,1.36-.88,0-1.76,0-2.64,0s-1-.31-1-1C225.23,191.08,225.22,188.47,225.22,185.86Z"/><path class="cls-1" d="M240.54,183.78v-9.72c0-1.2.05-1.24,1.2-1.24.95,0,1.89,0,2.83,0,.65,0,.91.28.91.91v20.1c0,.65-.32.9-.94.89-1,0-1.95,0-2.92,0s-1.1-.31-1.09-1.12C240.56,190.33,240.54,187.06,240.54,183.78Z"/><path class="cls-1" d="M123.94,183.49a1.17,1.17,0,0,0,.42-.93c-.06-1.09.47-1.34,1.47-1.26,1.15.09,1.16,0,1,1.16a5.53,5.53,0,0,1-1,2.73c-.51.68-.24,1,.43,1,1.07,0,1,.65,1,1.37,0,.38-.11.55-.51.61a3.45,3.45,0,0,1-2.47-.35,1.17,1.17,0,0,0-1.29,0,5.92,5.92,0,0,1-4.06.32,4,4,0,0,1-2.77-5.48,5.56,5.56,0,0,1,1.72-2.33c.7-.55.89-1,.37-1.82a4.48,4.48,0,0,1-.68-2.62,2.94,2.94,0,0,1,2.09-2.73,4.64,4.64,0,0,1,2.61,0,2.69,2.69,0,0,1,1.8,3.74,6.31,6.31,0,0,1-1.72,2.45.8.8,0,0,0-.17,1.2C122.79,181.45,123.34,182.46,123.94,183.49Z"/><path class="cls-1" d="M135.16,206.49l-.22-.23c1.43-1.29,2.58-2.89,4.35-3.78.18-.1.24,0,.27.17a1,1,0,0,1-.43.59,32.55,32.55,0,0,0-3.47,3.07A.52.52,0,0,1,135.16,206.49Z"/><path class="cls-1" d="M139.49,202.66l-.2-.18a4.4,4.4,0,0,1,1.35-.91l.13.11A1.18,1.18,0,0,1,139.49,202.66Z"/><path class="cls-1" d="M113.22,229.85v-.15a3.69,3.69,0,0,1,1.34-.35c.37.78-.45.33-.59.57C113.72,229.85,113.45,230.13,113.22,229.85Z"/><path class="cls-1" d="M116.24,196.86l.53-.41a.76.76,0,0,1-.32.76Z"/><path class="cls-1" d="M159.89,219.67l.37-.58.21.21-.39.57C159.91,219.9,159.81,219.87,159.89,219.67Z"/><path class="cls-2" d="M113.25,213.38a55.56,55.56,0,0,1,2.46-5.4c.77-1.24,1.56-2.49,2.22-3.8s1.68-2.41,2.36-3.71a16.2,16.2,0,0,0,.89-1.63c.36-.92-.58-2.5-1.57-2.48-.42,0-.69-.53-1.12-.18-.12.09-.16-.12-.21-.23s0-.29.21-.33a2.9,2.9,0,0,1,.89-.25,13.09,13.09,0,0,1,6.1.83,2.68,2.68,0,0,1,1.35,2c.47,2-.18,3.63-1,5.36s-2.5,3.12-3.59,4.75c-.86,1.29-2.2,1.92-3,3.11a.84.84,0,0,1-.53.37C116.84,211.93,115.22,212.74,113.25,213.38Z"/><path class="cls-1" d="M113.22,229.85c.25,0,.51-.15.75.07a.78.78,0,0,1-.84.14C112.82,229.94,113.17,229.92,113.22,229.85Z"/><path class="cls-2" d="M166.08,182.12c-.62-.05-1.71.37-2.24-.14s-.15-1.61-.16-2.45c0-2.22,0-2.22,2.24-2.22.81,0,1.63,0,2.44,0a2.36,2.36,0,0,1,2.3,2.28,2.47,2.47,0,0,1-2.29,2.52C167.68,182.15,167,182.12,166.08,182.12Z"/><path class="cls-2" d="M40.17,177.32c.66,0,1.32,0,2,0a2.35,2.35,0,0,1,2.29,2.38,2.43,2.43,0,0,1-2.29,2.41c-1.34,0-2.7,0-4,0-.46,0-.67-.11-.66-.63,0-1.19,0-2.39,0-3.58,0-.51.18-.65.66-.63.69,0,1.38,0,2.07,0Z"/><path class="cls-2" d="M155.63,213.27c-.67.07-.91,0-.65-.54a20.21,20.21,0,0,1,5.16-6.28,2.72,2.72,0,0,1,.47-.31c.36-.17.75-.61,1.1-.39s0,.69,0,1c.13,3-2.05,4.43-4.12,5.92A4.51,4.51,0,0,1,155.63,213.27Z"/><path class="cls-1" d="M159.89,219.67l.19.2a.59.59,0,0,1-.45.44C159.56,220,159.74,219.85,159.89,219.67Z"/><path class="cls-2" d="M60.11,187.15,62.45,182c.82,1.77,1.57,3.41,2.35,5.12Z"/><path class="cls-2" d="M209.15,182c.83,1.8,1.58,3.44,2.37,5.14h-4.68Z"/><path class="cls-2" d="M137.67,212.49a8.39,8.39,0,0,1,2.35-3.42,19.46,19.46,0,0,1,3.31-2.77A1.14,1.14,0,0,1,144,206c.55,0,.91,0,.82.8a6.83,6.83,0,0,1-6.19,5.83A6.67,6.67,0,0,1,137.67,212.49Z"/><path class="cls-1" d="M139.49,202.66l1.35-.92c.42-.11.77-.43,1.24-.42.22,0,.52-.24.62.19a26.09,26.09,0,0,0-7.67,5.71c-.19-.24.16-.46.13-.73A54.12,54.12,0,0,1,139.49,202.66Z"/><path class="cls-1" d="M142.7,201.51c-.17-.2-.41-.13-.62-.19l1.83-.39C143.56,201.55,143,201.29,142.7,201.51Z"/><path class="cls-3" d="M120.89,186.06a2.1,2.1,0,0,1-2.16-1.27,3.21,3.21,0,0,1,.94-2.82c.38-.25.42.1.53.28.58.89,1.09,1.84,1.71,2.69.52.7.21.9-.43,1C121.24,186,121,186.05,120.89,186.06Z"/><path class="cls-4" d="M120.69,177.5a2.5,2.5,0,0,1-.57-1.47,1,1,0,0,1,.57-1.08.69.69,0,0,1,.86.19,1,1,0,0,1,0,1.14A4.55,4.55,0,0,1,120.69,177.5Z"/></svg>