<svg id="Logos_Patrocinadores_Web" data-name="Logos Patrocinadores Web" xmlns="http://www.w3.org/2000/svg" viewBox="0 0 300 300"><defs><style>.cls-1{fill:#8f8fa3;}</style></defs><path class="cls-1" d="M83.17,169.81c1.33-2.93,2.59-5.75,3.86-8.57Q95,143.63,102.87,126a3.29,3.29,0,0,1,3.06-2.08c1.41-.06,2.83,0,4.24,0,.33,0,.43.13.39.42,0,.1,0,.21,0,.31q0,27.19,0,54.38c0,.6-.11.78-.74.76-1.84,0-3.67-.05-5.51,0-.65,0-.74-.2-.73-.77q0-18.58,0-37.17v-.65c-.24.11-.27.34-.35.52L86.69,177.67a3.93,3.93,0,0,1-6.93.05q-8.54-18-17.05-36.11a1.54,1.54,0,0,0-.4-.56v.68q0,18.68,0,37.34c0,.58-.12.75-.72.73-1.89,0-3.79,0-5.69,0-.48,0-.64-.09-.64-.61q0-27.34,0-54.69c0-.45.1-.59.56-.58,1.31,0,2.63,0,3.94,0A3.26,3.26,0,0,1,63,126q9.91,21.57,19.87,43.11C82.92,169.3,83,169.49,83.17,169.81Z"/><path class="cls-1" d="M122.52,151.75v-25a2.57,2.57,0,0,1,2.83-2.85q15.84,0,31.66,0c.52,0,.63.15.62.64,0,1.81,0,3.62,0,5.44,0,.66-.2.76-.8.76q-13,0-26,0c-.89,0-.77-.1-.77.76q0,8,0,16c0,.51.15.62.64.62,7.2,0,14.41,0,21.61,0,.52,0,.68.09.67.65,0,1.81,0,3.62,0,5.44,0,.53-.11.69-.68.69-7.16,0-14.32,0-21.49,0-.61,0-.75.15-.75.76,0,5.54,0,11.08,0,16.62,0,.54.12.7.69.7l26.21,0c.59,0,.73.15.72.73,0,1.85,0,3.71,0,5.56,0,.42-.07.58-.55.58q-15.74,0-31.48,0a2.81,2.81,0,0,1-3.08-3.08Z"/><path class="cls-1" d="M0,142.4c0-5.9,0-11.81,0-17.71,0-.66.19-.79.8-.77,1.37,0,2.74,0,4.11,0a2.45,2.45,0,0,1,2.6,2.62c0,10.49,0,21,0,31.48a16.5,16.5,0,0,0,3,10A12.47,12.47,0,0,0,19,173.16a15.27,15.27,0,0,0,8.66-.91c4.27-1.88,6.66-5.3,7.71-9.75a19.35,19.35,0,0,0,.5-4.43q0-15.65,0-31.3a2.61,2.61,0,0,1,2.82-2.83c1.39,0,2.78,0,4.17,0,.4,0,.51.1.51.5,0,11.46.06,22.92,0,34.38a21.83,21.83,0,0,1-5.77,15.05,20,20,0,0,1-12.15,6.28,23.25,23.25,0,0,1-11.17-.9c-6.72-2.35-11-7.06-13.1-13.81A25.38,25.38,0,0,1,0,157.93C0,152.75,0,147.57,0,142.4Z"/><path class="cls-1" d="M182.28,180.36a21,21,0,0,1-12.94-4,26.38,26.38,0,0,1-4.59-4.37c-.16-.18-.19-.29,0-.49.74-.91,1.43-1.86,2.2-2.73a2.88,2.88,0,0,1,4.08-.26c1,.8,1.88,1.65,2.9,2.38a14.56,14.56,0,0,0,10.14,2.54,11.78,11.78,0,0,0,5.34-1.76,9.93,9.93,0,0,0,4-10.71,5.92,5.92,0,0,0-2.17-3.11,15.53,15.53,0,0,0-4.87-2.5c-3-1.07-6.15-1.9-9.13-3.13a19,19,0,0,1-4.87-2.77,12.61,12.61,0,0,1-4.79-8.88c-.5-5.33,1.09-9.88,5.24-13.37a17.11,17.11,0,0,1,10.59-3.85,20.12,20.12,0,0,1,16.7,6.93c.15.17.24.29,0,.5-.88,1-1.62,2.11-2.6,3a2.6,2.6,0,0,1-3.28.34,5.42,5.42,0,0,1-.83-.59,13.29,13.29,0,0,0-12.59-2.94,8,8,0,0,0-5.92,9.75,5.52,5.52,0,0,0,1.59,2.66,14.46,14.46,0,0,0,5.51,3.15c3,1.06,6,1.94,8.94,3.15a19.85,19.85,0,0,1,4.89,2.72,12.49,12.49,0,0,1,5,9.57,17.68,17.68,0,0,1-3.58,12.06A17.1,17.1,0,0,1,186.43,180,30.52,30.52,0,0,1,182.28,180.36Z"/><path class="cls-1" d="M233.11,134.65c-1.58,3.95-3.12,7.82-4.67,11.68q-6.25,15.64-12.52,31.3a3.24,3.24,0,0,1-3.1,2.19c-.89,0-1.78,0-2.67,0a1.87,1.87,0,0,1-1.88-2.8q5.52-13.44,11-26.89l10.11-24.67a2,2,0,0,1,2.28-1.53c1.05,0,2.1,0,3.15,0a1.89,1.89,0,0,1,1.92,1.28l21.31,51.88a1.81,1.81,0,0,1-1.64,2.7,17.29,17.29,0,0,1-3.45,0,3.11,3.11,0,0,1-2.59-2.17q-4-9.78-7.89-19.58-4.58-11.39-9.13-22.78C233.31,135.08,233.23,134.92,233.11,134.65Z"/><path class="cls-1" d="M267.75,151.75V126.67a2.51,2.51,0,0,1,2.69-2.73c1.38,0,2.75,0,4.12,0,.53,0,.71.11.71.68,0,6,0,11.89,0,17.83v29.49c0,1,0,1,.94,1,7.71,0,15.42,0,23.12,0,.56,0,.7.14.69.69,0,1.89,0,3.79,0,5.68,0,.4-.07.55-.51.55q-14.33,0-28.63,0a3,3,0,0,1-3.12-3.15C267.78,168.35,267.75,160.05,267.75,151.75Z"/><path class="cls-1" d="M233.16,155.78c.47,1.21.9,2.29,1.32,3.37q3.84,9.93,7.67,19.87c0,.11.08.23.13.33.2.38,0,.45-.33.44H224.64c-.77,0-.78,0-.51-.7l8.43-21.78Z"/></svg>