<svg width="292" height="292" viewBox="0 0 292 292" fill="none" xmlns="http://www.w3.org/2000/svg">
<path d="M0 145.557C0.0167843 116.587 8.67289 88.2803 24.8617 64.2556C41.0504 40.2309 64.0363 21.5799 90.8805 10.6872C117.725 -0.205494 147.208 -2.845 175.56 3.10615C203.912 9.0573 229.845 23.3287 250.044 44.0958C270.243 64.8628 283.79 91.182 288.952 119.688C294.115 148.195 290.658 177.593 279.025 204.125C267.392 230.657 248.111 253.116 223.646 268.633C199.182 284.149 170.646 292.016 141.686 291.23C103.754 290.168 67.7314 274.356 41.2737 247.154C14.8159 219.952 0.00909325 183.504 0 145.557ZM286.439 145.557C286.449 117.769 278.239 90.5987 262.844 67.4653C247.448 44.3318 225.554 26.269 199.916 15.5498C174.278 4.83058 146.043 1.93392 118.763 7.22433C91.4832 12.5147 66.3775 25.7558 46.6054 45.2814C26.8332 64.8069 13.278 89.7444 7.64566 116.956C2.01327 144.167 4.55533 172.437 14.9519 198.207C25.3485 223.977 43.1351 246.096 66.0735 261.781C89.0119 277.466 116.077 286.016 143.863 286.354C162.493 286.557 180.979 283.066 198.252 276.084C215.525 269.103 231.244 258.767 244.501 245.676C257.757 232.585 268.289 216.997 275.487 199.813C282.685 182.628 286.407 164.188 286.439 145.557Z" fill="#8F8FA3"/>
<path d="M250.533 145.557C250.521 166.314 244.351 186.6 232.804 203.848C221.258 221.096 204.853 234.53 185.668 242.451C166.482 250.371 145.378 252.422 125.027 248.343C104.675 244.263 85.9914 234.238 71.3403 219.535C56.6892 204.833 46.7295 186.114 42.7219 165.748C38.7142 145.383 40.8388 124.286 48.8267 105.128C56.8146 85.9707 70.3067 69.6136 87.5952 58.1275C104.884 46.6414 125.191 40.5427 145.947 40.6034C173.707 40.741 200.284 51.8545 219.879 71.5179C239.473 91.1813 250.493 117.798 250.533 145.557ZM206.841 65.2552L206.044 64.7646C205.658 64.3626 205.248 63.9837 204.817 63.6301C176.517 44.0068 145.947 39.3156 113.17 49.8631C103.071 52.9128 93.6873 57.9592 85.575 64.7032C82.141 65.2858 80.6079 68.352 78.3696 70.4063C68.6766 78.8067 60.7374 89.0381 55.0075 100.514C49.2776 111.989 45.8697 124.483 44.9793 137.279C42.4958 169.504 53.3499 197.007 76.7139 219.421C115.593 256.705 179.92 255.509 217.388 216.845C232.587 201.623 242.505 181.931 245.69 160.657C248.874 139.384 245.155 117.65 235.08 98.6454C228.693 85.9123 219.397 74.8621 207.945 66.3896C207.607 66.0217 207.27 65.6844 206.902 65.3471" fill="#8F8FA3"/>
<path d="M235.603 73.687C230.759 75.8333 230.421 75.7413 226.773 71.602C225.178 69.7623 223.523 67.984 221.346 65.4697C222.472 65.7154 223.645 65.6385 224.729 65.2481C225.814 64.8576 226.767 64.1693 227.478 63.2621C230.115 60.6559 232.874 58.1723 235.634 55.6888C237.504 54.0024 239.375 52.3773 237.32 49.0352C240.601 50.139 241.429 52.9292 243.453 54.309C243.79 54.6156 243.912 55.5355 244.526 55.0449C245.139 54.5543 244.526 54.1557 243.943 53.8797C244.403 52.1627 244.832 50.4457 245.292 48.6366C247.99 50.5683 247.224 52.6533 245.507 54.3397C244.434 55.3821 244.74 55.7807 245.507 56.6699C248.573 60.104 248.573 60.196 244.096 63.1701C243.637 61.6064 245.63 60.8092 245.078 59.1842C244.004 55.8421 241.429 55.0449 238.761 57.4671C235.389 60.5332 235.205 61.913 237.933 63.1395C239.252 63.7527 240.294 62.3116 241.644 63.1395L235.511 68.7505C235.021 67.9533 235.849 67.4627 236.155 66.8495C236.983 65.0711 235.665 64.0593 234.683 63.0781C233.702 62.097 232.782 63.3541 232.016 63.9367C231.249 64.5192 230.329 65.4391 229.502 66.2056C226.742 68.8425 226.926 70.069 230.299 71.9393C231.694 72.5408 233.224 72.7612 234.732 72.578C236.241 72.3949 237.673 71.8147 238.884 70.8968C241.509 68.5487 244.844 67.1457 248.358 66.9108C253.877 66.5429 256.361 69.3638 258.201 74.4842C260.04 79.6047 255.778 79.5127 253.663 82.3642C253.663 79.7886 255.012 78.6235 255.502 77.1517C256.005 76.139 256.208 75.0042 256.089 73.8802C255.969 72.7561 255.532 71.6893 254.828 70.8048C254.053 69.9993 253.059 69.4392 251.969 69.1939C250.879 68.9486 249.741 69.029 248.696 69.4251C246.773 69.9261 244.969 70.805 243.39 72.0106C241.811 73.2161 240.487 74.7241 239.497 76.4465C236.646 81.1071 238.547 85.093 243.943 86.1355L246.365 86.6567C244.969 87.4258 243.362 87.7248 241.783 87.5094C240.204 87.294 238.736 86.5757 237.596 85.4609C234.53 82.6401 233.917 79.0221 236.063 74.0856C236.247 73.7483 236.799 73.4417 236.063 73.0738C235.872 73.2632 235.698 73.4683 235.542 73.687" fill="#8F8FA3"/>
<path d="M169.067 255.938C168.189 256.76 167.55 257.803 167.215 258.958C166.881 260.113 166.864 261.336 167.166 262.5C167.779 268.295 168.178 274.09 168.73 280.59C165.415 277.996 162.309 275.146 159.439 272.066C156.373 269.368 153.614 266.578 149.934 263.082C150.425 268.325 150.793 272.587 151.284 276.849C151.529 279.088 153.706 279.425 155.208 280.774L146.93 281.663C151.406 275.224 148.033 268.663 147.88 262.255C147.88 260.108 145.826 259.587 144.078 258.82C148.217 256.827 150.21 257.042 152.97 259.955C156.956 264.217 160.819 268.632 165.234 272.587C166.019 268.403 166.019 264.109 165.234 259.924C165.02 257.87 162.475 258.422 160.881 256.858L169.22 255.938" fill="#8F8FA3"/>
<path d="M34.7689 191.549C37.0825 190.317 39.2349 188.803 41.1772 187.042C42.504 189.27 43.5347 191.661 44.2433 194.156C42.373 194.462 40.5946 194.83 38.8162 195.014C36.2407 195.29 36.486 196.486 37.6818 198.08L41.4225 202.955C40.9303 203.292 40.4066 203.579 39.8587 203.814C38.111 204.55 36.0874 206.114 34.6463 205.684C33.2052 205.255 34.0331 202.618 33.5731 200.901C32.5307 197.099 32.3467 196.976 29.0966 199.429C27.7781 200.441 26.5517 201.576 25.3559 202.496C25.1106 202.496 24.9573 202.495 24.9266 202.281C23.9761 200.257 21.8605 198.05 22.3204 196.149C22.7803 193.696 26.1531 195.413 27.9621 194.278C28.7791 193.883 29.6311 193.565 30.507 193.328C29.6365 191.332 28.3508 189.545 26.7357 188.085C25.4785 186.858 25.8158 186.368 27.2569 185.816C28.698 185.264 30.9363 184.221 32.8986 183.363C33.0331 186.121 33.6668 188.833 34.7689 191.365" fill="#8F8FA3"/>
<path d="M256.267 191.365C257.116 188.787 257.742 186.14 258.137 183.455L265.373 186.705L261.602 191.151C260.253 192.714 260.191 193.849 262.552 194.217C264.116 194.462 265.618 194.83 267.213 194.983C268.807 195.137 269.175 195.658 268.409 197.16C267.642 198.663 266.845 200.594 265.925 202.618C264.177 201.208 262.522 199.981 260.958 198.632C258.812 196.762 257.892 197.804 257.493 200.043C257.095 202.281 256.849 203.783 256.481 205.654C256.481 205.654 256.083 205.654 255.929 205.654C253.875 204.795 251.821 203.875 249.521 202.863L253.661 197.16C254.642 195.873 254.182 195.167 252.741 194.891L246.455 193.88L249.521 186.92C252.005 188.023 253.446 190.476 256.267 191.243" fill="#8F8FA3"/>
<path d="M142.392 274.642C142.177 279.486 140.736 281.081 137.026 280.927C133.316 280.774 128.962 280.345 124.148 280.007C128.073 278.137 127.215 274.918 127.613 272.097C128.012 269.276 127.92 266.946 128.104 264.34C128.41 259.434 128.41 259.434 125.038 256.613H131.415C131.109 255.018 129.514 254.773 128.993 253.24C130.649 253.24 132.519 252.259 133.194 254.497C134.083 257.379 136.26 257.195 138.467 257.257C142.76 257.257 143.312 258.33 141.533 262.929C140.46 261.795 140.828 259.71 138.927 259.28C137.026 258.851 134.481 257.655 133.224 259.28C132.586 260.281 132.185 261.415 132.052 262.595C131.92 263.775 132.058 264.969 132.458 266.087C133.071 267.866 135.37 267.59 137.118 266.731C138.038 266.271 138.038 264.891 139.387 264.707V272.833C137.701 272.495 138.191 271.146 137.609 270.41C136.444 268.877 134.757 269.215 133.255 269.153C131.752 269.092 132.182 270.778 131.844 271.698C131.783 272.033 131.783 272.376 131.844 272.71C131.844 274.703 130.311 277.064 132.642 278.597C134.972 280.13 138.927 278.597 140.982 276.389C141.349 276.021 141.687 275.592 142.515 274.642" fill="#8F8FA3"/>
<path d="M69.0494 63.6301C68.8961 67.8614 67.5776 68.8425 63.561 67.7081C61.3227 67.0642 59.0844 66.267 56.8155 65.6231C56.3392 65.43 55.8089 65.4168 55.3237 65.5861C54.8384 65.7554 54.4314 66.0955 54.1786 66.5429C53.5347 67.7387 54.6079 68.1373 55.2824 68.6279C57.6127 70.1916 58.9618 73.8404 63.285 72.6139L58.0419 78.7462C56.9994 73.0125 44.7042 62.9862 39.3691 63.8754C41.8445 60.8019 44.5177 57.8931 47.3718 55.1675C48.2165 54.6223 49.1824 54.2931 50.1843 54.209C51.1863 54.1249 52.1935 54.2885 53.1174 54.6853C54.0412 55.0821 54.8533 55.6999 55.4822 56.4845C56.111 57.269 56.5373 58.1961 56.7235 59.1842C56.9075 61.7597 58.1032 62.2503 60.0349 62.8022C61.1385 63.0191 62.2248 63.3163 63.285 63.6914C64.1706 64.2027 65.1752 64.4719 66.1979 64.4719C67.2205 64.4719 68.2251 64.2027 69.1107 63.6914L69.0494 63.6301ZM54.8531 61.7291C54.5717 60.8789 54.1074 60.1006 53.4929 59.4491C52.8784 58.7975 52.1287 58.2885 51.2964 57.9577C50.6423 57.5081 49.8672 57.2675 49.0735 57.2675C48.2797 57.2675 47.5047 57.5081 46.8505 57.9577C45.6547 58.8469 45.2255 59.8281 46.5746 61.0239C47.9237 62.2197 48.8742 63.1395 50.1313 64.09C50.8365 64.6419 51.3577 66.0217 52.5535 65.2858C53.1701 64.8788 53.6937 64.3461 54.09 63.7226C54.4863 63.099 54.7464 62.3988 54.8531 61.6678" fill="#8F8FA3"/>
<path d="M257.555 86.7794C254.888 87.9752 252.22 89.1097 249.583 90.3668C246.946 91.6239 243.85 92.3598 244.892 96.8364L244.064 96.4991L240.998 89.9989C247.866 91.0414 260.591 84.7251 261.909 79.482C263.687 82.0269 265.313 83.9279 263.197 87.1473C260.131 91.7466 257.831 96.7137 254.642 102.478C259.15 100.362 262.798 98.6454 266.416 96.8977C268.164 96.0392 267.091 94.0462 268.133 92.2065L271.537 99.1666C268.133 97.3269 265.803 98.9826 263.381 100.117C258.5 102.484 253.471 104.532 248.326 106.249L258.26 87.3926L258.567 86.6261H257.739" fill="#8F8FA3"/>
<path d="M12.7539 128.908C12.7539 125.167 13.5511 122.776 17.1385 121.672C22.1453 119.863 27.013 117.691 31.7026 115.172C26.4595 114.927 21.615 109.653 15.6361 114.865C16.2493 112.198 16.7092 110.082 17.3838 107.139C18.5489 110.542 20.9712 110.91 23.5161 111.462C29.1754 112.611 34.7567 114.117 40.2265 115.969L20.0513 124.891C20.0513 125.137 20.0513 125.351 20.0513 125.566C24.3439 126.517 28.6365 127.559 32.9598 128.418C34.8301 128.755 35.7806 126.946 37.6203 125.535C36.9457 128.602 36.4245 130.901 35.7193 133.937C33.5117 128.663 28.8511 129.245 25.0185 128.387C21.1858 127.528 17.1998 124.738 12.9379 128.908" fill="#8F8FA3"/>
<path d="M233.027 248.856L225.3 254.834C225.607 251.431 223.399 248.426 220.915 248.426C219.536 248.426 214.783 252.842 214.783 254.037C214.998 257.103 216.653 258.361 221.283 258.054L214.323 263.481C214.017 254.129 209.847 245.973 208.467 236.56C215.059 240.24 221.222 243.643 227.324 247.108C229.01 248.058 230.635 249.101 232.751 248.058L233.027 248.856ZM212.116 243.428C211.87 245.329 212.974 246.924 213.219 248.672C213.557 251.002 214.415 250.419 215.795 249.407C219.168 246.893 219.198 246.924 215.488 244.962C214.498 244.197 213.343 243.672 212.116 243.428Z" fill="#8F8FA3"/>
<path d="M98.7303 274.519L89.3786 269.767C92.8433 268.448 94.4684 265.505 93.3646 263.052C91.2704 261.166 88.5774 260.08 85.7606 259.986C82.6944 261.641 82.4185 263.42 84.7794 267.498L77.0527 263.542C85.178 259.158 90.9117 252.136 98.7917 246.771C98.485 251.308 98.2398 255.264 97.9638 259.219C97.7185 262.684 97.6265 266.179 97.1053 269.613C96.8293 271.33 97.8412 272.465 98.7303 274.58V274.519ZM94.4377 252.351C93.1153 253.623 91.7231 254.821 90.2678 255.938C88.1522 257.379 88.5201 258.177 90.6664 259.188C94.0698 260.783 94.0085 260.875 94.2231 257.073C94.2231 255.754 94.2231 254.467 94.4377 252.412" fill="#8F8FA3"/>
<path d="M193.749 266.731C193.999 268.572 193.596 270.442 192.61 272.016C191.624 273.59 190.118 274.769 188.353 275.347C186.568 276.357 184.519 276.801 182.477 276.62C180.434 276.44 178.495 275.643 176.916 274.335C174.794 272.386 173.309 269.843 172.653 267.037C171.996 264.232 172.2 261.294 173.236 258.606C175.168 253.792 179.369 251.707 185.501 252.228C185.611 252.197 185.728 252.197 185.838 252.228C187.126 253.179 187.954 250.297 188.904 251.523C190.028 253.708 190.961 255.985 191.695 258.33C189.61 257.901 189.027 256.552 188.015 255.816C186.797 254.685 185.259 253.96 183.611 253.74C181.964 253.52 180.289 253.817 178.817 254.589C177.501 255.567 176.507 256.915 175.961 258.46C175.415 260.006 175.342 261.679 175.751 263.266C176.056 264.924 176.659 266.514 177.529 267.958C181.76 275.102 188.506 275.102 192.86 267.958L193.718 266.608" fill="#8F8FA3"/>
<path d="M173.941 31.5583C174.091 29.362 174.684 27.2188 175.685 25.2584C176.687 23.2979 178.075 21.5608 179.767 20.1522C181.054 19.0355 182.641 18.3212 184.331 18.0977C186.02 17.8743 187.738 18.1515 189.272 18.8951C190.802 19.497 192.114 20.549 193.034 21.9121C193.953 23.2753 194.438 24.8855 194.423 26.5298C194.548 28.7735 194.213 31.0191 193.438 33.1283C192.663 35.2376 191.464 37.1658 189.916 38.7944C188.613 40.2918 186.861 41.3278 184.922 41.7478C182.982 42.1678 180.959 41.9492 179.154 41.1246C177.368 40.2901 175.897 38.9041 174.959 37.1707C174.021 35.4374 173.664 33.4484 173.941 31.497V31.5583ZM190.928 28.0629C190.928 23.0344 189.456 20.1522 186.604 19.6617C183.017 19.0484 181.331 21.532 179.92 24.2302C178.169 27.4032 177.351 31.0064 177.559 34.6244C177.481 35.8174 177.804 37.0023 178.476 37.9911C179.148 38.9798 180.131 39.7158 181.269 40.0821C182.428 40.4308 183.672 40.3679 184.789 39.904C185.907 39.4402 186.83 38.604 187.401 37.5372C189.42 34.7552 190.659 31.4843 190.989 28.0629" fill="#8F8FA3"/>
<path d="M50.1933 90.7348C49.9901 89.8847 49.6126 89.0861 49.0848 88.3894C48.5571 87.6928 47.8905 87.1132 47.1272 86.6875C43.2332 84.2039 39.2472 81.8736 35.5678 79.0834C33.5135 77.5197 31.8885 78.8381 29.4355 79.3594C31.6621 75.2858 34.2153 71.3995 37.0702 67.7387C38.6646 65.991 40.4736 68.8118 42.344 69.9463C40.627 70.6515 39.2779 69.0571 37.8981 69.9463C34.8319 71.8473 34.832 74.4229 37.6835 76.2932C41.6694 78.8995 42.528 78.8688 43.3865 76.2932C43.9077 74.7908 42.528 73.9017 42.3747 72.2766C45.0489 73.3869 47.5563 74.8624 49.8254 76.6612C48.5069 77.4277 47.7404 76.4772 46.7592 76.6612C45.1648 76.6612 44.5516 78.1023 43.969 79.2981C43.3865 80.4938 44.7356 80.8925 45.4101 81.475C46.0178 81.9778 46.6876 82.4003 47.4031 82.7321C48.9055 83.4067 50.2546 85.7983 52.0023 84.2039C52.9516 83.3876 53.6023 82.2787 53.8521 81.052C54.1019 79.8252 53.9366 78.5502 53.3821 77.4277C53.1368 76.9371 52.9222 76.4466 52.6462 75.772C56.019 76.9371 57.3681 79.5433 55.7124 82.1189C54.0566 84.6945 51.941 87.8833 50.04 90.7654" fill="#8F8FA3"/>
<path d="M72.7599 253.516C77.0525 251.124 80.6093 249.223 84.074 247.2C86.4043 245.82 88.3359 244.134 84.9938 240.638C88.7345 241.589 90.0223 244.103 92.6592 245.237C84.7792 247.997 78.4936 252.596 71.5948 255.938C70.5523 256.429 69.5405 257.993 68.3754 256.95C67.2102 255.908 68.3754 254.804 68.6513 253.884C70.1435 248.488 71.6766 243.091 73.2505 237.695C74.2633 235.593 74.4706 233.193 73.8331 230.949L80.9465 236.56C78.1257 236.56 77.4818 238.461 76.8686 240.362C75.5501 244.502 74.293 248.672 72.7599 253.639" fill="#8F8FA3"/>
<path d="M255.194 139.149C254.918 136.635 254.704 134.458 254.428 132.097C262.645 135.623 271.322 136.482 280.337 139.486C273.652 142.553 267.643 145.404 261.633 148.286C259.885 149.145 257.708 149.574 257.065 152.609C256.178 149.78 255.713 146.836 255.685 143.871C258.414 145.373 262.4 144.944 263.442 143.196C263.896 140.931 263.48 138.577 262.277 136.604C259.947 135.163 257.402 135.96 255.194 139.149ZM265.496 137.187C265.496 142.859 265.496 142.89 269.85 140.682C270.801 140.192 271.966 139.977 272.641 138.904L265.496 137.187Z" fill="#8F8FA3"/>
<path d="M166.185 37.5679L156.986 36.0962C161.248 33.03 160.727 28.4921 161.279 24.5675C161.831 20.6428 164.805 16.6875 159.715 12.3029C163.595 12.8558 167.444 13.6131 171.244 14.5719C174.862 15.6757 175.996 19.5697 174.31 23.5556C174.025 24.3261 173.581 25.0283 173.008 25.6171C172.435 26.2059 171.745 26.6683 170.983 26.9744C170.22 27.2805 169.402 27.4237 168.581 27.3946C167.76 27.3656 166.954 27.165 166.215 26.8057C166.015 26.7147 165.849 26.5607 165.744 26.367C165.639 26.1733 165.6 25.9505 165.633 25.7326C170.447 25.2727 172.808 21.6546 170.876 17.5767C170.65 16.9433 170.234 16.3947 169.686 16.0053C169.137 15.6159 168.482 15.4045 167.81 15.3997C166.185 15.3997 166.307 16.9021 166.123 17.914C165.326 21.8999 164.652 25.8859 163.946 29.8719C163.415 31.1881 163.331 32.6426 163.708 34.0112C164.085 35.3798 164.901 36.5865 166.031 37.4452" fill="#8F8FA3"/>
<path d="M104.985 17.3314C110.964 24.0462 115.349 31.6196 121.573 37.7518L114.582 40.0821C115.257 37.016 113.816 33.0607 112.007 32.5394C109.713 32.7544 107.556 33.725 105.875 35.2989C104.985 37.7519 106.396 40.0821 110.106 41.4312L103.207 43.7002C105.292 34.9617 103.698 26.1925 105.016 17.2087L104.985 17.3314ZM106.212 24.7207C106.059 26.4991 105.967 28.1548 105.783 29.8106C105.599 31.4663 106.181 31.9262 107.898 31.5276C110.75 30.853 111.24 29.7799 109.033 27.6949C108.113 26.8057 107.684 25.426 106.212 24.6288" fill="#8F8FA3"/>
<path d="M94.6502 27.695C93.6077 27.0511 92.6572 26.0086 91.5841 25.8553C90.9089 25.8524 90.2412 25.9962 89.6271 26.2768C89.0129 26.5573 88.4671 26.968 88.0274 27.4803C86.8316 28.5841 88.0274 29.5346 88.6099 30.5465C90.3883 34.1645 92.412 37.6599 94.129 41.3393C94.486 42.5666 95.2767 43.6225 96.3539 44.3105C97.4312 44.9986 98.7216 45.272 99.9853 45.08C97.3366 47.1864 94.2921 48.7399 91.0322 49.6485C93.3318 47.3489 92.3506 45.3252 91.0322 43.2096C89.0392 39.5609 87.1689 35.8202 85.1759 32.1715C84.6546 31.2517 84.5933 29.4427 82.7536 30.1785C80.9139 30.9144 79.2582 31.405 79.6875 33.9192C79.6875 34.7164 80.3314 35.6056 79.5035 36.6787C78.2157 35.4216 78.1237 33.6126 77.3572 32.2635C76.5907 30.9144 77.2039 30.4545 78.3077 29.9026C82.3857 27.8176 86.3717 25.426 90.5723 23.7703C94.1903 22.2372 93.3625 26.3459 94.4969 27.9709" fill="#8F8FA3"/>
<path d="M107.499 252.198L117.832 254.651C114.092 255.478 113.785 257.717 113.264 259.955C112.283 264.094 111.424 268.295 110.198 272.373C109.523 274.642 110.198 275.439 112.344 275.899C113.9 276.314 115.542 276.277 117.079 275.794C118.615 275.311 119.982 274.401 121.021 273.17C120.469 277.555 118.292 279.302 114.889 278.382C111.485 277.463 107.07 276.42 102.379 275.316C106.426 273.998 106.518 270.901 107.162 268.08C107.806 265.259 108.481 262.868 109.124 260.262C109.768 257.655 111.301 254.559 106.855 252.872L107.622 252.259" fill="#8F8FA3"/>
<path d="M218.739 42.1978C219.659 39.6529 221.284 38.8557 222.265 37.5373C223.246 36.2188 223.706 36.924 224.503 37.5373C228.121 40.3888 231.985 42.995 235.357 46.1225C238.178 48.7594 234.346 49.7712 233.763 51.8255C232.506 50.783 233.487 50.1391 233.763 49.5259C234.315 47.2876 232.537 46.4598 231.249 45.6012C229.961 44.7427 229.072 46.1531 228.397 46.981C226.19 49.6792 224.105 52.5001 221.958 55.2289C219.812 57.9578 217.359 59.7668 219.444 63.6915C217.083 61.8825 214.722 60.1041 212.423 58.2951C212.309 58.1798 212.224 58.0388 212.176 57.8841C212.128 57.7294 212.118 57.5654 212.147 57.4059C212.174 57.2963 212.228 57.1952 212.304 57.1119C212.38 57.0286 212.476 56.9658 212.583 56.9291C212.69 56.8925 212.804 56.8833 212.915 56.9023C213.027 56.9213 213.131 56.968 213.22 57.038C215.335 58.2337 216.286 56.6087 217.359 55.3209C220.088 51.9175 222.848 48.4528 225.454 44.9574C226.128 44.0375 227.968 43.1177 226.19 41.6152C224.411 40.1128 223.491 39.0397 221.498 40.6341C220.651 41.2073 219.771 41.7295 218.862 42.1978" fill="#8F8FA3"/>
<path d="M261.266 130.963C259.728 131.204 258.155 130.91 256.809 130.128C255.463 129.346 254.428 128.125 253.876 126.67C253.065 125.113 252.762 123.342 253.01 121.604C253.257 119.866 254.043 118.249 255.256 116.981C257.771 114.838 260.882 113.516 264.171 113.193C267.46 112.869 270.768 113.56 273.653 115.172C274.742 115.977 275.634 117.019 276.261 118.219C276.888 119.42 277.233 120.748 277.271 122.101C277.455 123.941 274.91 125.75 277.271 127.559C276.964 127.835 276.658 128.234 276.32 128.326C274.257 128.921 272.121 129.23 269.974 129.245C271.2 128.172 272.488 127.191 273.622 126.026C274.503 125.303 275.145 124.33 275.462 123.236C275.78 122.141 275.758 120.976 275.401 119.894C274.946 118.916 274.242 118.075 273.36 117.456C272.477 116.837 271.446 116.461 270.372 116.368C266.681 115.767 262.898 116.565 259.763 118.606C254.49 121.672 254.459 126.701 259.763 129.981L261.327 130.963" fill="#8F8FA3"/>
<path d="M134.91 35.1763L125.711 37.1693C129.237 33.8272 126.907 30.3011 126.294 26.8977C125.85 24.1209 125.267 21.3681 124.546 18.6498C124.24 17.5153 124.853 15.2464 122.339 15.5837C120.407 15.9209 118.475 16.3195 118.659 19.0177C118.659 19.6616 118.659 20.4282 117.923 20.7348C117.923 20.7348 117.525 20.5508 117.494 20.4282C116.421 14.4799 116.421 14.4799 122.431 13.376C124.883 12.9161 127.306 12.4255 129.728 11.8736C134.082 10.8925 134.818 11.5364 134.756 16.8714C133.407 14.5105 131.905 13.1614 129.207 14.0506C127.827 14.5105 127.398 15.1237 127.704 16.4728C128.777 21.3173 129.912 26.1312 130.77 31.0063C131.23 33.3366 133.07 33.7352 134.971 35.0536" fill="#8F8FA3"/>
<path d="M47.3408 98.768C37.9278 99.044 29.4652 96.3458 20.6348 97.6949C21.6466 95.4566 22.6891 93.157 24.0075 90.1829C24.1657 91.2334 24.7078 92.1879 25.529 92.8619C26.3503 93.5358 27.3922 93.8813 28.4534 93.8316C32.5314 94.2915 36.64 94.6594 40.9019 94.7514C37.8365 91.2246 34.4491 87.9912 30.7837 85.0931C29.0053 83.8666 27.9322 85.3077 26.3684 86.1969C26.3684 83.5293 28.2081 82.0269 28.3921 79.5127C34.1564 86.6261 41.1166 91.7773 47.3408 98.768Z" fill="#8F8FA3"/>
<path d="M36.7948 142.062C27.903 145.128 18.9805 145.465 10.9473 149.359C11.1926 146.968 11.4685 144.515 11.8058 141.326C12.334 142.288 13.1993 143.021 14.2351 143.383C15.271 143.745 16.4043 143.711 17.4168 143.288L30.2946 140.437C25.9573 138.101 21.4711 136.052 16.8649 134.305C14.7186 133.569 13.7988 135.286 12.7563 137.003C11.9284 134.366 13.1549 132.25 12.7563 129.859C20.3296 134.673 28.5776 137.555 36.7948 142.123" fill="#8F8FA3"/>
<path d="M69.111 63.722C70.0308 62.0663 68.1298 62.1276 67.6699 61.2998C67.21 60.4719 65.4316 60.196 65.3703 58.2336C67.118 59.0308 68.6817 59.7667 70.2455 60.4413C71.0232 60.8073 71.9008 60.9036 72.7393 60.7147C73.5779 60.5259 74.3296 60.0628 74.8753 59.3988C75.4202 58.8854 75.7584 58.1904 75.8262 57.4448C75.8939 56.6993 75.6866 55.9547 75.2433 55.3515C74.8782 54.5219 74.2433 53.8401 73.4417 53.4171C72.6401 52.994 71.719 52.8545 70.828 53.0212C69.0497 53.3278 67.302 53.7877 65.5236 54.0024C63.7161 54.2336 61.8892 53.7562 60.4259 52.6701C58.9626 51.5841 57.9765 49.9738 57.6743 48.1767C57.3134 46.9163 57.4655 45.5644 58.0973 44.4157C58.7291 43.267 59.7894 42.4146 61.0471 42.0444C65.1557 40.3887 65.8302 40.6647 68.6511 45.1106C67.21 45.5092 66.3821 44.4054 65.401 43.9761C64.5665 43.4827 63.5935 43.2755 62.6304 43.3862C61.6672 43.4969 60.7667 43.9194 60.0659 44.5893C59.5811 45.0688 59.2934 45.7123 59.2594 46.3933C59.2253 47.0743 59.4474 47.7433 59.8819 48.2687C61.0471 50.231 62.7948 50.0164 64.6651 49.5565C68.5591 48.606 72.4224 47.8088 75.3966 51.7948C76.3766 52.8072 77.0338 54.088 77.2849 55.4745C77.536 56.861 77.3697 58.2909 76.807 59.5827C76.1349 60.8209 75.0966 61.8212 73.8343 62.4469C72.572 63.0726 71.1473 63.293 69.7549 63.0781C69.2643 63.0781 69.2337 63.3234 69.0497 63.5687L69.111 63.722Z" fill="#8F8FA3"/>
<path d="M206.198 26.4072C205.301 26.7831 204.494 27.3471 203.833 28.0611C203.172 28.7752 202.671 29.6227 202.365 30.5465C200.587 34.2872 198.563 37.9359 196.754 41.6766C196.172 42.903 194.639 44.3135 196.049 45.6012C196.735 46.276 197.585 46.7608 198.515 47.0081C199.445 47.2554 200.423 47.2566 201.354 47.0117C202.506 46.5876 203.632 46.0961 204.726 45.5399C203.469 49.4646 201.2 50.5071 197.736 48.79C194.945 47.4103 192.186 45.9385 188.844 44.1908C189.886 43.9974 190.861 43.537 191.672 42.8545C192.484 42.172 193.104 41.2908 193.474 40.2968C195.191 36.7401 197 33.2754 198.901 29.8106C200.066 27.6643 201.108 25.61 198.502 23.6783L199.115 23.0958L206.198 26.4072Z" fill="#8F8FA3"/>
<path d="M210.215 265.382L201.998 269.705C203.347 267.068 201.814 265.198 200.832 263.297C199.207 260.231 197.398 257.165 195.896 254.099C194.639 251.492 193.535 248.917 189.764 249.561L198.226 244.962C197.815 246.019 197.692 247.167 197.87 248.287C198.048 249.408 198.52 250.461 199.238 251.339C201.108 254.681 202.948 258.023 204.604 261.457C205.769 263.849 207.057 265.719 210.368 265.413" fill="#8F8FA3"/>
<path d="M43.2312 105.146C42.3727 107.69 41.5448 110.235 40.4717 113.516C40.099 112.363 39.4099 111.338 38.4829 110.557C37.5559 109.776 36.4283 109.272 35.2286 109.101C31.7025 107.966 28.1765 106.863 24.6504 105.667C22.3814 104.9 20.1125 103.888 18.5181 107.353C18.3035 107.077 18.1195 106.771 17.9355 106.495C18.7327 103.919 19.4993 101.344 20.5418 97.9402C20.8108 99.0104 21.3815 99.9809 22.1859 100.736C22.9903 101.492 23.9946 102.001 25.0797 102.202C28.943 103.367 32.8063 104.594 36.6083 105.912C38.9079 106.74 41.0849 107.537 43.2312 105.146Z" fill="#8F8FA3"/>
<path d="M274.327 109.193C269.268 106.955 253.385 112.964 252.098 117.563C251.086 114.497 250.289 112.106 249.246 109.009C253.171 111.247 256.114 108.764 259.303 108.028C261.817 107.445 264.178 106.28 266.692 105.667C267.91 105.538 269.048 105.001 269.922 104.144C270.796 103.287 271.354 102.16 271.506 100.945C272.395 103.49 273.254 106.065 274.327 109.193Z" fill="#8F8FA3"/>
<path d="M214.628 31.0064L221.282 35.5136C215.794 37.9972 207.392 51.5802 209.293 56.0261L201.781 51.0282C205.338 50.507 206.472 47.9621 207.914 45.6932C209.355 43.4242 211.409 40.4501 213.218 37.8745C214.628 35.8509 216.284 33.9192 213.77 31.313L214.628 31.0064Z" fill="#8F8FA3"/>
<path d="M86.9563 52.3773L80.5481 56.9459C80.0575 50.8136 70.4605 38.5491 65.5547 38.5491L73.588 32.846C73.0451 33.9381 72.8771 35.1785 73.1099 36.3756C73.3426 37.5727 73.9632 38.6599 74.8757 39.4689C77.206 42.7803 79.5976 46.0304 81.8052 49.4032C82.2323 50.4241 82.9824 51.2767 83.9405 51.8305C84.8986 52.3843 86.0118 52.6087 87.1096 52.4693" fill="#8F8FA3"/>
<path d="M191.665 97.9708C191.338 97.2969 191.062 96.6001 190.837 95.8858C190.654 95.4963 190.556 95.0726 190.547 94.6425C190.539 94.2123 190.622 93.7853 190.79 93.3891C190.957 92.9929 191.207 92.6364 191.521 92.3428C191.836 92.0493 192.208 91.8252 192.615 91.6852C193.78 91.1946 195.467 90.612 196.264 91.9305C197.061 93.2489 197.797 95.9778 195.773 97.0816C193.75 98.1854 194.363 100.148 194.24 101.773C194.24 102.662 194.24 102.969 195.191 102.969C196.663 102.969 196.387 104.072 196.356 104.9C196.111 126.21 196.816 147.52 195.896 168.799C194.976 190.078 185.839 206.512 171.765 221.23C164.499 228.772 155.392 233.923 147.482 240.638C147.161 240.949 146.732 241.123 146.286 241.123C145.839 241.123 145.41 240.949 145.09 240.638C131.844 231.808 118.997 222.609 109.063 209.946C101.178 199.553 96.682 186.986 96.1851 173.95C94.6827 151.107 95.8479 128.203 95.3879 105.33C95.3879 103.398 97.5036 102.723 97.0743 100.608C96.8597 99.5652 97.0743 98.768 96.0012 98.1547C95.4721 97.9467 95.0112 97.5957 94.6701 97.1409C94.329 96.6861 94.121 96.1454 94.0695 95.5792C94.0695 94.1074 93.7629 92.3291 95.2346 91.5932C95.8819 91.3753 96.5757 91.3343 97.2441 91.4744C97.9126 91.6146 98.5314 91.9308 99.0366 92.3904C99.6487 92.814 100.086 93.4458 100.266 94.168C100.447 94.8901 100.359 95.6533 100.018 96.3151C97.8408 99.6265 100.294 98.5227 101.704 98.1854C116.577 94.4972 131.852 92.6742 147.175 92.7584C160.687 93.122 174.131 94.8165 187.311 97.8175C188.729 98.177 190.215 98.177 191.634 97.8175L191.665 97.9708ZM145.949 107.506C131.63 107.506 117.28 107.506 103.023 107.506C100.876 107.506 99.9565 107.752 99.9565 110.358C100.14 129.399 99.9565 148.47 100.263 167.541C100.478 184.926 105.261 200.594 117.832 213.319C126.023 221.401 134.977 228.671 144.569 235.027C144.993 235.398 145.538 235.603 146.102 235.603C146.666 235.603 147.21 235.398 147.635 235.027C151.314 232.206 155.147 229.631 158.765 226.779C178.94 210.989 191.573 191.12 191.726 164.69C191.726 146.753 191.726 128.816 192.002 110.879C192.002 108.028 191.051 107.629 188.568 107.66C174.341 107.66 160.145 107.66 145.918 107.66L145.949 107.506ZM187.832 102.969C160.057 95.5642 130.828 95.5642 103.053 102.969H187.832Z" fill="#8F8FA3"/>
<path d="M189.916 83.5906C191.603 85.6142 194.24 85.369 196.417 86.2888C197.858 86.8714 199.299 87.27 198.808 89.3549C198.318 91.4399 196.417 91.164 194.975 90.6427C172.501 82.7321 149.321 82.1495 125.926 84.0505C116.288 85.0636 106.789 87.1198 97.5949 90.1828C96.951 90.3668 96.3378 90.6121 95.6632 90.7654C94.3448 91.1027 93.1183 91.0107 92.7504 89.4163C92.6302 89.1256 92.5784 88.8112 92.5989 88.4974C92.6195 88.1835 92.7118 87.8786 92.8688 87.606C93.0258 87.3335 93.2433 87.1006 93.5045 86.9254C93.7657 86.7502 94.0637 86.6373 94.3754 86.5954C96.0268 86.1319 97.6452 85.5583 99.2199 84.8784C97.7494 85.0758 96.2535 84.8278 94.9254 84.1664C93.5972 83.5051 92.4979 82.4608 91.7692 81.1684C91.4013 80.4018 90.5428 79.5126 91.7692 78.9914C92.9957 78.4701 93.6702 76.7531 95.2646 78.0102C98.5454 80.5858 100.937 79.7886 101.397 75.6187C101.581 73.9323 102.654 73.3804 103.451 72.3992C104.282 72.2411 105.142 72.3668 105.892 72.756C106.643 73.1453 107.241 73.7755 107.59 74.5455C107.938 75.2795 108.539 75.8635 109.282 76.1902C110.026 76.5169 110.862 76.5644 111.638 76.3239C113.294 75.8333 113.631 74.3309 113.845 72.8591C114.062 71.9876 114.145 71.0881 114.091 70.1916C113.753 68.076 114.888 67.6774 116.605 67.1254C118.935 66.4202 118.966 68.076 119.671 69.3024C119.947 69.9157 120.223 70.5289 120.53 71.1421C120.897 72.153 121.599 73.008 122.519 73.5656C123.439 74.1232 124.522 74.3499 125.589 74.2082C126.609 74.0077 127.519 73.4358 128.142 72.6032C128.765 71.7706 129.057 70.7365 128.961 69.701C128.961 67.432 130.096 67.3094 131.813 67.0335C134.143 66.6349 133.653 68.2906 133.99 69.4557C134.573 71.326 135.278 73.319 137.547 73.4417C138.632 73.4493 139.689 73.0945 140.55 72.4336C141.41 71.7727 142.026 70.8434 142.299 69.793C142.848 68.4309 143.098 66.9674 143.035 65.5004C143.035 63.9367 143.035 62.7409 145.273 62.7102C147.512 62.6796 147.849 63.5074 147.941 65.4084C148.058 66.9848 148.409 68.5348 148.983 70.0076C149.183 71.0187 149.719 71.9324 150.504 72.6003C151.289 73.2683 152.277 73.6512 153.307 73.687C155.637 73.687 156.189 71.4487 156.863 69.6703C157.262 68.6279 156.342 66.6042 158.826 67.1254C160.359 67.4934 162.106 67.1255 161.892 70.0076C161.787 71.0487 162.089 72.0901 162.735 72.9133C163.381 73.7365 164.32 74.2776 165.357 74.4229C168.208 74.9135 169.588 72.8591 170.6 70.5902C171.305 68.9345 171.397 66.6962 174.34 67.5241C175.751 67.9533 176.517 68.3519 176.425 69.9463C176.384 71.0705 176.497 72.1951 176.763 73.2884C176.828 74.0056 177.108 74.6865 177.566 75.2424C178.024 75.7983 178.639 76.2034 179.33 76.4052C180.021 76.607 180.757 76.5961 181.442 76.3737C182.127 76.1514 182.73 75.728 183.171 75.1587C186.237 72.0926 188.169 72.5832 189.303 76.6305C189.441 77.2351 189.73 77.7947 190.144 78.2564C190.558 78.7181 191.083 79.0666 191.669 79.2692C192.255 79.4717 192.883 79.5215 193.494 79.4139C194.105 79.3063 194.678 79.0448 195.159 78.6541C195.803 78.2555 196.141 77.4583 197.06 78.0409C197.98 78.6235 199.544 78.5315 199.82 79.6353C200.096 80.7391 198.992 81.6896 198.134 82.3948C196.95 83.2553 195.572 83.8093 194.122 84.0073C192.672 84.2052 191.195 84.041 189.824 83.5293C183.692 80.8311 183.692 80.8004 179.154 81.2297C179.154 81.2297 178.94 81.383 178.602 81.6896C182.588 81.8429 185.961 84.0505 189.855 83.5293L189.916 83.5906ZM135.431 78.6235C133.438 77.1211 131.782 74.7908 129.084 77.8569C128.342 78.7185 127.317 79.2874 126.193 79.4616C125.069 79.6358 123.92 79.4039 122.952 78.8074C118.813 75.7413 116.39 77.7649 113.753 81.2603C120.837 79.8819 128.009 79.0008 135.216 78.6235H135.431ZM150.7 78.6235C148.493 77.6423 147.082 75.0054 145.335 74.7908C143.587 74.5762 142.269 77.5197 139.969 78.1636V78.8381C143.509 78.5655 147.061 78.4939 150.608 78.6235H150.7ZM165.05 79.574L176.947 81.2297C172.071 77.8263 172.071 77.8263 166.828 79.1754L165.05 79.574ZM112.65 81.5363C108.326 81.291 103.942 78.1329 101.673 84.1119L112.65 81.5363ZM162.597 79.3287C159.991 75.9253 157.477 75.8333 154.472 78.9607L162.597 79.3287Z" fill="#8F8FA3"/>
<path d="M74.5059 143.319C74.6228 153.812 76.6273 164.198 80.4235 173.98C81.1901 176.127 82.3859 175.881 83.7043 175.299C86.5865 173.98 87.4143 175.299 88.1502 177.905C89.7352 184.011 92.4382 189.771 96.1222 194.892C97.2566 196.425 97.6859 197.743 95.8156 199.031C93.9452 200.319 94.2825 201.484 95.6623 203.078C98.0577 205.637 99.8769 208.679 100.997 212.001C101.243 212.798 101.979 213.534 100.813 214.3C98.4831 215.895 96.3675 217.765 93.9759 219.206C92.3165 220.205 90.3763 220.634 88.4504 220.43C86.5244 220.225 84.718 219.397 83.3057 218.072C78.1885 213.67 74.0163 208.278 71.0412 202.22C69.8454 200.073 71.6237 199.153 73.1261 198.05C73.6735 197.763 74.1374 197.339 74.4729 196.82C74.8084 196.301 75.0042 195.704 75.0412 195.087C75.0782 194.47 74.9552 193.854 74.6842 193.299C74.4131 192.744 74.0032 192.268 73.4941 191.917C72.2983 190.967 71.6544 192.255 70.9185 192.684C66.3806 195.29 66.258 195.413 63.6824 190.752C45.6535 158.098 46.8493 125.873 66.0127 94.0769C67.4844 91.6853 69.0788 91.5013 71.2251 92.9424C76.2843 96.2845 81.374 99.596 86.5558 102.785C88.0276 103.674 88.6408 104.532 87.9356 106.219C87.5063 107.261 87.4757 108.426 87.1384 109.5C86.3105 111.953 86.4638 113.884 89.438 114.62C91.431 115.141 91.4616 116.337 90.9097 118.146C89.4686 122.991 88.1502 127.866 87.0157 132.802C86.6171 134.611 85.9733 134.673 84.5935 133.998C83.2137 133.323 81.926 132.802 80.5768 132.22C75.579 130.043 75.579 130.073 74.8125 135.623C74.7145 136.18 74.6632 136.744 74.6592 137.309C74.6592 139.333 74.6592 141.357 74.6592 143.442L74.5059 143.319ZM86.9238 122.623C84.5322 125.474 82.0486 128.08 77.7253 126.425C77.0815 126.179 76.4069 126.946 76.6522 127.314C78.0933 129.491 80.7608 129.583 82.7845 130.656C83.3977 130.963 84.2562 132.066 85.0841 130.84C85.1533 130.748 85.2053 130.644 85.2374 130.533C85.544 127.835 87.2917 125.413 86.7398 122.561C87.0464 122.776 87.2304 122.561 87.353 122.377C87.366 122.286 87.366 122.193 87.353 122.101L86.8931 122.623H86.9238ZM53.3802 144.3C53.3802 145.864 53.5335 147.366 53.5948 149.022C54.2197 163.586 58.5007 177.757 66.0434 190.231C67.0858 191.948 67.8524 191.979 69.3854 190.998C72.8808 188.729 76.4376 186.552 80.0556 184.497C81.5274 183.669 81.8646 182.903 81.1287 181.431C79.8716 178.672 78.7985 175.851 77.7867 172.969C69.7534 149.819 68.9562 127.345 84.3482 106.525C85.5133 104.931 84.6548 104.471 83.4897 103.735C79.473 101.221 75.3951 98.7988 71.5624 96.0393C69.3854 94.5062 68.4963 94.8434 67.0858 97.0817C58.2687 111.309 53.5278 127.685 53.3802 144.423V144.3ZM89.7139 218.348C92.7801 218.348 94.7424 216.079 97.042 214.545C98.7897 213.35 99.0963 212.277 98.0232 210.437C94.5584 204.642 89.6526 199.859 86.4945 193.818C85.9426 192.745 85.2987 193.205 84.5935 193.818L74.4139 200.411C73.5554 200.963 73.0648 201.422 73.77 202.526C76.5921 207.795 80.3298 212.519 84.8081 216.477C86.1533 217.705 87.8933 218.412 89.7139 218.47V218.348ZM85.8506 180.205C85.544 183.945 82.7845 185.387 80.1782 186.797C79.2677 187.45 78.3036 188.024 77.2961 188.514C74.0153 189.679 75.8857 191.58 76.6215 193.175C77.7867 195.75 79.1358 194.002 80.2396 193.175C83.643 190.844 86.8624 187.778 90.8178 192.255L91.3083 191.856C89.2776 188.075 87.4556 184.185 85.8506 180.205ZM84.0722 111.309C81.3489 114.429 79.2653 118.055 77.94 121.979C77.7253 122.531 76.6215 123.757 78.3386 123.941C79.3811 123.941 80.9141 125.29 81.4047 123.297C82.3859 119.311 83.1831 115.295 84.0722 111.309Z" fill="#8F8FA3"/>
<path d="M215.12 130.227C212.054 131.545 209.233 132.679 206.504 133.967C205.063 134.642 204.389 134.458 203.96 132.833C202.672 127.712 201.415 122.592 199.912 117.502C199.33 115.57 200.403 114.957 201.66 114.436C204.205 113.608 204.726 112.32 203.99 109.653C202.396 103.888 202.61 103.827 207.823 100.454C211.901 97.8481 216.009 95.2726 220.087 92.605C220.439 92.2976 220.856 92.0746 221.307 91.9529C221.758 91.8311 222.23 91.814 222.689 91.9027C223.147 91.9914 223.579 92.1837 223.952 92.4648C224.325 92.746 224.629 93.1085 224.84 93.5249C236.733 111.592 241.879 133.271 239.373 154.756C237.962 168.118 233.526 180.984 226.404 192.377C224.932 194.799 223.736 195.259 221.621 193.481C220.989 193.011 220.323 192.591 219.628 192.224C219.321 192.04 219.014 191.641 218.769 191.703C215.703 192.347 216.071 195.627 214.292 197.283C213.342 198.142 213.679 198.969 214.844 199.491C217.91 200.84 217.543 202.741 216.071 205.163C209.939 215.404 201.66 218.807 191.358 215.097C187.556 213.748 186.973 211.265 189.855 208.291C191.572 206.512 193.32 204.764 195.129 203.078C196.938 201.392 196.662 200.472 195.129 199.245C193.596 198.019 193.688 196.425 194.914 194.738C198.774 189.312 201.573 183.206 203.162 176.74C203.714 174.624 204.573 174.164 206.412 175.084C209.172 176.433 210.184 175.084 211.042 172.539C215.274 160.275 218.002 147.612 216.101 134.427C216.072 133.862 216.011 133.299 215.917 132.741C215.734 131.974 215.519 131.208 215.212 130.135L215.12 130.227ZM207.394 111.523C207.394 111.155 207.394 110.511 206.872 110.695C206.351 110.879 206.627 111.492 207.118 111.799C207.854 115.417 208.712 119.035 209.264 122.684C209.663 125.045 211.104 124.094 212.33 123.972C214.292 123.757 213.219 122.623 212.882 121.825C211.658 118.108 209.812 114.624 207.424 111.523H207.394ZM199.299 193.726C200.42 192.908 201.806 192.539 203.185 192.692C204.564 192.845 205.836 193.51 206.75 194.554C207.179 194.891 207.762 195.075 208.16 195.443C210.674 197.682 212.422 197.068 213.679 194.094C213.906 193.59 214.194 193.117 214.538 192.684C216.101 190.63 215.366 189.618 213.311 188.269C209.939 186.214 205.37 185.202 205.002 179.959C203.211 184.527 201.164 188.991 198.87 193.328C198.87 193.573 198.594 194.002 198.655 194.064C198.716 194.125 199.176 194.064 199.299 193.726ZM237.81 144.423C237.677 127.462 232.836 110.871 223.828 96.4991C222.663 94.598 221.743 94.0768 219.72 95.5179C215.856 98.2161 211.87 100.792 207.792 103.153C205.738 104.348 205.953 105.176 207.21 106.893C214.173 116.246 218.178 127.47 218.708 139.118C219.128 153.234 216.24 167.251 210.276 180.051C209.172 182.658 209.571 183.669 211.962 184.865C215.064 186.443 218.047 188.247 220.885 190.262C223.031 191.825 223.951 191.549 225.423 189.219C233.428 175.601 237.661 160.097 237.687 144.3L237.81 144.423ZM199.299 214.453C202.524 214.009 205.587 212.767 208.211 210.839C210.834 208.912 212.935 206.36 214.323 203.415C214.783 202.066 213.955 201.852 213.219 201.392C210.46 199.705 207.639 198.08 204.941 196.302C203.684 195.474 203.07 195.689 202.365 196.946C200.301 200.288 197.941 203.439 195.313 206.359C193.688 208.29 189.733 210.008 190.683 211.909C191.94 214.361 196.018 213.871 198.962 214.453H199.299ZM205.983 131.453C208.313 130.472 210.49 129.583 212.606 128.602C213.342 128.295 214.66 128.326 214.323 127.068C213.986 125.811 212.79 126.302 212.023 126.486C210.702 126.923 209.266 126.851 207.995 126.284C206.725 125.717 205.712 124.695 205.155 123.42C204.849 122.929 204.634 122.224 203.561 122.316L205.983 131.514V131.453ZM205.493 119.71C205.493 118.299 205.922 116.644 204.542 115.846C204.329 115.835 204.117 115.877 203.925 115.968C203.732 116.059 203.565 116.196 203.438 116.368C202.978 118.085 204.695 118.575 205.493 119.71Z" fill="#8F8FA3"/>
<path d="M174.065 65.8377C176.763 65.6537 178.449 64.8565 178.603 62.4956C178.636 61.8231 178.446 61.1585 178.064 60.6044C177.681 60.0502 177.127 59.6374 176.487 59.4295C175.853 59.1653 175.149 59.1214 174.488 59.3049C173.826 59.4883 173.245 59.8885 172.838 60.4413C171.397 62.1583 172.01 63.7527 173.635 65.2858C171.643 65.9603 170.14 65.0098 168.576 64.7645C168.147 64.7549 167.726 64.638 167.354 64.4243C166.981 64.2107 166.667 63.9072 166.442 63.5415C166.216 63.1758 166.086 62.7594 166.062 62.3304C166.039 61.9014 166.123 61.4733 166.307 61.0852C166.859 59.1228 166.645 56.302 169.833 56.8846C171.888 57.2525 172.532 56.8846 172.9 54.7996C173.268 52.7146 175.169 52.4693 177.192 53.0212C179.216 53.5731 181.27 53.7264 180.688 56.4553C180.289 58.3256 180.412 59.1535 182.619 59.5214C185.685 60.196 184.428 62.7715 184.152 64.7645C184.162 65.1936 184.065 65.6184 183.871 66.0012C183.677 66.3839 183.391 66.7128 183.039 66.9585C182.687 67.2042 182.28 67.3592 181.854 67.4098C181.427 67.4603 180.995 67.4047 180.596 67.2481C178.603 66.8495 176.64 66.3589 174.065 65.7764" fill="#8F8FA3"/>
<path d="M145.887 61.5758C148.432 59.7974 149.72 57.9271 147.481 55.4435C147.218 55.1058 146.88 54.8326 146.495 54.6447C146.11 54.4569 145.687 54.3592 145.258 54.3592C144.83 54.3592 144.407 54.4569 144.022 54.6447C143.637 54.8326 143.299 55.1058 143.035 55.4435C141.073 57.7124 142.3 59.4908 144.844 61.2998H140.399C136.627 61.2998 134.266 57.4978 136.658 54.8609C138.888 52.9555 140.94 50.8517 142.79 48.5754C144.415 46.1838 148.922 48.3914 149.137 51.6415C149.137 53.2052 149.873 53.4505 151.222 53.4198C155.055 53.4198 154.288 56.21 154.288 58.4483C154.288 60.6866 153.031 61.5144 150.885 61.5144C149.352 61.5144 147.819 61.5144 145.764 61.5144" fill="#8F8FA3"/>
<path d="M117.311 65.4697C118.967 63.5381 119.672 61.4838 117.311 59.8281C116.966 59.5815 116.574 59.409 116.16 59.3216C115.745 59.2342 115.317 59.2337 114.902 59.3201C114.487 59.4066 114.094 59.5781 113.749 59.8238C113.404 60.0696 113.113 60.3842 112.896 60.7479C111.485 63.1395 112.712 64.7646 115.165 65.991C113.49 66.9141 111.618 67.419 109.707 67.4627C106.978 67.8307 106.947 65.3778 106.487 63.5994C106.028 61.821 106.089 59.9507 108.358 59.6441C110.627 59.3375 110.657 58.387 110.289 56.5779C109.646 53.5118 112.006 53.5118 113.969 52.9599C115.931 52.408 117.618 52.5306 118.047 55.0142C118.323 56.7619 118.936 57.4058 120.929 56.8846C123.995 56.1487 123.995 58.6016 124.547 60.5946C125.099 62.5876 124.823 64.3353 122.462 64.7645C120.828 65.3708 119.075 65.5911 117.342 65.4084" fill="#8F8FA3"/>
<path d="M205.429 65.4391L206.319 65.8684L207.545 66.6962C206.385 70.4965 204.5 74.0364 201.995 77.1211C201.847 77.3319 201.657 77.5104 201.437 77.6454C201.217 77.7804 200.972 77.8693 200.717 77.9066C200.461 77.9439 200.201 77.9288 199.952 77.8623C199.702 77.7958 199.469 77.6792 199.266 77.5197C197.372 76.5203 195.567 75.3612 193.87 74.0549C191.785 72.3379 193.379 70.6209 194.299 68.9958C195.219 67.3708 196.476 66.2056 198.377 67.4628C200.278 68.7199 200.861 68.4133 201.719 66.6349C201.859 66.2909 202.073 65.9816 202.345 65.729C202.618 65.4763 202.942 65.2863 203.296 65.1723C203.649 65.0584 204.024 65.0232 204.392 65.0693C204.761 65.1154 205.115 65.2416 205.429 65.4391ZM199.604 76.7531C200.387 75.7185 201.085 74.6212 201.689 73.4724C201.995 72.7365 203.528 71.9087 202.21 71.0501C200.892 70.1916 200.064 71.0501 199.144 71.8167C198.701 72.2495 198.399 72.8063 198.279 73.4138C198.158 74.0213 198.225 74.651 198.469 75.2201C198.769 75.7693 199.129 76.2835 199.542 76.7531" fill="#8F8FA3"/>
<path d="M92.1372 76.4466C90.6347 78.2863 89.6229 78.3782 88.3351 76.4466C86.6181 73.8097 85.269 71.0195 83.552 68.3213C83.425 68.1736 83.334 67.9984 83.2863 67.8095C83.2386 67.6207 83.2355 67.4233 83.2771 67.233C83.3187 67.0428 83.404 66.8647 83.5262 66.713C83.6484 66.5614 83.8042 66.4401 83.9812 66.359C84.6251 65.9297 85.8209 65.899 85.5143 64.6113C87.1087 65.3778 89.1937 65.3165 89.8989 67.5241C90.3895 68.9652 91.34 68.076 92.0452 67.5241C94.8967 65.7151 95.9085 67.7694 97.1963 69.7317C97.5324 70.1066 97.7711 70.5585 97.8912 71.0474C98.0113 71.5364 98.0091 72.0474 97.8848 72.5353C97.7606 73.0233 97.5181 73.4731 97.1787 73.8451C96.8394 74.2171 96.4137 74.4998 95.9392 74.6682C94.6821 75.2814 93.8235 76.9371 92.0145 76.3852C93.3636 72.0926 92.1985 70.4982 87.9365 71.1115C89.439 72.8592 89.4083 75.6187 92.1372 76.2933" fill="#8F8FA3"/>
<path d="M145.857 91.3479C142.024 91.3479 139.51 89.9375 139.51 87.7299C139.51 85.5223 141.901 84.0812 145.887 84.2652C148.402 84.2652 151.406 84.2652 151.805 87.7912C152.081 89.9375 149.536 91.3173 145.857 91.3479Z" fill="#8F8FA3"/>
<path d="M173.33 93.433C171.412 93.505 169.515 93.0147 167.872 92.0225C167.329 91.731 166.886 91.2825 166.602 90.7355C166.317 90.1885 166.204 89.5685 166.278 88.9564C166.36 88.3347 166.645 87.7575 167.088 87.314C167.532 86.8706 168.109 86.5857 168.731 86.5035C170.477 86.0277 172.319 86.0277 174.066 86.5035C176.243 87.1167 178.818 87.8526 178.45 90.6734C178.082 93.4943 175.384 93.4023 173.33 93.4023" fill="#8F8FA3"/>
<path d="M117.125 93.433C115.132 93.2797 112.74 93.433 112.372 90.7961C112.004 88.1592 114.242 87.2394 116.297 86.6261C117.917 86.1413 119.627 86.0364 121.295 86.3195C122.828 86.5648 124.207 87.1474 124.361 88.8338C124.514 90.5201 123.502 91.5626 122.214 92.2985C120.624 93.1747 118.813 93.5689 117.002 93.433" fill="#8F8FA3"/>
<path d="M103.575 72.4606C102.814 72.3905 102.063 72.2362 101.336 72.0006C99.3128 71.1115 98.2704 69.6091 99.4968 67.4934C99.6857 67.0913 99.9597 66.735 100.3 66.4493C100.64 66.1635 101.038 65.9551 101.467 65.8385C101.896 65.7218 102.345 65.6997 102.783 65.7737C103.221 65.8477 103.637 66.016 104.004 66.267C104.428 66.4913 104.793 66.812 105.07 67.2031C105.348 67.5942 105.529 68.0449 105.601 68.519C105.673 68.9931 105.632 69.4774 105.482 69.933C105.333 70.3885 105.079 70.8027 104.74 71.1421C104.372 71.6634 103.483 71.694 103.483 72.5219L103.575 72.4606Z" fill="#8F8FA3"/>
<path d="M134.054 62.7715C134.07 63.251 133.974 63.7276 133.773 64.1631C133.572 64.5987 133.271 64.9809 132.895 65.2791C132.52 65.5774 132.079 65.7833 131.609 65.8803C131.139 65.9773 130.653 65.9627 130.19 65.8377C129.795 65.8161 129.409 65.7127 129.057 65.534C128.704 65.3552 128.392 65.1051 128.141 64.7995C127.891 64.4938 127.706 64.1394 127.6 63.7586C127.493 63.3778 127.467 62.979 127.523 62.5876C127.515 62.134 127.609 61.6844 127.796 61.2712C127.983 60.858 128.26 60.4916 128.606 60.1983C128.952 59.905 129.359 59.6921 129.797 59.5751C130.236 59.4581 130.695 59.4397 131.141 59.5215C131.558 59.5402 131.966 59.6438 132.341 59.8259C132.717 60.0079 133.051 60.2647 133.324 60.5804C133.596 60.8961 133.802 61.2642 133.927 61.662C134.053 62.0599 134.096 62.4792 134.054 62.8942" fill="#8F8FA3"/>
<path d="M163.119 62.7716C162.782 64.7952 161.77 66.1443 159.838 66.1443C158.976 66.1443 158.149 65.8019 157.54 65.1924C156.93 64.5829 156.588 63.7562 156.588 62.8942C156.588 62.0323 156.93 61.2056 157.54 60.5961C158.149 59.9866 158.976 59.6442 159.838 59.6442C161.831 59.6442 162.659 61.1159 163.057 62.7103" fill="#8F8FA3"/>
<path d="M191.756 68.26C191.756 70.4676 190.744 71.6633 188.69 71.7553C188.26 71.8273 187.82 71.7999 187.402 71.6751C186.984 71.5503 186.601 71.3315 186.281 71.0354C185.962 70.7393 185.714 70.3739 185.557 69.9671C185.401 69.5604 185.34 69.1233 185.379 68.6892C185.346 68.2745 185.396 67.8575 185.525 67.462C185.654 67.0665 185.86 66.7003 186.13 66.3843C186.676 65.746 187.454 65.3509 188.291 65.2858C189.129 65.2208 189.958 65.4911 190.596 66.0374C191.235 66.5836 191.63 67.3611 191.695 68.1986" fill="#8F8FA3"/>
<path d="M155.084 88.0059C155.522 87.4074 156.104 86.9282 156.775 86.6119C157.446 86.2956 158.185 86.1523 158.926 86.195C159.667 86.2376 160.385 86.4649 161.015 86.8562C161.645 87.2475 162.168 87.7903 162.535 88.4351C160.02 91.1027 157.568 90.98 155.084 88.0059Z" fill="#8F8FA3"/>
<path d="M135.737 87.9446C132.15 91.2866 132.15 91.2866 128.348 88.4045C128.704 87.7576 129.218 87.2112 129.842 86.8159C130.465 86.4206 131.179 86.1894 131.916 86.1435C132.653 86.0976 133.39 86.2387 134.058 86.5535C134.726 86.8684 135.303 87.3468 135.737 87.9446Z" fill="#8F8FA3"/>
<path d="M102.656 93.2183C104.465 90.3361 106.673 89.3857 109.555 91.7773C106.826 95.5486 106.796 95.5485 102.656 93.2183Z" fill="#8F8FA3"/>
<path d="M181.576 91.7466C184.397 89.447 186.574 90.2442 188.322 93.1263C184.612 95.6099 184.366 95.5793 181.576 91.7466Z" fill="#8F8FA3"/>
<path d="M199.299 193.726C199.299 194.064 198.992 194.309 198.655 194.064C198.317 193.818 198.655 193.573 198.869 193.328L199.299 193.726Z" fill="#8F8FA3"/>
<path d="M141.35 231.011C136.628 227.301 131.998 223.652 127.307 220.034C126.417 219.329 126.632 218.409 126.632 217.55C126.632 182.085 126.632 146.59 126.632 111.063C126.632 109.285 127.092 108.733 128.87 108.794C132.138 108.994 135.415 108.994 138.682 108.794C141.411 108.58 141.963 109.53 141.963 112.136C141.963 141.326 141.963 170.393 141.963 199.705C141.963 208.904 141.963 218.102 141.963 227.301C142.193 228.518 142.021 229.777 141.472 230.888" fill="#8F8FA3"/>
<path d="M150.885 230.275V226.227C150.885 188.228 150.885 150.228 150.885 112.228C150.885 109.346 151.621 108.488 154.38 108.794C156.858 109.04 159.353 109.04 161.831 108.794C164.897 108.457 165.97 109.285 165.939 112.719C165.756 131.637 165.939 150.586 165.939 169.534C165.939 184.651 165.939 199.767 165.939 214.883C166.038 216.029 165.821 217.18 165.314 218.212C164.806 219.244 164.025 220.118 163.057 220.739C159.163 223.59 155.453 226.718 150.977 230.275" fill="#8F8FA3"/>
<path d="M118.506 211.663C113.353 206.029 109.093 199.638 105.874 192.715C105.206 191.156 104.882 189.473 104.923 187.778C104.923 162.39 104.923 137.013 104.923 111.646C104.923 109.591 105.199 108.58 107.591 108.794C110.294 109.024 113.013 109.024 115.716 108.794C118.476 108.518 118.414 110.021 118.414 112.014C118.414 135.93 118.414 159.835 118.414 183.731V211.663" fill="#8F8FA3"/>
<path d="M175.261 207.769V203.63C175.261 173.183 175.261 142.706 175.261 112.259C175.261 109.438 175.905 108.488 178.757 108.794C181.608 109.101 185.287 107.936 186.912 109.346C188.537 110.757 187.495 114.865 187.495 117.778C187.495 138.291 187.495 158.834 187.495 179.377C187.549 183.305 186.711 187.195 185.042 190.752C182.369 196.749 179.081 202.452 175.23 207.769" fill="#8F8FA3"/>
<path d="M67.8842 149.911V153.499C64.3295 152.394 60.5235 152.394 56.9688 153.499V150.432C58.5631 150.8 60.4028 151.812 61.4453 150.248C61.8243 149.687 62.0164 149.02 61.9944 148.343C61.9724 147.666 61.7373 147.013 61.3227 146.477C60.9887 146.223 60.6018 146.048 60.1907 145.964C59.7797 145.881 59.355 145.891 58.9484 145.994C58.5418 146.097 58.1637 146.291 57.8422 146.56C57.5207 146.829 57.264 147.168 57.0914 147.55V143.871C60.7235 144.589 64.4781 144.378 68.0069 143.258V146.63C66.2285 146.385 64.1742 145.036 62.9171 146.906C62.3345 147.734 62.0892 149.973 63.2237 150.616C63.9628 151.107 64.8577 151.307 65.7354 151.177C66.6132 151.047 67.4115 150.596 67.9762 149.911" fill="#8F8FA3"/>
<path d="M61.322 172.938C59.4516 166.806 59.4516 166.346 61.5059 165.303C60.954 166.714 60.0955 168.369 61.5059 169.167C61.8081 169.372 62.1588 169.494 62.523 169.521C62.8872 169.548 63.2522 169.479 63.5813 169.321C63.9104 169.162 64.1921 168.92 64.3983 168.619C64.6045 168.317 64.7278 167.967 64.7561 167.603C64.7561 166.99 65.3386 167.266 65.7372 167.603C66.0392 167.846 66.3899 168.02 66.7655 168.116C67.1411 168.211 67.5328 168.224 67.9139 168.154C68.295 168.084 68.6566 167.933 68.9741 167.711C69.2916 167.489 69.5575 167.201 69.7539 166.867C70.4897 165.273 68.742 164.23 67.3316 163.372C70.0298 163.096 70.0298 163.096 71.8082 169.504C68.0222 169.411 64.3195 170.623 61.322 172.938Z" fill="#8F8FA3"/>
<path d="M64.389 132.526C62.1201 132.128 59.8818 130.993 57.7661 133.385C57.4595 130.993 57.4289 129.859 60.4643 130.963C63.4098 131.643 66.4253 131.972 69.4481 131.944L56.877 141.142C56.877 135.562 62.304 135.899 64.389 132.465" fill="#8F8FA3"/>
<path d="M73.5866 172.877C74.4451 174.655 75.0584 175.943 75.7329 177.292C72.2068 176.771 69.8459 179.193 67.0557 180.358C66.4732 180.603 66.4732 181.155 66.6878 181.799C67.1477 183.087 68.2822 182.811 69.2633 182.995C66.9024 184.651 66.9024 184.651 65.7986 182.443C64.9708 180.849 64.2042 179.377 63.3764 177.629C62.8551 176.648 62.9164 175.943 64.2962 175.33C64.1429 179.898 66.4732 178.672 68.7421 177.292C70.5205 176.219 73.004 176.219 73.5866 172.877Z" fill="#8F8FA3"/>
<path d="M80.0876 104.624C79.1677 106.065 79.4437 107.69 76.4389 106.495C73.4341 105.299 73.9246 108.764 73.7407 111.033L67.4551 103.183L80.2102 104.624" fill="#8F8FA3"/>
<path d="M71.7174 114.405C72.2321 114.856 72.6278 115.427 72.8697 116.068C73.1115 116.708 73.192 117.398 73.1042 118.077C73.0163 118.755 72.7627 119.402 72.3658 119.959C71.9689 120.517 71.4409 120.968 70.8283 121.274C69.6119 121.878 68.2293 122.061 66.8975 121.795C65.5657 121.528 64.36 120.827 63.4695 119.802C63.0005 119.457 62.6102 119.016 62.3243 118.509C62.0385 118.002 61.8636 117.44 61.8115 116.86C61.7593 116.28 61.8309 115.696 62.0216 115.146C62.2123 114.596 62.5177 114.093 62.9176 113.67L63.2856 114.099C63.0569 114.486 62.9103 114.915 62.8546 115.361C62.7989 115.807 62.8355 116.26 62.962 116.691C63.0885 117.122 63.3022 117.523 63.59 117.868C63.8777 118.213 64.2333 118.496 64.6347 118.698C65.4361 119.304 66.387 119.681 67.386 119.789C68.385 119.897 69.3946 119.732 70.307 119.311C72.6066 118.238 71.9321 116.245 71.8094 114.405H71.7174Z" fill="#8F8FA3"/>
<path d="M70.522 125.045C70.2767 126.057 70.0314 127.13 69.7248 128.356C66.3775 126.75 62.6633 126.062 58.9626 126.363C58.86 125.303 59.0733 124.236 59.5759 123.297C63.0312 124.747 66.7925 125.316 70.522 124.953" fill="#8F8FA3"/>
<path d="M58.7773 161.256C60.4637 160.152 64.4497 161.256 62.794 157.055C63.0212 157.227 63.2683 157.371 63.5299 157.485C64.6643 157.822 64.6337 158.772 64.5723 159.631C64.5285 160.196 64.3057 160.733 63.9363 161.163C63.5669 161.593 63.0701 161.894 62.518 162.022C61.8887 162.279 61.1972 162.344 60.5313 162.207C59.8654 162.071 59.255 161.74 58.7773 161.256Z" fill="#8F8FA3"/>
<path d="M62.8555 139.425C63.7867 139.263 64.7313 139.191 65.6763 139.21C66.8108 139.21 67.2707 138.137 68.2519 138.076C68.3975 139.22 68.2057 140.382 67.7 141.418C66.4428 139.67 64.6338 139.977 62.8555 139.425Z" fill="#8F8FA3"/>
<path d="M62.918 113.639C63.7152 111.646 64.911 110.573 67.1186 112.167L63.2859 114.068L62.918 113.639Z" fill="#8F8FA3"/>
<path d="M71.8088 114.375L71.4102 114.037H71.8088V114.467V114.375Z" fill="#8F8FA3"/>
<path d="M82.0506 209.118C79.4444 208.045 79.2298 207.463 80.3949 205.562C80.8242 204.918 81.8053 204.029 81.0081 203.231C80.6706 203.043 80.2907 202.945 79.9043 202.945C79.518 202.945 79.1381 203.043 78.8005 203.231C77.0528 204.856 76.5009 203.569 75.7344 201.974C77.9727 202.22 80.4562 203.262 81.8667 201.514C83.149 199.787 83.8857 197.715 83.9823 195.566C88.5508 197.62 83.9823 199.644 83.9823 202.281C88.3975 199.583 89.9613 203.109 91.9849 205.776L91.4637 206.298C90.4322 205.155 89.2809 204.127 88.0296 203.231C84.2276 201.76 81.8973 204.182 81.6827 209.364L82.0506 209.118Z" fill="#8F8FA3"/>
<path d="M92.1985 205.684L94.6514 208.75C91.1867 210.559 87.7526 212.031 86.1582 215.895C85.1629 215.08 84.3924 214.025 83.9199 212.828C83.9199 212.675 84.1959 212.522 84.3185 212.338C86.0049 212.982 86.9554 211.755 87.3847 210.651C87.8139 209.548 85.8516 209.67 85.361 208.72C85.6495 208.254 86.029 207.851 86.4768 207.535C86.9246 207.218 87.4315 206.996 87.9672 206.88C87.9672 208.015 87.4153 209.732 89.071 209.456C90.2055 209.272 92.1372 208.658 91.6773 206.389L92.1985 205.868" fill="#8F8FA3"/>
<path d="M83.2766 211.878C82.4181 211.173 81.3756 210.529 82.0502 209.118H81.8969C84.2578 208.474 82.878 210.866 83.7979 211.387L83.2766 211.786" fill="#8F8FA3"/>
<path d="M83.9212 212.614L83.2773 211.878L83.7986 211.479C83.9553 211.707 84.1296 211.922 84.3198 212.123C84.3198 212.307 84.0439 212.46 83.9212 212.614Z" fill="#8F8FA3"/>
<path d="M234.1 149.758C233.824 156.718 233.824 156.718 231.034 156.381C232.383 155.4 233.609 154.204 232.413 152.824C232.002 152.453 231.485 152.221 230.935 152.16C230.384 152.1 229.829 152.214 229.347 152.487C227.906 153.407 229.347 154.357 229.746 155.338C228.656 155.604 227.511 155.529 226.465 155.124C226.894 154.112 228.673 153.284 227.232 152.058C226.728 151.686 226.131 151.464 225.508 151.415C224.885 151.366 224.26 151.493 223.705 151.782C222.571 152.487 222.939 153.959 223.705 154.848C225.239 156.657 225.331 157.761 222.816 158.65C222.569 158.734 222.347 158.878 222.17 159.07C221.993 159.261 221.866 159.494 221.802 159.747C221.738 160 221.739 160.265 221.803 160.518C221.868 160.771 221.995 161.003 222.172 161.195C222.315 161.444 222.518 161.653 222.762 161.804C223.007 161.955 223.285 162.042 223.572 162.057C223.858 162.072 224.144 162.015 224.403 161.891C224.663 161.767 224.886 161.581 225.055 161.348C225.852 160.551 226.496 159.631 227.354 158.895C227.96 158.375 228.732 158.089 229.531 158.089C230.33 158.089 231.102 158.375 231.708 158.895C231.997 159.074 232.247 159.307 232.445 159.583C232.643 159.859 232.784 160.171 232.861 160.501C232.938 160.832 232.949 161.174 232.893 161.509C232.837 161.844 232.716 162.164 232.536 162.452C231.831 164.046 231.003 165.15 229.102 164.046C229.102 163.126 230.083 163.31 230.604 163.004C231.126 162.697 232.076 161.839 231.831 160.827C231.765 160.612 231.654 160.413 231.506 160.244C231.358 160.075 231.176 159.939 230.972 159.846C229.93 159.386 229.347 160.121 228.765 160.827C228.182 161.532 227.324 162.942 226.066 163.341C225.599 163.557 225.091 163.671 224.576 163.677C224.061 163.683 223.551 163.579 223.079 163.374C222.607 163.168 222.184 162.865 221.837 162.484C221.491 162.103 221.229 161.653 221.069 161.164C220.271 158.956 221.314 157.27 223.92 156.841C220.547 154.572 222.97 151.444 222.51 148.777C221.682 143.994 227.17 145.956 228.458 142.89C226.557 142.736 224.963 141.817 223.215 143.319C222.876 142.179 222.876 140.964 223.215 139.824C227.17 140.59 231.034 142.001 235.081 140.345C235.081 141.633 234.866 142.951 234.682 144.3C234.161 148.01 232.413 148.838 229.133 146.845C226.956 145.557 225.484 147.336 223.797 148.102C223.666 148.208 223.57 148.352 223.523 148.514C223.475 148.676 223.478 148.848 223.532 149.008C223.585 149.169 223.686 149.308 223.821 149.41C223.957 149.511 224.119 149.568 224.288 149.574C227.552 150.448 230.989 150.448 234.253 149.574L234.1 149.758ZM231.493 142.92C230.236 142.614 229.225 142.736 229.255 144.147C229.251 144.401 229.303 144.652 229.408 144.883C229.513 145.115 229.668 145.32 229.861 145.484C230.055 145.648 230.282 145.767 230.527 145.833C230.772 145.899 231.029 145.909 231.279 145.864C232.444 145.864 233.701 145.435 233.701 144.086C233.701 142.736 232.168 143.258 231.493 142.92Z" fill="#8F8FA3"/>
<path d="M226.282 109.684C227.815 113.179 226.834 115.203 223.431 114.835C220.763 114.559 220.64 116.889 219.353 117.901C218.954 118.238 219.138 119.434 218.126 118.882C217.943 118.799 217.781 118.676 217.653 118.522C217.524 118.367 217.433 118.185 217.386 117.99C217.338 117.795 217.336 117.591 217.38 117.395C217.423 117.199 217.511 117.015 217.636 116.858C218.372 115.754 219.322 114.743 220.15 113.792C220.549 113.271 221.07 112.658 220.426 112.014C219.782 111.37 219.414 112.014 218.954 112.32C217.728 112.75 216.563 113.271 216.287 114.896C215.409 113.963 214.832 112.788 214.631 111.523C218.44 110.834 221.997 109.141 224.933 106.617C225.761 107.139 225.976 108.488 226.405 109.684C225.301 109.99 224.044 109.469 223.093 110.358C222.143 111.247 221.07 110.695 221.806 112.136C222.541 113.578 223.461 113.394 224.626 112.842C225.792 112.29 225.577 110.603 226.313 109.776" fill="#8F8FA3"/>
<path d="M226.404 127.467C225.226 127.844 223.954 127.803 222.803 127.351C221.653 126.898 220.693 126.062 220.088 124.983C219.492 124.024 219.281 122.874 219.497 121.765C219.713 120.656 220.34 119.67 221.253 119.004C222.503 117.917 224.104 117.319 225.76 117.319C227.417 117.319 229.018 117.917 230.268 119.004C228.737 118.639 227.139 118.661 225.619 119.068C224.098 119.475 222.703 120.254 221.56 121.335C221.125 121.7 220.823 122.199 220.701 122.753C220.579 123.308 220.644 123.887 220.885 124.401C221.086 124.865 221.421 125.259 221.847 125.532C222.273 125.805 222.771 125.945 223.277 125.934C224.224 126.069 225.189 125.981 226.096 125.676C227.002 125.372 227.825 124.86 228.499 124.18C229.172 123.501 229.677 122.674 229.974 121.764C230.27 120.855 230.35 119.889 230.206 118.943C232.843 123.328 231.709 125.842 226.435 127.406L226.404 127.467Z" fill="#8F8FA3"/>
<path d="M226.159 181.217C226.18 181.863 226.069 182.506 225.835 183.109C225.6 183.711 225.245 184.259 224.792 184.721C224.339 185.182 223.798 185.547 223.2 185.793C222.602 186.039 221.961 186.162 221.315 186.153C219.632 186.252 217.975 185.709 216.677 184.633C215.379 183.558 214.538 182.03 214.324 180.358C214.271 179.712 214.356 179.062 214.574 178.452C214.791 177.841 215.136 177.284 215.586 176.817C216.035 176.35 216.579 175.984 217.181 175.744C217.783 175.503 218.429 175.393 219.076 175.422C220.764 175.341 222.422 175.889 223.73 176.959C225.038 178.03 225.903 179.546 226.159 181.217ZM218.126 177.353C217.748 177.312 217.365 177.354 217.005 177.477C216.645 177.599 216.317 177.799 216.042 178.062C215.767 178.325 215.554 178.644 215.416 178.999C215.278 179.353 215.219 179.733 215.244 180.113C215.244 182.106 218.31 184.129 221.376 184.191C223.369 184.191 225.025 183.7 225.239 181.431C225.454 179.162 221.805 177.353 218.095 177.353" fill="#8F8FA3"/>
<path d="M216.838 105.084C214.323 104.532 213.158 106.096 212.239 108.15C211.443 107.271 210.856 106.223 210.521 105.084C214.185 103.861 217.491 101.755 220.149 98.952C221.284 99.6572 221.713 101.497 222.541 102.907C222.795 103.291 222.954 103.729 223.004 104.186C223.054 104.643 222.994 105.106 222.829 105.535C222.664 105.964 222.398 106.347 222.055 106.653C221.711 106.959 221.3 107.178 220.854 107.292C218.8 108.058 217.083 107.813 216.746 105.146L217.85 105.698C218.473 105.969 219.177 105.987 219.813 105.746C220.449 105.505 220.966 105.026 221.253 104.41C221.652 103.889 221.805 102.938 221.253 102.539C219.904 101.558 219.076 103.03 218.187 103.459C217.803 103.567 217.471 103.808 217.252 104.141C217.032 104.473 216.939 104.873 216.991 105.268" fill="#8F8FA3"/>
<path d="M216.746 173.153C216.93 172.57 217.267 171.65 217.635 170.638C221.223 172.202 224.565 174.379 228.857 174.103L227.723 177.169C224.31 175.235 220.601 173.878 216.746 173.153Z" fill="#8F8FA3"/>
<path d="M223.063 136.359C221.07 132.465 221.622 130.625 225.424 128.632C225.976 128.356 226.865 128.418 226.405 127.406C226.221 128.97 227.386 128.142 227.907 128.172C230.974 128.479 231.158 128.479 233.488 131.238C229.655 129.797 226.374 129.613 223.584 132.25C222.388 133.385 223.186 134.734 223.584 135.991L223.032 136.512" fill="#8F8FA3"/>
<path d="M229.47 170.516C229.47 169.565 230.267 168.431 228.887 167.879C228.452 167.732 227.978 167.74 227.548 167.902C227.118 168.064 226.757 168.37 226.526 168.768C224.472 171.19 222.203 171.619 219.045 169.197C220.089 169.452 221.185 169.396 222.199 169.037C223.212 168.677 224.098 168.03 224.748 167.174C224.997 166.822 225.317 166.527 225.688 166.307C226.059 166.087 226.472 165.948 226.9 165.899C227.329 165.85 227.762 165.892 228.173 166.022C228.584 166.151 228.963 166.366 229.286 166.652C229.672 166.841 230.007 167.12 230.262 167.466C230.517 167.811 230.685 168.214 230.751 168.638C230.817 169.063 230.78 169.497 230.642 169.904C230.504 170.311 230.271 170.678 229.96 170.976L229.47 170.516Z" fill="#8F8FA3"/>
<path d="M223.612 135.899C224.367 136.082 225.154 136.086 225.91 135.91C226.666 135.735 227.37 135.384 227.966 134.887C227.966 136.022 228.15 137.125 228.242 138.597C226.495 137.34 223.919 139.241 223.061 136.42L223.612 135.899Z" fill="#8F8FA3"/>
<path d="M230.451 137.003C231.527 136.444 232.366 135.518 232.816 134.392C233.267 133.267 233.298 132.017 232.904 130.871C234.958 134.703 234.069 136.819 230.451 137.003Z" fill="#8F8FA3"/>
<path d="M229.959 170.976C229.131 173.52 227.659 172.325 225.881 171.681L229.468 170.516L229.959 170.976Z" fill="#8F8FA3"/>
</svg>
