<?xml version="1.0" encoding="utf-8"?>
<!-- Generator: Adobe Illustrator 24.0.1, SVG Export Plug-In . SVG Version: 6.00 Build 0)  -->
<svg version="1.1" xmlns="http://www.w3.org/2000/svg" xmlns:xlink="http://www.w3.org/1999/xlink" x="0px" y="0px"
	 viewBox="0 0 328 328" style="enable-background:new 0 0 328 328;" xml:space="preserve">
<style type="text/css">
	.st0{display:none;}
	.st1{display:inline;fill:#8F8FA3;}
	.st2{display:inline;fill:#EEECEB;}
	.st3{display:inline;fill:#EFEFF3;}
	.st4{fill:#8F8FA3;}
</style>
<g id="Capa_1" class="st0">
	<path class="st1" d="M79.9,112.8l-6.7,17.8H69l-6.6-17.8h4.9c0,0,3.8,13,3.9,13c0.3,0,4.2-13,4.2-13H79.9z"/>
	<polygon class="st1" points="97.2,130.7 92.7,130.7 92.6,130.7 91.2,126.8 84.6,126.8 83.1,130.6 78.7,130.6 85.8,112.8 
		90.2,112.8 	"/>
	<polygon class="st1" points="113.6,126.9 113.6,130.6 99.6,130.6 99.6,112.8 103.9,112.8 103.9,126.9 	"/>
	<polygon class="st1" points="131.3,127 131.3,130.6 117.3,130.6 117.3,112.8 131.3,112.9 131.3,116.5 121.4,116.5 121.4,119.9 
		130,119.9 130,123 121.4,123 121.4,127 	"/>
	<polygon class="st1" points="152,112.9 152,130.8 147.7,130.8 140,119.1 140,130.6 136.2,130.6 136.2,112.8 140.6,112.8 
		147.8,125.1 147.8,112.9 	"/>
	<path class="st1" d="M168.9,124.2h4.7c0,3-2.5,6.6-8.8,6.6c-5.3,0-8.6-3.3-8.6-8.4c0-4.2,3-9.5,8.9-9.5c4.2,0,8.5,2.7,8.5,6.4H169
		c0-1.7-1-3.1-3.8-3.1c-3.2,0-4.9,3.4-4.9,6.2s1.7,5.6,4.8,5.6C168.3,127.9,168.9,125.2,168.9,124.2z"/>
	<rect x="177.8" y="112.8" class="st1" width="4.3" height="17.9"/>
	<polygon class="st1" points="203.7,130.7 199.1,130.7 199.1,130.7 197.7,126.8 191,126.8 189.5,130.6 185.1,130.6 192.2,112.8 
		196.6,112.8 	"/>
	<path class="st1" d="M231.1,124.2c0,3-2.6,6.6-8.9,6.6c-5.3,0-8.6-3.3-8.6-8.4c0-4.2,3-9.5,8.9-9.5c4.2,0,8.5,2.7,8.5,6.4h-4.6
		c0-1.7-0.9-3.1-3.8-3.1c-3.2,0-4.9,3.4-4.9,6.2s1.7,5.6,4.8,5.6c3.1,0,3.7-2.7,3.7-3.8H231.1z"/>
	<rect x="235" y="126.5" class="st1" width="4.6" height="4.2"/>
	<polygon class="st1" points="248.3,116.4 248.3,119.9 256.9,119.9 256.9,122.9 248.4,122.9 248.4,130.6 244.2,130.6 244.2,112.8 
		258.2,112.8 258.2,116.4 	"/>
	<polygon class="st1" points="262.4,126.5 262.4,130.7 258,130.7 257.8,126.5 	"/>
	<path class="st1" d="M226.2,266.3L226.2,266.3L226.2,266.3C226.2,266.4,226.2,266.3,226.2,266.3z"/>
	<path class="st1" d="M150.8,314.3c-0.2-0.1-0.4-0.2-0.7-0.3C150.4,314.1,150.7,314.2,150.8,314.3L150.8,314.3L150.8,314.3z"/>
	<path class="st1" d="M150.9,174c0,0.4,0,0.7,0.1,1c-1.3,0.7-4,2.1-6.1,2.1c-5,0-8.8-3.8-9.8-5.2c2.3-3.1,5.1-5.7,8.3-7.9
		c5.5-3.7,11.9-5.7,18.5-5.7C155.2,162.1,150.9,170.1,150.9,174z"/>
	<path class="st2" d="M169.8,224L169.8,224C169.8,224,169.8,224,169.8,224C169.8,224,169.8,224,169.8,224z"/>
	<path class="st1" d="M186.3,194.4v0.7c0,5.9,0.1,21.3-16.5,28.9c-3.1-2-5.6-5.1-5.8-6.2c8-2.7,9.7-8.5,9.7-13c0-2.9-1.1-7-2.1-8.7
		c0.9-1.4,0.9-4,0.9-7.7c0-6.9-4.5-11.2-6.3-12.6l0.1-0.3c1.1-2,3.5-6.1,7-6.1C179.6,169.4,186.3,178.2,186.3,194.4z"/>
	<path class="st2" d="M196.4,192.3c0,6.7-2,13.3-5.7,19c-3.8,5.6-9.1,10-15.3,12.6c-6.2,2.6-13.1,3.3-19.7,2
		c-6.6-1.3-12.7-4.5-17.5-9.3c-4.8-4.8-8-10.8-9.4-17.5c-1.3-6.6-0.6-13.5,1.9-19.7c1-2.4,2.2-4.6,3.7-6.7c-0.2,0.2-0.3,0.5-0.4,0.7
		c1.7,2.2,5.9,5.4,10.8,5.4c2.3,0,5.1-1.3,6.7-2.1c1.4,2.2,4.5,2.2,6.2,2.2c3.8,0,6.1-0.6,7.5-1.8c1.5,1.2,5.7,5,5.7,11.2
		c0,3.9-0.1,6.7-1.2,7.3c-1.2,0.7-9.6,1.7-15,1.7c-14.4,0-25.3-5.3-26.6-6.2v1.8c3.5,1.9,13.9,5.9,26.6,5.9c4.8,0,13.3-0.9,15.5-1.9
		c0.6,1.4,1.7,4.8,1.7,7.6c0,3.9-1.5,9.2-8.9,11.5c-1.7-0.9-6.1-2.8-9.4-2.8c-2.3,0-4.9,0.9-6.4,2.1c-1.6-1.4-6.2-5.1-9.6-5.1
		c-1.3,0-2.9,0.4-3.8,0.6c0.3,0.5,0.7,0.9,0.9,1.4c0.9-0.2,2.1-0.5,3-0.5c2.8,0,7,3.3,8.7,4.7c-0.1,0.2-0.1,0.3-0.1,0.5
		c0,1.2,1.3,4.2,3.2,6.7c0.9,0.4,2,0.7,3,1l0.1-0.2c-2.5-1.9-4.5-6.3-4.7-7.5c0.5-0.6,3.1-2.2,5.9-2.2s6.9,1.6,8.5,2.5
		c0.1,1.9,3.5,5.8,7,8c0.8-0.1,1.6-0.3,2.3-0.5h0c16.3-8.2,16.1-23.7,16.1-29.7l-0.1,0.1v-0.7c0-14.1-4.8-22.8-10.3-25.6
		c0.2-0.4,0.6-0.8,0.9-1c1.3-0.9,3.4-1.9,5.4-1.9c-0.6-0.5-1.2-1-1.9-1.4c-1.9,0.3-3.5,1.2-4.5,2.1c-0.5,0.5-1.2,1-1.4,1.7
		c-0.9-0.3-1.8-0.4-2.7-0.4c-4.5,0-7.1,4.7-8.4,6.9c-0.2,0.3-0.4,0.6-0.5,0.8c-0.8,1.1-3,1.7-6.7,1.7c-3.9,0-5.2-0.8-5.2-3.2
		c0-4,5.3-13,12.9-15.7h0c7.9,0.7,15.3,4.2,21,9.8C192.8,174.5,196.4,183.2,196.4,192.3z"/>
	<path class="st2" d="M150.9,174c0,0.4,0,0.7,0.1,1c-1.3,0.7-4,2.1-6.1,2.1c-5,0-8.8-3.8-9.8-5.2c2.3-3.1,5.1-5.7,8.3-7.9
		c5.5-3.7,11.9-5.7,18.5-5.7C155.2,162.1,150.9,170.1,150.9,174z"/>
	<path class="st3" d="M169.8,224L169.8,224C169.8,224,169.8,224,169.8,224C169.8,224,169.8,224,169.8,224z"/>
	<path class="st3" d="M186.3,194.4v0.7c0,5.9,0.1,21.3-16.5,28.9c-3.1-2-5.6-5.1-5.8-6.2c8-2.7,9.7-8.5,9.7-13c0-2.9-1.1-7-2.1-8.7
		c0.9-1.4,0.9-4,0.9-7.7c0-6.9-4.5-11.2-6.3-12.6l0.1-0.3c1.1-2,3.5-6.1,7-6.1C179.6,169.4,186.3,178.2,186.3,194.4z"/>
	<path class="st3" d="M196.4,192.3c0,6.7-2,13.3-5.7,19c-3.8,5.6-9.1,10-15.3,12.6c-6.2,2.6-13.1,3.3-19.7,2
		c-6.6-1.3-12.7-4.5-17.5-9.3c-4.8-4.8-8-10.8-9.4-17.5c-1.3-6.6-0.6-13.5,1.9-19.7c1-2.4,2.2-4.6,3.7-6.7c-0.2,0.2-0.3,0.5-0.4,0.7
		c1.7,2.2,5.9,5.4,10.8,5.4c2.3,0,5.1-1.3,6.7-2.1c1.4,2.2,4.5,2.2,6.2,2.2c3.8,0,6.1-0.6,7.5-1.8c1.5,1.2,5.7,5,5.7,11.2
		c0,3.9-0.1,6.7-1.2,7.3c-1.2,0.7-9.6,1.7-15,1.7c-14.4,0-25.3-5.3-26.6-6.2v1.8c3.5,1.9,13.9,5.9,26.6,5.9c4.8,0,13.3-0.9,15.5-1.9
		c0.6,1.4,1.7,4.8,1.7,7.6c0,3.9-1.5,9.2-8.9,11.5c-1.7-0.9-6.1-2.8-9.4-2.8c-2.3,0-4.9,0.9-6.4,2.1c-1.6-1.4-6.2-5.1-9.6-5.1
		c-1.3,0-2.9,0.4-3.8,0.6c0.3,0.5,0.7,0.9,0.9,1.4c0.9-0.2,2.1-0.5,3-0.5c2.8,0,7,3.3,8.7,4.7c-0.1,0.2-0.1,0.3-0.1,0.5
		c0,1.2,1.3,4.2,3.2,6.7c0.9,0.4,2,0.7,3,1l0.1-0.2c-2.5-1.9-4.5-6.3-4.7-7.5c0.5-0.6,3.1-2.2,5.9-2.2s6.9,1.6,8.5,2.5
		c0.1,1.9,3.5,5.8,7,8c0.8-0.1,1.6-0.3,2.3-0.5h0c16.3-8.2,16.1-23.7,16.1-29.7l-0.1,0.1v-0.7c0-14.1-4.8-22.8-10.3-25.6
		c0.2-0.4,0.6-0.8,0.9-1c1.3-0.9,3.4-1.9,5.4-1.9c-0.6-0.5-1.2-1-1.9-1.4c-1.9,0.3-3.5,1.2-4.5,2.1c-0.5,0.5-1.2,1-1.4,1.7
		c-0.9-0.3-1.8-0.4-2.7-0.4c-4.5,0-7.1,4.7-8.4,6.9c-0.2,0.3-0.4,0.6-0.5,0.8c-0.8,1.1-3,1.7-6.7,1.7c-3.9,0-5.2-0.8-5.2-3.2
		c0-4,5.3-13,12.9-15.7h0c7.9,0.7,15.3,4.2,21,9.8C192.8,174.5,196.4,183.2,196.4,192.3z"/>
	<path class="st1" d="M226.2,266.4L226.2,266.4L226.2,266.4C226.2,266.4,226.2,266.4,226.2,266.4z M150.8,314.3
		c-0.2-0.1-0.4-0.2-0.7-0.3C150.4,314.1,150.7,314.2,150.8,314.3L150.8,314.3L150.8,314.3z"/>
	<path class="st1" d="M201,12.4L201,12.4c-3.8,0-7.7,10.5-18.1,10.5c-6,0-9.4-4.4-9.8-4.8c0-2.1,2.8-6.3,2.8-10.3
		c0-0.9-0.3-2.7-3.6-2.7c-3.3,0-5.2,2.6-5.4,3.1c-0.3,0.5-1.6-0.5-4.5-0.5c-2.8,0-4.1,0.9-4.4,0.5c-0.3-0.5-2.1-3.1-5.4-3.1
		c-3.3,0-3.8,1.7-3.8,2.8c0,3.9,2.8,8.2,2.8,10.2c-0.3,0.4-3.8,4.8-9.7,4.8c-10.3,0-14.4-10.5-18.1-10.5c-11.5,0-81.1,48-81.1,124
		c0,92.1,85.6,186.5,119.7,186.5S282,228.4,282,136.3C282,60.4,212.4,12.4,201,12.4z M203.7,17.8C203.7,17.8,203.7,17.8,203.7,17.8
		L203.7,17.8C203.8,17.8,203.8,17.8,203.7,17.8c2.3,0.3,25.6,26.6,24,47.5c-3-27-24.5-45.9-24.5-47.1
		C203.3,17.9,203.5,17.8,203.7,17.8z M122,17.8c0.1,0,0.5,0.1,0.5,0.5c0,1.2-21.5,20.1-24.5,47.1C96.3,44.3,120,17.8,122,17.8z
		 M95.4,73.6c1.5,0,3.6,0.5,3.6,0.5s6.7-5.5,15.9-5.5c17.6,0,26.8,16.9,26.8,23c0,3.1-1.1,2.5-1.1,4.4c0,0.9,1.4,2.3,2.4,2.3
		c1.4,0,5.4-3.9,6.3-5.8c5.9,0,11.3,6.6,12.9,11.6c1.6-5.2,7.1-11.6,13-11.6c0.9,1.9,5,5.8,6.3,5.8c0.9,0,2.3-1.4,2.3-2.3
		c0-1.9-1.1-1.3-1.1-4.4c0-6.1,9.2-23,26.7-23c9.4,0,16,5.5,16,5.5s2.1-0.5,3.6-0.5c10.7,0,26.8,15.9,36.9,35.1H58.6
		c-1.6,3-3.1,6.1-4.3,9.2C63.4,94.9,83,73.6,95.4,73.6z M203.7,130.7h-4.5l0,0l-1.4-3.9H191l-1.5,3.9h-4.4l7.1-17.8h4.3L203.7,130.7
		z M182.1,112.8v17.9h-4.3v-17.9H182.1z M151,175c-1.3,0.7-4,2.1-6.1,2.1c-5,0-8.8-3.8-9.8-5.2c2.3-3.1,5.1-5.7,8.3-7.9
		c5.5-3.7,11.9-5.7,18.5-5.7c-6.6,3.9-11,11.9-11,15.8C150.9,174.3,150.9,174.7,151,175z M136.2,130.6v-17.8l4.4,0l7.3,12.3v-12.2
		h4.2v17.9h-4.4l-7.7-11.7v11.6H136.2z M150.9,155.7v-22H176v22.8c-4.3-1.7-9-2.6-13.6-2.6C158.4,153.9,154.6,154.5,150.9,155.7z
		 M165.1,127.9c3.2,0,3.8-2.7,3.8-3.8h4.7c0,3-2.5,6.6-8.8,6.6c-5.3,0-8.6-3.3-8.6-8.4c0-4.2,3-9.5,8.9-9.5c4.2,0,8.5,2.7,8.5,6.4
		H169c0-1.7-1-3.1-3.8-3.1c-3.2,0-4.9,3.4-4.9,6.2S162,127.9,165.1,127.9z M130,119.9v3h-8.6v4.1h10v3.6h-14.1v-17.8l14,0v3.6h-9.9
		v3.4H130z M113.6,126.9v3.8H99.6v-17.8h4.4v14.1H113.6z M79.9,112.8l-6.7,17.8H69l-6.6-17.8h4.9c0,0,3.8,13,3.9,13
		c0.3,0,4.2-13,4.2-13H79.9z M74.5,228.8C59.6,201,49.2,170,49.2,141.4c0-2.5,0.2-5.1,0.6-7.7h24.7V228.8z M92.7,130.7L92.7,130.7
		l-1.5-4h-6.6l-1.5,3.9h-4.4l7-17.8h4.5l7,17.9H92.7z M99.6,267.7V133.6h25.7v162.6c3.5,3.2,7,6.1,10.3,8.7
		C124,296.2,111.5,283.3,99.6,267.7z M162.3,317.2L162.3,317.2c-3.4-0.1-7.2-1.1-11.4-2.9v0c-0.2-0.1-0.5-0.2-0.7-0.3
		c0.2,0.1,0.4,0.2,0.7,0.3l0,0v-85.5c3.7,1.2,7.5,1.8,11.4,1.8c4.7,0,9.3-0.9,13.6-2.6l0.1,85.3C171,315.8,166.3,317.2,162.3,317.2z
		 M175.4,223.8c-6.2,2.6-13.1,3.3-19.7,2c-6.6-1.3-12.7-4.5-17.5-9.3c-4.8-4.8-8-10.8-9.4-17.5c-1.3-6.6-0.6-13.5,1.9-19.7
		c1-2.4,2.2-4.6,3.7-6.7c-0.2,0.2-0.3,0.5-0.4,0.7c1.7,2.2,5.9,5.4,10.8,5.4c2.3,0,5.1-1.3,6.7-2.1c1.4,2.2,4.5,2.2,6.2,2.2
		c3.8,0,6.1-0.6,7.5-1.8c1.5,1.2,5.7,5,5.7,11.2c0,3.9-0.1,6.7-1.2,7.3c-1.2,0.7-9.6,1.7-15,1.7c-14.4,0-25.3-5.3-26.6-6.2v1.8
		c3.5,1.9,13.9,5.9,26.6,5.9c4.8,0,13.3-0.9,15.5-1.9c0.6,1.4,1.7,4.8,1.7,7.6c0,3.9-1.5,9.2-8.9,11.5c-1.7-0.9-6.1-2.8-9.4-2.8
		c-2.3,0-4.9,0.9-6.4,2.1c-1.6-1.4-6.2-5.1-9.6-5.1c-1.3,0-2.9,0.4-3.8,0.6c0.3,0.5,0.7,0.9,0.9,1.4c0.9-0.2,2.1-0.5,3-0.5
		c2.8,0,7,3.3,8.7,4.7c-0.1,0.2-0.1,0.3-0.1,0.5c0,1.2,1.3,4.2,3.2,6.7c0.9,0.4,2,0.7,3,1l0.1-0.2c-2.5-1.9-4.5-6.3-4.7-7.5
		c0.5-0.6,3.1-2.2,5.9-2.2s6.9,1.6,8.5,2.5c0.1,1.9,3.5,5.8,7,8c0.8-0.1,1.6-0.3,2.3-0.5h0c16.3-8.2,16.1-23.7,16.1-29.7l-0.1,0.1
		v-0.7c0-14.1-4.8-22.8-10.3-25.6c0.2-0.4,0.6-0.8,0.9-1c1.3-0.9,3.4-1.9,5.4-1.9c-0.6-0.5-1.2-1-1.9-1.4c-1.9,0.3-3.5,1.2-4.5,2.1
		c-0.5,0.5-1.2,1-1.4,1.7c-0.9-0.3-1.8-0.4-2.7-0.4c-4.5,0-7.1,4.7-8.4,6.9c-0.2,0.3-0.4,0.6-0.5,0.8c-0.8,1.1-3,1.7-6.7,1.7
		c-3.9,0-5.2-0.8-5.2-3.2c0-4,5.3-13,12.9-15.7h0c7.9,0.7,15.3,4.2,21,9.8c6.4,6.4,10,15.1,10,24.1c0,6.7-2,13.3-5.7,19
		C187,216.8,181.6,221.2,175.4,223.8z M169.8,224L169.8,224C169.8,224,169.8,224,169.8,224c-3.1-2-5.6-5.2-5.9-6.2
		c8-2.7,9.7-8.5,9.7-13c0-2.9-1.1-7-2.1-8.7c0.9-1.4,0.9-4,0.9-7.7c0-6.9-4.5-11.2-6.3-12.6l0.1-0.3c1.1-2,3.5-6.1,7-6.1
		c6.3,0,12.9,8.8,12.9,25v0.7C186.3,201,186.3,216.4,169.8,224C169.8,224,169.8,224,169.8,224z M226.2,266.4L226.2,266.4
		c-9.9,13-20.2,24.3-30.1,32.9c1.6-1.5,3.3-3,5-4.6V133.6l25.1,0V266.4z M222.2,130.7c-5.3,0-8.6-3.3-8.6-8.4c0-4.2,3-9.5,8.9-9.5
		c4.2,0,8.5,2.7,8.5,6.4h-4.6c0-1.7-0.9-3.1-3.8-3.1c-3.2,0-4.9,3.4-4.9,6.2s1.7,5.6,4.8,5.6c3.1,0,3.7-2.7,3.7-3.8h4.8
		C231.1,127.2,228.5,130.7,222.2,130.7z M239.6,130.7H235v-4.2h4.6V130.7z M248.4,130.6h-4.2v-17.8h14v3.6h-9.8v3.4h8.6v3h-8.5
		V130.6z M262.4,126.5v4.2H258l-0.1-4.2H262.4z M251.2,133.6l23.7,0c0.4,2.7,0.7,5.3,0.7,7.8c0,27.9-10,58.1-24.3,85.5L251.2,133.6z
		"/>
	<path class="st1" d="M150.8,314.3c-0.2-0.1-0.4-0.2-0.7-0.3C150.4,314.1,150.7,314.2,150.8,314.3L150.8,314.3L150.8,314.3z"/>
	<path class="st2" d="M75.4,112.8c0,0-3.9,13-4.2,13c-0.1,0-3.9-13-3.9-13h-4.9l6.6,17.8h4.2l6.7-17.8H75.4z M90.2,112.8h-4.5
		l-7,17.8h4.4l1.5-3.9h6.6l1.4,3.9l0,0h4.5L90.2,112.8z M85.8,123.7L85.8,123.7l2.2-6l2.2,6H85.8z M196.6,112.8h-4.3l-7.1,17.8h4.4
		l1.5-3.9h6.7l1.4,3.9l0,0h4.5L196.6,112.8z M192.1,123.6L192.1,123.6L192.1,123.6L192.1,123.6l2.3-6l2.1,6H192.1z M103.9,126.9
		v-14.1h-4.4v17.8h14.1v-3.8H103.9z M121.4,127V123h8.6v-3h-8.6v-3.4h9.9v-3.6l-14,0v17.8h14.1V127H121.4z M258.2,116.4v-3.6h-14
		v17.8h4.2v-7.7h8.5v-3h-8.6v-3.4H258.2z M147.8,112.9v12.2l-7.3-12.3l-4.4,0v17.8h3.8v-11.6l7.7,11.7h4.4v-17.9H147.8z
		 M165.1,127.9c-3.1,0-4.8-2.8-4.8-5.6s1.7-6.2,4.9-6.2c2.7,0,3.8,1.4,3.8,3.1h4.6c0-3.8-4.3-6.4-8.5-6.4c-5.9,0-8.9,5.2-8.9,9.5
		c0,5.2,3.3,8.4,8.6,8.4c6.3,0,8.8-3.5,8.8-6.6h-4.7C168.9,125.2,168.3,127.9,165.1,127.9z M226.3,124.2c0,1.1-0.6,3.8-3.7,3.8
		c-3.1,0-4.8-2.8-4.8-5.6s1.6-6.2,4.9-6.2c2.8,0,3.8,1.4,3.8,3.1h4.6c0-3.8-4.4-6.4-8.5-6.4c-5.9,0-8.9,5.2-8.9,9.5
		c0,5.2,3.3,8.4,8.6,8.4c6.3,0,8.9-3.5,8.9-6.6H226.3z M177.8,112.8v17.9h4.3v-17.9H177.8z M235,126.5v4.2h4.6v-4.2H235z
		 M257.8,126.5l0.1,4.2h4.5v-4.2H257.8z"/>
</g>
<g id="Capa_2">
	<path class="st4" d="M205.2,12.4L205.2,12.4c-3.8,0-7.7,10.5-18.1,10.5c-6,0-9.4-4.4-9.8-4.8c0-2.1,2.8-6.3,2.8-10.3
		c0-0.9-0.3-2.7-3.6-2.7c-3.3,0-5.2,2.6-5.4,3.1c-0.3,0.5-1.6-0.5-4.5-0.5c-2.8,0-4.1,0.9-4.4,0.5c-0.3-0.5-2.1-3.1-5.4-3.1
		c-3.3,0-3.8,1.7-3.8,2.8c0,3.9,2.8,8.2,2.8,10.2c-0.3,0.4-3.8,4.8-9.7,4.8c-10.3,0-14.4-10.5-18.1-10.5c-11.5,0-81.1,48-81.1,124
		c0,92.1,85.6,186.5,119.7,186.5s119.7-94.4,119.7-186.5C286.2,60.5,216.6,12.4,205.2,12.4z M207.9,17.9
		C207.9,17.9,207.9,17.9,207.9,17.9L207.9,17.9C208,17.9,208,17.9,207.9,17.9c2.3,0.3,25.6,26.6,24,47.5c-3-27-24.5-45.9-24.5-47.1
		C207.5,18,207.7,17.9,207.9,17.9z M126.2,17.9c0.1,0,0.5,0.1,0.5,0.5c0,1.2-21.5,20.1-24.5,47.1C100.5,44.4,124.2,17.9,126.2,17.9z
		 M99.6,73.7c1.5,0,3.6,0.5,3.6,0.5s6.7-5.5,15.9-5.5c17.6,0,26.8,16.9,26.8,23c0,3.1-1.1,2.5-1.1,4.4c0,0.9,1.4,2.3,2.4,2.3
		c1.4,0,5.4-3.9,6.3-5.8c5.9,0,11.3,6.6,12.9,11.6c1.6-5.2,7.1-11.6,13-11.6c0.9,1.9,5,5.8,6.3,5.8c0.9,0,2.3-1.4,2.3-2.3
		c0-1.9-1.1-1.3-1.1-4.4c0-6.1,9.2-23,26.7-23c9.4,0,16,5.5,16,5.5s2.1-0.5,3.6-0.5c10.7,0,26.8,15.9,36.9,35.1H62.8
		c-1.6,3-3.1,6.1-4.3,9.2C67.6,95,87.2,73.7,99.6,73.7z M207.9,130.8h-4.5l0,0l-1.4-3.9h-6.7l-1.5,3.9h-4.4l7.1-17.8h4.3
		L207.9,130.8z M186.3,112.9v17.9H182v-17.9H186.3z M155.2,175.1c-1.3,0.7-4,2.1-6.1,2.1c-5,0-8.8-3.8-9.8-5.2
		c2.3-3.1,5.1-5.7,8.3-7.9c5.5-3.7,11.9-5.7,18.5-5.7c-6.6,3.9-11,11.9-11,15.8C155.1,174.4,155.1,174.8,155.2,175.1z M140.4,130.7
		v-17.8l4.4,0l7.3,12.3V113h4.2v17.9h-4.4l-7.7-11.7v11.6H140.4z M155.1,155.8v-22h25.1v22.8c-4.3-1.7-9-2.6-13.6-2.6
		C162.6,153.9,158.8,154.5,155.1,155.8z M169.3,128c3.2,0,3.8-2.7,3.8-3.8h4.7c0,3-2.5,6.6-8.8,6.6c-5.3,0-8.6-3.3-8.6-8.4
		c0-4.2,3-9.5,8.9-9.5c4.2,0,8.5,2.7,8.5,6.4h-4.6c0-1.7-1-3.1-3.8-3.1c-3.2,0-4.9,3.4-4.9,6.2S166.2,128,169.3,128z M134.2,120v3
		h-8.6v4.1h10v3.6h-14.1v-17.8l14,0v3.6h-9.9v3.4H134.2z M117.8,127v3.8h-14.1v-17.8h4.4V127H117.8z M84.1,112.9l-6.7,17.8h-4.2
		l-6.6-17.8h4.9c0,0,3.8,13,3.9,13c0.3,0,4.2-13,4.2-13H84.1z M78.7,228.9C63.8,201,53.4,170,53.4,141.4c0-2.5,0.2-5.1,0.6-7.7h24.7
		V228.9z M96.9,130.8L96.9,130.8l-1.5-4h-6.6l-1.5,3.9h-4.4l7-17.8h4.5l7,17.9H96.9z M103.8,267.8V133.7h25.7v162.6
		c3.5,3.2,7,6.1,10.3,8.7C128.3,296.3,115.7,283.3,103.8,267.8z M166.5,317.2L166.5,317.2c-3.4-0.1-7.2-1.1-11.4-2.9v0
		c-0.2-0.1-0.5-0.2-0.7-0.3c0.2,0.1,0.4,0.2,0.7,0.3l0,0v-85.5c3.7,1.2,7.5,1.8,11.4,1.8c4.7,0,9.3-0.9,13.6-2.6l0.1,85.3
		C175.2,315.9,170.5,317.2,166.5,317.2z M179.6,223.9c-6.2,2.6-13.1,3.3-19.7,2c-6.6-1.3-12.7-4.5-17.5-9.3
		c-4.8-4.8-8-10.8-9.4-17.5c-1.3-6.6-0.6-13.5,1.9-19.7c1-2.4,2.2-4.6,3.7-6.7c-0.2,0.2-0.3,0.5-0.4,0.7c1.7,2.2,5.9,5.4,10.8,5.4
		c2.3,0,5.1-1.3,6.7-2.1c1.4,2.2,4.5,2.2,6.2,2.2c3.8,0,6.1-0.6,7.5-1.8c1.5,1.2,5.7,5,5.7,11.2c0,3.9-0.1,6.7-1.2,7.3
		c-1.2,0.7-9.6,1.7-15,1.7c-14.4,0-25.3-5.3-26.6-6.2v1.8c3.5,1.9,13.9,5.9,26.6,5.9c4.8,0,13.3-0.9,15.5-1.9
		c0.6,1.4,1.7,4.8,1.7,7.6c0,3.9-1.5,9.2-8.9,11.5c-1.7-0.9-6.1-2.8-9.4-2.8c-2.3,0-4.9,0.9-6.4,2.1c-1.6-1.4-6.2-5.1-9.6-5.1
		c-1.3,0-2.9,0.4-3.8,0.6c0.3,0.5,0.7,0.9,0.9,1.4c0.9-0.2,2.1-0.5,3-0.5c2.8,0,7,3.3,8.7,4.7c-0.1,0.2-0.1,0.3-0.1,0.5
		c0,1.2,1.3,4.2,3.2,6.7c0.9,0.4,2,0.7,3,1l0.1-0.2c-2.5-1.9-4.5-6.3-4.7-7.5c0.5-0.6,3.1-2.2,5.9-2.2s6.9,1.6,8.5,2.5
		c0.1,1.9,3.5,5.8,7,8c0.8-0.1,1.6-0.3,2.3-0.5h0c16.3-8.2,16.1-23.7,16.1-29.7l-0.1,0.1v-0.7c0-14.1-4.8-22.8-10.3-25.6
		c0.2-0.4,0.6-0.8,0.9-1c1.3-0.9,3.4-1.9,5.4-1.9c-0.6-0.5-1.2-1-1.9-1.4c-1.9,0.3-3.5,1.2-4.5,2.1c-0.5,0.5-1.2,1-1.4,1.7
		c-0.9-0.3-1.8-0.4-2.7-0.4c-4.5,0-7.1,4.7-8.4,6.9c-0.2,0.3-0.4,0.6-0.5,0.8c-0.8,1.1-3,1.7-6.7,1.7c-3.9,0-5.2-0.8-5.2-3.2
		c0-4,5.3-13,12.9-15.7h0c7.9,0.7,15.3,4.2,21,9.8c6.4,6.4,10,15.1,10,24.1c0,6.7-2,13.3-5.7,19
		C191.2,216.9,185.8,221.3,179.6,223.9z M174,224L174,224C174,224,174,224,174,224c-3.1-2-5.6-5.2-5.9-6.2c8-2.7,9.7-8.5,9.7-13
		c0-2.9-1.1-7-2.1-8.7c0.9-1.4,0.9-4,0.9-7.7c0-6.9-4.5-11.2-6.3-12.6l0.1-0.3c1.1-2,3.5-6.1,7-6.1c6.3,0,12.9,8.8,12.9,25v0.7
		C190.5,201,190.6,216.5,174,224C174,224,174,224,174,224z M230.4,266.5L230.4,266.5c-9.9,13-20.2,24.3-30.1,32.9
		c1.6-1.5,3.3-3,5-4.6V133.7l25.1,0V266.5z M226.4,130.8c-5.3,0-8.6-3.3-8.6-8.4c0-4.2,3-9.5,8.9-9.5c4.2,0,8.5,2.7,8.5,6.4h-4.6
		c0-1.7-0.9-3.1-3.8-3.1c-3.2,0-4.9,3.4-4.9,6.2s1.7,5.6,4.8,5.6c3.1,0,3.7-2.7,3.7-3.8h4.8C235.3,127.3,232.7,130.8,226.4,130.8z
		 M243.8,130.8h-4.6v-4.2h4.6V130.8z M252.6,130.7h-4.2v-17.8h14v3.6h-9.8v3.4h8.6v3h-8.5V130.7z M266.6,126.6v4.2h-4.5l-0.1-4.2
		H266.6z M255.4,133.7l23.7,0c0.4,2.7,0.7,5.3,0.7,7.8c0,27.9-10,58.1-24.3,85.5L255.4,133.7z"/>
	<polyline class="st4" points="92.2,116.8 94.4,122.8 90,122.8 	"/>
	<polyline class="st4" points="198.6,116.8 200.8,122.8 196.4,122.8 	"/>
</g>
</svg>
