<?xml version="1.0" encoding="UTF-8"?> <svg xmlns="http://www.w3.org/2000/svg" xmlns:xlink="http://www.w3.org/1999/xlink" id="Logos_Patrocinadores_Web" data-name="Logos Patrocinadores Web" viewBox="0 0 300 300"><defs><style>.cls-1{fill:#8f8fa3;}.cls-2{fill:#ffffff00;}</style><symbol id="New_Symbol" data-name="New Symbol" viewBox="0 0 462.49 607.52"><path class="cls-1" d="M231.12,602.74c-33.85,0-90.61-45.47-138.34-110.65-56-76.64-88.09-164-88.09-239.54C4.69,112.39,133,18.23,159.6,18.23c4.6,0,8,3.47,12,7.63,5.47,5.64,11.63,12,21.7,12a19,19,0,0,0,13-5.64c-.44-1.08-.91-2.15-1.39-3.21-1.57-4.08-3.48-9.12-3.48-14.32,0-4.78,3-9.81,11.55-9.81a16.74,16.74,0,0,1,12.15,5.47,25.16,25.16,0,0,1,6.07-.7,25.81,25.81,0,0,1,6.08.7,16.38,16.38,0,0,1,12.15-5.47c8.5,0,11.54,5.21,11.54,9.81,0,5.2-2,10.24-3.64,14.32-.35,1-.87,2.25-1.22,3.3a18.32,18.32,0,0,0,13,5.64c10,0,16.14-6.25,21.7-11.89,3.82-4.08,7.29-7.55,11.89-7.55,26.55,0,154.83,94.25,154.83,234.32,0,75.51-32.12,162.9-88.18,239.54C321.64,557.44,264.88,603,231,603M249.34,0a20.59,20.59,0,0,0-13.62,5.21,30.84,30.84,0,0,0-9.2,0A20.2,20.2,0,0,0,213,0c-11.28,0-16.32,7.38-16.32,14.58,0,6.08,2.26,11.89,4,16.06a12.54,12.54,0,0,1-7.37,2.43c-8,0-13.19-5.21-18.23-10.42-4.34-4.34-8.68-9-15.36-9-16,0-56,26.21-90.26,65.26C37.75,115.08,0,174.62,0,252.73c-.09,173,160.47,354.79,231.12,354.79,70.82,0,231.37-181.91,231.37-355,0-78.11-37.92-137.56-69.6-173.75-34.2-39-74.29-65.26-90.26-65.26-6.51,0-11,4.6-15.36,9C282.41,27.77,277.2,33,269.22,33a13,13,0,0,1-7.38-2.26c1.74-4.34,3.9-10,3.9-16.14,0-7.2-5-14.58-16.31-14.58m0,9.55c6.07,0,6.94,3.21,6.94,5,0,7.38-5.21,15.28-5.21,19.09.61.7,7,8.86,18.06,8.86C288.31,42.53,295.86,23,302.8,23,324,23,453,112,453,252.64c0,170.54-158.83,345.42-221.83,345.42S9.37,423.18,9.37,252.64C9.37,112,138.25,23.09,159.52,23.09c6.94,0,14.4,19.52,33.58,19.52,11.11,0,17.36-8.16,18.23-8.85,0-3.82-5.21-11.72-5.21-19.09-.17-1.74.61-5.21,6.68-5.21s9.55,5,10.07,5.9c0,.18.26.18.52.18.87,0,3.3-1.22,7.64-1.22s6.77,1.22,7.81,1.22c.17,0,.35,0,.43-.18.44-.87,3.82-5.81,9.9-5.81"></path><path class="cls-2" d="M22.74,247.52H439.58c-2.43-15.36-8.24-31.24-16.14-46.17H39c-8,14.75-13.89,30.81-16.32,46.17"></path><path class="cls-1" d="M439.58,247.52H395.67V420.23c26.64-50.6,45.13-106.58,45.13-158.3,0-12-2.61-24.83-7.21-37.58a141.67,141.67,0,0,1,6.08,23.08"></path><path class="cls-2" d="M349.32,493.39a531.34,531.34,0,0,0,46.43-73.08V247.61H349.41V493.39Z"></path><path class="cls-1" d="M302.8,545.9a429.92,429.92,0,0,0,46.52-52.51V247.52H302.8Zm-187.89-50a438.69,438.69,0,0,0,47.47,52.76V247.52H114.91Z"></path><path class="cls-2" d="M68.48,423.87a532,532,0,0,0,46.43,72V247.52H68.48Z"></path><path class="cls-1" d="M22,276.85c3.21,48.6,21.43,100.16,46.52,147V247.52h-46a128.12,128.12,0,0,1,6.07-23.09,119.67,119.67,0,0,0-6.77,28.38v24Zm209.16,11.63a65.7,65.7,0,0,1,25.16,4.95V247.61H209.94v44.26a67.4,67.4,0,0,1,21.18-3.3m0,135.39a67.48,67.48,0,0,1-21.18-3.47V582.26c7.81,3.47,14.93,5.21,21.18,5.21,7.37,0,16-2.61,25.16-7.12V418.93a65.69,65.69,0,0,1-25.16,4.94"></path><path class="cls-2" d="M256.37,247.52v46a67.69,67.69,0,0,1,0,125.32V580.26c14.15-6.94,30-18.83,46.52-34.36V247.52H256.37ZM163.51,356a67.7,67.7,0,0,1,46.43-64.22V247.52H162.47V548.67c16.92,15.63,33.24,27.25,47.47,33.5V420.4a67.69,67.69,0,0,1-46.43-64.22"></path><path class="cls-1" d="M163.51,356.09a67.69,67.69,0,1,0,135.21,6.85,65.22,65.22,0,0,0,0-6.85,67.69,67.69,0,1,0-135.21-6.85,65.22,65.22,0,0,0,0,6.85"></path><path class="cls-2" d="M294.3,356.09A63.19,63.19,0,1,1,231,293h.09a63.18,63.18,0,0,1,63.18,63.09"></path><path class="cls-1" d="M245,414.85c-5.73-3.65-10.41-9.55-10.85-11.55,14.76-4.94,18-15.79,18-24.12,0-5.47-2.08-13-3.91-16.15,1.74-2.6,1.74-7.46,1.74-14.23,0-12.84-8.42-20.83-11.72-23.26l.26-.52c2.09-3.64,6.51-11.28,13-11.28,11.63,0,24,16.23,24,46.34v1.31c0,10.84.17,39.48-30.55,53.46m33.5-53.38v-1.3c0-26-8.86-42.27-19.1-47.47a6.75,6.75,0,0,1,1.74-1.91,18.07,18.07,0,0,1,10-3.47q-1.69-1.36-3.47-2.61a19.46,19.46,0,0,0-8.42,3.82c-.87.87-2.17,1.91-2.6,3.13a16,16,0,0,0-5-.7c-8.25,0-13.19,8.68-15.62,12.76-.35.61-.7,1.13-.87,1.39-1.48,2.08-5.64,3.12-12.41,3.12-7.29,0-9.72-1.47-9.72-5.9,0-7.38,9.89-24,23.86-29.07-1.9-.21-3.81-.32-5.72-.35h-.7c-12.32,7.2-20.48,22-20.48,29.33a6.9,6.9,0,0,0,.17,1.91c-2.34,1.3-7.37,3.82-11.28,3.82-9.2,0-16.23-6.94-18.22-9.72a14.93,14.93,0,0,0-1.74,2.6c3.21,4,10.85,10.07,20,10.07,4.34,0,9.37-2.34,12.33-3.9,2.6,4,8.33,4.08,11.54,4.08,6.94,0,11.28-1.05,13.88-3.3,2.87,2.17,10.59,9.28,10.59,20.83,0,7.2-.26,12.32-2.17,13.45-2.25,1.21-17.7,3.21-27.77,3.21-26.64,0-46.87-9.89-49.21-11.46v3.39c6.42,3.47,25.78,10.93,49.3,10.93,8.94,0,24.64-1.73,28.64-3.47a39.77,39.77,0,0,1,3.21,14.15c0,7.29-2.87,17-16.49,21.26-3.21-1.73-11.28-5.2-17.36-5.2a21,21,0,0,0-11.8,3.81c-3-2.6-11.55-9.37-17.88-9.37a32.77,32.77,0,0,0-7.12,1.13c.61.87,1.22,1.73,1.74,2.6a31.69,31.69,0,0,1,5.47-.87c5.2,0,13,6.08,16.05,8.68a2.36,2.36,0,0,0-.17.87c0,2.17,2.43,7.81,5.9,12.41,1.74.7,3.65,1.3,5.47,1.91l.26-.35c-4.6-3.47-8.42-11.63-8.68-13.88.87-1.13,5.73-4.08,10.93-4.08s12.85,2.95,15.8,4.69c.26,3.47,6.51,10.76,13,14.75a34,34,0,0,0,4.34-.87l-.52.26c30.63-15.1,30.37-44.09,30.37-55.28"></path><path class="cls-2" d="M231.12,587.29c-63,0-209.6-179.47-209.6-325.45,0-54.24,54.68-125.5,85.66-125.5a38.38,38.38,0,0,1,6.77.87S126.28,127,143.46,127c32.55,0,49.64,31.24,49.64,42.53,0,5.81-2.08,4.68-2.08,8.07,0,1.73,2.6,4.34,4.34,4.34,2.6,0,10.07-7.29,11.72-10.68,10.84,0,21,12.15,23.95,21.53,3-9.55,13.19-21.53,24-21.53,1.74,3.47,9.29,10.76,11.72,10.76,1.73,0,4.34-2.6,4.34-4.34,0-3.47-2-2.34-2-8.15,0-11.29,17-42.53,49.47-42.53a50.55,50.55,0,0,1,29.68,10.24,37.12,37.12,0,0,1,6.77-.87c30.9,0,85.75,71.34,85.75,125.67,0,145.81-146.68,325.46-209.68,325.46M156.48,33a.85.85,0,0,1,.87.87c0,2.25-39.93,37.32-45.48,87.22C108.92,82,152.66,33,156.48,33m151.27,0c3.91,0,47.56,49,44.61,88.09-5.56-50-45.3-85-45.3-87.22a.81.81,0,0,1,.86-.87m-5.2-10.15c-7,0-14.32,19.52-33.5,19.52-11.11,0-17.36-8.16-18.23-8.85,0-3.82,5.21-11.72,5.21-19.09,0-1.74-.61-5-6.77-5a12.11,12.11,0,0,0-10,5.73c-.61.87-2.95-.87-8.33-.87-5.21,0-7.64,1.74-8.16.87s-3.91-5.73-10-5.73S206,12.58,206,14.58c0,7.2,5.21,15.1,5.21,18.92-.61.69-6.94,8.85-18.05,8.85-19.09,0-26.73-19.52-33.59-19.52-21.26,0-150.14,89-150.14,229.64C9.46,423,168.11,597.88,231.12,597.88S452.86,423,452.86,252.47c0-140.6-129-229.56-150.14-229.56"></path><path class="cls-1" d="M46.08,209l12.15,33h7.82l12.41-33H70.21s-7.29,24-7.81,24c-.26,0-7.29-24-7.29-24ZM89.3,229l4.17-11,4,11.11H89.3Zm12.85,13.19h8.42L97.55,209H89.3l-13,33h8.07l2.78-7.2H99.46l2.6,7.29Zm184.16-13,4.34-11.28L294.56,229h-8.25Zm13,13h8.42L294.56,209h-8.07L273.3,242h8.15l2.78-7.2h12.41l2.6,7.29ZM114.91,209v33h26V235H123V209Zm32.8,0v33h26v-6.68H155.26v-7.55h16v-5.64h-16v-6.34h18.4v-6.68Zm235,0v33h7.82V227.64h15.79V222H390.46v-6.33h18.22V209Zm-200,0v33h6.94V220.53L204,242.23h8.16V209.07H204.3v22.57L190.85,208.9Zm60.57,11.89H252C252,213.93,244,209,236.24,209c-10.94,0-16.49,9.72-16.49,17.53,0,9.54,6.07,15.62,15.88,15.62,11.63,0,16.32-6.51,16.32-12.15h-8.68c0,2-1,6.94-7,6.94-5.72,0-8.85-5.21-8.85-10.41s3.13-11.46,9.11-11.46c5,0,6.95,2.6,6.95,5.82m106.23,0h8.67c0-6.95-8.07-11.89-15.79-11.89-10.94,0-16.49,9.72-16.49,17.53,0,9.54,6.07,15.62,15.88,15.62,11.72,0,16.49-6.51,16.49-12.15h-8.85c0,2-1,6.94-6.77,6.94S334,231.72,334,226.52s3-11.46,9-11.46c5.2,0,6.94,2.6,6.94,5.82m-90.09,21.26h8V209h-8Zm105.88,0h8.51v-7.81h-8.51Zm42.53,0h8.25v-7.81h-8.42Z"></path></symbol></defs><use width="462.49" height="607.52" transform="translate(36.82 1.03) scale(0.49 0.49)" xlink:href="#New_Symbol"></use></svg> 