<svg id="Logos_Patrocinadores_Web" data-name="Logos Patrocinadores Web" xmlns="http://www.w3.org/2000/svg" viewBox="0 0 300 300"><defs><style>.cls-1{fill:#8f8fa3;}</style></defs><polygon class="cls-1" points="281.68 210.7 291.7 192.29 300 192.29 286.4 217.92 276.96 217.92 263.36 192.29 271.66 192.29 281.68 210.7"/><polygon class="cls-1" points="18.32 177.44 11.73 189.55 18.32 201.67 24.91 189.55 18.32 177.44"/><polygon class="cls-1" points="18.32 210.7 28.34 192.29 36.64 192.29 23.04 217.92 13.6 217.92 0 192.29 8.3 192.29 18.32 210.7"/><polygon class="cls-1" points="64.31 198.55 44.1 198.55 44.1 202.4 63.11 202.4 63.11 207.81 44.1 207.81 44.1 211.72 64.61 211.72 64.61 217.92 36.28 217.92 36.28 192.29 64.31 192.29 64.31 198.55"/><path class="cls-1" d="M90.78,201.56v-.3a2.48,2.48,0,0,0-1-2.17,5.48,5.48,0,0,0-3.13-.72H80.43c-2.7,0-4.45.36-5.17,1s-1.14,2-1.14,4.09V207c0,1.87.42,3.13,1.26,3.79s2.53,1.08,5.05,1.08H85c2.46,0,4.09-.3,4.87-.78a3,3,0,0,0,1.2-2.77V208H99v.18c0,.79.06,1.33.06,1.69a11.21,11.21,0,0,1-.66,4.09,5.09,5.09,0,0,1-1.92,2.53,7.27,7.27,0,0,1-3.37,1.32,31.4,31.4,0,0,1-6.08.42H78.21a28.57,28.57,0,0,1-5.9-.42,8.18,8.18,0,0,1-3.25-1.5,7.2,7.2,0,0,1-2.22-3,12.29,12.29,0,0,1-.72-4.51v-7c0-3.67.9-6.26,2.64-7.7S73.64,192,78.21,192H87a38.68,38.68,0,0,1,6.2.36,7.19,7.19,0,0,1,3.13,1.26,5.23,5.23,0,0,1,1.8,2.53,11.9,11.9,0,0,1,.6,3.91c0,.42-.06.72-.06.9v.61Z"/><polygon class="cls-1" points="117.25 217.92 109.43 217.92 109.43 198.55 98.72 198.55 98.72 192.29 127.96 192.29 127.96 198.55 117.25 198.55 117.25 217.92"/><path class="cls-1" d="M145.41,192H150a35.17,35.17,0,0,1,6.5.42,7.44,7.44,0,0,1,3.43,1.39,6.3,6.3,0,0,1,2.1,2.94,15.3,15.3,0,0,1,.66,4.82v7.09a15,15,0,0,1-.66,4.82,6.38,6.38,0,0,1-2.1,2.95,7.54,7.54,0,0,1-3.43,1.38,34.33,34.33,0,0,1-6.5.42h-4.57v-6.38h2.52c2.77,0,4.52-.36,5.42-1.08s1.38-2,1.38-3.85V203.3c0-1.92-.48-3.19-1.38-3.91s-2.65-1-5.42-1h-2.52Zm-4.58,26.23a34.52,34.52,0,0,1-6.55-.42,8,8,0,0,1-3.43-1.38,6.12,6.12,0,0,1-2.11-2.89,14.47,14.47,0,0,1-.66-4.69v-7a16.56,16.56,0,0,1,.66-5.12,5.93,5.93,0,0,1,2.11-2.94,7.92,7.92,0,0,1,3.43-1.39,35,35,0,0,1,6.49-.42h4.64v6.38h-2.47q-4.24,0-5.59,1.08c-.85.66-1.33,2-1.33,4V207c0,1.87.48,3.13,1.39,3.79s2.76,1.08,5.53,1.08h2.47v6.38Z"/><path class="cls-1" d="M185,198.67h-4.81v-6.38h5.11q6,0,8.31,1.81c1.44,1.2,2.16,3.43,2.16,6.61a9.86,9.86,0,0,1-1,4.94,5.16,5.16,0,0,1-3.31,2.16,5.06,5.06,0,0,1,3.07,1.69,4.82,4.82,0,0,1,1,3.19v5.23h-7.82V214a2.63,2.63,0,0,0-.72-2.11,5.16,5.16,0,0,0-2.83-.54h-4v-6.43H185a2.78,2.78,0,0,0,2.17-.73,4.12,4.12,0,0,0,.66-2.64,3.28,3.28,0,0,0-.66-2.23A3.23,3.23,0,0,0,185,198.67Zm-4.81,0h-7.64v6.26h7.64v6.43h-7.64v6.56h-7.82V192.29h15.46Z"/><polygon class="cls-1" points="232.58 217.92 221.15 217.92 205.81 199.27 205.81 217.92 197.99 217.92 197.99 192.29 209.54 192.29 224.82 211.06 224.82 192.29 232.58 192.29 232.58 217.92"/><path class="cls-1" d="M251.23,207.45h4.93l-4.93-9v-6.2h5l13.78,25.63h-8.6L259,213.65h-7.76Zm-4.87,0h4.87v6.2h-7.88l-2.47,4.27h-8.54l14-25.63h4.87v6.14Z"/><path class="cls-1" d="M166.57,115.41,150,86.7l-16.87,29.23,16.58,30.47Zm9.36,16.2-16.07,30.3h-20.3l-15.79-29.77L100.64,172.2h98.72Z"/></svg>