<svg id="Logos_Patrocinadores_Web" data-name="Logos Patrocinadores Web" xmlns="http://www.w3.org/2000/svg" width="300" height="300" viewBox="0 0 300 300"><defs><style>.cls-1{fill:#8f8fa3;}.cls-2{fill:#fff;}</style></defs><path class="cls-1" d="M300,300H0V0H300ZM81.68,196.3c1.09,7.22,2,13.43,3,19.77,8.94,0,17.44-.18,25.92.09,3.25.11,4.86-1.12,6.39-3.78Q148.77,157,180.76,101.7c.58-1,1-2.09,1.76-3.58-10.3,0-19.91.08-29.53-.06-2.47,0-3.76.83-5,2.94q-15.54,26.72-31.3,53.3c-.84,1.44-1.77,2.84-3.12,5-1-5.54-2-10-2.44-14.59-.3-3.14-1.64-3.88-4.55-3.82-7.49.17-15,.19-22.49,0a6.56,6.56,0,0,0-6.44,3.3c-3,4.63-6.36,9-9.56,13.54l-.78-.33q-1.42-29.49-2.84-59H35.06c2,39.32,4,78.32,6,117.67,8.41,0,16.38-.09,24.35.05a5.12,5.12,0,0,0,5.14-2.72C74,207.9,77.6,202.55,81.68,196.3Zm41.49,19.49c1.33.12,2.15.27,3,.27,25.5,0,51,0,76.49.07A4.43,4.43,0,0,0,207,213.5c4.47-7.8,9-15.54,13.55-23.32a32.76,32.76,0,0,0,1.36-3.11H173.29c2.76-4.82,5.27-8.95,7.51-13.22,1.26-2.41,2.86-3.29,5.6-3.26,14,.13,28,0,42,.1,2.36,0,3.89-.55,5.12-2.76,4.49-8.07,9.2-16,13.8-24a22,22,0,0,0,1.11-3.08H200.23c2.35-4,4.48-7.32,6.36-10.8a4.32,4.32,0,0,1,4.45-2.5c10.74.1,21.49.06,32.24,0,4.49,0,9.81,1.3,13.23-.65s4.94-7.22,7.21-11.09c3.31-5.66,6.54-11.37,10-17.43-1.32-.13-2-.26-2.74-.26-25.87,0-51.74,0-77.61-.07-2.55,0-3.43,1.32-4.46,3.12q-26.85,46.79-53.75,93.53C131.21,201.58,127.31,208.51,123.17,215.79Z"/><path class="cls-2" d="M81.68,196.3C77.6,202.55,74,207.9,70.6,213.4a5.12,5.12,0,0,1-5.14,2.72c-8-.14-15.94-.05-24.35-.05-2-39.35-4-78.35-6-117.67H64.49q1.42,29.5,2.84,59l.78.33c3.2-4.5,6.55-8.91,9.56-13.54a6.56,6.56,0,0,1,6.44-3.3c7.49.2,15,.18,22.49,0,2.91-.06,4.25.68,4.55,3.82.44,4.56,1.48,9,2.44,14.59,1.35-2.16,2.28-3.56,3.12-5Q132.4,127.68,148,101c1.22-2.11,2.51-3,5-2.94,9.62.14,19.23.06,29.53.06-.73,1.49-1.18,2.57-1.76,3.58Q148.84,157,117,212.38c-1.53,2.66-3.14,3.89-6.39,3.78-8.48-.27-17-.09-25.92-.09C83.7,209.73,82.77,203.52,81.68,196.3Z"/><path class="cls-2" d="M123.17,215.79c4.14-7.28,8-14.21,12-21.1q26.87-46.77,53.75-93.53c1-1.8,1.91-3.13,4.46-3.12,25.87.11,51.74.06,77.61.07.71,0,1.42.13,2.74.26-3.47,6.06-6.7,11.77-10,17.43-2.27,3.87-3.81,9.14-7.21,11.09s-8.74.63-13.23.65c-10.75,0-21.5.07-32.24,0a4.32,4.32,0,0,0-4.45,2.5c-1.88,3.48-4,6.84-6.36,10.8h48.19a22,22,0,0,1-1.11,3.08c-4.6,8-9.31,16-13.8,24-1.23,2.21-2.76,2.77-5.12,2.76-14-.09-28,0-42-.1-2.74,0-4.34.85-5.6,3.26-2.24,4.27-4.75,8.4-7.51,13.22h48.63a32.76,32.76,0,0,1-1.36,3.11C216.05,198,211.48,205.7,207,213.5a4.43,4.43,0,0,1-4.38,2.63c-25.5-.09-51-.06-76.49-.07C125.32,216.06,124.5,215.91,123.17,215.79Z"/></svg>