<svg id="Logos_Patrocinadores_Web" data-name="Logos Patrocinadores Web" xmlns="http://www.w3.org/2000/svg" viewBox="0 0 300 300"><defs><style>.cls-1{fill:#8f8fa3;}.cls-2{fill:#fff;}</style></defs><path class="cls-1" d="M294,232.67l.65-.63c1.88-.19,3.7-.18,4.8,1.76-.2.25-.11,1.36-.71.47-1.08-1.59-2.54-1.68-4.16-1.56C294.39,232.94,294.2,232.93,294,232.67Z"/><path class="cls-1" d="M156,60.07l1.93,1.14a1.48,1.48,0,0,1-.69.57c-6.3,1.91-12.1,5-18.13,7.58-7.59,3.22-15,6.78-22.61,10.06a5.11,5.11,0,0,1-2.27.63,1.26,1.26,0,0,1-1-.91Q131.38,71,149.51,62.88c2-.89,3.92-1.87,5.88-2.81Z"/><path class="cls-1" d="M118.76,205.67c-5.17,3.15-10.61,2.41-16,1-1.53-.41-2.29-1.78-2.64-3.34a17.78,17.78,0,0,1,.15-7.95A4.15,4.15,0,0,1,103.3,192c5-1.07,10-1.68,14.88.52a9.21,9.21,0,0,1,2.1,4.83c.15,1.49-.08,2.44-2,2.37a92.14,92.14,0,0,0-11.63.28c-1,.09-2.41-.42-3,.81a2.61,2.61,0,0,0,1,3.4l3,1.13c2.89.85,5.53.05,8.1-1.2l0,0c.12-.16.25-.3.36-.46a2.2,2.2,0,0,1,3-.79C120.47,203.8,118.9,204.73,118.76,205.67Z"/><path class="cls-1" d="M38.89,221.51c1.54-4.94,3.77-9.6,5.68-14.38a1.81,1.81,0,0,1,2-1.31c.5,0,1,0,1.5,0,5.19,0,5.11,0,6.83,4.74q5.11,14,10.41,27.9c.77,2,.74,2.62-1.72,2.78-3.13.2-4.52-.83-5.5-3.83C55.78,230.14,53,223,50.31,215.86A5.62,5.62,0,0,0,48.78,213l-6.32,15.13c-.57,0-.77-.33-.9-.78,0-2.62,1.75-4.64,2.37-7,1.14-2.39,1.75-5,3-7.35.54-1,.84-2.47,2.34-2.34,1.29.11,1.55,1.45,1.92,2.44,2.75,7.45,5.45,14.92,8.24,22.36.58,1.56.95,4.44,3,3.57s.06-3.06-.49-4.52c-3-8-6-16-9-24-1-2.79-3.56-4-5.86-2.79-1.56.79-1.71,2.6-2.54,3.92-.87,1.68-1.26,3.56-2.09,5.26-1.06,1.54-1,3.7-2.77,4.86A1,1,0,0,1,38.89,221.51Z"/><path class="cls-1" d="M38.89,221.51l.69,0c.75,1,.19,1.9-.19,2.75-1.46,3.31-2.6,6.75-4.07,10.05a1.86,1.86,0,0,1-.11.27c-.6,1.05-.7,2.77-2.33,2.64-1.4-.11-1.4-1.69-1.88-2.72-.13-.26-.21-.54-.34-.81-1.81-5.44-4.31-10.62-6.11-16.07-.5-1.7-1.33-3.27-1.84-5-.32-1.05-.71-2.07-1.11-3.09a3.39,3.39,0,0,0-3.49-2.26,3.34,3.34,0,0,0-3.5,2.2c-2.95,6.76-5.66,13.61-8.52,20.4-1,2.3-1.91,4.6-2.94,6.87-.32.71-1.19,1.75,0,2.32a2,2,0,0,0,2.54-1.06c.66-1,.71-2.3,1.3-3.33,1.16-2,1.24-4.67,3.37-6.17.52.14.78.41.5,1-1.3,3.43-2.57,6.87-3.94,10.26-.48,1.21-6,2-6.74,1.08-.42-.55,0-1.1.19-1.66Q7,223.26,13.55,207.28a2,2,0,0,1,2.26-1.46,7.14,7.14,0,0,0,1.79,0c3.51-.69,4.95.93,6.06,4.2,2.8,8.23,6.08,16.3,9.38,25Z"/><path class="cls-1" d="M86.92,238.24a7.76,7.76,0,0,1-6,2.38,17.7,17.7,0,0,0-6.53,0c-2.19.1-4.15-.31-5.38-2.36a24.62,24.62,0,0,1-.35-5.81c0-3.74.6-4.5,4.4-5.8a.29.29,0,0,0,.13-.25c0-.07-.11-.14-.17-.2,4.83-.79,9.63-1.37,13.89,1.95,1.38,7,.46,5.56-4.7,5.64-.3,0-.6,0-.89,0-1-1.79,1-1.28,1.45-2,1.1-1.8.66-3.07-1.51-3.36-2.38-.31-4.86-.66-7.2.39A2,2,0,0,1,73,230.22c-1.36,1.16-.09,1.33.65,1.69s2.18.17,1.94,1.73c-3.42.27-4.3,1.15-3.24,3.23a2.84,2.84,0,0,0,2.34,1.59c2.28.07,4.61.61,6.86-.27L84.05,236C85,236.71,87.84,235.12,86.92,238.24Z"/><path class="cls-1" d="M238.46,194a.42.42,0,0,1-.28-.43c-3.89-1.44-7.72-2.36-11.25.87a1.71,1.71,0,0,1-2.43.11c-1.19-1.46.38-2.24,1.15-3.17l2-.38a46,46,0,0,1,11.19,0l-.06,0c2.85.39,3.58,2.31,3.62,4.83,0,3-.15,5.91-.29,8.87-.06,1.4-.88,2-1.85,1.51-2-1-3.91-.1-5.72.3-3.45.77-6.65.07-9.89-.82-2.62-2.89-2.52-5.34.33-8.11h0c1.58-.4,3.15-.78,2.55,1.83-1,3.62-.41,4.53,3.23,4.58a16,16,0,0,0,5-.25,8.42,8.42,0,0,0,2.39-1.35c1.16-1.23-.37-2.39-.09-3.6.25-.49.8-.75,1-1.29C238.91,196.32,239.75,195,238.46,194Z"/><path class="cls-1" d="M274.26,228a12.57,12.57,0,0,1,0,7.95c-.57-.56-.32-1.26-.33-1.65,0-.66-.54-.05-.19-.25.11-.06.14,0,.15.23.2,2.5-1.08,3.79-3.41,4.44-2.66.73-5.34.25-8,.42a10.69,10.69,0,0,0-3.24.2c-.86-.29-1.85-.27-2.5-1.05-2.1-3.26-1.63-6.72-.83-10.21.37-1.62,1.65-2,3.06-2.28,3.59-1.06,7.23-.72,10.88-.39C271.78,225.61,272.73,227.28,274.26,228Z"/><path class="cls-1" d="M197.36,78.75c4.83,2.09,9.66,4.17,14.48,6.28,2.12.92,3,2.35,3,4.85-.18,13.92-.14,27.84-.19,41.76,0,.87.23,1.8-.37,2.59a.66.66,0,0,1-.92-.15c-.79-1.28-.54-2.71-.54-4.08,0-13,0-26.08,0-39.13,0-3.79,0-3.79-3.61-2.3-6.81,2.83-13.43,6.11-20.25,8.93-1.1.45-2.17,1.12-3.39.36-.14-2.25,1.92-2.21,3.16-2.76,6.65-2.91,13.2-6,20.32-9.09-4.09-2.68-8.73-3.52-12.29-6.32C196.56,79.13,196.91,78.9,197.36,78.75Z"/><path class="cls-1" d="M207.51,231a2.21,2.21,0,0,1,1.93-.43,19.7,19.7,0,0,0,6.5,0l1.47.35c0,1.68-1.46,1.3-2.38,1.47a26.67,26.67,0,0,1-3.79.11c-.39.14-.42.52-.53.84-.41.61-1.07.64-1.69.74-2,.93-.78,1.94.07,2.63,1.67,1.35,7.85,1,9.39-.46.55-.52,1.24-1.2.05-1.84-1-.27-2.16-.09-2.68-1.29.13-.78,1-.73,1.38-1.18a5,5,0,0,0,.47-1l1.22,0c.94-2.34.46-3.77-1.68-3.68-3.1.13-6.54-1.42-9.3,1.47a1.44,1.44,0,0,1-2.27-.46c-.37-1,.53-1.79,1.32-2a28.6,28.6,0,0,1,5.54-.91c3-.25,5.86.58,8.8.45a1.48,1.48,0,0,1,1.21,1.09c.76,3.44-.12,6.89,0,10.33.05,1.09-.47,2.37-1.61,1.91-2.48-1-4.63.4-6.93.53a25.67,25.67,0,0,1-5-.29c-2.13-.28-4.2-.76-4.62-3.37S205.41,232,207.51,231Z"/><path class="cls-1" d="M108.68,240.14c-4.3.77-8.59,1.28-12.77-.58-2.51-2.47-2.1-5.63-2-8.67.1-2.39,1.91-3.59,3.73-4.7a2,2,0,0,1,2-.37,27.21,27.21,0,0,0,7.7,0,2.09,2.09,0,0,1,2,.4c.4,1.14,1.81.94,2.44,1.83s1.16,1.65.42,2.38a1.66,1.66,0,0,1-2.61-.21c-2.74-3.95-6.6-2.18-10.12-2A2.17,2.17,0,0,0,97.37,230a22.34,22.34,0,0,0,0,6.22,2.15,2.15,0,0,0,.7,1.29c2.06,2,9.7,1.25,11.13-1.22.79-1.37,1.82-1.79,2.85-1s.16,1.92-.47,2.8S109.42,239.17,108.68,240.14Z"/><path class="cls-1" d="M157.25,228l-4.28,0c-3.06-.12-4.35.89-4.47,3.67-.09,2.07,0,4.15,0,6.23,0,.94,0,1.79-1.34,1.81s-1.9-.42-1.92-1.68c-.06-3.37-.08-6.74,0-10.1,0-2,1.34-2.49,2.81-1.72a3,3,0,0,0,3.31-.19c2.26-.12,4.53,0,6.79-.07a4.9,4.9,0,0,1,4,1.48c1.49,3.63.44,7.43.7,11.14.08,1.13-.84,1.12-1.67,1.12-1.08,0-1.3-.62-1.29-1.54,0-2.27.12-4.56,0-6.83C159.76,229.79,159.75,227.87,157.25,228Z"/><path class="cls-1" d="M213.62,153.48c-8.61,4.58-17.67,8.21-26.5,12.35-9.19,4.31-18.49,8.42-27.74,12.63-1.74.8-3.4,1.57-5.4.64-8.95-4.13-17.92-8.19-26.89-12.28A.67.67,0,0,1,127,166c3.56,0,6.32,2.16,9.34,3.49,5.38,2.35,10.86,4.54,16.07,7.3a6.75,6.75,0,0,0,6.3.11c15.69-6.94,31.24-14.19,46.88-21.24,2.6-1.17,5-2.88,8-3A.58.58,0,0,1,213.62,153.48Z"/><path class="cls-1" d="M139.57,194.08c-3-.87-5.81-1.12-8.13,1.49-.78,2.94-.18,5.92-.34,8.88-.08,1.4.17,3.06-1.94,3-1.86-.09-1.65-1.64-1.66-2.93,0-3.38-.06-6.77,0-10.15.07-2.93.94-3.48,3.59-2.23,1.15.55,1.82-.2,2.69-.51l-.05,0a20.47,20.47,0,0,1,7.28,0l0,0a3.52,3.52,0,0,1,2.54,2.61c.17.86.77,2.07-.7,2.44-1,.25-2,.24-2.24-1.17A1.78,1.78,0,0,0,139.57,194.08Z"/><path class="cls-1" d="M173.39,192.51c3.2-2.51,7-1.45,10.6-1.78a20.71,20.71,0,0,1,5.59.71,3.14,3.14,0,0,1,2.31,2.49c.16.5,0,1.1-.62,1.09-1.13,0-2.25.38-3.39-.48-3.27-2.47-7-1.3-10.53-.87-1.49.18-1.07,1.87-1,3,.26.76,1.36.84,1.42,1.77a.88.88,0,0,1-.55.72,7,7,0,0,1-3.31-.35l0,0C171.88,196.92,172.22,194.75,173.39,192.51Z"/><path class="cls-1" d="M95.76,186.3q-1.07,2.82-2.14,5.65c-1.06,3.15-2.38,6.19-3.6,9.28v0c-.87,1.44-1.06,3.16-1.93,4.62-1.45,2.44-4.15,2.39-5.72-.16a2.4,2.4,0,0,1,1.43-2.23c1,0,1.91.23,2.43-1.32,1.46-4.36,3.25-8.61,4.92-12.91h0c1-1.61.76-4.54,4-3.85a2.34,2.34,0,0,1,.8.29c.33.2.49.46.15.25A.89.89,0,0,1,95.76,186.3Z"/><path class="cls-1" d="M107.4,158a23.94,23.94,0,0,0-4.38-1.87c-4.92-1-5.53-4.18-5.56-8.67-.14-15.19-.38-30.37-.2-45.56a1.11,1.11,0,0,1,1.06-.05c1.25,1.21.89,2.78.89,4.23,0,14.23.08,28.46,0,42.69,0,2.78.64,4.48,3.5,5.33a8.79,8.79,0,0,1,4.82,2.84A1.11,1.11,0,0,1,107.4,158Z"/><path class="cls-1" d="M299.47,232.8c1.3,4.11.35,5.56-4.34,6.58a46.44,46.44,0,0,0-10.07,0,6,6,0,0,1-3.23-.94c-1.37-3.07-1.34-3.12,2-3.73a5.62,5.62,0,0,0,2.5,2.25,13,13,0,0,0,7,0c.82-.69,2.65-.36,2.37-2.14s-1.9-1.34-3.09-1.5c-1.56-.21-3.19.3-4.71-.4,1.55-1.57,3.66-.45,5.4-1.11a4.11,4.11,0,0,1,1.23-.39C296.42,231,298,231.79,299.47,232.8Z"/><path class="cls-1" d="M131.44,228l-6.08,0c-.74-.51-1.31-.08-1.79.41-.86.89-1.95,1.8-3,.74-1.29-1.34.57-2,1.11-2.94a1.87,1.87,0,0,1,1.93-.46,43.91,43.91,0,0,0,10.12,0,2,2,0,0,1,1.94.45c3.11,3.91,1.33,8.41,1.16,12.58-.08,2-2.24.72-3.46,0a1.75,1.75,0,0,1-.56-.68c-.35-1.24.14-2.47.07-3.71a1.37,1.37,0,0,0,.08-1.33,1.93,1.93,0,0,1,.23-.75C134.37,228.77,134.07,228,131.44,228Z"/><path class="cls-1" d="M175.46,206.6l-1.47-.29c-.17-.51-.67-.73-1-1.12-.61-.84-1.09-2-.23-2.67a1.76,1.76,0,0,1,2.94.63l.44,1c3,1.48,6.24.89,9.37.8,1,0,2.47-.21,2.85-1.7-.2-.95.39-2.06-.57-2.86a1.08,1.08,0,0,1-.93-1.07c0-.65-.12-1.44.94-1.42,1.09.28,2.19.51,3.25.89a.47.47,0,0,1,.29.28c1.53,3.33,1.32,4.54-1.19,6.9l0,0C185.36,207.62,180.4,206.82,175.46,206.6Z"/><path class="cls-1" d="M189.53,234.1c-.23,1.41-1.83,1.67-2.67,3a72.33,72.33,0,0,0,9.65,0c1.1,0,2.59-.42,2.63,1.48s-1.5,1.46-2.58,1.48q-6.72.06-13.43,0c-.88,0-2.13.51-2.42-1a2.33,2.33,0,0,1,1.23-2.75c1.8-1,3-3,5.29-3.06a1.1,1.1,0,0,1-.26,1.27,31.26,31.26,0,0,1-2.63,1.94c-.57.38-1.25.89-1,1.66s1.09.7,1.8.61c3.26-.4,6.54,0,9.46-.17-2.52-.05-5.39,0-8.26,0-.83,0-1.94.53-2.3-.69-.32-1.06.66-1.53,1.36-2.06.4-.3.81-.58,1.22-.87C187.57,234.53,188.24,233.28,189.53,234.1Z"/><path class="cls-1" d="M211.82,203.91c.56-.63.51-1.46.74-2.19.53-1.65,2-.94,3-.88,1.37.08.93,1.25.85,2.08-.13,1.36-1.28,2.09-2,3.08a21.49,21.49,0,0,1-10.14.59,2.34,2.34,0,0,1-2.72-2.06,11.28,11.28,0,0,1-.3-4c1.64-1.49,2.07.21,2.83,1C205.58,204.79,207.82,205.47,211.82,203.91Z"/><path class="cls-1" d="M108.68,240.14l-1.63-.28c1.84-.62,3.41-1,4.39-2.32.48-.66,1.15-1.4.21-2-.71-.46-1.33-.16-1.9.71-1.72,2.62-9.11,3.86-11.57,1.87-2.61-2.1-1.68-5.14-1.33-7.8.3-2.23,2.23-3,4.31-2.78,3.09.27,6.75-1.36,8.85,2.54a1.17,1.17,0,0,0,1.85.07c.5-.52.16-1.11-.23-1.6-.72-.9-1.85-1.11-2.75-1.68s.31-.4.45-.66a4.06,4.06,0,0,1,3,1.81c.55.86,1.49,2.3.57,2.84a2.82,2.82,0,0,1-4-.56c-1.73-2.33-8.23-3.22-10.2-1.2s-.93,4.75-.75,7.12c.14,1.85,2.1,2,3.55,1.92,2.89-.12,6.29,1.06,7.8-3.07.39-1.05,2.28-.69,3.29-.3s.4,1.64.14,2.38A4.5,4.5,0,0,1,108.68,240.14Z"/><path class="cls-1" d="M254.3,206.5l-1.7-.81c-.85-1.74-1.91-3.42-1.44-5.49,2.24-1.31,2.67.51,3.35,1.91a2.7,2.7,0,0,0,2,2.09c2.59-.13,5.72,1.05,6.48-3.15.16-.88,1.77-.46,2.7-.37s.8,1,.73,1.63c-.18,1.74-.66,3.31-2.74,3.67C260.59,206.75,257.41,206,254.3,206.5Z"/><path class="cls-1" d="M174.54,232.73c0,1.68-.06,3.37,0,5.05.07,1.51-.2,2.41-2.07,2.4s-2.17-.77-2.13-2.34c.08-3.17,0-6.34.06-9.52,0-1.48,0-2.93,2.32-2.87s1.94,1.45,2,2.82,0,3,0,4.45Z"/><path class="cls-1" d="M153.66,200.15c0,1.59,0,3.18,0,4.77,0,1.36.14,2.46-1.91,2.44s-2.31-.8-2.26-2.5q.28-9.08.37-18.17c0-1.58.33-2.32,2.13-2.31s1.78,1.07,1.77,2.31c0,3.34,0,6.68,0,10,1.75.29,2.13-1.75,3.57-1.54.07,1.67-1,2.4-2.37,3-2.16.31-2.68-1-2.8-2.76-.13-2.74.19-5.51-.43-8.25-.32,5.76-.3,11.51,0,17.28.79-1.52.13-3.29,1-4.77a.77.77,0,0,1,.85-.33A.58.58,0,0,1,153.66,200.15Z"/><path class="cls-1" d="M290.33,230.63c1.47-.06,3-.5,4.34.41a2.13,2.13,0,0,1-1.05,1c-2.43.59-4.94-.1-7.38.43-2.15.29-4-.08-5.1-2.23,0-4,.24-4.11,4.25-4.95s7.71,0,11.57-.1a2.08,2.08,0,0,1,1.79,1.14c0,2.18-.88,2.77-2.78,1.6-3.18-1.95-6.51-1.44-9.86-1-1.18.17-2.1.78-2,2.17s1.12,1.72,2.34,1.65A16.7,16.7,0,0,0,290.33,230.63Z"/><path class="cls-1" d="M42,227.45l.51.63c-1.49,3.79-3,7.55-4.45,11.37a2.37,2.37,0,0,1-2.71,1.73c-7.69-.31-5.95,1.65-8.86-6.18-1.07-2.88-2.05-5.79-3.08-8.68a.91.91,0,0,1,.84-.26c2.17,1.93,2.45,4.77,3.54,7.22a12.89,12.89,0,0,0,.77,2.24c.73,2.14,1.51,3.85,4.44,3.89s4-1.51,4.76-3.86c.17-.57.44-1.1.61-1.67C39.46,231.69,39.45,228.86,42,227.45Z"/><path class="cls-1" d="M133.16,237.59l0,.72c.13,1.45-.93,1.37-1.86,1.45a1.36,1.36,0,0,1-.82-.09c.26.28.77.05,1,.47a19.34,19.34,0,0,1-9.17,0,.94.94,0,0,1,.86-.35c-1.72.47-3.18-.62-4-2.46-1.07-2.38.23-4.17,1.89-5.75.54-.67,1.27-.46,2-.41.37.21.78.37.92.83a1.83,1.83,0,0,1-.18,1.24c-1.76,2.9-1.13,4.31,2.17,4.8a7.24,7.24,0,0,0,3.8-.34C130.87,237.43,132,236.78,133.16,237.59Z"/><path class="cls-1" d="M207.51,231c.34,1.3-1,.69-1.44,1.24-.94,1.24-1.73,2.43-1.23,4.06a3.63,3.63,0,0,0,3,2.51,18.14,18.14,0,0,0,10.76-.67c.09,0,.2-.14.26-.12,5,1.73,2.45-2.33,3.12-4,.95-2.33-.2-4.79.52-7.12,1.52,3.95.38,8,.55,12.05,0,1-1.16,1.21-1.83.95-3.12-1.22-6.13.55-9.21.17a30.48,30.48,0,0,1-5-.55c-2.43-.7-3.25-2.32-3.11-4.71S205,231.11,207.51,231Z"/><path class="cls-1" d="M82.71,205.32c.13,1.58,1.14,1.86,2.51,1.86a2.55,2.55,0,0,0,2.6-1.51c.79-1.47.78-3.33,2.21-4.46,0,1.85-1.15,3.34-1.64,5-.56,1.91-2.07,1.46-3.42,1.54s-2.41-.07-3-1.68c-2.06-5.58-4.3-11.08-6.6-16.92l-5.13,12.11a1.42,1.42,0,0,1-.53-.74c.38-4.18,2.63-7.75,3.91-11.64,1.74-2.18,1.81-2.17,3.61.24,1.21,4,3,7.75,4.34,11.67C82,202.31,82.82,203.7,82.71,205.32Z"/><path class="cls-1" d="M24.05,226.31h-.69c-1.74-4.45-3.47-8.9-5.39-13.79-2.5,6-4.8,11.49-7.1,17l-.61-.81a2.53,2.53,0,0,1,.13-2.54c2.13-4.57,3.77-9.33,5.73-14,.36-.84.77-1.74,1.83-1.67,1.44.1,1.71,1.45,2.27,2.45.86,2.41,1.52,4.9,2.54,7.25C23.34,222.23,25.21,224,24.05,226.31Z"/><path class="cls-1" d="M151.19,226.3c-1.09.35-1.84,2.86-3.41.37a1.07,1.07,0,0,0-1.9.79c-.1,3.58,0,7.16,0,10.74a1.06,1.06,0,0,0,1.07,1.18c.9.05,1.27-.46,1.27-1.27,0-2.29,0-4.58,0-6.87.08-2.78,2-4,4.77-3.18-3.05.3-4.3,2.07-4.2,5,.06,1.58,0,3.17,0,4.75s-.13,2.42-2,2.41-2.16-.64-2.1-2.27c.12-3.16,0-6.34.06-9.5.08-2.86,1-3.61,3.7-2.57a4.08,4.08,0,0,0,2.77-.08c.2.11.27.21.2.32S151.26,226.3,151.19,226.3Z"/><path class="cls-1" d="M192.6,228.71c-1.91-1.2-4-.29-6-.59-1.61-.24-3.35.59-4.85-.56.48-.67.61-1.58,1.85-1.56,4.79.09,9.57,0,14.36.06a1.37,1.37,0,0,1,1.16.81.88.88,0,0,1-.53,1.18c-1.93.27-2.86,2.28-4.7,2.71a2.07,2.07,0,0,1-1.4-.81.72.72,0,0,1,.26-.78,6.73,6.73,0,0,1,.73-.44C193.18,228.71,192.88,228.91,192.6,228.71Z"/><path class="cls-1" d="M224.46,205.3a20.36,20.36,0,0,0,13.37,0c.36-.13.89-.46,1.08-.33,4.16,2.88,2.69-1,2.85-2.47.22-1.95-.09-4,.1-5.92.27-2.65-.41-4.62-3.07-5.59,2.69-.21,3.9,1.34,4,3.71.08,3.56-.11,7.12-.16,10.67,0,1.86-1.54,1.53-2.35,1.26-2-.68-3.77,0-5.65.28a17.4,17.4,0,0,1-10.17-1.09c-.17-.13-.22-.24-.15-.36S224.4,205.3,224.46,205.3Z"/><path class="cls-1" d="M221.33,225.85c-.76.76-1.68.51-2.53.29-3.67-.93-7.3-.19-10.94.24a2.2,2.2,0,0,0-1.77,1.42.79.79,0,0,0,.3.71c.86.35,1.4-.09,2-.71,1-1,9.29-1.38,10.38-.54a3.51,3.51,0,0,1,1.16,4.28c-.52,1.18-.93.17-1.05-.54.5-2.47-.57-3.58-3-3.43s-5.31-.85-7.6,1.52c-.64.67-2.8,1.09-3.34-.33s.64-2.69,2.19-3A31.77,31.77,0,0,1,221.33,225.85Z"/><path class="cls-1" d="M239.27,198.24c-.21.53-.69.57-1.16.61a3.53,3.53,0,0,1-2.06,1.07c-2.82-.46-5.64.05-8.46,0a1.47,1.47,0,0,1-.76-.56c1.21-2.46-1-1.42-1.85-1.8,3.72-1.83,7.57-1.19,11.41-.59C237.26,197.61,238.42,197.57,239.27,198.24Z"/><path class="cls-1" d="M81.52,238.19c-2,1.13-7.65,1-9-.34a3.44,3.44,0,0,1-1-3.55c.42-1.34,1.68-.66,2.58-.81a14.91,14.91,0,0,1,1.5-.09,5,5,0,0,1,5.38,0c5.61.22,5.61.22,6-5.26a8,8,0,0,1,.63,1.32c1.08,4,.61,4.66-3.52,4.65-3.1,0-6.2-.05-9.3,0-.83,0-2.2-.68-2.36.94s.57,2.85,2.23,3C76.91,238.27,79.22,238.17,81.52,238.19Z"/><path class="cls-1" d="M133.8,191.58c-1.17,0-1.77,3.84-3.62.39-.53-1-2.14.07-2.18,1.32-.14,4.15-.11,8.31-.1,12.46a1.22,1.22,0,0,0,1.37,1.25,1.34,1.34,0,0,0,1.46-1.5c0-2.18,0-4.35,0-6.53,0-1.16-.24-2.41.69-3.39,0,3.35-.09,6.71,0,10.07,0,1.65-.75,2-2.17,2s-2.08-.56-2-2.12c.1-3.95.16-7.91,0-11.87-.11-2.87,2-3.18,3.39-2.28S132.8,191.21,133.8,191.58Z"/><path class="cls-1" d="M244.71,225.54c0-1.39,0-2.78-.12-4.15-.13-1.64.43-2.26,2.17-2.25s1.85,1,1.83,2.27c-.08,5.15-.12,10.29-.18,15.44,0,3-.34,3.2-3.71,2.23-.22-.55-.94-.89-.72-1.63a1,1,0,0,1,1.51-.44c1.19.52,1.42-.22,1.44-1.1.07-4.71.07-9.41-.23-14.12-.69,1.38-.25,2.9-.63,4.29-.48,1.76-1.26,2.61-2.62.56C243.45,225.8,244.62,226.28,244.71,225.54Z"/><path class="cls-1" d="M244.71,225.54c.06.65-.34.79-.88.79a3.07,3.07,0,0,1-.85.47c-2.69-.09-5.39-.68-8.07.13-2.68.23-3.8,1.68-3.76,4.35a26.65,26.65,0,0,0,.7,6.48.77.77,0,0,1-.44.73c-2.37-2.2-3-6.51-1.63-10.12,1.17-3,3.77-3.26,6.4-3.25C239,225.13,241.87,225.39,244.71,225.54Z"/><path class="cls-1" d="M104.67,204.22c-1.85-.58-1.58-2.11-1.39-3.43.24-1.68,1.74-1.36,2.86-1.37,3.68,0,7.37,0,11,0,2.94,0,3.28-.42,2.4-3.34-.37-1.22-.94-2.38-1.41-3.56,2.54,1.45,2.35,3.92,2.33,6.32,0,1.59-1.23,1.27-2.15,1.29-3.7.1-7.39.17-11.09.23C103.32,200.43,103.29,200.46,104.67,204.22Z"/><path class="cls-1" d="M70.15,200.66l.08.63a36.86,36.86,0,0,0-1.35,3.91c-.58,2.5-2.31,2.62-4.46,2.71-2.33.1-2.52-1.5-3.05-2.92-1.55-4.17-3-8.37-4.57-12.56a.57.57,0,0,1,.7-.29c2.33,2.69,2.67,6.28,4.22,9.33.32.61.45,1.3.71,1.94.5,1.27.81,2.76,2.55,2.91,2,.16,2.26-1.56,2.89-2.85C68.58,202.5,68.32,200.72,70.15,200.66Z"/><path class="cls-1" d="M211.82,203.91c-3.35,2.19-6.69,1.27-7.91-2.16a12.39,12.39,0,0,1-.27-8.65c1.11-1.36,2.68-1,4.13-1.08,2.08-.09,4.16.12,6.22-.15a1,1,0,0,0,.65-.94c1.19-.66,1.35.09,1.41,1s-.53,1.37-1.48,1.37c-2.59,0-5.18,0-7.77,0-.89,0-1.92-.13-1.94,1.21-.05,2.48-.13,5,0,7.44a2.27,2.27,0,0,0,2.56,2.3A14.43,14.43,0,0,0,211.82,203.91Z"/><path class="cls-1" d="M290.33,230.63c-1.27.86-2.7.32-4.06.46-1.17.11-2.21-.13-2.44-1.56s.4-2.68,1.87-2.87c3.42-.46,7-1.25,10.14.73,1.71,1.07,2.41.63,2.91-1,.5.65,1.07,1.64.38,2.11a3.26,3.26,0,0,1-3.43,0c-3-2.06-6.24-1.32-9.46-1.06-1.06.08-1.77.54-1.7,1.63s.87,1.43,1.9,1.43C287.74,230.49,289,230.58,290.33,230.63Z"/><path class="cls-1" d="M157.25,228c2-.26,2.78.36,2.91,2.61s0,4.55,0,6.82c0,.84-.21,1.92,1.15,2s1.24-1,1.2-1.9c-.12-3.34.49-6.71-.52-10,.16-.24.31-.25.44,0,2,3.89.43,8,.57,12,0,1.11-1.67.52-2.58.59-1.14.1-1.13-.64-1.1-1.56.1-2.38.09-4.77,0-7.16C159.39,229.86,159.24,228.34,157.25,228Z"/><path class="cls-1" d="M131.48,240.14l-2.26-.32c1.52-.65,3.22.13,4-1.51,3.49,1.72,3.56,1.68,3.57-2.22,0-1.77,0-3.54,0-5.31,0-1.52-.08-2.85-1.59-3.83-.86-.56.24-.52.49-.72a4.48,4.48,0,0,1,2.14,4,27,27,0,0,1-.06,3c-.12,2.17.38,4.72-.6,6.42C136.07,241.55,133.38,239.12,131.48,240.14Z"/><path class="cls-1" d="M155.34,197.56l2-2.4,2.61-2.35c1.11,0,1.92-2.19,3-.86s-1,2-1.54,2.94c-.3.48-1,.66-1.2,1.25-.52,1-2,.87-2.36,2.05C156.8,198.78,155.78,199.33,155.34,197.56Z"/><path class="cls-1" d="M113.26,79.14l.73.54c-3.09,3-7.4,3.76-11,5.76-1,.53-2,.81-2.74,1.75a2.42,2.42,0,0,1-2.08.23,1.39,1.39,0,0,1-.78-1C102.37,83.4,107.87,81.39,113.26,79.14Z"/><path class="cls-1" d="M297,225.21a2.76,2.76,0,0,1-3,.41c-3.19-1.06-6.26.15-9.37.24-2.87.08-3.39,2.21-3.13,4.63a.92.92,0,0,1,0,1.32c-1.81-4-.86-5.94,3.21-6.75A27.81,27.81,0,0,1,297,225.21Z"/><path class="cls-1" d="M251.53,200c-.58,2.08.79,3.8,1.07,5.73-2.4-1.94-1.55-4.68-1.89-7.16-.29-2.05,1.87-5.14-2.17-5.86-.13,0-.22-.52-.24-.8a2.66,2.66,0,0,1,.07-.84c2.85,0,1.77-3.45,3.61-4.06.79-.27,2.13-.74,2.9.49a3,3,0,0,1-.67.5c-2.41,1.21-3,2.66-2.25,5.19a8.57,8.57,0,0,1,.28,2C252.17,196.8,252.6,198.49,251.53,200Z"/><path class="cls-1" d="M274.26,228l-.14,1.28c-4.05-5.8-9.72-3.33-14.95-3.05-.24-.22-.63-.26-.74-.63a23,23,0,0,1,12.59-.34A4.32,4.32,0,0,1,274.26,228Z"/><path class="cls-1" d="M155.34,197.56c.65.92,1.62.59,2.49.63a.23.23,0,0,1,0,.32c.68,1.2,2.36,1.63,2.55,3.22a2.18,2.18,0,0,1-1.37,1,1.68,1.68,0,0,1-1.23-.3h0c-1.4-1-2.38-2.55-4.14-3.06a2.5,2.5,0,0,0-.55,0c-1.38-1.3-2.32-2.62-.16-4.06C152.79,197,153.37,198,155.34,197.56Z"/><path class="cls-1" d="M107.4,158v-.51a2.36,2.36,0,0,1,2.54,0c5.36,2.37,10.74,4.68,16,7.25a2.35,2.35,0,0,1,1.25,1.21l-.1.81Z"/><path class="cls-1" d="M169.18,66.2l16.91,7.58a1.2,1.2,0,0,1-.92.88C179.62,72.45,173.78,70.85,169,67A1,1,0,0,1,169.18,66.2Z"/><path class="cls-1" d="M214.64,190.93l.75.78c-3.12,1.07-6.34.28-9.5.5-1.73.1-2.15-1.44-3.16-2.67-.75,2.08-1.81,3.51-4.16,2.26a.53.53,0,0,1,.06-.76c1.12-.23,2.56-.09,2.27-1.95-.24-1.57.64-1.78,1.93-1.74s2.28,0,2.11,1.66.87,1.9,2.23,1.88C209.66,190.85,212.15,190.91,214.64,190.93Z"/><path class="cls-1" d="M64.35,201.67c.8,1.54,1.2,1.07,1.7-.24,1.66-4.36,3.39-8.68,5.11-13a15.38,15.38,0,0,1,.83-1.55,1.49,1.49,0,0,1,.49.74,3.54,3.54,0,0,1-.06,1.8c-1.66,4.41-3.5,8.76-5.11,13.19-.61,1-.93,2.44-2.39,2.14-1.07-.22-1.29-1.34-1.15-2.4A1,1,0,0,1,64.35,201.67Z"/><path class="cls-1" d="M256.52,204.2c-1.4.14-2-.66-2.26-1.89a18.8,18.8,0,0,1-.46-9.27c.65-1.61,2.1-1.55,3.48-1.62,2.55-.12,5.12.23,7.66-.26a5.66,5.66,0,0,0,.82-.56c.9,1.56.47,2.36-1.35,2.36h-4.75c-4.61,0-4.61,0-4.67,4.71,0,1.09.07,2.17,0,3.25A3.24,3.24,0,0,0,256.52,204.2Z"/><path class="cls-1" d="M158.85,202.45l1.38-.74a1.38,1.38,0,0,1,1.45.11.46.46,0,0,1,.3.29c1.1,1.26,2.43,2.29,3.62,3.46l.48.39c-1,1.73-2.43.79-3.74.57a.52.52,0,0,1-.32-.26C161.06,204.91,159.22,204.28,158.85,202.45Z"/><path class="cls-1" d="M91.16,189.21c-1,5-3.53,9.55-5.14,14.38-.64,1.91-1.35.49-2-.13a1.18,1.18,0,0,1-.28-1.55.49.49,0,0,1,.72-.09c.73,1.71,1,.83,1.44-.2,1.23-3.23,2.46-6.45,3.76-9.65C90.08,191,90.08,189.82,91.16,189.21Z"/><path class="cls-1" d="M192.58,229.86a1.3,1.3,0,0,1,1.2.64c-.09,1.51-1.93,1.5-2.38,2.71l-1.87.89-2.35,1.16c-1.05,0-1-.45-.55-1.13l.6-.85,1.54-1.59C190.14,231.28,190.92,229.67,192.58,229.86Z"/><path class="cls-1" d="M84.48,201.82h-.56c-1.19,0-1.2-1.11-1.67-1.78-1.3-3.53-2.72-7-4.08-10.53-.28-1.1-.84-2.16-.58-3.36a.89.89,0,0,1,.59-.56A168.22,168.22,0,0,1,84.48,201.82Z"/><path class="cls-1" d="M259.26,239.37c1.43-1.08,3.07-.36,4.61-.49s3.41.07,5.06-.2c4-.64,4.39-1.26,5.11-6.32l.24,3.62c-.75,2.66-3,3.22-5.27,3.49A37.89,37.89,0,0,1,259.26,239.37Z"/><path class="cls-1" d="M123.62,232.84v-1.09c2.52-.91,5.21.19,7.74-.62,1.95.2,2.1-1,1.86-2.43,1.19,1.41,1.19,1.54,0,4.19h0A11.58,11.58,0,0,1,123.62,232.84Z"/><path class="cls-1" d="M225.65,191.41a3.21,3.21,0,0,1-.22.54c-.43.72-1.57,1.44-.74,2.27s1.65.13,2.49-.62c2.27-2,8.62-2,11,0-3.82-.61-7.68-2.1-11.16,1.22-.7.66-2.6.86-3.18-.31C223.13,193.07,224.07,191.89,225.65,191.41Z"/><path class="cls-1" d="M97.66,226.19c.23.2,1,.33.64.56-4.81,2.86-5.7,7.2-2.31,11.86.27.38.35.66-.08.95-3.83-2.36-2.39-6.07-2.27-9.33C93.73,227.92,95.41,226.63,97.66,226.19Z"/><path class="cls-1" d="M244.13,237.63l.57,1.45c-3.54.32-7,1.71-10.64.53a6.94,6.94,0,0,1-2.65-1.13l.18-.19a1.83,1.83,0,0,1,1.65-.49C236.88,238.55,240.5,237.71,244.13,237.63Z"/><path class="cls-1" d="M172.53,222.77c-1.07.08-1.95,0-1.94-1.46s1-1.64,2.16-1.63,1.91,0,1.92,1.48C174.68,222.79,173.7,222.84,172.53,222.77Z"/><path class="cls-1" d="M258.43,225.63l.74.63c-1.85.09-2.55,1.1-3.06,2.88-.94,3.21-.12,6.16.65,9.18C253.29,234.39,254.25,227.14,258.43,225.63Z"/><path class="cls-1" d="M213.62,153.48l-.05-.74a2.76,2.76,0,0,1-.78-2.16c-.06-4.73-.07-9.46,0-14.19a2.58,2.58,0,0,1,.85-2.12l.6,0c0,5.52,0,11,0,16.56C214.23,151.7,214.72,152.79,213.62,153.48Z"/><path class="cls-1" d="M121.05,231.58c.28.15,1,.42.71.51-2.5.85-2.72,2.81-2.24,4.83.56,2.34,2.64,2.67,4.86,2.62-.69.76-1.46.36-2.07.6a3.93,3.93,0,0,1-3.91-3.79C118.16,234.26,118.78,232.41,121.05,231.58Z"/><path class="cls-1" d="M199.1,226.87c-5.22-1.23-10.5-.33-15.75-.46-.53,0-1.08.75-1.62,1.15-.26-1.07-.33-2,1.23-2q7.6.1,15.2.19C199,225.76,199.19,226.17,199.1,226.87Z"/><path class="cls-1" d="M169.18,66.2l0,.64c-3,.66-5.24-1.37-7.71-2.39-1.63-.67-3.71-1-4.41-3.11l.88-.13Z"/><path class="cls-1" d="M160.19,196.14c.21-1.73,2.32-2.2,2.76-3.84-1.29-.74-1.92,1.07-3,.51,1.39-2.4,3.64-1.86,6.11-1.72C164.38,193.35,162.23,194.68,160.19,196.14Z"/><path class="cls-1" d="M185.4,74.3l.69-.52,11.27,5-.64.5c-1.52.83-2.67-.31-3.87-.84C190.25,77.27,187.38,76.57,185.4,74.3Z"/><path class="cls-1" d="M191.09,198.83l-3.88-.44a14.16,14.16,0,0,1-9.67-.12,1.87,1.87,0,0,1-1.15-1.57c3.37,1,6.83.77,10.27.85A6.77,6.77,0,0,1,191.09,198.83Z"/><path class="cls-1" d="M73.06,226.19l1.64.35c-2.13.59-4.1.75-5,2.61-1.22,2.45-.62,5-.51,7.56,0,.53.61,1.06-.11,1.54C66.52,232.43,68.17,227.48,73.06,226.19Z"/><path class="cls-1" d="M56.8,192.43a26,26,0,0,1-2.65-7.11c4.1-.53,4.1-.53,5.46,3.78a.64.64,0,0,1-.71.26c-1.07-.46-1-1.9-2.26-2.46-.79,1.87,1.68,3.42.49,5.21C57,192.21,56.91,192.32,56.8,192.43Z"/><path class="cls-1" d="M198.63,191l.07.72c1.59.66,3.87.52,3.72,3.19-.06,1.71.47,3.51-.75,5.06,0,1.5-.07,3-.1,4.52-1.67-2.79-.36-5.81-.67-8.71-.13-1.28.23-2.49-1.85-2.6C197.5,193.14,197.72,192,198.63,191Z"/><path class="cls-1" d="M59.61,189.1a108.08,108.08,0,0,1,4.74,12.57l-.33.25a1.34,1.34,0,0,1-1.15-.8c-1.48-3.85-3.83-7.43-3.65-11.79Z"/><path class="cls-1" d="M97.35,86.45l.49.58c1.57,3,.6,6.15.74,9.23.08,1.89.61,3.94-.78,5.68a3.27,3.27,0,0,1-.54,0Z"/><path class="cls-1" d="M281.37,231.81c0-.44,0-.88,0-1.32,1.46,1.07,2.9,2.17,4.9,1.73a21.72,21.72,0,0,1,7.67.13c-1.94,1.06-4.08.12-6.08.62C285.68,232.85,283.31,233.5,281.37,231.81Z"/><path class="cls-1" d="M175.46,206.6c4.92-.18,9.88.44,14.76-.61-1.81,1.71-4.1,1.26-6.24,1.28C181.13,207.29,178.22,207.83,175.46,206.6Z"/><path class="cls-1" d="M139.57,194.08a1.28,1.28,0,0,1,1.28,1.06c.26,1.07.86,1.65,1.9,1.17s.6-1.47.37-2.32c-.32-1.16-1.48-1.55-2.13-2.41,3,.17,3,2.6,3.34,4.65.13.74-.63,1-1.22.88-1-.16-2.23.69-2.78-.81C140.07,195.56,139.83,194.82,139.57,194.08Z"/><path class="cls-1" d="M121.71,226.26c1.89,1.11-.3.7-.45,1-.34.59-.94,1.08-.31,1.74.49.5,1.07.21,1.57-.15.84-.62,1.48-2,2.84-.77a2.82,2.82,0,0,0-1.9,1.16c-1.14,1.22-3.2,1.22-3.82.21C118.75,228,120.2,226.82,121.71,226.26Z"/><path class="cls-1" d="M265.76,190.6a2.83,2.83,0,0,0-.13.5c-3.38,1.09-6.88.69-10.25.31-2.18-.24-2-2.23-1-3.91l.55,0c-.21,2.29.52,3.33,3.13,3A60.83,60.83,0,0,1,265.76,190.6Z"/><path class="cls-1" d="M188.4,203.29a1.25,1.25,0,0,1-1.05,1.53c-3.77.72-7.55,1.5-11.17-.63a32.65,32.65,0,0,0,8.77.51A5,5,0,0,0,188.4,203.29Z"/><path class="cls-1" d="M162.47,227.54h-.22l-.22,0c-3.42-2.08-7.22-.87-10.84-1.22,0-.16,0-.32,0-.48a33,33,0,0,1,8.19-.14A3.22,3.22,0,0,1,162.47,227.54Z"/><path class="cls-1" d="M191.4,233.21c.15-1.47,1.62-1.78,2.38-2.71,1.78-.46,2.48-3,4.79-2.45Z"/><path class="cls-1" d="M90,201.23c.57-3.33,2.1-6.3,3.6-9.28A23.25,23.25,0,0,1,90,201.23Z"/><path class="cls-1" d="M224.46,205.3a3,3,0,0,0,0,.52c-2.9-2.85-2.66-6.38.57-8.25C223,200,222.42,202.57,224.46,205.3Z"/><path class="cls-1" d="M192.58,229.86c-1.33.49-2.21,1.89-3.81,1.83a13.55,13.55,0,0,1,3.83-3c.79-.33.7-1.73,2-1.51C195,228.87,193.16,228.92,192.58,229.86Z"/><path class="cls-1" d="M283.8,234.73c-2.07,1.28-2.07,1.28-2,3.73-1.3-.7-2-2-1.48-3.18C281,233.9,282.59,234.69,283.8,234.73Z"/><path class="cls-1" d="M238.85,191H227.66A22.32,22.32,0,0,1,238.85,191Z"/><path class="cls-1" d="M133.2,232.89c.18-.46-1.37-.56-.29-1.16,1.6-.9,1.18-1.93.31-3-.42-.67-1.16-.52-1.78-.67,1.06-.95,2.36-.68,2.6.41C134.35,229.88,135.55,231.83,133.2,232.89Z"/><path class="cls-1" d="M285.06,239.4a20.32,20.32,0,0,1,10.07,0Z"/><path class="cls-1" d="M133.76,225.78a19.84,19.84,0,0,1-10.12,0A51.08,51.08,0,0,1,133.76,225.78Z"/><path class="cls-1" d="M254.3,206.5c3.08-1,6.26-.27,9.39-.52C260.62,207.23,257.46,206.87,254.3,206.5Z"/><path class="cls-1" d="M204.29,206.59a61.36,61.36,0,0,0,10.14-.59A13.36,13.36,0,0,1,204.29,206.59Z"/><path class="cls-1" d="M175.74,203.15c-.85-.58-1.9-1.22-2.65-.29-1.07,1.33.77,2.23.89,3.45a2.64,2.64,0,0,1-1.68-1.56c-.3-.88-1-2.19.18-2.59C173.46,201.85,175.28,200.88,175.74,203.15Z"/><path class="cls-1" d="M293.33,237a1.11,1.11,0,0,1,.27.12,2.69,2.69,0,0,1,.35.33,30.07,30.07,0,0,1-8.26,0c0-.07,0-.18.08-.21a5.12,5.12,0,0,1,.53-.25Z"/><path class="cls-1" d="M95.76,186.3c-1.42-1.14-2.57-1.06-3.33.74-.33.78-.39,1.73-1.28,2.18.8-4.11,1.89-5.14,4.66-4.27C97.1,185.36,96.78,185.88,95.76,186.3Z"/><path class="cls-1" d="M118.76,205.67c-.38-.87,1.28-1.81,0-2.54s-2,.71-3,1.05c.06-1.76,1.24-2,2.62-1.86.64.05,1.63-.28,1.82.45A2.67,2.67,0,0,1,118.76,205.67Z"/><path class="cls-1" d="M190.19,206c1.9-2,2-4.38,1.19-6.9C193.44,202,193,204.35,190.19,206Z"/><path class="cls-1" d="M115.78,204.15c-2.45,2.08-5.2,2.12-8.1,1.2C110.41,205.15,113.17,205.15,115.78,204.15Z"/><path class="cls-1" d="M187.14,199.53l.69.9c-2.79-.66-5.64-.23-8.45-.52a.66.66,0,0,1,.38-.88C182.24,198.88,184.76,198.21,187.14,199.53Z"/><path class="cls-1" d="M209.39,232.25c1.6-1,3.39-.4,5.09-.58,1-.11,2.16.39,2.93-.72l.29,0,.09,1.34C215,233.1,212.18,233.66,209.39,232.25Z"/><path class="cls-1" d="M131.36,231.13c-2.5,1.19-5.18.21-7.74.62l-.6-.58Z"/><path class="cls-1" d="M179.4,199.45c0,.15,0,.3,0,.46-1.91.16-3.79.17-5.43-1.07l3.63-.06C178.46,198.27,179,198.64,179.4,199.45Z"/><path class="cls-1" d="M173.39,192.51c-.67,2.2-.93,4.36.6,6.35C171.59,197.1,171.4,195.1,173.39,192.51Z"/><path class="cls-1" d="M72.08,187.44a1.37,1.37,0,0,0-.09-.57c1.43-3.43,4-1.63,6.19-1.29a.33.33,0,0,0-.31.15C76,186.63,73.94,186.63,72.08,187.44Z"/><path class="cls-1" d="M107.35,225.79a12.08,12.08,0,0,1-7.7,0A34.18,34.18,0,0,1,107.35,225.79Z"/><path class="cls-1" d="M141,191.61h-7.28A9.38,9.38,0,0,1,141,191.61Z"/><path class="cls-1" d="M158.85,202.45c.79,1.49,2.73,2,3.17,3.82a13.86,13.86,0,0,1-4.26-3.84Z"/><path class="cls-1" d="M239.27,198.24a3.81,3.81,0,0,1-2.88-1.26c3.27.82,2.44-1.23,2.07-2.95C240.24,195.15,239.18,196.81,239.27,198.24Z"/><path class="cls-1" d="M162.34,206.53c1.24-.22,2.67.74,3.74-.57a1,1,0,0,1,1.35.72c.14.69-.57.65-1,.58C165.06,207.05,163.5,207.88,162.34,206.53Z"/><path class="cls-1" d="M215.94,230.6a9.1,9.1,0,0,1-6.5,0Z"/><path class="cls-1" d="M153.63,199.38c2.17,0,3.12,1.56,4.14,3.06-1.73-.12-2.2-2.48-4.11-2.29Z"/><path class="cls-1" d="M74.43,240.61a8.41,8.41,0,0,1,6.53,0Z"/><path class="cls-1" d="M86.92,238.24c.31-2.35-2.1-1.28-2.87-2.27C85,236.73,89,233.72,86.92,238.24Z"/><path class="cls-1" d="M161.68,201.82l-1.45-.11c-.58-1.24-2.26-1.65-2.42-3.2A15.73,15.73,0,0,1,161.68,201.82Z"/><path class="cls-1" d="M165.6,205.57a6.91,6.91,0,0,1-3.62-3.46C163.39,203.05,165,203.75,165.6,205.57Z"/><path class="cls-1" d="M185.4,74.3l11.32,5,14.37,6.68L185.43,97.17a3.72,3.72,0,0,1-1.83,1.67c-3.57,2-7.45,3.21-11,5.15a5.79,5.79,0,0,1-.79.39c-4.29,1.9-8.67,3.62-12.89,5.66a6.46,6.46,0,0,1-5.76.19c-11.91-5.16-23.89-10.16-35.79-15.36a47.72,47.72,0,0,0-8.06-3.18c-2.6-.74-4.86-2.3-7.47-3A2,2,0,0,1,100.28,87c-.7-1.33.49-1.43,1.2-1.76,4.16-1.87,8.34-3.71,12.51-5.56q19.67-8.7,39.34-17.43a6.65,6.65,0,0,1,3.71-.91,63,63,0,0,0,12.12,5.5C174.34,69.82,180,71.8,185.4,74.3Z"/><path class="cls-2" d="M105.88,194c3.47-.21,7.06-1.44,10.17,1.23,1.06,1.6,1.07,2.69-1.27,2.68-2.87,0-5.73,0-8.59,0-.84,0-2,.45-2.44-.5-.51-1.11.4-2,1.12-2.8A2.8,2.8,0,0,1,105.88,194Z"/><path class="cls-1" d="M105.88,194c-.57.52-1.3.87-1.58,1.69-.39,1.17-.62,2,1.22,2,3-.12,5.91-.14,8.86,0,2.12.1,2.35-.77,1.67-2.43,1.49,2.25,1.26,2.95-1.15,3-2.86.08-5.73.1-8.59,0-1,0-2.73.78-2.94-1C103.18,195.68,103.74,194.08,105.88,194Z"/><path class="cls-1" d="M43.9,211.39a9.87,9.87,0,0,0,.93-2.18c.53-3.2,3-2.46,5.08-2.64,2.42-.21,2.94,1.3,3.6,3.1,3.34,9,6.8,18,10.15,27,.39,1,1.66,2.6,0,3.23s-3.37.56-4.22-1.88c-2.87-8.25-5.94-16.42-9-24.6-.32-.86-.29-2.28-1.39-2.43-1.28-.17-.79,1.66-1.71,2.12A5.72,5.72,0,0,1,43.9,211.39Z"/><path class="cls-1" d="M42,227.45l-3,6.61c-1.35.9-2.7,1.93-4.07,0l4.74-12.57c.78-1.61,1.55-3.23,2.33-4.84,2.42.17,3.17,1.47,2.52,3.71Q43.2,223.93,42,227.45Z"/><path class="cls-1" d="M44.43,220.4c.09-1.86-1.13-2.84-2.52-3.71.66-1.77,1.32-3.53,2-5.3,1.54-.16,2.45.9,3.47,1.75C46.47,215.6,45.83,218.15,44.43,220.4Z"/><path class="cls-1" d="M19.66,213.19c-.78-.6-.64-2.23-1.73-2.18-1.44.07-1,1.69-1.43,2.62-2.11,5-4.17,10.05-6.24,15.08-1.17,3-2.31,6.11-3.55,9.13-.35.86-.52,2.08-1.76,2.17-1.07.08-2.44.28-3.15-.26s0-1.83.39-2.73c4-9.5,8.08-19,12-28.51.54-1.29,1.11-2.11,2.54-1.89,1.73.27,3.89-1,5,1.48a15.82,15.82,0,0,1,1.55,4.47C22.11,212.92,21,214,19.66,213.19Z"/><path class="cls-1" d="M24.05,226.31c-.11-2.16-1.5-3.92-1.84-6,0-1.9.41-3.39,2.85-2.93a171.94,171.94,0,0,1,6.16,16.09c-1.11,2.23-1.91,2.23-4.11,0Z"/><path class="cls-1" d="M27.11,233.49c1.37.31,2.75,2.17,4.11,0,.53,1.11,1.05,2.22,1.59,3.37,1.48-.41,1-2.11,2-2.73,1.36,1,2.71-.35,4.07,0-.24.76-.42,1.53-.71,2.26a6,6,0,0,1-8,3.68c-1.32-.48-1.43-1.83-1.9-2.87A32.39,32.39,0,0,1,27.11,233.49Z"/><path class="cls-1" d="M25.06,217.37c-1.77.19-2.18,1.68-2.85,2.93-1.36-2.19-1.84-4.69-2.55-7.11,1.28.21,2.17-1.92,3.64-.62C23.91,214.16,24.87,215.63,25.06,217.37Z"/><path class="cls-2" d="M72.63,229.94l1.21-1.17c2.63-1.37,5.37-1,8.09-.47a2.3,2.3,0,0,1,2,2.51c-.1,1.26-1.23,1.33-2.23,1.48a25.35,25.35,0,0,1-7.68-.08C72.83,232,71.58,231.66,72.63,229.94Z"/><path class="cls-1" d="M72.63,229.94c-.27,1.36.4,1.69,1.64,1.65,2.47-.06,4.94,0,7.41,0,.74,0,1.85.3,2-.73A2,2,0,0,0,82,228.71c-2.76-.88-5.46-.34-8.19.06-.44-.44-.15-.69.27-.8a14.34,14.34,0,0,1,8.21,0c2.61.84,2.93,2.8,1,4.42a25.74,25.74,0,0,1-10,0c-.85-.12-1.91,0-1.82-1.32C71.51,230.51,71.25,229.3,72.63,229.94Z"/><path class="cls-1" d="M73.29,232.4h10l-2.32,1H75.6Z"/><path class="cls-2" d="M227.75,199.45a22.39,22.39,0,0,1,8.67-.19c2.69.63,3,1.26,2.07,3.75l-1.84,1.15a20.78,20.78,0,0,1-7.37.23C226.28,204.13,225.68,201.92,227.75,199.45Z"/><path class="cls-1" d="M227.75,199.45c-1.7,3.19-1,4.55,2.66,4.7,2.07.09,4.15,0,6.24,0-2.74,1.23-5.64,1-8.34.3s-2.63-2.9-1.48-5.09Z"/><path class="cls-1" d="M238.49,203c.5-1.91,0-3.29-2.07-3.75.47-.53,1.1-.4,1.69-.41C239.11,200.15,240.46,201.43,238.49,203Z"/><path class="cls-2" d="M259.81,236.47a12.78,12.78,0,0,1,0-8.33c3.37-1.81,6.78-1.45,10.21-.23,1.26,3,1.71,6-.5,8.86C266.27,237.5,263,238.18,259.81,236.47Z"/><path class="cls-1" d="M270,228.2a17,17,0,0,0-10.13-.06c-.56-.54-.16-.93.31-1,3.32-.73,6.64-1.34,9.86.4C270.3,227.75,270.28,228,270,228.2Z"/><path class="cls-1" d="M270,228.2l0-.7c2.07,2.5,1.72,8-.61,9.51v-.42C271.35,233.91,270.83,231.06,270,228.2Z"/><path class="cls-1" d="M269.4,236.59c0,.14,0,.28,0,.42-3.08,1.35-6.25.69-9.4.35-.36,0-.57-.49-.18-.89A18.35,18.35,0,0,0,269.4,236.59Z"/><path class="cls-1" d="M183.55,98.23l1.88-1.06c.79,1.11,1.61.31,2.36,0q11.06-4.87,22.07-9.81c3.22-1.45,3.73-1.15,3.74,2.5q0,22.22,0,44.43,0,9.24-.07,18.47c-17.66,8-35.39,15.95-53,24.2-3.7,1.74-6.6,1.49-10.1-.22C142.83,173,135,169.55,127.19,166q-9.19-4-18.39-8.1a9.4,9.4,0,0,0-1.4-.41,22.65,22.65,0,0,0-6.36-3.16c-1.91-.66-2.68-1.76-2.67-4,.1-15,0-30,0-45,0-1.14.46-2.41-.55-3.4q0-7.45,0-14.91l2.44,0c2.86,1.67,6.2,2.33,8.94,4.25,4.52,1.24,8.59,3.57,12.88,5.35,10.73,4.44,21.33,9.17,32.06,13.62a4.2,4.2,0,0,0,3.93-.17c4.59-2.35,9.5-4,14.11-6.35l0,0C175.87,101.69,180.14,100.85,183.55,98.23Z"/><path class="cls-2" d="M215.9,233c.92.63,2.23.26,3,1.17,1.18,1.71.19,2.67-1.32,3a16.79,16.79,0,0,1-7.91.19c-2.22-.52-2.54-2-.94-3.95a2.78,2.78,0,0,0,1.92-.46A8.08,8.08,0,0,1,215.9,233Z"/><path class="cls-1" d="M208.77,233.43c-1.09,2.13-.78,3.43,1.94,3.7a36.3,36.3,0,0,0,5.9-.1c1.79-.12,2.73-1,2.33-2.88,2.3.87.92,2.07.09,2.84-1.73,1.59-8.73,1.81-10.61.44a2.64,2.64,0,0,1-1.23-2.81C207.33,234.11,207.23,232.44,208.77,233.43Z"/><path class="cls-1" d="M215.9,233h-5.21c-.48-.16-1.05-.15-1.3-.72l8.4.07C217.32,233,216.54,232.77,215.9,233Z"/><path class="cls-1" d="M179.4,199.45l-1.82-.67a4.53,4.53,0,0,0,0-.52l9.66.13c.26.39.56.79-.07,1.14Z"/><path class="cls-1" d="M82.77,200l1.15,1.81.12,1.65-1.33,1.87A13,13,0,0,1,81,201.18,2.59,2.59,0,0,1,82.77,200Z"/><path class="cls-1" d="M294,231.67l.58,0-.62.64-7.67-.13C288.81,231.05,291.46,232,294,231.67Z"/><path class="cls-2" d="M133.16,237.59l-3.63.78a9.57,9.57,0,0,1-5.27-.4,2.27,2.27,0,0,1-1.8-2.68,2.12,2.12,0,0,1,2.4-2.09c2.2,0,4.39,0,6.58,0a1.57,1.57,0,0,1,1.69,1C134,235.29,133.29,236.44,133.16,237.59Z"/><path class="cls-1" d="M133.13,234.15c-2.78-1.21-5.68-.63-8.54-.57a1.73,1.73,0,0,0-1.73,1.72,1.89,1.89,0,0,0,1.44,2.27,16,16,0,0,0,5.23.8c-1.49.85-3.06.57-4.6.23-1.36-.3-2.75-.71-3.1-2.36a3,3,0,0,1,1.79-3.4l9.57,0C133.24,233.31,133.93,233.76,133.13,234.15Z"/><path class="cls-1" d="M186.63,234.13a1.06,1.06,0,0,0,.55,1.13c-.68,1.06-2.27,1.19-2.82,2.94h13v.68c-2.35,0-4.71.05-7.06,0a29.59,29.59,0,0,0-6.5.55c-.71.14-1.67.25-1.94-.83-.2-.8.24-1.27.88-1.7C184.08,236,185.35,235.05,186.63,234.13Z"/><path class="cls-1" d="M201.67,200v-5.39c.46-.87.82-1.84,2-1.94l.37.22q-.09,4.42-.16,8.85Z"/><path class="cls-1" d="M254.31,192.84c0,3.16,0,6.32-.05,9.47-.83-.87-1.28-2.19-2.73-2.35,0-1.81.05-3.61.08-5.41C252.16,193.43,252.55,192.06,254.31,192.84Z"/><path class="cls-1" d="M173.57,230.3c-.61,1.15.69,3.47-1.12,3.43-1.59,0-.82-2.33-.8-3.57s-.83-3.48.91-3.44S173,229.06,173.57,230.3Z"/><path class="cls-1" d="M152.92,195.27c-1.21,1.41-.13,2.72.16,4.07,0,1.78-.05,3.57-.09,5.36,0,.9.08,1.9-1.31,1.82-1.15-.06-1.17-.88-1.16-1.7q0-9,.08-17.91c0-.93,0-1.88,1.36-1.77,1.19.1,1.06,1,1,1.78C153,189.7,153,192.49,152.92,195.27Z"/><path class="cls-1" d="M66.68,202.29l5.24-13.07a1.65,1.65,0,0,1,2.33.06c-1.22,3.85-3.29,7.39-4.1,11.38-1.07.68-.89,2.08-1.71,2.9A2,2,0,0,1,66.68,202.29Z"/><path class="cls-1" d="M82.77,200A1.7,1.7,0,0,1,81,201.18c-1.52-3.93-3.5-7.7-4.35-11.88a1.46,1.46,0,0,1,2-.08A69,69,0,0,1,82.77,200Z"/><path class="cls-1" d="M78.71,189.22l-2,.08c-.81-1-1.61-2.82-2.44,0l-2.33-.06c0-.59.11-1.19.16-1.78,1.32-2.62,3.72-1.63,5.79-1.71Z"/><path class="cls-1" d="M244.13,237.63c-4.08,2.11-8.32,1.22-12.54.66-1.88-2.92-1.31-6.19-1-9.3.19-2,1.92-2.9,4-2.7a3.48,3.48,0,0,0,.58.43c.4.31.83.59.79,1.19a4.92,4.92,0,0,1-2.19,2.16c-.59,1.58,0,3.19-.14,4.79a1.27,1.27,0,0,0,.09.58c1,2.09,3,2.07,4.89,2,3.07,0,5.52-1.5,5.84-3.66.29-2,.81-4.29-2-5.17a1.65,1.65,0,0,1-1.37-.76,1.1,1.1,0,0,1,.43-1c.43-.33,1-.07,1.46-.46l.88,0c0,.55.34,1,.91.94s.62-.65.63-1.12c0-1.58,0-3.17,0-4.75,0-.87.2-1.62,1.31-1.55.92.06,1.08.73,1.08,1.47,0,5.35,0,10.7-.06,16.05,0,.59,0,1.24-.78,1.4s-1.37.09-1.58-.85S244.7,237.06,244.13,237.63Z"/><path class="cls-1" d="M243,226.38c-.26.48-.72.52-1.18.56-2.38,1.35-4.77.83-7.15,0,0-.22,0-.44,0-.67A13.45,13.45,0,0,1,243,226.38Z"/><path class="cls-1" d="M66.68,202.29a2.46,2.46,0,0,1,1.76,1.27c-.51,1.23-.29,3-1.83,3.46-1.84.51-3.6.47-4.46-2-1.51-4.35-3.33-8.6-5-12.9-.52-1.48-1.05-3-1.54-4.44-.24-.7-.8-1.56.44-1.87a1.57,1.57,0,0,1,2,.86c.42.88.8,1.78,1.2,2.67A106.93,106.93,0,0,0,64,201.92a4.53,4.53,0,0,0,1,2.5C66.21,204.24,66.09,203,66.68,202.29Z"/><path class="cls-1" d="M205.18,191.64l10.21.07c-.22,1.52-1.42,1.11-2.34,1.13-3,0-6,0-9,.06l-.1-.07C203.69,191.75,204.74,192,205.18,191.64Z"/><path class="cls-1" d="M254.31,192.84c-1.27,0-1.75,1.22-2.7,1.71,0-1.57-.58-2.67-2.75-2.58,1.49-1,2.85-1.31,2.72-3.28s1.72-1,2.75-1.19c-.54,3.15,1,3.83,3.86,3.58,2.46-.21,5,0,7.44,0-.21,1.77-1.61,1.05-2.56,1.16C260.16,192.59,257.16,191.55,254.31,192.84Z"/><path class="cls-1" d="M205.18,191.64,204,192.83l-2.29,1.79c0-1.05-.25-1.91-1.62-1.81-.73.06-1.35-.13-1.36-1.05,1.56-.13,3.27,0,3-2.46-.1-.81.4-1.26,1.26-1.22a1,1,0,0,1,1.05,1.14C204,190.22,204,191.2,205.18,191.64Z"/><path class="cls-1" d="M172.2,103.7c-4.78,3.33-10.54,4.62-15.56,7.44-.74.42-1.34,0-2-.28L109.22,91.25c1.27-.39,2.32.25,3.42.72q20.1,8.69,40.2,17.38a7,7,0,0,0,6.22-.15C163.37,107.23,167.55,104.9,172.2,103.7Z"/><path class="cls-1" d="M183.55,98.23c.45.41.21.66-.2.84-3.67,1.7-7.22,3.65-11.18,4.65C175.62,101.18,179.79,100.13,183.55,98.23Z"/><path class="cls-1" d="M211,152.18l-49.95,22.87c-.9.41-1.84.75-2.76,1.12-1.31-.36-.79-1.45-.79-2.22,0-10.95,0-21.9-.07-32.86,0-2.15.82-2.9,2.83-2.66a16.45,16.45,0,0,1,5.25,1c1.54.87,1,2.18.68,3.42-1,3.94-2.07,7.88-3.12,11.81-.3,1.1-.91,2.3.24,3.32,2,.84,3,.39,3.63-2.05,1.14-4.31,2.4-8.58,3.45-12.91.29-1.21.35-2.61,1.69-3.31a16,16,0,0,0,5.33-1.63c1.35.09,1.7,1.23,2.2,2.16,1.09,2,2,4.08,3.16,6,1.84,3.05,4.85,3,6.64-.28a20.57,20.57,0,0,0,1.45-4.5c.73-2.55,1.12-5.22,2.52-7.55,2.51-1.47,4.54-3.76,7.55-4.38,1.63.54,1.89,2.15,2.62,3.38.85,1.43,1.3,3.1,2.63,4.23a2,2,0,0,0,3.14,0c1-1,.1-1.82-.27-2.69-1.17-2.8-3.26-5.2-3.63-8.35.9-2.13,2.7-3.55,4.19-5.19.66-.73,2-1.9,2.45.38,0,9.24,0,18.47,0,27.71C212.07,150.18,212.54,151.53,211,152.18Z"/><path class="cls-1" d="M141,171.29l-1.83-1.15c-3.2-1.86-6.44-3.63-10.16-4.24l-1.85-1.12c-3.18-1.9-6.43-3.65-10.16-4.26-1.72-1.1-3.89-1.31-5.41-2.8a51.08,51.08,0,0,0-6.69-3.16,8.84,8.84,0,0,1-4.76-1.7c-.25-6.76-.64-13.51-.48-20.27.75-1.81,1.88-1.06,2.81-.29a41.94,41.94,0,0,1,5.8,5.1c1,1.15,1,2.71,1.66,4,1.32,2.6,3.76,3.06,5.47,1.05.92.14,1.89-.27,2.79.21,3.3,1.79,7,1.11,10.52,1.88,1.87,1.39,1.67,3.65,2.32,5.55.51,1.49.89,3,2.33,4,1.28.86,2.46,1.2,3.57-.22a5.37,5.37,0,0,0,2.54-.82,2,2,0,0,1,2,1.06c4.41,7,9.28,13.76,13.06,21.17-.18,1-.67,1.38-1.64.84a1.07,1.07,0,0,1-1.09-.51c-2.87-1.57-6-2.54-8.89-4.06C142.33,171.21,141.73,170.68,141,171.29Z"/><path class="cls-1" d="M201.87,93l.92-.31c.11-.41.35-.51.72-.32,1.29,2.89.76,5.82.19,8.73-1,4.86-3.53,9-5.86,13.29-.11.15-.21.36-.38.43a10,10,0,0,0-5.87,6.45c-4.57,2.29-8.69,5.48-13.75,6.78-.93,0-1.53-.68-2.24-1.12-1.9-1.19-3.16.35-4.57,1.1-.87.46-1.25,1.56-2.29,1.84-3.82-.06-7.66.18-11.45-.51,0-2.35,0-4.7,0-7,13.87,1.74,25.33-2.53,33.79-13.79,2.69-3.58,4.62-7.66,4.66-12.34a1.75,1.75,0,0,1,.43-.79l0,0C198.14,94.7,199.87,93.51,201.87,93Z"/><path class="cls-1" d="M196.2,96c1.1,1.8.1,3.48-.48,5.08-4.45,12.28-13.53,19.09-26.09,21.82-3.25.71-6.51.49-9.78.6a2.63,2.63,0,0,1-2.52-1.21c.1-3-.75-6,.48-9,1.62,3.6,1.66,3.91,6,3.3,10-1.41,18.16-5.77,22.79-15.26a7.9,7.9,0,0,1,.93-1.86A20.91,20.91,0,0,1,196.2,96Z"/><path class="cls-1" d="M118.11,97.07l3.56,1.28c.86.64,2.45.25,2.64,1.84-1,1.2-2.52,1.56-3.8,2.32-3.68,2.22-5.42,6.11-7.58,9.44-1.35,2.1.41,5,1.76,7.21,1.06,1.78,3,3,3.42,5.18-.61,3.86-2.31,7.4-3.31,11.15-.18.64-.55,1.31-1.46,1.21-1.29-1.37-1.54-3.19-2-4.9-1.54-6.26-3.55-12.4-5.06-18.66a16.15,16.15,0,0,0-1.72-4.74c-1.14-3.44-.09-5.72,3.24-6.59a8.45,8.45,0,0,0,3.7-2.39c1.36-1.29,2.52-2.87,4.54-3.26A3.12,3.12,0,0,1,118.11,97.07Z"/><path class="cls-1" d="M187.79,99.61c-1.21,5.72-5,9.68-9.64,12.63-4.86,3.1-10.16,5.41-16.2,5.26-4.18-.1-4.18,0-4.14-4.19,1.48-1.56,3.91-1.37,5.4-2.92a26,26,0,0,1,8.89-3.77,8.13,8.13,0,0,0,3.1-1.64c2.77-1.92,6.06-2.73,9-4.24l0,0C185.42,100.48,186.39,99.39,187.79,99.61Z"/><path class="cls-1" d="M148.19,110.31a5.76,5.76,0,0,1,3.43,1.18c1.07.57,2.52.54,3.07,1.94.18,1.29,0,2.59.12,3.86.64,5.66-2.5,9.29-6.58,12.45a3.22,3.22,0,0,1-2.83-.36,1.75,1.75,0,0,0-2.55.56c-1.42,1.32-1.86,3.12-2.44,4.86-.35,1-.35,2.4-1.9,2.59a6.47,6.47,0,0,0-3.41-.21,3.47,3.47,0,0,1-3.44-1c-1-1.65-1.79-3.34-1.3-5.34a2.92,2.92,0,0,1,2.4-1.54,18.38,18.38,0,0,0,15.06-17.9A1.87,1.87,0,0,1,148.19,110.31Z"/><path class="cls-1" d="M148.19,110.31c1,6.88-2,12-7.21,16.14-3,2.42-6.73,3.31-10.38,4.27-1.89-1.56-1.93-3.71-1.86-5.88.81-.94,2-.79,3-1.06,6.25-1.66,9.77-6.29,9.64-12.69,0-1.15-.5-2.41.64-3.36,1.38-.32,2.29.42,3.12,1.36A3.63,3.63,0,0,1,148.19,110.31Z"/><path class="cls-1" d="M166.14,140.18c-2-.31-4.1-.56-6.13-1-1.29-.25-2.2-.19-2.2,1.42q0,17.38.1,34.77c0,.26.27.51.41.77-1.95.19-1.12-1.32-1.13-2.06q-.13-9.71-.09-19.42c0-5.88.1-11.75.16-17.62a2.11,2.11,0,0,0,.23-1.45c-.24-2,.61-2.8,2.58-2.45,2.58.46,5.19-.09,7.77.27C168.93,136.1,168,138.25,166.14,140.18Z"/><path class="cls-1" d="M118.11,97.07l-1.73-.51c-2.59,0-4.74-1.4-7-2.31-1.4-.56-2.74-1.24-4.16-1.71-3.62-1.2-4.66-.4-4.74,3.36-.21,10.55.18,21.1.59,31.64.06,1.46.26,3-.83,4.29q0,10.51,0,21a1.9,1.9,0,0,1-.58-1.61c-.82-20.31-.54-40.62-.58-60.93,0-1-.35-2.5,1.64-1.64l16.48,7.06A1.39,1.39,0,0,1,118.11,97.07Z"/><path class="cls-1" d="M167.92,133.61c-1.95,1.14-4.18.89-6.1.5-2.84-.57-4.26.09-4.56,3l0-7.75c3.93-.87,7.85-.38,11.77.09A3.27,3.27,0,0,1,167.92,133.61Z"/><path class="cls-1" d="M154.23,113.27l-2.61-1.78c2.69,0,3.84,1.1,3.82,4-.09,19.66-.05,39.32-.05,59,0,1.82.17,3.88-2.5,1.64.8,0,1.29-.34,1.3-1.2a19.45,19.45,0,0,1-.37-4.44c0-13.62,0-27.23.08-40.84-.49-4.52,1-8.94.6-13.46C154.41,115.19,154.73,114.19,154.23,113.27Z"/><path class="cls-1" d="M211,152.18a3.46,3.46,0,0,0,.88-2.72q-.06-14.52-.09-29.05c-1.62-2.33-.7-5-.87-7.44,0-6.49,0-13,0-19.48,0-1.17.51-2.74-1.5-3a2.57,2.57,0,0,1-.93-.28c-.11-.11-.22-.23-.34-.34a.89.89,0,0,1,.21-.22c1.13-.57,2.29-1.85,3.48-1.27s.62,2.33.62,3.53q.08,28.49,0,57C212.46,150.1,213.32,151.9,211,152.18Z"/><path class="cls-1" d="M145.18,109.09l-3-1.17c-2.65-.09-4.7-2-7.24-2.4a46.26,46.26,0,0,1-4.32-1.93c-2-1.44-4.66-1.56-6.31-3.53l-2.65-1.71c3.66.6,6.77,2.57,10.09,4,3.8,1.65,7.63,3.21,11.41,4.87C144,107.61,145.19,107.75,145.18,109.09Z"/><path class="cls-1" d="M187.79,99.61c-1.23.31-2.2,1.38-3.6,1.15a39.72,39.72,0,0,1,12-5.41c0,.21,0,.42,0,.63A58.45,58.45,0,0,0,187.79,99.61Z"/><path class="cls-1" d="M141,171.29a.93.93,0,0,1,1.27-.46c3.08,1.77,6.75,2.36,9.52,4.75C148,174.78,144.72,172.43,141,171.29Z"/><path class="cls-1" d="M129,165.9c.13-.13.31-.41.39-.39,3.47,1.1,7,2,9.77,4.63Z"/><path class="cls-1" d="M117,160.52c.14-.13.32-.41.4-.39,3.47,1.1,7,2,9.76,4.65Z"/><path class="cls-1" d="M172.1,106.62l-8.89,3.77A13,13,0,0,1,172.1,106.62Z"/><path class="cls-1" d="M184.22,100.74c-2.72,2-6,2.92-9,4.24C177.68,102.44,181,101.73,184.22,100.74Z"/><path class="cls-1" d="M104.91,154.56a12,12,0,0,1,6.69,3.16A19.15,19.15,0,0,1,104.91,154.56Z"/><path class="cls-1" d="M203.4,92.5l-.61.15c1.36-1.73,3.33-2.29,5.35-2.74l.11.15A4.27,4.27,0,0,1,203.4,92.5Z"/><path class="cls-1" d="M201.87,93c-1.78,1.08-3.5,2.27-5.68,2.41A9,9,0,0,1,201.87,93Z"/><path class="cls-2" d="M233.53,230.05a3.8,3.8,0,0,1,2.38-2.44,7.59,7.59,0,0,1,5.19,0l1.34.41c2.23,1.27,3.06,3.82,2.15,6.55-.8,2.38-4.26,3.64-8.3,3-2.52-.4-3.19-1.26-3.15-4.42C233.15,232.13,232.69,231,233.53,230.05Z"/><path class="cls-1" d="M233.53,230.05c0,.19,0,.39,0,.59-.39,6.35,2.15,8.23,8.26,6.11,3.24-1.12,3.62-6.12.66-8.72,1.15-1,1.61.19,2.06.78a5.8,5.8,0,0,1-2.69,8.81,11.65,11.65,0,0,1-3.19.63c-4.6.22-5.84-1-5.83-5.56a8.51,8.51,0,0,1,.08-2.95C233.29,228.71,233.3,229.91,233.53,230.05Z"/><path class="cls-1" d="M241.1,227.62h-5.19l-1.29-.65,7.15,0Z"/><path class="cls-2" d="M175.89,126.54c.86-.07,1.09.75,1.62,1.14,1.45,1,1.81,2.76,2.88,4,.84,1.6,1.61,3.24,2.47,4.82a32.65,32.65,0,0,0,3.06,5.48c1.36,1.58,1.1-.25,1.22-.67,1.78-6.2,3.61-12.41,4.93-18.72.81-3.87,2.66-6.27,6.43-7.28,1.45-.25,2.17.74,2.89,1.72,1.16,1.77,2,3.73,3,5.59a15.57,15.57,0,0,1,1.43,3.78c1.46,2.88,2.93,5.76,4.36,8.65.46.92,1.88,1.94-.08,2.79-1.38.6-2.81,2.34-4.11-.12-2.83-4.78-5.51-9.64-8.1-14.54-.18-.36.1,0-.2-.22s-.37,0-.39.32c-1.05,3.7-1.6,7.54-3.54,10.92-1,3.64-2.24,7.23-3,10.92-.7,3.38-3.64,3.59-5.92,4.73-1,.52-1.26-.69-1.61-1.32-1.89-3.39-3.75-6.79-5.61-10.19-1.67-1.64-3.25-3.32-3.17-5.42-.44,2.14-.49,5-2.42,7.17-1.32,4.95-2.67,9.88-4,14.83-1,3.72-.93,3.73-5,5.22-.54-.66.3-1.29.06-1.95-.56-1.1,0-2.13.27-3.16,2-7.87,4.25-15.69,6.37-23.53C170.72,128.1,172.05,127,175.89,126.54Z"/><path class="cls-1" d="M175.89,126.54c-4.22,1.4-5.38,4.81-6.35,8.71-1.9,7.71-4.23,15.32-6.38,23-1.7.77-1.87.16-1.44-1.41,1.52-5.52,2.95-11.08,4.42-16.62.59-2.19,1.19-4.38,1.78-6.57l1.14-4.2C170.57,126.33,174,124.87,175.89,126.54Z"/><path class="cls-1" d="M205.82,126.42a9.68,9.68,0,0,1-1.87-3.49c-.33-1,.35-1.68.87-2.36q2.38-3.18,4.48-6.56c.52-.84,1-2.07,2.49-1.36l0,7.76C209,121.59,207.93,124.53,205.82,126.42Z"/><path class="cls-1" d="M193.76,134.22c.57-4.09,2.14-7.92,3.12-11.91,2.52,2,3.37,4.78,4.09,7.68C198.39,131.11,196.46,133.32,193.76,134.22Z"/><path class="cls-1" d="M172,140.11c.69-2.6,1.39-5.2,2.28-8.56.86,2.94,2.89,4.43,3.31,6.81C176.21,140.4,174.14,140.34,172,140.11Z"/><path class="cls-1" d="M201,130q-2.06-3.84-4.09-7.68c0-1.54.58-1.3,1.1-.3,2.71,5.22,5.35,10.48,8,15.73-2.07-.91-2.1-3.19-3.19-4.75C202.13,132,201.93,130.78,201,130Z"/><path class="cls-2" d="M130.94,103.06l4.05,1.86c5.88,5.7,4.07,14.2-3.48,16.42-1.53.45-2.93.49-4.07-.83a2,2,0,0,1-.53-1.24c.38-1.39,1.68-1.22,2.67-1.54,3.2-1,4.89-3.27,4.6-6.13-.29-2.7-2.71-4.82-5.83-5.09a7.15,7.15,0,0,0-6.78,4.49c-.71,2.33,1.16,3.9,1.59,5.88-.43.74-.7,1.53.29,2,2.84,1.31,3.3,4,4,6.6,1.84,7.19,4,14.28,6,21.43.15.56.25,2.2,1.1.26.87-2.4,1.62-4.83,2.45-7.24.35-1,.58-2.1,1.61-2.7,1.37-1.75,1.26-4.05,2.25-6,.48-.92.7-1.82,1.94-1.81,2.77.7,3.52,1.54,2.74,3.74-2.22,6.33-4.36,12.7-6.81,18.95a2.6,2.6,0,0,1-1.47,1.75c-.88.51,0,2.59-1.32,2.17-1.86-.6-4.17-1.06-4.88-3.39-.79-2.53-1.44-5.1-2.15-7.65-1.78-1.53-1.68-3.85-2.46-5.81a57.23,57.23,0,0,0-3.77-11.37,5.16,5.16,0,0,1-.18-2.24c-1.63,4.93-3.29,9.65-5.08,14.31-.38,1-.56,2.13-1.71,2.63s.06,3-1.62,2.48-4.15-.92-4.88-3.3c-.4-1.3-.8-2.6-1.21-3.91a16.84,16.84,0,0,1-2.26-5.78c-1.91-7.27-4.54-14.36-5.71-21.82-.22-1.46-.47-3,1.94-2.31,2.22,1,3,3,3.51,5.2q3,11.37,6.24,22.64c.32,1.12.5,1.94,1.77.89l4.12-12.57a34.64,34.64,0,0,0,0-10.85C116.49,106.21,123.32,101.28,130.94,103.06Z"/><path class="cls-1" d="M154.78,129.43q0,21.33,0,42.66c0,1,.33,2-.59,2.8-2.94-3.45-4.95-7.52-7.43-11.27-1.9-2.87-3.73-5.79-5.55-8.71-.49-.78-.91-1.55-2-1.54a1.08,1.08,0,0,1-.38-1.05c1.44-4.22,2.36-8.64,4.83-12.47a18,18,0,0,0,6.74-3.47c1.71-1.27,3.08-2.71,3.09-5C153.51,130.56,153.43,129.44,154.78,129.43Z"/><path class="cls-1" d="M102.08,108.46c-2.07-.49-2,.45-1.55,2,2.44,8.51,4.81,17,7.19,25.58a14.14,14.14,0,0,1,.26,1.73c-2.67-1.88-4.72-4.59-7.78-6-.12-12.33-.91-24.64-.61-37,.09-3.78,1.41-4.92,4.83-3.56,4,1.61,8,3.5,12,5.27-1.77.62-2.91,2-4.19,3.27s-2.66,2.55-4.94,2.89c-2.49.38-2.83,2.84-2.25,5.16C104.16,108.75,102.91,107.55,102.08,108.46Z"/><path class="cls-1" d="M127.15,139l1.74,6a42.43,42.43,0,0,1-8.72-.63c-1.2-.2-2.36-.37-2.61-1.85-.91-2.27,0-3.89,1.83-5.21C122.1,137.32,124.8,137.37,127.15,139Z"/><path class="cls-1" d="M144,140.21a98.94,98.94,0,0,0-4.78,13.16c-.61.36-.63,3-2,.52,2.36-6.48,4.55-13,7.17-19.4,1-2.53.78-4-1.63-5,.45-1.08.95-1.94,2.34-1.07a24.16,24.16,0,0,0,2.34,1.15c.92.73.46,1.64.18,2.42C146.62,134.78,146.1,137.84,144,140.21Z"/><path class="cls-1" d="M119.16,137.76a14.21,14.21,0,0,0-1.6,4.78c-.55.26-.44,1.35-1.33,1.14-.56-.12-.42-.73-.54-1.14l6.82-19.14c1,1.56.6,2.89.33,4.22C122.25,131.23,121.54,134.8,119.16,137.76Z"/><path class="cls-1" d="M201,117.46c-.84-.47-.84-2-2.28-1.73a1.8,1.8,0,0,1-1.36-1.42c-.06-1.62,1.06-2.7,1.8-4A29.8,29.8,0,0,0,203.4,92.5a19.54,19.54,0,0,0,4.85-2.44,4.86,4.86,0,0,1,.55.07c2.24,3.2,1.13,6.68.74,10.05-.66,5.72-3.08,10.78-6.24,15.53A3.41,3.41,0,0,1,201,117.46Z"/><path class="cls-1" d="M179.78,131.89a11.06,11.06,0,0,1-2.27-4.21c3.93-1.82,7.94-3.49,11.52-6a7.58,7.58,0,0,1,2.24-.66c.81,2.49-.41,4.6-1.28,6.78C187.07,130.38,183.88,132.28,179.78,131.89Z"/><path class="cls-1" d="M189.53,127.65l1.74-6.61c.36-3.75,2.7-5.72,6.1-6.73a1.42,1.42,0,0,1,1.36,1.42c-4,1.24-5.31,4.24-6.16,8.08-1.54,7-3.62,13.87-5.51,20.93a4,4,0,0,1-1.76-2.58c.08-2.8,1.2-5.39,1.71-8.1C187.69,131.86,188.11,129.56,189.53,127.65Z"/><path class="cls-1" d="M130.94,103.06c-3.82,0-7.4.59-10.43,3.36a7.23,7.23,0,0,0-2,8.39c1.35,3.47.47,6.28-1,9.25-2.5-3-5.21-6-5.73-10.16-.1-.79-.51-1.68,0-2.28,3.83-4.18,5.79-10.37,12.43-11.56A23.7,23.7,0,0,1,130.94,103.06Z"/><path class="cls-1" d="M102.08,108.46c.3-3.56,2,.09,2.92-.58,1.18.72,1.2,2,1.5,3.14q3.52,12.8,7,25.61c-.52.8-.48,1.91-1.61,2.77-2.34-8.54-4.65-16.9-6.91-25.27C104.38,112,104,109.87,102.08,108.46Z"/><path class="cls-1" d="M144,140.21l3.45-10.68c5.73-4,7.62-9.56,6.77-16.26,1.19,2.24.42,4.64.53,7,.13,3.06,0,6.13,0,9.2-.11,4.76-3,7.5-6.89,9.63A6.63,6.63,0,0,1,144,140.21Z"/><path class="cls-1" d="M135.09,147.41l-1.23,3.64c-1-3.29-1.75-5.76-2.44-8.26-1.66-6-3.31-12-4.9-18.07-.62-2.35-1.23-4.61-4-5.38-.67-.18-1.33-.54-1.12-1.46s.77-1.06,1.56-.93a4.69,4.69,0,0,1,4.19,2.39l.44.59c.88,1.45,2.09,2.81,1.45,4.73q.78,3,1.54,6.06c.51,1.76,1,3.53,1.54,5.3A19.8,19.8,0,0,1,135.09,147.41Z"/><path class="cls-1" d="M135.09,147.41q-1.47-5.7-3-11.39a4,4,0,0,0,3.65.26c1.06-.32,2.38-.87,2.8.94Q136.85,142.31,135.09,147.41Z"/><path class="cls-1" d="M129.06,124.66c-.48-1.58-1-3.16-1.45-4.73,2.37,2.18,4.53.68,6.38-.66,4.16-3,4.84-6.87,2.47-11.48-.49-1-1.49-1.66-1.47-2.87a21.63,21.63,0,0,1,7.2,3c-.4,2.71.45,5.45-.58,8.17C139.64,121.3,134.37,125,129.06,124.66Z"/><path class="cls-1" d="M201,117.46c5.21-6.33,7.72-13.71,8.33-21.77a32.92,32.92,0,0,0-.54-5.56l3-1.14v23.66c-2.25.81-2.47,3.22-3.76,4.79-1.45,1.75-2.72,3.65-4.08,5.49C202.59,121.31,202,119.31,201,117.46Z"/><path class="cls-1" d="M189.53,127.65c-.6,2.19-1.19,4.38-1.79,6.57-1.32,1.86-3.41,2.07-5.4,2.48a18.69,18.69,0,0,1-2.56-4.81A29.76,29.76,0,0,0,189.53,127.65Z"/><path class="cls-1" d="M182.34,136.7c1.42-1.65,3.71-1.42,5.4-2.48-.8,2.65-.83,5.54-2.45,7.94A20.61,20.61,0,0,1,182.34,136.7Z"/><path class="cls-1" d="M127.17,119.34,123,117c-2.62-3-3.09-5.36-1.53-7.69a8,8,0,0,1,9.39-3A6.4,6.4,0,0,1,135,113c-.28,2.62-1.89,4.15-4.23,5.22C129.58,118.75,128.1,118.19,127.17,119.34Z"/><path class="cls-1" d="M119.16,137.76c1.25-3.37,2-6.93,3.68-10.14,2.41,2.11,2.3,5.32,3.46,8a19.66,19.66,0,0,1,.85,3.44Z"/><path class="cls-1" d="M117.57,122.64l1.41-1.77c.2-.25.41-.5.64-.74s.21-.22.32-.33.26-.3.38-.34c-.08,0-.19.14,0,0l.19-.12a1.4,1.4,0,0,1,.4-.21l-.13.06.18-.06.25-.07.24,0c.22-.05-.23,0,0,0a10.09,10.09,0,0,1,1.1,0l.58.06c.23,0-.24,0,0,0l.32,0a1.53,1.53,0,0,0,1.84-1,1.51,1.51,0,0,0-1-1.85c-1.84-.27-3.79-.47-5.41.64a16.62,16.62,0,0,0-3.33,3.62,1.68,1.68,0,0,0-.44,1.06,1.54,1.54,0,0,0,.44,1.06,1.51,1.51,0,0,0,2.12,0Z"/><path class="cls-1" d="M121.69,116.41a15.45,15.45,0,0,1,0-6.17c.4-1.4,1.5-3,3.06-3.18l-1.29-2.26a14,14,0,0,0-2,4.24,20.19,20.19,0,0,0-.48,4.24c0,.84-.39.46-1,.84-.27,0-.26,0,0,.16s.28.17.15-.11c.06-.3-.05-.73,0-1.06a12.46,12.46,0,0,1,1.9-4.16c1.39-2.26,3.22-4.75,5.77-5.76,1.88-.75,4.8-.41,5.57,1.78l1-1.85c-2.45.94-5.09.68-7.63,1.17a8.31,8.31,0,0,0-5.46,3.3,1.51,1.51,0,0,0,2,2l11-7.6a1.5,1.5,0,0,0-1.52-2.59q-6.69,3.85-13.64,7.25l2,2c1.44-2.08,3.94-4.66,6.72-4.3s3.57,4,4.05,6.35L135,110a44.85,44.85,0,0,1-1.36-4.59l-.18-.85-.75,1a7.91,7.91,0,0,1,.71.41,3.84,3.84,0,0,1,.86,1.79,24.34,24.34,0,0,1,.49,9.54h3a70.54,70.54,0,0,0-.44-7.26c-.24-1.88-.93-3.44-2.75-4.2-.94-.39-1.88.58-1.9,1.45q-.12,5.64,0,11.28a1.51,1.51,0,0,0,2.8.75c1.11-1.65,1.79-8-1.89-6.65-1.43.53-1.87,2.39-2.11,3.73a13.44,13.44,0,0,0,.1,5.25l2.74-1.15-2.63-4.08a1.51,1.51,0,0,0-2.74,1.16l1.57,6.53,2.74-1.16L130.14,118c-.73-1.13-3-.83-2.8.76a16.93,16.93,0,0,0,1,4.14l2.74-1.16a18,18,0,0,0-3.42-4.79c-1.36-1.38-3.48.74-2.12,2.12a15.35,15.35,0,0,1,3,4.19c.74,1.5,3.38.43,2.75-1.16a13.33,13.33,0,0,1-.91-3.34l-2.79.75,3.15,4.92a1.51,1.51,0,0,0,2.74-1.16l-1.56-6.53-2.75,1.16,2.63,4.07a1.51,1.51,0,0,0,2.74-1.16,9.69,9.69,0,0,1,.18-4.84l.12-.38c.37-.66-.11-1-1.42-.86-.11.22,0,.85,0,1.09a3.26,3.26,0,0,1-.5,2l2.79.76q-.15-5.64,0-11.28l-1.9,1.44c.77.33.68,2.62.72,3.22.14,1.78.22,3.57.27,5.35.06,2,2.76,1.86,3,0a27.5,27.5,0,0,0,0-7.25c-.3-2.16-.66-4.76-2.36-6.32-1.26-1.15-4.15-2-4.84.25a6,6,0,0,0,.39,3.1c.32,1.26.71,2.51,1.15,3.74A1.5,1.5,0,0,0,135,110c-.76-3.69-2.26-8-6.57-8.5-4.08-.53-7.53,2.62-9.68,5.74-.92,1.34.82,2.65,2,2.05q6.95-3.39,13.65-7.25l-1.52-2.59-11,7.6,2,2c1-1.44,3-1.89,4.63-2.06,2.25-.23,4.53-.21,6.67-1a1.54,1.54,0,0,0,1.05-1.85A6.77,6.77,0,0,0,130,99.81c-3-.15-5.77,1.67-7.73,3.82-2.15,2.35-4.37,5.52-5,8.68-.31,1.44-.27,3.46,1.06,4.4,1.17.82,3,.36,4.1-.36,1.72-1.1,1.41-2.82,1.55-4.59a11.18,11.18,0,0,1,2-5.44,1.51,1.51,0,0,0-1.3-2.26,6.91,6.91,0,0,0-5.46,4.08c-1.21,2.61-.94,5.51-.58,8.27a1.54,1.54,0,0,0,1.5,1.5,1.51,1.51,0,0,0,1.5-1.5Z"/><path class="cls-1" d="M116.35,140.86c-.35.68-.7,1.37-1.08,2-.18.32-.37.64-.57.94a5.72,5.72,0,0,1-.32.48l-.17.24s-.21.3-.09.12-.07.09-.08.1l-.15.16s-.26.19-.09.1l-.11.06c-.12.06-.12.07,0,0s.11,0,0,0a1.36,1.36,0,0,1-.25.07s.37,0,0,0h-.27c-.36,0-.72-.05-1.08-.07a6.19,6.19,0,0,0-1.36.1,1.51,1.51,0,0,0-1,1.85,1.53,1.53,0,0,0,1.84,1c-.4.08-.06,0,0,0h.27l.6,0a6.35,6.35,0,0,0,1.07,0,3.69,3.69,0,0,0,2.7-1.36,23.92,23.92,0,0,0,2.68-4.41,1.5,1.5,0,1,0-2.59-1.51Z"/><path class="cls-1" d="M135.63,159.19c2.58-.54,3.53-3.45,4.59-5.51q2-3.77,4.22-7.35a1.5,1.5,0,0,0-2.59-1.51q-2.08,3.28-3.9,6.73c-.56,1.06-1.06,2.15-1.62,3.21a6.21,6.21,0,0,1-.64,1,1.19,1.19,0,0,1-.86.54,1.5,1.5,0,0,0,.8,2.89Z"/><path class="cls-1" d="M122.07,125l.48,2.6a6.86,6.86,0,0,0,.31,1.16,11.54,11.54,0,0,1,.44,1.16.5.5,0,0,0,1-.27,10.21,10.21,0,0,0-.44-1.16,5.65,5.65,0,0,1-.3-1.16c-.17-.86-.33-1.73-.49-2.6a.5.5,0,0,0-.61-.35.52.52,0,0,0-.35.62Z"/><path class="cls-1" d="M122.07,125.15a24.25,24.25,0,0,1,.82,2.63c.19.92.37,1.84.55,2.77a.51.51,0,0,0,.61.35.51.51,0,0,0,.35-.62c-.18-.92-.35-1.85-.55-2.77a22.07,22.07,0,0,0-.82-2.62c-.2-.61-1.17-.35-1,.26Z"/><path class="cls-1" d="M124.4,129.93a5.54,5.54,0,0,0-.47-1.31.57.57,0,0,0-.3-.23.5.5,0,0,0-.62.35.58.58,0,0,0,0,.39,1,1,0,0,1,.14.25l0-.12c.13.3.16.63.29.93a.46.46,0,0,0,.09.17.29.29,0,0,0,.14.13.51.51,0,0,0,.38,0,.5.5,0,0,0,.35-.61Z"/><path class="cls-1" d="M123.13,129.21a.27.27,0,0,1,.07.08l-.07-.1a1.71,1.71,0,0,1,.13.23l-.05-.12c.05.12.08.25.12.38a2.4,2.4,0,0,1,.12.44l0-.13a1.48,1.48,0,0,1,0,.21v-.13s0,.05,0,.07a.51.51,0,0,0,.35.62.5.5,0,0,0,.61-.35,2,2,0,0,0-.13-1.07,1.87,1.87,0,0,0-.43-.84.5.5,0,0,0-.71.71Z"/><path class="cls-1" d="M124.53,130.19a7.84,7.84,0,0,0-.82-2.4.5.5,0,0,0-.87.5,5.77,5.77,0,0,1,.27.56c.06.12,0-.1,0,0l.06.15c0,.09.07.18.1.27a6.65,6.65,0,0,1,.28,1.15.5.5,0,0,0,.62.35.51.51,0,0,0,.35-.61Z"/><path class="cls-1" d="M176.91,127c.77,1.66,1.63,3.28,2.52,4.87q.66,1.17,1.32,2.31a3.89,3.89,0,0,0,1.41,1.67c.57.3,1.07-.56.5-.86s-.95-1.15-1.29-1.74-.83-1.45-1.24-2.17c-.84-1.5-1.64-3-2.36-4.58-.27-.58-1.13-.08-.86.5Z"/><path class="cls-1" d="M181.86,136.14c.76,1.29,1.62,2.57,2.25,3.93.29.63.51,1.29.83,1.9a21.36,21.36,0,0,0,1.09,1.85c.34.54,1.21,0,.86-.5s-.74-1.17-1.06-1.79-.55-1.31-.85-2c-.64-1.37-1.49-2.64-2.26-3.94a.5.5,0,0,0-.86.51Z"/></svg>