<svg id="Logos_Patrocinadores_Web" data-name="Logos Patrocinadores Web" xmlns="http://www.w3.org/2000/svg" viewBox="0 0 300 300"><defs><style>.cls-1{fill:#8f8fa3;}</style></defs><path class="cls-1" d="M49.56,166.7H28.35s-4.76.09,0-4.68c1.35-1.34,3.63-3.71,6.22-6.42,2.66,2.79,5,5.24,6.39,6.61,4,3,5.75,4,5.75,4,2.42-1.55-1.12-5.81-1.12-5.81l-7.75-8.28c5.73-6,11.66-12.35,11.9-12.6h0v0c.37-.4,4.34-4.78-2.18-4.75l-6,.29H23c-6.83,0-3.42,4.67-3.42,4.67s6.05,6.45,11.9,12.61c-6.11,6.75-12.64,14-12.64,14s-5.2,6.83,0,6.47l30.73-2.16C52.11,170.65,53.12,166.7,49.56,166.7ZM27.48,141.18c-1.53-1.53,1.62-1.62,1.62-1.62H41.46c.66.2,1.2.61.38,1.43-.54.54-3.51,3.8-7.16,7.81C31.21,145.1,28.1,141.8,27.48,141.18Z"/><path class="cls-1" d="M34.23,188a34.23,34.23,0,1,1,34.22-34.23A34.26,34.26,0,0,1,34.23,188Zm0-63.69a29.47,29.47,0,1,0,29.46,29.46A29.5,29.5,0,0,0,34.23,124.31Z"/><path class="cls-1" d="M105.63,167.4H84.37V164l16.7-20.66H85v-3.22h20.24v3.27L88.36,164.18h17.27Z"/><path class="cls-1" d="M136.85,167.4h-18V140.15h18v3.22H122.52v7.47h14.33v3.22H122.52v10.12h14.33Z"/><path class="cls-1" d="M167.33,167.4H150.09V140.15h3.62v24h13.62Z"/><path class="cls-1" d="M196.4,167.4h-18V140.15h18v3.22H182.07v7.47H196.4v3.22H182.07v10.12H196.4Z"/><path class="cls-1" d="M232.19,167.4h-4.7l-9.12-10.84h-5.1V167.4h-3.63V140.15h7.64a21.47,21.47,0,0,1,4.11.32,8.58,8.58,0,0,1,3,1.14,7,7,0,0,1,2.32,2.35,7.1,7.1,0,0,1,.83,3.6,8,8,0,0,1-1.49,4.93,8.86,8.86,0,0,1-4.08,3Zm-8.47-19.58a5,5,0,0,0-.41-2.08,3.69,3.69,0,0,0-1.37-1.53,5,5,0,0,0-1.86-.74,13.52,13.52,0,0,0-2.55-.21h-4.26v10.28h3.66a13.22,13.22,0,0,0,3-.3,4.78,4.78,0,0,0,2.18-1.12,4.94,4.94,0,0,0,1.22-1.77A7,7,0,0,0,223.72,147.82Z"/><path class="cls-1" d="M263.52,143.28a12.36,12.36,0,0,1,2.55,4.48,19,19,0,0,1,.89,6,18.46,18.46,0,0,1-.91,6,12.3,12.3,0,0,1-2.53,4.44,10.91,10.91,0,0,1-4,2.78,13.92,13.92,0,0,1-5.25.94,13.67,13.67,0,0,1-5.22-1,10.72,10.72,0,0,1-4-2.76,12.5,12.5,0,0,1-2.54-4.45,18.84,18.84,0,0,1-.88-6,19,19,0,0,1,.87-6,12.58,12.58,0,0,1,2.57-4.53,10.45,10.45,0,0,1,4-2.75,14,14,0,0,1,5.2-.95,13.7,13.7,0,0,1,5.26,1A11,11,0,0,1,263.52,143.28Zm-.33,10.5c0-3.54-.8-6.26-2.38-8.19a8.8,8.8,0,0,0-13,0c-1.58,1.93-2.37,4.65-2.37,8.19s.8,6.31,2.41,8.21a8.78,8.78,0,0,0,12.95,0C262.38,160.09,263.19,157.36,263.19,153.78Z"/><path class="cls-1" d="M300,159.62a7.33,7.33,0,0,1-.74,3.15,7.41,7.41,0,0,1-2.08,2.63,11,11,0,0,1-3.41,1.83,14.76,14.76,0,0,1-4.7.66,23,23,0,0,1-5.29-.55,25.58,25.58,0,0,1-4.79-1.63v-4.53h.26a15.19,15.19,0,0,0,4.77,2.65,15.72,15.72,0,0,0,5.09.93,9.31,9.31,0,0,0,5.24-1.26,3.86,3.86,0,0,0,1.88-3.37,3.58,3.58,0,0,0-.89-2.67,6.08,6.08,0,0,0-2.7-1.34,27.78,27.78,0,0,0-3-.6c-1.07-.16-2.2-.36-3.4-.6a10.13,10.13,0,0,1-5.37-2.63,7.18,7.18,0,0,1,1.15-10.45,11.81,11.81,0,0,1,7.34-2.19,24,24,0,0,1,5.27.55,24.31,24.31,0,0,1,4.24,1.36v4.28h-.25a12.61,12.61,0,0,0-4.09-2.19,15.88,15.88,0,0,0-5.19-.87,8.2,8.2,0,0,0-4.68,1.21,3.63,3.63,0,0,0-1.76,3.11,3.83,3.83,0,0,0,.87,2.67,5.93,5.93,0,0,0,3.1,1.49c.78.17,1.89.38,3.33.62s2.66.49,3.66.75a9.54,9.54,0,0,1,4.57,2.43A6.37,6.37,0,0,1,300,159.62Z"/></svg>