<svg id="svg" xmlns="http://www.w3.org/2000/svg" xmlns:xlink="http://www.w3.org/1999/xlink" width="400" height="114.80756686236138" viewBox="0, 0, 400,114.80756686236138" version="1.1"><g id="svgg"><path id="path0" d="M59.909 0.409 C 59.403 0.915,59.388 1.383,59.865 1.827 C 60.911 2.802,62.302 1.411,61.327 0.365 C 60.883 -0.112,60.415 -0.097,59.909 0.409 M64.259 0.370 C 63.508 1.443,64.527 2.610,65.678 1.994 C 66.111 1.762,66.122 0.662,65.695 0.276 C 65.260 -0.118,64.570 -0.072,64.259 0.370 M68.593 0.370 C 67.985 1.239,68.425 2.233,69.417 2.233 C 70.122 2.233,70.500 1.863,70.500 1.172 C 70.500 0.091,69.178 -0.465,68.593 0.370 M72.942 0.305 C 72.530 0.761,72.583 1.756,73.037 2.074 C 74.196 2.885,75.552 1.529,74.741 0.370 C 74.407 -0.106,73.349 -0.145,72.942 0.305 M77.248 0.335 C 76.530 1.129,77.083 2.333,78.167 2.333 C 79.160 2.333,79.817 0.884,79.133 0.200 C 78.800 -0.134,77.594 -0.047,77.248 0.335 M81.778 0.111 C 81.717 0.172,81.667 0.963,81.667 1.869 C 81.667 4.988,80.423 8.965,78.269 12.735 C 77.904 13.374,75.681 16.658,75.495 16.833 C 75.446 16.879,74.921 17.511,74.328 18.238 C 73.024 19.836,73.025 19.834,70.810 22.102 C 68.190 24.784,67.289 25.611,64.688 27.725 C 62.897 29.180,62.870 29.202,62.534 29.508 C 62.378 29.649,61.837 30.096,61.333 30.500 C 60.829 30.904,60.289 31.351,60.133 31.492 C 59.683 31.901,59.385 32.144,58.027 33.209 C 57.324 33.759,56.675 34.297,56.583 34.405 C 56.492 34.513,56.040 34.897,55.580 35.259 C 54.721 35.935,51.816 38.345,51.667 38.505 C 51.621 38.555,50.983 39.074,50.250 39.658 C 49.517 40.243,48.842 40.804,48.750 40.906 C 48.658 41.008,47.983 41.574,47.250 42.165 C 46.517 42.755,45.729 43.403,45.500 43.604 C 45.271 43.805,44.296 44.619,43.333 45.413 C 42.371 46.206,41.220 47.166,40.775 47.545 C 40.331 47.924,39.637 48.492,39.234 48.806 C 38.830 49.121,38.500 49.443,38.500 49.522 C 38.500 49.602,38.391 49.667,38.258 49.667 C 38.125 49.667,37.957 49.762,37.883 49.878 C 37.810 49.995,37.113 50.613,36.335 51.253 C 35.557 51.893,34.738 52.567,34.515 52.750 C 34.292 52.933,33.990 53.196,33.845 53.333 C 33.699 53.471,32.981 54.064,32.248 54.652 C 31.516 55.240,30.842 55.804,30.750 55.906 C 30.658 56.008,30.208 56.389,29.750 56.754 C 29.292 57.118,28.879 57.458,28.833 57.509 C 28.787 57.560,28.300 57.976,27.750 58.435 C 27.200 58.894,26.525 59.465,26.250 59.705 C 25.975 59.944,25.002 60.765,24.088 61.528 C 21.903 63.353,19.283 65.990,18.238 67.417 C 17.970 67.783,17.694 68.108,17.625 68.139 C 17.556 68.169,17.500 68.268,17.500 68.358 C 17.500 68.448,17.320 68.761,17.100 69.053 C 16.424 69.950,14.501 73.535,14.499 73.903 C 14.498 74.002,14.394 74.282,14.267 74.526 C 14.024 74.992,13.559 76.587,13.059 78.667 C 12.572 80.700,12.534 86.631,12.994 89.062 C 13.505 91.766,14.696 95.831,15.416 97.333 C 16.234 99.039,16.501 99.555,17.141 100.663 C 19.369 104.521,23.515 108.997,28.615 113.052 C 31.113 115.038,30.927 115.071,31.065 112.625 C 31.180 110.577,31.607 108.428,32.189 106.969 C 32.360 106.540,32.500 106.101,32.500 105.995 C 32.500 105.573,34.529 101.655,35.458 100.283 C 35.756 99.843,36.000 99.450,36.000 99.410 C 36.000 99.370,36.107 99.205,36.237 99.044 C 36.367 98.882,37.093 97.962,37.850 97.000 C 39.588 94.789,46.019 88.333,46.483 88.333 C 46.543 88.333,46.709 88.202,46.852 88.042 C 47.184 87.668,47.742 87.183,50.226 85.111 C 51.339 84.183,52.325 83.342,52.417 83.242 C 52.508 83.142,52.996 82.730,53.500 82.325 C 54.004 81.921,54.604 81.427,54.833 81.227 C 55.063 81.028,56.038 80.217,57.000 79.425 C 57.962 78.633,58.975 77.791,59.250 77.553 C 59.525 77.316,60.313 76.670,61.000 76.117 C 61.688 75.564,62.325 75.028,62.417 74.924 C 62.508 74.821,63.333 74.144,64.250 73.419 C 65.167 72.695,65.992 72.015,66.083 71.909 C 66.175 71.803,66.813 71.279,67.500 70.746 C 68.188 70.212,68.880 69.658,69.040 69.513 C 69.638 68.969,69.944 68.713,70.958 67.909 C 71.530 67.455,71.999 67.027,71.999 66.958 C 72.000 66.890,72.109 66.833,72.242 66.833 C 72.375 66.833,72.543 66.735,72.617 66.616 C 72.690 66.496,73.310 65.955,73.993 65.414 C 74.677 64.873,75.354 64.314,75.497 64.173 C 75.640 64.032,76.277 63.504,76.914 63.000 C 78.247 61.945,82.851 58.145,84.083 57.083 C 84.542 56.688,85.367 56.002,85.918 55.557 C 86.468 55.113,87.106 54.588,87.335 54.389 C 87.563 54.191,88.388 53.489,89.167 52.829 C 90.859 51.395,93.875 48.347,94.282 47.658 C 94.441 47.388,94.631 47.167,94.703 47.167 C 94.775 47.167,94.833 47.060,94.833 46.931 C 94.833 46.801,94.899 46.669,94.979 46.639 C 95.584 46.408,97.904 42.011,98.790 39.417 C 100.804 33.519,100.530 25.166,98.145 19.704 C 97.973 19.312,97.833 18.911,97.833 18.812 C 97.833 18.714,97.732 18.397,97.608 18.109 C 96.766 16.149,96.527 15.641,96.023 14.750 C 94.066 11.285,90.403 7.006,86.667 3.817 C 85.979 3.230,85.379 2.707,85.333 2.655 C 85.185 2.486,82.021 0.000,81.954 0.000 C 81.918 0.000,81.839 0.050,81.778 0.111 M46.840 0.531 C 46.432 0.969,46.419 1.144,46.759 1.630 C 47.246 2.325,48.333 1.946,48.333 1.081 C 48.333 0.292,47.387 -0.056,46.840 0.531 M51.262 0.429 C 50.952 0.739,50.917 1.517,51.200 1.800 C 51.702 2.302,52.833 1.854,52.833 1.155 C 52.833 0.390,51.785 -0.095,51.262 0.429 M55.533 0.367 C 55.115 0.785,55.289 1.774,55.818 1.994 C 56.723 2.369,57.452 1.509,57.025 0.571 C 56.820 0.121,55.904 -0.004,55.533 0.367 M38.125 0.513 C 37.790 0.708,37.739 1.339,38.033 1.633 C 38.716 2.316,39.895 1.380,39.251 0.667 C 38.919 0.300,38.572 0.253,38.125 0.513 M42.442 0.638 C 41.867 1.274,42.268 1.892,43.197 1.803 C 43.664 1.758,43.758 1.677,43.804 1.282 C 43.904 0.405,43.028 -0.009,42.442 0.638 M25.125 0.678 C 24.507 1.043,24.976 1.969,25.668 1.750 C 25.944 1.662,26.008 1.526,25.968 1.112 C 25.913 0.547,25.610 0.391,25.125 0.678 M29.329 0.755 C 29.167 0.950,29.162 1.107,29.305 1.422 C 29.616 2.103,30.500 1.914,30.500 1.167 C 30.500 0.513,29.749 0.249,29.329 0.755 M33.698 1.125 C 33.761 1.887,34.495 2.132,34.831 1.504 C 35.145 0.917,34.895 0.500,34.229 0.500 C 33.658 0.500,33.648 0.512,33.698 1.125 M20.531 1.125 C 20.575 1.511,20.662 1.583,21.083 1.583 C 21.505 1.583,21.592 1.511,21.636 1.125 C 21.685 0.699,21.646 0.667,21.083 0.667 C 20.521 0.667,20.482 0.699,20.531 1.125 M76.772 4.012 C 75.747 4.818,76.388 6.293,77.687 6.118 C 79.126 5.925,78.954 3.667,77.500 3.667 C 77.341 3.667,77.014 3.822,76.772 4.012 M67.704 4.093 C 67.287 4.384,67.181 5.448,67.533 5.800 C 67.871 6.138,69.127 6.052,69.327 5.678 C 69.949 4.515,68.759 3.354,67.704 4.093 M72.109 4.138 C 71.673 4.621,71.749 5.604,72.249 5.932 C 73.067 6.468,74.167 5.894,74.167 4.931 C 74.167 4.047,72.702 3.483,72.109 4.138 M54.000 4.333 C 53.600 4.734,53.577 5.131,53.926 5.630 C 54.246 6.087,55.006 6.121,55.391 5.695 C 56.257 4.738,54.912 3.422,54.000 4.333 M58.625 4.180 C 58.282 4.380,58.220 5.486,58.533 5.800 C 58.938 6.205,59.803 6.042,60.078 5.509 C 60.608 4.486,59.632 3.593,58.625 4.180 M62.926 4.370 C 62.375 5.157,62.832 6.000,63.809 6.000 C 64.597 6.000,64.833 5.763,64.833 4.973 C 64.833 3.990,63.490 3.566,62.926 4.370 M31.555 4.296 C 31.286 4.467,31.132 5.202,31.308 5.472 C 31.592 5.906,32.410 5.639,32.473 5.092 C 32.546 4.449,32.024 3.997,31.555 4.296 M35.958 4.347 C 35.567 4.575,35.589 5.211,36.001 5.584 C 36.482 6.019,37.167 5.698,37.167 5.037 C 37.167 4.263,36.630 3.956,35.958 4.347 M40.333 4.583 C 40.078 5.255,40.386 5.833,40.999 5.833 C 41.651 5.833,41.990 5.226,41.697 4.583 C 41.555 4.272,41.379 4.167,40.999 4.167 C 40.611 4.167,40.454 4.265,40.333 4.583 M44.803 4.583 C 44.494 5.262,44.848 5.833,45.577 5.833 C 46.060 5.833,46.178 5.762,46.265 5.417 C 46.468 4.608,46.225 4.167,45.577 4.167 C 45.116 4.167,44.953 4.254,44.803 4.583 M49.403 4.391 C 49.003 5.434,49.925 6.421,50.670 5.747 C 51.335 5.145,51.071 4.261,50.207 4.199 C 49.702 4.162,49.470 4.218,49.403 4.391 M22.367 4.533 C 21.802 5.098,22.416 5.869,23.082 5.433 C 23.568 5.114,23.598 4.955,23.238 4.595 C 22.925 4.282,22.638 4.262,22.367 4.533 M26.731 4.574 C 26.481 5.225,27.091 5.901,27.625 5.565 C 28.254 5.168,27.983 4.333,27.224 4.333 C 27.004 4.333,26.781 4.441,26.731 4.574 M17.727 4.750 C 17.567 5.166,17.798 5.500,18.245 5.500 C 18.602 5.500,18.667 5.424,18.667 5.000 C 18.667 4.445,17.920 4.247,17.727 4.750 M75.167 8.000 C 74.728 8.439,74.731 9.327,75.173 9.802 C 75.908 10.590,77.167 10.011,77.167 8.885 C 77.167 8.190,76.666 7.667,76.000 7.667 C 75.722 7.667,75.352 7.815,75.167 8.000 M47.401 8.221 C 46.574 8.933,47.413 10.154,48.415 9.698 C 48.981 9.440,49.009 8.475,48.463 8.093 C 47.982 7.756,47.935 7.762,47.401 8.221 M52.037 8.093 C 51.270 8.630,51.775 9.833,52.767 9.833 C 53.247 9.833,53.556 9.429,53.556 8.801 C 53.556 7.946,52.770 7.580,52.037 8.093 M56.595 8.095 C 56.005 8.685,56.394 9.833,57.183 9.833 C 57.987 9.833,58.333 9.563,58.333 8.937 C 58.333 7.986,57.236 7.455,56.595 8.095 M61.055 8.406 C 60.563 9.438,61.633 10.388,62.585 9.765 C 63.045 9.463,63.176 8.409,62.800 8.033 C 62.344 7.578,61.348 7.791,61.055 8.406 M65.776 8.138 C 64.827 9.186,66.503 10.645,67.471 9.614 C 67.899 9.159,67.931 8.714,67.574 8.204 C 67.240 7.727,66.183 7.689,65.776 8.138 M70.329 8.261 C 69.960 9.231,70.409 10.056,71.305 10.056 C 72.307 10.056,72.872 8.921,72.268 8.125 C 71.889 7.626,70.535 7.721,70.329 8.261 M38.125 8.180 C 37.664 8.449,37.743 9.299,38.250 9.530 C 39.184 9.956,39.941 8.951,39.195 8.276 C 38.848 7.962,38.546 7.935,38.125 8.180 M42.700 8.200 C 42.176 8.724,42.582 9.667,43.333 9.667 C 43.873 9.667,44.167 9.386,44.167 8.871 C 44.167 8.132,43.208 7.692,42.700 8.200 M24.266 8.384 C 23.762 8.753,23.978 9.406,24.625 9.469 C 25.240 9.528,25.480 8.489,24.903 8.268 C 24.567 8.139,24.613 8.131,24.266 8.384 M28.732 8.405 C 28.496 9.018,28.733 9.417,29.333 9.417 C 29.853 9.417,29.923 9.364,29.972 8.935 C 30.050 8.245,28.970 7.783,28.732 8.405 M33.335 8.415 C 32.914 8.922,33.268 9.500,34.000 9.500 C 34.566 9.500,34.675 9.440,34.765 9.081 C 34.901 8.542,34.587 8.167,34.000 8.167 C 33.747 8.167,33.448 8.278,33.335 8.415 M14.768 8.595 C 14.629 8.959,14.967 9.531,15.285 9.468 C 15.644 9.398,15.909 8.937,15.782 8.606 C 15.648 8.258,14.901 8.250,14.768 8.595 M19.411 8.509 C 19.153 8.926,19.497 9.523,19.964 9.469 C 20.688 9.385,20.740 8.333,20.020 8.333 C 19.745 8.333,19.471 8.413,19.411 8.509 M68.274 11.909 C 67.435 12.686,67.918 13.833,69.083 13.833 C 70.249 13.833,70.731 12.686,69.892 11.909 C 69.333 11.390,68.834 11.390,68.274 11.909 M73.029 11.765 C 72.469 12.157,72.566 13.412,73.184 13.786 C 74.005 14.282,75.000 13.724,75.000 12.767 C 75.000 11.735,73.883 11.167,73.029 11.765 M54.449 11.852 C 53.456 12.430,53.843 13.707,54.989 13.633 L 55.750 13.583 55.800 12.822 C 55.862 11.866,55.219 11.404,54.449 11.852 M58.971 11.839 C 58.591 12.061,58.430 12.892,58.687 13.305 C 59.231 14.175,60.667 13.776,60.667 12.756 C 60.667 11.884,59.747 11.387,58.971 11.839 M63.458 12.036 C 62.589 13.124,63.965 14.390,65.130 13.574 C 65.388 13.393,65.500 13.144,65.500 12.750 C 65.500 11.742,64.088 11.248,63.458 12.036 M45.000 11.955 C 44.666 12.082,44.506 12.343,44.503 12.766 C 44.497 13.553,45.805 14.009,46.161 13.344 C 46.664 12.404,45.978 11.583,45.000 11.955 M49.531 11.977 C 49.389 12.067,49.330 12.376,49.364 12.850 C 49.428 13.738,50.601 14.079,51.003 13.327 C 51.513 12.375,50.446 11.397,49.531 11.977 M21.433 12.218 C 21.250 12.351,21.157 12.592,21.193 12.843 C 21.276 13.432,22.388 13.452,22.471 12.866 C 22.573 12.147,22.010 11.796,21.433 12.218 M26.033 12.200 C 25.552 12.681,25.979 13.500,26.711 13.500 C 27.101 13.500,27.399 12.768,27.178 12.354 C 26.969 11.965,26.352 11.882,26.033 12.200 M30.732 12.236 C 30.493 12.860,30.738 13.416,31.277 13.468 C 31.871 13.525,32.111 13.133,31.929 12.405 C 31.812 11.942,30.895 11.812,30.732 12.236 M35.330 12.340 C 34.971 13.011,35.561 13.750,36.301 13.557 C 36.716 13.448,36.905 12.976,36.762 12.405 C 36.626 11.863,35.610 11.817,35.330 12.340 M40.041 12.192 C 39.545 12.689,40.038 13.667,40.784 13.667 C 41.739 13.667,41.785 12.114,40.833 12.034 C 40.511 12.007,40.155 12.078,40.041 12.192 M11.911 12.519 C 11.841 12.738,11.893 12.964,12.048 13.119 C 12.361 13.432,13.000 13.255,13.000 12.855 C 13.000 12.182,12.105 11.905,11.911 12.519 M16.564 12.601 C 16.492 12.889,16.533 13.085,16.686 13.182 C 17.309 13.577,17.994 13.111,17.672 12.511 C 17.397 11.996,16.701 12.053,16.564 12.601 M51.537 15.759 C 51.041 16.107,51.010 17.238,51.489 17.494 C 52.297 17.926,53.000 17.501,53.000 16.581 C 53.000 16.038,52.544 15.500,52.083 15.500 C 51.987 15.500,51.741 15.617,51.537 15.759 M56.095 15.762 C 55.710 16.147,55.749 17.277,56.156 17.494 C 57.307 18.110,58.326 16.944,57.574 15.870 C 57.266 15.431,56.484 15.373,56.095 15.762 M60.782 15.742 C 59.815 16.709,60.942 18.346,62.068 17.609 C 63.020 16.985,62.740 15.626,61.640 15.533 C 61.263 15.501,60.945 15.578,60.782 15.742 M65.429 15.762 C 64.395 16.795,65.704 18.393,66.927 17.592 C 67.381 17.295,67.513 16.080,67.133 15.700 C 66.846 15.413,65.737 15.453,65.429 15.762 M69.936 15.911 C 69.346 16.811,69.916 17.833,71.008 17.833 C 71.847 17.833,72.258 17.293,72.111 16.385 C 71.948 15.386,70.488 15.067,69.936 15.911 M37.340 16.031 C 36.758 16.656,37.116 17.500,37.962 17.500 C 38.306 17.500,38.833 16.941,38.833 16.578 C 38.833 16.307,38.189 15.667,37.917 15.667 C 37.786 15.667,37.527 15.831,37.340 16.031 M41.942 15.971 C 41.367 16.608,41.777 17.500,42.645 17.500 C 43.219 17.500,43.500 17.223,43.500 16.659 C 43.500 15.803,42.496 15.360,41.942 15.971 M46.609 15.971 C 46.132 16.499,46.271 17.119,46.947 17.475 C 47.907 17.980,48.832 16.670,48.029 15.942 C 47.626 15.578,46.953 15.592,46.609 15.971 M27.934 16.050 C 27.737 16.194,27.657 16.431,27.694 16.758 C 27.778 17.494,29.053 17.515,29.137 16.782 C 29.231 15.959,28.591 15.570,27.934 16.050 M32.507 16.154 C 32.156 16.809,32.456 17.333,33.182 17.333 C 34.298 17.333,34.318 15.977,33.203 15.865 C 32.823 15.827,32.641 15.903,32.507 16.154 M13.860 16.146 C 13.569 16.331,13.673 17.001,14.028 17.223 C 14.392 17.451,14.833 17.099,14.833 16.581 C 14.833 16.084,14.320 15.855,13.860 16.146 M18.527 16.146 C 18.231 16.334,18.342 17.003,18.708 17.232 C 19.091 17.472,19.563 17.187,19.640 16.668 C 19.723 16.105,19.073 15.800,18.527 16.146 M23.111 16.111 C 22.930 16.292,22.984 16.918,23.200 17.133 C 23.780 17.713,24.857 16.881,24.337 16.255 C 24.125 15.999,23.318 15.904,23.111 16.111 M9.031 16.625 C 9.099 17.221,9.907 17.390,10.080 16.845 C 10.233 16.363,10.059 16.167,9.479 16.167 C 9.031 16.167,8.983 16.215,9.031 16.625 M67.000 19.285 C 65.681 19.770,65.988 21.667,67.385 21.667 C 68.316 21.667,68.610 21.249,68.526 20.046 C 68.510 19.820,68.309 19.576,68.008 19.421 C 67.487 19.151,67.396 19.139,67.000 19.285 M57.333 19.667 C 56.970 20.030,56.901 20.671,57.173 21.178 C 57.404 21.610,58.614 21.631,58.935 21.208 C 59.480 20.490,58.954 19.333,58.083 19.333 C 57.854 19.333,57.517 19.483,57.333 19.667 M61.845 19.772 C 61.047 20.787,61.896 21.908,63.213 21.578 C 63.644 21.469,63.827 21.097,63.831 20.317 C 63.836 19.338,62.480 18.965,61.845 19.772 M43.458 19.680 C 43.131 19.871,43.067 20.669,43.339 21.178 C 43.561 21.593,44.355 21.603,44.724 21.195 C 45.509 20.328,44.473 19.089,43.458 19.680 M47.942 19.805 C 47.336 20.475,47.806 21.500,48.721 21.500 C 49.246 21.500,49.833 20.972,49.833 20.500 C 49.833 19.661,48.512 19.175,47.942 19.805 M52.625 19.680 C 52.282 19.880,52.220 20.986,52.533 21.300 C 52.885 21.652,53.949 21.546,54.241 21.130 C 54.974 20.082,53.778 19.009,52.625 19.680 M20.373 19.778 C 19.688 20.054,19.835 21.167,20.556 21.167 C 21.037 21.167,21.333 20.870,21.333 20.389 C 21.333 20.086,20.875 19.620,20.636 19.680 C 20.607 19.687,20.489 19.731,20.373 19.778 M24.875 19.774 C 24.760 19.822,24.667 20.102,24.667 20.397 C 24.667 21.322,25.339 21.638,25.927 20.989 C 26.480 20.378,25.669 19.442,24.875 19.774 M29.302 20.085 C 29.024 20.695,29.397 21.333,30.032 21.333 C 30.650 21.333,30.982 20.709,30.697 20.083 C 30.429 19.494,29.571 19.495,29.302 20.085 M34.033 19.867 C 33.509 20.391,33.916 21.333,34.667 21.333 C 35.244 21.333,35.500 21.046,35.500 20.401 C 35.500 19.701,34.546 19.354,34.033 19.867 M38.619 19.770 C 38.299 20.090,38.502 21.175,38.917 21.364 C 39.670 21.707,40.197 21.315,40.135 20.458 C 40.084 19.762,39.082 19.307,38.619 19.770 M6.292 20.013 C 5.857 20.267,5.925 20.808,6.407 20.929 C 6.935 21.062,7.167 20.908,7.167 20.425 C 7.167 19.910,6.781 19.729,6.292 20.013 M10.951 19.937 C 10.886 20.002,10.833 20.268,10.833 20.528 C 10.833 21.082,11.749 21.246,11.948 20.727 C 12.148 20.207,11.330 19.559,10.951 19.937 M15.507 20.075 C 15.064 20.609,15.714 21.428,16.292 21.065 C 16.869 20.701,16.663 19.833,16.000 19.833 C 15.839 19.833,15.617 19.942,15.507 20.075 M133.050 23.193 C 131.891 23.452,131.833 23.703,131.833 28.451 C 131.833 32.868,131.900 33.249,132.745 33.634 C 133.075 33.784,137.319 33.833,150.014 33.833 L 166.846 33.833 165.794 34.875 C 165.215 35.448,161.331 39.254,157.163 43.333 C 148.959 51.361,144.052 56.174,139.149 61.000 C 137.427 62.696,135.187 64.894,134.173 65.886 C 133.135 66.900,132.221 67.947,132.081 68.281 C 131.773 69.019,131.716 77.059,132.014 77.715 C 132.477 78.731,130.780 78.667,157.251 78.667 C 184.186 78.667,182.271 78.754,182.643 77.515 C 182.912 76.616,182.877 69.776,182.599 69.000 C 182.235 67.984,182.883 68.020,164.417 68.008 L 147.583 67.998 150.591 65.040 C 152.246 63.414,156.596 59.159,160.258 55.586 C 167.771 48.255,171.979 44.136,175.926 40.250 C 177.416 38.783,179.342 36.901,180.205 36.066 C 182.729 33.629,182.583 34.082,182.583 28.642 C 182.583 23.422,182.609 23.526,181.249 23.184 C 180.316 22.949,134.099 22.957,133.050 23.193 M195.028 23.197 C 193.740 23.485,193.833 21.316,193.836 50.870 C 193.837 65.379,193.883 77.418,193.938 77.623 C 194.188 78.555,194.754 78.667,199.217 78.667 C 203.455 78.667,203.897 78.609,204.484 77.979 L 204.833 77.604 204.833 50.908 C 204.833 20.595,204.984 23.579,203.431 23.188 C 202.522 22.959,196.061 22.966,195.028 23.197 M220.000 23.194 C 218.642 23.566,218.750 21.825,218.750 43.417 L 218.750 62.583 219.126 64.500 C 219.584 66.836,219.887 67.965,220.235 68.638 C 220.381 68.920,220.500 69.222,220.500 69.310 C 220.500 69.399,220.813 70.021,221.196 70.694 C 223.798 75.264,227.211 77.427,233.250 78.335 C 236.565 78.833,255.840 78.834,259.289 78.335 C 267.581 77.137,272.086 72.608,273.508 64.038 C 273.816 62.182,273.832 61.126,273.833 43.192 C 273.833 21.710,273.964 23.574,272.430 23.187 C 271.482 22.949,265.124 22.940,264.050 23.176 C 262.444 23.528,262.596 21.516,262.495 43.750 C 262.399 65.150,262.455 63.996,261.436 65.591 C 260.001 67.837,258.970 68.000,246.250 68.000 C 233.545 68.000,232.724 67.873,231.162 65.668 C 230.035 64.076,230.102 65.345,230.005 43.750 C 229.905 21.561,230.049 23.515,228.480 23.178 C 227.464 22.960,220.808 22.973,220.000 23.194 M289.003 23.164 C 288.683 23.243,288.252 23.505,288.044 23.746 L 287.667 24.185 287.667 50.926 C 287.667 80.875,287.554 78.045,288.768 78.507 C 289.545 78.802,297.235 78.708,297.891 78.395 C 298.793 77.965,298.833 77.626,298.833 70.521 L 298.833 64.164 308.361 64.207 L 317.889 64.250 318.433 65.000 C 318.733 65.412,318.983 65.807,318.989 65.877 C 318.995 65.946,319.262 66.377,319.583 66.833 C 319.904 67.290,320.167 67.702,320.167 67.750 C 320.167 67.798,320.429 68.210,320.750 68.667 C 321.071 69.123,321.333 69.561,321.333 69.639 C 321.333 69.718,321.483 69.917,321.667 70.083 C 321.850 70.249,322.000 70.449,322.000 70.528 C 322.000 70.606,322.244 71.029,322.542 71.468 C 322.840 71.907,323.158 72.383,323.250 72.525 C 323.430 72.805,324.141 73.900,324.748 74.833 C 324.956 75.154,325.472 75.954,325.894 76.611 C 327.209 78.661,326.920 78.575,332.703 78.632 C 336.891 78.673,337.732 78.641,338.150 78.425 C 339.046 77.962,339.033 76.847,338.118 75.629 C 337.824 75.237,337.380 74.617,337.131 74.250 C 336.882 73.883,336.041 72.683,335.261 71.583 C 334.482 70.483,333.748 69.442,333.630 69.268 C 333.513 69.095,333.248 68.747,333.042 68.494 C 332.835 68.242,332.667 67.995,332.667 67.945 C 332.667 67.895,332.213 67.231,331.658 66.469 C 331.104 65.707,330.526 64.896,330.375 64.667 C 330.223 64.438,329.890 63.978,329.635 63.645 L 329.170 63.039 329.627 62.859 C 329.878 62.759,330.290 62.630,330.543 62.571 C 330.796 62.511,331.044 62.396,331.095 62.315 C 331.145 62.233,331.303 62.167,331.446 62.167 C 333.314 62.167,337.367 57.987,338.800 54.583 C 341.104 49.111,341.161 38.828,338.918 33.417 C 338.484 32.370,337.950 31.258,337.837 31.167 C 337.780 31.121,337.538 30.746,337.298 30.333 C 336.813 29.499,334.968 27.500,334.683 27.500 C 334.582 27.500,334.500 27.432,334.500 27.348 C 334.500 27.166,332.713 26.027,331.667 25.543 C 330.101 24.819,329.331 24.500,329.149 24.500 C 329.046 24.500,328.614 24.392,328.189 24.259 C 326.903 23.858,324.859 23.465,323.176 23.297 C 321.151 23.094,289.780 22.972,289.003 23.164 M58.503 23.319 C 57.901 23.481,57.545 24.184,57.792 24.726 C 58.417 26.097,60.000 25.824,60.000 24.346 C 60.000 23.891,59.944 23.488,59.875 23.450 C 59.577 23.282,58.885 23.217,58.503 23.319 M62.949 23.283 C 62.279 23.457,62.153 24.668,62.742 25.258 C 63.521 26.036,64.833 25.468,64.833 24.353 C 64.833 23.516,63.962 23.021,62.949 23.283 M35.362 23.719 C 34.885 24.227,34.903 24.762,35.409 25.093 C 36.415 25.753,37.356 24.523,36.500 23.667 C 36.067 23.234,35.807 23.246,35.362 23.719 M39.958 23.513 C 39.469 23.798,39.560 24.959,40.090 25.200 C 40.774 25.512,41.405 25.202,41.470 24.523 C 41.561 23.582,40.759 23.047,39.958 23.513 M44.442 23.638 C 43.827 24.318,44.187 25.333,45.044 25.333 C 45.821 25.333,46.167 25.057,46.167 24.437 C 46.167 23.462,45.064 22.951,44.442 23.638 M48.938 23.643 C 48.504 24.122,48.637 24.956,49.202 25.296 C 50.171 25.882,51.211 24.857,50.656 23.864 C 50.329 23.279,49.378 23.157,48.938 23.643 M53.429 23.810 C 53.094 24.458,53.352 25.290,53.933 25.436 C 54.980 25.699,55.687 24.986,55.395 23.962 C 55.163 23.151,53.823 23.047,53.429 23.810 M26.167 23.833 C 25.530 24.470,25.918 25.226,26.838 25.138 C 27.641 25.061,27.941 24.292,27.353 23.816 C 26.856 23.413,26.583 23.417,26.167 23.833 M30.636 23.917 C 30.309 24.636,30.689 25.199,31.459 25.135 C 32.032 25.088,32.088 25.038,32.136 24.531 C 32.235 23.503,31.047 23.016,30.636 23.917 M12.533 23.867 C 11.930 24.470,12.717 25.474,13.347 24.904 C 13.757 24.533,13.756 24.059,13.344 23.839 C 12.929 23.617,12.778 23.622,12.533 23.867 M17.033 23.867 C 16.776 24.124,16.776 24.710,17.033 24.967 C 17.593 25.526,18.560 24.692,18.137 24.014 C 17.897 23.630,17.344 23.556,17.033 23.867 M21.511 23.979 C 21.190 24.578,21.564 25.198,22.208 25.136 C 23.037 25.056,23.047 23.779,22.219 23.699 C 21.827 23.661,21.643 23.733,21.511 23.979 M3.375 23.944 C 2.933 24.122,3.267 25.000,3.777 25.000 C 4.064 25.000,4.356 24.419,4.232 24.095 C 4.133 23.838,3.788 23.777,3.375 23.944 M7.902 24.062 C 7.702 24.583,7.904 24.917,8.419 24.917 C 8.861 24.917,8.917 24.861,8.917 24.417 C 8.917 23.848,8.094 23.561,7.902 24.062 M53.722 27.242 C 52.738 27.945,53.208 29.333,54.430 29.333 C 55.236 29.333,55.500 29.056,55.500 28.209 C 55.500 27.257,54.478 26.701,53.722 27.242 M58.029 27.386 C 56.996 28.486,58.324 30.091,59.584 29.265 C 60.114 28.918,60.181 27.715,59.695 27.276 C 59.253 26.875,58.459 26.928,58.029 27.386 M44.805 27.339 C 44.379 27.588,44.254 28.438,44.572 28.923 C 44.933 29.474,45.867 29.497,46.241 28.963 C 46.962 27.933,45.881 26.711,44.805 27.339 M49.012 27.606 C 48.613 28.113,48.598 28.224,48.858 28.719 C 49.430 29.806,51.000 29.472,51.000 28.264 C 51.000 27.179,49.689 26.745,49.012 27.606 M31.375 27.587 C 30.681 28.078,31.073 29.208,31.937 29.208 C 32.634 29.208,33.089 28.326,32.704 27.722 C 32.485 27.376,31.774 27.305,31.375 27.587 M35.792 27.513 C 35.399 27.742,35.407 28.697,35.805 29.058 C 36.429 29.623,37.132 29.343,37.273 28.474 C 37.424 27.543,36.627 27.027,35.792 27.513 M40.109 27.638 C 39.239 28.599,40.748 29.919,41.667 29.000 C 42.066 28.601,42.099 27.956,41.738 27.595 C 41.380 27.237,40.450 27.261,40.109 27.638 M13.529 27.645 C 13.142 27.891,13.350 28.907,13.801 28.971 C 14.559 29.079,14.946 28.303,14.405 27.762 C 14.113 27.470,13.859 27.436,13.529 27.645 M17.841 27.741 C 17.345 28.339,18.057 29.274,18.792 28.990 C 19.211 28.827,19.316 28.050,18.967 27.700 C 18.693 27.426,18.084 27.448,17.841 27.741 M22.232 27.929 C 21.969 28.976,23.021 29.632,23.584 28.772 C 24.001 28.135,23.672 27.500,22.924 27.500 C 22.435 27.500,22.322 27.570,22.232 27.929 M26.708 27.692 C 26.219 28.181,26.704 29.170,27.430 29.164 C 28.434 29.156,28.499 27.618,27.499 27.534 C 27.178 27.507,26.822 27.578,26.708 27.692 M4.507 27.909 C 4.206 28.270,4.367 28.743,4.813 28.806 C 5.337 28.880,5.566 28.618,5.435 28.096 C 5.314 27.615,4.831 27.518,4.507 27.909 M8.904 28.075 C 8.699 28.890,9.625 29.328,10.065 28.625 C 10.316 28.225,10.010 27.765,9.447 27.698 C 9.098 27.656,8.990 27.730,8.904 28.075 M0.000 28.333 C 0.000 28.805,0.045 28.850,0.458 28.803 C 0.822 28.761,0.917 28.664,0.917 28.333 C 0.917 28.003,0.822 27.906,0.458 27.864 C 0.045 27.816,0.000 27.862,0.000 28.333 M319.392 33.844 C 327.328 34.337,329.160 36.183,329.164 43.691 C 329.168 49.666,328.116 51.572,324.120 52.827 C 322.319 53.393,320.027 53.497,309.375 53.499 L 298.833 53.500 298.833 43.583 L 298.833 33.667 307.683 33.667 C 312.551 33.667,317.819 33.747,319.392 33.844 M53.223 85.364 C 52.562 85.683,52.486 86.668,53.076 87.258 C 53.601 87.783,54.207 87.778,54.742 87.242 C 55.813 86.172,54.614 84.690,53.223 85.364 M57.576 85.576 C 56.802 86.349,57.303 87.506,58.406 87.495 C 59.175 87.487,59.500 87.155,59.500 86.376 C 59.500 85.247,58.373 84.778,57.576 85.576 M62.125 85.513 C 61.677 85.774,61.729 86.908,62.204 87.241 C 62.996 87.795,64.000 87.303,64.000 86.359 C 64.000 85.509,62.948 85.034,62.125 85.513 M66.597 85.651 C 66.414 85.854,66.329 86.171,66.363 86.525 C 66.491 87.857,68.500 87.675,68.500 86.331 C 68.500 85.448,67.201 84.984,66.597 85.651 M71.208 85.584 C 70.826 85.857,70.709 86.547,70.974 86.964 C 71.204 87.326,72.235 87.408,72.554 87.089 C 73.448 86.195,72.241 84.846,71.208 85.584 M75.511 85.897 C 75.093 86.678,75.755 87.473,76.639 87.251 C 77.321 87.080,77.609 86.176,77.133 85.700 C 76.764 85.331,75.748 85.454,75.511 85.897 M80.183 85.731 C 79.670 86.348,80.024 87.083,80.833 87.083 L 81.583 87.083 81.583 86.333 C 81.583 85.509,80.687 85.123,80.183 85.731 M84.636 85.917 C 84.352 86.540,84.684 87.167,85.296 87.167 C 85.882 87.167,86.167 86.894,86.167 86.333 C 86.167 85.443,84.997 85.124,84.636 85.917 M89.262 85.762 C 88.740 86.284,89.082 87.167,89.806 87.167 C 90.383 87.167,90.667 86.892,90.667 86.333 C 90.667 85.543,89.824 85.200,89.262 85.762 M93.867 85.700 C 93.757 85.810,93.667 86.095,93.667 86.333 C 93.667 87.198,94.466 87.461,94.932 86.750 C 95.416 86.012,94.479 85.088,93.867 85.700 M98.434 85.717 C 97.934 86.082,98.135 86.904,98.742 86.973 C 99.557 87.065,99.902 86.402,99.333 85.833 C 98.942 85.442,98.830 85.427,98.434 85.717 M102.778 85.778 C 102.597 85.959,102.651 86.584,102.867 86.800 C 103.369 87.302,104.112 86.804,103.932 86.085 C 103.829 85.676,103.080 85.476,102.778 85.778 M107.340 85.909 C 106.943 86.387,107.491 87.121,108.077 86.896 C 108.683 86.663,108.486 85.667,107.833 85.667 C 107.672 85.667,107.450 85.776,107.340 85.909 M111.726 86.085 C 111.590 86.440,111.987 86.859,112.402 86.800 C 113.036 86.709,112.979 85.833,112.339 85.833 C 112.032 85.833,111.784 85.935,111.726 86.085 M48.404 89.347 C 48.060 89.727,47.994 90.894,48.300 91.200 C 48.955 91.855,50.500 91.191,50.500 90.253 C 50.500 89.182,49.101 88.578,48.404 89.347 M53.076 89.409 C 52.635 89.849,52.573 90.231,52.829 90.906 C 53.035 91.446,54.389 91.541,54.768 91.042 C 55.653 89.876,54.104 88.381,53.076 89.409 M58.167 89.129 C 56.849 89.557,57.135 91.333,58.521 91.333 C 59.256 91.333,59.501 91.085,59.497 90.342 C 59.494 89.466,58.873 88.900,58.167 89.129 M62.179 89.606 C 61.989 89.847,61.833 90.137,61.833 90.250 C 61.833 91.197,63.386 91.703,63.897 90.923 C 64.685 89.720,63.065 88.479,62.179 89.606 M67.037 89.426 C 66.782 89.605,66.667 89.856,66.667 90.234 C 66.667 91.224,67.655 91.678,68.333 91.000 C 69.256 90.078,68.104 88.679,67.037 89.426 M71.533 89.533 C 70.995 90.072,71.529 91.333,72.295 91.333 C 72.599 91.333,73.333 90.572,73.333 90.258 C 73.333 89.564,72.028 89.039,71.533 89.533 M76.125 89.703 C 75.767 90.151,75.761 90.323,76.093 90.796 C 76.621 91.551,77.667 91.188,77.667 90.250 C 77.667 89.318,76.705 88.976,76.125 89.703 M80.870 89.593 C 80.184 90.074,80.629 91.167,81.511 91.167 C 81.879 91.167,82.333 90.635,82.333 90.205 C 82.333 89.864,81.775 89.333,81.417 89.333 C 81.320 89.333,81.074 89.450,80.870 89.593 M85.399 89.736 C 85.174 90.323,85.407 90.916,85.885 90.970 C 86.687 91.062,87.172 90.239,86.633 89.700 C 86.357 89.424,85.509 89.448,85.399 89.736 M90.086 89.771 C 89.513 90.344,90.065 91.145,90.891 90.938 C 91.260 90.845,91.333 90.734,91.333 90.265 C 91.333 89.497,90.636 89.221,90.086 89.771 M94.619 89.770 C 94.083 90.306,94.889 91.180,95.615 90.849 C 96.290 90.542,96.095 89.765,95.327 89.700 C 95.003 89.673,94.685 89.704,94.619 89.770 M99.231 89.907 C 99.046 90.389,99.246 90.749,99.730 90.805 C 100.338 90.874,100.571 90.639,100.435 90.096 C 100.312 89.607,99.400 89.464,99.231 89.907 M103.904 90.074 C 103.771 90.604,103.926 90.833,104.418 90.833 C 104.908 90.833,105.202 90.377,104.980 89.963 C 104.736 89.507,104.028 89.580,103.904 90.074 M108.568 89.895 C 108.383 90.378,108.572 90.750,109.002 90.750 C 109.352 90.750,109.417 90.671,109.417 90.250 C 109.417 89.691,108.753 89.413,108.568 89.895 M44.886 93.001 C 43.631 93.507,44.101 95.417,45.451 95.301 C 46.691 95.195,47.072 93.638,45.994 93.080 C 45.455 92.801,45.393 92.797,44.886 93.001 M49.294 93.196 C 48.474 93.822,49.026 95.333,50.076 95.333 C 50.912 95.333,51.497 94.113,51.021 93.362 C 50.818 93.041,49.644 92.928,49.294 93.196 M53.909 93.409 C 53.455 93.863,53.432 93.966,53.653 94.546 C 54.087 95.690,55.833 95.390,55.833 94.172 C 55.833 93.054,54.710 92.609,53.909 93.409 M58.506 93.489 C 57.871 94.676,59.334 95.845,60.224 94.862 C 60.898 94.117,60.445 93.167,59.417 93.167 C 58.857 93.167,58.637 93.245,58.506 93.489 M63.367 93.367 C 62.987 93.746,63.119 94.819,63.571 95.025 C 64.538 95.465,65.396 94.624,64.987 93.636 C 64.774 93.121,63.778 92.956,63.367 93.367 M68.033 93.367 C 67.805 93.595,67.770 94.476,67.977 94.802 C 68.332 95.362,69.579 94.970,69.636 94.280 C 69.717 93.298,68.688 92.712,68.033 93.367 M72.888 93.296 C 72.584 93.490,72.452 94.266,72.658 94.651 C 72.870 95.046,73.794 95.139,74.133 94.800 C 74.848 94.085,73.744 92.752,72.888 93.296 M77.506 93.531 C 77.099 93.969,77.086 94.144,77.426 94.630 C 77.759 95.105,78.584 95.133,78.827 94.678 C 79.368 93.668,78.268 92.714,77.506 93.531 M82.182 93.565 C 81.647 94.209,82.249 95.141,83.067 94.936 C 83.791 94.754,83.654 93.440,82.902 93.366 C 82.597 93.337,82.305 93.417,82.182 93.565 M86.929 93.595 C 86.451 94.073,86.781 95.000,87.429 95.000 C 87.730 95.000,88.333 94.406,88.333 94.109 C 88.333 93.488,87.383 93.141,86.929 93.595 M91.704 93.593 C 91.077 94.032,91.323 94.833,92.083 94.833 C 92.785 94.833,93.075 94.099,92.571 93.595 C 92.246 93.270,92.165 93.270,91.704 93.593 M96.278 93.611 C 95.981 93.908,96.175 94.662,96.574 94.763 C 97.145 94.906,97.333 94.736,97.333 94.073 C 97.333 93.513,96.667 93.221,96.278 93.611 M101.111 93.611 C 100.900 93.822,101.001 94.631,101.250 94.727 C 101.842 94.954,102.393 94.224,101.993 93.742 C 101.784 93.490,101.303 93.419,101.111 93.611 M105.667 94.167 C 105.667 94.638,105.711 94.684,106.125 94.636 C 106.489 94.594,106.583 94.497,106.583 94.167 C 106.583 93.836,106.489 93.739,106.125 93.697 C 105.711 93.650,105.667 93.695,105.667 94.167 M41.052 96.964 C 40.634 97.230,40.490 97.986,40.743 98.591 C 41.240 99.782,43.000 99.247,43.000 97.905 C 43.000 97.047,41.819 96.477,41.052 96.964 M45.673 97.198 C 44.947 97.977,45.453 99.167,46.510 99.167 C 47.231 99.167,47.667 98.727,47.667 98.000 C 47.667 96.913,46.410 96.407,45.673 97.198 M50.506 97.198 C 49.808 97.948,50.258 99.167,51.234 99.167 C 51.935 99.167,52.333 98.728,52.333 97.955 C 52.333 96.926,51.198 96.456,50.506 97.198 M55.242 97.242 C 54.271 98.214,55.505 99.695,56.630 98.907 C 56.904 98.715,57.000 98.480,57.000 98.000 C 57.000 96.901,56.010 96.475,55.242 97.242 M59.942 97.305 C 59.311 98.003,59.812 99.000,60.795 99.000 C 61.726 99.000,62.144 97.969,61.469 97.340 C 61.016 96.918,60.307 96.902,59.942 97.305 M64.776 97.305 C 64.181 97.962,64.637 99.000,65.519 99.000 C 66.013 99.000,66.562 98.192,66.386 97.723 C 66.116 97.004,65.252 96.779,64.776 97.305 M69.429 97.429 C 69.060 97.797,69.103 98.215,69.552 98.638 C 70.222 99.266,71.000 98.935,71.000 98.021 C 71.000 97.204,70.022 96.835,69.429 97.429 M74.292 97.347 C 73.837 97.611,73.909 98.466,74.404 98.691 C 75.150 99.031,75.667 98.754,75.667 98.015 C 75.667 97.200,75.054 96.903,74.292 97.347 M79.111 97.376 C 78.641 97.720,78.797 98.535,79.370 98.736 C 80.099 98.991,80.776 98.192,80.371 97.555 C 80.167 97.234,79.444 97.132,79.111 97.376 M83.700 97.533 C 83.088 98.145,84.012 99.082,84.750 98.599 C 85.461 98.133,85.198 97.333,84.333 97.333 C 84.095 97.333,83.810 97.423,83.700 97.533 M88.444 97.444 C 88.132 97.757,88.344 98.496,88.776 98.605 C 89.541 98.797,90.117 98.126,89.660 97.575 C 89.456 97.329,88.647 97.242,88.444 97.444 M93.278 97.444 C 93.059 97.663,93.168 98.465,93.430 98.566 C 94.137 98.837,94.673 98.302,94.333 97.667 C 94.162 97.347,93.512 97.210,93.278 97.444 M98.118 97.437 C 98.053 97.502,98.000 97.768,98.000 98.028 C 98.000 98.582,98.916 98.746,99.115 98.227 C 99.315 97.707,98.497 97.059,98.118 97.437 M102.922 97.559 C 102.461 97.896,102.661 98.417,103.252 98.417 C 103.637 98.417,103.762 98.334,103.802 98.053 C 103.871 97.567,103.327 97.262,102.922 97.559 M38.204 100.926 C 37.681 101.292,37.684 102.405,38.208 102.843 C 39.056 103.550,40.167 102.996,40.167 101.867 C 40.167 100.828,39.085 100.309,38.204 100.926 M43.059 100.862 C 42.327 101.217,42.450 102.731,43.227 102.926 C 44.711 103.298,45.638 101.591,44.322 100.911 C 43.779 100.630,43.557 100.621,43.059 100.862 M47.702 100.974 C 47.293 101.234,47.259 102.259,47.648 102.648 C 48.381 103.381,49.500 102.914,49.500 101.874 C 49.500 101.011,48.462 100.492,47.702 100.974 M52.667 100.949 C 51.721 101.332,52.158 103.000,53.204 103.000 C 53.895 103.000,54.431 101.841,54.031 101.211 C 53.876 100.968,53.024 100.804,52.667 100.949 M56.967 101.423 C 56.550 102.338,57.570 103.165,58.501 102.666 C 58.787 102.513,58.842 102.350,58.801 101.781 L 58.750 101.083 57.959 101.033 C 57.242 100.987,57.149 101.023,56.967 101.423 M61.809 101.404 C 61.384 102.336,62.155 103.120,63.081 102.698 C 64.016 102.272,63.638 101.000,62.576 101.000 C 62.120 101.000,61.953 101.088,61.809 101.404 M66.506 101.485 C 66.197 102.233,66.504 102.667,67.343 102.667 C 68.202 102.667,68.548 102.102,68.103 101.423 C 67.687 100.789,66.780 100.824,66.506 101.485 M71.373 101.331 C 70.911 102.072,71.234 102.667,72.099 102.667 C 72.653 102.667,72.833 102.447,72.833 101.770 C 72.833 101.002,71.777 100.685,71.373 101.331 M76.200 101.200 C 76.090 101.310,76.000 101.601,76.000 101.846 C 76.000 102.846,77.375 103.019,77.470 102.031 C 77.554 101.150,76.766 100.634,76.200 101.200 M80.825 101.427 C 80.452 101.876,80.818 102.573,81.460 102.635 C 82.124 102.700,82.498 102.119,82.178 101.521 C 81.950 101.095,81.147 101.039,80.825 101.427 M85.700 101.367 C 85.348 101.718,85.465 102.324,85.924 102.534 C 86.287 102.699,86.399 102.675,86.704 102.370 C 87.009 102.065,87.032 101.953,86.867 101.590 C 86.658 101.131,86.052 101.015,85.700 101.367 M90.408 101.510 C 90.021 101.938,90.245 102.392,90.881 102.468 C 91.491 102.542,91.813 101.938,91.404 101.486 C 91.034 101.077,90.794 101.083,90.408 101.510 M95.052 101.606 C 94.900 102.002,95.224 102.417,95.685 102.417 C 96.013 102.417,96.093 102.321,96.136 101.875 C 96.195 101.258,95.273 101.029,95.052 101.606 M99.951 101.437 C 99.694 101.695,99.840 102.313,100.183 102.422 C 100.627 102.563,100.877 102.317,100.806 101.811 C 100.751 101.423,100.205 101.184,99.951 101.437 M35.909 104.909 C 35.070 105.748,35.616 106.925,36.829 106.894 C 37.719 106.870,37.917 106.659,37.917 105.728 C 37.917 104.509,36.775 104.043,35.909 104.909 M40.698 104.840 C 40.304 105.207,40.216 105.970,40.506 106.511 C 40.742 106.952,41.997 106.963,42.391 106.529 C 43.357 105.461,41.751 103.859,40.698 104.840 M45.833 104.620 C 45.005 104.919,44.706 106.015,45.305 106.558 C 45.779 106.986,46.690 106.905,47.057 106.401 C 47.660 105.573,46.772 104.281,45.833 104.620 M50.125 104.847 C 49.780 105.048,49.715 106.315,50.033 106.633 C 50.337 106.937,51.244 106.875,51.558 106.529 C 52.430 105.564,51.258 104.187,50.125 104.847 M54.870 104.926 C 54.139 105.439,54.551 106.833,55.434 106.833 C 55.613 106.833,55.926 106.717,56.130 106.574 C 56.883 106.046,56.427 104.667,55.500 104.667 C 55.357 104.667,55.074 104.783,54.870 104.926 M59.373 105.164 C 58.979 105.795,59.234 106.507,59.933 106.729 C 60.393 106.875,61.167 106.270,61.167 105.764 C 61.167 104.928,59.805 104.473,59.373 105.164 M64.109 105.138 C 63.545 105.761,63.987 106.667,64.855 106.667 C 65.414 106.667,65.667 106.372,65.667 105.723 C 65.667 104.880,64.678 104.509,64.109 105.138 M68.865 105.173 C 68.047 105.935,69.002 107.034,70.011 106.494 C 70.467 106.250,70.438 105.426,69.963 105.093 C 69.477 104.752,69.303 104.765,68.865 105.173 M73.542 105.110 C 73.233 105.235,73.278 106.276,73.597 106.399 C 74.364 106.693,75.000 106.387,75.000 105.723 C 75.000 105.166,74.218 104.838,73.542 105.110 M78.375 105.110 C 78.075 105.232,78.109 106.322,78.417 106.440 C 79.001 106.664,79.500 106.353,79.500 105.765 C 79.500 105.092,79.058 104.835,78.375 105.110 M82.952 105.270 C 82.743 105.479,82.825 106.119,83.088 106.337 C 83.516 106.692,84.202 106.280,84.136 105.707 C 84.083 105.251,83.271 104.951,82.952 105.270 M87.568 105.396 C 87.356 105.948,87.569 106.250,88.169 106.250 C 88.703 106.250,88.750 106.210,88.750 105.750 C 88.750 105.176,87.766 104.881,87.568 105.396 M92.257 105.477 C 92.095 105.989,92.329 106.333,92.840 106.333 C 93.380 106.333,93.657 105.807,93.327 105.409 C 93.039 105.062,92.376 105.104,92.257 105.477 M96.995 105.423 C 96.692 105.787,96.985 106.250,97.518 106.250 C 97.850 106.250,97.917 106.166,97.917 105.750 C 97.917 105.165,97.370 104.971,96.995 105.423 M34.727 108.525 C 33.626 109.069,34.022 110.833,35.244 110.833 C 36.760 110.833,36.982 108.753,35.500 108.437 C 35.271 108.388,34.923 108.428,34.727 108.525 M39.000 108.833 C 38.050 109.784,39.190 111.271,40.386 110.642 C 41.459 110.077,41.052 108.500,39.833 108.500 C 39.556 108.500,39.185 108.648,39.000 108.833 M43.704 108.759 C 43.083 109.194,43.179 110.284,43.863 110.572 C 44.900 111.008,45.873 110.231,45.504 109.260 C 45.225 108.527,44.374 108.290,43.704 108.759 M48.101 108.930 C 47.753 109.839,48.181 110.667,49.000 110.667 C 49.853 110.667,50.272 109.819,49.827 108.989 C 49.602 108.568,48.258 108.523,48.101 108.930 M52.776 108.971 C 52.058 109.765,52.812 110.864,53.867 110.562 C 54.999 110.237,54.782 108.667,53.605 108.667 C 53.281 108.667,52.938 108.793,52.776 108.971 M57.374 108.859 C 57.110 109.124,57.105 110.038,57.367 110.300 C 57.774 110.707,58.815 110.548,58.937 110.060 C 59.196 109.031,58.068 108.165,57.374 108.859 M62.010 108.905 C 61.901 109.036,61.835 109.430,61.864 109.780 C 61.955 110.881,63.667 110.743,63.667 109.635 C 63.667 108.898,62.458 108.365,62.010 108.905 M66.667 109.000 C 66.294 109.372,66.250 109.699,66.506 110.178 C 66.725 110.586,67.748 110.630,67.899 110.236 C 68.327 109.119,67.439 108.228,66.667 109.000 M71.112 109.176 C 70.724 109.730,71.092 110.500,71.745 110.500 C 72.811 110.500,72.945 108.969,71.888 108.866 C 71.504 108.828,71.298 108.910,71.112 109.176 M75.867 109.033 C 75.550 109.350,75.624 110.132,75.989 110.327 C 76.470 110.585,76.631 110.542,76.937 110.076 C 77.448 109.296,76.514 108.386,75.867 109.033 M80.442 109.138 C 79.949 109.683,80.207 110.333,80.917 110.333 C 81.619 110.333,81.908 109.599,81.405 109.095 C 81.061 108.752,80.781 108.764,80.442 109.138 M84.944 109.111 C 84.763 109.292,84.818 109.918,85.033 110.133 C 85.572 110.672,86.491 109.841,86.004 109.255 C 85.789 108.996,85.147 108.909,84.944 109.111 M89.611 109.111 C 89.393 109.329,89.502 110.132,89.762 110.232 C 90.125 110.371,90.667 110.049,90.667 109.694 C 90.667 109.165,89.952 108.770,89.611 109.111 M94.059 109.419 C 93.935 109.742,94.286 110.167,94.676 110.167 C 94.993 110.167,95.261 109.621,95.084 109.335 C 94.923 109.075,94.168 109.136,94.059 109.419 M33.603 112.744 C 32.986 113.685,33.486 114.667,34.583 114.667 C 35.156 114.667,35.348 114.586,35.564 114.256 C 36.181 113.315,35.680 112.333,34.583 112.333 C 34.011 112.333,33.819 112.414,33.603 112.744 M38.204 112.593 C 37.727 112.927,37.689 113.984,38.138 114.391 C 38.594 114.804,39.589 114.750,39.907 114.296 C 40.743 113.103,39.397 111.757,38.204 112.593 M42.512 112.772 C 41.608 113.922,43.137 115.363,44.167 114.333 C 44.352 114.148,44.500 113.778,44.500 113.500 C 44.500 112.409,43.179 111.925,42.512 112.772 M47.076 112.742 C 46.393 113.426,46.876 114.667,47.826 114.667 C 48.905 114.667,49.204 113.043,48.219 112.525 C 47.699 112.251,47.536 112.282,47.076 112.742 M51.442 112.805 C 50.828 113.484,51.308 114.500,52.245 114.500 C 52.791 114.500,53.154 114.097,53.161 113.484 C 53.172 112.621,52.021 112.166,51.442 112.805 M55.929 112.762 C 55.785 112.906,55.667 113.238,55.667 113.500 C 55.667 114.401,56.643 114.837,57.224 114.195 C 58.044 113.289,56.789 111.901,55.929 112.762 M60.278 112.778 C 59.968 113.088,60.173 114.177,60.577 114.361 C 61.420 114.745,62.287 113.520,61.633 112.867 C 61.421 112.654,60.464 112.591,60.278 112.778 M64.700 112.867 C 64.590 112.977,64.500 113.262,64.500 113.500 C 64.500 113.738,64.590 114.023,64.700 114.133 C 64.810 114.243,65.095 114.333,65.333 114.333 C 65.572 114.333,65.857 114.243,65.967 114.133 C 66.077 114.023,66.167 113.738,66.167 113.500 C 66.167 113.262,66.077 112.977,65.967 112.867 C 65.857 112.757,65.572 112.667,65.333 112.667 C 65.095 112.667,64.810 112.757,64.700 112.867 M69.292 112.847 C 68.957 113.042,68.900 113.834,69.200 114.133 C 69.708 114.642,70.500 114.239,70.500 113.473 C 70.500 112.815,69.889 112.499,69.292 112.847 M73.434 113.097 C 73.257 113.558,73.325 113.961,73.597 114.066 C 74.465 114.399,75.205 113.861,74.833 113.167 C 74.609 112.748,73.588 112.697,73.434 113.097 M77.944 112.944 C 77.632 113.257,77.844 113.996,78.276 114.105 C 79.041 114.297,79.617 113.626,79.160 113.075 C 78.956 112.829,78.147 112.742,77.944 112.944 M82.452 112.937 C 82.200 113.189,82.332 113.977,82.643 114.076 C 83.202 114.253,83.523 114.005,83.467 113.437 C 83.417 112.923,82.780 112.609,82.452 112.937 M86.847 113.067 C 86.488 113.499,86.697 113.911,87.304 113.970 C 87.838 114.021,87.854 114.004,87.803 113.470 C 87.743 112.848,87.214 112.625,86.847 113.067 M91.340 113.075 C 90.993 113.494,91.199 113.917,91.750 113.917 C 92.344 113.917,92.537 113.394,92.070 113.053 C 91.689 112.774,91.587 112.777,91.340 113.075 " stroke="none" fill="#8f8fa3" fill-rule="evenodd"></path><path id="path1" d="M238.444 91.944 C 238.306 92.083,238.297 94.712,238.434 95.070 C 238.516 95.282,238.818 95.333,240.000 95.333 C 241.182 95.333,241.484 95.282,241.566 95.070 C 241.751 94.585,241.675 92.242,241.467 92.033 C 241.255 91.821,238.644 91.745,238.444 91.944 M313.874 91.972 C 313.708 92.077,313.673 93.996,313.707 101.011 L 313.750 109.917 315.225 109.965 C 316.169 109.996,316.784 109.944,316.933 109.820 C 317.306 109.511,317.278 92.469,316.905 92.095 C 316.621 91.811,314.277 91.716,313.874 91.972 M348.533 92.033 C 348.260 92.306,348.269 94.682,348.545 95.059 C 348.723 95.302,348.989 95.340,350.253 95.299 L 351.750 95.250 351.798 93.681 C 351.833 92.537,351.788 92.074,351.632 91.975 C 351.289 91.758,348.761 91.805,348.533 92.033 M133.331 93.701 C 131.076 94.870,130.679 96.050,130.679 101.583 C 130.679 107.556,131.411 109.225,134.302 109.840 C 136.036 110.208,143.954 109.980,144.759 109.538 C 146.286 108.699,147.050 107.450,147.360 105.282 C 147.643 103.301,147.613 103.263,145.735 103.201 C 144.019 103.145,143.833 103.267,143.833 104.454 C 143.833 106.470,143.403 106.667,138.995 106.667 C 134.006 106.667,134.167 106.836,134.167 101.583 C 134.167 96.357,134.029 96.500,139.062 96.500 C 143.424 96.500,143.628 96.589,143.820 98.583 L 143.917 99.583 145.620 99.631 C 147.642 99.687,147.665 99.661,147.335 97.632 C 146.720 93.840,145.663 93.268,139.153 93.201 L 134.390 93.153 133.331 93.701 M246.444 93.278 C 246.383 93.339,246.333 93.905,246.333 94.535 C 246.333 95.952,245.926 96.500,244.874 96.500 C 243.975 96.500,243.833 96.716,243.833 98.083 C 243.833 99.443,243.977 99.667,244.851 99.667 L 245.469 99.667 245.526 103.542 L 245.583 107.417 246.092 108.240 C 247.010 109.729,247.544 109.908,251.083 109.912 L 254.083 109.917 254.083 108.500 L 254.083 107.083 251.782 107.000 C 248.618 106.885,248.667 106.957,248.667 102.396 L 248.667 99.667 251.217 99.667 C 254.208 99.667,254.167 99.688,254.167 98.147 C 254.167 96.392,254.353 96.500,251.316 96.500 L 248.667 96.500 248.667 94.833 L 248.667 93.167 247.611 93.167 C 247.031 93.167,246.506 93.217,246.444 93.278 M281.667 93.269 C 278.860 94.240,277.630 96.648,278.402 99.660 C 279.077 102.297,280.200 102.714,288.238 103.316 C 290.317 103.471,290.833 103.790,290.833 104.915 C 290.833 106.504,290.408 106.664,286.200 106.666 C 282.438 106.667,281.667 106.345,281.667 104.776 C 281.667 104.212,279.473 103.868,278.430 104.268 C 277.268 104.714,278.802 108.468,280.541 109.431 L 281.417 109.917 286.255 109.917 C 293.273 109.917,294.328 109.279,294.332 105.036 C 294.335 101.144,291.846 99.884,284.066 99.839 C 282.270 99.829,281.293 98.754,281.906 97.462 C 282.296 96.641,282.925 96.500,286.203 96.500 C 289.832 96.500,290.302 96.690,290.634 98.289 L 290.765 98.917 292.424 98.917 L 294.083 98.917 294.135 98.196 C 294.264 96.409,293.194 94.467,291.616 93.624 C 290.937 93.261,282.554 92.962,281.667 93.269 M338.278 93.278 C 338.217 93.339,338.167 93.893,338.167 94.509 C 338.167 95.956,337.892 96.331,336.743 96.457 C 335.731 96.569,335.672 96.651,335.669 97.969 C 335.666 99.333,335.847 99.667,336.589 99.667 L 337.167 99.667 337.167 102.410 C 337.167 109.113,337.771 109.901,342.917 109.911 L 345.917 109.917 345.917 108.500 L 345.917 107.083 343.667 107.000 C 340.460 106.881,340.500 106.937,340.500 102.589 L 340.500 99.667 343.063 99.667 C 346.120 99.667,346.034 99.719,345.966 97.891 L 345.917 96.583 343.208 96.538 L 340.500 96.492 340.500 94.829 L 340.500 93.167 339.444 93.167 C 338.864 93.167,338.339 93.217,338.278 93.278 M152.886 96.738 C 150.476 97.322,149.848 98.683,149.841 103.333 C 149.833 109.406,150.382 109.917,156.917 109.917 L 161.250 109.917 161.940 109.468 C 163.489 108.460,163.833 107.332,163.833 103.263 C 163.833 98.476,163.221 97.256,160.533 96.687 C 159.344 96.435,153.987 96.471,152.886 96.738 M166.873 96.635 C 166.708 96.742,166.672 98.199,166.706 103.344 L 166.750 109.917 168.333 109.917 L 169.917 109.917 170.000 105.234 C 170.104 99.365,169.954 99.673,172.716 99.669 C 174.447 99.667,174.531 99.683,174.922 100.105 L 175.328 100.543 175.372 105.230 L 175.417 109.917 177.000 109.917 L 178.583 109.917 178.678 105.167 C 178.730 102.554,178.787 100.401,178.803 100.381 C 179.363 99.726,179.575 99.667,181.346 99.667 C 184.096 99.667,183.899 99.262,184.000 105.110 L 184.083 109.917 185.708 109.964 L 187.333 110.012 187.333 104.926 C 187.333 98.992,187.176 98.277,185.631 97.191 C 184.177 96.168,179.909 96.348,178.486 97.491 C 177.992 97.888,177.821 97.952,177.717 97.777 C 176.910 96.422,171.834 96.043,170.512 97.239 C 170.113 97.600,170.030 97.570,169.969 97.042 C 169.915 96.566,167.472 96.245,166.873 96.635 M190.415 96.875 C 190.365 97.081,190.345 101.150,190.371 105.917 L 190.417 114.583 192.000 114.583 L 193.583 114.583 193.629 111.786 L 193.675 108.989 194.283 109.453 L 194.891 109.917 198.237 109.917 C 203.742 109.917,204.232 109.372,204.237 103.250 C 204.241 99.101,204.090 98.489,202.816 97.464 C 201.321 96.262,195.110 96.113,194.160 97.258 C 193.886 97.588,193.667 97.562,193.667 97.200 C 193.667 96.394,190.606 96.088,190.415 96.875 M209.915 96.731 C 207.455 97.329,206.848 98.634,206.841 103.333 C 206.833 109.406,207.382 109.917,213.917 109.917 L 218.250 109.917 218.940 109.468 C 220.490 108.459,220.834 107.335,220.831 103.284 C 220.828 98.478,220.212 97.246,217.533 96.685 C 216.359 96.439,210.983 96.472,209.915 96.731 M225.869 96.778 C 224.349 97.138,223.622 97.887,223.339 99.386 C 222.754 102.486,224.381 104.500,227.470 104.500 C 229.771 104.500,232.277 105.136,232.434 105.759 C 232.696 106.805,232.308 106.907,227.704 107.000 L 223.583 107.083 223.583 108.500 L 223.583 109.917 228.500 109.917 C 235.052 109.917,235.833 109.526,235.833 106.246 C 235.833 103.576,234.663 102.485,231.442 102.152 C 226.765 101.670,225.678 101.164,226.882 100.032 C 227.248 99.688,227.432 99.671,231.174 99.628 L 235.083 99.583 235.132 98.181 C 235.167 97.172,235.121 96.740,234.966 96.642 C 234.570 96.391,227.027 96.503,225.869 96.778 M238.415 96.875 C 238.365 97.081,238.345 100.100,238.370 103.583 L 238.417 109.917 240.000 109.917 L 241.583 109.917 241.627 103.436 C 241.658 98.791,241.617 96.891,241.482 96.728 C 241.120 96.293,238.527 96.417,238.415 96.875 M259.053 96.738 C 256.581 97.337,255.918 98.743,255.940 103.333 C 255.969 109.488,256.453 109.915,263.417 109.916 L 268.250 109.917 268.250 108.500 L 268.250 107.083 264.225 107.000 C 259.537 106.903,259.500 106.891,259.500 105.474 L 259.500 104.667 264.178 104.667 C 269.849 104.667,269.500 104.788,269.500 102.820 C 269.500 98.964,268.614 97.301,266.250 96.719 C 265.149 96.448,260.194 96.461,259.053 96.738 M299.917 96.732 C 297.588 97.300,296.833 98.900,296.833 103.263 C 296.833 109.316,297.472 109.917,303.917 109.917 C 310.366 109.917,310.912 109.403,310.915 103.333 C 310.918 98.598,310.275 97.294,307.635 96.682 C 306.580 96.437,300.976 96.473,299.917 96.732 M320.171 96.745 C 319.732 97.273,320.010 106.766,320.493 107.750 C 321.452 109.706,321.964 109.917,325.762 109.917 C 328.762 109.917,328.777 109.915,329.460 109.463 L 330.145 109.009 330.198 109.463 L 330.250 109.917 331.833 109.917 L 333.417 109.917 333.460 103.436 C 333.511 95.873,333.665 96.469,331.683 96.536 L 330.250 96.583 330.160 101.250 C 330.043 107.308,330.230 107.000,326.664 107.000 C 323.240 107.000,323.333 107.161,323.333 101.269 C 323.333 98.936,323.288 96.909,323.232 96.764 C 323.091 96.395,320.474 96.379,320.171 96.745 M348.506 96.822 C 348.217 97.363,348.274 109.577,348.567 109.820 C 348.716 109.944,349.331 109.996,350.275 109.965 L 351.750 109.917 351.794 103.436 C 351.825 98.791,351.784 96.891,351.648 96.728 C 351.323 96.336,348.724 96.414,348.506 96.822 M357.667 96.723 C 355.188 97.378,354.578 98.703,354.591 103.417 C 354.601 107.278,354.979 108.439,356.560 109.468 L 357.250 109.917 361.583 109.917 C 368.168 109.917,368.785 109.296,368.632 102.820 C 368.538 98.853,367.917 97.420,366.024 96.810 C 365.167 96.534,358.640 96.466,357.667 96.723 M371.533 96.700 C 371.217 97.016,371.249 109.556,371.567 109.820 C 371.716 109.944,372.331 109.996,373.275 109.965 L 374.750 109.917 374.794 105.230 L 374.838 100.543 375.245 100.105 C 375.649 99.668,375.660 99.667,378.213 99.667 C 381.790 99.667,381.500 99.193,381.500 105.032 C 381.500 110.420,381.348 110.034,383.442 109.965 L 384.917 109.917 384.963 105.250 C 385.039 97.643,384.496 96.747,379.683 96.545 C 377.404 96.449,376.026 96.658,375.333 97.204 C 374.934 97.519,374.914 97.519,374.857 97.224 C 374.824 97.055,374.721 96.823,374.628 96.708 C 374.403 96.430,371.810 96.423,371.533 96.700 M390.205 96.750 C 388.350 97.206,387.500 98.357,387.500 100.415 C 387.500 103.038,388.995 104.484,391.726 104.505 C 392.461 104.511,395.276 104.889,396.043 105.086 C 396.849 105.292,396.869 106.445,396.072 106.808 C 395.793 106.935,394.335 107.000,391.736 107.000 L 387.820 107.000 387.869 108.458 L 387.917 109.917 392.833 109.917 C 399.406 109.917,400.000 109.611,400.000 106.233 C 400.000 103.488,398.959 102.489,395.750 102.152 C 394.201 101.990,391.137 101.526,391.052 101.441 C 390.784 101.173,390.842 100.325,391.149 100.017 C 391.486 99.681,391.657 99.667,395.423 99.667 L 399.346 99.667 399.298 98.125 L 399.250 96.583 395.167 96.559 C 392.311 96.541,390.819 96.599,390.205 96.750 M160.000 100.000 C 160.525 100.525,160.510 106.122,159.983 106.599 C 159.398 107.128,154.170 107.077,153.630 106.538 C 152.935 105.843,152.963 100.793,153.667 100.038 C 154.175 99.493,159.461 99.461,160.000 100.000 M200.337 99.835 C 201.378 100.392,201.235 106.246,200.167 106.785 C 199.658 107.042,195.234 107.081,194.586 106.834 C 193.445 106.400,193.202 100.701,194.289 99.875 C 194.631 99.616,199.863 99.581,200.337 99.835 M217.091 100.108 C 217.720 100.787,217.726 105.719,217.098 106.449 L 216.696 106.917 213.852 106.917 C 210.060 106.917,210.268 107.115,210.197 103.438 L 210.145 100.718 210.587 100.192 L 211.030 99.667 213.856 99.667 L 216.683 99.667 217.091 100.108 M265.490 99.958 C 265.803 100.212,266.151 101.158,266.163 101.792 C 266.166 101.952,265.391 102.000,262.833 102.000 L 259.500 102.000 259.500 101.167 C 259.500 99.759,259.694 99.667,262.648 99.667 C 264.763 99.667,265.183 99.710,265.490 99.958 M307.091 100.076 C 307.679 100.664,307.720 105.805,307.142 106.500 C 306.664 107.075,301.301 107.158,300.684 106.599 C 300.135 106.102,300.145 100.639,300.696 100.052 C 301.274 99.437,306.471 99.456,307.091 100.076 M364.781 100.029 C 365.156 100.381,365.167 100.474,365.167 103.337 C 365.167 107.156,365.410 106.898,361.731 106.970 L 358.997 107.022 358.498 106.524 L 358.000 106.026 358.000 103.255 C 358.000 99.490,357.823 99.667,361.607 99.667 C 364.240 99.667,364.417 99.687,364.781 100.029 " stroke="none" fill="#8f8fa3" fill-rule="evenodd"></path></g></svg>