<svg width="449" height="449" viewBox="0 0 449 449" fill="none" xmlns="http://www.w3.org/2000/svg">
<g clip-path="url(#clip0)">
<path d="M29.8133 344.368C29.1704 345.652 28.2684 346.788 27.1642 347.706C25.0688 349.562 21.7013 351.507 15.3854 351.507C11.6675 351.618 8.00673 350.572 4.90873 348.514C3.30262 347.242 2.02047 345.608 1.16723 343.745C0.31398 341.883 -0.086122 339.845 -0.000336875 337.798C-0.0489646 335.156 0.668393 332.557 2.06506 330.314C2.53483 329.616 3.0821 328.974 3.69643 328.399C4.23954 327.831 4.84734 327.328 5.5074 326.902C8.58818 325.036 12.1447 324.105 15.7446 324.223C19.3853 324.159 22.9701 325.124 26.0866 327.007C27.6646 328.069 28.98 329.476 29.933 331.123C30.1126 331.497 30.2922 331.856 30.4419 332.215L23.4375 333.083C22.7805 332.004 21.9033 331.076 20.8632 330.359C19.3269 329.41 17.5503 328.921 15.7446 328.952C14.3747 328.934 13.0153 329.194 11.7485 329.716C10.1695 330.395 8.83525 331.54 7.92344 332.997C7.01164 334.455 6.56563 336.155 6.64486 337.873C6.64075 339.733 7.19326 341.552 8.23133 343.096C8.68074 343.717 9.22053 344.266 9.83276 344.727C11.5521 346.12 13.7124 346.852 15.9242 346.793C17.1843 346.874 18.4464 346.668 19.6155 346.191C20.7847 345.714 21.8304 344.978 22.6742 344.039C23.1991 343.423 23.6372 342.738 23.9763 342.003H30.7262C30.5146 342.824 30.2082 343.618 29.8133 344.368Z" fill="#8F8FA3"/>
<path d="M55.9447 346.508C55.3919 347.362 54.6927 348.112 53.8793 348.723C51.2463 350.547 48.1012 351.485 44.8993 351.402C42.6272 351.41 40.3736 350.994 38.2541 350.175C37.4794 349.858 36.7497 349.44 36.084 348.933C35.3653 348.403 34.7166 347.785 34.1533 347.092C33.0415 345.573 32.4042 343.759 32.3217 341.879C32.2391 339.999 32.715 338.136 33.6893 336.526C35.186 334.281 38.6582 331.422 45.1238 331.452C49.075 331.452 53.4902 332.649 55.8849 336.091C56.8935 337.594 57.4159 339.371 57.3815 341.18C57.4104 343.056 56.9126 344.902 55.9447 346.508ZM50.4969 338.381C49.8366 337.439 48.9267 336.698 47.8693 336.244C46.8119 335.789 45.6487 335.638 44.5102 335.807C42.865 335.787 41.2687 336.367 40.0202 337.438C39.4748 337.97 39.0456 338.609 38.7597 339.315C38.4737 340.021 38.3373 340.778 38.3589 341.539C38.3576 342.649 38.703 343.732 39.347 344.637C39.991 345.541 40.9014 346.221 41.9509 346.583C42.8758 346.871 43.8411 347.008 44.8095 346.987C45.7516 347 46.6886 346.848 47.5784 346.538C48.6613 346.163 49.595 345.451 50.2418 344.505C50.8886 343.559 51.2141 342.43 51.1704 341.285C51.2132 340.274 50.9804 339.27 50.4969 338.381Z" fill="#8F8FA3"/>
<path d="M91.7451 350.639V339.504C91.8062 338.664 91.6299 337.824 91.2362 337.079C91.0332 336.766 90.7676 336.497 90.4559 336.291C90.1443 336.085 89.7934 335.946 89.4253 335.882C88.8776 335.74 88.3148 335.664 87.749 335.657C86.7651 335.643 85.7897 335.842 84.8904 336.241C82.7801 337.259 82.7052 338.995 82.7052 341.03V350.639H76.7186V340.162C76.7233 339.555 76.6732 338.949 76.5689 338.351C76.3569 337.544 75.8553 336.843 75.1597 336.383C74.4641 335.922 73.6232 335.733 72.7973 335.852C70.8367 335.852 68.6216 336.361 67.9032 338.426C67.6519 339.162 67.5501 339.941 67.6039 340.716V350.684H61.6172V332.26H67.2746V335.089C67.6312 334.541 68.0534 334.038 68.5318 333.592C70.3817 332.179 72.6728 331.469 74.9974 331.586C77.0613 331.498 79.0938 332.116 80.7596 333.338C81.355 333.825 81.8614 334.413 82.2562 335.074C82.456 334.803 82.6762 334.548 82.9148 334.31C83.9195 333.386 85.0996 332.673 86.3849 332.213C87.6703 331.752 89.035 331.555 90.3981 331.631C91.5089 331.555 92.6238 331.701 93.6775 332.06C94.7312 332.42 95.7025 332.987 96.5344 333.727C96.9301 334.169 97.2489 334.675 97.4773 335.223C97.817 336.265 97.9542 337.363 97.8814 338.456V350.564L91.7451 350.639Z" fill="#8F8FA3"/>
<path d="M123.819 348.244C122.844 349.225 121.674 349.99 120.385 350.491C119.096 350.991 117.716 351.215 116.335 351.148C115.659 351.153 114.984 351.108 114.315 351.013C112.342 350.747 110.506 349.855 109.077 348.469V357.614H103.09V332.26H109.077V334.355C109.49 333.962 109.941 333.611 110.424 333.308C112.149 332.291 114.123 331.773 116.126 331.811C117.478 331.814 118.822 332.031 120.107 332.455C121.987 333.078 123.608 334.306 124.718 335.946C125.827 337.586 126.364 339.548 126.243 341.524C126.345 343.995 125.474 346.407 123.819 348.244ZM119.972 339.743C119.778 339.055 119.441 338.414 118.985 337.863C118.529 337.311 117.963 336.861 117.323 336.54C116.427 336.172 115.463 335.999 114.494 336.032C113.399 335.992 112.32 336.301 111.411 336.915C110.677 337.439 110.084 338.138 109.684 338.947C109.285 339.757 109.091 340.652 109.121 341.554C109.124 342.246 109.235 342.933 109.451 343.59C109.853 344.661 110.59 345.575 111.553 346.195C112.515 346.815 113.652 347.108 114.794 347.032C115.665 347.064 116.532 346.89 117.323 346.523C118.251 346.066 119.021 345.341 119.533 344.442C120.045 343.543 120.276 342.511 120.197 341.479C120.195 340.894 120.119 340.31 119.972 339.743Z" fill="#8F8FA3"/>
<path d="M152.66 346.508C152.088 347.379 151.363 348.14 150.52 348.753C147.908 350.548 144.798 351.475 141.63 351.402C139.358 351.41 137.104 350.994 134.985 350.175C134.21 349.858 133.48 349.44 132.814 348.933C132.096 348.403 131.447 347.785 130.884 347.092C129.772 345.573 129.135 343.759 129.052 341.879C128.97 339.999 129.445 338.136 130.42 336.526C131.916 334.281 135.389 331.422 141.839 331.452C145.806 331.452 150.221 332.649 152.615 336.091C153.624 337.594 154.146 339.371 154.112 341.18C154.136 343.057 153.633 344.903 152.66 346.508ZM147.212 338.381C146.552 337.439 145.642 336.698 144.585 336.244C143.527 335.789 142.364 335.638 141.226 335.807C139.58 335.787 137.984 336.367 136.736 337.438C136.19 337.97 135.761 338.609 135.475 339.315C135.189 340.021 135.053 340.778 135.074 341.539C135.073 342.649 135.419 343.732 136.063 344.637C136.707 345.541 137.617 346.221 138.666 346.583C139.591 346.871 140.557 347.008 141.525 346.987C142.467 346.998 143.404 346.846 144.294 346.538C145.377 346.163 146.311 345.451 146.957 344.505C147.604 343.559 147.93 342.43 147.886 341.285C147.942 340.278 147.725 339.275 147.257 338.381H147.212Z" fill="#8F8FA3"/>
<path d="M168.958 351.298C166.171 351.407 163.397 350.858 160.862 349.696C159.657 349.033 158.666 348.042 158.003 346.838C157.669 346.221 157.423 345.561 157.27 344.877L163.69 344.398C163.876 345.083 164.268 345.694 164.813 346.149C166.112 347.004 167.666 347.385 169.213 347.227C170.356 347.264 171.496 347.096 172.58 346.733C172.887 346.647 173.158 346.466 173.354 346.216C173.551 345.965 173.662 345.659 173.673 345.341C173.673 344.084 172.176 343.844 170.111 343.575C168.046 343.305 166.309 343.201 164.424 342.946C163.044 342.822 161.707 342.403 160.502 341.719C159.818 341.306 159.255 340.718 158.874 340.016C158.492 339.313 158.305 338.522 158.332 337.723C158.333 336.755 158.591 335.804 159.08 334.969C160.398 332.829 163.66 331.377 169.033 331.377C171.559 331.267 174.072 331.781 176.352 332.874C177.068 333.272 177.719 333.776 178.283 334.37C178.998 335.193 179.51 336.172 179.779 337.229L173.568 337.633C173.413 337.164 173.108 336.76 172.7 336.481C171.508 335.638 170.053 335.25 168.599 335.388C166.309 335.388 164.424 335.972 164.468 337.199C164.479 337.387 164.533 337.57 164.626 337.734C164.72 337.898 164.85 338.037 165.007 338.142C166.384 338.674 167.842 338.967 169.318 339.01L173.538 339.414C174.955 339.493 176.338 339.876 177.594 340.537C178.296 340.988 178.871 341.611 179.263 342.348C179.656 343.084 179.855 343.908 179.839 344.742C179.869 348.723 176.247 351.298 168.958 351.298Z" fill="#8F8FA3"/>
<path d="M184.09 329.97V325.899H190.077V329.97H184.09ZM184.09 350.639V332.26H190.077V350.609L184.09 350.639Z" fill="#8F8FA3"/>
<path d="M201.645 350.789C201.316 350.789 200.957 350.789 200.628 350.789C200.044 350.789 197.141 350.609 196.243 348.095C195.971 347.327 195.859 346.512 195.913 345.7V335.837H192.92V332.26H195.913V327.366H201.9V332.26H206.001V335.777H201.9V344.084C201.843 344.605 201.958 345.131 202.229 345.58C202.588 346.059 203.097 346.239 204.265 346.239C204.848 346.239 205.462 346.164 206.046 346.134V350.415C204.549 350.639 203.097 350.789 201.645 350.789Z" fill="#8F8FA3"/>
<path d="M231.384 346.403C230.307 347.761 228.962 348.882 227.433 349.696C225.104 350.832 222.541 351.406 219.949 351.372C210.341 351.372 207.722 345.535 207.722 341.285C207.686 339.901 207.98 338.528 208.578 337.279C209.177 336.03 210.063 334.941 211.164 334.101C213.782 332.355 216.878 331.465 220.024 331.557C224.514 331.557 229.498 333.263 231.339 337.843C231.887 339.325 232.137 340.902 232.072 342.482H213.798C213.891 342.97 214.036 343.447 214.232 343.904C214.891 345.311 216.627 347.047 220.219 347.047C221.947 347.096 223.642 346.57 225.038 345.55C225.415 345.238 225.747 344.875 226.026 344.473L232.222 345.086C231.967 345.54 231.687 345.98 231.384 346.403ZM224.903 337.768C223.886 336.271 221.491 335.777 219.86 335.777C218.951 335.721 218.041 335.853 217.186 336.164C216.331 336.476 215.55 336.961 214.891 337.588C214.502 338.064 214.194 338.6 213.978 339.175H225.397C225.305 338.683 225.139 338.209 224.903 337.768Z" fill="#8F8FA3"/>
<path d="M269.161 331.886C269 331.585 268.804 331.303 268.577 331.048C266.976 329.207 264.087 328.803 261.752 328.803C261.036 328.796 260.321 328.846 259.612 328.952C259.403 328.952 256.02 329.237 256.02 331.781C256.02 333.083 256.933 333.637 258.056 333.996C259.867 334.535 264.446 335.193 266.287 335.493C267.468 335.671 268.633 335.936 269.775 336.286C271.261 336.615 272.587 337.45 273.526 338.649C274.465 339.847 274.959 341.334 274.923 342.856C274.923 345.176 274.1 348.843 268.936 350.519C267.549 350.916 266.125 351.167 264.686 351.268C263.773 351.268 262.875 351.387 261.962 351.387C258.85 351.554 255.75 350.888 252.982 349.457C252.357 349.123 251.761 348.737 251.201 348.304C250.158 347.452 249.254 346.442 248.522 345.311C248.286 344.965 248.081 344.6 247.908 344.218L253.745 342.722C255.242 345.91 259.223 346.718 262.336 346.718C264.147 346.772 265.944 346.371 267.559 345.55C267.931 345.31 268.238 344.982 268.454 344.596C268.671 344.211 268.79 343.778 268.802 343.335C268.806 343.005 268.733 342.678 268.587 342.382C268.442 342.085 268.228 341.827 267.964 341.629C266.464 340.907 264.836 340.49 263.174 340.402C258.46 339.669 255.915 339.309 253.85 338.336C252.653 337.827 251.632 336.976 250.916 335.89C250.2 334.804 249.82 333.531 249.824 332.23C249.806 331.078 250.084 329.94 250.632 328.926C251.18 327.912 251.979 327.055 252.952 326.438C255.598 324.798 258.69 324.023 261.797 324.223C264.716 324.077 267.627 324.637 270.283 325.854C272.375 326.772 274.11 328.349 275.222 330.344L269.161 331.886Z" fill="#8F8FA3"/>
<path d="M301.593 346.508C301.021 347.379 300.296 348.14 299.453 348.753C296.845 350.556 293.732 351.483 290.562 351.402C288.295 351.413 286.046 350.996 283.932 350.175C282.331 349.503 280.922 348.444 279.831 347.092C278.6 345.465 277.947 343.474 277.976 341.435C277.97 339.702 278.446 338.002 279.352 336.526C280.849 334.281 284.321 331.422 290.787 331.452C294.738 331.452 299.168 332.649 301.563 336.091C302.568 337.596 303.09 339.371 303.06 341.18C303.079 343.059 302.571 344.905 301.593 346.508ZM296.16 338.381C295.497 337.441 294.587 336.703 293.53 336.248C292.474 335.794 291.312 335.641 290.173 335.807C288.553 335.801 286.985 336.38 285.758 337.438C285.207 337.966 284.773 338.604 284.484 339.311C284.196 340.017 284.058 340.777 284.082 341.539C284.083 342.649 284.429 343.731 285.073 344.635C285.716 345.538 286.626 346.219 287.674 346.583C288.604 346.873 289.574 347.009 290.548 346.987C291.485 346.999 292.416 346.847 293.301 346.538C294.384 346.163 295.318 345.451 295.965 344.505C296.612 343.559 296.937 342.43 296.893 341.285C296.913 340.269 296.66 339.266 296.16 338.381Z" fill="#8F8FA3"/>
<path d="M307.221 350.639V325.031H313.207V350.639H307.221Z" fill="#8F8FA3"/>
<path d="M335.253 350.639V348.035C334.793 348.512 334.292 348.948 333.756 349.337C331.687 350.592 329.289 351.197 326.872 351.073C324.725 351.194 322.604 350.553 320.885 349.262C320.166 348.733 319.59 348.034 319.209 347.227C318.723 346.048 318.528 344.77 318.64 343.5V332.26H324.627V341.914C324.518 343.028 324.775 344.147 325.36 345.101C325.722 345.562 326.175 345.944 326.689 346.224C327.204 346.505 327.77 346.678 328.353 346.733C328.849 346.803 329.349 346.838 329.85 346.838C330.869 346.839 331.882 346.667 332.843 346.329C335.163 345.386 335.313 343.605 335.313 341.435V332.26H341.299V350.609L335.253 350.639Z" fill="#8F8FA3"/>
<path d="M352.825 350.789C352.496 350.789 352.137 350.789 351.807 350.789C351.224 350.789 348.32 350.609 347.422 348.095C347.151 347.327 347.039 346.512 347.093 345.7V335.837H344.1V332.26H347.093V327.366H353.08V332.26H357.18V335.777H353.08V344.084C353.022 344.605 353.138 345.131 353.409 345.58C353.768 346.059 354.277 346.239 355.444 346.239C356.028 346.239 356.642 346.164 357.225 346.134V350.415C355.729 350.639 354.277 350.789 352.825 350.789Z" fill="#8F8FA3"/>
<path d="M360.188 329.97V325.899H366.174V329.97H360.188ZM360.188 350.639V332.26H366.174V350.609L360.188 350.639Z" fill="#8F8FA3"/>
<path d="M393.847 346.508C393.274 347.379 392.549 348.14 391.707 348.753C389.099 350.556 385.986 351.483 382.816 351.402C380.549 351.409 378.301 350.993 376.186 350.175C375.408 349.856 374.674 349.438 374.001 348.933C373.29 348.4 372.646 347.782 372.085 347.092C370.854 345.465 370.201 343.474 370.229 341.435C370.231 339.703 370.707 338.005 371.606 336.526C373.103 334.281 376.59 331.422 383.041 331.452C386.992 331.452 391.422 332.649 393.817 336.091C394.828 337.593 395.351 339.37 395.314 341.18C395.341 343.059 394.832 344.908 393.847 346.508ZM388.414 338.381C387.759 337.452 386.861 336.721 385.818 336.267C384.776 335.813 383.629 335.654 382.502 335.807C380.857 335.787 379.261 336.367 378.012 337.438C377.464 337.969 377.032 338.607 376.743 339.313C376.455 340.019 376.316 340.777 376.336 341.539C376.338 342.651 376.686 343.734 377.333 344.638C377.979 345.542 378.892 346.222 379.943 346.583C380.867 346.874 381.833 347.01 382.801 346.987C383.739 347 384.671 346.848 385.555 346.538C386.638 346.163 387.572 345.451 388.219 344.505C388.865 343.559 389.191 342.43 389.147 341.285C389.167 340.269 388.914 339.266 388.414 338.381Z" fill="#8F8FA3"/>
<path d="M416.073 350.639V341.24C416.175 340.494 416.107 339.735 415.874 339.02C415.64 338.305 415.248 337.651 414.726 337.109C414.208 336.671 413.607 336.342 412.959 336.141C412.311 335.941 411.629 335.873 410.955 335.942C408.919 335.942 406.465 336.525 405.656 338.741C405.442 339.381 405.355 340.057 405.402 340.731V350.594H399.49V332.26H405.402V334.864C405.819 334.442 406.259 334.042 406.719 333.667C408.714 332.31 411.088 331.623 413.499 331.706C414.748 331.635 415.999 331.822 417.173 332.254C418.347 332.687 419.419 333.356 420.324 334.221C420.838 334.771 421.231 335.424 421.476 336.136C421.946 337.527 422.144 338.996 422.06 340.462V350.609L416.073 350.639Z" fill="#8F8FA3"/>
<path d="M438.074 351.298C435.292 351.405 432.523 350.856 429.992 349.696C428.786 349.031 427.79 348.04 427.119 346.838C426.796 346.217 426.555 345.559 426.4 344.877L432.821 344.398C432.995 345.088 433.389 345.703 433.944 346.149C435.237 347.004 436.786 347.385 438.329 347.227C439.477 347.263 440.622 347.096 441.711 346.733C442.015 346.644 442.283 346.462 442.476 346.212C442.67 345.962 442.779 345.657 442.789 345.341C442.789 344.084 441.292 343.844 439.242 343.575C437.191 343.305 435.425 343.201 433.54 342.946C432.165 342.819 430.833 342.401 429.633 341.719C428.946 341.308 428.381 340.721 427.996 340.019C427.612 339.316 427.423 338.523 427.448 337.723C427.456 336.754 427.72 335.804 428.211 334.969C429.513 332.829 432.791 331.377 438.149 331.377C440.68 331.267 443.198 331.781 445.483 332.874C446.194 333.272 446.84 333.777 447.399 334.37C448.114 335.193 448.626 336.172 448.895 337.229L442.699 337.633C442.532 337.171 442.229 336.769 441.831 336.481C440.639 335.638 439.184 335.25 437.73 335.388C435.44 335.388 433.554 335.972 433.584 337.199C433.594 337.389 433.649 337.574 433.746 337.738C433.842 337.902 433.977 338.041 434.138 338.142C435.515 338.674 436.973 338.967 438.449 339.01L442.654 339.414C444.076 339.492 445.464 339.875 446.725 340.537C447.427 340.988 448.001 341.611 448.394 342.348C448.787 343.084 448.985 343.908 448.97 344.742C449 348.723 445.378 351.298 438.074 351.298Z" fill="#8F8FA3"/>
<path d="M114.63 284.95H148.35V297.507H87.8398V286.297L123.056 256.364H90.6985V244.391H148.425V255.765L114.63 284.95Z" fill="#8F8FA3"/>
<path d="M169.723 297.507V244.376H188.76V297.507H169.723Z" fill="#8F8FA3"/>
<path d="M270.254 292.479C265.659 296.759 257.981 299.393 244.511 299.393C240.816 299.412 237.123 299.212 233.451 298.795C231.655 298.57 220.729 297.298 215.775 289.815C213.748 286.413 212.779 282.484 212.992 278.53V244.376H231.984V274.564C231.984 278.395 232.284 281.792 235.367 284.576C237.962 286.651 241.222 287.714 244.541 287.57C245.604 287.57 250.334 287.495 253.521 284.771C254.493 283.893 255.264 282.816 255.781 281.613C256.735 279.281 257.145 276.763 256.979 274.249V244.316H275.941V272.169C275.897 279.458 276.121 286.971 270.254 292.479Z" fill="#8F8FA3"/>
<path d="M340.162 297.507L329.177 278.17H319.089V297.507H299.977V244.376H339.099C346.254 244.376 353.108 244.915 357.389 251.679C359.196 254.539 360.137 257.861 360.098 261.243C360.098 263.728 359.574 270.792 352.884 274.489C351.336 275.353 349.658 275.96 347.915 276.285L361.16 297.507H340.162ZM340.312 258.594C339.025 256.708 336.929 256.409 334.894 256.409H319.089V266.197H333.382C337.004 266.197 338.875 265.748 340.087 264.311C340.778 263.468 341.149 262.408 341.135 261.318C341.138 260.353 340.851 259.409 340.312 258.609V258.594Z" fill="#8F8FA3"/>
<path d="M255.555 152.929H285.937V172.087H209.308L285.937 95.4574H143.889V152.929H174.271L193.428 133.772H163.046V114.615H239.69L163.046 191.259H305.11V133.772H274.727L255.555 152.929Z" fill="#8F8FA3"/>
</g>
<defs>
<clipPath id="clip0">
<rect width="449" height="449" fill="white"/>
</clipPath>
</defs>
</svg>
