<?xml version="1.0" standalone="no"?>
<!DOCTYPE svg PUBLIC "-//W3C//DTD SVG 20010904//EN"
 "http://www.w3.org/TR/2001/REC-SVG-20010904/DTD/svg10.dtd">
<svg version="1.0" xmlns="http://www.w3.org/2000/svg"
 width="6132.000000pt" height="1760.000000pt" viewBox="0 0 6132.000000 1760.000000"
 preserveAspectRatio="xMidYMid meet">

<g transform="translate(0.000000,1760.000000) scale(0.100000,-0.100000)"
fill="#8f8fa3" stroke="none">
<path d="M11950 17593 c-57 -21 -83 -40 -107 -80 -50 -85 -17 -194 71 -234 75
-34 149 -19 199 40 58 69 55 165 -7 227 -41 41 -113 63 -156 47z"/>
<path d="M11243 17570 c-48 -21 -79 -64 -88 -122 -8 -47 25 -121 68 -152 41
-30 140 -29 183 1 72 51 86 173 28 234 -56 60 -118 72 -191 39z"/>
<path d="M10571 17562 c-48 -24 -73 -62 -79 -120 -5 -55 10 -92 53 -132 23
-22 36 -25 95 -25 59 0 72 3 95 25 107 100 47 270 -95 270 -19 0 -50 -8 -69
-18z"/>
<path d="M9254 17559 c-18 -5 -46 -25 -63 -44 -58 -66 -35 -172 44 -209 93
-45 202 31 192 133 -9 88 -90 143 -173 120z"/>
<path d="M9893 17550 c-67 -40 -88 -112 -54 -182 22 -47 57 -73 111 -83 49 -8
119 28 143 75 22 43 18 116 -9 153 -41 56 -131 74 -191 37z"/>
<path d="M12553 17417 c-14 -864 -385 -1722 -1144 -2644 -196 -237 -386 -442
-693 -748 -282 -281 -333 -326 -791 -705 -2414 -1994 -5016 -4164 -6170 -5144
-337 -286 -580 -515 -732 -688 -586 -667 -930 -1405 -1044 -2242 -30 -218 -37
-695 -15 -934 49 -512 182 -1038 398 -1577 242 -603 605 -1123 1203 -1720 317
-318 614 -579 1002 -881 l158 -122 7 191 c24 710 247 1360 702 2052 406 616
873 1118 1731 1861 643 557 1549 1313 3360 2804 1577 1298 1830 1507 2392
1976 751 627 936 786 1102 948 398 390 691 792 916 1258 206 428 324 838 381
1323 25 206 25 687 1 903 -49 431 -151 865 -302 1281 -156 431 -282 687 -501
1016 -387 583 -1004 1212 -1788 1820 -88 69 -163 125 -166 125 -3 0 -6 -69 -7
-153z"/>
<path d="M8583 17553 c-13 -2 -36 -18 -53 -34 -106 -106 30 -277 158 -199 34
21 62 71 62 111 0 43 -32 91 -74 110 -41 19 -52 20 -93 12z"/>
<path d="M7895 17536 c-116 -50 -77 -226 50 -226 85 0 144 86 112 163 -17 41
-68 77 -107 77 -14 -1 -39 -7 -55 -14z"/>
<path d="M7225 17531 c-35 -15 -57 -49 -62 -95 -5 -42 -3 -48 30 -81 30 -30
42 -35 80 -35 55 0 92 27 106 76 26 94 -63 172 -154 135z"/>
<path d="M5893 17519 c-61 -18 -83 -105 -39 -156 20 -23 32 -28 71 -28 59 0
95 35 95 94 0 37 -35 91 -59 91 -5 0 -15 2 -23 4 -7 2 -28 0 -45 -5z"/>
<path d="M6532 17505 c-60 -50 -47 -142 24 -171 72 -30 144 18 144 98 0 86
-100 130 -168 73z"/>
<path d="M5210 17507 c-80 -41 -48 -167 42 -167 40 0 88 48 88 89 0 62 -75
107 -130 78z"/>
<path d="M4525 17485 c-52 -51 -18 -135 54 -135 37 0 81 38 81 70 0 77 -84
117 -135 65z"/>
<path d="M3851 17474 c-23 -29 -24 -36 -14 -73 14 -53 108 -57 132 -5 16 35
14 47 -10 78 -15 19 -30 26 -54 26 -24 0 -39 -7 -54 -26z"/>
<path d="M3186 17474 c-24 -24 -20 -80 6 -98 29 -21 51 -20 79 2 28 24 31 79
4 98 -25 19 -70 18 -89 -2z"/>
<path d="M11796 16978 c-45 -26 -86 -94 -86 -142 0 -41 38 -115 71 -139 55
-40 143 -40 198 0 33 24 71 98 71 138 -1 45 -34 109 -71 135 -48 35 -131 38
-183 8z"/>
<path d="M10435 16978 c-129 -46 -141 -220 -20 -278 106 -51 217 18 217 135 0
102 -103 177 -197 143z"/>
<path d="M11114 16980 c-33 -13 -83 -77 -90 -116 -4 -20 -1 -53 6 -77 33 -112
167 -149 259 -71 80 67 61 213 -33 258 -36 17 -107 20 -142 6z"/>
<path d="M9720 16962 c-55 -27 -83 -77 -78 -140 14 -169 252 -178 283 -10 11
58 -23 124 -77 148 -53 24 -83 25 -128 2z"/>
<path d="M9023 16955 c-78 -34 -98 -155 -35 -217 41 -42 120 -50 170 -18 84
52 79 185 -9 232 -40 21 -82 22 -126 3z"/>
<path d="M7645 16944 c-102 -35 -110 -170 -12 -218 67 -32 137 -3 161 69 33
96 -53 182 -149 149z"/>
<path d="M8318 16944 c-35 -19 -61 -68 -61 -116 0 -95 101 -150 191 -104 82
42 83 172 2 220 -35 20 -96 20 -132 0z"/>
<path d="M6955 16943 c-32 -8 -74 -54 -81 -88 -12 -65 43 -135 106 -135 103 0
156 123 82 192 -28 27 -72 39 -107 31z"/>
<path d="M6250 16933 c-58 -23 -85 -94 -55 -148 52 -98 195 -58 195 54 0 60
-84 117 -140 94z"/>
<path d="M5519 16901 c-21 -22 -29 -39 -29 -66 0 -83 105 -127 164 -69 58 59
14 164 -69 164 -27 0 -44 -8 -66 -29z"/>
<path d="M4152 16905 c-33 -14 -42 -32 -42 -79 0 -39 23 -63 68 -72 26 -5 36
-1 62 24 35 35 38 69 10 104 -24 31 -59 39 -98 23z"/>
<path d="M4825 16895 c-33 -32 -33 -84 -1 -121 51 -60 150 -19 150 62 0 74
-96 113 -149 59z"/>
<path d="M3453 16898 c-46 -23 -49 -103 -4 -127 30 -16 55 -13 85 10 65 51 -6
154 -81 117z"/>
<path d="M2744 16874 c-43 -42 -15 -104 46 -104 56 0 83 83 38 114 -32 23 -55
20 -84 -10z"/>
<path d="M11585 16391 c-112 -50 -138 -186 -52 -269 58 -56 121 -66 193 -31
133 64 116 261 -25 308 -46 15 -69 14 -116 -8z"/>
<path d="M10864 16381 c-107 -49 -119 -202 -21 -275 42 -31 140 -30 185 2 94
68 84 215 -18 269 -52 28 -91 29 -146 4z"/>
<path d="M10150 16373 c-19 -10 -45 -34 -58 -53 -20 -29 -23 -44 -20 -93 4
-51 9 -63 41 -94 31 -32 43 -37 94 -41 49 -3 64 0 93 20 88 59 92 190 8 251
-38 28 -114 33 -158 10z"/>
<path d="M8746 16370 c-118 -36 -125 -208 -10 -256 44 -18 68 -18 111 3 91 43
99 186 14 235 -36 21 -81 28 -115 18z"/>
<path d="M9431 16362 c-41 -22 -71 -73 -71 -120 0 -135 160 -198 249 -97 54
62 51 143 -9 200 -39 37 -118 46 -169 17z"/>
<path d="M8021 16352 c-50 -25 -76 -65 -75 -116 3 -128 167 -173 234 -63 40
65 13 154 -55 183 -45 18 -63 18 -104 -4z"/>
<path d="M7289 16337 c-42 -28 -62 -81 -48 -129 14 -51 50 -80 107 -86 41 -4
52 0 80 23 66 56 62 151 -10 195 -43 26 -87 25 -129 -3z"/>
<path d="M6564 16316 c-73 -73 -26 -186 77 -186 67 0 109 45 109 116 0 54 -53
104 -110 104 -34 0 -48 -6 -76 -34z"/>
<path d="M5185 16333 c-32 -8 -64 -44 -71 -78 -12 -66 48 -125 114 -110 90 19
102 145 18 180 -20 8 -37 14 -38 14 -2 -1 -12 -3 -23 -6z"/>
<path d="M5855 16316 c-68 -68 -24 -180 70 -180 94 0 138 112 70 180 -18 18
-35 24 -70 24 -35 0 -52 -6 -70 -24z"/>
<path d="M4448 16315 c-33 -18 -52 -72 -39 -108 19 -49 77 -71 124 -45 56 29
64 93 18 139 -32 32 -62 36 -103 14z"/>
<path d="M3726 16299 c-55 -43 -21 -139 50 -139 64 0 100 60 70 118 -25 47
-75 56 -120 21z"/>
<path d="M3010 16290 c-24 -24 -26 -67 -4 -98 20 -28 83 -31 107 -4 25 28 22
87 -5 106 -31 22 -74 20 -98 -4z"/>
<path d="M2294 16274 c-22 -33 -10 -72 28 -93 25 -14 29 -14 55 5 55 41 34
114 -33 114 -25 0 -38 -7 -50 -26z"/>
<path d="M11231 15789 c-47 -28 -68 -56 -81 -107 -37 -146 138 -264 259 -175
51 38 66 70 66 137 0 54 -4 68 -29 100 -50 66 -147 87 -215 45z"/>
<path d="M9804 15781 c-104 -47 -124 -175 -39 -250 65 -56 157 -51 213 13 66
75 43 188 -48 234 -53 27 -73 27 -126 3z"/>
<path d="M10500 15778 c-50 -34 -72 -83 -67 -146 4 -60 27 -97 77 -126 44 -26
116 -26 161 0 39 22 79 93 79 140 0 46 -40 114 -80 135 -50 27 -128 25 -170
-3z"/>
<path d="M9085 15776 c-50 -22 -77 -60 -83 -114 -8 -89 42 -152 127 -159 156
-14 216 199 76 267 -48 23 -78 25 -120 6z"/>
<path d="M8351 15762 c-88 -47 -93 -180 -9 -232 26 -17 45 -20 87 -17 47 3 59
9 88 40 28 31 33 44 33 84 0 113 -103 177 -199 125z"/>
<path d="M7628 15754 c-55 -29 -79 -126 -44 -179 37 -56 111 -74 174 -41 82
42 83 172 2 220 -35 20 -96 20 -132 0z"/>
<path d="M6215 15753 c-32 -8 -74 -54 -81 -89 -12 -64 48 -134 116 -134 54 0
110 59 110 116 0 34 -32 83 -65 98 -34 16 -44 17 -80 9z"/>
<path d="M6888 15731 c-30 -26 -33 -35 -33 -84 0 -64 24 -99 81 -117 97 -32
187 77 140 168 -23 44 -53 62 -108 62 -39 0 -54 -6 -80 -29z"/>
<path d="M5471 15737 c-45 -26 -66 -101 -41 -148 14 -25 62 -49 99 -49 37 0
88 41 96 79 7 32 -13 88 -38 109 -24 20 -88 25 -116 9z"/>
<path d="M4753 15730 c-32 -13 -56 -65 -49 -106 12 -60 90 -94 148 -63 24 13
50 71 42 96 -24 74 -74 100 -141 73z"/>
<path d="M3324 15720 c-46 -18 -69 -85 -41 -121 51 -66 147 -36 147 46 0 30
-30 75 -50 75 -4 0 -14 2 -22 4 -7 3 -23 1 -34 -4z"/>
<path d="M4015 15707 c-60 -51 -18 -152 61 -150 51 1 84 35 84 85 0 78 -86
117 -145 65z"/>
<path d="M2593 15708 c-68 -33 -40 -138 37 -138 29 0 70 44 70 75 0 30 -41 75
-67 74 -10 0 -28 -5 -40 -11z"/>
<path d="M1860 15690 c-41 -41 -14 -110 43 -110 31 0 67 32 67 59 0 29 -39 71
-66 71 -13 0 -33 -9 -44 -20z"/>
<path d="M10815 15201 c-48 -22 -69 -44 -90 -96 -33 -78 10 -177 92 -211 135
-57 276 85 219 219 -17 41 -62 81 -105 96 -46 15 -69 14 -116 -8z"/>
<path d="M10085 15190 c-54 -28 -78 -63 -83 -125 -5 -63 17 -116 62 -148 43
-30 142 -31 183 -1 33 24 73 97 73 134 0 49 -42 113 -90 138 -55 27 -93 28
-145 2z"/>
<path d="M9364 15186 c-70 -31 -104 -135 -67 -206 10 -19 34 -45 53 -58 29
-20 44 -23 93 -20 51 4 63 9 94 41 32 32 37 43 40 94 3 46 0 65 -16 91 -42 65
-124 90 -197 58z"/>
<path d="M7925 15171 c-49 -22 -75 -65 -75 -121 0 -172 245 -185 266 -14 13
104 -95 180 -191 135z"/>
<path d="M8650 15183 c-28 -10 -70 -56 -81 -90 -33 -102 69 -212 170 -183 51
14 81 38 97 75 43 103 -22 206 -127 204 -24 0 -51 -3 -59 -6z"/>
<path d="M7203 15166 c-66 -30 -92 -119 -53 -183 35 -59 101 -78 165 -47 148
70 37 297 -112 230z"/>
<path d="M6481 15157 c-41 -21 -66 -64 -66 -114 0 -39 5 -49 39 -80 36 -33 42
-35 89 -30 70 6 107 46 107 115 0 27 -7 57 -16 70 -32 47 -103 65 -153 39z"/>
<path d="M5751 15146 c-33 -18 -50 -53 -51 -103 0 -33 6 -48 31 -72 25 -26 39
-31 76 -31 38 0 50 5 79 34 28 28 34 42 34 76 0 34 -6 48 -34 76 -27 27 -42
34 -72 34 -22 -1 -50 -7 -63 -14z"/>
<path d="M4325 15141 c-64 -27 -81 -110 -32 -158 60 -61 162 -19 162 67 0 29
-7 46 -25 64 -28 27 -75 39 -105 27z"/>
<path d="M5015 15127 c-31 -26 -42 -89 -23 -127 7 -14 30 -33 51 -43 31 -16
42 -17 73 -7 39 13 74 60 74 98 0 31 -26 79 -49 92 -35 18 -98 12 -126 -13z"/>
<path d="M3595 15128 c-11 -6 -26 -18 -32 -26 -18 -22 -16 -83 2 -109 21 -30
74 -39 113 -19 33 17 42 34 42 76 0 42 -9 59 -41 75 -33 18 -57 18 -84 3z"/>
<path d="M2855 15105 c-50 -49 -15 -135 55 -135 41 0 80 39 80 80 0 41 -39 80
-80 80 -19 0 -40 -9 -55 -25z"/>
<path d="M2131 15094 c-26 -34 -27 -54 0 -88 56 -71 166 9 112 82 -29 39 -84
42 -112 6z"/>
<path d="M1416 15094 c-27 -26 -18 -86 16 -102 57 -27 113 29 86 86 -16 34
-76 43 -102 16z"/>
<path d="M9583 14609 c-123 -26 -167 -166 -83 -263 60 -67 158 -69 227 -4 112
107 9 300 -144 267z"/>
<path d="M10251 14604 c-104 -54 -116 -217 -19 -285 42 -30 132 -38 176 -15
108 56 119 217 20 290 -38 27 -132 32 -177 10z"/>
<path d="M8831 14588 c-110 -57 -109 -218 2 -268 55 -26 85 -25 137 3 130 68
92 261 -55 282 -30 5 -51 1 -84 -17z"/>
<path d="M8120 14583 c-56 -29 -83 -78 -78 -141 14 -171 252 -177 284 -7 8 42
-21 110 -58 136 -41 30 -104 35 -148 12z"/>
<path d="M7403 14575 c-89 -38 -96 -183 -11 -235 92 -56 208 9 208 115 0 102
-99 163 -197 120z"/>
<path d="M6003 14573 c-12 -2 -36 -17 -52 -32 -78 -73 -27 -206 80 -206 74 0
119 47 119 124 0 73 -72 128 -147 114z"/>
<path d="M6666 14548 c-61 -61 -61 -134 0 -187 70 -62 178 -31 205 58 25 82
-26 151 -116 159 -52 4 -56 3 -89 -30z"/>
<path d="M5271 14557 c-96 -49 -79 -193 24 -213 127 -23 187 155 71 210 -41
19 -63 20 -95 3z"/>
<path d="M4543 14540 c-54 -32 -61 -116 -15 -163 24 -24 90 -32 122 -15 14 7
33 30 43 51 24 48 9 100 -37 128 -40 24 -73 24 -113 -1z"/>
<path d="M3819 14521 c-21 -22 -29 -39 -29 -66 0 -51 44 -95 95 -95 51 0 95
44 95 95 0 51 -44 95 -95 95 -27 0 -44 -8 -66 -29z"/>
<path d="M2420 14527 c-59 -30 -64 -99 -8 -140 49 -37 118 3 118 68 0 33 -27
75 -49 75 -5 0 -15 2 -23 5 -7 3 -24 -1 -38 -8z"/>
<path d="M3105 14515 c-17 -16 -25 -35 -25 -60 0 -80 92 -116 150 -60 32 33
33 85 0 120 -32 34 -91 35 -125 0z"/>
<path d="M1703 14520 c-47 -19 -56 -78 -18 -115 31 -32 69 -32 102 1 20 20 24
31 19 57 -4 17 -12 37 -19 44 -17 17 -59 24 -84 13z"/>
<path d="M971 14494 c-24 -31 -25 -37 -10 -67 16 -29 28 -37 60 -37 55 0 82
83 37 114 -33 23 -64 19 -87 -10z"/>
<path d="M20407 14026 c-88 -24 -147 -87 -172 -181 -21 -82 -22 -1128 -1
-1218 19 -81 57 -131 125 -164 l56 -28 2607 -5 2608 -5 -2623 -2573 c-1442
-1415 -2646 -2603 -2675 -2640 -58 -74 -89 -145 -103 -237 -6 -35 -9 -308 -7
-645 l3 -585 29 -58 c30 -63 85 -108 156 -127 22 -6 1333 -10 3701 -10 4045 0
3728 -5 3805 62 91 80 96 128 92 794 -3 471 -6 534 -21 573 -27 68 -61 107
-124 138 l-58 28 -2613 5 -2614 5 2552 2500 c1404 1375 2599 2545 2655 2600
110 109 163 194 185 298 7 36 10 249 8 673 l-3 619 -28 58 c-32 65 -75 99
-153 123 -67 20 -7311 20 -7387 0z"/>
<path d="M29907 14026 c-60 -16 -115 -60 -147 -117 l-25 -44 0 -4070 0 -4070
22 -41 c30 -57 83 -100 145 -119 79 -23 1229 -23 1309 1 64 19 136 86 159 149
13 35 15 530 18 4020 2 2697 -1 4005 -8 4059 -6 46 -19 96 -32 119 -31 55 -96
103 -158 116 -78 17 -1220 14 -1283 -3z"/>
<path d="M33746 14029 c-97 -23 -165 -94 -186 -193 -7 -37 -10 -885 -7 -2891
4 -3090 0 -2890 58 -3235 85 -508 267 -943 537 -1282 418 -524 1041 -808 1907
-868 112 -8 656 -10 1805 -8 1474 4 1658 6 1770 21 393 53 649 119 910 235
277 122 484 265 686 473 347 358 574 841 674 1431 57 341 53 144 57 3233 3
1993 0 2855 -7 2891 -17 81 -58 137 -127 170 l-58 29 -619 3 c-426 2 -636 -1
-673 -8 -66 -14 -129 -61 -163 -120 l-25 -45 -6 -2850 c-6 -3057 -3 -2919 -54
-3155 -95 -449 -340 -647 -870 -700 -77 -8 -574 -10 -1675 -8 -1553 4 -1566 4
-1675 26 -134 26 -260 68 -357 119 -104 54 -221 173 -275 278 -80 156 -124
350 -143 622 -6 93 -10 1158 -10 2884 0 2979 4 2788 -56 2866 -15 20 -50 46
-83 62 l-56 26 -620 2 c-353 1 -637 -3 -659 -8z"/>
<path d="M44297 14026 c-88 -24 -147 -87 -172 -181 -13 -53 -15 -486 -15
-4050 0 -4309 -3 -4059 52 -4143 15 -21 48 -50 79 -67 l54 -30 629 -3 c545 -2
636 -1 682 13 63 18 116 61 147 119 l22 41 3 1023 2 1022 1483 0 1482 0 665
-1032 c366 -568 677 -1047 693 -1064 38 -44 111 -89 176 -108 48 -14 145 -16
760 -16 442 0 720 4 742 10 46 13 96 47 123 83 31 41 28 136 -5 198 -13 26
-348 507 -744 1069 -396 562 -720 1024 -720 1027 0 2 46 19 102 38 297 100
569 245 783 419 498 405 783 1074 850 2001 17 228 8 965 -14 1145 -93 765
-318 1292 -725 1701 -477 477 -1201 731 -2251 789 -116 6 -1057 10 -2510 9
-1874 0 -2334 -3 -2373 -13z m4708 -1596 c516 -33 862 -123 1090 -285 228
-162 357 -467 396 -940 15 -187 6 -654 -16 -795 -37 -242 -110 -446 -209 -585
-156 -217 -450 -354 -906 -419 -280 -40 -312 -41 -1970 -41 l-1605 0 -3 1538
-2 1537 1532 0 c918 0 1597 -4 1693 -10z"/>
<path d="M9674 14012 c-76 -36 -117 -118 -95 -192 34 -115 155 -162 256 -100
39 24 75 91 75 140 0 48 -36 116 -74 140 -49 30 -113 35 -162 12z"/>
<path d="M8965 14000 c-56 -29 -78 -64 -83 -130 -4 -69 19 -116 74 -147 131
-75 283 52 229 193 -34 89 -135 128 -220 84z"/>
<path d="M8261 13992 c-48 -24 -73 -62 -78 -119 -5 -60 18 -108 67 -141 29
-20 45 -23 93 -20 48 4 62 9 91 37 126 122 -17 323 -173 243z"/>
<path d="M6863 13981 c-69 -32 -96 -117 -60 -187 32 -62 115 -89 176 -57 160
84 48 320 -116 244z"/>
<path d="M7570 13993 c-28 -10 -70 -56 -81 -90 -33 -102 69 -212 170 -183 51
14 81 38 97 75 43 103 -22 206 -127 204 -24 0 -51 -3 -59 -6z"/>
<path d="M6165 13976 c-54 -24 -70 -52 -70 -118 0 -55 3 -62 32 -89 18 -16 44
-31 58 -35 65 -16 136 26 154 92 28 102 -79 194 -174 150z"/>
<path d="M5465 13970 c-60 -24 -89 -102 -61 -162 54 -114 226 -75 226 52 0 86
-86 143 -165 110z"/>
<path d="M4750 13957 c-14 -7 -33 -29 -44 -51 -54 -110 84 -210 176 -127 29
26 33 35 33 81 0 46 -4 55 -33 81 -36 32 -87 38 -132 16z"/>
<path d="M3355 13946 c-73 -32 -70 -145 4 -176 64 -26 131 19 131 87 0 47 -16
72 -55 89 -41 17 -42 17 -80 0z"/>
<path d="M4029 13931 c-22 -23 -29 -39 -29 -70 0 -112 147 -145 195 -44 33 70
-14 143 -92 143 -36 0 -50 -6 -74 -29z"/>
<path d="M2650 13937 c-33 -17 -53 -60 -45 -97 8 -37 49 -70 87 -70 41 0 88
48 88 90 0 22 -9 41 -29 61 -32 31 -61 36 -101 16z"/>
<path d="M1934 13917 c-71 -62 12 -172 95 -127 31 16 46 65 31 100 -23 55 -80
66 -126 27z"/>
<path d="M552 13919 c-54 -20 -51 -99 5 -120 22 -8 32 -6 52 9 62 46 15 137
-57 111z"/>
<path d="M1230 13910 c-24 -24 -26 -67 -4 -98 20 -28 83 -31 107 -4 23 25 22
85 -1 105 -25 23 -78 21 -102 -3z"/>
<path d="M8955 13416 c-42 -18 -83 -69 -91 -112 -14 -77 11 -137 77 -182 29
-20 44 -23 94 -20 72 4 114 30 141 85 70 143 -75 293 -221 229z"/>
<path d="M7605 13410 c-17 -5 -46 -25 -65 -45 -29 -30 -34 -43 -38 -92 -3 -48
0 -64 20 -92 67 -97 213 -90 262 13 57 120 -54 253 -179 216z"/>
<path d="M8264 13406 c-93 -42 -112 -194 -33 -260 92 -78 226 -41 259 71 18
59 6 108 -39 156 -35 37 -43 41 -97 44 -36 2 -71 -2 -90 -11z"/>
<path d="M6915 13400 c-17 -5 -44 -23 -60 -40 -38 -40 -47 -128 -17 -176 55
-88 201 -83 248 8 60 115 -47 245 -171 208z"/>
<path d="M6210 13383 c-92 -48 -97 -193 -8 -239 62 -32 149 -13 184 41 74 114
-56 260 -176 198z"/>
<path d="M5521 13373 c-48 -24 -78 -92 -62 -143 23 -78 96 -116 169 -88 103
39 108 191 7 234 -44 18 -72 17 -114 -3z"/>
<path d="M4850 13373 c-54 -20 -89 -92 -70 -147 18 -57 53 -81 117 -81 49 0
58 3 84 33 23 26 29 41 29 80 0 27 -7 57 -16 70 -29 42 -96 63 -144 45z"/>
<path d="M4153 13360 c-37 -15 -65 -69 -59 -115 14 -113 172 -132 216 -25 37
90 -62 178 -157 140z"/>
<path d="M3459 13345 c-63 -34 -62 -130 1 -173 86 -58 190 32 150 129 -22 53
-95 74 -151 44z"/>
<path d="M2103 13335 c-89 -38 -62 -165 35 -165 40 0 71 24 86 64 12 34 -12
83 -48 100 -40 19 -33 19 -73 1z"/>
<path d="M2758 13320 c-27 -27 -30 -36 -25 -72 7 -52 33 -78 85 -85 36 -5 45
-2 72 25 40 40 42 101 5 137 -36 37 -97 35 -137 -5z"/>
<path d="M1415 13329 c-41 -23 -56 -68 -39 -114 10 -24 60 -46 89 -39 31 8 65
49 65 80 0 51 -72 97 -115 73z"/>
<path d="M716 13309 c-71 -56 9 -166 82 -112 39 29 42 84 6 112 -34 26 -54 27
-88 0z"/>
<path d="M30 13302 c-44 -35 -17 -112 39 -112 32 0 44 8 60 37 16 31 14 41
-14 68 -29 30 -55 32 -85 7z"/>
<path d="M8195 4496 c-43 -19 -81 -64 -95 -111 -16 -55 1 -118 44 -161 136
-136 358 33 263 201 -39 70 -139 104 -212 71z"/>
<path d="M8870 4478 c-77 -53 -98 -130 -58 -208 25 -48 89 -90 138 -90 36 0
110 40 134 72 30 42 32 124 4 172 -44 74 -150 100 -218 54z"/>
<path d="M9595 4489 c-17 -4 -46 -24 -64 -43 -44 -45 -53 -120 -23 -176 20
-38 89 -80 132 -80 43 0 112 42 132 80 30 56 21 131 -22 175 -19 20 -50 40
-70 45 -40 11 -44 11 -85 -1z"/>
<path d="M10260 4470 c-97 -51 -97 -199 0 -251 63 -34 127 -21 180 36 21 23
25 36 25 90 0 54 -4 68 -25 90 -50 55 -119 68 -180 35z"/>
<path d="M10951 4462 c-40 -21 -71 -73 -71 -117 0 -71 66 -135 140 -135 62 0
126 54 130 110 5 60 -1 82 -33 116 -28 31 -41 37 -83 41 -36 3 -58 -1 -83 -15z"/>
<path d="M11679 4470 c-74 -21 -104 -66 -96 -139 10 -89 105 -138 186 -97 82
43 87 171 8 220 -31 19 -67 25 -98 16z"/>
<path d="M12345 4456 c-80 -35 -92 -143 -24 -200 49 -42 140 -32 173 18 36 57
24 137 -27 171 -35 23 -87 28 -122 11z"/>
<path d="M13024 4441 c-58 -35 -68 -125 -20 -170 92 -86 231 7 183 122 -27 63
-102 85 -163 48z"/>
<path d="M13705 4427 c-35 -29 -45 -96 -21 -133 42 -63 138 -64 177 0 31 50
22 101 -25 138 -31 26 -99 23 -131 -5z"/>
<path d="M14423 4435 c-38 -16 -53 -42 -53 -88 0 -68 59 -109 126 -87 81 27
83 151 3 179 -39 13 -37 13 -76 -4z"/>
<path d="M15093 4416 c-22 -19 -28 -32 -28 -65 0 -50 26 -79 78 -88 31 -5 40
-1 67 25 40 41 41 83 1 123 -37 36 -79 38 -118 5z"/>
<path d="M15785 4405 c-50 -49 -15 -135 55 -135 43 0 80 39 80 83 0 70 -85
103 -135 52z"/>
<path d="M16510 4423 c-51 -19 -68 -85 -30 -123 45 -45 120 -11 120 53 0 47
-49 85 -90 70z"/>
<path d="M17175 4395 c-28 -27 -30 -37 -14 -68 16 -29 28 -37 60 -37 55 0 82
83 37 114 -32 22 -55 20 -83 -9z"/>
<path d="M7497 3905 c-201 -71 -122 -360 88 -321 20 4 53 23 74 42 82 73 73
200 -17 258 -48 31 -98 38 -145 21z"/>
<path d="M8180 3888 c-59 -30 -93 -93 -87 -157 8 -78 77 -141 154 -141 93 0
153 55 161 145 6 79 -33 139 -107 164 -49 16 -71 14 -121 -11z"/>
<path d="M8894 3886 c-63 -28 -102 -110 -84 -177 38 -138 230 -153 286 -22 54
127 -75 254 -202 199z"/>
<path d="M9605 3880 c-11 -4 -33 -22 -49 -39 -39 -41 -47 -120 -17 -168 42
-67 111 -87 185 -54 107 47 111 202 6 256 -31 16 -93 19 -125 5z"/>
<path d="M10292 3860 c-55 -34 -77 -112 -48 -168 37 -70 109 -98 179 -69 49
21 77 68 77 131 0 43 -4 53 -39 87 -34 35 -44 39 -87 39 -31 0 -61 -7 -82 -20z"/>
<path d="M11036 3870 c-61 -19 -104 -90 -89 -149 33 -139 234 -130 250 11 7
61 -16 104 -70 129 -47 21 -50 21 -91 9z"/>
<path d="M11722 3853 c-41 -20 -62 -59 -62 -114 0 -33 6 -47 34 -75 28 -28 42
-34 75 -34 77 0 131 51 131 122 0 36 -37 88 -75 104 -44 18 -62 17 -103 -3z"/>
<path d="M12428 3844 c-54 -29 -73 -101 -41 -154 46 -79 163 -70 199 15 41 99
-64 191 -158 139z"/>
<path d="M13123 3826 c-39 -33 -49 -73 -29 -119 14 -35 58 -67 91 -67 31 0 82
31 94 56 33 73 -3 142 -80 151 -38 4 -50 1 -76 -21z"/>
<path d="M13825 3815 c-37 -36 -35 -97 5 -137 27 -27 36 -30 72 -25 52 7 78
33 85 85 5 36 2 45 -25 72 -40 40 -101 42 -137 5z"/>
<path d="M14564 3830 c-49 -20 -66 -77 -39 -129 23 -46 83 -56 128 -21 53 42
39 127 -24 149 -37 13 -37 13 -65 1z"/>
<path d="M15248 3800 c-25 -26 -29 -36 -24 -62 9 -47 33 -68 78 -68 51 0 78
27 78 79 0 31 -6 44 -26 60 -37 29 -70 26 -106 -9z"/>
<path d="M15967 3808 c-41 -32 -38 -94 6 -123 70 -45 145 56 84 113 -26 24
-65 28 -90 10z"/>
<path d="M16667 3792 c-35 -39 -6 -112 43 -112 27 0 70 43 70 70 0 50 -79 80
-113 42z"/>
<path d="M6883 3300 c-99 -44 -123 -176 -47 -259 116 -129 328 -16 284 152
-28 105 -135 154 -237 107z"/>
<path d="M7604 3296 c-95 -42 -119 -180 -43 -255 63 -63 152 -65 219 -5 82 74
66 207 -31 256 -40 21 -102 23 -145 4z"/>
<path d="M8355 3298 c-66 -14 -115 -75 -115 -143 0 -152 193 -212 278 -85 20
29 23 45 20 93 -4 48 -9 62 -37 91 -39 40 -90 56 -146 44z"/>
<path d="M9043 3279 c-76 -37 -103 -136 -58 -206 29 -44 74 -65 133 -60 45 3
59 9 89 40 31 30 37 44 40 89 5 68 -20 111 -80 138 -54 25 -72 25 -124 -1z"/>
<path d="M9761 3273 c-51 -25 -73 -67 -68 -131 3 -43 10 -59 34 -84 73 -72
196 -44 224 53 16 50 4 100 -29 131 -55 52 -101 60 -161 31z"/>
<path d="M10472 3260 c-60 -37 -77 -122 -37 -184 9 -14 37 -33 61 -42 41 -16
47 -16 88 0 24 9 52 28 61 42 57 87 -3 204 -105 204 -19 0 -50 -9 -68 -20z"/>
<path d="M11181 3244 c-54 -45 -59 -122 -12 -173 77 -83 208 -26 205 88 -1 38
-6 49 -37 78 -48 43 -110 46 -156 7z"/>
<path d="M11934 3256 c-51 -22 -77 -64 -71 -114 6 -52 37 -89 84 -98 45 -8 80
2 108 32 79 85 -14 225 -121 180z"/>
<path d="M12642 3245 c-39 -17 -65 -69 -56 -115 9 -44 56 -80 106 -80 112 0
138 160 31 201 -32 12 -41 11 -81 -6z"/>
<path d="M13364 3241 c-65 -28 -72 -139 -10 -170 72 -36 146 4 146 80 0 69
-73 117 -136 90z"/>
<path d="M14067 3220 c-50 -39 -42 -117 15 -146 38 -20 82 -10 108 23 64 82
-41 187 -123 123z"/>
<path d="M14782 3207 c-30 -32 -29 -81 3 -112 67 -68 175 26 118 103 -28 38
-90 42 -121 9z"/>
<path d="M15518 3215 c-78 -43 -14 -164 68 -126 58 26 52 109 -8 130 -17 6
-31 11 -32 11 -1 -1 -13 -7 -28 -15z"/>
<path d="M16232 3204 c-46 -32 -18 -114 39 -114 61 0 87 73 40 112 -28 22 -50
23 -79 2z"/>
<path d="M6355 2715 c-79 -28 -126 -108 -111 -187 19 -103 127 -164 223 -127
44 16 90 67 103 113 36 129 -90 247 -215 201z"/>
<path d="M7060 2698 c-91 -47 -116 -167 -49 -242 38 -44 78 -60 138 -54 188
18 189 290 1 314 -35 4 -55 0 -90 -18z"/>
<path d="M7794 2696 c-108 -47 -117 -205 -16 -267 92 -58 217 3 229 113 13
116 -105 201 -213 154z"/>
<path d="M8511 2682 c-63 -34 -90 -126 -56 -192 54 -104 204 -101 255 6 62
128 -73 254 -199 186z"/>
<path d="M9232 2670 c-19 -12 -40 -37 -49 -57 -48 -115 65 -228 180 -180 54
23 79 69 74 136 -3 47 -9 59 -40 88 -31 28 -44 33 -84 33 -30 0 -60 -7 -81
-20z"/>
<path d="M9984 2676 c-95 -42 -108 -173 -22 -226 62 -38 134 -22 175 39 69
103 -41 237 -153 187z"/>
<path d="M10703 2665 c-72 -31 -87 -133 -29 -191 28 -28 42 -34 76 -34 136 0
177 175 54 226 -41 17 -60 17 -101 -1z"/>
<path d="M11434 2661 c-35 -15 -64 -60 -64 -100 0 -80 67 -131 145 -110 112
31 96 202 -20 214 -22 3 -50 1 -61 -4z"/>
<path d="M12149 2645 c-56 -30 -62 -119 -13 -166 19 -18 37 -24 71 -24 38 0
49 5 74 33 81 90 -24 216 -132 157z"/>
<path d="M12867 2630 c-67 -53 -23 -170 64 -170 59 0 108 65 93 124 -15 61
-105 87 -157 46z"/>
<path d="M13630 2643 c-62 -23 -81 -103 -35 -148 55 -56 145 -16 145 63 0 57
-61 104 -110 85z"/>
<path d="M14343 2630 c-27 -11 -43 -40 -43 -78 0 -67 97 -99 139 -46 54 69
-15 158 -96 124z"/>
<path d="M15055 2605 c-40 -39 -29 -97 22 -116 48 -18 103 23 103 77 0 24 -47
64 -75 64 -14 0 -37 -11 -50 -25z"/>
<path d="M15787 2608 c-9 -7 -19 -25 -22 -40 -5 -21 -1 -33 19 -52 29 -30 52
-33 84 -10 28 19 30 74 4 97 -22 20 -62 22 -85 5z"/>
<path d="M5902 2113 c-99 -48 -122 -179 -46 -262 88 -98 249 -60 283 67 37
137 -110 258 -237 195z"/>
<path d="M6620 2098 c-57 -39 -75 -72 -75 -137 0 -73 33 -121 99 -146 141 -54
268 98 193 229 -42 74 -149 100 -217 54z"/>
<path d="M7377 2106 c-51 -19 -73 -40 -93 -92 -21 -56 -12 -104 27 -149 60
-68 155 -71 220 -7 51 51 59 105 27 170 -36 72 -109 104 -181 78z"/>
<path d="M8095 2096 c-77 -34 -109 -116 -76 -191 63 -142 271 -96 271 60 0 44
-27 96 -62 119 -34 22 -98 28 -133 12z"/>
<path d="M8813 2085 c-45 -19 -73 -69 -73 -129 0 -43 4 -53 39 -87 34 -35 44
-39 87 -39 62 0 110 28 131 77 48 116 -68 229 -184 178z"/>
<path d="M9544 2080 c-11 -4 -33 -22 -47 -40 -54 -64 -23 -171 57 -198 115
-38 208 78 150 189 -24 47 -105 72 -160 49z"/>
<path d="M10263 2070 c-32 -13 -63 -68 -63 -113 0 -29 8 -46 34 -75 31 -33 39
-37 85 -37 43 0 55 5 82 31 97 98 -8 246 -138 194z"/>
<path d="M11005 2066 c-65 -29 -91 -96 -61 -154 43 -84 161 -81 201 5 16 33
16 41 4 77 -23 65 -87 98 -144 72z"/>
<path d="M11723 2056 c-17 -8 -39 -29 -48 -46 -53 -103 84 -202 166 -121 80
81 -14 213 -118 167z"/>
<path d="M12436 2039 c-38 -30 -49 -64 -36 -105 14 -43 44 -64 91 -64 45 0 85
30 94 71 19 87 -80 152 -149 98z"/>
<path d="M13155 2025 c-35 -34 -34 -93 0 -125 56 -53 145 -15 145 62 0 52 -35
88 -85 88 -25 0 -44 -8 -60 -25z"/>
<path d="M13882 2017 c-42 -44 -21 -119 37 -132 73 -16 128 64 84 123 -28 38
-90 42 -121 9z"/>
<path d="M14633 2030 c-46 -19 -57 -83 -20 -118 46 -44 120 -15 120 47 0 52
-53 90 -100 71z"/>
<path d="M15345 2005 c-44 -43 -21 -105 39 -105 60 0 88 68 46 110 -27 27 -56
25 -85 -5z"/>
<path d="M5585 1525 c-51 -18 -102 -73 -111 -119 -14 -79 22 -156 89 -186 54
-25 100 -25 151 0 137 67 116 269 -32 310 -46 12 -48 12 -97 -5z"/>
<path d="M6283 1509 c-106 -52 -118 -200 -21 -272 38 -29 123 -34 167 -10 119
62 109 237 -15 289 -46 19 -82 17 -131 -7z"/>
<path d="M7000 1501 c-48 -26 -72 -62 -78 -119 -13 -145 157 -222 259 -116 28
29 33 43 37 91 3 48 0 64 -20 93 -44 66 -130 88 -198 51z"/>
<path d="M7713 1491 c-67 -42 -87 -111 -54 -185 16 -38 29 -50 67 -67 30 -14
57 -19 78 -15 128 24 168 165 72 255 -36 34 -118 40 -163 12z"/>
<path d="M8414 1468 c-57 -54 -61 -140 -8 -199 47 -52 149 -46 198 11 77 92
16 220 -106 220 -41 0 -54 -5 -84 -32z"/>
<path d="M9185 1493 c-131 -35 -121 -232 13 -250 75 -10 133 32 146 107 15 83
-77 165 -159 143z"/>
<path d="M9883 1475 c-59 -25 -87 -98 -59 -157 21 -43 63 -68 116 -68 34 0 48
6 76 34 28 28 34 42 34 75 0 57 -24 100 -65 117 -42 17 -61 17 -102 -1z"/>
<path d="M10604 1471 c-61 -26 -85 -122 -44 -174 22 -28 80 -49 108 -40 64 20
92 56 92 117 0 71 -88 126 -156 97z"/>
<path d="M11309 1455 c-54 -29 -63 -119 -15 -164 80 -75 209 16 166 119 -22
54 -95 76 -151 45z"/>
<path d="M12023 1445 c-29 -20 -46 -75 -34 -107 13 -33 58 -68 88 -68 91 0
135 115 66 170 -31 24 -90 26 -120 5z"/>
<path d="M12764 1450 c-86 -34 -62 -170 29 -170 92 0 127 124 46 165 -31 17
-44 18 -75 5z"/>
<path d="M13474 1438 c-47 -22 -56 -86 -19 -123 51 -52 135 -18 135 54 0 60
-60 96 -116 69z"/>
<path d="M14179 1422 c-29 -24 -30 -75 -1 -104 29 -29 80 -28 104 1 56 70 -33
159 -103 103z"/>
<path d="M14897 1412 c-34 -38 -15 -95 35 -107 21 -5 33 -1 52 19 30 29 33 52
10 84 -19 28 -74 30 -97 4z"/>
<path d="M5325 917 c-99 -55 -112 -197 -26 -270 96 -80 239 -37 271 82 38 143
-115 261 -245 188z"/>
<path d="M6032 913 c-88 -43 -109 -170 -42 -247 82 -92 235 -58 270 61 31 104
-44 203 -152 203 -24 0 -58 -8 -76 -17z"/>
<path d="M6755 915 c-99 -35 -131 -154 -63 -240 63 -80 201 -67 247 24 48 92
4 193 -94 220 -48 13 -41 13 -90 -4z"/>
<path d="M7442 901 c-80 -38 -104 -151 -46 -220 54 -65 151 -68 212 -8 30 30
36 44 39 89 3 41 -1 60 -16 85 -41 66 -116 87 -189 54z"/>
<path d="M8141 892 c-88 -47 -93 -180 -9 -232 50 -32 129 -24 170 18 42 41 50
120 18 170 -36 58 -116 78 -179 44z"/>
<path d="M8844 884 c-94 -46 -81 -198 20 -232 116 -38 208 78 150 190 -28 54
-107 73 -170 42z"/>
<path d="M9531 865 c-88 -75 -40 -210 74 -210 55 0 96 29 113 80 26 77 -31
155 -113 155 -32 0 -51 -7 -74 -25z"/>
<path d="M10270 879 c-66 -27 -93 -88 -67 -152 17 -39 60 -67 102 -67 42 0 85
28 102 67 27 65 -1 126 -70 152 -33 13 -34 13 -67 0z"/>
<path d="M10964 871 c-32 -14 -64 -60 -64 -93 0 -61 45 -108 105 -108 92 0
138 116 71 179 -26 25 -80 35 -112 22z"/>
<path d="M11640 842 c-39 -40 -42 -96 -5 -136 19 -21 33 -26 69 -26 38 0 48 5
71 32 23 27 26 39 22 71 -7 51 -33 77 -85 84 -36 5 -45 2 -72 -25z"/>
<path d="M12347 840 c-53 -42 -38 -128 26 -149 62 -21 117 20 117 87 0 70 -85
107 -143 62z"/>
<path d="M13041 824 c-24 -30 -26 -52 -10 -88 23 -50 103 -57 134 -13 21 31
19 83 -5 107 -31 31 -93 27 -119 -6z"/>
<path d="M13773 840 c-48 -20 -58 -87 -17 -119 78 -62 165 41 90 106 -29 25
-39 27 -73 13z"/>
<path d="M14462 824 c-15 -10 -22 -25 -22 -48 0 -80 107 -92 125 -14 5 21 1
33 -19 52 -29 30 -52 33 -84 10z"/>
<path d="M5245 335 c-117 -42 -147 -186 -56 -276 127 -127 338 19 267 184 -17
41 -62 81 -105 96 -43 14 -56 13 -106 -4z"/>
<path d="M5914 326 c-123 -54 -131 -224 -14 -288 45 -25 129 -20 168 9 97 72
84 226 -22 274 -48 22 -89 23 -132 5z"/>
<path d="M6580 313 c-19 -10 -45 -34 -58 -53 -20 -29 -23 -44 -20 -93 4 -51 9
-63 41 -94 32 -32 43 -37 94 -40 68 -5 111 16 143 69 38 62 18 158 -42 201
-38 28 -114 33 -158 10z"/>
<path d="M7251 302 c-67 -36 -91 -133 -51 -200 26 -43 98 -76 143 -67 53 12
86 37 108 83 62 126 -75 251 -200 184z"/>
<path d="M7960 308 c-126 -35 -134 -203 -13 -254 42 -18 67 -18 110 3 52 24
75 67 70 131 -7 91 -80 144 -167 120z"/>
<path d="M8633 303 c-13 -2 -36 -18 -53 -34 -106 -106 30 -277 158 -199 34 21
62 71 62 111 0 32 -29 86 -54 103 -26 17 -80 26 -113 19z"/>
<path d="M9282 280 c-40 -25 -66 -81 -57 -126 3 -20 20 -45 41 -63 28 -25 44
-31 80 -31 39 0 51 5 80 34 19 19 34 45 35 58 4 75 -15 112 -66 134 -47 19
-74 18 -113 -6z"/>
<path d="M9962 277 c-70 -40 -76 -145 -11 -191 39 -27 103 -21 141 13 29 26
33 35 33 80 0 41 -5 55 -26 77 -31 31 -101 42 -137 21z"/>
<path d="M10619 251 c-58 -58 -29 -159 51 -176 44 -10 98 18 115 59 45 106
-85 197 -166 117z"/>
<path d="M11335 269 c-65 -18 -87 -102 -41 -156 35 -40 107 -40 142 0 64 74
-6 182 -101 156z"/>
<path d="M12004 260 c-28 -11 -54 -48 -54 -77 0 -77 83 -120 143 -73 49 39 42
116 -14 145 -31 17 -44 18 -75 5z"/>
<path d="M12672 250 c-45 -18 -55 -88 -17 -125 51 -52 135 -18 135 54 0 60
-57 95 -118 71z"/>
<path d="M13331 224 c-24 -31 -26 -43 -10 -78 27 -58 120 -48 134 14 16 73
-78 122 -124 64z"/>
<path d="M14017 228 c-9 -7 -19 -25 -22 -40 -5 -21 -1 -33 19 -52 29 -30 52
-33 84 -10 28 19 30 74 4 97 -22 20 -62 22 -85 5z"/>
</g>
</svg>
