<svg xmlns="http://www.w3.org/2000/svg" viewBox="0 0 80.47 22.47"><defs><style>.cls-1{fill:#8f8fa3;}</style></defs><g id="Capa_2" data-name="Capa 2"><g id="Figuras"><path class="cls-1" d="M24.93,0V11.14c-.12-.1-.18-.13-.2-.17A4.76,4.76,0,0,0,21.8,8.52C21,8.22,20.11,8,19.28,7.7a4.91,4.91,0,0,1-.89-.44A1.27,1.27,0,0,1,18.52,5a3,3,0,0,1,2.15-.18,5.25,5.25,0,0,1,1.74.82,2.75,2.75,0,0,0,.24.15l1.72-3.31A4.93,4.93,0,0,0,23,1.83a10.83,10.83,0,0,0-4.33-.74A5.62,5.62,0,0,0,14.54,3a5.3,5.3,0,0,0-1.33,3.19,5.8,5.8,0,0,0,.31,2.67A3.15,3.15,0,0,0,15,10.5a17.29,17.29,0,0,0,2,.84c.54.2,1.1.32,1.65.49a4.43,4.43,0,0,1,1.43.74,1.53,1.53,0,0,1-.16,2.32,3,3,0,0,1-2.15.43,6.41,6.41,0,0,1-3.07-1.44l-.29-.23c-.66,1.14-1.24,2.29-1.86,3.46a8.46,8.46,0,0,0,1.78,1,10.35,10.35,0,0,0,3.12.86,8,8,0,0,0,5.47-1.22,4.68,4.68,0,0,0,1.79-2.32,1.19,1.19,0,0,1,.08-.2s0,0,.07-.06a.7.7,0,0,1,.08.23c0,1.38,0,2.76,0,4.15,0,.07,0,.14,0,.19s0,.05-.06.06l0,0a1.81,1.81,0,0,1-.23,0H.21A.85.85,0,0,1,0,19.82c0-.17,0-.36,0-.55V7.81C0,5.21,0,2.6,0,0Z"/><path class="cls-1" d="M54.77,10.84c.06-.34.26-.4.53-.39.62,0,1.23,0,1.89,0a2.14,2.14,0,0,1,.06.41c0,2.13,0,4.27,0,6.41a6.35,6.35,0,0,1-.65,2.92,3.87,3.87,0,0,1-3.07,2.24c-.43.06-.5,0-.57-.4s-.16-1.09-.24-1.65c.33-.11.61-.18.89-.29a1.74,1.74,0,0,0,1.15-1.57c-.07,0-.13,0-.17,0a2.06,2.06,0,0,1-1.28.33,5.53,5.53,0,0,1-2.21-.33,2.8,2.8,0,0,1-1.41-1.28,4,4,0,0,1-.51-1.53,5.23,5.23,0,0,1,.37-3.26,3.76,3.76,0,0,1,3.33-2A3.43,3.43,0,0,1,54.77,10.84Zm.08,3.87h0c0-.31,0-.63,0-.94a1,1,0,0,0-.36-.75,1.63,1.63,0,0,0-2.11-.11A1.45,1.45,0,0,0,51.59,14a3.83,3.83,0,0,0,.08,1.65,1.44,1.44,0,0,0,1.19,1.1,2,2,0,0,0,1.71-.53.76.76,0,0,0,.28-.67C54.83,15.28,54.85,15,54.85,14.71Z"/><path class="cls-1" d="M78.06,13.27a1,1,0,0,0-.78-1.16,2.86,2.86,0,0,0-2.62.45l-.84-1.5a3.14,3.14,0,0,1,.57-.4,7.24,7.24,0,0,1,1.53-.51,4.44,4.44,0,0,1,3.48.73,2.36,2.36,0,0,1,1,1.91c0,1.94,0,3.88,0,5.82a1.32,1.32,0,0,1,0,.24H78.19l-.11-.32-1.67.39a3.83,3.83,0,0,1-1.78-.11,2.62,2.62,0,0,1-1.87-2.27A3.85,3.85,0,0,1,72.89,15a2.59,2.59,0,0,1,1.66-1.72,4.44,4.44,0,0,1,3.13-.1Zm0,2.57c0-.11,0-.21,0-.32a.44.44,0,0,0-.27-.47,2.5,2.5,0,0,0-2.26.07.91.91,0,0,0-.44,1,.82.82,0,0,0,.65.67,1.37,1.37,0,0,0,.35.08,3.31,3.31,0,0,0,1.67-.27.42.42,0,0,0,.3-.45C78.1,16.05,78.11,15.94,78.11,15.84Z"/><path class="cls-1" d="M48.09,15.79H42.23a1.32,1.32,0,0,0,1,1.07,2.08,2.08,0,0,0,2.42-.45l1.65,1.22a2.74,2.74,0,0,1-1.2,1,4.42,4.42,0,0,1-4,.06A3.65,3.65,0,0,1,40,16.07a5.49,5.49,0,0,1,.42-3.9,3.61,3.61,0,0,1,2.14-1.76,5.4,5.4,0,0,1,2.36-.18A3.56,3.56,0,0,1,47.41,12,6.69,6.69,0,0,1,48.09,15.79Zm-2.31-1.93a1.58,1.58,0,0,0-.78-1.4,1.78,1.78,0,0,0-2,.06,1.59,1.59,0,0,0-.77,1.34Z"/><path class="cls-1" d="M63.91,10.41c.78,0,1.5,0,2.22,0,.1.35.14,7.74.05,8.4a7.94,7.94,0,0,1-2.24,0l-.07-.5-.39.22a3.63,3.63,0,0,1-3.81,0,2.46,2.46,0,0,1-1.14-1.72,4.36,4.36,0,0,1-.1-1c0-1.58,0-3.16,0-4.74v-.36c0-.18.08-.29.26-.29h2.07c0,.21,0,.37,0,.52,0,1.36,0,2.71,0,4.06a3.53,3.53,0,0,0,.08.72,1.39,1.39,0,0,0,2.14.92A1.61,1.61,0,0,0,63.9,15c0-1.35,0-2.71,0-4.06Z"/><path class="cls-1" d="M31.75,18.22l.77-1.79.32.11a5.07,5.07,0,0,0,2.36.5,2.2,2.2,0,0,0,.91-.21.44.44,0,0,0,0-.83,3.8,3.8,0,0,0-.76-.27c-.66-.2-1.34-.35-2-.59a2.44,2.44,0,0,1-.08-4.56,5.87,5.87,0,0,1,4.82,0c.1,0,.18.1.28.15l.14.12-.71,2c-.22-.11-.4-.19-.56-.28A4,4,0,0,0,35,12.2a.87.87,0,0,0-.45.16.44.44,0,0,0,.09.75c.41.17.85.28,1.28.42a12.86,12.86,0,0,1,1.62.55,2.53,2.53,0,0,1,.52,4.16,3.84,3.84,0,0,1-1.78.73,7.57,7.57,0,0,1-4.35-.62A.91.91,0,0,1,31.75,18.22Z"/><path class="cls-1" d="M67.74,10.47H69.9l.13.41A2.53,2.53,0,0,1,73,10.57a19.58,19.58,0,0,1-.77,2.27,2.92,2.92,0,0,1-.32-.11A1.34,1.34,0,0,0,70,14c0,1.25,0,2.5,0,3.75,0,.28,0,.57,0,.85s0,.38-.36.38H68.07a.29.29,0,0,1-.33-.33V10.47Z"/><path class="cls-1" d="M38.09,2.24h-.9A.3.3,0,0,1,37,2.12a1.34,1.34,0,0,0-1.21-.73A2.5,2.5,0,0,0,33.59,2,2,2,0,0,0,33,3.58a3.88,3.88,0,0,0,.17,1,1.62,1.62,0,0,0,1,1.07,5.22,5.22,0,0,0,2.8.08,2,2,0,0,0,0-.29c0-.41,0-.81,0-1.28H35.45V3.46c.86-.07,1.72,0,2.64,0,0,1,0,1.88,0,2.85a10,10,0,0,1-1.37.27,8.13,8.13,0,0,1-2.56-.06A2.7,2.7,0,0,1,32,4.59a3,3,0,0,1,2-3.78,4.77,4.77,0,0,1,3,.12A1.47,1.47,0,0,1,38.09,2.24Z"/><path class="cls-1" d="M77.19,6.59a3.6,3.6,0,0,1-1.77-.29,2.51,2.51,0,0,1-1.51-1.94,4.35,4.35,0,0,1,0-1.44A2.6,2.6,0,0,1,76,.77a4.34,4.34,0,0,1,2.57.08,2.67,2.67,0,0,1,1.91,2.48,2.89,2.89,0,0,1-.79,2.4,3,3,0,0,1-1.89.86A5.59,5.59,0,0,1,77.19,6.59Zm-.06-.68v0h.41A1.71,1.71,0,0,0,79.14,4.8,3,3,0,0,0,79,2.23a1.44,1.44,0,0,0-.86-.69,3.08,3.08,0,0,0-1.78-.09A1.67,1.67,0,0,0,75,2.77a3.83,3.83,0,0,0,0,1.65,1.59,1.59,0,0,0,1.19,1.34A7.34,7.34,0,0,0,77.13,5.91Z"/><path class="cls-1" d="M43.39.76l.37,0c.72,0,1.45,0,2.17,0A8.09,8.09,0,0,1,47.39,1a1.59,1.59,0,0,1,.61.36,1.21,1.21,0,0,1-.14,1.91c-.18.12-.37.22-.6.36.64.2.79.7.89,1.26s.24,1,.36,1.6H47.43c-.09-.47-.19-1-.29-1.43A3.3,3.3,0,0,0,47,4.48.75.75,0,0,0,46.33,4c-.54-.05-1.08-.07-1.62-.08-.32,0-.35,0-.36.37V6.47h-.93A51.26,51.26,0,0,1,43.39.76Zm1,2.41h1.47c.21,0,.42,0,.63,0A1.6,1.6,0,0,0,46.87,3a.74.74,0,0,0,.38-.91.78.78,0,0,0-.67-.52,7.65,7.65,0,0,0-2-.11c-.16,0-.26.08-.26.24Z"/><path class="cls-1" d="M59.39.73c0,.21,0,.36,0,.5V4.3a2.07,2.07,0,0,1-1.55,2.13,4.69,4.69,0,0,1-2.75,0,2,2,0,0,1-1.56-2c0-1.1,0-2.2,0-3.29,0-.33,0-.38.35-.39.8,0,.72,0,.72.66V4.28a1.48,1.48,0,0,0,1.53,1.59,2.93,2.93,0,0,0,1.28-.14,1.34,1.34,0,0,0,.9-1.32V1.34c0-.1,0-.21,0-.31s.11-.3.31-.3Z"/><path class="cls-1" d="M65.73,4V6.47h-.91a50.89,50.89,0,0,1,0-5.7c.12,0,.25,0,.37,0,.74,0,1.48,0,2.21,0a3.19,3.19,0,0,1,1.57.35,1.33,1.33,0,0,1,.71,1.3,1.29,1.29,0,0,1-.7,1.21A3.31,3.31,0,0,1,67.47,4H66.25Zm0-.77h2a.8.8,0,0,0,.3-.09.77.77,0,0,0,.5-.87.79.79,0,0,0-.61-.7,7.77,7.77,0,0,0-2.16-.08Z"/></g></g></svg>