<svg xmlns="http://www.w3.org/2000/svg" viewBox="0 0 103.41 23.6"><defs><style>.cls-1{fill:#3c3c3b;}</style></defs><g id="Capa_2" data-name="Capa 2"><g id="Figuras"><path class="cls-1" d="M17.09,16.25H9.77s-1.64,0,0-1.61c.47-.46,1.25-1.28,2.15-2.21.91,1,1.73,1.8,2.2,2.28a23.9,23.9,0,0,0,2,1.39c.83-.54-.38-2-.38-2L13,11.24c2-2.08,4-4.25,4.1-4.34h0c.13-.14,1.49-1.65-.76-1.64l-2.07.1H7.92C5.57,5.35,6.75,7,6.75,7s2.08,2.22,4.1,4.35c-2.11,2.32-4.36,4.82-4.36,4.82s-1.79,2.36,0,2.23l10.6-.74C18,17.62,18.31,16.25,17.09,16.25ZM9.47,7.46C9,6.93,10,6.9,10,6.9h4.26c.23.07.42.21.13.49S13.21,8.7,12,10.08C10.76,8.81,9.69,7.67,9.47,7.46Z"/><path class="cls-1" d="M11.8,23.6A11.8,11.8,0,1,1,23.6,11.8,11.82,11.82,0,0,1,11.8,23.6Zm0-22A10.16,10.16,0,1,0,22,11.8,10.17,10.17,0,0,0,11.8,1.64Z"/><path class="cls-1" d="M36.41,16.5H29.08V15.33l5.76-7.12H29.3V7.1h7V8.23l-5.81,7.16h5.95Z"/><path class="cls-1" d="M47.17,16.5H41V7.1h6.19V8.21H42.23v2.58h4.94V11.9H42.23v3.49h4.94Z"/><path class="cls-1" d="M57.68,16.5H51.74V7.1H53v8.29h4.69Z"/><path class="cls-1" d="M67.7,16.5H61.51V7.1H67.7V8.21H62.76v2.58H67.7V11.9H62.76v3.49H67.7Z"/><path class="cls-1" d="M80,16.5H78.42l-3.14-3.74H73.52V16.5H72.27V7.1H74.9a8,8,0,0,1,1.42.11,3.06,3.06,0,0,1,1,.4,2.3,2.3,0,0,1,.8.81,2.42,2.42,0,0,1,.28,1.24,2.79,2.79,0,0,1-.51,1.7,3.15,3.15,0,0,1-1.4,1ZM77.12,9.75A1.81,1.81,0,0,0,77,9a1.31,1.31,0,0,0-.47-.53,1.8,1.8,0,0,0-.65-.25A4.37,4.37,0,0,0,75,8.17H73.52v3.55h1.26a4.49,4.49,0,0,0,1-.1,1.59,1.59,0,0,0,.75-.39,1.67,1.67,0,0,0,.42-.61A2.4,2.4,0,0,0,77.12,9.75Z"/><path class="cls-1" d="M90.84,8.18a4.42,4.42,0,0,1,.88,1.55A6.63,6.63,0,0,1,92,11.8a6.36,6.36,0,0,1-.31,2.08,4.38,4.38,0,0,1-.87,1.53,3.83,3.83,0,0,1-1.37,1,4.87,4.87,0,0,1-1.81.32,4.73,4.73,0,0,1-1.8-.33,3.71,3.71,0,0,1-1.38-.95,4.42,4.42,0,0,1-.88-1.53,6.65,6.65,0,0,1-.3-2.08,6.61,6.61,0,0,1,.3-2.06,4.4,4.4,0,0,1,.88-1.56,3.67,3.67,0,0,1,1.38-.95,5,5,0,0,1,1.8-.32,4.71,4.71,0,0,1,1.81.33A3.77,3.77,0,0,1,90.84,8.18Zm-.12,3.62A4.29,4.29,0,0,0,89.9,9a3,3,0,0,0-4.48,0,4.29,4.29,0,0,0-.82,2.82,4.28,4.28,0,0,0,.83,2.83,3,3,0,0,0,4.46,0A4.23,4.23,0,0,0,90.72,11.8Z"/><path class="cls-1" d="M103.41,13.81a2.51,2.51,0,0,1-.25,1.09,2.55,2.55,0,0,1-.72.91,3.76,3.76,0,0,1-1.17.63,5.14,5.14,0,0,1-1.62.23,8.43,8.43,0,0,1-1.83-.19,9.52,9.52,0,0,1-1.65-.57V14.35h.09a5.21,5.21,0,0,0,1.65.92,5.46,5.46,0,0,0,1.75.32,3.23,3.23,0,0,0,1.81-.44,1.34,1.34,0,0,0,.64-1.16,1.24,1.24,0,0,0-.3-.92,2.13,2.13,0,0,0-.93-.46c-.32-.08-.66-.15-1-.21s-.76-.12-1.17-.21a3.46,3.46,0,0,1-1.85-.9,2.36,2.36,0,0,1-.6-1.67,2.3,2.3,0,0,1,1-1.93,4,4,0,0,1,2.53-.76,7.86,7.86,0,0,1,1.81.19,8.47,8.47,0,0,1,1.47.47V9.06H103a4.45,4.45,0,0,0-1.41-.75A5.51,5.51,0,0,0,99.75,8a2.77,2.77,0,0,0-1.61.42,1.23,1.23,0,0,0-.61,1.07,1.32,1.32,0,0,0,.3.92,2.09,2.09,0,0,0,1.07.51l1.15.22c.49.08.91.17,1.26.25a3.3,3.3,0,0,1,1.57.84A2.18,2.18,0,0,1,103.41,13.81Z"/></g></g></svg>