<svg id="Logos_Patrocinadores" data-name="Logos Patrocinadores" xmlns="http://www.w3.org/2000/svg" viewBox="0 0 1500 600"><defs><style>.cls-1{fill:#7a97ab;}</style></defs><path class="cls-1" d="M513.93,362.11c2.06,5,4,10.31,6.32,15.38,9.75,21.21,21.8,41,37.15,58.63a207.78,207.78,0,0,0,49.45,42,219.76,219.76,0,0,0,44.88,20.55,205.87,205.87,0,0,0,40.88,8.59,194.3,194.3,0,0,0,39.39.62A209.47,209.47,0,0,0,910.3,373c4.66-12.17,7.58-24.84,9.87-37.66a207.06,207.06,0,0,0-8.8-104.2A200.88,200.88,0,0,0,890,187.73a210.88,210.88,0,0,0-33.6-40,214.68,214.68,0,0,0-40.69-29.42c-17.89-10-37-16.73-56.87-21.29-17-3.9-34.26-4.82-51.65-4.32a192.19,192.19,0,0,0-43.4,6.14,210.68,210.68,0,0,0-57.31,24.1,215.65,215.65,0,0,0-39.33,31.25C556,165.22,546.78,177.76,538,190.75c-6.74,10-13.45,20-18,31.24-2,5-3.86,10.07-5.42,14.19C533.85,152.34,619,58.72,744.27,55.57c134.84-3.39,238.87,100,250.11,220.72,6.17,66.36-11.52,126.08-53.31,177.9-41.17,51.05-94.91,81.46-160.06,89.2C642.23,559.88,537.76,463.9,513.93,362.11Z"/><path class="cls-1" d="M765.83,312.65v33.4H747.15v-95.8h19.4l11.53,35.13.42-.05V250.27h19.17v95.86c-.75,0-1.48.09-2.21.09-5.42,0-10.83-.08-16.24.06-1.79,0-2.46-.6-3-2.22-3-9.81-6.12-19.59-9.2-29.37-.22-.71-.5-1.39-.76-2.08Z"/><path class="cls-1" d="M707.69,300.63c3.51,2,3.82,4.81,3.79,8-.12,11.58-.05,23.16-.05,34.75v2.36H692.26v-33c0-.61,0-1.24,0-1.85-.43-4.06-3.14-5.88-7-4.55-.45.15-.8,1.29-.8,2-.05,10.07,0,20.15,0,30.23v7.52H663.62V250.25c.53-.05,1.06-.14,1.58-.14,11.18,0,22.35-.11,33.52,0,5.43.07,9.92,2.12,11.87,7.71a14,14,0,0,1,.81,4.38c.06,11,.09,21.93,0,32.9,0,1.25-1,2.54-1.64,3.71C709.36,299.46,708.61,299.85,707.69,300.63ZM684.2,277.79c0,3.91,0,7.81,0,11.72a2.12,2.12,0,0,0,.75,1.62,5,5,0,0,0,7.27-4.79c0-5.62-.17-11.25.07-16.86.16-3.92-2.56-5.82-5.92-5.54-1.55.13-2.3.57-2.24,2.34C684.29,270.11,684.2,274,684.2,277.79Z"/><path class="cls-1" d="M804.57,297.75c0-11.93-.1-23.86,0-35.78.08-7.71,4.21-10.66,10.65-11.79,1.22-.22,2.56.28,3.85.29,7.74,0,15.5.24,23.23-.07,4.93-.2,11.22,6.41,11.19,11.19-.16,24-.06,48-.08,72a13.82,13.82,0,0,1-8.5,12.26,6.94,6.94,0,0,1-2.4.38q-13.06,0-26.12,0c-6.1,0-11.84-5.78-11.85-11.88Q804.55,316.06,804.57,297.75Zm28.26.4c0-9.46,0-18.91,0-28.36a17.23,17.23,0,0,0-.41-3.65,3.52,3.52,0,0,0-3.56-2.82,3.37,3.37,0,0,0-3.56,2.51,10.68,10.68,0,0,0-.61,3.6q0,28.26,0,56.52a13.65,13.65,0,0,0,0,1.43c.36,3.16,1.59,4.53,4.12,4.62,2.84.1,4-1.28,4-4.87C832.85,317.47,832.83,307.81,832.83,298.15Z"/><path class="cls-1" d="M597.13,308.17h19.64c0,.57.09,1,.09,1.5,0,8.7.07,17.4,0,26.1-.05,3.69-.92,7.23-4.58,9a13.58,13.58,0,0,1-5.7,1.37c-9.59.14-19.18.11-28.77.06-4,0-8-3.83-8.85-8.16a21.88,21.88,0,0,1-.36-3.88c0-24.25.07-48.51-.08-72.76,0-6.19,4.56-10.11,9.3-11.12,1.15-.24,2.42.16,3.63.17h26.72c5.24,0,8.72,3.48,8.72,8.7v24.74H596.55c0-.7-.09-1.41-.09-2.13,0-4.87-.1-9.73,0-14.59,0-1.93-.9-3.25-3.6-3.57-2.46-.29-3.85.87-4.11,3.21a18.83,18.83,0,0,0-.07,2.26V326c0,.68,0,1.37,0,2.05.26,3,1.54,4.39,4.06,4.32,2.79-.08,4.28-1.66,4.3-4.67,0-5.34,0-10.69,0-16Z"/><path class="cls-1" d="M545.71,326.89c-3,0-5.83-.08-8.68.08-.43,0-1,1.08-1.16,1.74-.91,5.25-1.71,10.53-2.57,15.79a15.58,15.58,0,0,1-.45,1.63H515.42q6.72-48.08,13.4-95.95h24.83q6.06,47.86,12.16,95.91H548.56Zm-1.52-14.31c-.92-7.83-1.82-15.43-2.71-23l-.55,0c-1.28,7.61-2.56,15.23-3.87,23Z"/><path class="cls-1" d="M885.64,250.18h16.62c-1.14,6.42-2.25,12.73-3.38,19-1.56,8.75-3.45,17.46-4.58,26.26-.46,3.54.57,7.31,1.2,10.92,2.19,12.6,4.5,25.18,6.75,37.77.11.6.1,1.21.16,1.94H886l-5.79-30.59-.44-.07c-.41,1.86-.85,3.71-1.24,5.57-1.65,7.9-3.28,15.8-5,23.69-.11.55-.67,1.43-1,1.43-5.32.09-10.65.07-16.19.07.81-4.84,1.58-9.42,2.36-14,2-11.53,4.12-23,5.77-34.6.42-2.92-.65-6.08-1.19-9.09-2.23-12.39-4.51-24.77-6.76-37.15a8.45,8.45,0,0,1,0-1.27h12.72c4.35,0,4.33,0,5.24,4.2q2.43,11.34,4.9,22.66A21.54,21.54,0,0,0,880,279Z"/><path class="cls-1" d="M644.78,263c0,7.92,0,15.45,0,23,0,1.3.68,1.43,1.69,1.42,3.48,0,7,0,10.6,0v12.71H644.94v32.93h12.14V346.1h-33V250.23h33V263Z"/><path class="cls-1" d="M739.38,250.22v96.27H718.32V250.22Z"/><path class="cls-1" d="M544.19,312.58h-7.13c1.31-7.76,2.59-15.38,3.87-23l.55,0C542.37,297.15,543.27,304.75,544.19,312.58Z"/></svg>