<svg id="Logos_Patrocinadores" data-name="Logos Patrocinadores" xmlns="http://www.w3.org/2000/svg" viewBox="0 0 1500 600"><defs><style>.cls-1{fill:#7a97ab;}</style></defs><path class="cls-1" d="M434.24,379.36c1.42-3.82,2.83-7.6,4.24-11.37q7-18.83,14.1-37.64,7.89-20.94,15.79-41.88,9.42-25.08,18.78-50.18c.77-2,1.6-4.09,2.32-6.16.2-.54.42-.73.95-.68.22,0,.45,0,.67,0,15,0,30,0,45,0a1.66,1.66,0,0,1,1.88,1.33c2.74,7.47,5.58,14.9,8.37,22.35q9.55,25.48,19.1,51,6.26,16.65,12.54,33.27c2.58,6.85,5.12,13.72,7.69,20.58,1.45,3.88,2.92,7.75,4.64,11.62V233c0-1.76-.25-1.52,1.47-1.52h27.68q12.16,0,24.32,0a1.48,1.48,0,0,1,1.7,1c3.62,8.63,7.32,17.22,11,25.82q5.32,12.42,10.64,24.84,7.08,16.53,14.15,33.07,4.2,9.81,8.42,19.62c.63,1.48,1.25,3,1.88,4.45a2.29,2.29,0,0,0,.85,1.27V233.1c0-.32,0-.63,0-.95,0-.51.14-.76.68-.7.22,0,.45,0,.68,0h32.54c1.53,0,1.38-.17,1.38,1.37V378c0,1.67.15,1.46-1.41,1.46-17.16,0-34.31,0-51.46,0a1.68,1.68,0,0,1-1.85-1.25c-3.77-9-7.6-18.07-11.4-27.1q-6.72-16-13.43-31.94-6.64-15.78-13.32-31.55-4.42-10.51-8.84-21.05c-.05-.13-.09-.24-.28-.23a2.74,2.74,0,0,0-.11,1.42q0,54.9,0,109.8c0,.36,0,.73,0,1.08.05.56-.12.86-.74.8-.31,0-.63,0-.94,0H550.53c-1.82,0-1.8,0-2.34-1.73q-7-22.42-14.05-44.84-5.94-19-11.9-37.92-5.13-16.32-10.27-32.64c-.12-.41-.27-.81-.48-1.42a40.61,40.61,0,0,0-1.84,5.36q-4.15,12.84-8.26,25.69-5.55,17.25-11.07,34.51-6.13,19.11-12.26,38.22c-1.48,4.6-3,9.19-4.44,13.8-.2.62-.36,1-1.14,1q-19-.06-38,0a1.52,1.52,0,0,1-.28-.11"/><path class="cls-1" d="M790.38,382.5c-8.23.12-16-1.86-23.72-4.61a58.29,58.29,0,0,0-9.5-2.84,6.78,6.78,0,0,0-8.06,5.5,5.43,5.43,0,0,0-.21,1.05c0,.52-.26.69-.76.68-1.13,0-2.25,0-3.38,0-.58,0-.74-.23-.82-.78-.5-3.68-1-7.36-1.58-11-.61-4.25-1.24-8.5-1.84-12.76-.67-4.79-1.31-9.58-2-14.38-.31-2.21-.64-4.43-1-6.64-.23-1.49-.23-1.5,1.26-1.51h1.08c2.61,0,2.6,0,3.52,2.35a78.83,78.83,0,0,0,11.18,20.12,45,45,0,0,0,15.1,12.75,39.64,39.64,0,0,0,14.39,4,33.25,33.25,0,0,0,14.82-1.71,23.5,23.5,0,0,0,12.65-10.91c2.64-4.73,3.31-9.78,3-15.16-.43-7.73-4.44-13.37-9.87-18.28a104.91,104.91,0,0,0-12.88-9.68c-6.43-4.23-13.14-8-19.74-12-6.92-4.17-13.63-8.66-19.08-14.75a34.61,34.61,0,0,1-8.2-15.77,45.88,45.88,0,0,1-.61-14.74A34.55,34.55,0,0,1,761,235.18a44.89,44.89,0,0,1,19.45-6c6.86-.61,13.35.86,19.78,2.94,3.78,1.23,7.45,2.77,11.26,3.92a9.9,9.9,0,0,0,6.09.15c2.58-.86,3.88-2.88,4.64-5.36a3.08,3.08,0,0,0,.08-.53c.13-1,.54-1.53,1.65-1.3a8.76,8.76,0,0,0,1.62,0c1.68,0,1.67,0,1.84,1.63.62,6,1.26,12,1.87,17.92.5,4.91.94,9.82,1.44,14.72.39,3.79.84,7.57,1.26,11.36,0,.27,0,.54,0,.81.11.62-.09.9-.77.88a29.62,29.62,0,0,0-3.65,0c-.87.07-1.08-.38-1.23-1A53.17,53.17,0,0,0,820.94,261c-4.82-8.7-11.37-15.64-20.59-19.75a35.3,35.3,0,0,0-18.15-2.89,21.9,21.9,0,0,0-14,6.64,19,19,0,0,0-5.22,11.94c-.55,6.53,1.69,12.12,5.84,17.08,4,4.77,9,8.35,14.11,11.74,5.68,3.75,11.62,7.07,17.48,10.53a147.17,147.17,0,0,1,19.74,13.42,49.83,49.83,0,0,1,13.13,16,36.45,36.45,0,0,1,3.62,20.13,38.18,38.18,0,0,1-13.34,25.58,44.76,44.76,0,0,1-21.24,10,56.52,56.52,0,0,1-11.9,1.1"/><path class="cls-1" d="M1024.75,382.5a61.8,61.8,0,0,1-19.4-3c-4-1.23-7.81-2.84-11.83-3.9a11.41,11.41,0,0,0-4.78-.57c-3.23.54-5.26,2.68-5.86,6.31-.13.85-.44,1-1.18,1-1,0-2,0-3,0-.56,0-.76-.17-.84-.75-.61-4.48-1.26-9-1.89-13.43l-2-14.24c-.59-4.16-1.16-8.33-1.75-12.5-.23-1.64-.46-3.28-.72-4.92-.2-1.24-.2-1.26,1.1-1.27a22,22,0,0,0,2.57,0c1-.12,1.38.38,1.73,1.24a89.62,89.62,0,0,0,9.35,18.09c5,7.16,11,13.06,19.12,16.67a38.59,38.59,0,0,0,12.27,3.22,33.63,33.63,0,0,0,12.4-.81c9.91-2.74,16.06-9.07,18.11-19.16a25.9,25.9,0,0,0-2-16.8,31.23,31.23,0,0,0-7.72-9.43,116.46,116.46,0,0,0-14.37-10.6c-4.78-3.06-9.66-6-14.58-8.82a116,116,0,0,1-17.65-12c-6.31-5.39-11.06-11.85-13-20.1a45.14,45.14,0,0,1-.76-15,35.4,35.4,0,0,1,3.61-12.43A34.15,34.15,0,0,1,994,235.81a42.56,42.56,0,0,1,15.54-6,43.68,43.68,0,0,1,21.78,1.39c4.85,1.39,9.48,3.45,14.33,4.88a10.68,10.68,0,0,0,5.05.37c2.73-.51,4.34-2.31,5.3-4.81,0-.13.06-.26.1-.39.21-.72.22-1.79.69-2.06.65-.37,1.65-.14,2.5-.17h.27c1.78,0,1.72,0,1.89,1.85.38,4,.84,8,1.26,12,.3,2.9.58,5.8.88,8.7.42,4,.87,8.11,1.29,12.16.32,3,.6,6.07.89,9.1.09.9.17,1.79.27,2.68.07.58-.15.81-.75.8a34.25,34.25,0,0,0-3.51,0c-.91.07-1.27-.31-1.44-1.13a46.66,46.66,0,0,0-2.79-8.8,54,54,0,0,0-8.35-13.87,42,42,0,0,0-13.49-10.71,35.47,35.47,0,0,0-19.2-3.56,22.17,22.17,0,0,0-13.94,6.22,19.2,19.2,0,0,0-5.69,13c-.39,6.35,1.94,11.74,5.94,16.52,4.29,5.13,9.69,8.91,15.25,12.46,8.86,5.66,18.2,10.56,26.94,16.41a85.19,85.19,0,0,1,14.63,12c5.64,6,9.61,12.84,10.88,21a37.42,37.42,0,0,1-2.59,21.21,40.12,40.12,0,0,1-20.53,20.72,49.07,49.07,0,0,1-14.8,4.13,56,56,0,0,1-7.82.52"/><path class="cls-1" d="M909.35,379.47H876.94c-1.59,0-1.51.19-1.47-1.42,0-.92-.42-2.09.23-2.7s1.72-.15,2.61-.19a46.6,46.6,0,0,0,10.75-1.51c5.19-1.47,7.7-5.06,8.33-10.2a73.29,73.29,0,0,0,.48-9.13q0-19.45,0-38.9a4.24,4.24,0,0,0-.83-2.59c-4.33-6.32-8.62-12.66-12.93-19-5.59-8.22-11.15-16.46-16.79-24.65-4.21-6.12-8.43-12.25-13-18.12a85.09,85.09,0,0,0-7.58-8.74c-3.42-3.33-7.33-5.57-12.22-5.76h-.13c-1.61-.25-1.61-.25-1.61-1.86,0-2.48,0-2.48,2.45-2.48h58.21c1.7,0,1.49-.17,1.5,1.52,0,2.52,0,2.46-2.44,2.67a52.1,52.1,0,0,0-8.53,1c-3.91,1-5.58,3.74-4.64,7.68A24.24,24.24,0,0,0,883,253c7.68,11.51,15.4,23,23,34.55,3,4.52,6,9,9,13.55.76,1.14.9,1.12,1.59,0l9.16-14.54q6.5-10.28,13-20.56c3.38-5.38,6.89-10.68,10.11-16.16a11.53,11.53,0,0,0,1.83-6.5,5.77,5.77,0,0,0-3-5,14,14,0,0,0-6-1.76,38.26,38.26,0,0,0-5.24-.28c-.73,0-1-.18-1-1-.09-3.16-.12-3.16,3-3.16h44c1.62,0,1.47-.15,1.45,1.44,0,.85.35,1.89-.16,2.49s-1.58.39-2.41.5c-5.67.74-10.25,3.56-14.26,7.46a80.69,80.69,0,0,0-10.84,13.33Q945.78,273.16,935.47,289c-4.43,6.74-8.82,13.49-13.23,20.24-.49.75-1,1.52-1.44,2.27a2.44,2.44,0,0,0-.39,1.39c0,15.35,0,30.7.08,46.05a26.5,26.5,0,0,0,1.13,7.68c1.23,3.95,4,6.15,7.81,7.21A45.59,45.59,0,0,0,942,375.18c1.36,0,1.39,0,1.36,1.37,0,.93.41,2.12-.19,2.72s-1.8.19-2.72.2H909.35"/></svg>