<svg id="Logos_Patrocinadores" data-name="Logos Patrocinadores" xmlns="http://www.w3.org/2000/svg" viewBox="0 0 1500 600"><defs><style>.cls-1{fill:#7a97ab;}.cls-2{fill:#c1c5c8;}</style></defs><path class="cls-1" d="M1142.41,342c-1.17,3-2,6.24-3.56,9.1-4.63,8.72-12.19,14.18-21.1,17.94-9.53,4-19.59,5.41-29.86,5.62-15,.31-29.65-1.34-43.88-6.24a81.05,81.05,0,0,1-19.09-9.39c-.66-.45-1.18-.77-.77-1.8,3.5-8.95,6.94-17.93,10.4-26.89a3,3,0,0,1,.28-.47c2.54,1.48,5,3,7.62,4.42a91.14,91.14,0,0,0,45,11,29,29,0,0,0,11.81-2.39c5.28-2.43,7.58-6.51,6.57-11.64a8.25,8.25,0,0,0-5.08-6.33,88.13,88.13,0,0,0-11.48-3.79c-10.37-2.6-20.83-4.84-31.19-7.48a49.36,49.36,0,0,1-14.24-6.37c-9.85-6.21-14.5-15.34-15.27-26.74-1.35-20.23,10.61-32.66,25-39.36a74.71,74.71,0,0,1,27.16-6.52,91.85,91.85,0,0,1,47.06,9.32c4.17,2.05,8.09,4.57,12.25,6.95L1129,278.61c-.75-.47-1.39-.85-2-1.27-8.89-5.84-18.37-10.35-28.9-12.34-7.26-1.37-14.57-1.91-21.77.19a23.24,23.24,0,0,0-6.65,3.35c-4.62,3.25-5.93,12.53,1.72,16.12,5,2.35,10.35,3.49,15.68,4.77,9.1,2.2,18.24,4.25,27.23,6.84a46.33,46.33,0,0,1,19.24,10.81,30.41,30.41,0,0,1,8.32,14.44c.16.57.39,1.13.59,1.69Z"/><path class="cls-1" d="M635.36,372.18H593.9V237.5h40.23v18.88c.51-.59.77-.85,1-1.15,9-12.76,21.56-19.22,36.87-20.86a60.89,60.89,0,0,1,24,1.73c14,4.15,22.46,13.81,26.78,27.44,2.77,8.78,3.6,17.84,3.61,27q.06,39.87,0,79.74c0,.45,0,.89-.08,1.42H684.85v-1.92q0-38,0-76.05a48.51,48.51,0,0,0-1.7-14.43c-2.5-8-8.18-12.46-16.59-12.92-5.45-.3-10.78.19-15.74,2.63-9,4.42-13.65,11.92-15,21.6a48.64,48.64,0,0,0-.39,7q0,36.18,0,72.36Z"/><path class="cls-1" d="M876.55,238.25c.67,0,1.17-.07,1.66-.07,12.3,0,24.61,0,36.91,0a2,2,0,0,1,2.2,1.55q15.45,37.77,31,75.49c.23.57.48,1.13.82,1.91.3-.68.53-1.17.73-1.67q15.54-37.82,31-75.63a2.19,2.19,0,0,1,2.43-1.65c12.15.06,24.31,0,36.46,0h1.92c-.24.7-.39,1.21-.59,1.7q-36.83,90-73.66,180c-.32.78-.55,1.37-1.66,1.36q-19.07-.06-38.14,0c-.25,0-.5,0-.93-.06l2.1-5.33q9.54-24.09,19.05-48.21a3.56,3.56,0,0,0,0-2.43q-25.22-62.43-50.5-124.84C877.07,239.7,876.85,239,876.55,238.25Z"/><path class="cls-2" d="M489.83,178.78c-1.47,3.64-2.79,6.9-4.12,10.16L443.5,292.49q-15.94,39.12-31.86,78.25a3,3,0,0,1-3.23,2.24c-16.2-.08-32.4-.05-48.6-.05-.65,0-1.3-.06-2.22-.1.3-.9.5-1.61.77-2.29Q384.19,307.26,410,244q12.91-31.65,25.8-63.3a2.63,2.63,0,0,1,2.94-1.93c16.35.05,32.71,0,49.06,0Z"/><path class="cls-1" d="M862.18,250.7,851.24,278c-3.57-2.09-7-4.24-10.54-6.13-10.43-5.55-21.5-8.76-33.42-8.47a29.27,29.27,0,0,0-12,2.41c-4,1.88-6.8,4.67-7.1,9.39-.23,3.75,1.11,6.73,4.48,8.39a47.81,47.81,0,0,0,9,3.48c7.78,2,15.6,3.85,23.47,5.45a80,80,0,0,1,21.52,7.41c10.19,5.4,16.56,13.56,18.34,25.14,2.89,18.8-5,33.89-22.12,42.18a69.06,69.06,0,0,1-23.76,6.33,131.69,131.69,0,0,1-42.31-2.69,86.61,86.61,0,0,1-29.56-12.4c-.34-.22-.67-.47-1.14-.8,3.64-9.42,7.27-18.85,11-28.47l1.61,1c15.81,9.91,33,15,51.71,14.55A25.86,25.86,0,0,0,823,341.62c4.56-2.65,6.35-6.8,5-11.55a8.57,8.57,0,0,0-5.37-5.93,103.66,103.66,0,0,0-11.37-3.64c-10.38-2.58-20.85-4.8-31.18-7.52a55.43,55.43,0,0,1-11.16-4.65c-10.09-5.23-16.14-13.47-17.7-24.83-1.75-12.78,1.27-24.06,10.61-33.33A49,49,0,0,1,776,240.56c11.46-5.29,23.59-7,36.08-6.58a90.36,90.36,0,0,1,49,15.9C861.4,250.11,861.72,250.36,862.18,250.7Z"/><path class="cls-1" d="M502.85,185l80.43,187.9H581.4c-17.84,0-35.68,0-53.52,0a2.13,2.13,0,0,1-2.35-1.56q-24.58-59.78-49.3-119.51a4,4,0,0,1,0-3.33Q489.17,217.78,502,187C502.2,186.47,502.43,186,502.85,185Z"/></svg>