<svg id="Logos_Patrocinadores" data-name="Logos Patrocinadores" xmlns="http://www.w3.org/2000/svg" viewBox="0 0 1500 600"><defs><style>.cls-1{fill:#7a97ab;}</style></defs><path class="cls-1" d="M560.49,280.66H568c20.57,0,35.09,12.42,35.09,34.45,0,24-16.33,34.45-35.41,34.45h-7.19Zm-32,96h45.36c34.11,0,62.51-26.94,62.51-61.53s-28.24-61.54-62.51-61.54H528.51Z"/><path class="cls-1" d="M735.62,292.92h-29.7v8.15c-6.22-7.35-16.33-10.94-25.95-10.94-24.81,0-41.93,20.57-41.93,44.57s17.45,44.71,42.26,44.71c9.79,0,20.08-3.76,25.29-12.08h.33v9.31h29.7Zm-47.81,23c12.07,0,19.09,8.65,19.09,18.94,0,10.61-7,18.75-19.09,18.75s-19.11-8.14-19.11-18.75C668.7,324.57,675.73,315.92,687.81,315.92Z"/><path class="cls-1" d="M809.21,295a40.58,40.58,0,0,0-19.59-4.9c-26.26,0-46.83,18.61-46.83,45.54,0,25.3,20.73,43.74,45.54,43.74a46.37,46.37,0,0,0,20.88-4.74V349.56a22.88,22.88,0,0,1-14.85,5.69c-12.25,0-20.88-8.48-20.88-20.55a20.1,20.1,0,0,1,20.4-20.41c5.7,0,10.93,2.62,15.33,5.89Z"/><path class="cls-1" d="M886.41,295.52c-8.66-3.91-18.12-5.39-27.59-5.39-18.26,0-36.88,9.15-36.88,29.71,0,15,9.3,19.59,18.62,22s18.59,2.77,18.59,9.28c0,4.57-5.55,6.38-9.3,6.38-7.33,0-17.47-4.24-23.5-8.48l-10.77,20.72a64.94,64.94,0,0,0,33.78,9.63c19.42,0,39.49-9.14,39.49-31.18,0-15.5-10.44-22-24.32-24.8-4.06-.81-13.38-1.63-13.38-7.34,0-4.25,5.88-5.72,9.32-5.72a36.89,36.89,0,0,1,16,4.09Z"/><path class="cls-1" d="M989.87,292.92H960.16v8.15c-6.2-7.35-16.33-10.94-26-10.94-24.8,0-41.92,20.57-41.92,44.57s17.45,44.71,42.27,44.71c9.78,0,20.08-3.76,25.29-12.08h.32v9.31h29.71Zm-47.82,23c12.08,0,19.08,8.65,19.08,18.94,0,10.61-7,18.75-19.08,18.75S923,345.47,923,334.86C923,324.57,930,315.92,942.05,315.92Z"/><path class="cls-1" d="M568,283h-5.14v64.13h4.82c18.1,0,33-9.68,33-32.06C600.72,294.51,587.39,283,568,283Zm0-4.74c21.74,0,37.46,13.34,37.46,36.81,0,25.61-17.7,36.82-37.78,36.82h-9.56V278.3ZM573.87,379H526.13V251.22h47.74c35.54,0,64.89,27.92,64.89,63.89S609.24,379,573.87,379Zm0-4.75c32.86,0,60.14-25.92,60.14-59.15S606.89,256,573.87,256h-43v118.3Z"/><path class="cls-1" d="M703.55,373.5c-6.19,5.76-15,8.29-23.25,8.29-26.32,0-44.64-22-44.64-47.09s18-46.94,44.31-46.94c8.24,0,17,2.49,23.58,7.73v-5H738V379H703.55Zm4.74-78.22v12.29c-8.06-9.56-14.93-15.06-28.32-15.06-23.27,0-39.57,19.28-39.57,42.19S657,377,680.3,377c9.77,0,18.61-3.51,24-12.07h4v9.29h25v-79Zm-3.77,39.58c0-9.1-6.07-16.55-16.71-16.55s-16.73,7.45-16.73,16.55c0,9.36,6,16.39,16.73,16.39S704.52,344.22,704.52,334.86Zm4.74,0c0,11.84-8,21.14-21.45,21.14s-21.46-9.3-21.46-21.14c0-11.48,7.95-21.32,21.46-21.32S709.26,323.38,709.26,334.86Z"/><path class="cls-1" d="M789.62,287.76a43.47,43.47,0,0,1,22,5.88v31.25c-5.31-3.94-10.68-8.23-17.71-8.23a17.74,17.74,0,0,0-18,18c0,10.72,7.55,18.18,18.52,18.18,7.71,0,12-3.92,17.23-8.73v32a49.4,49.4,0,0,1-23.26,5.65c-26,0-47.91-19.37-47.91-46.12C740.42,307.31,762.16,287.76,789.62,287.76Zm0,4.75c-25.08,0-44.46,17.65-44.46,43.16,0,23.85,19.52,41.37,43.17,41.37a44.7,44.7,0,0,0,18.51-3.86v-19a25.31,25.31,0,0,1-12.48,3.44c-13.51,0-23.26-9.5-23.26-22.93a22.47,22.47,0,0,1,22.78-22.78,25.87,25.87,0,0,1,13,3.84V296.47A38.59,38.59,0,0,0,789.62,292.51Z"/><path class="cls-1" d="M858.82,287.76a69.39,69.39,0,0,1,30.85,6.63l-12.24,23.29c-5.28-2.84-10.86-4.93-17-4.93-1.8,0-7,.79-7,3.34,0,7.69,37.7.78,37.7,32.14,0,24.11-22.05,33.56-41.86,33.56-13.76,0-25.29-4-36.91-11.14l13-25.09c6.6,4.63,16,9.62,24.36,9.62,3.88,0,6.92-1.82,6.92-4,0-9.28-37.2-.25-37.2-31.32C819.57,297.26,840.07,287.76,858.82,287.76Zm0,4.75c-17.82,0-34.51,8.79-34.51,27.33,0,28.5,37.21,14.93,37.21,31.32,0,7-8,8.76-11.67,8.76-7.1,0-16.26-3.56-22.61-7.44l-8.52,16.4A62.45,62.45,0,0,0,849.36,377c19,0,37.12-8.83,37.12-28.81,0-16.86-12.94-20.59-26.21-23.15-4.71-.92-11.5-2.84-11.5-9,0-5.9,7-8.09,11.7-8.09a39.79,39.79,0,0,1,14.94,3.31l7.69-14.61A65.75,65.75,0,0,0,858.82,292.51Z"/><path class="cls-1" d="M957.78,373.5c-6.17,5.76-15,8.29-23.23,8.29-26.32,0-44.65-22-44.65-47.09s18-46.94,44.3-46.94c8.25,0,17,2.49,23.58,7.73l0-5h34.43V379H957.78Zm4.76-78.22v12.29c-8.08-9.56-14.94-15.06-28.34-15.06-23.27,0-39.56,19.28-39.56,42.19S911.25,377,934.55,377c9.78,0,18.6-3.51,24-12.07h4v9.29h25v-79Zm-3.77,39.58c0-9.1-6.08-16.55-16.72-16.55s-16.74,7.45-16.74,16.55c0,9.36,6,16.39,16.74,16.39S958.77,344.22,958.77,334.86Zm4.74,0c0,11.84-8,21.14-21.46,21.14s-21.48-9.3-21.48-21.14c0-11.48,8-21.32,21.48-21.32S963.51,323.38,963.51,334.86Z"/><path class="cls-1" d="M882.21,184.15c.52,2.61,1,5.24,1.45,7.86,90,25.47,150.12,75.68,150.12,131.82,0,80.86-124.74,149.45-283.75,149.45S466.34,404.69,466.34,323.83c0-59.37,67.26-112.13,166-136q1.37-4,2.68-8c-102.64,23.74-175.88,78.39-175.88,144,0,88.22,132.54,156.68,290.94,156.68s291-68.46,291-156.68C1041.05,261.93,975.82,209.78,882.21,184.15Z"/><path class="cls-1" d="M878,167.2c.44,1.41.86,2.83,1.25,4.25,102.57,27.19,172.89,85.6,172.89,152.39,0,92.28-134.27,168.63-302.4,168.63S447.37,416.12,447.37,323.84c0-70.81,79.06-132.23,191.81-157,.44-1.38.87-2.77,1.3-4.16-114.72,24.66-197,87-197,161.14,0,96.1,138.23,172.46,306.24,172.46S1056,419.94,1056,323.84C1056,253.87,982.71,194.38,878,167.2Z"/><path class="cls-1" d="M671.57,174.41H660.12l5.68-18h.14Zm3.73,11.2,3.44,9.81h14.7l-20-56.4-15.05,0L638,195.42h14.62l3.65-9.81Z"/><path class="cls-1" d="M705.87,150.24h1.33c4.51,0,9.57.9,9.57,7s-5.06,7-9.57,7h-1.33Zm13.65,22.06c7.52-1.41,11.59-8.15,11.59-15.93,0-12-8-17.35-18.42-17.35h-20.6v56.4h13.78V173.73H706l13,21.69h17.16Z"/><path class="cls-1" d="M748.05,150.24h1.34c4.49,0,9.56.9,9.56,7s-5.07,7-9.56,7h-1.34Zm13.64,22.06c7.51-1.41,11.61-8.15,11.61-15.93,0-12-7.94-17.35-18.43-17.35H734.26l0,56.4h13.77V173.73h.14l13,21.69h17.15Z"/><path class="cls-1" d="M803.1,151.35a15.28,15.28,0,0,1,15,14.91c0,9.72-6.76,16.82-15,16.82s-15-7.1-15-16.82A15.25,15.25,0,0,1,803.1,151.35Zm0-14.2c-15.25,0-29.32,12-29.32,29,0,18.27,12.3,31.13,29.33,31.13s29.32-12.86,29.32-31.12C832.43,149.13,818.36,137.15,803.1,137.15Z"/><polygon class="cls-1" points="852.66 183.02 877.63 139.02 833.75 139.02 833.75 151.43 854.57 151.43 829.47 195.42 874.89 195.43 874.89 183.02 852.66 183.02"/></svg>