<svg id="Logos_Patrocinadores" data-name="Logos Patrocinadores" xmlns="http://www.w3.org/2000/svg" viewBox="0 0 1500 600"><defs><style>.cls-1{fill:#7a97ab;}</style></defs><path class="cls-1" d="M529.52,196.9H492.4v4.44q0,116.91-.08,233.83a14.6,14.6,0,0,1-1.91,7c-7.77,13.45-15.75,26.78-23.66,40.14-.63,1.06-1.28,2.1-2.16,3.52-.76-1.16-1.38-2-1.92-2.93-8.06-13.68-16.15-27.33-24.08-41.08a13.29,13.29,0,0,1-1.69-6.34q-.13-116.91-.07-233.82v-4.84H333.42V173H436.73v-3.94c0-12.26,0-24.51,0-36.76,0-11.37,8.2-19.5,19.52-19.5H583.5v31.93H500.67c-6.41,0-8.66,2.22-8.68,8.54s0,12.67,0,19.46H585.1v4.42c0,21.1-.05,42.2.06,63.3a25.08,25.08,0,0,0,1.32,8c2,5.94,6.5,8.83,12.73,8.77,5.94,0,10.41-3,12.36-8.85a27.05,27.05,0,0,0,1.36-8.32c.11-20.87.06-41.75.06-62.62v-4.3h54v3.69q0,40.17-.08,80.32c0,11.88-8.47,20.44-20.27,20.45q-48.36,0-96.73,0c-11.92,0-20.37-8.44-20.38-20.31q0-28.08,0-56.16Z"/><path class="cls-1" d="M855.08,277.34V172.92H984.87a27.31,27.31,0,0,1,15.11,4.47,16.78,16.78,0,0,1,8.16,14.48c.13,8.73.19,17.47,0,26.2-.21,9.69-7.51,16.84-18.88,18.54-3.76.56-7.62.45-12.24.69l32.59,40c-1.4.13-2.33.28-3.26.28-20.44,0-40.87.07-61.3-.09a7.27,7.27,0,0,1-4.78-2.29c-8.9-10-17.62-20.15-26.4-30.26-.8-.91-1.64-1.79-3.06-3.35v35.75Zm55.77-54c8,0,15.56,0,23.15,0a12.28,12.28,0,0,0,12.34-9.64c3-11.43-3.08-19.34-14.76-19.34H910.85Z"/><path class="cls-1" d="M1098.76,172.92q24,0,48,0c12,0,20.54,8.46,20.57,20.54q.06,31.64,0,63.27c0,11.17-7.17,19.15-18.22,20.43a60.6,60.6,0,0,1-7.13.38c-30.3,0-60.6-.29-90.89.18-10.28.17-20.87-9.25-20.58-20.65q.83-31.78,0-63.6c-.28-10.92,9.64-21,20.94-20.68C1067.21,173.29,1083,172.92,1098.76,172.92Zm16,53.87h.1V218.3c0-2.84,0-5.67,0-8.5-.18-7.82-5-13.18-12.54-14-8.75-.93-16.18,2.86-16.77,10.59a309.61,309.61,0,0,0-.3,40.64c.39,7.1,7.55,10.65,16.48,10,7.32-.52,12.53-5,13-11.94C1115,239,1114.71,232.91,1114.71,226.79Z"/><path class="cls-1" d="M831.09,206.28h-53.8a17.64,17.64,0,0,0-24.62-7.44,10.72,10.72,0,0,0-5.89,9.69q-.15,17.86,0,35.73c.06,6.2,3.82,11,9.92,12.12a28.63,28.63,0,0,0,10.07.1c6-1.07,10-5.71,10.52-11.78.23-2.57,0-5.18,0-8.29H763.12V218.67h68.17v58.92h-4.5c-13.73,0-27.47-.09-41.21.08-2.86,0-4.69-.63-5.84-3.33a48.3,48.3,0,0,0-3-5.24c-1,1.08-1.7,1.89-2.44,2.68a17.05,17.05,0,0,1-13.21,5.87c-16.12-.16-32.24,0-48.36-.07a19.4,19.4,0,0,1-19.82-19.76q0-32.5,0-65a19.51,19.51,0,0,1,19.77-19.87q49.22-.08,98.43,0c11.43,0,20,8.64,20,20C831.11,197.28,831.09,201.59,831.09,206.28Z"/></svg>