<svg id="Logos_Patrocinadores" data-name="Logos Patrocinadores" xmlns="http://www.w3.org/2000/svg" viewBox="0 0 1500 600"><defs><style>.cls-1{fill:#7a97ab;}</style></defs><path class="cls-1" d="M457.15,421.61c4.21,8.12,10.14,15.15,15.27,23.15a28.72,28.72,0,0,1-2.91.47c-28.71,1.49-56.62-2.17-83.34-13.18-19.82-8.16-37.43-19.53-51.23-36.2-11.67-14.09-18.69-30.11-19.28-48.61-.2-6-.85-12.16-.09-18.09,1.74-13.66,10.54-22.57,21.64-29.59,8.39-5.3,17.5-9,26.88-12.12a4.25,4.25,0,0,0,3.1-3.37,188.36,188.36,0,0,1,43.24-78.7c9.3-10.16,19.89-18.58,33.39-22.46,17-4.87,32.16-.48,46.06,9.58,12.09,8.75,21.3,20.22,29.85,32.26a186.18,186.18,0,0,1,27.68,59,4.3,4.3,0,0,0,3.12,3.4c11.78,3.92,23.16,8.66,33.07,16.38,8.25,6.43,14,14.47,15.53,24.95a80,80,0,0,1,.33,15.32c-.62,11.58-2.63,22.88-7.81,33.44-8.74,17.85-22.27,31.27-38.71,42-15.27,9.94-32,16.58-49.62,20.84a6.46,6.46,0,0,1-4.39-.84c-11.55-7-23.54-13.1-36.5-17.12-1.48-.45-3-.86-4.47-1.29l-.81.79m6.49-48.81c6.5-.55,19.5-1.36,32.42-2.84A170.56,170.56,0,0,0,539,359.37c2.07-.81,2.76-1.86,2.7-4.09a269.66,269.66,0,0,0-6.85-56.1c-6.39-26.84-17-51.72-35.2-72.83-8.68-10-18.25-19.15-30.44-25-5.23-2.49-10.64-3.82-16.48-2.57a40.92,40.92,0,0,0-16,7.63A134.31,134.31,0,0,0,403,243.38C381.35,278,373.1,316.27,373.16,356.67a3.2,3.2,0,0,0,1.69,2.33c3.95,1.6,7.95,3.15,12,4.39,22.9,6.93,46.44,9.13,76.76,9.41M360.71,306.32c-7.53,5.72-14.51,11-16.54,20.2-1.88,8.52,4.17,19.4,11.61,22.08,1.61-13.78,3.22-27.65,4.93-42.28m198.35,42.44c7.46-2.77,11.81-12.15,10.44-22.28-1.22-9-9.42-19.19-15.65-19.82,1.72,13.93,3.45,27.92,5.21,42.1"/><path class="cls-1" d="M760,226.88l.07,60.46h-9.76l-.09-76.71c4,0,7.86-.11,11.74.08.66,0,1.51,1.2,1.85,2q10.74,25.7,21.37,51.44a88.5,88.5,0,0,0,4.38,9.42l-.06-62.78h10l.08,76.66c-4.25,0-8.42.11-12.57-.1-.69,0-1.58-1.3-2-2.18q-11.71-28-23.32-56c-.34-.82-.73-1.62-1.11-2.44l-.62.18"/><path class="cls-1" d="M1132.55,287h-9.92l-.08-76.8c3.9,0,7.8-.11,11.67.08.68,0,1.56,1.17,1.9,2q10.25,24.54,20.39,49.12A91.84,91.84,0,0,0,1162,273l-.07-62.58h10L1172,287c-4.32,0-8.66.1-13-.09-.61,0-1.35-1.34-1.7-2.2q-11.67-28-23.27-56.09a7,7,0,0,0-1.55-2.46Z"/><path class="cls-1" d="M874.61,253.28l0,33.9h-9.94l-.08-76.35a3.92,3.92,0,0,1,1.06-.31c9.4.07,18.82-.12,28.2.32,10.12.46,16.73,7.65,17.08,17.77.2,5.81-.5,11.43-4.55,15.92-1.75,1.93-4.17,3.24-6.25,4.81a11.9,11.9,0,0,0,1.23.55c5.11,1.78,7.85,5.57,8.42,10.76.61,5.64.75,11.32,1.16,17,.24,3.43.63,6.84,3.84,9.69-4,0-7.4.18-10.79-.11a3.58,3.58,0,0,1-2.29-2.49c-.79-5.41-1.27-10.86-1.89-16.3a58.13,58.13,0,0,0-1.07-8.26c-1.17-4.52-4.06-6.74-8.66-6.87-5-.15-10,0-15.51,0m0-7.65c5.6-.26,10.82-.17,15.94-.81,6.47-.81,9.73-5.56,10.06-13.6.25-6.13-2.92-11-8.94-12-5.5-.9-11.2-.67-17-1-.06,1.3-.12,2-.12,2.74,0,8,0,16,0,24.6"/><path class="cls-1" d="M676.07,231.93c-.33-1.64-.6-3.36-1-5.06-1.42-5.73-5.08-9.08-10.51-9.68-6.2-.69-11.25,1.63-13.6,7a38.57,38.57,0,0,0-3.08,11.19c-1.14,11-1.35,21.93.92,32.79a26,26,0,0,0,2.24,6.26c2.32,4.56,6.17,6.69,11.31,6.75s9.06-1.92,11.49-6.45c3.18-5.93,3.36-12.41,3.48-19.27l-15.61,0V247.8l24.44,0,0,39.63h-7.1V278c-.6.55-.91.72-1,1-3.56,7.11-9.6,10.23-17.25,10.15-8.55-.09-15.6-3.54-19.1-11.62a57.27,57.27,0,0,1-4.21-15.75c-1.36-11.49-1.47-23.06,1.8-34.34,4.71-16.22,20.77-23.2,35.93-15.6,8.09,4,10.76,11.29,11.09,20.06Z"/><path class="cls-1" d="M1111,248.62c-.26,8.35-.79,16.59-3.71,24.47-3.88,10.47-11.57,15.75-22.59,15.68s-18.91-5.58-22.56-16.14c-3.22-9.31-3.72-19-3-28.66.45-6.44,1.17-13.06,3.16-19.14,5.37-16.34,26.52-21.69,38.85-10.16,5.14,4.8,7.25,11.18,8.29,17.87.82,5.32,1.08,10.72,1.59,16.08m-10.25.16-.71-.08c0-2.88.14-5.78,0-8.66-.34-5.48-.81-10.94-3.32-16a12.93,12.93,0,0,0-14.86-7.11c-6.92,1.45-9.58,6.62-10.86,12.71-2.31,10.94-2.08,22-.85,33.06a41.41,41.41,0,0,0,3.12,11.17c1.83,4.38,5.58,6.57,10.36,6.83,7.79.41,12.86-3.14,14.64-11.52,1.41-6.68,1.72-13.6,2.52-20.41"/><path class="cls-1" d="M973.18,287.27c-3,0-5.86.12-8.72-.07a2.8,2.8,0,0,1-1.91-1.69c-1.64-5.61-3.16-11.25-4.63-16.91-.45-1.74-1.1-2.59-3.17-2.54-6.89.17-13.78.15-20.67,0-1.86,0-2.55.65-3,2.35-1.65,6.26-3.46,12.47-5.23,18.76H915.4c1.78-6,3.49-11.85,5.24-17.69,5.7-18.9,11.43-37.81,17.05-56.74.56-1.9,1.36-2.52,3.26-2.42,3,.15,6-.08,8.93.11a3.11,3.11,0,0,1,2.31,1.63q10.51,36.76,20.83,73.6a11.08,11.08,0,0,1,.16,1.56m-18.09-29.09c-3.37-12.13-6.67-24.05-10-36-.19,0-.37.05-.55.09L933.88,258.2Z"/><path class="cls-1" d="M741,279v8.25l-42.72,0-.08-76.43,41.19,0v8.41l-31.3,0c0,7.62,0,14.95.12,22.28,0,.52,1.48,1.42,2.27,1.44,8.11.09,16.21.15,24.31,0,2.59-.06,3.52.69,3.24,3.26a50.86,50.86,0,0,0,0,5.4l-29.67,0,0,27.37Z"/><path class="cls-1" d="M899.77,421.5a9.79,9.79,0,0,1-1,.12c-8.22.24-8.2.24-11.6-7.33q-12.67-28.2-25.37-56.37c-.33-.72-.73-1.42-1.49-2.91l.07,66.48h-7l-.08-76.69c2.79,0,5.57-.14,8.32.08.71.06,1.58,1.12,1.95,1.92q13.79,30.44,27.48,60.91a8.07,8.07,0,0,0,1.7,2.61L892.63,345h7Z"/><path class="cls-1" d="M1055.68,410l0-32.64,0-32.55h7l.08,76.69a75.58,75.58,0,0,1-8.13-.1c-.84-.09-1.84-1.32-2.26-2.25-5.52-12.08-10.94-24.19-16.38-36.31q-5.72-12.69-11.43-25.4c-.26-.58-.6-1.11-1.33-2.45l.07,66.37H1016v-3.06c0-23.48,0-47-.13-70.44,0-2.56.74-3.06,3.23-3.34,4.81-.56,7.08,1.17,9,5.67,8.31,19.26,17.11,38.32,25.73,57.45.37.82.79,1.62,1.19,2.43l.64-.07"/><polygon class="cls-1" points="855.24 278.9 855.25 287.29 812.76 287.34 812.68 210.73 853.8 210.69 853.81 219.06 822.76 219.1 822.79 242.93 852.12 242.9 852.13 251.44 822.82 251.47 822.85 278.94 855.24 278.9"/><path class="cls-1" d="M1027.33,232.91c-3.21,0-5.9,0-8.6,0-1.39,0-2-.42-2-1.91a18.1,18.1,0,0,0-.52-3.86c-1.42-6.4-4.95-9.76-10.76-10.34-6.63-.68-11.89,2-14,8.14a66.54,66.54,0,0,0-3,15.49c-.77,9.19-.68,18.42,1.37,27.49a27.33,27.33,0,0,0,2.29,6.24c2.69,5.34,7.37,7,13,6.59,5.34-.38,8.94-3.19,10.46-8.19,1.13-3.7,1.61-7.58,2.41-11.55h9.49c.49,17.39-9.75,29.08-26,27.68-12.3-1-18.88-6.87-21.77-19.85a86.32,86.32,0,0,1,.64-42c4.51-16.48,22.92-23.56,37.53-14.55,7.51,4.64,9,12.18,9.44,20.58"/><path class="cls-1" d="M790.89,383.22c.42-8.29,1.15-16.41,4-24.21,5.66-15.59,20-17.73,30.54-13.81,7.46,2.77,11.44,8.87,13.38,16.11,4.06,15.11,4.26,30.36-.42,45.38-5.64,18.08-23.07,18.93-33.21,13.63-7.29-3.8-10.36-10.79-11.87-18.34-1.23-6.16-1.64-12.49-2.41-18.76m7.88,0c0,2.79-.2,5.59.05,8.36.53,6.12,1.36,12.18,4.41,17.69,3.28,5.93,8.93,8.61,15.63,7.67,7.17-1,10.78-5.77,12.83-12,2.91-8.88,3.1-18.08,2.62-27.3-.34-6.32-1-12.6-3.67-18.47-1.95-4.33-4.87-7.68-9.63-9-8.32-2.28-15.63,1.39-19,9.5-3.1,7.56-3.44,15.54-3.29,23.55"/><path class="cls-1" d="M683.63,398.05h6.78c.12,1.93.18,3.77.38,5.6,1.12,10.49,8.25,13.86,16.18,13.6,6.08-.19,11.75-1.93,14.48-8.13,2.84-6.45,2.71-16.14-6.89-20.26-5.44-2.33-11.16-4-16.68-6.19-6.59-2.6-11.53-6.84-12.62-14.31-2.39-16.36,8.35-25.79,24.15-24.55a32.22,32.22,0,0,1,5.77,1,17.56,17.56,0,0,1,12.5,19.87h-6.55c-.16-.92-.35-1.89-.5-2.86-1.36-9.23-8-13.8-17.21-11.84-6.58,1.39-10.06,5-11.21,11.47A13,13,0,0,0,699,375.51a83.61,83.61,0,0,0,10.5,4.39c2.5,1,5.11,1.68,7.6,2.69,13.08,5.28,13.86,13.46,12.62,22.82-1.39,10.45-9.28,17.12-20,17.5a46.75,46.75,0,0,1-11.65-.77c-8.35-1.85-13.72-8.56-14.47-17.36-.18-2.13,0-4.28,0-6.73"/><path class="cls-1" d="M1172.88,421.27h-7.55c-1.94-6.73-3.92-13.46-5.81-20.21-.36-1.32-.7-2.12-2.31-2.11-8.48.08-17,.05-25.6.06-2.14,7.46-4.25,14.84-6.39,22.27h-7.59l6.52-21.66c5.26-17.51,10.54-35,15.72-52.54.61-2.06,1.56-2.72,3.71-2.67,6.08.11,6.08,0,7.81,5.71l21.12,69.78c.11.34.19.69.37,1.35m-27.44-70.52-.53.11c-3.88,14-7.77,27.95-11.7,42.11l24.09,0c-4-14.22-7.93-28.21-11.86-42.19"/><path class="cls-1" d="M962.4,421.46h-7.58c2.31-7.73,4.56-15.36,6.85-23,5.14-17.06,10.33-34.11,15.41-51.18.61-2.05,1.5-2.74,3.65-2.7,6,.12,6,0,7.79,5.73q10.63,35,21.23,70.05c.08.26.13.53.25,1h-7.53c-1.85-6.41-3.87-12.94-5.58-19.55-.56-2.14-1.44-2.73-3.57-2.69-7.45.14-14.91.12-22.36,0-1.72,0-2.41.55-2.85,2.18-1.82,6.71-3.78,13.37-5.71,20.13m20-71.4-12,43,24.09,0c-4-14.23-7.93-28.21-12.1-43"/><path class="cls-1" d="M746.48,388.25l0,33.43H739.4l-.08-76.24c.13-.11.26-.34.4-.34,8.74.06,17.53-.39,26.21.37s13.94,6.25,15.45,14.81a35.49,35.49,0,0,1,.25,11.63c-1.57,9.7-8.72,15.76-18.77,16.27-5.28.27-10.58.06-16.38.07m.17-5.63c1.18,0,2.09,0,3,0,4.45-.15,8.93,0,13.35-.53,6.13-.68,10.56-4.74,11.46-10.85a34.8,34.8,0,0,0-.35-10.48c-.75-4.62-3.8-8-8.32-8.74-6.25-1-12.65-1.09-19.19-1.59Z"/><polygon class="cls-1" points="1111.78 378.29 1111.79 384.2 1082.44 384.23 1082.47 415.58 1115.03 415.55 1115.03 421.21 1075.25 421.25 1075.17 344.74 1113.94 344.7 1113.94 350.4 1082.36 350.44 1082.39 378.32 1111.78 378.29"/><polygon class="cls-1" points="645.15 378.95 674.45 378.92 674.46 384.67 645.08 384.7 645.12 416.01 677.57 415.97 677.58 421.69 637.85 421.74 637.77 345.25 676.59 345.2 676.6 350.81 645.12 350.84 645.15 378.95"/><path class="cls-1" d="M1037.25,210.31c2.4,0,4.54.15,6.66,0,2.51-.24,3.32.56,3.3,3.19-.11,16,0,32,0,48l0,22.35V287h-9.89Z"/><polygon class="cls-1" points="954.1 350.69 934.08 350.71 934.15 421.43 927.03 421.43 926.96 350.79 906.83 350.81 906.83 344.92 954.1 344.87 954.1 350.69"/><path class="cls-1" d="M1079.23,205.8c2.42-4.69,4.75-9.31,7.18-13.87a2.34,2.34,0,0,1,1.73-.94c3-.1,6.12-.06,9.83-.06l-6,7.69a24.14,24.14,0,0,0-2.57,3.29c-2.17,4.08-5.5,5.12-10.15,3.89"/><path class="cls-1" d="M977.33,341.54c2.94-5.41,5.43-10.05,8-14.65a2.07,2.07,0,0,1,1.47-.88c2.12-.1,4.25,0,6.92-.05-3.57,5.06-6.68,9.89-10.3,14.29-.91,1.1-3.52.8-6.1,1.29"/></svg>