<svg id="Logos_Patrocinadores" data-name="Logos Patrocinadores" xmlns="http://www.w3.org/2000/svg" viewBox="0 0 1500 600"><defs><style>.cls-1{fill:#7a97ab;}</style></defs><path class="cls-1" d="M622.33,206.31v92.91c-1-.85-1.49-1.06-1.64-1.41-4.87-10.72-13.91-16.54-24.43-20.41-6.94-2.54-14.1-4.48-21.09-6.89a47.37,47.37,0,0,1-7.41-3.61c-7.37-4.1-7-14.78,1.12-18.85a24.3,24.3,0,0,1,17.93-1.51,42.19,42.19,0,0,1,14.53,6.85c.49.37,1,.65,2,1.22L617.64,227c-3.49-2.62-7.43-4-11.23-5.39a91.27,91.27,0,0,0-36.08-6.21c-13.64.55-25.42,5.28-34.68,15.56-6.8,7.56-10.22,16.64-11,26.62-.61,7.51-.38,15,2.52,22.23a26.31,26.31,0,0,0,12.35,14.13,144.79,144.79,0,0,0,16.58,7c4.46,1.64,9.16,2.61,13.69,4.07a35.81,35.81,0,0,1,11.94,6.19c6,4.84,4.72,15.29-1.29,19.35-5.53,3.74-11.57,4.41-18,3.58-9.82-1.28-17.9-6.16-25.54-12l-2.49-1.93c-5.43,9.5-10.3,19.12-15.47,28.91a73.33,73.33,0,0,0,14.88,8.57,83.57,83.57,0,0,0,26,7.16c16.29,1.57,31.76-.78,45.64-10.19a38.67,38.67,0,0,0,14.9-19.31c.21-.59.46-1.16.71-1.73.05-.1.19-.16.57-.45a6.35,6.35,0,0,1,.64,1.88q.07,17.31,0,34.63a9.39,9.39,0,0,1-.23,1.59,4.52,4.52,0,0,1-.43.48.63.63,0,0,1-.32.17,11.72,11.72,0,0,1-1.85.24q-101.64,0-203.28-.06a8.29,8.29,0,0,1-1.52-.36c-.08-1.47-.25-3.05-.25-4.62q0-47.81,0-95.62,0-32.56.07-65.12Z"/><path class="cls-1" d="M871.25,296.76c.51-2.88,2.16-3.35,4.44-3.28,5.13.15,10.26,0,15.78,0a28.55,28.55,0,0,1,.42,3.42c0,17.82.21,35.64-.07,53.46-.13,8.4-1.35,16.75-5.37,24.39C881,385.2,872.82,392,860.86,393.52c-3.61.47-4.24.2-4.83-3.35-.75-4.54-1.3-9.12-2-13.81,2.7-.88,5.11-1.51,7.4-2.43,5.71-2.3,9.06-6.45,9.64-13-.63.11-1.16,0-1.46.27-3.2,2.39-6.85,2.78-10.7,2.79-6.31,0-12.47-.22-18.44-2.78a23.38,23.38,0,0,1-11.71-10.64,33.27,33.27,0,0,1-4.31-12.75c-.87-9.25-1.8-18.56,3.14-27.17,6.16-10.73,15.19-16.74,27.74-17.09C860.7,293.37,865.91,293.76,871.25,296.76Zm.62,32.27h-.16c0-2.63-.06-5.27,0-7.89a7.92,7.92,0,0,0-3-6.22c-5.32-5-11.17-4.53-17.63-.92a12.2,12.2,0,0,0-6.42,9.26,32.78,32.78,0,0,0,.68,13.79c1.52,4.94,4.69,8.24,9.92,9.12,5.44.92,10.17-.82,14.24-4.37a6.45,6.45,0,0,0,2.37-5.64C871.72,333.8,871.87,331.41,871.87,329Z"/><path class="cls-1" d="M1065.52,317c.13-5-2.19-8.69-6.55-9.69-7.53-1.71-15-1.75-21.84,3.76l-7-12.48c1.74-1.26,3.09-2.69,4.74-3.34,4.18-1.64,8.4-3.59,12.78-4.23,10.29-1.49,20.29-.55,29,6,5.35,4,8.6,9.38,8.72,16,.29,16.18.11,32.38.1,48.57a13.29,13.29,0,0,1-.36,2h-18.6c-.34-1-.69-2-.94-2.72-4.68,1.1-9.27,2.29-13.91,3.23a31.13,31.13,0,0,1-14.88-.91c-8.71-2.51-14.4-9.8-15.52-18.88a31.34,31.34,0,0,1,1.06-13c2.13-7.14,7.09-11.75,13.86-14.36a37.35,37.35,0,0,1,26.12-.84C1063.3,316.44,1064.27,316.64,1065.52,317Zm.39,21.42c0-.87-.07-1.76,0-2.63a3.53,3.53,0,0,0-2.28-3.9c-6.34-2.71-12.65-2.77-18.81.52-3.38,1.79-4,4.95-3.65,8.38.36,3.15,2.63,4.67,5.4,5.58a16.28,16.28,0,0,0,2.92.68c4.86.62,9.45-.48,13.94-2.25a3.44,3.44,0,0,0,2.47-3.74C1065.86,340.16,1065.9,339.28,1065.91,338.4Z"/><path class="cls-1" d="M815.54,338h-48.9c.7,5.18,4.25,7.42,8,8.92,7.15,2.85,14,2.33,20.15-3.77l13.75,10.22c-2.62,4.21-6.2,6.55-10,8.43a37,37,0,0,1-33,.47,30.35,30.35,0,0,1-17.84-21.91c-2.53-11.2-2-22.23,3.54-32.52A29.63,29.63,0,0,1,769,293.17a43.65,43.65,0,0,1,19.69-1.54c9.42,1.37,16.16,7,21.14,14.88C814.53,313.91,817,329.5,815.54,338Zm-19.26-16.08c-.19-5.26-2.29-9.13-6.51-11.7-5.7-3.46-11.43-3.11-17,.48a13.49,13.49,0,0,0-6.42,11.22Z"/><path class="cls-1" d="M947.45,293.1c6.5-.21,12.56-.26,18.54,0,.87,2.94,1.16,64.53.42,70-2.68.93-14.74,1.06-18.67.16-.16-1.14-.33-2.34-.59-4.15-1.24.72-2.23,1.32-3.25,1.87-10.63,5.8-21.28,6-31.78-.21-5.39-3.19-8.24-8.35-9.55-14.3a41.62,41.62,0,0,1-.79-8.57c-.08-13.17,0-26.34,0-39.5,0-1,0-2,0-3,0-1.48.65-2.45,2.21-2.46,5.61,0,11.23,0,17.22,0,.1,1.7.25,3,.25,4.35,0,11.28,0,22.57.11,33.85a29,29,0,0,0,.65,5.95c2.12,9.75,10.9,11.15,17.85,7.72,5.47-2.69,7.35-7.61,7.37-13.38.05-11.28,0-22.57,0-33.85Z"/><path class="cls-1" d="M679.2,358.24l6.48-14.85a22.23,22.23,0,0,1,2.64.9A43.06,43.06,0,0,0,708,348.44a20,20,0,0,0,7.61-1.71c3.38-1.47,3.42-5.25.16-7a35.12,35.12,0,0,0-6.35-2.23c-5.51-1.66-11.17-3-16.56-4.95-11.29-4.17-16.29-15.44-12-26.63a20.09,20.09,0,0,1,11.44-11.4,49,49,0,0,1,40.17.26,22.37,22.37,0,0,1,2.3,1.27c.32.19.6.45,1.24.94l-6,17c-1.85-.9-3.3-1.56-4.7-2.29A33.12,33.12,0,0,0,706.39,308a7.21,7.21,0,0,0-3.73,1.41,3.6,3.6,0,0,0,.74,6.2c3.44,1.46,7.12,2.37,10.68,3.54,4.52,1.48,9.28,2.46,13.49,4.55,15.4,7.65,14,26.95,4.36,34.76-4.32,3.51-9.44,5-14.8,6-12.72,2.45-24.65-.43-36.34-5.13A10.67,10.67,0,0,1,679.2,358.24Z"/><path class="cls-1" d="M979.41,293.67h18c.35,1.09.68,2.12,1.09,3.38,7.55-5.61,15.48-7.52,24.49-2.61-1.42,6.54-4.15,12.53-6.37,18.93a14.25,14.25,0,0,1-2.69-.86c-6.45-3.76-16.12,1.49-15.92,10.43.23,10.4,0,20.82,0,31.23,0,2.38,0,4.77,0,7.15-.1,2.73-.42,3.11-3,3.15-4.26.08-8.53,0-12.79,0-1.88,0-2.81-.81-2.79-2.69,0-.75,0-1.51,0-2.26V293.67Z"/><path class="cls-1" d="M732.09,225c-2.78,0-5.12.11-7.45,0a2.45,2.45,0,0,1-1.84-1c-2-4.43-6-5.58-10.15-6.08-6.7-.8-13,.32-18.1,5.31-3.68,3.58-5,8.08-5,12.95a31.18,31.18,0,0,0,1.47,8.47,13,13,0,0,0,8.56,8.87c7.68,2.72,15.45,2.27,23.37.7a20.2,20.2,0,0,0,.36-2.43c0-3.37,0-6.74,0-10.62H710.1v-5.95c7.18-.57,14.36-.26,22-.17.43,8,.21,15.66.13,23.79-3.94.79-7.67,1.95-11.48,2.23-7.11.54-14.31,1.12-21.34-.54-8.73-2.07-15.26-6.85-17.94-15.86-4.08-13.72,4.21-28.16,17-31.53,8.51-2.24,16.87-2.27,25.08,1C728.09,215.9,731.47,218.83,732.09,225Z"/><path class="cls-1" d="M1058.27,261.3a29.81,29.81,0,0,1-14.75-2.48c-7.07-3.19-11.42-8.66-12.66-16.18a37.2,37.2,0,0,1,0-12c1.6-9.71,8-15.43,17.15-17.91a36.84,36.84,0,0,1,21.5.59c10.09,3.33,15,10.79,15.87,20.72.66,7.51-1,14.47-6.56,20.06-4.35,4.39-9.74,6.5-15.77,7.14A43.11,43.11,0,0,1,1058.27,261.3Zm-.48-5.66,0-.39c1.13,0,2.26.07,3.39,0,6.12-.41,10.88-3.09,13.27-8.89a25.08,25.08,0,0,0-.85-21.45c-1.47-3-4.11-4.65-7.16-5.75a26.09,26.09,0,0,0-14.8-.78c-6.13,1.34-10,5-11.46,11a32.75,32.75,0,0,0-.12,13.8,13.41,13.41,0,0,0,10,11.12A59.81,59.81,0,0,0,1057.79,255.64Z"/><path class="cls-1" d="M776.3,212.67c1.18-.1,2.16-.26,3.13-.26,6,0,12.05-.26,18.05.07a66.34,66.34,0,0,1,12.17,2,13.82,13.82,0,0,1,5.09,3c5.44,4.49,3.77,12.53-1.11,15.93-1.49,1-3.12,1.88-5.06,3,5.34,1.69,6.65,5.8,7.44,10.47.75,4.42,2,8.76,3,13.4h-9c-.82-4-1.63-8-2.5-12a25.47,25.47,0,0,0-1.28-4.68,6.31,6.31,0,0,0-5.44-4.1c-4.49-.34-9-.58-13.49-.66-2.66,0-3,.35-3,3.11-.06,4.64,0,9.28,0,13.91v4.35h-7.72C775.7,257.67,775.4,218,776.3,212.67Zm8,20.09c4.52,0,8.39,0,12.25,0a43.73,43.73,0,0,0,5.25-.22,12.19,12.19,0,0,0,3.56-1.12,6.21,6.21,0,0,0,3.15-7.57c-.83-2.89-3.13-3.78-5.6-4.38-5.4-1.31-10.93-1-16.43-.93a1.93,1.93,0,0,0-2.17,2.05C784.3,224.44,784.32,228.29,784.32,232.76Z"/><path class="cls-1" d="M909.81,212.41c.09,1.75.2,3,.21,4.19,0,8.53,0,17.05,0,25.57,0,8.93-4.39,15.11-12.89,17.73a39,39,0,0,1-23,.06c-8.16-2.44-12.78-8.37-13-16.9-.25-9.14-.09-18.3,0-27.45,0-2.73.41-3.13,3-3.19,6.59-.16,6,.07,6,5.5,0,8,0,16,0,24.06s4.75,12.94,12.7,13.26c3.62.15,7.26.39,10.74-1.15,4.82-2.12,7.54-5.58,7.52-11,0-8.52,0-17,0-25.57,0-.88,0-1.75,0-2.63,0-1.74.94-2.47,2.61-2.46Z"/><path class="cls-1" d="M962.7,239.75v20.53h-7.62c-.91-2.62-1.22-41.95-.34-47.55a29.9,29.9,0,0,1,3.12-.32c6.14,0,12.28-.17,18.41,0,4.49.15,9,.64,13.05,2.92,4.28,2.4,6,6,6,10.84a10.81,10.81,0,0,1-5.9,10.11,27.22,27.22,0,0,1-12.25,3.15c-3.38.12-6.76,0-10.15.08C965.78,239.57,964.55,239.66,962.7,239.75Zm.31-6.44c5.73,0,11.09,0,16.44,0a6.61,6.61,0,0,0,2.49-.8c3.24-1.47,4.43-3.56,4.16-7.2a6.61,6.61,0,0,0-5.05-5.84c-5.89-1.35-11.86-1.06-18-.74Z"/></svg>