<svg id="Logos_Patrocinadores" data-name="Logos Patrocinadores" xmlns="http://www.w3.org/2000/svg" viewBox="0 0 1500 600"><defs><style>.cls-1{fill:#7a97ab;}</style></defs><path class="cls-1" d="M703.61,189.71c-1.2,3.41-2.38,6.82-3.61,10.22Q671.7,277.72,643.38,355.5c-.15.4-.27.79-.44,1.28h25.29l32.32-88.7h19l-32.34,88.77h1.36c7.6,0,15.2,0,22.8,0a1.39,1.39,0,0,0,1.57-1.11q14.74-40.63,29.55-81.25a19,19,0,0,0,1.18-10.65c-1.28-6.1-6.11-10.4-12.63-11.26a29.06,29.06,0,0,0-3.85-.25c-6.5,0-13,0-19.52,0h-1.42c.65-1.81,1.25-3.48,1.86-5.15q11-30.31,22-60.65a2,2,0,0,1,2.17-1.5c28.31-.62,53.9,7.37,76.37,24.64,22.84,17.54,37.48,40.52,44,68.59a114.87,114.87,0,0,1,2,40.53q-6,47.28-42.61,77.87a116.16,116.16,0,0,1-53.83,25.27,121.07,121.07,0,0,1-25,2.05l-.7-.06c.5-1.4,1-2.75,1.45-4.09q11.22-30.81,22.4-61.62a1.74,1.74,0,0,1,2-1.39c10.41.05,20.81,0,31.22,0a16.37,16.37,0,0,0,15.68-11q13-35.62,26-71.26a19.26,19.26,0,0,0,1.1-11.22c-1.37-5.84-6.22-10-12.53-10.81a27.14,27.14,0,0,0-3.61-.25c-15.12,0-30.24,0-45.36,0-1,0-1.31.34-1.62,1.18Q750,306.35,730.75,359.18l-22,60.41c-.13.36-.28.72-.5,1.31-4.11-1.27-8.24-2.39-12.25-3.83a119.54,119.54,0,0,1-75.57-82.37,118,118,0,0,1-3.57-38.57A119.49,119.49,0,0,1,679,199.5a117.66,117.66,0,0,1,23.58-9.71c.3-.09.61-.13.91-.2Z"/><path class="cls-1" d="M808.37,268c-1.31,3.63-2.58,7.13-3.86,10.63q-11.16,30.63-22.31,61.27a1.46,1.46,0,0,1-1.64,1.19c-5.53-.06-11.06,0-16.6,0h-1.21c.6-1.67,1.14-3.22,1.71-4.77q12.24-33.6,24.47-67.19a1.39,1.39,0,0,1,1.56-1.12c5.58,0,11.15,0,16.72,0Z"/><path class="cls-1" d="M703.49,189.59h.25l-.13.13Z"/></svg>