<svg id="Logos_Patrocinadores" data-name="Logos Patrocinadores" xmlns="http://www.w3.org/2000/svg" viewBox="0 0 1500 600"><defs><style>.cls-1{fill:#7a97ab;}</style></defs><path class="cls-1" d="M748.23,286.27c-5.79,6.2-11.25,12.06-16.73,17.9-8.15,8.67-18.1,12.69-30.07,12.53-18.89-.25-37.79,0-56.69,0-11.11,0-16.55-5.44-16.71-16.53-.15-10.29.08-20.58-.13-30.87-.09-4.15,1.32-5.44,5.52-5.4,21.32.19,42.65,0,64,.14a13.7,13.7,0,0,0,10.9-4.4c12-12.34,24.18-24.47,36.31-36.66,1.3-1.31,2.7-2.52,4.38-4.08,1.56,1.34,3,2.44,4.31,3.73,12.28,12.3,24.63,24.55,36.75,37a13.74,13.74,0,0,0,10.89,4.43c21.33-.17,42.65,0,64-.18,4.18,0,5.66,1.2,5.59,5.35-.2,10.48.09,21-.16,31.43s-5.9,15.87-16.24,15.93c-19.64.13-39.29,0-58.93.05A36.5,36.5,0,0,1,768,305.34c-4.74-4.78-9.49-9.56-14.28-14.28C752.31,289.66,750.73,288.43,748.23,286.27Z"/><path class="cls-1" d="M749,217.8c-8-8-15.87-15.65-23.65-23.39-6-5.94-12-11.83-17.74-18-2.81-3-5.9-4-9.93-4-21,.16-41.91-.06-62.87.23-5.44.07-7.15-1.68-7-7,.35-9.53,0-19.08.06-28.63,0-11.34,5.19-16.52,16.31-16.52,20.21,0,40.42.19,60.63-.07a32.72,32.72,0,0,1,24.21,9.81c5.51,5.34,11,10.71,16.3,16.24,2.62,2.72,4.69,3,7.41.13,4.9-5.15,10.07-10,15.06-15.1,7.3-7.41,15.8-11.31,26.52-11.11,20.39.39,40.79.1,61.18.13,8.64,0,14.27,4.86,14.62,13.54.45,11.39.12,22.82.27,34.23.06,4.71-3.17,4.26-6.15,4.26-21,0-41.92.16-62.87-.09a14.84,14.84,0,0,0-11.8,4.94c-11.87,12.19-24,24.14-36,36.16C752.29,214.88,750.9,216.08,749,217.8Z"/><path class="cls-1" d="M535,446c0,10.29-.11,20.58.06,30.87.07,3.89-.84,5.85-5.26,5.74-15-.38-12.37,1.79-12.52-12.4-.17-14.81-.05-14.81-15.1-14.81-7.86,0-15.74.35-23.57-.14-5.65-.35-7.18,1.8-6.78,7,.39,5,0,10.11.13,15.15.12,3.43-.82,5.19-4.68,5.12-15.84-.28-12.85,1.8-13-12.43-.18-17.77-.07-35.55,0-53.32a17,17,0,0,1,16.51-16.94q23.85-.3,47.71,0c9.07.12,16.47,8,16.5,16.94,0,9.73,0,19.46,0,29.19Zm-63-.14,1,1.11c4.81-7.24,11.74-4.84,18-5,7.1-.22,14.22-.18,21.33,0,3.66.1,5-1.28,4.89-4.92-.19-6.35-.12-12.72,0-19.08,0-2.88-.64-4.6-4-4.58-12.53.09-25.07-.05-37.61.13-1.22,0-3.45,1.55-3.48,2.42C471.88,425.9,472,435.89,472,445.88Z"/><path class="cls-1" d="M812,456.48l18.93,26c-7.18,0-12.71.24-18.2-.16-1.45-.1-3-2-4.08-3.4-4.88-6.39-9.74-12.81-14.34-19.42-2-2.89-4.21-4.32-7.85-4.16-6.17.26-12.36.22-18.53,0-3.46-.12-4.64,1.19-4.53,4.56.19,5.8-.11,11.61.12,17.41.14,3.77-1,5.4-5,5.32-15.33-.32-12.55,1.66-12.68-12.23-.17-18-.06-35.94,0-53.91,0-8.09,7.09-16.36,15-16.51q25.26-.47,50.53,0c7.79.15,15.17,8.62,15.24,16.5,0,5.61-.61,11.32.15,16.83C828.36,444.93,822.64,451.66,812,456.48Zm-3.24-43.07c-14.78,0-28.58-.05-42.38.09-.94,0-2.67,1.31-2.68,2-.18,10.17-.12,20.34-.12,29,5.72-.95,10.72-2.26,15.78-2.5,8.39-.39,16.82.05,25.23-.23,1.42,0,3.94-1.88,4-3C809,430.63,808.8,422.43,808.8,413.41Z"/><path class="cls-1" d="M667,437.56c5.59-1.09,10.07-2.54,14.6-2.72,9.9-.38,19.84.12,29.75-.19,5.79-.18,5.06,3.47,5.07,7s.57,7-5.2,6.88c-12.91-.35-25.83,0-38.74-.18-4.07-.06-5.87,1.13-5.53,5.39a58.62,58.62,0,0,1,0,10.09c-.42,4.51,1.44,5.81,5.8,5.76,16.65-.2,33.31-.09,50-.09,6,0,9.41,5.95,6.26,11.28-.57,1-2.45,1.65-3.73,1.65-20.77.09-41.55.17-62.32,0-6.14-.06-13.54-8-13.57-14.14q-.15-26.67,0-53.34c0-6.44,7.6-14.8,14.32-14.91,20.58-.35,41.16-.26,61.75-.19,6.09,0,3.54,4.93,4,8,.5,3.47-.49,5.63-4.76,5.59-17-.15-34.06.12-51.09-.17-5.15-.09-7,1.45-6.62,6.65C667.29,426.15,667,432.45,667,437.56Z"/><path class="cls-1" d="M569.82,413.38v26.71c6.38-7.72,14.35-5,21.68-5.29,7.85-.28,15.72.05,23.57-.11a16.94,16.94,0,0,1,12.18,4.6c3.86,3.39,5.67,7.11,5.28,12.23-.31,4.09-.07,8.23-.06,12.34,0,12.76-5.89,18.7-18.69,18.71-16.65,0-33.3-.22-49.94.12-5.76.11-5.59-2.92-5.72-7-.15-4.38.84-6.37,5.81-6.27,15.15.3,30.31,0,45.46.19,4.14.05,5.8-1.27,5.47-5.46a72.94,72.94,0,0,1,0-10.66c.28-4-1.48-5.13-5.27-5.08-13.65.16-27.31.1-41,0a16.6,16.6,0,0,1-16.75-16.51c0-4.49,0-9,0-13.47,0-11.68,6.94-18.63,18.72-18.66,16.46,0,32.93.25,49.38-.14,6-.14,5.92,2.93,6.09,7.26.2,4.76-1.07,6.66-6.21,6.55-14.4-.31-28.81-.11-43.21-.1Z"/><path class="cls-1" d="M957.65,399.9c-3.1,10.55-5.8,19.64-8.45,28.74-4.77,16.31-9.64,32.6-14.16,49-1,3.81-2.8,5.12-6.62,5-7.85-.23-15.72.15-23.55-.24-1.85-.09-4.74-1.89-5.23-3.49-7.65-25.39-15-50.88-22.37-76.35a11.08,11.08,0,0,1,.11-2.6c4.79,0,9.62-.44,14.27.25,1.57.23,3.36,3.13,4,5.13,5.75,19.14,11.19,38.38,16.94,57.53.74,2.47.09,7.14,4.56,6.18,1.8-.38,3.59-3.68,4.28-6,5.82-19.31,11.52-38.67,16.93-58.1,1.14-4.1,3.11-5.41,7.09-5.11C949.06,400.12,952.75,399.9,957.65,399.9Z"/><path class="cls-1" d="M1076.4,413.37v62.7c5-8.26,11.68-6.58,17.85-6.62,11-.06,22.09.27,33.12-.13,5.45-.2,5,2.87,4.93,6.37s1.1,7.08-4.9,7c-18-.31-35.93-.05-53.9-.15-7.47,0-15-7.66-15.08-15.11q-.12-25.82,0-51.64c0-7.43,7.78-15.66,15.34-15.75,18.15-.22,36.3-.08,54.45-.14,2.69,0,4,.75,4.17,3.79.59,9.71.72,9.7-8.94,9.7Z"/><path class="cls-1" d="M384.11,471.93c5.76-.87,10.8-2.14,15.87-2.28,11.6-.33,23.22.15,34.81-.24,5.44-.18,6,2.28,6,6.72.07,4.71-1.07,6.63-6.24,6.54-17.59-.29-35.18-.07-52.78-.14-8.05,0-15.21-7.33-15.21-15.28,0-20.4.18-40.81-.12-61.21-.07-5.1,1.59-6.38,6.4-6.25,13.36.37,11.16-.91,11.22,10.94.1,19.1,0,38.19,0,57.28Z"/><path class="cls-1" d="M989.07,471.77c5.82-.83,11-2.08,16.28-2.22,11.59-.33,23.21.14,34.79-.22,5.21-.16,5.29,2.57,5.14,6.28-.15,3.46,1,7.14-4.94,7.06-18.14-.27-36.29,0-54.44-.17-7.25-.05-14.68-7.68-14.69-14.8-.05-20.77.07-41.53-.1-62.3,0-4,1-5.7,5.32-5.59,15.06.38,12.29-1.46,12.41,11.94.16,18.52,0,37,0,55.57C988.88,469.28,989.05,471.25,989.07,471.77Z"/><path class="cls-1" d="M490.57,393.69c-1.3,0-2.61.07-3.91,0-3.9-.24-5.12-2.48-3.26-5.92,3.33-6.16,14.24-10.27,20.87-7.59,3.53,1.43,2.43,4.05.8,6.35C500.89,392.42,498.27,393.68,490.57,393.69Z"/></svg>