<svg xmlns="http://www.w3.org/2000/svg" viewBox="0 0 63.95 26.07"><defs><style>.cls-1{fill:#3c3c3b;}</style></defs><g id="Capa_2" data-name="Capa 2"><g id="Figuras"><path class="cls-1" d="M11,13h2.56a.23.23,0,0,1,.26.15c.49,1.13,1,2.26,1.49,3.38,0,0,0,.06,0,.13H9.77a.65.65,0,0,1-.14,0c-.19,0-.29.05-.37.23-.42,1-.86,2-1.28,2.94a.34.34,0,0,1-.38.24H3.74c.16-.42.34-.78.5-1.16s.33-.73.49-1.1.33-.75.52-1.16H0V0H3.78c0,.54,0,1.08,0,1.61s0,1.08,0,1.62V13a27,27,0,0,0,3.08,0l3.46-7.76.12.23q.92,2.1,1.85,4.2a.39.39,0,0,1,0,.38l-1.16,2.61Z"/><path class="cls-1" d="M63.74,16.28H61.21c0-.1,0-.19,0-.28,0-1.16,0-2.31,0-3.46a7.46,7.46,0,0,0-.09-1.16A1.44,1.44,0,0,0,59.71,10a9.48,9.48,0,0,0-1.3-.1h-6c0,.55,0,1.08,0,1.61v4.75H50c0-.18-.06-15.3,0-15.63l.18,0c2.81,0,5.62,0,8.44,0A8,8,0,0,1,61.05,1a4,4,0,0,1,2.32,1.76,3.78,3.78,0,0,1,.52,1.5,5.11,5.11,0,0,1-.09,2.06,4,4,0,0,1-1.49,2.2l-.18.15a.54.54,0,0,1,.15.09,3.4,3.4,0,0,1,1.38,2.43,14.12,14.12,0,0,1,.09,1.59c0,1.08,0,2.16,0,3.24C63.75,16.11,63.74,16.19,63.74,16.28ZM52.46,7.59l.23,0h5.78A4.48,4.48,0,0,0,60,7.32a2.07,2.07,0,0,0,1.33-1.4,3.26,3.26,0,0,0,0-1.32,1.62,1.62,0,0,0-1-1.32l-.27-.1a4.78,4.78,0,0,0-1.55-.24H52.68l-.22,0Z"/><path class="cls-1" d="M33.49,6.51H31c0-.22-.05-.45-.09-.67A7.86,7.86,0,0,0,30.68,5a2.56,2.56,0,0,0-1.29-1.54A4.57,4.57,0,0,0,27.77,3,9.9,9.9,0,0,0,25,3.09a4.24,4.24,0,0,0-1.19.38,1.69,1.69,0,0,0-1,1.55,5.78,5.78,0,0,0,0,.58,1.12,1.12,0,0,0,.58.89,5.43,5.43,0,0,0,.92.42,14.7,14.7,0,0,0,2.14.49c1.17.24,2.35.41,3.5.73A7.62,7.62,0,0,1,32,8.9a3.67,3.67,0,0,1,1.66,1.92A4.41,4.41,0,0,1,31.86,16a6.65,6.65,0,0,1-2.54,1,13.32,13.32,0,0,1-5.11-.14,6.26,6.26,0,0,1-1.72-.64,5.11,5.11,0,0,1-2.41-3,8.17,8.17,0,0,1-.35-2.41.89.89,0,0,1,0-.15h2.48a7.74,7.74,0,0,0,.07.83,8.38,8.38,0,0,0,.23,1.13,2.82,2.82,0,0,0,1.54,1.75,5.71,5.71,0,0,0,1.91.48,11.88,11.88,0,0,0,2.15,0,5.25,5.25,0,0,0,1.7-.43,3.1,3.1,0,0,0,.47-.26,2,2,0,0,0,.9-1.93,1.41,1.41,0,0,0-.89-1.28,8.12,8.12,0,0,0-1.58-.52L24.9,9.52a10.77,10.77,0,0,1-2.52-.82,6.22,6.22,0,0,1-.84-.53A3.27,3.27,0,0,1,20.27,6.1a4.55,4.55,0,0,1,0-2,3.9,3.9,0,0,1,1.62-2.25,6.15,6.15,0,0,1,2.3-1A11.07,11.07,0,0,1,27.85.71a9.14,9.14,0,0,1,1.94.39,5.07,5.07,0,0,1,3.53,4.13C33.4,5.64,33.43,6.06,33.49,6.51Z"/><path class="cls-1" d="M37.8,2.93V7c.34,0,.67,0,1,0h9.13V9.33H37.83c-.06.21-.06,4.39,0,4.65H48.47a15.16,15.16,0,0,1,0,2.27c-.17.05-12.82.07-13.19,0-.05-.17-.06-15.34,0-15.62H48.37V2.92c-.7,0-1.4,0-2.1,0H37.8Z"/><path class="cls-1" d="M21.58,20.06H19a.33.33,0,0,1-.38-.24c-1.59-3.62-3.2-7.25-4.8-10.87Q12,4.63,10,.32C10,.22,10,.12,9.9,0h2.82Z"/><path class="cls-1" d="M63,23.56h.58a.86.86,0,0,1,0,.17A2.88,2.88,0,0,1,61.11,26a4,4,0,0,1-2-.18,3,3,0,0,1-2-2.25,3.89,3.89,0,0,1,.22-2.54A3.07,3.07,0,0,1,60,19.21a3.66,3.66,0,0,1,2.27.43,2.5,2.5,0,0,1,1.08,1.1,1.35,1.35,0,0,1,.17.72H63s0-.05,0-.08a1.66,1.66,0,0,0-.66-1,2.65,2.65,0,0,0-1.46-.58,3.13,3.13,0,0,0-1.1.06A2.53,2.53,0,0,0,58,21.37a3.16,3.16,0,0,0-.07,2.36,2.63,2.63,0,0,0,2.79,1.75,3.07,3.07,0,0,0,.94-.22A2.24,2.24,0,0,0,63,23.77,1.43,1.43,0,0,1,63,23.56Z"/><path class="cls-1" d="M41.52,19.38c0,.11-.06.18-.09.24-.92,2-1.84,4-2.75,6.05a.29.29,0,0,1-.33.2c-.41,0-.32.06-.5-.32q-1.34-2.93-2.66-5.85a2.13,2.13,0,0,1-.12-.29,1.74,1.74,0,0,1,.6,0s.1.09.13.15c.15.32.29.65.44,1q1,2.18,1.93,4.35a2.72,2.72,0,0,0,.12.25l.13-.26c.77-1.74,1.55-3.48,2.31-5.23a.33.33,0,0,1,.38-.25A2.79,2.79,0,0,0,41.52,19.38Z"/><path class="cls-1" d="M47,19.4h.53c0,.66,0,1.31,0,2v3.92h4.23v.54c-.17.05-4.49.06-4.78,0C47,25.67,47,19.71,47,19.4Z"/></g></g></svg>