<svg xmlns="http://www.w3.org/2000/svg" viewBox="0 0 86.85 26.8"><defs><style>.cls-1{fill:#3c3c3b;}</style></defs><g id="Capa_2" data-name="Capa 2"><g id="Figuras"><path class="cls-1" d="M14.37,24.37c.43.83,1,1.54,1.55,2.35l-.3.05a19.13,19.13,0,0,1-8.43-1.34A12.9,12.9,0,0,1,2,21.76,7.94,7.94,0,0,1,.05,16.84,11.19,11.19,0,0,1,0,15a4.15,4.15,0,0,1,2.19-3A12.3,12.3,0,0,1,5,10.79a.43.43,0,0,0,.31-.34,19.11,19.11,0,0,1,4.38-8A7.38,7.38,0,0,1,13,.2a5.21,5.21,0,0,1,4.67,1,13.82,13.82,0,0,1,3,3.27,18.61,18.61,0,0,1,2.8,6,.44.44,0,0,0,.32.34,11.16,11.16,0,0,1,3.35,1.66,3.85,3.85,0,0,1,1.57,2.52,8.12,8.12,0,0,1,0,1.56A8.45,8.45,0,0,1,28,19.88a10.56,10.56,0,0,1-3.92,4.25,15.77,15.77,0,0,1-5,2.11.65.65,0,0,1-.45-.08,16.82,16.82,0,0,0-3.69-1.74l-.45-.13-.09.08M15,19.43c.66-.06,2-.14,3.28-.29a17.2,17.2,0,0,0,4.35-1.07.36.36,0,0,0,.27-.41A27.74,27.74,0,0,0,22.24,12,17.06,17.06,0,0,0,18.67,4.6a9.55,9.55,0,0,0-3.08-2.53,2.55,2.55,0,0,0-1.67-.26,4.25,4.25,0,0,0-1.62.77A13.82,13.82,0,0,0,8.89,6.32a21.07,21.07,0,0,0-3,11.48A.31.31,0,0,0,6,18a12.69,12.69,0,0,0,1.22.45,27,27,0,0,0,7.77.95M4.61,12.7a3.68,3.68,0,0,0-1.68,2A2.12,2.12,0,0,0,4.11,17c.16-1.4.32-2.8.5-4.28M24.69,17a2,2,0,0,0,1.06-2.26c-.12-.91-.95-1.94-1.58-2,.17,1.41.35,2.83.52,4.27"/><path class="cls-1" d="M45,4.65v6.13h-1V3c.4,0,.79,0,1.19,0,.06,0,.15.12.19.2l2.16,5.21a9,9,0,0,0,.44,1V3h1v7.76c-.43,0-.86,0-1.28,0-.07,0-.16-.13-.19-.22L45.21,4.88a2.56,2.56,0,0,0-.11-.24H45"/><path class="cls-1" d="M82.77,10.75h-1V3c.4,0,.79,0,1.19,0,.07,0,.15.12.19.2q1,2.47,2.06,5a9,9,0,0,0,.56,1.17V3h1v7.77c-.44,0-.88,0-1.31,0-.07,0-.14-.14-.18-.23-.78-1.89-1.57-3.78-2.35-5.68a1,1,0,0,0-.16-.25Z"/><path class="cls-1" d="M56.65,7.33v3.43h-1V3l.1,0c1,0,1.91,0,2.86,0a1.77,1.77,0,0,1,1.73,1.8,2.15,2.15,0,0,1-.46,1.61,4.26,4.26,0,0,1-.63.49l.12.05a1.22,1.22,0,0,1,.85,1.09c.06.58.08,1.15.12,1.72a1.27,1.27,0,0,0,.39,1c-.4,0-.75,0-1.09,0-.09,0-.22-.15-.24-.25-.08-.55-.12-1.1-.19-1.65A4.6,4.6,0,0,0,59.09,8a.84.84,0,0,0-.87-.7c-.51,0-1,0-1.57,0m0-.78c.57,0,1.1,0,1.62-.08s1-.56,1-1.38a1.09,1.09,0,0,0-.91-1.21,16.06,16.06,0,0,0-1.72-.1c0,.14,0,.21,0,.28V6.55"/><path class="cls-1" d="M36.54,5.17c0-.17-.06-.35-.1-.52a1.19,1.19,0,0,0-1.07-1A1.24,1.24,0,0,0,34,4.38a3.51,3.51,0,0,0-.31,1.14,10.57,10.57,0,0,0,.09,3.32,2.18,2.18,0,0,0,.23.63,1.33,1.33,0,0,0,2.3,0,4.14,4.14,0,0,0,.36-1.95H35.09V6.77h2.48v4h-.71V9.83a.84.84,0,0,0-.1.1A1.79,1.79,0,0,1,35,11a2,2,0,0,1-1.93-1.17,6,6,0,0,1-.43-1.6,8.7,8.7,0,0,1,.18-3.48,2.49,2.49,0,0,1,3.64-1.58,2.15,2.15,0,0,1,1.13,2Z"/><path class="cls-1" d="M80.58,6.86a7.63,7.63,0,0,1-.37,2.47,2.43,2.43,0,0,1-4.58,0,7.37,7.37,0,0,1-.3-2.91,7.79,7.79,0,0,1,.32-1.93,2.43,2.43,0,0,1,3.93-1,2.94,2.94,0,0,1,.84,1.81c.08.54.11,1.08.16,1.63m-1,0h-.07c0-.29,0-.58,0-.87a4.09,4.09,0,0,0-.34-1.62,1.29,1.29,0,0,0-1.5-.72,1.42,1.42,0,0,0-1.1,1.28,10.46,10.46,0,0,0-.09,3.35,4.05,4.05,0,0,0,.32,1.13,1.09,1.09,0,0,0,1,.69,1.29,1.29,0,0,0,1.48-1.16c.14-.68.17-1.38.25-2.07"/><path class="cls-1" d="M66.63,10.77c-.3,0-.59,0-.88,0a.28.28,0,0,1-.2-.17c-.16-.57-.32-1.14-.47-1.71a.28.28,0,0,0-.32-.26c-.69,0-1.39,0-2.09,0-.19,0-.26.06-.3.23-.17.64-.36,1.27-.53,1.9H60.78c.18-.6.35-1.2.53-1.79.58-1.91,1.16-3.83,1.72-5.74.06-.2.14-.26.33-.25s.61,0,.91,0a.31.31,0,0,1,.23.17c.71,2.48,1.41,5,2.11,7.45,0,0,0,.09,0,.16M64.8,7.82c-.34-1.22-.68-2.43-1-3.64h-.06C63.37,5.4,63,6.6,62.65,7.83Z"/><path class="cls-1" d="M43.11,9.94v.83H38.79V3H43v.85H39.78c0,.77,0,1.51,0,2.25,0,.06.15.15.23.15h2.47c.26,0,.35.07.32.33a4.86,4.86,0,0,0,0,.54h-3V9.94Z"/><path class="cls-1" d="M59.19,24.36h-.1c-.83,0-.83,0-1.17-.74q-1.29-2.85-2.57-5.71c0-.07-.08-.14-.15-.29v6.73h-.71V16.6c.29,0,.57,0,.85,0,.07,0,.16.12.19.2.94,2.05,1.86,4.11,2.79,6.17a.69.69,0,0,0,.17.26V16.61h.72Z"/><path class="cls-1" d="M75,23.19v-6.6h.7v7.77a7.42,7.42,0,0,1-.82,0c-.09,0-.19-.14-.23-.23-.56-1.22-1.11-2.45-1.66-3.68-.39-.85-.77-1.71-1.16-2.57l-.13-.25v6.72H71V24q0-3.57,0-7.14c0-.26.08-.31.33-.34a.77.77,0,0,1,.91.58C73,19.09,73.92,21,74.8,23l.12.24H75"/><polygon class="cls-1" points="54.69 9.92 54.69 10.77 50.38 10.78 50.38 3.02 54.54 3.01 54.54 3.86 51.4 3.87 51.4 6.28 54.37 6.28 54.37 7.14 51.4 7.14 51.41 9.93 54.69 9.92"/><path class="cls-1" d="M72.11,5.27h-.87c-.14,0-.2,0-.2-.2A2.63,2.63,0,0,0,71,4.68a1.17,1.17,0,0,0-1.09-1,1.22,1.22,0,0,0-1.41.82A6.41,6.41,0,0,0,68.18,6a9,9,0,0,0,.14,2.78,2.87,2.87,0,0,0,.23.64,1.23,1.23,0,0,0,1.32.66,1.11,1.11,0,0,0,1.06-.83c.11-.37.16-.77.24-1.17h1c.05,1.76-1,3-2.63,2.81a2.23,2.23,0,0,1-2.21-2,8.74,8.74,0,0,1,.07-4.25,2.52,2.52,0,0,1,3.8-1.47,2.3,2.3,0,0,1,1,2.09"/><path class="cls-1" d="M48.17,20.49a8.5,8.5,0,0,1,.4-2.46,2.29,2.29,0,0,1,3.1-1.39A2.22,2.22,0,0,1,53,18.27a8.15,8.15,0,0,1,0,4.59,2.29,2.29,0,0,1-3.36,1.38,2.48,2.48,0,0,1-1.21-1.85c-.12-.63-.16-1.27-.24-1.9m.8,0c0,.29,0,.57,0,.85a4.47,4.47,0,0,0,.45,1.79A1.48,1.48,0,0,0,51,23.9a1.57,1.57,0,0,0,1.3-1.22,7.36,7.36,0,0,0,.27-2.76,5.2,5.2,0,0,0-.38-1.87,1.47,1.47,0,0,0-1-.91,1.54,1.54,0,0,0-1.92,1A5.83,5.83,0,0,0,49,20.48"/><path class="cls-1" d="M37.31,22H38c0,.19,0,.38,0,.56a1.43,1.43,0,0,0,1.64,1.38,1.48,1.48,0,0,0,1.47-.82,1.46,1.46,0,0,0-.7-2.05c-.55-.24-1.13-.41-1.69-.63A1.8,1.8,0,0,1,37.47,19a2.07,2.07,0,0,1,2.45-2.49,3.91,3.91,0,0,1,.58.1,1.79,1.79,0,0,1,1.27,2H41.1a2.93,2.93,0,0,0-.05-.29,1.33,1.33,0,0,0-1.74-1.2,1.3,1.3,0,0,0-1.13,1.16,1.32,1.32,0,0,0,.69,1.43,9.07,9.07,0,0,0,1.06.44c.25.1.52.17.77.27A1.85,1.85,0,0,1,42,22.73a2,2,0,0,1-2,1.77,4.63,4.63,0,0,1-1.18-.07,1.88,1.88,0,0,1-1.47-1.76c0-.22,0-.43,0-.68"/><path class="cls-1" d="M86.85,24.34h-.76c-.2-.68-.4-1.36-.59-2.05,0-.13-.07-.21-.24-.21H82.67c-.21.75-.43,1.5-.64,2.25h-.77l.66-2.19,1.59-5.32a.31.31,0,0,1,.37-.27c.62,0,.62,0,.8.58l2.13,7.06,0,.14M84.07,17.2h0c-.39,1.41-.79,2.83-1.19,4.26h2.44c-.4-1.44-.8-2.86-1.2-4.27"/><path class="cls-1" d="M65.54,24.36h-.77c.23-.79.46-1.56.69-2.33C66,20.3,66.51,18.58,67,16.85a.33.33,0,0,1,.37-.28c.61,0,.62,0,.79.58.72,2.37,1.44,4.73,2.15,7.1a.62.62,0,0,1,0,.1H69.6c-.19-.65-.4-1.31-.57-2-.06-.22-.15-.28-.36-.27H66.4a.24.24,0,0,0-.28.22c-.19.68-.39,1.35-.58,2m2-7.23c-.42,1.5-.82,2.92-1.22,4.36h2.44c-.4-1.44-.8-2.85-1.22-4.35"/><path class="cls-1" d="M43.67,21v3.38H43V16.66s0,0,0,0c.88,0,1.77,0,2.65,0a1.69,1.69,0,0,1,1.57,1.5,3.9,3.9,0,0,1,0,1.18A1.9,1.9,0,0,1,45.33,21c-.53,0-1.07,0-1.66,0m0-.57H44c.45,0,.91,0,1.36-.05a1.27,1.27,0,0,0,1.16-1.1,3.44,3.44,0,0,0,0-1.06,1,1,0,0,0-.84-.88c-.63-.11-1.28-.12-1.94-.17Z"/><polygon class="cls-1" points="80.66 19.99 80.67 20.59 77.69 20.59 77.7 23.76 80.99 23.76 80.99 24.33 76.97 24.34 76.96 16.59 80.88 16.59 80.88 17.16 77.69 17.17 77.69 19.99 80.66 19.99"/><polygon class="cls-1" points="33.41 20.05 36.38 20.05 36.38 20.63 33.4 20.64 33.41 23.81 36.69 23.8 36.7 24.38 32.67 24.39 32.66 16.64 36.59 16.64 36.59 17.2 33.41 17.21 33.41 20.05"/><path class="cls-1" d="M73.12,3c.24,0,.46,0,.67,0s.34.06.33.33c0,1.62,0,3.24,0,4.86v2.59h-1Z"/><polygon class="cls-1" points="64.7 17.19 62.67 17.19 62.68 24.36 61.96 24.36 61.95 17.2 59.91 17.2 59.91 16.61 64.7 16.6 64.7 17.19"/><path class="cls-1" d="M77.37,2.52c.24-.48.48-.94.73-1.4a.22.22,0,0,1,.17-.1h1l-.61.78a1.7,1.7,0,0,0-.26.34.8.8,0,0,1-1,.39"/><path class="cls-1" d="M67.05,16.26l.81-1.48a.21.21,0,0,1,.15-.09h.7c-.36.51-.68,1-1,1.44-.1.12-.36.09-.62.13"/></g></g></svg>