<svg xmlns="http://www.w3.org/2000/svg" viewBox="0 0 60.77 36.31"><defs><style>.cls-1{fill:#3c3c3b;}</style></defs><g id="Capa_2" data-name="Capa 2"><g id="Textos"><path class="cls-1" d="M29.29,27.45c-2.18-.09-4.26.2-6.31-.38a5.58,5.58,0,0,1-4.44-5.79c0-3.14,0-6.27,0-9.41V11H13.18V5.13c.79,0,1.53,0,2.26,0a7.07,7.07,0,0,0,1.65-.24,1.82,1.82,0,0,0,1.48-2c0-.94,0-1.89,0-2.88H24V5.09h5.18V0H45.27V5.51a5.25,5.25,0,0,0-6.13,2.36V5.31c-.29,0-.48-.06-.68-.06-2.84,0-5.67,0-8.5,0-.57,0-.71.19-.7.72,0,1.39,0,2.79,0,4.18,0,.57.15.78.74.76,1.49,0,3,0,4.52,0V21.72H29.29ZM24,11c0,3.12,0,6.19,0,9.25a1.31,1.31,0,0,0,1.12,1.32c1.34,0,2.68,0,4.07,0V11Z"/><path class="cls-1" d="M45.25,10.52v16.9H33l0-.1c.63-.07,1.25-.16,1.88-.2,2.1-.14,4.22-1.29,4.67-3.45a8.3,8.3,0,0,0,.06-1.73V15.32a3.94,3.94,0,0,1,3-4.22A25.14,25.14,0,0,1,45.25,10.52Z"/><path class="cls-1" d="M31.37,31.44h2a1.26,1.26,0,0,1,1.4,1A1.51,1.51,0,0,1,34,34.13l1.15,1.95c-.93.27-1,.23-1.45-.47a7.22,7.22,0,0,0-.63-1c-.15-.19-.43-.26-.78-.46v2h-.9Zm.93,2.14c.55-.18,1-.3,1.44-.48a.66.66,0,0,0,0-.48c-.44-.15-.9-.25-1.43-.39Z"/><path class="cls-1" d="M11.86,31.53a.84.84,0,0,1,1.21.49,11,11,0,0,0,1.27,2.08V31.48h.8v4.67a.86.86,0,0,1-1.2-.55,11.69,11.69,0,0,0-1.26-2.07v2.64h-.82Z"/><path class="cls-1" d="M46.78,36.14a.84.84,0,0,1-1.19-.51,14.79,14.79,0,0,0-1.25-2.11v2.64h-.83V31.54c.61-.24,1,0,1.21.54A12.1,12.1,0,0,0,46,34.13V31.51h.83Z"/><path class="cls-1" d="M49.29,31.51a19.41,19.41,0,0,1,2.16,0,1.35,1.35,0,0,1,1.15,1.24,6.56,6.56,0,0,1,0,2.12,1.58,1.58,0,0,1-1.71,1.32c-1.68.08-1.68.08-1.68-1.58,0-1,0-2,0-2.92A1.19,1.19,0,0,1,49.29,31.51Zm.89,4.06c.59-.27,1.21-.35,1.41-.69a2.07,2.07,0,0,0,0-2.18c-.32-.54-.87-.37-1.38-.31Z"/><path class="cls-1" d="M3.9,36.18V31.49h3v.84H4.84l0,.94h2v.88H4.85v1.16h2.2v.87Z"/><path class="cls-1" d="M26.54,34.52c.2.53.45,1,1.05.84a.76.76,0,0,0,.51-.46c0-.15-.19-.44-.37-.54S27,34.15,26.68,34a1.32,1.32,0,0,1-.84-1.45A1.27,1.27,0,0,1,27,31.39c1.17-.25,2,.35,2,1.45-.42.09-.82.21-1.09-.36-.07-.14-.48-.16-.73-.16s-.31.18-.32.29a.46.46,0,0,0,.24.37c.29.14.61.21.91.32a1.49,1.49,0,0,1,1.16,1.79c-.13.78-.67,1.17-1.63,1.17-1.2,0-1.72-.47-1.75-1.66Z"/><path class="cls-1" d="M60.56,32.89c-.38,0-.79.2-1-.37-.07-.15-.47-.21-.72-.21a.48.48,0,0,0-.37.32c0,.12.17.32.31.38a7.72,7.72,0,0,0,.85.29A1.48,1.48,0,0,1,60.75,35c-.14.86-.63,1.24-1.63,1.24-1.21,0-1.69-.44-1.77-1.64.47-.15.82-.15,1.1.4.11.21.62.26.95.28.11,0,.33-.28.33-.44a.63.63,0,0,0-.3-.47c-.3-.15-.66-.21-1-.34a1.32,1.32,0,0,1-1-1.54,1.34,1.34,0,0,1,1.36-1.15C59.94,31.25,60.63,31.84,60.56,32.89Z"/><path class="cls-1" d="M38.59,31.45v.91H36.42v.91h2v.88h-2v1.16h2.24v.87H35.55V31.45Z"/><path class="cls-1" d="M39.41,31.47h.83c0,.82,0,1.6,0,2.38a2.18,2.18,0,0,0,.06.89c.14.26.45.59.69.6a.88.88,0,0,0,.7-.56c.1-.85.07-1.71.09-2.57,0-.23,0-.45,0-.73h.84c0,1.27,0,2.49,0,3.71a1.23,1.23,0,0,1-1.33,1.07c-1.16,0-1.77-.23-1.84-1C39.33,34,39.41,32.77,39.41,31.47Z"/><path class="cls-1" d="M57.18,36.1c-1.1.46-1.15-.35-1.38-.93H54.29c-.22.57-.28,1.41-1.34.94.51-1.47,1-3,1.54-4.42,0-.14.36-.25.55-.25s.5.11.55.25C56.14,33.15,56.66,34.63,57.18,36.1Zm-1.67-1.86L55.09,33l-.14,0-.35,1.17Z"/><path class="cls-1" d="M22.66,35.15c-.2.66-.32,1.39-1.33,1,.5-1.48,1-3,1.52-4.44.13-.35,1-.38,1.1,0,.56,1.48,1.07,3,1.61,4.5-.64.15-1.12.18-1.22-.55-.05-.36-.28-.48-.64-.45S23.05,35.15,22.66,35.15Zm1.2-.91L23.47,33l-.14,0L23,34.24Z"/><path class="cls-1" d="M11.14,32.85l-.74.21c-.09-.13-.17-.26-.27-.38-.46-.56-1.22-.51-1.42.18a3.83,3.83,0,0,0-.05,1.75,1.17,1.17,0,0,0,.78.72c.19.05.51-.35.76-.57a1.65,1.65,0,0,0,.17-.37l.81.27A1.7,1.7,0,0,1,10,36.24a1.78,1.78,0,0,1-2.06-.79,3.18,3.18,0,0,1,0-3.26A1.79,1.79,0,0,1,10,31.41,1.46,1.46,0,0,1,11.14,32.85Z"/><path class="cls-1" d="M20.29,34.41l.76.24A1.59,1.59,0,0,1,20,36.21a1.86,1.86,0,0,1-2.07-.6A3.33,3.33,0,0,1,18,32a1.79,1.79,0,0,1,1.94-.59,1.5,1.5,0,0,1,1.18,1.4l-.79.24.06-.21c-.4-.17-.83-.52-1.2-.47-.65.09-.72.74-.75,1.31a1.31,1.31,0,0,0,0,.28c0,.59.11,1.28.81,1.34.36,0,.77-.44,1.16-.68Z"/><path class="cls-1" d="M0,32.3v-.82H3.3v.76s-.06.07-.09.07c-1.06.09-1.06.09-1.06,1.19v2.68H1.26V32.39Z"/><path class="cls-1" d="M48.46,36.19H47.6V31.48h.86Z"/><path class="cls-1" d="M16,31.44h.81v4.74H16Z"/></g></g></svg>