<svg xmlns="http://www.w3.org/2000/svg" viewBox="0 0 58.42 26.26"><defs><style>.cls-1{fill:#3c3c3b;}</style></defs><g id="Capa_2" data-name="Capa 2"><g id="Figuras"><path class="cls-1" d="M10.25,11.24c.5-.7,1-1.4,1.51-2.12a.68.68,0,0,1,.64-.32c1.15,0,2.31,0,3.47,0h.34l.45,2.6a3,3,0,0,0,.22-.35C18.45,8.43,20,5.81,21.59,3.17a.5.5,0,0,1,.47-.28c1.31,0,2.61,0,3.91,0l.31,0-.16.3L17,18.82a.47.47,0,0,1-.47.27c-1.19,0-2.38,0-3.56,0-.2,0-.3,0-.33-.27-.1-.82-.23-1.63-.36-2.53-.1.14-.17.22-.22.3-.5.75-1,1.51-1.49,2.27a.46.46,0,0,1-.45.23q-1.63,0-3.27,0c-.19,0-.26-.06-.27-.26l-.3-5.94L5.86,5.67c0-.82-.08-1.63-.13-2.45v-.3h4l.39,8.31Z"/><path class="cls-1" d="M18.05,19.07,20,15.81,27.32,3.18a.51.51,0,0,1,.5-.29H39c0,.09-.07.16-.11.22L36.85,6.66a.41.41,0,0,1-.41.23H30.19a.45.45,0,0,0-.46.26c-.31.54-.65,1.07-1,1.65h6.83l-.15.29c-.68,1.15-1.36,2.31-2,3.47a.45.45,0,0,1-.45.26H26.67a.49.49,0,0,0-.5.29c-.33.59-.69,1.18-1,1.77-.05.08-.09.16-.16.29h6.83l-.11.25c-.69,1.16-1.38,2.32-2.06,3.48a.34.34,0,0,1-.34.21c-3.69,0-7.37,0-11.06,0Z"/><path class="cls-1" d="M51.71,1.72a7,7,0,0,1,.56-1A1.86,1.86,0,0,1,54.16,0a1.87,1.87,0,0,1,1.53,1.37c.08.25.18.31.42.3.76,0,1.52,0,2.31,0v.56h-.31c-.68,0-1.37,0-2,0-.19,0-.28,0-.34.24a2,2,0,0,1-3.86,0c0-.18-.12-.26-.31-.24a2.8,2.8,0,0,1-.29,0H0V1.72ZM53.8.58A1.42,1.42,0,0,0,52.36,2,1.44,1.44,0,1,0,53.8.58Z"/><path class="cls-1" d="M51.78,19.69c.4-1.19,1.09-1.75,2.06-1.72a2,2,0,0,1,1.95,1.71h2.63v.57H55.81C55.38,21.44,54.7,22,53.74,22a2,2,0,0,1-2-1.7H0v-.57Zm2-1.14A1.42,1.42,0,0,0,52.36,20a1.44,1.44,0,0,0,2.87,0A1.44,1.44,0,0,0,53.8,18.55Z"/><path class="cls-1" d="M45.08,15.73H32.77c.09-.47.22-.58.66-.58H45.07c0-.1.06-.18.08-.26a2,2,0,0,1,1.91-1.45A2,2,0,0,1,49,14.88a.32.32,0,0,0,.38.28h9.05v.57h-9c-.25,0-.37,0-.44.31a2,2,0,0,1-1.91,1.4A2,2,0,0,1,45.16,16C45.14,15.93,45.11,15.84,45.08,15.73Zm2,1.13a1.44,1.44,0,0,0,1.43-1.44,1.43,1.43,0,1,0-1.43,1.44Z"/><path class="cls-1" d="M35.41,11.18a.71.71,0,0,1,.78-.59q7.62,0,15.23,0h.36a2,2,0,0,1,2-1.7c1,0,1.63.51,2,1.69h2.61v.58H56c-.13,0-.21,0-.26.18a2,2,0,0,1-3.91,0l0-.13Zm18.37-1.7a1.42,1.42,0,0,0-1.42,1.41,1.44,1.44,0,1,0,2.87,0A1.43,1.43,0,0,0,53.78,9.48Z"/><path class="cls-1" d="M45.08,6.65h-7c.08-.44.23-.57.63-.57H45a6,6,0,0,1,.53-1A2,2,0,0,1,49,5.78c.08.26.19.31.44.31h9v.57H49.07A2.06,2.06,0,0,1,48.16,8,2,2,0,0,1,47,8.36,2.06,2.06,0,0,1,45.08,6.65Zm2,1.13a1.42,1.42,0,0,0,1.43-1.43,1.43,1.43,0,0,0-2.86,0A1.41,1.41,0,0,0,47.08,7.78Z"/><path class="cls-1" d="M8.23,24.74c.22-.68.42-1.28.59-1.89.06-.22.15-.31.39-.3.49,0,.5,0,.64.47s.35,1.09.54,1.72c.22-.67.43-1.26.6-1.86.07-.26.19-.36.46-.33s.42,0,.68,0c-.08.26-.15.49-.23.71-.3.89-.61,1.79-.9,2.68-.05.14-.1.23-.28.21H10l-.63-2H9.28l-.6,2H8.62c-.29,0-.64.11-.85,0s-.22-.5-.32-.76l-1-2.79c.33,0,.62,0,.91,0,.07,0,.15.12.18.21C7.78,23.41,8,24,8.23,24.74Z"/><path class="cls-1" d="M48.93,22.58c.3,0,.58,0,.86,0a.46.46,0,0,1,.26.18c.26.31.49.64.74,1l.73,1V22.59h1v3.57c-.31,0-.63,0-.94,0-.07,0-.15-.1-.2-.18L49.91,24v2.1h-1Z"/><path class="cls-1" d="M48.48,24.47a1.91,1.91,0,0,1-2.18,1.78,1.82,1.82,0,0,1-1.78-2.05,1.87,1.87,0,0,1,2.18-1.72A1.78,1.78,0,0,1,48.48,24.47Zm-2.93-.06a.88.88,0,0,0,.45.89A.94.94,0,0,0,47.26,25a1.25,1.25,0,0,0-.14-1.51,1,1,0,0,0-1.06-.12A1,1,0,0,0,45.55,24.41Z"/><path class="cls-1" d="M21.88,22.57h1v1.31H24v-1.3h1v3.55h-1c0-.34,0-.7,0-1.05s-.08-.38-.36-.35-.52,0-.8,0v1.4h-1Z"/><path class="cls-1" d="M36,24.75v1.39H35V22.59h1V23.9l.06,0c.29-.4.56-.8.87-1.18a.54.54,0,0,1,.34-.18c.33,0,.65,0,1,0L37,24.31l1.46,1.84H37.17c-.06,0-.12-.11-.17-.17l-.9-1.24Z"/><path class="cls-1" d="M56,24.76v1.37H55V22.59h1V23.9l.08,0a6.09,6.09,0,0,0,.51-.74,1.08,1.08,0,0,1,1.28-.65,3.75,3.75,0,0,0,.48,0L56.9,24.31l1.47,1.84H57.1c-.06,0-.13-.11-.18-.17L56,24.73Z"/><path class="cls-1" d="M16.11,22.58c.59,0,1.17,0,1.74,0a.84.84,0,0,1,.81.68,1.18,1.18,0,0,1-.3,1.25,1.93,1.93,0,0,1-.21.17l.94,1.46c-.4,0-.76,0-1.12,0-.06,0-.13-.1-.18-.17a8.9,8.9,0,0,0-.72-1v1.11h-1Zm1,1.56c.24,0,.49.06.59-.2s.05-.38,0-.44a1.43,1.43,0,0,0-.55-.16Z"/><path class="cls-1" d="M41.54,22.58c.58,0,1.16,0,1.74,0a.85.85,0,0,1,.8.69,1.17,1.17,0,0,1-.31,1.25l-.22.16,1,1.46c-.42,0-.79,0-1.15,0-.06,0-.13-.1-.18-.17-.21-.32-.42-.64-.69-1v1.19h-1Zm.94,1.55c.23,0,.47.07.58-.15s.08-.37,0-.44a1.56,1.56,0,0,0-.58-.24Z"/><path class="cls-1" d="M14.58,22.58h1c0,.11,0,.21,0,.31,0,.63,0,1.27,0,1.9,0,.88-.33,1.29-1.2,1.4a3.85,3.85,0,0,1-1.12-.05,1,1,0,0,1-.84-1c0-.84,0-1.69,0-2.56h1c0,.1,0,.2,0,.3,0,.65,0,1.31,0,2a.51.51,0,0,0,.5.56.57.57,0,0,0,.63-.48,1.62,1.62,0,0,0,0-.31v-2Z"/><path class="cls-1" d="M32.37,26.13V22.59h2.09v.79h-1.1v.53h1v.84h-1v.58h1.15v.8Z"/><path class="cls-1" d="M27.1,22.58h2.07v.8H28.08v.53h1v.83h-1v.59h1.14v.8H27.1Z"/><path class="cls-1" d="M20.81,26.15h-1V23.39h-.74v-.8h2.49v.79h-.75Z"/><path class="cls-1" d="M40.39,26.14h-1V23.39h-.74v-.8h2.48v.79h-.73Z"/><path class="cls-1" d="M30.81,25.34h1.11v.79H29.8V22.59h1Z"/><path class="cls-1" d="M53.29,22.57h1v3.56h-1Z"/><path class="cls-1" d="M5.17,15.17l0,.53H0v-.53Z"/><path class="cls-1" d="M4.93,10.63l0,.53H0v-.53Z"/><path class="cls-1" d="M4.69,6.1l0,.53H0V6.1Z"/><path class="cls-1" d="M13.35,21.26a.46.46,0,0,1,0,.91.46.46,0,1,1,0-.91Z"/><path class="cls-1" d="M15.09,21.71a.47.47,0,0,1-.46.46.46.46,0,0,1-.45-.47.47.47,0,0,1,.44-.44A.47.47,0,0,1,15.09,21.71Z"/><path class="cls-1" d="M17.07,24.14v-.8a1.43,1.43,0,0,1,.55.16c.09.06.09.31,0,.44S17.31,24.16,17.07,24.14Z"/></g></g></svg>