<svg xmlns="http://www.w3.org/2000/svg" viewBox="0 0 109.95 14.48"><defs><style>.cls-1{fill:#3c3c3b;}</style></defs><g id="Capa_2" data-name="Capa 2"><g id="Figuras"><path class="cls-1" d="M35.21,14.25h-3V14c0-1.83,0-3.66,0-5.49a4.06,4.06,0,0,0-.16-1.1,1.49,1.49,0,0,0-1.45-1.07,1.57,1.57,0,0,0-1.68,1,3.35,3.35,0,0,0-.23,1.13c0,1.86,0,3.71,0,5.56v.31h-3V8.41a4.7,4.7,0,0,0-.1-.84,1.57,1.57,0,0,0-1.57-1.28,1.63,1.63,0,0,0-1.74,1.22,3.87,3.87,0,0,0-.12,1c0,1.8,0,3.6,0,5.4v.32h-3V14q0-4.92,0-9.86c0-.24.06-.32.31-.31.81,0,1.63,0,2.44,0,.18,0,.25.05.24.24,0,.38,0,.76,0,1.17a3.8,3.8,0,0,1,3-1.6,3.18,3.18,0,0,1,3,1.63c.24-.22.45-.46.69-.65a4.2,4.2,0,0,1,4.4-.65,2.89,2.89,0,0,1,1.76,2.29,5.93,5.93,0,0,1,.12,1.19c0,2.17,0,4.34,0,6.52Z"/><path class="cls-1" d="M85.32,14.25h-3c0-.11,0-.21,0-.31,0-1.87,0-3.73,0-5.59a3.21,3.21,0,0,0-.18-1.07A1.72,1.72,0,0,0,79,7.37a4.49,4.49,0,0,0-.19,1.27c0,1.76,0,3.53,0,5.29v.31h-3V3.81h2.94V5.18l.06,0a3.69,3.69,0,0,1,3-1.63,3.15,3.15,0,0,1,3,1.63c.26-.24.49-.49.75-.69A4.2,4.2,0,0,1,90,4a3,3,0,0,1,1.68,2.31,6.75,6.75,0,0,1,.11,1.19c0,2.2,0,4.41,0,6.61a1.09,1.09,0,0,1,0,.17h-3V14c0-1.85,0-3.69,0-5.54a3.86,3.86,0,0,0-.17-1.07,1.45,1.45,0,0,0-1.39-1,1.64,1.64,0,0,0-1.69.83,2.69,2.69,0,0,0-.28,1.28c0,1.83,0,3.67,0,5.51Z"/><path class="cls-1" d="M55.63,5V0h3V14.25h-3V12.81c-.16.18-.26.3-.38.42a4,4,0,0,1-4.32,1,4.3,4.3,0,0,1-2.78-2.53A6.38,6.38,0,0,1,48.35,6a4.49,4.49,0,0,1,6-1.9A10.61,10.61,0,0,1,55.63,5Zm0,3.91a3.12,3.12,0,0,0-.39-1.54,2.44,2.44,0,0,0-4-.43,3.35,3.35,0,0,0,0,4.14A2.43,2.43,0,0,0,55.05,11,3.18,3.18,0,0,0,55.67,8.94Z"/><path class="cls-1" d="M94.24,6.78l-.76-2.31c.63-.2,1.23-.43,1.85-.57a8.88,8.88,0,0,1,3.94,0,3.62,3.62,0,0,1,2.88,3.2,11.9,11.9,0,0,1,.1,1.34c0,1.84,0,3.69,0,5.54v.3H99.36v-1l-.11.07a4.24,4.24,0,0,1-3.61,1.15,3.32,3.32,0,0,1-2.41-1.23A3.22,3.22,0,0,1,95,8.12,7.39,7.39,0,0,1,99,8.19l.25.07h.07a1.71,1.71,0,0,0-1.45-2,6.37,6.37,0,0,0-3,.27C94.69,6.62,94.48,6.7,94.24,6.78Zm3.33,2.8,0,.08a2.63,2.63,0,0,0-1.49.35,1.27,1.27,0,0,0-.58,1.23,1.12,1.12,0,0,0,.83,1,3,3,0,0,0,1,.13c1.1-.05,2.23-.62,2.14-2.14,0-.17-.05-.26-.21-.3Z"/><path class="cls-1" d="M43.61,14.24V12.89c-.29.27-.55.54-.84.79a3.68,3.68,0,0,1-4.67-.08A3.55,3.55,0,0,1,37,11.24c0-.4-.05-.8-.05-1.19V3.8h2.69c.23,0,.31.05.3.3,0,1.85,0,3.71,0,5.56a3.3,3.3,0,0,0,.08.77,1.65,1.65,0,0,0,2,1.34,1.79,1.79,0,0,0,1.6-2v-6h3V14.24Z"/><path class="cls-1" d="M74.43,14.25h-3c0-.1,0-.21,0-.31,0-1.83,0-3.67,0-5.51a3.17,3.17,0,0,0-.09-.82,1.64,1.64,0,0,0-2-1.3,1.75,1.75,0,0,0-1.56,1.92c0,1.91,0,3.81,0,5.71v.3h-3V3.8h3V5.25l.37-.42a3.67,3.67,0,0,1,4.31-.92,3.16,3.16,0,0,1,1.86,2.57,7.06,7.06,0,0,1,.1,1.21c0,2.08,0,4.17,0,6.25Z"/><path class="cls-1" d="M106.59,5.73c.31-.43.59-.88.93-1.27a2.94,2.94,0,0,1,2.23-.88c.11,0,.2,0,.2.17V6.68c-.28,0-.55,0-.8.07a2.81,2.81,0,0,0-2.45,2.54,8.93,8.93,0,0,0-.1,1.16c0,1.17,0,2.34,0,3.51v.28h-2.95V3.8h2.94Z"/><path class="cls-1" d="M14.75,7.39a1.82,1.82,0,0,1-1.12,1.7,1.9,1.9,0,0,1-2.09-.44l-.08-.09a1.16,1.16,0,0,0-1.89-.14c-.29.24-.58.5-.86.75l-.18.17a1,1,0,0,0-.24,1.19c.14.33.29.67.45,1A1.87,1.87,0,1,1,6,10.85a3.34,3.34,0,0,0,.65-.65,1.22,1.22,0,0,0,0-1.3,3.92,3.92,0,0,0-.29-.53A1.87,1.87,0,0,1,9.17,5.94c.22.18.43.39.67.56a1,1,0,0,0,1.53-.2,2.11,2.11,0,0,1,.93-.68A1.83,1.83,0,0,1,14.75,7.39Z"/><path class="cls-1" d="M63.2,3.8V14.24h-3a2.11,2.11,0,0,1,0-.25V4.05c0-.21.05-.27.27-.27H63.2Z"/><path class="cls-1" d="M11.85,14.21A1.84,1.84,0,0,1,10,12.36a1.85,1.85,0,1,1,3.69,0A1.82,1.82,0,0,1,11.85,14.21Z"/><path class="cls-1" d="M8.72.54a1.82,1.82,0,0,1,1.84,1.88A1.85,1.85,0,1,1,8.72.54Z"/><path class="cls-1" d="M3.72.54A1.84,1.84,0,0,1,5.58,2.37,1.87,1.87,0,0,1,3.72,4.24,1.85,1.85,0,0,1,1.88,2.38,1.82,1.82,0,0,1,3.72.54Z"/><path class="cls-1" d="M2.79,5.53a1.85,1.85,0,1,1,0,3.69,1.85,1.85,0,0,1,0-3.69Z"/><path class="cls-1" d="M13.7,4.24a1.86,1.86,0,0,1-1.84-1.88,1.86,1.86,0,0,1,3.71,0A1.89,1.89,0,0,1,13.7,4.24Z"/><path class="cls-1" d="M1.84,14.21A1.84,1.84,0,0,1,0,12.37a1.87,1.87,0,0,1,1.87-1.86,1.88,1.88,0,0,1,1.84,1.86A1.85,1.85,0,0,1,1.84,14.21Z"/><path class="cls-1" d="M63.27,1.56a1.52,1.52,0,0,1-1.53,1.56,1.54,1.54,0,0,1-1.59-1.56A1.55,1.55,0,0,1,61.72,0,1.53,1.53,0,0,1,63.27,1.56Z"/></g></g></svg>