<svg xmlns="http://www.w3.org/2000/svg" viewBox="0 0 75.91 30.06"><defs><style>.cls-1{fill:#8f8fa3;}</style></defs><g id="Capa_2" data-name="Capa 2"><g id="Textos"><path class="cls-1" d="M46.19,0v5.2h-10c-.84,0-1.28.28-1.49,1a1.36,1.36,0,0,0,.7,1.74,27.91,27.91,0,0,0,3.26,1.34c2.26.77,4.58,1.38,6.79,2.24a6.73,6.73,0,0,1,4.35,4.77,7,7,0,0,1-4.65,8.46,6.39,6.39,0,0,1-1.94.3c-5.57,0-11.14,0-16.71,0h-.36V19.83l.5,0H42.51a3.39,3.39,0,0,0,.45,0,1.47,1.47,0,0,0,1.35-1,1.54,1.54,0,0,0-.43-1.71,5.37,5.37,0,0,0-2-1c-2.72-.91-5.45-1.79-8.15-2.74a6.48,6.48,0,0,1-4.54-5.76A6.64,6.64,0,0,1,33.94.34,7,7,0,0,1,36,0c3.23,0,6.46,0,9.7,0Z"/><path class="cls-1" d="M69.09,25c.15-.61.29-1.21.43-1.81.34-1.38.67-2.75,1-4.12a1.65,1.65,0,0,0-.24-1.41q-3.78-5.77-7.52-11.57a1.57,1.57,0,0,0-1.39-.84,11.84,11.84,0,0,0-1.19,0,1.23,1.23,0,0,0-.89.66q-3.72,5.79-7.45,11.58c0,.07-.09.14-.2.3a7.83,7.83,0,0,0-.59-3.37A6.93,6.93,0,0,0,49,11.83l1.73-2.68c1.28-2,2.58-4,3.83-6a6.3,6.3,0,0,1,4.42-3,10.7,10.7,0,0,1,4.81.16,6.38,6.38,0,0,1,3.78,2.88q3.62,5.64,7.32,11.21a6.16,6.16,0,0,1,.89,5c-.4,1.77-.83,3.53-1.24,5.3,0,.19-.09.31-.32.31H69.28Z"/><path class="cls-1" d="M27.75,5.21H17.06c-1.13,0-1.63.5-1.63,1.64q0,7.2,0,14.4V25H9.87v-.39c0-5.8,0-11.59,0-17.38a6.92,6.92,0,0,1,1.6-4.77A6.82,6.82,0,0,1,16.74,0h11Z"/><path class="cls-1" d="M5.21,0h6.5A7.56,7.56,0,0,0,8.29,5.19H5.21Z"/><path class="cls-1" d="M57.35,22.53a2.77,2.77,0,1,1-2.82-2.76A2.77,2.77,0,0,1,57.35,22.53Zm-1.07-.2L56,21.71l-1.1.39c0-.32,0-.58,0-.84s-.15-.27-.34-.27-.39,0-.37.27,0,.53,0,.86l-1.09-.42-.25.63,1.11.46-.79.87.51.44.93-1,.86,1,.57-.5-1-.77Z"/><path class="cls-1" d="M2.3,0H4.44V5.18H2.3Z"/><path class="cls-1" d="M1,0V.45C1,1.89,1,3.33,1,4.77c0,.34-.07.49-.43.44A3.28,3.28,0,0,0,0,5.2V0Z"/><path class="cls-1" d="M51.83,27.28a.5.5,0,0,1,.73.33c.27.63.59,1.23.92,1.93.26-.54.5-1,.73-1.47a2.86,2.86,0,0,0,.2-.44c.12-.38.36-.47.74-.36V30h-.37V27.86l-.08,0c-.19.38-.37.76-.56,1.15s-.21.5-.35.74-.2.26-.29.25a.58.58,0,0,1-.33-.27c-.25-.48-.47-1-.71-1.47a.71.71,0,0,0-.26-.32V30l-.37,0Z"/><path class="cls-1" d="M30.57,30h-.38V27.27a.52.52,0,0,1,.66.23c.49.63,1,1.23,1.56,1.94V27.26h.42V30a.52.52,0,0,1-.67-.21c-.49-.63-1-1.25-1.59-2Z"/><path class="cls-1" d="M65.66,27.27V30a.53.53,0,0,1-.68-.23,21.81,21.81,0,0,0-1.56-1.82V30H63v-2.7a.53.53,0,0,1,.68.23,24,24,0,0,0,1.58,1.83c0-.6,0-1.2,0-1.81C65.27,27.25,65.39,27.18,65.66,27.27Z"/><path class="cls-1" d="M49,28.73v.92c.51,0,1,0,1.54,0,.25,0,.34.07.26.34h-2.2V27.26h2.15c.09.24,0,.34-.24.33H49v.79c.48,0,1,0,1.44,0,.1,0,.21.1.31.15-.11.07-.21.18-.32.18C49.94,28.74,49.47,28.73,49,28.73Z"/><path class="cls-1" d="M13.05,28.56l.3,1.39c-.32.11-.46,0-.47-.26,0-.11,0-.22,0-.33a.53.53,0,0,0-.58-.54c-1,0-1,0-1,1,0,.05,0,.1,0,.18h-.37c0-.09,0-.18,0-.26V27.25c.66,0,1.29,0,1.91,0a.82.82,0,0,1,.51.46A.65.65,0,0,1,13.05,28.56Zm-1.81-1c0,.25,0,.47,0,.68s.11.18.17.18a6.32,6.32,0,0,0,1.15,0,.57.57,0,0,0,.33-.4.34.34,0,0,0-.36-.42C12.13,27.59,11.71,27.6,11.24,27.6Z"/><path class="cls-1" d="M26,28.6a1.55,1.55,0,1,1,1.53,1.46A1.41,1.41,0,0,1,26,28.6Zm1.53,1.1a1.08,1.08,0,1,0,0-2.16,1.08,1.08,0,1,0,0,2.16Z"/><path class="cls-1" d="M42.2,29.07c.11.07.26.12.32.22a1.17,1.17,0,0,0,1.53.23.33.33,0,0,0-.15-.58,7.63,7.63,0,0,0-.95-.2c-.52-.11-.76-.33-.76-.72s.27-.7.79-.8c.73-.14,1.31.12,1.47.67a.47.47,0,0,1,0,.12c-.19.06-.32.08-.45-.15a.92.92,0,0,0-1.23-.18.42.42,0,0,0-.14.35.48.48,0,0,0,.27.29c.3.09.61.12.91.18.53.12.76.33.76.69a.79.79,0,0,1-.78.8,3.42,3.42,0,0,1-1.19-.11C42.28,29.8,42.12,29.52,42.2,29.07Z"/><path class="cls-1" d="M56.25,29.06a1.23,1.23,0,0,1,.33.26,1.17,1.17,0,0,0,1.53.17c.19-.2.13-.45-.16-.55a7.48,7.48,0,0,0-.94-.2c-.53-.11-.77-.33-.78-.71s.28-.71.78-.81c.8-.16,1.36.13,1.49.79a.31.31,0,0,1-.45-.15,1,1,0,0,0-1.27-.17.34.34,0,0,0,.12.61c.31.1.63.13,1,.2.55.12.76.33.75.72a.79.79,0,0,1-.8.78,3.63,3.63,0,0,1-1.09-.08.73.73,0,0,1-.56-.74Z"/><path class="cls-1" d="M35.56,29.16c.21-.08.33-.08.45.16a1.13,1.13,0,0,0,1.51.17.32.32,0,0,0-.17-.55,7.63,7.63,0,0,0-1-.2c-.51-.11-.76-.34-.76-.72s.28-.7.79-.8a1.17,1.17,0,0,1,1.46.63.78.78,0,0,1,0,.16c-.2.06-.33.07-.46-.15a1,1,0,0,0-1.24-.18.34.34,0,0,0,.11.63c.31.09.63.12.94.19.54.12.75.32.75.69a.77.77,0,0,1-.77.8,3.57,3.57,0,0,1-1.17-.09A.7.7,0,0,1,35.56,29.16Z"/><path class="cls-1" d="M20.46,29a1.35,1.35,0,0,1-1.53,1.07A1.44,1.44,0,0,1,19,27.18a1.26,1.26,0,0,1,1.44,1c-.21.1-.34.06-.46-.18a1,1,0,0,0-1.09-.44.94.94,0,0,0-.82.75,1.05,1.05,0,0,0,1.15,1.4.83.83,0,0,0,.76-.52C20.08,28.94,20.22,28.89,20.46,29Z"/><path class="cls-1" d="M69.42,28.27c-.11-.08-.27-.14-.34-.25a1.09,1.09,0,0,0-1.23-.45,1.11,1.11,0,0,0,0,2.09,1,1,0,0,0,1.26-.53c.06-.11.22-.16.4-.29a1.26,1.26,0,0,1-1.35,1.22A1.44,1.44,0,0,1,68,27.18a1.27,1.27,0,0,1,1.47,1Z"/><path class="cls-1" d="M16.92,30c-.3.11-.48,0-.55-.27a.6.6,0,0,0-.78-.51.53.53,0,0,1-.25,0,.6.6,0,0,0-.79.51c-.05.25-.2.39-.52.28,0-.1.06-.2.1-.29.34-.73.66-1.47,1-2.2a.36.36,0,0,1,.68,0c.34.71.66,1.44,1,2.16A1.82,1.82,0,0,1,16.92,30ZM15.46,27.6,15,28.8h1Z"/><path class="cls-1" d="M38.66,27.28a.49.49,0,0,1,.66.21c.21.33.46.64.72,1,.27-.37.52-.69.74-1a.49.49,0,0,1,.65-.2c-.29.38-.56.76-.85,1.1a1.26,1.26,0,0,0-.35,1,3.68,3.68,0,0,1,0,.58l-.35,0a.65.65,0,0,1,0-.15,2.29,2.29,0,0,0-.73-2C39,27.7,38.82,27.49,38.66,27.28Z"/><path class="cls-1" d="M8.91,30H8.5v-2.4c-.32,0-.59,0-.86,0-.07,0-.13-.1-.2-.16s.12-.18.17-.18H9.9c.13.39-.11.35-.32.35H8.91Z"/><path class="cls-1" d="M22.66,30h-.39v-2.4c-.29,0-.53,0-.77,0s-.35-.07-.25-.34h2.4c0,.23,0,.23-1,.38Z"/><path class="cls-1" d="M47.68,27.26c-.22.61-.76.15-1.08.43V30h-.4V27.59h-.77c-.26,0-.26,0-.25-.33Z"/><path class="cls-1" d="M25,27.26V30h-.36V27.26Z"/><path class="cls-1" d="M61.44,27.26h.35V30h-.35Z"/><path class="cls-1" d="M71.12,30H70.7v-.4h.42Z"/></g></g></svg>