<svg xmlns="http://www.w3.org/2000/svg" viewBox="0 0 94.7 22.94"><defs><style>.cls-1{fill:#3c3c3b;}</style></defs><g id="Capa_2" data-name="Capa 2"><g id="Figuras"><path class="cls-1" d="M34,20.54c.81-1,1.6-2,2.4-3l.66-.82a.34.34,0,0,1,.3-.16c1.28,0,2.55,0,3.82,0,.2,0,.23.08.17.25l-2.22,5.79c-.07.2-.21.22-.39.22-2.82,0-5.63,0-8.45,0H27.64c-.07,0-.17,0-.21,0s.05-.13.09-.18l4.32-5.82a.42.42,0,0,1,.38-.2h3c.26,0,.28,0,.18.28-.44,1.15-.89,2.3-1.32,3.45A.25.25,0,0,0,34,20.54Z"/><path class="cls-1" d="M45.73,12.3l1.62-2c.47-.59.95-1.18,1.42-1.78a.45.45,0,0,1,.37-.18h3.77c.2,0,.25.06.18.25-.75,1.93-1.48,3.86-2.22,5.79-.07.19-.19.21-.37.21H39.25c-.13,0-.16-.06-.08-.17s.23-.3.34-.46c1.33-1.79,2.67-3.58,4-5.37a.54.54,0,0,1,.5-.25h2.86c.32,0,.34,0,.22.33-.44,1.17-.89,2.33-1.34,3.5,0,0,0,.08,0,.13Z"/><path class="cls-1" d="M26,4l2-2.46c.35-.44.71-.87,1.05-1.31A.41.41,0,0,1,29.42.1h3.79c.23,0,.24.07.17.26Q32.28,3.2,31.21,6a.39.39,0,0,1-.43.3H19.57c-.15,0-.17-.06-.09-.17l.35-.46,4-5.38A.46.46,0,0,1,24.24.1h3c.29,0,.3,0,.2.28l-1.3,3.4L26,4Z"/><path class="cls-1" d="M62.4,19.56c-.45,1-.88,2-1.29,3a.41.41,0,0,1-.45.3c-.31,0-.62,0-.94,0s-.3,0-.19-.28c.51-1.17,1-2.34,1.51-3.51.33-.75.65-1.49,1-2.25a.31.31,0,0,1,.34-.22c.37,0,.74,0,1.11,0,.16,0,.22.06.23.22,0,1.11.09,2.21.14,3.31a.62.62,0,0,0,.06.3c.1,0,.13-.09.18-.15l2.77-3.5a.43.43,0,0,1,.39-.18c.33,0,.67,0,1,0s.32,0,.23.32l-1.38,4.64c-.1.36-.22.72-.32,1.08a.24.24,0,0,1-.28.22c-.36,0-.72,0-1.08,0-.2,0-.24-.06-.18-.24.28-.91.56-1.82.85-2.73,0-.05,0-.1.05-.21a5.12,5.12,0,0,0-.51.57c-.46.55-.91,1.09-1.36,1.65a.39.39,0,0,1-.33.15c-.38,0-.75,0-1.13,0-.21,0-.27-.07-.28-.28C62.48,21,62.44,20.34,62.4,19.56Z"/><path class="cls-1" d="M57.14,8.33A11.16,11.16,0,0,1,59,8.41a2.48,2.48,0,0,1,.39.1,1,1,0,0,1,.72,1.39,10.49,10.49,0,0,1-.54,1.41,2,2,0,0,1-1.18,1.07c-.18.06-.2.14-.13.31.25.54.47,1.08.7,1.63.1.24.09.26-.16.26H57.56a.29.29,0,0,1-.31-.2c-.21-.5-.44-1-.65-1.5a.32.32,0,0,0-.36-.23c-.91,0-.66-.16-1,.69l-.39,1a.27.27,0,0,1-.3.21h-1.1c-.24,0-.25,0-.16-.27.45-1.17.89-2.33,1.33-3.5.29-.74.58-1.49.85-2.24a.33.33,0,0,1,.35-.25Zm-.32,3.07h.65a.75.75,0,0,0,.7-.46q.16-.39.3-.78c.12-.33,0-.47-.34-.52s-.89,0-1.33,0a.18.18,0,0,0-.2.14c-.18.48-.36,1-.55,1.45,0,.13,0,.18.13.18Z"/><path class="cls-1" d="M56.84,16.58a10.15,10.15,0,0,1,1.88.09l.31.07a1.09,1.09,0,0,1,.77,1.45,9.59,9.59,0,0,1-.53,1.44,1.93,1.93,0,0,1-1.1,1c-.22.08-.22.18-.14.37.25.52.48,1.06.72,1.6.1.23.08.26-.17.26H57.31a.29.29,0,0,1-.31-.2c-.22-.51-.46-1-.68-1.51a.32.32,0,0,0-.33-.22c-.77,0-.77,0-1,.71-.12.34-.25.67-.37,1a.26.26,0,0,1-.3.2H53.22c-.25,0-.27,0-.18-.26l1.86-5.14c.08-.21.16-.41.22-.61a.29.29,0,0,1,.35-.25C55.9,16.59,56.33,16.58,56.84,16.58Zm-.32,3.07h0c.2,0,.41,0,.62,0a.76.76,0,0,0,.73-.49,7.08,7.08,0,0,0,.28-.77c.1-.31,0-.45-.31-.5a9.19,9.19,0,0,0-1.39,0c-.11,0-.15.07-.18.16-.17.48-.34,1-.52,1.44,0,.14,0,.19.14.19Z"/><path class="cls-1" d="M79.72,14.59h-.65a.28.28,0,0,1-.29-.2c-.21-.5-.44-1-.65-1.51a.31.31,0,0,0-.33-.22c-.75,0-.76,0-1,.68-.13.34-.26.67-.38,1a.3.3,0,0,1-.33.24H75c-.26,0-.28,0-.18-.28l1.68-4.44c.17-.43.34-.87.49-1.3a.3.3,0,0,1,.33-.24c1,0,2,0,2.93,0a2.36,2.36,0,0,1,.94.26,1,1,0,0,1,.51,1.07,6.25,6.25,0,0,1-.7,1.83,1.8,1.8,0,0,1-1,.84c-.24.08-.24.17-.15.37.24.53.46,1.06.69,1.59.1.24.09.26-.18.27ZM78.37,11.4H79a.68.68,0,0,0,.58-.33,3.64,3.64,0,0,0,.41-1c.06-.26,0-.39-.31-.42a12.37,12.37,0,0,0-1.36-.05.21.21,0,0,0-.22.15c-.18.5-.37,1-.56,1.48-.06.15,0,.18.14.18Z"/><path class="cls-1" d="M83.23,14.59H81.7c-.33,0-.34,0-.22-.32.47-1.25,1-2.5,1.43-3.74.24-.65.49-1.29.73-1.93A.35.35,0,0,1,84,8.32c.91,0,1.83,0,2.74,0a2.24,2.24,0,0,1,.72.18,1.13,1.13,0,0,1,.67,1.36,16,16,0,0,1-.63,1.76c-.17.46-.36.92-.53,1.39a2.26,2.26,0,0,1-2,1.49C84.37,14.62,83.74,14.57,83.23,14.59Zm.9-1.28h.51a.93.93,0,0,0,.89-.61c.31-.82.63-1.63.93-2.45.14-.39,0-.59-.42-.61s-.63,0-.94,0a.33.33,0,0,0-.37.26c-.4,1.07-.81,2.14-1.22,3.21-.06.16-.06.24.14.22Z"/><path class="cls-1" d="M24.85,22.84h-2c-.08,0-.18,0-.23,0s0-.14.08-.21l4-5.81a.39.39,0,0,1,.35-.19h2.26c.26,0,.28,0,.18.28-.72,1.89-1.45,3.78-2.16,5.67a.39.39,0,0,1-.44.3C26.16,22.83,25.5,22.84,24.85,22.84Z"/><path class="cls-1" d="M36.54,14.58h-2c-.08,0-.18,0-.22-.06s0-.13.08-.19q2-2.91,4-5.83a.38.38,0,0,1,.34-.17H41c.2,0,.26.06.18.26Q40,11.47,38.93,14.37a.31.31,0,0,1-.33.21Z"/><path class="cls-1" d="M16.84,6.32h-2c-.07,0-.18,0-.22,0s0-.16.08-.23L18.46.53a1.13,1.13,0,0,0,.13-.2A.41.41,0,0,1,19,.1h2.26c.2,0,.25,0,.17.25C20.7,2.26,20,4.18,19.24,6.09a.33.33,0,0,1-.36.24Z"/><path class="cls-1" d="M90.36,14.68A3.28,3.28,0,0,1,89,14.47a1.26,1.26,0,0,1-.77-1.62c.34-1,.7-1.94,1.1-2.9A2.83,2.83,0,0,1,92,8.27a4.25,4.25,0,0,1,1.59.1,1.45,1.45,0,0,1,1.14,1.14,1.31,1.31,0,0,1-.09.73c-.31.82-.64,1.64-.93,2.47a2.84,2.84,0,0,1-2.57,1.92A3.84,3.84,0,0,1,90.36,14.68Zm1.82-5.16a1.3,1.3,0,0,0-1.35.69c-.36.84-.67,1.71-1,2.57-.11.3,0,.49.33.57a1.54,1.54,0,0,0,2-1l0-.07c.25-.66.51-1.32.75-2,.14-.38,0-.61-.39-.68A3,3,0,0,0,92.18,9.52Z"/><path class="cls-1" d="M70.36,22.94A3.16,3.16,0,0,1,69,22.67a1.26,1.26,0,0,1-.69-1.6q.48-1.42,1-2.82a2.51,2.51,0,0,1,1.76-1.57,4.76,4.76,0,0,1,2.25-.1,2.1,2.1,0,0,1,.83.35,1.26,1.26,0,0,1,.48,1.41c-.34,1-.68,2-1.09,3a2.58,2.58,0,0,1-2.09,1.51A7.62,7.62,0,0,1,70.36,22.94Zm.4-1.28c.58,0,1.13-.12,1.37-.75.31-.81.6-1.62.88-2.43a.45.45,0,0,0-.38-.67,2.16,2.16,0,0,0-1.07.05,1.1,1.1,0,0,0-.79.73c-.09.27-.19.53-.29.79-.19.53-.39,1.05-.56,1.58s0,.59.41.66A2,2,0,0,0,70.76,21.66Z"/><path class="cls-1" d="M49.19,22.94a3.3,3.3,0,0,1-1.38-.27A1.27,1.27,0,0,1,47.13,21c.31-.91.64-1.81,1-2.71a2.67,2.67,0,0,1,2.16-1.73,4.51,4.51,0,0,1,1.9,0,1.56,1.56,0,0,1,1.32,1.11,1.47,1.47,0,0,1-.07.83c-.3.82-.61,1.63-.89,2.45a2.78,2.78,0,0,1-2.61,1.92A4.36,4.36,0,0,1,49.19,22.94Zm.36-1.27h0a1,1,0,0,0,.17,0c.5-.05,1-.16,1.2-.69.32-.83.62-1.67.92-2.52.12-.33,0-.55-.37-.63a2.12,2.12,0,0,0-1.27.1,1.06,1.06,0,0,0-.58.58c-.3.81-.6,1.62-.88,2.43-.14.41,0,.62.43.69Z"/><path class="cls-1" d="M71.32,13.38h-.84a.44.44,0,0,0-.45.24c-.17.27-.37.53-.54.79a.36.36,0,0,1-.34.18H68c-.07,0-.17,0-.21-.05s0-.13.08-.19c.86-1.2,1.73-2.4,2.59-3.61.52-.72,1-1.45,1.56-2.18a.48.48,0,0,1,.44-.23H74c.18,0,.26.06.26.25,0,1.41-.09,2.82-.13,4.24,0,.48,0,1,0,1.46,0,.22-.07.32-.3.31-.39,0-.77,0-1.16,0-.17,0-.25-.06-.23-.24s0-.53.06-.79,0-.18-.17-.18Zm1.4-3.63,0,0L71.12,12c-.09.13,0,.14.1.14h1c.34,0,.35,0,.37-.35,0-.52.07-1.05.11-1.57A1.6,1.6,0,0,0,72.72,9.75Z"/><path class="cls-1" d="M19.42,22.83c-.5,0-1,0-1.51,0-.23,0-.25,0-.13-.22l3.64-5.85a.3.3,0,0,1,.28-.18c.54,0,1.08,0,1.61,0,.18,0,.23.06.16.23l-2.23,5.83a.28.28,0,0,1-.31.2Z"/><path class="cls-1" d="M31.13,14.58H29.66c-.07,0-.18,0-.22,0s0-.16.08-.23l3.12-5c.16-.25.32-.5.47-.75a.36.36,0,0,1,.33-.19H35c.19,0,.24.06.17.25Q34.06,11.46,33,14.36a.3.3,0,0,1-.34.22Z"/><path class="cls-1" d="M11.43,6.32H9.92c-.23,0-.25,0-.13-.23Q11.61,3.18,13.41.27a.31.31,0,0,1,.3-.17h1.6c.22,0,.22.09.15.25C15,1.66,14.45,3,14,4.29c-.22.58-.46,1.16-.66,1.75a.38.38,0,0,1-.44.29C12.38,6.31,11.91,6.32,11.43,6.32Z"/><path class="cls-1" d="M65.86,13.36a7.09,7.09,0,0,0,1.38-.13c.16,0,.23,0,.2.18s-.08.57-.11.86a.22.22,0,0,1-.18.2,7.16,7.16,0,0,1-2.88.11,1.18,1.18,0,0,1-1.06-1.05,1.45,1.45,0,0,1,.13-.77c.33-.88.68-1.75,1-2.63a2.73,2.73,0,0,1,2.53-1.86,7.15,7.15,0,0,1,2.35.19c.19,0,.24.11.15.29s-.26.52-.37.78a.27.27,0,0,1-.36.18A8.41,8.41,0,0,0,67,9.54a1.11,1.11,0,0,0-1.19.82c-.29.74-.57,1.48-.85,2.22a.86.86,0,0,0-.06.23c-.06.36.07.52.44.55Z"/><path class="cls-1" d="M45.63.1a11.35,11.35,0,0,1,1.51,0,2,2,0,0,1,.26.06.91.91,0,0,1,.71,1.15,8,8,0,0,1-.62,1.69,1.68,1.68,0,0,1-1.15.87c-.18.05-.2.12-.13.28L47,6.09c.07.17.05.24-.16.24-.76,0-.76,0-1-.69-.18-.45-.36-.89-.53-1.34A.27.27,0,0,0,45,4.1c-.41,0-.83,0-1.24,0a.27.27,0,0,0-.3.21c-.21.6-.44,1.19-.65,1.78-.06.17-.14.26-.32.24H42c-.28,0-.28,0-.19-.27.29-.82.59-1.64.89-2.46.38-1.06.77-2.11,1.15-3.18a.41.41,0,0,1,.46-.33C44.74.12,45.14.1,45.63.1Zm-.77,3.23h0c.29,0,.59,0,.88,0a1,1,0,0,0,1-.68c.15-.36.29-.73.41-1.1s0-.58-.4-.64a16,16,0,0,0-2-.05c-.12,0-.16.1-.19.19l-.74,2.07c-.07.17-.05.23.15.23Z"/><path class="cls-1" d="M45.67,16.58h2.38c.27,0,.28,0,.19.27s-.19.51-.27.77a.3.3,0,0,1-.35.24H46.25a.27.27,0,0,0-.3.21c-.52,1.47-1.05,2.93-1.58,4.4-.14.38-.14.38-.54.38s-.62,0-.93,0-.25-.06-.18-.25c.5-1.37,1-2.74,1.49-4.1.07-.2.25-.45.15-.6s-.39,0-.59,0h-1c-.18,0-.21-.06-.15-.22a8.39,8.39,0,0,0,.3-.84.29.29,0,0,1,.34-.22Z"/><path class="cls-1" d="M55.76,6.42a3.39,3.39,0,0,1-.9-.08,1.23,1.23,0,0,1-1-1.76l.82-2.28c.23-.63.47-1.26.68-1.9.08-.22.19-.34.43-.3h.36c.21,0,.25,0,.18.25-.29.76-.56,1.53-.84,2.3s-.45,1.23-.67,1.85,0,1.13.79,1.17a3.35,3.35,0,0,0,1-.06,1.7,1.7,0,0,0,1.27-1.16l1.45-4a.42.42,0,0,1,.48-.34c.59,0,.59,0,.38.57-.45,1.25-.92,2.49-1.35,3.74a2.75,2.75,0,0,1-2.82,2Z"/><path class="cls-1" d="M14,22.84h-.89c-.3,0-.31,0-.17-.26l1.94-3.46,1.27-2.28a.41.41,0,0,1,.42-.25c.25,0,.49,0,.74,0s.27,0,.17.26c-.42,1.12-.85,2.24-1.28,3.36-.3.78-.61,1.55-.89,2.34a.39.39,0,0,1-.44.29C14.58,22.82,14.29,22.84,14,22.84Z"/><path class="cls-1" d="M25.72,14.58h-.94c-.24,0-.27,0-.15-.24l2.5-4.46c.25-.45.51-.9.75-1.36a.35.35,0,0,1,.33-.19H29c.18,0,.25.05.18.25Q28.08,11.48,27,14.37a.27.27,0,0,1-.3.21Z"/><path class="cls-1" d="M6,6.32H5.11c-.28,0-.29,0-.16-.26.37-.68.76-1.35,1.13-2,.67-1.2,1.35-2.39,2-3.59A.55.55,0,0,1,8.66.1c.21,0,.42,0,.63,0s.28,0,.19.27c-.28.71-.55,1.43-.83,2.15C8.2,3.71,7.74,4.89,7.3,6.07a.32.32,0,0,1-.37.26C6.63,6.31,6.33,6.32,6,6.32Z"/><path class="cls-1" d="M60.68,14.59h-.56c-.18,0-.22-.07-.16-.24.2-.49.38-1,.57-1.48.54-1.43,1.09-2.86,1.63-4.3a.33.33,0,0,1,.35-.25h1.08c.19,0,.23.06.16.23q-1.11,2.89-2.2,5.81a.3.3,0,0,1-.32.22Z"/><path class="cls-1" d="M36,6.42A3.22,3.22,0,0,1,35,6.32a1.08,1.08,0,0,1-.85-1.4c.18-.75.5-1.45.75-2.17.13-.38.27-.76.42-1.13a2.38,2.38,0,0,1,2-1.56,7.2,7.2,0,0,1,2.36.08c.2,0,.25.11.16.3-.2.47-.19.47-.69.41a6.68,6.68,0,0,0-1.67,0,1.4,1.4,0,0,0-1.24.89Q35.6,3.21,35.1,4.75c-.18.53,0,.79.55.88a7.15,7.15,0,0,0,2-.07c.27,0,.29,0,.25.23,0,0,0,.1,0,.15,0,.23-.09.34-.33.37A10.42,10.42,0,0,1,36,6.42Z"/><path class="cls-1" d="M50.3,6.42a3.05,3.05,0,0,1-1.16-.13A1.07,1.07,0,0,1,48.38,5a6.32,6.32,0,0,1,.35-1.12c.24-.66.5-1.32.72-2A2.56,2.56,0,0,1,51.92,0a7.61,7.61,0,0,1,2,.13c.2,0,.23.11.15.29-.19.47-.19.47-.69.41a6.66,6.66,0,0,0-1.67,0,1.39,1.39,0,0,0-1.24.88c-.39,1-.76,2-1.1,3.05-.2.58,0,.81.58.91a7.34,7.34,0,0,0,1.93-.08c.23,0,.28,0,.25.23v0c-.07.44-.07.43-.51.49A8.62,8.62,0,0,1,50.3,6.42Z"/><path class="cls-1" d="M66.61.1h2.23c.2,0,.28,0,.2.25-.24.61-.12.49-.7.5-.41,0-.82,0-1.22,0a.35.35,0,0,0-.41.29c-.59,1.64-1.19,3.28-1.77,4.92a.35.35,0,0,1-.4.27c-.65,0-.65,0-.43-.6l1.65-4.55c.11-.33.11-.33-.24-.33H64.1c-.2,0-.23-.06-.17-.24.24-.61.1-.5.71-.51Z"/><path class="cls-1" d="M39.57,6.33c-.5,0-.53.09-.33-.46.65-1.77,1.29-3.55,1.93-5.32.2-.54.1-.44.63-.45s.48,0,.31.44c-.64,1.79-1.3,3.58-1.94,5.37C40,6.41,40.05,6.32,39.57,6.33Z"/><path class="cls-1" d="M60.32,6.33c-.48,0-.51.07-.32-.45.66-1.8,1.3-3.59,2-5.39C62.12,0,62,.11,62.5.1h.27c.21,0,.24.06.17.25-.24.65-.47,1.31-.71,2-.43,1.2-.86,2.39-1.3,3.58C60.75,6.4,60.85,6.32,60.32,6.33Z"/><path class="cls-1" d="M.6,6.32H.15C0,6.33,0,6.26,0,6.13a.59.59,0,0,0,0-.08L2.92.36C3,.26,3,.13,3.13.12s.3-.07.39,0,0,.22-.06.32C2.75,2.34,2,4.21,1.32,6.09A.3.3,0,0,1,1,6.33,2.54,2.54,0,0,0,.6,6.32Z"/><path class="cls-1" d="M8.61,22.83H8.2c-.21,0-.24-.08-.14-.25,0,0,0,0,0,0q1.44-2.86,2.86-5.73c.05-.09.08-.21.2-.22s.29-.07.39,0,0,.21-.06.31q-1.05,2.76-2.12,5.53c-.13.36-.13.35-.53.36Z"/><path class="cls-1" d="M20.31,14.58h-.46c-.13,0-.17-.06-.11-.18l.05-.11c.95-1.9,1.89-3.79,2.83-5.69.05-.09.07-.21.18-.24a.44.44,0,0,1,.42,0c.12.09,0,.22,0,.32l-2.1,5.49c-.16.4-.15.4-.58.4Z"/></g></g></svg>