<svg xmlns="http://www.w3.org/2000/svg" viewBox="0 0 70.73 17.05"><defs><style>.cls-1{fill:#3c3c3b;}</style></defs><g id="Capa_2" data-name="Capa 2"><g id="Figuras"><path class="cls-1" d="M0,16.7l.47-1.26c.52-1.39,1-2.79,1.57-4.18L3.79,6.61C4.49,4.75,5.18,2.89,5.88,1,6,.81,6.06.58,6.14.35c0-.06,0-.08.1-.07h5.07a.19.19,0,0,1,.21.15c.3.83.62,1.66.93,2.48.71,1.89,1.41,3.78,2.12,5.66C15,9.8,15.5,11,16,12.26c.29.76.57,1.52.86,2.29.16.43.32.86.51,1.29V.45c0-.2,0-.17.17-.17h5.77a.17.17,0,0,1,.19.12c.4,1,.81,1.91,1.22,2.87L25.87,6l1.57,3.67.93,2.18.21.49a.22.22,0,0,0,.1.14V.46a.41.41,0,0,0,0-.11s0-.08.08-.07h3.69c.17,0,.15,0,.15.15V16.56c0,.18,0,.16-.15.16H26.72a.2.2,0,0,1-.21-.14c-.41-1-.84-2-1.26-3L23.76,10,22.28,6.52c-.33-.78-.66-1.56-1-2.34,0,0,0,0,0,0a.38.38,0,0,0,0,.15V16.63c0,.06,0,.1-.08.09H12.92c-.21,0-.2,0-.26-.19l-1.56-5c-.44-1.41-.88-2.81-1.33-4.22L8.63,3.71s0-.09-.05-.16a3.84,3.84,0,0,0-.2.6c-.31.95-.62,1.9-.92,2.85L6.23,10.83c-.45,1.42-.91,2.83-1.36,4.25-.17.51-.33,1-.5,1.53,0,.07,0,.11-.12.11H0l0,0"/><path class="cls-1" d="M39.56,17.05a7.25,7.25,0,0,1-2.64-.51,6.33,6.33,0,0,0-1.05-.31.76.76,0,0,0-.9.61s0,.07,0,.11,0,.08-.08.08h-.38c-.06,0-.08,0-.09-.09l-.18-1.22c-.06-.48-.13-1-.2-1.42s-.15-1.07-.22-1.6c0-.24-.07-.49-.11-.74s0-.16.14-.16H34c.29,0,.29,0,.39.26a8.84,8.84,0,0,0,1.24,2.23,5.1,5.1,0,0,0,1.68,1.42,4.39,4.39,0,0,0,1.6.45A4,4,0,0,0,40.51,16a2.66,2.66,0,0,0,1.4-1.22,3,3,0,0,0,.34-1.68,2.91,2.91,0,0,0-1.1-2A11.65,11.65,0,0,0,39.72,10c-.72-.47-1.46-.89-2.19-1.33A8.88,8.88,0,0,1,35.41,7a3.72,3.72,0,0,1-.91-1.76,4.7,4.7,0,0,1-.07-1.63,3.74,3.74,0,0,1,.42-1.39A3.75,3.75,0,0,1,36.3.69,4.86,4.86,0,0,1,38.46,0a5.5,5.5,0,0,1,2.2.32c.42.14.83.31,1.25.44a1,1,0,0,0,.67,0A.8.8,0,0,0,43.1.21a.13.13,0,0,0,0-.06c0-.11.06-.17.18-.14h.18c.19,0,.19,0,.21.18.07.66.14,1.32.2,2S44,3.27,44,3.81s.1.84.14,1.27c0,0,0,.06,0,.08s0,.11-.09.1h-.4c-.1,0-.12,0-.14-.11A5.75,5.75,0,0,0,43,3.55a4.84,4.84,0,0,0-2.28-2.19,3.9,3.9,0,0,0-2-.32,2.42,2.42,0,0,0-1.56.74,2.1,2.1,0,0,0-.58,1.32A2.55,2.55,0,0,0,37.16,5a6.76,6.76,0,0,0,1.57,1.3c.63.42,1.29.79,1.94,1.17A16.24,16.24,0,0,1,42.86,9a5.58,5.58,0,0,1,1.46,1.78,4,4,0,0,1,.4,2.24,4.25,4.25,0,0,1-1.48,2.84,5,5,0,0,1-2.36,1.11,5.9,5.9,0,0,1-1.32.12"/><path class="cls-1" d="M65.59,17.05a7,7,0,0,1-2.15-.33c-.44-.14-.87-.32-1.32-.44a1.35,1.35,0,0,0-.53-.06.77.77,0,0,0-.65.7c0,.1,0,.11-.13.11s-.22,0-.33,0-.08,0-.09-.08l-.21-1.5c-.08-.52-.15-1-.23-1.58s-.13-.92-.19-1.39c0-.18-.06-.36-.08-.54s0-.14.12-.14a1.31,1.31,0,0,0,.28,0c.12,0,.16.05.2.14a9.77,9.77,0,0,0,1,2,5.15,5.15,0,0,0,2.13,1.85,4,4,0,0,0,1.36.36,3.56,3.56,0,0,0,1.38-.09,2.62,2.62,0,0,0,2-2.13A2.84,2.84,0,0,0,68,12.07,3.23,3.23,0,0,0,67.11,11a12.35,12.35,0,0,0-1.59-1.18c-.53-.34-1.07-.66-1.62-1a11.86,11.86,0,0,1-2-1.33A4.12,4.12,0,0,1,60.5,5.3a4.88,4.88,0,0,1-.09-1.66A3.85,3.85,0,0,1,62.17.76,4.87,4.87,0,0,1,63.9.09,5.69,5.69,0,0,1,64.73,0a5.38,5.38,0,0,1,1.59.24c.54.15,1.05.38,1.59.54a1.06,1.06,0,0,0,.56,0A.76.76,0,0,0,69.06.3s0,0,0,0,0-.19.08-.22.18,0,.27,0h0c.19,0,.19,0,.21.2,0,.45.09.89.14,1.34l.09,1,.15,1.36.09,1a2.54,2.54,0,0,0,0,.29c0,.07,0,.09-.09.09H69.7c-.1,0-.14,0-.16-.12a4.85,4.85,0,0,0-.31-1,5.65,5.65,0,0,0-.93-1.54,4.64,4.64,0,0,0-1.49-1.19A4,4,0,0,0,64.67,1a2.4,2.4,0,0,0-1.55.69,2.14,2.14,0,0,0-.63,1.44A2.57,2.57,0,0,0,63.15,5a7.34,7.34,0,0,0,1.7,1.39c1,.63,2,1.17,3,1.82a9,9,0,0,1,1.62,1.34,4.28,4.28,0,0,1,1.21,2.33,4.08,4.08,0,0,1-.29,2.36,4.42,4.42,0,0,1-2.28,2.3,5.49,5.49,0,0,1-1.64.46,6.63,6.63,0,0,1-.87.05"/><path class="cls-1" d="M52.77,16.72h-3.6c-.17,0-.16,0-.16-.16s0-.23,0-.3.19,0,.29,0a5.34,5.34,0,0,0,1.19-.17,1.21,1.21,0,0,0,.93-1.13,8.71,8.71,0,0,0,0-1V9.6a.52.52,0,0,0-.09-.29L50,7.21,48.11,4.47c-.47-.68-.94-1.36-1.45-2a9.57,9.57,0,0,0-.84-1A2.05,2.05,0,0,0,44.47.84h0c-.18,0-.18,0-.18-.2s0-.28.27-.28H51c.19,0,.17,0,.17.17s0,.27-.28.3A5,5,0,0,0,50,.94a.64.64,0,0,0-.52.85,2.81,2.81,0,0,0,.4.88C50.7,4,51.56,5.22,52.4,6.51l1,1.5c.08.13.1.12.18,0,.34-.54.67-1.08,1-1.61.48-.77,1-1.53,1.45-2.29.37-.59.76-1.18,1.12-1.79a1.32,1.32,0,0,0,.2-.73A.62.62,0,0,0,57,1.05a1.42,1.42,0,0,0-.67-.2,3.69,3.69,0,0,0-.58,0c-.08,0-.11,0-.11-.11,0-.35,0-.35.33-.35h4.89c.18,0,.17,0,.16.16s0,.21,0,.28-.18,0-.27,0a2.86,2.86,0,0,0-1.59.83A8.93,8.93,0,0,0,58,3.16l-2.31,3.5c-.49.75-1,1.5-1.46,2.25l-.16.25a.24.24,0,0,0,0,.16c0,1.7,0,3.41,0,5.11a2.8,2.8,0,0,0,.13.86,1.15,1.15,0,0,0,.86.8,5.51,5.51,0,0,0,1.4.15c.15,0,.15,0,.15.15s0,.24,0,.31-.2,0-.31,0H52.77"/></g></g></svg>