<svg xmlns="http://www.w3.org/2000/svg" viewBox="0 0 91.42 14.91"><defs><style>.cls-1{fill:#3c3c3b;}</style></defs><g id="Capa_2" data-name="Capa 2"><g id="Figuras"><path class="cls-1" d="M71.55,14.91l.88-.88,1.27-1.27c.56-.56,1.11-1.14,1.67-1.69.33-.33.68-.63,1-.92s.94-.78,1.43-1.13,1-.71,1.57-1a19.79,19.79,0,0,1,2.25-1.25c.55-.26,1.11-.51,1.68-.74s1.14-.43,1.72-.62a20.13,20.13,0,0,1,2.28-.6c.34-.07.69-.11,1-.16l1-.09.36,0q-.1.25-.18.48l-.68,1.77c-.22.55-.43,1.1-.65,1.64a9.3,9.3,0,0,1-1,1.88c-.19.26-.39.5-.59.74s-.31.34-.47.49a7.23,7.23,0,0,1-1.44,1.08c-.34.2-.69.4-1,.57a11.44,11.44,0,0,1-1.77.66c-.56.15-1.12.29-1.69.42s-.85.16-1.28.23l-1.22.17c-.25,0-.5.05-.74.07l-1.12.09-.68.05-1,0-.68,0-.1,0Z"/><path class="cls-1" d="M0,5.89a.24.24,0,0,0,0-.08l0-1c0-.39,0-.78.07-1.17s0-.56.06-.84.05-.41.08-.63H3.11a2.06,2.06,0,0,1,0,.26c0,.21,0,.42,0,.64L3.28,4.1c0,.15,0,.29,0,.43s0,.56,0,.84,0,.53,0,.8l0,2.57c0,.26,0,.52,0,.79s0,.68,0,1,0,.48,0,.71c0,.38-.07.77-.11,1.15l0,.38H.25c0-.26,0-.51-.07-.77L.09,10.76c0-.25,0-.49,0-.73l0-.88a.25.25,0,0,0,0-.07Z"/><path class="cls-1" d="M91.42.07c-.08.18-.16.36-.23.55l-.64,1.66a.15.15,0,0,1-.15.11q-.34,0-.69.09c-.33.06-.67.12-1,.2s-.7.15-1,.25-.87.25-1.3.41c-.6.22-1.19.45-1.77.7s-.9.4-1.33.64C82.6,5,82,5.4,81.33,5.77c-.43.26-.84.53-1.26.81-.22.14-.43.3-.65.45l-.07,0L79.42,7l2.28-2.3,2-2c.27-.27.53-.55.81-.81A6.48,6.48,0,0,1,85.7,1,6.69,6.69,0,0,1,87.77.27q.54-.09,1.08-.15l.83-.07.48,0,.08,0h1.11C91.41,0,91.43,0,91.42.07Z"/><path class="cls-1" d="M17,7.05a2.84,2.84,0,0,1,.89.53,2.5,2.5,0,0,1,.72,1,2.92,2.92,0,0,1,.2,1.24,3.09,3.09,0,0,1-.59,1.71,2.38,2.38,0,0,1-1,.72A6,6,0,0,1,16,12.6c-.23.05-.48.07-.72.1l-1,.06-.51,0H7c0-.22,0-.42-.06-.62s-.05-.68-.08-1l0-.38c0-.22,0-.44,0-.66,0-.41,0-.81,0-1.22s0-1.11,0-1.67V6.44l0-1c0-.32,0-.64,0-1s0-.72.07-1.08.06-.69.09-1c0-.07,0-.14,0-.23h7.12c.38,0,.76.06,1.14.08a5.33,5.33,0,0,1,1.19.23,2.78,2.78,0,0,1,1,.52,2,2,0,0,1,.64.92,4.26,4.26,0,0,1,.13.64,1.37,1.37,0,0,1,0,.35,2.43,2.43,0,0,1-.58,1.59,3,3,0,0,1-.3.32Zm-6.86,3.71h3.75a2.41,2.41,0,0,0,.92-.16,1,1,0,0,0,.51-.37,1.22,1.22,0,0,0,.22-.85A1,1,0,0,0,15,8.54a1.73,1.73,0,0,0-.89-.17H10Zm-.09-4.34h4.38a.16.16,0,0,0,.12,0A1.91,1.91,0,0,0,14.88,6,1.37,1.37,0,0,0,15,5.12a.93.93,0,0,0-.76-.85,4.34,4.34,0,0,0-1-.12c-1,0-2,0-3,0h-.14Z"/><path class="cls-1" d="M34.72,2.12h7.66a5.75,5.75,0,0,1,1.88.31,3,3,0,0,1,1.28.8,2.91,2.91,0,0,1,.61,1.1,3.34,3.34,0,0,1,.13,1.21,3.07,3.07,0,0,1-1,2.15,3.38,3.38,0,0,1-1.06.64l-.1.05a22.48,22.48,0,0,1,3,4.39h-3.6a.14.14,0,0,1-.16-.11c-.23-.51-.46-1-.71-1.51a11.79,11.79,0,0,0-1.17-1.85l-.34-.42A.2.2,0,0,0,41,8.84H37.8V9.4c0,.27,0,.54,0,.8s.06.79.09,1.18c0,.23,0,.46,0,.68s0,.38.07.57v.15H34.71c0-.22,0-.44-.05-.65s-.06-.69-.08-1l0-.36c0-.22,0-.44,0-.66,0-.43,0-.85,0-1.28,0-.69,0-1.38,0-2.07,0-.42,0-.84,0-1.25s0-.66,0-1,0-.72.07-1.08.06-.7.09-1.05A2.24,2.24,0,0,1,34.72,2.12Zm3,4.73h4.35a.24.24,0,0,0,.12,0A1.57,1.57,0,0,0,43,5.18a1.09,1.09,0,0,0-.7-.85,3.24,3.24,0,0,0-1.19-.2H37.86Z"/><path class="cls-1" d="M24.58,8.41l.07,2.24h6.94l0,.53c0,.2,0,.4,0,.61s.05.66.07,1H21.53l-.06-.57c0-.4-.06-.8-.08-1.2l0-.42c0-.24,0-.47,0-.7,0-.4,0-.8,0-1.2,0-.67,0-1.34,0-2,0-.38,0-.75,0-1.12s0-.64,0-1,0-.74.07-1.1.06-.75.09-1.12a2.42,2.42,0,0,1,0-.25H31.72l-.15,2.13H24.64l-.06,2.12H31v2Z"/><path class="cls-1" d="M68.46,12.78H65l-.57-1.51c0-.12-.1-.23-.15-.35s-.08-.1-.16-.1H58.63a.16.16,0,0,0-.17.11c-.23.62-.47,1.23-.71,1.85H54.27c.1-.26.2-.53.3-.78.25-.6.49-1.2.75-1.79.17-.39.34-.77.53-1.15.42-.87.85-1.75,1.29-2.62.32-.62.65-1.23,1-1.83.48-.8,1-1.59,1.46-2.39a.18.18,0,0,1,.18-.1H63a.16.16,0,0,1,.16.08c.41.67.84,1.32,1.24,2,.31.52.6,1,.89,1.59s.69,1.31,1,2,.59,1.2.85,1.81c.45,1,.89,2.09,1.33,3.14C68.45,12.73,68.45,12.76,68.46,12.78Zm-7.1-8.11C60.61,6,59.93,7.42,59.3,8.84h4.13C62.8,7.41,62.12,6,61.36,4.67Z"/><path class="cls-1" d="M52.37,12.78H49.52l-.06-.54-.09-1c0-.12,0-.23,0-.34s0-.45,0-.67c0-.46,0-.91,0-1.37,0-.88,0-1.76,0-2.64,0-.25,0-.51,0-.76s0-.67,0-1,0-.49,0-.73l.09-1.11.06-.49h2.86c0,.27,0,.53.07.79s.06.71.08,1.07c0,.14,0,.29,0,.44s0,.54,0,.81c.08,1.24,0,2.48,0,3.73,0,.43,0,.87,0,1.31,0,.24,0,.49,0,.73,0,.39-.05.77-.09,1.16C52.43,12.37,52.4,12.57,52.37,12.78Z"/></g></g></svg>