<svg xmlns="http://www.w3.org/2000/svg" viewBox="0 0 57.72 33.85"><defs><style>.cls-1{fill:#3c3c3b;}</style></defs><g id="Capa_2" data-name="Capa 2"><g id="Figuras"><path class="cls-1" d="M11,13.52h.71A3.06,3.06,0,0,1,15,16.77,3.05,3.05,0,0,1,11.7,20H11ZM8,22.57h4.28a5.8,5.8,0,1,0,0-11.6H8Z"/><path class="cls-1" d="M27.53,14.68h-2.8v.77a3.2,3.2,0,0,0-2.45-1,4,4,0,0,0-4,4.2,4.06,4.06,0,0,0,4,4.21,2.76,2.76,0,0,0,2.39-1.14h0v.88h2.8ZM23,16.85a1.71,1.71,0,0,1,1.8,1.78,1.8,1.8,0,0,1-3.6,0A1.71,1.71,0,0,1,23,16.85Z"/><path class="cls-1" d="M34.46,14.88a3.78,3.78,0,0,0-1.84-.46,4.23,4.23,0,0,0-4.42,4.29,4.17,4.17,0,0,0,4.3,4.12,4.33,4.33,0,0,0,2-.45V20a2.15,2.15,0,0,1-1.4.53,1.87,1.87,0,0,1-2-1.93A1.89,1.89,0,0,1,33,16.69a2.43,2.43,0,0,1,1.44.56Z"/><path class="cls-1" d="M41.74,14.92a6.44,6.44,0,0,0-2.6-.5c-1.72,0-3.48.86-3.48,2.8a2,2,0,0,0,1.76,2.07c.87.23,1.75.26,1.75.88,0,.43-.52.6-.88.6a4.49,4.49,0,0,1-2.21-.8l-1,2a6.09,6.09,0,0,0,3.19.91c1.83,0,3.72-.86,3.72-2.94,0-1.46-1-2.07-2.29-2.34-.39-.07-1.26-.15-1.26-.69s.55-.54.87-.54a3.49,3.49,0,0,1,1.51.39Z"/><path class="cls-1" d="M51.49,14.68h-2.8v.77a3.2,3.2,0,0,0-2.45-1,4,4,0,0,0-4,4.2,4.06,4.06,0,0,0,4,4.21,2.76,2.76,0,0,0,2.39-1.14h0v.88h2.8ZM47,16.85a1.71,1.71,0,0,1,1.8,1.78,1.8,1.8,0,0,1-3.6,0A1.71,1.71,0,0,1,47,16.85Z"/><path class="cls-1" d="M11.73,13.75h-.48v6h.45a2.83,2.83,0,0,0,3.12-3A2.83,2.83,0,0,0,11.73,13.75Zm0-.45a3.28,3.28,0,0,1,3.53,3.47,3.27,3.27,0,0,1-3.56,3.47h-.9V13.3Zm.56,9.49H7.79v-12h4.5a6,6,0,1,1,0,12Zm0-.45a5.57,5.57,0,1,0,0-11.14H8.23V22.34Z"/><path class="cls-1" d="M24.51,22.27a3.23,3.23,0,0,1-2.2.78,4.27,4.27,0,0,1-4.2-4.43,4.24,4.24,0,0,1,4.17-4.43,3.68,3.68,0,0,1,2.23.73v-.47h3.24v8.34H24.51ZM25,14.9v1.16a3.14,3.14,0,0,0-2.67-1.42,3.8,3.8,0,0,0-3.73,4,3.84,3.84,0,0,0,3.76,4,2.53,2.53,0,0,0,2.27-1.14H25v.87h2.36V14.9Zm-.35,3.73a1.58,1.58,0,0,0-3.15,0,1.58,1.58,0,0,0,3.15,0Zm.44,0a1.9,1.9,0,0,1-2,2,1.9,1.9,0,0,1-2-2,2,2,0,0,1,4,0Z"/><path class="cls-1" d="M32.62,14.19a4.07,4.07,0,0,1,2.07.56v2.94A2.87,2.87,0,0,0,33,16.92a1.67,1.67,0,0,0-1.7,1.7,1.65,1.65,0,0,0,1.74,1.71,2.29,2.29,0,0,0,1.63-.82v3a4.66,4.66,0,0,1-2.19.53A4.38,4.38,0,0,1,28,18.71,4.46,4.46,0,0,1,32.62,14.19Zm0,.45a4,4,0,0,0-4.19,4.07,3.94,3.94,0,0,0,4.07,3.9,4.22,4.22,0,0,0,1.74-.37V20.45a2.39,2.39,0,0,1-1.18.33,2.1,2.1,0,0,1-2.19-2.16A2.12,2.12,0,0,1,33,16.47a2.42,2.42,0,0,1,1.22.36V15A3.73,3.73,0,0,0,32.62,14.64Z"/><path class="cls-1" d="M39.14,14.19a6.53,6.53,0,0,1,2.91.63L40.89,17a3.33,3.33,0,0,0-1.6-.46c-.17,0-.65.07-.65.31,0,.73,3.55.08,3.55,3,0,2.27-2.08,3.16-3.94,3.16A6.32,6.32,0,0,1,34.77,22L36,19.64a4.41,4.41,0,0,0,2.29.91c.37,0,.66-.17.66-.38,0-.88-3.51,0-3.51-3C35.44,15.09,37.37,14.19,39.14,14.19Zm0,.45c-1.68,0-3.25.83-3.25,2.58,0,2.68,3.5,1.4,3.5,3,0,.66-.75.82-1.1.82a4.56,4.56,0,0,1-2.13-.7l-.8,1.55a6,6,0,0,0,2.89.77c1.79,0,3.5-.84,3.5-2.72,0-1.59-1.22-1.94-2.47-2.18-.45-.09-1.09-.27-1.09-.85s.66-.76,1.1-.76a3.69,3.69,0,0,1,1.41.31L41.43,15A6.11,6.11,0,0,0,39.14,14.64Z"/><path class="cls-1" d="M48.46,22.27a3.19,3.19,0,0,1-2.19.78,4.27,4.27,0,0,1-4.2-4.43,4.24,4.24,0,0,1,4.17-4.43,3.63,3.63,0,0,1,2.22.73v-.47h3.24v8.34H48.46Zm.45-7.37v1.16a3.14,3.14,0,0,0-2.67-1.42,3.8,3.8,0,0,0-3.73,4,3.84,3.84,0,0,0,3.76,4,2.5,2.5,0,0,0,2.26-1.14h.38v.87h2.35V14.9Zm-.35,3.73a1.58,1.58,0,0,0-3.16,0,1.58,1.58,0,0,0,3.16,0Zm.44,0a2,2,0,0,1-4,0,2,2,0,0,1,4,0Z"/><path class="cls-1" d="M41.34,4.43c0,.25.1.49.14.74C50,7.57,55.63,12.3,55.63,17.59c0,7.62-11.76,14.09-26.74,14.09S2.15,25.21,2.15,17.59C2.15,12,8.49,7,17.79,4.78c.09-.25.17-.5.25-.76C8.37,6.26,1.47,11.41,1.47,17.59c0,8.32,12.49,14.77,27.42,14.77s27.42-6.45,27.42-14.77C56.31,11.76,50.16,6.84,41.34,4.43Z"/><path class="cls-1" d="M41,2.83c0,.13.08.27.11.4,9.67,2.56,16.3,8.07,16.3,14.36,0,8.7-12.66,15.89-28.5,15.89S.36,26.29.36,17.59C.36,10.92,7.82,5.13,18.44,2.8l.12-.39C7.75,4.73,0,10.61,0,17.59c0,9.06,13,16.26,28.86,16.26s28.86-7.2,28.86-16.26C57.72,11,50.81,5.39,41,2.83Z"/><path class="cls-1" d="M21.49,3.51H20.41L21,1.82h0Zm.35,1.06.33.92h1.38L21.67.18H20.25L18.33,5.49h1.38l.34-.92Z"/><path class="cls-1" d="M24.72,1.23h.13c.43,0,.9.09.9.66s-.47.67-.9.67h-.13ZM26,3.31a1.41,1.41,0,0,0,1.09-1.5A1.54,1.54,0,0,0,25.37.18H23.43V5.49h1.29v-2h0l1.22,2h1.62Z"/><path class="cls-1" d="M28.7,1.23h.13c.42,0,.9.09.9.67s-.48.66-.9.66H28.7ZM30,3.31a1.42,1.42,0,0,0,1.09-1.5A1.54,1.54,0,0,0,29.34.18H27.4V5.49h1.3v-2h0l1.23,2h1.62Z"/><path class="cls-1" d="M33.89,1.34a1.44,1.44,0,0,1,1.41,1.4,1.42,1.42,0,1,1-2.82,0A1.43,1.43,0,0,1,33.89,1.34Zm0-1.34a2.75,2.75,0,0,0-2.77,2.73,2.77,2.77,0,1,0,5.53,0A2.74,2.74,0,0,0,33.89,0Z"/><polygon class="cls-1" points="38.56 4.32 40.91 0.18 36.77 0.18 36.77 1.35 38.74 1.35 36.37 5.49 40.65 5.49 40.65 4.32 38.56 4.32"/></g></g></svg>