<svg xmlns="http://www.w3.org/2000/svg" viewBox="0 0 72.35 16.25"><defs><style>.cls-1{fill:#3c3c3b;}</style></defs><g id="Capa_2" data-name="Capa 2"><g id="Figuras"><path class="cls-1" d="M0,15.89c.92-1.7,1.85-3.4,2.77-5.11C4,8.46,5.31,6.15,6.51,3.79A6.32,6.32,0,0,1,12.74,0h2l.6,15.91H10.14l.12-2.69-.31,0H6.74a.45.45,0,0,0-.49.32c-.3.69-.62,1.37-.9,2.07a.51.51,0,0,1-.58.38H.47L0,16ZM10.79,3.75l-.1,0L7.77,10.07h2.67Z"/><path class="cls-1" d="M65.36,5.31c.26-.23.48-.43.71-.62a5.15,5.15,0,0,1,5.07-.86,1.45,1.45,0,0,1,1.19,1.76,22.45,22.45,0,0,1-.57,3.05c-.38,1.65-.82,3.28-1.22,4.93a2.84,2.84,0,0,1-2.49,2.28,18,18,0,0,1-2.55,0c0-.11,0-.24.07-.38Q66.5,11.76,67.42,8c.11-.42.26-.88-.12-1.22a1.36,1.36,0,0,0-1.4-.14,1.51,1.51,0,0,0-1,1.16c-.33,1.24-.64,2.49-1,3.74s-.67,2.66-1,4a.45.45,0,0,1-.53.41h-4a5,5,0,0,1,.13-.67c.61-2.45,1.22-4.91,1.84-7.36a2.61,2.61,0,0,0,.08-.55.74.74,0,0,0-.65-.8,1.57,1.57,0,0,0-1.94,1.22c-.53,2-1,4-1.55,6.05-.15.6-.28,1.21-.45,1.81,0,.12-.19.28-.29.28-1.39,0-2.78,0-4.17,0,0,0,0,0-.1-.06.38-1.53.76-3.07,1.15-4.61C53,9,53.58,6.72,54.12,4.45c.11-.47.29-.59.75-.58,1.15,0,2.29,0,3.43,0h.51L58.5,5.26,58.82,5a5,5,0,0,1,5.3-1.16A1.89,1.89,0,0,1,65.36,5.31Z"/><path class="cls-1" d="M44.57,16l.31-1.4-.17.12a4.82,4.82,0,0,1-5,1.39,1.87,1.87,0,0,1-1.57-2.46c.41-1.92.91-3.82,1.37-5.73.3-1.21.62-2.41.91-3.61,0-.25.13-.38.41-.38h4l.21,0q-.34,1.43-.69,2.82c-.42,1.69-.85,3.37-1.27,5-.19.75-.1,1.16.28,1.37a1.64,1.64,0,0,0,1.82-.4,2.31,2.31,0,0,0,.41-.85q1-3.78,1.91-7.56c.09-.36.23-.49.6-.48,1.32,0,2.63,0,4,0-.07.34-.13.63-.2.91q-1.35,5.39-2.69,10.77c-.07.27-.16.4-.48.4C47.32,15.93,46,16,44.57,16Z"/><path class="cls-1" d="M29.93,13.28c-.21.87-.4,1.67-.61,2.47,0,.08-.15.21-.23.21a38.27,38.27,0,0,1-4.15-.07c-1.37-.17-1.75-.91-1.42-2.37.39-1.71.84-3.42,1.27-5.13l2-7.85c0-.11.07-.22.11-.34h4.48l-.93,3.64h1.85l-.41,1.69c-.25,1-.25,1-1.31,1h-.82c-.27,1-.53,2.08-.79,3.11-.21.83-.41,1.65-.61,2.48s0,1.07.84,1.11Z"/><path class="cls-1" d="M24.74,0l-4,15.9H16.26c.31-1.22.6-2.41.89-3.6,1-3.9,2-7.81,2.93-11.72.1-.44.25-.61.73-.59C22.1.05,23.39,0,24.74,0Z"/><path class="cls-1" d="M35.43,15.92H30.94l1.15-4.61c.57-2.32,1.16-4.63,1.72-6.95.09-.37.24-.5.63-.49,1.3,0,2.61,0,4,0Z"/></g></g></svg>