<svg xmlns="http://www.w3.org/2000/svg" viewBox="0 0 83.36 19.32"><defs><style>.cls-1{fill:#8f8fa3;}</style></defs><g id="Capa_2" data-name="Capa 2"><g id="Textos"><path class="cls-1" d="M43.28,7.3a7.66,7.66,0,0,1-.66,3.09,6.31,6.31,0,0,1-2.83,3,6.69,6.69,0,0,1-2.62.78,8.23,8.23,0,0,1-3.71-.48,5.91,5.91,0,0,1-3.24-2.9,7.86,7.86,0,0,1-.8-2.3,5.92,5.92,0,0,1,.8-4.32A6.66,6.66,0,0,1,35,1,8.4,8.4,0,0,1,36.35.87a6.72,6.72,0,0,1,4.89,1.89,7.49,7.49,0,0,1,1.35,1.72A5.77,5.77,0,0,1,43.28,7.3Zm-10.45.15a3.71,3.71,0,0,0,.14,1A3.42,3.42,0,0,0,36.65,11a3.37,3.37,0,0,0,2.49-1.44,3.85,3.85,0,0,0,.66-1.94,3,3,0,0,0-.42-1.81,3.59,3.59,0,0,0-6-.24A2.89,2.89,0,0,0,32.83,7.45Z"/><path class="cls-1" d="M28.38,14.14H25c0-.16,0-.31,0-.45,0-1,0-2,0-3a1,1,0,0,0-.26-.71c-1.06-1.3-2.13-2.59-3.2-3.89l0,0S21.38,6,21.33,6s0,.07,0,.11,0,.34,0,.51v6.94c0,.2,0,.4,0,.59-.13,0-3.21,0-3.38,0V1l.39,0h2.53a.69.69,0,0,1,.58.27l1,1.19L24.5,4.92a4.17,4.17,0,0,1,.3.4c.13,0,.14-.11.14-.23V1c.13,0,3-.05,3.42,0h0q0,6.51,0,13A.57.57,0,0,1,28.38,14.14Z"/><path class="cls-1" d="M47.69,14.15H44.3c0-.12,0-12.94,0-13.16h3.37v3.8c0,.61,0,1.21,0,1.82,0,.06,0,.15,0,.17s.1-.07.13-.13c1-1.84,1.94-3.69,2.92-5.53L50.84,1h3.91l-.07.15L51.75,6.55c-.13.24-.13.24,0,.48.77,1.48,1.53,3,2.29,4.45l1.26,2.46.1.19h-4a.2.2,0,0,1-.2-.13l-3-6.1c-.13-.25-.25-.51-.38-.76,0,0,0-.13-.14-.1v7.09Z"/><path class="cls-1" d="M65,1H73l.8,2.93c-.37,0-.72,0-1.07,0H68.47v2c.41,0,.81,0,1.2,0h3.62l-.81,3h-4a22.07,22.07,0,0,0,0,2.31h5.64l-.81,3H65C65,14,65,1.17,65,1Z"/><path class="cls-1" d="M62.49,1l.79,2.91-.13,0-.82,0H60.2a5.63,5.63,0,0,0-.59,0,1.21,1.21,0,0,0-.32.11.34.34,0,0,0-.17.45,1,1,0,0,0,.14.24c.21.26.42.52.64.77.9,1,1.8,2,2.7,3.06.16.18.31.37.46.56a2.93,2.93,0,0,1,.66,1.94,3.32,3.32,0,0,1-.38,1.52A2.6,2.6,0,0,1,61.53,14a5.49,5.49,0,0,1-1.34.13l-3.55,0h-.36c-.17,0-.19,0-.23-.19l-.69-2.53c0-.07,0-.13,0-.21l.44,0h2.76c.24,0,.48,0,.71-.07a.75.75,0,0,0,.29-.09.35.35,0,0,0,.17-.46.65.65,0,0,0-.11-.22q-.15-.21-.33-.42l-3-3.39a4.38,4.38,0,0,1-.89-1.46,3.2,3.2,0,0,1,.05-2.32,2.72,2.72,0,0,1,1.9-1.63A5.69,5.69,0,0,1,58.91,1h3.22Z"/><path class="cls-1" d="M7,0V3.6l-.18.06a7.35,7.35,0,0,0-1.54.76A3.78,3.78,0,0,0,3.68,6.81a3.22,3.22,0,0,0,1.39,3.41,5,5,0,0,0,1.38.64l.68.22V15c-.14,0-.27,0-.4-.05a9.21,9.21,0,0,1-3.91-1.7A6.67,6.67,0,0,1,.6,10.39,8.65,8.65,0,0,1,.08,8.33,8.74,8.74,0,0,1,0,7.19a7.87,7.87,0,0,1,1-4A5.83,5.83,0,0,1,3.64.85,8.46,8.46,0,0,1,6.2.11L7,0Z"/><path class="cls-1" d="M75.4,1h3.4V11.21h4.56l-.8,2.94H75.4Z"/><path class="cls-1" d="M8.13,14.7V11.32l.19-.07c.3-.11.6-.2.89-.32A3.05,3.05,0,0,0,11,9.19c.12-.28.22-.57.32-.85l.09-.24h3.65v.12A8.81,8.81,0,0,1,14,11.52a5.73,5.73,0,0,1-1.49,1.76,7.39,7.39,0,0,1-1.86,1,6.89,6.89,0,0,1-1.56.41c-.26,0-.53,0-.8,0Z"/><path class="cls-1" d="M7.15,4.54v5.82a.69.69,0,0,1-.32,0,2.69,2.69,0,0,1-1.32-.7,3.32,3.32,0,0,1-1-1.83,2.51,2.51,0,0,1,.67-2.26A3.26,3.26,0,0,1,7,4.55Z"/><path class="cls-1" d="M8.24,4.63a2.32,2.32,0,0,1,.83.22,3.07,3.07,0,0,1,1.62,1.79,2.87,2.87,0,0,1,.16,1.48,2.16,2.16,0,0,1-.41,1A3.18,3.18,0,0,1,8.6,10.35c-.12,0-.23,0-.36.05Z"/><path class="cls-1" d="M75.25,19.16h-.43V16c.49.41.94.81,1.4,1.2l1.37,1.19,0,0V16.11h.44c0,.15,0,3.06,0,3.21l-.15-.12-2.28-2L75.38,17c-.07-.06-.12,0-.13.05v2.12Z"/><path class="cls-1" d="M71.28,15.89,73,19.14l-.11,0a2.43,2.43,0,0,0-.27,0,.17.17,0,0,1-.18-.11c-.1-.2-.22-.39-.32-.59a.17.17,0,0,0-.18-.11H70.63a.18.18,0,0,0-.19.12c-.1.19-.21.38-.32.57a.17.17,0,0,1-.18.12c-.12,0-.24,0-.39,0C70.13,18.06,70.7,17,71.28,15.89Zm.51,2-.52-1.07-.54,1.07Z"/><path class="cls-1" d="M83.35,19.17c-.18,0-.31,0-.45,0s-.09-.05-.12-.1l-.34-.62a.17.17,0,0,0-.18-.11q-.63,0-1.26,0a.18.18,0,0,0-.17.11c-.11.2-.23.39-.33.59a.2.2,0,0,1-.22.13h-.36l1.73-3.27Zm-1.17-1.26-.54-1.05c-.19.36-.37.7-.53,1.05Z"/><path class="cls-1" d="M64.22,16.55,64,16.7a.44.44,0,0,0-.13-.09,4.66,4.66,0,0,0-.49-.16,1,1,0,0,0-.29,0,.4.4,0,0,0-.34.44.32.32,0,0,0,.19.26l.32.14.63.26a.87.87,0,0,1,.4.34.79.79,0,0,1-.15,1,1.38,1.38,0,0,1-1.55.19,1.06,1.06,0,0,1-.3-.26,3,3,0,0,1-.28-.39l.27-.09.18,0a3.15,3.15,0,0,0,.25.33.83.83,0,0,0,1,.06.47.47,0,0,0,0-.79,3,3,0,0,0-.31-.15c-.24-.1-.49-.19-.72-.31a.67.67,0,0,1-.3-1,.92.92,0,0,1,.22-.22,1.23,1.23,0,0,1,1.29-.08A.8.8,0,0,1,64.22,16.55Z"/><path class="cls-1" d="M58.68,18.79h1.41l0,.33a17,17,0,0,1-1.91,0v-3h1.85c.09.11.06.22,0,.35H58.68v.83H60l0,.4H58.68Z"/><path class="cls-1" d="M66.87,17.91v1.22a1.48,1.48,0,0,1-.42,0c0-.12,0-2.74,0-3l.28,0a2.48,2.48,0,0,1,1.08.11.81.81,0,0,1,.57.79.8.8,0,0,1-.58.78,3.21,3.21,0,0,1-.52.11Zm0-.49a1,1,0,0,0,.7,0,.52.52,0,0,0,.19-.17.49.49,0,0,0-.3-.72,1.08,1.08,0,0,0-.59,0Z"/><path class="cls-1" d="M77.16,15.19c.15.07.2.13,0,.32a.52.52,0,0,1-.49.13l-.6-.09h-.13c-.07,0-.14,0-.15.09l-.25-.18.14-.13a.5.5,0,0,1,.46-.15l.8.07A1.56,1.56,0,0,0,77.16,15.19Z"/></g></g></svg>