<svg xmlns="http://www.w3.org/2000/svg" viewBox="0 0 56.56 36.2"><defs><style>.cls-1{fill:#3c3c3b;}</style></defs><g id="Capa_2" data-name="Capa 2"><g id="Textos"><path class="cls-1" d="M6.86,32.65a.66.66,0,0,1-.12.27.83.83,0,0,1-.2.22,1,1,0,0,1-.25.14.86.86,0,0,1-.27,0H3a3.93,3.93,0,0,1-.84-.09A3.32,3.32,0,0,1,1.44,33a2.72,2.72,0,0,1-.63-.5,2.24,2.24,0,0,1-.44-.71A3,3,0,0,1,.2,30.8a4.4,4.4,0,0,1,.15-1.19l1-3.72H2.65l-1,3.72a2.68,2.68,0,0,0-.1,1,1.66,1.66,0,0,0,.22.65,1.4,1.4,0,0,0,.42.42,2.12,2.12,0,0,0,.49.22,1.87,1.87,0,0,0,.42.09,1.62,1.62,0,0,0,.26,0H5.71L7.3,25.9H8.62Z"/><path class="cls-1" d="M14.69,32.84a.65.65,0,0,1,0,.21.43.43,0,0,1-.12.17.52.52,0,0,1-.17.12.78.78,0,0,1-.21,0,.48.48,0,0,1-.2,0,.36.36,0,0,1-.18-.12l-3.9-4.08V33.3H8.8V27.86a.53.53,0,0,1,.09-.3.52.52,0,0,1,.24-.2.54.54,0,0,1,.31,0,.46.46,0,0,1,.27.15l3.91,4.07V27.4h1.07v5.44Z"/><path class="cls-1" d="M17.49,33.3H16.42V27.4h1.07Z"/><path class="cls-1" d="M24.09,30.21H19.27V29h4.82Z"/><path class="cls-1" d="M35.6,25.93l-1.23,6.9a.7.7,0,0,1-.19.36.67.67,0,0,1-.35.19.69.69,0,0,1-.4-.05.64.64,0,0,1-.29-.25l-2.45-4-2.45,4a.76.76,0,0,1-.24.23.72.72,0,0,1-.32.08.6.6,0,0,1-.43-.16.65.65,0,0,1-.23-.4l-1.24-6.9h1.36L28,30.79l2.11-3.36a.54.54,0,0,1,.24-.23.72.72,0,0,1,.32-.08.73.73,0,0,1,.33.08.75.75,0,0,1,.24.23l2.1,3.36.88-4.86Z"/><path class="cls-1" d="M42.45,33.3H38.59a1.72,1.72,0,0,1-.48-.08,1.37,1.37,0,0,1-.49-.26,1.42,1.42,0,0,1-.37-.46,1.51,1.51,0,0,1-.15-.7V27.94a.52.52,0,0,1,0-.21.5.5,0,0,1,.11-.17.66.66,0,0,1,.17-.12.78.78,0,0,1,.22,0h4.81v1.07H38.17V31.8a.42.42,0,0,0,.11.32.44.44,0,0,0,.32.11h3.85V33.3ZM42,30.89H38.59V29.81H42v1.08Z"/><path class="cls-1" d="M49.52,33.3H44.65a.54.54,0,0,1-.22,0,.45.45,0,0,1-.17-.11.71.71,0,0,1-.11-.17.49.49,0,0,1,0-.21V27.4h1.07v4.83h4.34V33.3Z"/><path class="cls-1" d="M56.56,30.83a2.51,2.51,0,0,1-.7,1.77,2.24,2.24,0,0,1-.79.51,2.59,2.59,0,0,1-1,.19H51.21a.54.54,0,0,1-.22,0,.45.45,0,0,1-.17-.11.5.5,0,0,1-.11-.17.49.49,0,0,1,0-.21V27.94a.52.52,0,0,1,0-.21.5.5,0,0,1,.11-.17.66.66,0,0,1,.17-.12.78.78,0,0,1,.22,0h2.88a2.41,2.41,0,0,1,1,.19,2.24,2.24,0,0,1,.79.51,2.51,2.51,0,0,1,.7,1.77Zm-1.07-1a1.48,1.48,0,0,0-.1-.57,1.25,1.25,0,0,0-.29-.45,1.33,1.33,0,0,0-.44-.28,1.48,1.48,0,0,0-.57-.1H51.74v3.76h2.35a1.7,1.7,0,0,0,.57-.1,1.35,1.35,0,0,0,.44-.29,1.21,1.21,0,0,0,.29-.44,1.48,1.48,0,0,0,.1-.57Z"/><path class="cls-1" d="M3.21,33.9,2.83,36a.22.22,0,0,1-.05.11.24.24,0,0,1-.11.06.25.25,0,0,1-.12,0,.18.18,0,0,1-.09-.08L1.7,34.87,1,36.1a.16.16,0,0,1-.07.07.19.19,0,0,1-.1,0,.19.19,0,0,1-.13-.05A.15.15,0,0,1,.58,36L.19,33.9H.61l.27,1.5.65-1a.16.16,0,0,1,.07-.07.19.19,0,0,1,.1,0,.17.17,0,0,1,.1,0,.18.18,0,0,1,.08.07l.64,1,.28-1.5Z"/><path class="cls-1" d="M5.16,36.17H4l-.15,0-.15-.08a.42.42,0,0,1-.11-.15.36.36,0,0,1-.05-.21v-1.2a.13.13,0,0,1,0-.06.29.29,0,0,1,.09-.09H5.16v.33H3.84v1a.17.17,0,0,0,0,.1.17.17,0,0,0,.1,0H5.16v.33ZM5,35.43H4v-.34H5v.34Z"/><path class="cls-1" d="M7.16,36.17H5.58l0,0a.09.09,0,0,1,0,0,.14.14,0,0,1,0-.07V34.35h.33v1.49H7.16Z"/><path class="cls-1" d="M9.22,35.41a.73.73,0,0,1-.06.3A.72.72,0,0,1,9,36a.75.75,0,0,1-.24.15.77.77,0,0,1-.3.06h-1l-.06,0,0,0a.15.15,0,0,1,0-.07V34.51a.13.13,0,0,1,0-.06l0-.05.06,0h1a.77.77,0,0,1,.3.06.75.75,0,0,1,.24.15.72.72,0,0,1,.16.25.73.73,0,0,1,.06.3Zm-.33-.3a.57.57,0,0,0,0-.18.38.38,0,0,0-.09-.13.42.42,0,0,0-.14-.09.47.47,0,0,0-.17,0H7.73v1.16h.73a.47.47,0,0,0,.17,0,.42.42,0,0,0,.14-.09.38.38,0,0,0,.09-.13.57.57,0,0,0,0-.18Z"/><path class="cls-1" d="M9.87,36.17H9.54V34.35h.33Z"/><path class="cls-1" d="M12.08,36a.17.17,0,0,1,0,.07l0,0,0,0-.06,0-.07,0a.09.09,0,0,1,0,0l-1.21-1.26v1.28h-.33V34.49a.14.14,0,0,1,0-.09.13.13,0,0,1,.07-.06.12.12,0,0,1,.1,0,.12.12,0,0,1,.08,0l1.21,1.26V34.35h.33V36Z"/><path class="cls-1" d="M14.26,36a.15.15,0,0,1,0,.07l0,0-.06,0H12.81l-.11,0-.1-.06L12.52,36l-.06-.12a.77.77,0,0,1,0-.15v-.9s0-.06,0-.1a.42.42,0,0,1,0-.1.21.21,0,0,1,.06-.1.3.3,0,0,1,.08-.08l.12-.06.16,0h1.34v.33H12.91a.13.13,0,0,0-.1,0,.13.13,0,0,0,0,.1v.9a.13.13,0,0,0,0,.1.13.13,0,0,0,.1,0h1v-.41h-.88v-.34h1l.06,0,.06,0,0,.06s0,0,0,.06V36Z"/><path class="cls-1" d="M17.68,35.5a.73.73,0,0,1,0,.22.67.67,0,0,1-.08.17.77.77,0,0,1-.12.13l-.14.09-.15,0a.36.36,0,0,1-.14,0H15.43v-.41H17a.21.21,0,0,0,.18-.07.25.25,0,0,0,.07-.19.36.36,0,0,0,0-.1.22.22,0,0,0-.05-.08.24.24,0,0,0-.08-.06l-.1,0h-.95l-.21,0a.53.53,0,0,1-.22-.12.64.64,0,0,1-.16-.2.76.76,0,0,1-.07-.32.74.74,0,0,1,.07-.31.64.64,0,0,1,.16-.2.53.53,0,0,1,.22-.12,1,1,0,0,1,.21,0h1.4v.42h-1.4a.23.23,0,0,0-.18.07.26.26,0,0,0-.06.18.27.27,0,0,0,.06.19.23.23,0,0,0,.18.07H17l.14,0,.15,0a.42.42,0,0,1,.14.09.77.77,0,0,1,.12.13.54.54,0,0,1,.08.17A.66.66,0,0,1,17.68,35.5Z"/><path class="cls-1" d="M19.89,35.43a.75.75,0,0,1-.46.71.73.73,0,0,1-.3.06h-.45a.73.73,0,0,1-.3-.06.72.72,0,0,1-.25-.16.71.71,0,0,1-.21-.55v-.34a.71.71,0,0,1,.21-.55.72.72,0,0,1,.25-.16.73.73,0,0,1,.3-.06h.45a.73.73,0,0,1,.3.06.76.76,0,0,1,.46.71Zm-.33-.34a.34.34,0,0,0,0-.18.47.47,0,0,0-.08-.14.67.67,0,0,0-.14-.09.47.47,0,0,0-.17,0h-.45a.52.52,0,0,0-.18,0,.43.43,0,0,0-.13.09.34.34,0,0,0-.09.14.48.48,0,0,0,0,.18v.34a.48.48,0,0,0,0,.18.42.42,0,0,0,.09.14.41.41,0,0,0,.13.08.37.37,0,0,0,.18,0h.44a.34.34,0,0,0,.18,0l.14-.08a.64.64,0,0,0,.08-.14.34.34,0,0,0,0-.18v-.34Z"/><path class="cls-1" d="M21.89,36.17H20.31l0,0a.09.09,0,0,1,0,0,.14.14,0,0,1,0-.07V34.35h.33v1.49h1.35v.33Z"/><path class="cls-1" d="M23.82,36s0,0,0,.07a.1.1,0,0,1,0,0l-.05,0h-.81l-.22,0-.21-.07L22.29,36a.9.9,0,0,1-.15-.18.82.82,0,0,1-.11-.23,1.29,1.29,0,0,1,0-.29v-.91h.33v.91a.88.88,0,0,0,0,.24.86.86,0,0,0,.1.16l.13.1.14.05.11,0h.65V34.35h.33V36Z"/><path class="cls-1" d="M25.85,34.68h-.73v1.49h-.33V34.68h-.73v-.33h1.79Z"/><path class="cls-1" d="M26.42,36.17h-.33V34.35h.33Z"/><path class="cls-1" d="M28.72,35.43a1,1,0,0,1,0,.31.74.74,0,0,1-.4.4.81.81,0,0,1-.31.06h-.44a.81.81,0,0,1-.31-.06.76.76,0,0,1-.46-.71v-.34a.75.75,0,0,1,.46-.71.81.81,0,0,1,.31-.06H28a.81.81,0,0,1,.31.06.74.74,0,0,1,.4.4,1,1,0,0,1,0,.31Zm-.33-.34a.48.48,0,0,0,0-.18.34.34,0,0,0-.09-.14.43.43,0,0,0-.13-.09.48.48,0,0,0-.18,0h-.44a.48.48,0,0,0-.18,0,.67.67,0,0,0-.14.09.47.47,0,0,0-.08.14.34.34,0,0,0,0,.18v.34a.34.34,0,0,0,0,.18.64.64,0,0,0,.08.14l.14.08a.34.34,0,0,0,.18,0H28a.37.37,0,0,0,.18,0,.41.41,0,0,0,.13-.08.42.42,0,0,0,.09-.14.48.48,0,0,0,0-.18v-.34Z"/><path class="cls-1" d="M30.87,36a.17.17,0,0,1,0,.07l0,0-.05,0-.07,0-.06,0a.09.09,0,0,1-.05,0l-1.21-1.26v1.28h-.33V34.49a.14.14,0,0,1,0-.09.13.13,0,0,1,.07-.06.12.12,0,0,1,.1,0,.12.12,0,0,1,.08,0l1.21,1.26V34.35h.33V36Z"/><path class="cls-1" d="M33,35.63a.48.48,0,0,1,0,.18.59.59,0,0,1-.06.14.47.47,0,0,1-.1.1l-.11.07-.12,0H31.2v-.33h1.28a.17.17,0,0,0,.14-.06.18.18,0,0,0,.06-.15.24.24,0,0,0,0-.08.16.16,0,0,0,0-.07l-.06,0h-.84a.57.57,0,0,1-.18,0,.56.56,0,0,1-.17-.09.55.55,0,0,1-.13-.17.49.49,0,0,1,0-.25.47.47,0,0,1,0-.25.45.45,0,0,1,.13-.17.56.56,0,0,1,.17-.09.57.57,0,0,1,.18,0h1.12v.33H31.72a.18.18,0,0,0-.15.06.17.17,0,0,0-.05.15.2.2,0,0,0,.05.15.21.21,0,0,0,.15.05h.76l.11,0,.12,0a.41.41,0,0,1,.11.07l.1.1a.59.59,0,0,1,.06.14A.47.47,0,0,1,33,35.63Z"/><path class="cls-1" d="M35.9,36.17h-.33v-.45H34.41v.45h-.33v-.91a.9.9,0,0,1,.07-.37.81.81,0,0,1,.19-.29.79.79,0,0,1,.29-.18.86.86,0,0,1,.36-.07h.81a.29.29,0,0,1,.09.09.13.13,0,0,1,0,.06v1.66Zm-1.49-.78h1.16v-.71h-.64l-.12,0-.13,0a.41.41,0,0,0-.13.1.62.62,0,0,0-.1.16.61.61,0,0,0,0,.24Z"/><path class="cls-1" d="M38.11,36a.19.19,0,0,1,0,.07s0,0,0,0l-.05,0-.07,0-.06,0-.06,0-1.2-1.26v1.28h-.33V34.49a.24.24,0,0,1,0-.09.16.16,0,0,1,.08-.06.1.1,0,0,1,.09,0,.13.13,0,0,1,.09,0l1.21,1.26V34.35h.33V36Z"/><path class="cls-1" d="M40.31,35.41a.73.73,0,0,1-.06.3.72.72,0,0,1-.16.25.75.75,0,0,1-.24.15.73.73,0,0,1-.3.06h-1a.29.29,0,0,1-.09-.09.15.15,0,0,1,0-.07V34.51a.13.13,0,0,1,0-.06.29.29,0,0,1,.09-.09h1a.73.73,0,0,1,.3.06.75.75,0,0,1,.24.15.72.72,0,0,1,.16.25.73.73,0,0,1,.06.3v.3Zm-.33-.3a.57.57,0,0,0,0-.18.38.38,0,0,0-.09-.13.34.34,0,0,0-.14-.09.47.47,0,0,0-.17,0h-.73v1.16h.73a.47.47,0,0,0,.17,0,.34.34,0,0,0,.14-.09.38.38,0,0,0,.09-.13.57.57,0,0,0,0-.18v-.3Z"/><path class="cls-1" d="M43.7,35.5a.73.73,0,0,1,0,.22.45.45,0,0,1-.08.17.37.37,0,0,1-.12.13.67.67,0,0,1-.14.09l-.14,0a.39.39,0,0,1-.15,0H41.46v-.41H43a.25.25,0,0,0,.19-.07.29.29,0,0,0,.06-.19.34.34,0,0,0,0-.1.56.56,0,0,0-.05-.08l-.08-.06-.11,0H42.1l-.22,0a.57.57,0,0,1-.21-.12.53.53,0,0,1-.16-.2.63.63,0,0,1-.07-.32.62.62,0,0,1,.07-.31.53.53,0,0,1,.16-.2.57.57,0,0,1,.21-.12.93.93,0,0,1,.22,0h1.4v.42H42.1a.21.21,0,0,0-.18.07.23.23,0,0,0-.07.18.24.24,0,0,0,.07.19.21.21,0,0,0,.18.07h.95l.14,0,.15,0,.14.09a.47.47,0,0,1,.11.13.38.38,0,0,1,.08.17A.66.66,0,0,1,43.7,35.5Z"/><path class="cls-1" d="M45.65,36.17h-1.2l-.15,0-.15-.08a.58.58,0,0,1-.11-.15.46.46,0,0,1,0-.21v-1.2s0,0,0-.06a.29.29,0,0,1,.09-.09h1.56v.33H44.32v1a.13.13,0,0,0,0,.1.13.13,0,0,0,.1,0h1.19v.33Zm-.15-.74h-1v-.34h1Z"/><path class="cls-1" d="M47.79,35a.6.6,0,0,1,0,.2.8.8,0,0,1-.08.16.63.63,0,0,1-.11.12l-.13.08-.13,0h-.14l.69.6h-.51l-.68-.6h-.24v-.33h.74l.12,0,.09-.06.06-.08a.5.5,0,0,0,0-.12v-.21s0,0,0,0l0,0H46.3v1.49H46V34.51a.14.14,0,0,1,0-.06l0-.05.06,0h1.32a.34.34,0,0,1,.18,0,.41.41,0,0,1,.13.1.54.54,0,0,1,.07.13.69.69,0,0,1,0,.13V35Z"/><path class="cls-1" d="M49.93,34.35l-.86,1.76-.06.06-.09,0-.09,0-.06-.06-.86-1.76h.37l.64,1.31.64-1.31Z"/><path class="cls-1" d="M50.45,36.17h-.33V34.35h.33Z"/><path class="cls-1" d="M52.47,36.17H51.18l-.11,0L51,36.07,50.89,36l-.06-.12a.77.77,0,0,1,0-.15v-.9s0-.06,0-.1a.42.42,0,0,1,0-.1.21.21,0,0,1,.06-.1.54.54,0,0,1,.2-.14l.16,0h1.19v.33H51.28a.13.13,0,0,0-.1,0,.18.18,0,0,0,0,.1v.9a.18.18,0,0,0,0,.1.13.13,0,0,0,.1,0h1.19v.33Z"/><path class="cls-1" d="M54.43,36.17H53.24l-.15,0a.53.53,0,0,1-.15-.08.44.44,0,0,1-.12-.15.46.46,0,0,1,0-.21v-1.2a.14.14,0,0,1,0-.06l0-.05,0,0h1.56v.33H53.1v1a.18.18,0,0,0,0,.1.15.15,0,0,0,.1,0h1.19v.33Zm-.15-.74h-1v-.34h1Z"/><path class="cls-1" d="M56.49,35.63a.9.9,0,0,1,0,.18.61.61,0,0,1-.07.14.43.43,0,0,1-.09.1l-.12.07-.11,0H54.69v-.33H56a.2.2,0,0,0,.15-.06.21.21,0,0,0,0-.15.22.22,0,0,0,0-.08.16.16,0,0,0,0-.07l-.07,0H55.2l-.17,0a.56.56,0,0,1-.17-.09.58.58,0,0,1-.14-.17.62.62,0,0,1,0-.25.58.58,0,0,1,0-.25.47.47,0,0,1,.14-.17.56.56,0,0,1,.17-.09l.17,0h1.13v.33H55.2a.2.2,0,0,0-.15.06.21.21,0,0,0,0,.15.18.18,0,0,0,.2.2H56l.12,0,.12,0,.11.07a.43.43,0,0,1,.09.1.61.61,0,0,1,.07.14A.88.88,0,0,1,56.49,35.63Z"/><path class="cls-1" d="M10.83,14.65,6.49,19.16l4.73-2.48A6.6,6.6,0,0,1,10.83,14.65Z"/><path class="cls-1" d="M11.27,16.83,4.48,21.12,11.91,18A5.48,5.48,0,0,1,11.27,16.83Z"/><path class="cls-1" d="M52.42,0H4.07A4.07,4.07,0,0,0,0,4.07V20.71a4.07,4.07,0,0,0,4.07,4.07H52.42a4.07,4.07,0,0,0,4.07-4.07V4.07A4.07,4.07,0,0,0,52.42,0ZM39.58,6.35a1.46,1.46,0,0,1,.57-.56,1.66,1.66,0,0,1,.79-.2,1.61,1.61,0,0,1,.77.2,1.58,1.58,0,0,1,.59.56l.51.81H39.07Zm-1.4,2.23h5.51l1.11,1.76H41l-.07-.1-.06.1h-3.8Zm-3.66,5.83.8-1.26h3.84l-4.11,6.74a1.44,1.44,0,0,1-.57.55,1.62,1.62,0,0,1-.78.2,1.55,1.55,0,0,1-1-.37,1.6,1.6,0,0,1-.54-1L31,13.15h3.27Zm-.74-4.07H30.52L30.2,8.58h3.26Zm-5.91-7.6H32.4l.81,4.43H29.94l0-.11,0,.11H26.72ZM26.35,8.58h3.18l-.46,1.76H25.89ZM13.53,2.73H16.7L15.55,7.16H12.37ZM1.57,23,2.26,1.71l.42,16.11,1.75-7.11L3.26,19.16,8.8,8.47,4.57,18.26,8.1,12.9,4.39,20.1l6.45-6.18c0-.25,0-.51.06-.77h.74l2.92-2.81h-3L12,8.58h3.18l-.41,1.56,5.59-5.36-8.07,8.37h1.84a3.69,3.69,0,0,0,0,.82,3.78,3.78,0,0,0,.53,1.58,3.23,3.23,0,0,0,.88.92l1.57-.66-1.46.73h0a4.94,4.94,0,0,0,1.16.53,5.17,5.17,0,0,0,1,.22l.61.05h5.58l1.1-4.2h3.18L26.82,19a2.12,2.12,0,0,1-.29.65,2.33,2.33,0,0,1-.47.52,2.44,2.44,0,0,1-.61.34,1.82,1.82,0,0,1-.65.12H17.64a9,9,0,0,1-2-.22,7.2,7.2,0,0,1-1.83-.69,6.2,6.2,0,0,1-1.51-1.19l-.16-.18L6.51,21.12l7.41-.92L5,22.09l45.05.51Zm48.18-3.68a1.62,1.62,0,0,1-.44.85,1.51,1.51,0,0,1-.84.45,1.65,1.65,0,0,1-1-.11,1.56,1.56,0,0,1-.71-.61l-4.1-6.74h3.85l.78,1.26.23-1.26h3.29Zm1.6-9H48.07l.32-1.76h3.28Zm.57-3.18H48.65l.81-4.43h3.25Z"/></g></g></svg>