<svg id="Logos_Patrocinadores" data-name="Logos Patrocinadores" xmlns="http://www.w3.org/2000/svg" viewBox="0 0 1500 600"><defs><style>.cls-1{fill:#7a97ab;}</style></defs><path class="cls-1" d="M465.56,333.46H443.33V255.7H465.5v10.12c6.06-7.12,13.29-11.77,22.88-11.7s17.16,3.52,21.76,11.69c3.61-2.7,6.89-6,10.83-8,10.47-5.28,21.16-5.58,31.3,1,6,3.84,8.5,10,9.56,16.76a52.47,52.47,0,0,1,.52,7.93c0,15.95,0,31.9,0,47.86v2.08H540.13V331.5c0-13.78,0-27.55,0-41.33a29,29,0,0,0-1-7.3c-1.81-6.7-7.51-9.25-13.71-8.38-6.54.91-10.29,4.93-11.06,11.48a47.56,47.56,0,0,0-.34,5.6q0,19.94,0,39.88v2H491.69v-2c0-13.84,0-27.68,0-41.52a28.23,28.23,0,0,0-.91-6.77c-1.79-7.11-7.76-9.59-13.84-8.71-7.07,1-11.18,5.9-11.24,13.47-.13,14.44-.08,28.88-.1,43.32Z"/><path class="cls-1" d="M935.21,333.47h-22.4v-2.2c0-14.69.05-29.37-.1-44.06-.07-6.35-3.68-11.26-8.88-12.41-8.49-1.89-16.28,1.91-16.84,12.49-.48,8.92-.25,17.87-.3,26.82,0,6.39,0,12.79,0,19.31H864.57V255.67h22.06v10.91c6-7.76,13.23-12.5,22.85-12.46s17.26,3.52,22.18,12.2c3.85-4.39,8.16-7.95,13.52-10a32.13,32.13,0,0,1,23.18-.3c9.18,3.42,13.41,10.77,14.75,20a64.62,64.62,0,0,1,.52,9c0,15.41,0,30.83,0,46.24v2.11H961.39v-2c0-13.84,0-27.68,0-41.52,0-3.7-.5-7.36-2.62-10.55-4.86-7.27-17.25-6.66-21.41,1a19.22,19.22,0,0,0-2.12,9.41v43.65Z"/><path class="cls-1" d="M736.38,333.46H714.23V322.94c-.52.5-.82.72-1.05,1-9.89,12.56-25.62,13.58-37.81,7.85-11.55-5.43-17.77-15.07-20.06-27.3-1.81-9.65-1.33-19.25,2.5-28.41,5.06-12.11,14.08-19.59,27.13-21.57,11.13-1.68,20.78,1.5,28.38,10.1.15.17.34.32.74.69V227.59h22.32Zm-21.85-39.83c-.18-1.22-.36-3.45-.84-5.61-1.7-7.62-7.9-13.63-15.1-14.77A18.15,18.15,0,0,0,679.43,283c-3.3,6.13-3.54,12.68-1.66,19.29,3.57,12.56,17.92,17.92,28.3,10.48C712.21,308.36,714.34,301.92,714.53,293.63Z"/><path class="cls-1" d="M1039.72,289c.62-8.59-4.78-14.52-13.38-15.08a56.28,56.28,0,0,0-24.78,4.14L996,261a64.58,64.58,0,0,1,16.35-5.19,74.32,74.32,0,0,1,21.11-.72c14.43,1.65,24.82,9.25,27.11,25.15a58.51,58.51,0,0,1,.68,7.92c.06,14.68,0,29.36,0,44v1.18h-21.65v-7.26c-3.1,2-5.92,4.54-9.22,5.9-11.41,4.7-22.65,4.54-32.93-3-5.31-3.91-7.71-9.6-8.07-16.13-.28-5.2.35-10.23,3.13-14.8,4-6.49,10.15-9.59,17.28-11.07a56,56,0,0,1,28.26,1.47Zm-13.26,9.83c-3.32.71-6.4,1.06-9.26,2.07a9.15,9.15,0,0,0-6.4,8.78,8.52,8.52,0,0,0,4.71,8.34,15.62,15.62,0,0,0,8.43,1.63c8.57-.49,16.83-4.78,16.2-15.82-.08-1.36-.51-2-1.7-2.29C1034.41,300.61,1030.37,299.71,1026.46,298.83Z"/><path class="cls-1" d="M575.36,255.64h22.4v2.14c0,14.63,0,29.25.1,43.88.07,6.6,3.58,11.38,9.27,12.69,7.94,1.84,15.84-1.23,17.26-11.32a37.69,37.69,0,0,0,.32-4.87q0-20.21,0-40.43v-2.07h22.13v77.79H624.74v-10.1a101.64,101.64,0,0,1-7.78,7c-15.58,11.5-37.94,2.31-40.86-16.76a61.72,61.72,0,0,1-.71-9c-.07-15.59,0-31.18,0-46.77Z"/><path class="cls-1" d="M804.76,255.66v10.77c.93-1.07,1.54-1.74,2.11-2.44,10.07-12.16,25.93-12,35.85-5.81,6.36,4,9.49,10.11,10.74,17.26a56.45,56.45,0,0,1,.73,9.18c.07,15.6,0,31.19,0,46.79v2h-22.4v-2.05c0-14.57,0-29.13-.09-43.7-.07-6.56-3.52-11.36-9-12.79-7.76-2-16.31,1.07-17.6,11.49a38.88,38.88,0,0,0-.31,4.69q0,20.13,0,40.26v2.08H782.72V255.66Z"/><path class="cls-1" d="M1093.45,333.46h-22V255.65h22.1v14.48c2.62-4.66,5.37-9.12,9.87-12.18s9.55-4,15-3.85v23.13c-2.1.2-4.25.28-6.36.65-9.39,1.64-15.51,7.52-17.36,17a59.47,59.47,0,0,0-1.08,10.4c-.15,9.24-.06,18.48-.06,27.73A3.93,3.93,0,0,1,1093.45,333.46Z"/><path class="cls-1" d="M352.75,333.11a13.66,13.66,0,0,1-13-9.45A13.94,13.94,0,0,1,345,308.09,26.69,26.69,0,0,0,349,304.3a8.31,8.31,0,0,0,1.61-8.95,35.06,35.06,0,0,0-2.64-5.53,13.82,13.82,0,0,1,21.18-17.47,40.4,40.4,0,0,0,4.65,3.73c4.25,2.86,7.48,2.42,10.82-1.5,2.41-2.83,5.13-5,8.9-5.8a13.78,13.78,0,0,1,13.15,22.52c-5.9,6.45-15,6.46-20.89,0-1.74-1.9-3.61-3.64-6.17-4.25-3.15-.74-5.66.83-7.94,2.71-2.51,2.07-4.89,4.29-7.36,6.41-3.23,2.77-4.24,6-2.33,10,1.12,2.33,2.1,4.73,3.23,7.06A13.69,13.69,0,0,1,352.75,333.11Z"/><path class="cls-1" d="M748.45,255.66H770.6v77.75H748.45Z"/><path class="cls-1" d="M320.91,296.09a13.79,13.79,0,1,1,13.91-13.67A13.77,13.77,0,0,1,320.91,296.09Z"/><path class="cls-1" d="M378.85,245.19a13.79,13.79,0,1,1-13.72-13.77A13.58,13.58,0,0,1,378.85,245.19Z"/><path class="cls-1" d="M314,333.19a13.84,13.84,0,0,1-13.83-13.81A13.9,13.9,0,1,1,314,333.19Z"/><path class="cls-1" d="M402.1,319.43a13.81,13.81,0,0,1-27.61,0,13.81,13.81,0,1,1,27.61,0Z"/><path class="cls-1" d="M314.12,245a13.84,13.84,0,1,1,27.66.84,13.84,13.84,0,0,1-27.66-.84Z"/><path class="cls-1" d="M402.24,259.06a14,14,0,0,1-13.86-13.82,13.9,13.9,0,0,1,27.79-.15A14.07,14.07,0,0,1,402.24,259.06Z"/><path class="cls-1" d="M759.5,250.75a11.66,11.66,0,1,1,11.69-11.62A11.46,11.46,0,0,1,759.5,250.75Z"/></svg>