<svg id="Logos_Patrocinadores" data-name="Logos Patrocinadores" xmlns="http://www.w3.org/2000/svg" viewBox="0 0 1500 600"><defs><style>.cls-1{fill:#7a97ab;}</style></defs><path class="cls-1" d="M1155.87,451.3l-32.76-28.79-1,.4v26.67h-5.28v-39.2l34.3,29.69V412.3h5.56v39Z"/><path class="cls-1" d="M508.5,279.8V227.86h42.08V388.48H508.89c-.16-1.69-.44-3.33-.45-5,0-12.48-.11-25,0-37.45a12.63,12.63,0,0,0-3.18-8.9c-12.74-15.22-25.27-30.61-37.88-46-.74-.9-1.49-1.78-2.23-2.68l-1.23.23c-.18,1.93-.52,3.86-.53,5.79q0,44.15,0,88.3c0,1.79-.22,3.57-.36,5.7H421.78V227.88a40.06,40.06,0,0,1,4.3-.45c10.54,0,21.08.06,31.61-.07a8.1,8.1,0,0,1,6.78,3.22q19.93,23.41,39.95,46.77a25,25,0,0,1,2.22,3.67Z"/><path class="cls-1" d="M646.77,389.33c-33.46-.94-60.51-13.79-75.36-44.81-14.7-30.69-13.34-61.07,9.14-88.3,13.24-16,30.87-25.49,51.39-28.49,35-5.13,64.48,5.33,86,34,14.82,19.7,16.91,42.22,11.37,65.72C720.37,365.32,686.82,390,646.77,389.33Zm-42.08-83.48c0,25.1,18.61,44.47,42.58,44.38,22.06-.1,42.35-17,42.62-45,.21-21.43-20.08-40.07-42.83-39.85C621.88,265.65,603.49,286.47,604.69,305.85Z"/><path class="cls-1" d="M744.19,388.52V227.85h41.5V298.5l1.26.39,37.51-71.15h47.78l-38.4,70.88,46.08,89.8H829.34L787,301.65l-1.09.18v86.69Z"/><path class="cls-1" d="M1108.45,352.41c-3.48,12.76-6.62,24.25-9.85,36.07H997.33V227.86h96.94c3.14,11.57,6.31,23.24,9.74,35.9h-64.67v24.1h58.79c-3.43,12.58-6.6,24.17-9.9,36.27h-48.82v28.28Z"/><path class="cls-1" d="M888.44,388.29l-9.59-35.08c2.33-.26,3.95-.58,5.57-.59,11.59,0,23.19,0,34.78-.06a41.36,41.36,0,0,0,8.23-.86c5-1,6.58-4.4,3.94-8.76a59.09,59.09,0,0,0-6.43-7.94c-11.63-13.24-23.43-26.32-34.89-39.7-7.68-9-13-19-12.65-31.42.47-17,10.25-30,26.8-34.21a67.3,67.3,0,0,1,15.2-2.15c14.36-.29,28.72-.11,43.08-.09,1.15,0,2.31.23,3.94.41l9.72,35.63c-2.39.12-3.93.25-5.47.25-10.93,0-21.87,0-32.8,0a38,38,0,0,0-7.06.68c-5.67,1.08-7.48,4.71-4.08,9.4,3.76,5.19,8.34,9.79,12.58,14.63,11.17,12.74,22.75,25.17,33.43,38.32,8.75,10.79,10.88,23.55,6.65,36.86-4.88,15.39-16.69,23.15-31.91,24.22-18.75,1.32-37.63.75-56.46,1A15.26,15.26,0,0,1,888.44,388.29Z"/><path class="cls-1" d="M290.21,215.72v43.94c-2.83,1.07-5.81,2.06-8.68,3.31-14.29,6.23-25.83,15.38-31,30.67-7.6,22.61,3.37,43.95,27,52.88,4.41,1.67,9,2.94,13.75,4.49v47.18a31.66,31.66,0,0,1-4-.24c-20.88-3.95-39.67-12.35-55.46-26.72a78.29,78.29,0,0,1-22.58-35.52c-6.7-22-6.78-44.19.6-65.89,9.85-28.95,31.85-44.39,60.79-51.06C276.72,217.35,283,216.81,290.21,215.72Z"/><path class="cls-1" d="M1211.19,388.64h-87.35V227.91h41.53v124.6H1221C1217.57,365.16,1214.4,376.83,1211.19,388.64Z"/><path class="cls-1" d="M343.37,314.56H388C385.08,336.49,377.89,356,362.88,372,350,385.78,321.05,397,303.35,395.26V353.84c9.58-2.89,19.21-5.86,26.56-13.09S340,324,343.37,314.56Z"/><path class="cls-1" d="M291.52,271.17v71.3c-16.06-.05-32.65-18.46-33.28-35.65C257.45,285,277.8,272.38,291.52,271.17Z"/><path class="cls-1" d="M304.69,272.21c19.29,1.94,34.05,21.27,32.07,41.31-1.72,17.42-20.71,28.9-32.07,29.13Z"/><path class="cls-1" d="M1073.72,409.73l20.58,39.86h-6.23l-5.35-9.85h-18.44l-5.5,9.89h-6.15Zm-.15,11.33c-2.55,5.08-4.53,9-6.67,13.3h13.18C1077.89,429.87,1076,426,1073.57,421.06Z"/><path class="cls-1" d="M1220.84,449.64h-6.24q-2.62-4.81-5.41-9.91h-18.38l-5.52,9.86h-6.14c7-13.29,13.75-26,21.08-39.83Zm-14.11-15.2c-2.33-4.58-4.24-8.32-6.69-13.11-2.51,4.93-4.47,8.77-6.69,13.11Z"/><path class="cls-1" d="M919.92,445.11h17.32c.09,1.83.15,2.92.23,4.41H914.13V412.24H937a7.18,7.18,0,0,1,.56,1.7,15.65,15.65,0,0,1-.35,2.53H920v10.29h16.57c.08,1.78.13,3,.22,4.78H919.92Z"/><path class="cls-1" d="M987.57,417.75l-3.5,2c0-.36,0-.73,0-1.09-3-.89-6-2.28-9.11-2.5a5.13,5.13,0,0,0-5.66,4.47c-.45,3,1.76,4.17,4,5.12,3.38,1.46,6.93,2.54,10.21,4.2,7.77,3.93,8.23,12.8,1.06,17.77-5.65,3.91-14,3.9-19.21-.41-1.88-1.55-3.06-3.93-5-6.57l5.68-1.65c2.09,4.73,5.41,7.31,10.61,6.54,3.35-.49,6.11-1.81,6.82-5.49s-1.58-5.59-4.56-6.88c-3.38-1.46-6.86-2.7-10.19-4.25s-5.6-4.06-5.46-7.95c.15-4.11,2.54-6.77,6.18-8.39C976.32,409.66,984.59,411.81,987.57,417.75Z"/><path class="cls-1" d="M1019.85,434.33V449.5h-5.33V412.3c6.14-.77,12-1,17.63,1.33a9.81,9.81,0,0,1,6,9.78c-.23,4.28-2.94,7.72-7.47,9.17a35,35,0,0,1-5,.94C1024,433.79,1022.32,434,1019.85,434.33Zm.35-5.92c5.27,1.21,10,.24,11.25-2.81.72-1.76.79-4.74-.26-6.08-2.71-3.47-6.79-3-11-2.4Z"/><path class="cls-1" d="M1144.86,400.76l2.14,1.56a4.15,4.15,0,0,1-.26,1.24c-2.51,3.64-5.84,3.65-9.74,2.56-2.53-.7-5.29-.58-8-.82-.1.4-.19.8-.29,1.21l-3-2.18c1.7-1.36,2.93-3.08,4.42-3.36,2.18-.4,4.56.25,6.85.42s4.87.31,7.3.47Z"/></svg>