<svg id="Logos_Patrocinadores" data-name="Logos Patrocinadores" xmlns="http://www.w3.org/2000/svg" viewBox="0 0 1500 600"><defs><style>.cls-1{fill:#7a97ab;}</style></defs><path class="cls-1" d="M662.7,335.47H667q58.18,0,116.37,0a23.39,23.39,0,0,0,5.74-.54c4.21-1.06,7.22-3.6,8.31-7.95s.33-8.76-3.28-11.52a42.66,42.66,0,0,0-11.72-6.38c-19.78-6.84-39.7-13.27-59.52-20-7.85-2.65-15.55-5.68-21.58-11.75-15.22-15.31-20.47-33.37-13.63-54,6.75-20.36,22.08-30.81,42.77-34.15a19,19,0,0,1,3-.13h74.74c.81,0,1.61.08,2.59.13V227.3H737.15c-6.27,0-9.64,2.21-11.18,7.32s-.06,10.17,5.32,12.81a205.72,205.72,0,0,0,24.11,9.94c16.84,5.77,34.14,10.32,50.7,16.77,14.93,5.81,26.14,16.48,30.84,32.41,8.56,29.07-7.34,57.32-34.35,65.22a50.56,50.56,0,0,1-13.85,1.87c-40.91.15-81.82.06-122.72.15-2.69,0-3.41-.8-3.37-3.41.13-10.47.05-20.95.05-31.42Z"/><path class="cls-1" d="M980.25,373.55c1.28-5.32,2.5-10.47,3.76-15.61,2.33-9.54,4.62-19.1,7.06-28.61a11.43,11.43,0,0,0-1.68-9.67q-28.17-43.12-56.22-86.35c-2.23-3.45-5-5.5-9.17-5.63-1.93-.06-3.85-.14-5.78-.15-4.92,0-8.34,2.13-11.05,6.38q-27,42.29-54.22,84.37c-.37.59-.79,1.16-1.33,1.94-.37-4.45-.47-8.65-1.13-12.75-1.93-12-7.87-21.81-17.28-29.5-1.33-1.08-1.84-1.83-.73-3.54,13.52-20.79,27.08-41.55,40.35-62.5,7.55-11.93,18.19-18.84,31.9-21.46a77.45,77.45,0,0,1,38.42,1.85,42.89,42.89,0,0,1,23.65,18q28.49,43.6,57,87.16c7,10.68,8.35,22.39,5.59,34.65-3,13.25-6.19,26.46-9.25,39.69-.3,1.29-.58,2.17-2.21,2.16-12.13-.06-24.27,0-36.4-.06A7.51,7.51,0,0,1,980.25,373.55Z"/><path class="cls-1" d="M674.51,189.05c.06,1.24.14,2.14.14,3,0,10.74-.08,21.49.06,32.24,0,2.47-.71,3.07-3.1,3.06-25.09-.08-50.19,0-75.28,0-9.41,0-13,3.57-13,12.91q0,64.2,0,128.41c0,.92,0,1.84,0,2.75.1,1.59-.47,2.34-2.19,2.33q-18.2-.06-36.4,0c-1.91,0-2.26-.85-2.24-2.52.08-5.05,0-10.1,0-15.16q0-56.9,0-113.8c0-17.16,5.57-31.71,19.48-42.36A50.73,50.73,0,0,1,593.67,189c25.64.07,51.28,0,76.93,0Z"/><path class="cls-1" d="M508,189.17h47.06c-3.38,3-7,5.76-10.12,9A51.51,51.51,0,0,0,531.15,225c-.31,1.76-1,2.43-2.89,2.39-6-.11-12.12-.07-18.18,0-1.56,0-2.33-.36-2.32-2.14.06-11.56,0-23.13.05-34.69A9.09,9.09,0,0,1,508,189.17Z"/><path class="cls-1" d="M893.4,355.63A20.48,20.48,0,1,1,873.1,335,20.4,20.4,0,0,1,893.4,355.63Zm-9.72-6.34-8.17,3.06V347.8c0-4.14-.7-4.58-5.25-3.15v7.67l-8-3.05-1.89,4.66,8.29,3.35-5.91,6.44,3.8,3.3,6.3-6.79c1.95,1.94,3.73,3.64,5.42,5.43,1,1,1.79,1.1,2.78.12.7-.68,1.45-1.32,3.08-2.8-2.55-1.85-4.82-3.49-7.49-5.44l8.88-3.68Z"/><path class="cls-1" d="M486.32,189.06c5,0,9.65-.07,14.3.08a2.51,2.51,0,0,1,1.59,1.85q.15,17.2,0,34.39a2.7,2.7,0,0,1-1.91,1.85c-4,.17-8.07.15-12.1,0a2.5,2.5,0,0,1-1.77-1.65C486.3,213.56,486.32,201.55,486.32,189.06Z"/><path class="cls-1" d="M469.63,189.19h6.73c.05,1.2.15,2.28.15,3.35,0,10.65,0,21.29.06,31.94,0,2.11-.48,3.14-2.75,2.84-.9-.12-1.92.21-2.73-.09s-1.77-1.09-1.77-1.68c-.09-11.84-.05-23.67,0-35.51A2.92,2.92,0,0,1,469.63,189.19Z"/><path class="cls-1" d="M877.08,410.36c-2.2.71-2.71-.21-2.67-2.12a113.63,113.63,0,0,0-.43-13.61,15.45,15.45,0,0,0-1,1.64c-1.82,3.8-3.52,7.67-5.46,11.41-.58,1.13-1.79,1.95-2.7,2.91a14.27,14.27,0,0,1-2.53-2.77c-2.18-4.21-4.17-8.51-6.86-12.67v15.28h-2.82V390.5c2.61-.86,4.23-.37,5.39,2.37,2,4.71,4.4,9.24,6.88,14.36,2.44-5,4.79-9.44,6.79-14,1.09-2.51,2.46-3.74,5.43-2.75Z"/><path class="cls-1" d="M709.26,405.55V390.33H712v20a3.87,3.87,0,0,1-4.84-1.53c-3.63-4.71-7.46-9.26-11.75-14.54v16.14l-2.84.2V390.44a3.83,3.83,0,0,1,4.78,1.55c3.62,4.69,7.41,9.24,11.14,13.85Z"/><path class="cls-1" d="M954.88,390.42v19.89a3.88,3.88,0,0,1-4.84-1.53c-3.63-4.7-7.44-9.26-11.72-14.53v16.14l-2.89.21V390.46a3.79,3.79,0,0,1,4.78,1.52,145.49,145.49,0,0,0,11.89,13.75v-6.64c0-2.21.09-4.41,0-6.61C952,390.49,952.72,389.78,954.88,390.42Z"/><path class="cls-1" d="M844.5,390.34c.68,2-.14,2.46-1.81,2.44-3.65-.06-7.3,0-11.14,0v5.87c3.44,0,6.88-.08,10.32.05.87,0,2.4.67,2.45,1.17.24,2-1.52,1.3-2.52,1.32-3.37.09-6.74,0-10.27,0V408c3.77,0,7.58,0,11.38,0,1.6,0,2.56.35,1.83,2.59H828.58V390.34Z"/><path class="cls-1" d="M566.14,401.4l1.93,8.72c-2.45,1-3.36.21-3.44-1.95a23,23,0,0,0-.21-2.75c-.36-2.3-1.6-3.49-4.08-3.57-7.61-.26-7.61-.31-7.89,7,0,.44-.09.89-.16,1.53l-2.56.11V390.4c4.75,0,9.51-.38,14.18.12,3.69.4,5.18,5.26,2.91,8.29a10,10,0,0,1-1.85,1.55h0A1.33,1.33,0,0,1,566.14,401.4Zm-13.66-8.59a40.76,40.76,0,0,0,.07,5,2.12,2.12,0,0,0,1.48,1.41,78.28,78.28,0,0,0,8-.07,2.84,2.84,0,0,0,2.9-3,2.9,2.9,0,0,0-2.94-3.29C558.94,392.71,555.92,392.81,552.48,392.81Z"/><path class="cls-1" d="M672.86,411c-6.87-.2-11.22-4.59-11-11.06.24-6.26,4.85-10.29,11.62-10.16s11.38,4.6,11.14,10.94S679.71,411.2,672.86,411Zm.22-2.61c5.27.06,8.56-3,8.61-7.89s-3.22-8.1-8.42-8.11-8.34,2.94-8.45,7.77C664.71,405.14,667.89,408.32,673.08,408.38Z"/><path class="cls-1" d="M798,396.84c-1.36-.92-2.45-1.34-3.06-2.13-1.83-2.38-6.87-3.27-9.22-1.32a3.25,3.25,0,0,0-1.16,2.53,3.49,3.49,0,0,0,2,2.22c2.17.67,4.48.9,6.72,1.38,4,.85,5.75,2.52,5.67,5.26-.09,3.05-2.12,5.41-5.93,5.76a25.71,25.71,0,0,1-8.59-.82c-2.36-.6-3.57-2.69-3.58-6.29,1.36.89,2.52,1.25,3,2,1.95,3.08,8.73,4.08,11.3,1.53a2.48,2.48,0,0,0-1.16-4.3,67.69,67.69,0,0,0-7-1.46c-3.85-.76-5.6-2.42-5.59-5.33s2-5.07,5.6-5.8c5.52-1.13,9.85.82,11.06,5A11.47,11.47,0,0,1,798,396.84Z"/><path class="cls-1" d="M885.38,403.65a10.7,10.7,0,0,1,2.37,2c1.86,3,9.09,3.77,11.37,1.13,1.37-1.59.8-3.54-1.53-4.21-2.54-.73-5.23-1-7.81-1.6-3.68-.89-5.34-3.46-4.27-6.68a6.44,6.44,0,0,1,2-2.84c2.91-2.28,9.1-2.33,12,0,1.21,1,1.89,2.65,2.81,4l-.92,1a10.23,10.23,0,0,1-2.66-1.75c-1.89-2.41-6.78-3.3-9.21-1.34a3.24,3.24,0,0,0-1.2,2.5,3.46,3.46,0,0,0,2,2.22c2.27.69,4.67.93,7,1.45,3.83.85,5.44,2.43,5.39,5.19,0,3-2,5.38-5.61,5.74a26.06,26.06,0,0,1-8.62-.66c-2.45-.6-3.84-2.67-3.88-5.33Z"/><path class="cls-1" d="M732.94,403.71c.85.6,2.16,1,2.45,1.81,1.29,3.52,9.46,3.56,11.36,1.42,1.41-1.59,1-3.59-1.26-4.26-2.54-.75-5.22-1-7.8-1.63-3.82-.89-5.46-3.48-4.45-6.84a6,6,0,0,1,.42-1c1.34-2.51,5.26-3.88,9.32-3.25,4.23.66,5.93,2.14,6.62,5.88-1.41.54-2.35.53-3.29-1.1-1.48-2.59-6.84-3.27-9.13-1.29a3.23,3.23,0,0,0-1.11,2.55,3.52,3.52,0,0,0,2,2.18c2.37.69,4.93.75,7.25,1.55a9.73,9.73,0,0,1,4.6,3c1.48,2,.13,5.48-2.41,6.78a12.26,12.26,0,0,1-12.38-.26c-1.48-.89-2.26-2.93-3.36-4.45Z"/><path class="cls-1" d="M620.66,403.08a9.94,9.94,0,0,1-11.4,7.83c-6.17-.81-9.63-4.9-9.41-11.12.2-5.74,4-9.58,10-10,5.59-.4,10,2.56,10.71,7.29-1.45.67-2.4.51-3.26-1.12-1.68-3.19-5.42-4.36-9.32-3.21-3.56,1.05-5.31,3.77-5.19,8.06.11,4,2.17,6.65,5.71,7.41,4,.84,7.06-.52,8.81-3.87C618.21,402.69,618.21,402.69,620.66,403.08Z"/><path class="cls-1" d="M982.64,397.83c-.85-.64-2-1.1-2.5-1.94a8,8,0,0,0-9.16-3.24c-3.71,1-5.59,3.78-5.49,8.15.09,3.89,2.21,6.63,5.73,7.41,3.9.86,7.22-.47,8.78-3.88.77-1.7,1.72-1.86,3.19-1.33-.46,4.75-4.77,8.12-10.15,8-6.22-.15-10.35-4.25-10.49-10.41s3.61-10.22,9.78-10.78c5.71-.52,10.25,2.48,10.94,7.22Z"/><path class="cls-1" d="M594.3,410.38c-1.88.65-3.28.2-3.74-1.86-.77-3.38-2.84-4.63-6.18-4a3.94,3.94,0,0,1-1.37,0c-3.39-.67-5.39.7-6.15,4-.44,1.91-1.69,2.45-3.87,1.71,1.55-3.41,3.09-6.78,4.62-10.16,1.29-2.84,2.49-5.73,3.93-8.49a3.22,3.22,0,0,1,2.26-1.37,2.61,2.61,0,0,1,2.15,1.06c2.89,6.14,5.64,12.34,8.41,18.53C594.42,410,594.32,410.19,594.3,410.38Zm-10.24-16.74-.72-.06c-1.12,2.64-2.25,5.27-3.5,8.2h7.77C586.35,398.89,585.21,396.26,584.06,393.64Z"/><path class="cls-1" d="M775.49,390.69c-2,2.68-4,5.46-6.17,8a8.91,8.91,0,0,0-2.46,7.26,38.76,38.76,0,0,1,0,4.46h-2.6c-.13-.4-.32-.67-.27-.9,1.12-6.07-1.94-10.52-5.62-14.77-1.11-1.29-2-2.77-3.09-4.27,2.31-.76,3.7-.17,4.86,1.66,1.56,2.46,3.37,4.76,5,7.06,3.93-2.55,4.26-8.67,9.64-9.23Z"/><path class="cls-1" d="M535.27,410.26c-2.45.78-3.07,0-3-2,.09-4.4,0-8.8,0-13.19,0-1.8-.58-2.49-2.38-2.34a19.47,19.47,0,0,1-4.11-.06c-.5-.07-.9-.83-1.34-1.27.47-.42.93-1.18,1.41-1.19,5.57-.08,11.14-.05,16.69-.05,1,2.87-.86,2.57-2.38,2.59s-3.08,0-4.91,0Z"/><path class="cls-1" d="M626.49,390.27h17.7c.41,2.46.41,2.46-2.29,2.49-1.54,0-3.09,0-5,0v17.65h-2.7a6.47,6.47,0,0,1-.22-1.1c0-4.69-.09-9.37,0-14.05,0-1.87-.48-2.75-2.47-2.52-1.09.13-2.2,0-3.3,0C626.52,392.88,625.85,392.2,626.49,390.27Z"/><path class="cls-1" d="M821.13,392.79H814v17.63l-2.94.14V393.45c-2.46-2-6.36,1.21-8.23-3.27,6.31,0,12-.05,17.65.08.49,0,.95,1.17,1.42,1.79Z"/><path class="cls-1" d="M654.14,410.35c-2.28.72-2.78-.23-2.75-2.13q.12-7.85,0-15.69c0-1.89.48-2.86,2.75-2.12Z"/><path class="cls-1" d="M923.76,390.19l2.5.11v20.08l-2.5.25Z"/><path class="cls-1" d="M992.15,410.44V407.6h3.08v2.84Z"/></svg>