<svg id="Logos_Patrocinadores" data-name="Logos Patrocinadores" xmlns="http://www.w3.org/2000/svg" viewBox="0 0 1500 600"><defs><style>.cls-1{fill:#7a97ab;}</style></defs><path class="cls-1" d="M1293.91,286.61c-12.18,2.83-20-1.13-22.56-14a17.64,17.64,0,0,0-3.42-7.6c-1.74-2.1-4.52-3.35-6.85-5-1.5,2.31-4.07,4.52-4.31,7-.62,6.26-.21,12.63-.21,19.48h-13.62V218.22h13.49V251c5.63-4.57,8.87-6.54,11.16-9.29a17.13,17.13,0,0,0,3.15-7.72c2.39-13,9.68-19.18,23.17-17.13v2.41c-3.91,8.09-8.12,16.06-11.59,24.34-1.58,3.76-3.42,8.8-2.14,12.11,3.78,9.81,9,19.05,13.73,28.52Z"/><path class="cls-1" d="M625.93,498.53H224.8V99.06H625.93ZM472.72,216c-14.78,0-26.86-.71-38.79.36-4.58.41-10.47,3.82-12.92,7.66-12.92,20.26-24.93,41.11-37.28,61.73-2.71,4.53-5.53,9-9.36,15.18-2.09-9.92-3.62-17.16-5.19-24.56-23,.54-48-8.87-58.7,23.54L308,296.87V217H266.43V380.56c24.51,1.06,50.43,8.36,60.1-25.84,3.63,10.39,4.18,21.72,9.75,25.32,6.27,4,17.07,1.13,25.9,1.23,1.61,0,3.5.55,4.77-.09,4.53-2.31,10.56-3.95,12.95-7.76,13.2-21,25.51-42.63,38.09-64.06C435.79,279.05,453.55,248.71,472.72,216ZM460.9,340.73c5-17.64,13.64-25.36,31-23.26,13.86,1.68,28.1.59,42.15.17,3.56-.1,8.66-1.23,10.31-3.71,7.69-11.53,14.4-23.69,22.83-37.93H499c3.93-14.58,11.75-19.87,25.73-18.64,14.75,1.29,29.72.59,44.57.07,3.85-.13,9.22-1.74,11.12-4.54,7.56-11.15,14-23,21.16-35.09-2.23-.86-3.25-1.59-4.28-1.59-35.76-.1-71.53-.4-107.28.2-3.84.07-8.92,4.68-11.18,8.5-28.79,48.61-57.19,97.46-85.65,146.28-1.54,2.64-2.75,5.47-4.09,8.17,1.34.83,2,1.57,2.6,1.57,35.76.15,71.52.29,107.27.2,2.51,0,6.17-1,7.33-2.8,7.47-11.62,14.4-23.58,22.8-37.6Z"/><path class="cls-1" d="M809.73,123.8h14.66c-4.29,23-8.51,45.47-12.83,68.55H789.83c-3.34-15.37-6.71-30.84-10.08-46.31L777.9,146l-10.15,46.54H746.33L733.2,124.84c10.47-3.65,15.52-2,16.5,9.5a229.28,229.28,0,0,0,8.59,44.12c4.08-18.05,8.15-36.11,12.34-54.65h16.21c4.11,17.85,8.35,36.24,12.58,54.64l1.92-.21C804.07,160.55,806.79,142.86,809.73,123.8Z"/><path class="cls-1" d="M1157.85,236.52v49.79l-13.15.89V218.65a13.6,13.6,0,0,1,3.48-1.24c19.36-1,19.37-1,24.93,17.81,3.36,11.34,6.69,22.68,12,33.72V218l14-.79V285.7c-22,3.81-22,3.78-28-16q-5.15-16.93-10.35-33.87Z"/><path class="cls-1" d="M1013.75,217.48c10.38,0,20.36-.69,30.21.15,17.31,1.47,27.73,18.66,18,33-7.38,10.85-4.73,18.66-.63,28.13a54.69,54.69,0,0,1,2,7c-10.22,3.83-16.18,1.14-18.41-9.68-1.73-8.41-5.11-15.64-17.29-10.89-.33,6.44-.69,13.43-1.1,21.16h-12.75Zm14,35.82c7.82-2.42,14.84-3.41,20.23-6.89,2-1.26,1.6-11.29-.5-12.51-5.49-3.18-12.52-3.71-19.73-5.48Z"/><path class="cls-1" d="M915.51,171.46v20.85H902.3v-69c9.75,0,19.26-.43,28.71.09,18.37,1,29.61,17.44,19.84,32.62-7.63,11.85-4.18,20.31-.07,30.43A33.64,33.64,0,0,1,952,191c-13.67,3.87-13.79,3.91-18-8.41C931.24,174.44,929.28,165.58,915.51,171.46Zm.78-12.16c7.93-2.59,15-4,20.77-7.35,1.71-1,1.5-10.38-.38-11.45-5.79-3.29-12.81-4.41-20.39-6.69Z"/><path class="cls-1" d="M1074.29,253.86c.19-29.14,11.22-40.24,35-37.23a30.08,30.08,0,0,1,4.73.87c11.72,3.44,16.55,12.51,17.48,23.49,1.28,15.06,4.12,31.46-10.06,42.28-10.31,7.86-23,7.5-34.29,1.36C1074.1,277.56,1074.75,264.26,1074.29,253.86Zm43.6-.54c-.43-4.4.51-9.62-1.6-12.86-3-4.68-8.23-10.81-12.67-11s-11.66,5.74-12.81,10.22a55.12,55.12,0,0,0,0,25.7c1,4.23,8.14,10.08,12.07,9.77,4.79-.38,9.93-5.85,13.37-10.31C1118.31,262.2,1117.44,257.25,1117.89,253.32Z"/><path class="cls-1" d="M1036.48,192.56h-13.35V123.79h13.25V151h25.73V124.15h14.08v67.94h-13.36V165h-26.35Z"/><path class="cls-1" d="M907.62,217.94v32c5.15-3.5,9-4.92,10.88-7.68A39.8,39.8,0,0,0,923.9,229c2.47-10.93,8.71-14.35,21.19-10.09-16.69,21.87-17.27,44.38.53,66.35-12,3.93-18.1,1.58-22-9.17-2.28-6.27-1.53-18.28-15.93-15.31v25.62H894.12V217.94Z"/><path class="cls-1" d="M733.53,286.51V218h43.84v11.42H747.93c-.27,5.39-.49,9.92-.65,13.13,6.4,9.62,24.91-6.49,25.06,14.94H748.25v17.13h29.16v11.87Z"/><path class="cls-1" d="M876.77,257.93H852.91v16.32h29c.25,4.38.46,8,.71,12.24H838.52V218.08h43.37v11.54H852.56v13.75C859.26,251.53,876.51,236.44,876.77,257.93Z"/><path class="cls-1" d="M798.37,311.12v68.6l-4.52.44c-.3-10-.72-20-.87-29.92-.15-10.15,0-20.29-2.23-30.64-5.89,16.4-11.61,32.86-17.79,49.14-1.27,3.35-4.23,6.06-6.41,9.06-2.5-3.13-6-5.9-7.34-9.46-6.13-16-11.67-32.14-20.23-48V381.6c-6.67-7.15-8.41-43.13-5.11-70.21,7.55-3.62,11.43-.74,14,6.93,5.47,16.63,11.52,33.08,18.36,52.5,6.82-19.28,12.57-35.67,18.44-52C787.86,309.82,788,309.85,798.37,311.12Z"/><path class="cls-1" d="M873.71,144.7h14.58c-2.27,15.61,5.61,32.44-9.15,45.06-7.68,6.55-27.48,6.63-35.45.13-15.25-12.43-6.79-29.42-9-45.2h14.44c0,8.72,0,17,0,25.27.05,7.89,4.18,11.65,12,11.66s12.19-3.69,12.47-11.43C873.94,161.9,873.71,153.59,873.71,144.7Z"/><path class="cls-1" d="M984.67,286.46H970.56V230.85l-18.36-1.46c-.23-3.59-.44-7-.72-11.28h50.89c.23,3.2.5,6.88.83,11.25l-18.53,1.35Z"/><path class="cls-1" d="M994.58,192.38H980.05V136.76l-18.51-1.64V123.87h49.92v11.38l-16.88,1.1Z"/><path class="cls-1" d="M788.6,287.1v-69L802,217v57.06h24.31c3.25,8.49,3.25,13.63-7.51,13.13C809,286.74,799.08,287.1,788.6,287.1Z"/><path class="cls-1" d="M1212.83,310.92c7.33-2.58,11.73-.4,14.83,7.1,6.26,15.14,13.37,29.92,20.19,44.82,1.55,3.37,3.37,6.62,7.54,9.31V309.9c6.78,5.06,8.92,45.26,5,69.26-7.33,2.93-11.6.59-14.79-6.81-8-18.56-16.68-36.82-28-54.78v63.94C1211,375,1209.24,332.9,1212.83,310.92Z"/><path class="cls-1" d="M919.14,352.58l14,29.06c-4.77-2.34-7.48-2.83-8.65-4.44-2.33-3.18-3.87-7-5.65-10.53-7.9-15.89-7.89-15.89-27.48-12.84-.49,8.55-1,17.32-1.58,27.57-6.29-6.71-7.91-40.18-4.73-70.58,10.84,0,22-1.32,32.78.33,14.25,2.19,19.13,23.36,8.76,35C924.54,348.5,921.86,350.28,919.14,352.58Zm-27.83-5.29c11.84-2.32,25,4.94,31.56-8,2.5-4.93,1.56-16.88-1.33-18.26-8.91-4.23-19.52-4.9-30.23-7.12Z"/><path class="cls-1" d="M844.48,438.7c-.11,27.24-10.54,38.28-33.07,35-15-2.17-21.26-11.77-21.61-33.35-.39-24.23,5.62-35.41,20.49-38.1Q844.66,396,844.48,438.7Zm-47.64-1.17c0,3.58-.27,7.19,0,10.75,1.22,13.63,6.87,19.34,19.19,19.72,13.45.43,19.61-4.92,21.28-18.74a95.14,95.14,0,0,0,.49-11.94c-.14-21.2-6.28-29.93-20.89-29.9S796.63,415.94,796.84,437.53Z"/><path class="cls-1" d="M869.31,344.85c-.19,4-.14,8-.59,11.95-1.9,16.61-9.57,23.8-25.51,24.16-17.31.39-25.34-6-27.57-22.95a98.37,98.37,0,0,1-.39-22.62c2-18.95,10.41-26.85,27.21-26.59,16.39.25,24.91,9.12,26.44,27.68.23,2.77,0,5.57,0,8.37Zm-6.11-.25c-1-5.8-1.53-12.63-3.53-19-2.66-8.47-9.85-10.81-18.1-10.77s-16.44,2.71-17.55,11.27a152.45,152.45,0,0,0-.27,37.7c1.13,9.2,9.8,11.68,18.5,11.62s16-3,18.4-12.12C862.14,357.59,862.31,351.53,863.2,344.6Z"/><path class="cls-1" d="M1087.12,310.24v31.22h37.79c.51-10.45,1-20.74,1.53-31l5.16.15c1,23.11.54,46.23.29,69.35l-5,.22V348.51H1089c-.68,10.81-1.34,21.21-2,31.62l-4-.35V310.84Z"/><path class="cls-1" d="M1127.92,468h34.38c0,1.12,0,2.24,0,3.35h-41V403.82H1162l.25,3.43h-34.38v26.36l28.43,1.83,0,4-28.33,1.47Z"/><path class="cls-1" d="M980,439.63H951.76v28.3h34.82l-.15,3.59H945.3V404h41.09l.19,3.59H951.75v26.14L980,435.18Z"/><path class="cls-1" d="M1067.77,448.12c-.78,9.35-1.43,17.1-2.07,24.85l-3.74-.19V402.54c10.29.46,21.87-.35,32.85,1.82,12.34,2.44,13.52,13.39,12.83,23.83s-5.33,18.68-17,19.8C1083.23,448.7,1075.66,448.12,1067.77,448.12Zm-.36-4.82c11.86-2.19,25.36,5.16,31.39-8.45,2.63-5.93,2.12-18.8-1.37-20.77-8.42-4.75-19.43-4.95-30-7.12Z"/><path class="cls-1" d="M1186.63,361.29H1157.3c-2.93,6.84-5.68,13.24-8.43,19.64l-4-1.61c3.9-14,7.78-28,11.73-42,2-6.94,3.37-14.15,6.36-20.63,1.38-3,5.82-5.95,9.12-6.26,2.71-.25,7.62,2.86,8.43,5.45,6.21,19.88,11.68,40,17.26,60.07.33,1.2-.42,2.7-3.41,4.8Zm-12.44-46.23-4.77,0c-3.68,12.81-7.36,25.62-11.27,39.2h27.4C1181.54,340.42,1177.87,327.74,1174.19,315.06Z"/><path class="cls-1" d="M865.16,403.3c0,15.45-.23,30.9.07,46.35.26,13.75,5.2,18.49,18,18.35,12.34-.15,17.17-4.89,17.36-17.65.18-12.4,0-24.8.08-37.2,0-3.31.58-6.61,1.2-13.29,3.05,4.53,5.1,6.16,5.12,7.81.23,15.6.64,31.23-.08,46.8-.64,13.76-9.09,19.83-25,19.52-14.94-.29-22.16-6.52-22.59-20.54-.43-14.39-.21-28.8-.08-43.2,0-2.4,1.1-4.79,1.68-7.18Z"/><path class="cls-1" d="M1215.58,217.6h12.51v68.91l-12.51.59Z"/><path class="cls-1" d="M1043.51,474.17l-20.93-30-20.76,30.09-4.08-2.82c5.12-8.08,9.71-16.57,15.52-24.13,5-6.55,4.54-11.65-.08-18.07-5.66-7.88-10.31-16.49-15.39-24.78l4-2.77,21,30.59,20.64-30.69,3.84,2.55c-5.33,8.91-11.37,17.5-15.67,26.88a19.55,19.55,0,0,0,.16,14.71c4.23,8.91,10.23,17,15.51,25.41Z"/><path class="cls-1" d="M953.18,314.59v26.57l28.57,1.33.07,3.8-28.77,1.6v27.23h34.06l.06,3.59h-40V311.35h40.17c0,1.08.06,2.16.08,3.24Z"/><path class="cls-1" d="M1215.18,406c-10.51,2.28-21.76,2.95-31,7.56-4,2-5.72,12.26-5.29,18.55.73,10.77.76,24.33,7.1,31.15,5.53,5.93,19.37,4.17,29.31,5.78-16.11,12.15-39,4.46-41.89-15a116.86,116.86,0,0,1-.53-28.65C1175.08,403.05,1195.77,394.1,1215.18,406Z"/><path class="cls-1" d="M737.47,401.91c9.65,8.77,12.53,22.57,21.1,33.4l20-33.79,4.82,2.54c-11.79,21.62-27.83,41.88-21.53,69.26l-4.27-.57c-1.94-11.89-2.33-24.3-6.23-35.51-4-11.47-11.43-21.76-17.36-32.57Z"/><path class="cls-1" d="M1275.83,407.75l-22.7,1.75v63.21l-4.45,0V409.49l-22.51-1.72.21-3.45h49C1275.5,405.47,1275.67,406.61,1275.83,407.75Z"/><path class="cls-1" d="M1041,316.31l-20.87-1.49.24-3.4h48.85l.34,3.06-21.82,2.21v63.24l-4.19.06C1039.32,359.12,1044,337.5,1041,316.31Z"/><path class="cls-1" d="M887.19,137H874.57V123.84h12.62Z"/><path class="cls-1" d="M834.67,123.76h13.82c.21,4.31.39,8.11.63,12.92h-13.8C835.13,132.83,834.94,129,834.67,123.76Z"/></svg>