<svg id="Logos_Patrocinadores" data-name="Logos Patrocinadores" xmlns="http://www.w3.org/2000/svg" viewBox="0 0 1500 600"><defs><style>.cls-1{fill:#7a97ab;}</style></defs><path class="cls-1" d="M435,344.48H369s-14.81.28,0-14.54c4.18-4.18,11.28-11.55,19.33-20,8.28,8.68,15.62,16.3,19.89,20.57,12.47,9.38,17.87,12.54,17.87,12.54,7.52-4.81-3.47-18.05-3.47-18.05s-11.48-12.28-24.11-25.75c17.83-18.78,36.27-38.42,37-39.19h.11V260c1.15-1.23,13.49-14.85-6.8-14.78l-18.67.92H352.33c-21.25,0-10.62,14.54-10.62,14.54s18.82,20,37,39.2c-19,21-39.33,43.52-39.33,43.52s-16.17,21.26,0,20.13L435,356.78C442.91,356.78,446.07,344.48,435,344.48Zm-68.69-79.37c-4.75-4.75,5-5,5-5h38.44c2.08.62,3.74,1.88,1.18,4.44-1.66,1.66-10.92,11.81-22.24,24.29C377.91,277.31,368.24,267,366.31,265.11Z"/><path class="cls-1" d="M387.29,410.74A106.47,106.47,0,1,1,493.76,304.28,106.58,106.58,0,0,1,387.29,410.74Zm0-198.12a91.66,91.66,0,1,0,91.65,91.66A91.76,91.76,0,0,0,387.29,212.62Z"/><path class="cls-1" d="M609.4,346.66H543.25V336.18l52-64.27h-50v-10h63v10.19l-52.49,64.56H609.4Z"/><path class="cls-1" d="M706.5,346.66H650.65V261.89H706.5v10H661.92v23.23H706.5v10H661.92v31.48H706.5Z"/><path class="cls-1" d="M801.32,346.66H747.69V261.89H759v74.75h42.35Z"/><path class="cls-1" d="M891.75,346.66H835.91V261.89h55.84v10H847.18v23.23h44.57v10H847.18v31.48h44.57Z"/><path class="cls-1" d="M1003.08,346.66H988.45L960.1,313H944.21v33.7H932.94V261.89h23.74a69.14,69.14,0,0,1,12.81,1,26.73,26.73,0,0,1,9.22,3.56,21.29,21.29,0,0,1,7.21,7.32A21.87,21.87,0,0,1,988.5,285c0,6.12-1.53,11.22-4.61,15.35a28,28,0,0,1-12.69,9.3Zm-26.36-60.91a15.36,15.36,0,0,0-1.28-6.46,11.24,11.24,0,0,0-4.24-4.76,15.43,15.43,0,0,0-5.81-2.3,41.47,41.47,0,0,0-7.91-.66H944.21v32H955.6a40.9,40.9,0,0,0,9.34-.93,14.79,14.79,0,0,0,10.56-9A21.85,21.85,0,0,0,976.72,285.75Z"/><path class="cls-1" d="M1100.51,271.63a38.74,38.74,0,0,1,8,13.95,58.92,58.92,0,0,1,2.75,18.72,58.12,58.12,0,0,1-2.81,18.77,38.37,38.37,0,0,1-7.89,13.8,33.7,33.7,0,0,1-12.38,8.65,46.69,46.69,0,0,1-32.56-.06,33.55,33.55,0,0,1-12.44-8.59,38.47,38.47,0,0,1-7.88-13.84,64.54,64.54,0,0,1,0-37.31,39.54,39.54,0,0,1,8-14.09,32.79,32.79,0,0,1,12.44-8.54,43.41,43.41,0,0,1,16.19-3,42.68,42.68,0,0,1,16.37,3A34,34,0,0,1,1100.51,271.63Zm-1,32.67q0-16.5-7.4-25.47t-20.21-9q-12.92,0-20.29,9t-7.38,25.47q0,16.69,7.52,25.54t20.15,8.85q12.63,0,20.13-8.85T1099.49,304.3Z"/><path class="cls-1" d="M1214,322.46a22.37,22.37,0,0,1-2.31,9.8,23,23,0,0,1-6.46,8.19,34.23,34.23,0,0,1-10.62,5.7,45.93,45.93,0,0,1-14.6,2.05,72.48,72.48,0,0,1-16.47-1.71,82.94,82.94,0,0,1-14.89-5.07V327.3h.79a47.12,47.12,0,0,0,14.86,8.26,48.84,48.84,0,0,0,15.83,2.9q10.47,0,16.3-3.93c3.9-2.62,5.84-6.1,5.84-10.47,0-3.76-.92-6.52-2.76-8.31s-4.64-3.17-8.39-4.16a87.37,87.37,0,0,0-9.26-1.88q-5-.73-10.56-1.88-11.27-2.38-16.7-8.16t-5.44-15.06q0-10.64,9-17.45t22.83-6.8a74,74,0,0,1,16.4,1.7,75.11,75.11,0,0,1,13.2,4.22V279.6h-.79a39.27,39.27,0,0,0-12.72-6.8,49.27,49.27,0,0,0-16.14-2.71q-9.06,0-14.55,3.76t-5.49,9.68q0,5.3,2.73,8.31t9.62,4.61q3.65.81,10.36,1.93c4.48.77,8.27,1.54,11.39,2.34q9.45,2.5,14.23,7.57T1214,322.46Z"/></svg>