<svg id="Logos_Patrocinadores" data-name="Logos Patrocinadores" xmlns="http://www.w3.org/2000/svg" viewBox="0 0 1500 600"><defs><style>.cls-1{fill:#7a97ab;}</style></defs><path class="cls-1" d="M402.93,201.19c4.55,1.48,6.69,4.79,8,9.27a333.34,333.34,0,0,0,78.39,135.21c4.43,4.68,4.9,8.52,1.69,14.05l-19.51,33.57c-2.73,4.68-6.61,6.37-11.87,5.12A341.09,341.09,0,0,0,386.83,389a336.45,336.45,0,0,0-85.37,9.23c-6.24,1.49-9.8,0-13-5.57q-9.53-16.41-19.09-32.81c-3.29-5.66-2.83-9.51,1.66-14.25A334,334,0,0,0,346.72,219c.89-2.7,1.9-5.39,2.52-8.15,1-4.61,3.37-8,7.93-9.66Zm41.54,175.37c1.3-.11,1.67-.78,1.24-2.06-1.08-3.26-2.12-6.53-3.18-9.79q-20.86-64.08-41.76-128.13a27.44,27.44,0,0,0-1.89-3.75,31.06,31.06,0,0,0-3.08,2.62q-35.4,39.18-70.75,78.4l-26.15,29c-1.64,1.83-1.44,2.42,1,3s4.86,1.07,7.29,1.59l125.63,26.67C436.64,374.94,440.51,375.73,444.47,376.56Z"/><path class="cls-1" d="M1119.68,235h2.39c19.28,0,38.56-.11,57.84.05,11.33.09,22.12,2.49,31.54,9.23a36.39,36.39,0,0,1,15.11,24.79c1.63,10.17.58,20-4.5,29.12-4.89,8.78-12.51,14.34-21.75,17.89l-2.3.87,34.79,48.71c-.82.07-1.36.15-1.9.15-9,0-18,0-27.05,0a3,3,0,0,1-2.85-1.51c-9.63-13.71-19.33-27.37-28.94-41.1a3.79,3.79,0,0,0-3.6-1.82c-7.54.09-15.08,0-22.9,0v44.22h-25.88Zm25.93,63a13.43,13.43,0,0,0,1.38.14c9.9,0,19.8.07,29.7,0a31.6,31.6,0,0,0,13.06-2.58c6.86-3.15,10.73-8.45,11.11-16,.36-7.34-2.09-13.38-8.75-17.18a26,26,0,0,0-12.63-3.29c-10.78-.16-21.55-.16-32.33-.21a13,13,0,0,0-1.54.2Z"/><path class="cls-1" d="M688.54,365.86c-9,0-17.63,0-26.28,0-1.28,0-1.56-.71-1.94-1.61-3.79-9-7.63-18-11.36-27.09a2.77,2.77,0,0,0-3-2.05q-26.83.09-53.67,0a2.66,2.66,0,0,0-2.93,1.9c-3.77,9-7.69,18-11.48,27a2.46,2.46,0,0,1-2.71,1.82c-8.2-.09-16.4,0-24.89,0,.7-1.67,1.29-3.14,1.92-4.58q27.39-62.58,54.74-125.16a2.79,2.79,0,0,1,3.07-2c6.45.1,12.9.07,19.35,0a2.11,2.11,0,0,1,2.32,1.44q28.15,64.51,56.39,129C688.17,364.88,688.29,365.22,688.54,365.86ZM599.92,311.7h38.39c-6.42-14.82-12.73-29.4-19.27-44.52C612.56,282.25,606.3,296.84,599.92,311.7Z"/><path class="cls-1" d="M1035.12,365.86c-8.89,0-17.6,0-26.31-.08-.62,0-1.5-.95-1.81-1.65-3.83-8.93-7.64-17.88-11.32-26.88a2.9,2.9,0,0,0-3.22-2.11q-26.73.09-53.46,0a2.79,2.79,0,0,0-3.07,2c-3.67,8.84-7.47,17.63-11.24,26.43-.31.74-.65,1.46-1,2.22H897c.24-.69.42-1.28.66-1.85q28-64,56-128c.57-1.3,1.15-1.89,2.68-1.87,6.53.1,13,.08,19.58,0a2.25,2.25,0,0,1,2.45,1.58q28.08,64.3,56.23,128.57C1034.8,364.73,1034.91,365.22,1035.12,365.86ZM985,311.77l-19.31-44.61c-6.51,15.15-12.79,29.78-19.15,44.61Z"/><path class="cls-1" d="M833.9,260H793.79V235.2H900.56v24.59H860.61V365.68H833.9Z"/><path class="cls-1" d="M734.17,342h67.12v23.68H708.47V235.17h25.7Z"/><path class="cls-1" d="M1057,235.11h25.62V365.72H1057Z"/></svg>