<svg id="Logos_Patrocinadores" data-name="Logos Patrocinadores" xmlns="http://www.w3.org/2000/svg" viewBox="0 0 1500 600"><defs><style>.cls-1{fill:#7a97ab;}</style></defs><path class="cls-1" d="M610.33,407l25-31.12c2.3-2.86,4.64-5.69,6.91-8.59a3.78,3.78,0,0,1,3.21-1.58q19.93,0,39.86,0c2.08,0,2.43.77,1.73,2.61Q675.48,398.45,664,428.66c-.82,2.16-2.25,2.31-4.12,2.31q-44.11,0-88.25,0c-9.36,0-18.72,0-28.08,0-.78,0-1.85.4-2.25-.56-.33-.77.51-1.34,1-1.92q22.57-30.39,45.15-60.77a4.46,4.46,0,0,1,4-2.05c10.45.06,20.9,0,31.34,0,2.73,0,2.86.26,1.83,2.95q-6.9,18-13.79,36.05A3,3,0,0,0,610.33,407Z"/><path class="cls-1" d="M732.44,320.94l16.92-21c5-6.18,10-12.35,14.91-18.56a4.51,4.51,0,0,1,3.82-1.93q19.68,0,39.36,0c2.13,0,2.64.62,1.85,2.67q-11.61,30.16-23.09,60.39c-.77,2-2.06,2.26-3.87,2.25q-24.2,0-48.38,0H667c-.75,0-1.51,0-2.26,0-1.33,0-1.68-.59-.85-1.71q1.79-2.42,3.59-4.82Q688.38,310.1,709.19,282a5.77,5.77,0,0,1,5.24-2.61c9.94.1,19.89,0,29.83,0,3.36,0,3.53.28,2.32,3.44q-7,18.25-14,36.51c-.17.44-.32.89-.48,1.34Z"/><path class="cls-1" d="M526.77,234.66l20.73-25.73c3.66-4.56,7.36-9.09,11-13.69a4.19,4.19,0,0,1,3.64-1.72c13.2,0,26.41,0,39.61,0,2.31,0,2.46.74,1.72,2.67q-11.4,29.58-22.65,59.22c-.87,2.31-2,3.15-4.54,3.15q-57.78-.12-115.57-.06h-1.5c-1.51,0-1.81-.6-.91-1.81l3.6-4.83q20.87-28.05,41.7-56.14a4.85,4.85,0,0,1,4.4-2.19c10.27.08,20.55,0,30.83,0,3,0,3.13.15,2.07,2.92q-6.78,17.81-13.6,35.59c-.3.77-.58,1.55-.87,2.33Z"/><path class="cls-1" d="M906.55,396.74c-4.69,10.86-9.17,21-13.46,31.28-1,2.3-2.21,3.19-4.68,3-3.24-.19-6.51,0-9.77-.05-2.95,0-3.14-.29-2-3q7.86-18.32,15.76-36.61c3.37-7.82,6.8-15.63,10.09-23.49a3.28,3.28,0,0,1,3.57-2.36c3.85.11,7.69.07,11.54,0,1.67,0,2.37.64,2.44,2.36.46,11.52,1,23,1.51,34.53a5.78,5.78,0,0,0,.64,3.17c1-.08,1.29-1,1.78-1.6q14.52-18.24,29-36.53a4.57,4.57,0,0,1,4-1.95c3.51.09,7,0,10.53,0,3.2,0,3.32.18,2.39,3.31q-7.2,24.25-14.42,48.52c-1.12,3.76-2.3,7.5-3.34,11.29a2.67,2.67,0,0,1-3,2.31q-5.64-.14-11.28,0c-2,0-2.45-.68-1.86-2.57,3-9.48,5.91-19,8.85-28.47.17-.55.31-1.11.62-2.2a39.14,39.14,0,0,0-5.35,6q-7.18,8.53-14.24,17.18a4,4,0,0,1-3.43,1.62c-3.93-.07-7.86-.12-11.79,0-2.19.07-2.89-.78-3-2.9C907.43,412.25,907,404.84,906.55,396.74Z"/><path class="cls-1" d="M851.68,279.41c6.06.09,12.93-.39,19.71.85a26.44,26.44,0,0,1,4.11,1.08c6.73,2.44,9.43,7.58,7.44,14.5a97.45,97.45,0,0,1-5.6,14.73A20.94,20.94,0,0,1,865,321.69c-1.92.69-2.14,1.47-1.33,3.28,2.54,5.63,4.89,11.34,7.3,17,1.06,2.5.92,2.75-1.69,2.76-4.43,0-8.86,0-13.28,0a3,3,0,0,1-3.24-2.09c-2.2-5.24-4.6-10.38-6.77-15.63a3.38,3.38,0,0,0-3.76-2.45c-9.54.32-6.92-1.63-10.44,7.2-1.42,3.56-2.78,7.16-4,10.78a2.83,2.83,0,0,1-3.14,2.19c-3.84-.09-7.68,0-11.52,0-2.49,0-2.64-.27-1.65-2.88q6.93-18.27,13.89-36.52c3-7.81,6-15.59,8.85-23.43.69-1.87,1.67-2.63,3.66-2.57C842.22,279.49,846.56,279.41,851.68,279.41Zm-3.34,32.09v-.09c2.25,0,4.51.09,6.75,0a7.8,7.8,0,0,0,7.3-4.82c1.16-2.67,2.25-5.38,3.18-8.14,1.18-3.47.1-4.93-3.53-5.39-4.66-.6-9.3.24-13.95,0a1.92,1.92,0,0,0-2.07,1.44q-2.85,7.6-5.74,15.19c-.51,1.34,0,1.86,1.31,1.85Z"/><path class="cls-1" d="M848.55,365.61c6,.12,12.86-.44,19.64.92a28.44,28.44,0,0,1,3.15.79c7.19,2.36,10.21,7.81,8.12,15.09a93.33,93.33,0,0,1-5.58,15,20,20,0,0,1-11.44,10.32c-2.32.85-2.38,1.81-1.44,3.8,2.58,5.52,5,11.12,7.45,16.7,1.07,2.43.89,2.74-1.73,2.76-4.43,0-8.86,0-13.28,0a3.07,3.07,0,0,1-3.23-2.15c-2.34-5.27-4.84-10.46-7.16-15.74a3.27,3.27,0,0,0-3.36-2.31c-8.05-.13-8-.18-10.74,7.41-1.25,3.55-2.6,7.06-3.79,10.62A2.79,2.79,0,0,1,822,431c-3.76-.09-7.52,0-11.28,0-2.64,0-2.8-.27-1.91-2.75q9.72-26.86,19.46-53.71c.76-2.12,1.62-4.22,2.26-6.37a3.17,3.17,0,0,1,3.62-2.61C838.67,365.7,843.19,365.61,848.55,365.61Zm-3.42,32.09h0c2.17,0,4.34.05,6.51,0a8,8,0,0,0,7.64-5.12c1.1-2.62,2.11-5.28,3-8,1-3.28.12-4.7-3.25-5.26-4.82-.78-9.67-.23-14.51-.35-1.15,0-1.57.79-1.89,1.69-1.81,5-3.59,10.06-5.43,15.08-.55,1.49,0,2,1.44,2C840.78,397.69,843,397.7,845.13,397.7Z"/><path class="cls-1" d="M1087.53,344.78c-2.25,0-4.51-.07-6.76,0a2.83,2.83,0,0,1-3-2c-2.25-5.3-4.66-10.54-6.88-15.86a3.21,3.21,0,0,0-3.37-2.28c-7.91-.09-7.92-.14-10.72,7.14-1.35,3.51-2.73,7-4,10.56-.6,1.74-1.51,2.55-3.44,2.48-3.67-.13-7.35,0-11,0-2.79,0-2.94-.24-1.94-2.88q8.79-23.2,17.62-46.38c1.72-4.53,3.5-9,5.12-13.6.62-1.75,1.53-2.57,3.45-2.53,10.18.21,20.38-.4,30.56.41a23.46,23.46,0,0,1,9.83,2.7c4.17,2.36,6.31,6.54,5.31,11.19a67.2,67.2,0,0,1-7.29,19.12,19,19,0,0,1-10.66,8.7c-2.47.84-2.48,1.83-1.53,3.92,2.5,5.47,4.78,11,7.14,16.57,1.1,2.56,1,2.76-1.9,2.78C1091.88,344.8,1089.71,344.78,1087.53,344.78Zm-14.11-33.27v-.12c2.34,0,4.68.09,7,0a7.21,7.21,0,0,0,6.08-3.43,36.57,36.57,0,0,0,4.22-10.39c.7-2.75-.44-4.08-3.22-4.46-4.74-.64-9.5-.39-14.25-.45a2.11,2.11,0,0,0-2.25,1.54q-2.87,7.76-5.82,15.46c-.61,1.57.08,1.91,1.47,1.88C1068.92,311.48,1071.17,311.51,1073.42,311.51Z"/><path class="cls-1" d="M1124.2,344.79h-16c-3.47,0-3.57-.11-2.36-3.29q7.45-19.58,14.92-39.12c2.56-6.71,5.18-13.41,7.64-20.16.73-2,1.78-2.9,4-2.84,9.52.27,19-.34,28.57.39a23.1,23.1,0,0,1,7.51,1.83c5.71,2.47,8.47,7.9,7,14.21s-4.37,12.26-6.59,18.38c-1.77,4.87-3.74,9.66-5.52,14.53-3.55,9.78-11,14.24-20.87,15.57C1136.06,345.15,1129.54,344.58,1124.2,344.79Zm9.42-13.34v0c1.76,0,3.52.08,5.27,0,4.34-.25,7.7-2,9.33-6.33,3.22-8.52,6.53-17,9.68-25.55,1.51-4.12,0-6.21-4.42-6.44-3.25-.17-6.52.05-9.77-.14-2.14-.12-3.12.77-3.84,2.68q-6.28,16.78-12.76,33.5c-.66,1.7-.59,2.49,1.5,2.34C1130.27,331.36,1132,331.45,1133.62,331.45Z"/><path class="cls-1" d="M514.33,431c-7.11,0-14.21,0-21.32,0-.8,0-1.84.36-2.34-.43s.41-1.53.85-2.17q20.69-30.34,41.39-60.69a4,4,0,0,1,3.71-2c7.85.07,15.71,0,23.57,0,2.7,0,2.91.36,1.91,3-7.55,19.75-15.14,39.48-22.61,59.26-.89,2.36-2.13,3.15-4.6,3.1C528,430.86,521.18,431,514.33,431Z"/><path class="cls-1" d="M636.42,344.72c-7.1,0-14.21,0-21.31,0-.78,0-1.83.39-2.25-.57-.33-.76.44-1.37.85-2q20.77-30.45,41.55-60.9a3.87,3.87,0,0,1,3.57-1.82c7.94,0,15.88,0,23.82,0,2.09,0,2.67.63,1.88,2.69q-11.64,30.18-23.14,60.4a3.1,3.1,0,0,1-3.4,2.23C650.8,344.68,643.61,344.72,636.42,344.72Z"/><path class="cls-1" d="M430.69,258.48c-7,0-14.05,0-21.07,0-.81,0-1.91.34-2.37-.37-.6-.93.42-1.68.91-2.4q19.71-28.89,39.46-57.76a24.44,24.44,0,0,0,1.39-2.09,4.22,4.22,0,0,1,4.26-2.36c7.86.11,15.72.09,23.57,0,2.12,0,2.64.5,1.83,2.6q-11.57,29.94-22.94,59.94C455,258,454,258.54,452,258.52,444.9,258.42,437.79,258.48,430.69,258.48Z"/><path class="cls-1" d="M1198.64,345.77a34.57,34.57,0,0,1-14.07-2.24c-7.12-2.93-10.58-9.66-8.06-16.92,3.54-10.16,7.32-20.26,11.46-30.2,5-12,15.2-16.44,27.33-17.58,5.58-.52,11.18-.59,16.62,1.05,6,1.82,10.61,5.23,11.88,11.89a13.89,13.89,0,0,1-.94,7.6c-3.23,8.6-6.69,17.12-9.75,25.77-4.5,12.74-14,18.55-26.81,20.09A40.85,40.85,0,0,1,1198.64,345.77Zm19-53.85c-5.93,0-11.56,1.22-14.11,7.11-3.8,8.8-7,17.87-10.26,26.89-1.14,3.14.23,5.16,3.43,6,10.47,2.65,17.48-1,21.37-11,.09-.23.17-.47.26-.7,2.63-7,5.33-13.87,7.87-20.86,1.45-4,.08-6.3-4.07-7.1A37.07,37.07,0,0,0,1217.69,291.92Z"/><path class="cls-1" d="M989.77,432.05c-4.73-.11-9.71-.52-14.32-2.82-6.63-3.3-9.59-9.72-7.22-16.74,3.34-9.88,6.93-19.68,10.64-29.43,3.25-8.56,9.61-13.93,18.36-16.36a50.21,50.21,0,0,1,23.53-1.12,21.23,21.23,0,0,1,8.67,3.72c4.66,3.46,6.85,9.15,5,14.67-3.49,10.53-7.08,21-11.41,31.27-4,9.49-12,13.94-21.76,15.72A68.2,68.2,0,0,1,989.77,432.05Zm4.13-13.34c6.05-.31,11.84-1.3,14.34-7.87,3.22-8.41,6.24-16.9,9.23-25.4,1.32-3.74-.17-6.12-4.06-6.95a22.1,22.1,0,0,0-11.13.46,11.8,11.8,0,0,0-8.28,7.68c-1,2.76-2,5.49-3,8.23-2,5.49-4,11-5.88,16.5-1.35,4.06.09,6.19,4.3,6.9A18.18,18.18,0,0,0,993.9,418.71Z"/><path class="cls-1" d="M768.6,432c-4.94-.16-9.83-.51-14.37-2.78-6.81-3.41-9.68-10-7.18-17.2,3.29-9.46,6.73-18.87,10.21-28.26,3.89-10.49,11.87-16.05,22.53-18,6.59-1.23,13.27-1.67,19.89-.13s11.91,4.49,13.69,11.62a14.47,14.47,0,0,1-.7,8.6c-3.1,8.56-6.34,17.07-9.3,25.67-4.48,13-14.26,18.73-27.28,20A40.79,40.79,0,0,1,768.6,432Zm3.77-13.2,0-.14a17,17,0,0,0,1.75,0c5.23-.54,10.33-1.63,12.5-7.17,3.4-8.69,6.54-17.49,9.63-26.31,1.23-3.54-.21-5.84-3.88-6.63a21.62,21.62,0,0,0-13.24,1.08,10.48,10.48,0,0,0-6,6.05c-3.15,8.44-6.26,16.89-9.23,25.4-1.49,4.27,0,6.44,4.5,7.19C769.73,418.51,771.05,418.65,772.37,418.83Z"/><path class="cls-1" d="M999.75,332.2c-2.92,0-5.85.13-8.76,0a4.69,4.69,0,0,0-4.71,2.54c-1.77,2.83-3.81,5.49-5.63,8.28a3.7,3.7,0,0,1-3.54,1.83c-4.18-.08-8.35,0-12.53-.05-.77,0-1.84.4-2.23-.58-.29-.75.47-1.36.9-2q13.49-18.84,27-37.67c5.45-7.6,10.94-15.18,16.32-22.82a4.93,4.93,0,0,1,4.57-2.36c5.51.12,11,.08,16.54,0,1.89,0,2.74.64,2.67,2.63q-.75,22.14-1.39,44.28-.23,7.65-.17,15.29c0,2.29-.68,3.34-3.17,3.24-4-.17-8-.1-12,0-1.81,0-2.62-.57-2.42-2.49.28-2.74.3-5.5.64-8.23.2-1.59-.5-1.89-1.8-1.88C1006.6,332.22,1003.18,332.2,999.75,332.2Zm14.64-38c-.25.11-.45.13-.52.23q-8.08,11.75-16.16,23.48c-1,1.4-.09,1.51,1,1.51h10.5c3.48,0,3.61-.19,3.83-3.63.34-5.48.74-11,1.16-16.43C1014.33,297.69,1014.8,296,1014.39,294.24Z"/><path class="cls-1" d="M457.64,431c-5.26,0-10.53,0-15.79,0-2.4,0-2.57-.34-1.31-2.38q19-30.56,37.95-61.1a3.23,3.23,0,0,1,3-1.8q8.4.06,16.8,0c1.83,0,2.39.57,1.68,2.41q-11.72,30.39-23.3,60.83a2.92,2.92,0,0,1-3.24,2.07C468.17,430.92,462.9,431,457.64,431Z"/><path class="cls-1" d="M579.94,344.72c-5.09,0-10.19,0-15.29,0-.81,0-1.88.33-2.37-.39-.62-.92.37-1.7.82-2.44q16.3-26.31,32.66-52.6c1.63-2.63,3.31-5.22,4.88-7.88a3.58,3.58,0,0,1,3.46-2c5.43.05,10.87,0,16.3,0,2,0,2.52.61,1.77,2.57Q610.54,312.2,599,342.41a3.2,3.2,0,0,1-3.55,2.35C590.31,344.66,585.13,344.72,579.94,344.72Z"/><path class="cls-1" d="M374.22,258.48c-5.27,0-10.53,0-15.79,0-2.4,0-2.6-.37-1.34-2.39Q376,225.63,394.88,195.2a3.2,3.2,0,0,1,3.07-1.68c5.59,0,11.19.09,16.79,0,2.3,0,2.21.87,1.56,2.55q-7.94,20.58-15.79,41.17c-2.33,6.08-4.79,12.12-6.93,18.26-.85,2.43-2.13,3.15-4.58,3.06C384.08,258.35,379.14,258.48,374.22,258.48Z"/><path class="cls-1" d="M942.73,332a77.79,77.79,0,0,0,14.45-1.35c1.62-.27,2.38,0,2.08,1.9-.48,3-.81,6-1.2,8.93a2.15,2.15,0,0,1-1.86,2.06c-10,1.91-20,3.42-30.06,1.21-6.77-1.48-10.3-5.11-11.1-11a16.36,16.36,0,0,1,1.34-8.07c3.46-9.14,7.09-18.23,10.41-27.42,4.48-12.42,13.72-18.21,26.36-19.41a74.87,74.87,0,0,1,24.59,1.94c2,.47,2.54,1.15,1.54,3.06-1.41,2.66-2.68,5.39-3.88,8.15-.75,1.75-1.75,2.27-3.69,1.9a84.75,84.75,0,0,0-16.66-1.76c-6.64.06-10.08,2.37-12.46,8.48-3,7.71-5.92,15.45-8.85,23.19a10.61,10.61,0,0,0-.65,2.41c-.55,3.8.8,5.5,4.63,5.75C939.39,332.07,941.06,332,942.73,332Z"/><path class="cls-1" d="M731.44,193.48c4.61.28,10.23-.52,15.78.51.91.17,1.81.35,2.69.6,5.87,1.72,8.75,6.11,7.39,12a78.64,78.64,0,0,1-6.42,17.62c-2.48,4.93-6.79,7.74-12,9.13-1.9.51-2.13,1.2-1.41,2.93,2.74,6.55,5.32,13.17,8,19.73.74,1.79.55,2.5-1.62,2.54-8,.12-8,.18-11-7.27-1.87-4.65-3.77-9.28-5.57-14a2.76,2.76,0,0,0-3-2.06c-4.34.07-8.69.08-13,0a2.84,2.84,0,0,0-3.13,2.2c-2.19,6.22-4.55,12.38-6.73,18.61-.61,1.76-1.47,2.66-3.41,2.47-1.41-.13-2.84,0-4.26,0-2.88,0-3-.12-2-2.8q4.63-12.84,9.3-25.67c4-11.07,8.1-22.11,12-33.22.86-2.45,2-3.63,4.8-3.44C722.1,193.68,726.29,193.48,731.44,193.48Zm-8.08,33.76v-.12c3.09,0,6.18.14,9.26,0,4.81-.27,8.48-2.5,10.34-7.06,1.55-3.78,2.95-7.63,4.19-11.52,1.31-4.1.13-6.07-4.11-6.72-6.79-1-13.66-.26-20.49-.44-1.31,0-1.63,1-2,1.91-2.6,7.22-5.14,14.46-7.8,21.66-.65,1.76-.44,2.42,1.56,2.35C717.34,227.16,720.35,227.24,723.36,227.24Z"/><path class="cls-1" d="M731.86,365.61q12.4,0,24.8,0c2.82,0,3,.27,2.07,2.85s-2.05,5.3-2.88,8c-.59,2-1.7,2.54-3.68,2.49-4.75-.13-9.52,0-14.28-.08a2.76,2.76,0,0,0-3.08,2.17c-5.48,15.33-11.06,30.62-16.59,45.93-1.46,4-1.44,4-5.6,4-3.26,0-6.52-.08-9.77,0-2.22.08-2.56-.68-1.83-2.67q7.83-21.39,15.52-42.85c.75-2.08,2.71-4.64,1.64-6.19-.91-1.33-4.06-.35-6.21-.39-3.34-.06-6.69-.07-10,0-1.83,0-2.16-.62-1.52-2.26,1.13-2.87,2.22-5.77,3.14-8.71.57-1.86,1.64-2.41,3.49-2.39C715.32,365.65,723.59,365.61,731.86,365.61Z"/><path class="cls-1" d="M837.24,259.52a33.36,33.36,0,0,1-9.44-.88c-9.55-2.43-13.27-9-10.06-18.38,2.74-8,5.71-15.88,8.58-23.81,2.38-6.6,4.85-13.17,7.1-19.82.79-2.33,1.89-3.54,4.46-3.18a17.5,17.5,0,0,0,3.76,0c2.16-.17,2.6.58,1.85,2.62-3,8-5.83,16-8.73,24-2.33,6.44-4.71,12.86-7,19.32-2.81,8-.24,11.79,8.22,12.25a36.8,36.8,0,0,0,10.47-.65c6.68-1.57,10.9-5.76,13.2-12.15,5-14,10.21-27.93,15.16-42,.93-2.63,2.18-3.62,5-3.51,6.13.22,6.14.06,4,5.88-4.72,13-9.65,26-14.12,39.13-4.73,13.85-13.63,20.28-29.5,21.09C839.25,259.56,838.24,259.51,837.24,259.52Z"/><path class="cls-1" d="M401,431c-3.09,0-6.19,0-9.28,0s-3.24-.16-1.77-2.79q10.06-18.06,20.18-36.11c4.45-7.95,8.95-15.87,13.31-23.86a4.2,4.2,0,0,1,4.37-2.56c2.58.15,5.18,0,7.77.05s2.76.21,1.79,2.76Q430.71,386,424,403.56c-3.11,8.12-6.32,16.2-9.28,24.37-.87,2.4-2.18,3.21-4.63,3.07C407.07,430.82,404.05,431,401,431Z"/><path class="cls-1" d="M523.4,344.72c-3.25,0-6.51,0-9.76,0-2.55,0-2.78-.38-1.59-2.51q13-23.26,26.08-46.53c2.65-4.73,5.35-9.43,7.93-14.21a3.36,3.36,0,0,1,3.37-2c2.84.06,5.68,0,8.52,0,1.89,0,2.6.56,1.83,2.56q-11.65,30.25-23.21,60.55a2.89,2.89,0,0,1-3.15,2.19C530.08,344.66,526.74,344.72,523.4,344.72Z"/><path class="cls-1" d="M317.68,258.48c-3.18,0-6.36,0-9.53,0-2.88,0-3.06-.28-1.69-2.75,3.93-7.09,7.91-14.16,11.88-21.23,7-12.47,14-24.9,20.89-37.44,1.41-2.59,3-3.95,6-3.58a56.5,56.5,0,0,0,6.51.06c2.84,0,3,.21,2,2.82q-4.29,11.23-8.6,22.48c-4.72,12.33-9.48,24.65-14.12,37-.74,2-1.72,2.78-3.83,2.67C324,258.36,320.86,258.48,317.68,258.48Z"/><path class="cls-1" d="M888.6,344.78c-1.93,0-3.85-.06-5.77,0s-2.35-.68-1.68-2.42c2-5.14,3.92-10.31,5.88-15.46,5.7-15,11.44-30,17.07-45a3.35,3.35,0,0,1,3.69-2.55c3.76.1,7.52.07,11.28,0,1.9,0,2.34.63,1.65,2.43q-11.57,30.32-23.05,60.67c-.61,1.63-1.49,2.43-3.31,2.31S890.52,344.78,888.6,344.78Z"/><path class="cls-1" d="M631.25,259.52a36.62,36.62,0,0,1-11.18-1c-7.28-2-10.66-7.32-8.9-14.65C613,236,616.43,228.69,619,221.1c1.36-3.95,2.82-7.86,4.35-11.75,3.76-9.49,10.87-14.8,20.86-16.25a74.67,74.67,0,0,1,24.68.81c2.09.4,2.65,1.08,1.75,3.16-2.09,4.83-2,4.87-7.28,4.27-5.81-.67-11.58-1.37-17.47-.61-6.09.79-10.63,3.62-12.92,9.32q-6.35,15.82-11.62,32c-1.81,5.52.17,8.24,5.82,9.16,6.87,1.11,13.65,0,20.45-.75,2.81-.31,3-.25,2.64,2.43a9.6,9.6,0,0,0-.13,1.5c.11,2.43-1,3.59-3.45,3.87C641.57,258.87,636.45,259.67,631.25,259.52Z"/><path class="cls-1" d="M780.2,259.51a32.13,32.13,0,0,1-12.12-1.42c-6.22-2.22-8.89-6.72-7.94-13.24.61-4.1,2.32-7.84,3.68-11.69,2.44-6.93,5.18-13.76,7.49-20.74,4.13-12.5,12.78-19,25.77-19.79A78.55,78.55,0,0,1,818.27,194c2,.43,2.36,1.18,1.56,3.08-2.06,4.9-2,4.91-7.24,4.3-5.8-.66-11.58-1.36-17.46-.61-6.09.79-10.72,3.55-12.93,9.29-4.05,10.52-7.94,21.11-11.54,31.79-2,6-.17,8.5,6.11,9.48,6.79,1.06,13.49,0,20.19-.84,2.31-.28,2.92.38,2.6,2.47,0,.16,0,.33-.07.49-.65,4.58-.65,4.55-5.32,5.1A90.73,90.73,0,0,1,780.2,259.51Z"/><path class="cls-1" d="M950.55,193.48c7.77,0,15.54.05,23.31,0,2.12,0,2.93.39,2,2.68-2.44,6.36-1.21,5.07-7.26,5.18-4.26.08-8.53.18-12.78-.05-2.5-.13-3.49.9-4.27,3.09-6.13,17.14-12.41,34.23-18.52,51.38-.78,2.21-1.89,2.9-4.18,2.86-6.73-.12-6.71,0-4.44-6.28q8.61-23.81,17.19-47.6c1.22-3.38,1.2-3.38-2.51-3.39-4.93,0-9.86,0-14.79,0-2.07,0-2.45-.65-1.73-2.54,2.45-6.4,1-5.24,7.38-5.31C936.85,193.42,943.7,193.48,950.55,193.48Z"/><path class="cls-1" d="M668.08,258.54c-5.21-.09-5.45.92-3.36-4.82,6.74-18.51,13.4-37.05,20.13-55.57,2-5.63,1.06-4.59,6.59-4.66,5.36-.06,5-.43,3.22,4.59q-10.11,28-20.31,56C672.45,259.38,673.18,258.43,668.08,258.54Z"/><path class="cls-1" d="M884.87,258.54c-5.06-.07-5.3.76-3.31-4.71,6.82-18.74,13.55-37.51,20.37-56.25,1.72-4.74.9-4,5.73-4.1.92,0,1.85.07,2.76,0,2.18-.2,2.58.65,1.85,2.62-2.53,6.81-4.94,13.66-7.41,20.48q-6.78,18.72-13.58,37.42C889.35,259.25,890.42,258.46,884.87,258.54Z"/><path class="cls-1" d="M261.1,258.48c-1.59,0-3.18,0-4.77,0s-1.88-.68-1.16-2c.16-.29.3-.6.45-.9q14.83-29.7,29.69-59.4c.5-1,.76-2.39,2.15-2.56s3.1-.65,4.13.25-.21,2.3-.62,3.39c-7.45,19.59-15,39.16-22.41,58.76-.66,1.75-1.53,2.64-3.46,2.46C263.78,258.38,262.43,258.48,261.1,258.48Z"/><path class="cls-1" d="M344.68,431c-1.42,0-2.84-.05-4.26,0-2.21.11-2.47-.83-1.45-2.53a4.78,4.78,0,0,0,.23-.45q14.94-29.93,29.9-59.86c.47-.94.76-2.18,2-2.33s3.06-.67,4.08.4-.22,2.2-.62,3.24q-11,28.9-22.11,57.8c-1.43,3.73-1.45,3.72-5.56,3.73Z"/><path class="cls-1" d="M466.94,344.71h-4.76c-1.39,0-1.86-.58-1.21-1.87.18-.38.36-.76.55-1.13q14.79-29.73,29.59-59.45c.47-.95.71-2.2,1.87-2.55,1.44-.43,3.18-.76,4.36.12s-.08,2.3-.48,3.35Q486,311.88,475,340.53c-1.6,4.19-1.58,4.19-6,4.19h-2Z"/></svg>