<svg id="Logos_Patrocinadores" data-name="Logos Patrocinadores" xmlns="http://www.w3.org/2000/svg" viewBox="0 0 1500 600"><defs><style>.cls-1{fill:#7a97ab;}</style></defs><path class="cls-1" d="M475.62,185.84c20.34-1,44.42,3.37,48.89,17.72,7.34,23.52-29.9,57.81-62.37,74.65-7.95,4.14-12.75,5.25-14.77,5s-2.2-2.18-1.6-3.48c1.16-2.48,6.41-7.51,13.39-13,36.56-28.55,48.43-49.5,41.52-58-4.41-5.44-22.91-9.22-42.15-9.22-5.25,0-19,1.22-20.38-3.59-1.1-4,17.29-9.19,37.47-10.13m-43,107.86c17.45-1,38.63,2.05,50.53,11.16a21.36,21.36,0,0,1,7.67,22.36c-6.9,27.08-32.52,59.85-89.45,85-18.13,8-32.35,11.07-35.33,8.92-3.23-2.3,6.1-20.16,8.91-26.09,9.11-19.22,20.43-37.94,31.53-55.05,4.09-6.3,10.38-17.23,16.07-16.37,5.11.8-.86,12.42-4.81,19.79-6.62,12.4-24.79,46.82-18.77,48.87,13.25,4.58,75.54-42.8,66.34-69.19C461,310.84,434,309.68,417,309.68c-7.73,0-24.68,1.83-25.62-4.11-1-5.47,25.7-11,41.24-11.87"/><path class="cls-1" d="M567.3,264.66c10.46,1.9,19,3.37,21,7.78,2.2,5-9.23,5.3-15,5.44-27.52.53-44.14,1.08-45,10.44-1.08,12,11.79,24.15,24.46,41.13,11.59,15.54,24.76,30.87,21,45.14-4.75,17.81-26.56,21.53-47.32,21.56a254.6,254.6,0,0,1-46.65-4.75c-9.86-1.93-8.4-6.82-5.77-8.39,3-1.74,19.71-1.79,31.36-2.48,9.58-.56,37.43-.56,41.77-7.68,5.33-8.72-7.73-23.69-19.69-39.34-14.9-19.52-31.33-39.7-22.63-54.41,11.23-19.05,44.08-17.76,62.47-14.44m429.19,53.42c22.08,0,30.64-7.57,34.12-25l5.24-27.25c.36-1.82-.74-2.38-2.12-2.38H1023l-2.95,15.69-1.66,8.33-1.4,7.24c-2,9.88-8.37,14.32-19.19,14.32-11.93,0-15.1-4.33-13.25-14.32l.63-3.23,2.46-12.34,3-15.69H979.92a2.79,2.79,0,0,0-3,2.38L971.64,293c-3.59,19.18,6,25,24.85,25ZM620.83,347.62c-1.6,7.53,4.28,11.15,16.23,18.58,13.09,8.11,16.07,8.72,14.86,13-.94,3.45-4.39,3.59-10.27,3.59H618.37c-2.65,0-4.19,1.1-4.66,3.45L612.8,391h29.34c13.45,0,21.87-.83,24.93-9.06a11.19,11.19,0,0,0-2.15-12.23,32.21,32.21,0,0,0-8.34-6c-16.78-9.49-21.17-10.6-20.09-15.18.57-2.6,2.37-2.68,8.69-2.68h19.69c2.65,0,4.19-1.1,4.63-3.45l1-5h-24.9c-14.11,0-22.58.06-24.74,10.21Zm129.48,0c-1.57,7.53,4.31,11.15,16.26,18.58,13.09,8.11,16.07,8.72,14.85,13-1,3.45-4.41,3.59-10.27,3.59h-23.3c-2.65,0-4.17,1.1-4.63,3.45l-.94,4.78h29.37c13.45,0,21.87-.83,24.9-9.06a11.11,11.11,0,0,0-2.12-12.23,32.36,32.36,0,0,0-8.37-6c-16.76-9.49-21.15-10.6-20.1-15.18.61-2.6,2.38-2.68,8.7-2.68h19.71c2.62,0,4.17-1.1,4.64-3.45l1-5H775.07c-14.13,0-22.58.06-24.73,10.21Zm328.2,0c-1.6,7.53,4.28,11.15,16.23,18.58,13.09,8.11,16.07,8.72,14.85,13-1,3.45-4.39,3.59-10.27,3.59H1076c-2.62,0-4.17,1.1-4.64,3.45l-.91,4.78h29.35c13.44,0,21.86-.83,24.93-9.06a11.15,11.15,0,0,0-2.15-12.23,32.12,32.12,0,0,0-8.37-6c-16.76-9.49-21.15-10.6-20.07-15.18.55-2.6,2.37-2.68,8.7-2.68h19.68c2.65,0,4.17-1.1,4.64-3.45l1-5h-24.9c-14.1,0-22.58.06-24.73,10.21ZM884.7,307.86a11.16,11.16,0,0,0-2.12-12.26,32.31,32.31,0,0,0-8.37-6.07c-16.76-9.47-21.14-10.54-20.1-15.13.61-2.59,2.41-2.7,8.73-2.7h19.68c2.65,0,4.17-1.08,4.64-3.43l1-5H863.22c-14.1,0-22.58.08-24.76,10.21-1.57,7.54,4.31,11.18,16.26,18.61,13.09,8.12,16.07,8.73,14.85,13-1,3.46-4.39,3.59-10.27,3.59H836c-2.68,0-4.2,1.11-4.66,3.45l-.92,4.78H859.8c13.45,0,21.87-.83,24.93-9.06Zm-62.53,0A11.18,11.18,0,0,0,820,295.6a32.62,32.62,0,0,0-8.34-6.07c-16.81-9.47-21.17-10.54-20.1-15.13.56-2.59,2.35-2.7,8.7-2.7h19.66c2.67,0,4.19-1.08,4.66-3.43l1-5h-24.9c-14.14,0-22.59.08-24.74,10.21-1.6,7.54,4.28,11.18,16.23,18.61,13.06,8.12,16.07,8.73,14.86,13-.94,3.46-4.39,3.59-10.27,3.59H773.47c-2.67,0-4.19,1.11-4.69,3.45l-.91,4.78h29.37c13.45,0,21.87-.83,24.93-9.06Zm273.09-44.45c-2.65,0-4.14.92-4.52,2.9l-1,5.41h21L1102,316.89h9.44c2.65,0,4.19-1.1,4.72-3.81l8.06-41.36h17.56c2.48,0,3.37-1.1,3.81-3.28l1-5ZM636.54,278.3a2.42,2.42,0,0,0-2.48,1.79l-7.18,36.8h31.66c17.76,0,30-6.6,33.88-27.06,2.87-15.26-3.76-26.42-21.81-26.42H632.29l-.17.69c-.85,3.59-.41,7.57,5.66,7.57h27.83c13.42,0,15.32,6.71,12.65,18.5-2.63,11.59-7.21,17.55-17.29,18.47H641.92l5.88-30.37Zm451.22,33.59c.46-2.34-.36-3.25-2.49-3.25h-28.71l8.45-43.4a1.58,1.58,0,0,0-1.66-1.83h-11.43l-10.38,53.48h45.25Zm-85.42,25.68H990.25l-23.47,20.84-15.35-20.84H939.34c-2,0-3.07,1.24-3.48,3.42l-9.75,50h10.3a3.44,3.44,0,0,0,3.73-3.07l7.29-37.43,11.81,16.84a3.15,3.15,0,0,0,2.82,1.65h5.33a5,5,0,0,0,3.45-1.65l18.38-16.84L981.94,388c-.39,2,.38,3.07,2.56,3.07h10.27l9.72-50C1004.91,338.81,1004.35,337.57,1002.34,337.57ZM874.24,341l-9.72,50h49.42l1-5.36c.44-2.18-.11-2.9-2.59-2.9H879.54l2.79-14.35h29a1.57,1.57,0,0,0,1.58-1.27l1.1-5.69a1,1,0,0,0-1.07-1.27H884l2.76-14.33h31.66c1.5,0,3,0,3.4-2l1.21-6.29H878.38a3.76,3.76,0,0,0-4.14,3.42ZM1021,341l-9.75,50h49.42l1.05-5.36c.41-2.18-.11-2.9-2.6-2.9h-32.82l2.78-14.35h29a1.55,1.55,0,0,0,1.57-1.27l1.11-5.69a1,1,0,0,0-1.08-1.27h-29l2.76-14.33h31.69c1.49,0,3,0,3.37-2l1.21-6.29h-44.58A3.77,3.77,0,0,0,1021,341Zm-296.34-1.63-4.72,24.35c-8.29,2.54-29.76,7.18-26.42-10l3.14-16.12H685.32a2.45,2.45,0,0,0-2.48,1.79L680,354.05c-5.41,27.91,21,24.1,38.12,18.86L714.56,391H724c2.68,0,4.2-1.11,4.75-3.79l9.63-49.69H727a2.45,2.45,0,0,0-2.34,1.82Zm141.15,3.21,1-5H815.55c-2.65,0-4.14.88-4.56,2.9l-1,5.38h21L822.23,391h9.44c2.65,0,4.17-1.11,4.72-3.79l8-41.41H862c2.48,0,3.37-1.07,3.78-3.25ZM718.42,285.89c2-10.41,8.09-14.19,18.91-14.19,11.46,0,14.47,4.3,12.59,14.19l-.6,3.23c-.25,1.1-.75,4-3.73,4H717l1.38-7.18Zm-16.15,31h10.14l2.92-15.54h31.5l-2.92,15.54H754a2.73,2.73,0,0,0,3-2.35l5.25-27c3.86-20.48-7.7-24.84-23.3-24.84-18.66,0-29.35,4.69-33.41,24.84l-5.24,27c-.36,1.8.69,2.35,2,2.35Zm212.64-31c2-10.41,8.08-14.19,18.91-14.19,11.45,0,14.46,4.3,12.61,14.19l-.63,3.23c-.25,1.1-.75,4-3.7,4H913.5l1.41-7.18Zm-16.13,31h10.11l3-15.54h31.47l-2.92,15.54h10.1a2.73,2.73,0,0,0,3-2.35l5.24-27c3.87-20.48-7.7-24.84-23.3-24.84-18.66,0-29.32,4.69-33.4,24.84l-5.25,27c-.36,1.8.69,2.35,2,2.35Z"/></svg>