<svg id="Logos_Patrocinadores" data-name="Logos Patrocinadores" xmlns="http://www.w3.org/2000/svg" viewBox="0 0 1500 600"><defs><style>.cls-1{fill:#7a97ab;}</style></defs><path class="cls-1" d="M367.23,267.86a122.26,122.26,0,0,1,62.28-82.18c15.66-8.27,32.07-12.55,50-12,53,1.7,100,30.23,116.84,82.28,2.66,8.24,5.07,16.47,4.55,25.32-.34,5.76,0,11.56-.07,17.33-.16,28.27-11.77,51.71-30.37,72.36a116.22,116.22,0,0,1-52.13,33.33c-8.28,2.64-16.56,5-25.44,4.49-5.34-.32-10.71-.07-16.07-.05-29.4.12-53.55-11.92-75-31.19a116.54,116.54,0,0,1-34.43-57.73,92,92,0,0,1-2.15-10.67A123.91,123.91,0,0,1,367.23,267.86Zm102.2.23V197.53c0-3.85.74-9.29-4.32-9.26-3.75,0-3.7,5.13-3.68,8.8.11,14.65,0,29.29.05,43.94,0,7.82.52,7.74-8.24,7.64-9.35-.09-18.71.13-28.07-.06-45.68-.91-54.57,75.4-18.1,94.34a37.64,37.64,0,0,0,49.21-12.7c1-1.43,2.5-2.47,3.76-3.7a43,43,0,0,1,1.31,11.59c-.05,5.37,8,9.94,8,3.19,0-2.22,0-4.44,0-6.66Zm75.21,80.36c8.14.68,20.53-5.45,28.3-7.58,5.33-1.46,2.54-7.32-2.07-6.7-1.94.26-3.62,1.4-5.31,2.4a39.49,39.49,0,0,1-55.92-18.34c-1.48-3.49-6.85-22,.74-21.43,20.13,1.46,40.94-1.88,61-3.43,8.71-.67,8.61-7.45,7.57-14.56-4.91-33.53-45.48-41.32-68-18.78-17.13,17.17-14.25,48.25-3.46,67.76C515.18,341.66,529.52,347.2,544.64,348.45Z"/><path class="cls-1" d="M614.13,296l-.06-43.21c0-1.89.08-4,1.41-5.32,1.67-1.67,4.62-1.26,6.44.24s2.78,3.76,3.67,5.94c-1.78-4.33,28.06-7.7,30.77-7.5,10.23.77,20.08,4.55,26.31,13.07,1.81,2.46,3.35,4.16,6.79-.09,6.58-8.15,15-14.43,26.75-13.28a19.2,19.2,0,0,0,4,0c16-1.84,25.94,5.62,31,20.28,1,2.8,2.12,5.75,2.15,8.64.18,22.23.14,44.46.07,66.7,0,5.58-1.68,6.88-7.31,5.71a4.94,4.94,0,0,1-3.22-3c-.51-2.57-.21-5.3-.21-8,0-18.23-.07-36.47,0-54.7,0-6.68-1-13.17-5.47-18.19-10.71-11.93-20.82-11.27-34.5-2.47-9,5.77-14.58,14.33-13.87,26.65,1,18.18.19,36.45.34,54.68,0,4.11-1.56,5.27-5.46,5.27s-5.48-1.19-5.45-5.28c.15-19.57.12-39.13,0-58.7-.07-15.32-9.78-31.17-27.17-27.93-10.12,1.89-18.28,10-22.41,19.48s-4.76,20-4.35,30.32,1.84,20.55,1.56,30.85c-.08,3.08-.38,6.36-2.28,8.78s-5.94,3.39-8.06,1.15c-1.42-1.5-1.5-3.78-1.5-5.84Z"/><path class="cls-1" d="M1046,330.92c-2.61,3-4.94,6.39-7.89,9-11.66,10.49-30,15.37-45.91,2-8.82-7.41-12.82-17.71-10.67-28.72,2-10.24,7.5-18,18.85-22.51,12.5-5,24.78-4.58,37.38-4.75,8.12-.11,7.86.45,7.75-8.13,0-2.22.07-4.44,0-6.66-.36-7.93-4.37-12.48-11.65-14.59-12.76-3.71-24.38-.71-35.3,5.7-2.86,1.68-5.35,3.58-8.22,1.47-2.7-2-1.42-9.87,2.24-11.43,6.25-2.66,12.81-5.17,19.47-6.17,7-1,14.24-.44,21.36-.2,13.37.47,20.35,8,23.06,21.34,4.91,24.11,1.16,48.36,2.46,72.5.22,4.11-1.63,7-5.76,7.38-1.55.14-4.5-1.53-4.69-2.7-.6-3.86-.22-7.87-.22-11.83Zm-51.75-14.53c.43,4.46-.3,8.58,1.34,11.25,2.49,4.05,6,8.28,10.18,10.32,8,4,16.9,1.58,23.5-3,12.84-8.89,17.49-22.35,16-37.76a4.53,4.53,0,0,0-3.14-3c-11-.53-22.14-1.09-32.46,2.93-5.07,2-9.65,6.11-13.35,10.26C994.42,309.6,994.79,313.89,994.28,316.39Z"/><path class="cls-1" d="M823.82,244.45a44.24,44.24,0,0,1,12.66,1.87c20.15,5.9,33.62,28.84,28.94,49.32l-65.49,3.8c-1.84.11-3.86.29-5.16,1.6s-1.48,3.64-1.3,5.62a35.76,35.76,0,0,0,51.6,28.8c4.19-2.09,14.74-8,17.26,0a5.44,5.44,0,0,1-1.48,5.17,14,14,0,0,1-4.75,3,73.88,73.88,0,0,1-30.8,5.74c-6.84-.14-13.78-1.22-19.95-4.2-13.33-6.45-21.18-21-23.72-35.59C776.64,281,793.16,244.6,823.82,244.45Zm-5.48,44.74q9.3.24,18.6-.21a55.43,55.43,0,0,0,11.91-1.52,7.79,7.79,0,0,0,3.82-1.94c5.38-5.78-3-17.59-6.6-22.12-14.57-18.14-43.09-6.93-50.85,12.21C789.32,290.19,810,289,818.34,289.19Z"/><path class="cls-1" d="M902.78,291.36c.28-9,.8-17.94.78-26.39,0-7.4-8-5.06-13.09-5.74-2.28-.31-4-3.86-3-6.08,2.36-5,6.87-4.87,11.38-4.53,7.21.54,4.53-18.76,7.06-24.51,1.16-2.61,3.86-5.49,6.37-4.13,1.81,1,2,3.45,2,5.5-.16,10.12-4.3,23.25,8.34,23.14,8-.07,16,.15,24.06-.09,4.2-.12,5.2,1.68,5.22,5.49s-1.3,5.46-5.35,5.37c-8.9-.22-17.82.06-26.72-.13-3.76-.09-5.67.68-5.62,5,.22,18.89-1.6,38.37,1.24,57.1.93,6.12,2.85,12.78,8.11,16.05,4.23,2.64,9.7,2.4,14.48,1s9.17-3.93,13.85-5.65a3.82,3.82,0,0,1,2.24-.33,3,3,0,0,1,1.65,1.26c2,2.79,1.19,6.94-1.14,9.48s-5.77,3.76-9.16,4.4c-10.46,2-23.63,3.52-32.67-3.57-3.12-2.44-5.25-6.9-6.43-10.85C902.5,320.2,902.34,305.7,902.78,291.36Z"/><path class="cls-1" d="M1085.68,254.66c0-20.43,0-40.86,0-61.29,0-6,1.28-6.79,7-6.2,2.81.29,3.8,1.56,3.74,4.18-.08,3.11,0,6.22,0,9.33q0,54.63,0,109.26c0,8.5,2,16,7.61,22.78,5.84,6.95,15,9.15,22.68,4.4,2-1.26,3.62-4.84,6.44-2,2.25,2.28,1.12,9.34-1.8,10.61-6.3,2.73-12.86,6-20,3.93-9.49-2.82-17.28-8.15-21.2-17.75-2.44-6-4.72-11.85-4.61-18.62.33-19.54.12-39.09.12-58.63Z"/><path class="cls-1" d="M462.1,283.47c.14,26.5-3.68,56-33.43,58.57a33.6,33.6,0,0,1-29-12.62c-9-11.73-10.1-29.7-7.58-43.77,2.36-13.15,10.05-24,22.43-29.35,13.74-5.92,29.13-2.71,43.75-2,1.08,0,2.34.22,2.86,1.16a3.1,3.1,0,0,1,.28,1.57C461.47,264.49,462.05,273.78,462.1,283.47Z"/><path class="cls-1" d="M531,291.77c-6.89,0-13.76-.28-20.56-.6a4,4,0,0,1-2.83-.89,3.82,3.82,0,0,1-.73-2.51c-.85-24.71,29.81-45.24,51.38-31.08,7.48,4.91,25.64,30.63,8.39,33A247.38,247.38,0,0,1,531,291.77Z"/><path class="cls-1" d="M754.9,389.47a16.57,16.57,0,0,1-5.62.87c-5.9,0-9.74-3.09-9.74-7.7s4.12-8,10.51-8a14.73,14.73,0,0,1,4.93.79l-.81,2.12a10.15,10.15,0,0,0-4.12-.72c-4.49,0-6.92,2.56-6.92,5.71,0,3.5,2.91,5.65,6.79,5.65a12.68,12.68,0,0,0,4.37-.75Z"/><path class="cls-1" d="M759.06,379.64c0-1.78,0-3.31-.16-4.71H762l.12,3h.16a5.82,5.82,0,0,1,5.42-3.31,4.43,4.43,0,0,1,1,.1v2.59a7,7,0,0,0-1.21-.1,4.63,4.63,0,0,0-4.77,3.53,6.1,6.1,0,0,0-.17,1.28v8h-3.51Z"/><path class="cls-1" d="M773.85,383c.08,3.71,3.15,5.24,6.71,5.24a16.16,16.16,0,0,0,5.42-.78l.6,2a20.13,20.13,0,0,1-6.5.93c-6,0-9.62-3-9.62-7.61s3.47-8.15,9.17-8.15c6.39,0,8.09,4.34,8.09,7.12a7.91,7.91,0,0,1-.13,1.28Zm10.43-2c0-1.74-.93-4.46-4.93-4.46a5.24,5.24,0,0,0-5.46,4.46Z"/><path class="cls-1" d="M803,390l-.28-1.9h-.12a8.2,8.2,0,0,1-6,2.25c-4,0-6-2.16-6-4.34,0-3.65,4.21-5.65,11.77-5.62v-.31c0-1.25-.45-3.5-4.45-3.5a11.88,11.88,0,0,0-5.09,1.13l-.81-1.81a14.78,14.78,0,0,1,6.42-1.35c6,0,7.44,3.16,7.44,6.18v5.65a16.7,16.7,0,0,0,.32,3.62Zm-.52-7.71c-3.88-.06-8.29.47-8.29,3.41,0,1.77,1.54,2.62,3.35,2.62,2.55,0,4.17-1.25,4.73-2.53a2.14,2.14,0,0,0,.21-.87Z"/><path class="cls-1" d="M811.6,379c0-1.57,0-2.84-.16-4.09h3.11l.16,2.43h.12a7.21,7.21,0,0,1,6.15-2.78,5.86,5.86,0,0,1,5.53,3h.09a7,7,0,0,1,2.18-2,8.09,8.09,0,0,1,4.32-1.06c2.59,0,6.43,1.31,6.43,6.56V390h-3.48v-8.55c0-2.9-1.37-4.65-4.24-4.65a4.57,4.57,0,0,0-4.2,2.5,3.41,3.41,0,0,0-.29,1.37V390h-3.47v-9a3.81,3.81,0,0,0-4.09-4.15,4.73,4.73,0,0,0-4.4,2.75,3,3,0,0,0-.28,1.34V390H811.6Z"/><path class="cls-1" d="M863,382.36c0,5.58-5,8-9.74,8-5.3,0-9.38-3-9.38-7.78,0-5.05,4.29-8,9.7-8C859.21,374.58,863,377.74,863,382.36Zm-15.52.15a5.94,5.94,0,0,0,11.88-.06,5.94,5.94,0,0,0-11.88.06Z"/><path class="cls-1" d="M867,387.22a11.37,11.37,0,0,0,4.69,1.1c2.59,0,3.8-1,3.8-2.25s-1-2-3.64-2.78c-3.52-1-5.17-2.46-5.17-4.27,0-2.44,2.54-4.44,6.75-4.44a12.06,12.06,0,0,1,4.81.94l-.89,2a9.21,9.21,0,0,0-4-.88c-2.11,0-3.28.94-3.28,2.06s1.17,1.81,3.72,2.56c3.4,1,5.13,2.31,5.13,4.56,0,2.65-2.66,4.52-7.31,4.52a13.79,13.79,0,0,1-5.5-1Z"/><path class="cls-1" d="M896,370.68c0,.94-.85,1.69-2.26,1.69s-2.15-.75-2.15-1.69.93-1.71,2.23-1.71S896,369.72,896,370.68Zm-4,19.35v-15.1h3.55V390Z"/><path class="cls-1" d="M918.42,367.87v18.26a38.19,38.19,0,0,0,.16,3.9h-3.19l-.16-2.62h-.08c-1.09,1.69-3.48,3-6.67,3-4.73,0-8.37-3.09-8.37-7.68,0-5,4-8.12,8.77-8.12,3,0,5,1.1,5.9,2.31h.08v-9Zm-3.56,13.21a3.82,3.82,0,0,0-.16-1.16c-.52-1.75-2.46-3.18-5.13-3.18a5.52,5.52,0,0,0-5.86,5.83c0,3.06,1.94,5.59,5.78,5.59,2.38,0,4.57-1.22,5.21-3.28a3.74,3.74,0,0,0,.16-1.18Z"/><path class="cls-1" d="M926.3,383c.08,3.71,3.15,5.24,6.71,5.24a16.16,16.16,0,0,0,5.42-.78l.6,2a20.13,20.13,0,0,1-6.5.93c-6,0-9.62-3-9.62-7.61s3.47-8.15,9.17-8.15c6.39,0,8.08,4.34,8.08,7.12A8.15,8.15,0,0,1,940,383Zm10.43-2c0-1.74-.93-4.46-4.93-4.46a5.24,5.24,0,0,0-5.46,4.46Z"/><path class="cls-1" d="M955.4,390l-.28-1.9H955a8.2,8.2,0,0,1-6,2.25c-4,0-6-2.16-6-4.34,0-3.65,4.21-5.65,11.77-5.62v-.31c0-1.25-.45-3.5-4.45-3.5a11.88,11.88,0,0,0-5.09,1.13l-.81-1.81a14.78,14.78,0,0,1,6.42-1.35c6,0,7.44,3.16,7.44,6.18v5.65a16.7,16.7,0,0,0,.32,3.62Zm-.52-7.71c-3.88-.06-8.29.47-8.29,3.41,0,1.77,1.54,2.62,3.35,2.62,2.55,0,4.17-1.25,4.73-2.53a2.14,2.14,0,0,0,.21-.87Z"/><path class="cls-1" d="M963.56,387.22a11.41,11.41,0,0,0,4.69,1.1c2.59,0,3.8-1,3.8-2.25s-1-2-3.63-2.78c-3.52-1-5.18-2.46-5.18-4.27,0-2.44,2.55-4.44,6.75-4.44a12.06,12.06,0,0,1,4.81.94l-.89,2a9.21,9.21,0,0,0-4-.88c-2.1,0-3.27.94-3.27,2.06s1.17,1.81,3.71,2.56c3.4,1,5.14,2.31,5.14,4.56,0,2.65-2.67,4.52-7.32,4.52a13.71,13.71,0,0,1-5.49-1Z"/><path class="cls-1" d="M990.6,383c.08,3.71,3.16,5.24,6.71,5.24a16.16,16.16,0,0,0,5.42-.78l.6,2a20.13,20.13,0,0,1-6.5.93c-6,0-9.62-3-9.62-7.61s3.47-8.15,9.17-8.15c6.39,0,8.09,4.34,8.09,7.12a6.91,6.91,0,0,1-.13,1.28Zm10.43-2c0-1.74-.93-4.46-4.93-4.46a5.24,5.24,0,0,0-5.46,4.46Z"/><path class="cls-1" d="M1008.87,379c0-1.57,0-2.84-.16-4.09h3.15l.2,2.49h.08c1-1.43,3.24-2.84,6.47-2.84,2.71,0,6.91,1.25,6.91,6.43v9H1022v-8.71c0-2.43-1.18-4.46-4.53-4.46a5,5,0,0,0-4.77,2.81,3.14,3.14,0,0,0-.24,1.28V390h-3.56Z"/><path class="cls-1" d="M1039.87,379c0-1.57,0-2.84-.16-4.09h3.11l.16,2.43h.12a7.21,7.21,0,0,1,6.15-2.78,5.86,5.86,0,0,1,5.53,3h.08a7.15,7.15,0,0,1,2.19-2,8.09,8.09,0,0,1,4.32-1.06c2.59,0,6.43,1.31,6.43,6.56V390h-3.48v-8.55c0-2.9-1.37-4.65-4.24-4.65a4.57,4.57,0,0,0-4.2,2.5,3.41,3.41,0,0,0-.29,1.37V390h-3.47v-9a3.81,3.81,0,0,0-4.09-4.15,4.73,4.73,0,0,0-4.4,2.75,3,3,0,0,0-.28,1.34V390h-3.48Z"/><path class="cls-1" d="M1075.56,383c.08,3.71,3.15,5.24,6.71,5.24a16.1,16.1,0,0,0,5.41-.78l.61,2a20.21,20.21,0,0,1-6.51.93c-6,0-9.62-3-9.62-7.61s3.48-8.15,9.18-8.15c6.38,0,8.08,4.34,8.08,7.12a8.15,8.15,0,0,1-.12,1.28Zm10.43-2c0-1.74-.93-4.46-4.94-4.46a5.23,5.23,0,0,0-5.45,4.46Z"/><path class="cls-1" d="M1098.11,370.59v4.34h5.09V377h-5.09v8.14c0,1.88.69,2.94,2.67,2.94a10.39,10.39,0,0,0,2.06-.19L1103,390a11.05,11.05,0,0,1-3.15.37,5.75,5.75,0,0,1-3.84-1.15c-1-.81-1.38-2.15-1.38-3.93V377h-3v-2.09h3v-3.62Z"/><path class="cls-1" d="M1118,390l-.29-1.9h-.12a8.17,8.17,0,0,1-6,2.25c-4,0-6-2.16-6-4.34,0-3.65,4.2-5.65,11.76-5.62v-.31c0-1.25-.45-3.5-4.45-3.5a11.88,11.88,0,0,0-5.09,1.13l-.81-1.81a14.83,14.83,0,0,1,6.43-1.35c6,0,7.44,3.16,7.44,6.18v5.65a16.7,16.7,0,0,0,.32,3.62Zm-.53-7.71c-3.88-.06-8.29.47-8.29,3.41,0,1.77,1.54,2.62,3.36,2.62,2.54,0,4.16-1.25,4.73-2.53a2.29,2.29,0,0,0,.2-.87Z"/><path class="cls-1" d="M1126.68,367.87h3.56V390h-3.56Z"/></svg>