<svg id="Logos_Patrocinadores" data-name="Logos Patrocinadores" xmlns="http://www.w3.org/2000/svg" viewBox="0 0 1500 600"><defs><style>.cls-1{fill:#7a97ab;}</style></defs><path class="cls-1" d="M281.07,382.78c20.52,0,41.05,0,61.57.12a112.79,112.79,0,0,1,14.47.92c11.53,1.57,16.88,6.55,18.41,18a121.1,121.1,0,0,1-.2,34.17c-1.78,11.7-7.49,16.79-19.28,18-4.81.5-9.66.79-14.49.82-19.12.09-38.24,0-57.35,0-1.05,0-2.09.17-3.13.25Zm21.79,53.65c12,0,23.71.06,35.4,0a68,68,0,0,0,9.44-.85,6.6,6.6,0,0,0,5.82-5.38,53.22,53.22,0,0,0-.09-23,6.83,6.83,0,0,0-5.82-5.42,26.64,26.64,0,0,0-4.44-.53q-19.41-.25-38.81-.41a9.07,9.07,0,0,0-1.5.26Z"/><path class="cls-1" d="M1053.76,456.14c-2.25-.18-4.51-.28-6.75-.54-5.23-.63-10.56-.89-15.65-2.12-7.54-1.82-11.68-6.55-11.9-14.22-.39-13.5-.45-27,0-40.54.28-8.05,4.61-12.88,12.58-14.48a115.54,115.54,0,0,1,20.16-2.15c12-.27,24,0,35.92.22a43.05,43.05,0,0,1,8.85,1.34c6.93,1.58,11.11,5.88,11.93,13,.45,3.89.57,7.83.86,11.91h-22c-.12-.2-.28-.35-.29-.5-.33-6.74-1.55-7.49-8.34-7.75-9.58-.37-19.19-.25-28.77-.08-5.88.11-8.62,2.39-9,8.19a178.24,178.24,0,0,0,0,21.31c.26,4.89,2.73,7.26,7.66,7.4,10.73.3,21.48.36,32.21.12,5.32-.13,6.48-1.67,7.18-6.89.13-1,.25-2.07.4-3.23h21.91c.32,6.45.79,12.83-1.86,18.93a12.32,12.32,0,0,1-9.16,7.3c-5.4,1.12-10.94,1.56-16.42,2.31-.84.11-1.66.3-2.48.45Z"/><path class="cls-1" d="M672.67,454.81c-8.24,0-16.06,0-23.88-.07-.62,0-1.45-.86-1.82-1.52-1.57-2.85-2.91-5.82-4.54-8.63a3.57,3.57,0,0,0-2.47-1.66q-22.22-.15-44.42,0a3.3,3.3,0,0,0-2.32,1.51c-1.61,2.82-2.9,5.82-4.52,8.63a3.59,3.59,0,0,1-2.5,1.69q-51.16.12-102.32.06a13,13,0,0,1-1.41-.17V383h79.71v16.86H504.36v10.26H559.2v15.92H504.32v11.28h58.33v15.82l.63.13c.38-.63.79-1.24,1.13-1.89q17.64-33.15,35.24-66.33a3.52,3.52,0,0,1,3.62-2.26c9.87.11,19.74.07,29.61,0,1.43,0,2.41.23,3.17,1.68q18,34.47,36.06,68.87C672.27,453.69,672.37,454,672.67,454.81Zm-39.24-28.09a10.85,10.85,0,0,0-.4-1.3c-4.08-8.07-8.22-16.1-12.22-24.21a2.45,2.45,0,0,0-3.18-1.48,4.59,4.59,0,0,0-2.72,1.71c-3.23,6-6.28,12.17-9.37,18.28-1.12,2.23-2.2,4.49-3.43,7Z"/><path class="cls-1" d="M776.94,401.22c-2.33-.73-3.44.2-4.43,2.18-8.19,16.42-16.53,32.78-24.74,49.19-.81,1.63-1.69,2.34-3.58,2.28-4.49-.15-9-.13-13.48,0a3.41,3.41,0,0,1-3.66-2.16c-8.17-16.34-16.47-32.62-24.6-49-1.13-2.26-2.37-3.36-4.89-2.5V454.6h-21.3V382.86H679c11.45,0,22.91.05,34.36,0a3.44,3.44,0,0,1,3.75,2.37c6.59,14.55,13.3,29.05,20.18,44,.52-1,.91-1.68,1.24-2.4,6.36-13.8,12.74-27.58,19-41.41.83-1.83,1.71-2.6,3.86-2.58,11.37.13,22.74.06,34.1.06h2.74v71.8H776.94Z"/><path class="cls-1" d="M385.23,382.86h2.94q30.93,0,61.86,0c3.26,0,6.51.18,9.77.35,7.83.41,13.7,5.27,14.49,13.08a112.81,112.81,0,0,1,.08,19.19c-.45,6.4-4.54,10-10.86,11.21.15.18.21.36.32.38,8.91,2,10,6.2,10.24,13.6.17,4.56,0,9.13,0,13.92H452.46c-.17-3.54-.3-7.1-.55-10.65-.35-5.09-2.13-7.11-7.19-7.18-12.42-.17-24.84-.06-37.59-.06v17.94h-21.9Zm21.94,35.46a5.31,5.31,0,0,0,1,.23c12.49-.05,25,0,37.48-.22,5.25-.09,6.63-1.71,7-6.89.06-.79,0-1.58,0-2.38-.07-6.32-1.7-8-8-8.06-11.71-.09-23.41-.13-35.12-.18-.76,0-1.53.09-2.43.15Z"/><path class="cls-1" d="M808.58,383h23.06v25.32H881V383h23.17v71.59h-23V428.84H831.78v25.79h-23.2Z"/><path class="cls-1" d="M1017.48,454.82h-10.77c-4.05,0-8.11.11-12.16-.08a3.94,3.94,0,0,1-2.73-1.7c-1.62-2.71-2.83-5.66-4.44-8.37a3.89,3.89,0,0,0-2.72-1.74q-21.95-.15-43.88,0a3.82,3.82,0,0,0-2.73,1.69c-1.62,2.71-2.84,5.65-4.43,8.38a3.66,3.66,0,0,1-2.49,1.74c-7.4.14-14.8.08-22.2.06a10.29,10.29,0,0,1-1.34-.23c2.73-5.14,5.35-10.06,8-15q14.55-27.31,29.06-54.67a3.31,3.31,0,0,1,3.45-2.08c9.95.07,19.91.05,29.87,0a2.74,2.74,0,0,1,2.91,1.59q17.86,34.21,35.86,68.37C1017,453.31,1017.13,453.88,1017.48,454.82Zm-39.06-28.18c-.49-1.07-.8-1.86-1.19-2.61-3.81-7.52-7.68-15-11.43-22.56a2.94,2.94,0,0,0-3-1.87,3.06,3.06,0,0,0-3.2,2c-2.66,5.45-5.47,10.82-8.2,16.22-1.45,2.87-2.86,5.75-4.37,8.8Z"/><path class="cls-1" d="M1214.43,382.64,1173,418.26l45,36.37c-1.43.09-2.19.19-3,.19-9.43,0-18.86.06-28.28-.07a6.69,6.69,0,0,1-4-1.51c-9.65-8.07-19.18-16.29-28.82-24.38a7,7,0,0,0-3.75-1.42c-3.14-.2-6.31-.06-9.72-.06v27.24h-22.06V383h21.91v26c4,0,7.73.1,11.47-.07.79,0,1.6-1,2.29-1.63,8.44-7.85,16.85-15.73,25.32-23.55a4.94,4.94,0,0,1,2.9-1.39c10.31-.1,20.62-.06,30.93,0A7.37,7.37,0,0,1,1214.43,382.64Z"/><path class="cls-1" d="M284.35,364.29c.77-.66,1.49-1.38,2.31-2,8.43-6,17-11.9,25.29-18.15,5.71-4.31,12.09-3.61,18.47-3.38,6.06.21,12.11.63,18.17,1,1.37.08,2.73.35,4.74.62a16.32,16.32,0,0,1-2.06,2.76c-7.52,6.08-15.11,12.08-22.63,18.16-2.46,2-5.33,2.1-8.24,2.09q-16.63-.07-33.27-.21c-.84,0-1.68-.12-2.52-.18Z"/><path class="cls-1" d="M353.42,364a17,17,0,0,0,3-1.68q8.72-7.47,17.32-15.07a13.24,13.24,0,0,1,9.64-3.54q14,.61,27.95,1.3a20.26,20.26,0,0,1,3.33.78,27.33,27.33,0,0,1-2.2,3.19c-4.48,4.72-9,9.37-13.51,14.1a8.68,8.68,0,0,1-6.82,2.78c-11.71-.1-23.43-.08-35.14-.14a15.55,15.55,0,0,1-2.67-.46Z"/><path class="cls-1" d="M423.64,365.5a30.68,30.68,0,0,1,1.69-2.62c3.37-4.07,6.87-8,10.14-12.16a10.86,10.86,0,0,1,9.74-4.18q14,.73,27.93,1.51c3.15.18,3.65,1.05,2.06,3.7-2.4,4-4.7,8.06-7.41,11.83a6.46,6.46,0,0,1-4.46,2.56c-12.32.11-24.64-.08-37-.2A20.84,20.84,0,0,1,423.64,365.5Z"/><path class="cls-1" d="M360.89,308.48a20.08,20.08,0,0,1,2.07-2.15c7.34-5.76,14.71-11.47,22.05-17.23a11.44,11.44,0,0,1,10.59-2.32c5.1,1.32,10.31,2.18,15.46,3.29,2.39.52,2.81,1.53,1.05,3.11q-10.31,9.27-20.83,18.27a4.6,4.6,0,0,1-3.15,1c-9-.95-17.94-2-26.9-3.09Z"/><path class="cls-1" d="M525.4,366.33c-9.84,0-19.69.05-29.54,0-2.73,0-2.9-.44-1.72-3,1.54-3.35,3.17-6.65,4.66-10,1.11-2.54,2.87-3.83,5.72-3.71,10.37.42,20.74.74,31.1,1.19,2.82.12,3.42,1.05,2.92,3.91s-1.18,6-1.63,9c-.32,2.16-1.57,3-3.58,3-2.64,0-5.28,0-7.92,0Z"/><path class="cls-1" d="M432.72,294.51l16.25,3.1c1.55.3,3.11.59,4.65.92,2,.42,2.63,1.54,1.25,3.15-4.5,5.28-9,10.59-13.72,15.65a6.15,6.15,0,0,1-4.54,1.31c-8.11-.85-16.2-1.94-24.29-3a8.17,8.17,0,0,1-2-.84,8.14,8.14,0,0,1,1.12-2c5.42-5.26,10.81-10.56,16.4-15.65C429.28,295.85,431.37,295.22,432.72,294.51Z"/><path class="cls-1" d="M460,321.36a10.51,10.51,0,0,1,.84-2.22c3.53-4.71,7.05-9.43,10.67-14.08a5.71,5.71,0,0,1,6.1-2.06c6.38,1.24,12.8,2.26,19.19,3.4,3,.54,3.49,1.38,2.08,4-2.14,4-4.28,8.07-6.66,12-.62,1-2.22,2.15-3.26,2.05C479.48,323.57,470,322.45,460,321.36Z"/><path class="cls-1" d="M606,366.69c-1.53.15-2.48.31-3.42.31q-18-.06-36-.16c-3.75,0-4.08-.39-4-4.11,0-2.45.27-4.91.26-7.37,0-2.29,1.13-3.16,3.27-3.1,8.1.25,16.19.48,24.29.75,2.38.08,4.75.29,7.13.34,2.87.07,4.8,1.14,5.56,4.16S605,363.43,606,366.69Z"/><path class="cls-1" d="M450.53,235.33a20.35,20.35,0,0,1,2.47.86c3.13,1.58,6.23,3.25,9.37,4.82,1.77.89,2.18,2.11.78,3.51-5.82,5.87-11.66,11.71-17.64,17.42a4,4,0,0,1-3.37.57c-4.85-1.53-9.62-3.33-14.43-5q-2.9-1-.63-3c6.76-5.9,13.51-11.8,20.33-17.63A14.49,14.49,0,0,1,450.53,235.33Z"/><path class="cls-1" d="M539.17,329.85c-8.15-.84-17-1.74-25.81-2.67-1.76-.19-2.51-1-1.69-2.84,1.63-3.7,3.15-7.44,4.67-11.17a3.72,3.72,0,0,1,4.36-2.58c7.45,1.16,14.9,2.38,22.35,3.57,2.23.36,2.55,1.84,2.23,3.7-.51,2.94-1,5.87-1.53,8.8C543.24,329.75,543,330,539.17,329.85Z"/><path class="cls-1" d="M675.72,367.39H668.3c-10.13,0-20.26-.2-30.38,0-3.86.08-6.37-1.08-7.86-4.68a45.71,45.71,0,0,0-2.95-5.28c-1-1.79-.43-2.66,1.53-2.65,4.49,0,9,0,13.47.21,6.5.25,13,.56,19.49,1a7.71,7.71,0,0,1,4.35,1.51C669.19,360.48,672.14,363.74,675.72,367.39Z"/><path class="cls-1" d="M476.7,273.66c-1.06-.24-1.76-.36-2.42-.56-4.78-1.5-9.56-3-14.33-4.53-2.47-.8-2.68-1.37-1-3.2,4.62-5.08,9.31-10.08,13.95-15.14a4.6,4.6,0,0,1,6.13-1.12c3.29,1.67,6.69,3.15,10.07,4.63,1.9.83,2.38,2,1.12,3.69-3.76,5-7.53,10-11.37,14.89A7.14,7.14,0,0,1,476.7,273.66Z"/><path class="cls-1" d="M595.92,335.25c-5.5-.47-10.3-.84-15.09-1.28s-9.61-1.06-14.42-1.44c-2.37-.19-3.52-1-3.34-3.58s0-5.27.07-7.91.76-3.52,3.54-3.18c6,.73,12,1.61,18,2.52,9.06,1.36,7.22.59,9.81,9C595,331.1,595.36,332.89,595.92,335.25Z"/><path class="cls-1" d="M503.79,260.2c3.91,1.56,7.18,2.82,10.42,4.17,6.95,2.89,6.92,1.85,3.5,9.16-1.3,2.78-2.72,5.51-4,8.29-.83,1.79-1.9,2.41-4,1.77-5.19-1.62-10.45-3-15.68-4.47-2.78-.81-3.05-1.45-1.51-3.82,2.67-4.12,5.34-8.25,8.16-12.27A18,18,0,0,1,503.79,260.2Z"/><path class="cls-1" d="M690.53,357.1c3.05,0,6.11-.09,9.16,0,8.08.28,16.17.6,24.26,1a15.74,15.74,0,0,1,5.87,1.25,146.58,146.58,0,0,1,14.87,8.32c-.69.06-1.38.18-2.07.18q-17.85,0-35.68-.1a11.3,11.3,0,0,1-7.54-2.61c-3-2.52-6.16-4.84-9.26-7.25Z"/><path class="cls-1" d="M649.2,340c-2.58-.2-5.16-.37-7.74-.6-7.53-.67-15.06-1.28-22.56-2.15a5.38,5.38,0,0,1-3.39-2.36,67.74,67.74,0,0,1-3.78-7.81c-.92-2.07-.36-2.89,1.81-2.61,7.84,1,15.67,2.06,23.49,3.19a6.05,6.05,0,0,1,3.39,1.3c3.17,3.34,6.13,6.88,9.17,10.34Z"/><path class="cls-1" d="M551.32,279.8c-.69,4.62-1.14,8.37-1.9,12.05a2.88,2.88,0,0,1-2.41,1.47c-6.24-1.44-12.43-3.08-18.62-4.7-1.47-.38-1.91-1.25-1.32-2.77,1.49-3.84,2.85-7.73,4.27-11.6.7-1.9,1.87-2.53,3.91-1.76,4.51,1.7,9.13,3.15,13.61,4.94C550,277.88,550.75,279.23,551.32,279.8Z"/><path class="cls-1" d="M505.75,197a16.47,16.47,0,0,1-1.48,2.5c-4.31,5.1-8.69,10.16-13,15.24-1.18,1.39-2.35,1.63-3.81.33-2.16-1.93-4.37-3.82-6.64-5.63-1.5-1.21-1.62-2.36-.27-3.73q8-8.07,15.93-16.17c1.55-1.58,2.87-1.73,4.22.31,1.21,1.83,2.65,3.51,4,5.28C505,195.65,505.34,196.28,505.75,197Z"/><path class="cls-1" d="M754.39,359.73c7.05,0,13.54-.12,20,0,5.53.13,11.21-.15,16.55,1,7.91,1.73,15.58,4.57,23.36,6.94l-.13.67c-3.47,0-6.94,0-10.41,0-9-.09-18-.06-26.93-.38a27.76,27.76,0,0,1-8.39-1.85c-4-1.46-7.73-3.37-11.57-5.11C756.14,360.69,755.41,360.26,754.39,359.73Z"/><path class="cls-1" d="M511.71,204.19a14.07,14.07,0,0,1,1.77,1.28,56.33,56.33,0,0,1,5.39,5.77,4.1,4.1,0,0,1,.41,3.67c-2.9,4.91-6.11,9.64-9.2,14.44-.85,1.33-1.76,1.45-3,.49q-4.11-3.09-8.35-6c-1.43-1-1.46-2-.47-3.31,3.86-4.91,7.7-9.83,11.58-14.72A13,13,0,0,1,511.71,204.19Z"/><path class="cls-1" d="M587.58,302.92c-3.63-.8-6.41-1.4-9.19-2-4-.9-8-1.83-12-2.73-1.87-.41-2.88-1.36-2.74-3.46.22-3.23.25-6.47.36-9.71.06-1.71,1.1-2.13,2.5-1.69,5.27,1.63,10.54,3.27,15.75,5.08a4.09,4.09,0,0,1,2.35,2.22C585.66,294.35,586.45,298.19,587.58,302.92Z"/><path class="cls-1" d="M703.49,344.31c-4.24-.27-8.48-.48-12.71-.81q-8.4-.66-16.79-1.52a7.13,7.13,0,0,1-3.69-1.12c-3.54-3-6.89-6.19-10.74-9.7a9.88,9.88,0,0,1,2.26-.43q12.67,1.53,25.34,3.15a5.23,5.23,0,0,1,2,.56c4.9,3,9.76,6,14.63,9Z"/><path class="cls-1" d="M537.06,228.49c-.28,1-.43,1.64-.69,2.28-1.57,3.9-3.2,7.77-4.73,11.69-.71,1.82-1.58,2.24-3.33,1.07-3-2-6.08-3.85-9.19-5.66-1.56-.92-1.76-2-.9-3.46,2.44-4.26,4.87-8.53,7.24-12.82,1.08-2,2.23-2.16,3.89-.6,2,1.86,4.13,3.54,6.13,5.38A13.88,13.88,0,0,1,537.06,228.49Z"/><path class="cls-1" d="M819.36,361.82c21.81-.45,43.5,0,64,7.06-1.36,0-3.12,0-4.89,0-11.17-.15-22.35-.2-33.51-.51a36.79,36.79,0,0,1-8.24-1.58C830.94,365.23,825.16,363.49,819.36,361.82Z"/><path class="cls-1" d="M597.81,293.24c2.44.57,4.12.91,5.77,1.35,2.55.67,5,1.8,7.62,2.05,9,.84,12,8.11,16.32,14.8-6-1.2-11.49-2.18-16.92-3.42-9.42-2.16-7.19-.27-10.79-9.24C599.19,297.25,598.68,295.68,597.81,293.24Z"/><path class="cls-1" d="M759.29,348.45c-4-.23-8-.41-12-.7-5.87-.44-11.75-.84-17.6-1.5a19.2,19.2,0,0,1-6.21-1.9,129.76,129.76,0,0,1-12.3-7.12C727.89,337.84,744.45,339.11,759.29,348.45Z"/><path class="cls-1" d="M554.3,257.82c-4.72-2.52-9-4.72-13.17-7.12a2.91,2.91,0,0,1-.86-2.56c1.06-4,2.37-7.87,3.56-11.8.56-1.85,1.5-2.19,3.08-1,2.53,1.89,5.11,3.71,7.68,5.56a4,4,0,0,1,1.68,4.33c-.59,3.27-.92,6.58-1.39,9.88C554.77,255.85,554.57,256.59,554.3,257.82Z"/><path class="cls-1" d="M634.78,303.35c12.7,2.11,25.21,4.65,33.73,15.95-7.8-1.49-15.67-3-23.53-4.52a2.77,2.77,0,0,1-1.41-.67c-3.13-3.37-6.21-6.77-9.31-10.16Z"/><path class="cls-1" d="M565.51,248.16c4,2.51,8.07,4.87,11.83,7.66,1,.75,1.13,2.84,1.44,4.35.63,3.06,1.11,6.14,1.8,10.05-5.56-2.6-10.39-4.83-15.18-7.11a1.44,1.44,0,0,1-.71-1c0-4.51,0-9,0-13.53Z"/><path class="cls-1" d="M525.24,173c-1.44-3.62-2.63-6.43-3.66-9.3a2.75,2.75,0,0,1,.24-2.2c4.38-5.69,8.85-11.31,13.68-16.85.83,4.59,3.65,8.94.14,13.61S529,167.61,525.24,173Z"/><path class="cls-1" d="M762.8,342.94c18,.24,35.59,2.28,52.15,9-1.75,0-3.76.06-5.76,0s-4.2-.31-6.31-.47c-6.13-.46-12.42-.2-18.35-1.53C777.13,348.3,770,345.34,762.8,342.94Z"/><path class="cls-1" d="M540,163.12c.89,2.73,1.82,5.45,2.65,8.2a3.12,3.12,0,0,1,0,2.07c-2.62,5.39-5.33,10.74-8.38,16.82-2-3.66-3.62-6.53-5.13-9.46a2,2,0,0,1,0-1.7c3.31-5.42,6.69-10.8,10.05-16.2Z"/><path class="cls-1" d="M671.88,312.3c14.91,2.05,28.35,5.65,40.12,14.37-8.1-1.39-16.1-2.69-24-4.19a12.89,12.89,0,0,1-4.47-2.14C679.77,317.88,676.15,315.27,671.88,312.3Z"/><path class="cls-1" d="M588.3,261.66c6.05,3.71,13.93,4.89,16.84,12.92a61.69,61.69,0,0,0,3.45,6.71,19.49,19.49,0,0,1-2.1-.48c-4.08-1.6-8.14-3.26-12.23-4.81a5.63,5.63,0,0,1-3.88-4.21c-.8-3.26-1.87-6.46-2.82-9.69Z"/><path class="cls-1" d="M546.42,180.78c1.31,2.84,2.64,5.68,3.92,8.53a1.94,1.94,0,0,1,.18,1.26c-1.55,5.06-3.15,10.12-5,16-2.51-3.48-4.53-6.2-6.43-9a2.42,2.42,0,0,1-.19-2c2.16-5,4.41-9.87,6.64-14.79Z"/><path class="cls-1" d="M638.52,292.36c-5.4-1.88-10.61-3.65-15.79-5.52a5.75,5.75,0,0,1-2.61-1.67c-2.56-3.42-5-6.95-7.75-10.94C623.51,277.43,632.21,283,638.52,292.36Z"/><path class="cls-1" d="M554.49,197.35c6.44,6.89,7.64,13.74,4.36,24.31-2.66-2.95-5.18-5.67-7.6-8.48a2.27,2.27,0,0,1-.26-1.75C552.08,206.87,553.24,202.33,554.49,197.35Z"/><path class="cls-1" d="M713.18,320.45c8.47,1.88,17,3.45,25.37,5.76,5.87,1.63,11.46,4.26,17.67,6.64C744.6,333.5,722.78,327.36,713.18,320.45Z"/><path class="cls-1" d="M565.26,213.64c8.51,5.86,9.44,13.89,9.65,22.91-3.25-2.93-6.11-5.46-8.89-8.07a2.93,2.93,0,0,1-.72-1.91C565.23,222.41,565.26,218.24,565.26,213.64Z"/><path class="cls-1" d="M671,302.49c-5.89-1.76-11.28-3.27-16.59-5a14.14,14.14,0,0,1-4.5-2.61c-3.22-2.68-6.29-5.55-9.84-8.73A77.38,77.38,0,0,1,671,302.49Z"/><path class="cls-1" d="M593.3,250.59c-3.52-2.61-6.71-4.92-9.83-7.29a3.43,3.43,0,0,1-1.22-1.66c-1-3.95-1.92-7.93-2.94-12.25C587.42,234.31,590.74,241.87,593.3,250.59Z"/><path class="cls-1" d="M671,297.44a134.22,134.22,0,0,1,33,13.62C696.83,311.17,680.47,304.48,671,297.44Z"/><path class="cls-1" d="M596.1,244.54c7.79,4.29,12.76,11.15,17.47,18.62C604.6,259.65,598.06,252.62,596.1,244.54Z"/><path class="cls-1" d="M618,260.21l20.9,17a35.46,35.46,0,0,1-21.41-16.29Z"/><path class="cls-1" d="M642.23,275.25l22.88,14.37A46.21,46.21,0,0,1,642.23,275.25Z"/></svg>