<svg id="Logos_Patrocinadores" data-name="Logos Patrocinadores" xmlns="http://www.w3.org/2000/svg" viewBox="0 0 1500 600"><defs><style>.cls-1{fill:#7a97ab;}</style></defs><g id="Gruppe_1" data-name="Gruppe 1"><g id="Pfad_1" data-name="Pfad 1"><path class="cls-1" d="M356.88,429.25h39.88v10H370.17v13.3h26.59v10H370.17v13.3h29.91v6.64h-43.2Z"/></g><g id="Pfad_2" data-name="Pfad 2"><path class="cls-1" d="M410.06,425.93h13.29v56.5H410.06Z"/></g><g id="Pfad_3" data-name="Pfad 3"><path class="cls-1" d="M440,472.73V459.5a12.75,12.75,0,0,1,4.49-11,24.4,24.4,0,0,1,14.43-3.32,21.5,21.5,0,0,1,13.47,3.32c3.21,2.66,4.49,6.65,4.17,11v9.64H449.94v3.65a5,5,0,0,0,2.2,5,14.9,14.9,0,0,0,8.49,1.33,54.86,54.86,0,0,0,12.58-1.66V483A73.62,73.62,0,0,1,459,484.52Q440,484.05,440,472.73Zm23.26-13.56v-5.65a3.56,3.56,0,0,0-1.51-3,12.48,12.48,0,0,0-4.83-1c-1.81-.33-3.63.33-5.44,1a3.56,3.56,0,0,0-1.51,3v5.65Z"/></g><g id="Pfad_4" data-name="Pfad 4"><path class="cls-1" d="M489.82,425.93h13.3v56.5h-13.3Zm11.92,37.37,13.07-17.43h13.75L514.81,463.3l15.09,22.46H516.15Z"/></g><g id="Pfad_5" data-name="Pfad 5"><path class="cls-1" d="M554.13,485.76l-4-1a8,8,0,0,1-3.71-2,8.38,8.38,0,0,1-2.36-3.65,15.22,15.22,0,0,1-1-5.65V452.52h-6.64v-10H543v-10h13.3v13.29h10v6.65h-10v16.92a17.37,17.37,0,0,0,.3,3.93,2.73,2.73,0,0,0,1.81,1.81,15.43,15.43,0,0,0,3.93.61c1.21,0,2.72-.31,3.93-.31v9.94a44.77,44.77,0,0,1-6.74.34Z"/></g><g id="Pfad_6" data-name="Pfad 6"><path class="cls-1" d="M576.24,442.55h13.3v8.65c-1.6-1.32-.93-2.65.07-3.65a9,9,0,0,1,4-3c1.33-.67,4.66-2,4.66-2h4.58v10h-3.89a13.07,13.07,0,0,0-7.13,1.33,5.49,5.49,0,0,0-2.27,5.32v26.59h-13.3Z"/></g><g id="Pfad_7" data-name="Pfad 7"><path class="cls-1" d="M626.42,485.76l-4.86-1a12,12,0,0,1-4.54-2.25,12.23,12.23,0,0,1-2.92-4.18,14.33,14.33,0,0,1-1.3-6.43V460.67a16.75,16.75,0,0,1,1.3-6.76,10.69,10.69,0,0,1,3.24-4.5,12,12,0,0,1,4.54-2.25,27.81,27.81,0,0,1,5.51-1.29h5.52a28.37,28.37,0,0,1,5.83.32l4.87,1a12,12,0,0,1,4.54,2.25,20.85,20.85,0,0,1,3.24,4.18,16.75,16.75,0,0,1,1.3,6.76V471.6a15.3,15.3,0,0,1-1.3,6.44,9.8,9.8,0,0,1-2.92,4.18,27,27,0,0,1-4.21,2.25,15.35,15.35,0,0,1-5.52,1c-1.62,0-3.56.33-5.83.33Zm13.24-8.7a4.34,4.34,0,0,0,2.38-1.7,6.08,6.08,0,0,0,.68-3.39V456.71A5.26,5.26,0,0,0,641,452a17.9,17.9,0,0,0-13.23,0,5.28,5.28,0,0,0-1.69,4.75V472a10.2,10.2,0,0,0,.67,3.39,3.93,3.93,0,0,0,2.38,1.7,27.31,27.31,0,0,0,10.51,0Z"/></g><g id="Pfad_8" data-name="Pfad 8"><path class="cls-1" d="M666,455.84h26.59v10H666Z"/></g><g id="Pfad_9" data-name="Pfad 9"><path class="cls-1" d="M719,432.58h14.65l18.07,49.85h-12l-4.43-13.29H716.71l-4.44,13.29H700.66Zm13.82,29.91-6.65-19.94h-.33l-6.65,19.94Z"/></g><g id="Pfad_10" data-name="Pfad 10"><path class="cls-1" d="M765.4,483.76a10.25,10.25,0,0,1-3-8.64V445.87h13.3v27.59a11.25,11.25,0,0,0,.3,3.32,3.83,3.83,0,0,0,1.55,1.66,7.06,7.06,0,0,0,3.71.34,25.8,25.8,0,0,0,4.95-.34,3.59,3.59,0,0,0,2.16-1.66,12.63,12.63,0,0,0,.62-3.65V445.87h13.3v39.89H789v-5c-1,3.66-5.05,5.65-12.79,5.65C772.47,486.75,768.43,486.09,765.4,483.76Z"/></g><g id="Pfad_11" data-name="Pfad 11"><path class="cls-1" d="M830,485.76l-4-1a8.12,8.12,0,0,1-3.71-2,8.45,8.45,0,0,1-2.35-3.65,15.22,15.22,0,0,1-1-5.65V452.52h-6.64v-10h6.64v-10h13.3v13.29h10v6.65h-10v16.92a17.37,17.37,0,0,0,.3,3.93,2.73,2.73,0,0,0,1.81,1.81,15.43,15.43,0,0,0,3.93.61c1.21,0,2.72-.31,3.93-.31v9.94a44.77,44.77,0,0,1-6.74.34Z"/></g><g id="Pfad_12" data-name="Pfad 12"><path class="cls-1" d="M869.05,485.76l-4.86-1a12,12,0,0,1-4.54-2.25,12.23,12.23,0,0,1-2.92-4.18,14.33,14.33,0,0,1-1.3-6.43V460.67a16.75,16.75,0,0,1,1.3-6.76,10.69,10.69,0,0,1,3.24-4.5,19.62,19.62,0,0,1,4.54-2.25,27.74,27.74,0,0,1,5.52-1.29h5.51a28.53,28.53,0,0,1,5.84.32l4.86,1a12,12,0,0,1,4.54,2.25,20.49,20.49,0,0,1,3.24,4.18,16.59,16.59,0,0,1,1.3,6.76V471.6A15.15,15.15,0,0,1,894,478a9.8,9.8,0,0,1-2.92,4.18,26.51,26.51,0,0,1-4.21,2.25,15.33,15.33,0,0,1-5.51,1c-1.62,0-3.57.33-5.84.33Zm9.92-8.7a4.34,4.34,0,0,0,2.38-1.7A6.16,6.16,0,0,0,882,472V456.71a5.25,5.25,0,0,0-1.69-4.75,17.9,17.9,0,0,0-13.23,0,5.25,5.25,0,0,0-1.69,4.75V472a10,10,0,0,0,.67,3.39,3.93,3.93,0,0,0,2.38,1.7,27.31,27.31,0,0,0,10.51,0Z"/></g><g id="Pfad_13" data-name="Pfad 13"><path class="cls-1" d="M907.9,445.87h14v5c.67-3.66,4.71-5.65,11.79-5.65a23.46,23.46,0,0,1,8.42,1.33,8.33,8.33,0,0,1,4,4.32,8.63,8.63,0,0,1,3.71-4.66,19.55,19.55,0,0,1,8.76-1.33,23.06,23.06,0,0,1,8.08,1.33,8.5,8.5,0,0,1,4,3.66,14.56,14.56,0,0,1,1,6.65v29.25h-13.3V458.17a11.58,11.58,0,0,0-.36-3.66,3.39,3.39,0,0,0-1.44-1.66,17.44,17.44,0,0,0-3.95-.33,24,24,0,0,0-5,.33c-1.08.33-1.8.67-2.16,1.66a6.51,6.51,0,0,0-.35,3.66v27.59h-10V458.17a11.58,11.58,0,0,0-.36-3.66,3.37,3.37,0,0,0-1.43-1.66,17.53,17.53,0,0,0-3.95-.33,24,24,0,0,0-5,.33c-1.08.33-1.8.67-2.16,1.66a6.42,6.42,0,0,0-.36,3.66v27.59H909Z"/></g><g id="Pfad_14" data-name="Pfad 14"><path class="cls-1" d="M988.45,483.78a7.25,7.25,0,0,1-4-3.66,16.7,16.7,0,0,1-1-8,17.84,17.84,0,0,1,1.33-7.31,7.74,7.74,0,0,1,4-4,29.59,29.59,0,0,1,7.31-1.67h12.23v-2.32a3,3,0,0,0,.4-3.65,3.38,3.38,0,0,0-2.66-1.66,15.62,15.62,0,0,0-5.65-.34,116,116,0,0,0-12,1v-9.32a71.42,71.42,0,0,1,14.7-.67,61.37,61.37,0,0,1,11.19,1,10.31,10.31,0,0,1,5.75,4,13.82,13.82,0,0,1,1.6,8v27.25h-13.29v-2.31c.07,1.66-1.26,2.66-2.59,3.32a33.8,33.8,0,0,1-17.29.34Zm17.22-7.33c.66,0,1-.33,1.66-.33.33-.33.66-.67.66-1a2.93,2.93,0,0,0,.34-1.66v-7.65H1000a15.84,15.84,0,0,0-4,.34,3.24,3.24,0,0,0-1.66,1.33,15.72,15.72,0,0,0-.34,4,12.23,12.23,0,0,0,.34,3.66,2.18,2.18,0,0,0,1.66,1.33,17.68,17.68,0,0,0,4.32.33,27.09,27.09,0,0,0,5.32-.33Z"/></g><g id="Pfad_15" data-name="Pfad 15"><path class="cls-1" d="M1049.37,485.76l-4-1a8,8,0,0,1-3.71-2,8.57,8.57,0,0,1-2.36-3.65,15.43,15.43,0,0,1-1-5.65V452.52h-6.65v-10h6.65v-10h13.3v13.29h10v6.65h-10v16.92a17.37,17.37,0,0,0,.3,3.93,2.71,2.71,0,0,0,1.81,1.81,15.43,15.43,0,0,0,3.93.61c1.21,0,2.72-.31,3.93-.31v9.94a44.9,44.9,0,0,1-6.75.34Z"/></g><g id="Pfad_16" data-name="Pfad 16"><path class="cls-1" d="M1074.8,429.25h13.3v10h-13.3Zm0,16.62h13.3v39.89h-13.3Z"/></g><g id="Pfad_17" data-name="Pfad 17"><path class="cls-1" d="M1101.39,425.93h13.3v56.5h-13.3ZM1115,463.3,1128,445.87h13.74L1128,463.3l15.08,22.46h-13.74Z"/></g></g><g id="Gruppe_2" data-name="Gruppe 2"><g id="Pfad_18" data-name="Pfad 18"><path class="cls-1" d="M863.08,396H638.4a28.92,28.92,0,0,1-28.92-28.92V142.42A28.92,28.92,0,0,1,638.4,113.5H863.08A28.92,28.92,0,0,1,892,142.42V367.1A28.92,28.92,0,0,1,863.08,396Zm-247-255.93v226A20,20,0,0,0,636.07,386h226A20,20,0,0,0,882,366.1v-226a20,20,0,0,0-19.94-19.94h-226A20,20,0,0,0,616.13,140.09Z"/></g><g id="Pfad_19" data-name="Pfad 19"><path class="cls-1" d="M790.79,186.62h48V170H783.23s-17.54-.33-17.54,17.42v48.25c0,17.76,17.54,17.43,17.54,17.43h55.59V236.48h-48a5.4,5.4,0,0,1-5.15-5.54h0V219.86h53.18V203.24H785.64v-11c0-3,2.25-5.65,5.15-5.65Z"/></g><g id="Pfad_20" data-name="Pfad 20"><path class="cls-1" d="M808.31,281.68c4,0,4.65,2.32,4.65,2.32l21.94,65.48h19.3l-27.54-73.75s-2.85-7.91-18.35-7.91-18.37,7.91-18.37,7.91L762.4,349.48H783l6.65-19.94H813.8l-7-19.94H795l8.64-25.26C803.65,284,804.32,281.68,808.31,281.68Z"/></g><g id="Pfad_21" data-name="Pfad 21"><path class="cls-1" d="M725.81,170v20.89l-13.3-8.76V174L697,172l-54.25-34.73v4.56l52.51,33.91L712.51,199V187.5l13.3,8.75v30.48L712.51,218v-7.71l-15.62-2-54.17-35.23v4.78l52.59,33.74,17.2,23.15V223.39l13.3,8.76v30.48l-13.3-8.75v-7.74l-15.54-2-54.25-35.39v4.63l52.59,33.74,17.2,23.16V259l13.3,8.75v30.48l-13.3-8.75V281.7l-15.54-2-54.25-35.07v4.63L695.31,283l17.2,23.15V294.47l13.3,8.76v20l-83.09,43.68v4.6l83.09-44.34v22.3h16.62V170Z"/></g></g></svg>