<svg id="Logos_Patrocinadores" data-name="Logos Patrocinadores" xmlns="http://www.w3.org/2000/svg" viewBox="0 0 1500 600"><defs><style>.cls-1{fill:#7a97ab;}</style></defs><path class="cls-1" d="M760.46,311.5c9,4.61,11.09,12.59,11.51,21.34.26,5.51,0,11,.12,16.56.17,6.2.56,12.39.87,19.09-4.82,0-10.14.11-15.45-.1a3.63,3.63,0,0,1-2.55-2.23,35.52,35.52,0,0,1-1-7.75c-.13-7.56,0-15.12-.12-22.67a32.41,32.41,0,0,0-.78-6.89c-1.16-5-4-7.53-9-8-2.71-.26-5.46-.05-8.66-.05V368.2H717.46V252.08a10.81,10.81,0,0,1,2.35-.51c9.44,0,18.9-.19,28.33.19,14.76.6,21.81,7,23.43,21.65a95,95,0,0,1,0,18.7C770.79,301.57,768.7,304.7,760.46,311.5Zm-24.83-43.36v36c3.22,0,6.11.21,9,0,4.27-.39,8-2.5,8.3-6.92a163.43,163.43,0,0,0,0-22.89c-.27-3.95-3.2-5.86-7.3-6.11C742.41,268,739.22,268.14,735.63,268.14Z"/><path class="cls-1" d="M582.79,368.19V252.08a13.19,13.19,0,0,1,2.53-.51c9.59,0,19.19-.22,28.77.17,15.32.63,24,9.51,24.45,24.95.31,10.46.13,20.92.15,31.39q0,15.46,0,30.94a49.88,49.88,0,0,1-.42,7.83c-2.14,13-8.93,19.95-22.18,21.09-10.1.86-20.31.43-30.48.55A26.72,26.72,0,0,1,582.79,368.19Zm18.14-100.05v83.6c1.44.11,2.57.28,3.7.27a68.07,68.07,0,0,0,7.83-.23c4.78-.56,7.25-3.11,7.86-7.87a41.27,41.27,0,0,0,.2-5.22q0-28.79,0-57.55a35.55,35.55,0,0,0-.27-5.66c-.72-4.51-3.38-7-7.87-7.29C608.78,268,605.15,268.14,600.93,268.14Z"/><path class="cls-1" d="M704.88,310.21c0,10.18.07,20.36,0,30.54a49.26,49.26,0,0,1-.87,8.65c-2.2,11.41-10.13,18.81-21.7,20a44.26,44.26,0,0,1-11.73-.24c-13.2-2.29-20.84-11.18-21.14-25.87q-.66-33.36,0-66.74c.25-13.34,6.88-22,17.82-25.07a35.46,35.46,0,0,1,19.8,0c11,3.16,17.48,12.17,17.76,25.12.24,11.19.05,22.39.05,33.59Zm-18.15-.38c0-10.33,0-20.65,0-31a21.78,21.78,0,0,0-.64-5.58c-1.23-4.54-4.24-6.67-9-6.67s-7.75,2.2-9,6.68a18.46,18.46,0,0,0-.7,4.72q-.06,31.83,0,63.67a19.9,19.9,0,0,0,.75,5.14c1.21,4.31,4.07,6.3,8.72,6.36,5,.05,7.87-1.84,9.12-6.38a23.26,23.26,0,0,0,.7-6C686.76,330.47,686.73,320.15,686.73,309.83Z"/><path class="cls-1" d="M800.87,220.61H765V206.75h50.13V412.91H765V399.17h35.84Z"/><path class="cls-1" d="M380.64,206.68h50v13.91H394.79V399h35.94v13.81H380.64Z"/><path class="cls-1" d="M504.81,324.17v44.08H487V252a10.21,10.21,0,0,1,2.09-.45c9.15,0,18.32-.2,27.46.18,13.76.57,22,7.24,23.57,20.9a140.68,140.68,0,0,1-.32,32.1c-1.43,12-10.12,18.76-22.2,19.38C513.58,324.34,509.53,324.17,504.81,324.17Zm.32-16.38c3.43,0,6.46.11,9.48,0,4.63-.21,7.63-2.55,7.83-7.14.37-8.4.31-16.83,0-25.24-.14-4-2.61-6.68-6-7-3.68-.35-7.42-.08-11.34-.08Z"/><path class="cls-1" d="M443.4,317.1v34.84h31.37v16.32H425.2V251.89h49.5v16H443.53V300.7H468.1v16.4Z"/><path class="cls-1" d="M550.86,251.74h17.52v116.5H550.86Z"/><path class="cls-1" d="M845.47,367.23a12.13,12.13,0,0,1,2.38-.91c4.8-.81,4.87-.78,4.92-5.75q.18-15.46.22-30.94c0-4.54-.35-4.83-4.8-5.53a20.14,20.14,0,0,1-2.68-.82c.06-.36.11-.73.16-1.1a13.28,13.28,0,0,1,2.31-.34c7.83.19,15.71,0,23.48.77,11.8,1.2,19,9.14,19.28,20.35.38,13.51-6.24,22.64-18.15,24.88a41.15,41.15,0,0,1-6.9.75c-6.64.1-13.28,0-19.92,0Zm14.19-1.31c3.58,0,7.06.38,10.43-.08,6.73-.93,11.11-4.86,12.25-11.67a58.26,58.26,0,0,0,.82-11.65c-.49-13.56-9.66-20.49-23.5-17.71Z"/><path class="cls-1" d="M954,249.43h10.66v20.82c2.38-1.18,4.12-2.13,5.93-2.94,9.52-4.26,15-.7,15,9.66,0,4.21.1,8.44-.12,12.64-.2,3.75,0,7,5,7.89a36.52,36.52,0,0,1-15,0c4.63-1.2,4.55-4.49,4.43-7.94-.13-4.21.08-8.44-.1-12.64-.11-2.81-.73-5.56-3.86-6.72-2.78-1-8.75,0-10.27,2.07a5.87,5.87,0,0,0-.8,3.22c-.1,5.09-.09,10.17-.09,15.26,0,4.57,0,4.57,4.18,6.22-2.31,1.62-10.71,1.86-15.47.24a17.72,17.72,0,0,1,2.49-1c2.21-.47,3.05-1.78,3.05-4-.05-12.06-.18-24.13.13-36.18.1-4.11-3.15-4.22-5.42-5.68Z"/><path class="cls-1" d="M1020.91,320.15h10.94v19.72c1.83-1,3-1.69,4.17-2.28,7.6-3.74,16.29-.31,18.57,7.82a25.36,25.36,0,0,1,.59,11.12c-2.17,11.57-12.17,16.25-22.76,11.11-.64-.31-1.27-.63-2-1l-4.06,3.46c-.12-1.9-.26-3.12-.26-4.35,0-12.48-.05-25,.15-37.45.06-3.55-.65-6-4.56-6.49-.21,0-.4-.35-.56-.57A5.35,5.35,0,0,1,1020.91,320.15Zm11.13,32h0c0,2.32,0,4.64,0,7,.08,4.65,2.75,8,6.9,8.68,3.9.65,7.5-1.56,9-5.9a24,24,0,0,0,.63-15,13.29,13.29,0,0,0-3-5.17c-2.88-3-6.42-2.71-10.1-1.46s-3.51,4.1-3.39,7.06C1032.09,348.92,1032,350.51,1032,352.11Z"/><path class="cls-1" d="M862.62,254.07c-7.4-1.12-10.24.42-12.83,6.55-.74,1.73-1.51,3.44-2.27,5.17l-1-.32V251.61h39c.22,4.89.42,9.39.62,13.9l-1.43.39c-.68-1.53-1.43-3-2-4.59C880.11,254.74,877,253,869.4,254c-.08,1.31-.25,2.72-.25,4.12q-.09,15.48-.11,31c0,5.65,0,5.64,5.48,6.69a8.1,8.1,0,0,1,1.66.49c.22.09.33.43.49.66-2.6,1.33-17.42,1.51-21.93-.47a39.16,39.16,0,0,1,4.11-.9c2.13-.25,3.74-1.07,3.75-3.41C862.65,279.57,862.62,267,862.62,254.07Z"/><path class="cls-1" d="M1186.89,337.57h9.77c.22,1.13.47,2.42.76,3.89a82.07,82.07,0,0,1,7.66-3.56c8-2.77,12.8.65,12.9,9.13,0,4.35,0,8.71,0,13.07,0,6.28,0,6.28,5,9.13h-15c0-.27,0-.77,0-.78,3.62-.88,4.41-3.31,4.21-6.74-.26-4.63,0-9.29-.12-13.94,0-3-1-5.41-4.25-6.3s-8.85.42-10.1,2.55a7,7,0,0,0-.61,3.34c-.07,4.65.15,9.31-.1,13.94-.19,3.52.15,6.39,4.22,7.82h-14.81c.16-.49.22-.95.34-1,3.82-.46,4.85-2.71,4.63-6.32-.26-4.34,0-8.71,0-13.07,0-4.2,1.31-9-5.41-10.18Z"/><path class="cls-1" d="M1010.86,297.63a36.44,36.44,0,0,1-15.5-.1c5.15-.94,5.22-4.36,5.07-8.17-.18-4.35.06-8.72,0-13.07,0-3.83,1.12-8.33-5.51-9,3.76-1.77,7.1-1.1,10.63-1.43.26,1.44.48,2.66.71,4a3.26,3.26,0,0,0,1.17,0c2.78-1.22,5.43-2.88,8.33-3.65,6.58-1.76,10.83,1.54,11.06,8.38.16,4.64,0,9.29.07,13.94.08,3.83-1.68,8.77,6.11,8.28-3.85,2.39-13.47,2.4-16.88.36,5.58-.49,5.08-4.23,5-7.84-.11-4.5,0-9-.16-13.5-.09-2.89-1.47-5-4.46-5.67-3.2-.74-9,.86-10,2.91a7,7,0,0,0-.4,3c-.05,4.35-.09,8.71-.05,13.07C1006.09,292.51,1004.71,296.74,1010.86,297.63Z"/><path class="cls-1" d="M1081.41,337.24l10.87-.69v19.51c0,1.74.12,3.5,0,5.23-.28,3.36.12,6.12,4.38,6.32.26,0,.5.59,1.16,1.42H1087l-1-3c-.57.21-1.09.42-1.61.59-3.28,1.05-6.49,2.64-9.84,3-5,.54-8-2.17-8.4-7.26-.4-5.63-.21-11.31-.25-17,0-5.32,0-5.32-5.72-7.32,3.85-2.08,7.33-1.15,11.29-1.37,0,4.69,0,9.14,0,13.58,0,3.33,0,6.68.34,10,.25,2.65,1.61,4.66,4.51,5.13,3.41.55,6.76.35,9.44-2,.66-.58.58-2.15.59-3.26.07-4.8.07-9.59.07-14.39,0-5.65,0-5.65-5-7.27C1081.45,338,1081.43,337.64,1081.41,337.24Z"/><path class="cls-1" d="M1109.68,279.63c.23-4,.7-7.88-2.73-10.62-1.92-1.53-4.93-1.19-8.4.63.11,1.15.59,2.51.27,3.64a5.65,5.65,0,0,1-2.25,3.32,3.63,3.63,0,0,1-3.44-.71,4.51,4.51,0,0,1-.83-3.87,9,9,0,0,1,3.61-4.06,16.8,16.8,0,0,1,13.93-1c4.31,1.54,5.7,5.13,5.78,9.33.09,4.65,0,9.3,0,14,0,5.57,0,5.57,5.26,6.75-4.47,3.79-8.76,2.79-11.06-2.15-3.26,1.41-6.37,3.38-9.75,4.07-4.63,1-8.19-1.25-9.21-4.65-1.28-4.24.59-8.23,5.18-10.22,3-1.31,6.29-2.15,9.46-3.17C1106.85,280.42,1108.23,280.06,1109.68,279.63Zm.12,2a87.84,87.84,0,0,0-8.78,2.58,6.25,6.25,0,0,0-3.37,8.92c1.57,2.76,5.39,3.21,8.82,1.19C1111.62,291.34,1109.45,286.65,1109.8,281.67Z"/><path class="cls-1" d="M1180.26,353.32c-.09,10.06-6.63,17-16,16.92-9.59-.06-15.94-6.91-15.73-17s6.73-16.79,16.21-16.66S1180.36,343.38,1180.26,353.32Zm-5.91-.1c-.9-3.34-1.28-7.06-2.87-10.18-3-5.89-11.26-6.19-14.14-.48a23.18,23.18,0,0,0,0,21.37c1.55,3.15,4.47,4.39,8,4.18a7,7,0,0,0,6.58-4.88A101.51,101.51,0,0,0,1174.35,353.22Z"/><path class="cls-1" d="M894.15,280.45c-.4,5.78.65,10.25,5,13,6.43,4.09,11.41.37,16.53-3.56a6,6,0,0,1-.42,1.78,14.51,14.51,0,0,1-14.88,6.89c-6.35-1-10.92-4.85-12-11a30.34,30.34,0,0,1,.12-11.16,14.42,14.42,0,0,1,15.91-11.24c7.61,1,11.63,7.7,11.1,15.29Zm15.11-2c.43-4.11.18-7.62-3.11-10.09a6.18,6.18,0,0,0-7.32-.31c-3.79,2.39-4.76,6.15-4.51,10.4Z"/><path class="cls-1" d="M938.85,345.42c-.88-1.18-1.74-2.37-2.63-3.54-1.72-2.26-3.67-4.12-6.81-4a5.19,5.19,0,0,0-5.23,3.82c-.83,2.67.48,4.58,2.8,5.66s4.59,1.76,6.91,2.58c6.81,2.44,9,6,7.32,12.15-1.48,5.39-7,8.22-13.19,7-2.75-.56-5.64-3.16-8.76,1.28V357.89c1.56,1.69,2.59,2.71,3.49,3.82,2.22,2.76,4.48,5.42,8.39,5.57,2.91.11,5.19-.94,6-3.93s-.39-5.16-3.19-6.33c-2.4-1-4.89-1.79-7.33-2.72-6.18-2.34-8.06-5.23-7-10.71.92-4.7,5.11-7.84,10.62-7.8,1.42,0,2.84.55,4.27.66,1.67.12,3.36,0,5.35,0V345Z"/><path class="cls-1" d="M1124.08,249.88l10.89-.5v4.92q-.06,17.22-.1,34.42c0,6.52,0,6.52,5.61,9.72h-16.29c0-.25,0-.76,0-.76,5-.84,5.06-4.38,5-8.36-.16-9.73,0-19.46,0-29.19,0-6.58,0-6.58-5.08-9.25Z"/><path class="cls-1" d="M952,339.86l-5.82-.85-.18-.88,5.8-2c1.33-3.81-2.15-10.32,6.1-10.69v11.16H968c.07.47.14.94.22,1.4-2.66,2.86-6.85.07-10.31,2,0,7.05-.23,14.41.09,21.74.17,3.81,3.85,5.11,7.08,2.86.91-.63,1.69-1.43,2.74-2.33-.07,3.7-2.51,6.28-6.25,7-3.94.78-7.5-.69-8.67-4a18.62,18.62,0,0,1-.89-5.95C951.93,352.92,952,346.44,952,339.86Z"/><path class="cls-1" d="M943.45,269.21c-5.72-3.53-11.22-2.06-13.76,3.69a19.4,19.4,0,0,0-.34,14.85c2.6,7.09,10.07,9.32,16.37,5.06a8.93,8.93,0,0,1,3.69-1.82,9.45,9.45,0,0,1-1,2.31,14,14,0,0,1-14.32,5.25c-5.6-1.05-9.24-4.49-11-9.95-3.54-11,2.4-22,12.92-23.14,3.1-.32,6.6.73,9.5,2.06,1.61.74,2.72,3.24,3.32,5.18.28.91-.88,2.88-1.9,3.42a4.14,4.14,0,0,1-3.85-.43c-.8-.74-.84-2.55-.8-3.87C942.29,270.93,943,270.06,943.45,269.21Z"/><path class="cls-1" d="M1112.43,339.58c0,7.95-.14,15.05.12,22.12,0,1.45,1.34,3.66,2.54,4.06,1.45.49,3.47-.44,5.14-1,.83-.3,1.43-1.25,2.36-2.12-.08,3.92-2.42,6.42-6.24,7.12-4.55.83-7.82-.54-8.93-4.14a23.49,23.49,0,0,1-.83-6.43c-.1-6.22,0-12.44,0-18.91l-5.65-.62-.22-.88,5.7-2.07c1.64-3.6-2.13-10.08,5.95-10.7v10.26c3.47,2.34,7.7-.55,10.53,2.09l-.15,1.26Z"/><path class="cls-1" d="M1079.12,269.72c-4.69-4.22-12.1-1.7-14.18,4.31a20.63,20.63,0,0,0-.23,13.65c2.54,7.58,10.16,10,16.78,5.45l3-2.06.88.85a36.1,36.1,0,0,1-3.35,3.91c-6.76,6-17.93,4.1-22.07-3.89-3.48-6.7-3.18-13.47,1.07-19.79,4-6,12.23-8.35,18.51-5.14a11.8,11.8,0,0,1,4.71,5.23c.49,1-.59,3.34-1.65,4.36-.64.61-3.18.34-3.82-.42-.83-1-.78-2.84-.77-4.31C1078,271.14,1078.72,270.42,1079.12,269.72Z"/><path class="cls-1" d="M973.26,336.77h10.4c.18,1.3.35,2.54.57,4.17,1.5-1.1,2.62-2.37,4-2.85a20,20,0,0,1,7-1.41,3.56,3.56,0,0,1,3.17,4.42,5.35,5.35,0,0,1-2.94,3.63c-2.21.68-3.83-.73-4.23-3.17a9.65,9.65,0,0,0-.37-1.19c-5.13.59-6.78,2.27-6.82,6.92s.12,9.58-.11,14.35c-.15,3.31.7,5.36,4.35,5.44.46,0,.91.39,1.31,1.15-5.52.91-11,.62-16.43.56,0-.39-.07-.77-.1-1.16a21.86,21.86,0,0,1,2.2-.74,3.28,3.28,0,0,0,2.92-3.65c-.06-6.81,0-13.63,0-20.45,0-2-.75-3.31-2.76-3.85a17.66,17.66,0,0,1-2.48-1.1Z"/><path class="cls-1" d="M1036.92,266.55h10.82c0,1.73,0,3.84,0,5.94,0,6.23.07,12.47-.08,18.7-.07,3.09.22,5.58,4.18,5.51.36,0,.72.41,1.19.69-3,1.69-12.83,1.79-16.23.38,0-.15,0-.41.06-.41,5.48-.83,5.23-4.79,5.06-8.91s-.2-8.42,0-12.61c.21-4,0-7.57-5.53-8Z"/><path class="cls-1" d="M1127.64,369.18c.16-.62.21-1.1.31-1.12,4.84-.65,5-4,4.84-7.86-.22-4.19,0-8.4,0-12.6,0-6.38,0-6.38-5.54-10h11.32v12.69c0,4.06.13,8.12,0,12.17-.13,2.84.38,4.86,3.69,5.13.54,0,1,.65,1.34,1.61Z"/><path class="cls-1" d="M897.65,336.6h10.26c.08,1.16.25,2.4.25,3.64,0,6.8.11,13.61,0,20.41-.09,3.36.16,6.14,4.38,6.4.21,0,.43.34.6.55s0,.26,0,.75H897.31c0-.5,0-.75,0-.75,5.25-1.09,5.36-4.85,5.08-9.11-.26-3.89,0-7.82,0-11.73C902.36,340.42,902.35,340.42,897.65,336.6Z"/><path class="cls-1" d="M1002.34,337h10.85c0,3.77,0,7.64,0,11.5s-.06,7.84-.07,11.76c0,5.67,0,5.67,4.86,7.49-2.38,1.71-11.81,1.83-15.22.19,4.71-2.35,4.73-2.35,4.8-8.4.05-4.8-.07-9.59.1-14.38.12-3.39-.36-6.11-4.43-6.61C1003,338.55,1002.83,337.92,1002.34,337Z"/><path class="cls-1" d="M1040.94,253.42c.08-2.47,1.9-4.3,4.16-4a3.78,3.78,0,0,1,3.53,4.19,4,4,0,0,1-4.23,4A3.76,3.76,0,0,1,1040.94,253.42Z"/><path class="cls-1" d="M1135.15,328.48c-2-.24-3.3-1.51-3.38-3.91a3.82,3.82,0,0,1,4-4.16c2.34.17,3.69,1.44,3.71,3.91A3.91,3.91,0,0,1,1135.15,328.48Z"/><path class="cls-1" d="M905,327.66a3.49,3.49,0,0,1-3.63-3.64c-.18-2.51,1.34-4.31,3.72-4.32s3.79,1.15,3.95,3.61A3.86,3.86,0,0,1,905,327.66Z"/><path class="cls-1" d="M1010.43,320c2.18,0,3.47,1.29,3.71,3.63a3.66,3.66,0,0,1-3.63,4.36,3.57,3.57,0,0,1-4-3.54A4,4,0,0,1,1010.43,320Z"/></svg>