<svg id="Logos_Patrocinadores" data-name="Logos Patrocinadores" xmlns="http://www.w3.org/2000/svg" viewBox="0 0 1500 600"><defs><style>.cls-1{fill:#7a97ab;}</style></defs><path class="cls-1" d="M936.09,506.28c-8.05-4.59-15.53-9.68-17.24-19.76-.41-2.41-.73-4.83-1.12-7.52,6.37-1.34,10.92-1.94,12.25,6.3,1,6.36,6.33,9.72,12.83,10.71,6.69,1,13,.32,17.69-5,6-6.77,3.65-15.68-5-18.81-6.67-2.41-13.59-4.12-20.39-6.17-7.74-2.34-13.88-6.42-14.86-15.18-1.13-10.11,1.59-19,11.09-23.94,10-5.21,20.52-4.82,30.34.57,8,4.41,10.71,12,10.35,21.37-5.52,1.07-10,2.9-11.92-5.65-2.16-9.75-16.51-13.26-24.48-6.92-7,5.59-5.65,16.12,2.77,19.23a176.36,176.36,0,0,0,17.15,5c13,3.37,18.36,8.47,19,18.49.83,12.44-4.54,21-16.21,25.84-1,.43-2,1-3,1.48Z"/><path class="cls-1" d="M788.7,506.28c-12.93-5.42-17.31-16.22-17.59-29-.35-16.91-.08-33.82-.08-51.34h11.05c0,3.53-.06,7.1,0,10.67.29,15.53.13,31.09,1.12,46.58.57,8.87,6.67,13.29,15.35,13.29s14.28-4.46,15.07-13.55c1-11.59.94-23.27,1.19-34.91.15-7.27,0-14.55,0-22.25h10.31a31.17,31.17,0,0,1,.61,4.48c0,16,.2,32-.07,48-.22,12.76-4.92,23-17.72,28Z"/><path class="cls-1" d="M725.34,506.28c-18-7.39-21.5-23-22.07-39.87-.37-11.06,1.21-21.92,7.5-31.52s15.46-12.48,26.26-11.07c10.61,1.39,17.23,7.87,20.87,17.6a79.14,79.14,0,0,1,2,7.76c-5.9.74-11,2.81-13.44-5.57a13.7,13.7,0,0,0-13.3-10.21c-6.9-.2-11.52,3.61-14,9.34a54.49,54.49,0,0,0,.13,44.64c2.43,5.59,7.09,9,13.52,9,6.17,0,10.19-3.6,13-8.68a12.68,12.68,0,0,0,2-5.05c.56-8.5,5.69-9.11,12.95-7.32-.73,14.29-7.14,24.75-20.32,30.95Z"/><path class="cls-1" d="M560.05,506.28c-20.79-8.88-23-28.39-21.43-48.71a60.22,60.22,0,0,1,5.57-20.24c5.24-11.31,17.34-16.07,30.22-13.09,11,2.54,19.19,13,19.62,25.25H583.88c-1.16-2.64-2.11-5.22-3.4-7.63-2.78-5.19-6.93-8.5-13.11-8.43s-10.52,3.26-13,8.58c-7,14.91-7.08,30-.34,45.05,2.76,6.15,7.59,9.65,14.59,9.33s11.43-4.15,13.84-10.5c1-2.56,1.73-5.19,2.69-8.07h10.31c-.24,13.78-7,22.82-18.87,28.46Z"/><path class="cls-1" d="M772.87,95.25c14,0,27.55-.36,41,.11,10.73.37,18.67,9.11,18.74,20,.14,20.6.38,41.22-.21,61.8-.14,4.95-3.36,9.81-5.5,15.6,4.81,3.71,5.86,10.46,5.8,17.81-.15,17.63-.28,35.27.06,52.89.15,7.81,1.44,15.61,2.3,24.25-4.39,0-10.22.24-16-.16a5.89,5.89,0,0,1-4.24-3.35,50.32,50.32,0,0,1-2.52-13.33c-.26-20.38-.11-40.75-.11-61.13v-7.78H793.13v85.34H772.87Zm20.59,20.82v65h18.38v-65Z"/><path class="cls-1" d="M874.33,191.3q0-33.33,0-66.66c0-16.73,12.47-29.83,27.89-30.84a30.29,30.29,0,0,1,32.64,29.66c0,45.59.26,91.18-.11,136.76-.14,17.4-14.16,29.65-31.69,29.12-16.38-.49-28.7-13.62-28.72-30.69Q874.29,225,874.33,191.3ZM913.91,267V116.24H895.26V267Z"/><path class="cls-1" d="M675.78,95.5h19.7V266.86H714.6V95.67h20.22c.15,1.89.43,3.86.43,5.83q0,78.62,0,157.25c0,15-8.55,26.26-22.49,29.8a29.63,29.63,0,0,1-34.2-15.34,30.22,30.22,0,0,1-3.15-13.14c-.2-53.79-.12-107.58-.09-161.37A24.65,24.65,0,0,1,675.78,95.5Z"/><path class="cls-1" d="M638.11,95.35v20.14H598.84v65.9H628V201.3H598.92V267h38.86v20.69H618.44c-6.66,0-13.31.06-20,0-12.6-.14-20.49-8-20.51-20.74q-.12-60.12,0-120.26c0-10.53-.12-21.07.07-31.61s7.32-19,17.51-19.56C609.43,94.83,623.42,95.35,638.11,95.35Z"/><path class="cls-1" d="M772.75,375.22q-115,0-230,0c-4,0-8.09-.86-10.83,3.77-.83,1.41-4.08,1.91-6.24,2-9.64.2-19.28,0-28.92.11-5.91,0-8.55-2.27-8.51-8.66,0-6.13,2-8.93,8.24-8.84,9.87.16,19.74,0,29.6.13,2,0,5,.42,5.65,1.64,3,5.6,7.92,4.36,12.53,4.36q228.94,0,457.89.12c3.19,0,6.37,1.53,9.56,2.35-1.78,5.65-6.48,2.89-9.7,2.9Q887.4,375.34,772.75,375.22Z"/><path class="cls-1" d="M772.93,403.18q-115.63,0-231.27,0c-3.53,0-7.07-.75-9.35,3.64-.83,1.6-4.36,2.44-6.69,2.51-9.62.3-19.27.35-28.9.13-7.12-.17-8.15-2.11-8.36-10.16-.17-6.73,3.78-7.37,8.87-7.33,9.4.07,18.81,0,28.21.08,2,0,5,.09,5.77,1.29,4,6,9.83,4.43,15.28,4.43q228.51,0,457,.17c2.69,0,7.52-2.88,7.85,3,0,.61-5.11,2.17-7.86,2.17Q888.22,403.28,772.93,403.18Z"/><path class="cls-1" d="M772.84,318.48q-115,0-230,0c-4,0-8.15-1-10.63,4-.69,1.37-4,1.92-6.19,2-9.87.21-19.74.11-29.61.1-4.95,0-8.16-1.27-8.15-7.42,0-5.87.88-10,7.81-9.95,9.87,0,19.74-.05,29.61.07,1.78,0,4.42.16,5.2,1.27,4.61,6.57,11.33,4.54,17.39,4.54q227.57.12,455.12.2c2.73,0,7.44-2.77,7.93,2.89,0,.55-5.11,2.22-7.84,2.23Q888.18,318.57,772.84,318.48Z"/><path class="cls-1" d="M772.14,346.82q-115,0-230,0c-3.74,0-7.56-.83-10,3.8-.81,1.54-4.43,2.16-6.79,2.22-9.63.25-19.28.1-28.92.13-6.11,0-8.27-2.83-8.19-9,.07-5.88,2.13-8.49,7.93-8.46,9.87.06,19.74-.11,29.61.08,2.15.05,5.44.6,6.2,2,2.73,5,7,4.11,11.24,4.11q230,0,460,.12c2.83,0,5.66,1.77,8.49,2.71-2.74.76-5.47,2.18-8.21,2.19Q887.82,346.91,772.14,346.82Z"/><path class="cls-1" d="M653.47,470.93v33.13l-10.42.47V424.81c11.66.59,23.66-.05,35.15,2.08,14.38,2.68,20.11,23.17,10.56,34.42-1.17,1.39-2.48,2.67-4,4.25,12,10.15,2.73,26.06,10.6,37.39-10.79,4.14-13.68,2.44-14.14-8.07-.08-1.83-.16-3.66-.26-5.48-1-17.09-2.43-18.44-19.69-18.47Zm.42-35v24.89c2.22.11,4,.3,5.78.27,3.65-.07,7.32-.08,11-.42,7.38-.68,10.58-4.18,10.74-11.42.2-8.46-2.65-12.47-10.34-13.22C665.6,435.51,660.08,435.94,653.89,435.94Z"/><path class="cls-1" d="M889.57,435h-18.1v-9.23h46.4v9.07H900.39v69H889.57Z"/><path class="cls-1" d="M609.72,435.53l-7.44-.95v-8.71h26.29v8.76l-7.33.84v58.46l7.45,1.09v9H602.32v-8.79l7.4-1.49Z"/><path class="cls-1" d="M865.64,495v9H839.51v-8.9l6.85-1.28V435.53l-7-.93v-9h26.06v9l-7,.75v58.42Z"/></svg>