<svg id="Logos_Patrocinadores" data-name="Logos Patrocinadores" xmlns="http://www.w3.org/2000/svg" viewBox="0 0 1500 600"><defs><style>.cls-1{fill:#7a97ab;}</style></defs><path class="cls-1" d="M611.5,354.54l-3.49,15c-2,8.55-4.27,17-5.87,25.67-.85,4.57-3.3,6.28-7.46,7.08-26.88,5.16-52.27,1.13-75.56-13.22-29.18-18-46.19-44.47-49.54-78.44-5.82-59,35.69-104,84.34-113.13,50.82-9.52,102.77,20.58,118.21,69.28.27.85.4,1.75.74,3.22-1.81.2-3.34.51-4.87.52-10.28.05-20.56-.1-30.84.12-3.43.08-5.19-1.24-6.87-4.09-9.71-16.51-24-27-42.67-31.21a66.24,66.24,0,0,0-33.33,128.12c17.34,5.14,34,3.35,50-5,1.14-.59,2.23-1.26,3.35-1.88,1-.52,1.91-1,3.82-2"/><path class="cls-1" d="M772.62,296.22h31.17L780.68,400.88H751.11c.75-4.08,1.43-7.78,2.28-12.37-1.6,1.18-2.71,1.88-3.68,2.74-13.8,12.24-30,14.91-47.31,10.75-16.39-3.95-21.29-18.63-18.78-31.51,3.3-16.88,7.22-33.64,10.92-50.45,1.72-7.85,3.54-15.68,5.38-23.79H731c-3.13,14.27-6.25,28.36-9.31,42.45-1.82,8.4-3.68,16.79-5.29,25.22-2.09,10.95,4.2,17.42,15.53,16.35s19.61-6.72,23.86-16.92c3.41-8.2,5.42-17,7.53-25.73,3.31-13.67,6.17-27.46,9.26-41.4"/><path class="cls-1" d="M972.81,315.68H953.7c1.67-7,3.14-13.19,4.7-19.7h18.91l7-31.53h30.34c-2.08,10.42-4.13,20.64-6.29,31.43h21c-.77,3.71-1.36,6.88-2.09,10s-1.56,6-2.53,9.7h-20.92c-1.7,7.51-3.31,14.4-4.82,21.31-2.14,9.81-4.19,19.65-6.33,29.47-2.27,10.4.24,13.38,11.06,12.93,2.54-.1,5.08-.38,8.44-.64-.39,2.37-.64,4.42-1.07,6.43-1,4.64-1.95,9.31-3.29,13.86-.36,1.23-2,3-3.1,3-9.31,0-18.81.82-27.89-.73-13.91-2.37-19.51-11.95-16.57-25.88,4-18.79,8.14-37.53,12.21-56.29.15-.69.17-1.4.39-3.36"/><path class="cls-1" d="M656.81,398H619.89c5.61-24.32,11.13-48.23,16.81-72.82H592.32c2.68-11.14,5.19-21.57,7.75-32.25h81.86c-8.37,35-16.67,69.75-25.12,105.07"/><path class="cls-1" d="M898.86,293.88c-2.21,9.64-4.27,18.68-6.45,28.2-2.27-.33-4.2-.63-6.14-.88-17.95-2.37-32.08,2.31-39.24,21.17-4.11,10.85-6.19,22.49-9,33.82-2,8.14-3.74,16.35-5.7,25H800.57c8-35.36,15.82-70,23.7-105h30.1c-1,4.7-2,9.23-3,13.75,12.64-14.34,28.35-18.79,47.48-16.07"/><path class="cls-1" d="M911.53,296.11H943.1c-7.65,35.19-15.78,69.84-23.66,104.77H887.8c7.93-35,15.78-69.68,23.73-104.77"/><path class="cls-1" d="M951.55,258.51,945.92,282h-31.6c1.87-8,3.68-15.64,5.53-23.53Z"/></svg>