<svg id="Logos_Patrocinadores" data-name="Logos Patrocinadores" xmlns="http://www.w3.org/2000/svg" viewBox="0 0 1500 600"><defs><style>.cls-1{fill:#7a97ab;fill-rule:evenodd;}</style></defs><g id="logo_iberia" data-name="logo iberia"><path id="path70" class="cls-1" d="M882.92,244.06a404.87,404.87,0,0,0-28,43.69h0c-10.3,18.28-19.58,37-25.34,51.27H864a181.2,181.2,0,0,1,7.36-17.59h56.44A167,167,0,0,1,935.15,339h34.36a553.36,553.36,0,0,0-25.28-51.16h0c-10.23-18.18-19.41-32.43-28-43.8H882.92Zm16.61,22.44c7.08,11.45,13.44,23.06,20.52,37.35h-41c6.91-14,13.27-25.62,20.47-37.35ZM636.72,244.06a435.54,435.54,0,0,0-2.54,47.47h0A457.26,457.26,0,0,0,636.74,339h32.55c-1.4-12.29-2.09-22.82-2.55-35.25H699.5a102.22,102.22,0,0,1,10.41,12.76h0A132.31,132.31,0,0,1,722.5,339h36.39a213,213,0,0,0-17.73-25.55h0a109.34,109.34,0,0,0-12.51-13.68h0c13.66-4.32,22.1-14.72,22.1-27.36h0a25.83,25.83,0,0,0-7.87-18.79h0c-7.1-6.63-18.13-9.58-35.79-9.58H636.72Zm31,17.79h28.63c10.54,0,15.67,1.16,18.95,4.31h0a10.23,10.23,0,0,1,3.11,7.55h0c0,5.13-2.93,9.66-8.06,12.5H666.72c0-7,.35-15,1-24.36ZM506.6,244.06c-1.55,15.05-2.56,32.08-2.56,47.53h0c0,15.38,1.14,32.26,2.57,47.44H607c-.53-6.33-.94-12.11-1.31-18.94H537.37c-.53-7.11-.77-13.66-.79-20.06h63.07V282.12H536.58c0-5.2.2-12.81.78-19.13h68.29c.34-6.66.75-12.25,1.41-18.93H506.6Zm-143.34,0a434.86,434.86,0,0,0-2.55,47.47h0A446.94,446.94,0,0,0,363.26,339h62.07c22,0,35.48-2.3,43.87-7.47h0c6.47-4,10.48-12,10.48-20.79h0c0-10.37-6.57-18.66-18.1-22.9h0c7.67-3.89,12.54-11.37,12.54-19.47h0c0-7.49-2.39-12.68-7.78-16.81h0c-9-7-25.64-7.52-43.27-7.52H363.26Zm31,18h27.53c11.13,0,14.84.76,18,3.65h0a9.57,9.57,0,0,1,2.6,7h0a11.54,11.54,0,0,1-5.06,9.75H393.27c.11-7.1.43-13.7,1-20.42Zm-1,37.63h39.64c5.73,0,8.65.7,11.22,2.67h0a8.53,8.53,0,0,1,3.53,7.27h0a9.79,9.79,0,0,1-3.21,7.74h0c-3.08,2.62-7.43,3.73-15,3.73H394.25c-.7-7.55-1-15.17-1-21.41Zm389.5-55.59a414.49,414.49,0,0,0-2.57,48.28h0A396,396,0,0,0,782.75,339h28a384.54,384.54,0,0,0,2.56-46.68h0a444.23,444.23,0,0,0-2.54-48.27h-28Zm-486,0a414.62,414.62,0,0,0-2.56,48.28h0A396.06,396.06,0,0,0,296.73,339h28a388.63,388.63,0,0,0,2.56-46.68h0a444.07,444.07,0,0,0-2.55-48.27h-28Z"/><path id="path92" class="cls-1" d="M1018.51,382l-49,51.95h0c170.1,0,210.2-42,233.6-99.18h0L1222.76,281C1165.45,282.73,1079,318.21,1018.51,382"/><path id="path114" class="cls-1" d="M1140.7,262.16l-49.84,50.49c47.32-34,94.52-54.5,141.54-59.8h0L1243.86,223c-69.6,0-79.08,15.21-103.16,39.2"/></g></svg>