<svg id="Logos_Patrocinadores" data-name="Logos Patrocinadores" xmlns="http://www.w3.org/2000/svg" viewBox="0 0 1500 600"><defs><style>.cls-1{fill:#7a97ab;}</style></defs><path class="cls-1" d="M582.71,343.86c8.69-32.45,17.14-64,25.6-95.57a30.56,30.56,0,0,1,4.24-.62c71.61,0,143.23-.19,214.84.37,9.91.08,20,3.28,29.62,6.18,6.4,1.93,10.52,6.91,10.63,14.37.11,7.62-5,11.15-10.9,13.29-8.44,3.05-17.24,5.16-26.89,8,8.07.93,15.57,1.11,22.72,2.77,9.63,2.23,19.52,4.49,28.33,8.71,15,7.17,15.21,21.45,1.09,30.19-13.71,8.5-29.32,11.49-45.08,11.86-31.44.73-62.91.44-94.37.47q-75.49.07-151,0ZM690.27,317a32.87,32.87,0,0,0,4.3.6c19.47,0,38.95.1,58.42-.09a28.81,28.81,0,0,0,11-1.94c2.68-1.17,6.4-4.13,6.37-6.25,0-3.08-2.35-7.63-5-8.82a41.91,41.91,0,0,0-15.95-3.31c-15.7-.4-31.41-.14-47.12-.14h-9.2C692.1,304.22,691.2,310.46,690.27,317Zm5.27-37.42c18.88,0,37.13.19,55.38-.13,4.75-.09,11.18-1.28,10.82-7.19-.33-5.55-6.65-6.47-11.53-6.61-16.1-.46-32.22-.64-48.34-.69-1.54,0-4.11,1.41-4.45,2.64C696.35,271.49,696.1,275.62,695.54,279.56Z"/><path class="cls-1" d="M1184.68,280.2h-60.42c-12,0-24-.2-35.91.11-4.28.11-7.31-.95-9.15-4.77-3.35-7-9.38-9.92-16.68-9.86-14.31.1-28.68.15-42.92,1.38-7.86.68-8.13,2.39-5.39,9.48,4.27,11,8.69,22,12.75,33.16,1.68,4.61,4.55,7.27,9.33,8.26a136.49,136.49,0,0,0,56,.17c8.93-1.85,9.45-3.66,5.51-11.5-.67-1.33-1.24-2.7-2.14-4.66,2.74-.12,4.85-.29,7-.29,29.7,0,59.4.08,89.1-.12,4.68,0,8.07,1,10.49,5.1,1.56,2.64,3.63,5,5.31,7.56,6.09,9.37,4.72,16.07-6,19.49a189.6,189.6,0,0,1-38.08,8.21c-47,4.76-94.27,3.87-141.44,2.42-24.31-.75-48.66-2.44-72.1-9.92a97.79,97.79,0,0,1-9.29-3.49c-7.25-3.17-12.15-7.88-13.8-16.25-2.5-12.67-6.14-25.11-9.3-37.65-2.84-11.26-.15-18.3,11.33-21.42,14-3.8,28.51-7.15,42.88-7.51,39.4-1,78.87-1.36,118.24.08,22,.8,43.93,4.82,65.57,9C1171.52,260.31,1178.33,266.94,1184.68,280.2Z"/><path class="cls-1" d="M381.87,301.67c-.7,1.8-.94,2.6-1.31,3.35-5,10.21-3.85,13.47,7.62,14.62,11.14,1.12,22.51.76,33.72.14,6.5-.36,11.12-4.43,14.09-10.6,8.94-18.6,18.36-37,27.32-55.58,2-4.21,4.24-6.16,9.36-6.11,30.35.29,60.71.14,91.91.14-.79,2.71-1.3,4.94-2.08,7.07-6.78,18.78-14,37.42-20.31,56.33-3.7,11-10.83,18.72-21.49,21.56-15.5,4.14-31.42,8.45-47.31,9.14q-57.37,2.5-114.88,1.35c-18-.36-36.16-3.41-53.71-7.51-19.88-4.64-22.87-15.42-10.68-31.77a6.2,6.2,0,0,1,4.34-2C325.94,301.64,353.42,301.67,381.87,301.67Z"/></svg>