<svg id="Logos_Patrocinadores" data-name="Logos Patrocinadores" xmlns="http://www.w3.org/2000/svg" viewBox="0 0 1500 600"><defs><style>.cls-1{fill:#7a97ab;fill-rule:evenodd;}</style></defs><path class="cls-1" d="M1266.34,292.15a9.12,9.12,0,0,1-.41,2.86,12.44,12.44,0,0,1-12.12,8.26c-4.49,0-8.36-2.65-8.36-8.57,0-9.58,11.11-11.32,20.89-11.11Zm8.76-13.66c0-9.9-3.66-20.2-18.85-20.2a31.9,31.9,0,0,0-16.3,4.29l2,6a23.78,23.78,0,0,1,12.94-3.67c10.09-.1,11.21,7.35,11.21,11.43v1c-19.06-.11-29.66,6.42-29.66,18.35,0,7.14,5.1,14.18,15.08,14.18,7,0,12.44-3.47,15.08-7.34l1.13,6.22h8a82.82,82.82,0,0,1-.72-11.83Zm-50.18-40.39-9,14.58h6.32l12.43-14.58Zm.61,21.32h-9v49.36h9Zm-20.94,40.79a25.69,25.69,0,0,1-11,2.35c-9.78,0-17.12-7-17.12-18.46,0-10.2,6.12-18.67,17.43-18.67a22,22,0,0,1,10.4,2.35l2-6.84a28.27,28.27,0,0,0-12.43-2.65c-16.1,0-26.5,11.12-26.5,26.32s9.69,25.19,24.57,25.19a34.47,34.47,0,0,0,14.16-2.86Zm-66.9,8.57h9V282.36a27.14,27.14,0,0,1,.31-4.18c1.22-6.63,5.7-11.42,12-11.42a26.15,26.15,0,0,1,3.06.2V258.5a17.07,17.07,0,0,0-2.45-.21c-6,0-11.51,4.18-13.76,10.81l-.71-9.68h-7.85c.31,4.59.41,9.58.41,15.4Zm-23.08-16.63a9.41,9.41,0,0,1-.4,2.86,12.46,12.46,0,0,1-12.13,8.26c-4.49,0-8.36-2.65-8.36-8.57,0-9.58,11.11-11.32,20.89-11.11Zm8.77-13.66c0-9.9-3.67-20.2-18.86-20.2a31.9,31.9,0,0,0-16.3,4.29l2,6a23.78,23.78,0,0,1,12.94-3.67c10.09-.1,11.21,7.35,11.21,11.43v1c-19.06-.11-29.66,6.42-29.66,18.35,0,7.14,5.1,14.18,15.09,14.18a18.23,18.23,0,0,0,15.08-7.34l1.12,6.22h8a82.92,82.92,0,0,1-.71-11.83Zm-47.85-5.82h-22.62v7.14h13.86v20.51c-2,1-6,1.83-11.82,1.83-16.1,0-26.5-10.3-26.5-27.74,0-17.24,10.91-27.64,27.62-27.64,6.93,0,11.52,1.22,15.18,3l2.25-7.25c-3-1.42-9.28-3.16-17.23-3.16-23,0-37.19,15-37.19,35.5,0,10.71,3.67,19.88,9.58,25.6,6.72,6.42,15.28,9.07,25.68,9.07a62,62,0,0,0,21.19-3.77Zm-109.69,30.5c-8.66,0-14.78-8.16-14.78-19,0-9.38,4.59-19.18,15.08-19.18s14.78,10.51,14.78,18.87c0,11.22-6.42,19.28-15,19.28Zm-.21,6.73c11.73,0,24.46-7.95,24.46-26.31,0-15-9.58-25.3-23.74-25.3-13.56,0-24.46,9.69-24.46,26.22,0,15.6,10.4,25.39,23.64,25.39Zm-39.58-58.75a5.46,5.46,0,1,0-.1,0Zm4.58,8.27h-9v49.36h9Zm-65.47,49.36h9V279a13.26,13.26,0,0,1,.61-4.18c1.63-5,6.22-9.18,12-9.18,8.46,0,11.42,6.73,11.42,14.68v28.46h9V279.3c0-16.93-10.6-21-17.43-21a18.28,18.28,0,0,0-16.31,9.18l-.71-8.05h-8c.31,4.07.41,8.15.41,13.36Zm-35.51-5.61c-8.66,0-14.78-8.16-14.78-19,0-9.38,4.59-19.18,15.08-19.18s14.78,10.51,14.78,18.87c0,11.22-6.42,19.28-15,19.28Zm-.21,6.73c11.72,0,24.46-7.95,24.46-26.31,0-15-9.58-25.3-23.74-25.3-13.56,0-24.46,9.69-24.46,26.22,0,15.6,10.39,25.39,23.64,25.39Zm-51.81-59.56v9.08H770v6.83h7.64v26.82c0,5.82,1,10.2,3.46,13,2.14,2.34,5.5,3.77,9.68,3.77a24.47,24.47,0,0,0,8-1.22l-.41-6.84a16.63,16.63,0,0,1-5.19.61c-5,0-6.73-3.46-6.73-9.58V266.25h12.84v-6.83H786.39V247.58Zm-58.55,58.44h9V279a13.56,13.56,0,0,1,.61-4.18c1.63-5,6.22-9.18,12-9.18,8.46,0,11.41,6.73,11.41,14.68v28.46h9V279.3c0-16.93-10.6-21-17.43-21a18.25,18.25,0,0,0-16.3,9.18l-.71-8.05h-8c.3,4.07.4,8.15.4,13.36ZM670,280.22l6.73-19.89c1.32-4.18,2.44-8.46,3.36-12.44,1.32,4,2.34,8.06,3.77,12.54l6.83,19.79Zm22.52,6.94,7.34,21.62h9.48L685.91,240H675.22l-23.34,68.74h9.17l7.13-21.62ZM589.47,279.3c.71-6.22,4.59-14.58,13.76-14.58,10,0,12.43,8.87,12.33,14.58Zm34.45,6.43a22.33,22.33,0,0,0,.3-4.18c0-9.08-4.18-23.26-20.28-23.26-14.37,0-23.23,11.73-23.23,26.62S589.88,309.8,605,309.8a40.12,40.12,0,0,0,16.51-3.16l-1.63-6.43a32,32,0,0,1-13.66,2.55c-9,0-16.61-5-16.81-17Zm-83.31,20.6a28.09,28.09,0,0,0,13.86,3.47c11.51,0,18.34-6.12,18.34-14.89,0-7.34-4.48-11.63-12.94-14.79-6.42-2.55-9.27-4.39-9.27-8.47,0-3.67,2.85-6.73,8.15-6.73a20.2,20.2,0,0,1,10.09,2.86l2.14-6.43a22.94,22.94,0,0,0-12-3.06c-10.49,0-17,6.53-17,14.49,0,5.81,4.18,10.71,13.15,14,6.52,2.45,9.07,4.69,9.07,9s-3.06,7.35-9.48,7.35a25.33,25.33,0,0,1-11.92-3.47Zm-32.15-3.16c-8.66,0-14.78-8.16-14.78-19,0-9.38,4.59-19.18,15.09-19.18s14.77,10.51,14.77,18.87c0,11.22-6.42,19.28-15,19.28Zm-.21,6.73c11.72,0,24.46-7.95,24.46-26.31,0-15-9.58-25.3-23.74-25.3-13.56,0-24.46,9.69-24.46,26.22,0,15.6,10.4,25.39,23.64,25.39Zm-43.56-24.58c0,13.46-4.58,17-12.53,17a21.36,21.36,0,0,1-7.54-1.32l-1.23,7.24a27.73,27.73,0,0,0,9.48,1.63c11.82,0,20.79-5.61,20.79-23.87V240h-9Z"/><path class="cls-1" d="M448.18,360.22a17.33,17.33,0,0,0,8.59,2.2c7.93,0,11.73-4.53,11.73-9.68,0-4.94-2.86-7.64-8.55-9.89-4.64-1.8-6.69-3.34-6.69-6.44,0-2.3,1.74-5,6.34-5a12.46,12.46,0,0,1,6.34,1.6l1.19-3.59a15.67,15.67,0,0,0-7.38-1.6c-6.55,0-10.89,3.89-10.89,9.13,0,4.69,3.4,7.59,8.9,9.49,4.54,1.7,6.34,3.55,6.34,6.69,0,3.4-2.59,5.69-7,5.69a15.2,15.2,0,0,1-7.74-2.15Z"/><path class="cls-1" d="M494.05,337.78h-4.39v14.77a6.25,6.25,0,0,1-.39,2.25,6.32,6.32,0,0,1-5.79,4c-4,0-5.4-3.15-5.4-7.74V337.77h-4.39V351.9c0,8.44,4.54,10.59,8.34,10.59a9,9,0,0,0,8-4.49h.09l.26,3.94h3.89c-.15-1.89-.2-4.09-.2-6.64Z"/><path class="cls-1" d="M500.85,362h4.29V347.37a6.06,6.06,0,0,1,.35-2.15c.69-2.19,2.74-4.39,5.44-4.39,3.34,0,5,2.75,5.05,6.6V362h4.29V347a8.17,8.17,0,0,1,.34-2.2,5.77,5.77,0,0,1,5.25-3.94c3.49,0,5.24,2.75,5.24,7.44V362h4.29V347.73c0-8.38-4.74-10.48-8-10.48a8,8,0,0,0-5.29,1.69,9.72,9.72,0,0,0-2.75,3.14h-.09a7.14,7.14,0,0,0-6.8-4.84,8.35,8.35,0,0,0-7.64,4.44h-.14l-.2-3.9h-3.85c.1,2,.2,4,.2,6.54Z"/><path class="cls-1" d="M546.39,362l0-24.17H542V362Zm-2.27-28.21a2.72,2.72,0,1,0-2.69-2.7,2.64,2.64,0,0,0,2.69,2.7Z"/><path class="cls-1" d="M553.18,362h4.39V347.39a6.52,6.52,0,0,1,.3-2,6.34,6.34,0,0,1,5.89-4.49c4.14,0,5.59,3.3,5.6,7.19V362h4.4V347.55c0-8.29-5.2-10.29-8.54-10.29a9,9,0,0,0-8,4.49h-.1l-.25-3.94H553c.15,2,.2,4,.2,6.54Z"/><path class="cls-1" d="M584.78,362V337.82h-4.4l0,24.16Zm-2.26-28.21a2.73,2.73,0,1,0-2.7-2.7,2.64,2.64,0,0,0,2.7,2.7Z"/><path class="cls-1" d="M589.92,360.79a13.79,13.79,0,0,0,6.79,1.7c5.65,0,9-3,9-7.28,0-3.6-2.2-5.7-6.35-7.25-3.14-1.25-4.54-2.15-4.54-4.14,0-1.8,1.39-3.3,4-3.3a10,10,0,0,1,5,1.41l1-3.15a11.19,11.19,0,0,0-5.89-1.5c-5.14,0-8.34,3.19-8.33,7.09,0,2.84,2,5.24,6.44,6.84,3.19,1.2,4.44,2.3,4.45,4.39s-1.5,3.6-4.65,3.6a12.39,12.39,0,0,1-5.84-1.7Z"/><path class="cls-1" d="M611.83,333.39v4.45h-3.74v3.35h3.74v13.13c0,2.85.5,5,1.7,6.34a6.27,6.27,0,0,0,4.74,1.85,12,12,0,0,0,3.9-.6l-.2-3.34a8.22,8.22,0,0,1-2.55.3c-2.45,0-3.3-1.7-3.3-4.7v-13h6.29v-3.34h-6.29V332Z"/><path class="cls-1" d="M626.87,362h4.39V349.08a13.64,13.64,0,0,1,.15-2.05c.59-3.24,2.79-5.59,5.88-5.59a12.38,12.38,0,0,1,1.5.1V337.4a9,9,0,0,0-1.2-.1,7.29,7.29,0,0,0-6.73,5.29h-.15l-.2-4.75h-3.85c.15,2.25.2,4.69.2,7.54Z"/><path class="cls-1" d="M652.09,362.57c5.74,0,12-3.89,12-12.88,0-7.34-4.7-12.38-11.64-12.39-6.64,0-12,4.74-12,12.83,0,7.64,5.09,12.44,11.58,12.44Zm.09-3.3c-4.24,0-7.24-4-7.24-9.29,0-4.59,2.24-9.38,7.38-9.38s7.25,5.15,7.25,9.24c0,5.49-3.14,9.44-7.34,9.43Z"/><path class="cls-1" d="M695.66,326.59V341h-.1c-1-1.9-3.54-3.65-7.29-3.65-5.84,0-10.88,4.89-10.83,13,0,7.34,4.55,12.28,10.4,12.29a8.86,8.86,0,0,0,8.18-4.74h.1l.2,4.19h3.95c-.15-1.65-.21-4.09-.21-6.24V326.59Zm0,25.31a7,7,0,0,1-.2,1.85A6.64,6.64,0,0,1,689,359c-4.69,0-7.14-4.05-7.14-9,0-5.29,2.69-9.28,7.23-9.28a6.46,6.46,0,0,1,6.34,5,8.2,8.2,0,0,1,.21,1.9Z"/><path class="cls-1" d="M726.27,350.77a10.73,10.73,0,0,0,.15-2c0-4.44-2-11.38-9.94-11.38-7,0-11.38,5.73-11.38,13s4.5,12.19,11.89,12.19a19.86,19.86,0,0,0,8.09-1.54l-.8-3.15a15.69,15.69,0,0,1-6.69,1.25c-4.39,0-8.14-2.46-8.24-8.35Zm-16.87-3.15c.35-3.05,2.24-7.14,6.73-7.14,4.9,0,6.09,4.35,6,7.14Z"/><path class="cls-1" d="M741.61,362.06H746V348.48a15,15,0,0,0,3.5.3c4.24,0,8-1.24,10.28-3.68a9.67,9.67,0,0,0,2.64-7.17,9.05,9.05,0,0,0-3-7c-2-1.79-5.15-2.79-9.44-2.8a44.7,44.7,0,0,0-8.34.7Zm4.32-30.1a18.25,18.25,0,0,1,4.1-.35c4.79,0,7.94,2.14,7.94,6.57s-3.19,7.11-8.43,7.11a14.59,14.59,0,0,1-3.6-.35Z"/><path class="cls-1" d="M771.91,362.08V337.91h-4.39v24.16Zm-2.26-28.21a2.73,2.73,0,1,0-2.7-2.7,2.64,2.64,0,0,0,2.7,2.7Z"/><path class="cls-1" d="M778.7,362.08h4.4V347.5a6.48,6.48,0,0,1,.3-2,6.31,6.31,0,0,1,5.89-4.49c4.14,0,5.59,3.29,5.59,7.19v13.93h4.39V347.66c0-8.29-5.2-10.29-8.55-10.29a8.93,8.93,0,0,0-8,4.49h-.1l-.25-3.94h-3.9c.15,2,.2,4,.2,6.55Z"/><path class="cls-1" d="M806.9,333.48v4.45h-3.74v3.34h3.74V354.4c0,2.85.5,5,1.7,6.35a6.31,6.31,0,0,0,4.75,1.85,12,12,0,0,0,3.89-.6l-.2-3.35a8.22,8.22,0,0,1-2.55.3c-2.45,0-3.3-1.7-3.3-4.69v-13h6.29v-3.35h-6.3v-5.79Z"/><path class="cls-1" d="M842.15,338h-4.39v14.78a6.25,6.25,0,0,1-.39,2.25,6.32,6.32,0,0,1-5.79,4c-4,0-5.4-3.15-5.4-7.74V337.94h-4.39v14.13c0,8.44,4.54,10.59,8.34,10.59a9,9,0,0,0,8-4.49h.11l.25,3.95h3.89c-.15-1.9-.2-4.09-.2-6.64Z"/><path class="cls-1" d="M849,362.11h4.39V349.18a13.6,13.6,0,0,1,.15-2c.59-3.25,2.79-5.59,5.88-5.59a12.71,12.71,0,0,1,1.51.1v-4.14a7.53,7.53,0,0,0-1.2-.11,7.31,7.31,0,0,0-6.73,5.29h-.16l-.2-4.74h-3.84c.15,2.24.2,4.69.2,7.54Z"/><path class="cls-1" d="M881.8,347.3c0-4.84-1.8-9.89-9.24-9.89a15.73,15.73,0,0,0-8,2.09l1,2.95a11.62,11.62,0,0,1,6.34-1.79c4.94-.05,5.49,3.59,5.49,5.59v.5c-9.34-.05-14.53,3.14-14.53,9,0,3.49,2.5,6.94,7.39,6.94a8.89,8.89,0,0,0,7.39-3.59h.15l.4,3.05h3.94a40.55,40.55,0,0,1-.35-5.79ZM877.51,354a4.52,4.52,0,0,1-.2,1.4,6.11,6.11,0,0,1-5.94,4,3.85,3.85,0,0,1-4.1-4.2c0-4.69,5.44-5.54,10.23-5.43Z"/><path class="cls-1" d="M886.7,360.93a13.76,13.76,0,0,0,6.79,1.7c5.64,0,9-3,9-7.28,0-3.6-2.2-5.69-6.34-7.24-3.15-1.25-4.55-2.15-4.55-4.15,0-1.8,1.4-3.29,4-3.29a9.91,9.91,0,0,1,4.95,1.4l1-3.15a11.17,11.17,0,0,0-5.89-1.5c-5.14,0-8.33,3.19-8.33,7.09,0,2.84,2,5.24,6.44,6.84,3.2,1.2,4.45,2.3,4.45,4.4s-1.5,3.59-4.64,3.59a12.35,12.35,0,0,1-5.84-1.7Z"/><path class="cls-1" d="M914.5,338l8.89,22.27a3,3,0,0,1,.35,1.15,3.33,3.33,0,0,1-.34,1.05,13.85,13.85,0,0,1-3.7,4.89,11.6,11.6,0,0,1-3.84,2.15l1.1,3.64a12.52,12.52,0,0,0,5.39-2.79c3-2.65,5.14-6.84,8.28-15.13L937.21,338h-4.64l-4.79,14.18c-.59,1.74-1.09,3.59-1.54,5h-.1c-.4-1.45-1-3.35-1.6-4.95L919.29,338Z"/><path class="cls-1" d="M949.26,360.46a17.32,17.32,0,0,0,8.58,2.2c7.94,0,11.74-4.53,11.73-9.67,0-4.95-2.85-7.65-8.54-9.89-4.64-1.8-6.69-3.35-6.69-6.45,0-2.3,1.74-5,6.34-5a12.46,12.46,0,0,1,6.34,1.6l1.19-3.59a15.67,15.67,0,0,0-7.38-1.6c-6.55,0-10.89,3.89-10.89,9.13,0,4.69,3.4,7.59,8.9,9.49,4.54,1.7,6.34,3.55,6.34,6.69,0,3.4-2.59,5.69-7,5.69a15.2,15.2,0,0,1-7.74-2.15Z"/><path class="cls-1" d="M984.81,362.73c5.74,0,12-3.89,12-12.88,0-7.34-4.7-12.38-11.63-12.38-6.65,0-12,4.73-12,12.82,0,7.64,5.09,12.44,11.59,12.44Zm.09-3.3c-4.24,0-7.24-4-7.24-9.29,0-4.59,2.24-9.38,7.39-9.38s7.24,5.15,7.24,9.24c0,5.49-3.14,9.43-7.33,9.43Z"/><path class="cls-1" d="M1001.84,372.07h4.39V358.94h.09a8.42,8.42,0,0,0,7.44,3.8c5.65,0,11-4.29,11-13,0-7.34-4.4-12.29-10.29-12.29a9.3,9.3,0,0,0-8.53,4.69h-.1l-.25-4.15h-4c.15,2.3.2,4.79.21,7.89Zm4.38-23.91a10.54,10.54,0,0,1,.25-1.75,7,7,0,0,1,6.69-5.44c4.64,0,7.14,4.15,7.14,9,0,5.55-2.69,9.34-7.33,9.34a6.74,6.74,0,0,1-6.55-5.15,7.1,7.1,0,0,1-.2-1.8Z"/><path class="cls-1" d="M1039.63,362.76c5.74,0,12-3.89,12-12.88,0-7.34-4.7-12.39-11.63-12.39-6.65,0-12,4.74-12,12.83,0,7.64,5.1,12.43,11.59,12.44Zm.1-3.3c-4.25,0-7.24-4-7.25-9.29,0-4.59,2.24-9.39,7.39-9.38s7.24,5.14,7.24,9.24c0,5.49-3.14,9.43-7.33,9.43Z"/><path class="cls-1" d="M1056.65,362.21h4.4V349.28a13.6,13.6,0,0,1,.15-2c.6-3.25,2.79-5.59,5.89-5.59a12.53,12.53,0,0,1,1.5.1V337.6a8.8,8.8,0,0,0-1.19-.1,7.31,7.31,0,0,0-6.74,5.29h-.15l-.2-4.74h-3.85c.15,2.24.2,4.69.21,7.54Z"/><path class="cls-1" d="M1074.66,333.61v4.45h-3.75v3.35h3.75v13.13c0,2.85.5,5,1.7,6.34a6.28,6.28,0,0,0,4.75,1.85,12,12,0,0,0,3.89-.59l-.2-3.35a8.19,8.19,0,0,1-2.54.3c-2.45,0-3.3-1.7-3.3-4.69v-13h6.29v-3.35H1079v-5.79Z"/><path class="cls-1" d="M1108.82,351a10.54,10.54,0,0,0,.15-2c0-4.45-2-11.39-9.94-11.39-7,0-11.38,5.74-11.38,13s4.5,12.19,11.89,12.19a19.69,19.69,0,0,0,8.09-1.54l-.8-3.15a15.69,15.69,0,0,1-6.69,1.25c-4.4,0-8.14-2.45-8.24-8.34Zm-16.88-3.15c.35-3.05,2.25-7.14,6.74-7.14,4.9,0,6.09,4.35,6,7.15Z"/><polygon class="cls-1" points="1130.55 362.25 1134.94 362.25 1134.93 332.29 1145.21 332.3 1145.21 328.6 1120.29 328.59 1120.3 332.29 1130.53 332.29 1130.55 362.25"/><path class="cls-1" d="M1167.74,351a10.61,10.61,0,0,0,.15-2c0-4.45-2.06-11.39-9.94-11.39-7,0-11.39,5.73-11.38,13s4.5,12.19,11.88,12.19a19.82,19.82,0,0,0,8.09-1.54l-.8-3.15a15.65,15.65,0,0,1-6.69,1.25c-4.39,0-8.14-2.45-8.24-8.34Zm-16.88-3.15c.35-3.05,2.24-7.14,6.74-7.14,4.89,0,6.09,4.35,6,7.15Zm9-20.17-4.39,7.14h3.09l6.09-7.13Z"/><path class="cls-1" d="M1189.31,358.08a12.58,12.58,0,0,1-5.39,1.15c-4.8,0-8.39-3.45-8.39-9,0-5,3-9.14,8.53-9.13a10.73,10.73,0,0,1,5.09,1.15l1-3.35a13.84,13.84,0,0,0-6.09-1.3c-7.89,0-13,5.44-13,12.88s4.75,12.33,12,12.33a17,17,0,0,0,6.94-1.39Z"/><path class="cls-1" d="M1194.7,362.28h4.4V347.7a6.48,6.48,0,0,1,.3-2,6.34,6.34,0,0,1,5.89-4.5c4.14,0,5.59,3.3,5.59,7.2v13.93h4.39V347.86c0-8.29-5.2-10.29-8.55-10.29a8.93,8.93,0,0,0-8,4.49h-.1l-.25-3.94h-3.9c.15,2,.2,4,.2,6.54Z"/><path class="cls-1" d="M1226.31,362.29l0-24.16h-4.39v24.16Zm-2.26-28.21a2.72,2.72,0,0,0,0-5.44,2.65,2.65,0,0,0-2.75,2.75,2.61,2.61,0,0,0,2.65,2.69Z"/><path class="cls-1" d="M1249.57,358.11a12.51,12.51,0,0,1-5.39,1.15c-4.79,0-8.39-3.45-8.39-9,0-5,3-9.14,8.53-9.14a10.8,10.8,0,0,1,5.09,1.16l1-3.35a13.8,13.8,0,0,0-6.09-1.3c-7.89,0-13,5.43-13,12.87s4.75,12.34,12.05,12.34a17,17,0,0,0,6.94-1.39Z"/><path class="cls-1" d="M1264.55,362.86c5.75,0,12-3.89,12-12.87,0-7.34-4.7-12.39-11.64-12.39-6.64,0-12,4.74-12,12.82,0,7.64,5.09,12.44,11.58,12.44Zm.1-3.29c-4.24,0-7.24-4-7.24-9.29,0-4.6,2.24-9.39,7.38-9.39s7.25,5.15,7.25,9.24c0,5.5-3.14,9.44-7.34,9.44Z"/><path class="cls-1" d="M263.22,290.94a24.53,24.53,0,1,1,24.52,24.91,24.71,24.71,0,0,1-24.52-24.91"/><path class="cls-1" d="M318.6,291.94a24.53,24.53,0,1,1,24.52,24.91,24.72,24.72,0,0,1-24.52-24.91"/><path class="cls-1" d="M267.57,248.38c-2.24-8.57,5.46-17.82,17.2-20.67s23.09,1.78,25.33,10.35-5.46,17.81-17.2,20.66-23.09-1.78-25.33-10.34"/><path class="cls-1" d="M362.2,248.66c2.08-8.57-5.93-17.82-17.9-20.67s-23.34,1.78-25.42,10.35,5.94,17.81,17.9,20.66,23.34-1.78,25.42-10.34"/><path class="cls-1" d="M231,263c-4.38-4.57-1.63-14.16,6.15-21.41s17.63-9.43,22-4.86,1.64,14.16-6.14,21.42-17.63,9.42-22,4.85"/><path class="cls-1" d="M397.94,263c4.26-4.57,1.25-14.16-6.73-21.41s-17.9-9.43-22.16-4.86-1.26,14.16,6.72,21.42,17.9,9.42,22.17,4.85"/><path class="cls-1" d="M224,289.07c2.19-11.72,11-19.77,19.68-18s13.92,12.74,11.72,24.46-11,19.77-19.68,18S221.77,300.79,224,289.07"/><path class="cls-1" d="M407.31,289.85c-2.42-11.72-11.54-19.77-20.37-18s-14,12.74-11.63,24.46,11.53,19.77,20.37,18,14-12.73,11.63-24.45"/><path class="cls-1" d="M264.13,336.86c-4.11,11.09,2.62,23.87,15,28.56s25.78-.5,29.88-11.59-2.62-23.87-15-28.55-25.78.5-29.88,11.58"/><path class="cls-1" d="M232.28,322.38c-7,3.75-8.35,15.11-3.06,25.37s15.26,15.55,22.24,11.8,8.35-15.1,3-25.36-15.25-15.55-22.23-11.81"/><path class="cls-1" d="M397.85,322.38c6.85,3.75,7.94,15.11,2.44,25.37s-15.53,15.55-22.38,11.8-7.94-15.1-2.43-25.36,15.52-15.55,22.37-11.81"/><path class="cls-1" d="M364.93,336.86c3.89,11.09-3.21,23.87-15.87,28.56s-26.09-.5-30-11.59,3.21-23.87,15.87-28.55,26.09.5,30,11.58"/></svg>