<svg id="Logos_Patrocinadores" data-name="Logos Patrocinadores" xmlns="http://www.w3.org/2000/svg" viewBox="0 0 1500 600"><defs><style>.cls-1{fill:#7a97ab;}</style></defs><path class="cls-1" d="M1119.16,473v14.45c-5.2,7.46-9.43,15.47-20.86,15.34-44-.5-87.92-.57-131.89-.55-10.14,0-14.95-4.42-15.81-14.44-1.9-22.05-3.53-44.15-6.52-66.05-5.9-43.09,5.9-36.91-41.51-37.74-9.75-.17-13.8,3-13.79,13.31.05,28.41-.74,56.81-1.37,85.22C887,499.7,884.91,502,868,501.41c-80.18-3-160.39-.86-240.57-2.11-20.67-.32-27.26-9.75-20.09-29.5,2.12-5.83,6-11,8.44-16.76,8.2-19.06,5.15-38.61,1.77-58.05-.56-3.22-2.72-6.72-6.5-7-5.38-.42-3.55,4.46-4.6,7.29-1.51,4-2.84,8.22-5.15,11.76-17.35,26.67-35.07,53.09-52.34,79.8-4.64,7.19-10.25,10.55-19,10.47-41.07-.41-82.13-.22-123.2-.59-15.19-.14-20.8-6.06-22.05-20.81-.81-9.69,1.6-17.6,8.93-24.66,20.5-19.75,40.5-40,60.57-60.17,2.18-2.18,6.51-4.38,4-8.11-1.15-1.69-5.16-1.85-7.91-2-12.75-.69-24.51.34-34.83,10.14-8.45,8-20.87,7.4-29.87,2.11-7.47-4.38-3.92-15-3.43-23,.39-6.37,5.78-9.73,10.27-13.34C417.55,336.6,443,316.64,467.89,296a45,45,0,0,1,30.44-10.85c75.37.22,150.73,0,226.1.1,21.26,0,26.27,7.33,19.45,28a108.88,108.88,0,0,1-5.58,13.31c-6.42,13.29-5.45,27.44-3.51,41.16,2.05,14.53,14.19,14.92,25.77,14.85,7.49,0,14.71.18,15.69-10.3,2.35-25.16,13-48.24,18.79-72.53,2.61-10.93,8.85-14.74,19.64-14.57,23.66.37,47.35.17,71,0,8.46-.07,17.54,1.73,23.32-7.65,2.15-3.49,6.3-3.22,8.17.67,4.18,8.68,12,6.9,18.94,6.94,37.2.17,74.43.87,111.59-.26,18.39-.56,29.33,5.42,37.24,22.45,9.88,21.24,19.2,43.1,34.2,61.66v28.91c-5.71.39-11.45,1.35-17.13,1.06-11.49-.59-13.17,3.66-8.69,13.59C1102.34,432.51,1110.6,452.83,1119.16,473Z"/><path class="cls-1" d="M1014.75,97.18c29.7,7.17,52.36,25.27,68.42,49.8,12.23,18.67,11.9,41.22,6.55,62.9C1077.84,258.11,1022,290.56,978,270.82c-70.75-31.76-88.69-98.27-36.92-151.44,11.33-11.65,26.57-17.19,41.78-22.2Zm34.44,87c0-30-20.51-52.29-48.11-52.25-27.42,0-50.12,25.08-49.94,55.08s20,50.45,48.58,50.11S1049.16,214.38,1049.19,184.23Z"/><path class="cls-1" d="M605.32,166.58c0-16.37-.21-32.74,0-49.12.25-15.27,3.41-17.34,21.06-17.6,12.13-.19,18.88,2.89,18.46,17-.84,27.9-.3,55.85-.17,83.79A148.51,148.51,0,0,0,646,217.93c1.54,12.46,8.8,19.25,21.38,18.81,13-.46,18.89-8.68,19-21,.28-32.26.17-64.53.36-96.79.09-17.09,2.24-19.1,19.07-19s19.49,2.35,19.16,19.33c-.69,35.1,3.51,70.44-2.39,105.27-7,41.22-39.37,53.72-73.74,50.07-20-2.12-43.81-28.11-43.49-57.49C605.48,200.3,605.33,183.44,605.32,166.58Z"/><path class="cls-1" d="M895.62,142.91c-1.14,4.84,5.24,18.42-4,21.26-10.6,3.24-9.6-11.71-13.86-18.35-18.78-29.24-59.87-29.24-76.2,1.31-15.36,28.71-14.14,58.83-.48,87.66,10.51,22.19,40.89,27.8,64.41,13.43,5.31-3.25,9.86-7.7,14.8-11.55,2.89-2.25,5-6.94,9.52-4.94,5.07,2.26,3.45,7.46,3.26,11.58-.42,8.81-7.17,13.32-13.4,17.78-26.68,19.14-67.32,20.08-96,2.45-28.94-17.77-42.6-48-36.78-81.43,6.37-36.63,31.05-63.08,65.29-71.27,17.76-4.24,34.47-1.47,51.09,4.5,7.75,2.79,14.69,6.28,21.92-2.61,5.35-6.58,9.66-1.41,10.34,4.76C896.22,124.62,895.62,131.9,895.62,142.91Z"/><path class="cls-1" d="M577.29,170.8c0,18.28-.52,36.57.11,54.83,1.32,38.1-46.34,64.26-78.22,41.1-8-5.79-17.72-12.18-11.07-24.56,7.88-14.68,21.31-18.93,33.36-11.32,10.08,6.36,13.93,4.09,14-9.45.28-33.19,0-66.38.26-99.58.06-6.83-2.79-15.7,5.58-19.39,9.94-4.39,20.84-3.78,31.1-.39,5.65,1.87,4.92,7.77,5,12.47.13,18.76.05,37.52.05,56.28Z"/></svg>