<svg id="Logos_Patrocinadores" data-name="Logos Patrocinadores" xmlns="http://www.w3.org/2000/svg" viewBox="0 0 1500 600"><defs><style>.cls-1{fill:#7a97ab;}</style></defs><path class="cls-1" d="M353.17,170.9c-10.41,3.66-21.32,6.32-31.15,11.16-33.29,16.39-55.47,42.45-65.38,78.51a4.14,4.14,0,0,1-1.3,2.12V170.9Z"/><path class="cls-1" d="M504.3,170.9v91.65c-3-7.75-5.35-15.76-9-23.12-17.91-36.06-47.12-58-85.92-67.7a17.09,17.09,0,0,1-2.11-.83Z"/><path class="cls-1" d="M1235.89,393.1c-.88.24-1.21.23-1.34.38-26.11,29.52-71.66,22.81-87.52-13.4-9.82-22.42-10.42-45.69-.59-68.33,12.62-29.07,43.19-36.14,66.85-28.39a39.09,39.09,0,0,1,18.46,13.28c.79,1,1.63,1.95,3.21,3.85v-60h34.8v168H1254c-4.78,0-9.56-.17-14.32.06-3.07.15-3.94-1-3.79-3.9.19-3.77.05-7.56.05-11.5M1237,350c-.74-6.72-1.08-11.35-1.8-15.91a38.37,38.37,0,0,0-2.2-7.6c-4.48-11.68-13.42-17.89-25.85-18.1-13.28-.22-23,5.62-27.57,17.39-5.4,13.88-5.44,28,.33,41.78,4.66,11.13,13,17.47,25.47,17.39,13.21-.07,23.27-6.27,27.64-18.08,2.22-6,3-12.49,4-16.87"/><path class="cls-1" d="M785.56,240.28h34.59v59l.92.26c1.16-1.35,2.34-2.68,3.49-4,7.91-9.3,18.14-13.83,30.16-14.78,32.68-2.58,56.1,18.88,60,51.8,1.93,16.48.38,32.49-6.34,47.81-14,31.87-47.7,36.33-70.43,27.25-7.31-2.92-13-7.95-18.25-14.35v14.9h-34.1ZM854.63,385c7.34,0,15.54-5.87,20.35-16.45,5.59-12.32,5.86-25.15,2.41-38-3.91-14.63-14.14-22.27-29-22.09-14.16.17-24.42,8.08-27.41,22.81a90.1,90.1,0,0,0-1.54,25.17c1.47,17.67,13.68,28.52,35.2,28.6"/><path class="cls-1" d="M638,354.7H546.14c-2.74,12.42,7.13,26.64,20.56,29.9,7.5,1.82,15,1.77,22.2-1.29a20,20,0,0,0,10.18-9.07,3.79,3.79,0,0,1,2.48-2c10.33-.14,20.67-.11,31-.09.89,0,1.78.15,3.05.27-3.81,12.21-10.72,21.75-21.13,28.63-13.24,8.75-28.09,11.66-43.61,10.22a112.28,112.28,0,0,1-25.13-5.06c-15-5-25-15.67-30.22-30.5-6.42-18.22-7.33-36.8-1.5-55.36,6.94-22.11,22.41-34.74,45-38.65,12.51-2.17,25.12-2,37.39,1.69,22.19,6.59,34.59,22.15,38.88,44.32,1.66,8.6,1.85,17.49,2.77,26.95m-37-21.07c.72-14.78-12.08-27-27.64-26.65s-27.71,12.39-26.55,26.65Z"/><path class="cls-1" d="M1066.59,346.23c0,23.53-8,43-29,55.5-13.75,8.18-28.93,10.66-44.71,9.73A74.69,74.69,0,0,1,962,403.28c-18.13-9.55-28.14-24.81-31.18-44.77-2-13.43-1.25-26.73,3.84-39.46,8.88-22.19,26.36-33.47,49.08-37.35,15.25-2.61,30.44-1.67,44.9,4.27,23.84,9.78,35.92,28.14,37.9,53.51.17,2.24,0,4.5,0,6.75m-101.43,2.21.58.13c.48,3.54.76,7.11,1.47,10.6,3.14,15.52,13.76,24.67,28.86,25.05,18.13.45,29.12-7.17,33.13-23.2a60.21,60.21,0,0,0,.33-28.31c-3.45-15.15-11.8-23.19-27-24.74-16.34-1.67-29.5,4.62-34.3,21.38-1.76,6.15-2.08,12.72-3.06,19.09"/><path class="cls-1" d="M706.54,375.31c.51-1.59,1.05-3.18,1.53-4.78q12.38-41.44,24.7-82.91c.85-2.9,2.13-3.92,5.22-3.86,10.72.21,21.45.08,32.49.08a17.83,17.83,0,0,1-.54,2.45c-17.53,46.69-35,93.41-52.74,140a115.07,115.07,0,0,1-10.08,19.74c-5.18,8.28-13.35,11.76-23,11.83-8.74.06-17.49,0-26.57,0V433c5.23-.33,10.42-.21,15.44-1.06,10.12-1.7,16.33-13.12,12.69-22.68Q662.83,349.17,640,289.06c-.6-1.58-1.12-3.18-1.83-5.2,12.64,0,24.82-.1,37,.17,1,0,2.54,2.31,3,3.8q13,41.06,25.72,82.18c.54,1.75,1.16,3.48,1.75,5.22l.94.08"/><polygon class="cls-1" points="406.68 378.3 496.75 378.3 496.75 408.14 369.47 408.14 369.47 240.36 406.68 240.36 406.68 378.3"/><rect class="cls-1" x="1084.5" y="240.41" width="34.34" height="167.77"/><path class="cls-1" d="M255.58,316.7c14,49.06,46.55,78.66,94.88,92.08H255.58Z"/></svg>