<svg id="Logos_Patrocinadores" data-name="Logos Patrocinadores" xmlns="http://www.w3.org/2000/svg" viewBox="0 0 1500 600"><defs><style>.cls-1{fill:#7a97ab;}</style></defs><path class="cls-1" d="M322.38,450.51V160h856.68V450.51Zm836.05-20.23V180.66H341.3V430.28Z"/><path class="cls-1" d="M517.18,259H485.8V408H438.55V259.14H407.46V407.75H360.74V203.55H563.53V407.68H517.18Z"/><path class="cls-1" d="M637.19,407.73H590.35V203.4H721.16V407.82H674.92V352.09H637.19ZM673.87,259.4H637.8V302h36.07Z"/><path class="cls-1" d="M747.86,203.28h46.49v77.65H838V203.48h47v204H838.57v-77H794.88v77.34h-47Z"/><path class="cls-1" d="M1085.49,251.42v30h54.64v48.26h-54.47v30H1140v48H1038.47V203.57h101.72v47.85Z"/><path class="cls-1" d="M1011.81,359.64V408h-101V203.32h46.55V359.64Z"/></svg>