<svg id="Logos_Patrocinadores" data-name="Logos Patrocinadores" xmlns="http://www.w3.org/2000/svg" viewBox="0 0 1500 600"><defs><style>.cls-1{fill:#7a97ab;}</style></defs><path class="cls-1" d="M658.52,202.84a2,2,0,0,0,.91.32l1.74.1a30.83,30.83,0,0,1,4.07.3c.31.05.64.06,1,.08a23.5,23.5,0,0,1,2.51.28c1,.17,2.06.2,3.07.45a104.32,104.32,0,0,1,15.65,3.68A128.34,128.34,0,0,1,708.69,217a143.65,143.65,0,0,1,19.5,12.33c1.71,1.29,3.39,2.62,5,4a1.46,1.46,0,0,1,.37.45.38.38,0,0,1,0,.36,3.59,3.59,0,0,1-.48.61c-1.56,1.64-3.14,3.27-4.71,4.9L701.7,267.31c-.4.42-.8.85-1.22,1.26s-.65.38-1.15-.05l-.28-.27A69.41,69.41,0,0,0,687,259.17a62.74,62.74,0,0,0-11.4-5.36,61.6,61.6,0,0,0-7.48-2c-1.28-.16-2.54-.5-3.84-.54a5.67,5.67,0,0,1-.58-.05,38.66,38.66,0,0,0-7-.2c-.46,0-.91.08-1.36.13s-.64.1-1,.13a41.08,41.08,0,0,0-8.7,1.9A58.67,58.67,0,0,0,638,256.3a88.59,88.59,0,0,0-8.28,4.66c-3.23,2-6.36,4.23-9.43,6.49-3.91,2.88-7.74,5.87-11.54,8.88q-8.15,6.45-16.3,12.89c-2.59,2-5.22,4-7.85,6a112.29,112.29,0,0,1-15.9,10,142.14,142.14,0,0,1-20,8.54c-5.33,1.83-10.74,3.36-16.21,4.68-3,.72-6,1.38-9.1,1.94-1.91.35-3.81.75-5.74,1-1.26.31-2.57.33-3.83.62-1.49.1-2.94.45-4.43.55-.45,0-.9.12-1.35.18s-.89.12-1.35.15c-.9.08-1.8.15-2.7.29-.64.1-1.29.11-1.93.16s-1.17.05-1.74.13a32.37,32.37,0,0,1-3.68.28c-1.16.05-2.33.11-3.49.23-.51.06-1,.07-1.55.09l-3.3.09c-5.24.08-10.48.1-15.73,0-1,0-1.94-.05-2.9-.14s-1.68-.11-2.52-.14a36.93,36.93,0,0,1-4.07-.28,12.26,12.26,0,0,0-1.35-.1,20.54,20.54,0,0,1-2.71-.26,7.61,7.61,0,0,0-1-.1,19.27,19.27,0,0,1-2.51-.28c-.38-.08-.77-.08-1.16-.13l-1.53-.2c-.32-.05-.64-.11-1-.15-1.42-.16-2.82-.4-4.22-.64L445,321.3c-4.49-.8-9.45-1.91-14.36-3.27a169.2,169.2,0,0,1-41.79-17.9,189,189,0,0,1-22.38-15.71c-4.68-3.8-9.16-7.82-13.49-12a14.25,14.25,0,0,1-1.48-1.53.43.43,0,0,1,0-.53c.4-.42.79-.85,1.21-1.26l12.42-12.29L385,237.16c.36-.36.75-.7,1.14-1a.45.45,0,0,1,.53,0c.15.13.31.24.44.37a124.42,124.42,0,0,0,14.22,12,148.89,148.89,0,0,0,28.18,16.29,138.73,138.73,0,0,0,19.54,6.94q4.95,1.35,10,2.33c1.85.36,3.7.63,5.54,1,1.42.09,2.81.47,4.24.51,1.78.35,3.61.29,5.4.58a3.77,3.77,0,0,0,.58,0c3.88.12,7.76.44,11.65.33,1.48-.05,3-.08,4.46-.18s2.71-.12,4.07-.16a30.16,30.16,0,0,0,3.29-.25c.45-.06.9-.08,1.36-.11s.9,0,1.35-.08c1.74-.21,3.48-.35,5.21-.6.44-.07.9-.11,1.34-.17s1-.13,1.54-.22c1.08-.19,2.19-.25,3.26-.52,1.79-.23,3.57-.61,5.34-1,2.6-.53,5.17-1.15,7.73-1.85a111.37,111.37,0,0,0,22.22-8.58,91.77,91.77,0,0,0,20.24-14.28l2.11-2q5-4.89,10.23-9.52a165.57,165.57,0,0,1,19.38-14.89,134.86,134.86,0,0,1,17.1-9.54A106.53,106.53,0,0,1,634,206.23a72.53,72.53,0,0,1,8.15-1.77c1.19-.33,2.43-.33,3.63-.6a11.11,11.11,0,0,1,1.16-.12c.39,0,.78,0,1.16-.1a31.92,31.92,0,0,1,4.25-.36c.46,0,.91-.06,1.36-.1a2.31,2.31,0,0,0,.91-.32Z"/><path class="cls-1" d="M655.43,418.43a1.41,1.41,0,0,0-.71-.3c-.51-.05-1-.1-1.54-.12a32.65,32.65,0,0,1-4.07-.31c-.44-.07-.9-.06-1.35-.11s-1-.11-1.54-.18c-.26,0-.51-.1-.77-.12-.9-.07-1.8-.21-2.69-.36l-2.49-.4a104.28,104.28,0,0,1-16.51-4.27,96.66,96.66,0,0,1-24.25-12.46,81.21,81.21,0,0,1-10.69-9c-.91-.92-1.77-1.89-2.65-2.84-.22-.24-.39-.51-.59-.77a.55.55,0,0,1,0-.55c.12-.14.24-.3.37-.44l1.23-1.24q15.3-15.32,30.61-30.64a20,20,0,0,1,1.82-1.74.57.57,0,0,1,.55,0s.11.07.16.11l.42.39a60.68,60.68,0,0,0,23.9,14,41.14,41.14,0,0,0,5.65,1.37c1.2.33,2.44.34,3.64.61l.19,0c1.94.08,3.87.36,5.81.35a29.3,29.3,0,0,0,3.11-.15,11.11,11.11,0,0,1,1.16-.09c1.62,0,3.21-.38,4.82-.56a73,73,0,0,0,7.16-1.69A72,72,0,0,0,691,360.61a77,77,0,0,0,11-7.54c.3-.25.61-.48.92-.72a.65.65,0,0,1,.72,0c.38.36.76.71,1.11,1.08q5.37,5.63,10.73,11.24l19.17,20.09c.4.42.78.86,1.17,1.29a.47.47,0,0,1,0,.54c-.23.31-.45.63-.7.93-1.27,1.47-2.62,2.86-4,4.21a86.32,86.32,0,0,1-12.78,10.09A97.37,97.37,0,0,1,697.92,412a101.64,101.64,0,0,1-12.67,3.62c-2.09.45-4.18.9-6.29,1.18-1.32.34-2.7.33-4,.62-.38.07-.77.07-1.16.11a11.11,11.11,0,0,0-1.16.1,35.64,35.64,0,0,1-4.25.35c-.45,0-.9.07-1.35.12a1.42,1.42,0,0,0-.71.31Z"/><path class="cls-1" d="M1145,354.87a5.62,5.62,0,0,0-.57-.09h-1.94l-24.27.09c-.65,0-1.3,0-1.94,0a.59.59,0,0,1-.46-.32,10.09,10.09,0,0,1-.52-1c-1-2.26-1.91-4.53-2.86-6.79-.53-1.25-1-2.51-1.59-3.75a8.68,8.68,0,0,0-.46-.85.7.7,0,0,0-.49-.29,3.69,3.69,0,0,0-.58,0h-1.74l-27.38.1-1.75,0c-1,0-1.07.17-1.43,1-.59,1.37-1.11,2.76-1.67,4.14l-2.67,6.66c-.12.3-.25.6-.4.89a.74.74,0,0,1-.6.43c-.58,0-1.16.05-1.74.05l-17.47.06-5,0q-.59,0-1.17,0a.43.43,0,0,1-.41-.52c.14-.43.27-.86.43-1.28q3.51-9.26,7-18.5l10.75-28.29,15.17-39.89a6.61,6.61,0,0,1,.61-1.42.82.82,0,0,1,.63-.4c.39,0,.77,0,1.16,0l25.05-.09c.39,0,.78,0,1.16,0a.81.81,0,0,1,.62.42,7,7,0,0,1,.41.88c1.54,3.77,3.09,7.54,4.62,11.31q6.93,17,13.84,34,7.42,18.23,14.86,36.47.88,2.14,1.76,4.31a10.12,10.12,0,0,1,.68,2,.68.68,0,0,0,.38.42Zm-51-33.11,9.3,0h1.55c.19,0,.39,0,.58,0a.53.53,0,0,0,.51-.66c-.15-.49-.3-1-.47-1.47q-1.1-3-2.2-6-4-11-8.09-22c-.17-.48-.37-1-.57-1.43a.34.34,0,0,0-.31-.19.33.33,0,0,0-.34.14,5.47,5.47,0,0,0-.56,1.23l-2.13,5.61-8.53,22.44c-.16.42-.33.84-.47,1.27a2.21,2.21,0,0,0-.11.57.59.59,0,0,0,.08.37.52.52,0,0,0,.32.18c.45,0,.91.05,1.36.05Z"/><path class="cls-1" d="M742.62,311l-.15-42c0-.64,0-1.29,0-1.94a2.82,2.82,0,0,1,.09-.57.72.72,0,0,1,.52-.52,5.51,5.51,0,0,1,.57-.06h1.56l27.18-.1c.65,0,1.3,0,2,0a.88.88,0,0,1,.74.55c.22.47.38,1,.57,1.44q4.65,12.35,9.32,24.69,3.32,8.81,6.64,17.61c.16.43.32.85.5,1.27a.83.83,0,0,0,.73.55,14,14,0,0,0,3.1,0,.59.59,0,0,0,.45-.32,6.44,6.44,0,0,0,.34-.7c.18-.48.35-1,.52-1.46q7.5-21,15-42a11.29,11.29,0,0,1,.51-1.25.72.72,0,0,1,.61-.43c.58,0,1.16,0,1.74,0l21.95-.08,6.8,0c.38,0,.77,0,1.16.06a.73.73,0,0,1,.55.48,3.82,3.82,0,0,1,.11.57q0,1.06,0,2.13.09,22.72.17,45.45.07,19.13.14,38.26c0,.71,0,1.42,0,2.13a3.85,3.85,0,0,1-.08.58.74.74,0,0,1-.52.51,5.7,5.7,0,0,1-.58.06h-1.36l-20,.08a9,9,0,0,1-1.94-.08.66.66,0,0,1-.3-.23.92.92,0,0,1-.13-.36,6.78,6.78,0,0,1-.05-.77c0-.65,0-1.3,0-1.95l-.18-49.91a13.79,13.79,0,0,0-.07-2.13.25.25,0,0,0-.26-.23.32.32,0,0,0-.32.16q-.32.72-.57,1.44l-10.38,28.85q-4.2,11.68-8.41,23.37c-.17.48-.35,1-.56,1.44a.69.69,0,0,1-.59.44l-1,.05-5.24,0H790a2.29,2.29,0,0,1-.58-.06.6.6,0,0,1-.31-.21,6,6,0,0,1-.65-1.4l-6.13-16.14q-6.4-16.87-12.79-33.75c-.48-1.27-1-2.55-1.44-3.81-.14-.36-.32-.71-.48-1.06a.29.29,0,0,0-.47.06.79.79,0,0,0-.1.37c0,.64,0,1.29,0,1.94q0,8.14,0,16.31.08,17.28.13,34.57c0,.71,0,1.42,0,2.14a2.82,2.82,0,0,1-.09.57.69.69,0,0,1-.52.5c-.52,0-1,.07-1.55.07l-9.71,0-10.29,0c-.52,0-1,0-1.56,0a.71.71,0,0,1-.53-.49,3.78,3.78,0,0,1-.1-.57c0-.65,0-1.3,0-1.94Q742.69,332.12,742.62,311Z"/><path class="cls-1" d="M862.94,310.66q-.08-21.15-.16-42.32c0-.71,0-1.42,0-2.13a.75.75,0,0,1,.64-.62l.58,0h1.75l49.89-.18h2.14a20.06,20.06,0,0,1,2.9.16c.39.06.78.08,1.16.11a24.69,24.69,0,0,1,6.79,1.53,18.09,18.09,0,0,1,4.1,2.17,16.46,16.46,0,0,1,4.87,5.46,20.27,20.27,0,0,1,1.85,4.47,23.21,23.21,0,0,1,.91,4.95c0,.26,0,.52.08.78a23.85,23.85,0,0,1,.2,3.87,15.21,15.21,0,0,1-.12,2.13,11.11,11.11,0,0,0-.12,1.16,22,22,0,0,1-1.22,5.67,17.39,17.39,0,0,1-2.87,5.26,15.79,15.79,0,0,1-7.2,5.07c-.49.17-1,.32-1.48.47a.46.46,0,0,0-.29.24c0,.1.16.28.4.34s.74.2,1.12.28a16.64,16.64,0,0,1,11.14,8,22.31,22.31,0,0,1,2.35,5.93,30.76,30.76,0,0,1,.88,6.72c0,1.1,0,2.2,0,3.3a22.79,22.79,0,0,1-1.07,6.29,20.25,20.25,0,0,1-8,10.88,27,27,0,0,1-6.95,3.4A27.33,27.33,0,0,1,922,355.3a15,15,0,0,1-3.47.3l-53.2.19a7.26,7.26,0,0,1-1.74-.08.67.67,0,0,1-.37-.4c0-.19-.06-.38-.07-.58,0-.51,0-1,0-1.55,0-2.46,0-4.92,0-7.38Zm36.39,9.6-12.21.05c-.58,0-1.16,0-1.74.07a.56.56,0,0,0-.34.17.69.69,0,0,0-.17.34,2.8,2.8,0,0,0-.08.57c0,.46,0,.91,0,1.36,0,3.94,0,7.88,0,11.82,0,.46,0,.91,0,1.36a5.62,5.62,0,0,0,.09.57.77.77,0,0,0,.52.52,8.43,8.43,0,0,0,1.74.08l23.64-.08a14.5,14.5,0,0,0,3.08-.31,8.93,8.93,0,0,0,3.81-1.82,6.63,6.63,0,0,0,2-2.8,9.51,9.51,0,0,0,.54-3.81c0-.38-.1-.77-.14-1.15a7.22,7.22,0,0,0-.6-2.24,7.3,7.3,0,0,0-2.68-3.24,8.45,8.45,0,0,0-4.53-1.5c-.52,0-1,0-1.55,0Zm-.45-35.68-11.84,0-1.16,0-.39,0a.74.74,0,0,0-.78.7c0,.51-.08,1-.07,1.54q0,6.21,0,12.42c0,.32,0,.65,0,1a3.78,3.78,0,0,0,.1.57.78.78,0,0,0,.54.5,5.42,5.42,0,0,0,.58.06h1.94l20.56-.08c.84,0,1.69,0,2.53,0a8.41,8.41,0,0,0,2.11-.26,6.76,6.76,0,0,0,4.94-4.25,10.6,10.6,0,0,0,.61-5.52c-.06-.39-.14-.77-.22-1.15a7.34,7.34,0,0,0-1.13-2.65,6.67,6.67,0,0,0-5.39-3c-.52,0-1,0-1.56,0Z"/><path class="cls-1" d="M1038.33,310l.15,42.53a12.67,12.67,0,0,1-.06,2.13.73.73,0,0,1-.37.4,2.79,2.79,0,0,1-.38.07l-1,0-18.64.07-1.16,0a.74.74,0,0,1-.7-.77c0-.65,0-1.3,0-1.94l-.12-29.91a12.65,12.65,0,0,0-.07-2.13.71.71,0,0,0-.49-.53,5.58,5.58,0,0,0-.57-.08q-.78,0-1.56,0l-6.41,0-25.82.1c-.71,0-1.43,0-2.14.07a.55.55,0,0,0-.34.17.69.69,0,0,0-.17.34,4,4,0,0,0-.09.77c0,.71,0,1.42,0,2.13q0,14.37.1,28.74c0,.72,0,1.43,0,2.14a3.48,3.48,0,0,1-.12.56.6.6,0,0,1-.39.4.85.85,0,0,1-.38.07l-1.56,0-17.67.07c-.58,0-1.16,0-1.74-.05a.65.65,0,0,1-.52-.5c0-.2-.07-.39-.08-.58,0-.58,0-1.16,0-1.75q-.16-42.22-.31-84.47c0-.58,0-1.17,0-1.75a3.72,3.72,0,0,1,.08-.57.76.76,0,0,1,.54-.5,6.48,6.48,0,0,1,.77-.07l3.69,0,14-.05h1.36l.38,0a.81.81,0,0,1,.65.63c0,.65,0,1.29,0,1.94l.09,24.28c0,2.33,0,4.66,0,7,0,.45,0,.9.05,1.35a.81.81,0,0,0,.65.64,5.51,5.51,0,0,0,.57.06h1.36l34.18-.12,1.55,0a1.41,1.41,0,0,0,.57-.14.57.57,0,0,0,.36-.42,2.82,2.82,0,0,0,.09-.57c0-.64,0-1.29,0-1.94q-.06-15-.11-30.1c0-.71,0-1.42,0-2.13a.67.67,0,0,1,.47-.55l.38-.07.58,0,18.64-.07.59,0c.57,0,.86.28.88.8,0,.71,0,1.42,0,2.14Q1038.24,288.93,1038.33,310Z"/></svg>