<svg id="Logos_Patrocinadores" data-name="Logos Patrocinadores" xmlns="http://www.w3.org/2000/svg" viewBox="0 0 1500 600"><defs><style>.cls-1{fill:#7a97ab;}</style></defs><path class="cls-1" d="M834.32,68.9c-4.38,5.47-8.17,10.25-12,15q-33.12,41-66.31,81.86c-1.23,1.51-3.34,3.28-5.06,3.3-20.81.22-41.62.14-63.58.14,1.65-2.25,2.69-3.8,3.86-5.25q37.37-46.18,74.85-92.28c1.28-1.57,3.7-3.12,5.61-3.14,19.83-.22,39.66-.13,59.49-.11A30.81,30.81,0,0,1,834.32,68.9Z"/><path class="cls-1" d="M785.66,168.73c4.61-5.76,8.59-10.8,12.63-15.79q32.64-40.38,65.25-80.77a9.14,9.14,0,0,1,8-3.87c20,.15,40,.07,61.22.07-1.92,2.55-3.18,4.34-4.55,6q-37,45.81-74.16,91.53c-1.29,1.58-3.73,3.1-5.65,3.13-19.82.22-39.65.13-59.48.11C788.25,169.18,787.6,169,785.66,168.73Z"/><path class="cls-1" d="M589.1,169c8.61-10.69,16.48-20.53,24.41-30.32q27.16-33.57,54.47-67a8.59,8.59,0,0,1,5.64-3.07c19.82-.22,39.65-.13,59.48-.11a20,20,0,0,1,2.42.36,18.37,18.37,0,0,1-1.61,3.06q-37.78,46.8-75.6,93.6a9.18,9.18,0,0,1-8,3.86c-18.67-.16-37.33-.07-56-.08C593,169.21,591.68,169.08,589.1,169Z"/><path class="cls-1" d="M365.13,296.41c13.3-6,25.88-11.45,37-1.13,9.51-1.94,18-4.6,26.54-5.18,11.21-.75,18.44,7.07,18.47,18.2,0,14.64-.09,29.29.08,43.93,0,3.62-.93,5.16-4.76,4.89a80,80,0,0,0-12,0c-4.27.35-5.86-.95-5.74-5.5.3-12,.12-24,.09-35.94,0-6.15-.87-6.95-6.94-6.64-.5,0-1,0-1.5.07-9.06.69-9.33,1-9.33,10,0,11-.15,22,.07,32.94.08,4-1.34,5.31-5.21,5.07a86.78,86.78,0,0,0-12.49,0c-4.34.34-5.38-1.55-5.31-5.51.18-11.64.07-23.29.06-34.94,0-7.68-.59-8.19-8.39-7.57-.33,0-.66,0-1,.06-8.42,1-8.63,1.22-8.63,9.69,0,11.15-.13,22.3.08,33.44.06,3.73-1.12,5-4.85,4.82-4.65-.27-9.33-.14-14-.05-2.54.05-3.58-1-3.57-3.53q.07-29.44,0-58.9c0-2.89,1.33-3.78,4-3.7,3.16.09,6.34.17,9.5,0C361.25,290.65,364.71,290.89,365.13,296.41Z"/><path class="cls-1" d="M508.4,477.16c-7.72.58-15.12,1.5-22.54,1.62-14,.24-20.9-6.77-20.92-20.68,0-7.81-.14-15.62,0-23.43.27-12,7.56-19,19.59-19,13.82,0,27.64.1,41.45-.07,3.74,0,5.26.83,5.23,4.95-.2,21.27,0,42.55-.13,63.83-.05,11.26-7.3,18.55-18.45,18.42-12.3-.14-24.59-.64-36.88-1.09a50.17,50.17,0,0,1-6.62-1.13v-15c11.1,0,21.84,0,32.59,0C507.94,485.5,509.13,484.05,508.4,477.16Zm.4-44.22c-5.76,0-10.87.11-16,0-3.72-.11-5,1.71-5,5.15q.07,9,0,17.9c0,3.29,1.41,5,4.75,4.92,4.31-.09,8.65,0,12.92-.47,1.21-.14,3.12-2.05,3.17-3.21C508.94,449.43,508.8,441.64,508.8,432.94Z"/><path class="cls-1" d="M769.85,485.53c11.43,0,22.19,0,32.94,0,6.44,0,7.35-1.12,6.65-8.58-4,.46-8,1.09-12,1.35a106.81,106.81,0,0,1-14.95.37c-8.73-.69-15.13-6.46-15.67-15.28a244.67,244.67,0,0,1,.17-32.83c.67-9.13,7.9-14.84,17-14.89,14.49-.08,29,.1,43.49-.1,3.84-.05,4.75,1.31,4.73,4.91-.14,21.63,0,43.25-.1,64.88,0,10.1-7.2,17.47-17.29,17.4-12.81-.09-25.61-.7-38.41-1.06-4.65-.13-7.5-1.64-6.68-7.13C770.24,491.35,769.85,488,769.85,485.53Zm40-52.59c-3.17,0-5.63,0-8.09,0-14,.08-12.63-1.53-12.66,12.41,0,17,0,17.07,17,15.11,1.36-.15,3.53-2.1,3.58-3.29C810,449.4,809.82,441.6,809.82,432.94Z"/><path class="cls-1" d="M971.59,351.36c-9.41,5.72-18.72,7.3-28.62,6.79-9.41-.49-16.57-6.17-17-15.46-.54-11.25-.16-22.54-.18-33.82,0-9.73,7-17.44,19.36-17.87,6.82-.24,13.67-.2,20.49,0,3.51.11,4.77-1.22,4.62-4.63-.18-4,0-8,0-12-.08-3,1.18-4.23,4.15-4.17,4.67.1,9.33.12,14,0,3.15-.09,4.51,1.1,4.5,4.36q-.11,39.15,0,78.32c0,3.32-1.42,4.37-4.55,4.2a69.25,69.25,0,0,0-10,0C974.41,357.45,971.73,356.55,971.59,351.36Zm-23.51-27.44c0,3.32.1,6.64,0,10-.17,4.32,2,6.2,6.08,5.83s8.18-1.23,12.29-1.65c3-.3,3.84-1.91,3.79-4.66-.1-5.81,0-11.62,0-17.43,0-7.15,0-7.21-7.07-7.16C945.33,308.92,948.38,307.06,948.08,323.92Z"/><path class="cls-1" d="M943.66,457.91c-1.18,5,.74,7,5.24,7h34.18c0,3.74.25,8.34-.19,12.89-.1,1-2.51,2.64-3.91,2.7-14.44.58-28.9,1.34-43.35,1.13-8.13-.12-14.54-8-14.71-16.82q-.33-16.2,0-32.41c.18-9.81,6.16-17,16.05-17.77a216.5,216.5,0,0,1,31.4-.23c10.94.71,16.51,6.95,17.28,18.24.48,6.95.05,14,.18,20.94.06,3.56-2,4-4.84,4-10.65-.05-21.31,0-32,0C947.23,457.58,945.45,457.79,943.66,457.91Zm9.28-17a35.37,35.37,0,0,1,4.49,0c4.46.58,5.92-1.31,5.58-5.67-.23-3.09-1.31-4.67-4.44-4.67-3.33,0-6.66,0-10,0-4.58-.08-5.34,2.7-5.47,6.53-.14,4.32,2.7,3.76,5.33,3.8C949.94,441,951.44,441,952.94,441Z"/><path class="cls-1" d="M499.61,333.1c-5.5,0-11,0-16.49,0-2.35,0-4.41.06-4.26,3.29.12,2.76,1.22,4.45,4.2,4.38,9.47-.22,19-.13,28.41-.79,6.91-.48,7.42-.53,7.31,6.56-.16,10.94,1.57,9.15-9.6,10.23-10.9,1.05-21.92,1.14-32.89,1.24-13.22.12-20.35-7.11-20.31-20.4,0-10.79-.24-21.64.85-32.34,1-9.46,7.84-15,17.4-15.29s19.33-.34,29,0c10.42.4,17.42,7.81,17.8,18.48.25,6.81-.06,13.64.1,20.46.09,3.36-1.4,4.29-4.51,4.21C510.93,333,505.27,333.09,499.61,333.1Zm-11.34-16.28a29,29,0,0,1,4.47,0c5.14.81,5.78-2.06,5.46-6.14-.25-3-1.63-4.55-4.67-4.55-2.82,0-5.64.11-8.45-.06-4.45-.26-6.14,1.71-6.35,6.13-.25,5,2.79,4.71,6,4.59C485.94,316.79,487.1,316.82,488.27,316.82Z"/><path class="cls-1" d="M584.24,475.85c-10.31,5-20.06,8.52-31,6.07-7.17-1.61-12.25-6.4-13.37-13.67a50,50,0,0,1-.5-11.91c1-11.37,7.66-17,20.31-17.32,7.46-.2,14.93,0,22.23,0,1.39-6.06.57-7.41-4.8-7.32q-12.47.22-24.92,1.06c-6.46.44-6.94.21-7-6.11-.11-10.84-.11-10.75,11-11,10.47-.21,20.93-.83,31.4-.93s17.55,7.1,17.6,17.53c.08,14.8-.09,29.61.1,44.41,0,3.7-1.14,5.15-4.84,4.91a64.22,64.22,0,0,0-9,0C587.53,481.84,584.44,481.26,584.24,475.85Zm-2.06-20c-5.12,0-10.08,0-15,0-2.74,0-5,.33-5.06,3.88s1.91,4.95,4.95,4.78c3.79-.22,7.54-1.08,11.33-1.44C582.67,462.63,583.63,460.34,582.18,455.82Z"/><path class="cls-1" d="M893.16,314.91c1.25-6.47.39-7.85-5.12-7.72-9,.22-17.94.51-26.87,1.25-3.53.29-4.29-.79-4.37-4-.32-12-.42-12.21,11.2-13.1,9.77-.75,19.6-1.1,29.39-1.07,12.31,0,19.17,6.89,19.35,19.2.22,14.29,0,28.59.12,42.88,0,3.76-1.43,5-5,4.73a67.85,67.85,0,0,0-10,0c-3.76.27-6.22-.75-6.13-5.67a48.93,48.93,0,0,1-27.57,6.72c-10.08-.56-17.14-7.29-17.3-17.41,0-2.33,0-4.66,0-7,0-11.45,7.12-18.66,18.62-18.83C877.4,314.82,885.35,314.91,893.16,314.91Zm.11,16.27c-5.35,0-10.65-.34-15.84.21-1.55.17-3.77,2.77-3.92,4.41-.11,1.21,2.53,3.67,4.14,3.84,3.53.38,7.17-.45,10.78-.6C893.26,338.84,895,336.55,893.27,331.18Z"/><path class="cls-1" d="M1036.88,358.07c-5.32,0-10.65.07-16,0-10-.15-17.67-7.16-17.95-17-.32-11.3-.34-22.62,0-33.92.3-9.62,7.57-16.76,17.46-17.11,11-.39,22-.38,33,0,10.54.34,17.59,7.87,17.73,18.4s.14,20.95,0,31.42c-.14,11.05-7.56,18.18-18.75,18.26C1047.21,358.11,1042.05,358.08,1036.88,358.07Zm-11.69-34c0,3.82,0,7.65,0,11.47,0,3.45,1.65,5.24,5.19,5.22,4.16,0,8.33-.11,12.49,0s6.08-1.7,6-5.95c-.13-7.15-.15-14.3,0-21.44.09-4-1.74-6-5.49-6.17-4.32-.19-8.67-.21-13,0-3.47.19-5.42,2.08-5.27,5.85S1025.18,320.43,1025.19,324.09Z"/><path class="cls-1" d="M602.28,308.4c-1.91-16.17-1.92-16.27,13.31-17.22,8.63-.54,17.27-.74,25.91-.95,13.36-.32,20.3,8.88,19.83,19.64-.63,14.1-.26,28.24-.09,42.36,0,3.62-.93,5.19-4.76,4.88a87.24,87.24,0,0,0-10.48,0c-3.31.13-5.79-.5-5.12-5.31a44.11,44.11,0,0,0-4.65,1.84c-8.06,4.41-16.77,5.11-25.66,4.3a17.32,17.32,0,0,1-7-2.44c-7.62-4.49-10.67-16.43-7.37-27.94,2.16-7.53,9-12.45,17.81-12.6,6.32-.12,12.65,0,19,0,1.79,0,3.57-.17,5.27-.25.93-6.36.12-7.6-5.49-7.46-9.13.24-18.25.8-27.37,1.21C604.47,308.44,603.51,308.4,602.28,308.4Zm35.89,22.82c-5.31,0-10.77-.34-16.14.22-1.45.15-3.31,2.89-3.63,4.68-.17,1,2.41,3.43,3.87,3.54,3.74.26,7.54-.5,11.33-.69C638.61,338.71,639.81,336.14,638.17,331.22Z"/><path class="cls-1" d="M1078.88,355.84c0-5.11-.21-9.59.17-14,.08-1,2.28-2.5,3.49-2.49,11.48.1,23,.48,34.44.76,2.74.07,5-.46,5.12-3.93.08-3.86-2.77-3-4.93-3.05-7.17-.06-14.34,0-21.5,0-10.75-.12-17.73-7.18-17.84-17.92,0-1.66,0-3.33,0-5,0-11.42,6.53-18.76,17.85-19.1,13-.4,26-.47,39,0,7.81.3,3.13,6.88,4,10.52.58,2.61,1.51,6.66-3.94,6.56-9.49-.17-19,0-28.5-.05-2.78,0-5.8,0-5.86,3.67s2.86,4,5.71,4c7,0,14,0,21,0,9.15.09,15.71,5,17.2,14.12a45,45,0,0,1-.4,15.73c-1.38,7-7.93,11.87-15.84,12.22s-16,.34-24,0S1087.79,356.59,1078.88,355.84Z"/><path class="cls-1" d="M993.19,463.38c6.17.44,11.58,1,17,1.16,7,.19,14,0,21,.06,4.29,0,6.24-1.74,5.15-7.05-2.8,0-5.73.07-8.65,0-7-.17-14,.08-20.94-.74-10.6-1.26-15.92-10.45-14.78-24.36.82-10.06,7.76-16.75,17.55-16.79,13,0,26,.08,39-.06,3.34,0,4.66.85,4.71,4.44.16,11.93.3,11.93-11.66,11.93h-19c-1.17,0-2.62-.38-3.44.17a30,30,0,0,0-4.17,4c1.48,1.17,2.91,3.27,4.45,3.35,6.64.39,13.32.16,20,.19,12.83.07,19.82,7,19.72,19.74,0,3.78-.09,7.73-1.15,11.3a15.58,15.58,0,0,1-15.07,11.05c-14.81-.17-29.61-.73-44.42-1.05-4-.09-5.63-1.89-5.34-5.92C993.4,471.24,993.19,467.61,993.19,463.38Z"/><path class="cls-1" d="M692.58,294.67c8.7-1.62,17.17-4.11,25.76-4.6,13.33-.74,20.31,6.45,20.66,19.94.25,9.47.06,19,.07,28.44,0,4.65-.15,9.31,0,14,.13,3.37-1,4.88-4.55,4.7a118.86,118.86,0,0,0-13.48,0c-3.76.23-5-1.22-4.93-4.86.13-12,.06-23.95,0-35.92,0-7-.75-7.73-7.74-7.52-14.37.42-14.37.42-14.37,14.73,0,9.65-.11,19.3,0,28.94,0,3.46-1.14,4.78-4.63,4.62-4.66-.22-9.33-.17-14,0-2.89.1-4.32-.81-4.31-3.91q.09-29.18,0-58.37c0-2.67,1.07-4,3.89-3.87,3.32.12,6.67.15,10,0C689,290.7,692.57,290.76,692.58,294.67Z"/><path class="cls-1" d="M889.59,475.89c-10.54,5.33-20.71,8.45-31.91,6.05-8.27-1.77-13.77-8.07-13.82-16.51-.1-15.13.07-30.26-.1-45.39,0-3.59,1.29-4.61,4.66-4.45,4.49.22,9,.21,13.49,0,3.29-.15,4.32,1.11,4.29,4.33-.13,12.47.1,24.94-.12,37.41-.09,4.84,1.82,6.34,6.5,6.33,15.09,0,15.61-.41,15.61-15.09,0-9.48.1-19,0-28.44,0-3.45,1.21-4.72,4.68-4.55,4.65.24,9.33.16,14,0,2.82-.08,4.29.66,4.28,3.86q-.14,28.93,0,57.86c0,3-1.18,4.24-4.11,4.18-3.33-.08-6.68-.19-10,.05C893,481.85,890.07,481,889.59,475.89Z"/><path class="cls-1" d="M813.6,339.76c9.57,0,18.33.25,27.07-.1,4.47-.17,5.65,1.29,5.58,5.63-.19,11.76,0,11.77-11.86,11.77-14.82,0-29.63-.14-44.44.08-4.22.07-5.55-1-5.94-5.47-.74-8.35,1.75-14.48,8.38-19.8,7.11-5.7,13.43-12.39,20.07-18.67,1-1,2-2.11,4.09-4.4h-20c-13.34,0-14.18-.91-12.11-14.43.2-1.29,2.38-3.24,3.66-3.26q27.21-.32,54.42,0c1.23,0,2.45,2.13,3.62,3.32.17.17,0,.65,0,1,1.4,9.09-1.4,16-9,21.86s-14.45,13.24-21.58,20A27.06,27.06,0,0,0,813.6,339.76Z"/><path class="cls-1" d="M567.4,291c6,0,12,.12,18,0,3.25-.09,4.47,1.22,4.43,4.38-.21,16.42,2,13.16-12.76,13.48-6.32.14-12.65.1-19,0-4.17-.05-6.05,1.75-6,6,.17,6.64.13,13.29,0,19.94-.07,4.27,2,6.17,6.09,6,8.79-.41,17.61-.64,26.35-1.55,4.14-.43,5.43.7,5.24,4.64-.62,13.17,3.36,12.1-12.89,13.12-9.11.57-18.25,1-27.38,1.05-12.79.08-19.69-7-19.71-19.78q0-13.45,0-26.92c0-12.57,7-19.87,19.58-20.29C555.42,290.79,561.41,291,567.4,291Z"/><path class="cls-1" d="M636.46,420.88c6.51-2.25,12.85-5.15,19.51-6.57,7.54-1.61,8.24-.58,8.15,7.11,0,3.94,1,9-1,11.45-1.64,2-7.1.85-10.86,1.11a20.39,20.39,0,0,0-2.46.3c-11.69,2.16-11.69,2.16-11.69,14,0,9.3-.18,18.6.07,27.9.12,4.2-1.44,5.61-5.49,5.39-4.31-.24-8.65-.15-13,0-3.12.09-4.52-1.06-4.51-4.33q.12-28.65,0-57.29c0-3.14,1.05-4.57,4.38-4.31a52.68,52.68,0,0,0,9,0C633.26,415.13,636.82,415.87,636.46,420.88Z"/><path class="cls-1" d="M691.46,415.67c.7,2.58,1.16,4.3,1.37,5.1,7-2.31,13.52-5.19,20.36-6.53,7.09-1.38,7.61-.36,7.61,6.91q0,5.24-.16,10.47a4.41,4.41,0,0,1-.5,1.53c-6.81.85-13.37,1.7-19.92,2.47-4.58.55-6.34,2.74-6.17,7.61.39,11.13,0,22.28.2,33.42.07,3.73-1.18,5.07-4.85,4.91-4.65-.22-9.35.18-14-.25-1.29-.12-3.4-2.21-3.42-3.41q-.32-29.44,0-58.87c0-1.13,1.89-3.14,3-3.21C680.44,415.48,685.92,415.67,691.46,415.67Z"/><path class="cls-1" d="M777.06,326c0,8.64-.12,17.27.06,25.91.08,3.71-.85,5.57-5,5.25a74.06,74.06,0,0,0-12.46,0c-4.64.42-5.6-1.66-5.53-5.79.2-11.46,0-22.92.12-34.38,0-3.86-.43-6.6-5.29-5.87-3.05.46-3.93-1.15-4.06-4.07-.59-13.2-.67-13.19,12.37-13.19,5,0,10,.19,15-.06,3.68-.2,5,1,4.9,4.79C776.92,307.7,777.06,316.84,777.06,326Z"/><path class="cls-1" d="M756.15,449.86c0,9-.12,18,.06,26.94.06,3.38-1,4.89-4.52,4.74-4.32-.17-8.66-.17-13,0-3.57.15-5-1-4.94-4.85.21-12,0-23.94.15-35.91.07-3.78-.91-5.69-5-5.22-3.35.38-4.13-1.38-4.19-4.47-.28-13.44-.36-13.44,13.1-13.44,4.66,0,9.33.15,14,0,3.24-.13,4.67,1.08,4.29,4.32a4,4,0,0,0,0,.49Z"/><path class="cls-1" d="M745.07,411.62c-11.23,0-11.23,0-11.22-11.33,0-7.23,0-7.24,7.35-7.25a90.46,90.46,0,0,1,11.42.21A5.1,5.1,0,0,1,756,396.7c.48,3.41,0,6.95.22,10.41s-1.36,4.74-4.67,4.53C749.38,411.51,747.22,411.62,745.07,411.62Z"/><path class="cls-1" d="M765.85,287.17c-11.78,0-11.6,0-11.75-12-.06-4.62,1.12-6.75,6.12-6.3a119.36,119.36,0,0,0,13,.06c2.73-.05,4,1.08,3.88,3.84a78.75,78.75,0,0,0,0,9c.34,4-1,5.94-5.28,5.44A51.83,51.83,0,0,0,765.85,287.17Z"/><path class="cls-1" d="M893.27,331.18c1.68,5.37,0,7.66-4.84,7.86-3.61.15-7.25,1-10.78.6-1.61-.17-4.25-2.63-4.14-3.84.15-1.64,2.37-4.24,3.92-4.41C882.62,330.84,887.92,331.18,893.27,331.18Z"/></svg>