<svg id="Logos_Patrocinadores" data-name="Logos Patrocinadores" xmlns="http://www.w3.org/2000/svg" viewBox="0 0 1500 600"><defs><style>.cls-1{fill:#7a97ab;}</style></defs><path class="cls-1" d="M642.57,340.85c-3.36.09-5.15-1.09-6.33-3q-9.6-15.66-19.15-31.34c-1.15-1.88-2.41-3.71-3.61-5.57-2.49-3.87-1.57-7.14,2.67-9.35,6.87-3.57,13.79-7.08,20.63-10.7q13.82-7.32,27.53-14.77c3.09-1.68,6-3.74,9.18-5.15a11.52,11.52,0,0,1,6.26-.85,151.06,151.06,0,0,1,16.9,4,11.93,11.93,0,0,1,5.83,4.06,160,160,0,0,1,9,14.35A6.42,6.42,0,0,1,712,287c-1.52,5.85-3.13,11.69-5.15,17.41a9.48,9.48,0,0,1-4.11,4.59c-6.89,3.86-14,7.35-21,11.07-9,4.79-18,9.65-27,14.51-3.25,1.76-6.41,3.66-9.66,5.42A14.31,14.31,0,0,1,642.57,340.85Z"/><path class="cls-1" d="M839.58,259.17c3.23,1.58,6.52,3.08,9.68,4.77,6.15,3.28,12.21,6.69,18.35,10,11.06,5.94,22.15,11.82,33.23,17.74,3.84,2.05,4.87,5.31,2.7,8.81-3.75,6.07-7.6,12.1-11.35,18.18q-5.49,8.86-10.84,17.8c-2.91,4.85-5.59,5.65-10.88,2.87-10.45-5.5-20.85-11.08-31.26-16.66-8.44-4.52-16.81-9.14-25.3-13.58a8,8,0,0,1-4.24-4.91c-1.77-5.79-3.44-11.6-4.94-17.45a5.63,5.63,0,0,1,.47-4c2.94-5.09,5.95-10.17,9.35-15a10.29,10.29,0,0,1,5.27-3.58c5.62-1.65,11.42-2.83,17.16-4.17.73-.17,1.5-.23,2.26-.34Z"/><path class="cls-1" d="M728.79,140.86q0-15.47,0-30.93c0-4.62,2.12-6.56,7.35-6.57q22.27-.06,44.54,0c5.17,0,7.28,2,7.29,6.66q0,30.8,0,61.59a7.45,7.45,0,0,1-2.67,6c-4.32,3.87-8.34,8-12.78,11.77a10.51,10.51,0,0,1-5.77,2.22c-5.63.29-11.3.25-16.94,0a9.47,9.47,0,0,1-5.34-1.94c-4.88-4.21-9.59-8.6-14.07-13.16a7.18,7.18,0,0,1-1.58-4.71C728.73,161.47,728.79,151.16,728.79,140.86Z"/><path class="cls-1" d="M713.68,122.19v10.34c-4.08,1.63-8.4,2.9-12.2,4.95-8.09,4.37-16.3,8.67-23.72,13.86a115.49,115.49,0,0,0-28,28,115.13,115.13,0,0,0-20.47,87c.28,1.71-.18,2.7-1.95,3.46-2.32,1-4.5,2.25-7.33,3.69-.75-5.27-1.71-10.14-2.11-15.05-1.75-21.56,1.42-42.43,10.77-62.52a133.46,133.46,0,0,1,17.08-27.58,141,141,0,0,1,31.8-28.66c8.69-5.83,18.15-10.08,27.94-14C708.12,124.66,710.69,123.48,713.68,122.19Z"/><path class="cls-1" d="M803,122.18c4.47,1.84,8.38,3.32,12.16,5,6.06,2.75,12.39,5.18,18,8.61a181.57,181.57,0,0,1,21.49,15.33,122.89,122.89,0,0,1,24.22,27.56,127.36,127.36,0,0,1,19,48.51,124.51,124.51,0,0,1-.58,43.35c-.15.81-.44,1.6-.77,2.77-3-1.52-5.67-2.78-8.17-4.31-.59-.37-.74-1.65-.68-2.49.49-6.34,1.46-12.66,1.55-19a106.66,106.66,0,0,0-6.11-37,120.18,120.18,0,0,0-14-28.1,129.38,129.38,0,0,0-26.81-28.61,119.39,119.39,0,0,0-23.11-14.16c-4.77-2.28-9.72-4.26-14.54-6.47a2.68,2.68,0,0,1-1.5-1.76C802.87,128.59,803,125.76,803,122.18Z"/><path class="cls-1" d="M851.63,345.22c-7.63,7.21-16.54,12-25.43,16.92-15.31,8.47-32.2,12.4-49.65,15.08a107.7,107.7,0,0,1-28.56,1c-18.49-2.1-36.68-5.61-53.16-13.8-8-4-15.43-8.87-23-13.53-2.38-1.47-4.31-3.55-6.8-5.65,2.91-1.53,5.53-3.06,8.32-4.25.67-.28,2.13.38,2.92,1a143.39,143.39,0,0,0,38.32,19.8c26.63,9.09,53.56,9.45,80.51,2.28,11.36-3,22.5-7.28,32.41-13.44,4.54-2.82,8.9-5.89,13.25-9a2.88,2.88,0,0,1,3.56-.32C846.65,342.66,849.06,343.86,851.63,345.22Z"/><path class="cls-1" d="M878.65,263.59c-3-1.55-5.84-2.84-8.42-4.42-.67-.42-.86-1.76-.89-2.69-.26-8,.21-16-.76-23.91A90.58,90.58,0,0,0,855.85,197,109,109,0,0,0,830,167.74a102.67,102.67,0,0,0-24.39-14.25c-1.82-.78-2.77-1.88-2.67-3.79.13-2.39,0-4.8,0-7.66a105.8,105.8,0,0,1,40.27,23.82C877.36,197.37,883.38,235.88,878.65,263.59Z"/><path class="cls-1" d="M682.61,335.62c3-1.59,5.65-3,8.36-4.28a3.48,3.48,0,0,1,2.55.16,51.59,51.59,0,0,1,5.53,3.24c11.24,7.43,24.19,11,37.55,14a97.91,97.91,0,0,0,36.67,1.34c14.92-2.31,29.38-6.31,42.35-13.68,2.48-1.41,4.67-3.23,7.18-4.59a5,5,0,0,1,3.54-.15c2,.74,3.8,2,5.76,2.88,2.2,1,1.76,1.95.08,2.91-5.88,3.38-11.7,6.86-17.69,10.06-17.7,9.47-37.18,12.88-57.47,12.8-16.95-.06-33.45-2.92-48.65-9.8-8.4-3.8-16.11-8.81-24.12-13.3A10.8,10.8,0,0,1,682.61,335.62Z"/><path class="cls-1" d="M638,263.62c-.27-2.09-.51-3.77-.7-5.45a104.51,104.51,0,0,1,6.2-48.26,109.05,109.05,0,0,1,14.69-27c8.6-11.64,19-21.75,32.07-29.37,6.21-3.62,12.75-6.78,19.19-10.08a35.41,35.41,0,0,1,4.37-1.53,64.5,64.5,0,0,1-.14,8.76c-.14,1-1.62,2.14-2.78,2.79-6.26,3.47-13.07,6.28-18.84,10.3q-26.07,18.1-37.62,46a98.17,98.17,0,0,0-7.05,46.85,2.73,2.73,0,0,1-1.78,3.12C643.19,261,640.82,262.21,638,263.62Z"/><path class="cls-1" d="M939.53,472.72c-.92,3.25-1.59,6-2.49,8.63-.25.75-1.13,1.85-1.79,1.89-14.9.82-29.81,1.7-44.73,2.14-6.69.19-11.8-3-15.59-8.77-.69,2.51-1.11,4.5-1.84,6.39a2.86,2.86,0,0,1-2,1.61c-9.95.1-19.91.07-30.22.07l10.56-41.55a72.37,72.37,0,0,0-7.45.79c-.68.14-1.32,1.37-1.55,2.2-1.49,5.59-2.85,11.21-4.28,16.82-1.68,6.61-3.46,13.2-5,19.83-.4,1.71-1.35,1.94-3,1.93-8.34,0-16.72.47-25-.14-11.84-.86-23.5,1.09-35.27.92-1.06,0-2.11.08-3.16.09-10,.15-12-.47-19.33-5.94-.16.09-.45.16-.46.26-.4,4.29-3.55,5-7.59,5-5.35,0-10.72.66-16,.4-6.67-.33-11.4-3.58-13.88-9.27-.12-.28-.45-.49-.87-.93-.91,3.32-1.77,6.41-2.65,9.63-9,0-17.86.87-26.36-.33-5.17-.73-9.36,1.18-14.09,1.17-6.65,0-13.26.47-19.26-3.43-.77,2.52-2.91,2.52-5.15,2.59-7.18.26-14.35.77-21.53.89s-13.62-1.72-17.27-7.79a16.19,16.19,0,0,1-1.86-13c-2.3-.23-3.06.83-3.48,2.56-1.13,4.69-2.34,9.37-3.74,14a3.32,3.32,0,0,1-2.33,1.92c-14,.86-28.1,1.75-42.16,2.25-7.45.26-13.61-2.4-17.61-9.07-.69,2.54-1.11,4.55-1.84,6.47-.26.69-1.24,1.66-1.9,1.66-9.87.09-19.74,0-29.61,0-.16,0-.32-.15-.56-.28q5-19.68,10-39.47c-3.41-.44-4.54.59-5.14,3.14-2,8.64-4.4,17.21-6.63,25.81-.78,3-1.39,6.05-2.33,9A3,3,0,0,1,491,484.6c-9.58.11-19.16.06-28.75,0a6,6,0,0,1-1.2-.34c3.33-13.08,6.65-26.17,10-39.44-3.09-.38-4.57.26-5.21,2.91-3,12.23-6.13,24.42-9.25,36.76H424.77c3.05-12.16,6.05-24.28,9.14-36.38q3.57-13.9,7.4-27.78a2.61,2.61,0,0,1,1.94-1.32c8.15-.09,16.29-.06,24.44,0,.46,0,1.24,0,1.34.26,1.05,2.25,2.24,1,3.9.51,6.16-1.73,12.52-2.86,18.91-1,2.18.64,4.05,2.11,6.17,3a5.16,5.16,0,0,0,3.24.31A67.93,67.93,0,0,1,517.68,418c10.4-1,18.36,2.45,22.66,11.25,2.78-2.22,5.5-4.6,8.47-6.71A24.48,24.48,0,0,1,563.05,418c8.24-.07,16.48-.05,24.72,0,6.44,0,11.42,2.84,15.66,7.13.28-.33.5-.49.56-.68.53-1.65.5-3.85,1.7-4.78s3.62-.35,5.43-.72a3.55,3.55,0,0,0,2.17-1.59c1.45-2.8,2.61-5.72,4.06-8.52a3.1,3.1,0,0,1,2.12-1.53c8.72-.09,17.44,0,26.16,0a5.06,5.06,0,0,1,1.11.33L643.88,419c3.91,0,7.32-.08,10.71.06.91,0,1.74.88,2.68,1.1a11.13,11.13,0,0,0,3.69.43c2.53-.27,5-1.06,7.53-1.19,10.8-.54,21.61-1.18,32.42-1.25,7.24-.05,12.15,3.88,15.58,9.38.17.27.39.52.91,1.21.73-2.44,1.42-4.46,1.94-6.52,1.6-6.36,3.09-12.74,4.77-19.08.2-.75,1.28-1.86,2-1.87,9.95-.12,19.91-.08,30.33-.08-5,19.59-9.91,38.91-14.84,58.3,2.71.75,4.22.55,4.84-2.09,1.44-6.13,3.18-12.2,4.8-18.29,2.37-8.92,8.2-15,17.83-18.4A34,34,0,0,1,780.7,419c11.21,0,22.42-.05,33.64,0,2.35,0,3.56-.38,4-2.78A134.75,134.75,0,0,1,821.8,403a3,3,0,0,1,2.1-1.73c9.58-.11,19.17-.06,28.75,0a7,7,0,0,1,1.24.33l-4.21,16.73c.84,0,1.54.13,2.24.1,3.83-.15,7.66-.37,11.49-.5,9.94-.34,17.06,3.4,21,12.11,3.18-4.82,8-7.58,13-10.11a14.64,14.64,0,0,1,6-1.51c9.67-.23,19.34-.48,29-.24,8,.19,13.55,4,16.78,10.58a11.41,11.41,0,0,0,.6,1.05c3.6-2.53,6.94-5.31,10.74-7.42a27,27,0,0,1,13.8-3.39c11.79.17,23.58,0,35.37.1,2.54,0,3.51-.74,4-2.93,1.07-5,2.45-9.85,3.72-14.81h31.81l-8.15,31.87.6.3c1.16-1.18,2.37-2.32,3.48-3.53,3-3.32,6-6.7,9-10a2.92,2.92,0,0,1,1.88-.89c11.3-.06,22.59,0,34.51,0a17.3,17.3,0,0,1-1.57,2.67c-7.06,7.88-14.18,15.71-21.24,23.58a66,66,0,0,0-5.06,6.21,3.55,3.55,0,0,0-.16,2.85c3.1,9.55,6.3,19.07,9.45,28.61a8.22,8.22,0,0,1,.16,1.77h-10.41c-6.61,0-13.23-.06-19.84,0-1.87,0-2.76-.52-3.26-2.09-1.41-4.46-2.94-8.88-4.43-13.32a5.59,5.59,0,0,0-1.49-2.45,25.75,25.75,0,0,0-.89,2.45c-1.13,4.35-2.36,8.68-3.24,13.07-.42,2.07-1.57,2.35-3.54,2.33-8.53-.07-17.11.48-25.58-.15-11.48-.86-22.77,1.15-34.17.91-3.35-.07-6.71.09-10-.18-7.49-.6-12.66-4-14.9-10.61C940.2,474.21,940,473.75,939.53,472.72ZM497.58,430c-2.56-4.31-6.72-5.9-11.38-5.85a54.5,54.5,0,0,0-11.85,1.65c-3.73.88-7.27,2.4-11,3.68-.14-.57-.38-1-.3-1.37.48-2.52-.9-3.09-3.41-3a96.45,96.45,0,0,1-10.06,0c-2.76-.17-3.57,1-4.11,3.16-2.91,11.89-6,23.75-9,35.62-1.24,4.9-2.45,9.81-3.79,15.17H447c4.62,0,4.59,0,5.59-4,2.67-10.63,5.32-21.26,8.14-31.85.3-1.13,1.45-2.72,2.49-2.93a82.85,82.85,0,0,1,11.88-1.54c2.51-.15,3.65,1.43,3.09,3.58-2.19,8.52-4.43,17-6.6,25.57-.91,3.55-1.68,7.13-2.62,11.14h12.77c5.86,0,5.84,0,7.1-4.89,2.71-10.62,5.41-21.23,8.24-31.82a3.43,3.43,0,0,1,2.16-2,83.13,83.13,0,0,1,9.85-1.57c4.94-.47,6.1.85,5,5.17q-3.7,14.15-7.37,28.3c-.54,2.13-1,4.29-1.51,6.8,6,0,11.64.07,17.27-.1.68,0,1.7-1.24,1.91-2,3.2-12,6.36-24,9.34-36.09a29.59,29.59,0,0,0,.69-7.91c-.11-3.85-2.76-7-7-7.88a35.27,35.27,0,0,0-9.62-.71A51.88,51.88,0,0,0,497.58,430Zm343.74-4.13,4.38-17.76H826.93c-6,23.62-12,47.06-18.15,70.91,6.18,0,11.9,0,17.61-.07a2.37,2.37,0,0,0,1.6-1.46c1.44-5.15,2.76-10.33,4.09-15.51,1.88-7.26,3.69-14.54,5.67-21.78a2.92,2.92,0,0,1,2.09-1.55c4.36-.47,8.74-.89,13.13-1,5.21-.17,6.17.94,5,5.48-1.66,6.7-3.43,13.37-5.14,20.06-1.31,5.15-2.6,10.3-4,15.9,5.62,0,10.77-.06,15.91,0,2.05,0,3.05-.5,3.54-2.43,3.19-12.71,6.64-25.37,9.77-38.09,2.19-8.92-2.87-14.44-13-14.54-3.25,0-6.52.07-9.75.33C850.84,424.75,846.4,425.33,841.32,425.88ZM590.8,465.74c-1.66,0-2.9-.05-4.12,0-8.8.38-17.59.82-26.39,1.15-3.31.13-4.58-.83-4.53-3,.09-3.82,1.16-5,4.57-5,10.35,0,20.69-.06,31,0,2.47,0,3.67-.38,4.16-2.92,1.07-5.48,2.68-10.88,4.14-16.29,2.59-9.6-2.39-15.48-13.42-15.62-7.28-.09-14.56-.12-21.84,0a24.75,24.75,0,0,0-12.72,3.46c-5.67,3.48-7.74,8.71-9.21,14.31-1.27,4.83-2.61,9.66-3.78,14.52-1,4-2.16,8-2.5,12.11-.58,6.89,3.83,11.3,11.48,11.37,8.9.08,17.8-.29,26.7-.64,3.82-.14,7.63-.64,11.41-1.15a3.14,3.14,0,0,0,2.22-1.48C589.06,473.11,589.84,469.59,590.8,465.74Zm343.78,0c-1.55,0-2.77-.05-4,0-8.8.39-17.6.82-26.4,1.16-3.35.13-4.62-.78-4.61-3,0-3.65,1.29-5.08,4.53-5.08,10.45,0,20.9-.05,31.35,0,2.26,0,3.37-.44,3.85-2.68,1.23-5.63,2.85-11.19,4.31-16.79,2.41-9.22-2.48-15.09-13-15.34q-11.34-.26-22.71,0c-10.36.22-18.2,5.68-20.58,14.35-2.53,9.25-4.89,18.53-7.15,27.83-1.4,5.73,1.64,13.65,11.18,13.61,9.1,0,18.2-.37,27.29-.72,3.63-.14,7.25-.6,10.85-1.07.87-.12,2.21-.71,2.38-1.31C932.89,473.21,933.66,469.6,934.58,465.73ZM1063.65,479c-.38-1.76-.55-3.19-1-4.55-2.35-7-4.8-13.91-7.12-20.89a4.3,4.3,0,0,1-.14-3.14,31.21,31.21,0,0,1,3.81-4.78c5.3-6,10.64-11.88,16-17.83.63-.7,1.2-1.44,2.22-2.67-5.85,0-11,.14-16.14-.05a6.84,6.84,0,0,0-6,2.66c-3.59,4.21-7.76,8.08-11,12.52s-7.46,3.82-12.33,3.36c3-11.9,6-23.63,9.08-35.72-6.19,0-11.91-.05-17.63.07-.55,0-1.38,1.07-1.56,1.75-1,3.66-1.83,7.36-2.79,11-4.26,16.36-8.57,32.7-12.82,49.06-.75,2.9-1.28,5.84-2,9.17,6.09,0,11.81,0,17.52,0a2.08,2.08,0,0,0,1.43-1.24c1.37-5,2.71-10,3.9-15,1.56-6.55.73-5.19,7.74-5.36.1,0,.23,0,.29,0,.8.56,2.06,1,2.32,1.73,2.12,6.05,4,12.16,6.09,18.22.22.67,1.09,1.64,1.68,1.65C1051.19,479.08,1057.2,479,1063.65,479Zm-379.32-5.31a14,14,0,0,1,.16,2.57c-.31,2.11.56,2.92,3,2.82,3.73-.15,7.47-.08,11.2,0,1.7,0,2.57-.48,3-2.08,3-11.87,6.12-23.7,9-35.59a28.33,28.33,0,0,0,.73-9.43c-.54-4.88-5.61-8.12-12.65-7.88-11.66.39-23.31,1.22-35,1.92-.6,0-1.55.55-1.68,1-1.06,3.7-2,7.45-3.05,11.62l5.25-.29,23.79-1.19c2.4-.12,3.93.72,3.89,3.06-.05,3.12-1.21,4.44-3.87,4.45-6.42,0-12.84,0-19.25,0-4.13,0-8.2.66-11.43,2.86-8.81,6-11.39,14.49-10.74,23.95a9.26,9.26,0,0,0,7.5,7.91c9,1.23,17.68.69,25.69-3.7C681.12,475,682.53,474.51,684.33,473.72Zm118.84-8.46c-1.36,0-2.11,0-2.86,0-8.12.38-16.24.81-24.37,1.16-5.12.22-6.19-.93-5.11-5.43q2-8.42,4.18-16.8c1.18-4.56,2.56-5.51,7.73-5.52,8.24,0,16.48.05,24.71-.07,1,0,2.56-.73,2.77-1.39,1.19-3.84,2.06-7.76,3.06-11.77a15.08,15.08,0,0,0-1.76-.25c-11.59,0-23.19-.23-34.76.12-11.22.34-16.9,6.6-19.49,15.07-2,6.53-3.65,13.15-5.19,19.78a57.47,57.47,0,0,0-1.34,10.19c-.18,4.05,3.84,9.41,9.19,9.24,12.89-.41,25.77-1,38.66-1.59a2,2,0,0,0,1.51-.9C801.17,473.3,802.1,469.47,803.17,465.26Zm195.19-.13c-4.94.31-9.11.63-13.29.81-5.26.23-10.52.43-15.79.48-3,0-3.72-.84-3.56-3.49a13.7,13.7,0,0,1,.4-2.54q2.1-8.14,4.26-16.27c1.25-4.69,2.32-5.43,7.69-5.44,8.24,0,16.48,0,24.71-.05.89,0,2.4-.44,2.55-.93,1.21-4,2.16-8.09,3.25-12.35-1.29-.07-2.13-.17-3-.17-10.44,0-20.89-.05-31.33,0-11.67.07-18.77,5.05-21.72,15.22-1.56,5.39-3,10.82-4.31,16.26a99.43,99.43,0,0,0-2.48,11.6,10.17,10.17,0,0,0,10.73,11.5c12.42-.28,24.83-1.1,37.24-1.76a2.24,2.24,0,0,0,1.65-1.1C996.42,473.19,997.3,469.44,998.36,465.13ZM638.9,412.64c-5.56,0-10.33-.08-15.1.07a3.17,3.17,0,0,0-2.22,1.55,51.23,51.23,0,0,0-3,7.21c-.84,2.68-2.32,4.13-5.67,3.77-.93-.1-2.66.47-2.83,1-1.19,3.94-2.08,8-3.12,12.21l6.17.42c-.13.85-.15,1.36-.28,1.85-1.57,6.19-3.25,12.35-4.69,18.55a71.51,71.51,0,0,0-1.74,10.64c-.32,4.14,3.8,9.73,9.36,9.7q11.33-.06,22.64-.36a2.5,2.5,0,0,0,1.9-1.23c1.07-3.86,2-7.77,3-11.94-4.47,0-8.57,0-12.67,0-3.58,0-4.84-1.27-4.09-4.36q2.57-10.67,5.57-21.25a3.37,3.37,0,0,1,2.48-1.72c3.15-.21,6.32,0,9.47-.15.82,0,2.12-.7,2.29-1.29,1.11-3.87,2-7.8,3-12.15-3.66,0-7-.08-10.31,0-2.46.08-3.27-.66-2.6-2.89C637.37,419.27,638,416.18,638.9,412.64Zm109.35-4.73c-5.26,0-10.31.18-15.33-.07-2.8-.13-3.91.81-4.48,3.1-3,12-6,23.9-9,35.85-1.69,6.68-3.5,13.34-5.09,20a10.52,10.52,0,0,0,9.58,12.83c5,.4,10.12-.15,15.18-.37a2,2,0,0,0,1.46-1c1.08-3.94,2-7.91,3.06-12.05-1.41-.06-2.26-.11-3.11-.13s-1.73,0-2.58,0c-2.76-.21-3.71-1.2-3.49-3.69a15.6,15.6,0,0,1,.45-2.53q4-15.54,8-31.08C744.61,422,746.38,415.14,748.25,407.91Zm29.21,52.64c10-.7,19.52-1.35,29-2.07a1.88,1.88,0,0,0,1.36-1.08c1.11-4.22,2.1-8.46,3.21-13-9.72,0-19,0-28.26.07-.6,0-1.51.93-1.7,1.57-.73,2.39-1.22,4.84-1.82,7.26C778.74,455.52,778.16,457.75,777.46,460.55Zm195.27,0c10-.69,19.39-1.32,28.73-2a2,2,0,0,0,1.47-.94c1.18-4.28,2.24-8.58,3.37-13.06H976.76ZM650.9,444.38c-4.61,0-8.48,0-12.34.05a2.11,2.11,0,0,0-1.55,1.12c-1.21,4.62-2.31,9.27-3.52,14.26,2.41,0,4.58.08,6.74-.05a2.13,2.13,0,0,0,1.57-1.11C643.33,453.42,646.34,449,650.9,444.38Z"/><path class="cls-1" d="M811.94,503.68c-.66,2.29-1.35,4.57-2,6.86-.9,3.36-1.18,3.52-5.64,2.66,1-4.05,2.07-8.11,3.13-12.16a14.59,14.59,0,0,0,.82-2.72c.15-2.61,1.76-3.43,4.31-2.87A3.72,3.72,0,0,1,815,497c1.18,2.69,2.07,5.49,3.34,9,.84-2.93,1.53-5.1,2.07-7.3.92-3.68.88-3.68,5.58-3.11a8.64,8.64,0,0,1-.13,1.9c-1.26,4.67-2.59,9.32-3.86,14-.34,1.23-.65,2.26-2.54,2.11-1.71-.13-3.45.21-4.09-1.87-.83-2.72-1.84-5.39-2.77-8.07Z"/><path class="cls-1" d="M851.14,513.19c1.05-4.07,2-8.16,3.18-12.21.59-2.09,2.55-1.23,4.07-1.18,1,0,2,.1,3,.16,2,.12,4,.27,6,.36a10.08,10.08,0,0,0,2.13-.12c1.32-.2,2.61-.63,3.93-.7,3.22-.19,4.4,1,3.77,3.92s-1.41,5.51-2.06,8.28c-.69,3-3.1,1.66-5.39,1.83.89-3.49,1.73-6.74,2.6-10.15-2.8-.39-4.86-.71-5.11,2.36a24.16,24.16,0,0,1-1.28,4.74c-1,3.51-1.18,3.59-5.5,2.76q1.2-4.85,2.39-9.66c-3.76-.88-4.17-.66-4.95,2.27-.45,1.67-1,3.33-1.48,5C855.46,514,855.26,514,851.14,513.19Z"/><path class="cls-1" d="M702.47,513.25c.85-3.21,1.71-6.43,2.55-9.63-3.88-.95-4.39-.7-5.14,2.22-.41,1.58-.75,3.19-1.22,4.76-1,3.27-1.24,3.38-5.55,2.64.82-3.2,1.65-6.41,2.46-9.58-3.59-1.06-4.2-.79-5,2.06-.46,1.66-.83,3.35-1.37,5-1.05,3.2-1.18,3.24-5.46,2.5,1.08-4.14,2-8.31,3.37-12.37.22-.63,2.29-.92,3.56-1.09a20.28,20.28,0,0,1,3.89.07c1.82.13,3.64.35,5.46.5a7.31,7.31,0,0,0,1.87,0c1.21-.21,2.38-.66,3.6-.79,3.69-.39,5,.87,4.3,4.1-.48,2.18-1.16,4.33-1.67,6.51C707.2,514,707,514.12,702.47,513.25Z"/><path class="cls-1" d="M1000.57,499.65c-1.51,5.39-2.67,10.41-4.45,15.25-.49,1.34-2.72,2.78-4.37,3-3.13.49-6.41.14-9.64.14-.39-2.83.42-3.85,3-3.51a21.24,21.24,0,0,0,4.58.08,7.93,7.93,0,0,0,2.21-1c-.12-.3-.23-.59-.34-.88-1.46.07-2.93.19-4.4.21-3.76.08-4.91-1.17-4.06-4.38.24-.92.59-1.81.83-2.73,1.52-5.71,2.23-6.23,8.68-6.24Zm-12.24,9.59c4.8.86,5.59.78,5.79-5.92C989.27,502.6,988,503.87,988.33,509.24Z"/><path class="cls-1" d="M551.91,512.78c-1.79.07-3.57.27-5.35.2-2.88-.12-3.86-1.4-3.22-3.94.39-1.58.78-3.17,1.19-4.75.73-2.84,2.43-4.43,5.35-4.56,3.42-.16,6.85,0,10.69,0-.46,2.2-.82,4.17-1.3,6.12-.6,2.42-1.31,4.81-1.94,7.22-1,3.83-2.92,5.21-7.27,5.09-2.2-.06-4.39-.23-6.58-.38a6.58,6.58,0,0,1-1.14-.29c-.44-2.29.43-3.23,3-2.89a21.81,21.81,0,0,0,4.57.08,9,9,0,0,0,2.37-.92Zm2.64-9.44c-5-.49-4.85-1.35-6,5.82C553.23,510.36,554.49,509.19,554.55,503.34Z"/><path class="cls-1" d="M590.33,517.69c1.57-5.79,3-11.35,4.71-16.83.2-.61,2.27-.9,3.51-1.06a33.45,33.45,0,0,1,3.6.08,14,14,0,0,0,1.67-.32c4.78-.65,6.13.55,5.35,4.78a30.76,30.76,0,0,1-.79,3.25c-1.58,5.26-2.68,6.09-8.77,6-2.47,0-3.77.44-4.31,2.88S592.33,517.5,590.33,517.69ZM604,503.27c-4.9-.45-6.9,1.89-6.05,6.79C603,510.78,604.44,509.22,604,503.27Z"/><path class="cls-1" d="M623.89,510.53c0,2.2-1,3.1-3.29,3.08s-4.77.34-7.15.3c-2.86,0-4.08-1.66-3.38-4.13q.79-2.86,1.58-5.74c.87-3.24,2.53-4.5,6.19-4.59,1.91,0,3.83-.07,5.73.05,2.32.14,3.45,1.28,3.07,3.44-.1.59-.18,1.18-.3,1.77-.78,3.82-1,4-5.32,4-1.34,0-2.69-.09-4,0a6.17,6.17,0,0,0-1.8.82,6.24,6.24,0,0,0,1.92,1,24.56,24.56,0,0,0,3.42-.1C621.6,510.51,622.64,510.53,623.89,510.53Zm-2.28-7.45-.64-.73a42.12,42.12,0,0,0-4.2,1.2c-.2.07-.09,1.51.08,1.54a7.66,7.66,0,0,0,3.49.26C621,505.16,621.2,503.87,621.61,503.08Z"/><path class="cls-1" d="M525.69,513.25c.79-2.57,1.63-4.92,2.2-7.33.26-1.07,1.34-2.82-1-3.06-1.67-.16-3.92-.77-4.36,2a47.57,47.57,0,0,1-1.74,6c-1,3.22-1,3.22-5.26,2.45.77-3,1.51-6,2.3-8.92s1.58-5.79,2.39-8.78h4.59c-.24,1.33-.45,2.54-.7,3.92,2.17,0,4-.06,5.93,0,2.89.12,3.88,1.38,3.23,3.9-.58,2.25-1.17,4.5-1.71,6.76C530.72,513.75,530.38,514,525.69,513.25Z"/><path class="cls-1" d="M570.73,513.14c.64-2.57,1.3-5.15,1.94-7.73.25-1,1.1-2.44-.93-2.56-1.61-.09-3.81-.77-4.39,1.66-.48,2-1,4-1.55,6-.88,3.4-1.23,3.57-5.58,2.69.83-3.22,1.67-6.44,2.49-9.67.43-1.66.84-3.33,1.28-5,.9-3.38,1.22-3.54,5.52-2.81-.15,1.21-.31,2.43-.47,3.73,2.06,0,4,0,5.83,0,2.36.05,3.7,1.1,3.21,3.26a60.45,60.45,0,0,1-2.75,9.69c-.35.85-2.6,1.08-4,1.6Z"/><path class="cls-1" d="M910.06,513.3c1.35-5.09,2.56-10,4-14.91,1-3.38,1.13-3.35,5.28-2.69-.15,1.16-.31,2.33-.5,3.76,1.41,0,2.69,0,4,0,4.89-.15,5.87.81,4.91,5.12-.47,2.1-1.33,4.13-1.72,6.24-.51,2.75-2.21,3.29-5.4,2.43.64-2.45,1.33-4.88,1.87-7.34.24-1.12,1.35-2.79-1-3.06-1.89-.22-4.15-.49-4.48,2.28a38.23,38.23,0,0,1-1.33,5.26C914.67,514,914.65,514,910.06,513.3Z"/><path class="cls-1" d="M766.3,509.72c2.37,2.25,5.75-.12,8.4,1,.42,2-.43,2.82-2.71,2.83s-4.58.33-6.87.35c-3.22,0-4.45-1.27-3.86-4a40.73,40.73,0,0,1,1.91-7c.48-1.17,1.74-2.75,2.87-2.91a56.48,56.48,0,0,1,9.91-.24,2.65,2.65,0,0,1,1.67,2,20.48,20.48,0,0,1-1.16,5.77c-.2.56-1.61,1-2.5,1.06-2.52.15-5.05.05-7.59.05Zm6.6-6.52-.62-.78a37.65,37.65,0,0,0-4.29,1c-.24.08-.17,1.72,0,1.75a7.5,7.5,0,0,0,3.49.23C772.14,505.17,772.44,504,772.9,503.2Z"/><path class="cls-1" d="M663.79,499.46c7,0,7.81.91,5.93,7.09a17.94,17.94,0,0,1-1.37,3.91c-.64,1.08-1.66,2.63-2.7,2.75a55.48,55.48,0,0,1-10.7.31c-1.81-.13-2.3-1.9-1.89-3.5q.87-3.39,1.88-6.73c.73-2.46,2.57-3.73,5.4-3.82C661.49,499.43,662.64,499.46,663.79,499.46ZM661,510.9c1-.49,2.63-.79,2.88-1.49a32.76,32.76,0,0,0,1.18-6.18c0-.1-.4-.31-.65-.4a3.69,3.69,0,0,0-5.11,2.39c-.25,1-.44,2-.75,3C657.94,510.05,658.73,510.77,661,510.9Z"/><path class="cls-1" d="M714,502.68c-.49-2,.27-2.91,2.41-3,2.39-.06,4.78-.27,7.17-.24,2.84,0,3.88,1.12,3.37,3.6-.57,2.78-1.34,5.52-2.11,8.26-.6,2.16-2.08,2.75-4.47,2.18a14.3,14.3,0,0,0-3.28-.09,2.2,2.2,0,0,0-.55.13c-3.44.92-5.73.31-6.34-1.68-.79-2.6,1.49-6.09,4.46-6.53,1.68-.24,3.45,0,5.14-.23.74-.09,1.37-.8,2.05-1.24-.67-.4-1.31-1.09-2-1.15C718,502.57,716,502.68,714,502.68Zm6.64,5.68a39.68,39.68,0,0,0-4,.05,1.78,1.78,0,0,0-1.13.94c-.1.19.4.9.66.91C717.74,510.35,719.59,510.84,720.62,508.36Z"/><path class="cls-1" d="M881.47,502.91c-.62-2.22.25-3.16,2.49-3.21,2.49-.05,5-.25,7.47-.19,2.25.05,3.35,1.28,2.92,3.26-.65,2.94-1.6,5.83-2.22,8.78-.5,2.34-2.21,2.15-4.11,2-1.19-.11-2.4-.07-3.61-.09a2.22,2.22,0,0,0-.55.14c-3.47.91-5.74.27-6.27-1.76a5.5,5.5,0,0,1,4.54-6.49c1.5-.22,3.09.05,4.57-.2a8.71,8.71,0,0,0,2.53-1.34,7.74,7.74,0,0,0-2.42-1.05A51.92,51.92,0,0,0,881.47,502.91Zm6.4,5.5a38,38,0,0,0-4.08,0c-.39,0-.78.64-1,1.05-.07.14.36.71.59.73C885.05,510.33,887,510.92,887.87,508.41Z"/><path class="cls-1" d="M802.22,510.36c.29,2.19-.48,3.22-2.93,3.22-2.77,0-5.54.36-8.31.33-3.21,0-4.56-1.51-4-4.33.69-3.2,1.45-6.39,2.45-9.51,1.11-3.45,2.93-4.58,6.91-4.65,3-.06,5.94,0,8.91,0a4.75,4.75,0,0,1,.88.18c.49,2.31-.42,3.13-3.12,3.13-9.74,0-7.53-1.24-10,6.92-1.49,4.85-1.45,4.86,4.14,4.71C798.77,510.32,800.38,510.36,802.22,510.36Z"/><path class="cls-1" d="M844.75,495.42c.17,2.45-.77,3.31-3.44,3.32-8,0-8-1.66-9.65,6.88-1,4.93-1.12,4.9,4.5,4.72,1.51,0,3,0,4.66,0,.18,2.08-.5,3.25-3.09,3.24-2.77,0-5.54.37-8.31.33-3.23,0-4.47-1.57-3.78-4.42.8-3.26,1.6-6.52,2.59-9.74s2.59-4.22,6.21-4.31C837.87,495.36,841.3,495.42,844.75,495.42Z"/><path class="cls-1" d="M964.27,513.22c1.13-4.23,2.08-8.32,3.44-12.3.22-.65,2.24-1,3.48-1.14s2.6.08,3.9,0c1.13,0,2.26-.34,3.39-.34,3.15,0,4.26,1.12,3.63,3.83-.69,3-1.52,6-2.44,9-.84,2.71-3.15.67-5.07,1.59l2.51-10.37c-4.69-.85-5.26-.54-6.19,3-.37,1.42-.73,2.84-1.14,4.25C968.86,513.9,968.74,514,964.27,513.22Z"/><path class="cls-1" d="M727.07,513.17c1.07-4,2.13-8.11,3.21-12.17.55-2,2.35-1.24,3.75-1.26,1.21,0,2.42.13,3.63.12a14.53,14.53,0,0,0,1.68-.31c4.85-.63,6.42.85,5.35,5.13-.63,2.5-1.32,5-2.12,7.46s-3.05,1.11-5.17,1.4c.9-3.54,1.72-6.78,2.55-10-4.7-.91-5.28-.61-6.19,2.83-.39,1.5-.8,3-1.28,4.48C731.51,513.88,731.16,514,727.07,513.17Z"/><path class="cls-1" d="M947.58,513.17c.9-3.37,1.74-6.5,2.58-9.62-4.3-1-5.12-.67-6.16,2.63-.46,1.48-1,3-1.36,4.45-.89,3.35-1.21,3.53-5.44,2.54,1.07-4,2.11-8.11,3.24-12.15.54-2,2.35-1.3,3.79-1.28,1.17,0,2.34.18,3.51.15.84,0,1.68-.34,2.53-.4,4.12-.3,5.3.84,4.5,4.43-.51,2.27-1.07,4.53-1.72,6.76C952.08,514,951.8,514.1,947.58,513.17Z"/><path class="cls-1" d="M656.21,495.3c.34,2.68-.58,3.6-3.2,3.09-1.75-.33-3.48-.24-3.67,2.15l4.11.28c0,1.87-.29,3.22-3,3.16a3.58,3.58,0,0,0-2.58,1.7,22.07,22.07,0,0,0-1.4,4.69c-.93,3.57-1.06,3.65-5.64,2.85.58-2.13,1.31-4.23,1.68-6.37.16-1-.56-2-.56-3a6.76,6.76,0,0,1,.7-3.06c.44-.85,1.64-1.38,2-2.23a5.72,5.72,0,0,1,5.4-3.56C652.11,495,654.1,495.19,656.21,495.3Z"/><path class="cls-1" d="M761.33,499.73c.17,2.46-.65,3.67-3.25,3.33a3.62,3.62,0,0,0-.57,0c-5.58,0-6.63.9-6.67,6,0,.48,1.21,1.32,1.93,1.4a54.86,54.86,0,0,0,5.75.06c.38,2.1-.43,3.08-2.84,3.07-2.19,0-4.39.34-6.58.33-2.81,0-4-1.1-3.57-3.51a30.66,30.66,0,0,1,2.34-7.91,6.16,6.16,0,0,1,4.11-2.65C755,499.43,758.05,499.73,761.33,499.73Z"/><path class="cls-1" d="M910.71,499.8c.36,2.59-.65,3.34-3.17,3.3-6.51-.1-6.56,0-7.38,5.88-.06.44,1.09,1.41,1.75,1.47,2,.2,4,.07,6.16.07,0,1.93-.51,3.16-3.12,3.09-2.18-.06-4.38.33-6.57.31-2.63,0-3.76-1.14-3.37-3.42a26,26,0,0,1,1.89-7.19A6.69,6.69,0,0,1,901,500C904.12,499.43,907.42,499.8,910.71,499.8Z"/><path class="cls-1" d="M670.56,513.28c1.12-4.28,2.11-8.45,3.4-12.53.17-.56,2.34-1.28,2.74-1,2.21,1.62,4.07.06,6.07-.19a15.8,15.8,0,0,1,2,0c-.15,3.45-.15,3.51-3.69,3.66-2,.08-3.21.79-3.62,2.59-.35,1.51-.88,3-1.25,4.49C675.26,513.93,675.27,513.94,670.56,513.28Z"/><path class="cls-1" d="M640.88,499.62c.19,2.68-.8,3.93-3.76,3.65a3.15,3.15,0,0,0-3.75,2.75c-.31,1.51-.71,3-1.12,4.51-.9,3.32-1.27,3.51-5.55,2.63,1.1-4.21,2.11-8.44,3.41-12.6.16-.5,2.25-1.11,2.85-.79,2,1.07,3.67.41,5.51-.12A10,10,0,0,1,640.88,499.62Z"/><path class="cls-1" d="M964.66,500.12c-.95,3.81-1.76,7.06-2.56,10.3s-1.26,3.62-5.74,2.77c.66-2.29,1.36-4.56,2-6.84.3-1.16,1.13-2.33-.89-3.24-1.13-.51,0-2.86,1.56-3C960.77,500,962.57,500.12,964.66,500.12Z"/><path class="cls-1" d="M534.54,513.52c.82-3,1.58-5.52,2.18-8.1a4.13,4.13,0,0,0-.42-2c-.18-.58-.81-1.27-.62-1.68a2.85,2.85,0,0,1,1.74-1.55,45.79,45.79,0,0,1,5.53-.08c-1.05,4.07-2,7.88-3,11.69C539.17,514.75,536.75,513.28,534.54,513.52Z"/><path class="cls-1" d="M929.27,514c.64-2.69,1.15-4.59,1.52-6.51.3-1.56,1.56-3.11-.53-4.68-.54-.4-.32-2.64,1.89-2.66,1.62,0,3.24,0,5.43,0-1.18,4.38-2.09,8.55-3.55,12.56C933.76,513.4,931.24,513.47,929.27,514Z"/><path class="cls-1" d="M580,506.38c-.14-3.71-.07-3.78,3.57-3.79h7.94c-.09,3.79-.09,3.79-3.89,3.79Z"/><path class="cls-1" d="M938.72,495.14c-.27,3.5-.31,3.53-4.67,3.2C933.16,495.23,933.84,494.74,938.72,495.14Z"/><path class="cls-1" d="M960.9,498.15c-.12-3.27.2-3.47,4.66-3C965.87,498.5,965.14,499,960.9,498.15Z"/><path class="cls-1" d="M544.06,495.23c-.57,3.6-.82,3.73-5,2.92C539.37,494.78,539.62,494.63,544.06,495.23Z"/><path class="cls-1" d="M560.19,446.37a58.82,58.82,0,0,1,1.69-6.39,5.2,5.2,0,0,1,5.23-3.34c3.34,0,6.69-.08,10,0,2.82.08,3.76,1.09,3.43,3.62a21.47,21.47,0,0,1-1.08,4.51c-.22.61-1,1.5-1.59,1.51C572.13,446.41,566.36,446.37,560.19,446.37Z"/><path class="cls-1" d="M904.22,445.85a44.54,44.54,0,0,1,1.37-5.64,5.32,5.32,0,0,1,5.34-3.58c3.34,0,6.68-.07,10,0,2.93.09,3.92,1.17,3.51,3.82a17.35,17.35,0,0,1-1.28,4.44,2.76,2.76,0,0,1-1.95,1.43c-5.34.09-10.68,0-16,0C905,446.31,904.72,446.09,904.22,445.85Z"/><path class="cls-1" d="M687.6,457.34a36.48,36.48,0,0,1-1.37,5.34,3.34,3.34,0,0,1-2.17,1.69q-6.48,1-13,1.7c-2.07.21-4.15-.09-4.67-2.43a5.29,5.29,0,0,1,3.45-5.89,18.69,18.69,0,0,1,4.25-.4C678.43,457.31,682.81,457.34,687.6,457.34Z"/></svg>