<svg id="Logos_Patrocinadores" data-name="Logos Patrocinadores" xmlns="http://www.w3.org/2000/svg" viewBox="0 0 1500 600"><defs><style>.cls-1{fill:#7a97ab;}</style></defs><path class="cls-1" d="M722.26,237.57c11.51,31.86,22.92,63.48,34.33,95.08l1.08-.23v-94c2.22-1.69,4.31-1,6.24-1,16.44-.06,32.88.27,49.31-.11,19.84-.45,40.53,17,38.46,40.55A36.6,36.6,0,0,1,842,299.5c-1.68,1.87-3.3,3.79-5.08,5.83a40.59,40.59,0,0,1,14.87,21.6c4.9,17.84-5.8,37.21-24.8,43.54a28,28,0,0,1-8.88,1.81q-44.72,0-89.36,0c-3.34-3.68-2.7-8.78-5.64-12.78H680c-1.6,4.26-3.17,8.4-4.72,12.53H634.2c14.59-45.11,29-89.77,43.51-134.45Zm-31.42,84a121.45,121.45,0,0,0,21.17-.26c-3.45-11-6.75-21.54-10.6-33.81-3.79,12.21-7,22.64-10.57,34.07m105,17.14a27.42,27.42,0,0,0,9.27.19c5.56-.52,9.52-4.46,9.86-9.5a10.7,10.7,0,0,0-9.18-11.08c-3.14-.43-6.4-.08-9.95-.08Zm0-47.14c7.06.17,13.66,1.51,17.72-5.23a9.22,9.22,0,0,0-.35-10.67c-4.45-6.41-10.9-4.7-17.37-4.61Z"/><path class="cls-1" d="M382,237.5h22.5c14,17.11,28.41,34.62,43.71,53.28V237.69h40.15v134c-6.44,1.28-12.91.36-19.7.56L425.1,325.29v46.62H382Z"/><path class="cls-1" d="M494.64,237.5h73c3.1,12,5.61,24.17,8,37H531.35c-1.64,3.86-.55,7.32-1,11.26,10.56,1.39,20.84,0,31.35.91v36.8H531.12c-1.15,4.42-.57,8.39-.56,13.22,8,1,16,.35,24,.46,7.79.11,15.58,0,23.9,0-3.28,12-6.37,23.28-9.51,34.77H494.64Z"/><path class="cls-1" d="M581.57,372.27V237.85H656.2c2.21,11.54,4.47,23.32,6.95,36.25H619a46,46,0,0,0,0,12.73h27.67v36.73H618.84v48.68c-12.59.11-24.78.06-37.27,0"/><path class="cls-1" d="M901.22,257.06v12.19h-7.43V257.06l-11.62-19.87h6.56a2.49,2.49,0,0,1,1.54.45,3.41,3.41,0,0,1,.92,1.16l4.53,9.32c.37.75.71,1.44,1,2.08s.58,1.25.82,1.87a16.25,16.25,0,0,1,.79-1.9c.31-.63.64-1.31,1-2l4.49-9.32a3.4,3.4,0,0,1,.36-.58,3.2,3.2,0,0,1,.53-.51,2.54,2.54,0,0,1,1.53-.52h6.6Z"/><path class="cls-1" d="M946.94,253.21a17.18,17.18,0,0,1-1.2,6.46,15.28,15.28,0,0,1-8.62,8.67,19.06,19.06,0,0,1-13.63,0,15.27,15.27,0,0,1-8.66-8.67,18,18,0,0,1,0-12.93,15.26,15.26,0,0,1,3.39-5.19,15.63,15.63,0,0,1,5.27-3.46,18,18,0,0,1,6.82-1.25,17.61,17.61,0,0,1,6.81,1.27,15.6,15.6,0,0,1,5.24,3.46,15.44,15.44,0,0,1,3.38,5.19,17.17,17.17,0,0,1,1.2,6.45m-7.61,0a13.91,13.91,0,0,0-.62-4.28,9.16,9.16,0,0,0-1.77-3.23,7.6,7.6,0,0,0-2.83-2,9.68,9.68,0,0,0-3.8-.7,9.85,9.85,0,0,0-3.84.7,7.56,7.56,0,0,0-2.84,2,9.16,9.16,0,0,0-1.77,3.23,15.15,15.15,0,0,0,0,8.58,9,9,0,0,0,1.77,3.22,7.43,7.43,0,0,0,2.84,2,9.85,9.85,0,0,0,3.84.7,9.68,9.68,0,0,0,3.8-.7,7.47,7.47,0,0,0,2.83-2,9,9,0,0,0,1.77-3.22,14,14,0,0,0,.62-4.3"/><path class="cls-1" d="M965.86,263.37a6.62,6.62,0,0,0,2.67-.5,5.27,5.27,0,0,0,2-1.41,6.25,6.25,0,0,0,1.24-2.26,9.66,9.66,0,0,0,.43-3v-19h7.44v19a14.79,14.79,0,0,1-1,5.41,11.93,11.93,0,0,1-2.74,4.24,12.36,12.36,0,0,1-4.33,2.78,17.22,17.22,0,0,1-11.51,0,12.36,12.36,0,0,1-4.33-2.78,11.91,11.91,0,0,1-2.73-4.24,15,15,0,0,1-.94-5.41v-19h7.43v19a9.7,9.7,0,0,0,.43,3,6.54,6.54,0,0,0,1.24,2.27,5.34,5.34,0,0,0,2,1.42,6.71,6.71,0,0,0,2.68.5"/><path class="cls-1" d="M993.93,257.39v11.85h-7.44V237.19h10.43a21.28,21.28,0,0,1,5.93.72,10.94,10.94,0,0,1,4,2,7.47,7.47,0,0,1,2.26,3,10,10,0,0,1,.7,3.78,10.41,10.41,0,0,1-.41,2.95,9,9,0,0,1-1.25,2.57,9.77,9.77,0,0,1-2,2.1,11.09,11.09,0,0,1-2.76,1.52,6.33,6.33,0,0,1,1.39.92,5.35,5.35,0,0,1,1.14,1.34l6.82,11.15H1006a2.85,2.85,0,0,1-2.69-1.4L998,258.53a2.29,2.29,0,0,0-.83-.88,2.71,2.71,0,0,0-1.33-.26Zm0-5.13h3a7.91,7.91,0,0,0,2.59-.38,4.59,4.59,0,0,0,1.74-1.07,4.09,4.09,0,0,0,1-1.59,6.3,6.3,0,0,0,.3-2,4.18,4.18,0,0,0-1.37-3.31,6.43,6.43,0,0,0-4.26-1.18h-3Z"/><path class="cls-1" d="M892.69,311.33V322h-7.44V290h11.31a18.81,18.81,0,0,1,5.82.8,11.37,11.37,0,0,1,4,2.21,8.62,8.62,0,0,1,2.32,3.33,11.24,11.24,0,0,1,.75,4.14,12.15,12.15,0,0,1-.77,4.39,8.89,8.89,0,0,1-2.35,3.44,11.27,11.27,0,0,1-4,2.23,18.56,18.56,0,0,1-5.75.8Zm0-5.61h3.87a5.46,5.46,0,0,0,4.18-1.38,5.53,5.53,0,0,0,1.28-3.87,5.8,5.8,0,0,0-.33-2,4,4,0,0,0-1-1.55,4.42,4.42,0,0,0-1.69-1,7.33,7.33,0,0,0-2.43-.35h-3.87Z"/><path class="cls-1" d="M941.44,322.05h-5.77a2.74,2.74,0,0,1-1.59-.45,2.36,2.36,0,0,1-.87-1.16l-1.89-5.59H919.13l-1.89,5.59a2.57,2.57,0,0,1-2.42,1.61H909L921.42,290H929Zm-20.59-12.26h8.75L926.66,301c-.2-.55-.42-1.21-.68-2s-.5-1.58-.75-2.46c-.24.9-.48,1.73-.73,2.49s-.48,1.42-.7,2Z"/><path class="cls-1" d="M966.28,313.75a1.46,1.46,0,0,1,.53.1,1.53,1.53,0,0,1,.5.34l3,3.1a12.25,12.25,0,0,1-4.85,3.82,16.93,16.93,0,0,1-6.9,1.29,16.37,16.37,0,0,1-6.54-1.25,14.13,14.13,0,0,1-4.91-3.42,15.32,15.32,0,0,1-3.09-5.2,19.1,19.1,0,0,1-1.08-6.52,17.22,17.22,0,0,1,1.23-6.59,15.24,15.24,0,0,1,8.74-8.57,18.35,18.35,0,0,1,6.79-1.21,17.45,17.45,0,0,1,3.4.32,16,16,0,0,1,3,.88,14,14,0,0,1,2.55,1.34,12.58,12.58,0,0,1,2.07,1.73l-2.51,3.36a3.14,3.14,0,0,1-.58.57,1.5,1.5,0,0,1-.92.25,1.66,1.66,0,0,1-.75-.18c-.23-.12-.48-.26-.74-.43s-.56-.35-.87-.55a6.15,6.15,0,0,0-1.12-.54,8.64,8.64,0,0,0-1.52-.44,11,11,0,0,0-2-.17,9.37,9.37,0,0,0-3.69.71,8,8,0,0,0-2.87,2.05,9.31,9.31,0,0,0-1.88,3.22,12.85,12.85,0,0,0-.67,4.25,13.33,13.33,0,0,0,.67,4.37,9.64,9.64,0,0,0,1.83,3.23,7.89,7.89,0,0,0,2.69,2,8,8,0,0,0,3.3.68,17.23,17.23,0,0,0,1.85-.09,7.83,7.83,0,0,0,1.55-.35,6.8,6.8,0,0,0,1.37-.63,8.79,8.79,0,0,0,1.31-.95,2.12,2.12,0,0,1,.57-.36,1.43,1.43,0,0,1,.64-.15"/><path class="cls-1" d="M983.11,303h1.18a2.7,2.7,0,0,0,2.38-1l7.22-10.47a3,3,0,0,1,1.35-1.17,4.89,4.89,0,0,1,1.86-.31h6.47l-9.51,13a6.39,6.39,0,0,1-1,1.17,6.92,6.92,0,0,1-1.12.76,5.57,5.57,0,0,1,1.52.86,5.26,5.26,0,0,1,1.27,1.43l9.68,14.88h-6.65a5.63,5.63,0,0,1-1.09-.1,2.47,2.47,0,0,1-.78-.26,2.22,2.22,0,0,1-.57-.42,5.75,5.75,0,0,1-.46-.59l-7.26-11.15a2.19,2.19,0,0,0-1-.87,4.31,4.31,0,0,0-1.64-.25h-1.8v13.64h-7.44V290h7.44Z"/><path class="cls-1" d="M1038.94,322.05h-5.76a2.75,2.75,0,0,1-1.6-.45,2.42,2.42,0,0,1-.87-1.16l-1.89-5.59h-12.19l-1.89,5.59a2.45,2.45,0,0,1-.85,1.11,2.5,2.5,0,0,1-1.57.5h-5.81L1018.92,290h7.61Zm-20.59-12.26h8.76l-2.95-8.78c-.19-.55-.42-1.21-.67-2s-.51-1.58-.76-2.46c-.24.9-.48,1.73-.73,2.49s-.48,1.42-.7,2Z"/><path class="cls-1" d="M1057.33,316.68a13,13,0,0,0,2.73-.26,14.41,14.41,0,0,0,2.25-.71v-4.86h-3.17a1.57,1.57,0,0,1-1.1-.37,1.25,1.25,0,0,1-.4-1v-4.1H1069V319a17.81,17.81,0,0,1-2.56,1.55,18.11,18.11,0,0,1-2.84,1.07,22.27,22.27,0,0,1-3.21.61,32.37,32.37,0,0,1-3.67.2,16.6,16.6,0,0,1-6.51-1.25,15.57,15.57,0,0,1-8.61-8.62,16.86,16.86,0,0,1-1.24-6.52,17.8,17.8,0,0,1,1.18-6.59,15,15,0,0,1,3.4-5.18,15.43,15.43,0,0,1,5.35-3.39,19.22,19.22,0,0,1,7-1.21,20.51,20.51,0,0,1,3.77.33,17.8,17.8,0,0,1,3.24.91,15.32,15.32,0,0,1,2.72,1.35,14.88,14.88,0,0,1,2.2,1.73l-2.16,3.27a2.42,2.42,0,0,1-.73.73,1.82,1.82,0,0,1-.94.26,2.59,2.59,0,0,1-1.36-.44c-.59-.35-1.14-.66-1.66-.91a10.21,10.21,0,0,0-1.6-.63,11.13,11.13,0,0,0-1.72-.35,17.44,17.44,0,0,0-2-.11,9.41,9.41,0,0,0-3.76.73,8.15,8.15,0,0,0-2.85,2.08,9.6,9.6,0,0,0-1.82,3.23A13.12,13.12,0,0,0,1048,306a13.47,13.47,0,0,0,.7,4.53,9.72,9.72,0,0,0,2,3.34,8.09,8.09,0,0,0,2.95,2.08,9.45,9.45,0,0,0,3.72.72"/><rect class="cls-1" x="1076.25" y="289.99" width="7.48" height="32.05"/><path class="cls-1" d="M1096.43,290a2.54,2.54,0,0,1,.59.17,2.27,2.27,0,0,1,.51.34,7.13,7.13,0,0,1,.55.6l15.22,19.25c-.06-.62-.1-1.22-.13-1.79s-.05-1.13-.05-1.65V290h6.56v32.06h-3.87a3.48,3.48,0,0,1-1.45-.27,3.16,3.16,0,0,1-1.15-1l-15.11-19.09c0,.55.08,1.1.11,1.64s0,1,0,1.5v17.19h-6.55V290h3.91a6.4,6.4,0,0,1,.82,0"/><path class="cls-1" d="M1142.08,316.68a13.18,13.18,0,0,0,2.73-.26,14.29,14.29,0,0,0,2.24-.71v-4.86h-3.17a1.59,1.59,0,0,1-1.1-.37,1.29,1.29,0,0,1-.4-1v-4.1h11.4V319a17.28,17.28,0,0,1-2.56,1.55,18.11,18.11,0,0,1-2.84,1.07,22.27,22.27,0,0,1-3.21.61,32.37,32.37,0,0,1-3.67.2,16.64,16.64,0,0,1-6.51-1.25,15.57,15.57,0,0,1-8.61-8.62,16.86,16.86,0,0,1-1.24-6.52,17.8,17.8,0,0,1,1.18-6.59,15,15,0,0,1,3.4-5.18,15.43,15.43,0,0,1,5.35-3.39,19.24,19.24,0,0,1,7-1.21,20.48,20.48,0,0,1,3.76.33,17.8,17.8,0,0,1,3.24.91,15.32,15.32,0,0,1,2.72,1.35A14.88,14.88,0,0,1,1154,294l-2.16,3.27a2.42,2.42,0,0,1-.73.73,1.82,1.82,0,0,1-.94.26,2.59,2.59,0,0,1-1.36-.44c-.59-.35-1.14-.66-1.66-.91a10.21,10.21,0,0,0-1.6-.63,11.25,11.25,0,0,0-1.71-.35,17.75,17.75,0,0,0-2-.11,9.41,9.41,0,0,0-3.76.73,8.24,8.24,0,0,0-2.85,2.08,9.41,9.41,0,0,0-1.81,3.23,12.84,12.84,0,0,0-.64,4.19,13.47,13.47,0,0,0,.7,4.53,9.72,9.72,0,0,0,2,3.34,8.17,8.17,0,0,0,2.95,2.08,9.47,9.47,0,0,0,3.73.72"/><path class="cls-1" d="M903.11,349.3a2.38,2.38,0,0,1-.69.79,1.51,1.51,0,0,1-.93.27,2.32,2.32,0,0,1-1.09-.32l-1.32-.71a11,11,0,0,0-1.68-.72,6.86,6.86,0,0,0-2.16-.32,4.65,4.65,0,0,0-3.11.89,3,3,0,0,0-1,2.41,2.23,2.23,0,0,0,.62,1.61,5.42,5.42,0,0,0,1.62,1.1,17.58,17.58,0,0,0,2.29.85c.85.25,1.73.54,2.62.85a25.25,25.25,0,0,1,2.63,1.11,8.91,8.91,0,0,1,2.29,1.63,7.51,7.51,0,0,1,1.62,2.41,8.61,8.61,0,0,1,.61,3.42,11,11,0,0,1-.77,4.16,9.5,9.5,0,0,1-2.23,3.37,10.29,10.29,0,0,1-3.61,2.27,13.47,13.47,0,0,1-4.87.83,16.1,16.1,0,0,1-3-.31,18,18,0,0,1-5.73-2.2,11.48,11.48,0,0,1-2.22-1.72l2.2-3.47a1.75,1.75,0,0,1,.68-.64,1.94,1.94,0,0,1,1-.24,2.5,2.5,0,0,1,1.33.42l1.52.92a11.3,11.3,0,0,0,1.94.92,7.31,7.31,0,0,0,2.6.42,4.92,4.92,0,0,0,3.15-.89,3.42,3.42,0,0,0,1.12-2.82,2.67,2.67,0,0,0-.62-1.83,4.77,4.77,0,0,0-1.62-1.17,13.91,13.91,0,0,0-2.27-.81c-.85-.24-1.73-.5-2.62-.79a17.9,17.9,0,0,1-2.62-1.05,8.41,8.41,0,0,1-2.28-1.65,7.78,7.78,0,0,1-1.61-2.55,10.17,10.17,0,0,1-.62-3.78,8.8,8.8,0,0,1,.73-3.51,8.91,8.91,0,0,1,2.13-3.06,10.29,10.29,0,0,1,3.46-2.14,12.61,12.61,0,0,1,4.68-.81,18,18,0,0,1,2.87.23,14.69,14.69,0,0,1,2.65.68,14.41,14.41,0,0,1,2.35,1.08,10.89,10.89,0,0,1,1.94,1.42Z"/><path class="cls-1" d="M943.51,358.81a17.18,17.18,0,0,1-1.2,6.46,15.57,15.57,0,0,1-3.38,5.21,15.4,15.4,0,0,1-5.25,3.46,19,19,0,0,1-13.62,0,15.27,15.27,0,0,1-8.66-8.67,18,18,0,0,1,0-12.93,15.4,15.4,0,0,1,3.39-5.2,15.76,15.76,0,0,1,5.27-3.45,18,18,0,0,1,6.82-1.25,17.53,17.53,0,0,1,6.8,1.27,15.3,15.3,0,0,1,8.63,8.65,17.17,17.17,0,0,1,1.2,6.45m-7.61,0a13.91,13.91,0,0,0-.62-4.28,9.16,9.16,0,0,0-1.77-3.23,7.6,7.6,0,0,0-2.83-2,9.68,9.68,0,0,0-3.8-.7,9.85,9.85,0,0,0-3.84.7,7.56,7.56,0,0,0-2.84,2,9.16,9.16,0,0,0-1.77,3.23,15.15,15.15,0,0,0,0,8.58,9,9,0,0,0,1.77,3.22,7.43,7.43,0,0,0,2.84,2,9.85,9.85,0,0,0,3.84.7,9.68,9.68,0,0,0,3.8-.7,7.47,7.47,0,0,0,2.83-2,9,9,0,0,0,1.77-3.22,14,14,0,0,0,.62-4.3"/><polygon class="cls-1" points="957.28 368.9 969.16 368.9 969.16 374.84 949.84 374.84 949.84 342.79 957.28 342.79 957.28 368.9"/><path class="cls-1" d="M988.78,369a6.88,6.88,0,0,0,2.68-.5,5.55,5.55,0,0,0,2-1.41,6.4,6.4,0,0,0,1.24-2.26,10,10,0,0,0,.43-3v-19h7.43v19a15,15,0,0,1-.95,5.41,12.07,12.07,0,0,1-2.74,4.24,12.31,12.31,0,0,1-4.34,2.78,17.19,17.19,0,0,1-11.5,0,12.4,12.4,0,0,1-4.34-2.78,12,12,0,0,1-2.72-4.24,15,15,0,0,1-1-5.41v-19h7.44v19a10,10,0,0,0,.42,3,6.56,6.56,0,0,0,1.25,2.27,5.3,5.3,0,0,0,2,1.42,6.8,6.8,0,0,0,2.67.5"/><polygon class="cls-1" points="1033.44 342.79 1033.44 348.69 1024.42 348.69 1024.42 374.85 1016.98 374.85 1016.98 348.69 1007.96 348.69 1007.96 342.79 1033.44 342.79"/><rect class="cls-1" x="1039.95" y="342.79" width="7.48" height="32.05"/><path class="cls-1" d="M1087.78,358.81a17.18,17.18,0,0,1-1.2,6.46,15.28,15.28,0,0,1-8.62,8.67,19.06,19.06,0,0,1-13.63,0,15.27,15.27,0,0,1-8.66-8.67,18,18,0,0,1,0-12.93,15.4,15.4,0,0,1,3.39-5.2,15.76,15.76,0,0,1,5.27-3.45,18,18,0,0,1,6.82-1.25,17.61,17.61,0,0,1,6.81,1.27,15.32,15.32,0,0,1,8.62,8.65,17.17,17.17,0,0,1,1.2,6.45m-7.61,0a13.91,13.91,0,0,0-.62-4.28,9.16,9.16,0,0,0-1.77-3.23,7.6,7.6,0,0,0-2.83-2,9.68,9.68,0,0,0-3.8-.7,9.85,9.85,0,0,0-3.84.7,7.64,7.64,0,0,0-2.84,2,9.16,9.16,0,0,0-1.77,3.23,15.15,15.15,0,0,0,0,8.58,9,9,0,0,0,1.77,3.22,7.51,7.51,0,0,0,2.84,2,9.85,9.85,0,0,0,3.84.7,9.68,9.68,0,0,0,3.8-.7,7.47,7.47,0,0,0,2.83-2,9,9,0,0,0,1.77-3.22,14,14,0,0,0,.62-4.3"/><path class="cls-1" d="M1098.84,342.83a2.63,2.63,0,0,1,.6.17,2.21,2.21,0,0,1,.5.34,4.23,4.23,0,0,1,.56.6l15.22,19.25c-.06-.62-.1-1.22-.13-1.8s0-1.12,0-1.64v-17h6.56v32.06h-3.87a3.52,3.52,0,0,1-1.46-.27,3.21,3.21,0,0,1-1.14-1l-15.11-19.09c0,.55.08,1.1.11,1.64s0,1,0,1.5v17.19h-6.55V342.79H1098a6.24,6.24,0,0,1,.81,0"/><path class="cls-1" d="M1128.83,371.39a3.58,3.58,0,0,1,.3-1.47,3.64,3.64,0,0,1,.81-1.19,3.8,3.8,0,0,1,1.22-.8,4.05,4.05,0,0,1,3.06,0,4,4,0,0,1,1.23.8,3.7,3.7,0,0,1,.83,1.19,3.57,3.57,0,0,1,.29,1.47,3.7,3.7,0,0,1-.29,1.49,3.59,3.59,0,0,1-.83,1.19,3.79,3.79,0,0,1-1.23.8,4.32,4.32,0,0,1-3.06,0,3.64,3.64,0,0,1-1.22-.8,3.54,3.54,0,0,1-.81-1.19,3.71,3.71,0,0,1-.3-1.49"/></svg>