<svg id="Logos_Patrocinadores" data-name="Logos Patrocinadores" xmlns="http://www.w3.org/2000/svg" viewBox="0 0 1500 600"><defs><style>.cls-1{fill:#7a97ab;}</style></defs><path class="cls-1" d="M530.61,390c-.45-2.59-1-5-1.34-7.42a148,148,0,0,1-2.77-25.1,61.34,61.34,0,0,1,2.41-19.75A43.52,43.52,0,0,1,542.76,317c4.91-4.29,10.27-7.95,15.63-11.8A116.4,116.4,0,0,0,572,294.76a40,40,0,0,0,10.54-15.19,37.81,37.81,0,0,0,1.25-4.55,13.33,13.33,0,0,0,0-2.68c0-3.22-2.32-4.29-5.09-2.59a10.24,10.24,0,0,0-2.59,2.23,24.61,24.61,0,0,1-15.64,8.22,145.25,145.25,0,0,1-16.43,0,55.55,55.55,0,0,0-12.78,1.52,25.11,25.11,0,0,0-13.76,8.93,26.29,26.29,0,0,1-2,2.5,10.21,10.21,0,0,1-1.25,1.52,3.32,3.32,0,0,1-4.65.54,3.45,3.45,0,0,1-.54-.54c-.71-.8-1.34-1.69-2.05-2.59a59.38,59.38,0,0,0-4.56-5.09,26,26,0,0,0-13.22-6.08,76.81,76.81,0,0,0-12.77-.71,113.94,113.94,0,0,1-13.58,0,34,34,0,0,1-8.94-2.59,22.3,22.3,0,0,1-5.8-4.11,21.39,21.39,0,0,0-2.86-2.77c-1.25-1-2.68-1.88-4.29-1a4,4,0,0,0-1.43,4,26.85,26.85,0,0,0,4,11,46.51,46.51,0,0,0,8.93,11.16c4.29,3.85,8.94,7.06,13.67,10.55S475.57,313.34,480,317a42.56,42.56,0,0,1,10.9,13,48.08,48.08,0,0,1,4.91,15.46,91.5,91.5,0,0,1,0,24.74c-.89,6.53-2.05,13.05-3.12,19.48a7.5,7.5,0,0,1,0,1.34,11.94,11.94,0,0,1-4.38,0,100.08,100.08,0,0,1-24.84-7.15,73.83,73.83,0,0,1-21.17-13.4,72.74,72.74,0,0,1-17.51-23.76A92.44,92.44,0,0,1,417.5,320a110,110,0,0,1-.71-18.59,105,105,0,0,1,9.65-39,95.62,95.62,0,0,1,17.15-25.55,88.78,88.78,0,0,1,23.76-17.87A86.12,86.12,0,0,1,494.16,210a100.34,100.34,0,0,1,10.54-1.25H516a102.5,102.5,0,0,1,18.76,3,105.51,105.51,0,0,1,28.32,12.5,101.36,101.36,0,0,1,20.82,17.25A103.09,103.09,0,0,1,596.45,258a105,105,0,0,1,7.95,17,97.93,97.93,0,0,1,5.36,22.51,83.28,83.28,0,0,1,.45,14.12,74.89,74.89,0,0,1-17.87,46.63,84.59,84.59,0,0,1-22,17.87,117.42,117.42,0,0,1-37.43,13.49h-1.07Z"/><path class="cls-1" d="M762.52,286.77v37.17a9.73,9.73,0,0,1-.11,1.62,3,3,0,0,1-5.81-.12,8.06,8.06,0,0,1-.08-1.2q0-26.6,0-53.21c0-2.92,2.16-3.81,3.77-3.37a3.45,3.45,0,0,1,2.33,2.3q3.92,9.94,7.86,19.85,3.57,9,7.15,18a2,2,0,0,0,.54.85v-.85q0-18.48,0-37c0-2.09,1.25-3.33,3.21-3.23a2.87,2.87,0,0,1,2.75,2.66c0,.22,0,.45,0,.68v53.38c0,1.75-.63,2.81-1.95,3.27a3,3,0,0,1-3.86-1.86l-11.46-28.71q-2.05-5.16-4.12-10.3Z"/><path class="cls-1" d="M911.11,301.06v5.44c0,6.05,0,12.1,0,18.14,0,2.14-1.38,3.38-3.36,3.1a2.81,2.81,0,0,1-2.43-2.49,10.29,10.29,0,0,1,0-1.11q0-26.52,0-53a3,3,0,0,1,.78-2.52,3.39,3.39,0,0,1,1.85-.9c4,0,7.93-.14,11.87.17,5.6.43,9.43,3.46,10.92,8.94a26.47,26.47,0,0,1-.76,17.19,10.48,10.48,0,0,1-3.14,4.21c1,1.22,2,2.33,2.79,3.58a15.46,15.46,0,0,1,2.23,8.57c0,4.82-.08,9.64-.15,14.46a2.74,2.74,0,0,1-2.9,3,2.88,2.88,0,0,1-2.91-3c0-4.68,0-9.36,0-14a16.65,16.65,0,0,0-.4-3.73,6.82,6.82,0,0,0-6.2-5.63C916.57,301.06,913.88,301.15,911.11,301.06ZM911,295a1.34,1.34,0,0,0,.27.1c2.48,0,5,.09,7.44-.08,3.41-.23,5.38-1.88,6.2-5.14a24,24,0,0,0,.12-10.76,6.38,6.38,0,0,0-6.09-5.52c-2.35-.2-4.73-.11-7.09-.14-.28,0-.55,0-.85,0Z"/><path class="cls-1" d="M700,297.74c0,5.07,0,10.15,0,15.22a17.82,17.82,0,0,1-2,8.39,11.35,11.35,0,0,1-7.94,6.07,15.88,15.88,0,0,1-8.93-.5c-3.94-1.47-6.16-4.53-7.38-8.42a26.28,26.28,0,0,1-1-7.94q0-12.88,0-25.75a23.68,23.68,0,0,1,1.74-9.94c2.05-4.56,5.67-6.84,10.56-7.2a14.17,14.17,0,0,1,8.57,1.75,12.08,12.08,0,0,1,5.67,8.29,40.39,40.39,0,0,1,.77,7.11c.11,4.31,0,8.61,0,12.92Zm-6.12,0h.06c0-4.36.06-8.72,0-13.08a32.78,32.78,0,0,0-.62-5.93c-.57-2.71-2.15-4.65-5.08-5.06a15.35,15.35,0,0,0-3.32-.05A5.64,5.64,0,0,0,680,277a12.36,12.36,0,0,0-1.21,5.37q-.06,15.13,0,30.27a17.69,17.69,0,0,0,.54,3.88c.62,2.57,2,4.57,4.76,5.13a11.22,11.22,0,0,0,3.22.17,6.22,6.22,0,0,0,6-5.14,16.41,16.41,0,0,0,.54-3.87C693.87,307.78,693.84,302.77,693.84,297.75Z"/><path class="cls-1" d="M1067.74,304.79c-.24.47-.4.78-.56,1.11q-4.61,9.92-9.23,19.83a3,3,0,0,1-5.75-1.48,6.92,6.92,0,0,1,.55-1.43q5.68-12.13,11.41-24.28a1.74,1.74,0,0,0,0-1.66q-5.84-12.33-11.6-24.67a3,3,0,0,1,1.68-4.45,2.67,2.67,0,0,1,3.14.88,5.71,5.71,0,0,1,.69,1.17l9.15,19.68c.13.27.28.55.48.95.2-.4.35-.68.49-1l9.08-19.52c.12-.26.23-.52.37-.77a3,3,0,0,1,5.36,2.73q-3.06,6.63-6.16,13.24c-1.8,3.88-3.58,7.76-5.42,11.61a2,2,0,0,0,0,1.91q5.73,12.22,11.4,24.47c.82,1.77.5,3.21-.91,4.14a2.89,2.89,0,0,1-4.32-1.22l-7.2-15.49C1069.56,308.69,1068.69,306.82,1067.74,304.79Z"/><path class="cls-1" d="M995.34,297.74v26.09c0,.34,0,.68,0,1a2.75,2.75,0,0,1-2.88,2.93,2.81,2.81,0,0,1-3.08-2.83c0-.29,0-.57,0-.86q0-26.43,0-52.87a6.72,6.72,0,0,1,.08-1.27,2.9,2.9,0,0,1,3.21-2.32,2.8,2.8,0,0,1,2.67,2.72c0,1.77,0,3.54,0,5.31Z"/><path class="cls-1" d="M842,297.67q0-13.44,0-26.87a3,3,0,0,1,4-3,2.82,2.82,0,0,1,1.94,2.48,8.68,8.68,0,0,1,0,1V324c0,.29,0,.57,0,.86a2.8,2.8,0,0,1-3,2.93,2.75,2.75,0,0,1-3-3q0-13.56,0-27.12Z"/></svg>