<svg id="Logos_Patrocinadores" data-name="Logos Patrocinadores" xmlns="http://www.w3.org/2000/svg" viewBox="0 0 1500 600"><defs><style>.cls-1{fill:#7a97ab;}</style></defs><path class="cls-1" d="M495.73,354.26h.86c0,9.62,0,19.24,0,28.85,0,1.34.66,3-1.12,3.86Z"/><path class="cls-1" d="M717.17,387.1l-111.33,0c-2.27,0-4.53,0-6.79-.07-.89-.88-.52-2-.52-3q0-54.85,0-109.72c0-1-.31-2.14.45-3.08,1.72-.08,3.44-.25,5.16-.25,36.29,0,72.58,0,108.87-.09,3.28,0,4.36.73,4.21,4.11-.28,6.24-.08,12.49-.08,18.74,0,5.94,0,5.94-5.57,6.32-1.4.6-2.88.3-4.32.3q-38.6,0-77.17,0c-1.9.3-1.14,1.81-1.19,2.84-.18,3.7.19,7.42-.22,11.12,1,1.33,2.43.6,3.62.6,15.66.06,31.32.18,47-.07,3.83-.06,4.56,1.19,4.43,4.65-.25,6.76,0,13.53-.09,20.3,0,1.38.58,3-1,4-1.31,1-2.82.48-4.23.48-16.2.06-32.4,0-48.6.06-2,4-.5,8.22-.84,12.33-.06.74.59,1.14,1.31,1.21s1.6,0,2.4,0h66.27c1,0,2.14.26,3.1-.4,10.7-13.35,21.17-26.87,31.25-40.7,3.73-5.11,7.92-9.88,11.81-14.89,7.36-9.48,14.78-18.94,21.89-28.61,2-2.67,3.25-1.47,4.36.06,23.1,31.79,47.86,62.31,71.5,93.68,1.18,1.57,3.18,2.41,4,4.45,1-1,.47-2.25.47-3.33,0-31,.08-62.06,0-93.09,0-3.19.57-4.37,4.06-4.23,7.44.3,14.91.22,22.37,0,2.75-.07,3.61.63,3.58,3.48-.16,13.16-.07,26.33-.07,40.39,4.78-3.63,9.06-6.84,13.32-10.09l41.78-32a6.77,6.77,0,0,1,4.27-1.79c14.91.07,29.83,0,44.74.06a7.89,7.89,0,0,1,1.55.41l-32.51,25.29c-.11,1.36-1.13,1.55-2.17,1.71l-25.69,19.52c-4.74,3.6-9.47,7.2-14.68,11.18l74.59,57.26c-.49,1.39-1.6.74-2.35.74-14.25.05-28.5,0-42.75.08a8.39,8.39,0,0,1-5.42-1.88q-14.28-10.85-28.58-21.64c-6.94-5.26-14-10.48-20.63-16.09a11.89,11.89,0,0,0-2.38-1.23c-.72-.35-1.52-.62-1.62-1.61-2-1.7-1.44.34-1.45,1.1-.06,4.13,0,8.25,0,12.38,0,8.52-.13,17,.08,25.55.07,2.91-.87,3.45-3.58,3.43-15.84-.13-31.68-.32-47.5.11-4.69.12-7.28-1.82-9.68-5.08-10.15-13.78-20.68-27.26-31.27-40.7-5.5-7-10.73-14.15-16.29-21.5-11.8,15.31-23.39,30.29-34.92,45.32-5.44,7.09-10.76,14.27-16.14,21.41Q717.89,387.51,717.17,387.1Z"/><path class="cls-1" d="M587,294c-5.39-11.18-14.39-18-25.88-22-.63-.78-1.41-.56-2.19-.3a47.29,47.29,0,0,0-10.28-.86q-38.25,0-76.51,0c-2.25,0-4.5.15-6.74.23-.63,1.13-.35,2.35-.35,3.52q0,54.43,0,108.87c0,1.16-.33,2.4.41,3.49l30-.06c1.41-1,.69-2.44.7-3.65.08-9.59,0-19.18,0-28.76.5-2.55,2.55-1.44,3.88-1.45,16.28-.08,32.57,0,48.86-.08,1.4,0,2.91.5,4.23-.47a16.64,16.64,0,0,1,2.28-.6A40.54,40.54,0,0,0,587,294Zm-25,20.26c-1,4.76-4,7.57-8.72,8.66-6.33-.59-12.68-.15-19-.25-12.56-.19-25.13.31-37.69-.26-.72-7.22-.38-14.45-.17-21.68,1.07-1.09,2.46-.81,3.75-.81,16.43,0,32.86,0,49.29-.06,1.56,0,3.11.81,4.68.11,4.69,1.05,7,4.3,7.93,8.74C562,310.58,561.46,312.42,562,314.28Z"/><rect class="cls-1" x="1002.61" y="207.4" width="63.39" height="63.39"/></svg>