<svg id="Logos_Patrocinadores" data-name="Logos Patrocinadores" xmlns="http://www.w3.org/2000/svg" viewBox="0 0 1500 600"><defs><style>.cls-1{fill:#7a97ab;}</style></defs><path class="cls-1" d="M970.21,365.61v87.13c-.13.6-.29,1.19-.39,1.8-.26,1.54-.36,3.13-.77,4.64a27.34,27.34,0,0,1-26.58,20.24c-8.05,0-16.1.06-24.15.06H557.14a27.53,27.53,0,0,1-27.33-27.81c.1-19.08,0-38.16,0-57.24v-246a26.31,26.31,0,0,1,1.15-8.32c3.62-11,11.16-17.42,22.53-19.26a48.66,48.66,0,0,1,7.74-.31H941.47a31.61,31.61,0,0,1,4.87.28c10.49,1.62,17.73,7.43,21.9,17.14,1.5,3.5,1.7,7.19,1.7,10.92v154.5q0,30,0,59.95A20.24,20.24,0,0,0,970.21,365.61ZM750,471.23q51.82,0,103.67,0,44.31,0,88.64-.11h1c7.56-.39,13.11-3.94,16.58-10.66a21.55,21.55,0,0,0,2.07-10.14q0-150.36,0-300.71c0-.84,0-1.69,0-2.53-.58-7.21-3.94-12.68-10.32-16.17a19.82,19.82,0,0,0-9.76-2.21q-191.71,0-383.44,0c-.68,0-1.35,0-2,0a17.84,17.84,0,0,0-8.79,2.61c-6.55,4-9.6,9.89-9.6,17.45q0,151,0,301.9a23.16,23.16,0,0,0,.22,3.53c1.2,7.7,5.31,13.09,12.7,15.85a22.88,22.88,0,0,0,8.13,1.14Z"/><path class="cls-1" d="M631.14,223.45v169q0,20.09,0,40.18a17.9,17.9,0,0,1-.21,3.36A12.75,12.75,0,0,1,619,446.58c-2.24.2-4.49.32-6.74.32-12,0-24,0-36,0a33.17,33.17,0,0,1-6.36-.67c-5.75-1.18-9-5.24-9-11.16,0-5.12,0-10.25,0-15.37V177.36c0-3.89-.07-7.77.09-11.65a22.29,22.29,0,0,1,1-5.79c1.52-4.78,5-7.3,9.91-8a42.82,42.82,0,0,1,5.89-.34l142,0a30.39,30.39,0,0,1,10.29,1.5c9.35,3.36,15,10,17.14,19.65a27.44,27.44,0,0,1,.61,5.86q.06,52.94,0,105.86a26.16,26.16,0,0,1-17,24.86,43.31,43.31,0,0,1-8.54,1.88c-1.5.24-3,.43-4.49.72a5.63,5.63,0,0,0-4.85,6.44c0,.39.09.79.13,1.18a4.14,4.14,0,0,0,3.27,3.84c2.66.68,5.37,1.21,8.05,1.82a39.84,39.84,0,0,1,4.73,1.17,16,16,0,0,1,9.65,9.77c2.06,5.29,4.07,10.6,6.07,15.91,1.81,4.84,3.56,9.71,5.37,14.56a25.16,25.16,0,0,0,1.43,3.23,11.81,11.81,0,0,0,9.41,6.33,58.24,58.24,0,0,0,6.73.35q42.46,0,84.93,0a29.58,29.58,0,0,0,6-.66c6.87-1.45,10.58-5.73,10.78-12.73.14-4.66,0-9.34-.25-14a11.64,11.64,0,0,0-9.93-11.21,75.38,75.38,0,0,0-9.37-1c-6.51-.39-13-.67-19.56-.95-6.8-.29-13.6-.51-20.4-.79a87.74,87.74,0,0,1-13.92-1.35c-11.17-2.25-20-7.94-25.8-17.86a26.58,26.58,0,0,1-3.73-12.82c0-1.13-.07-2.25-.07-3.38q0-56.39,0-112.79c0-3.42.12-6.86.46-10.27a26.68,26.68,0,0,1,3.88-11.23c3.48-5.71,8.65-9,15.08-10.49a40.41,40.41,0,0,1,9-1q61.31,0,122.59,0a33.21,33.21,0,0,1,6.53.61c6.09,1.25,9.4,5.16,9.85,11.39.1,1.29.14,2.58.14,3.88,0,12.66,0,25.32,0,38a36.61,36.61,0,0,1-.45,5.53c-.91,5.75-4.38,9.32-10.09,10.29a42.55,42.55,0,0,1-7,.63c-14.13.06-28.25,0-42.38,0-7.65,0-15.31,0-23,.07a29.36,29.36,0,0,0-6.34.73,11.74,11.74,0,0,0-9.38,11.34c-.16,5.12-.11,10.25,0,15.37a9.76,9.76,0,0,0,3.73,7.47,17.94,17.94,0,0,0,9.51,4c4.18.5,8.4.75,12.61,1,6.9.46,13.8.87,20.71,1.28,4.71.29,9.43.51,14.15.79,5.16.32,10.34.55,15.48,1.07a25.34,25.34,0,0,1,12.15,4.71c9.91,7,15.19,16.57,15.2,28.77q.09,51,0,102c0,6,0,12,0,18.06a26.08,26.08,0,0,1-2.16,10.67c-3,6.71-8.21,10.84-15,13.22a37.27,37.27,0,0,1-12.43,2l-165.3,0c-11.09,0-22.18,0-33.26-.07a45.49,45.49,0,0,1-7.55-.69c-5.41-1-8.78-4.35-10.31-9.52-1.12-3.77-2.1-7.59-3-11.41q-7.63-30.93-15.24-61.89c-.47-1.91-1-3.79-1.66-5.66a11.62,11.62,0,0,0-9.88-8.32c-2.83-.43-5.71-.5-8.57-.69a19.8,19.8,0,0,1-6.41-1.31,11.53,11.53,0,0,1-7.19-8.93,20.67,20.67,0,0,1-.33-3.69q0-18.57,0-37.14a24.65,24.65,0,0,1,.37-4.2,10.44,10.44,0,0,1,9-9.06,42.33,42.33,0,0,1,6.36-.66c3.2-.11,6.42,0,9.62-.05,6.26,0,10.8-3.41,12.36-9.44a30.13,30.13,0,0,0,1-7c.12-9.74.09-19.48.06-29.21a23.1,23.1,0,0,0-.43-4.7,12.42,12.42,0,0,0-10.75-9.57,55.79,55.79,0,0,0-6.06-.33c-9.8,0-19.59,0-29.38,0C632.39,223.37,632,223.41,631.14,223.45Z"/></svg>