<svg id="Logos_Patrocinadores" data-name="Logos Patrocinadores" xmlns="http://www.w3.org/2000/svg" viewBox="0 0 1500 600"><defs><style>.cls-1{fill:#7a97ab;}</style></defs><path class="cls-1" d="M551.9,311.45c11.21,0,22.42,0,33.63,0a8.85,8.85,0,0,0,7.2-2.91,7.83,7.83,0,0,0,1.46-8.82,8,8,0,0,0-7.72-5q-17.06,0-34.11,0c-11.1,0-20.63-3.79-28.19-12-9.86-10.68-12.81-23.28-8.62-37.05,4.24-13.94,14-22.56,28.19-26a33.74,33.74,0,0,1,7.83-.79q19.74,0,39.47,0A28.62,28.62,0,0,1,619.93,245l0,.31c.19,2.61.11,2.7-2.45,2.7H552.3c-4.31,0-7.66,2.21-8.87,5.81a8.54,8.54,0,0,0,8.12,11.43c5.48.1,11,0,16.42,0h18.16c14.37,0,25.15,6.56,32.6,18.52,8.66,13.89,6.65,33.72-5.58,45.85-7.52,7.44-16.35,11.25-26.89,11.23-14.32,0-28.63.05-43,0A29.35,29.35,0,0,1,514.8,315c-.39-3.5-.35-3.55,3.15-3.55Z"/><path class="cls-1" d="M806,279.89V221.47c0-2.55,0-2.56,2.54-2.57H833c2.35,0,2.41.06,2.41,2.36V264.7c0,2.2,0,2.21,2.19,2.21,2.42,0,4.84-.05,7.26,0a2.82,2.82,0,0,0,2.71-1.46c8.55-12.84,16.81-25.86,25-38.92,1.28-2.05,2.61-4.08,3.83-6.17a2.77,2.77,0,0,1,2.68-1.51c10.84,0,21.68,0,32.53,0,.5,0,1.17-.22,1.43.36s-.33.95-.61,1.37q-13.12,19.43-26.28,38.84c-4.37,6.45-8.69,12.92-13.09,19.36a1.8,1.8,0,0,0-.05,2.38q15.87,23.28,31.69,46.61,4,5.81,7.9,11.62c.22.34.63.68.4,1.12s-.75.28-1.15.28c-11.11,0-22.21,0-33.32,0-1.24,0-1.74-.72-2.3-1.58Q861.61,317.09,847,294.87a3.2,3.2,0,0,0-3.19-1.73c-2.15.11-4.32.1-6.47,0-1.43-.06-1.94.4-1.92,1.87.07,6.16,0,12.32,0,18.48v25.26c0,2.08,0,2.11-2.14,2.11h-25.1c-2.15,0-2.19,0-2.19-2.22Z"/><path class="cls-1" d="M676.11,279.84c0-16.32,5.36-30.56,16.5-42.62C703,225.91,715.72,218.87,731,217.08c19-2.21,35.94,2.85,50.44,15.56A64.57,64.57,0,0,1,794,247.81c.81,1.32.58,1.93-.77,2.66q-11.33,6.08-22.57,12.34c-1.26.7-1.87.68-2.71-.65-10.43-16.62-31.66-20.28-46.32-10.77-10.11,6.56-15.48,15.88-15.8,28.19-.45,17.24,12.94,30.33,26.05,33.21,14.27,3.13,28.49-2.85,36.47-15.73.9-1.45,1.53-1.49,2.9-.73,7.41,4.11,14.86,8.12,22.3,12.18,1.86,1,1.9,1.05.79,3-7.58,13.06-18.36,22.59-32.54,27.63-22.68,8.06-43.9,5.05-62.73-10.39-12.67-10.39-20.35-23.8-22.46-40.2A54.72,54.72,0,0,1,676.11,279.84Z"/><path class="cls-1" d="M635.06,279.84V221.25c0-2.34,0-2.34,2.39-2.34h24.79c2.12,0,2.23.11,2.23,2.23q0,58.83,0,117.65c0,1.54-.42,2.12-2.06,2.1-8.42-.07-16.84,0-25.26,0-2.1,0-2.12,0-2.12-2.12Z"/><path class="cls-1" d="M885.46,401.41c1.74,0,3.47-.05,5.21,0a9,9,0,0,1,8.45,6c1.14,3.65-.2,7.32-3.56,9.83a14.17,14.17,0,0,1-5.77,2.43,35.28,35.28,0,0,1-14.4-.17,12,12,0,0,1-4.34-1.81,6.83,6.83,0,0,1,0-11.44c1.05-.7,1-1.05.29-2-2.68-3.32-2.07-7.06,1.51-9.49,1.07-.72,1.4-1.09.19-2.11-4.17-3.48-3.5-10.19,1.3-13.41,3.53-2.37,7.56-2.31,11.58-2.06.16,0,.31.06.47.08,2.49.37,2.49.37,3.63-1.8,1.49-2.82,5.81-4.82,8.68-3.59,1.82.78.54,2.82.8,4.27.17.92-.44,1.31-1.34,1.29-.58,0-1.16,0-1.74,0a4.3,4.3,0,0,0-2.24.65c-1.24.81-1.32,1.57-.32,2.64,4.11,4.41,3.2,10.43-2,13.49-3.82,2.24-7.93,2.15-12.11,1.57-.86-.12-1.71-.51-2.58.12a2.83,2.83,0,0,0,.51,4.9,6.25,6.25,0,0,0,2.77.53h5.05Zm-.94,13.92c2.23-.15,4.52-.11,6.54-1.34a3,3,0,0,0,1.64-3,2.89,2.89,0,0,0-2.12-2.32,10.61,10.61,0,0,0-3.41-.52c-3.3-.09-6.62.3-9.91-.33-.8-.16-1.63-.53-2.26.43a2.94,2.94,0,0,0-.4,3.11,5.83,5.83,0,0,0,3,2.71A18.71,18.71,0,0,0,884.52,415.33Zm4.5-28.58c0-3-2.07-4.89-5.5-4.89s-5.76,2-5.75,5.05c0,2.85,2.35,4.94,5.57,5C886.83,391.91,889,390,889,386.75Z"/><path class="cls-1" d="M531.94,409.72a20.29,20.29,0,0,1-12.27-3.29,12.77,12.77,0,0,1-4.75-6.32c-.34-.87-.23-1.38.8-1.57,1.71-.31,3.41-.68,5.09-1.08a1.25,1.25,0,0,1,1.68,1,7.1,7.1,0,0,0,5.57,4.6,15.92,15.92,0,0,0,8.11-.07c2.79-.82,4.26-2.68,4.2-5.19a4.41,4.41,0,0,0-3.26-4.51c-3.07-.93-6.19-1.7-9.27-2.56-1.37-.39-2.73-.8-4.06-1.29-4.61-1.7-6.67-5.29-7-9.95a11.38,11.38,0,0,1,4.62-10.17c5.43-4.3,17.05-4,22.46.91a10.94,10.94,0,0,1,2.84,4.11c.34.84.09,1.31-.76,1.51l-5.22,1.25a1.18,1.18,0,0,1-1.51-.76c-2.08-4.42-8.84-4.5-12-2.67a4.29,4.29,0,0,0,0,7.67,15.92,15.92,0,0,0,4.29,1.53c2.85.72,5.72,1.41,8.54,2.26,4.92,1.5,8.1,4.61,8.55,9.95.5,5.92-1.76,10.06-6.89,12.68A19.4,19.4,0,0,1,531.94,409.72Z"/><path class="cls-1" d="M1016.44,394.49c-2.9,0-5.8.09-8.69,0-1.61-.07-1.89.51-1.83,2,.27,6.71,5.89,8.61,10.17,7a5.9,5.9,0,0,0,3.44-3.29,1.53,1.53,0,0,1,2-1c1.12.24,2.29.29,3.43.47,1.59.24,1.78.61,1.09,2.1a13,13,0,0,1-10.83,7.91,15.22,15.22,0,0,1-8.81-1.12c-5-2.44-7.33-6.7-7.93-11.94s0-10.11,3.45-14.34c3.72-4.57,8.64-5.73,14.19-4.84,5.38.86,8.41,4.42,10.12,9.32a18.5,18.5,0,0,1,1,6.05c0,1.29-.42,1.8-1.73,1.78C1022.44,394.45,1019.44,394.49,1016.44,394.49Zm-3.78-4.8c1.69,0,3.37,0,5.05,0s2-.4,1.65-2.09a6.77,6.77,0,0,0-6.73-5.36,7.2,7.2,0,0,0-6.59,6c-.16,1,.22,1.47,1.26,1.46C1009.09,389.67,1010.87,389.68,1012.66,389.69Z"/><path class="cls-1" d="M919.64,394.49c-3,0-6,.05-9,0-1.38,0-1.8.55-1.56,1.82.11.62.17,1.25.29,1.87a6.82,6.82,0,0,0,5.58,5.7c3.39.56,6.11-.54,7.64-3.41a2,2,0,0,1,2.59-1.29,27.17,27.17,0,0,0,3.12.41c1.21.14,1.68.6,1.08,1.87-2.29,4.89-6.06,7.77-11.46,8.2-9.61.76-15.72-4.73-16.31-14.4-.28-4.6.38-8.91,3.25-12.68,3.87-5.09,9.15-6.3,15.07-5.09,5.51,1.13,8.39,5.08,9.81,10.24a23.4,23.4,0,0,1,.69,4.51c.15,2.12,0,2.25-2.12,2.26Zm-3.73-4.8c1.84,0,3.67,0,5.51,0,1.26,0,1.53-.56,1.3-1.68-.68-3.35-3.6-5.89-6.71-5.77a6.94,6.94,0,0,0-6.73,6.13c-.15,1,.15,1.34,1.12,1.32C912.24,389.66,914.08,389.69,915.91,389.69Z"/><path class="cls-1" d="M807.44,394.49c-3,0-5.89.06-8.84,0-1.43,0-1.84.56-1.72,1.89.29,3,1.18,5.65,4.13,6.95a7.46,7.46,0,0,0,7.51-.62,5.45,5.45,0,0,0,2.06-2.54,1.51,1.51,0,0,1,2-1,33.66,33.66,0,0,0,3.6.43c1.36.11,1.57.74,1,1.89-2,4.42-5.39,7.29-10.22,8-6.71,1-11.77-.58-15.38-6.39s-3-15.85,1.53-21.12c4-4.66,9.2-5.72,14.9-4.4,5.54,1.29,8.31,5.39,9.63,10.61a40.15,40.15,0,0,1,.64,4.53c.16,1.28-.4,1.82-1.7,1.8-3.05,0-6.1,0-9.15,0Zm-3.78-4.8c1.84,0,3.68,0,5.52,0,1.19,0,1.59-.35,1.32-1.6-.79-3.58-3.45-5.93-6.8-5.87a7.07,7.07,0,0,0-6.65,6.09c-.18,1,.13,1.37,1.09,1.37C800,389.67,801.82,389.68,803.66,389.69Z"/><path class="cls-1" d="M570.78,394.49c-2.89,0-5.79.07-8.68,0-1.5-.05-1.92.56-1.84,2,.18,3.05,1.23,5.6,4.16,6.88a7.31,7.31,0,0,0,7.63-.79,5.27,5.27,0,0,0,1.84-2.32c.44-1.14,1.14-1.32,2.23-1.08a30.62,30.62,0,0,0,3.44.49c1.23.13,1.47.66,1,1.79a13.17,13.17,0,0,1-10.82,8.17c-4.16.55-8.21,0-11.63-2.79a14.8,14.8,0,0,1-5.28-10.25c-.58-5.34.07-10.42,3.76-14.68,3.9-4.51,9-5.47,14.49-4.38,5.15,1,7.93,4.65,9.55,9.34a18.42,18.42,0,0,1,.91,5.9c0,1.28-.42,1.81-1.73,1.79C576.78,394.45,573.78,394.49,570.78,394.49Zm-3.88-4.81H572c1.89,0,2.19-.45,1.67-2.31a6.71,6.71,0,0,0-6.87-5.14,7.14,7.14,0,0,0-6.36,6.06c-.15,1,.18,1.39,1.15,1.39C563.32,389.67,565.11,389.68,566.9,389.68Z"/><path class="cls-1" d="M677.82,392.8c0,6.5-1.91,11.6-7.2,14.87-6,3.68-16.48,3.46-20.52-6.76-2.87-7.25-1.57-15.06,3.48-20.06,6.27-6.2,17.56-4.61,21.92,3.06A17.37,17.37,0,0,1,677.82,392.8Zm-7.66.34a13.85,13.85,0,0,0-1.21-6.39,5.61,5.61,0,0,0-5.27-3.61c-2.66-.05-4.76.86-5.9,3.36a16.55,16.55,0,0,0-.19,13.47,5.67,5.67,0,0,0,6,3.7,5.89,5.89,0,0,0,5.58-4.13A17.13,17.13,0,0,0,670.16,393.14Z"/><path class="cls-1" d="M744.39,383.47c1.4-1.67,2.44-3.43,4.14-4.67a9.51,9.51,0,0,1,14.52,4.8,14.49,14.49,0,0,1,.65,4.19c0,6.42-.05,12.83,0,19.25,0,1.61-.52,2.2-2.1,2a18.3,18.3,0,0,0-3.31,0c-1.56.14-2-.56-2-2,.06-5.42,0-10.84,0-16.26,0-.52,0-1.05,0-1.57,0-2.92-1.31-4.92-3.51-5.6-2-.62-4.61.44-6.17,2.56a9.32,9.32,0,0,0-1.67,5.65c0,5,0,10.1,0,15.14,0,1.55-.41,2.25-2,2.1a21,21,0,0,0-3.46,0c-1.37.1-1.85-.43-1.84-1.81.06-6.2,0-12.41,0-18.62,0-3,0-6.1,0-9.15,0-1.26.37-1.86,1.71-1.78s2.42,0,3.62,0c.93,0,1.36.41,1.35,1.33C744.38,380.53,744.39,382,744.39,383.47Z"/><path class="cls-1" d="M943.66,383.6a20.49,20.49,0,0,1,3.12-4.12c4.64-4.42,13-2.45,15.11,3.6a14.2,14.2,0,0,1,.79,4.65c0,6.52,0,13,.05,19.56,0,1.41-.51,1.88-1.85,1.79a34.23,34.23,0,0,0-3.79,0c-1.33.08-1.73-.5-1.72-1.76,0-5.95,0-11.89,0-17.83a6.42,6.42,0,0,0-1-4.05,4.7,4.7,0,0,0-6.46-1.19c-2.81,1.66-3.75,4.35-3.81,7.36-.11,5.1,0,10.21-.06,15.31,0,2.09,0,2.14-2.09,2.15-1.21,0-2.43-.05-3.63,0s-1.6-.42-1.59-1.57c0-3.16,0-6.32,0-9.47,0-6.1,0-12.2,0-18.3,0-1.48.41-2,2-2,4.68,0,4.68,0,4.74,4.6C943.41,382.7,943.26,383.14,943.66,383.6Z"/><path class="cls-1" d="M594.5,384.07c.74-1.15,1.28-2.09,1.92-3A9.06,9.06,0,0,1,607,377.52a8.88,8.88,0,0,1,6.62,8.66c.17,7.15.07,14.31.09,21.47,0,1-.4,1.44-1.41,1.42-1.31,0-2.63-.06-3.94,0s-1.76-.46-1.75-1.75c0-5.57,0-11.15,0-16.73a14,14,0,0,0-.34-3.29,4.81,4.81,0,0,0-7.92-2.65c-2.5,2-3.26,4.71-3.3,7.7-.07,4.89-.08,9.78,0,14.68,0,1.6-.5,2.2-2.08,2a18.3,18.3,0,0,0-3.31,0c-1.57.14-2-.56-2-2,.06-6.11,0-12.21,0-18.32,0-3.05,0-6.1,0-9.15,0-1.32.36-1.88,1.79-1.89,4.87,0,4.87-.09,4.9,4.74C594.43,382.9,594.47,383.35,594.5,384.07Z"/><path class="cls-1" d="M631.38,409.7a16.36,16.36,0,0,1-8.52-1.93,9.44,9.44,0,0,1-4.18-4.38c-.53-1.12-.43-1.78.94-1.95a13,13,0,0,0,2.32-.44c1.74-.53,3-.45,4.27,1.3,1.81,2.46,8.16,2.67,10.57.7a2.86,2.86,0,0,0,1.07-2.81,3,3,0,0,0-2.31-2.36c-1.67-.46-3.38-.76-5.09-1.08a30.93,30.93,0,0,1-4.44-1.09c-4.39-1.53-6.77-4.65-6.66-8.74a9.59,9.59,0,0,1,7.14-9.17,17.47,17.47,0,0,1,12.62,1,9,9,0,0,1,4.07,4.46c.39.83.28,1.4-.76,1.59-1.35.24-2.69.53-4,.81a1.39,1.39,0,0,1-1.69-.81c-1.69-3.23-7.14-2.94-9.36-1.48a2.57,2.57,0,0,0,0,4.38,9.48,9.48,0,0,0,3.53,1.31c2.47.55,5,1,7.4,1.61,3.94,1,6.47,3.42,6.82,7.68.33,3.87-.84,7-4.33,9.11A16.73,16.73,0,0,1,631.38,409.7Z"/><path class="cls-1" d="M969,393.26c0-5.42,1.46-10.22,5.93-13.62,4-3.07,8.58-3.28,13.19-1.62,4,1.46,5.89,4.85,6.82,8.84.21.87-.1,1.3-1,1.35-.42,0-.83.11-1.25.16a10,10,0,0,1-3.26.29c-1.16-.28-.84-1.78-1.33-2.67a5,5,0,0,0-4.25-2.83c-2.22-.17-4.17.46-5.26,2.46a16.18,16.18,0,0,0-.73,14.44,5,5,0,0,0,5.1,3.28,5.33,5.33,0,0,0,5-3.41c1.21-2.6,1.21-2.6,4.06-2.2l.31.06c3,.45,3,.45,2,3.46a12.67,12.67,0,0,1-20.14,5.69c-3.46-2.88-4.8-6.93-5.18-11.32C968.9,394.84,969,394,969,393.26Z"/><path class="cls-1" d="M772.52,393c0-2.9,0-5.42,0-8,0-1.15-.44-1.57-1.59-1.59-2.23,0-2.23-.08-2.24-2.31v-.31c0-3.11-.29-3.2,2.91-3.08,1.08,0,1.49-.41,1.52-1.48.06-1.68.24-3.36.35-5,.08-1.11.54-1.79,1.76-1.71l.32,0c4-.32,4-.32,4,3.75,0,1,0,2,0,3s.38,1.55,1.48,1.5,2.31,0,3.47,0c.9,0,1.4.36,1.37,1.31a.75.75,0,0,0,0,.15c0,5,.53,4.19-4,4.26-2.35,0-2.39,0-2.35,2.34.06,4.42-.28,8.85.16,13.25.35,3.61,1.31,4.48,4.93,4.41,1.58,0,2,.48,1.83,1.85a6.91,6.91,0,0,0,0,.79c0,3.31-.09,3.43-3.39,3.59a12.24,12.24,0,0,1-6-.77c-2.69-1.29-3.89-3.51-4.24-6.38C772.38,399.23,772.61,395.92,772.52,393Z"/><path class="cls-1" d="M729,388.19c0,6.31,0,12.62,0,18.93,0,1.51-.47,2.1-2,2a37.38,37.38,0,0,0-4.1,0c-1.25.05-1.66-.51-1.64-1.7.05-2.31,0-4.63,0-6.94q0-15.69,0-31.39c0-2.07.06-2.12,2.12-2.13,1.27,0,2.53.07,3.79,0s1.81.53,1.8,1.86C729,375.26,729,381.73,729,388.19Z"/><path class="cls-1" d="M831.63,388.09c0,6.37,0,12.73,0,19.09,0,1.41-.41,2.05-1.88,1.93a22.33,22.33,0,0,0-3.47,0c-1.53.13-2-.5-2-2,.05-8.05,0-16.09,0-24.14,0-4.73,0-9.46,0-14.2,0-1.33.42-1.94,1.82-1.85a31.78,31.78,0,0,0,3.78,0c1.31-.07,1.75.48,1.74,1.76,0,6.1,0,12.2,0,18.3Z"/><path class="cls-1" d="M839.8,388c0-6.36,0-12.72,0-19.08,0-1.49.45-2.13,2-2,1.3.1,2.62.05,3.94,0,1,0,1.45.44,1.39,1.43,0,.1,0,.21,0,.32q0,19.32,0,38.64c0,1.28-.41,1.84-1.72,1.77a32,32,0,0,0-3.79,0c-1.39.09-1.83-.5-1.82-1.84C839.83,400.85,839.8,394.44,839.8,388Z"/><path class="cls-1" d="M690.73,383.43c1.29-1.92,2.3-3.83,4.16-5.09a11.2,11.2,0,0,1,1.49-.88c3-1.37,3.83-.86,3.83,2.37,0,.26,0,.52,0,.78a10.85,10.85,0,0,1-.17,3.44c-.49,1.28-2,.59-3.1,1a6.44,6.44,0,0,0-4,3.34,15.7,15.7,0,0,0-1.62,6.83c0,4.05,0,8.1,0,12.15,0,1.27-.42,1.83-1.74,1.76a31.78,31.78,0,0,0-3.78,0c-1.39.09-1.83-.5-1.82-1.85.05-5.46,0-10.93,0-16.4,0-3.73,0-7.46,0-11.2,0-1.39.38-2.06,1.88-1.94a28.1,28.1,0,0,0,3.31,0c1.06,0,1.54.4,1.51,1.49C690.7,380.62,690.73,382,690.73,383.43Z"/><path class="cls-1" d="M862.56,393.53c0,4.57,0,9.15,0,13.73,0,1.34-.42,1.94-1.81,1.85s-2.63-.06-3.95,0c-1.16,0-1.59-.47-1.57-1.6,0-2.63,0-5.26,0-7.89,0-6.63,0-13.26,0-19.89,0-1.48.44-2.13,2-2a27.48,27.48,0,0,0,3.63,0c1.31-.07,1.75.47,1.74,1.76C862.53,384.16,862.56,388.84,862.56,393.53Z"/><path class="cls-1" d="M1040.75,405c-.06,4.74.62,4.11-4,4.12-4.08,0-3.63.46-3.66-3.57,0-1.05,0-2.1,0-3.15s.38-1.56,1.47-1.54c1.57,0,3.15,0,4.72,0,1.17,0,1.6.52,1.54,1.63C1040.71,403.28,1040.75,404.12,1040.75,405Z"/><path class="cls-1" d="M862.56,370.75c0,4.07.41,3.57-3.65,3.56s-3.64.53-3.65-3.7S854.82,367,859,367,862.52,366.5,862.56,370.75Z"/></svg>