<svg id="Logos_Patrocinadores" data-name="Logos Patrocinadores" xmlns="http://www.w3.org/2000/svg" viewBox="0 0 1500 600"><defs><style>.cls-1,.cls-2{fill:#7a97ab;}.cls-1{fill-rule:evenodd;}</style></defs><path class="cls-1" d="M486.09,301.42h580.06v4.77H488.69Q487.49,303.75,486.09,301.42Zm5.37,11.16h572.63v4.77H493Q492.34,314.92,491.46,312.58Zm-13.69-22.32h599.82V295H481.76C480.5,293.38,479.17,291.78,477.77,290.26Z"/><polygon class="cls-1" points="535.16 353.35 525.79 371.16 521.88 371.16 512.57 353.35 516.8 353.35 523.97 367.52 531.08 353.35 535.16 353.35"/><path class="cls-1" d="M559,350.37h-4.4v-3.11H559Zm-.25,20.79h-3.9V353.35h3.9Z"/><path class="cls-1" d="M601.42,362.12a9.47,9.47,0,0,1-.83,4,8.62,8.62,0,0,1-2.2,3,10.38,10.38,0,0,1-3.23,1.9,11.63,11.63,0,0,1-3.87.62,14,14,0,0,1-3.44-.37,18.2,18.2,0,0,1-2.9-.95l-.25.83h-3.65v-24.8H585v8.86a17,17,0,0,1,3.48-1.69,12,12,0,0,1,4.14-.67,8.64,8.64,0,0,1,6.47,2.42A9.39,9.39,0,0,1,601.42,362.12Zm-4,.08a7.38,7.38,0,0,0-1.37-4.83,5.38,5.38,0,0,0-4.41-1.66,10.75,10.75,0,0,0-3.44.58,15,15,0,0,0-3.23,1.45v10.2a19.41,19.41,0,0,0,2.84.79,14.73,14.73,0,0,0,2.71.23,7.33,7.33,0,0,0,5.06-1.63C596.78,366.24,597.4,364.53,597.4,362.2Z"/><path class="cls-1" d="M636.51,356.62h-.21a15,15,0,0,0-1.7-.22,17.94,17.94,0,0,0-1.92-.08,9.84,9.84,0,0,0-3.49.62,16.93,16.93,0,0,0-3.23,1.58v12.64h-3.89V353.35H626V356a20.6,20.6,0,0,1,4.08-2,11.07,11.07,0,0,1,3.63-.61c.68,0,1.17,0,1.47,0s.76.07,1.37.14Z"/><path class="cls-1" d="M672.74,371.16h-3.88v-1.9l-1.41.76a10.55,10.55,0,0,1-1.7.77,13.69,13.69,0,0,1-2.23.61,15.25,15.25,0,0,1-3,.25,8.74,8.74,0,0,1-5.3-1.59,4.87,4.87,0,0,1-2.18-4.07,4.74,4.74,0,0,1,1.12-3.27,7.69,7.69,0,0,1,3.23-2,21.74,21.74,0,0,1,5.08-1q3-.25,6.36-.39v-.46a2.9,2.9,0,0,0-.47-1.69,3.08,3.08,0,0,0-1.33-1.05,6.74,6.74,0,0,0-2-.49,20.92,20.92,0,0,0-2.42-.13,19.79,19.79,0,0,0-3.42.32,31.87,31.87,0,0,0-3.9.89h-.21v-3c.76-.16,1.86-.34,3.3-.53a32.41,32.41,0,0,1,4.25-.29,24.84,24.84,0,0,1,4.24.32,9.42,9.42,0,0,1,3.15,1.05,5.07,5.07,0,0,1,2,1.9,5.58,5.58,0,0,1,.69,2.88Zm-3.88-4.39v-4.95q-1.79.07-4.2.24a27.1,27.1,0,0,0-3.82.46,6.89,6.89,0,0,0-2.71,1.15,2.48,2.48,0,0,0-1,2.12,2.56,2.56,0,0,0,1.21,2.31,6.94,6.94,0,0,0,3.66.76,11.17,11.17,0,0,0,3.75-.6A18.3,18.3,0,0,0,668.86,366.77Z"/><path class="cls-1" d="M706.83,371q-1.1.22-2.4.36a20,20,0,0,1-2.3.15,8.51,8.51,0,0,1-5.39-1.47c-1.23-1-1.84-2.54-1.84-4.7v-9.47h-2.63v-2.52h2.63v-5.11h3.89v5.11h8v2.52h-8V364a20.68,20.68,0,0,0,.09,2.2,2.91,2.91,0,0,0,.58,1.47,2.56,2.56,0,0,0,1.24.94,7.78,7.78,0,0,0,2.44.29,10,10,0,0,0,2-.21c.69-.15,1.19-.27,1.5-.37h.2Z"/><path class="cls-1" d="M730.3,350.37h-4.4v-3.11h4.4Zm-.25,20.79h-3.9V353.35h3.9Z"/><path class="cls-1" d="M772.06,362.26a8.64,8.64,0,0,1-2.9,6.87,13.3,13.3,0,0,1-15.58,0,9.63,9.63,0,0,1,0-13.74,13.26,13.26,0,0,1,15.58,0A8.64,8.64,0,0,1,772.06,362.26Zm-4,0a7,7,0,1,0-6.65,6.81,6.71,6.71,0,0,0,4.87-1.71A6.78,6.78,0,0,0,768,362.26Z"/><path class="cls-1" d="M812,371.16h-3.9V361a13.93,13.93,0,0,0-.18-2.3,3.7,3.7,0,0,0-.69-1.69,3,3,0,0,0-1.49-1,7.73,7.73,0,0,0-2.53-.34,10,10,0,0,0-3.33.61,18.7,18.7,0,0,0-3.34,1.54v13.3h-3.9V353.35h3.9v2a17,17,0,0,1,3.77-1.82,12.65,12.65,0,0,1,4-.65,8.38,8.38,0,0,1,5.72,1.74,6.31,6.31,0,0,1,2,5Z"/><path class="cls-1" d="M880.7,370a30,30,0,0,1-3.7,1.12,17.65,17.65,0,0,1-3.71.4,17.84,17.84,0,0,1-4.6-.56,10.51,10.51,0,0,1-3.59-1.72,7.79,7.79,0,0,1-2.34-2.9,9.56,9.56,0,0,1-.83-4.1,8.32,8.32,0,0,1,3.11-6.86,12.89,12.89,0,0,1,8.25-2.48,17.44,17.44,0,0,1,3.89.43,24.88,24.88,0,0,1,3.52,1.05v3.33h-.2a16.33,16.33,0,0,0-3.69-1.64,12.75,12.75,0,0,0-3.69-.57,7.56,7.56,0,0,0-5.24,1.72,7.53,7.53,0,0,0,0,10,7.57,7.57,0,0,0,5.28,1.72,12.36,12.36,0,0,0,2.4-.24,13.12,13.12,0,0,0,2.2-.62c.57-.23,1.1-.46,1.6-.71s.89-.47,1.18-.65h.2Z"/><path class="cls-1" d="M920,362.26a8.64,8.64,0,0,1-2.9,6.87,13.3,13.3,0,0,1-15.58,0,9.63,9.63,0,0,1,0-13.74,13.26,13.26,0,0,1,15.58,0A8.64,8.64,0,0,1,920,362.26Zm-4,0a7,7,0,1,0-6.65,6.81,6.09,6.09,0,0,0,6.65-6.81Z"/><path class="cls-1" d="M960,371.16h-3.9V361a13.93,13.93,0,0,0-.18-2.3,3.7,3.7,0,0,0-.69-1.69,3,3,0,0,0-1.49-1,7.73,7.73,0,0,0-2.53-.34,10,10,0,0,0-3.33.61,18.7,18.7,0,0,0-3.34,1.54v13.3h-3.89V353.35h3.89v2a17.19,17.19,0,0,1,3.77-1.82,12.65,12.65,0,0,1,4-.65A8.38,8.38,0,0,1,958,354.6a6.31,6.31,0,0,1,2,5Z"/><path class="cls-1" d="M994.05,371q-1.09.22-2.4.36a20,20,0,0,1-2.3.15A8.51,8.51,0,0,1,984,370c-1.23-1-1.84-2.54-1.84-4.7v-9.47h-2.63v-2.52h2.63v-5.11H986v5.11h8v2.52h-8V364a20.68,20.68,0,0,0,.09,2.2,2.91,2.91,0,0,0,.58,1.47,2.56,2.56,0,0,0,1.24.94,7.78,7.78,0,0,0,2.44.29,10,10,0,0,0,2-.21c.69-.15,1.19-.27,1.5-.37h.2Z"/><path class="cls-1" d="M1027.78,356.62h-.21a15,15,0,0,0-1.7-.22,18,18,0,0,0-1.93-.08,9.82,9.82,0,0,0-3.48.62,16.37,16.37,0,0,0-3.23,1.58v12.64h-3.9V353.35h3.9V356a20.34,20.34,0,0,1,4.08-2,11.07,11.07,0,0,1,3.63-.61c.67,0,1.16,0,1.47,0s.76.07,1.37.14Z"/><path class="cls-1" d="M1065.74,362.26a8.61,8.61,0,0,1-2.9,6.87,13.3,13.3,0,0,1-15.58,0,9.63,9.63,0,0,1,0-13.74,13.26,13.26,0,0,1,15.58,0A8.61,8.61,0,0,1,1065.74,362.26Zm-4,0c0-2.3-.58-4-1.76-5.13a6.74,6.74,0,0,0-4.89-1.69,6.82,6.82,0,1,0,0,13.63,6.68,6.68,0,0,0,4.87-1.71A6.75,6.75,0,0,0,1061.72,362.26Z"/><rect class="cls-2" x="1086.39" y="346.36" width="3.9" height="24.8"/><path class="cls-1" d="M459.19,317.31H469.3c2.75,1.64,4.51,3.48,4.13,5.59A96.82,96.82,0,0,0,459.19,317.31Zm-23.71-11.18a212,212,0,0,1,22.89,6.46h-16.6c-13.85-3.26-27.14-5.44-32.57-6.42C409.12,306.15,418.75,306.14,435.48,306.13Zm35.21,20.53a26.61,26.61,0,0,1-4.12,2.6c-18.84-6.35-44.33-10.47-52.41-11.93-.23,0,11.59-.05,26.25,0a202.9,202.9,0,0,1,24.07,6.88C466.58,325,468.73,325.77,470.69,326.66Zm7.7,7.41c-1.84-.93-3.87-1.83-6.05-2.7a22.34,22.34,0,0,0,2.87-2.29C477.4,330.57,478.72,332.21,478.39,334.07ZM364.55,364.46a68.37,68.37,0,0,1-2.57-6.69c58-8.43,90-16.22,104.93-23.35.87.3,1.71.6,2.53.91,2.1.78,4.25,1.6,6.21,2.49a28.59,28.59,0,0,1-5,3.07C456.68,347.84,424.8,355.76,364.55,364.46Zm6.16,11a68.79,68.79,0,0,1-4-6.48c59.29-8.61,91.45-16.55,106-23.8a30.42,30.42,0,0,0,7.42-4.92c4.54,3.08,5.35,6.86-4.59,11.81C461.74,359,430.19,366.82,370.71,375.44ZM493,317.35A68.58,68.58,0,0,1,374,379.79c57.84-8.48,89.38-16.31,103.74-23.47,8-4,12.66-8.91,9.9-14.61a13.94,13.94,0,0,0-4.79-5,7,7,0,0,0-.17-6.14,13.94,13.94,0,0,0-4.79-5,7,7,0,0,0-.17-6.15,9.34,9.34,0,0,0-1.38-2.05Zm-4.38-11.22a66.25,66.25,0,0,1,2.8,6.46H470a87.82,87.82,0,0,0-15.85-6.46Zm-7-11.17a69.26,69.26,0,0,1,4.38,6.47H436.81C423,298.17,409.67,296,404.24,295,404.09,295,434.88,295,481.71,295ZM358.64,336.58a68.57,68.57,0,0,1,119.13-46.32H388.94c-1.58,0-2.8,0-3.69.08-2.88.17-8.16,2.24-2.52,5.11,2.51,1.28,19.3,4,20.66,4.25,2.95.53,6.09,1.11,9.36,1.73H393.9c-1.58,0-2.8,0-3.69.07-2.88.17-8.16,2.24-2.52,5.11,2.51,1.28,19.3,4,20.66,4.25,2.95.53,6.09,1.11,9.36,1.73H398.86c-1.58,0-2.8,0-3.69.08-2.88.17-8.15,2.23-2.52,5.1,2.51,1.28,19.3,4,20.66,4.25,13.84,2.51,32.07,5.94,46.65,10.2-16,6.29-46.81,13.31-99.31,20.92A69,69,0,0,1,358.64,336.58Z"/><path class="cls-1" d="M562.67,286.24H538.9v-5.3c0-2.48-.31-4.06-.92-4.74a4,4,0,0,0-3-1,4.42,4.42,0,0,0-3.52,1.37,6.28,6.28,0,0,0-1.16,4.16,9,9,0,0,0,1.34,5.39q1.27,1.81,7.23,4.38,17.1,7.38,21.53,12.12t4.44,15.25q0,7.65-2.49,11.28t-9.49,6.1a50.4,50.4,0,0,1-16.42,2.44,48.77,48.77,0,0,1-17.57-2.83q-7.25-2.84-9.49-7.21t-2.25-12.43v-4.69h23.78v8.71c0,2.69.32,4.41,1,5.18a5.86,5.86,0,0,0,7.36-.31,6.41,6.41,0,0,0,1.28-4.33q0-6.33-2.38-8.27t-12-6.51a124.89,124.89,0,0,1-12.65-6.67,16.59,16.59,0,0,1-5.16-5.75,19.4,19.4,0,0,1-2-9.38q0-8.22,2.86-12t9.36-5.92a49,49,0,0,1,15.57-2.17,53.9,53.9,0,0,1,17,2.34q7.05,2.35,9.3,5.93t2.31,12.07Z"/><rect class="cls-2" x="577.14" y="264.57" width="25.6" height="71.6"/><polygon class="cls-1" points="640.69 264.57 640.69 321.84 656.26 321.84 656.26 336.17 615.09 336.17 615.09 264.57 640.69 264.57"/><polygon class="cls-1" points="668.61 264.57 711.29 264.57 711.29 278.9 694.21 278.9 694.21 292.48 710.2 292.48 710.2 306.1 694.21 306.1 694.21 321.84 713 321.84 713 336.17 668.61 336.17 668.61 264.57"/><polygon class="cls-1" points="782.51 264.57 782.51 336.17 760.07 336.17 746.75 303.62 746.75 336.17 725.34 336.17 725.34 264.57 746.75 264.57 761.1 296.81 761.1 264.57 782.51 264.57"/><polygon class="cls-1" points="850.8 264.57 850.8 278.9 835.59 278.9 835.59 336.17 809.99 336.17 809.99 278.9 794.85 278.9 794.85 264.57 850.8 264.57"/><polygon class="cls-1" points="863.14 264.57 906.5 264.57 906.5 278.9 888.74 278.9 888.74 292.48 904.55 292.48 904.55 306.1 888.74 306.1 888.74 336.17 863.14 336.17 863.14 264.57"/><polygon class="cls-1" points="944.45 264.57 944.45 321.84 960.01 321.84 960.01 336.17 918.84 336.17 918.84 264.57 944.45 264.57"/><polygon class="cls-1" points="972.36 264.57 1015.05 264.57 1015.05 278.9 997.96 278.9 997.96 292.48 1013.96 292.48 1013.96 306.1 997.96 306.1 997.96 321.84 1016.75 321.84 1016.75 336.17 972.36 336.17 972.36 264.57"/><path class="cls-1" d="M1086.08,264.57l-8.94,31.67,13.5,39.93h-23.72a180.37,180.37,0,0,1-7.78-26.05q-1,6.78-2.68,14.38L1054,336.17h-24.94l9.25-39.93-9.25-31.67h24.76q.66,3,2.67,9.87,1.59,5.25,2.62,9.64l5.47-19.51Z"/><path class="cls-1" d="M1099.4,272.69h2.49a3.1,3.1,0,0,0,1.24-.2,1.48,1.48,0,0,0,.67-.62,2,2,0,0,0,.24-1,1.68,1.68,0,0,0-.47-1.27,1.92,1.92,0,0,0-1.41-.46h-2.76Zm-1.16,6V268h3.88a4.21,4.21,0,0,1,1.79.29,2.33,2.33,0,0,1,1,1,3.44,3.44,0,0,1,.37,1.61,2.74,2.74,0,0,1-2.46,2.92,2.94,2.94,0,0,1,.74.59,7.33,7.33,0,0,1,.91,1.36l1.53,2.9h-1.46l-1.16-2.22a13.15,13.15,0,0,0-1-1.75,2,2,0,0,0-.67-.61,2.13,2.13,0,0,0-.9-.16h-1.34v4.74Zm3.4-12.7a7.18,7.18,0,1,0,7.17,7.17A7.17,7.17,0,0,0,1101.64,266Zm0-1.19a8.37,8.37,0,1,1-8.36,8.36A8.36,8.36,0,0,1,1101.64,264.76Z"/></svg>