<svg id="Logos_Patrocinadores" data-name="Logos Patrocinadores" xmlns="http://www.w3.org/2000/svg" viewBox="0 0 1500 600"><defs><style>.cls-1{fill:#7a97ab;}</style></defs><g id="nmjxRw.tif"><path class="cls-1" d="M475.4,183c8.23,1.3,16.47,2.47,24.49,4.85A129.32,129.32,0,0,1,559,224.92c.47.51,1.24,1,.89,1.83s-1.25.65-1.95.66q-8,0-16,0c-20,0-40,.22-60.06-.08-11.65-.18-21.17,4.35-29.23,12.08-10,9.6-19.48,19.73-29.3,29.52-11.81,11.78-23.73,23.44-35.63,35.14-5.38,5.29-12.07,7.17-19.41,7.19-10.64,0-21.28,0-31.91,0V300c.44-3,.85-6,1.32-8.94,8-51.72,47.82-94,98.78-105.23,5.61-1.23,11.32-1.7,16.92-2.86Z"/><path class="cls-1" d="M1137.49,403.27c-4.29,8-10.77,11.9-20,10.69-8.48-1.12-15.42-9.6-15.08-18.39.35-9.22,8-17,16.83-17.45,8.49-.4,14.24,3.63,18.22,10.76Zm-16.87-22.56A15.32,15.32,0,0,0,1105,396a15.83,15.83,0,0,0,15.62,15.82A15.67,15.67,0,0,0,1136.18,396,15.2,15.2,0,0,0,1120.62,380.71Z"/><path class="cls-1" d="M955.54,373.61v28.21c0,4.61,0,4.62-4.76,4.63-9.69,0-19.39-.08-29.09.05-2.89,0-4.07-.76-4-3.87.18-15.33-.18-30.68.31-46,.61-19,0-38,.6-56.92.32-10.52.34-21-.08-31.62q-3.09,11.07-6.16,22.16-15.47,55.92-30.88,111.85c-.89,3.27-2.3,4.51-5.79,4.42-10-.24-20-.18-30,0-3,.05-4.36-.88-5.19-3.9q-18-65.61-36.19-131.16a12,12,0,0,0-1.36-3.24c0,.85-.13,1.71-.12,2.56.23,27.73.19,55.47.81,83.2.36,16,.23,32.11.46,48.16.06,4.27,0,4.31-4.4,4.31q-14.85,0-29.72,0c-3.77,0-4.36-.63-4-4.44.58-5.92.22-11.82.32-17.62-1-.42-1.24.15-1.51.54-10.92,15.49-26.25,23.91-44.56,26.88-21.26,3.44-42.28,2.33-62.29-6.41-22.33-9.75-35.08-27.2-39.14-51-1.85-10.8-1.11-8.65,7.55-8.78s17.52,0,26.28,0c2.07,0,3.28.57,3.71,2.79,3.36,17,14.23,26.38,30.82,29.44,10.92,2,21.79,1.86,32.22-2.76,10.87-4.81,16.83-16.26,13.7-26.78-2.34-7.85-7.92-12.69-15.59-14.9-8.91-2.56-18-4.58-26.93-7-11.08-3-22.57-4.49-33.22-8.82-18.75-7.62-30.68-21.19-34-41.51a54.46,54.46,0,0,1,29.6-58c24.81-12.14,50.39-13.25,75.87-2,13.46,5.94,23.33,16.24,30.76,28.87,2.32,3.95,4.3,8.06,6.63,12.22,0-4.08.2-8.18,0-12.25-.48-8.23-.09-16.47-.24-24.7,0-2.19,1-2.87,3.11-2.86q27.52.06,55.06,0c2.56,0,3.37,1.23,3.93,3.42q8.33,32.58,16.78,65.12,7.27,28.17,14.56,56.33c.36,1.39.82,2.75,1.34,4.49a5.78,5.78,0,0,0,1.49-3.34q15.81-61,31.56-122c.76-2.95,2-4,5.08-4,17.52.14,35,.06,52.56.07,4.13,0,4.22.11,4.24,4.2q0,9.71,0,19.4v3.21c1.47.41,1.64-.51,2-1,13.12-20.19,32.29-30.54,55.63-33.71,18.19-2.47,35.83-.42,52.18,8.58,21.87,12,33.7,30.68,36.14,55.44.21,2.13-.59,2.88-2.55,2.88-10.32,0-20.64,0-31,0-2.48,0-2.78-1.68-3.08-3.5-1.31-7.79-4.23-14.79-9.89-20.5-13.45-13.58-36.51-14.94-51.52-3.05-12.72,10.07-19,23.82-22.08,39.21A109.94,109.94,0,0,0,983,340.1c4.17,15,12.33,27.1,26.83,34,19.66,9.33,42.46,2.55,53.21-15.71a33.53,33.53,0,0,0,4.08-10.77c.37-1.93,1.33-2.6,3.2-2.59q15.48.06,31,0c2.25,0,2.86.79,2.57,3-4.68,35-26.66,60.39-63.65,64.71-13.77,1.61-27.47,1.11-40.84-3.17-17.76-5.68-31.3-16.64-40.89-32.57A7.52,7.52,0,0,0,955.54,373.61ZM766.09,324c0-.5.16-1,.16-1.48,0-15.54,0-31.08,0-46.61,0-2.7-1.17-3.36-3.6-3.34-9.6.08-19.19-.07-28.78.09-2.87,0-4-1-4.56-3.76a29.66,29.66,0,0,0-12.25-19c-7.76-5.39-16.56-7.2-25.79-7.11-7.19.07-14,1.6-20.23,5.59-13.2,8.5-11.42,26.47-2.57,33.41,3.7,2.9,8,4.42,12.48,5.52,15.39,3.77,30.79,7.48,46.17,11.3,9.26,2.29,18.2,5.38,26,11.21C758.25,313.75,762.17,318.71,766.09,324Z"/><path class="cls-1" d="M411.73,395.68c12,0,24,0,36,0,11.27,0,20.9-3.78,28.86-12,18.76-19.41,37.79-38.57,56.48-58,5.64-5.88,11.25-11.45,19.38-13.66a30.5,30.5,0,0,1,7.68-1.3c9.7-.06,19.39,0,29.09-.08,2.7,0,3.41,1.15,3.3,3.6a126,126,0,0,1-7.85,39.69C570,392,543.79,418.81,505.13,432.08c-39.62,13.6-77.26,7.8-112.25-15.14a107.15,107.15,0,0,1-21.8-18.62c-.53-.6-1.58-1.13-1.26-2,.41-1.11,1.64-.63,2.5-.63Q392,395.66,411.73,395.68Z"/><path class="cls-1" d="M540.68,264.32c-11.26,0-22.52.26-33.77-.07-11.89-.36-21.5,4.31-29.66,12.41Q447.4,306.3,417.71,336.1c-2.07,2-4.25,4-6.42,5.94a21.45,21.45,0,0,1-14.57,5.59c-17.31.09-34.61,0-51.92.1-2.29,0-3.38-.83-3.94-3a153.31,153.31,0,0,1-3.69-18.38c-.51-3.9-.07-4.41,3.82-4.42,18.24,0,36.49-.13,54.73,0a37.18,37.18,0,0,0,28.72-12.17c13.36-14.2,27.43-27.7,41.18-41.52q10.59-10.63,21.43-21A31.71,31.71,0,0,1,509.62,238c18.77,0,37.54,0,56.3-.07,2.7,0,4.43.76,5.88,3.1a150.5,150.5,0,0,1,10.62,19.83c1.27,3,1,3.41-2.33,3.41Q560.38,264.34,540.68,264.32Z"/><path class="cls-1" d="M388.87,358.24c12,0,24,0,36,0,10,0,18.34-3.64,25.42-10.78q30.83-31.11,62-61.94c7.16-7.09,15.77-10.9,26.15-10.73,15.12.25,30.24.11,45.36,0,2.6,0,3.94.73,4.61,3.4A125.49,125.49,0,0,1,591.81,296c.38,3.57-.08,4-3.67,4-18,0-36.09.23-54.12-.07-11.65-.19-21.16,4.19-29.12,12.19-19,19.07-37.78,38.31-56.67,57.47-2.27,2.3-4.67,4.48-6.84,6.87-5.41,5.93-12.22,8.58-20.09,8.61-19.39.06-38.79,0-58.19.05a5.4,5.4,0,0,1-4.92-2.64A137.65,137.65,0,0,1,347,362.26c-1.61-3.56-1.28-4,2.78-4Q369.31,358.22,388.87,358.24Z"/><path class="cls-1" d="M1114.87,395.58c0-3,0-6,0-9,0-1.79.69-2.74,2.56-2.7a27,27,0,0,1,6.21.34,6.18,6.18,0,0,1,4.92,4.68c.63,2.58.27,5.15-2,6.78-1.83,1.32-1.8,2.4-.64,4.07a49,49,0,0,1,3,5.11c.38.74,1.42,1.72.21,2.41s-1.91-.29-2.46-1.25c-1.18-2.08-2.43-4.12-3.5-6.26-.88-1.77-2-2.94-4.12-2.45-2.26.53-1.43,2.44-1.56,3.86-.12,1.24,0,2.5-.06,3.74-.06,1,0,2.36-1.45,2.28-1.3-.06-1.08-1.33-1.09-2.21C1114.84,401.82,1114.86,398.7,1114.87,395.58Zm5.63-9.21c-2.5-.53-3.3,1.1-3,3.62.23,2.09-1.22,5.14,2.93,5.12,3.48,0,5.61-1.52,5.7-4.32S1124.42,386.44,1120.5,386.37Z"/></g></svg>