<svg id="Logos_Patrocinadores" data-name="Logos Patrocinadores" xmlns="http://www.w3.org/2000/svg" viewBox="0 0 1500 600"><defs><style>.cls-1,.cls-2{fill:#7a97ab;}.cls-2{stroke:#7a97ab;stroke-miterlimit:10;}</style></defs><path class="cls-1" d="M934.41,222.38c1.77-7.78,6.94-7.86,12.74-7.65,9.13.32,18.29.08,27.59.08-3.38,12.86-6.72,24.93-9.72,37.07-5.93,24.05-11.64,48.15-17.52,72.2-2.36,9.66-5.58,19.14-14.61,24.57-4.47,2.68-10,5-15.06,5.09-30.41.46-60.84.23-91.26.2a21.24,21.24,0,0,1-3.1-.56c.62-5.76,1.22-11.36,1.69-15.76,24.09,0,47.26,0,70.42,0,8.84,0,10.89-1.54,13.1-9.94,1.48-5.59,2.67-11.26,3.94-16.9.07-.3-.26-.69-.63-1.57-4.46,6.38-10.88,6.74-17.68,6.64-13.61-.19-27.22,0-40.83-.09-16.15-.14-22.73-8.14-19.2-23.92q5.88-26.31,12.67-52.41c4.51-17.23,14.45-24.57,32.11-24.6,14.21,0,28.43.13,42.63-.07C927.41,214.67,932.17,215.5,934.41,222.38Zm-25.5,8.83c-5.2,0-10.4.09-15.6,0-4.51-.1-7.18,2-8.21,6.3q-6.61,27.36-13.15,54.74c-1.18,5,.57,7.65,6,7.59,10-.11,20-.06,30,0,4.86,0,8-2.18,9.2-6.91q6.72-27.63,13.32-55.31c1.05-4.42-1.06-6.37-5.4-6.36Q917,231.24,908.91,231.21Z"/><path class="cls-1" d="M260.86,354C272,307.08,282.91,261.32,294,214.85c10.13,0,21.13-.25,32.09.24,1.79.08,3.44,3.41,5.53,5.64,5.42-8.19,15-5.8,23.92-5.89,11.81-.11,23.62-.13,35.43,0,15.1.16,21.85,8.11,18.63,22.84-4,18.34-8.35,36.62-13.24,54.74-4.43,16.38-14.13,23.24-31.19,23.34-13.81.07-27.63-.19-41.43.1-6.49.14-11.55-1.08-14.41-8.43-2.76,12.91-5.95,25.75-8.08,38.76-.94,5.76-2.36,8.31-8.74,7.95C282.34,353.58,272.15,354,260.86,354Zm73.75-54.21c5,0,10,0,15,0s8-2.28,9.12-7q6.63-27.35,13.17-54.71c1.06-4.42-.56-6.91-5.46-6.88q-15.9.11-31.8,0c-4.23,0-6.93,2-7.89,5.94Q319.9,265.06,313.29,293c-1.07,4.52,1,6.81,5.72,6.77C324.21,299.75,329.41,299.78,334.61,299.78Z"/><path class="cls-1" d="M774.14,307.7c-5.33,8.44-12.68,8.27-20.24,8.15-13.4-.23-26.81,0-40.21-.1-15.71-.18-22.39-7.64-19.19-22.93Q700.32,265,708,237.55c4.47-16,14.34-22.69,31-22.73,13.8,0,27.61.2,41.41-.1,6.17-.13,11.11.91,13,7.95l1.46-.22c2.49-11.35,5.31-22.63,7.38-34,2.09-11.58-.42-10.2,11.8-10.32,9.31-.09,18.62,0,29,0-3.19,13.28-6.12,25.24-8.94,37.23-7.18,30.51-14.46,61-21.36,91.56-2,8.81-1.46,8.93-10.51,8.93-6.41,0-12.81,0-19.21,0C778.13,315.84,772.56,316.94,774.14,307.7ZM753,299.79c5,0,10-.09,15,0,5.45.13,8.56-2.43,9.8-7.67,4.23-17.86,8.6-35.68,12.77-53.55,1.38-5.9.26-7.29-5.76-7.36-10.19-.13-20.39.09-30.58-.09-5.08-.1-7.8,2.18-8.93,6.93q-6.52,27.36-13.16,54.69c-1.27,5.21,1.1,7,5.87,7Z"/><path class="cls-1" d="M1132.29,230.26c1.6-4.25,3.18-9.11,5.35-13.69.5-1.07,3-1.67,4.6-1.68,29.22-.09,58.45-.24,87.67,0,13.87.12,20.49,8.51,17.5,22.26-4,18.54-8.82,36.91-13.09,55.4a130.24,130.24,0,0,0-3.07,18.27c-.34,4-2,5.06-5.62,5-6.8-.15-13.61,0-20.42,0-8.49,0-8.49,0-9.47-9.7-5.64,10.77-14.72,9.78-23.56,9.72-13.21-.07-26.42.08-39.63-.05-15-.16-20.68-5.52-18.71-20.22a154.67,154.67,0,0,1,8.83-33.38c4.28-11.43,13.73-16.51,26.11-16.37,16.81.2,33.62-.07,50.44.08,9.58.09,10-3.85,11.22-11.46.68-4.15-2.86-4.1-5.7-4.11-11,0-22,0-33,0ZM1203.8,262c-14.25,0-27.4-.32-40.5.31-2.3.11-5.5,3.89-6.38,6.59-2.51,7.75-4.07,15.81-5.93,23.77-1,4.34.37,7.11,5.25,7.13,10.59,0,21.2.41,31.74-.26,2.82-.17,7.06-3.11,7.86-5.66C1199,283.82,1201,273.45,1203.8,262Z"/><path class="cls-1" d="M1028.51,315.78c-12,0-24,.12-36,0-15.48-.22-22-8.11-18.65-23.3,3.91-17.75,8.12-35.44,12.75-53s14.41-24.6,32.72-24.61q33.93,0,67.85,0c17.44,0,23.94,7.58,20.24,24.56q-5.73,26.33-12.76,52.38c-4.65,17.17-14.13,23.91-31.89,24-.4,0-.8,0-1.2,0Zm4.22-16c5,0,10,0,15,0s7.94-2.36,9.08-7.05q6.66-27.35,13.22-54.7c1.08-4.51-.7-6.87-5.52-6.84q-15.9.09-31.79,0c-4.24,0-6.9,2-7.87,6q-6.84,27.9-13.46,55.87c-1.09,4.6,1.11,6.77,5.75,6.74C1022.34,299.75,1027.54,299.78,1032.73,299.78Z"/><path class="cls-1" d="M534.09,299.81c-1.83,4.49-3.45,9.2-5.72,13.56-.67,1.29-3.19,2.3-4.87,2.3-30.63.11-61.27.26-91.89-.1-12.7-.14-19.3-8.37-16.62-20.75,4.17-19.33,8.63-38.62,13.93-57.66,4.4-15.78,14.23-22.31,30.71-22.34q34.83,0,69.67,0c16.67,0,23.1,7.77,19.72,24-2.11,10.17-5,20.18-7,30.35-.91,4.39-2.88,5.76-7.29,5.72-23.62-.19-47.25.08-70.87-.21-5.25-.06-7.66,1.59-8.35,6.71-.5,3.74-1.79,7.37-2.53,11.09-1.09,5.47.33,7.2,6.28,7.27,10.61.13,21.22.05,31.84.05Zm-73-41.52c15.18,0,29.09.08,43-.16,1.18,0,3-2,3.38-3.4,1.59-5.55,2.8-11.21,4-16.85.9-4.09-.42-6.66-5.06-6.66-11,0-22-.17-32.93.2-2.13.08-5.46,1.92-6.07,3.69C465,242.35,463.31,249.87,461.09,258.29Z"/><path class="cls-1" d="M674,299.22c-2.08,5.1-3.62,9.61-5.8,13.8a6.2,6.2,0,0,1-4.68,2.62c-31,.11-62,.3-93.06-.16-11.86-.17-18.35-8.08-15.93-19.64,4.26-20.31,9-40.57,14.69-60.51,4.06-14.16,14.14-20.45,29-20.49q35.73-.12,71.45,0c15.58.06,22.22,7.82,19.24,23-2.16,11-5.32,21.73-7.66,32.66-.94,4.43-3.74,4.38-7.09,4.38-23.62,0-47.23.11-70.85-.13-4.89,0-7.41,1.23-8,6.26-.47,3.74-1.74,7.38-2.54,11.09-1.29,5.92,0,7.74,6.25,7.69,23.8-.17,47.59-.52,71.39-.79C671.11,299,671.9,299.06,674,299.22Zm-49.84-40.8c5.79,0,11.58-.07,17.36,0,3.25.06,5.19-1,5.87-4.48,1.07-5.47,2.47-10.88,3.83-16.28,1.13-4.46-.75-6.45-5.12-6.46-10.77,0-21.55,0-32.32,0-4.21,0-6.78,1.91-7.8,5.94-1.32,5.21-2.5,10.46-3.94,15.63-1.21,4.39.6,5.79,4.76,5.69C612.6,258.32,618.39,258.43,624.17,258.42Z"/><path class="cls-1" d="M272.78,230.28c-24.74,0-48.13-.07-71.51.05-5.93,0-11.21,7.36-8.88,12.74.76,1.76,4.41,3.16,6.77,3.21,13.81.31,27.63.15,41.44.17,21.5,0,27,7,21.89,27.82-1.62,6.6-3.11,13.23-4.86,19.79-3.46,12.93-12.45,21.12-25.71,21.37-29,.55-58.06.32-87.09.21-1.39,0-4-1.84-4-2.86a113.33,113.33,0,0,1,.87-12.36c23.21,0,45.58.05,67.94,0,7.94,0,10.34-2.14,11.88-9.75,1.29-6.39-.31-8.54-6.91-8.59-14.82-.1-29.63,0-44.45-.07a38,38,0,0,1-8.33-.76c-7-1.62-10.87-6-11-13.1a84.34,84.34,0,0,1,9.38-39.84c4.47-8.75,12.26-13.28,22-13.36,28.83-.23,57.66,0,86.5-.14,3.58,0,5.21,1.14,4.82,4.86C273.17,223.55,273,227.48,272.78,230.28Z"/><path class="cls-1" d="M1279.48,230.52h-19c1.21-5.17,1.81-9.44,3.36-13.34.51-1.29,3.45-2.19,5.32-2.27,14.39-.56,14.68-.42,17.67-14.31,1.15-5.37,3.72-7.09,8.85-7.47,8-.59,15.87-1.95,23.81-2.91,2.32-.28,4.66-.33,7.81-.54-2,8.61-3.74,16.46-5.7,25.06h36c-1.24,5-1.88,9.26-3.49,13.14-.54,1.31-3.52,2.21-5.42,2.27q-12.9.36-25.8.06c-3.85-.09-5.64,1.17-6.55,5.11-4,17.51-8.45,34.92-12.6,52.4-2.38,10.08-.7,12.06,9.82,12.08,10.71,0,21.42,0,32.36,0-1.66,3.9-3.45,8.76-5.83,13.3-.71,1.34-3.1,2.53-4.73,2.54-18.2.14-36.42.33-54.61-.1-10.52-.24-16.2-6.43-15.85-17,.21-6.11,1.58-12.25,2.94-18.25,3.19-14,6.71-27.95,10.07-41.93C1278.45,236.07,1278.84,233.74,1279.48,230.52Z"/><path class="cls-1" d="M506.44,231.22c4.64,0,6,2.57,5.06,6.66-1.24,5.64-2.45,11.3-4,16.85-.4,1.39-2.2,3.38-3.38,3.4"/><path class="cls-1" d="M461.09,258.29c2.22-8.42,3.87-15.94,6.35-23.18.61-1.77,3.94-3.61,6.07-3.69"/><path class="cls-2" d="M146.34,387.27l-2.07-.15a6.64,6.64,0,0,0-4.53,1.55,8.65,8.65,0,0,0-2.53,4.26v18.24h-2.93V384.76h2.57l.36,4.39v.29a9.62,9.62,0,0,1,3.08-3.81,7.71,7.71,0,0,1,4.59-1.36,6.59,6.59,0,0,1,1,.08,6.15,6.15,0,0,1,.81.19Z"/><path class="cls-2" d="M177.67,411.68a10.58,10.58,0,0,1-8.33-3.62,13.57,13.57,0,0,1-3.19-9.32V397.4a13.78,13.78,0,0,1,3.23-9.42,10.2,10.2,0,0,1,8-3.71,9.23,9.23,0,0,1,7.43,3.08,12.44,12.44,0,0,1,2.63,8.32v2.27H169.07v.8a12,12,0,0,0,2.29,7.5,7.49,7.49,0,0,0,6.31,3,12,12,0,0,0,4.44-.8,9.58,9.58,0,0,0,3.37-2.13l1.25,2a10.79,10.79,0,0,1-3.65,2.43A13.81,13.81,0,0,1,177.67,411.68Zm-.27-24.92a7.11,7.11,0,0,0-5.54,2.41,10.43,10.43,0,0,0-2.54,6.13l.07.15h15.14v-.61a9,9,0,0,0-1.84-5.8A6.42,6.42,0,0,0,177.4,386.76Z"/><path class="cls-2" d="M226.84,411.17c-.18-.93-.31-1.72-.4-2.39a15.34,15.34,0,0,1-.14-2,10.78,10.78,0,0,1-3.83,3.55,11.18,11.18,0,0,1-5.66,1.4,8.28,8.28,0,0,1-6-2.06,7.39,7.39,0,0,1-2.14-5.6,6.76,6.76,0,0,1,3.1-5.74,13.67,13.67,0,0,1,8.06-2.2h6.49v-3.27a5.64,5.64,0,0,0-1.79-4.44,7.31,7.31,0,0,0-5.07-1.61,7.58,7.58,0,0,0-4.84,1.46,4.54,4.54,0,0,0-1.85,3.69H210l0-.15a6.3,6.3,0,0,1,2.56-5.24,10.6,10.6,0,0,1,7-2.25,10.47,10.47,0,0,1,7,2.22,7.85,7.85,0,0,1,2.64,6.37v13a21.8,21.8,0,0,0,.16,2.71,16.75,16.75,0,0,0,.52,2.61Zm-9.72-2.07a10.56,10.56,0,0,0,5.84-1.6,8,8,0,0,0,3.34-4.12v-5.05h-6.52a9.66,9.66,0,0,0-5.88,1.7,5,5,0,0,0-2.32,4.09,4.68,4.68,0,0,0,1.48,3.61A5.75,5.75,0,0,0,217.12,409.1Z"/><path class="cls-2" d="M257,411.17h-2.91V373.09H257Z"/><path class="cls-2" d="M295.57,397.26h-14.4v-2.47h14.4Z"/><path class="cls-2" d="M324.16,378v6.77H330v2.39h-5.81v17.21a5.58,5.58,0,0,0,.94,3.67,3.13,3.13,0,0,0,2.5,1.09,8.69,8.69,0,0,0,1-.06c.33,0,.73-.11,1.18-.21l.44,2.17a5.72,5.72,0,0,1-1.45.48,8.45,8.45,0,0,1-1.72.18,5.46,5.46,0,0,1-4.33-1.75c-1-1.18-1.55-3-1.55-5.57V387.15h-4.57v-2.39h4.57V378Z"/><path class="cls-2" d="M355.71,377.19H352.8v-4.1h2.91Zm0,34H352.8V384.76h2.91Z"/><path class="cls-2" d="M383,384.76l.27,4.34a9.21,9.21,0,0,1,3.38-3.56,9.49,9.49,0,0,1,5-1.27,8.45,8.45,0,0,1,5.06,1.45,8,8,0,0,1,2.9,4.43,10.07,10.07,0,0,1,3.41-4.32,9,9,0,0,1,5.33-1.56,8,8,0,0,1,6.53,2.8c1.54,1.88,2.31,4.77,2.31,8.7v15.4H414.3V395.72q0-4.89-1.73-6.9a6,6,0,0,0-4.79-2,6.61,6.61,0,0,0-5.17,2,9.87,9.87,0,0,0-2.32,5.27c0,.18,0,.35,0,.53s0,.41,0,.69v15.84h-2.95V395.72c0-3.19-.58-5.48-1.75-6.85a5.93,5.93,0,0,0-4.8-2.06,7.24,7.24,0,0,0-4.89,1.55,8.25,8.25,0,0,0-2.55,4.18v18.63h-2.93V384.76Z"/><path class="cls-2" d="M451.63,411.68a10.55,10.55,0,0,1-8.32-3.62,13.53,13.53,0,0,1-3.2-9.32V397.4a13.83,13.83,0,0,1,3.23-9.42,10.2,10.2,0,0,1,8-3.71,9.25,9.25,0,0,1,7.44,3.08,12.44,12.44,0,0,1,2.62,8.32v2.27H443v.8a12,12,0,0,0,2.28,7.5,7.5,7.5,0,0,0,6.31,3,12.14,12.14,0,0,0,4.45-.8,9.53,9.53,0,0,0,3.36-2.13l1.25,2a10.69,10.69,0,0,1-3.65,2.43A13.81,13.81,0,0,1,451.63,411.68Zm-.27-24.92a7.13,7.13,0,0,0-5.54,2.41,10.49,10.49,0,0,0-2.54,6.13l.08.15h15.13v-.61a8.92,8.92,0,0,0-1.84-5.8A6.41,6.41,0,0,0,451.36,386.76Z"/><path class="cls-2" d="M528.81,404.41a4.24,4.24,0,0,0-1.53-3.24c-1-.92-2.85-1.67-5.5-2.25a18.16,18.16,0,0,1-7-2.68,5.58,5.58,0,0,1-2.29-4.75,6.42,6.42,0,0,1,2.56-5.12,10.28,10.28,0,0,1,6.75-2.1,10.55,10.55,0,0,1,7,2.23A6.61,6.61,0,0,1,531.4,392l0,.14h-2.71a4.84,4.84,0,0,0-1.87-3.78,7.26,7.26,0,0,0-4.94-1.61,7.15,7.15,0,0,0-4.79,1.39,4.2,4.2,0,0,0-1.61,3.25,3.78,3.78,0,0,0,1.38,3q1.38,1.19,5.5,2.08a17.94,17.94,0,0,1,7,2.86,5.9,5.9,0,0,1,2.38,4.93,6.46,6.46,0,0,1-2.67,5.36,11.23,11.23,0,0,1-7.07,2.06,11.42,11.42,0,0,1-7.55-2.29,6.49,6.49,0,0,1-2.6-5.47l.05-.15h2.68a4.84,4.84,0,0,0,2.33,4.15,9.66,9.66,0,0,0,5.09,1.3,8,8,0,0,0,5-1.42A4.17,4.17,0,0,0,528.81,404.41Z"/><path class="cls-2" d="M558.47,377.19h-2.9v-4.1h2.9Zm0,34h-2.9V384.76h2.9Z"/><path class="cls-2" d="M585.8,384.76l.26,4.34a9.3,9.3,0,0,1,3.39-3.56,9.49,9.49,0,0,1,5-1.27,8.45,8.45,0,0,1,5.06,1.45,8,8,0,0,1,2.9,4.43,10,10,0,0,1,3.41-4.32,9,9,0,0,1,5.33-1.56,8,8,0,0,1,6.53,2.8c1.54,1.88,2.31,4.77,2.31,8.7v15.4h-2.93V395.72q0-4.89-1.73-6.9a6,6,0,0,0-4.79-2,6.61,6.61,0,0,0-5.17,2,9.8,9.8,0,0,0-2.32,5.27c0,.18,0,.35,0,.53s0,.41,0,.69v15.84h-3V395.72c0-3.19-.59-5.48-1.75-6.85a5.93,5.93,0,0,0-4.8-2.06,7.24,7.24,0,0,0-4.89,1.55,8.25,8.25,0,0,0-2.55,4.18v18.63h-2.93V384.76Z"/><path class="cls-2" d="M661.65,406.87a9,9,0,0,1-3.4,3.57,9.92,9.92,0,0,1-5.07,1.24,8.06,8.06,0,0,1-6.54-2.83q-2.37-2.84-2.37-8.79v-15.3h2.93v15.35c0,3.22.55,5.54,1.65,6.94a5.58,5.58,0,0,0,4.67,2.09,8.57,8.57,0,0,0,5.26-1.47,7.81,7.81,0,0,0,2.77-4V384.76h2.93v26.41H661.9Z"/><path class="cls-2" d="M692.22,411.17h-2.91V373.09h2.91Z"/><path class="cls-2" d="M733.77,411.17c-.17-.93-.31-1.72-.4-2.39a15.35,15.35,0,0,1-.13-2,10.73,10.73,0,0,1-3.84,3.55,11.18,11.18,0,0,1-5.66,1.4,8.3,8.3,0,0,1-6-2.06,7.42,7.42,0,0,1-2.13-5.6,6.74,6.74,0,0,1,3.1-5.74,13.64,13.64,0,0,1,8-2.2h6.5v-3.27a5.64,5.64,0,0,0-1.8-4.44,7.27,7.27,0,0,0-5.06-1.61,7.61,7.61,0,0,0-4.85,1.46,4.53,4.53,0,0,0-1.84,3.69H717l-.05-.15a6.26,6.26,0,0,1,2.55-5.24,10.64,10.64,0,0,1,7-2.25,10.5,10.5,0,0,1,7,2.22,7.88,7.88,0,0,1,2.63,6.37v13a23.92,23.92,0,0,0,.16,2.71,16.77,16.77,0,0,0,.53,2.61Zm-9.71-2.07a10.52,10.52,0,0,0,5.83-1.6,8,8,0,0,0,3.35-4.12v-5.05h-6.52a9.62,9.62,0,0,0-5.88,1.7,5,5,0,0,0-2.32,4.09,4.7,4.7,0,0,0,1.47,3.61A5.78,5.78,0,0,0,724.06,409.1Z"/><path class="cls-2" d="M765.25,378v6.77h5.81v2.39h-5.81v17.21a5.58,5.58,0,0,0,.94,3.67,3.12,3.12,0,0,0,2.5,1.09,8.81,8.81,0,0,0,1-.06c.33,0,.72-.11,1.18-.21l.44,2.17a5.72,5.72,0,0,1-1.45.48,8.45,8.45,0,0,1-1.72.18,5.49,5.49,0,0,1-4.34-1.75c-1-1.18-1.55-3-1.55-5.57V387.15h-4.56v-2.39h4.56V378Z"/><path class="cls-2" d="M796.79,377.19h-2.9v-4.1h2.9Zm0,34h-2.9V384.76h2.9Z"/><path class="cls-2" d="M820,397.57a14.16,14.16,0,0,1,3.2-9.57,11.5,11.5,0,0,1,17,0,14.21,14.21,0,0,1,3.2,9.57v.81a14.24,14.24,0,0,1-3.18,9.58,11.55,11.55,0,0,1-17,0,14.15,14.15,0,0,1-3.2-9.58Zm2.93.81a12.54,12.54,0,0,0,2.32,7.71,8.18,8.18,0,0,0,12.87,0,12.48,12.48,0,0,0,2.34-7.71v-.81a12.48,12.48,0,0,0-2.35-7.66,8.14,8.14,0,0,0-12.86,0,12.53,12.53,0,0,0-2.32,7.66Z"/><path class="cls-2" d="M868.79,384.76l.27,4.58a9.17,9.17,0,0,1,8.55-5.07,8.14,8.14,0,0,1,6.54,2.62q2.25,2.63,2.25,8.19v16.09h-2.93V395.11q0-4.55-1.7-6.42a6.14,6.14,0,0,0-4.82-1.88,7.81,7.81,0,0,0-5,1.53,8.66,8.66,0,0,0-2.78,4.13v18.7H866.2V384.76Z"/><path class="cls-2" d="M956.42,411.17c-.18-.93-.32-1.72-.4-2.39a15.34,15.34,0,0,1-.14-2,10.78,10.78,0,0,1-3.83,3.55,11.22,11.22,0,0,1-5.67,1.4,8.27,8.27,0,0,1-6-2.06,7.39,7.39,0,0,1-2.14-5.6,6.74,6.74,0,0,1,3.1-5.74,13.67,13.67,0,0,1,8.06-2.2h6.49v-3.27a5.67,5.67,0,0,0-1.79-4.44,7.31,7.31,0,0,0-5.07-1.61,7.61,7.61,0,0,0-4.85,1.46,4.56,4.56,0,0,0-1.84,3.69h-2.71l0-.15a6.31,6.31,0,0,1,2.55-5.24,10.65,10.65,0,0,1,7-2.25,10.49,10.49,0,0,1,7,2.22,7.85,7.85,0,0,1,2.64,6.37v13a21.8,21.8,0,0,0,.16,2.71,16.75,16.75,0,0,0,.52,2.61Zm-9.72-2.07a10.56,10.56,0,0,0,5.84-1.6,8,8,0,0,0,3.34-4.12v-5.05h-6.52a9.64,9.64,0,0,0-5.88,1.7,5,5,0,0,0-2.32,4.09,4.68,4.68,0,0,0,1.48,3.61A5.75,5.75,0,0,0,946.7,409.1Z"/><path class="cls-2" d="M985.91,384.76l.27,4.58a9.17,9.17,0,0,1,8.55-5.07,8.14,8.14,0,0,1,6.54,2.62q2.25,2.63,2.25,8.19v16.09h-2.93V395.11q0-4.55-1.7-6.42a6.14,6.14,0,0,0-4.82-1.88,7.81,7.81,0,0,0-5,1.53,8.66,8.66,0,0,0-2.78,4.13v18.7h-2.93V384.76Z"/><path class="cls-2" d="M1026.76,398.18q0-6.31,2.67-10.12a8.61,8.61,0,0,1,7.46-3.79,9.13,9.13,0,0,1,8.13,4.39V373.09H1048v38.08h-2.39l-.42-3.83a9.21,9.21,0,0,1-3.41,3.22,10.15,10.15,0,0,1-4.89,1.12,8.77,8.77,0,0,1-7.41-3.52q-2.67-3.54-2.67-9.46Zm2.93.52a13.36,13.36,0,0,0,1.92,7.61,6.48,6.48,0,0,0,5.77,2.83,8.26,8.26,0,0,0,4.71-1.25,8.43,8.43,0,0,0,2.93-3.48V391.88a9.46,9.46,0,0,0-2.83-3.66,7.59,7.59,0,0,0-4.76-1.41,6.36,6.36,0,0,0-5.8,3.16,15.54,15.54,0,0,0-1.94,8.21Z"/><path class="cls-2" d="M1106,378v6.77h5.81v2.39H1106v17.21a5.64,5.64,0,0,0,.94,3.67,3.13,3.13,0,0,0,2.5,1.09,8.69,8.69,0,0,0,1-.06c.34,0,.73-.11,1.19-.21l.44,2.17a5.81,5.81,0,0,1-1.46.48,8.38,8.38,0,0,1-1.72.18,5.47,5.47,0,0,1-4.33-1.75c-1-1.18-1.55-3-1.55-5.57V387.15h-4.57v-2.39H1103V378Z"/><path class="cls-2" d="M1144.27,411.68a10.58,10.58,0,0,1-8.33-3.62,13.57,13.57,0,0,1-3.19-9.32V397.4A13.78,13.78,0,0,1,1136,388a10.2,10.2,0,0,1,8-3.71,9.25,9.25,0,0,1,7.44,3.08,12.44,12.44,0,0,1,2.62,8.32v2.27h-18.38v.8a12,12,0,0,0,2.28,7.5,7.49,7.49,0,0,0,6.31,3,12,12,0,0,0,4.44-.8,9.58,9.58,0,0,0,3.37-2.13l1.25,2a10.79,10.79,0,0,1-3.65,2.43A13.81,13.81,0,0,1,1144.27,411.68Zm-.27-24.92a7.13,7.13,0,0,0-5.54,2.41,10.43,10.43,0,0,0-2.54,6.13l.07.15h15.14v-.61a8.92,8.92,0,0,0-1.84-5.8A6.41,6.41,0,0,0,1144,386.76Z"/><path class="cls-2" d="M1192.54,404.41a4.24,4.24,0,0,0-1.53-3.24c-1-.92-2.85-1.67-5.5-2.25a18.16,18.16,0,0,1-7-2.68,5.58,5.58,0,0,1-2.29-4.75,6.39,6.39,0,0,1,2.56-5.12,10.28,10.28,0,0,1,6.75-2.1,10.55,10.55,0,0,1,7,2.23,6.61,6.61,0,0,1,2.52,5.51l-.05.14h-2.71a4.84,4.84,0,0,0-1.87-3.78,7.27,7.27,0,0,0-4.94-1.61,7.15,7.15,0,0,0-4.79,1.39,4.2,4.2,0,0,0-1.61,3.25,3.78,3.78,0,0,0,1.38,3q1.38,1.19,5.5,2.08a17.94,17.94,0,0,1,7,2.86,5.9,5.9,0,0,1,2.38,4.93,6.46,6.46,0,0,1-2.67,5.36,11.23,11.23,0,0,1-7.07,2.06,11.42,11.42,0,0,1-7.55-2.29,6.49,6.49,0,0,1-2.6-5.47l0-.15h2.68a4.82,4.82,0,0,0,2.33,4.15,9.66,9.66,0,0,0,5.09,1.3,8,8,0,0,0,5-1.42A4.17,4.17,0,0,0,1192.54,404.41Z"/><path class="cls-2" d="M1223.5,378v6.77h5.81v2.39h-5.81v17.21a5.58,5.58,0,0,0,.94,3.67,3.12,3.12,0,0,0,2.5,1.09,8.81,8.81,0,0,0,1-.06c.33,0,.73-.11,1.18-.21l.44,2.17a5.72,5.72,0,0,1-1.45.48,8.45,8.45,0,0,1-1.72.18,5.49,5.49,0,0,1-4.34-1.75c-1-1.18-1.55-3-1.55-5.57V387.15H1216v-2.39h4.56V378Z"/><path class="cls-2" d="M1255,377.19h-2.9v-4.1h2.9Zm0,34h-2.9V384.76h2.9Z"/><path class="cls-2" d="M1282.46,384.76l.27,4.58a9.59,9.59,0,0,1,3.44-3.74,9.48,9.48,0,0,1,5.1-1.33,8.14,8.14,0,0,1,6.55,2.62q2.23,2.63,2.24,8.19v16.09h-2.93V395.11q0-4.55-1.69-6.42a6.14,6.14,0,0,0-4.82-1.88,7.86,7.86,0,0,0-5,1.53,8.71,8.71,0,0,0-2.77,4.13v18.7h-2.93V384.76Z"/><path class="cls-2" d="M1323.41,398.18q0-6.31,2.67-10.12a8.61,8.61,0,0,1,7.46-3.79,9.47,9.47,0,0,1,4.88,1.21,9.61,9.61,0,0,1,3.42,3.43l.41-4.15h2.37v26.56c0,3.37-.93,6-2.78,7.79s-4.49,2.73-7.89,2.73a20,20,0,0,1-4.06-.46,16.17,16.17,0,0,1-3.77-1.27l.56-2.47a15,15,0,0,0,3.38,1.19,18,18,0,0,0,3.84.4c2.61,0,4.55-.67,5.84-2a8.25,8.25,0,0,0,1.93-5.91v-3.74a9.12,9.12,0,0,1-3.41,3,10.22,10.22,0,0,1-4.77,1.06,8.76,8.76,0,0,1-7.41-3.54q-2.67-3.54-2.67-9.44Zm2.93.52a13.36,13.36,0,0,0,1.92,7.61,6.54,6.54,0,0,0,5.79,2.83,8.27,8.27,0,0,0,4.68-1.25,8.39,8.39,0,0,0,2.94-3.46V391.84a9.25,9.25,0,0,0-2.85-3.63,7.54,7.54,0,0,0-4.72-1.4,6.38,6.38,0,0,0-5.81,3.17,15.48,15.48,0,0,0-2,8.2Z"/></svg>