<svg id="Logos_Patrocinadores" data-name="Logos Patrocinadores" xmlns="http://www.w3.org/2000/svg" viewBox="0 0 1500 600"><defs><style>.cls-1{fill:#7a97ab;}</style></defs><path class="cls-1" d="M803.64,378c0-41.34-30.09-80.55-76.9-80.55-48.63,0-83,40.12-83,85.71,0,47.72,31.91,85.71,83,85.71,35.87,0,74.47-15.19,74.47-38.29,0-12.16-9.12-20.37-19.76-20.37-10.94,0-25.23,14.9-48.63,14.9-30.39,0-38-16.42-38-26.45h85.71C795.74,398.69,803.64,394.74,803.64,378ZM694.83,366.17c0-10.64,12.16-28.57,30.7-28.57s30.69,17.93,30.69,28.57Z"/><path class="cls-1" d="M895.42,343.07c18.54,0,21.88,7.9,34,7.9,10.94,0,19.45-9.42,19.45-22.18,0-25.23-34.95-31.31-56.23-31.31-48,0-79.93,38-79.93,85.71s31.91,85.71,79.93,85.71c18.85,0,56.23-9.12,56.23-32.82,0-10-8.51-21-19.45-21-7,0-16.41,8.2-36.78,8.2-21,0-32.52-18.23-32.52-40.12S871.41,343.07,895.42,343.07Z"/><path class="cls-1" d="M1036.13,343.07c18.54,0,21.89,7.9,34,7.9,10.95,0,19.45-9.42,19.45-22.18,0-25.23-34.95-31.31-56.22-31.31-48,0-79.94,38-79.94,85.71s31.92,85.71,79.94,85.71c18.84,0,56.22-9.12,56.22-32.82,0-10-8.5-21-19.45-21-7,0-16.41,8.2-36.77,8.2-21,0-32.52-18.23-32.52-40.12S1012.12,343.07,1036.13,343.07Z"/><path class="cls-1" d="M1123.35,297.67c-14,0-23.7,10.95-23.7,24.62v121.8c0,13.68,9.72,24.62,23.7,24.62s23.71-10.94,23.71-24.62V322.29C1147.06,308.62,1137.33,297.67,1123.35,297.67Z"/><path class="cls-1" d="M1123.35,286.54a28.27,28.27,0,1,0-28.26-28.27A28.21,28.21,0,0,0,1123.35,286.54Z"/><path class="cls-1" d="M624.5,303h-16V271.34c0-13.67-9.73-24.61-23.71-24.61s-23.7,10.94-23.7,24.61V303H545.17c-12.38,0-22.28,8.81-22.28,21.46s9.9,21.45,22.28,21.45h15.94v99.36c0,13.68,9.72,23.74,23.7,23.74s23.71-10.06,23.71-23.74V345.87h16c12.38,0,22.28-8.81,22.28-21.46S636.88,303,624.5,303Z"/><path class="cls-1" d="M449.82,318a40.41,40.41,0,1,0,40.42,40.4A40.33,40.33,0,0,0,449.82,318Zm0,55.3a14.89,14.89,0,1,1,14.89-14.9A14.9,14.9,0,0,1,449.82,373.33Z"/><path class="cls-1" d="M481.06,131a40.44,40.44,0,0,0-35.72,59.34l-32.62,24.77a40.18,40.18,0,1,0,13.44,17.13l34.34-26.08A40.4,40.4,0,1,0,481.06,131ZM388.78,262.52a14.89,14.89,0,1,1,14.89-14.88A14.88,14.88,0,0,1,388.78,262.52Zm92.28-76.23A14.9,14.9,0,1,1,496,171.4,14.89,14.89,0,0,1,481.06,186.29Z"/></svg>