<svg id="Logos_Patrocinadores" data-name="Logos Patrocinadores" xmlns="http://www.w3.org/2000/svg" viewBox="0 0 1500 600"><defs><style>.cls-1{fill:#7a97ab;}</style></defs><path class="cls-1" d="M982.31,182.2c2.15.48,4.31.87,6.43,1.44a39.1,39.1,0,0,1,28.88,34.79c1.58,20.65-12.89,39.1-32.94,42-21.42,3.1-40.71-10-45.2-30.73-4.75-21.91,10.7-44,32.86-47a13.44,13.44,0,0,0,1.73-.47Zm-4.07,65.64c14,0,25.57-11.75,25.6-26,0-14.8-11.36-26.57-25.69-26.55-14,0-25.52,11.85-25.51,26.3S964.17,247.84,978.24,247.84Z"/><path class="cls-1" d="M826.62,182.2c3.79,1.07,7.71,1.82,11.35,3.27a36.19,36.19,0,0,1,19,17.35c.34.66.61,1.35,1.06,2.34-5.33,0-10.35.09-15.35-.09-.83,0-1.7-1.14-2.43-1.88-5.26-5.27-11.5-8.12-19-7.87-10.89.35-21,9.29-23.37,20.78-2.94,14.13,6.4,28.53,20.58,31.34,8.48,1.69,15.61-1.29,21.49-7.41a4.88,4.88,0,0,1,4-1.64c4.48.1,9,0,13.75,0A29.34,29.34,0,0,1,850,249.71c-11.94,11-25.79,14.42-41,8.51-15.42-6-24.06-17.81-25.42-34.38-1.7-20.82,14.2-38.68,33.56-41.22a6.1,6.1,0,0,0,1.27-.42Z"/><path class="cls-1" d="M1128.84,446.87a6.59,6.59,0,0,0-.32.84c-1.33,5.72-3.33,7.85-9.33,8.05-5.68.19-11.38-.48-17.18-.78-.06-1.19-.09-1.93-.12-2.52,3.5,0,6.9,0,10.3,0,2.36,0,4.74.12,7.08-.09,3.94-.36,5.89-2.56,6-6.46,0-1.68.06-3.37-.06-5-.22-3.22-1.75-4.91-5-5.21-2.5-.23-5-.1-7.54-.14-1.45,0-2.91,0-4.35-.16-4.67-.49-7-2.77-7.45-7.42a46,46,0,0,1,0-8.21c.49-5.31,3.2-8.27,8.48-8.39a152.88,152.88,0,0,1,16.4,1c.56.05,1,1.28,1.63,2.11-5.43,0-10.21.09-15,0-6.15-.14-8.34,1.89-8.35,8,0,1.14,0,2.29,0,3.43.08,4.48,1.75,6.19,6.27,6.32,2.83.08,5.65.1,8.47,0,4.94-.17,9.38,1.71,9.73,8.13,0,.2.21.38.32.58Z"/><path class="cls-1" d="M423.39,395.35V381.21h704.69v14.14Z"/><path class="cls-1" d="M620.43,326.23v40c-31.19-1-56.7-13.22-74.23-38.93-21.77-31.93-23-65.79-3.42-99.08,17.1-29,43.91-42.87,77.6-44.29v40c-18.25.65-33,8-43.52,23.22a47.73,47.73,0,0,0-8.44,31.86C570.72,306.32,593.82,326.19,620.43,326.23Z"/><path class="cls-1" d="M423.39,226.42c5.18,3.57,10.06,6.93,14.93,10.3Q456.68,249.4,475.05,262a3.57,3.57,0,0,1,1.76,3.34q-.06,48.3,0,96.6c0,.75-.06,1.5-.1,2.4H423.39Z"/><path class="cls-1" d="M529.67,185.64v38.93c-.75.05-1.48.13-2.21.13-16.24,0-32.49,0-48.74,0a6.59,6.59,0,0,1-3.53-1.15q-24.76-17.26-49.44-34.66c-.73-.51-1.48-1-2.61-1.72v37.42H370.38v-38.9Z"/><path class="cls-1" d="M880.8,205.17v54.06H867V183.74c4,0,8.06.19,12.06-.07,2.74-.18,4.14.76,5.48,3.16,9.33,16.7,18.84,33.29,28.3,49.91a3.16,3.16,0,0,0,1.38,1.34v-2.5c0-16.4,0-32.8,0-49.2,0-2.08.51-2.79,2.66-2.69,3.71.17,7.43.05,11.24.05v75.69h-6.27c-2.29,0-4.59-.14-6.87,0-1.8.14-2.71-.58-3.57-2.09Q897,232.17,882.5,207c-.39-.68-.79-1.35-1.19-2Z"/><path class="cls-1" d="M1089,289.25a39.53,39.53,0,0,1,39.44,40.53c-.47,20.85-18.25,38.28-39.78,38.17a39.35,39.35,0,1,1,.34-78.7Zm-25.72,39.3c-.08,14.31,11.53,26.28,25.54,26.34s25.65-11.86,25.7-26.21-11.68-26.54-25.68-26.51S1063.37,314.11,1063.3,328.55Z"/><path class="cls-1" d="M983.84,366.12V290.94h13.85v30.4h27.16V290.91h13.72V366.1h-13.63V334.8H997.78v31.32Z"/><path class="cls-1" d="M834.26,366.26c-5,0-9.63.06-14.27-.07-.62,0-1.45-.95-1.75-1.64-2.26-5.24-4.48-10.5-6.55-15.82a2.55,2.55,0,0,0-2.87-1.88c-7.62.07-15.25.1-22.88,0a2.82,2.82,0,0,0-3.12,2.18c-2,5.11-4.2,10.13-6.21,15.23-.58,1.47-1.29,2.12-3,2.06-4.32-.13-8.65,0-13.31,0,1.58-3.8,3-7.3,4.49-10.8q13-31.32,26-62.64c.66-1.59,1.42-2.25,3.16-2.13,2.87.2,6.39-.81,8.46.52s2.45,4.87,3.53,7.47q13.62,32.43,27.2,64.88C833.51,364.33,833.8,365.11,834.26,366.26Zm-28.42-32.63c-2.88-7.79-5.67-15.33-8.69-23.47-3,8.24-5.82,15.8-8.64,23.47Z"/><path class="cls-1" d="M836.86,290.81h14v2.7q0,22.53,0,45.08a34.17,34.17,0,0,0,.52,6.14c1.18,6.46,5.71,10.1,12.42,10.15,6.89.05,11.48-3.51,12.73-10.06a31.49,31.49,0,0,0,.51-5.9c.05-15.1,0-30.21,0-45.31v-2.69h13.83c.05.7.13,1.37.13,2,0,15.87.05,31.74,0,47.6-.06,14.36-7.68,24.12-21.32,26.77-10.48,2-19.62-.92-27-8.83-3.64-3.92-5-8.84-5.5-14-.27-2.72-.35-5.48-.36-8.22q0-21.28,0-42.56Z"/><path class="cls-1" d="M974.41,345.28c-5.06,14.74-24.57,25.18-40.93,22.16-20.2-3.72-33.87-20.55-33.23-40.91.59-18.6,15.56-34.89,34.33-37,20.51-2.34,35.88,10.69,40.06,22.73-5,0-9.94,0-14.88-.06-.67,0-1.42-.75-2-1.31a27.18,27.18,0,0,0-14.92-8.3c-11.75-2.09-23.39,5.9-27.27,17.14-6,17.24,7.3,35.89,25,35.14,6.72-.29,12-3.52,16.58-8.21a3.89,3.89,0,0,1,2.19-1.29C964.31,345.23,969.27,345.28,974.41,345.28Z"/><path class="cls-1" d="M761.79,312.23c-5,0-9.82.07-14.62-.06a4.2,4.2,0,0,1-2.39-1.42A27.15,27.15,0,0,0,730,302.57c-12.35-2.23-24.42,6.6-27.81,18.59-4.8,16.95,8.52,34.52,25.61,33.67,6.62-.33,11.83-3.54,16.39-8.13a5,5,0,0,1,3.07-1.36c4.65-.14,9.3-.06,14-.06-1.6,11.2-20.64,23.28-35.61,22.66a39.87,39.87,0,0,1-38.18-35.6,39.2,39.2,0,0,1,31.62-42.43C739.72,286.13,756.79,298.69,761.79,312.23Z"/><path class="cls-1" d="M747.12,215.35h25.3v13H747.11v18h26.35v12.95c-.74.05-1.4.14-2.06.14-12.06,0-24.12,0-36.17,0-1.77,0-2.36-.43-2.36-2.29q.11-35.6,0-71.19c0-1.37.05-2.29,1.88-2.28,12.52.07,25,0,37.55.05a8.9,8.9,0,0,1,1.07.15v12.86H747.12Z"/><path class="cls-1" d="M698.47,259.43V196.92H684.4c0-4.21-.06-8.15.08-12.09,0-.38,1.14-1,1.77-1,3.27-.11,6.55,0,9.83,0h30.15v13H712.44v2.87c0,19.07,0,38.13,0,57.2,0,2.16-.64,2.73-2.7,2.64C706.08,259.32,702.36,259.43,698.47,259.43Z"/><path class="cls-1" d="M444.34,437l9.19,18.3c-2.5.76-3.78.05-4.81-2.18-2.26-4.91-4.89-9.64-7.31-14.48a2.68,2.68,0,0,0-2.58-1.78c-3.64-.08-7.27-.34-11.13-.53v19h-3.38V411.66c.79-.05,1.59-.14,2.39-.14h14.88c6.63,0,9.82,2.49,10.63,9.05a32.94,32.94,0,0,1-.45,9.75C451.09,434.08,448.51,436.39,444.34,437Zm-16.57-3.78c5.66,0,11.2.1,16.73-.05a3.92,3.92,0,0,0,3.86-3.62,55,55,0,0,0-.07-10.58,4.32,4.32,0,0,0-4.28-3.83c-5.37-.16-10.74,0-16.24,0Z"/><path class="cls-1" d="M1075.1,455.26c-2.82.9-4-.35-5-2.5-2.27-4.82-4.78-9.53-7.29-14.24a3.08,3.08,0,0,0-1.9-1.56c-3.78-.34-7.59-.48-11.69-.7v19.1h-3.17V411.67c.7-.05,1.43-.15,2.16-.15,5.19,0,10.37,0,15.56,0,5.62,0,8.89,2.43,9.76,7.91a35.36,35.36,0,0,1,0,10c-.53,4.15-3,6.94-7.66,7.55C1069,443.16,1072,449.18,1075.1,455.26Zm-25.82-22.09c5.72,0,11.27.12,16.8-.05a4.22,4.22,0,0,0,4-4.1,48.38,48.38,0,0,0-.09-9.7,4.45,4.45,0,0,0-4.23-4.18c-5.44-.2-10.89-.06-16.47-.06Z"/><path class="cls-1" d="M740.6,429c-1.29-1.74-2.52-3.38-3.72-5-1.81-2.49-2.68-5.2-1.34-8.14a7,7,0,0,1,7-4.24c4.25.09,8.49.37,12.74.57,1.68.08,2,1,1.45,2.61-3.78,0-7.58,0-11.38,0a16.34,16.34,0,0,0-3,.15c-3.82.72-5.21,3.25-3,6.44,5.18,7.51,10.68,14.8,16.25,22.46,2.18-2.21,4.11-4.23,6.13-6.15a8.57,8.57,0,0,1,2.14-1.07,7.62,7.62,0,0,1-.59,2.39c-1.6,2.56-3.33,5-5.21,7.82l6.07,8.5c-2.57.56-4.42.23-5.7-2.12a36.21,36.21,0,0,0-3.14-4.29c-1.36,1.22-2.64,2.35-3.9,3.51a12,12,0,0,1-16.7-.19c-5.08-5-5.54-11.94-.93-17C735.79,433,738.17,431.18,740.6,429Zm2,2.95c-1.72,1.43-3.3,2.72-4.86,4-2.65,2.24-4.5,4.94-3.6,8.56a10.06,10.06,0,0,0,7.41,7.66,6.6,6.6,0,0,0,6.25-1.22c1.81-1.5,3.47-3.16,5.35-4.89Z"/><path class="cls-1" d="M894.21,455.79c-2-.18-4.1-.29-6.13-.57-4.66-.66-7.5-3.45-8.8-7.87-1.8-6.09-1.91-12.33-1.36-18.57a50.63,50.63,0,0,1,1.63-9.41c1.48-5.14,5.33-7.71,10.51-8a62.21,62.21,0,0,1,10.48.31c4.24.45,7,3,8.52,7,2,5.17,2,10.6,2,16A53.72,53.72,0,0,1,910,445.09c-1.48,7.25-5.13,10.15-12.57,10.46-1.06.05-2.13,0-3.2,0Zm13.93-22c-.59-4.3-.91-8.49-1.82-12.55-1-4.37-3.54-6.29-8-6.54a77.53,77.53,0,0,0-8.21,0,7.48,7.48,0,0,0-7.34,5.52,33.36,33.36,0,0,0-1.46,7.12c-.52,6.24-.74,12.5,1.07,18.62a7.61,7.61,0,0,0,7.05,5.91,60.54,60.54,0,0,0,9.33,0c3.89-.28,6.66-2.44,7.51-6.28S907.56,437.74,908.14,433.81Z"/><path class="cls-1" d="M511.66,434.13c-.59,4-1,8.48-1.94,12.83a10.07,10.07,0,0,1-9.45,8.3,52.89,52.89,0,0,1-11.39,0c-5.92-.72-8.81-3.83-10-10.48a57.85,57.85,0,0,1,.3-23.37c1.54-6.81,5.42-9.94,12.41-10.21,2.13-.08,4.27-.08,6.4,0,6.87.29,10.76,3.38,12.14,10.16C510.91,425.39,511.12,429.52,511.66,434.13Zm-30.61-1.69c.31,4.16.44,7,.75,9.78.72,6.74,3.48,9.51,10.18,10A40.71,40.71,0,0,0,499,452c4-.39,6.76-2.58,7.58-6.51a52.22,52.22,0,0,0,1.24-10.84,70.56,70.56,0,0,0-1.25-13.14c-.93-4.65-3.52-6.51-8.22-6.79-2.51-.15-5-.09-7.53,0-4.28.12-7.17,2.34-8.09,6.44S481.48,429.51,481.05,432.44Z"/><path class="cls-1" d="M644.87,452.52c5.19,0,10.06.1,14.93,0a13,13,0,0,0,5.29-1.09c3.58-1.8,4.25-12.26.93-14.56a9.18,9.18,0,0,0-4.51-1.25c-3.34-.21-6.71,0-10.06-.2-5.23-.32-7.85-3.17-8-8.41,0-2.13-.05-4.27,0-6.4.16-5.54,3.17-9.1,8.69-9.23a151.19,151.19,0,0,1,16.17,1c.59.06,1.07,1.23,1.9,2.25-4.53,0-8.24,0-12,0a53.73,53.73,0,0,0-6.6.16c-2.73.36-4.35,1.92-4.6,4.61a56.63,56.63,0,0,0,0,8.64,4.11,4.11,0,0,0,3.8,3.95,19.52,19.52,0,0,0,2.95.29c3.05,0,6.1,0,9.15,0,4.72.12,7.55,2.37,8.15,7a38.11,38.11,0,0,1,0,9.12c-.46,4.15-2.95,6.9-7.16,7.06-6,.23-12-.31-18-.62C644.2,454.71,644.77,453.34,644.87,452.52Z"/><path class="cls-1" d="M1017,432.13v3H997c0,5.16-.2,9.86.09,14.53.14,2.23,2.29,2.58,4.23,2.58h18c.07.83.12,1.47.16,2.09-.34.16-.53.33-.73.34-6.39.3-12.77.71-19.16.81-3.44.06-5.24-1.76-5.9-5.19a11.45,11.45,0,0,1-.28-2.26c0-9.6-.09-19.21,0-28.82.06-5.51,2.67-7.87,8.17-7.71,5.33.15,10.66.44,16,.59,1.83.05,2.26.83,1.61,2.69H1004c-6.82,0-7.17.35-7.17,7.26v9.7c3.41.12,6.72.29,10,.34S1013.51,432.13,1017,432.13Z"/><path class="cls-1" d="M934.31,411.79c2.44-.74,3.69-.21,4.54,2.31,3.73,11.11,7.72,22.14,11.62,33.2.26.75.58,1.49,1.07,2.77.49-1.24.81-2,1.08-2.73,4.1-11.07,8.27-22.11,12.2-33.24.87-2.49,2.13-3,4.63-2.33l-16.1,43.56c-3.59.39-3.59.39-4.75-2.91q-6.9-19.49-13.78-39C934.65,413,934.51,412.44,934.31,411.79Z"/><path class="cls-1" d="M853.51,452.43v2.09c-5.67.75-11.29,1.82-17,1a10.53,10.53,0,0,1-8.75-6.88,48.63,48.63,0,0,1-2.58-10.79,45.15,45.15,0,0,1,1.07-17.24c1.65-6.32,5.72-9.57,12.26-9.49,4.92.06,9.84.62,14.92,1,.06,1.13.1,1.83.16,2.87-3.3-.18-6.39-.43-9.48-.5a60.83,60.83,0,0,0-7.52.2,7.42,7.42,0,0,0-6.69,5.75,43.66,43.66,0,0,0,.09,24.79c1.59,5.14,4.94,7.24,10.34,7.25Z"/><path class="cls-1" d="M538.76,411.66h3.44V447c0,4,1,5,5,5.07,5,0,9.91,0,14.87,0h2.55v3.23c-6.77,0-13.47.21-20.13-.09-3.57-.16-5-2-5.48-5.63a20.78,20.78,0,0,1-.21-2.73q0-16.35,0-32.71Z"/><path class="cls-1" d="M591.73,411.62h3.19v2.66q0,15.68,0,31.34c0,.76,0,1.53,0,2.29.26,3,1.31,4.09,4.33,4.13,5.18.07,10.37,0,15.55,0h2.64v3.23a10.75,10.75,0,0,1-1.46.19c-5.49,0-11,.06-16.47,0-5.72-.06-7.82-2.23-7.82-7.95V411.62Z"/></svg>