<svg id="Logos_Patrocinadores" data-name="Logos Patrocinadores" xmlns="http://www.w3.org/2000/svg" viewBox="0 0 1500 600"><defs><style>.cls-1{fill:#7a97ab;}</style></defs><path class="cls-1" d="M867.78,181.49c0-5.14-.14-9.68.05-14.2.11-2.78-.93-3.52-3.62-3.51q-55.34.1-110.68,0c-3,0-3.63,1-3.61,3.76.11,16.4.05,32.81.06,49.21,0,4.11,0,4.12,4,4.12,16.79,0,33.57.06,50.36-.05,2.77,0,3.76.64,3.75,3.62q-.17,49.07,0,98.14c0,5.95-2.49,10.49-7.75,12.82a33.87,33.87,0,0,1-12.23,3c-11,.41-22,.12-33,.15-5.65,0-5.09-.57-5.1,5,0,16.5-.08,33,.06,49.49,0,3-.9,3.67-3.71,3.61-13.94-.28-27.89,0-41.81-.64-17.18-.8-33-5.9-46.24-17.39-13.88-12.07-21.53-27.72-24.72-45.59a95.62,95.62,0,0,1-1.26-16.4c-.12-30.34-.06-60.68-.06-91,0-4.59,0-4.6-4.48-4.6H578c-3.75,0-3.77,0-3.77-3.83,0-16.68.06-33.37-.06-50.06,0-2.87.79-3.71,3.68-3.7,8.44,0,16.88,0,25.3-.46,16.91-.89,26.44-9.49,28.52-26.37,1.05-8.52,1-17.19,1.16-25.8.05-2.72.79-3.56,3.54-3.54q26,.17,52.07,0c2.68,0,3.59.68,3.57,3.48-.13,16.31-.06,32.62-.06,48.93,0,3.78,0,3.8,3.76,3.8h50.07c3.81,0,3.83,0,3.83-3.74,0-16.31.06-32.62-.05-48.93,0-2.72.75-3.54,3.51-3.54q84.65.12,169.3,0c2.86,0,3.72.79,3.7,3.68-.13,16.5-.1,33,0,49.5,0,2.42-.51,3.41-3.26,3.58a107.52,107.52,0,0,0-37.5,9.75c-4.75,2.13-9.48,4.34-14.23,6.49C870.19,180.61,869.31,180.9,867.78,181.49Zm-118.2,97.74c0-18.2-.06-36.41.07-54.61,0-2.93-.92-3.7-3.73-3.68q-25.18.17-50.36,0c-2.84,0-3.71.79-3.7,3.7.1,32.42,0,64.85.07,97.27,0,9.63,6,15.58,15.65,15.62,12.8,0,25.61-.07,38.41.07,2.94,0,3.67-.94,3.65-3.76C749.53,315.64,749.58,297.43,749.58,279.23Z"/><path class="cls-1" d="M802.84,395.9l8-2.51c21.77-6.83,38.91-19.32,49.26-40.14a58.94,58.94,0,0,0,6.07-25.81c.19-13.84-.36-27.7.23-41.52a110.1,110.1,0,0,1,3.67-24.08c5.57-20.52,19.9-32.55,39.79-38.43,4.33-1.28,8.92-1.69,13.39-2.44,1.94-.33,2.85.57,2.68,2.55-.05.66,0,1.33,0,2V392.22c0,4.36,0,4.37-4.31,4.37H803Z"/><path class="cls-1" d="M900.28,458.3v2.95c0,8.91-.09,17.82.05,26.73,0,2.5-.74,3.31-3.24,3.23-8.28-.25-7,1.13-7-7.09-.08-12.42,0-24.84-.06-37.26,0-2.53.74-3.21,3.34-3.5,5.85-.65,9.51,1.32,12.72,6.43,5.2,8.24,11.35,15.88,17.1,23.76.44.6.94,1.15,2,2.38.13-1.64.26-2.58.26-3.52,0-8.62.08-17.25,0-25.87,0-2.35.73-3.11,3.09-3.1,6.56,0,6.56-.05,6.56,6.37,0,12.6-.06,25.21.06,37.82,0,2.65-.65,3.47-3.44,3.66a10.41,10.41,0,0,1-10.28-4.94c-6-8.74-12.31-17.3-18.49-25.92-.58-.81-1.21-1.57-1.82-2.34Z"/><path class="cls-1" d="M569.09,475.12v-3c0-8.53.06-17.06,0-25.59,0-2.33.68-3.13,3.07-3.11,6.57.05,6.57-.05,6.57,6.64,0,12.52-.06,25,0,37.54,0,2.64-.64,3.46-3.43,3.67-4.59.34-7.69-1.24-10.27-5-6-8.72-12.31-17.29-18.5-25.91-.57-.8-1.21-1.56-1.81-2.34l-.75.22v2.95c0,8.91-.08,17.82,0,26.73,0,2.5-.74,3.27-3.24,3.25-7-.06-7,0-7-7.12,0-12.41.06-24.83,0-37.25,0-2.53.73-3.21,3.33-3.5,5.84-.64,9.5,1.3,12.73,6.42,5.24,8.32,11.46,16,17.27,24,.38.52.82,1,1.23,1.5Z"/><path class="cls-1" d="M965.91,466.82c0-6.82.08-13.64,0-20.45,0-2.23.69-3,2.91-2.94,7.07.23,14.22-.29,21.19.59,13.31,1.7,19.48,14.26,18.2,25.36-1.47,12.67-8.65,19.75-21.38,21.13-5.82.63-11.71.54-17.57.77-2.39.1-3.37-1-3.34-3.45C966,480.83,965.92,473.82,965.91,466.82Zm11.17.2c0,2.94,0,5.88,0,8.82.08,6.42-.85,5.56,5.78,5.76,4.55.14,8.51-1,11.27-4.76,3.94-5.4,4.12-11.28,1.45-17.22-2.49-5.56-7.15-7.51-13-7.15a16.83,16.83,0,0,1-2.56,0c-2.17-.2-3.07.61-3,2.9C977.19,459.25,977.08,463.14,977.08,467Z"/><path class="cls-1" d="M784.4,470.43l12.06,20.62c-4.49,0-8.21.09-11.92-.1-.6,0-1.23-1.28-1.69-2.06-3.25-5.53-6.46-11.08-9.69-16.63l-.78.18c-.06.86-.17,1.72-.18,2.58,0,4.55-.06,9.1,0,13.65,0,1.82-.62,2.53-2.46,2.56-10.22.18-8.62.51-8.67-8-.07-12.13,0-24.27-.07-36.4,0-2.59.72-3.5,3.36-3.42,5.76.17,11.58-.41,17.28.18,10.4,1.07,15.39,11.59,9.78,20.43C790,466.34,787.25,467.89,784.4,470.43Zm-8.61-18.68c-2.77-.38-3.92.74-3.61,3.51a32.12,32.12,0,0,1,0,3.4c0,5.19.59,5.65,5.77,4.25,1.08-.29,2.53-.58,3-1.36,1-1.57,2.06-3.54,1.87-5.22-.15-1.37-1.89-2.81-3.26-3.74C778.61,451.91,777.08,452,775.79,451.75Z"/><path class="cls-1" d="M1008.86,491.17a24.38,24.38,0,0,1,.74-3.39c5.41-14.15,10.83-28.31,16.37-42.41a3.79,3.79,0,0,1,2.71-1.79,47.13,47.13,0,0,1,8.23,0,3.69,3.69,0,0,1,2.6,1.83c5.37,13.86,10.62,27.77,15.89,41.67.43,1.13.83,2.28,1.46,4-4,0-7.68,0-11.31-.05-.41,0-.87-.62-1.18-1a6.11,6.11,0,0,1-.54-1.31c-2.95-7.37-3-7.37-10.84-7.37h-1.13c-2.66.05-5.9-.8-7.79.42s-2.31,4.48-3.16,6.93a3.31,3.31,0,0,1-3.8,2.54C1014.49,491.07,1011.86,491.17,1008.86,491.17Zm23.95-35.71-1.07-.17c-1.47,5.11-3,10.2-4.34,15.34a1.89,1.89,0,0,0,1.08,1.5c3,.13,6.07.07,9.72.07Z"/><path class="cls-1" d="M699.91,491.15c-3.93,0-7.23.09-10.53-.07a3,3,0,0,1-2.06-1.45,26.59,26.59,0,0,1-2.18-5.54c-.53-2.12-1.57-2.91-3.77-2.82-4.17.16-8.35.09-12.52,0-1.74,0-2.69.41-3.24,2.31-2.17,7.61-2.25,7.59-10.06,7.57h-3.71a41.5,41.5,0,0,1,1.09-4.25c5.29-13.8,10.59-27.61,16-41.35a3.93,3.93,0,0,1,2.86-2c3.2-.21,7.13-1.1,9.45.37,2.08,1.32,2.37,5.42,3.49,8.28q6.86,17.47,13.72,34.94C698.93,488.3,699.3,489.45,699.91,491.15Zm-18.64-18.94c-1.94-6-3.68-11.42-5.43-16.82l-1-.11c-1.47,5.12-3,10.23-4.34,15.38-.1.39.73,1.46,1.15,1.48C674.61,472.27,677.6,472.21,681.27,472.21Z"/><path class="cls-1" d="M879.82,460.37c0,6,.34,11.94-.1,17.87s-4,10.07-9.76,12.06a30.55,30.55,0,0,1-19.27.52c-7.55-2.29-11.24-6.68-11.59-15.32-.4-9.92,0-19.87,0-29.8,0-1.52.65-2.12,2.22-2.23,8.13-.56,7.86-.6,7.89,7.43a196.29,196.29,0,0,0,1.19,23.77c.85,6.8,6.32,9.52,12.86,7.41,2.83-.91,4.94-2.59,5.34-5.65.63-4.87,1.29-9.76,1.5-14.66.23-5.29,0-10.61-.13-15.91-.05-1.7.34-2.48,2.15-2.39,2,.1,4,.1,6,0,1.79-.09,2.27.76,2.25,2.39-.06,4.84,0,9.67,0,14.5Z"/><path class="cls-1" d="M449,467.22c0-6.83.08-13.66-.05-20.48,0-2.39.56-3.36,3.16-3.3,7.49.16,15,.11,22.48,0,2.09,0,2.84.63,2.78,2.76-.17,6.6.68,5.56-5.56,5.64-3.31.05-6.64.09-9.95,0-2-.06-2.68.76-2.66,2.69.12,8.41-.89,6.93,6.8,7.06,3,.06,6.07,0,9.1,0,1.52,0,2.16.53,2.26,2.14.46,6.86.51,6.86-6.32,6.86-3,0-6.07.07-9.1,0-1.91-.06-2.78.57-2.74,2.59.21,10.27-1.43,8.15,8,8.39,2.56.06,5.13.09,7.68,0,1.87-.07,2.5.69,2.46,2.51-.2,8.6,1.2,7-6.95,7.09-6.16.1-12.33,0-18.49.06-2.23,0-3-.71-3-2.95C449.06,481.25,449,474.23,449,467.22Z"/><path class="cls-1" d="M801.28,467.1c0-6.83.07-13.65,0-20.48,0-2.24.54-3.22,3-3.18,7.59.14,15.18.1,22.76,0,2,0,2.7.6,2.66,2.61-.15,6.88.65,5.69-5.7,5.79-3.32.06-6.64.07-10,0-1.83,0-2.53.7-2.51,2.52.11,8.65-1,7.07,6.91,7.22,2.84.06,5.69.08,8.53,0,1.87-.06,2.77.5,2.72,2.57-.16,7.82.88,6.29-6.16,6.44-3.13.06-6.26.09-9.39,0-2-.07-2.71.78-2.61,2.7a56.64,56.64,0,0,1,0,5.68c-.1,2,.81,2.66,2.72,2.63,4.26-.08,8.53.05,12.8,0,2,0,2.7.62,2.65,2.62-.2,8.43,1.12,6.88-6.78,7-6.07.09-12.14-.08-18.21.07-2.56.06-3.5-.7-3.44-3.36C801.39,480.94,801.28,474,801.28,467.1Z"/><path class="cls-1" d="M648.06,455.79a30.63,30.63,0,0,1-3.41-1.75c-5.25-3.67-10.91-3.58-16.56-1.44-7,2.64-10.21,10.17-8.37,18.77s9.35,13.29,17.77,10.91c3.5-1,6.8-2.69,10.58-4.22,0,3.29.11,6.38-.08,9.45,0,.7-1,1.56-1.7,2-9.91,5.36-26,2.28-32.94-6.25-7.4-9-7.38-23.1.24-32.4,6.37-7.78,15-9.46,24.42-8.27a61.2,61.2,0,0,1,8.55,2.08c.58.17,1.41.88,1.43,1.38C648.12,449.09,648.06,452.18,648.06,455.79Z"/><path class="cls-1" d="M525.21,455.89c-1.84-.95-3.17-1.57-4.43-2.31-6.07-3.62-12.14-2.79-18.21,0a8.43,8.43,0,0,0-1.87,1.29c-4.64,3.91-6.21,13.82-3.21,20.12a14.1,14.1,0,0,0,16,7.48,51.5,51.5,0,0,0,7.93-3c1.1-.44,2.15-1,3.77-1.82,0,3.69.07,6.86-.07,10,0,.53-.85,1.18-1.45,1.5-9.63,5.14-23.93,3.27-31.93-4.14a8.75,8.75,0,0,1-.81-.8c-6.81-8.37-7.9-17.9-4-27.52,3.79-9.46,11.57-14.46,21.88-14.29,5,.09,9.9,1.38,14.83,2.26a2.34,2.34,0,0,1,1.55,1.57C525.29,449.21,525.21,452.22,525.21,455.89Z"/><path class="cls-1" d="M731.72,448.63a54.69,54.69,0,0,1-4.94,4.84c-.45.35-2-.25-2.75-.85a7.32,7.32,0,0,0-7.68-1.51c-4,1.41-4.79,5.28-1.52,7.94,1.95,1.59,4.45,2.48,6.61,3.82,2.88,1.79,6,3.37,8.43,5.66,4.08,3.84,4.7,8.75,2.54,13.87-4.68,11.15-20.93,14-29.24,5.18-1.64-1.73-1.82-3.47-.19-5.28l3.72-4.16c1.62,1.36,2.79,2.42,4,3.39a8.13,8.13,0,0,0,9.08,1c3.52-1.72,4-5.54,1.13-8.17a24.1,24.1,0,0,0-4.27-2.78c-2.47-1.41-5.06-2.61-7.47-4.11-5.38-3.34-8.41-8.16-7.27-14.56,1.11-6.22,6-8.9,11.63-10.31C721,440.77,728,443.11,731.72,448.63Z"/><path class="cls-1" d="M1083.65,453.65c-3-1.14-5.3-2.42-7.78-2.88a5,5,0,0,0-5.75,3.23c-.95,2.61.58,4.63,2.76,5.94s4.64,2.17,6.8,3.52c2.7,1.7,5.61,3.32,7.74,5.62,4.3,4.65,4.09,11.51.06,16.7a18.39,18.39,0,0,1-26.58,2.39c-2.7-2.43-2.71-4-.2-6.69a44.6,44.6,0,0,0,2.71-3.56c1.94,1.6,3.2,2.7,4.52,3.72a8.51,8.51,0,0,0,9.1.86c3.17-1.82,3.76-5.27,1.16-7.85a18.53,18.53,0,0,0-3.94-2.75c-2.7-1.56-5.58-2.85-8.21-4.52-5.21-3.33-8.21-8.05-7.08-14.36,1.16-6.53,6.28-9.29,12.11-10.46s11.54-.49,16.17,4c1.41,1.36,1.87,2.5,0,3.89A41.71,41.71,0,0,0,1083.65,453.65Z"/><path class="cls-1" d="M421,471.28c0-5.5-.07-11,0-16.5,0-2.21-.78-3.08-3-2.94a31.81,31.81,0,0,1-6.25-.07,3,3,0,0,1-2-1.93c-.84-6.07-.54-6.35,5.61-6.35,8.16,0,16.32.06,24.47,0,2.07,0,2.87.57,2.81,2.73-.19,7.4.88,6.18-6.08,6.28-6,.08-5.29-.43-5.31,5.39,0,10.05-.09,20.11,0,30.16,0,2.54-.81,3.27-3.27,3.19-8.17-.24-6.92,1.08-7-6.84C421,480,421,475.64,421,471.28Z"/><path class="cls-1" d="M600.16,467.3c0,6.91-.07,13.83,0,20.74,0,2.25-.56,3.18-3,3.18-8.12,0-8.12.1-8.12-8,0-12.12.05-24.25,0-36.38,0-2.49.56-3.48,3.29-3.44,7.86.11,7.86,0,7.86,7.95Z"/><path class="cls-1" d="M945.35,467c0-6.91.06-13.82,0-20.73,0-2.06.61-2.8,2.74-2.82,7.51-.09,7.51-.17,7.51,7.43,0,12.3-.05,24.61,0,36.91,0,2.55-.7,3.48-3.36,3.44-6.91-.09-6.91,0-6.91-6.91Z"/></svg>