<svg id="Logos_Patrocinadores" data-name="Logos Patrocinadores" xmlns="http://www.w3.org/2000/svg" viewBox="0 0 1500 600"><defs><style>.cls-1{fill:#7a97ab;}</style></defs><path class="cls-1" d="M876.77,222.38h.08c0-21.58-.13-43.16.1-64.74.06-5.47-1.87-8.85-6.72-11.26C836.45,129.59,802.78,112.57,768.91,96A12.93,12.93,0,0,0,759,96q-51.47,25.19-102.52,51.19c-2.49,1.26-5,5.37-5,8.17-.24,44.1,0,88.21-.05,132.31,0,4.61,1.83,7.4,5.94,9.47,33.68,17,67.24,34.22,101,51,3.07,1.52,8.18,1.66,11.2.15,33.55-16.73,66.82-34,100.28-50.9,5.18-2.61,7.09-6,7-11.69C876.61,264.59,876.77,243.48,876.77,222.38ZM742,252.5c-4.78,15.09-9.85,30.09-14.89,45.28-6-.53-7.9-4.36-9.06-8.95q-6.92-27.24-13.89-54.47c-.43-1.69-1.14-3.31-1.72-5l-2.25-.31-15,47.47c-3.47-3.73-7.67-6.19-8.6-9.57-5.75-20.8-10.78-41.81-16-62.76-.25-1,.2-2.18.33-3.28l3.15-.77q8.25,32.38,16.49,64.77l1.9-.12q3.84-12,7.65-24.09c1.1-3.48,2.47-6.93,3.35-10.46,1.48-4.78,3.24-8.38,5.66-9.42,7.4,3.59,7.93,10.74,9.59,17.34,3.59,14.27,7.11,28.55,10.74,42.81a15.2,15.2,0,0,0,4.12,7.43,37.35,37.35,0,0,0,2.44-5c3.45-10.84,6.64-21.78,10.33-32.55.64-1.88,3.2-3.11,4.87-4.64C741.59,248.34,742.62,250.67,742,252.5Zm123.64,6.8c-1.68-1.14-4.1-1.91-4.9-3.49-4.28-8.46-8.11-17.14-12.19-25.7-1.17-2.46-2.63-4.77-4-7.15l-2.28.28c-.62,2.18-1.33,4.33-1.84,6.53-3.54,15-7,30-10.63,45a12.87,12.87,0,0,1-3.73,6.42c-4.22,3.53-7.68,3.57-10.11-2.64-3.64-9.25-8-18.23-12.12-27.29-.84-1.83-2-3.52-3-5.27h-2q-7,28.86-14,57.72l-2.62-.39c0-1.77-.34-3.63,0-5.3,3.94-16.62,7.92-33.22,12.09-49.77.61-2.42,1.73-5.14,3.5-6.75,3.42-3.08,6.57-4,9.12,1.87a231.79,231.79,0,0,0,17.71,33.15c.74-2.54,1.59-5.06,2.21-7.62,3.43-14.3,6.94-28.57,10.13-42.91,1.26-5.67,4.08-9.39,10.83-11,2,4,4.21,8.13,6.22,12.32,4.09,8.55,8.25,17.08,12,25.78C866.86,254.78,865.87,257.21,865.68,259.3ZM859.5,153.83Q815.24,176,771,198.15c-4.3,2.17-8.09,2.89-12.75.63-31.18-15.12-62.48-30-93.73-45-2.08-1-4-2.22-7.63-4.2,9.61-4.88,17.91-9.19,26.28-13.33,24.69-12.21,49.34-24.49,74.19-36.33,3.15-1.51,8.15-2,11.13-.56C800.78,114.94,832.85,131,865,146.84c.83.41,1.56,1,3.63,2.3C864.9,151.06,862.22,152.47,859.5,153.83Z"/><path class="cls-1" d="M465.16,480.32c2.68-7.37,5.13-14.22,7.66-21,5.68-15.33,11.77-30.53,16.93-46,2.21-6.64,6.06-7.67,12.18-7.8,6.65-.15,8.41,3.59,10,8.7,4.74,14.91,9.7,29.74,14.61,44.59.72,2.17,1.66,4.27,3.17,8.13,4.41-12,8.25-22.33,12-32.7,2.84-7.79,5.78-15.56,8.34-23.44,1.65-5.08,5.42-5.3,9.62-5.09,3.88.19,8.22-1,10,4.37,7.42,22.26,15,44.47,22.42,66.71a13.78,13.78,0,0,1,.29,3.31c-9.81,3.67-12.64,2.46-15.65-6.59-5.46-16.4-10.86-32.82-16.94-51.2-1.65,4-2.73,6.38-3.62,8.83-5.36,14.69-11,29.29-15.85,44.15-2.38,7.31-7.62,6.2-13,6.55s-7.39-2.46-8.89-7.06c-5.42-16.63-11.15-33.16-17.31-51.34a60.88,60.88,0,0,0-3,5.86c-5.23,14.49-10.32,29-15.61,43.5C479,482.42,477.23,483.18,465.16,480.32Z"/><path class="cls-1" d="M591.06,396.81c3.89-10.71,7.41-19.95,10.57-29.3,1.51-4.47,3.44-7.39,8.89-7.32s7.21,3.45,8.62,7.76c3,9.15,6.14,18.25,10.72,27.33,3.16-8.84,6.28-17.69,9.49-26.52.8-2.21,1.32-5,2.95-6.31s4.64-1.57,7-1.46c.53,0,1.75,3.72,1.23,5.24-4.59,13.46-9.29,26.9-14.54,40.11-.87,2.21-4.64,4.77-6.84,4.58a10.26,10.26,0,0,1-7.2-5.19c-3.49-8-6-16.46-9-24.72-.61-1.69-1.49-3.29-3.13-6.83-4,10.93-7.18,20.18-10.68,29.33-1,2.56-2.22,5.54-4.27,7.05-4.13,3-9.76.5-11.71-5-4.37-12.28-8.71-24.59-12.61-37-.72-2.29-.07-7,1.3-7.58,4.23-2,6.91.73,8.28,5,2.73,8.58,5.68,17.09,8.58,25.62C589.17,392.88,589.83,394.08,591.06,396.81Z"/><path class="cls-1" d="M920.06,385.23c-1.47-5.86-5.59-7.55-12.89-5.9a11.9,11.9,0,0,0-4.44,2.07c-3.4,2.6-7.31,4-9.46-.33-.7-1.39,3-7.15,5.2-7.44a111.44,111.44,0,0,1,25.22-.59c2.57.25,6.3,4.86,6.68,7.83,1,7.46.55,15.14.12,22.69-.1,1.72-2.46,4.61-3.93,4.72a180.53,180.53,0,0,1-25.36.49c-7.88-.55-10.39-4-10.46-11.57s2.36-10.84,10.3-11.81C907.23,384.62,913.59,385.23,920.06,385.23ZM910.85,393v0c-1.41,0-3.06-.47-4.17.11a36.41,36.41,0,0,0-5.4,4.05c1.84,1.38,3.49,3.32,5.56,4a11.24,11.24,0,0,0,6.93,0c2.44-.92,4.43-3,6.62-4.64-2.24-1.18-4.44-2.45-6.74-3.47C912.86,392.75,911.79,393,910.85,393Z"/><path class="cls-1" d="M675.27,373.05c16.12,0,22.09,4.5,22.1,15,0,4.43-1.63,6.6-6.2,6.57-6.62,0-13.27-.12-19.86.36-1.76.13-3.37,2.25-5,3.46,1.55,1.45,3,4.07,4.66,4.14,6.13.29,12.72,2.26,17.82-3.86,1-1.21,4.63-.25,7-.29-.31,2.18.08,5.69-1.07,6.3-5,2.66-10.3,5.48-15.8,6.37-7.47,1.2-16,1.23-20.41-6.37s-4-16.7-.2-24.63C662,372.4,670.11,373.55,675.27,373.05Zm13,13.48c-6.65-6.76-18.32-6.4-21.53,0Z"/><path class="cls-1" d="M804.71,385.81c6.12.49,12.24,1,18.36,1.44,8.5.57,12.7,5.14,11.58,12.65-.87,5.77-4.65,9.09-10,9.57a150.56,150.56,0,0,1-21.24,0c-2.17-.11-5.16-1.28-6.17-2.93-1.52-2.48-1.61-5.81-2.31-8.78,2.82.55,6.15.35,8.35,1.83,4.19,2.81,14.69,4.6,18.9,2,1.14-.72,2.42-2.67,2.19-3.74A4.75,4.75,0,0,0,821,395c-4.47-.45-9-.33-13.49-.48-8.41-.29-12.93-3.67-13.25-9.85-.34-6.77,3.55-10.87,12.28-11.65a131.3,131.3,0,0,1,19,.14c1.93.11,4.47,1.22,5.47,2.71,1.25,1.86,1.19,4.59,1.7,6.94-2.39.09-5.3,1.12-7.07.12-7.16-4-13.93-3.31-20.81-.75Z"/><path class="cls-1" d="M788.17,408.4c-14.39,5.06-17.37-8.56-26.49-12.16-.17,2.89.28,5.82-.66,8.18-.87,2.15-3.25,3.69-5,5.5-1.61-1.65-4.58-3.28-4.62-5-.36-13.49-.36-27,.1-40.49.06-1.82,3.31-3.52,5.08-5.28,1.53,1.74,4.22,3.37,4.39,5.24.57,6.06.21,12.21.21,18.94,8.58-1.39,11.51-14.2,23.21-8.33-4,3.94-7.26,7.45-10.84,10.63s-3.43,5.37.25,8.5C778.58,398.19,782.72,402.92,788.17,408.4Z"/><path class="cls-1" d="M883.89,456.34c-1.71-1.09-3.44-3.14-5.11-3.08-4.62.16-9.19,1.37-13.81,1.8-2.35.22-4.78-.36-7.17-.58,1.44-2.1,2.76-5.91,4.34-6a194.17,194.17,0,0,1,26-.14c1.79.11,4.62,3.36,4.82,5.38a160.26,160.26,0,0,1,.38,21.25c0,1.26-2.25,3.46-3.53,3.51-8.47.38-17,.51-25.44.28-6-.16-8.76-3.75-9-9.72-.29-6.23,3-9.57,8.62-10.08,6.28-.57,12.65-.13,19-.13Zm-9.58,8.36v-.06c-1.42,0-3.12-.5-4.2.11-2,1.11-3.61,2.88-5.38,4.38,1.84,1.15,3.56,3,5.53,3.3a25.71,25.71,0,0,0,9.17-.24c1.44-.29,2.56-2.2,3.83-3.38-1.33-1.37-2.44-3.17-4-4C877.89,464.18,876,464.7,874.31,464.7Z"/><path class="cls-1" d="M864.82,411c-11.94-.84-16.39-5.62-16.55-18.21-.07-5.12,2.68-10.87-3.53-14.71-.57-.35,0-3.46.8-4.95,1.11-2.23,2.4-5,4.39-6s7.22-1.05,7.42-.4c1.87,6.16,6.7,4.71,11,5.19,4,.43,10.74-2.27,10.66,4.47-.07,6.2-6.59,3.06-10.31,3.94-3.26.78-9.09,1.12-9.32,2.43a44.77,44.77,0,0,0,.2,16.68c.72,3.36,8,2.43,10.95-.6a19.38,19.38,0,0,1,7.06-4.09c.6-.22,3.17,2.2,3,3-.68,3.06-1.29,7.13-3.45,8.65C873.67,408.83,869,409.55,864.82,411Z"/><path class="cls-1" d="M605.14,467.18c3.19,8.41,11.62,10.13,18.89,6,2.57-1.48,5.8-1.86,8.77-2.55.1,0,1.29,2.63.94,3-2.43,2.31-4.93,5.8-7.77,6.18a100.23,100.23,0,0,1-21.07.31c-5.69-.44-9-4.41-8.89-10.17.12-6.83-2.73-15.29,5.61-19.05,9.34-4.2,19.67-4.64,28.71.57,2.93,1.69,4.14,7.57,4.5,11.68.1,1.09-5.75,3.6-9,3.92C619.3,467.63,612.69,467.18,605.14,467.18ZM625.8,461c-3.36-6.26-15.49-8.36-18.2-4.47-.51.74,1,4.21,1.73,4.27C614.38,461.17,619.47,461,625.8,461Z"/><path class="cls-1" d="M933,446.9c.18-3,0-5.91.65-8.59.35-1.45,2.05-3.42,3.32-3.56s3.74,1.82,3.76,2.9q.4,18.81,0,37.63c0,1.12-2.41,3-3.79,3.12-6.26.42-12.55.42-18.83.37-10.34-.09-14.33-4-14.53-14-.26-13.06,2.91-17.3,13.66-17.8C922.19,446.71,927.14,446.9,933,446.9ZM913.66,464c-.84,5.69,1.47,9,8.59,8.55,7.43-.46,10.85-3.24,11-10,.17-6.46-3.46-9.6-11.11-9.59S913.6,454.29,913.66,464Z"/><path class="cls-1" d="M721.35,459.84c-2.49-8.11-8.32-6.93-13-6.3-4.39.58-8.56,2.77-12.83,4.25-.63-1.16-1.26-2.32-1.88-3.49,2.69-1.94,5.22-5.23,8.09-5.56a79.63,79.63,0,0,1,21.09.11c2.69.42,4.85,4.71,7.06,7.39.48.58.24,1.85.16,2.78-.53,6.72-1.11,13.44-1.67,20.16-10.06,0-20.2.64-30.17-.32-5.29-.51-6.09-6-5.56-10.82.59-5.42,4.26-7.85,9.21-8.12C707.94,459.6,714.09,459.84,721.35,459.84Zm-10.87,13.94v.2c1.88-.1,4,.34,5.55-.45,1.79-.92,3-2.9,4.52-4.42-1.61-1.05-3.12-2.76-4.85-3a29.39,29.39,0,0,0-9.77.11c-1.52.31-2.67,2.52-4,3.87,1.44,1.24,2.73,2.78,4.38,3.6C707.44,474.23,709.07,473.78,710.48,473.78Z"/><path class="cls-1" d="M1019.5,479.31c-4.11-.75-8.94-1.05-13.27-2.68-2.17-.81-3.61-3.95-4.94-6.28-.27-.48,1.54-3.07,2.14-3,2.37.37,4.59,1.71,7,2.13,5.57,1,11.18,1.78,16.81,2.22.82.06,2.83-2.64,2.54-3.45-.51-1.43-2.26-3.24-3.65-3.39-4.46-.5-9-.22-13.51-.39-5.63-.22-10.79-1.71-11.27-8.36s4.13-9.48,9.89-9.69a145.73,145.73,0,0,1,22.5.87c1.78.21,3.14,3.87,4.7,5.94-2.69.34-5.41,1.15-8,.92-5-.45-10-1.73-15-2.09-1.27-.09-2.71,2-4.07,3,1.54,1.06,3,2.81,4.62,3,5.14.72,10.38.75,15.55,1.27s8.48,3.44,8.7,8.67-3.23,8.33-8,9.49C1028.23,478.51,1024.17,478.7,1019.5,479.31Z"/><path class="cls-1" d="M946.35,389.76c-1.9-3.89-3.68-7.84-5.71-11.65-3.48-6.5,6-7.14,5.42-12.29,2.37.14,6.61-.24,6.81.5,1.85,6.66,7,5.17,11.54,5.3,1.66.05,3.52-.44,4.93.16,2,.88,3.74,2.53,5.58,3.84-1.79,1.12-3.55,2.31-5.4,3.32-.56.3-1.4.06-2.11.08-14.3.41-15.39,1.59-13.21,16.23.31,2.1,2.46,5.28,4.11,5.52,2.6.38,5.7-.93,8.22-2.23s4.17-3.58,6.5-5c.39-.24,3.31,2.13,3.14,2.83-.81,3.29-1.71,8.72-3.62,9.19-6.84,1.69-14.32,3-21.14,1.91-6.13-1-6.79-7.7-6.69-13.41,0-1.19,0-2.37,0-3.56Z"/><path class="cls-1" d="M971.17,478.88c-2.6-.12-5.27.08-7.8-.42-6.27-1.23-10-4.62-10.15-11.62-.51-17.49,4.76-22.68,22.16-21.18,12.66,1.09,16.81,5.29,16.42,16.59-.44,12.58-4.55,16.41-17.78,16.53-.95,0-1.9,0-2.85,0Zm.25-6.39c9.4,0,11.61-1.89,11.7-10.06s-2.37-10.6-10.49-10.6-11.49,3.17-11.55,10.89C961,470.27,963.36,472.47,971.42,472.49Z"/><path class="cls-1" d="M742.61,464.11c0-1.66,0-3.32,0-5,0-9.81,0-9.89,9.65-10.3,6.53-.28,13.19-1.08,19.54-.06,2.83.46,6.64,4.53,7.19,7.48,1.15,6.2.74,12.76.28,19.12-.12,1.6-3.14,4.44-4.31,4.2-1.94-.4-4.61-2.64-4.92-4.46-.75-4.38-.41-9-.33-13.48s-.78-8.29-6.31-8.28-10.82.81-11.77,7.6c-.53,3.73.26,7.68-.5,11.34-.56,2.71-2.44,7.07-4.12,7.26-5.46.63-4.25-4.29-4.48-7.61-.18-2.6,0-5.22,0-7.83Z"/><path class="cls-1" d="M663.12,480.13c-2.61,0-5.3.42-7.8-.11-2.67-.58-5.87-1.38-7.57-3.25-5.61-6.16-4.33-13.76-2.46-20.85,1.68-6.35,7.45-7.35,13.12-7.54,4.26-.15,8.66-.64,12.76.19a25.12,25.12,0,0,1,9.7,4.91c1.12.85.67,3.74.93,5.7-2.38-.17-6,.58-6.93-.66-4.77-6.59-11.28-3.91-17-3.38-4.79.44-6.61,13.66-2.71,17.26,3.52,3.26,15.56,1.61,18.87-1.85,1.64-1.72,4.82-1.95,7.31-2.86-.19,2.57.51,6.78-.7,7.43-5.31,2.87-11.18,4.7-16.84,6.91C663.59,481.4,663.36,480.76,663.12,480.13Z"/><path class="cls-1" d="M826.13,472.82c5.37,0,10.76-.21,16.11.14,1.41.1,2.71,1.92,4.06,3-1.41.93-2.76,2.58-4.23,2.69-8,.62-16.06,1.1-24.1,1.07-2.16,0-4.32-2-6.48-3,1.13-2.16,1.84-4.73,3.48-6.39,2.81-2.85,6.23-5.08,9.33-7.65a42.31,42.31,0,0,0,8.92-9.42c-5,0-10,.23-15-.13-1.76-.12-3.41-1.67-5.11-2.56,1.69-1.18,3.34-3.29,5.08-3.37,7.81-.37,15.64-.28,23.45,0,1.61,0,4.33,1.29,4.5,2.3a7,7,0,0,1-1.83,5.5c-6.1,5.52-12.53,10.67-18.84,16Z"/><path class="cls-1" d="M708.18,391.25c.38-5.16-1-11.68,1.69-15.06,2.25-2.86,9.12-2.28,14-2.83,3.25-.36,7-1,9.79.26a20.57,20.57,0,0,1,8.48,7.46c.87,1.35-1.36,4.69-2.19,7.13-2.33-1-4.71-1.89-7-3-2.65-1.32-6-4.6-7.62-3.86a12.91,12.91,0,0,0-6.41,7.77c-1.09,4.72.14,9.95-.68,14.79-.38,2.23-3.28,4-5,6-1.54-2-4-3.76-4.41-5.92-.71-4.14-.2-8.48-.2-12.73Z"/><path class="cls-1" d="M799.92,463.79c0,4,.36,8-.19,12-.21,1.47-2.54,3.67-3.93,3.68s-4.2-2.1-4.26-3.38a240.88,240.88,0,0,1,.1-24.63c.09-1.42,2.88-3.29,4.72-3.74.81-.2,3.2,2.55,3.4,4.14C800.27,455.75,799.93,459.79,799.92,463.79Z"/></svg>