<svg id="Logos_Patrocinadores" data-name="Logos Patrocinadores" xmlns="http://www.w3.org/2000/svg" viewBox="0 0 1500 600"><defs><style>.cls-1{fill:#7a97ab;}</style></defs><path class="cls-1" d="M355.46,362c-16.65,0-30.7.29-44.71-.28-2.37-.09-5-3.58-6.84-6Q270.59,311.94,237.48,268c-1.34-1.77-2.8-3.45-5.44-6.7L159.67,361.72l-27.38-37.88,45.3-60c7.95-10.53,15.66-21.25,24-31.46,3.85-4.72,3.23-7.89-.23-12.43-21.11-27.6-41.69-55.6-63-83-5.12-6.59-5.14-11,.16-17.28,7.42-8.72,13.89-18.24,21.53-28.44Z"/><path class="cls-1" d="M170.52,90.38c15.1,0,27.64-.46,40.1.3,3.38.21,7.4,3.43,9.67,6.39,20.73,27.08,41.13,54.41,61.65,81.64,3,4,6.21,8,10.62,13.66l72-99.67c8.63,11.26,17.06,21.62,24.53,32.62,1.29,1.9-.55,7.2-2.49,9.79-20.76,27.86-41.62,55.65-63,83-4.95,6.35-4.57,10.48.19,16.59C344.79,261.66,365,289.12,386,316c5.13,6.56,5.33,11.16-.07,17.39-7.13,8.22-13.42,17.17-21,27.06Z"/><path class="cls-1" d="M586.06,178.83c13.82-20.27,31.44-33.71,56.94-34.94,27.2-1.33,42.64,12.32,50.19,39.13,3.22-4.4,5.29-7.09,7.22-9.87,15.39-22.15,36.65-31.55,63.35-28.79,20.16,2.08,35.08,18.6,36.56,43.34,1.87,31.07,1.91,62.25,2.74,93.38.09,3.54.15,7.07.24,10.61.31,13.69.18,13.3-13.82,13.86-8.71.34-10.94-2.71-10.8-11.06.45-28.61.23-57.23.05-85.85A80.1,80.1,0,0,0,777,194.38c-6-31.34-33.62-35.54-54.64-22.95-17.75,10.62-28.43,26.52-28.19,48.39.28,25.4-.38,50.81.27,76.2.27,10.39-5.75,9.25-12.35,9.42-7,.18-12.32.17-12.09-9.75.61-26.35.44-52.73.06-79.09A113.19,113.19,0,0,0,667,191.86c-5.42-22.51-21.38-31.33-43.69-24.9-20.33,5.86-37.58,28.66-37.62,49.86,0,26.37-.47,52.75.21,79.09.26,10.36-5.58,9.43-12.27,9.53-6.92.1-12.29.35-12.2-9.65q.68-69.93,0-139.87c-.07-8.78,3.81-9.87,11.08-9.8,7.06.07,12,.6,11.16,9.68-.68,7.22-.14,14.55-.14,21.83Z"/><path class="cls-1" d="M974.59,270.52c-9,16.44-21.11,27.5-37.22,32.67-27.26,8.76-54,7.73-78.54-9-29-19.73-41.34-58.12-30.51-94.47,9.81-32.93,39.81-55.16,75.28-55.8,46.37-.83,81.16,33.3,81.52,79.3.06,8.73-2.94,10.84-11.2,10.76-37.41-.38-74.82-.19-112.23-.14-11.08,0-12.62,1.83-9.94,12.45,5.78,22.9,19.93,38.22,43.25,43.1,22.26,4.66,41.2-2.19,56.07-19.87,1.75-2.09,5.76-3.54,8.53-3.27C964.27,266.7,968.78,268.76,974.59,270.52Zm-68.73-53.43c16.1,0,32.2-.09,48.3,0,6.57.06,9.44-2.19,8.17-9.24-4.63-25.81-28.62-46.22-55.26-46.66-26-.43-50,19.09-55.57,44.85-1.72,7.9.44,11.34,9,11.13C875.58,216.84,890.72,217.11,905.86,217.09Z"/><path class="cls-1" d="M460.59,143.57c47,0,80.45,34.91,80.95,83.29.39,37.49-26.36,81.7-80.92,81.6-48.75-.09-79.92-35.38-79.77-82.53C381,171,421.92,142,460.59,143.57ZM405.1,233c2.1,5.8,4.63,17.62,10.35,27.62,15.15,26.46,45.87,34.67,71.62,19.56,21.51-12.64,30.34-33.25,29.52-57s-11.59-43.44-34-54.42c-19.56-9.6-41.43-5.48-57.14,9.66C411.69,191.7,406.14,208.33,405.1,233Z"/><path class="cls-1" d="M1242.88,339.2c4.67.4,7.93,1.24,11,.8,4-.57,8.57-1.21,11.67-3.48,9.59-7,15-28.81,10.34-39.92q-29.39-69.66-59-139.24c-1.33-3.14-2.34-6.4-4-11,7.78,0,14.28-.8,20.4.36,2.77.52,5.78,4.5,7,7.59,16.24,39.5,32.17,79.13,48.22,118.71a20.13,20.13,0,0,0,6.37,8.86c3.19-8,6.58-16,9.54-24.06q17.19-47,34.13-94.15c6.7-18.68,7.41-19.22,28.8-16.36-1.11,3.38-2,6.6-3.23,9.72q-34.08,88-68.22,176.06c-7.51,19.36-20.89,28-41.47,28.34-8.7.13-12.66-2.57-11.69-11.48C1243.16,346.83,1242.88,343.65,1242.88,339.2Z"/><path class="cls-1" d="M1083.37,280.06c8.56,17.14,7.57,20.38-9.88,24.37a102.76,102.76,0,0,1-28.69,2.3c-16.7-1-27.74-14-27.8-31.16-.1-32.77-.34-65.55.17-98.32.14-9.35-2-14.25-12.22-12.74-7.84,1.17-10-2.65-9.84-10,.16-6.24,2.29-8.34,8.56-8.36,13.28,0,13.29-.36,13.3-13.88,0-10.6.27-21.21-.09-31.8-.22-6.28,2-9,8.37-8.31a24.46,24.46,0,0,0,5.8,0c7.45-1,10.46,1.8,10.1,9.61-.54,11.86.07,23.78-.18,35.66-.14,6.59,2.41,9.38,9.13,8.93,5.77-.39,11.62.28,17.39-.16,7.13-.54,10.61,1.27,10.46,9.42-.13,7.62-3.43,8.94-10,9-26.9.28-26.9.44-26.89,26.94,0,22.81-.07,45.63,0,68.44.07,20.69,11.37,28.95,31.6,23.24C1076.28,282.22,1079.89,281.09,1083.37,280.06Z"/><path class="cls-1" d="M1136.4,181.09c2.13-3,4.24-6,6.4-9,10-13.78,22.79-23.56,39.82-26.92,4.55-.9,11-2.78,10.61,5-.32,6.21,5.66,15.17-6.48,18-9,2.1-18.31,4.57-26.22,9.06-16,9.06-25.94,22-25.18,42.13,1,25.38-.13,50.83.44,76.23.19,8.81-3.62,10.42-11,9.75-6.3-.58-13.7,2.37-13.59-9.17q.66-70.45,0-140.91c-.08-9.65,5.32-9,11.79-9.06s11.48.11,10.72,9c-.7,8.25-.15,16.61-.15,24.91Z"/><path class="cls-1" d="M292.53,177.46l-25.06-32.79c13.23-17.49,26.27-34.9,39.61-52.08,1.26-1.62,4.4-2.46,6.69-2.5C327,89.86,340.15,90,355.66,90Z"/><path class="cls-1" d="M232.59,276.11c7.35,9.83,14.28,18.59,20.48,27.84,1.25,1.87.74,6.35-.72,8.36-10.93,15.12-22.2,30-33.65,44.74-1.55,2-4.65,3.89-7.09,4-12.78.39-25.58.18-40.46.18Z"/><path class="cls-1" d="M261.12,506.15a4.21,4.21,0,0,1-.63,1.49,2.55,2.55,0,0,1-1.22.85,8.07,8.07,0,0,1-2.08.38c-.85.07-1.93.1-3.25.1s-2.64,0-3.53-.1a7.76,7.76,0,0,1-2.1-.38,2.17,2.17,0,0,1-1.12-.85,4.66,4.66,0,0,1-.54-1.49l-8-31.65h-.08L231,506.15a4.68,4.68,0,0,1-.54,1.45,2.28,2.28,0,0,1-1.1.87,7,7,0,0,1-2,.4c-.86.07-2,.1-3.41.1s-2.69,0-3.57-.1a7.84,7.84,0,0,1-2.11-.38,2.21,2.21,0,0,1-1.12-.85,5.44,5.44,0,0,1-.58-1.49L205.2,462.57a11.63,11.63,0,0,1-.39-2.18,1.42,1.42,0,0,1,.44-1.21,2.78,2.78,0,0,1,1.59-.52c.73-.07,1.75-.1,3.06-.1s2.17,0,2.88.06a5.5,5.5,0,0,1,1.6.27,1.3,1.3,0,0,1,.74.62,4.39,4.39,0,0,1,.3,1.14l8.77,38.25h0l9.11-38a4.65,4.65,0,0,1,.41-1.2,1.66,1.66,0,0,1,.85-.72,5.83,5.83,0,0,1,1.64-.34c.69-.07,1.62-.1,2.78-.1s2.22,0,3,.08a5.47,5.47,0,0,1,1.7.33,1.69,1.69,0,0,1,.87.71,4,4,0,0,1,.42,1.24l9.42,38h.08l8.76-38.14a5.15,5.15,0,0,1,.31-1.06,1.39,1.39,0,0,1,.73-.7,5,5,0,0,1,1.54-.34c.67-.07,1.61-.1,2.82-.1a26,26,0,0,1,2.65.1,2.22,2.22,0,0,1,1.37.52,1.53,1.53,0,0,1,.36,1.25,14.49,14.49,0,0,1-.4,2.26Z"/><path class="cls-1" d="M325.1,507.35a1,1,0,0,1-.25.69,1.61,1.61,0,0,1-.83.5,7.39,7.39,0,0,1-1.54.31,20.33,20.33,0,0,1-2.43.12,21.08,21.08,0,0,1-2.49-.12,7.23,7.23,0,0,1-1.55-.31,1.68,1.68,0,0,1-.81-.5,1.08,1.08,0,0,1-.25-.69V487.16H296.27v20.19a1.12,1.12,0,0,1-.23.69,1.51,1.51,0,0,1-.81.5,7.53,7.53,0,0,1-1.54.31,25.38,25.38,0,0,1-4.93,0,7.62,7.62,0,0,1-1.56-.31,1.66,1.66,0,0,1-.83-.5,1,1,0,0,1-.25-.69V460.18a1,1,0,0,1,.25-.69,1.66,1.66,0,0,1,.83-.5,7.62,7.62,0,0,1,1.56-.31,25.38,25.38,0,0,1,4.93,0,7.53,7.53,0,0,1,1.54.31,1.51,1.51,0,0,1,.81.5,1.14,1.14,0,0,1,.23.69v18.34H315V460.18a1.1,1.1,0,0,1,.25-.69,1.68,1.68,0,0,1,.81-.5,7.23,7.23,0,0,1,1.55-.31,21.08,21.08,0,0,1,2.49-.12,20.33,20.33,0,0,1,2.43.12A7.39,7.39,0,0,1,324,459a1.61,1.61,0,0,1,.83.5,1,1,0,0,1,.25.69Z"/><path class="cls-1" d="M371.52,504.76a13.92,13.92,0,0,1-.1,1.87,4.55,4.55,0,0,1-.29,1.22,1.49,1.49,0,0,1-.48.68,1,1,0,0,1-.63.21H344.93a3.14,3.14,0,0,1-2.15-.76,3.1,3.1,0,0,1-.86-2.45V462a3.1,3.1,0,0,1,.86-2.45,3.14,3.14,0,0,1,2.15-.76h24.93a1,1,0,0,1,.62.2,1.43,1.43,0,0,1,.46.67,4.82,4.82,0,0,1,.29,1.24,14.27,14.27,0,0,1,.1,1.91,13.58,13.58,0,0,1-.1,1.83,4.65,4.65,0,0,1-.29,1.22,1.68,1.68,0,0,1-.46.67,1,1,0,0,1-.62.21H352v12.2h15.09a1.09,1.09,0,0,1,.64.21,1.57,1.57,0,0,1,.48.66,4.68,4.68,0,0,1,.29,1.2,17,17,0,0,1,0,3.68,4.72,4.72,0,0,1-.29,1.18,1.5,1.5,0,0,1-.48.64,1.23,1.23,0,0,1-.64.19H352v14.09h18a1,1,0,0,1,.63.21,1.45,1.45,0,0,1,.48.67,4.65,4.65,0,0,1,.29,1.22A14,14,0,0,1,371.52,504.76Z"/><path class="cls-1" d="M423.46,507.43a1.41,1.41,0,0,1-.16.71,1.22,1.22,0,0,1-.73.48,7.15,7.15,0,0,1-1.7.27c-.75.05-1.76.08-3.05.08-1.08,0-1.94,0-2.58-.08a5.69,5.69,0,0,1-1.53-.29,1.67,1.67,0,0,1-.79-.54,3.42,3.42,0,0,1-.39-.79l-4.47-11.15c-.54-1.26-1.07-2.38-1.58-3.36a10.71,10.71,0,0,0-1.72-2.45,6.33,6.33,0,0,0-2.18-1.49,7.68,7.68,0,0,0-2.86-.5h-3.16v19a1,1,0,0,1-.26.69,1.61,1.61,0,0,1-.83.5,7.39,7.39,0,0,1-1.54.31,25.27,25.27,0,0,1-4.92,0,7.34,7.34,0,0,1-1.56-.31,1.51,1.51,0,0,1-.81-.5,1.07,1.07,0,0,1-.24-.69V462a3.07,3.07,0,0,1,.87-2.45,3.13,3.13,0,0,1,2.14-.76h12.94c1.31,0,2.39,0,3.24.08s1.62.12,2.31.19a21.15,21.15,0,0,1,5.43,1.47,13,13,0,0,1,4.09,2.72,11.31,11.31,0,0,1,2.56,4,14.32,14.32,0,0,1,.89,5.26,15.32,15.32,0,0,1-.64,4.58,11.52,11.52,0,0,1-1.87,3.68,12.13,12.13,0,0,1-3.05,2.82,16.37,16.37,0,0,1-4.13,1.93,11.79,11.79,0,0,1,2.11,1.31,11.38,11.38,0,0,1,1.85,1.88,17.73,17.73,0,0,1,1.64,2.5c.51.95,1,2,1.51,3.19l4.2,9.84c.39,1,.65,1.69.78,2.14A4.56,4.56,0,0,1,423.46,507.43Zm-13.09-33.89a7.37,7.37,0,0,0-1.12-4.17,6,6,0,0,0-3.66-2.39,12.75,12.75,0,0,0-1.76-.31,23.8,23.8,0,0,0-2.72-.12h-4.55v14.17h5.17a12.28,12.28,0,0,0,3.78-.53,7.43,7.43,0,0,0,2.7-1.46,6,6,0,0,0,1.62-2.26A7.61,7.61,0,0,0,410.37,473.54Z"/><path class="cls-1" d="M466.44,504.76a13.92,13.92,0,0,1-.1,1.87,4.55,4.55,0,0,1-.29,1.22,1.56,1.56,0,0,1-.48.68,1,1,0,0,1-.63.21H439.85a3.14,3.14,0,0,1-2.15-.76,3.1,3.1,0,0,1-.86-2.45V462a3.1,3.1,0,0,1,.86-2.45,3.14,3.14,0,0,1,2.15-.76h24.93a1,1,0,0,1,.62.2,1.43,1.43,0,0,1,.46.67,4.82,4.82,0,0,1,.29,1.24,16.18,16.18,0,0,1,.1,1.91,15.46,15.46,0,0,1-.1,1.83,4.65,4.65,0,0,1-.29,1.22,1.68,1.68,0,0,1-.46.67,1,1,0,0,1-.62.21H447v12.2H462a1.09,1.09,0,0,1,.64.21,1.57,1.57,0,0,1,.48.66,4.68,4.68,0,0,1,.29,1.2,17,17,0,0,1,0,3.68,4.72,4.72,0,0,1-.29,1.18,1.5,1.5,0,0,1-.48.64,1.23,1.23,0,0,1-.64.19H447v14.09h18a1,1,0,0,1,.63.21,1.53,1.53,0,0,1,.48.67,4.65,4.65,0,0,1,.29,1.22A14,14,0,0,1,466.44,504.76Z"/><path class="cls-1" d="M541.29,493.76a15.21,15.21,0,0,1-.73,4.83,12.7,12.7,0,0,1-5.12,6.67,17.64,17.64,0,0,1-4,2,23.55,23.55,0,0,1-4.61,1.14,36.25,36.25,0,0,1-5.46.37H508.13A3.12,3.12,0,0,1,506,508a3.07,3.07,0,0,1-.87-2.45V462a3.07,3.07,0,0,1,.87-2.45,3.12,3.12,0,0,1,2.14-.76h12.55a33.88,33.88,0,0,1,7.78.77,15.41,15.41,0,0,1,5.36,2.34,10.32,10.32,0,0,1,3.34,4,12.8,12.8,0,0,1,1.16,5.63,12.23,12.23,0,0,1-.47,3.42,10.2,10.2,0,0,1-1.35,2.91,10,10,0,0,1-2.18,2.32,10.9,10.9,0,0,1-3,1.62,13.48,13.48,0,0,1,3.92,1.35,10.92,10.92,0,0,1,3.12,2.49,11.75,11.75,0,0,1,2.11,3.57A13,13,0,0,1,541.29,493.76Zm-13.12-21a7.44,7.44,0,0,0-.47-2.71,4.85,4.85,0,0,0-1.39-2,6.21,6.21,0,0,0-2.33-1.22,13.66,13.66,0,0,0-3.77-.42h-5.13v13h5.67a9.72,9.72,0,0,0,3.52-.52,6.06,6.06,0,0,0,2.18-1.42,5.81,5.81,0,0,0,1.29-2.13A7.77,7.77,0,0,0,528.17,472.73Zm2.58,21.38a7.87,7.87,0,0,0-.58-3.11,5.79,5.79,0,0,0-1.7-2.29,7.63,7.63,0,0,0-2.85-1.43,16.5,16.5,0,0,0-4.52-.5h-6V501h7.33a12.5,12.5,0,0,0,3.57-.44,7.24,7.24,0,0,0,2.51-1.32,6,6,0,0,0,1.66-2.16A6.91,6.91,0,0,0,530.75,494.11Z"/><path class="cls-1" d="M565.55,507.35a1,1,0,0,1-.25.69,1.66,1.66,0,0,1-.83.5,7.53,7.53,0,0,1-1.54.31,25.27,25.27,0,0,1-4.92,0,7.59,7.59,0,0,1-1.57-.31,1.71,1.71,0,0,1-.83-.5,1,1,0,0,1-.25-.69V460.18a1,1,0,0,1,.25-.69,1.68,1.68,0,0,1,.85-.5,7.91,7.91,0,0,1,1.56-.31,20.51,20.51,0,0,1,2.44-.12,20.83,20.83,0,0,1,2.47.12,7.53,7.53,0,0,1,1.54.31,1.66,1.66,0,0,1,.83.5,1,1,0,0,1,.25.69Z"/><path class="cls-1" d="M622.43,466.55a15.33,15.33,0,0,1-.1,1.93,5.52,5.52,0,0,1-.27,1.29,1.44,1.44,0,0,1-.42.68,1,1,0,0,1-.6.19,3.72,3.72,0,0,1-1.62-.69,23.63,23.63,0,0,0-3-1.51,31.92,31.92,0,0,0-4.42-1.5,22.7,22.7,0,0,0-6-.7,16.47,16.47,0,0,0-6.56,1.26,14.25,14.25,0,0,0-5,3.55,15.85,15.85,0,0,0-3.2,5.52,21.48,21.48,0,0,0-1.12,7.12,22.81,22.81,0,0,0,1.14,7.54,15.38,15.38,0,0,0,3.18,5.47A13.35,13.35,0,0,0,599.4,500a17.53,17.53,0,0,0,6.35,1.11,14.55,14.55,0,0,0,3.36-.38,12.17,12.17,0,0,0,3.09-1.16V488h-9.46q-.69,0-1.08-.87a8.14,8.14,0,0,1-.38-2.95,15.1,15.1,0,0,1,.09-1.81,4.61,4.61,0,0,1,.29-1.18,1.65,1.65,0,0,1,.47-.66,1,1,0,0,1,.61-.21h16.87a2.73,2.73,0,0,1,1.1.21,2.48,2.48,0,0,1,.85.64,3,3,0,0,1,.56,1,4.45,4.45,0,0,1,.19,1.37v19.88a4.78,4.78,0,0,1-.4,2,2.93,2.93,0,0,1-1.66,1.37c-.84.33-1.87.68-3.11,1s-2.52.67-3.84.92a38.72,38.72,0,0,1-4,.58c-1.35.13-2.71.2-4.08.2a31.37,31.37,0,0,1-10.71-1.72,21,21,0,0,1-13-12.93,30.42,30.42,0,0,1-1.74-10.63,30.94,30.94,0,0,1,1.85-11,23.45,23.45,0,0,1,5.25-8.3,22.74,22.74,0,0,1,8.2-5.23,30.16,30.16,0,0,1,10.71-1.82,35.61,35.61,0,0,1,5.91.45,31.5,31.5,0,0,1,4.65,1.08,17.58,17.58,0,0,1,3.3,1.37,8,8,0,0,1,1.83,1.27,3.24,3.24,0,0,1,.76,1.53A13.88,13.88,0,0,1,622.43,466.55Z"/><path class="cls-1" d="M672.65,507.35a1,1,0,0,1-.25.69,1.66,1.66,0,0,1-.83.5,7.39,7.39,0,0,1-1.54.31,25.27,25.27,0,0,1-4.92,0,7.59,7.59,0,0,1-1.57-.31,1.71,1.71,0,0,1-.83-.5,1,1,0,0,1-.25-.69V460.18a1,1,0,0,1,.25-.69,1.68,1.68,0,0,1,.85-.5,7.91,7.91,0,0,1,1.56-.31,20.51,20.51,0,0,1,2.44-.12,20.83,20.83,0,0,1,2.47.12,7.39,7.39,0,0,1,1.54.31,1.66,1.66,0,0,1,.83.5,1,1,0,0,1,.25.69Z"/><path class="cls-1" d="M731,483a34,34,0,0,1-1.8,11.75,19.88,19.88,0,0,1-5.15,8,20.72,20.72,0,0,1-8.16,4.53,39.81,39.81,0,0,1-11.45,1.45H692.48a3.14,3.14,0,0,1-2.15-.76,3.07,3.07,0,0,1-.87-2.45V462a3.07,3.07,0,0,1,.87-2.45,3.14,3.14,0,0,1,2.15-.76h12.81a35.61,35.61,0,0,1,11.33,1.57,20.4,20.4,0,0,1,7.83,4.63,19.78,19.78,0,0,1,4.85,7.58A30.41,30.41,0,0,1,731,483Zm-10.5.35a25.17,25.17,0,0,0-.83-6.6,14,14,0,0,0-2.66-5.29,12.42,12.42,0,0,0-4.71-3.49,19.06,19.06,0,0,0-7.55-1.26h-5.13v34h5.29a20,20,0,0,0,7-1.08,11.86,11.86,0,0,0,4.77-3.26,14.13,14.13,0,0,0,2.85-5.43A27.1,27.1,0,0,0,720.46,483.38Z"/><path class="cls-1" d="M774.83,504.76a15.81,15.81,0,0,1-.1,1.87,4.55,4.55,0,0,1-.29,1.22,1.65,1.65,0,0,1-.48.68,1.07,1.07,0,0,1-.64.21H748.23a3.12,3.12,0,0,1-2.14-.76,3.07,3.07,0,0,1-.87-2.45V462a3.07,3.07,0,0,1,.87-2.45,3.12,3.12,0,0,1,2.14-.76h24.94a1,1,0,0,1,.62.2,1.51,1.51,0,0,1,.46.67,5.28,5.28,0,0,1,.29,1.24,16.49,16.49,0,0,1,.09,1.91,15.71,15.71,0,0,1-.09,1.83,5.09,5.09,0,0,1-.29,1.22,1.79,1.79,0,0,1-.46.67,1,1,0,0,1-.62.21H755.34v12.2h15.09a1,1,0,0,1,.63.21,1.51,1.51,0,0,1,.49.66,4.68,4.68,0,0,1,.29,1.2,18.85,18.85,0,0,1,0,3.68,4.72,4.72,0,0,1-.29,1.18,1.44,1.44,0,0,1-.49.64,1.17,1.17,0,0,1-.63.19H755.34v14.09h18a1.07,1.07,0,0,1,.64.21,1.61,1.61,0,0,1,.48.67,4.65,4.65,0,0,1,.29,1.22A15.94,15.94,0,0,1,774.83,504.76Z"/><path class="cls-1" d="M829.66,505a13.24,13.24,0,0,1,.58,2.2,1.32,1.32,0,0,1-.31,1.21,2.5,2.5,0,0,1-1.51.5c-.72.07-1.71.1-3,.1s-2.33,0-3.07-.06a7.32,7.32,0,0,1-1.67-.23,1.64,1.64,0,0,1-.82-.48,2.78,2.78,0,0,1-.38-.81l-3.36-10H797.39l-3.16,9.77a3.13,3.13,0,0,1-.41.9,1.64,1.64,0,0,1-.81.58,5.87,5.87,0,0,1-1.58.29c-.68.05-1.58.08-2.68.08a24.75,24.75,0,0,1-2.78-.12,2,2,0,0,1-1.39-.56,1.47,1.47,0,0,1-.27-1.25,11.84,11.84,0,0,1,.58-2.16l15.4-44.31a3.61,3.61,0,0,1,.54-1.06,1.87,1.87,0,0,1,1-.62,8,8,0,0,1,1.87-.27c.8,0,1.86-.06,3.17-.06q2.28,0,3.63.06a9.79,9.79,0,0,1,2.1.27,2,2,0,0,1,1.08.64,3.52,3.52,0,0,1,.56,1.15Zm-22.93-36.63h0l-7.06,21.23H813.8Z"/><path class="cls-1" d="M872.18,493.76a15.38,15.38,0,0,1-1.47,6.91,14.32,14.32,0,0,1-4,5,17.32,17.32,0,0,1-5.87,3,24.92,24.92,0,0,1-7.18,1,25.92,25.92,0,0,1-4.81-.43,26.91,26.91,0,0,1-3.91-1,16.8,16.8,0,0,1-2.84-1.26,8,8,0,0,1-1.64-1.15,3,3,0,0,1-.71-1.45,12.56,12.56,0,0,1-.22-2.72c0-.8,0-1.47.08-2a6,6,0,0,1,.25-1.31,1.52,1.52,0,0,1,.46-.72,1.14,1.14,0,0,1,.68-.21,3.13,3.13,0,0,1,1.52.64c.66.42,1.5.89,2.53,1.41a23.85,23.85,0,0,0,3.69,1.41,17.63,17.63,0,0,0,5,.63,11.36,11.36,0,0,0,3.32-.44,7.48,7.48,0,0,0,2.49-1.26,5.28,5.28,0,0,0,1.56-2,6.43,6.43,0,0,0,.54-2.67,4.65,4.65,0,0,0-.93-2.91A9.07,9.07,0,0,0,858.3,490a25.75,25.75,0,0,0-3.37-1.78c-1.27-.55-2.57-1.14-3.9-1.75a35,35,0,0,1-3.9-2.11,15.75,15.75,0,0,1-3.38-2.81,13.46,13.46,0,0,1-2.41-3.88,14,14,0,0,1-.93-5.37,14.32,14.32,0,0,1,1.33-6.31,13,13,0,0,1,3.59-4.51,15.22,15.22,0,0,1,5.33-2.69,23.62,23.62,0,0,1,10.05-.61,23.89,23.89,0,0,1,3.32.73,17.88,17.88,0,0,1,2.74,1,6.52,6.52,0,0,1,1.59,1,2.8,2.8,0,0,1,.52.65,2.91,2.91,0,0,1,.23.72,8.3,8.3,0,0,1,.14,1.11q0,.69,0,1.68c0,.75,0,1.38,0,1.9a7.22,7.22,0,0,1-.2,1.27,1.56,1.56,0,0,1-.38.73,1,1,0,0,1-.68.23,3.25,3.25,0,0,1-1.35-.54q-.93-.54-2.28-1.17a21.38,21.38,0,0,0-3.12-1.16,13.78,13.78,0,0,0-3.9-.52,9.37,9.37,0,0,0-2.9.4,6.06,6.06,0,0,0-2.06,1.12,4.39,4.39,0,0,0-1.24,1.72,5.63,5.63,0,0,0-.4,2.12,4.7,4.7,0,0,0,.9,2.88,8.77,8.77,0,0,0,2.44,2.16,25.18,25.18,0,0,0,3.45,1.77c1.29.56,2.6,1.14,3.94,1.76a38.42,38.42,0,0,1,3.94,2.11,15.79,15.79,0,0,1,3.43,2.81,13.33,13.33,0,0,1,2.43,3.86A13.46,13.46,0,0,1,872.18,493.76Z"/><path class="cls-1" d="M950.58,505a13.24,13.24,0,0,1,.58,2.2,1.34,1.34,0,0,1-.31,1.21,2.52,2.52,0,0,1-1.51.5c-.72.07-1.71.1-3,.1s-2.33,0-3.07-.06a7.51,7.51,0,0,1-1.68-.23,1.64,1.64,0,0,1-.81-.48,2.78,2.78,0,0,1-.38-.81l-3.36-10H918.31l-3.17,9.77a2.88,2.88,0,0,1-.4.9,1.64,1.64,0,0,1-.81.58,5.87,5.87,0,0,1-1.58.29c-.69.05-1.58.08-2.69.08a24.87,24.87,0,0,1-2.78-.12,2,2,0,0,1-1.38-.56,1.47,1.47,0,0,1-.27-1.25,12.53,12.53,0,0,1,.57-2.16l15.41-44.31a3.61,3.61,0,0,1,.54-1.06,1.87,1.87,0,0,1,1-.62,7.88,7.88,0,0,1,1.87-.27c.8,0,1.85-.06,3.17-.06,1.51,0,2.72,0,3.62.06a9.9,9.9,0,0,1,2.11.27,2,2,0,0,1,1.08.64,3.73,3.73,0,0,1,.56,1.15Zm-22.93-36.63h0l-7.06,21.23h14.16Z"/><path class="cls-1" d="M1000.55,507.43a1.52,1.52,0,0,1-.16.71,1.25,1.25,0,0,1-.73.48,7.15,7.15,0,0,1-1.7.27c-.75.05-1.76.08-3.05.08-1.08,0-1.94,0-2.59-.08a5.69,5.69,0,0,1-1.52-.29,1.62,1.62,0,0,1-.79-.54,3.06,3.06,0,0,1-.39-.79l-4.47-11.15c-.55-1.26-1.07-2.38-1.59-3.36a10.39,10.39,0,0,0-1.71-2.45,6.37,6.37,0,0,0-2.19-1.49,7.59,7.59,0,0,0-2.85-.5h-3.17v19a1,1,0,0,1-.25.69,1.66,1.66,0,0,1-.83.5,7.39,7.39,0,0,1-1.54.31,25.27,25.27,0,0,1-4.92,0,7.59,7.59,0,0,1-1.57-.31,1.59,1.59,0,0,1-.81-.5,1.12,1.12,0,0,1-.23-.69V462a3.07,3.07,0,0,1,.87-2.45,3.12,3.12,0,0,1,2.14-.76h12.93c1.32,0,2.4,0,3.24.08s1.63.12,2.32.19a21,21,0,0,1,5.42,1.47,12.78,12.78,0,0,1,4.09,2.72,11.33,11.33,0,0,1,2.57,4,14.53,14.53,0,0,1,.89,5.26,15.32,15.32,0,0,1-.64,4.58,11.73,11.73,0,0,1-1.87,3.68,12.13,12.13,0,0,1-3.05,2.82,16.37,16.37,0,0,1-4.13,1.93,11.79,11.79,0,0,1,2.11,1.31,11.38,11.38,0,0,1,1.85,1.88,18.65,18.65,0,0,1,1.64,2.5c.51.95,1,2,1.5,3.19l4.21,9.84c.39,1,.64,1.69.77,2.14A4.18,4.18,0,0,1,1000.55,507.43Zm-13.09-33.89a7.37,7.37,0,0,0-1.12-4.17,6.06,6.06,0,0,0-3.67-2.39,12.33,12.33,0,0,0-1.75-.31,23.8,23.8,0,0,0-2.72-.12h-4.56v14.17h5.18a12.28,12.28,0,0,0,3.78-.53,7.43,7.43,0,0,0,2.7-1.46,6,6,0,0,0,1.62-2.26A7.61,7.61,0,0,0,987.46,473.54Z"/><path class="cls-1" d="M1043.53,504.76a13.92,13.92,0,0,1-.1,1.87,4.55,4.55,0,0,1-.29,1.22,1.65,1.65,0,0,1-.48.68,1.07,1.07,0,0,1-.64.21h-25.09a3.12,3.12,0,0,1-2.14-.76,3.07,3.07,0,0,1-.87-2.45V462a3.07,3.07,0,0,1,.87-2.45,3.12,3.12,0,0,1,2.14-.76h24.94a1,1,0,0,1,.62.2,1.43,1.43,0,0,1,.46.67,5.28,5.28,0,0,1,.29,1.24,16.49,16.49,0,0,1,.09,1.91,15.71,15.71,0,0,1-.09,1.83,5.09,5.09,0,0,1-.29,1.22,1.68,1.68,0,0,1-.46.67,1,1,0,0,1-.62.21H1024v12.2h15.09a1,1,0,0,1,.63.21,1.51,1.51,0,0,1,.49.66,4.68,4.68,0,0,1,.29,1.2,18.85,18.85,0,0,1,0,3.68,4.72,4.72,0,0,1-.29,1.18,1.44,1.44,0,0,1-.49.64,1.17,1.17,0,0,1-.63.19H1024v14.09h18a1.07,1.07,0,0,1,.64.21,1.61,1.61,0,0,1,.48.67,4.65,4.65,0,0,1,.29,1.22A14,14,0,0,1,1043.53,504.76Z"/><path class="cls-1" d="M1118.38,493.76a14.93,14.93,0,0,1-.74,4.83,12.62,12.62,0,0,1-5.11,6.67,17.86,17.86,0,0,1-4,2,23.73,23.73,0,0,1-4.61,1.14,36.25,36.25,0,0,1-5.46.37h-13.28a3.12,3.12,0,0,1-2.14-.76,3.07,3.07,0,0,1-.87-2.45V462a3.07,3.07,0,0,1,.87-2.45,3.12,3.12,0,0,1,2.14-.76h12.55a33.73,33.73,0,0,1,7.77.77,15.46,15.46,0,0,1,5.37,2.34,10.41,10.41,0,0,1,3.34,4,12.8,12.8,0,0,1,1.15,5.63,12.24,12.24,0,0,1-.46,3.42,10.2,10.2,0,0,1-1.35,2.91,10,10,0,0,1-2.18,2.32,11.05,11.05,0,0,1-3,1.62,13.48,13.48,0,0,1,3.92,1.35,11.06,11.06,0,0,1,3.12,2.49,11.53,11.53,0,0,1,2.1,3.57A12.77,12.77,0,0,1,1118.38,493.76Zm-13.13-21a7.44,7.44,0,0,0-.46-2.71,4.85,4.85,0,0,0-1.39-2,6.37,6.37,0,0,0-2.33-1.22,13.66,13.66,0,0,0-3.77-.42h-5.13v13h5.67a9.72,9.72,0,0,0,3.52-.52,6.06,6.06,0,0,0,2.18-1.42,5.81,5.81,0,0,0,1.29-2.13A7.77,7.77,0,0,0,1105.25,472.73Zm2.59,21.38a7.87,7.87,0,0,0-.58-3.11,5.79,5.79,0,0,0-1.7-2.29,7.71,7.71,0,0,0-2.85-1.43,16.55,16.55,0,0,0-4.52-.5h-6V501h7.33a12.5,12.5,0,0,0,3.57-.44,7.33,7.33,0,0,0,2.51-1.32,6,6,0,0,0,1.66-2.16A6.91,6.91,0,0,0,1107.84,494.11Z"/><path class="cls-1" d="M1173.21,490.13a23.48,23.48,0,0,1-1.35,8.23,16.16,16.16,0,0,1-4,6.13,17.25,17.25,0,0,1-6.48,3.82,27.38,27.38,0,0,1-8.88,1.32,28.24,28.24,0,0,1-8.45-1.18,16.49,16.49,0,0,1-6.33-3.57,15.48,15.48,0,0,1-4-6,23.31,23.31,0,0,1-1.37-8.35V460.18a1.14,1.14,0,0,1,.23-.69,1.57,1.57,0,0,1,.83-.5,7.88,7.88,0,0,1,1.57-.31,25.07,25.07,0,0,1,4.9,0,7.39,7.39,0,0,1,1.54.31,1.66,1.66,0,0,1,.83.5,1,1,0,0,1,.25.69v29.49a16.14,16.14,0,0,0,.74,5.15,9.36,9.36,0,0,0,2.1,3.61,8.65,8.65,0,0,0,3.28,2.14,13,13,0,0,0,8.55,0,8.49,8.49,0,0,0,3.2-2.15,9.59,9.59,0,0,0,2-3.47,14.22,14.22,0,0,0,.71-4.69V460.18a1.09,1.09,0,0,1,.24-.69,1.51,1.51,0,0,1,.81-.5,7.34,7.34,0,0,1,1.56-.31,20.81,20.81,0,0,1,2.45-.12,19.73,19.73,0,0,1,2.41.12,7.56,7.56,0,0,1,1.53.31,1.59,1.59,0,0,1,.81.5,1.14,1.14,0,0,1,.23.69Z"/><path class="cls-1" d="M1200.17,507.35a1,1,0,0,1-.25.69,1.66,1.66,0,0,1-.83.5,7.39,7.39,0,0,1-1.54.31,25.27,25.27,0,0,1-4.92,0,7.59,7.59,0,0,1-1.57-.31,1.71,1.71,0,0,1-.83-.5,1.08,1.08,0,0,1-.25-.69V460.18a1.1,1.1,0,0,1,.25-.69,1.68,1.68,0,0,1,.85-.5,7.88,7.88,0,0,1,1.57-.31,20.21,20.21,0,0,1,2.43-.12,20.71,20.71,0,0,1,2.47.12,7.39,7.39,0,0,1,1.54.31,1.66,1.66,0,0,1,.83.5,1,1,0,0,1,.25.69Z"/><path class="cls-1" d="M1244.43,504.49a15.35,15.35,0,0,1-.1,1.95,5.46,5.46,0,0,1-.29,1.31,1.78,1.78,0,0,1-.48.76,1.07,1.07,0,0,1-.68.23H1220a3.14,3.14,0,0,1-2.15-.76,3.1,3.1,0,0,1-.86-2.45V460.18a1,1,0,0,1,.25-.69,1.61,1.61,0,0,1,.83-.5,7.34,7.34,0,0,1,1.56-.31,25.27,25.27,0,0,1,4.92,0,7.65,7.65,0,0,1,1.55.31,1.62,1.62,0,0,1,.82.5,1.06,1.06,0,0,1,.26.69v40.18h15.7a1.12,1.12,0,0,1,.68.21,1.66,1.66,0,0,1,.48.7,5,5,0,0,1,.29,1.27A15.35,15.35,0,0,1,1244.43,504.49Z"/><path class="cls-1" d="M1283.78,463a17.23,17.23,0,0,1-.09,1.91,5.55,5.55,0,0,1-.29,1.28,1.77,1.77,0,0,1-.48.71,1,1,0,0,1-.64.23h-12.51v40.26a1,1,0,0,1-.25.69,1.66,1.66,0,0,1-.83.5,7.48,7.48,0,0,1-1.56.31,25.07,25.07,0,0,1-4.9,0,7.59,7.59,0,0,1-1.57-.31,1.71,1.71,0,0,1-.83-.5,1.08,1.08,0,0,1-.25-.69V467.09h-12.5a1,1,0,0,1-.66-.23,1.86,1.86,0,0,1-.46-.71,5.07,5.07,0,0,1-.29-1.28,14.89,14.89,0,0,1-.1-1.91,15.8,15.8,0,0,1,.1-2,5,5,0,0,1,.29-1.29,1.74,1.74,0,0,1,.46-.7,1,1,0,0,1,.66-.21h35.2a1.09,1.09,0,0,1,.64.21,1.66,1.66,0,0,1,.48.7,5.41,5.41,0,0,1,.29,1.29A18.28,18.28,0,0,1,1283.78,463Z"/></svg>